G04 #@! TF.GenerationSoftware,KiCad,Pcbnew,(6.0.0)*
G04 #@! TF.CreationDate,2022-04-04T19:52:15+01:00*
G04 #@! TF.ProjectId,MS20-VCF,4d533230-2d56-4434-962e-6b696361645f,rev?*
G04 #@! TF.SameCoordinates,Original*
G04 #@! TF.FileFunction,Legend,Bot*
G04 #@! TF.FilePolarity,Positive*
%FSLAX46Y46*%
G04 Gerber Fmt 4.6, Leading zero omitted, Abs format (unit mm)*
G04 Created by KiCad (PCBNEW (6.0.0)) date 2022-04-04 19:52:15*
%MOMM*%
%LPD*%
G01*
G04 APERTURE LIST*
%ADD10C,0.300000*%
%ADD11C,0.150000*%
%ADD12C,0.120000*%
%ADD13C,1.600000*%
%ADD14R,1.600000X1.600000*%
%ADD15O,1.600000X1.600000*%
%ADD16R,1.700000X1.700000*%
%ADD17O,1.700000X1.700000*%
%ADD18R,1.500000X1.050000*%
%ADD19O,1.500000X1.050000*%
%ADD20C,2.000000*%
%ADD21O,2.000000X2.000000*%
%ADD22C,1.440000*%
G04 APERTURE END LIST*
D10*
X63928571Y-143678571D02*
X63928571Y-144750000D01*
X64000000Y-144964285D01*
X64142857Y-145107142D01*
X64357142Y-145178571D01*
X64500000Y-145178571D01*
X62500000Y-145178571D02*
X63214285Y-145178571D01*
X63214285Y-143678571D01*
X61142857Y-145035714D02*
X61214285Y-145107142D01*
X61428571Y-145178571D01*
X61571428Y-145178571D01*
X61785714Y-145107142D01*
X61928571Y-144964285D01*
X62000000Y-144821428D01*
X62071428Y-144535714D01*
X62071428Y-144321428D01*
X62000000Y-144035714D01*
X61928571Y-143892857D01*
X61785714Y-143750000D01*
X61571428Y-143678571D01*
X61428571Y-143678571D01*
X61214285Y-143750000D01*
X61142857Y-143821428D01*
X60071428Y-143678571D02*
X60071428Y-144750000D01*
X60142857Y-144964285D01*
X60285714Y-145107142D01*
X60500000Y-145178571D01*
X60642857Y-145178571D01*
X58642857Y-145178571D02*
X59357142Y-145178571D01*
X59357142Y-143678571D01*
X57285714Y-145035714D02*
X57357142Y-145107142D01*
X57571428Y-145178571D01*
X57714285Y-145178571D01*
X57928571Y-145107142D01*
X58071428Y-144964285D01*
X58142857Y-144821428D01*
X58214285Y-144535714D01*
X58214285Y-144321428D01*
X58142857Y-144035714D01*
X58071428Y-143892857D01*
X57928571Y-143750000D01*
X57714285Y-143678571D01*
X57571428Y-143678571D01*
X57357142Y-143750000D01*
X57285714Y-143821428D01*
X56214285Y-143678571D02*
X56214285Y-144750000D01*
X56285714Y-144964285D01*
X56428571Y-145107142D01*
X56642857Y-145178571D01*
X56785714Y-145178571D01*
X54785714Y-145178571D02*
X55499999Y-145178571D01*
X55499999Y-143678571D01*
X53428571Y-145035714D02*
X53499999Y-145107142D01*
X53714285Y-145178571D01*
X53857142Y-145178571D01*
X54071428Y-145107142D01*
X54214285Y-144964285D01*
X54285714Y-144821428D01*
X54357142Y-144535714D01*
X54357142Y-144321428D01*
X54285714Y-144035714D01*
X54214285Y-143892857D01*
X54071428Y-143750000D01*
X53857142Y-143678571D01*
X53714285Y-143678571D01*
X53499999Y-143750000D01*
X53428571Y-143821428D01*
X52357142Y-143678571D02*
X52357142Y-144750000D01*
X52428571Y-144964285D01*
X52571428Y-145107142D01*
X52785714Y-145178571D01*
X52928571Y-145178571D01*
X50928571Y-145178571D02*
X51642857Y-145178571D01*
X51642857Y-143678571D01*
X49571428Y-145035714D02*
X49642857Y-145107142D01*
X49857142Y-145178571D01*
X49999999Y-145178571D01*
X50214285Y-145107142D01*
X50357142Y-144964285D01*
X50428571Y-144821428D01*
X50499999Y-144535714D01*
X50499999Y-144321428D01*
X50428571Y-144035714D01*
X50357142Y-143892857D01*
X50214285Y-143750000D01*
X49999999Y-143678571D01*
X49857142Y-143678571D01*
X49642857Y-143750000D01*
X49571428Y-143821428D01*
D11*
X70666666Y-87607142D02*
X70714285Y-87654761D01*
X70857142Y-87702380D01*
X70952380Y-87702380D01*
X71095238Y-87654761D01*
X71190476Y-87559523D01*
X71238095Y-87464285D01*
X71285714Y-87273809D01*
X71285714Y-87130952D01*
X71238095Y-86940476D01*
X71190476Y-86845238D01*
X71095238Y-86750000D01*
X70952380Y-86702380D01*
X70857142Y-86702380D01*
X70714285Y-86750000D01*
X70666666Y-86797619D01*
X70285714Y-86797619D02*
X70238095Y-86750000D01*
X70142857Y-86702380D01*
X69904761Y-86702380D01*
X69809523Y-86750000D01*
X69761904Y-86797619D01*
X69714285Y-86892857D01*
X69714285Y-86988095D01*
X69761904Y-87130952D01*
X70333333Y-87702380D01*
X69714285Y-87702380D01*
X70666666Y-98357142D02*
X70714285Y-98404761D01*
X70857142Y-98452380D01*
X70952380Y-98452380D01*
X71095238Y-98404761D01*
X71190476Y-98309523D01*
X71238095Y-98214285D01*
X71285714Y-98023809D01*
X71285714Y-97880952D01*
X71238095Y-97690476D01*
X71190476Y-97595238D01*
X71095238Y-97500000D01*
X70952380Y-97452380D01*
X70857142Y-97452380D01*
X70714285Y-97500000D01*
X70666666Y-97547619D01*
X70333333Y-97452380D02*
X69714285Y-97452380D01*
X70047619Y-97833333D01*
X69904761Y-97833333D01*
X69809523Y-97880952D01*
X69761904Y-97928571D01*
X69714285Y-98023809D01*
X69714285Y-98261904D01*
X69761904Y-98357142D01*
X69809523Y-98404761D01*
X69904761Y-98452380D01*
X70190476Y-98452380D01*
X70285714Y-98404761D01*
X70333333Y-98357142D01*
X42121778Y-61857142D02*
X42169397Y-61904761D01*
X42312254Y-61952380D01*
X42407492Y-61952380D01*
X42550350Y-61904761D01*
X42645588Y-61809523D01*
X42693207Y-61714285D01*
X42740826Y-61523809D01*
X42740826Y-61380952D01*
X42693207Y-61190476D01*
X42645588Y-61095238D01*
X42550350Y-61000000D01*
X42407492Y-60952380D01*
X42312254Y-60952380D01*
X42169397Y-61000000D01*
X42121778Y-61047619D01*
X41264635Y-60952380D02*
X41455112Y-60952380D01*
X41550350Y-61000000D01*
X41597969Y-61047619D01*
X41693207Y-61190476D01*
X41740826Y-61380952D01*
X41740826Y-61761904D01*
X41693207Y-61857142D01*
X41645588Y-61904761D01*
X41550350Y-61952380D01*
X41359873Y-61952380D01*
X41264635Y-61904761D01*
X41217016Y-61857142D01*
X41169397Y-61761904D01*
X41169397Y-61523809D01*
X41217016Y-61428571D01*
X41264635Y-61380952D01*
X41359873Y-61333333D01*
X41550350Y-61333333D01*
X41645588Y-61380952D01*
X41693207Y-61428571D01*
X41740826Y-61523809D01*
X56928571Y-92666666D02*
X56928571Y-92333333D01*
X57452380Y-92333333D02*
X56452380Y-92333333D01*
X56452380Y-92809523D01*
X56928571Y-93523809D02*
X56976190Y-93666666D01*
X57023809Y-93714285D01*
X57119047Y-93761904D01*
X57261904Y-93761904D01*
X57357142Y-93714285D01*
X57404761Y-93666666D01*
X57452380Y-93571428D01*
X57452380Y-93190476D01*
X56452380Y-93190476D01*
X56452380Y-93523809D01*
X56500000Y-93619047D01*
X56547619Y-93666666D01*
X56642857Y-93714285D01*
X56738095Y-93714285D01*
X56833333Y-93666666D01*
X56880952Y-93619047D01*
X56928571Y-93523809D01*
X56928571Y-93190476D01*
X56547619Y-94142857D02*
X56500000Y-94190476D01*
X56452380Y-94285714D01*
X56452380Y-94523809D01*
X56500000Y-94619047D01*
X56547619Y-94666666D01*
X56642857Y-94714285D01*
X56738095Y-94714285D01*
X56880952Y-94666666D01*
X57452380Y-94095238D01*
X57452380Y-94714285D01*
X39047380Y-94161666D02*
X39761666Y-94161666D01*
X39904523Y-94114047D01*
X39999761Y-94018809D01*
X40047380Y-93875952D01*
X40047380Y-93780714D01*
X39047380Y-95114047D02*
X39047380Y-94637857D01*
X39523571Y-94590238D01*
X39475952Y-94637857D01*
X39428333Y-94733095D01*
X39428333Y-94971190D01*
X39475952Y-95066428D01*
X39523571Y-95114047D01*
X39618809Y-95161666D01*
X39856904Y-95161666D01*
X39952142Y-95114047D01*
X39999761Y-95066428D01*
X40047380Y-94971190D01*
X40047380Y-94733095D01*
X39999761Y-94637857D01*
X39952142Y-94590238D01*
X82952380Y-40714285D02*
X82476190Y-40380952D01*
X82952380Y-40142857D02*
X81952380Y-40142857D01*
X81952380Y-40523809D01*
X82000000Y-40619047D01*
X82047619Y-40666666D01*
X82142857Y-40714285D01*
X82285714Y-40714285D01*
X82380952Y-40666666D01*
X82428571Y-40619047D01*
X82476190Y-40523809D01*
X82476190Y-40142857D01*
X82904761Y-41523809D02*
X82952380Y-41428571D01*
X82952380Y-41238095D01*
X82904761Y-41142857D01*
X82809523Y-41095238D01*
X82428571Y-41095238D01*
X82333333Y-41142857D01*
X82285714Y-41238095D01*
X82285714Y-41428571D01*
X82333333Y-41523809D01*
X82428571Y-41571428D01*
X82523809Y-41571428D01*
X82619047Y-41095238D01*
X82904761Y-41952380D02*
X82952380Y-42047619D01*
X82952380Y-42238095D01*
X82904761Y-42333333D01*
X82809523Y-42380952D01*
X82761904Y-42380952D01*
X82666666Y-42333333D01*
X82619047Y-42238095D01*
X82619047Y-42095238D01*
X82571428Y-42000000D01*
X82476190Y-41952380D01*
X82428571Y-41952380D01*
X82333333Y-42000000D01*
X82285714Y-42095238D01*
X82285714Y-42238095D01*
X82333333Y-42333333D01*
X82952380Y-43285714D02*
X82952380Y-42809523D01*
X81952380Y-42809523D01*
X82285714Y-43523809D02*
X82952380Y-43761904D01*
X82285714Y-44000000D01*
X82952380Y-44904761D02*
X82952380Y-44333333D01*
X82952380Y-44619047D02*
X81952380Y-44619047D01*
X82095238Y-44523809D01*
X82190476Y-44428571D01*
X82238095Y-44333333D01*
X82452380Y-51857142D02*
X81976190Y-51523809D01*
X82452380Y-51285714D02*
X81452380Y-51285714D01*
X81452380Y-51666666D01*
X81500000Y-51761904D01*
X81547619Y-51809523D01*
X81642857Y-51857142D01*
X81785714Y-51857142D01*
X81880952Y-51809523D01*
X81928571Y-51761904D01*
X81976190Y-51666666D01*
X81976190Y-51285714D01*
X82404761Y-52666666D02*
X82452380Y-52571428D01*
X82452380Y-52380952D01*
X82404761Y-52285714D01*
X82309523Y-52238095D01*
X81928571Y-52238095D01*
X81833333Y-52285714D01*
X81785714Y-52380952D01*
X81785714Y-52571428D01*
X81833333Y-52666666D01*
X81928571Y-52714285D01*
X82023809Y-52714285D01*
X82119047Y-52238095D01*
X82404761Y-53095238D02*
X82452380Y-53190476D01*
X82452380Y-53380952D01*
X82404761Y-53476190D01*
X82309523Y-53523809D01*
X82261904Y-53523809D01*
X82166666Y-53476190D01*
X82119047Y-53380952D01*
X82119047Y-53238095D01*
X82071428Y-53142857D01*
X81976190Y-53095238D01*
X81928571Y-53095238D01*
X81833333Y-53142857D01*
X81785714Y-53238095D01*
X81785714Y-53380952D01*
X81833333Y-53476190D01*
X81452380Y-53809523D02*
X82452380Y-54142857D01*
X81452380Y-54476190D01*
X82452380Y-54952380D02*
X82404761Y-54857142D01*
X82357142Y-54809523D01*
X82261904Y-54761904D01*
X81976190Y-54761904D01*
X81880952Y-54809523D01*
X81833333Y-54857142D01*
X81785714Y-54952380D01*
X81785714Y-55095238D01*
X81833333Y-55190476D01*
X81880952Y-55238095D01*
X81976190Y-55285714D01*
X82261904Y-55285714D01*
X82357142Y-55238095D01*
X82404761Y-55190476D01*
X82452380Y-55095238D01*
X82452380Y-54952380D01*
X82452380Y-55857142D02*
X82404761Y-55761904D01*
X82309523Y-55714285D01*
X81452380Y-55714285D01*
X82452380Y-56761904D02*
X82452380Y-56190476D01*
X82452380Y-56476190D02*
X81452380Y-56476190D01*
X81595238Y-56380952D01*
X81690476Y-56285714D01*
X81738095Y-56190476D01*
X37892857Y-126857142D02*
X37940476Y-126904761D01*
X38083333Y-126952380D01*
X38178571Y-126952380D01*
X38321428Y-126904761D01*
X38416666Y-126809523D01*
X38464285Y-126714285D01*
X38511904Y-126523809D01*
X38511904Y-126380952D01*
X38464285Y-126190476D01*
X38416666Y-126095238D01*
X38321428Y-126000000D01*
X38178571Y-125952380D01*
X38083333Y-125952380D01*
X37940476Y-126000000D01*
X37892857Y-126047619D01*
X36940476Y-126952380D02*
X37511904Y-126952380D01*
X37226190Y-126952380D02*
X37226190Y-125952380D01*
X37321428Y-126095238D01*
X37416666Y-126190476D01*
X37511904Y-126238095D01*
X36083333Y-126285714D02*
X36083333Y-126952380D01*
X36321428Y-125904761D02*
X36559523Y-126619047D01*
X35940476Y-126619047D01*
X61928571Y-92516666D02*
X61928571Y-92183333D01*
X62452380Y-92183333D02*
X61452380Y-92183333D01*
X61452380Y-92659523D01*
X61928571Y-93373809D02*
X61976190Y-93516666D01*
X62023809Y-93564285D01*
X62119047Y-93611904D01*
X62261904Y-93611904D01*
X62357142Y-93564285D01*
X62404761Y-93516666D01*
X62452380Y-93421428D01*
X62452380Y-93040476D01*
X61452380Y-93040476D01*
X61452380Y-93373809D01*
X61500000Y-93469047D01*
X61547619Y-93516666D01*
X61642857Y-93564285D01*
X61738095Y-93564285D01*
X61833333Y-93516666D01*
X61880952Y-93469047D01*
X61928571Y-93373809D01*
X61928571Y-93040476D01*
X62452380Y-94564285D02*
X62452380Y-93992857D01*
X62452380Y-94278571D02*
X61452380Y-94278571D01*
X61595238Y-94183333D01*
X61690476Y-94088095D01*
X61738095Y-93992857D01*
X82952380Y-101714285D02*
X82476190Y-101380952D01*
X82952380Y-101142857D02*
X81952380Y-101142857D01*
X81952380Y-101523809D01*
X82000000Y-101619047D01*
X82047619Y-101666666D01*
X82142857Y-101714285D01*
X82285714Y-101714285D01*
X82380952Y-101666666D01*
X82428571Y-101619047D01*
X82476190Y-101523809D01*
X82476190Y-101142857D01*
X82904761Y-102523809D02*
X82952380Y-102428571D01*
X82952380Y-102238095D01*
X82904761Y-102142857D01*
X82809523Y-102095238D01*
X82428571Y-102095238D01*
X82333333Y-102142857D01*
X82285714Y-102238095D01*
X82285714Y-102428571D01*
X82333333Y-102523809D01*
X82428571Y-102571428D01*
X82523809Y-102571428D01*
X82619047Y-102095238D01*
X82904761Y-102952380D02*
X82952380Y-103047619D01*
X82952380Y-103238095D01*
X82904761Y-103333333D01*
X82809523Y-103380952D01*
X82761904Y-103380952D01*
X82666666Y-103333333D01*
X82619047Y-103238095D01*
X82619047Y-103095238D01*
X82571428Y-103000000D01*
X82476190Y-102952380D01*
X82428571Y-102952380D01*
X82333333Y-103000000D01*
X82285714Y-103095238D01*
X82285714Y-103238095D01*
X82333333Y-103333333D01*
X82952380Y-104285714D02*
X82952380Y-103809523D01*
X81952380Y-103809523D01*
X82285714Y-104523809D02*
X82952380Y-104761904D01*
X82285714Y-105000000D01*
X82047619Y-105333333D02*
X82000000Y-105380952D01*
X81952380Y-105476190D01*
X81952380Y-105714285D01*
X82000000Y-105809523D01*
X82047619Y-105857142D01*
X82142857Y-105904761D01*
X82238095Y-105904761D01*
X82380952Y-105857142D01*
X82952380Y-105285714D01*
X82952380Y-105904761D01*
X82952380Y-89857142D02*
X82476190Y-89523809D01*
X82952380Y-89285714D02*
X81952380Y-89285714D01*
X81952380Y-89666666D01*
X82000000Y-89761904D01*
X82047619Y-89809523D01*
X82142857Y-89857142D01*
X82285714Y-89857142D01*
X82380952Y-89809523D01*
X82428571Y-89761904D01*
X82476190Y-89666666D01*
X82476190Y-89285714D01*
X82904761Y-90666666D02*
X82952380Y-90571428D01*
X82952380Y-90380952D01*
X82904761Y-90285714D01*
X82809523Y-90238095D01*
X82428571Y-90238095D01*
X82333333Y-90285714D01*
X82285714Y-90380952D01*
X82285714Y-90571428D01*
X82333333Y-90666666D01*
X82428571Y-90714285D01*
X82523809Y-90714285D01*
X82619047Y-90238095D01*
X82904761Y-91095238D02*
X82952380Y-91190476D01*
X82952380Y-91380952D01*
X82904761Y-91476190D01*
X82809523Y-91523809D01*
X82761904Y-91523809D01*
X82666666Y-91476190D01*
X82619047Y-91380952D01*
X82619047Y-91238095D01*
X82571428Y-91142857D01*
X82476190Y-91095238D01*
X82428571Y-91095238D01*
X82333333Y-91142857D01*
X82285714Y-91238095D01*
X82285714Y-91380952D01*
X82333333Y-91476190D01*
X81952380Y-91809523D02*
X82952380Y-92142857D01*
X81952380Y-92476190D01*
X82952380Y-92952380D02*
X82904761Y-92857142D01*
X82857142Y-92809523D01*
X82761904Y-92761904D01*
X82476190Y-92761904D01*
X82380952Y-92809523D01*
X82333333Y-92857142D01*
X82285714Y-92952380D01*
X82285714Y-93095238D01*
X82333333Y-93190476D01*
X82380952Y-93238095D01*
X82476190Y-93285714D01*
X82761904Y-93285714D01*
X82857142Y-93238095D01*
X82904761Y-93190476D01*
X82952380Y-93095238D01*
X82952380Y-92952380D01*
X82952380Y-93857142D02*
X82904761Y-93761904D01*
X82809523Y-93714285D01*
X81952380Y-93714285D01*
X82047619Y-94190476D02*
X82000000Y-94238095D01*
X81952380Y-94333333D01*
X81952380Y-94571428D01*
X82000000Y-94666666D01*
X82047619Y-94714285D01*
X82142857Y-94761904D01*
X82238095Y-94761904D01*
X82380952Y-94714285D01*
X82952380Y-94142857D01*
X82952380Y-94761904D01*
X32166666Y-103357142D02*
X32214285Y-103404761D01*
X32357142Y-103452380D01*
X32452380Y-103452380D01*
X32595238Y-103404761D01*
X32690476Y-103309523D01*
X32738095Y-103214285D01*
X32785714Y-103023809D01*
X32785714Y-102880952D01*
X32738095Y-102690476D01*
X32690476Y-102595238D01*
X32595238Y-102500000D01*
X32452380Y-102452380D01*
X32357142Y-102452380D01*
X32214285Y-102500000D01*
X32166666Y-102547619D01*
X31595238Y-102880952D02*
X31690476Y-102833333D01*
X31738095Y-102785714D01*
X31785714Y-102690476D01*
X31785714Y-102642857D01*
X31738095Y-102547619D01*
X31690476Y-102500000D01*
X31595238Y-102452380D01*
X31404761Y-102452380D01*
X31309523Y-102500000D01*
X31261904Y-102547619D01*
X31214285Y-102642857D01*
X31214285Y-102690476D01*
X31261904Y-102785714D01*
X31309523Y-102833333D01*
X31404761Y-102880952D01*
X31595238Y-102880952D01*
X31690476Y-102928571D01*
X31738095Y-102976190D01*
X31785714Y-103071428D01*
X31785714Y-103261904D01*
X31738095Y-103357142D01*
X31690476Y-103404761D01*
X31595238Y-103452380D01*
X31404761Y-103452380D01*
X31309523Y-103404761D01*
X31261904Y-103357142D01*
X31214285Y-103261904D01*
X31214285Y-103071428D01*
X31261904Y-102976190D01*
X31309523Y-102928571D01*
X31404761Y-102880952D01*
X34211554Y-89857142D02*
X34259173Y-89904761D01*
X34402030Y-89952380D01*
X34497268Y-89952380D01*
X34640126Y-89904761D01*
X34735364Y-89809523D01*
X34782983Y-89714285D01*
X34830602Y-89523809D01*
X34830602Y-89380952D01*
X34782983Y-89190476D01*
X34735364Y-89095238D01*
X34640126Y-89000000D01*
X34497268Y-88952380D01*
X34402030Y-88952380D01*
X34259173Y-89000000D01*
X34211554Y-89047619D01*
X33878221Y-88952380D02*
X33211554Y-88952380D01*
X33640126Y-89952380D01*
D12*
X68661000Y-91310000D02*
X68661000Y-90040000D01*
X68621000Y-91329000D02*
X68621000Y-90040000D01*
X67580000Y-87960000D02*
X67580000Y-86421000D01*
X68221000Y-87960000D02*
X68221000Y-86520000D01*
X70021000Y-89677000D02*
X70021000Y-88323000D01*
X69061000Y-91065000D02*
X69061000Y-90040000D01*
X69021000Y-91095000D02*
X69021000Y-90040000D01*
X68661000Y-87960000D02*
X68661000Y-86690000D01*
X68100000Y-87960000D02*
X68100000Y-86489000D01*
X69981000Y-89805000D02*
X69981000Y-88195000D01*
X69861000Y-90098000D02*
X69861000Y-87902000D01*
X69941000Y-89915000D02*
X69941000Y-88085000D01*
X67820000Y-87960000D02*
X67820000Y-86439000D01*
X67500000Y-91580000D02*
X67500000Y-90040000D01*
X69341000Y-90826000D02*
X69341000Y-90040000D01*
X69101000Y-87960000D02*
X69101000Y-86965000D01*
X64945225Y-90725000D02*
X64945225Y-90225000D01*
X68381000Y-91428000D02*
X68381000Y-90040000D01*
X68941000Y-87960000D02*
X68941000Y-86851000D01*
X67620000Y-91578000D02*
X67620000Y-90040000D01*
X67740000Y-87960000D02*
X67740000Y-86431000D01*
X69701000Y-90383000D02*
X69701000Y-87617000D01*
X68461000Y-87960000D02*
X68461000Y-86602000D01*
X68741000Y-87960000D02*
X68741000Y-86732000D01*
X68901000Y-91175000D02*
X68901000Y-90040000D01*
X68100000Y-91511000D02*
X68100000Y-90040000D01*
X67820000Y-91561000D02*
X67820000Y-90040000D01*
X68020000Y-91528000D02*
X68020000Y-90040000D01*
X68301000Y-87960000D02*
X68301000Y-86545000D01*
X68501000Y-91382000D02*
X68501000Y-90040000D01*
X68541000Y-91365000D02*
X68541000Y-90040000D01*
X68701000Y-91290000D02*
X68701000Y-90040000D01*
X68140000Y-91501000D02*
X68140000Y-90040000D01*
X68621000Y-87960000D02*
X68621000Y-86671000D01*
X69501000Y-90653000D02*
X69501000Y-90040000D01*
X68341000Y-91442000D02*
X68341000Y-90040000D01*
X69461000Y-90699000D02*
X69461000Y-90040000D01*
X68981000Y-87960000D02*
X68981000Y-86878000D01*
X68301000Y-91455000D02*
X68301000Y-90040000D01*
X67700000Y-87960000D02*
X67700000Y-86427000D01*
X69101000Y-91035000D02*
X69101000Y-90040000D01*
X69261000Y-87960000D02*
X69261000Y-87099000D01*
X69461000Y-87960000D02*
X69461000Y-87301000D01*
X68861000Y-87960000D02*
X68861000Y-86800000D01*
X67940000Y-87960000D02*
X67940000Y-86457000D01*
X67580000Y-91579000D02*
X67580000Y-90040000D01*
X67620000Y-87960000D02*
X67620000Y-86422000D01*
X68581000Y-87960000D02*
X68581000Y-86652000D01*
X67740000Y-91569000D02*
X67740000Y-90040000D01*
X68461000Y-91398000D02*
X68461000Y-90040000D01*
X69741000Y-90319000D02*
X69741000Y-87681000D01*
X68541000Y-87960000D02*
X68541000Y-86635000D01*
X69421000Y-90743000D02*
X69421000Y-90040000D01*
X68060000Y-91520000D02*
X68060000Y-90040000D01*
X69021000Y-87960000D02*
X69021000Y-86905000D01*
X69141000Y-91004000D02*
X69141000Y-90040000D01*
X64695225Y-90475000D02*
X65195225Y-90475000D01*
X67780000Y-87960000D02*
X67780000Y-86435000D01*
X67660000Y-87960000D02*
X67660000Y-86424000D01*
X67860000Y-91556000D02*
X67860000Y-90040000D01*
X68381000Y-87960000D02*
X68381000Y-86572000D01*
X69181000Y-87960000D02*
X69181000Y-87029000D01*
X67940000Y-91543000D02*
X67940000Y-90040000D01*
X69181000Y-90971000D02*
X69181000Y-90040000D01*
X68501000Y-87960000D02*
X68501000Y-86618000D01*
X67540000Y-91580000D02*
X67540000Y-90040000D01*
X69341000Y-87960000D02*
X69341000Y-87174000D01*
X68180000Y-91491000D02*
X68180000Y-90040000D01*
X67780000Y-91565000D02*
X67780000Y-90040000D01*
X68981000Y-91122000D02*
X68981000Y-90040000D01*
X68861000Y-91200000D02*
X68861000Y-90040000D01*
X70061000Y-89518000D02*
X70061000Y-88482000D01*
X68140000Y-87960000D02*
X68140000Y-86499000D01*
X68261000Y-87960000D02*
X68261000Y-86532000D01*
X68421000Y-91414000D02*
X68421000Y-90040000D01*
X67980000Y-87960000D02*
X67980000Y-86464000D01*
X67900000Y-87960000D02*
X67900000Y-86450000D01*
X68901000Y-87960000D02*
X68901000Y-86825000D01*
X70101000Y-89284000D02*
X70101000Y-88716000D01*
X68821000Y-91224000D02*
X68821000Y-90040000D01*
X67980000Y-91536000D02*
X67980000Y-90040000D01*
X69821000Y-90178000D02*
X69821000Y-87822000D01*
X69381000Y-87960000D02*
X69381000Y-87215000D01*
X68421000Y-87960000D02*
X68421000Y-86586000D01*
X69261000Y-90901000D02*
X69261000Y-90040000D01*
X68020000Y-87960000D02*
X68020000Y-86472000D01*
X68821000Y-87960000D02*
X68821000Y-86776000D01*
X69141000Y-87960000D02*
X69141000Y-86996000D01*
X68261000Y-91468000D02*
X68261000Y-90040000D01*
X69541000Y-90605000D02*
X69541000Y-87395000D01*
X67900000Y-91550000D02*
X67900000Y-90040000D01*
X68180000Y-87960000D02*
X68180000Y-86509000D01*
X68781000Y-87960000D02*
X68781000Y-86753000D01*
X68221000Y-91480000D02*
X68221000Y-90040000D01*
X69661000Y-90443000D02*
X69661000Y-87557000D01*
X69301000Y-90864000D02*
X69301000Y-90040000D01*
X69221000Y-87960000D02*
X69221000Y-87063000D01*
X68060000Y-87960000D02*
X68060000Y-86480000D01*
X68781000Y-91247000D02*
X68781000Y-90040000D01*
X69781000Y-90251000D02*
X69781000Y-87749000D01*
X67540000Y-87960000D02*
X67540000Y-86420000D01*
X69421000Y-87960000D02*
X69421000Y-87257000D01*
X69381000Y-90785000D02*
X69381000Y-90040000D01*
X69301000Y-87960000D02*
X69301000Y-87136000D01*
X68741000Y-91268000D02*
X68741000Y-90040000D01*
X68341000Y-87960000D02*
X68341000Y-86558000D01*
X69501000Y-87960000D02*
X69501000Y-87347000D01*
X69621000Y-90500000D02*
X69621000Y-87500000D01*
X69901000Y-90011000D02*
X69901000Y-87989000D01*
X67500000Y-87960000D02*
X67500000Y-86420000D01*
X69061000Y-87960000D02*
X69061000Y-86935000D01*
X69221000Y-90937000D02*
X69221000Y-90040000D01*
X67660000Y-91576000D02*
X67660000Y-90040000D01*
X68701000Y-87960000D02*
X68701000Y-86710000D01*
X67860000Y-87960000D02*
X67860000Y-86444000D01*
X68941000Y-91149000D02*
X68941000Y-90040000D01*
X68581000Y-91348000D02*
X68581000Y-90040000D01*
X67700000Y-91573000D02*
X67700000Y-90040000D01*
X69581000Y-90554000D02*
X69581000Y-87446000D01*
X70120000Y-89000000D02*
G75*
G03*
X70120000Y-89000000I-2620000J0D01*
G01*
X65414113Y-93895000D02*
X65414113Y-97105000D01*
X64934113Y-94823000D02*
X64934113Y-96177000D01*
X65534113Y-96540000D02*
X65534113Y-97243000D01*
X65534113Y-93757000D02*
X65534113Y-94460000D01*
X66815113Y-92999000D02*
X66815113Y-94460000D01*
X66855113Y-92989000D02*
X66855113Y-94460000D01*
X65494113Y-93801000D02*
X65494113Y-94460000D01*
X66614113Y-93058000D02*
X66614113Y-94460000D01*
X66694113Y-96540000D02*
X66694113Y-97968000D01*
X67215113Y-92931000D02*
X67215113Y-94460000D01*
X65014113Y-94585000D02*
X65014113Y-96415000D01*
X66935113Y-92972000D02*
X66935113Y-94460000D01*
X65574113Y-96540000D02*
X65574113Y-97285000D01*
X66574113Y-93072000D02*
X66574113Y-94460000D01*
X67255113Y-92927000D02*
X67255113Y-94460000D01*
X67295113Y-92924000D02*
X67295113Y-94460000D01*
X67455113Y-92920000D02*
X67455113Y-94460000D01*
X66775113Y-93009000D02*
X66775113Y-94460000D01*
X64974113Y-94695000D02*
X64974113Y-96305000D01*
X66254113Y-93210000D02*
X66254113Y-94460000D01*
X66414113Y-96540000D02*
X66414113Y-97865000D01*
X67095113Y-92944000D02*
X67095113Y-94460000D01*
X67215113Y-96540000D02*
X67215113Y-98069000D01*
X66374113Y-96540000D02*
X66374113Y-97848000D01*
X66534113Y-93086000D02*
X66534113Y-94460000D01*
X67135113Y-92939000D02*
X67135113Y-94460000D01*
X65934113Y-96540000D02*
X65934113Y-97595000D01*
X66294113Y-93190000D02*
X66294113Y-94460000D01*
X66254113Y-96540000D02*
X66254113Y-97790000D01*
X66734113Y-96540000D02*
X66734113Y-97980000D01*
X66054113Y-93325000D02*
X66054113Y-94460000D01*
X66414113Y-93135000D02*
X66414113Y-94460000D01*
X66334113Y-96540000D02*
X66334113Y-97829000D01*
X65854113Y-96540000D02*
X65854113Y-97535000D01*
X64894113Y-94982000D02*
X64894113Y-96018000D01*
X65974113Y-96540000D02*
X65974113Y-97622000D01*
X65174113Y-94249000D02*
X65174113Y-96751000D01*
X65854113Y-93465000D02*
X65854113Y-94460000D01*
X66654113Y-96540000D02*
X66654113Y-97955000D01*
X66374113Y-93152000D02*
X66374113Y-94460000D01*
X66815113Y-96540000D02*
X66815113Y-98001000D01*
X66935113Y-96540000D02*
X66935113Y-98028000D01*
X67415113Y-96540000D02*
X67415113Y-98080000D01*
X66294113Y-96540000D02*
X66294113Y-97810000D01*
X66094113Y-96540000D02*
X66094113Y-97700000D01*
X67335113Y-96540000D02*
X67335113Y-98078000D01*
X67175113Y-92935000D02*
X67175113Y-94460000D01*
X66174113Y-93253000D02*
X66174113Y-94460000D01*
X66014113Y-93351000D02*
X66014113Y-94460000D01*
X67095113Y-96540000D02*
X67095113Y-98056000D01*
X66975113Y-92964000D02*
X66975113Y-94460000D01*
X66654113Y-93045000D02*
X66654113Y-94460000D01*
X65094113Y-94402000D02*
X65094113Y-96598000D01*
X65334113Y-94000000D02*
X65334113Y-97000000D01*
X65574113Y-93715000D02*
X65574113Y-94460000D01*
X67135113Y-96540000D02*
X67135113Y-98061000D01*
X65694113Y-93599000D02*
X65694113Y-94460000D01*
X65214113Y-94181000D02*
X65214113Y-96819000D01*
X66134113Y-96540000D02*
X66134113Y-97724000D01*
X66454113Y-93118000D02*
X66454113Y-94460000D01*
X67055113Y-92950000D02*
X67055113Y-94460000D01*
X67255113Y-96540000D02*
X67255113Y-98073000D01*
X66334113Y-93171000D02*
X66334113Y-94460000D01*
X66454113Y-96540000D02*
X66454113Y-97882000D01*
X65254113Y-94117000D02*
X65254113Y-96883000D01*
X67295113Y-96540000D02*
X67295113Y-98076000D01*
X67455113Y-96540000D02*
X67455113Y-98080000D01*
X66494113Y-93102000D02*
X66494113Y-94460000D01*
X66734113Y-93020000D02*
X66734113Y-94460000D01*
X66494113Y-96540000D02*
X66494113Y-97898000D01*
X66694113Y-93032000D02*
X66694113Y-94460000D01*
X65774113Y-93529000D02*
X65774113Y-94460000D01*
X66214113Y-96540000D02*
X66214113Y-97768000D01*
X67055113Y-96540000D02*
X67055113Y-98050000D01*
X65894113Y-96540000D02*
X65894113Y-97565000D01*
X65814113Y-96540000D02*
X65814113Y-97504000D01*
X70259888Y-94025000D02*
X69759888Y-94025000D01*
X65294113Y-94057000D02*
X65294113Y-96943000D01*
X67375113Y-96540000D02*
X67375113Y-98079000D01*
X64854113Y-95216000D02*
X64854113Y-95784000D01*
X65654113Y-96540000D02*
X65654113Y-97364000D01*
X66014113Y-96540000D02*
X66014113Y-97649000D01*
X65494113Y-96540000D02*
X65494113Y-97199000D01*
X66855113Y-96540000D02*
X66855113Y-98011000D01*
X65734113Y-96540000D02*
X65734113Y-97437000D01*
X65454113Y-96540000D02*
X65454113Y-97153000D01*
X65814113Y-93496000D02*
X65814113Y-94460000D01*
X65134113Y-94322000D02*
X65134113Y-96678000D01*
X67415113Y-92920000D02*
X67415113Y-94460000D01*
X65614113Y-93674000D02*
X65614113Y-94460000D01*
X65374113Y-93946000D02*
X65374113Y-97054000D01*
X65654113Y-93636000D02*
X65654113Y-94460000D01*
X65454113Y-93847000D02*
X65454113Y-94460000D01*
X65054113Y-94489000D02*
X65054113Y-96511000D01*
X67015113Y-92957000D02*
X67015113Y-94460000D01*
X66614113Y-96540000D02*
X66614113Y-97942000D01*
X66574113Y-96540000D02*
X66574113Y-97928000D01*
X67015113Y-96540000D02*
X67015113Y-98043000D01*
X70009888Y-93775000D02*
X70009888Y-94275000D01*
X66174113Y-96540000D02*
X66174113Y-97747000D01*
X67175113Y-96540000D02*
X67175113Y-98065000D01*
X65894113Y-93435000D02*
X65894113Y-94460000D01*
X66895113Y-92980000D02*
X66895113Y-94460000D01*
X67335113Y-92922000D02*
X67335113Y-94460000D01*
X66775113Y-96540000D02*
X66775113Y-97991000D01*
X66054113Y-96540000D02*
X66054113Y-97675000D01*
X66975113Y-96540000D02*
X66975113Y-98036000D01*
X67375113Y-92921000D02*
X67375113Y-94460000D01*
X65614113Y-96540000D02*
X65614113Y-97326000D01*
X66895113Y-96540000D02*
X66895113Y-98020000D01*
X66214113Y-93232000D02*
X66214113Y-94460000D01*
X66094113Y-93300000D02*
X66094113Y-94460000D01*
X65974113Y-93378000D02*
X65974113Y-94460000D01*
X65734113Y-93563000D02*
X65734113Y-94460000D01*
X66134113Y-93276000D02*
X66134113Y-94460000D01*
X65694113Y-96540000D02*
X65694113Y-97401000D01*
X65774113Y-96540000D02*
X65774113Y-97471000D01*
X66534113Y-96540000D02*
X66534113Y-97914000D01*
X65934113Y-93405000D02*
X65934113Y-94460000D01*
X70075113Y-95500000D02*
G75*
G03*
X70075113Y-95500000I-2620000J0D01*
G01*
X46680000Y-63991000D02*
X46680000Y-62540000D01*
X47841000Y-60460000D02*
X47841000Y-59674000D01*
X46120000Y-64078000D02*
X46120000Y-62540000D01*
X46440000Y-60460000D02*
X46440000Y-58957000D01*
X46000000Y-60460000D02*
X46000000Y-58920000D01*
X48201000Y-62883000D02*
X48201000Y-60117000D01*
X43195225Y-62975000D02*
X43695225Y-62975000D01*
X48081000Y-63054000D02*
X48081000Y-59946000D01*
X47881000Y-60460000D02*
X47881000Y-59715000D01*
X47281000Y-63747000D02*
X47281000Y-62540000D01*
X47521000Y-63595000D02*
X47521000Y-62540000D01*
X47321000Y-60460000D02*
X47321000Y-59276000D01*
X46600000Y-64011000D02*
X46600000Y-62540000D01*
X43445225Y-63225000D02*
X43445225Y-62725000D01*
X48041000Y-63105000D02*
X48041000Y-59895000D01*
X47521000Y-60460000D02*
X47521000Y-59405000D01*
X47361000Y-63700000D02*
X47361000Y-62540000D01*
X46801000Y-63955000D02*
X46801000Y-62540000D01*
X47961000Y-63199000D02*
X47961000Y-62540000D01*
X46600000Y-60460000D02*
X46600000Y-58989000D01*
X47721000Y-63437000D02*
X47721000Y-62540000D01*
X47601000Y-60460000D02*
X47601000Y-59465000D01*
X47201000Y-63790000D02*
X47201000Y-62540000D01*
X48561000Y-62018000D02*
X48561000Y-60982000D01*
X47201000Y-60460000D02*
X47201000Y-59210000D01*
X47041000Y-63865000D02*
X47041000Y-62540000D01*
X47641000Y-60460000D02*
X47641000Y-59496000D01*
X48001000Y-63153000D02*
X48001000Y-62540000D01*
X46160000Y-60460000D02*
X46160000Y-58924000D01*
X46841000Y-60460000D02*
X46841000Y-59058000D01*
X47121000Y-63829000D02*
X47121000Y-62540000D01*
X47481000Y-60460000D02*
X47481000Y-59378000D01*
X47921000Y-63243000D02*
X47921000Y-62540000D01*
X46721000Y-63980000D02*
X46721000Y-62540000D01*
X46480000Y-60460000D02*
X46480000Y-58964000D01*
X46761000Y-60460000D02*
X46761000Y-59032000D01*
X47601000Y-63535000D02*
X47601000Y-62540000D01*
X48281000Y-62751000D02*
X48281000Y-60249000D01*
X46360000Y-60460000D02*
X46360000Y-58944000D01*
X46881000Y-63928000D02*
X46881000Y-62540000D01*
X46360000Y-64056000D02*
X46360000Y-62540000D01*
X46320000Y-64061000D02*
X46320000Y-62540000D01*
X47561000Y-60460000D02*
X47561000Y-59435000D01*
X47281000Y-60460000D02*
X47281000Y-59253000D01*
X46640000Y-64001000D02*
X46640000Y-62540000D01*
X46480000Y-64036000D02*
X46480000Y-62540000D01*
X46400000Y-60460000D02*
X46400000Y-58950000D01*
X47001000Y-63882000D02*
X47001000Y-62540000D01*
X48441000Y-62415000D02*
X48441000Y-60585000D01*
X46520000Y-60460000D02*
X46520000Y-58972000D01*
X47441000Y-63649000D02*
X47441000Y-62540000D01*
X46000000Y-64080000D02*
X46000000Y-62540000D01*
X47401000Y-60460000D02*
X47401000Y-59325000D01*
X48001000Y-60460000D02*
X48001000Y-59847000D01*
X46280000Y-64065000D02*
X46280000Y-62540000D01*
X46520000Y-64028000D02*
X46520000Y-62540000D01*
X46841000Y-63942000D02*
X46841000Y-62540000D01*
X47041000Y-60460000D02*
X47041000Y-59135000D01*
X46961000Y-60460000D02*
X46961000Y-59102000D01*
X46801000Y-60460000D02*
X46801000Y-59045000D01*
X46400000Y-64050000D02*
X46400000Y-62540000D01*
X46080000Y-64079000D02*
X46080000Y-62540000D01*
X46320000Y-60460000D02*
X46320000Y-58939000D01*
X48361000Y-62598000D02*
X48361000Y-60402000D01*
X48401000Y-62511000D02*
X48401000Y-60489000D01*
X47881000Y-63285000D02*
X47881000Y-62540000D01*
X47721000Y-60460000D02*
X47721000Y-59563000D01*
X47121000Y-60460000D02*
X47121000Y-59171000D01*
X47641000Y-63504000D02*
X47641000Y-62540000D01*
X46200000Y-60460000D02*
X46200000Y-58927000D01*
X47761000Y-63401000D02*
X47761000Y-62540000D01*
X47241000Y-60460000D02*
X47241000Y-59232000D01*
X46881000Y-60460000D02*
X46881000Y-59072000D01*
X47681000Y-60460000D02*
X47681000Y-59529000D01*
X47161000Y-63810000D02*
X47161000Y-62540000D01*
X47081000Y-60460000D02*
X47081000Y-59152000D01*
X46280000Y-60460000D02*
X46280000Y-58935000D01*
X46240000Y-60460000D02*
X46240000Y-58931000D01*
X47921000Y-60460000D02*
X47921000Y-59757000D01*
X46080000Y-60460000D02*
X46080000Y-58921000D01*
X46240000Y-64069000D02*
X46240000Y-62540000D01*
X46680000Y-60460000D02*
X46680000Y-59009000D01*
X47761000Y-60460000D02*
X47761000Y-59599000D01*
X48601000Y-61784000D02*
X48601000Y-61216000D01*
X46040000Y-60460000D02*
X46040000Y-58920000D01*
X46721000Y-60460000D02*
X46721000Y-59020000D01*
X47001000Y-60460000D02*
X47001000Y-59118000D01*
X48321000Y-62678000D02*
X48321000Y-60322000D01*
X46440000Y-64043000D02*
X46440000Y-62540000D01*
X47241000Y-63768000D02*
X47241000Y-62540000D01*
X47161000Y-60460000D02*
X47161000Y-59190000D01*
X46961000Y-63898000D02*
X46961000Y-62540000D01*
X47361000Y-60460000D02*
X47361000Y-59300000D01*
X48241000Y-62819000D02*
X48241000Y-60181000D01*
X47841000Y-63326000D02*
X47841000Y-62540000D01*
X48481000Y-62305000D02*
X48481000Y-60695000D01*
X46761000Y-63968000D02*
X46761000Y-62540000D01*
X46120000Y-60460000D02*
X46120000Y-58922000D01*
X47441000Y-60460000D02*
X47441000Y-59351000D01*
X47321000Y-63724000D02*
X47321000Y-62540000D01*
X48161000Y-62943000D02*
X48161000Y-60057000D01*
X47081000Y-63848000D02*
X47081000Y-62540000D01*
X47801000Y-63364000D02*
X47801000Y-62540000D01*
X47481000Y-63622000D02*
X47481000Y-62540000D01*
X47961000Y-60460000D02*
X47961000Y-59801000D01*
X46640000Y-60460000D02*
X46640000Y-58999000D01*
X46921000Y-63914000D02*
X46921000Y-62540000D01*
X46560000Y-60460000D02*
X46560000Y-58980000D01*
X46200000Y-64073000D02*
X46200000Y-62540000D01*
X46160000Y-64076000D02*
X46160000Y-62540000D01*
X48121000Y-63000000D02*
X48121000Y-60000000D01*
X46040000Y-64080000D02*
X46040000Y-62540000D01*
X47401000Y-63675000D02*
X47401000Y-62540000D01*
X46921000Y-60460000D02*
X46921000Y-59086000D01*
X47681000Y-63471000D02*
X47681000Y-62540000D01*
X47801000Y-60460000D02*
X47801000Y-59636000D01*
X46560000Y-64020000D02*
X46560000Y-62540000D01*
X48521000Y-62177000D02*
X48521000Y-60823000D01*
X47561000Y-63565000D02*
X47561000Y-62540000D01*
X48620000Y-61500000D02*
G75*
G03*
X48620000Y-61500000I-2620000J0D01*
G01*
X59120000Y-98370000D02*
X54880000Y-98370000D01*
X57000000Y-88390000D02*
X57000000Y-88630000D01*
X54880000Y-88630000D02*
X59120000Y-88630000D01*
X59120000Y-88630000D02*
X59120000Y-98370000D01*
X54880000Y-98370000D02*
X54880000Y-88630000D01*
X57000000Y-98610000D02*
X57000000Y-98370000D01*
X53415000Y-91895000D02*
X53415000Y-97095000D01*
X41925000Y-91895000D02*
X40595000Y-91895000D01*
X40595000Y-97095000D02*
X53415000Y-97095000D01*
X43195000Y-94495000D02*
X40595000Y-94495000D01*
X40595000Y-91895000D02*
X40595000Y-93225000D01*
X40595000Y-94495000D02*
X40595000Y-97095000D01*
X43195000Y-91895000D02*
X43195000Y-94495000D01*
X43195000Y-91895000D02*
X53415000Y-91895000D01*
X83545000Y-37655000D02*
X88615000Y-37655000D01*
X88615000Y-47425000D02*
X88615000Y-37655000D01*
X83545000Y-47425000D02*
X88615000Y-47425000D01*
X83545000Y-47425000D02*
X83545000Y-37655000D01*
X83465000Y-49155000D02*
X88535000Y-49155000D01*
X88535000Y-58925000D02*
X88535000Y-49155000D01*
X83465000Y-58925000D02*
X88535000Y-58925000D01*
X83465000Y-58925000D02*
X83465000Y-49155000D01*
X36745888Y-124383000D02*
X36745888Y-121617000D01*
X35224888Y-121960000D02*
X35224888Y-120509000D01*
X36505888Y-121960000D02*
X36505888Y-121301000D01*
X36105888Y-121960000D02*
X36105888Y-120935000D01*
X35785888Y-121960000D02*
X35785888Y-120732000D01*
X34664888Y-125578000D02*
X34664888Y-124040000D01*
X35305888Y-125468000D02*
X35305888Y-124040000D01*
X35785888Y-125268000D02*
X35785888Y-124040000D01*
X35585888Y-121960000D02*
X35585888Y-120635000D01*
X35184888Y-125501000D02*
X35184888Y-124040000D01*
X35465888Y-121960000D02*
X35465888Y-120586000D01*
X34824888Y-125565000D02*
X34824888Y-124040000D01*
X35465888Y-125414000D02*
X35465888Y-124040000D01*
X36825888Y-124251000D02*
X36825888Y-121749000D01*
X34544888Y-121960000D02*
X34544888Y-120420000D01*
X36265888Y-124937000D02*
X36265888Y-124040000D01*
X35905888Y-125200000D02*
X35905888Y-124040000D01*
X35625888Y-121960000D02*
X35625888Y-120652000D01*
X37065888Y-123677000D02*
X37065888Y-122323000D01*
X34544888Y-125580000D02*
X34544888Y-124040000D01*
X34704888Y-125576000D02*
X34704888Y-124040000D01*
X36585888Y-124605000D02*
X36585888Y-121395000D01*
X35144888Y-121960000D02*
X35144888Y-120489000D01*
X35265888Y-121960000D02*
X35265888Y-120520000D01*
X35745888Y-121960000D02*
X35745888Y-120710000D01*
X35385888Y-121960000D02*
X35385888Y-120558000D01*
X35425888Y-121960000D02*
X35425888Y-120572000D01*
X34904888Y-121960000D02*
X34904888Y-120444000D01*
X35425888Y-125428000D02*
X35425888Y-124040000D01*
X35665888Y-121960000D02*
X35665888Y-120671000D01*
X34944888Y-121960000D02*
X34944888Y-120450000D01*
X35745888Y-125290000D02*
X35745888Y-124040000D01*
X36665888Y-124500000D02*
X36665888Y-121500000D01*
X35665888Y-125329000D02*
X35665888Y-124040000D01*
X35305888Y-121960000D02*
X35305888Y-120532000D01*
X35345888Y-121960000D02*
X35345888Y-120545000D01*
X34624888Y-125579000D02*
X34624888Y-124040000D01*
X34624888Y-121960000D02*
X34624888Y-120421000D01*
X34984888Y-121960000D02*
X34984888Y-120457000D01*
X35865888Y-125224000D02*
X35865888Y-124040000D01*
X35505888Y-121960000D02*
X35505888Y-120602000D01*
X36185888Y-125004000D02*
X36185888Y-124040000D01*
X35024888Y-121960000D02*
X35024888Y-120464000D01*
X34584888Y-121960000D02*
X34584888Y-120420000D01*
X36385888Y-121960000D02*
X36385888Y-121174000D01*
X35064888Y-125528000D02*
X35064888Y-124040000D01*
X34944888Y-125550000D02*
X34944888Y-124040000D01*
X35705888Y-121960000D02*
X35705888Y-120690000D01*
X35144888Y-125511000D02*
X35144888Y-124040000D01*
X35545888Y-121960000D02*
X35545888Y-120618000D01*
X35345888Y-125455000D02*
X35345888Y-124040000D01*
X36345888Y-121960000D02*
X36345888Y-121136000D01*
X34704888Y-121960000D02*
X34704888Y-120424000D01*
X35545888Y-125382000D02*
X35545888Y-124040000D01*
X36545888Y-124653000D02*
X36545888Y-124040000D01*
X35385888Y-125442000D02*
X35385888Y-124040000D01*
X37105888Y-123518000D02*
X37105888Y-122482000D01*
X35985888Y-121960000D02*
X35985888Y-120851000D01*
X31740113Y-124475000D02*
X32240113Y-124475000D01*
X36065888Y-121960000D02*
X36065888Y-120905000D01*
X35905888Y-121960000D02*
X35905888Y-120800000D01*
X36505888Y-124699000D02*
X36505888Y-124040000D01*
X36025888Y-125122000D02*
X36025888Y-124040000D01*
X35104888Y-121960000D02*
X35104888Y-120480000D01*
X35825888Y-121960000D02*
X35825888Y-120753000D01*
X36145888Y-125035000D02*
X36145888Y-124040000D01*
X36465888Y-121960000D02*
X36465888Y-121257000D01*
X34984888Y-125543000D02*
X34984888Y-124040000D01*
X36025888Y-121960000D02*
X36025888Y-120878000D01*
X35945888Y-125175000D02*
X35945888Y-124040000D01*
X36385888Y-124826000D02*
X36385888Y-124040000D01*
X34744888Y-125573000D02*
X34744888Y-124040000D01*
X36145888Y-121960000D02*
X36145888Y-120965000D01*
X34904888Y-125556000D02*
X34904888Y-124040000D01*
X36225888Y-121960000D02*
X36225888Y-121029000D01*
X35865888Y-121960000D02*
X35865888Y-120776000D01*
X36985888Y-123915000D02*
X36985888Y-122085000D01*
X35585888Y-125365000D02*
X35585888Y-124040000D01*
X36625888Y-124554000D02*
X36625888Y-121446000D01*
X35505888Y-125398000D02*
X35505888Y-124040000D01*
X36345888Y-124864000D02*
X36345888Y-124040000D01*
X35024888Y-125536000D02*
X35024888Y-124040000D01*
X35625888Y-125348000D02*
X35625888Y-124040000D01*
X35224888Y-125491000D02*
X35224888Y-124040000D01*
X34784888Y-125569000D02*
X34784888Y-124040000D01*
X36545888Y-121960000D02*
X36545888Y-121347000D01*
X34664888Y-121960000D02*
X34664888Y-120422000D01*
X34864888Y-121960000D02*
X34864888Y-120439000D01*
X36265888Y-121960000D02*
X36265888Y-121063000D01*
X35705888Y-125310000D02*
X35705888Y-124040000D01*
X34584888Y-125580000D02*
X34584888Y-124040000D01*
X36865888Y-124178000D02*
X36865888Y-121822000D01*
X34824888Y-121960000D02*
X34824888Y-120435000D01*
X36785888Y-124319000D02*
X36785888Y-121681000D01*
X35064888Y-121960000D02*
X35064888Y-120472000D01*
X36465888Y-124743000D02*
X36465888Y-124040000D01*
X35985888Y-125149000D02*
X35985888Y-124040000D01*
X36425888Y-121960000D02*
X36425888Y-121215000D01*
X35825888Y-125247000D02*
X35825888Y-124040000D01*
X36225888Y-124971000D02*
X36225888Y-124040000D01*
X36105888Y-125065000D02*
X36105888Y-124040000D01*
X36305888Y-124901000D02*
X36305888Y-124040000D01*
X37025888Y-123805000D02*
X37025888Y-122195000D01*
X36425888Y-124785000D02*
X36425888Y-124040000D01*
X36065888Y-125095000D02*
X36065888Y-124040000D01*
X34784888Y-121960000D02*
X34784888Y-120431000D01*
X36185888Y-121960000D02*
X36185888Y-120996000D01*
X36905888Y-124098000D02*
X36905888Y-121902000D01*
X37145888Y-123284000D02*
X37145888Y-122716000D01*
X35104888Y-125520000D02*
X35104888Y-124040000D01*
X36705888Y-124443000D02*
X36705888Y-121557000D01*
X36945888Y-124011000D02*
X36945888Y-121989000D01*
X36305888Y-121960000D02*
X36305888Y-121099000D01*
X34744888Y-121960000D02*
X34744888Y-120427000D01*
X34864888Y-125561000D02*
X34864888Y-124040000D01*
X35945888Y-121960000D02*
X35945888Y-120825000D01*
X35265888Y-125480000D02*
X35265888Y-124040000D01*
X31990113Y-124725000D02*
X31990113Y-124225000D01*
X35184888Y-121960000D02*
X35184888Y-120499000D01*
X37164888Y-123000000D02*
G75*
G03*
X37164888Y-123000000I-2620000J0D01*
G01*
X59880000Y-98370000D02*
X59880000Y-88630000D01*
X59880000Y-88630000D02*
X64120000Y-88630000D01*
X62000000Y-88390000D02*
X62000000Y-88630000D01*
X62000000Y-98610000D02*
X62000000Y-98370000D01*
X64120000Y-88630000D02*
X64120000Y-98370000D01*
X64120000Y-98370000D02*
X59880000Y-98370000D01*
X88535000Y-98155000D02*
X83465000Y-98155000D01*
X83465000Y-98155000D02*
X83465000Y-107925000D01*
X88535000Y-98155000D02*
X88535000Y-107925000D01*
X88535000Y-107925000D02*
X83465000Y-107925000D01*
X83465000Y-87155000D02*
X83465000Y-96925000D01*
X88535000Y-96925000D02*
X83465000Y-96925000D01*
X88535000Y-87155000D02*
X83465000Y-87155000D01*
X88535000Y-87155000D02*
X88535000Y-96925000D01*
X36785888Y-100819000D02*
X36785888Y-98181000D01*
X35545888Y-98460000D02*
X35545888Y-97118000D01*
X35905888Y-98460000D02*
X35905888Y-97300000D01*
X36265888Y-101437000D02*
X36265888Y-100540000D01*
X35505888Y-98460000D02*
X35505888Y-97102000D01*
X35665888Y-98460000D02*
X35665888Y-97171000D01*
X36585888Y-101105000D02*
X36585888Y-97895000D01*
X36545888Y-98460000D02*
X36545888Y-97847000D01*
X35905888Y-101700000D02*
X35905888Y-100540000D01*
X34824888Y-102065000D02*
X34824888Y-100540000D01*
X34544888Y-98460000D02*
X34544888Y-96920000D01*
X35825888Y-98460000D02*
X35825888Y-97253000D01*
X36145888Y-98460000D02*
X36145888Y-97465000D01*
X36825888Y-100751000D02*
X36825888Y-98249000D01*
X31990113Y-101225000D02*
X31990113Y-100725000D01*
X36905888Y-100598000D02*
X36905888Y-98402000D01*
X36105888Y-98460000D02*
X36105888Y-97435000D01*
X34944888Y-98460000D02*
X34944888Y-96950000D01*
X36225888Y-98460000D02*
X36225888Y-97529000D01*
X36985888Y-100415000D02*
X36985888Y-98585000D01*
X35985888Y-98460000D02*
X35985888Y-97351000D01*
X34624888Y-102079000D02*
X34624888Y-100540000D01*
X36465888Y-98460000D02*
X36465888Y-97757000D01*
X36945888Y-100511000D02*
X36945888Y-98489000D01*
X36545888Y-101153000D02*
X36545888Y-100540000D01*
X36065888Y-101595000D02*
X36065888Y-100540000D01*
X36705888Y-100943000D02*
X36705888Y-98057000D01*
X36065888Y-98460000D02*
X36065888Y-97405000D01*
X35745888Y-98460000D02*
X35745888Y-97210000D01*
X35425888Y-101928000D02*
X35425888Y-100540000D01*
X34864888Y-98460000D02*
X34864888Y-96939000D01*
X35184888Y-98460000D02*
X35184888Y-96999000D01*
X37105888Y-100018000D02*
X37105888Y-98982000D01*
X34664888Y-102078000D02*
X34664888Y-100540000D01*
X35104888Y-98460000D02*
X35104888Y-96980000D01*
X36265888Y-98460000D02*
X36265888Y-97563000D01*
X34904888Y-102056000D02*
X34904888Y-100540000D01*
X35144888Y-102011000D02*
X35144888Y-100540000D01*
X35665888Y-101829000D02*
X35665888Y-100540000D01*
X35144888Y-98460000D02*
X35144888Y-96989000D01*
X35345888Y-98460000D02*
X35345888Y-97045000D01*
X35705888Y-98460000D02*
X35705888Y-97190000D01*
X35345888Y-101955000D02*
X35345888Y-100540000D01*
X35505888Y-101898000D02*
X35505888Y-100540000D01*
X36105888Y-101565000D02*
X36105888Y-100540000D01*
X36505888Y-101199000D02*
X36505888Y-100540000D01*
X36145888Y-101535000D02*
X36145888Y-100540000D01*
X34744888Y-98460000D02*
X34744888Y-96927000D01*
X35224888Y-98460000D02*
X35224888Y-97009000D01*
X35865888Y-98460000D02*
X35865888Y-97276000D01*
X35465888Y-98460000D02*
X35465888Y-97086000D01*
X36345888Y-101364000D02*
X36345888Y-100540000D01*
X37065888Y-100177000D02*
X37065888Y-98823000D01*
X35385888Y-98460000D02*
X35385888Y-97058000D01*
X35024888Y-102036000D02*
X35024888Y-100540000D01*
X35305888Y-98460000D02*
X35305888Y-97032000D01*
X34544888Y-102080000D02*
X34544888Y-100540000D01*
X35585888Y-101865000D02*
X35585888Y-100540000D01*
X36185888Y-101504000D02*
X36185888Y-100540000D01*
X35224888Y-101991000D02*
X35224888Y-100540000D01*
X35585888Y-98460000D02*
X35585888Y-97135000D01*
X36465888Y-101243000D02*
X36465888Y-100540000D01*
X36025888Y-101622000D02*
X36025888Y-100540000D01*
X35865888Y-101724000D02*
X35865888Y-100540000D01*
X34584888Y-98460000D02*
X34584888Y-96920000D01*
X35825888Y-101747000D02*
X35825888Y-100540000D01*
X35545888Y-101882000D02*
X35545888Y-100540000D01*
X36025888Y-98460000D02*
X36025888Y-97378000D01*
X35265888Y-98460000D02*
X35265888Y-97020000D01*
X35305888Y-101968000D02*
X35305888Y-100540000D01*
X34664888Y-98460000D02*
X34664888Y-96922000D01*
X36745888Y-100883000D02*
X36745888Y-98117000D01*
X34624888Y-98460000D02*
X34624888Y-96921000D01*
X35625888Y-101848000D02*
X35625888Y-100540000D01*
X36625888Y-101054000D02*
X36625888Y-97946000D01*
X36185888Y-98460000D02*
X36185888Y-97496000D01*
X35465888Y-101914000D02*
X35465888Y-100540000D01*
X34704888Y-98460000D02*
X34704888Y-96924000D01*
X36225888Y-101471000D02*
X36225888Y-100540000D01*
X34864888Y-102061000D02*
X34864888Y-100540000D01*
X35945888Y-98460000D02*
X35945888Y-97325000D01*
X37145888Y-99784000D02*
X37145888Y-99216000D01*
X35705888Y-101810000D02*
X35705888Y-100540000D01*
X35265888Y-101980000D02*
X35265888Y-100540000D01*
X34824888Y-98460000D02*
X34824888Y-96935000D01*
X35745888Y-101790000D02*
X35745888Y-100540000D01*
X35785888Y-98460000D02*
X35785888Y-97232000D01*
X34744888Y-102073000D02*
X34744888Y-100540000D01*
X36305888Y-98460000D02*
X36305888Y-97599000D01*
X35064888Y-98460000D02*
X35064888Y-96972000D01*
X35945888Y-101675000D02*
X35945888Y-100540000D01*
X35625888Y-98460000D02*
X35625888Y-97152000D01*
X34944888Y-102050000D02*
X34944888Y-100540000D01*
X35425888Y-98460000D02*
X35425888Y-97072000D01*
X34904888Y-98460000D02*
X34904888Y-96944000D01*
X36425888Y-98460000D02*
X36425888Y-97715000D01*
X36305888Y-101401000D02*
X36305888Y-100540000D01*
X31740113Y-100975000D02*
X32240113Y-100975000D01*
X34784888Y-102069000D02*
X34784888Y-100540000D01*
X35024888Y-98460000D02*
X35024888Y-96964000D01*
X36345888Y-98460000D02*
X36345888Y-97636000D01*
X35985888Y-101649000D02*
X35985888Y-100540000D01*
X34784888Y-98460000D02*
X34784888Y-96931000D01*
X34984888Y-98460000D02*
X34984888Y-96957000D01*
X35184888Y-102001000D02*
X35184888Y-100540000D01*
X34984888Y-102043000D02*
X34984888Y-100540000D01*
X36665888Y-101000000D02*
X36665888Y-98000000D01*
X35385888Y-101942000D02*
X35385888Y-100540000D01*
X34584888Y-102080000D02*
X34584888Y-100540000D01*
X36385888Y-98460000D02*
X36385888Y-97674000D01*
X35785888Y-101768000D02*
X35785888Y-100540000D01*
X35064888Y-102028000D02*
X35064888Y-100540000D01*
X36505888Y-98460000D02*
X36505888Y-97801000D01*
X36385888Y-101326000D02*
X36385888Y-100540000D01*
X35104888Y-102020000D02*
X35104888Y-100540000D01*
X36425888Y-101285000D02*
X36425888Y-100540000D01*
X34704888Y-102076000D02*
X34704888Y-100540000D01*
X36865888Y-100678000D02*
X36865888Y-98322000D01*
X37025888Y-100305000D02*
X37025888Y-98695000D01*
X37164888Y-99500000D02*
G75*
G03*
X37164888Y-99500000I-2620000J0D01*
G01*
X34044888Y-94040000D02*
X34044888Y-95580000D01*
X33043888Y-94040000D02*
X33043888Y-95382000D01*
X32803888Y-94040000D02*
X32803888Y-95268000D01*
X33163888Y-94040000D02*
X33163888Y-95428000D01*
X33724888Y-90439000D02*
X33724888Y-91960000D01*
X36849663Y-91525000D02*
X36349663Y-91525000D01*
X33123888Y-90586000D02*
X33123888Y-91960000D01*
X33484888Y-94040000D02*
X33484888Y-95520000D01*
X33003888Y-90635000D02*
X33003888Y-91960000D01*
X33684888Y-90444000D02*
X33684888Y-91960000D01*
X32323888Y-94040000D02*
X32323888Y-94937000D01*
X32443888Y-94040000D02*
X32443888Y-95035000D01*
X33644888Y-90450000D02*
X33644888Y-91960000D01*
X32523888Y-94040000D02*
X32523888Y-95095000D01*
X32723888Y-90776000D02*
X32723888Y-91960000D01*
X32843888Y-90710000D02*
X32843888Y-91960000D01*
X31683888Y-91902000D02*
X31683888Y-94098000D01*
X32403888Y-94040000D02*
X32403888Y-95004000D01*
X36599663Y-91275000D02*
X36599663Y-91775000D01*
X33444888Y-94040000D02*
X33444888Y-95511000D01*
X32603888Y-90851000D02*
X32603888Y-91960000D01*
X32163888Y-91215000D02*
X32163888Y-91960000D01*
X33524888Y-90472000D02*
X33524888Y-91960000D01*
X33804888Y-94040000D02*
X33804888Y-95569000D01*
X33123888Y-94040000D02*
X33123888Y-95414000D01*
X33684888Y-94040000D02*
X33684888Y-95556000D01*
X32043888Y-91347000D02*
X32043888Y-91960000D01*
X33564888Y-94040000D02*
X33564888Y-95536000D01*
X32483888Y-94040000D02*
X32483888Y-95065000D01*
X33083888Y-90602000D02*
X33083888Y-91960000D01*
X32603888Y-94040000D02*
X32603888Y-95149000D01*
X33964888Y-90421000D02*
X33964888Y-91960000D01*
X33083888Y-94040000D02*
X33083888Y-95398000D01*
X32283888Y-94040000D02*
X32283888Y-94901000D01*
X31723888Y-91822000D02*
X31723888Y-94178000D01*
X32643888Y-94040000D02*
X32643888Y-95175000D01*
X33323888Y-94040000D02*
X33323888Y-95480000D01*
X33844888Y-94040000D02*
X33844888Y-95573000D01*
X31763888Y-91749000D02*
X31763888Y-94251000D01*
X32723888Y-94040000D02*
X32723888Y-95224000D01*
X33724888Y-94040000D02*
X33724888Y-95561000D01*
X33404888Y-90499000D02*
X33404888Y-91960000D01*
X32923888Y-90671000D02*
X32923888Y-91960000D01*
X33604888Y-94040000D02*
X33604888Y-95543000D01*
X33924888Y-94040000D02*
X33924888Y-95578000D01*
X33364888Y-94040000D02*
X33364888Y-95491000D01*
X32043888Y-94040000D02*
X32043888Y-94653000D01*
X31563888Y-92195000D02*
X31563888Y-93805000D01*
X33964888Y-94040000D02*
X33964888Y-95579000D01*
X32083888Y-91301000D02*
X32083888Y-91960000D01*
X33203888Y-90558000D02*
X33203888Y-91960000D01*
X32363888Y-91029000D02*
X32363888Y-91960000D01*
X33283888Y-94040000D02*
X33283888Y-95468000D01*
X32883888Y-94040000D02*
X32883888Y-95310000D01*
X33444888Y-90489000D02*
X33444888Y-91960000D01*
X31523888Y-92323000D02*
X31523888Y-93677000D01*
X33364888Y-90509000D02*
X33364888Y-91960000D01*
X31843888Y-91617000D02*
X31843888Y-94383000D01*
X31923888Y-91500000D02*
X31923888Y-94500000D01*
X33043888Y-90618000D02*
X33043888Y-91960000D01*
X32963888Y-94040000D02*
X32963888Y-95348000D01*
X31963888Y-91446000D02*
X31963888Y-94554000D01*
X32123888Y-94040000D02*
X32123888Y-94743000D01*
X34004888Y-94040000D02*
X34004888Y-95580000D01*
X33003888Y-94040000D02*
X33003888Y-95365000D01*
X32083888Y-94040000D02*
X32083888Y-94699000D01*
X32163888Y-94040000D02*
X32163888Y-94785000D01*
X32763888Y-90753000D02*
X32763888Y-91960000D01*
X31883888Y-91557000D02*
X31883888Y-94443000D01*
X32643888Y-90825000D02*
X32643888Y-91960000D01*
X34044888Y-90420000D02*
X34044888Y-91960000D01*
X32563888Y-94040000D02*
X32563888Y-95122000D01*
X33323888Y-90520000D02*
X33323888Y-91960000D01*
X32203888Y-94040000D02*
X32203888Y-94826000D01*
X32763888Y-94040000D02*
X32763888Y-95247000D01*
X33524888Y-94040000D02*
X33524888Y-95528000D01*
X32803888Y-90732000D02*
X32803888Y-91960000D01*
X33404888Y-94040000D02*
X33404888Y-95501000D01*
X33804888Y-90431000D02*
X33804888Y-91960000D01*
X31803888Y-91681000D02*
X31803888Y-94319000D01*
X33604888Y-90457000D02*
X33604888Y-91960000D01*
X33564888Y-90464000D02*
X33564888Y-91960000D01*
X31443888Y-92716000D02*
X31443888Y-93284000D01*
X33203888Y-94040000D02*
X33203888Y-95442000D01*
X33764888Y-94040000D02*
X33764888Y-95565000D01*
X32283888Y-91099000D02*
X32283888Y-91960000D01*
X33163888Y-90572000D02*
X33163888Y-91960000D01*
X31643888Y-91989000D02*
X31643888Y-94011000D01*
X32523888Y-90905000D02*
X32523888Y-91960000D01*
X34004888Y-90420000D02*
X34004888Y-91960000D01*
X32203888Y-91174000D02*
X32203888Y-91960000D01*
X33644888Y-94040000D02*
X33644888Y-95550000D01*
X33243888Y-90545000D02*
X33243888Y-91960000D01*
X33924888Y-90422000D02*
X33924888Y-91960000D01*
X32123888Y-91257000D02*
X32123888Y-91960000D01*
X32563888Y-90878000D02*
X32563888Y-91960000D01*
X32443888Y-90965000D02*
X32443888Y-91960000D01*
X32683888Y-90800000D02*
X32683888Y-91960000D01*
X31483888Y-92482000D02*
X31483888Y-93518000D01*
X33884888Y-90424000D02*
X33884888Y-91960000D01*
X32923888Y-94040000D02*
X32923888Y-95329000D01*
X33243888Y-94040000D02*
X33243888Y-95455000D01*
X33283888Y-90532000D02*
X33283888Y-91960000D01*
X33844888Y-90427000D02*
X33844888Y-91960000D01*
X32403888Y-90996000D02*
X32403888Y-91960000D01*
X32483888Y-90935000D02*
X32483888Y-91960000D01*
X33884888Y-94040000D02*
X33884888Y-95576000D01*
X32883888Y-90690000D02*
X32883888Y-91960000D01*
X32243888Y-91136000D02*
X32243888Y-91960000D01*
X32363888Y-94040000D02*
X32363888Y-94971000D01*
X33484888Y-90480000D02*
X33484888Y-91960000D01*
X33764888Y-90435000D02*
X33764888Y-91960000D01*
X32003888Y-91395000D02*
X32003888Y-94605000D01*
X32323888Y-91063000D02*
X32323888Y-91960000D01*
X32963888Y-90652000D02*
X32963888Y-91960000D01*
X32843888Y-94040000D02*
X32843888Y-95290000D01*
X31603888Y-92085000D02*
X31603888Y-93915000D01*
X32683888Y-94040000D02*
X32683888Y-95200000D01*
X32243888Y-94040000D02*
X32243888Y-94864000D01*
X36664888Y-93000000D02*
G75*
G03*
X36664888Y-93000000I-2620000J0D01*
G01*
%LPC*%
D13*
X87000000Y-60500000D03*
X87000000Y-65500000D03*
X69500000Y-107500000D03*
X64500000Y-107500000D03*
X34000000Y-113000000D03*
X34000000Y-118000000D03*
D14*
X81500000Y-38880000D03*
D15*
X81500000Y-46500000D03*
D14*
X81500000Y-58000000D03*
D15*
X81500000Y-50380000D03*
D14*
X78000000Y-46500000D03*
D15*
X78000000Y-38880000D03*
D14*
X78000000Y-50380000D03*
D15*
X78000000Y-58000000D03*
D14*
X74500000Y-46500000D03*
D15*
X74500000Y-38880000D03*
D14*
X74500000Y-58000000D03*
D15*
X74500000Y-50380000D03*
D16*
X87000000Y-69000000D03*
D17*
X87000000Y-71540000D03*
X87000000Y-74080000D03*
X87000000Y-76620000D03*
X87000000Y-79160000D03*
X87000000Y-81700000D03*
D16*
X33000000Y-130000000D03*
D17*
X33000000Y-132540000D03*
X33000000Y-135080000D03*
X33000000Y-137620000D03*
X33000000Y-140160000D03*
X33000000Y-142700000D03*
D18*
X71000000Y-75270000D03*
D19*
X71000000Y-74000000D03*
X71000000Y-72730000D03*
D18*
X65140000Y-72730000D03*
D19*
X65140000Y-74000000D03*
X65140000Y-75270000D03*
D18*
X57360000Y-121770000D03*
D19*
X57360000Y-120500000D03*
X57360000Y-119230000D03*
D13*
X57500000Y-59840000D03*
D15*
X57500000Y-70000000D03*
D13*
X36400000Y-77420000D03*
D15*
X36400000Y-87580000D03*
D13*
X54000000Y-72840000D03*
D15*
X54000000Y-83000000D03*
D13*
X54000000Y-70000000D03*
D15*
X54000000Y-59840000D03*
D13*
X61000000Y-70000000D03*
D15*
X61000000Y-59840000D03*
D13*
X74080000Y-80000000D03*
D15*
X63920000Y-80000000D03*
D13*
X51080000Y-66000000D03*
D15*
X40920000Y-66000000D03*
D13*
X51080000Y-49500000D03*
D15*
X40920000Y-49500000D03*
D13*
X51080000Y-56500000D03*
D15*
X40920000Y-56500000D03*
D13*
X40920000Y-53000000D03*
D15*
X51080000Y-53000000D03*
D13*
X70000000Y-38920000D03*
D15*
X70000000Y-49080000D03*
D13*
X60500000Y-137080000D03*
D15*
X60500000Y-126920000D03*
D13*
X51000000Y-109080000D03*
D15*
X51000000Y-98920000D03*
D13*
X57000000Y-126920000D03*
D15*
X57000000Y-137080000D03*
D13*
X58000000Y-102420000D03*
D15*
X58000000Y-112580000D03*
D13*
X77920000Y-122500000D03*
D15*
X88080000Y-122500000D03*
D13*
X64000000Y-137080000D03*
D15*
X64000000Y-126920000D03*
D13*
X54500000Y-102420000D03*
D15*
X54500000Y-112580000D03*
D13*
X53500000Y-137080000D03*
D15*
X53500000Y-126920000D03*
D13*
X46500000Y-137080000D03*
D15*
X46500000Y-126920000D03*
D13*
X50000000Y-137080000D03*
D15*
X50000000Y-126920000D03*
D13*
X50000000Y-124580000D03*
D15*
X50000000Y-114420000D03*
D13*
X61500000Y-102420000D03*
D15*
X61500000Y-112580000D03*
D13*
X73000000Y-119580000D03*
D15*
X73000000Y-109420000D03*
D14*
X39200000Y-101600000D03*
D15*
X39200000Y-104140000D03*
X39200000Y-106680000D03*
X39200000Y-109220000D03*
X39200000Y-111760000D03*
X39200000Y-114300000D03*
X39200000Y-116840000D03*
X39200000Y-119380000D03*
X46820000Y-119380000D03*
X46820000Y-116840000D03*
X46820000Y-114300000D03*
X46820000Y-111760000D03*
X46820000Y-109220000D03*
X46820000Y-106680000D03*
X46820000Y-104140000D03*
X46820000Y-101600000D03*
D14*
X78200000Y-111200000D03*
D15*
X78200000Y-113740000D03*
X78200000Y-116280000D03*
X78200000Y-118820000D03*
X85820000Y-118820000D03*
X85820000Y-116280000D03*
X85820000Y-113740000D03*
X85820000Y-111200000D03*
D16*
X87000000Y-130000000D03*
D17*
X87000000Y-132540000D03*
X87000000Y-135080000D03*
X87000000Y-137620000D03*
X87000000Y-140160000D03*
X87000000Y-142700000D03*
D13*
X70500000Y-70080000D03*
D15*
X70500000Y-59920000D03*
D14*
X74200000Y-61200000D03*
D15*
X74200000Y-63740000D03*
X74200000Y-66280000D03*
X74200000Y-68820000D03*
X81820000Y-68820000D03*
X81820000Y-66280000D03*
X81820000Y-63740000D03*
X81820000Y-61200000D03*
D18*
X63000000Y-121770000D03*
D19*
X63000000Y-120500000D03*
X63000000Y-119230000D03*
D13*
X64500000Y-103000000D03*
X69500000Y-103000000D03*
D14*
X73000000Y-95500000D03*
D15*
X73000000Y-87880000D03*
D14*
X76500000Y-87880000D03*
D15*
X76500000Y-95500000D03*
D14*
X80000000Y-87880000D03*
D15*
X80000000Y-95500000D03*
D14*
X76500000Y-98880000D03*
D15*
X76500000Y-106500000D03*
D14*
X73000000Y-106500000D03*
D15*
X73000000Y-98880000D03*
D14*
X80000000Y-98880000D03*
D15*
X80000000Y-106500000D03*
D13*
X66500000Y-83500000D03*
X71500000Y-83500000D03*
X39500000Y-77420000D03*
D15*
X39500000Y-87580000D03*
D13*
X57500000Y-83000000D03*
D15*
X57500000Y-72840000D03*
D13*
X61000000Y-72920000D03*
D15*
X61000000Y-83080000D03*
D14*
X50300000Y-87200000D03*
D15*
X50300000Y-84660000D03*
X50300000Y-82120000D03*
X50300000Y-79580000D03*
X50300000Y-77040000D03*
X50300000Y-74500000D03*
X50300000Y-71960000D03*
X50300000Y-69420000D03*
X42680000Y-69420000D03*
X42680000Y-71960000D03*
X42680000Y-74500000D03*
X42680000Y-77040000D03*
X42680000Y-79580000D03*
X42680000Y-82120000D03*
X42680000Y-84660000D03*
X42680000Y-87200000D03*
D16*
X33000000Y-69000000D03*
D17*
X33000000Y-71540000D03*
X33000000Y-74080000D03*
X33000000Y-76620000D03*
X33000000Y-79160000D03*
X33000000Y-81700000D03*
D13*
X38000000Y-70000000D03*
X38000000Y-75000000D03*
X38000000Y-141080000D03*
D15*
X38000000Y-130920000D03*
D13*
X41500000Y-141080000D03*
D15*
X41500000Y-130920000D03*
D14*
X66500000Y-89000000D03*
D13*
X68500000Y-89000000D03*
D14*
X68455113Y-95500000D03*
D13*
X66455113Y-95500000D03*
D14*
X45000000Y-61500000D03*
D13*
X47000000Y-61500000D03*
D20*
X57000000Y-99850000D03*
D21*
X57000000Y-87150000D03*
D16*
X41925000Y-93225000D03*
D17*
X41925000Y-95765000D03*
X44465000Y-93225000D03*
X44465000Y-95765000D03*
X47005000Y-93225000D03*
X47005000Y-95765000D03*
X49545000Y-93225000D03*
X49545000Y-95765000D03*
X52085000Y-93225000D03*
X52085000Y-95765000D03*
D22*
X86080000Y-45080000D03*
X86080000Y-42540000D03*
X86080000Y-40000000D03*
X86000000Y-56580000D03*
X86000000Y-54040000D03*
X86000000Y-51500000D03*
D14*
X33544888Y-123000000D03*
D13*
X35544888Y-123000000D03*
D20*
X62000000Y-87150000D03*
D21*
X62000000Y-99850000D03*
D22*
X86000000Y-100500000D03*
X86000000Y-103040000D03*
X86000000Y-105580000D03*
X86000000Y-89500000D03*
X86000000Y-92040000D03*
X86000000Y-94580000D03*
D14*
X33544888Y-99500000D03*
D13*
X35544888Y-99500000D03*
D14*
X35044888Y-93000000D03*
D13*
X33044888Y-93000000D03*
M02*
