M48
; DRILL file {KiCad (6.0.6)} date Thu Nov 24 12:48:11 2022
; FORMAT={-:-/ absolute / metric / decimal}
; #@! TF.CreationDate,2022-11-24T12:48:11+00:00
; #@! TF.GenerationSoftware,Kicad,Pcbnew,(6.0.6)
; #@! TF.FileFunction,Plated,1,2,PTH
FMAT,2
METRIC
; #@! TA.AperFunction,Plated,PTH,ViaDrill
T1C0.400
; #@! TA.AperFunction,Plated,PTH,ComponentDrill
T2C0.800
; #@! TA.AperFunction,Plated,PTH,ComponentDrill
T3C1.000
%
G90
G05
T1
X42.1Y-115.5
X42.4Y-103.7
X45.54Y-79.617
X46.6Y-70.5
X47.0Y-104.7
X47.3Y-77.8
X52.3Y-85.3
X54.3Y-75.8
X62.7Y-85.7
X67.4Y-95.8
T2
X31.3Y-62.5
X31.3Y-65.6
X32.1Y-124.9
X32.3Y-85.32
X32.3Y-95.48
X32.9Y-98.5
X32.9Y-100.5
X33.9Y-104.22
X33.9Y-114.38
X34.1Y-124.9
X36.0Y-130.0
X36.0Y-133.1
X36.6Y-70.5
X37.0Y-103.0
X37.0Y-108.0
X37.4Y-76.2
X37.4Y-81.2
X38.3Y-112.4
X38.3Y-122.56
X38.5Y-126.8
X38.6Y-70.5
X41.02Y-82.8
X41.2Y-74.1
X41.2Y-79.1
X41.4Y-112.4
X41.4Y-122.56
X41.46Y-62.5
X41.46Y-65.6
X43.5Y-126.8
X43.8Y-62.5
X43.8Y-65.6
X43.8Y-68.7
X44.5Y-112.4
X44.5Y-122.56
X46.16Y-130.0
X46.16Y-133.1
X47.6Y-103.0
X47.6Y-108.0
X47.6Y-110.4
X47.6Y-120.56
X50.22Y-107.7
X50.4Y-104.6
X50.7Y-110.4
X50.7Y-120.56
X51.18Y-82.8
X51.8Y-74.1
X51.8Y-79.1
X53.8Y-110.4
X53.8Y-120.56
X53.96Y-62.5
X53.96Y-65.6
X53.96Y-68.7
X54.9Y-72.3
X54.9Y-82.46
X55.4Y-104.6
X56.32Y-65.6
X56.32Y-68.7
X56.5Y-62.5
X56.9Y-110.4
X56.9Y-120.56
X57.7Y-85.52
X57.7Y-95.68
X58.0Y-72.3
X58.0Y-82.46
X60.0Y-110.4
X60.0Y-120.56
X60.38Y-107.7
X61.1Y-72.32
X61.1Y-82.48
X61.5Y-62.5
X61.5Y-95.7
X63.5Y-95.7
X64.04Y-115.1
X64.04Y-118.2
X64.2Y-72.32
X64.2Y-82.48
X66.48Y-65.6
X66.48Y-68.7
X66.7Y-121.12
X66.7Y-123.66
X66.7Y-126.2
X67.3Y-72.32
X67.3Y-82.48
X70.94Y-121.16
X70.94Y-123.7
X70.94Y-126.24
X71.0Y-128.8
X71.0Y-138.96
X71.76Y-76.26
X71.76Y-78.8
X71.76Y-81.34
X72.3Y-62.02
X72.3Y-72.18
X74.2Y-115.1
X74.2Y-118.2
X74.6Y-46.72
X74.6Y-56.88
X75.58Y-62.68
X75.58Y-65.22
X75.58Y-67.76
X75.58Y-70.3
X75.58Y-73.48
X76.04Y-76.26
X76.04Y-78.8
X76.04Y-81.34
X77.0Y-112.6
X77.0Y-115.14
X77.0Y-117.68
X77.0Y-120.22
X77.0Y-123.3
X78.0Y-39.19
X78.0Y-46.81
X78.0Y-49.2
X78.0Y-56.82
X78.0Y-87.5
X78.0Y-95.12
X78.0Y-97.5
X78.0Y-105.12
X78.18Y-59.48
X79.6Y-109.4
X80.58Y-73.48
X80.6Y-39.19
X80.6Y-46.81
X80.6Y-49.2
X80.6Y-56.82
X80.6Y-87.5
X80.6Y-95.12
X80.6Y-97.5
X80.6Y-105.12
X82.0Y-123.3
X83.18Y-59.48
X83.2Y-39.19
X83.2Y-46.81
X83.2Y-49.2
X83.2Y-56.82
X83.2Y-62.68
X83.2Y-65.22
X83.2Y-67.76
X83.2Y-70.3
X83.2Y-87.5
X83.2Y-95.12
X83.2Y-97.5
X83.2Y-105.12
X84.6Y-109.4
X84.62Y-112.6
X84.62Y-115.14
X84.62Y-117.68
X84.62Y-120.22
X86.0Y-40.36
X86.0Y-45.44
X86.0Y-50.51
X86.0Y-55.59
X86.0Y-88.71
X86.0Y-93.79
X86.0Y-98.82
X86.0Y-103.9
X87.0Y-60.8
X87.0Y-65.8
X87.8Y-113.8
X87.8Y-118.8
X88.54Y-42.9
X88.54Y-53.05
X88.54Y-91.25
X88.54Y-101.36
T3
X33.0Y-69.0
X33.0Y-71.54
X33.0Y-74.08
X33.0Y-76.62
X33.0Y-79.16
X33.0Y-81.7
X33.0Y-130.0
X33.0Y-132.54
X33.0Y-135.08
X33.0Y-137.62
X33.0Y-140.16
X33.0Y-142.7
X39.92Y-89.56
X39.92Y-92.1
X42.46Y-89.56
X42.46Y-92.1
X45.0Y-89.56
X45.0Y-92.1
X47.54Y-89.56
X47.54Y-92.1
X50.08Y-89.56
X50.08Y-92.1
X87.0Y-69.0
X87.0Y-71.54
X87.0Y-74.08
X87.0Y-76.62
X87.0Y-79.16
X87.0Y-81.7
X87.0Y-130.0
X87.0Y-132.54
X87.0Y-135.08
X87.0Y-137.62
X87.0Y-140.16
X87.0Y-142.7
T0
M30
