G04 #@! TF.GenerationSoftware,KiCad,Pcbnew,(6.0.1)*
G04 #@! TF.CreationDate,2022-09-12T17:23:34+02:00*
G04 #@! TF.ProjectId,Output-mixer,4f757470-7574-42d6-9d69-7865722e6b69,rev?*
G04 #@! TF.SameCoordinates,Original*
G04 #@! TF.FileFunction,Legend,Bot*
G04 #@! TF.FilePolarity,Positive*
%FSLAX46Y46*%
G04 Gerber Fmt 4.6, Leading zero omitted, Abs format (unit mm)*
G04 Created by KiCad (PCBNEW (6.0.1)) date 2022-09-12 17:23:34*
%MOMM*%
%LPD*%
G01*
G04 APERTURE LIST*
G04 #@! TA.AperFunction,Profile*
%ADD10C,0.050000*%
G04 #@! TD*
G04 #@! TA.AperFunction,Profile*
%ADD11C,0.100000*%
G04 #@! TD*
%ADD12C,0.150000*%
%ADD13C,0.120000*%
%ADD14C,1.800000*%
%ADD15C,4.500000*%
%ADD16C,1.600000*%
%ADD17O,1.600000X1.600000*%
%ADD18R,1.930000X1.830000*%
%ADD19C,2.130000*%
%ADD20R,1.600000X1.600000*%
%ADD21O,3.700000X2.400000*%
%ADD22R,1.800000X1.800000*%
%ADD23C,4.000000*%
%ADD24C,3.200000*%
%ADD25R,1.500000X1.050000*%
%ADD26O,1.500000X1.050000*%
%ADD27R,1.700000X1.700000*%
%ADD28O,1.700000X1.700000*%
G04 APERTURE END LIST*
D10*
X152000000Y-31000000D02*
X152000000Y-70500000D01*
X17000000Y-31000000D02*
X17000000Y-141000000D01*
X17000000Y-31000000D02*
X152000000Y-31000000D01*
D11*
X118500000Y-87500000D02*
X118500000Y-70500000D01*
X152000000Y-87500000D02*
X118500000Y-87500000D01*
X152000000Y-87500000D02*
X152000000Y-124500000D01*
X118500000Y-70500000D02*
X152000000Y-70500000D01*
D10*
X17000000Y-141000000D02*
X134500000Y-141000000D01*
D11*
X152000000Y-124500000D02*
X134500000Y-124500000D01*
X134500000Y-124500000D02*
X134500000Y-141000000D01*
D12*
X149952380Y-32380952D02*
X150666666Y-32380952D01*
X150809523Y-32333333D01*
X150904761Y-32238095D01*
X150952380Y-32095238D01*
X150952380Y-32000000D01*
X150952380Y-33333333D02*
X150952380Y-32857142D01*
X149952380Y-32857142D01*
X150857142Y-34238095D02*
X150904761Y-34190476D01*
X150952380Y-34047619D01*
X150952380Y-33952380D01*
X150904761Y-33809523D01*
X150809523Y-33714285D01*
X150714285Y-33666666D01*
X150523809Y-33619047D01*
X150380952Y-33619047D01*
X150190476Y-33666666D01*
X150095238Y-33714285D01*
X150000000Y-33809523D01*
X149952380Y-33952380D01*
X149952380Y-34047619D01*
X150000000Y-34190476D01*
X150047619Y-34238095D01*
X149952380Y-34952380D02*
X150666666Y-34952380D01*
X150809523Y-34904761D01*
X150904761Y-34809523D01*
X150952380Y-34666666D01*
X150952380Y-34571428D01*
X150952380Y-35904761D02*
X150952380Y-35428571D01*
X149952380Y-35428571D01*
X150857142Y-36809523D02*
X150904761Y-36761904D01*
X150952380Y-36619047D01*
X150952380Y-36523809D01*
X150904761Y-36380952D01*
X150809523Y-36285714D01*
X150714285Y-36238095D01*
X150523809Y-36190476D01*
X150380952Y-36190476D01*
X150190476Y-36238095D01*
X150095238Y-36285714D01*
X150000000Y-36380952D01*
X149952380Y-36523809D01*
X149952380Y-36619047D01*
X150000000Y-36761904D01*
X150047619Y-36809523D01*
X149952380Y-37523809D02*
X150666666Y-37523809D01*
X150809523Y-37476190D01*
X150904761Y-37380952D01*
X150952380Y-37238095D01*
X150952380Y-37142857D01*
X150952380Y-38476190D02*
X150952380Y-38000000D01*
X149952380Y-38000000D01*
X150857142Y-39380952D02*
X150904761Y-39333333D01*
X150952380Y-39190476D01*
X150952380Y-39095238D01*
X150904761Y-38952380D01*
X150809523Y-38857142D01*
X150714285Y-38809523D01*
X150523809Y-38761904D01*
X150380952Y-38761904D01*
X150190476Y-38809523D01*
X150095238Y-38857142D01*
X150000000Y-38952380D01*
X149952380Y-39095238D01*
X149952380Y-39190476D01*
X150000000Y-39333333D01*
X150047619Y-39380952D01*
X149952380Y-40095238D02*
X150666666Y-40095238D01*
X150809523Y-40047619D01*
X150904761Y-39952380D01*
X150952380Y-39809523D01*
X150952380Y-39714285D01*
X150952380Y-41047619D02*
X150952380Y-40571428D01*
X149952380Y-40571428D01*
X150857142Y-41952380D02*
X150904761Y-41904761D01*
X150952380Y-41761904D01*
X150952380Y-41666666D01*
X150904761Y-41523809D01*
X150809523Y-41428571D01*
X150714285Y-41380952D01*
X150523809Y-41333333D01*
X150380952Y-41333333D01*
X150190476Y-41380952D01*
X150095238Y-41428571D01*
X150000000Y-41523809D01*
X149952380Y-41666666D01*
X149952380Y-41761904D01*
X150000000Y-41904761D01*
X150047619Y-41952380D01*
X149809523Y-62182380D02*
X149809523Y-62896666D01*
X149857142Y-63039523D01*
X149952380Y-63134761D01*
X150095238Y-63182380D01*
X150190476Y-63182380D01*
X148809523Y-63182380D02*
X149380952Y-63182380D01*
X149095238Y-63182380D02*
X149095238Y-62182380D01*
X149190476Y-62325238D01*
X149285714Y-62420476D01*
X149380952Y-62468095D01*
X148476190Y-62182380D02*
X147809523Y-62182380D01*
X148238095Y-63182380D01*
X53559523Y-121972380D02*
X53559523Y-122686666D01*
X53607142Y-122829523D01*
X53702380Y-122924761D01*
X53845238Y-122972380D01*
X53940476Y-122972380D01*
X53178571Y-121972380D02*
X52559523Y-121972380D01*
X52892857Y-122353333D01*
X52750000Y-122353333D01*
X52654761Y-122400952D01*
X52607142Y-122448571D01*
X52559523Y-122543809D01*
X52559523Y-122781904D01*
X52607142Y-122877142D01*
X52654761Y-122924761D01*
X52750000Y-122972380D01*
X53035714Y-122972380D01*
X53130952Y-122924761D01*
X53178571Y-122877142D01*
X51654761Y-121972380D02*
X52130952Y-121972380D01*
X52178571Y-122448571D01*
X52130952Y-122400952D01*
X52035714Y-122353333D01*
X51797619Y-122353333D01*
X51702380Y-122400952D01*
X51654761Y-122448571D01*
X51607142Y-122543809D01*
X51607142Y-122781904D01*
X51654761Y-122877142D01*
X51702380Y-122924761D01*
X51797619Y-122972380D01*
X52035714Y-122972380D01*
X52130952Y-122924761D01*
X52178571Y-122877142D01*
X50809523Y-139452380D02*
X50809523Y-140166666D01*
X50857142Y-140309523D01*
X50952380Y-140404761D01*
X51095238Y-140452380D01*
X51190476Y-140452380D01*
X50428571Y-139452380D02*
X49809523Y-139452380D01*
X50142857Y-139833333D01*
X50000000Y-139833333D01*
X49904761Y-139880952D01*
X49857142Y-139928571D01*
X49809523Y-140023809D01*
X49809523Y-140261904D01*
X49857142Y-140357142D01*
X49904761Y-140404761D01*
X50000000Y-140452380D01*
X50285714Y-140452380D01*
X50380952Y-140404761D01*
X50428571Y-140357142D01*
X48952380Y-139452380D02*
X49142857Y-139452380D01*
X49238095Y-139500000D01*
X49285714Y-139547619D01*
X49380952Y-139690476D01*
X49428571Y-139880952D01*
X49428571Y-140261904D01*
X49380952Y-140357142D01*
X49333333Y-140404761D01*
X49238095Y-140452380D01*
X49047619Y-140452380D01*
X48952380Y-140404761D01*
X48904761Y-140357142D01*
X48857142Y-140261904D01*
X48857142Y-140023809D01*
X48904761Y-139928571D01*
X48952380Y-139880952D01*
X49047619Y-139833333D01*
X49238095Y-139833333D01*
X49333333Y-139880952D01*
X49380952Y-139928571D01*
X49428571Y-140023809D01*
X149809523Y-48682380D02*
X149809523Y-49396666D01*
X149857142Y-49539523D01*
X149952380Y-49634761D01*
X150095238Y-49682380D01*
X150190476Y-49682380D01*
X149380952Y-48777619D02*
X149333333Y-48730000D01*
X149238095Y-48682380D01*
X149000000Y-48682380D01*
X148904761Y-48730000D01*
X148857142Y-48777619D01*
X148809523Y-48872857D01*
X148809523Y-48968095D01*
X148857142Y-49110952D01*
X149428571Y-49682380D01*
X148809523Y-49682380D01*
X147857142Y-49682380D02*
X148428571Y-49682380D01*
X148142857Y-49682380D02*
X148142857Y-48682380D01*
X148238095Y-48825238D01*
X148333333Y-48920476D01*
X148428571Y-48968095D01*
X116682380Y-89190476D02*
X117396666Y-89190476D01*
X117539523Y-89142857D01*
X117634761Y-89047619D01*
X117682380Y-88904761D01*
X117682380Y-88809523D01*
X117682380Y-90190476D02*
X117682380Y-89619047D01*
X117682380Y-89904761D02*
X116682380Y-89904761D01*
X116825238Y-89809523D01*
X116920476Y-89714285D01*
X116968095Y-89619047D01*
X117015714Y-91047619D02*
X117682380Y-91047619D01*
X116634761Y-90809523D02*
X117349047Y-90571428D01*
X117349047Y-91190476D01*
X53559523Y-47972380D02*
X53559523Y-48686666D01*
X53607142Y-48829523D01*
X53702380Y-48924761D01*
X53845238Y-48972380D01*
X53940476Y-48972380D01*
X53130952Y-48067619D02*
X53083333Y-48020000D01*
X52988095Y-47972380D01*
X52750000Y-47972380D01*
X52654761Y-48020000D01*
X52607142Y-48067619D01*
X52559523Y-48162857D01*
X52559523Y-48258095D01*
X52607142Y-48400952D01*
X53178571Y-48972380D01*
X52559523Y-48972380D01*
X52226190Y-47972380D02*
X51559523Y-47972380D01*
X51988095Y-48972380D01*
X53559523Y-66472380D02*
X53559523Y-67186666D01*
X53607142Y-67329523D01*
X53702380Y-67424761D01*
X53845238Y-67472380D01*
X53940476Y-67472380D01*
X53130952Y-66567619D02*
X53083333Y-66520000D01*
X52988095Y-66472380D01*
X52750000Y-66472380D01*
X52654761Y-66520000D01*
X52607142Y-66567619D01*
X52559523Y-66662857D01*
X52559523Y-66758095D01*
X52607142Y-66900952D01*
X53178571Y-67472380D01*
X52559523Y-67472380D01*
X51988095Y-66900952D02*
X52083333Y-66853333D01*
X52130952Y-66805714D01*
X52178571Y-66710476D01*
X52178571Y-66662857D01*
X52130952Y-66567619D01*
X52083333Y-66520000D01*
X51988095Y-66472380D01*
X51797619Y-66472380D01*
X51702380Y-66520000D01*
X51654761Y-66567619D01*
X51607142Y-66662857D01*
X51607142Y-66710476D01*
X51654761Y-66805714D01*
X51702380Y-66853333D01*
X51797619Y-66900952D01*
X51988095Y-66900952D01*
X52083333Y-66948571D01*
X52130952Y-66996190D01*
X52178571Y-67091428D01*
X52178571Y-67281904D01*
X52130952Y-67377142D01*
X52083333Y-67424761D01*
X51988095Y-67472380D01*
X51797619Y-67472380D01*
X51702380Y-67424761D01*
X51654761Y-67377142D01*
X51607142Y-67281904D01*
X51607142Y-67091428D01*
X51654761Y-66996190D01*
X51702380Y-66948571D01*
X51797619Y-66900952D01*
X83059523Y-78432380D02*
X83059523Y-79146666D01*
X83107142Y-79289523D01*
X83202380Y-79384761D01*
X83345238Y-79432380D01*
X83440476Y-79432380D01*
X82154761Y-78765714D02*
X82154761Y-79432380D01*
X82392857Y-78384761D02*
X82630952Y-79099047D01*
X82011904Y-79099047D01*
X81440476Y-78432380D02*
X81345238Y-78432380D01*
X81250000Y-78480000D01*
X81202380Y-78527619D01*
X81154761Y-78622857D01*
X81107142Y-78813333D01*
X81107142Y-79051428D01*
X81154761Y-79241904D01*
X81202380Y-79337142D01*
X81250000Y-79384761D01*
X81345238Y-79432380D01*
X81440476Y-79432380D01*
X81535714Y-79384761D01*
X81583333Y-79337142D01*
X81630952Y-79241904D01*
X81678571Y-79051428D01*
X81678571Y-78813333D01*
X81630952Y-78622857D01*
X81583333Y-78527619D01*
X81535714Y-78480000D01*
X81440476Y-78432380D01*
X53559523Y-103472380D02*
X53559523Y-104186666D01*
X53607142Y-104329523D01*
X53702380Y-104424761D01*
X53845238Y-104472380D01*
X53940476Y-104472380D01*
X53178571Y-103472380D02*
X52559523Y-103472380D01*
X52892857Y-103853333D01*
X52750000Y-103853333D01*
X52654761Y-103900952D01*
X52607142Y-103948571D01*
X52559523Y-104043809D01*
X52559523Y-104281904D01*
X52607142Y-104377142D01*
X52654761Y-104424761D01*
X52750000Y-104472380D01*
X53035714Y-104472380D01*
X53130952Y-104424761D01*
X53178571Y-104377142D01*
X51940476Y-103472380D02*
X51845238Y-103472380D01*
X51750000Y-103520000D01*
X51702380Y-103567619D01*
X51654761Y-103662857D01*
X51607142Y-103853333D01*
X51607142Y-104091428D01*
X51654761Y-104281904D01*
X51702380Y-104377142D01*
X51750000Y-104424761D01*
X51845238Y-104472380D01*
X51940476Y-104472380D01*
X52035714Y-104424761D01*
X52083333Y-104377142D01*
X52130952Y-104281904D01*
X52178571Y-104091428D01*
X52178571Y-103853333D01*
X52130952Y-103662857D01*
X52083333Y-103567619D01*
X52035714Y-103520000D01*
X51940476Y-103472380D01*
X132222380Y-105690476D02*
X132936666Y-105690476D01*
X133079523Y-105642857D01*
X133174761Y-105547619D01*
X133222380Y-105404761D01*
X133222380Y-105309523D01*
X132317619Y-106119047D02*
X132270000Y-106166666D01*
X132222380Y-106261904D01*
X132222380Y-106500000D01*
X132270000Y-106595238D01*
X132317619Y-106642857D01*
X132412857Y-106690476D01*
X132508095Y-106690476D01*
X132650952Y-106642857D01*
X133222380Y-106071428D01*
X133222380Y-106690476D01*
X132222380Y-107595238D02*
X132222380Y-107119047D01*
X132698571Y-107071428D01*
X132650952Y-107119047D01*
X132603333Y-107214285D01*
X132603333Y-107452380D01*
X132650952Y-107547619D01*
X132698571Y-107595238D01*
X132793809Y-107642857D01*
X133031904Y-107642857D01*
X133127142Y-107595238D01*
X133174761Y-107547619D01*
X133222380Y-107452380D01*
X133222380Y-107214285D01*
X133174761Y-107119047D01*
X133127142Y-107071428D01*
X53559523Y-84972380D02*
X53559523Y-85686666D01*
X53607142Y-85829523D01*
X53702380Y-85924761D01*
X53845238Y-85972380D01*
X53940476Y-85972380D01*
X53130952Y-85067619D02*
X53083333Y-85020000D01*
X52988095Y-84972380D01*
X52750000Y-84972380D01*
X52654761Y-85020000D01*
X52607142Y-85067619D01*
X52559523Y-85162857D01*
X52559523Y-85258095D01*
X52607142Y-85400952D01*
X53178571Y-85972380D01*
X52559523Y-85972380D01*
X52083333Y-85972380D02*
X51892857Y-85972380D01*
X51797619Y-85924761D01*
X51750000Y-85877142D01*
X51654761Y-85734285D01*
X51607142Y-85543809D01*
X51607142Y-85162857D01*
X51654761Y-85067619D01*
X51702380Y-85020000D01*
X51797619Y-84972380D01*
X51988095Y-84972380D01*
X52083333Y-85020000D01*
X52130952Y-85067619D01*
X52178571Y-85162857D01*
X52178571Y-85400952D01*
X52130952Y-85496190D01*
X52083333Y-85543809D01*
X51988095Y-85591428D01*
X51797619Y-85591428D01*
X51702380Y-85543809D01*
X51654761Y-85496190D01*
X51607142Y-85400952D01*
D13*
X150330000Y-66770000D02*
X147670000Y-66770000D01*
X149000000Y-64170000D02*
X147670000Y-64170000D01*
X147670000Y-64170000D02*
X147670000Y-65500000D01*
X150330000Y-66770000D02*
X150330000Y-69370000D01*
X147670000Y-66770000D02*
X147670000Y-69370000D01*
X150330000Y-69370000D02*
X147670000Y-69370000D01*
X54080000Y-121080000D02*
X54080000Y-119750000D01*
X51420000Y-118480000D02*
X54080000Y-118480000D01*
X54080000Y-118480000D02*
X54080000Y-105720000D01*
X51420000Y-105720000D02*
X54080000Y-105720000D01*
X52750000Y-121080000D02*
X54080000Y-121080000D01*
X51420000Y-118480000D02*
X51420000Y-105720000D01*
X54080000Y-139580000D02*
X54080000Y-138250000D01*
X51420000Y-136980000D02*
X54080000Y-136980000D01*
X54080000Y-136980000D02*
X54080000Y-124220000D01*
X52750000Y-139580000D02*
X54080000Y-139580000D01*
X51420000Y-124220000D02*
X54080000Y-124220000D01*
X51420000Y-136980000D02*
X51420000Y-124220000D01*
X147670000Y-53270000D02*
X147670000Y-60950000D01*
X147670000Y-50670000D02*
X147670000Y-52000000D01*
X150330000Y-53270000D02*
X150330000Y-60950000D01*
X149000000Y-50670000D02*
X147670000Y-50670000D01*
X150330000Y-53270000D02*
X147670000Y-53270000D01*
X150330000Y-60950000D02*
X147670000Y-60950000D01*
X121270000Y-88670000D02*
X128950000Y-88670000D01*
X118670000Y-91330000D02*
X120000000Y-91330000D01*
X128950000Y-88670000D02*
X128950000Y-91330000D01*
X121270000Y-88670000D02*
X121270000Y-91330000D01*
X118670000Y-90000000D02*
X118670000Y-91330000D01*
X121270000Y-91330000D02*
X128950000Y-91330000D01*
X54080000Y-44480000D02*
X54080000Y-31720000D01*
X51420000Y-44480000D02*
X54080000Y-44480000D01*
X51420000Y-31720000D02*
X54080000Y-31720000D01*
X54080000Y-47080000D02*
X54080000Y-45750000D01*
X51420000Y-44480000D02*
X51420000Y-31720000D01*
X52750000Y-47080000D02*
X54080000Y-47080000D01*
X54080000Y-62980000D02*
X54080000Y-50220000D01*
X51420000Y-62980000D02*
X54080000Y-62980000D01*
X51420000Y-62980000D02*
X51420000Y-50220000D01*
X54080000Y-65580000D02*
X54080000Y-64250000D01*
X51420000Y-50220000D02*
X54080000Y-50220000D01*
X52750000Y-65580000D02*
X54080000Y-65580000D01*
X83580000Y-83020000D02*
X83580000Y-90700000D01*
X83580000Y-90700000D02*
X80920000Y-90700000D01*
X82250000Y-80420000D02*
X80920000Y-80420000D01*
X80920000Y-83020000D02*
X80920000Y-90700000D01*
X83580000Y-83020000D02*
X80920000Y-83020000D01*
X80920000Y-80420000D02*
X80920000Y-81750000D01*
X51420000Y-87220000D02*
X54080000Y-87220000D01*
X51420000Y-99980000D02*
X54080000Y-99980000D01*
X54080000Y-99980000D02*
X54080000Y-87220000D01*
X52750000Y-102580000D02*
X54080000Y-102580000D01*
X54080000Y-102580000D02*
X54080000Y-101250000D01*
X51420000Y-99980000D02*
X51420000Y-87220000D01*
X126130000Y-107830000D02*
X126130000Y-105170000D01*
X128730000Y-107830000D02*
X126130000Y-107830000D01*
X128730000Y-105170000D02*
X126130000Y-105170000D01*
X131330000Y-105170000D02*
X130000000Y-105170000D01*
X128730000Y-107830000D02*
X128730000Y-105170000D01*
X131330000Y-106500000D02*
X131330000Y-105170000D01*
X54080000Y-81480000D02*
X54080000Y-68720000D01*
X52750000Y-84080000D02*
X54080000Y-84080000D01*
X51420000Y-81480000D02*
X54080000Y-81480000D01*
X51420000Y-68720000D02*
X54080000Y-68720000D01*
X54080000Y-84080000D02*
X54080000Y-82750000D01*
X51420000Y-81480000D02*
X51420000Y-68720000D01*
%LPC*%
D14*
X72775000Y-98000000D03*
X72775000Y-100000000D03*
X72775000Y-90000000D03*
X72775000Y-96000000D03*
X72775000Y-94000000D03*
X72775000Y-92000000D03*
D15*
X61775000Y-100800000D03*
X61775000Y-89200000D03*
D16*
X120250000Y-38920000D03*
D17*
X120250000Y-49080000D03*
D16*
X117000000Y-51500000D03*
D17*
X117000000Y-61660000D03*
D18*
X32000000Y-107000000D03*
D19*
X32000000Y-118400000D03*
X32000000Y-110100000D03*
D20*
X134955113Y-94750000D03*
D16*
X132955113Y-94750000D03*
D21*
X41100000Y-71800000D03*
X41100000Y-76500000D03*
X41100000Y-81200000D03*
X45900000Y-71800000D03*
X45900000Y-76500000D03*
X45900000Y-81200000D03*
D22*
X105000000Y-56725000D03*
D14*
X105000000Y-59265000D03*
D16*
X76010000Y-73000000D03*
D17*
X86170000Y-73000000D03*
D16*
X102750000Y-136500000D03*
D17*
X112910000Y-136500000D03*
D16*
X102780000Y-62500000D03*
D17*
X112940000Y-62500000D03*
D23*
X98900000Y-95550000D03*
X90100000Y-95550000D03*
D14*
X97000000Y-102550000D03*
X94500000Y-102550000D03*
X92000000Y-102550000D03*
X133000000Y-67275000D03*
X131000000Y-67275000D03*
X141000000Y-67275000D03*
X135000000Y-67275000D03*
X137000000Y-67275000D03*
X139000000Y-67275000D03*
D15*
X130200000Y-56275000D03*
X141800000Y-56275000D03*
D20*
X127455112Y-94750000D03*
D16*
X125455112Y-94750000D03*
D23*
X98900000Y-77050000D03*
X90100000Y-77050000D03*
D14*
X97000000Y-84050000D03*
X94500000Y-84050000D03*
X92000000Y-84050000D03*
D16*
X85500000Y-128920000D03*
D17*
X85500000Y-139080000D03*
D24*
X130500000Y-136000000D03*
D16*
X82000000Y-64410000D03*
D17*
X82000000Y-54250000D03*
D18*
X32000000Y-51500000D03*
D19*
X32000000Y-62900000D03*
X32000000Y-54600000D03*
D16*
X102750000Y-127500000D03*
D17*
X112910000Y-127500000D03*
D18*
X22000000Y-107000000D03*
D19*
X22000000Y-118400000D03*
X22000000Y-110100000D03*
D18*
X22000000Y-33000000D03*
D19*
X22000000Y-44400000D03*
X22000000Y-36100000D03*
D21*
X41100000Y-108800000D03*
X41100000Y-113500000D03*
X41100000Y-118200000D03*
X45900000Y-108800000D03*
X45900000Y-113500000D03*
X45900000Y-118200000D03*
D18*
X32000000Y-125500000D03*
D19*
X32000000Y-136900000D03*
X32000000Y-128600000D03*
D16*
X120750000Y-125000000D03*
D17*
X120750000Y-135160000D03*
D25*
X110000000Y-38225000D03*
D26*
X110000000Y-39495000D03*
X110000000Y-40765000D03*
D25*
X109970000Y-93730000D03*
D26*
X109970000Y-95000000D03*
X109970000Y-96270000D03*
D16*
X102780000Y-43995000D03*
D17*
X112940000Y-43995000D03*
D18*
X22000000Y-70000000D03*
D19*
X22000000Y-81400000D03*
X22000000Y-73100000D03*
D16*
X120250000Y-61660000D03*
D17*
X120250000Y-51500000D03*
D22*
X105000000Y-130725000D03*
D14*
X105000000Y-133265000D03*
D16*
X102780000Y-118000000D03*
D17*
X112940000Y-118000000D03*
D21*
X41100000Y-34800000D03*
X41100000Y-39500000D03*
X41100000Y-44200000D03*
X45900000Y-34800000D03*
X45900000Y-39500000D03*
X45900000Y-44200000D03*
D16*
X102780000Y-109000000D03*
D17*
X112940000Y-109000000D03*
D22*
X105000000Y-112225000D03*
D14*
X105000000Y-114765000D03*
D16*
X117000000Y-49080000D03*
D17*
X117000000Y-38920000D03*
D16*
X102780000Y-81000000D03*
D17*
X112940000Y-81000000D03*
D18*
X22000000Y-51500000D03*
D19*
X22000000Y-62900000D03*
X22000000Y-54600000D03*
D20*
X148455113Y-91000000D03*
D16*
X146455113Y-91000000D03*
D18*
X22000000Y-88500000D03*
D19*
X22000000Y-99900000D03*
X22000000Y-91600000D03*
D16*
X102750000Y-53500000D03*
D17*
X112910000Y-53500000D03*
D18*
X142000000Y-32500000D03*
D19*
X142000000Y-43900000D03*
X142000000Y-35600000D03*
D14*
X140000000Y-122775000D03*
X138000000Y-122775000D03*
X148000000Y-122775000D03*
X142000000Y-122775000D03*
X144000000Y-122775000D03*
X146000000Y-122775000D03*
D15*
X137200000Y-111775000D03*
X148800000Y-111775000D03*
D14*
X72775000Y-135000000D03*
X72775000Y-137000000D03*
X72775000Y-127000000D03*
X72775000Y-133000000D03*
X72775000Y-131000000D03*
X72775000Y-129000000D03*
D15*
X61775000Y-137800000D03*
X61775000Y-126200000D03*
D16*
X102780000Y-72000000D03*
D17*
X112940000Y-72000000D03*
D16*
X112970000Y-85250000D03*
D17*
X102810000Y-85250000D03*
D18*
X32000000Y-70000000D03*
D19*
X32000000Y-81400000D03*
X32000000Y-73100000D03*
D16*
X89220000Y-87500000D03*
D17*
X99380000Y-87500000D03*
D14*
X72775000Y-61000000D03*
X72775000Y-63000000D03*
X72775000Y-53000000D03*
X72775000Y-59000000D03*
X72775000Y-57000000D03*
X72775000Y-55000000D03*
D15*
X61775000Y-63800000D03*
X61775000Y-52200000D03*
D18*
X32000000Y-33000000D03*
D19*
X32000000Y-44400000D03*
X32000000Y-36100000D03*
D16*
X120750000Y-94500000D03*
D17*
X120750000Y-104660000D03*
D16*
X85500000Y-110590000D03*
D17*
X85500000Y-120750000D03*
D23*
X98900000Y-114050000D03*
X90100000Y-114050000D03*
D14*
X97000000Y-121050000D03*
X94500000Y-121050000D03*
X92000000Y-121050000D03*
D16*
X120750000Y-107920000D03*
D17*
X120750000Y-118080000D03*
D14*
X72775000Y-42500000D03*
X72775000Y-44500000D03*
X72775000Y-34500000D03*
X72775000Y-40500000D03*
X72775000Y-38500000D03*
X72775000Y-36500000D03*
D15*
X61775000Y-45300000D03*
X61775000Y-33700000D03*
D14*
X72775000Y-79500000D03*
X72775000Y-81500000D03*
X72775000Y-71500000D03*
X72775000Y-77500000D03*
X72775000Y-75500000D03*
X72775000Y-73500000D03*
D15*
X61775000Y-82300000D03*
X61775000Y-70700000D03*
D16*
X82250000Y-120750000D03*
D17*
X82250000Y-110590000D03*
D20*
X141705113Y-91000000D03*
D16*
X139705113Y-91000000D03*
X117500000Y-118080000D03*
D17*
X117500000Y-107920000D03*
D16*
X82000000Y-139080000D03*
D17*
X82000000Y-128920000D03*
D18*
X32000000Y-88500000D03*
D19*
X32000000Y-99900000D03*
X32000000Y-91600000D03*
D23*
X90100000Y-58550000D03*
X98900000Y-58550000D03*
D14*
X97000000Y-65550000D03*
X94500000Y-65550000D03*
X92000000Y-65550000D03*
D16*
X86080000Y-97500000D03*
D17*
X75920000Y-97500000D03*
D16*
X86250000Y-76500000D03*
D17*
X76090000Y-76500000D03*
D24*
X123500000Y-66500000D03*
D25*
X110140000Y-130730000D03*
D26*
X110140000Y-132000000D03*
X110140000Y-133270000D03*
D16*
X82000000Y-46660000D03*
D17*
X82000000Y-36500000D03*
D22*
X105000000Y-75225000D03*
D14*
X105000000Y-77765000D03*
D18*
X22000000Y-125500000D03*
D19*
X22000000Y-136900000D03*
X22000000Y-128600000D03*
D21*
X41100000Y-90300000D03*
X41100000Y-95000000D03*
X41100000Y-99700000D03*
X45900000Y-90300000D03*
X45900000Y-95000000D03*
X45900000Y-99700000D03*
D22*
X105000000Y-38225000D03*
D14*
X105000000Y-40765000D03*
D21*
X41100000Y-53300000D03*
X41100000Y-58000000D03*
X41100000Y-62700000D03*
X45900000Y-53300000D03*
X45900000Y-58000000D03*
X45900000Y-62700000D03*
D16*
X102750000Y-99500000D03*
D17*
X112910000Y-99500000D03*
D21*
X41100000Y-127300000D03*
X41100000Y-132000000D03*
X41100000Y-136700000D03*
X45900000Y-127300000D03*
X45900000Y-132000000D03*
X45900000Y-136700000D03*
D16*
X85500000Y-54250000D03*
D17*
X85500000Y-64410000D03*
D16*
X102780000Y-34995000D03*
D17*
X112940000Y-34995000D03*
D14*
X72775000Y-116500000D03*
X72775000Y-118500000D03*
X72775000Y-108500000D03*
X72775000Y-114500000D03*
X72775000Y-112500000D03*
X72775000Y-110500000D03*
D15*
X61775000Y-119300000D03*
X61775000Y-107700000D03*
D16*
X117500000Y-104660000D03*
D17*
X117500000Y-94500000D03*
D25*
X110000000Y-75230000D03*
D26*
X110000000Y-76500000D03*
X110000000Y-77770000D03*
D23*
X90100000Y-40050000D03*
X98900000Y-40050000D03*
D14*
X97000000Y-47050000D03*
X94500000Y-47050000D03*
X92000000Y-47050000D03*
D16*
X85500000Y-36500000D03*
D17*
X85500000Y-46660000D03*
D18*
X130000000Y-32500000D03*
D19*
X130000000Y-43900000D03*
X130000000Y-35600000D03*
D23*
X90100000Y-132550000D03*
X98900000Y-132550000D03*
D14*
X97000000Y-139550000D03*
X94500000Y-139550000D03*
X92000000Y-139550000D03*
D16*
X75920000Y-100750000D03*
D17*
X86080000Y-100750000D03*
D16*
X117500000Y-135160000D03*
D17*
X117500000Y-125000000D03*
D16*
X102750000Y-90500000D03*
D17*
X112910000Y-90500000D03*
D25*
X110000000Y-56730000D03*
D26*
X110000000Y-58000000D03*
X110000000Y-59270000D03*
D25*
X110000000Y-112230000D03*
D26*
X110000000Y-113500000D03*
X110000000Y-114770000D03*
D22*
X104970000Y-93725000D03*
D14*
X104970000Y-96265000D03*
D27*
X149000000Y-65500000D03*
D28*
X149000000Y-68040000D03*
D27*
X52750000Y-119750000D03*
D28*
X52750000Y-117210000D03*
X52750000Y-114670000D03*
X52750000Y-112130000D03*
X52750000Y-109590000D03*
X52750000Y-107050000D03*
D27*
X52750000Y-138250000D03*
D28*
X52750000Y-135710000D03*
X52750000Y-133170000D03*
X52750000Y-130630000D03*
X52750000Y-128090000D03*
X52750000Y-125550000D03*
D27*
X149000000Y-52000000D03*
D28*
X149000000Y-54540000D03*
X149000000Y-57080000D03*
X149000000Y-59620000D03*
D27*
X120000000Y-90000000D03*
D28*
X122540000Y-90000000D03*
X125080000Y-90000000D03*
X127620000Y-90000000D03*
D27*
X52750000Y-45750000D03*
D28*
X52750000Y-43210000D03*
X52750000Y-40670000D03*
X52750000Y-38130000D03*
X52750000Y-35590000D03*
X52750000Y-33050000D03*
D27*
X52750000Y-64250000D03*
D28*
X52750000Y-61710000D03*
X52750000Y-59170000D03*
X52750000Y-56630000D03*
X52750000Y-54090000D03*
X52750000Y-51550000D03*
D27*
X82250000Y-81750000D03*
D28*
X82250000Y-84290000D03*
X82250000Y-86830000D03*
X82250000Y-89370000D03*
D27*
X52750000Y-101250000D03*
D28*
X52750000Y-98710000D03*
X52750000Y-96170000D03*
X52750000Y-93630000D03*
X52750000Y-91090000D03*
X52750000Y-88550000D03*
D27*
X130000000Y-106500000D03*
D28*
X127460000Y-106500000D03*
D27*
X52750000Y-82750000D03*
D28*
X52750000Y-80210000D03*
X52750000Y-77670000D03*
X52750000Y-75130000D03*
X52750000Y-72590000D03*
X52750000Y-70050000D03*
M02*
