%FSLAX45Y45*%
G04 Gerber Fmt 4.5, Leading zero omitted, Abs format (unit mm)*
G04 Created by KiCad (PCBNEW (6.0.0)) date 2022-04-30 23:34:16*
%MOMM*%
%LPD*%
G01*
G04 APERTURE LIST*
%TA.AperFunction,Profile*%
%ADD10C,0.050000*%
%TD*%
%TA.AperFunction,Profile*%
%ADD11C,0.100000*%
%TD*%
%ADD12C,0.200000*%
%ADD13C,0.320000*%
G04 APERTURE END LIST*
D10*
X18360000Y-3330000D02*
X18360000Y-7280000D01*
X4860000Y-3330000D02*
X4860000Y-14330000D01*
X4860000Y-3330000D02*
X18360000Y-3330000D01*
D11*
X15010000Y-8980000D02*
X15010000Y-7280000D01*
X18360000Y-8980000D02*
X15010000Y-8980000D01*
X18360000Y-8980000D02*
X18360000Y-12680000D01*
X15010000Y-7280000D02*
X18360000Y-7280000D01*
D10*
X4860000Y-14330000D02*
X16610000Y-14330000D01*
D11*
X18360000Y-12680000D02*
X16610000Y-12680000D01*
X16610000Y-12680000D02*
X16610000Y-14330000D01*
D12*
X8720000Y-4085000D02*
X8920000Y-4285000D01*
X8920000Y-4085000D02*
X8720000Y-4285000D01*
X8720000Y-5935000D02*
X8920000Y-6135000D01*
X8920000Y-5935000D02*
X8720000Y-6135000D01*
X8720000Y-7785000D02*
X8920000Y-7985000D01*
X8920000Y-7785000D02*
X8720000Y-7985000D01*
X8720000Y-9635000D02*
X8920000Y-9835000D01*
X8920000Y-9635000D02*
X8720000Y-9835000D01*
X8720000Y-11485000D02*
X8920000Y-11685000D01*
X8920000Y-11485000D02*
X8720000Y-11685000D01*
X8720000Y-13335000D02*
X8920000Y-13535000D01*
X8920000Y-13335000D02*
X8720000Y-13535000D01*
X9600000Y-4085000D02*
X9800000Y-4285000D01*
X9800000Y-4085000D02*
X9600000Y-4285000D01*
X9600000Y-5935000D02*
X9800000Y-6135000D01*
X9800000Y-5935000D02*
X9600000Y-6135000D01*
X9600000Y-7785000D02*
X9800000Y-7985000D01*
X9800000Y-7785000D02*
X9600000Y-7985000D01*
X9600000Y-9635000D02*
X9800000Y-9835000D01*
X9800000Y-9635000D02*
X9600000Y-9835000D01*
X9600000Y-11485000D02*
X9800000Y-11685000D01*
X9800000Y-11485000D02*
X9600000Y-11685000D01*
X9600000Y-13335000D02*
X9800000Y-13535000D01*
X9800000Y-13335000D02*
X9600000Y-13535000D01*
X12084000Y-4085000D02*
X12284000Y-4285000D01*
X12284000Y-4085000D02*
X12084000Y-4285000D01*
X12084000Y-5935000D02*
X12284000Y-6135000D01*
X12284000Y-5935000D02*
X12084000Y-6135000D01*
X12084000Y-7785000D02*
X12284000Y-7985000D01*
X12284000Y-7785000D02*
X12084000Y-7985000D01*
X12084000Y-9635000D02*
X12284000Y-9835000D01*
X12284000Y-9635000D02*
X12084000Y-9835000D01*
X12084000Y-11485000D02*
X12284000Y-11685000D01*
X12284000Y-11485000D02*
X12084000Y-11685000D01*
X12084000Y-13335000D02*
X12284000Y-13535000D01*
X12284000Y-13335000D02*
X12084000Y-13535000D01*
X12964000Y-4085000D02*
X13164000Y-4285000D01*
X13164000Y-4085000D02*
X12964000Y-4285000D01*
X12964000Y-5935000D02*
X13164000Y-6135000D01*
X13164000Y-5935000D02*
X12964000Y-6135000D01*
X12964000Y-7785000D02*
X13164000Y-7985000D01*
X13164000Y-7785000D02*
X12964000Y-7985000D01*
X12964000Y-9635000D02*
X13164000Y-9835000D01*
X13164000Y-9635000D02*
X12964000Y-9835000D01*
X12964000Y-11485000D02*
X13164000Y-11685000D01*
X13164000Y-11485000D02*
X12964000Y-11685000D01*
X12964000Y-13335000D02*
X13164000Y-13535000D01*
X13164000Y-13335000D02*
X12964000Y-13535000D01*
D13*
X15670000Y-6880000D02*
G75*
G03*
X15670000Y-6880000I-160000J0D01*
G01*
X16370000Y-13830000D02*
G75*
G03*
X16370000Y-13830000I-160000J0D01*
G01*
D12*
X5115119Y-14645476D02*
X5115119Y-14445476D01*
X5162738Y-14445476D01*
X5191310Y-14455000D01*
X5210357Y-14474048D01*
X5219881Y-14493095D01*
X5229405Y-14531190D01*
X5229405Y-14559762D01*
X5219881Y-14597857D01*
X5210357Y-14616905D01*
X5191310Y-14635952D01*
X5162738Y-14645476D01*
X5115119Y-14645476D01*
X5315119Y-14645476D02*
X5315119Y-14512143D01*
X5315119Y-14550238D02*
X5324643Y-14531190D01*
X5334167Y-14521667D01*
X5353214Y-14512143D01*
X5372262Y-14512143D01*
X5438929Y-14645476D02*
X5438929Y-14512143D01*
X5438929Y-14445476D02*
X5429405Y-14455000D01*
X5438929Y-14464524D01*
X5448452Y-14455000D01*
X5438929Y-14445476D01*
X5438929Y-14464524D01*
X5562738Y-14645476D02*
X5543690Y-14635952D01*
X5534167Y-14616905D01*
X5534167Y-14445476D01*
X5667500Y-14645476D02*
X5648452Y-14635952D01*
X5638928Y-14616905D01*
X5638928Y-14445476D01*
X5896071Y-14645476D02*
X5896071Y-14445476D01*
X5962738Y-14588333D01*
X6029405Y-14445476D01*
X6029405Y-14645476D01*
X6210357Y-14645476D02*
X6210357Y-14540714D01*
X6200833Y-14521667D01*
X6181786Y-14512143D01*
X6143690Y-14512143D01*
X6124643Y-14521667D01*
X6210357Y-14635952D02*
X6191309Y-14645476D01*
X6143690Y-14645476D01*
X6124643Y-14635952D01*
X6115119Y-14616905D01*
X6115119Y-14597857D01*
X6124643Y-14578809D01*
X6143690Y-14569286D01*
X6191309Y-14569286D01*
X6210357Y-14559762D01*
X6305595Y-14512143D02*
X6305595Y-14712143D01*
X6305595Y-14521667D02*
X6324643Y-14512143D01*
X6362738Y-14512143D01*
X6381786Y-14521667D01*
X6391309Y-14531190D01*
X6400833Y-14550238D01*
X6400833Y-14607381D01*
X6391309Y-14626428D01*
X6381786Y-14635952D01*
X6362738Y-14645476D01*
X6324643Y-14645476D01*
X6305595Y-14635952D01*
X6486548Y-14626428D02*
X6496071Y-14635952D01*
X6486548Y-14645476D01*
X6477024Y-14635952D01*
X6486548Y-14626428D01*
X6486548Y-14645476D01*
X6486548Y-14521667D02*
X6496071Y-14531190D01*
X6486548Y-14540714D01*
X6477024Y-14531190D01*
X6486548Y-14521667D01*
X6486548Y-14540714D01*
X4657500Y-14875000D02*
X4857500Y-15075000D01*
X4857500Y-14875000D02*
X4657500Y-15075000D01*
X5105595Y-14884524D02*
X5115119Y-14875000D01*
X5134167Y-14865476D01*
X5181786Y-14865476D01*
X5200833Y-14875000D01*
X5210357Y-14884524D01*
X5219881Y-14903571D01*
X5219881Y-14922619D01*
X5210357Y-14951190D01*
X5096071Y-15065476D01*
X5219881Y-15065476D01*
X5305595Y-15046428D02*
X5315119Y-15055952D01*
X5305595Y-15065476D01*
X5296071Y-15055952D01*
X5305595Y-15046428D01*
X5305595Y-15065476D01*
X5438929Y-14865476D02*
X5457976Y-14865476D01*
X5477024Y-14875000D01*
X5486548Y-14884524D01*
X5496071Y-14903571D01*
X5505595Y-14941667D01*
X5505595Y-14989286D01*
X5496071Y-15027381D01*
X5486548Y-15046428D01*
X5477024Y-15055952D01*
X5457976Y-15065476D01*
X5438929Y-15065476D01*
X5419881Y-15055952D01*
X5410357Y-15046428D01*
X5400833Y-15027381D01*
X5391310Y-14989286D01*
X5391310Y-14941667D01*
X5400833Y-14903571D01*
X5410357Y-14884524D01*
X5419881Y-14875000D01*
X5438929Y-14865476D01*
X5629405Y-14865476D02*
X5648452Y-14865476D01*
X5667500Y-14875000D01*
X5677024Y-14884524D01*
X5686548Y-14903571D01*
X5696071Y-14941667D01*
X5696071Y-14989286D01*
X5686548Y-15027381D01*
X5677024Y-15046428D01*
X5667500Y-15055952D01*
X5648452Y-15065476D01*
X5629405Y-15065476D01*
X5610357Y-15055952D01*
X5600833Y-15046428D01*
X5591310Y-15027381D01*
X5581786Y-14989286D01*
X5581786Y-14941667D01*
X5591310Y-14903571D01*
X5600833Y-14884524D01*
X5610357Y-14875000D01*
X5629405Y-14865476D01*
X5819881Y-14865476D02*
X5838928Y-14865476D01*
X5857976Y-14875000D01*
X5867500Y-14884524D01*
X5877024Y-14903571D01*
X5886548Y-14941667D01*
X5886548Y-14989286D01*
X5877024Y-15027381D01*
X5867500Y-15046428D01*
X5857976Y-15055952D01*
X5838928Y-15065476D01*
X5819881Y-15065476D01*
X5800833Y-15055952D01*
X5791309Y-15046428D01*
X5781786Y-15027381D01*
X5772262Y-14989286D01*
X5772262Y-14941667D01*
X5781786Y-14903571D01*
X5791309Y-14884524D01*
X5800833Y-14875000D01*
X5819881Y-14865476D01*
X5972262Y-15065476D02*
X5972262Y-14932143D01*
X5972262Y-14951190D02*
X5981786Y-14941667D01*
X6000833Y-14932143D01*
X6029405Y-14932143D01*
X6048452Y-14941667D01*
X6057976Y-14960714D01*
X6057976Y-15065476D01*
X6057976Y-14960714D02*
X6067500Y-14941667D01*
X6086548Y-14932143D01*
X6115119Y-14932143D01*
X6134167Y-14941667D01*
X6143690Y-14960714D01*
X6143690Y-15065476D01*
X6238928Y-15065476D02*
X6238928Y-14932143D01*
X6238928Y-14951190D02*
X6248452Y-14941667D01*
X6267500Y-14932143D01*
X6296071Y-14932143D01*
X6315119Y-14941667D01*
X6324643Y-14960714D01*
X6324643Y-15065476D01*
X6324643Y-14960714D02*
X6334167Y-14941667D01*
X6353214Y-14932143D01*
X6381786Y-14932143D01*
X6400833Y-14941667D01*
X6410357Y-14960714D01*
X6410357Y-15065476D01*
X6800833Y-14855952D02*
X6629405Y-15113095D01*
X7057976Y-14865476D02*
X7077024Y-14865476D01*
X7096071Y-14875000D01*
X7105595Y-14884524D01*
X7115119Y-14903571D01*
X7124643Y-14941667D01*
X7124643Y-14989286D01*
X7115119Y-15027381D01*
X7105595Y-15046428D01*
X7096071Y-15055952D01*
X7077024Y-15065476D01*
X7057976Y-15065476D01*
X7038928Y-15055952D01*
X7029405Y-15046428D01*
X7019881Y-15027381D01*
X7010357Y-14989286D01*
X7010357Y-14941667D01*
X7019881Y-14903571D01*
X7029405Y-14884524D01*
X7038928Y-14875000D01*
X7057976Y-14865476D01*
X7210357Y-15046428D02*
X7219881Y-15055952D01*
X7210357Y-15065476D01*
X7200833Y-15055952D01*
X7210357Y-15046428D01*
X7210357Y-15065476D01*
X7343690Y-14865476D02*
X7362738Y-14865476D01*
X7381786Y-14875000D01*
X7391309Y-14884524D01*
X7400833Y-14903571D01*
X7410357Y-14941667D01*
X7410357Y-14989286D01*
X7400833Y-15027381D01*
X7391309Y-15046428D01*
X7381786Y-15055952D01*
X7362738Y-15065476D01*
X7343690Y-15065476D01*
X7324643Y-15055952D01*
X7315119Y-15046428D01*
X7305595Y-15027381D01*
X7296071Y-14989286D01*
X7296071Y-14941667D01*
X7305595Y-14903571D01*
X7315119Y-14884524D01*
X7324643Y-14875000D01*
X7343690Y-14865476D01*
X7477024Y-14865476D02*
X7610357Y-14865476D01*
X7524643Y-15065476D01*
X7715119Y-14951190D02*
X7696071Y-14941667D01*
X7686548Y-14932143D01*
X7677024Y-14913095D01*
X7677024Y-14903571D01*
X7686548Y-14884524D01*
X7696071Y-14875000D01*
X7715119Y-14865476D01*
X7753214Y-14865476D01*
X7772262Y-14875000D01*
X7781786Y-14884524D01*
X7791309Y-14903571D01*
X7791309Y-14913095D01*
X7781786Y-14932143D01*
X7772262Y-14941667D01*
X7753214Y-14951190D01*
X7715119Y-14951190D01*
X7696071Y-14960714D01*
X7686548Y-14970238D01*
X7677024Y-14989286D01*
X7677024Y-15027381D01*
X7686548Y-15046428D01*
X7696071Y-15055952D01*
X7715119Y-15065476D01*
X7753214Y-15065476D01*
X7772262Y-15055952D01*
X7781786Y-15046428D01*
X7791309Y-15027381D01*
X7791309Y-14989286D01*
X7781786Y-14970238D01*
X7772262Y-14960714D01*
X7753214Y-14951190D01*
X7857976Y-14865476D02*
X7991309Y-14865476D01*
X7905595Y-15065476D01*
X8057976Y-14865476D02*
X8057976Y-14903571D01*
X8134167Y-14865476D02*
X8134167Y-14903571D01*
X8429405Y-15141667D02*
X8419881Y-15132143D01*
X8400833Y-15103571D01*
X8391310Y-15084524D01*
X8381786Y-15055952D01*
X8372262Y-15008333D01*
X8372262Y-14970238D01*
X8381786Y-14922619D01*
X8391310Y-14894048D01*
X8400833Y-14875000D01*
X8419881Y-14846428D01*
X8429405Y-14836905D01*
X8496071Y-14884524D02*
X8505595Y-14875000D01*
X8524643Y-14865476D01*
X8572262Y-14865476D01*
X8591310Y-14875000D01*
X8600833Y-14884524D01*
X8610357Y-14903571D01*
X8610357Y-14922619D01*
X8600833Y-14951190D01*
X8486548Y-15065476D01*
X8610357Y-15065476D01*
X8781786Y-14932143D02*
X8781786Y-15065476D01*
X8734167Y-14855952D02*
X8686548Y-14998809D01*
X8810357Y-14998809D01*
X9038929Y-15065476D02*
X9038929Y-14865476D01*
X9124643Y-15065476D02*
X9124643Y-14960714D01*
X9115119Y-14941667D01*
X9096071Y-14932143D01*
X9067500Y-14932143D01*
X9048452Y-14941667D01*
X9038929Y-14951190D01*
X9248452Y-15065476D02*
X9229405Y-15055952D01*
X9219881Y-15046428D01*
X9210357Y-15027381D01*
X9210357Y-14970238D01*
X9219881Y-14951190D01*
X9229405Y-14941667D01*
X9248452Y-14932143D01*
X9277024Y-14932143D01*
X9296071Y-14941667D01*
X9305595Y-14951190D01*
X9315119Y-14970238D01*
X9315119Y-15027381D01*
X9305595Y-15046428D01*
X9296071Y-15055952D01*
X9277024Y-15065476D01*
X9248452Y-15065476D01*
X9429405Y-15065476D02*
X9410357Y-15055952D01*
X9400833Y-15036905D01*
X9400833Y-14865476D01*
X9581786Y-15055952D02*
X9562738Y-15065476D01*
X9524643Y-15065476D01*
X9505595Y-15055952D01*
X9496071Y-15036905D01*
X9496071Y-14960714D01*
X9505595Y-14941667D01*
X9524643Y-14932143D01*
X9562738Y-14932143D01*
X9581786Y-14941667D01*
X9591310Y-14960714D01*
X9591310Y-14979762D01*
X9496071Y-14998809D01*
X9667500Y-15055952D02*
X9686548Y-15065476D01*
X9724643Y-15065476D01*
X9743690Y-15055952D01*
X9753214Y-15036905D01*
X9753214Y-15027381D01*
X9743690Y-15008333D01*
X9724643Y-14998809D01*
X9696071Y-14998809D01*
X9677024Y-14989286D01*
X9667500Y-14970238D01*
X9667500Y-14960714D01*
X9677024Y-14941667D01*
X9696071Y-14932143D01*
X9724643Y-14932143D01*
X9743690Y-14941667D01*
X9819881Y-15141667D02*
X9829405Y-15132143D01*
X9848452Y-15103571D01*
X9857976Y-15084524D01*
X9867500Y-15055952D01*
X9877024Y-15008333D01*
X9877024Y-14970238D01*
X9867500Y-14922619D01*
X9857976Y-14894048D01*
X9848452Y-14875000D01*
X9829405Y-14846428D01*
X9819881Y-14836905D01*
X10181786Y-15141667D02*
X10172262Y-15132143D01*
X10153214Y-15103571D01*
X10143690Y-15084524D01*
X10134167Y-15055952D01*
X10124643Y-15008333D01*
X10124643Y-14970238D01*
X10134167Y-14922619D01*
X10143690Y-14894048D01*
X10153214Y-14875000D01*
X10172262Y-14846428D01*
X10181786Y-14836905D01*
X10257976Y-14932143D02*
X10257976Y-15065476D01*
X10257976Y-14951190D02*
X10267500Y-14941667D01*
X10286548Y-14932143D01*
X10315119Y-14932143D01*
X10334167Y-14941667D01*
X10343690Y-14960714D01*
X10343690Y-15065476D01*
X10467500Y-15065476D02*
X10448452Y-15055952D01*
X10438929Y-15046428D01*
X10429405Y-15027381D01*
X10429405Y-14970238D01*
X10438929Y-14951190D01*
X10448452Y-14941667D01*
X10467500Y-14932143D01*
X10496071Y-14932143D01*
X10515119Y-14941667D01*
X10524643Y-14951190D01*
X10534167Y-14970238D01*
X10534167Y-15027381D01*
X10524643Y-15046428D01*
X10515119Y-15055952D01*
X10496071Y-15065476D01*
X10467500Y-15065476D01*
X10591310Y-14932143D02*
X10667500Y-14932143D01*
X10619881Y-14865476D02*
X10619881Y-15036905D01*
X10629405Y-15055952D01*
X10648452Y-15065476D01*
X10667500Y-15065476D01*
X10886548Y-14932143D02*
X10886548Y-15132143D01*
X10886548Y-14941667D02*
X10905595Y-14932143D01*
X10943690Y-14932143D01*
X10962738Y-14941667D01*
X10972262Y-14951190D01*
X10981786Y-14970238D01*
X10981786Y-15027381D01*
X10972262Y-15046428D01*
X10962738Y-15055952D01*
X10943690Y-15065476D01*
X10905595Y-15065476D01*
X10886548Y-15055952D01*
X11096071Y-15065476D02*
X11077024Y-15055952D01*
X11067500Y-15036905D01*
X11067500Y-14865476D01*
X11257976Y-15065476D02*
X11257976Y-14960714D01*
X11248452Y-14941667D01*
X11229405Y-14932143D01*
X11191309Y-14932143D01*
X11172262Y-14941667D01*
X11257976Y-15055952D02*
X11238928Y-15065476D01*
X11191309Y-15065476D01*
X11172262Y-15055952D01*
X11162738Y-15036905D01*
X11162738Y-15017857D01*
X11172262Y-14998809D01*
X11191309Y-14989286D01*
X11238928Y-14989286D01*
X11257976Y-14979762D01*
X11324643Y-14932143D02*
X11400833Y-14932143D01*
X11353214Y-14865476D02*
X11353214Y-15036905D01*
X11362738Y-15055952D01*
X11381786Y-15065476D01*
X11400833Y-15065476D01*
X11543690Y-15055952D02*
X11524643Y-15065476D01*
X11486548Y-15065476D01*
X11467500Y-15055952D01*
X11457976Y-15036905D01*
X11457976Y-14960714D01*
X11467500Y-14941667D01*
X11486548Y-14932143D01*
X11524643Y-14932143D01*
X11543690Y-14941667D01*
X11553214Y-14960714D01*
X11553214Y-14979762D01*
X11457976Y-14998809D01*
X11724643Y-15065476D02*
X11724643Y-14865476D01*
X11724643Y-15055952D02*
X11705595Y-15065476D01*
X11667500Y-15065476D01*
X11648452Y-15055952D01*
X11638928Y-15046428D01*
X11629405Y-15027381D01*
X11629405Y-14970238D01*
X11638928Y-14951190D01*
X11648452Y-14941667D01*
X11667500Y-14932143D01*
X11705595Y-14932143D01*
X11724643Y-14941667D01*
X11800833Y-15141667D02*
X11810357Y-15132143D01*
X11829405Y-15103571D01*
X11838928Y-15084524D01*
X11848452Y-15055952D01*
X11857976Y-15008333D01*
X11857976Y-14970238D01*
X11848452Y-14922619D01*
X11838928Y-14894048D01*
X11829405Y-14875000D01*
X11810357Y-14846428D01*
X11800833Y-14836905D01*
X4857500Y-15295000D02*
G75*
G03*
X4857500Y-15295000I-100000J0D01*
G01*
X5096071Y-15185476D02*
X5219881Y-15185476D01*
X5153214Y-15261667D01*
X5181786Y-15261667D01*
X5200833Y-15271190D01*
X5210357Y-15280714D01*
X5219881Y-15299762D01*
X5219881Y-15347381D01*
X5210357Y-15366428D01*
X5200833Y-15375952D01*
X5181786Y-15385476D01*
X5124643Y-15385476D01*
X5105595Y-15375952D01*
X5096071Y-15366428D01*
X5305595Y-15366428D02*
X5315119Y-15375952D01*
X5305595Y-15385476D01*
X5296071Y-15375952D01*
X5305595Y-15366428D01*
X5305595Y-15385476D01*
X5391310Y-15204524D02*
X5400833Y-15195000D01*
X5419881Y-15185476D01*
X5467500Y-15185476D01*
X5486548Y-15195000D01*
X5496071Y-15204524D01*
X5505595Y-15223571D01*
X5505595Y-15242619D01*
X5496071Y-15271190D01*
X5381786Y-15385476D01*
X5505595Y-15385476D01*
X5629405Y-15185476D02*
X5648452Y-15185476D01*
X5667500Y-15195000D01*
X5677024Y-15204524D01*
X5686548Y-15223571D01*
X5696071Y-15261667D01*
X5696071Y-15309286D01*
X5686548Y-15347381D01*
X5677024Y-15366428D01*
X5667500Y-15375952D01*
X5648452Y-15385476D01*
X5629405Y-15385476D01*
X5610357Y-15375952D01*
X5600833Y-15366428D01*
X5591310Y-15347381D01*
X5581786Y-15309286D01*
X5581786Y-15261667D01*
X5591310Y-15223571D01*
X5600833Y-15204524D01*
X5610357Y-15195000D01*
X5629405Y-15185476D01*
X5819881Y-15185476D02*
X5838928Y-15185476D01*
X5857976Y-15195000D01*
X5867500Y-15204524D01*
X5877024Y-15223571D01*
X5886548Y-15261667D01*
X5886548Y-15309286D01*
X5877024Y-15347381D01*
X5867500Y-15366428D01*
X5857976Y-15375952D01*
X5838928Y-15385476D01*
X5819881Y-15385476D01*
X5800833Y-15375952D01*
X5791309Y-15366428D01*
X5781786Y-15347381D01*
X5772262Y-15309286D01*
X5772262Y-15261667D01*
X5781786Y-15223571D01*
X5791309Y-15204524D01*
X5800833Y-15195000D01*
X5819881Y-15185476D01*
X5972262Y-15385476D02*
X5972262Y-15252143D01*
X5972262Y-15271190D02*
X5981786Y-15261667D01*
X6000833Y-15252143D01*
X6029405Y-15252143D01*
X6048452Y-15261667D01*
X6057976Y-15280714D01*
X6057976Y-15385476D01*
X6057976Y-15280714D02*
X6067500Y-15261667D01*
X6086548Y-15252143D01*
X6115119Y-15252143D01*
X6134167Y-15261667D01*
X6143690Y-15280714D01*
X6143690Y-15385476D01*
X6238928Y-15385476D02*
X6238928Y-15252143D01*
X6238928Y-15271190D02*
X6248452Y-15261667D01*
X6267500Y-15252143D01*
X6296071Y-15252143D01*
X6315119Y-15261667D01*
X6324643Y-15280714D01*
X6324643Y-15385476D01*
X6324643Y-15280714D02*
X6334167Y-15261667D01*
X6353214Y-15252143D01*
X6381786Y-15252143D01*
X6400833Y-15261667D01*
X6410357Y-15280714D01*
X6410357Y-15385476D01*
X6800833Y-15175952D02*
X6629405Y-15433095D01*
X7057976Y-15185476D02*
X7077024Y-15185476D01*
X7096071Y-15195000D01*
X7105595Y-15204524D01*
X7115119Y-15223571D01*
X7124643Y-15261667D01*
X7124643Y-15309286D01*
X7115119Y-15347381D01*
X7105595Y-15366428D01*
X7096071Y-15375952D01*
X7077024Y-15385476D01*
X7057976Y-15385476D01*
X7038928Y-15375952D01*
X7029405Y-15366428D01*
X7019881Y-15347381D01*
X7010357Y-15309286D01*
X7010357Y-15261667D01*
X7019881Y-15223571D01*
X7029405Y-15204524D01*
X7038928Y-15195000D01*
X7057976Y-15185476D01*
X7210357Y-15366428D02*
X7219881Y-15375952D01*
X7210357Y-15385476D01*
X7200833Y-15375952D01*
X7210357Y-15366428D01*
X7210357Y-15385476D01*
X7410357Y-15385476D02*
X7296071Y-15385476D01*
X7353214Y-15385476D02*
X7353214Y-15185476D01*
X7334167Y-15214048D01*
X7315119Y-15233095D01*
X7296071Y-15242619D01*
X7486548Y-15204524D02*
X7496071Y-15195000D01*
X7515119Y-15185476D01*
X7562738Y-15185476D01*
X7581786Y-15195000D01*
X7591309Y-15204524D01*
X7600833Y-15223571D01*
X7600833Y-15242619D01*
X7591309Y-15271190D01*
X7477024Y-15385476D01*
X7600833Y-15385476D01*
X7772262Y-15185476D02*
X7734167Y-15185476D01*
X7715119Y-15195000D01*
X7705595Y-15204524D01*
X7686548Y-15233095D01*
X7677024Y-15271190D01*
X7677024Y-15347381D01*
X7686548Y-15366428D01*
X7696071Y-15375952D01*
X7715119Y-15385476D01*
X7753214Y-15385476D01*
X7772262Y-15375952D01*
X7781786Y-15366428D01*
X7791309Y-15347381D01*
X7791309Y-15299762D01*
X7781786Y-15280714D01*
X7772262Y-15271190D01*
X7753214Y-15261667D01*
X7715119Y-15261667D01*
X7696071Y-15271190D01*
X7686548Y-15280714D01*
X7677024Y-15299762D01*
X7915119Y-15185476D02*
X7934167Y-15185476D01*
X7953214Y-15195000D01*
X7962738Y-15204524D01*
X7972262Y-15223571D01*
X7981786Y-15261667D01*
X7981786Y-15309286D01*
X7972262Y-15347381D01*
X7962738Y-15366428D01*
X7953214Y-15375952D01*
X7934167Y-15385476D01*
X7915119Y-15385476D01*
X7896071Y-15375952D01*
X7886548Y-15366428D01*
X7877024Y-15347381D01*
X7867500Y-15309286D01*
X7867500Y-15261667D01*
X7877024Y-15223571D01*
X7886548Y-15204524D01*
X7896071Y-15195000D01*
X7915119Y-15185476D01*
X8057976Y-15185476D02*
X8057976Y-15223571D01*
X8134167Y-15185476D02*
X8134167Y-15223571D01*
X8429405Y-15461667D02*
X8419881Y-15452143D01*
X8400833Y-15423571D01*
X8391310Y-15404524D01*
X8381786Y-15375952D01*
X8372262Y-15328333D01*
X8372262Y-15290238D01*
X8381786Y-15242619D01*
X8391310Y-15214048D01*
X8400833Y-15195000D01*
X8419881Y-15166428D01*
X8429405Y-15156905D01*
X8496071Y-15204524D02*
X8505595Y-15195000D01*
X8524643Y-15185476D01*
X8572262Y-15185476D01*
X8591310Y-15195000D01*
X8600833Y-15204524D01*
X8610357Y-15223571D01*
X8610357Y-15242619D01*
X8600833Y-15271190D01*
X8486548Y-15385476D01*
X8610357Y-15385476D01*
X8848452Y-15385476D02*
X8848452Y-15185476D01*
X8934167Y-15385476D02*
X8934167Y-15280714D01*
X8924643Y-15261667D01*
X8905595Y-15252143D01*
X8877024Y-15252143D01*
X8857976Y-15261667D01*
X8848452Y-15271190D01*
X9057976Y-15385476D02*
X9038929Y-15375952D01*
X9029405Y-15366428D01*
X9019881Y-15347381D01*
X9019881Y-15290238D01*
X9029405Y-15271190D01*
X9038929Y-15261667D01*
X9057976Y-15252143D01*
X9086548Y-15252143D01*
X9105595Y-15261667D01*
X9115119Y-15271190D01*
X9124643Y-15290238D01*
X9124643Y-15347381D01*
X9115119Y-15366428D01*
X9105595Y-15375952D01*
X9086548Y-15385476D01*
X9057976Y-15385476D01*
X9238929Y-15385476D02*
X9219881Y-15375952D01*
X9210357Y-15356905D01*
X9210357Y-15185476D01*
X9391310Y-15375952D02*
X9372262Y-15385476D01*
X9334167Y-15385476D01*
X9315119Y-15375952D01*
X9305595Y-15356905D01*
X9305595Y-15280714D01*
X9315119Y-15261667D01*
X9334167Y-15252143D01*
X9372262Y-15252143D01*
X9391310Y-15261667D01*
X9400833Y-15280714D01*
X9400833Y-15299762D01*
X9305595Y-15318809D01*
X9477024Y-15375952D02*
X9496071Y-15385476D01*
X9534167Y-15385476D01*
X9553214Y-15375952D01*
X9562738Y-15356905D01*
X9562738Y-15347381D01*
X9553214Y-15328333D01*
X9534167Y-15318809D01*
X9505595Y-15318809D01*
X9486548Y-15309286D01*
X9477024Y-15290238D01*
X9477024Y-15280714D01*
X9486548Y-15261667D01*
X9505595Y-15252143D01*
X9534167Y-15252143D01*
X9553214Y-15261667D01*
X9629405Y-15461667D02*
X9638929Y-15452143D01*
X9657976Y-15423571D01*
X9667500Y-15404524D01*
X9677024Y-15375952D01*
X9686548Y-15328333D01*
X9686548Y-15290238D01*
X9677024Y-15242619D01*
X9667500Y-15214048D01*
X9657976Y-15195000D01*
X9638929Y-15166428D01*
X9629405Y-15156905D01*
X9991310Y-15461667D02*
X9981786Y-15452143D01*
X9962738Y-15423571D01*
X9953214Y-15404524D01*
X9943690Y-15375952D01*
X9934167Y-15328333D01*
X9934167Y-15290238D01*
X9943690Y-15242619D01*
X9953214Y-15214048D01*
X9962738Y-15195000D01*
X9981786Y-15166428D01*
X9991310Y-15156905D01*
X10067500Y-15252143D02*
X10067500Y-15385476D01*
X10067500Y-15271190D02*
X10077024Y-15261667D01*
X10096071Y-15252143D01*
X10124643Y-15252143D01*
X10143690Y-15261667D01*
X10153214Y-15280714D01*
X10153214Y-15385476D01*
X10277024Y-15385476D02*
X10257976Y-15375952D01*
X10248452Y-15366428D01*
X10238929Y-15347381D01*
X10238929Y-15290238D01*
X10248452Y-15271190D01*
X10257976Y-15261667D01*
X10277024Y-15252143D01*
X10305595Y-15252143D01*
X10324643Y-15261667D01*
X10334167Y-15271190D01*
X10343690Y-15290238D01*
X10343690Y-15347381D01*
X10334167Y-15366428D01*
X10324643Y-15375952D01*
X10305595Y-15385476D01*
X10277024Y-15385476D01*
X10400833Y-15252143D02*
X10477024Y-15252143D01*
X10429405Y-15185476D02*
X10429405Y-15356905D01*
X10438929Y-15375952D01*
X10457976Y-15385476D01*
X10477024Y-15385476D01*
X10696071Y-15252143D02*
X10696071Y-15452143D01*
X10696071Y-15261667D02*
X10715119Y-15252143D01*
X10753214Y-15252143D01*
X10772262Y-15261667D01*
X10781786Y-15271190D01*
X10791310Y-15290238D01*
X10791310Y-15347381D01*
X10781786Y-15366428D01*
X10772262Y-15375952D01*
X10753214Y-15385476D01*
X10715119Y-15385476D01*
X10696071Y-15375952D01*
X10905595Y-15385476D02*
X10886548Y-15375952D01*
X10877024Y-15356905D01*
X10877024Y-15185476D01*
X11067500Y-15385476D02*
X11067500Y-15280714D01*
X11057976Y-15261667D01*
X11038929Y-15252143D01*
X11000833Y-15252143D01*
X10981786Y-15261667D01*
X11067500Y-15375952D02*
X11048452Y-15385476D01*
X11000833Y-15385476D01*
X10981786Y-15375952D01*
X10972262Y-15356905D01*
X10972262Y-15337857D01*
X10981786Y-15318809D01*
X11000833Y-15309286D01*
X11048452Y-15309286D01*
X11067500Y-15299762D01*
X11134167Y-15252143D02*
X11210357Y-15252143D01*
X11162738Y-15185476D02*
X11162738Y-15356905D01*
X11172262Y-15375952D01*
X11191309Y-15385476D01*
X11210357Y-15385476D01*
X11353214Y-15375952D02*
X11334167Y-15385476D01*
X11296071Y-15385476D01*
X11277024Y-15375952D01*
X11267500Y-15356905D01*
X11267500Y-15280714D01*
X11277024Y-15261667D01*
X11296071Y-15252143D01*
X11334167Y-15252143D01*
X11353214Y-15261667D01*
X11362738Y-15280714D01*
X11362738Y-15299762D01*
X11267500Y-15318809D01*
X11534167Y-15385476D02*
X11534167Y-15185476D01*
X11534167Y-15375952D02*
X11515119Y-15385476D01*
X11477024Y-15385476D01*
X11457976Y-15375952D01*
X11448452Y-15366428D01*
X11438928Y-15347381D01*
X11438928Y-15290238D01*
X11448452Y-15271190D01*
X11457976Y-15261667D01*
X11477024Y-15252143D01*
X11515119Y-15252143D01*
X11534167Y-15261667D01*
X11610357Y-15461667D02*
X11619881Y-15452143D01*
X11638928Y-15423571D01*
X11648452Y-15404524D01*
X11657976Y-15375952D01*
X11667500Y-15328333D01*
X11667500Y-15290238D01*
X11657976Y-15242619D01*
X11648452Y-15214048D01*
X11638928Y-15195000D01*
X11619881Y-15166428D01*
X11610357Y-15156905D01*
M02*
