M48
; DRILL file {KiCad (6.0.1)} date Mon Sep 12 17:23:37 2022
; FORMAT={-:-/ absolute / metric / decimal}
; #@! TF.CreationDate,2022-09-12T17:23:37+02:00
; #@! TF.GenerationSoftware,Kicad,Pcbnew,(6.0.1)
; #@! TF.FileFunction,Plated,1,2,PTH
FMAT,2
METRIC
; #@! TA.AperFunction,Plated,PTH,ViaDrill
T1C0.400
; #@! TA.AperFunction,Plated,PTH,ComponentDrill
T2C0.750
; #@! TA.AperFunction,Plated,PTH,ComponentDrill
T3C0.800
; #@! TA.AperFunction,Plated,PTH,ComponentDrill
T4C0.900
; #@! TA.AperFunction,Plated,PTH,ComponentDrill
T5C1.000
; #@! TA.AperFunction,Plated,PTH,ComponentDrill
T6C1.220
; #@! TA.AperFunction,Plated,PTH,ComponentDrill
T7C1.300
; #@! TA.AperFunction,Plated,PTH,ComponentDrill
T8C1.420
; #@! TA.AperFunction,Plated,PTH,ComponentDrill
T9C1.430
; #@! TA.AperFunction,Plated,PTH,ComponentDrill
T10C3.202
%
G90
G05
T1
X112.6Y-106.4
X125.0Y-134.0
X125.0Y-135.0
X126.0Y-134.0
X126.0Y-135.0
T2
X109.97Y-93.73
X109.97Y-95.0
X109.97Y-96.27
X110.0Y-38.225
X110.0Y-39.495
X110.0Y-40.765
X110.0Y-56.73
X110.0Y-58.0
X110.0Y-59.27
X110.0Y-75.23
X110.0Y-76.5
X110.0Y-77.77
X110.0Y-112.23
X110.0Y-113.5
X110.0Y-114.77
X110.14Y-130.73
X110.14Y-132.0
X110.14Y-133.27
T3
X75.92Y-97.5
X75.92Y-100.75
X76.01Y-73.0
X76.09Y-76.5
X82.0Y-36.5
X82.0Y-46.66
X82.0Y-54.25
X82.0Y-64.41
X82.0Y-128.92
X82.0Y-139.08
X82.25Y-110.59
X82.25Y-120.75
X85.5Y-36.5
X85.5Y-46.66
X85.5Y-54.25
X85.5Y-64.41
X85.5Y-110.59
X85.5Y-120.75
X85.5Y-128.92
X85.5Y-139.08
X86.08Y-97.5
X86.08Y-100.75
X86.17Y-73.0
X86.25Y-76.5
X89.22Y-87.5
X99.38Y-87.5
X102.75Y-53.5
X102.75Y-90.5
X102.75Y-99.5
X102.75Y-127.5
X102.75Y-136.5
X102.78Y-34.995
X102.78Y-43.995
X102.78Y-62.5
X102.78Y-72.0
X102.78Y-81.0
X102.78Y-109.0
X102.78Y-118.0
X102.81Y-85.25
X112.91Y-53.5
X112.91Y-90.5
X112.91Y-99.5
X112.91Y-127.5
X112.91Y-136.5
X112.94Y-34.995
X112.94Y-43.995
X112.94Y-62.5
X112.94Y-72.0
X112.94Y-81.0
X112.94Y-109.0
X112.94Y-118.0
X112.97Y-85.25
X117.0Y-38.92
X117.0Y-49.08
X117.0Y-51.5
X117.0Y-61.66
X117.5Y-94.5
X117.5Y-104.66
X117.5Y-107.92
X117.5Y-118.08
X117.5Y-125.0
X117.5Y-135.16
X120.25Y-38.92
X120.25Y-49.08
X120.25Y-51.5
X120.25Y-61.66
X120.75Y-94.5
X120.75Y-104.66
X120.75Y-107.92
X120.75Y-118.08
X120.75Y-125.0
X120.75Y-135.16
X125.455Y-94.75
X127.455Y-94.75
X132.955Y-94.75
X134.955Y-94.75
X139.705Y-91.0
X141.705Y-91.0
X146.455Y-91.0
X148.455Y-91.0
T4
X104.97Y-93.725
X104.97Y-96.265
X105.0Y-38.225
X105.0Y-40.765
X105.0Y-56.725
X105.0Y-59.265
X105.0Y-75.225
X105.0Y-77.765
X105.0Y-112.225
X105.0Y-114.765
X105.0Y-130.725
X105.0Y-133.265
T5
X52.75Y-33.05
X52.75Y-35.59
X52.75Y-38.13
X52.75Y-40.67
X52.75Y-43.21
X52.75Y-45.75
X52.75Y-51.55
X52.75Y-54.09
X52.75Y-56.63
X52.75Y-59.17
X52.75Y-61.71
X52.75Y-64.25
X52.75Y-70.05
X52.75Y-72.59
X52.75Y-75.13
X52.75Y-77.67
X52.75Y-80.21
X52.75Y-82.75
X52.75Y-88.55
X52.75Y-91.09
X52.75Y-93.63
X52.75Y-96.17
X52.75Y-98.71
X52.75Y-101.25
X52.75Y-107.05
X52.75Y-109.59
X52.75Y-112.13
X52.75Y-114.67
X52.75Y-117.21
X52.75Y-119.75
X52.75Y-125.55
X52.75Y-128.09
X52.75Y-130.63
X52.75Y-133.17
X52.75Y-135.71
X52.75Y-138.25
X82.25Y-81.75
X82.25Y-84.29
X82.25Y-86.83
X82.25Y-89.37
X92.0Y-47.05
X92.0Y-65.55
X92.0Y-84.05
X92.0Y-102.55
X92.0Y-121.05
X92.0Y-139.55
X94.5Y-47.05
X94.5Y-65.55
X94.5Y-84.05
X94.5Y-102.55
X94.5Y-121.05
X94.5Y-139.55
X97.0Y-47.05
X97.0Y-65.55
X97.0Y-84.05
X97.0Y-102.55
X97.0Y-121.05
X97.0Y-139.55
X120.0Y-90.0
X122.54Y-90.0
X125.08Y-90.0
X127.46Y-106.5
X127.62Y-90.0
X130.0Y-106.5
X149.0Y-52.0
X149.0Y-54.54
X149.0Y-57.08
X149.0Y-59.62
X149.0Y-65.5
X149.0Y-68.04
T6
X22.0Y-33.0
X22.0Y-51.5
X22.0Y-70.0
X22.0Y-88.5
X22.0Y-107.0
X22.0Y-125.5
X32.0Y-33.0
X32.0Y-51.5
X32.0Y-70.0
X32.0Y-88.5
X32.0Y-107.0
X32.0Y-125.5
X130.0Y-32.5
X142.0Y-32.5
T7
X72.775Y-34.5
X72.775Y-36.5
X72.775Y-38.5
X72.775Y-40.5
X72.775Y-42.5
X72.775Y-44.5
X72.775Y-53.0
X72.775Y-55.0
X72.775Y-57.0
X72.775Y-59.0
X72.775Y-61.0
X72.775Y-63.0
X72.775Y-71.5
X72.775Y-73.5
X72.775Y-75.5
X72.775Y-77.5
X72.775Y-79.5
X72.775Y-81.5
X72.775Y-90.0
X72.775Y-92.0
X72.775Y-94.0
X72.775Y-96.0
X72.775Y-98.0
X72.775Y-100.0
X72.775Y-108.5
X72.775Y-110.5
X72.775Y-112.5
X72.775Y-114.5
X72.775Y-116.5
X72.775Y-118.5
X72.775Y-127.0
X72.775Y-129.0
X72.775Y-131.0
X72.775Y-133.0
X72.775Y-135.0
X72.775Y-137.0
X131.0Y-67.275
X133.0Y-67.275
X135.0Y-67.275
X137.0Y-67.275
X138.0Y-122.775
X139.0Y-67.275
X140.0Y-122.775
X141.0Y-67.275
X142.0Y-122.775
X144.0Y-122.775
X146.0Y-122.775
X148.0Y-122.775
T8
X22.0Y-36.1
X22.0Y-54.6
X22.0Y-73.1
X22.0Y-91.6
X22.0Y-110.1
X22.0Y-128.6
X32.0Y-36.1
X32.0Y-54.6
X32.0Y-73.1
X32.0Y-91.6
X32.0Y-110.1
X32.0Y-128.6
X130.0Y-35.6
X142.0Y-35.6
T9
X22.0Y-44.4
X22.0Y-62.9
X22.0Y-81.4
X22.0Y-99.9
X22.0Y-118.4
X22.0Y-136.9
X32.0Y-44.4
X32.0Y-62.9
X32.0Y-81.4
X32.0Y-99.9
X32.0Y-118.4
X32.0Y-136.9
X130.0Y-43.9
X142.0Y-43.9
T10
X61.775Y-33.7
X61.775Y-45.3
X61.775Y-52.2
X61.775Y-63.8
X61.775Y-70.7
X61.775Y-82.3
X61.775Y-89.2
X61.775Y-100.8
X61.775Y-107.7
X61.775Y-119.3
X61.775Y-126.2
X61.775Y-137.8
X130.2Y-56.275
X137.2Y-111.775
X141.8Y-56.275
X148.8Y-111.775
T5
X41.7Y-34.8G85X40.5Y-34.8
G05
X41.7Y-39.5G85X40.5Y-39.5
G05
X41.7Y-44.2G85X40.5Y-44.2
G05
X41.7Y-53.3G85X40.5Y-53.3
G05
X41.7Y-58.0G85X40.5Y-58.0
G05
X41.7Y-62.7G85X40.5Y-62.7
G05
X41.7Y-71.8G85X40.5Y-71.8
G05
X41.7Y-76.5G85X40.5Y-76.5
G05
X41.7Y-81.2G85X40.5Y-81.2
G05
X41.7Y-90.3G85X40.5Y-90.3
G05
X41.7Y-95.0G85X40.5Y-95.0
G05
X41.7Y-99.7G85X40.5Y-99.7
G05
X41.7Y-108.8G85X40.5Y-108.8
G05
X41.7Y-113.5G85X40.5Y-113.5
G05
X41.7Y-118.2G85X40.5Y-118.2
G05
X41.7Y-127.3G85X40.5Y-127.3
G05
X41.7Y-132.0G85X40.5Y-132.0
G05
X41.7Y-136.7G85X40.5Y-136.7
G05
X46.5Y-34.8G85X45.3Y-34.8
G05
X46.5Y-39.5G85X45.3Y-39.5
G05
X46.5Y-44.2G85X45.3Y-44.2
G05
X46.5Y-53.3G85X45.3Y-53.3
G05
X46.5Y-58.0G85X45.3Y-58.0
G05
X46.5Y-62.7G85X45.3Y-62.7
G05
X46.5Y-71.8G85X45.3Y-71.8
G05
X46.5Y-76.5G85X45.3Y-76.5
G05
X46.5Y-81.2G85X45.3Y-81.2
G05
X46.5Y-90.3G85X45.3Y-90.3
G05
X46.5Y-95.0G85X45.3Y-95.0
G05
X46.5Y-99.7G85X45.3Y-99.7
G05
X46.5Y-108.8G85X45.3Y-108.8
G05
X46.5Y-113.5G85X45.3Y-113.5
G05
X46.5Y-118.2G85X45.3Y-118.2
G05
X46.5Y-127.3G85X45.3Y-127.3
G05
X46.5Y-132.0G85X45.3Y-132.0
G05
X46.5Y-136.7G85X45.3Y-136.7
G05
T0
M30
