G04 #@! TF.GenerationSoftware,KiCad,Pcbnew,(6.0.1)*
G04 #@! TF.CreationDate,2022-09-12T17:23:34+02:00*
G04 #@! TF.ProjectId,Output-mixer,4f757470-7574-42d6-9d69-7865722e6b69,rev?*
G04 #@! TF.SameCoordinates,Original*
G04 #@! TF.FileFunction,Soldermask,Bot*
G04 #@! TF.FilePolarity,Negative*
%FSLAX46Y46*%
G04 Gerber Fmt 4.6, Leading zero omitted, Abs format (unit mm)*
G04 Created by KiCad (PCBNEW (6.0.1)) date 2022-09-12 17:23:34*
%MOMM*%
%LPD*%
G01*
G04 APERTURE LIST*
G04 #@! TA.AperFunction,Profile*
%ADD10C,0.050000*%
G04 #@! TD*
G04 #@! TA.AperFunction,Profile*
%ADD11C,0.100000*%
G04 #@! TD*
%ADD12C,1.800000*%
%ADD13C,4.500000*%
%ADD14C,1.600000*%
%ADD15O,1.600000X1.600000*%
%ADD16R,1.930000X1.830000*%
%ADD17C,2.130000*%
%ADD18R,1.600000X1.600000*%
%ADD19O,3.700000X2.400000*%
%ADD20R,1.800000X1.800000*%
%ADD21C,4.000000*%
%ADD22C,3.200000*%
%ADD23R,1.500000X1.050000*%
%ADD24O,1.500000X1.050000*%
%ADD25R,1.700000X1.700000*%
%ADD26O,1.700000X1.700000*%
G04 APERTURE END LIST*
D10*
X152000000Y-31000000D02*
X152000000Y-70500000D01*
X17000000Y-31000000D02*
X17000000Y-141000000D01*
X17000000Y-31000000D02*
X152000000Y-31000000D01*
D11*
X118500000Y-87500000D02*
X118500000Y-70500000D01*
X152000000Y-87500000D02*
X118500000Y-87500000D01*
X152000000Y-87500000D02*
X152000000Y-124500000D01*
X118500000Y-70500000D02*
X152000000Y-70500000D01*
D10*
X17000000Y-141000000D02*
X134500000Y-141000000D01*
D11*
X152000000Y-124500000D02*
X134500000Y-124500000D01*
X134500000Y-124500000D02*
X134500000Y-141000000D01*
D12*
X72775000Y-98000000D03*
X72775000Y-100000000D03*
X72775000Y-90000000D03*
X72775000Y-96000000D03*
X72775000Y-94000000D03*
X72775000Y-92000000D03*
D13*
X61775000Y-100800000D03*
X61775000Y-89200000D03*
D14*
X120250000Y-38920000D03*
D15*
X120250000Y-49080000D03*
D14*
X117000000Y-51500000D03*
D15*
X117000000Y-61660000D03*
D16*
X32000000Y-107000000D03*
D17*
X32000000Y-118400000D03*
X32000000Y-110100000D03*
D18*
X134955113Y-94750000D03*
D14*
X132955113Y-94750000D03*
D19*
X41100000Y-71800000D03*
X41100000Y-76500000D03*
X41100000Y-81200000D03*
X45900000Y-71800000D03*
X45900000Y-76500000D03*
X45900000Y-81200000D03*
D20*
X105000000Y-56725000D03*
D12*
X105000000Y-59265000D03*
D14*
X76010000Y-73000000D03*
D15*
X86170000Y-73000000D03*
D14*
X102750000Y-136500000D03*
D15*
X112910000Y-136500000D03*
D14*
X102780000Y-62500000D03*
D15*
X112940000Y-62500000D03*
D21*
X98900000Y-95550000D03*
X90100000Y-95550000D03*
D12*
X97000000Y-102550000D03*
X94500000Y-102550000D03*
X92000000Y-102550000D03*
X133000000Y-67275000D03*
X131000000Y-67275000D03*
X141000000Y-67275000D03*
X135000000Y-67275000D03*
X137000000Y-67275000D03*
X139000000Y-67275000D03*
D13*
X130200000Y-56275000D03*
X141800000Y-56275000D03*
D18*
X127455112Y-94750000D03*
D14*
X125455112Y-94750000D03*
D21*
X98900000Y-77050000D03*
X90100000Y-77050000D03*
D12*
X97000000Y-84050000D03*
X94500000Y-84050000D03*
X92000000Y-84050000D03*
D14*
X85500000Y-128920000D03*
D15*
X85500000Y-139080000D03*
D22*
X130500000Y-136000000D03*
D14*
X82000000Y-64410000D03*
D15*
X82000000Y-54250000D03*
D16*
X32000000Y-51500000D03*
D17*
X32000000Y-62900000D03*
X32000000Y-54600000D03*
D14*
X102750000Y-127500000D03*
D15*
X112910000Y-127500000D03*
D16*
X22000000Y-107000000D03*
D17*
X22000000Y-118400000D03*
X22000000Y-110100000D03*
D16*
X22000000Y-33000000D03*
D17*
X22000000Y-44400000D03*
X22000000Y-36100000D03*
D19*
X41100000Y-108800000D03*
X41100000Y-113500000D03*
X41100000Y-118200000D03*
X45900000Y-108800000D03*
X45900000Y-113500000D03*
X45900000Y-118200000D03*
D16*
X32000000Y-125500000D03*
D17*
X32000000Y-136900000D03*
X32000000Y-128600000D03*
D14*
X120750000Y-125000000D03*
D15*
X120750000Y-135160000D03*
D23*
X110000000Y-38225000D03*
D24*
X110000000Y-39495000D03*
X110000000Y-40765000D03*
D23*
X109970000Y-93730000D03*
D24*
X109970000Y-95000000D03*
X109970000Y-96270000D03*
D14*
X102780000Y-43995000D03*
D15*
X112940000Y-43995000D03*
D16*
X22000000Y-70000000D03*
D17*
X22000000Y-81400000D03*
X22000000Y-73100000D03*
D14*
X120250000Y-61660000D03*
D15*
X120250000Y-51500000D03*
D20*
X105000000Y-130725000D03*
D12*
X105000000Y-133265000D03*
D14*
X102780000Y-118000000D03*
D15*
X112940000Y-118000000D03*
D19*
X41100000Y-34800000D03*
X41100000Y-39500000D03*
X41100000Y-44200000D03*
X45900000Y-34800000D03*
X45900000Y-39500000D03*
X45900000Y-44200000D03*
D14*
X102780000Y-109000000D03*
D15*
X112940000Y-109000000D03*
D20*
X105000000Y-112225000D03*
D12*
X105000000Y-114765000D03*
D14*
X117000000Y-49080000D03*
D15*
X117000000Y-38920000D03*
D14*
X102780000Y-81000000D03*
D15*
X112940000Y-81000000D03*
D16*
X22000000Y-51500000D03*
D17*
X22000000Y-62900000D03*
X22000000Y-54600000D03*
D18*
X148455113Y-91000000D03*
D14*
X146455113Y-91000000D03*
D16*
X22000000Y-88500000D03*
D17*
X22000000Y-99900000D03*
X22000000Y-91600000D03*
D14*
X102750000Y-53500000D03*
D15*
X112910000Y-53500000D03*
D16*
X142000000Y-32500000D03*
D17*
X142000000Y-43900000D03*
X142000000Y-35600000D03*
D12*
X140000000Y-122775000D03*
X138000000Y-122775000D03*
X148000000Y-122775000D03*
X142000000Y-122775000D03*
X144000000Y-122775000D03*
X146000000Y-122775000D03*
D13*
X137200000Y-111775000D03*
X148800000Y-111775000D03*
D12*
X72775000Y-135000000D03*
X72775000Y-137000000D03*
X72775000Y-127000000D03*
X72775000Y-133000000D03*
X72775000Y-131000000D03*
X72775000Y-129000000D03*
D13*
X61775000Y-137800000D03*
X61775000Y-126200000D03*
D14*
X102780000Y-72000000D03*
D15*
X112940000Y-72000000D03*
D14*
X112970000Y-85250000D03*
D15*
X102810000Y-85250000D03*
D16*
X32000000Y-70000000D03*
D17*
X32000000Y-81400000D03*
X32000000Y-73100000D03*
D14*
X89220000Y-87500000D03*
D15*
X99380000Y-87500000D03*
D12*
X72775000Y-61000000D03*
X72775000Y-63000000D03*
X72775000Y-53000000D03*
X72775000Y-59000000D03*
X72775000Y-57000000D03*
X72775000Y-55000000D03*
D13*
X61775000Y-63800000D03*
X61775000Y-52200000D03*
D16*
X32000000Y-33000000D03*
D17*
X32000000Y-44400000D03*
X32000000Y-36100000D03*
D14*
X120750000Y-94500000D03*
D15*
X120750000Y-104660000D03*
D14*
X85500000Y-110590000D03*
D15*
X85500000Y-120750000D03*
D21*
X98900000Y-114050000D03*
X90100000Y-114050000D03*
D12*
X97000000Y-121050000D03*
X94500000Y-121050000D03*
X92000000Y-121050000D03*
D14*
X120750000Y-107920000D03*
D15*
X120750000Y-118080000D03*
D12*
X72775000Y-42500000D03*
X72775000Y-44500000D03*
X72775000Y-34500000D03*
X72775000Y-40500000D03*
X72775000Y-38500000D03*
X72775000Y-36500000D03*
D13*
X61775000Y-45300000D03*
X61775000Y-33700000D03*
D12*
X72775000Y-79500000D03*
X72775000Y-81500000D03*
X72775000Y-71500000D03*
X72775000Y-77500000D03*
X72775000Y-75500000D03*
X72775000Y-73500000D03*
D13*
X61775000Y-82300000D03*
X61775000Y-70700000D03*
D14*
X82250000Y-120750000D03*
D15*
X82250000Y-110590000D03*
D18*
X141705113Y-91000000D03*
D14*
X139705113Y-91000000D03*
X117500000Y-118080000D03*
D15*
X117500000Y-107920000D03*
D14*
X82000000Y-139080000D03*
D15*
X82000000Y-128920000D03*
D16*
X32000000Y-88500000D03*
D17*
X32000000Y-99900000D03*
X32000000Y-91600000D03*
D21*
X90100000Y-58550000D03*
X98900000Y-58550000D03*
D12*
X97000000Y-65550000D03*
X94500000Y-65550000D03*
X92000000Y-65550000D03*
D14*
X86080000Y-97500000D03*
D15*
X75920000Y-97500000D03*
D14*
X86250000Y-76500000D03*
D15*
X76090000Y-76500000D03*
D22*
X123500000Y-66500000D03*
D23*
X110140000Y-130730000D03*
D24*
X110140000Y-132000000D03*
X110140000Y-133270000D03*
D14*
X82000000Y-46660000D03*
D15*
X82000000Y-36500000D03*
D20*
X105000000Y-75225000D03*
D12*
X105000000Y-77765000D03*
D16*
X22000000Y-125500000D03*
D17*
X22000000Y-136900000D03*
X22000000Y-128600000D03*
D19*
X41100000Y-90300000D03*
X41100000Y-95000000D03*
X41100000Y-99700000D03*
X45900000Y-90300000D03*
X45900000Y-95000000D03*
X45900000Y-99700000D03*
D20*
X105000000Y-38225000D03*
D12*
X105000000Y-40765000D03*
D19*
X41100000Y-53300000D03*
X41100000Y-58000000D03*
X41100000Y-62700000D03*
X45900000Y-53300000D03*
X45900000Y-58000000D03*
X45900000Y-62700000D03*
D14*
X102750000Y-99500000D03*
D15*
X112910000Y-99500000D03*
D19*
X41100000Y-127300000D03*
X41100000Y-132000000D03*
X41100000Y-136700000D03*
X45900000Y-127300000D03*
X45900000Y-132000000D03*
X45900000Y-136700000D03*
D14*
X85500000Y-54250000D03*
D15*
X85500000Y-64410000D03*
D14*
X102780000Y-34995000D03*
D15*
X112940000Y-34995000D03*
D12*
X72775000Y-116500000D03*
X72775000Y-118500000D03*
X72775000Y-108500000D03*
X72775000Y-114500000D03*
X72775000Y-112500000D03*
X72775000Y-110500000D03*
D13*
X61775000Y-119300000D03*
X61775000Y-107700000D03*
D14*
X117500000Y-104660000D03*
D15*
X117500000Y-94500000D03*
D23*
X110000000Y-75230000D03*
D24*
X110000000Y-76500000D03*
X110000000Y-77770000D03*
D21*
X90100000Y-40050000D03*
X98900000Y-40050000D03*
D12*
X97000000Y-47050000D03*
X94500000Y-47050000D03*
X92000000Y-47050000D03*
D14*
X85500000Y-36500000D03*
D15*
X85500000Y-46660000D03*
D16*
X130000000Y-32500000D03*
D17*
X130000000Y-43900000D03*
X130000000Y-35600000D03*
D21*
X90100000Y-132550000D03*
X98900000Y-132550000D03*
D12*
X97000000Y-139550000D03*
X94500000Y-139550000D03*
X92000000Y-139550000D03*
D14*
X75920000Y-100750000D03*
D15*
X86080000Y-100750000D03*
D14*
X117500000Y-135160000D03*
D15*
X117500000Y-125000000D03*
D14*
X102750000Y-90500000D03*
D15*
X112910000Y-90500000D03*
D23*
X110000000Y-56730000D03*
D24*
X110000000Y-58000000D03*
X110000000Y-59270000D03*
D23*
X110000000Y-112230000D03*
D24*
X110000000Y-113500000D03*
X110000000Y-114770000D03*
D20*
X104970000Y-93725000D03*
D12*
X104970000Y-96265000D03*
D25*
X149000000Y-65500000D03*
D26*
X149000000Y-68040000D03*
D25*
X52750000Y-119750000D03*
D26*
X52750000Y-117210000D03*
X52750000Y-114670000D03*
X52750000Y-112130000D03*
X52750000Y-109590000D03*
X52750000Y-107050000D03*
D25*
X52750000Y-138250000D03*
D26*
X52750000Y-135710000D03*
X52750000Y-133170000D03*
X52750000Y-130630000D03*
X52750000Y-128090000D03*
X52750000Y-125550000D03*
D25*
X149000000Y-52000000D03*
D26*
X149000000Y-54540000D03*
X149000000Y-57080000D03*
X149000000Y-59620000D03*
D25*
X120000000Y-90000000D03*
D26*
X122540000Y-90000000D03*
X125080000Y-90000000D03*
X127620000Y-90000000D03*
D25*
X52750000Y-45750000D03*
D26*
X52750000Y-43210000D03*
X52750000Y-40670000D03*
X52750000Y-38130000D03*
X52750000Y-35590000D03*
X52750000Y-33050000D03*
D25*
X52750000Y-64250000D03*
D26*
X52750000Y-61710000D03*
X52750000Y-59170000D03*
X52750000Y-56630000D03*
X52750000Y-54090000D03*
X52750000Y-51550000D03*
D25*
X82250000Y-81750000D03*
D26*
X82250000Y-84290000D03*
X82250000Y-86830000D03*
X82250000Y-89370000D03*
D25*
X52750000Y-101250000D03*
D26*
X52750000Y-98710000D03*
X52750000Y-96170000D03*
X52750000Y-93630000D03*
X52750000Y-91090000D03*
X52750000Y-88550000D03*
D25*
X130000000Y-106500000D03*
D26*
X127460000Y-106500000D03*
D25*
X52750000Y-82750000D03*
D26*
X52750000Y-80210000D03*
X52750000Y-77670000D03*
X52750000Y-75130000D03*
X52750000Y-72590000D03*
X52750000Y-70050000D03*
M02*
