%FSLAX45Y45*%
G04 Gerber Fmt 4.5, Leading zero omitted, Abs format (unit mm)*
G04 Created by KiCad (PCBNEW (5.1.9)-1) date 2021-10-16 13:12:14*
%MOMM*%
%LPD*%
G01*
G04 APERTURE LIST*
%TA.AperFunction,Profile*%
%ADD10C,0.050000*%
%TD*%
%ADD11C,0.200000*%
%ADD12C,0.300000*%
G04 APERTURE END LIST*
D10*
X6000000Y-3100000D02*
X6000000Y-14100000D01*
X3000000Y-14100000D02*
X6000000Y-14100000D01*
X3000000Y-3100000D02*
X6000000Y-3100000D01*
X3000000Y-3100000D02*
X3000000Y-14100000D01*
D11*
X5830000Y-7880000D02*
X5870000Y-7920000D01*
X5870000Y-7880000D02*
X5830000Y-7920000D01*
X3235000Y-8500000D02*
G75*
G03*
X3235000Y-8500000I-35000J0D01*
G01*
X3235000Y-8750000D02*
G75*
G03*
X3235000Y-8750000I-35000J0D01*
G01*
X5335000Y-8350000D02*
G75*
G03*
X5335000Y-8350000I-35000J0D01*
G01*
X5335000Y-8600000D02*
G75*
G03*
X5335000Y-8600000I-35000J0D01*
G01*
X3200000Y-13660000D02*
X3200000Y-13740000D01*
X3160000Y-13700000D02*
X3240000Y-13700000D01*
X3250000Y-12210000D02*
X3250000Y-12290000D01*
X3210000Y-12250000D02*
X3290000Y-12250000D01*
X3250000Y-12972000D02*
X3250000Y-13052000D01*
X3210000Y-13012000D02*
X3290000Y-13012000D01*
X3300000Y-10690000D02*
X3300000Y-10770000D01*
X3260000Y-10730000D02*
X3340000Y-10730000D01*
X3300000Y-11960000D02*
X3300000Y-12040000D01*
X3260000Y-12000000D02*
X3340000Y-12000000D01*
X3400000Y-13660000D02*
X3400000Y-13740000D01*
X3360000Y-13700000D02*
X3440000Y-13700000D01*
X3500000Y-8660000D02*
X3500000Y-8740000D01*
X3460000Y-8700000D02*
X3540000Y-8700000D01*
X3600000Y-6560000D02*
X3600000Y-6640000D01*
X3560000Y-6600000D02*
X3640000Y-6600000D01*
X3600000Y-6960000D02*
X3600000Y-7040000D01*
X3560000Y-7000000D02*
X3640000Y-7000000D01*
X3600000Y-8230000D02*
X3600000Y-8310000D01*
X3560000Y-8270000D02*
X3640000Y-8270000D01*
X3650000Y-12260000D02*
X3650000Y-12340000D01*
X3610000Y-12300000D02*
X3690000Y-12300000D01*
X3650000Y-12760000D02*
X3650000Y-12840000D01*
X3610000Y-12800000D02*
X3690000Y-12800000D01*
X3700000Y-3290000D02*
X3700000Y-3370000D01*
X3660000Y-3330000D02*
X3740000Y-3330000D01*
X3700000Y-4560000D02*
X3700000Y-4640000D01*
X3660000Y-4600000D02*
X3740000Y-4600000D01*
X3700000Y-10690000D02*
X3700000Y-10770000D01*
X3660000Y-10730000D02*
X3740000Y-10730000D01*
X3700000Y-11960000D02*
X3700000Y-12040000D01*
X3660000Y-12000000D02*
X3740000Y-12000000D01*
X3700000Y-13110000D02*
X3700000Y-13190000D01*
X3660000Y-13150000D02*
X3740000Y-13150000D01*
X3700000Y-13310000D02*
X3700000Y-13390000D01*
X3660000Y-13350000D02*
X3740000Y-13350000D01*
X4000000Y-6960000D02*
X4000000Y-7040000D01*
X3960000Y-7000000D02*
X4040000Y-7000000D01*
X4000000Y-8230000D02*
X4000000Y-8310000D01*
X3960000Y-8270000D02*
X4040000Y-8270000D01*
X4100000Y-3290000D02*
X4100000Y-3370000D01*
X4060000Y-3330000D02*
X4140000Y-3330000D01*
X4100000Y-4560000D02*
X4100000Y-4640000D01*
X4060000Y-4600000D02*
X4140000Y-4600000D01*
X4150000Y-12710000D02*
X4150000Y-12790000D01*
X4110000Y-12750000D02*
X4190000Y-12750000D01*
X4150000Y-12964000D02*
X4150000Y-13044000D01*
X4110000Y-13004000D02*
X4190000Y-13004000D01*
X4150000Y-13218000D02*
X4150000Y-13298000D01*
X4110000Y-13258000D02*
X4190000Y-13258000D01*
X4150000Y-13472000D02*
X4150000Y-13552000D01*
X4110000Y-13512000D02*
X4190000Y-13512000D01*
X4230000Y-12260000D02*
X4230000Y-12340000D01*
X4190000Y-12300000D02*
X4270000Y-12300000D01*
X4362000Y-6560000D02*
X4362000Y-6640000D01*
X4322000Y-6600000D02*
X4402000Y-6600000D01*
X4400000Y-8260000D02*
X4400000Y-8340000D01*
X4360000Y-8300000D02*
X4440000Y-8300000D01*
X4770000Y-8660000D02*
X4770000Y-8740000D01*
X4730000Y-8700000D02*
X4810000Y-8700000D01*
X4900000Y-6260000D02*
X4900000Y-6340000D01*
X4860000Y-6300000D02*
X4940000Y-6300000D01*
X4900000Y-8260000D02*
X4900000Y-8340000D01*
X4860000Y-8300000D02*
X4940000Y-8300000D01*
X4912000Y-12710000D02*
X4912000Y-12790000D01*
X4872000Y-12750000D02*
X4952000Y-12750000D01*
X4912000Y-12964000D02*
X4912000Y-13044000D01*
X4872000Y-13004000D02*
X4952000Y-13004000D01*
X4912000Y-13218000D02*
X4912000Y-13298000D01*
X4872000Y-13258000D02*
X4952000Y-13258000D01*
X4912000Y-13472000D02*
X4912000Y-13552000D01*
X4872000Y-13512000D02*
X4952000Y-13512000D01*
X5100000Y-6260000D02*
X5100000Y-6340000D01*
X5060000Y-6300000D02*
X5140000Y-6300000D01*
X5202500Y-10960000D02*
X5202500Y-11040000D01*
X5162500Y-11000000D02*
X5242500Y-11000000D01*
X5500000Y-12260000D02*
X5500000Y-12340000D01*
X5460000Y-12300000D02*
X5540000Y-12300000D01*
X5542500Y-10960000D02*
X5542500Y-11040000D01*
X5502500Y-11000000D02*
X5582500Y-11000000D01*
X5600000Y-5090000D02*
X5600000Y-5170000D01*
X5560000Y-5130000D02*
X5640000Y-5130000D01*
X5600000Y-6360000D02*
X5600000Y-6440000D01*
X5560000Y-6400000D02*
X5640000Y-6400000D01*
X5277820Y-11731820D02*
X5277820Y-11668180D01*
X5214180Y-11668180D01*
X5214180Y-11731820D01*
X5277820Y-11731820D01*
X5531820Y-11731820D02*
X5531820Y-11668180D01*
X5468180Y-11668180D01*
X5468180Y-11731820D01*
X5531820Y-11731820D01*
X3700000Y-6350000D02*
X3750000Y-6300000D01*
X3700000Y-6250000D01*
X3650000Y-6300000D01*
X3700000Y-6350000D01*
X3950000Y-6350000D02*
X4000000Y-6300000D01*
X3950000Y-6250000D01*
X3900000Y-6300000D01*
X3950000Y-6350000D01*
X4200000Y-6350000D02*
X4250000Y-6300000D01*
X4200000Y-6250000D01*
X4150000Y-6300000D01*
X4200000Y-6350000D01*
X4800000Y-4650000D02*
X4850000Y-4600000D01*
X4800000Y-4550000D01*
X4750000Y-4600000D01*
X4800000Y-4650000D01*
X4800000Y-8050000D02*
X4850000Y-8000000D01*
X4800000Y-7950000D01*
X4750000Y-8000000D01*
X4800000Y-8050000D01*
X5050000Y-4650000D02*
X5100000Y-4600000D01*
X5050000Y-4550000D01*
X5000000Y-4600000D01*
X5050000Y-4650000D01*
X5050000Y-8050000D02*
X5100000Y-8000000D01*
X5050000Y-7950000D01*
X5000000Y-8000000D01*
X5050000Y-8050000D01*
X5300000Y-4650000D02*
X5350000Y-4600000D01*
X5300000Y-4550000D01*
X5250000Y-4600000D01*
X5300000Y-4650000D01*
X5300000Y-8050000D02*
X5350000Y-8000000D01*
X5300000Y-7950000D01*
X5250000Y-8000000D01*
X5300000Y-8050000D01*
X5400000Y-12834000D02*
X5450000Y-12784000D01*
X5400000Y-12734000D01*
X5350000Y-12784000D01*
X5400000Y-12834000D01*
X5400000Y-13088000D02*
X5450000Y-13038000D01*
X5400000Y-12988000D01*
X5350000Y-13038000D01*
X5400000Y-13088000D01*
X5400000Y-13342000D02*
X5450000Y-13292000D01*
X5400000Y-13242000D01*
X5350000Y-13292000D01*
X5400000Y-13342000D01*
X5400000Y-13596000D02*
X5450000Y-13546000D01*
X5400000Y-13496000D01*
X5350000Y-13546000D01*
X5400000Y-13596000D01*
X5400000Y-13850000D02*
X5450000Y-13800000D01*
X5400000Y-13750000D01*
X5350000Y-13800000D01*
X5400000Y-13850000D01*
X5654000Y-12834000D02*
X5704000Y-12784000D01*
X5654000Y-12734000D01*
X5604000Y-12784000D01*
X5654000Y-12834000D01*
X5654000Y-13088000D02*
X5704000Y-13038000D01*
X5654000Y-12988000D01*
X5604000Y-13038000D01*
X5654000Y-13088000D01*
X5654000Y-13342000D02*
X5704000Y-13292000D01*
X5654000Y-13242000D01*
X5604000Y-13292000D01*
X5654000Y-13342000D01*
X5654000Y-13596000D02*
X5704000Y-13546000D01*
X5654000Y-13496000D01*
X5604000Y-13546000D01*
X5654000Y-13596000D01*
X5654000Y-13850000D02*
X5704000Y-13800000D01*
X5654000Y-13750000D01*
X5604000Y-13800000D01*
X5654000Y-13850000D01*
X3789000Y-9039000D02*
X3911000Y-9161000D01*
X3911000Y-9039000D02*
X3789000Y-9161000D01*
X3911000Y-9100000D02*
G75*
G03*
X3911000Y-9100000I-61000J0D01*
G01*
X4439000Y-10739000D02*
X4561000Y-10861000D01*
X4561000Y-10739000D02*
X4439000Y-10861000D01*
X4561000Y-10800000D02*
G75*
G03*
X4561000Y-10800000I-61000J0D01*
G01*
X5089000Y-9039000D02*
X5211000Y-9161000D01*
X5211000Y-9039000D02*
X5089000Y-9161000D01*
X5211000Y-9100000D02*
G75*
G03*
X5211000Y-9100000I-61000J0D01*
G01*
X3779000Y-9339000D02*
X3921000Y-9481000D01*
X3921000Y-9339000D02*
X3779000Y-9481000D01*
X3850000Y-9339000D02*
X3850000Y-9481000D01*
X3779000Y-9410000D02*
X3921000Y-9410000D01*
X4429000Y-11039000D02*
X4571000Y-11181000D01*
X4571000Y-11039000D02*
X4429000Y-11181000D01*
X4500000Y-11039000D02*
X4500000Y-11181000D01*
X4429000Y-11110000D02*
X4571000Y-11110000D01*
X5079000Y-9339000D02*
X5221000Y-9481000D01*
X5221000Y-9339000D02*
X5079000Y-9481000D01*
X5150000Y-9339000D02*
X5150000Y-9481000D01*
X5079000Y-9410000D02*
X5221000Y-9410000D01*
X3778500Y-10168500D02*
X3921500Y-10311500D01*
X3921500Y-10168500D02*
X3778500Y-10311500D01*
X3900559Y-10290559D02*
X3900559Y-10189441D01*
X3799441Y-10189441D01*
X3799441Y-10290559D01*
X3900559Y-10290559D01*
X4428500Y-11868500D02*
X4571500Y-12011500D01*
X4571500Y-11868500D02*
X4428500Y-12011500D01*
X4550559Y-11990559D02*
X4550559Y-11889441D01*
X4449441Y-11889441D01*
X4449441Y-11990559D01*
X4550559Y-11990559D01*
X5078500Y-10168500D02*
X5221500Y-10311500D01*
X5221500Y-10168500D02*
X5078500Y-10311500D01*
X5200559Y-10290559D02*
X5200559Y-10189441D01*
X5099441Y-10189441D01*
X5099441Y-10290559D01*
X5200559Y-10290559D01*
D12*
X3283928Y-14568214D02*
X3283928Y-14268214D01*
X3355357Y-14268214D01*
X3398214Y-14282500D01*
X3426786Y-14311071D01*
X3441071Y-14339643D01*
X3455357Y-14396786D01*
X3455357Y-14439643D01*
X3441071Y-14496786D01*
X3426786Y-14525357D01*
X3398214Y-14553929D01*
X3355357Y-14568214D01*
X3283928Y-14568214D01*
X3583928Y-14568214D02*
X3583928Y-14368214D01*
X3583928Y-14425357D02*
X3598214Y-14396786D01*
X3612500Y-14382500D01*
X3641071Y-14368214D01*
X3669643Y-14368214D01*
X3769643Y-14568214D02*
X3769643Y-14368214D01*
X3769643Y-14268214D02*
X3755357Y-14282500D01*
X3769643Y-14296786D01*
X3783928Y-14282500D01*
X3769643Y-14268214D01*
X3769643Y-14296786D01*
X3955357Y-14568214D02*
X3926786Y-14553929D01*
X3912500Y-14525357D01*
X3912500Y-14268214D01*
X4112500Y-14568214D02*
X4083928Y-14553929D01*
X4069643Y-14525357D01*
X4069643Y-14268214D01*
X4455357Y-14568214D02*
X4455357Y-14268214D01*
X4555357Y-14482500D01*
X4655357Y-14268214D01*
X4655357Y-14568214D01*
X4926786Y-14568214D02*
X4926786Y-14411071D01*
X4912500Y-14382500D01*
X4883928Y-14368214D01*
X4826786Y-14368214D01*
X4798214Y-14382500D01*
X4926786Y-14553929D02*
X4898214Y-14568214D01*
X4826786Y-14568214D01*
X4798214Y-14553929D01*
X4783928Y-14525357D01*
X4783928Y-14496786D01*
X4798214Y-14468214D01*
X4826786Y-14453929D01*
X4898214Y-14453929D01*
X4926786Y-14439643D01*
X5069643Y-14368214D02*
X5069643Y-14668214D01*
X5069643Y-14382500D02*
X5098214Y-14368214D01*
X5155357Y-14368214D01*
X5183928Y-14382500D01*
X5198214Y-14396786D01*
X5212500Y-14425357D01*
X5212500Y-14511071D01*
X5198214Y-14539643D01*
X5183928Y-14553929D01*
X5155357Y-14568214D01*
X5098214Y-14568214D01*
X5069643Y-14553929D01*
X5341071Y-14539643D02*
X5355357Y-14553929D01*
X5341071Y-14568214D01*
X5326786Y-14553929D01*
X5341071Y-14539643D01*
X5341071Y-14568214D01*
X5341071Y-14382500D02*
X5355357Y-14396786D01*
X5341071Y-14411071D01*
X5326786Y-14396786D01*
X5341071Y-14382500D01*
X5341071Y-14411071D01*
X2957500Y-15042500D02*
X2997500Y-15082500D01*
X2997500Y-15042500D02*
X2957500Y-15082500D01*
X3341071Y-14898214D02*
X3369643Y-14898214D01*
X3398214Y-14912500D01*
X3412500Y-14926786D01*
X3426786Y-14955357D01*
X3441071Y-15012500D01*
X3441071Y-15083929D01*
X3426786Y-15141071D01*
X3412500Y-15169643D01*
X3398214Y-15183929D01*
X3369643Y-15198214D01*
X3341071Y-15198214D01*
X3312500Y-15183929D01*
X3298214Y-15169643D01*
X3283928Y-15141071D01*
X3269643Y-15083929D01*
X3269643Y-15012500D01*
X3283928Y-14955357D01*
X3298214Y-14926786D01*
X3312500Y-14912500D01*
X3341071Y-14898214D01*
X3569643Y-15169643D02*
X3583928Y-15183929D01*
X3569643Y-15198214D01*
X3555357Y-15183929D01*
X3569643Y-15169643D01*
X3569643Y-15198214D01*
X3841071Y-14998214D02*
X3841071Y-15198214D01*
X3769643Y-14883929D02*
X3698214Y-15098214D01*
X3883928Y-15098214D01*
X4055357Y-14898214D02*
X4083928Y-14898214D01*
X4112500Y-14912500D01*
X4126786Y-14926786D01*
X4141071Y-14955357D01*
X4155357Y-15012500D01*
X4155357Y-15083929D01*
X4141071Y-15141071D01*
X4126786Y-15169643D01*
X4112500Y-15183929D01*
X4083928Y-15198214D01*
X4055357Y-15198214D01*
X4026786Y-15183929D01*
X4012500Y-15169643D01*
X3998214Y-15141071D01*
X3983928Y-15083929D01*
X3983928Y-15012500D01*
X3998214Y-14955357D01*
X4012500Y-14926786D01*
X4026786Y-14912500D01*
X4055357Y-14898214D01*
X4283928Y-15198214D02*
X4283928Y-14998214D01*
X4283928Y-15026786D02*
X4298214Y-15012500D01*
X4326786Y-14998214D01*
X4369643Y-14998214D01*
X4398214Y-15012500D01*
X4412500Y-15041071D01*
X4412500Y-15198214D01*
X4412500Y-15041071D02*
X4426786Y-15012500D01*
X4455357Y-14998214D01*
X4498214Y-14998214D01*
X4526786Y-15012500D01*
X4541071Y-15041071D01*
X4541071Y-15198214D01*
X4683928Y-15198214D02*
X4683928Y-14998214D01*
X4683928Y-15026786D02*
X4698214Y-15012500D01*
X4726786Y-14998214D01*
X4769643Y-14998214D01*
X4798214Y-15012500D01*
X4812500Y-15041071D01*
X4812500Y-15198214D01*
X4812500Y-15041071D02*
X4826786Y-15012500D01*
X4855357Y-14998214D01*
X4898214Y-14998214D01*
X4926786Y-15012500D01*
X4941071Y-15041071D01*
X4941071Y-15198214D01*
X5526786Y-14883929D02*
X5269643Y-15269643D01*
X5912500Y-14898214D02*
X5941071Y-14898214D01*
X5969643Y-14912500D01*
X5983928Y-14926786D01*
X5998214Y-14955357D01*
X6012500Y-15012500D01*
X6012500Y-15083929D01*
X5998214Y-15141071D01*
X5983928Y-15169643D01*
X5969643Y-15183929D01*
X5941071Y-15198214D01*
X5912500Y-15198214D01*
X5883928Y-15183929D01*
X5869643Y-15169643D01*
X5855357Y-15141071D01*
X5841071Y-15083929D01*
X5841071Y-15012500D01*
X5855357Y-14955357D01*
X5869643Y-14926786D01*
X5883928Y-14912500D01*
X5912500Y-14898214D01*
X6141071Y-15169643D02*
X6155357Y-15183929D01*
X6141071Y-15198214D01*
X6126786Y-15183929D01*
X6141071Y-15169643D01*
X6141071Y-15198214D01*
X6341071Y-14898214D02*
X6369643Y-14898214D01*
X6398214Y-14912500D01*
X6412500Y-14926786D01*
X6426786Y-14955357D01*
X6441071Y-15012500D01*
X6441071Y-15083929D01*
X6426786Y-15141071D01*
X6412500Y-15169643D01*
X6398214Y-15183929D01*
X6369643Y-15198214D01*
X6341071Y-15198214D01*
X6312500Y-15183929D01*
X6298214Y-15169643D01*
X6283928Y-15141071D01*
X6269643Y-15083929D01*
X6269643Y-15012500D01*
X6283928Y-14955357D01*
X6298214Y-14926786D01*
X6312500Y-14912500D01*
X6341071Y-14898214D01*
X6726786Y-15198214D02*
X6555357Y-15198214D01*
X6641071Y-15198214D02*
X6641071Y-14898214D01*
X6612500Y-14941071D01*
X6583928Y-14969643D01*
X6555357Y-14983929D01*
X6983928Y-14898214D02*
X6926786Y-14898214D01*
X6898214Y-14912500D01*
X6883928Y-14926786D01*
X6855357Y-14969643D01*
X6841071Y-15026786D01*
X6841071Y-15141071D01*
X6855357Y-15169643D01*
X6869643Y-15183929D01*
X6898214Y-15198214D01*
X6955357Y-15198214D01*
X6983928Y-15183929D01*
X6998214Y-15169643D01*
X7012500Y-15141071D01*
X7012500Y-15069643D01*
X6998214Y-15041071D01*
X6983928Y-15026786D01*
X6955357Y-15012500D01*
X6898214Y-15012500D01*
X6869643Y-15026786D01*
X6855357Y-15041071D01*
X6841071Y-15069643D01*
X7126786Y-14898214D02*
X7126786Y-14955357D01*
X7241071Y-14898214D02*
X7241071Y-14955357D01*
X7683928Y-15312500D02*
X7669643Y-15298214D01*
X7641071Y-15255357D01*
X7626786Y-15226786D01*
X7612500Y-15183929D01*
X7598214Y-15112500D01*
X7598214Y-15055357D01*
X7612500Y-14983929D01*
X7626786Y-14941071D01*
X7641071Y-14912500D01*
X7669643Y-14869643D01*
X7683928Y-14855357D01*
X7955357Y-15198214D02*
X7783928Y-15198214D01*
X7869643Y-15198214D02*
X7869643Y-14898214D01*
X7841071Y-14941071D01*
X7812500Y-14969643D01*
X7783928Y-14983929D01*
X8312500Y-15198214D02*
X8312500Y-14898214D01*
X8441071Y-15198214D02*
X8441071Y-15041071D01*
X8426786Y-15012500D01*
X8398214Y-14998214D01*
X8355357Y-14998214D01*
X8326786Y-15012500D01*
X8312500Y-15026786D01*
X8626786Y-15198214D02*
X8598214Y-15183929D01*
X8583928Y-15169643D01*
X8569643Y-15141071D01*
X8569643Y-15055357D01*
X8583928Y-15026786D01*
X8598214Y-15012500D01*
X8626786Y-14998214D01*
X8669643Y-14998214D01*
X8698214Y-15012500D01*
X8712500Y-15026786D01*
X8726786Y-15055357D01*
X8726786Y-15141071D01*
X8712500Y-15169643D01*
X8698214Y-15183929D01*
X8669643Y-15198214D01*
X8626786Y-15198214D01*
X8898214Y-15198214D02*
X8869643Y-15183929D01*
X8855357Y-15155357D01*
X8855357Y-14898214D01*
X9126786Y-15183929D02*
X9098214Y-15198214D01*
X9041071Y-15198214D01*
X9012500Y-15183929D01*
X8998214Y-15155357D01*
X8998214Y-15041071D01*
X9012500Y-15012500D01*
X9041071Y-14998214D01*
X9098214Y-14998214D01*
X9126786Y-15012500D01*
X9141071Y-15041071D01*
X9141071Y-15069643D01*
X8998214Y-15098214D01*
X9241071Y-15312500D02*
X9255357Y-15298214D01*
X9283928Y-15255357D01*
X9298214Y-15226786D01*
X9312500Y-15183929D01*
X9326786Y-15112500D01*
X9326786Y-15055357D01*
X9312500Y-14983929D01*
X9298214Y-14941071D01*
X9283928Y-14912500D01*
X9255357Y-14869643D01*
X9241071Y-14855357D01*
X2997500Y-15458500D02*
G75*
G03*
X2997500Y-15458500I-35000J0D01*
G01*
X3341071Y-15294214D02*
X3369643Y-15294214D01*
X3398214Y-15308500D01*
X3412500Y-15322786D01*
X3426786Y-15351357D01*
X3441071Y-15408500D01*
X3441071Y-15479929D01*
X3426786Y-15537071D01*
X3412500Y-15565643D01*
X3398214Y-15579929D01*
X3369643Y-15594214D01*
X3341071Y-15594214D01*
X3312500Y-15579929D01*
X3298214Y-15565643D01*
X3283928Y-15537071D01*
X3269643Y-15479929D01*
X3269643Y-15408500D01*
X3283928Y-15351357D01*
X3298214Y-15322786D01*
X3312500Y-15308500D01*
X3341071Y-15294214D01*
X3569643Y-15565643D02*
X3583928Y-15579929D01*
X3569643Y-15594214D01*
X3555357Y-15579929D01*
X3569643Y-15565643D01*
X3569643Y-15594214D01*
X3683928Y-15294214D02*
X3883928Y-15294214D01*
X3755357Y-15594214D01*
X4055357Y-15294214D02*
X4083928Y-15294214D01*
X4112500Y-15308500D01*
X4126786Y-15322786D01*
X4141071Y-15351357D01*
X4155357Y-15408500D01*
X4155357Y-15479929D01*
X4141071Y-15537071D01*
X4126786Y-15565643D01*
X4112500Y-15579929D01*
X4083928Y-15594214D01*
X4055357Y-15594214D01*
X4026786Y-15579929D01*
X4012500Y-15565643D01*
X3998214Y-15537071D01*
X3983928Y-15479929D01*
X3983928Y-15408500D01*
X3998214Y-15351357D01*
X4012500Y-15322786D01*
X4026786Y-15308500D01*
X4055357Y-15294214D01*
X4283928Y-15594214D02*
X4283928Y-15394214D01*
X4283928Y-15422786D02*
X4298214Y-15408500D01*
X4326786Y-15394214D01*
X4369643Y-15394214D01*
X4398214Y-15408500D01*
X4412500Y-15437071D01*
X4412500Y-15594214D01*
X4412500Y-15437071D02*
X4426786Y-15408500D01*
X4455357Y-15394214D01*
X4498214Y-15394214D01*
X4526786Y-15408500D01*
X4541071Y-15437071D01*
X4541071Y-15594214D01*
X4683928Y-15594214D02*
X4683928Y-15394214D01*
X4683928Y-15422786D02*
X4698214Y-15408500D01*
X4726786Y-15394214D01*
X4769643Y-15394214D01*
X4798214Y-15408500D01*
X4812500Y-15437071D01*
X4812500Y-15594214D01*
X4812500Y-15437071D02*
X4826786Y-15408500D01*
X4855357Y-15394214D01*
X4898214Y-15394214D01*
X4926786Y-15408500D01*
X4941071Y-15437071D01*
X4941071Y-15594214D01*
X5526786Y-15279929D02*
X5269643Y-15665643D01*
X5912500Y-15294214D02*
X5941071Y-15294214D01*
X5969643Y-15308500D01*
X5983928Y-15322786D01*
X5998214Y-15351357D01*
X6012500Y-15408500D01*
X6012500Y-15479929D01*
X5998214Y-15537071D01*
X5983928Y-15565643D01*
X5969643Y-15579929D01*
X5941071Y-15594214D01*
X5912500Y-15594214D01*
X5883928Y-15579929D01*
X5869643Y-15565643D01*
X5855357Y-15537071D01*
X5841071Y-15479929D01*
X5841071Y-15408500D01*
X5855357Y-15351357D01*
X5869643Y-15322786D01*
X5883928Y-15308500D01*
X5912500Y-15294214D01*
X6141071Y-15565643D02*
X6155357Y-15579929D01*
X6141071Y-15594214D01*
X6126786Y-15579929D01*
X6141071Y-15565643D01*
X6141071Y-15594214D01*
X6341071Y-15294214D02*
X6369643Y-15294214D01*
X6398214Y-15308500D01*
X6412500Y-15322786D01*
X6426786Y-15351357D01*
X6441071Y-15408500D01*
X6441071Y-15479929D01*
X6426786Y-15537071D01*
X6412500Y-15565643D01*
X6398214Y-15579929D01*
X6369643Y-15594214D01*
X6341071Y-15594214D01*
X6312500Y-15579929D01*
X6298214Y-15565643D01*
X6283928Y-15537071D01*
X6269643Y-15479929D01*
X6269643Y-15408500D01*
X6283928Y-15351357D01*
X6298214Y-15322786D01*
X6312500Y-15308500D01*
X6341071Y-15294214D01*
X6555357Y-15322786D02*
X6569643Y-15308500D01*
X6598214Y-15294214D01*
X6669643Y-15294214D01*
X6698214Y-15308500D01*
X6712500Y-15322786D01*
X6726786Y-15351357D01*
X6726786Y-15379929D01*
X6712500Y-15422786D01*
X6541071Y-15594214D01*
X6726786Y-15594214D01*
X6898214Y-15422786D02*
X6869643Y-15408500D01*
X6855357Y-15394214D01*
X6841071Y-15365643D01*
X6841071Y-15351357D01*
X6855357Y-15322786D01*
X6869643Y-15308500D01*
X6898214Y-15294214D01*
X6955357Y-15294214D01*
X6983928Y-15308500D01*
X6998214Y-15322786D01*
X7012500Y-15351357D01*
X7012500Y-15365643D01*
X6998214Y-15394214D01*
X6983928Y-15408500D01*
X6955357Y-15422786D01*
X6898214Y-15422786D01*
X6869643Y-15437071D01*
X6855357Y-15451357D01*
X6841071Y-15479929D01*
X6841071Y-15537071D01*
X6855357Y-15565643D01*
X6869643Y-15579929D01*
X6898214Y-15594214D01*
X6955357Y-15594214D01*
X6983928Y-15579929D01*
X6998214Y-15565643D01*
X7012500Y-15537071D01*
X7012500Y-15479929D01*
X6998214Y-15451357D01*
X6983928Y-15437071D01*
X6955357Y-15422786D01*
X7126786Y-15294214D02*
X7126786Y-15351357D01*
X7241071Y-15294214D02*
X7241071Y-15351357D01*
X7683928Y-15708500D02*
X7669643Y-15694214D01*
X7641071Y-15651357D01*
X7626786Y-15622786D01*
X7612500Y-15579929D01*
X7598214Y-15508500D01*
X7598214Y-15451357D01*
X7612500Y-15379929D01*
X7626786Y-15337071D01*
X7641071Y-15308500D01*
X7669643Y-15265643D01*
X7683928Y-15251357D01*
X7926786Y-15394214D02*
X7926786Y-15594214D01*
X7855357Y-15279929D02*
X7783928Y-15494214D01*
X7969643Y-15494214D01*
X8312500Y-15594214D02*
X8312500Y-15294214D01*
X8441071Y-15594214D02*
X8441071Y-15437071D01*
X8426786Y-15408500D01*
X8398214Y-15394214D01*
X8355357Y-15394214D01*
X8326786Y-15408500D01*
X8312500Y-15422786D01*
X8626786Y-15594214D02*
X8598214Y-15579929D01*
X8583928Y-15565643D01*
X8569643Y-15537071D01*
X8569643Y-15451357D01*
X8583928Y-15422786D01*
X8598214Y-15408500D01*
X8626786Y-15394214D01*
X8669643Y-15394214D01*
X8698214Y-15408500D01*
X8712500Y-15422786D01*
X8726786Y-15451357D01*
X8726786Y-15537071D01*
X8712500Y-15565643D01*
X8698214Y-15579929D01*
X8669643Y-15594214D01*
X8626786Y-15594214D01*
X8898214Y-15594214D02*
X8869643Y-15579929D01*
X8855357Y-15551357D01*
X8855357Y-15294214D01*
X9126786Y-15579929D02*
X9098214Y-15594214D01*
X9041071Y-15594214D01*
X9012500Y-15579929D01*
X8998214Y-15551357D01*
X8998214Y-15437071D01*
X9012500Y-15408500D01*
X9041071Y-15394214D01*
X9098214Y-15394214D01*
X9126786Y-15408500D01*
X9141071Y-15437071D01*
X9141071Y-15465643D01*
X8998214Y-15494214D01*
X9255357Y-15579929D02*
X9283928Y-15594214D01*
X9341071Y-15594214D01*
X9369643Y-15579929D01*
X9383928Y-15551357D01*
X9383928Y-15537071D01*
X9369643Y-15508500D01*
X9341071Y-15494214D01*
X9298214Y-15494214D01*
X9269643Y-15479929D01*
X9255357Y-15451357D01*
X9255357Y-15437071D01*
X9269643Y-15408500D01*
X9298214Y-15394214D01*
X9341071Y-15394214D01*
X9369643Y-15408500D01*
X9483928Y-15708500D02*
X9498214Y-15694214D01*
X9526786Y-15651357D01*
X9541071Y-15622786D01*
X9555357Y-15579929D01*
X9569643Y-15508500D01*
X9569643Y-15451357D01*
X9555357Y-15379929D01*
X9541071Y-15337071D01*
X9526786Y-15308500D01*
X9498214Y-15265643D01*
X9483928Y-15251357D01*
X2957500Y-15814500D02*
X2957500Y-15894500D01*
X2917500Y-15854500D02*
X2997500Y-15854500D01*
X3341071Y-15690214D02*
X3369643Y-15690214D01*
X3398214Y-15704500D01*
X3412500Y-15718786D01*
X3426786Y-15747357D01*
X3441071Y-15804500D01*
X3441071Y-15875929D01*
X3426786Y-15933071D01*
X3412500Y-15961643D01*
X3398214Y-15975929D01*
X3369643Y-15990214D01*
X3341071Y-15990214D01*
X3312500Y-15975929D01*
X3298214Y-15961643D01*
X3283928Y-15933071D01*
X3269643Y-15875929D01*
X3269643Y-15804500D01*
X3283928Y-15747357D01*
X3298214Y-15718786D01*
X3312500Y-15704500D01*
X3341071Y-15690214D01*
X3569643Y-15961643D02*
X3583928Y-15975929D01*
X3569643Y-15990214D01*
X3555357Y-15975929D01*
X3569643Y-15961643D01*
X3569643Y-15990214D01*
X3755357Y-15818786D02*
X3726786Y-15804500D01*
X3712500Y-15790214D01*
X3698214Y-15761643D01*
X3698214Y-15747357D01*
X3712500Y-15718786D01*
X3726786Y-15704500D01*
X3755357Y-15690214D01*
X3812500Y-15690214D01*
X3841071Y-15704500D01*
X3855357Y-15718786D01*
X3869643Y-15747357D01*
X3869643Y-15761643D01*
X3855357Y-15790214D01*
X3841071Y-15804500D01*
X3812500Y-15818786D01*
X3755357Y-15818786D01*
X3726786Y-15833071D01*
X3712500Y-15847357D01*
X3698214Y-15875929D01*
X3698214Y-15933071D01*
X3712500Y-15961643D01*
X3726786Y-15975929D01*
X3755357Y-15990214D01*
X3812500Y-15990214D01*
X3841071Y-15975929D01*
X3855357Y-15961643D01*
X3869643Y-15933071D01*
X3869643Y-15875929D01*
X3855357Y-15847357D01*
X3841071Y-15833071D01*
X3812500Y-15818786D01*
X4055357Y-15690214D02*
X4083928Y-15690214D01*
X4112500Y-15704500D01*
X4126786Y-15718786D01*
X4141071Y-15747357D01*
X4155357Y-15804500D01*
X4155357Y-15875929D01*
X4141071Y-15933071D01*
X4126786Y-15961643D01*
X4112500Y-15975929D01*
X4083928Y-15990214D01*
X4055357Y-15990214D01*
X4026786Y-15975929D01*
X4012500Y-15961643D01*
X3998214Y-15933071D01*
X3983928Y-15875929D01*
X3983928Y-15804500D01*
X3998214Y-15747357D01*
X4012500Y-15718786D01*
X4026786Y-15704500D01*
X4055357Y-15690214D01*
X4283928Y-15990214D02*
X4283928Y-15790214D01*
X4283928Y-15818786D02*
X4298214Y-15804500D01*
X4326786Y-15790214D01*
X4369643Y-15790214D01*
X4398214Y-15804500D01*
X4412500Y-15833071D01*
X4412500Y-15990214D01*
X4412500Y-15833071D02*
X4426786Y-15804500D01*
X4455357Y-15790214D01*
X4498214Y-15790214D01*
X4526786Y-15804500D01*
X4541071Y-15833071D01*
X4541071Y-15990214D01*
X4683928Y-15990214D02*
X4683928Y-15790214D01*
X4683928Y-15818786D02*
X4698214Y-15804500D01*
X4726786Y-15790214D01*
X4769643Y-15790214D01*
X4798214Y-15804500D01*
X4812500Y-15833071D01*
X4812500Y-15990214D01*
X4812500Y-15833071D02*
X4826786Y-15804500D01*
X4855357Y-15790214D01*
X4898214Y-15790214D01*
X4926786Y-15804500D01*
X4941071Y-15833071D01*
X4941071Y-15990214D01*
X5526786Y-15675929D02*
X5269643Y-16061643D01*
X5912500Y-15690214D02*
X5941071Y-15690214D01*
X5969643Y-15704500D01*
X5983928Y-15718786D01*
X5998214Y-15747357D01*
X6012500Y-15804500D01*
X6012500Y-15875929D01*
X5998214Y-15933071D01*
X5983928Y-15961643D01*
X5969643Y-15975929D01*
X5941071Y-15990214D01*
X5912500Y-15990214D01*
X5883928Y-15975929D01*
X5869643Y-15961643D01*
X5855357Y-15933071D01*
X5841071Y-15875929D01*
X5841071Y-15804500D01*
X5855357Y-15747357D01*
X5869643Y-15718786D01*
X5883928Y-15704500D01*
X5912500Y-15690214D01*
X6141071Y-15961643D02*
X6155357Y-15975929D01*
X6141071Y-15990214D01*
X6126786Y-15975929D01*
X6141071Y-15961643D01*
X6141071Y-15990214D01*
X6341071Y-15690214D02*
X6369643Y-15690214D01*
X6398214Y-15704500D01*
X6412500Y-15718786D01*
X6426786Y-15747357D01*
X6441071Y-15804500D01*
X6441071Y-15875929D01*
X6426786Y-15933071D01*
X6412500Y-15961643D01*
X6398214Y-15975929D01*
X6369643Y-15990214D01*
X6341071Y-15990214D01*
X6312500Y-15975929D01*
X6298214Y-15961643D01*
X6283928Y-15933071D01*
X6269643Y-15875929D01*
X6269643Y-15804500D01*
X6283928Y-15747357D01*
X6298214Y-15718786D01*
X6312500Y-15704500D01*
X6341071Y-15690214D01*
X6541071Y-15690214D02*
X6726786Y-15690214D01*
X6626786Y-15804500D01*
X6669643Y-15804500D01*
X6698214Y-15818786D01*
X6712500Y-15833071D01*
X6726786Y-15861643D01*
X6726786Y-15933071D01*
X6712500Y-15961643D01*
X6698214Y-15975929D01*
X6669643Y-15990214D01*
X6583928Y-15990214D01*
X6555357Y-15975929D01*
X6541071Y-15961643D01*
X7012500Y-15990214D02*
X6841071Y-15990214D01*
X6926786Y-15990214D02*
X6926786Y-15690214D01*
X6898214Y-15733071D01*
X6869643Y-15761643D01*
X6841071Y-15775929D01*
X7126786Y-15690214D02*
X7126786Y-15747357D01*
X7241071Y-15690214D02*
X7241071Y-15747357D01*
X7683928Y-16104500D02*
X7669643Y-16090214D01*
X7641071Y-16047357D01*
X7626786Y-16018786D01*
X7612500Y-15975929D01*
X7598214Y-15904500D01*
X7598214Y-15847357D01*
X7612500Y-15775929D01*
X7626786Y-15733071D01*
X7641071Y-15704500D01*
X7669643Y-15661643D01*
X7683928Y-15647357D01*
X7926786Y-15790214D02*
X7926786Y-15990214D01*
X7855357Y-15675929D02*
X7783928Y-15890214D01*
X7969643Y-15890214D01*
X8069643Y-15718786D02*
X8083928Y-15704500D01*
X8112500Y-15690214D01*
X8183928Y-15690214D01*
X8212500Y-15704500D01*
X8226786Y-15718786D01*
X8241071Y-15747357D01*
X8241071Y-15775929D01*
X8226786Y-15818786D01*
X8055357Y-15990214D01*
X8241071Y-15990214D01*
X8598214Y-15990214D02*
X8598214Y-15690214D01*
X8726786Y-15990214D02*
X8726786Y-15833071D01*
X8712500Y-15804500D01*
X8683928Y-15790214D01*
X8641071Y-15790214D01*
X8612500Y-15804500D01*
X8598214Y-15818786D01*
X8912500Y-15990214D02*
X8883928Y-15975929D01*
X8869643Y-15961643D01*
X8855357Y-15933071D01*
X8855357Y-15847357D01*
X8869643Y-15818786D01*
X8883928Y-15804500D01*
X8912500Y-15790214D01*
X8955357Y-15790214D01*
X8983928Y-15804500D01*
X8998214Y-15818786D01*
X9012500Y-15847357D01*
X9012500Y-15933071D01*
X8998214Y-15961643D01*
X8983928Y-15975929D01*
X8955357Y-15990214D01*
X8912500Y-15990214D01*
X9183928Y-15990214D02*
X9155357Y-15975929D01*
X9141071Y-15947357D01*
X9141071Y-15690214D01*
X9412500Y-15975929D02*
X9383928Y-15990214D01*
X9326786Y-15990214D01*
X9298214Y-15975929D01*
X9283928Y-15947357D01*
X9283928Y-15833071D01*
X9298214Y-15804500D01*
X9326786Y-15790214D01*
X9383928Y-15790214D01*
X9412500Y-15804500D01*
X9426786Y-15833071D01*
X9426786Y-15861643D01*
X9283928Y-15890214D01*
X9541071Y-15975929D02*
X9569643Y-15990214D01*
X9626786Y-15990214D01*
X9655357Y-15975929D01*
X9669643Y-15947357D01*
X9669643Y-15933071D01*
X9655357Y-15904500D01*
X9626786Y-15890214D01*
X9583928Y-15890214D01*
X9555357Y-15875929D01*
X9541071Y-15847357D01*
X9541071Y-15833071D01*
X9555357Y-15804500D01*
X9583928Y-15790214D01*
X9626786Y-15790214D01*
X9655357Y-15804500D01*
X9769643Y-16104500D02*
X9783928Y-16090214D01*
X9812500Y-16047357D01*
X9826786Y-16018786D01*
X9841071Y-15975929D01*
X9855357Y-15904500D01*
X9855357Y-15847357D01*
X9841071Y-15775929D01*
X9826786Y-15733071D01*
X9812500Y-15704500D01*
X9783928Y-15661643D01*
X9769643Y-15647357D01*
X2984320Y-16282320D02*
X2984320Y-16218680D01*
X2920680Y-16218680D01*
X2920680Y-16282320D01*
X2984320Y-16282320D01*
X3341071Y-16086214D02*
X3369643Y-16086214D01*
X3398214Y-16100500D01*
X3412500Y-16114786D01*
X3426786Y-16143357D01*
X3441071Y-16200500D01*
X3441071Y-16271929D01*
X3426786Y-16329071D01*
X3412500Y-16357643D01*
X3398214Y-16371929D01*
X3369643Y-16386214D01*
X3341071Y-16386214D01*
X3312500Y-16371929D01*
X3298214Y-16357643D01*
X3283928Y-16329071D01*
X3269643Y-16271929D01*
X3269643Y-16200500D01*
X3283928Y-16143357D01*
X3298214Y-16114786D01*
X3312500Y-16100500D01*
X3341071Y-16086214D01*
X3569643Y-16357643D02*
X3583928Y-16371929D01*
X3569643Y-16386214D01*
X3555357Y-16371929D01*
X3569643Y-16357643D01*
X3569643Y-16386214D01*
X3726786Y-16386214D02*
X3783928Y-16386214D01*
X3812500Y-16371929D01*
X3826786Y-16357643D01*
X3855357Y-16314786D01*
X3869643Y-16257643D01*
X3869643Y-16143357D01*
X3855357Y-16114786D01*
X3841071Y-16100500D01*
X3812500Y-16086214D01*
X3755357Y-16086214D01*
X3726786Y-16100500D01*
X3712500Y-16114786D01*
X3698214Y-16143357D01*
X3698214Y-16214786D01*
X3712500Y-16243357D01*
X3726786Y-16257643D01*
X3755357Y-16271929D01*
X3812500Y-16271929D01*
X3841071Y-16257643D01*
X3855357Y-16243357D01*
X3869643Y-16214786D01*
X4055357Y-16086214D02*
X4083928Y-16086214D01*
X4112500Y-16100500D01*
X4126786Y-16114786D01*
X4141071Y-16143357D01*
X4155357Y-16200500D01*
X4155357Y-16271929D01*
X4141071Y-16329071D01*
X4126786Y-16357643D01*
X4112500Y-16371929D01*
X4083928Y-16386214D01*
X4055357Y-16386214D01*
X4026786Y-16371929D01*
X4012500Y-16357643D01*
X3998214Y-16329071D01*
X3983928Y-16271929D01*
X3983928Y-16200500D01*
X3998214Y-16143357D01*
X4012500Y-16114786D01*
X4026786Y-16100500D01*
X4055357Y-16086214D01*
X4283928Y-16386214D02*
X4283928Y-16186214D01*
X4283928Y-16214786D02*
X4298214Y-16200500D01*
X4326786Y-16186214D01*
X4369643Y-16186214D01*
X4398214Y-16200500D01*
X4412500Y-16229071D01*
X4412500Y-16386214D01*
X4412500Y-16229071D02*
X4426786Y-16200500D01*
X4455357Y-16186214D01*
X4498214Y-16186214D01*
X4526786Y-16200500D01*
X4541071Y-16229071D01*
X4541071Y-16386214D01*
X4683928Y-16386214D02*
X4683928Y-16186214D01*
X4683928Y-16214786D02*
X4698214Y-16200500D01*
X4726786Y-16186214D01*
X4769643Y-16186214D01*
X4798214Y-16200500D01*
X4812500Y-16229071D01*
X4812500Y-16386214D01*
X4812500Y-16229071D02*
X4826786Y-16200500D01*
X4855357Y-16186214D01*
X4898214Y-16186214D01*
X4926786Y-16200500D01*
X4941071Y-16229071D01*
X4941071Y-16386214D01*
X5526786Y-16071929D02*
X5269643Y-16457643D01*
X5912500Y-16086214D02*
X5941071Y-16086214D01*
X5969643Y-16100500D01*
X5983928Y-16114786D01*
X5998214Y-16143357D01*
X6012500Y-16200500D01*
X6012500Y-16271929D01*
X5998214Y-16329071D01*
X5983928Y-16357643D01*
X5969643Y-16371929D01*
X5941071Y-16386214D01*
X5912500Y-16386214D01*
X5883928Y-16371929D01*
X5869643Y-16357643D01*
X5855357Y-16329071D01*
X5841071Y-16271929D01*
X5841071Y-16200500D01*
X5855357Y-16143357D01*
X5869643Y-16114786D01*
X5883928Y-16100500D01*
X5912500Y-16086214D01*
X6141071Y-16357643D02*
X6155357Y-16371929D01*
X6141071Y-16386214D01*
X6126786Y-16371929D01*
X6141071Y-16357643D01*
X6141071Y-16386214D01*
X6341071Y-16086214D02*
X6369643Y-16086214D01*
X6398214Y-16100500D01*
X6412500Y-16114786D01*
X6426786Y-16143357D01*
X6441071Y-16200500D01*
X6441071Y-16271929D01*
X6426786Y-16329071D01*
X6412500Y-16357643D01*
X6398214Y-16371929D01*
X6369643Y-16386214D01*
X6341071Y-16386214D01*
X6312500Y-16371929D01*
X6298214Y-16357643D01*
X6283928Y-16329071D01*
X6269643Y-16271929D01*
X6269643Y-16200500D01*
X6283928Y-16143357D01*
X6298214Y-16114786D01*
X6312500Y-16100500D01*
X6341071Y-16086214D01*
X6541071Y-16086214D02*
X6726786Y-16086214D01*
X6626786Y-16200500D01*
X6669643Y-16200500D01*
X6698214Y-16214786D01*
X6712500Y-16229071D01*
X6726786Y-16257643D01*
X6726786Y-16329071D01*
X6712500Y-16357643D01*
X6698214Y-16371929D01*
X6669643Y-16386214D01*
X6583928Y-16386214D01*
X6555357Y-16371929D01*
X6541071Y-16357643D01*
X6998214Y-16086214D02*
X6855357Y-16086214D01*
X6841071Y-16229071D01*
X6855357Y-16214786D01*
X6883928Y-16200500D01*
X6955357Y-16200500D01*
X6983928Y-16214786D01*
X6998214Y-16229071D01*
X7012500Y-16257643D01*
X7012500Y-16329071D01*
X6998214Y-16357643D01*
X6983928Y-16371929D01*
X6955357Y-16386214D01*
X6883928Y-16386214D01*
X6855357Y-16371929D01*
X6841071Y-16357643D01*
X7126786Y-16086214D02*
X7126786Y-16143357D01*
X7241071Y-16086214D02*
X7241071Y-16143357D01*
X7683928Y-16500500D02*
X7669643Y-16486214D01*
X7641071Y-16443357D01*
X7626786Y-16414786D01*
X7612500Y-16371929D01*
X7598214Y-16300500D01*
X7598214Y-16243357D01*
X7612500Y-16171929D01*
X7626786Y-16129071D01*
X7641071Y-16100500D01*
X7669643Y-16057643D01*
X7683928Y-16043357D01*
X7783928Y-16114786D02*
X7798214Y-16100500D01*
X7826786Y-16086214D01*
X7898214Y-16086214D01*
X7926786Y-16100500D01*
X7941071Y-16114786D01*
X7955357Y-16143357D01*
X7955357Y-16171929D01*
X7941071Y-16214786D01*
X7769643Y-16386214D01*
X7955357Y-16386214D01*
X8312500Y-16386214D02*
X8312500Y-16086214D01*
X8441071Y-16386214D02*
X8441071Y-16229071D01*
X8426786Y-16200500D01*
X8398214Y-16186214D01*
X8355357Y-16186214D01*
X8326786Y-16200500D01*
X8312500Y-16214786D01*
X8626786Y-16386214D02*
X8598214Y-16371929D01*
X8583928Y-16357643D01*
X8569643Y-16329071D01*
X8569643Y-16243357D01*
X8583928Y-16214786D01*
X8598214Y-16200500D01*
X8626786Y-16186214D01*
X8669643Y-16186214D01*
X8698214Y-16200500D01*
X8712500Y-16214786D01*
X8726786Y-16243357D01*
X8726786Y-16329071D01*
X8712500Y-16357643D01*
X8698214Y-16371929D01*
X8669643Y-16386214D01*
X8626786Y-16386214D01*
X8898214Y-16386214D02*
X8869643Y-16371929D01*
X8855357Y-16343357D01*
X8855357Y-16086214D01*
X9126786Y-16371929D02*
X9098214Y-16386214D01*
X9041071Y-16386214D01*
X9012500Y-16371929D01*
X8998214Y-16343357D01*
X8998214Y-16229071D01*
X9012500Y-16200500D01*
X9041071Y-16186214D01*
X9098214Y-16186214D01*
X9126786Y-16200500D01*
X9141071Y-16229071D01*
X9141071Y-16257643D01*
X8998214Y-16286214D01*
X9255357Y-16371929D02*
X9283928Y-16386214D01*
X9341071Y-16386214D01*
X9369643Y-16371929D01*
X9383928Y-16343357D01*
X9383928Y-16329071D01*
X9369643Y-16300500D01*
X9341071Y-16286214D01*
X9298214Y-16286214D01*
X9269643Y-16271929D01*
X9255357Y-16243357D01*
X9255357Y-16229071D01*
X9269643Y-16200500D01*
X9298214Y-16186214D01*
X9341071Y-16186214D01*
X9369643Y-16200500D01*
X9483928Y-16500500D02*
X9498214Y-16486214D01*
X9526786Y-16443357D01*
X9541071Y-16414786D01*
X9555357Y-16371929D01*
X9569643Y-16300500D01*
X9569643Y-16243357D01*
X9555357Y-16171929D01*
X9541071Y-16129071D01*
X9526786Y-16100500D01*
X9498214Y-16057643D01*
X9483928Y-16043357D01*
X2947500Y-16696500D02*
X2997500Y-16646500D01*
X2947500Y-16596500D01*
X2897500Y-16646500D01*
X2947500Y-16696500D01*
X3441071Y-16782214D02*
X3269643Y-16782214D01*
X3355357Y-16782214D02*
X3355357Y-16482214D01*
X3326786Y-16525071D01*
X3298214Y-16553643D01*
X3269643Y-16567929D01*
X3569643Y-16753643D02*
X3583928Y-16767929D01*
X3569643Y-16782214D01*
X3555357Y-16767929D01*
X3569643Y-16753643D01*
X3569643Y-16782214D01*
X3769643Y-16482214D02*
X3798214Y-16482214D01*
X3826786Y-16496500D01*
X3841071Y-16510786D01*
X3855357Y-16539357D01*
X3869643Y-16596500D01*
X3869643Y-16667929D01*
X3855357Y-16725071D01*
X3841071Y-16753643D01*
X3826786Y-16767929D01*
X3798214Y-16782214D01*
X3769643Y-16782214D01*
X3741071Y-16767929D01*
X3726786Y-16753643D01*
X3712500Y-16725071D01*
X3698214Y-16667929D01*
X3698214Y-16596500D01*
X3712500Y-16539357D01*
X3726786Y-16510786D01*
X3741071Y-16496500D01*
X3769643Y-16482214D01*
X4055357Y-16482214D02*
X4083928Y-16482214D01*
X4112500Y-16496500D01*
X4126786Y-16510786D01*
X4141071Y-16539357D01*
X4155357Y-16596500D01*
X4155357Y-16667929D01*
X4141071Y-16725071D01*
X4126786Y-16753643D01*
X4112500Y-16767929D01*
X4083928Y-16782214D01*
X4055357Y-16782214D01*
X4026786Y-16767929D01*
X4012500Y-16753643D01*
X3998214Y-16725071D01*
X3983928Y-16667929D01*
X3983928Y-16596500D01*
X3998214Y-16539357D01*
X4012500Y-16510786D01*
X4026786Y-16496500D01*
X4055357Y-16482214D01*
X4283928Y-16782214D02*
X4283928Y-16582214D01*
X4283928Y-16610786D02*
X4298214Y-16596500D01*
X4326786Y-16582214D01*
X4369643Y-16582214D01*
X4398214Y-16596500D01*
X4412500Y-16625071D01*
X4412500Y-16782214D01*
X4412500Y-16625071D02*
X4426786Y-16596500D01*
X4455357Y-16582214D01*
X4498214Y-16582214D01*
X4526786Y-16596500D01*
X4541071Y-16625071D01*
X4541071Y-16782214D01*
X4683928Y-16782214D02*
X4683928Y-16582214D01*
X4683928Y-16610786D02*
X4698214Y-16596500D01*
X4726786Y-16582214D01*
X4769643Y-16582214D01*
X4798214Y-16596500D01*
X4812500Y-16625071D01*
X4812500Y-16782214D01*
X4812500Y-16625071D02*
X4826786Y-16596500D01*
X4855357Y-16582214D01*
X4898214Y-16582214D01*
X4926786Y-16596500D01*
X4941071Y-16625071D01*
X4941071Y-16782214D01*
X5526786Y-16467929D02*
X5269643Y-16853643D01*
X5912500Y-16482214D02*
X5941071Y-16482214D01*
X5969643Y-16496500D01*
X5983928Y-16510786D01*
X5998214Y-16539357D01*
X6012500Y-16596500D01*
X6012500Y-16667929D01*
X5998214Y-16725071D01*
X5983928Y-16753643D01*
X5969643Y-16767929D01*
X5941071Y-16782214D01*
X5912500Y-16782214D01*
X5883928Y-16767929D01*
X5869643Y-16753643D01*
X5855357Y-16725071D01*
X5841071Y-16667929D01*
X5841071Y-16596500D01*
X5855357Y-16539357D01*
X5869643Y-16510786D01*
X5883928Y-16496500D01*
X5912500Y-16482214D01*
X6141071Y-16753643D02*
X6155357Y-16767929D01*
X6141071Y-16782214D01*
X6126786Y-16767929D01*
X6141071Y-16753643D01*
X6141071Y-16782214D01*
X6341071Y-16482214D02*
X6369643Y-16482214D01*
X6398214Y-16496500D01*
X6412500Y-16510786D01*
X6426786Y-16539357D01*
X6441071Y-16596500D01*
X6441071Y-16667929D01*
X6426786Y-16725071D01*
X6412500Y-16753643D01*
X6398214Y-16767929D01*
X6369643Y-16782214D01*
X6341071Y-16782214D01*
X6312500Y-16767929D01*
X6298214Y-16753643D01*
X6283928Y-16725071D01*
X6269643Y-16667929D01*
X6269643Y-16596500D01*
X6283928Y-16539357D01*
X6298214Y-16510786D01*
X6312500Y-16496500D01*
X6341071Y-16482214D01*
X6541071Y-16482214D02*
X6726786Y-16482214D01*
X6626786Y-16596500D01*
X6669643Y-16596500D01*
X6698214Y-16610786D01*
X6712500Y-16625071D01*
X6726786Y-16653643D01*
X6726786Y-16725071D01*
X6712500Y-16753643D01*
X6698214Y-16767929D01*
X6669643Y-16782214D01*
X6583928Y-16782214D01*
X6555357Y-16767929D01*
X6541071Y-16753643D01*
X6869643Y-16782214D02*
X6926786Y-16782214D01*
X6955357Y-16767929D01*
X6969643Y-16753643D01*
X6998214Y-16710786D01*
X7012500Y-16653643D01*
X7012500Y-16539357D01*
X6998214Y-16510786D01*
X6983928Y-16496500D01*
X6955357Y-16482214D01*
X6898214Y-16482214D01*
X6869643Y-16496500D01*
X6855357Y-16510786D01*
X6841071Y-16539357D01*
X6841071Y-16610786D01*
X6855357Y-16639357D01*
X6869643Y-16653643D01*
X6898214Y-16667929D01*
X6955357Y-16667929D01*
X6983928Y-16653643D01*
X6998214Y-16639357D01*
X7012500Y-16610786D01*
X7126786Y-16482214D02*
X7126786Y-16539357D01*
X7241071Y-16482214D02*
X7241071Y-16539357D01*
X7683928Y-16896500D02*
X7669643Y-16882214D01*
X7641071Y-16839357D01*
X7626786Y-16810786D01*
X7612500Y-16767929D01*
X7598214Y-16696500D01*
X7598214Y-16639357D01*
X7612500Y-16567929D01*
X7626786Y-16525071D01*
X7641071Y-16496500D01*
X7669643Y-16453643D01*
X7683928Y-16439357D01*
X7955357Y-16782214D02*
X7783928Y-16782214D01*
X7869643Y-16782214D02*
X7869643Y-16482214D01*
X7841071Y-16525071D01*
X7812500Y-16553643D01*
X7783928Y-16567929D01*
X8098214Y-16782214D02*
X8155357Y-16782214D01*
X8183928Y-16767929D01*
X8198214Y-16753643D01*
X8226786Y-16710786D01*
X8241071Y-16653643D01*
X8241071Y-16539357D01*
X8226786Y-16510786D01*
X8212500Y-16496500D01*
X8183928Y-16482214D01*
X8126786Y-16482214D01*
X8098214Y-16496500D01*
X8083928Y-16510786D01*
X8069643Y-16539357D01*
X8069643Y-16610786D01*
X8083928Y-16639357D01*
X8098214Y-16653643D01*
X8126786Y-16667929D01*
X8183928Y-16667929D01*
X8212500Y-16653643D01*
X8226786Y-16639357D01*
X8241071Y-16610786D01*
X8598214Y-16782214D02*
X8598214Y-16482214D01*
X8726786Y-16782214D02*
X8726786Y-16625071D01*
X8712500Y-16596500D01*
X8683928Y-16582214D01*
X8641071Y-16582214D01*
X8612500Y-16596500D01*
X8598214Y-16610786D01*
X8912500Y-16782214D02*
X8883928Y-16767929D01*
X8869643Y-16753643D01*
X8855357Y-16725071D01*
X8855357Y-16639357D01*
X8869643Y-16610786D01*
X8883928Y-16596500D01*
X8912500Y-16582214D01*
X8955357Y-16582214D01*
X8983928Y-16596500D01*
X8998214Y-16610786D01*
X9012500Y-16639357D01*
X9012500Y-16725071D01*
X8998214Y-16753643D01*
X8983928Y-16767929D01*
X8955357Y-16782214D01*
X8912500Y-16782214D01*
X9183928Y-16782214D02*
X9155357Y-16767929D01*
X9141071Y-16739357D01*
X9141071Y-16482214D01*
X9412500Y-16767929D02*
X9383928Y-16782214D01*
X9326786Y-16782214D01*
X9298214Y-16767929D01*
X9283928Y-16739357D01*
X9283928Y-16625071D01*
X9298214Y-16596500D01*
X9326786Y-16582214D01*
X9383928Y-16582214D01*
X9412500Y-16596500D01*
X9426786Y-16625071D01*
X9426786Y-16653643D01*
X9283928Y-16682214D01*
X9541071Y-16767929D02*
X9569643Y-16782214D01*
X9626786Y-16782214D01*
X9655357Y-16767929D01*
X9669643Y-16739357D01*
X9669643Y-16725071D01*
X9655357Y-16696500D01*
X9626786Y-16682214D01*
X9583928Y-16682214D01*
X9555357Y-16667929D01*
X9541071Y-16639357D01*
X9541071Y-16625071D01*
X9555357Y-16596500D01*
X9583928Y-16582214D01*
X9626786Y-16582214D01*
X9655357Y-16596500D01*
X9769643Y-16896500D02*
X9783928Y-16882214D01*
X9812500Y-16839357D01*
X9826786Y-16810786D01*
X9841071Y-16767929D01*
X9855357Y-16696500D01*
X9855357Y-16639357D01*
X9841071Y-16567929D01*
X9826786Y-16525071D01*
X9812500Y-16496500D01*
X9783928Y-16453643D01*
X9769643Y-16439357D01*
X2875500Y-16981500D02*
X2997500Y-17103500D01*
X2997500Y-16981500D02*
X2875500Y-17103500D01*
X2997500Y-17042500D02*
G75*
G03*
X2997500Y-17042500I-61000J0D01*
G01*
X3441071Y-17178214D02*
X3269643Y-17178214D01*
X3355357Y-17178214D02*
X3355357Y-16878214D01*
X3326786Y-16921072D01*
X3298214Y-16949643D01*
X3269643Y-16963929D01*
X3569643Y-17149643D02*
X3583928Y-17163929D01*
X3569643Y-17178214D01*
X3555357Y-17163929D01*
X3569643Y-17149643D01*
X3569643Y-17178214D01*
X3698214Y-16906786D02*
X3712500Y-16892500D01*
X3741071Y-16878214D01*
X3812500Y-16878214D01*
X3841071Y-16892500D01*
X3855357Y-16906786D01*
X3869643Y-16935357D01*
X3869643Y-16963929D01*
X3855357Y-17006786D01*
X3683928Y-17178214D01*
X3869643Y-17178214D01*
X3983928Y-16906786D02*
X3998214Y-16892500D01*
X4026786Y-16878214D01*
X4098214Y-16878214D01*
X4126786Y-16892500D01*
X4141071Y-16906786D01*
X4155357Y-16935357D01*
X4155357Y-16963929D01*
X4141071Y-17006786D01*
X3969643Y-17178214D01*
X4155357Y-17178214D01*
X4283928Y-17178214D02*
X4283928Y-16978214D01*
X4283928Y-17006786D02*
X4298214Y-16992500D01*
X4326786Y-16978214D01*
X4369643Y-16978214D01*
X4398214Y-16992500D01*
X4412500Y-17021072D01*
X4412500Y-17178214D01*
X4412500Y-17021072D02*
X4426786Y-16992500D01*
X4455357Y-16978214D01*
X4498214Y-16978214D01*
X4526786Y-16992500D01*
X4541071Y-17021072D01*
X4541071Y-17178214D01*
X4683928Y-17178214D02*
X4683928Y-16978214D01*
X4683928Y-17006786D02*
X4698214Y-16992500D01*
X4726786Y-16978214D01*
X4769643Y-16978214D01*
X4798214Y-16992500D01*
X4812500Y-17021072D01*
X4812500Y-17178214D01*
X4812500Y-17021072D02*
X4826786Y-16992500D01*
X4855357Y-16978214D01*
X4898214Y-16978214D01*
X4926786Y-16992500D01*
X4941071Y-17021072D01*
X4941071Y-17178214D01*
X5526786Y-16863929D02*
X5269643Y-17249643D01*
X5912500Y-16878214D02*
X5941071Y-16878214D01*
X5969643Y-16892500D01*
X5983928Y-16906786D01*
X5998214Y-16935357D01*
X6012500Y-16992500D01*
X6012500Y-17063929D01*
X5998214Y-17121072D01*
X5983928Y-17149643D01*
X5969643Y-17163929D01*
X5941071Y-17178214D01*
X5912500Y-17178214D01*
X5883928Y-17163929D01*
X5869643Y-17149643D01*
X5855357Y-17121072D01*
X5841071Y-17063929D01*
X5841071Y-16992500D01*
X5855357Y-16935357D01*
X5869643Y-16906786D01*
X5883928Y-16892500D01*
X5912500Y-16878214D01*
X6141071Y-17149643D02*
X6155357Y-17163929D01*
X6141071Y-17178214D01*
X6126786Y-17163929D01*
X6141071Y-17149643D01*
X6141071Y-17178214D01*
X6341071Y-16878214D02*
X6369643Y-16878214D01*
X6398214Y-16892500D01*
X6412500Y-16906786D01*
X6426786Y-16935357D01*
X6441071Y-16992500D01*
X6441071Y-17063929D01*
X6426786Y-17121072D01*
X6412500Y-17149643D01*
X6398214Y-17163929D01*
X6369643Y-17178214D01*
X6341071Y-17178214D01*
X6312500Y-17163929D01*
X6298214Y-17149643D01*
X6283928Y-17121072D01*
X6269643Y-17063929D01*
X6269643Y-16992500D01*
X6283928Y-16935357D01*
X6298214Y-16906786D01*
X6312500Y-16892500D01*
X6341071Y-16878214D01*
X6698214Y-16978214D02*
X6698214Y-17178214D01*
X6626786Y-16863929D02*
X6555357Y-17078214D01*
X6741071Y-17078214D01*
X6898214Y-17006786D02*
X6869643Y-16992500D01*
X6855357Y-16978214D01*
X6841071Y-16949643D01*
X6841071Y-16935357D01*
X6855357Y-16906786D01*
X6869643Y-16892500D01*
X6898214Y-16878214D01*
X6955357Y-16878214D01*
X6983928Y-16892500D01*
X6998214Y-16906786D01*
X7012500Y-16935357D01*
X7012500Y-16949643D01*
X6998214Y-16978214D01*
X6983928Y-16992500D01*
X6955357Y-17006786D01*
X6898214Y-17006786D01*
X6869643Y-17021072D01*
X6855357Y-17035357D01*
X6841071Y-17063929D01*
X6841071Y-17121072D01*
X6855357Y-17149643D01*
X6869643Y-17163929D01*
X6898214Y-17178214D01*
X6955357Y-17178214D01*
X6983928Y-17163929D01*
X6998214Y-17149643D01*
X7012500Y-17121072D01*
X7012500Y-17063929D01*
X6998214Y-17035357D01*
X6983928Y-17021072D01*
X6955357Y-17006786D01*
X7126786Y-16878214D02*
X7126786Y-16935357D01*
X7241071Y-16878214D02*
X7241071Y-16935357D01*
X7683928Y-17292500D02*
X7669643Y-17278214D01*
X7641071Y-17235357D01*
X7626786Y-17206786D01*
X7612500Y-17163929D01*
X7598214Y-17092500D01*
X7598214Y-17035357D01*
X7612500Y-16963929D01*
X7626786Y-16921072D01*
X7641071Y-16892500D01*
X7669643Y-16849643D01*
X7683928Y-16835357D01*
X7769643Y-16878214D02*
X7955357Y-16878214D01*
X7855357Y-16992500D01*
X7898214Y-16992500D01*
X7926786Y-17006786D01*
X7941071Y-17021072D01*
X7955357Y-17049643D01*
X7955357Y-17121072D01*
X7941071Y-17149643D01*
X7926786Y-17163929D01*
X7898214Y-17178214D01*
X7812500Y-17178214D01*
X7783928Y-17163929D01*
X7769643Y-17149643D01*
X8312500Y-17178214D02*
X8312500Y-16878214D01*
X8441071Y-17178214D02*
X8441071Y-17021072D01*
X8426786Y-16992500D01*
X8398214Y-16978214D01*
X8355357Y-16978214D01*
X8326786Y-16992500D01*
X8312500Y-17006786D01*
X8626786Y-17178214D02*
X8598214Y-17163929D01*
X8583928Y-17149643D01*
X8569643Y-17121072D01*
X8569643Y-17035357D01*
X8583928Y-17006786D01*
X8598214Y-16992500D01*
X8626786Y-16978214D01*
X8669643Y-16978214D01*
X8698214Y-16992500D01*
X8712500Y-17006786D01*
X8726786Y-17035357D01*
X8726786Y-17121072D01*
X8712500Y-17149643D01*
X8698214Y-17163929D01*
X8669643Y-17178214D01*
X8626786Y-17178214D01*
X8898214Y-17178214D02*
X8869643Y-17163929D01*
X8855357Y-17135357D01*
X8855357Y-16878214D01*
X9126786Y-17163929D02*
X9098214Y-17178214D01*
X9041071Y-17178214D01*
X9012500Y-17163929D01*
X8998214Y-17135357D01*
X8998214Y-17021072D01*
X9012500Y-16992500D01*
X9041071Y-16978214D01*
X9098214Y-16978214D01*
X9126786Y-16992500D01*
X9141071Y-17021072D01*
X9141071Y-17049643D01*
X8998214Y-17078214D01*
X9255357Y-17163929D02*
X9283928Y-17178214D01*
X9341071Y-17178214D01*
X9369643Y-17163929D01*
X9383928Y-17135357D01*
X9383928Y-17121072D01*
X9369643Y-17092500D01*
X9341071Y-17078214D01*
X9298214Y-17078214D01*
X9269643Y-17063929D01*
X9255357Y-17035357D01*
X9255357Y-17021072D01*
X9269643Y-16992500D01*
X9298214Y-16978214D01*
X9341071Y-16978214D01*
X9369643Y-16992500D01*
X9483928Y-17292500D02*
X9498214Y-17278214D01*
X9526786Y-17235357D01*
X9541071Y-17206786D01*
X9555357Y-17163929D01*
X9569643Y-17092500D01*
X9569643Y-17035357D01*
X9555357Y-16963929D01*
X9541071Y-16921072D01*
X9526786Y-16892500D01*
X9498214Y-16849643D01*
X9483928Y-16835357D01*
X2855500Y-17367500D02*
X2997500Y-17509500D01*
X2997500Y-17367500D02*
X2855500Y-17509500D01*
X2926500Y-17367500D02*
X2926500Y-17509500D01*
X2855500Y-17438500D02*
X2997500Y-17438500D01*
X3441071Y-17574214D02*
X3269643Y-17574214D01*
X3355357Y-17574214D02*
X3355357Y-17274214D01*
X3326786Y-17317072D01*
X3298214Y-17345643D01*
X3269643Y-17359929D01*
X3569643Y-17545643D02*
X3583928Y-17559929D01*
X3569643Y-17574214D01*
X3555357Y-17559929D01*
X3569643Y-17545643D01*
X3569643Y-17574214D01*
X3841071Y-17374214D02*
X3841071Y-17574214D01*
X3769643Y-17259929D02*
X3698214Y-17474214D01*
X3883928Y-17474214D01*
X3983928Y-17302786D02*
X3998214Y-17288500D01*
X4026786Y-17274214D01*
X4098214Y-17274214D01*
X4126786Y-17288500D01*
X4141071Y-17302786D01*
X4155357Y-17331357D01*
X4155357Y-17359929D01*
X4141071Y-17402786D01*
X3969643Y-17574214D01*
X4155357Y-17574214D01*
X4283928Y-17574214D02*
X4283928Y-17374214D01*
X4283928Y-17402786D02*
X4298214Y-17388500D01*
X4326786Y-17374214D01*
X4369643Y-17374214D01*
X4398214Y-17388500D01*
X4412500Y-17417072D01*
X4412500Y-17574214D01*
X4412500Y-17417072D02*
X4426786Y-17388500D01*
X4455357Y-17374214D01*
X4498214Y-17374214D01*
X4526786Y-17388500D01*
X4541071Y-17417072D01*
X4541071Y-17574214D01*
X4683928Y-17574214D02*
X4683928Y-17374214D01*
X4683928Y-17402786D02*
X4698214Y-17388500D01*
X4726786Y-17374214D01*
X4769643Y-17374214D01*
X4798214Y-17388500D01*
X4812500Y-17417072D01*
X4812500Y-17574214D01*
X4812500Y-17417072D02*
X4826786Y-17388500D01*
X4855357Y-17374214D01*
X4898214Y-17374214D01*
X4926786Y-17388500D01*
X4941071Y-17417072D01*
X4941071Y-17574214D01*
X5526786Y-17259929D02*
X5269643Y-17645643D01*
X5912500Y-17274214D02*
X5941071Y-17274214D01*
X5969643Y-17288500D01*
X5983928Y-17302786D01*
X5998214Y-17331357D01*
X6012500Y-17388500D01*
X6012500Y-17459929D01*
X5998214Y-17517072D01*
X5983928Y-17545643D01*
X5969643Y-17559929D01*
X5941071Y-17574214D01*
X5912500Y-17574214D01*
X5883928Y-17559929D01*
X5869643Y-17545643D01*
X5855357Y-17517072D01*
X5841071Y-17459929D01*
X5841071Y-17388500D01*
X5855357Y-17331357D01*
X5869643Y-17302786D01*
X5883928Y-17288500D01*
X5912500Y-17274214D01*
X6141071Y-17545643D02*
X6155357Y-17559929D01*
X6141071Y-17574214D01*
X6126786Y-17559929D01*
X6141071Y-17545643D01*
X6141071Y-17574214D01*
X6341071Y-17274214D02*
X6369643Y-17274214D01*
X6398214Y-17288500D01*
X6412500Y-17302786D01*
X6426786Y-17331357D01*
X6441071Y-17388500D01*
X6441071Y-17459929D01*
X6426786Y-17517072D01*
X6412500Y-17545643D01*
X6398214Y-17559929D01*
X6369643Y-17574214D01*
X6341071Y-17574214D01*
X6312500Y-17559929D01*
X6298214Y-17545643D01*
X6283928Y-17517072D01*
X6269643Y-17459929D01*
X6269643Y-17388500D01*
X6283928Y-17331357D01*
X6298214Y-17302786D01*
X6312500Y-17288500D01*
X6341071Y-17274214D01*
X6712500Y-17274214D02*
X6569643Y-17274214D01*
X6555357Y-17417072D01*
X6569643Y-17402786D01*
X6598214Y-17388500D01*
X6669643Y-17388500D01*
X6698214Y-17402786D01*
X6712500Y-17417072D01*
X6726786Y-17445643D01*
X6726786Y-17517072D01*
X6712500Y-17545643D01*
X6698214Y-17559929D01*
X6669643Y-17574214D01*
X6598214Y-17574214D01*
X6569643Y-17559929D01*
X6555357Y-17545643D01*
X6983928Y-17274214D02*
X6926786Y-17274214D01*
X6898214Y-17288500D01*
X6883928Y-17302786D01*
X6855357Y-17345643D01*
X6841071Y-17402786D01*
X6841071Y-17517072D01*
X6855357Y-17545643D01*
X6869643Y-17559929D01*
X6898214Y-17574214D01*
X6955357Y-17574214D01*
X6983928Y-17559929D01*
X6998214Y-17545643D01*
X7012500Y-17517072D01*
X7012500Y-17445643D01*
X6998214Y-17417072D01*
X6983928Y-17402786D01*
X6955357Y-17388500D01*
X6898214Y-17388500D01*
X6869643Y-17402786D01*
X6855357Y-17417072D01*
X6841071Y-17445643D01*
X7126786Y-17274214D02*
X7126786Y-17331357D01*
X7241071Y-17274214D02*
X7241071Y-17331357D01*
X7683928Y-17688500D02*
X7669643Y-17674214D01*
X7641071Y-17631357D01*
X7626786Y-17602786D01*
X7612500Y-17559929D01*
X7598214Y-17488500D01*
X7598214Y-17431357D01*
X7612500Y-17359929D01*
X7626786Y-17317072D01*
X7641071Y-17288500D01*
X7669643Y-17245643D01*
X7683928Y-17231357D01*
X7769643Y-17274214D02*
X7955357Y-17274214D01*
X7855357Y-17388500D01*
X7898214Y-17388500D01*
X7926786Y-17402786D01*
X7941071Y-17417072D01*
X7955357Y-17445643D01*
X7955357Y-17517072D01*
X7941071Y-17545643D01*
X7926786Y-17559929D01*
X7898214Y-17574214D01*
X7812500Y-17574214D01*
X7783928Y-17559929D01*
X7769643Y-17545643D01*
X8312500Y-17574214D02*
X8312500Y-17274214D01*
X8441071Y-17574214D02*
X8441071Y-17417072D01*
X8426786Y-17388500D01*
X8398214Y-17374214D01*
X8355357Y-17374214D01*
X8326786Y-17388500D01*
X8312500Y-17402786D01*
X8626786Y-17574214D02*
X8598214Y-17559929D01*
X8583928Y-17545643D01*
X8569643Y-17517072D01*
X8569643Y-17431357D01*
X8583928Y-17402786D01*
X8598214Y-17388500D01*
X8626786Y-17374214D01*
X8669643Y-17374214D01*
X8698214Y-17388500D01*
X8712500Y-17402786D01*
X8726786Y-17431357D01*
X8726786Y-17517072D01*
X8712500Y-17545643D01*
X8698214Y-17559929D01*
X8669643Y-17574214D01*
X8626786Y-17574214D01*
X8898214Y-17574214D02*
X8869643Y-17559929D01*
X8855357Y-17531357D01*
X8855357Y-17274214D01*
X9126786Y-17559929D02*
X9098214Y-17574214D01*
X9041071Y-17574214D01*
X9012500Y-17559929D01*
X8998214Y-17531357D01*
X8998214Y-17417072D01*
X9012500Y-17388500D01*
X9041071Y-17374214D01*
X9098214Y-17374214D01*
X9126786Y-17388500D01*
X9141071Y-17417072D01*
X9141071Y-17445643D01*
X8998214Y-17474214D01*
X9255357Y-17559929D02*
X9283928Y-17574214D01*
X9341071Y-17574214D01*
X9369643Y-17559929D01*
X9383928Y-17531357D01*
X9383928Y-17517072D01*
X9369643Y-17488500D01*
X9341071Y-17474214D01*
X9298214Y-17474214D01*
X9269643Y-17459929D01*
X9255357Y-17431357D01*
X9255357Y-17417072D01*
X9269643Y-17388500D01*
X9298214Y-17374214D01*
X9341071Y-17374214D01*
X9369643Y-17388500D01*
X9483928Y-17688500D02*
X9498214Y-17674214D01*
X9526786Y-17631357D01*
X9541071Y-17602786D01*
X9555357Y-17559929D01*
X9569643Y-17488500D01*
X9569643Y-17431357D01*
X9555357Y-17359929D01*
X9541071Y-17317072D01*
X9526786Y-17288500D01*
X9498214Y-17245643D01*
X9483928Y-17231357D01*
X2854500Y-17763000D02*
X2997500Y-17906000D01*
X2997500Y-17763000D02*
X2854500Y-17906000D01*
X2976558Y-17885059D02*
X2976558Y-17783942D01*
X2875441Y-17783942D01*
X2875441Y-17885059D01*
X2976558Y-17885059D01*
X3441071Y-17970214D02*
X3269643Y-17970214D01*
X3355357Y-17970214D02*
X3355357Y-17670214D01*
X3326786Y-17713072D01*
X3298214Y-17741643D01*
X3269643Y-17755929D01*
X3569643Y-17941643D02*
X3583928Y-17955929D01*
X3569643Y-17970214D01*
X3555357Y-17955929D01*
X3569643Y-17941643D01*
X3569643Y-17970214D01*
X3841071Y-17770214D02*
X3841071Y-17970214D01*
X3769643Y-17655929D02*
X3698214Y-17870214D01*
X3883928Y-17870214D01*
X3969643Y-17670214D02*
X4155357Y-17670214D01*
X4055357Y-17784500D01*
X4098214Y-17784500D01*
X4126786Y-17798786D01*
X4141071Y-17813072D01*
X4155357Y-17841643D01*
X4155357Y-17913072D01*
X4141071Y-17941643D01*
X4126786Y-17955929D01*
X4098214Y-17970214D01*
X4012500Y-17970214D01*
X3983928Y-17955929D01*
X3969643Y-17941643D01*
X4283928Y-17970214D02*
X4283928Y-17770214D01*
X4283928Y-17798786D02*
X4298214Y-17784500D01*
X4326786Y-17770214D01*
X4369643Y-17770214D01*
X4398214Y-17784500D01*
X4412500Y-17813072D01*
X4412500Y-17970214D01*
X4412500Y-17813072D02*
X4426786Y-17784500D01*
X4455357Y-17770214D01*
X4498214Y-17770214D01*
X4526786Y-17784500D01*
X4541071Y-17813072D01*
X4541071Y-17970214D01*
X4683928Y-17970214D02*
X4683928Y-17770214D01*
X4683928Y-17798786D02*
X4698214Y-17784500D01*
X4726786Y-17770214D01*
X4769643Y-17770214D01*
X4798214Y-17784500D01*
X4812500Y-17813072D01*
X4812500Y-17970214D01*
X4812500Y-17813072D02*
X4826786Y-17784500D01*
X4855357Y-17770214D01*
X4898214Y-17770214D01*
X4926786Y-17784500D01*
X4941071Y-17813072D01*
X4941071Y-17970214D01*
X5526786Y-17655929D02*
X5269643Y-18041643D01*
X5912500Y-17670214D02*
X5941071Y-17670214D01*
X5969643Y-17684500D01*
X5983928Y-17698786D01*
X5998214Y-17727357D01*
X6012500Y-17784500D01*
X6012500Y-17855929D01*
X5998214Y-17913072D01*
X5983928Y-17941643D01*
X5969643Y-17955929D01*
X5941071Y-17970214D01*
X5912500Y-17970214D01*
X5883928Y-17955929D01*
X5869643Y-17941643D01*
X5855357Y-17913072D01*
X5841071Y-17855929D01*
X5841071Y-17784500D01*
X5855357Y-17727357D01*
X5869643Y-17698786D01*
X5883928Y-17684500D01*
X5912500Y-17670214D01*
X6141071Y-17941643D02*
X6155357Y-17955929D01*
X6141071Y-17970214D01*
X6126786Y-17955929D01*
X6141071Y-17941643D01*
X6141071Y-17970214D01*
X6341071Y-17670214D02*
X6369643Y-17670214D01*
X6398214Y-17684500D01*
X6412500Y-17698786D01*
X6426786Y-17727357D01*
X6441071Y-17784500D01*
X6441071Y-17855929D01*
X6426786Y-17913072D01*
X6412500Y-17941643D01*
X6398214Y-17955929D01*
X6369643Y-17970214D01*
X6341071Y-17970214D01*
X6312500Y-17955929D01*
X6298214Y-17941643D01*
X6283928Y-17913072D01*
X6269643Y-17855929D01*
X6269643Y-17784500D01*
X6283928Y-17727357D01*
X6298214Y-17698786D01*
X6312500Y-17684500D01*
X6341071Y-17670214D01*
X6712500Y-17670214D02*
X6569643Y-17670214D01*
X6555357Y-17813072D01*
X6569643Y-17798786D01*
X6598214Y-17784500D01*
X6669643Y-17784500D01*
X6698214Y-17798786D01*
X6712500Y-17813072D01*
X6726786Y-17841643D01*
X6726786Y-17913072D01*
X6712500Y-17941643D01*
X6698214Y-17955929D01*
X6669643Y-17970214D01*
X6598214Y-17970214D01*
X6569643Y-17955929D01*
X6555357Y-17941643D01*
X6983928Y-17670214D02*
X6926786Y-17670214D01*
X6898214Y-17684500D01*
X6883928Y-17698786D01*
X6855357Y-17741643D01*
X6841071Y-17798786D01*
X6841071Y-17913072D01*
X6855357Y-17941643D01*
X6869643Y-17955929D01*
X6898214Y-17970214D01*
X6955357Y-17970214D01*
X6983928Y-17955929D01*
X6998214Y-17941643D01*
X7012500Y-17913072D01*
X7012500Y-17841643D01*
X6998214Y-17813072D01*
X6983928Y-17798786D01*
X6955357Y-17784500D01*
X6898214Y-17784500D01*
X6869643Y-17798786D01*
X6855357Y-17813072D01*
X6841071Y-17841643D01*
X7126786Y-17670214D02*
X7126786Y-17727357D01*
X7241071Y-17670214D02*
X7241071Y-17727357D01*
X7683928Y-18084500D02*
X7669643Y-18070214D01*
X7641071Y-18027357D01*
X7626786Y-17998786D01*
X7612500Y-17955929D01*
X7598214Y-17884500D01*
X7598214Y-17827357D01*
X7612500Y-17755929D01*
X7626786Y-17713072D01*
X7641071Y-17684500D01*
X7669643Y-17641643D01*
X7683928Y-17627357D01*
X7769643Y-17670214D02*
X7955357Y-17670214D01*
X7855357Y-17784500D01*
X7898214Y-17784500D01*
X7926786Y-17798786D01*
X7941071Y-17813072D01*
X7955357Y-17841643D01*
X7955357Y-17913072D01*
X7941071Y-17941643D01*
X7926786Y-17955929D01*
X7898214Y-17970214D01*
X7812500Y-17970214D01*
X7783928Y-17955929D01*
X7769643Y-17941643D01*
X8312500Y-17970214D02*
X8312500Y-17670214D01*
X8441071Y-17970214D02*
X8441071Y-17813072D01*
X8426786Y-17784500D01*
X8398214Y-17770214D01*
X8355357Y-17770214D01*
X8326786Y-17784500D01*
X8312500Y-17798786D01*
X8626786Y-17970214D02*
X8598214Y-17955929D01*
X8583928Y-17941643D01*
X8569643Y-17913072D01*
X8569643Y-17827357D01*
X8583928Y-17798786D01*
X8598214Y-17784500D01*
X8626786Y-17770214D01*
X8669643Y-17770214D01*
X8698214Y-17784500D01*
X8712500Y-17798786D01*
X8726786Y-17827357D01*
X8726786Y-17913072D01*
X8712500Y-17941643D01*
X8698214Y-17955929D01*
X8669643Y-17970214D01*
X8626786Y-17970214D01*
X8898214Y-17970214D02*
X8869643Y-17955929D01*
X8855357Y-17927357D01*
X8855357Y-17670214D01*
X9126786Y-17955929D02*
X9098214Y-17970214D01*
X9041071Y-17970214D01*
X9012500Y-17955929D01*
X8998214Y-17927357D01*
X8998214Y-17813072D01*
X9012500Y-17784500D01*
X9041071Y-17770214D01*
X9098214Y-17770214D01*
X9126786Y-17784500D01*
X9141071Y-17813072D01*
X9141071Y-17841643D01*
X8998214Y-17870214D01*
X9255357Y-17955929D02*
X9283928Y-17970214D01*
X9341071Y-17970214D01*
X9369643Y-17955929D01*
X9383928Y-17927357D01*
X9383928Y-17913072D01*
X9369643Y-17884500D01*
X9341071Y-17870214D01*
X9298214Y-17870214D01*
X9269643Y-17855929D01*
X9255357Y-17827357D01*
X9255357Y-17813072D01*
X9269643Y-17784500D01*
X9298214Y-17770214D01*
X9341071Y-17770214D01*
X9369643Y-17784500D01*
X9483928Y-18084500D02*
X9498214Y-18070214D01*
X9526786Y-18027357D01*
X9541071Y-17998786D01*
X9555357Y-17955929D01*
X9569643Y-17884500D01*
X9569643Y-17827357D01*
X9555357Y-17755929D01*
X9541071Y-17713072D01*
X9526786Y-17684500D01*
X9498214Y-17641643D01*
X9483928Y-17627357D01*
M02*
