G04 #@! TF.GenerationSoftware,KiCad,Pcbnew,(6.0.0)*
G04 #@! TF.CreationDate,2022-01-31T10:14:00+01:00*
G04 #@! TF.ProjectId,StupidBox,53747570-6964-4426-9f78-2e6b69636164,rev?*
G04 #@! TF.SameCoordinates,Original*
G04 #@! TF.FileFunction,Copper,L1,Top*
G04 #@! TF.FilePolarity,Positive*
%FSLAX46Y46*%
G04 Gerber Fmt 4.6, Leading zero omitted, Abs format (unit mm)*
G04 Created by KiCad (PCBNEW (6.0.0)) date 2022-01-31 10:14:00*
%MOMM*%
%LPD*%
G01*
G04 APERTURE LIST*
G04 #@! TA.AperFunction,ComponentPad*
%ADD10R,1.600000X1.600000*%
G04 #@! TD*
G04 #@! TA.AperFunction,ComponentPad*
%ADD11C,1.600000*%
G04 #@! TD*
G04 #@! TA.AperFunction,ComponentPad*
%ADD12C,1.400000*%
G04 #@! TD*
G04 #@! TA.AperFunction,ComponentPad*
%ADD13O,1.600000X1.600000*%
G04 #@! TD*
G04 #@! TA.AperFunction,ComponentPad*
%ADD14R,1.800000X1.800000*%
G04 #@! TD*
G04 #@! TA.AperFunction,ComponentPad*
%ADD15C,1.800000*%
G04 #@! TD*
G04 #@! TA.AperFunction,ComponentPad*
%ADD16R,1.930000X1.830000*%
G04 #@! TD*
G04 #@! TA.AperFunction,ComponentPad*
%ADD17C,2.130000*%
G04 #@! TD*
G04 #@! TA.AperFunction,ComponentPad*
%ADD18C,1.500000*%
G04 #@! TD*
G04 #@! TA.AperFunction,WasherPad*
%ADD19C,4.000000*%
G04 #@! TD*
G04 #@! TA.AperFunction,ComponentPad*
%ADD20R,1.700000X1.700000*%
G04 #@! TD*
G04 #@! TA.AperFunction,ComponentPad*
%ADD21O,1.700000X1.700000*%
G04 #@! TD*
G04 #@! TA.AperFunction,ViaPad*
%ADD22C,0.800000*%
G04 #@! TD*
G04 #@! TA.AperFunction,Conductor*
%ADD23C,0.600000*%
G04 #@! TD*
G04 #@! TA.AperFunction,Conductor*
%ADD24C,0.300000*%
G04 #@! TD*
G04 APERTURE END LIST*
D10*
X50000000Y-132000000D03*
D11*
X50000000Y-134000000D03*
D10*
X33000000Y-137000000D03*
D11*
X35000000Y-137000000D03*
D12*
X32000000Y-85000000D03*
X32000000Y-87500000D03*
D11*
X42000000Y-123000000D03*
X37000000Y-123000000D03*
D10*
X49000000Y-63000000D03*
D11*
X51000000Y-63000000D03*
X49000000Y-83000000D03*
X44000000Y-83000000D03*
D12*
X53000000Y-83500000D03*
X53000000Y-86000000D03*
D10*
X32500000Y-72190000D03*
D13*
X32500000Y-79810000D03*
D14*
X55000000Y-117000000D03*
D15*
X52460000Y-117000000D03*
D16*
X38500000Y-91000000D03*
D17*
X38500000Y-102400000D03*
X38500000Y-94100000D03*
D11*
X33000000Y-120000000D03*
D13*
X33000000Y-107300000D03*
D11*
X37000000Y-120000000D03*
D13*
X37000000Y-107300000D03*
D11*
X36000000Y-82700000D03*
D13*
X36000000Y-70000000D03*
D11*
X40000000Y-70000000D03*
D13*
X40000000Y-82700000D03*
D18*
X55425000Y-110000000D03*
X52025000Y-110000000D03*
D11*
X58000000Y-123000000D03*
D13*
X45300000Y-123000000D03*
D11*
X47350000Y-87000000D03*
D13*
X34650000Y-87000000D03*
D10*
X38200000Y-130200000D03*
D13*
X38200000Y-132740000D03*
X38200000Y-135280000D03*
X38200000Y-137820000D03*
X45820000Y-137820000D03*
X45820000Y-135280000D03*
X45820000Y-132740000D03*
X45820000Y-130200000D03*
D19*
X46100000Y-39000000D03*
X54900000Y-39000000D03*
D15*
X53000000Y-46000000D03*
X50500000Y-46000000D03*
X48000000Y-46000000D03*
D19*
X43900000Y-56000000D03*
X35100000Y-56000000D03*
D15*
X42000000Y-63000000D03*
X39500000Y-63000000D03*
X37000000Y-63000000D03*
D19*
X46100000Y-73000000D03*
X54900000Y-73000000D03*
D15*
X53000000Y-80000000D03*
X50500000Y-80000000D03*
X48000000Y-80000000D03*
D11*
X35000000Y-46350000D03*
D13*
X35000000Y-33650000D03*
D11*
X41000000Y-46350000D03*
D13*
X41000000Y-33650000D03*
D10*
X33000000Y-122500000D03*
D13*
X33000000Y-130120000D03*
D16*
X45000000Y-108000000D03*
D17*
X45000000Y-119400000D03*
X45000000Y-111100000D03*
D16*
X51500000Y-91000000D03*
D17*
X51500000Y-102400000D03*
X51500000Y-94100000D03*
D20*
X54000000Y-138000000D03*
D21*
X56540000Y-138000000D03*
X54000000Y-135460000D03*
X56540000Y-135460000D03*
X54000000Y-132920000D03*
X56540000Y-132920000D03*
X54000000Y-130380000D03*
X56540000Y-130380000D03*
X54000000Y-127840000D03*
X56540000Y-127840000D03*
D22*
X45000000Y-103000000D03*
D23*
X45820000Y-130200000D02*
X48200000Y-130200000D01*
X48200000Y-130200000D02*
X50000000Y-132000000D01*
X56540000Y-138000000D02*
X54000000Y-138000000D01*
X51299511Y-135299511D02*
X51299511Y-133299511D01*
X54000000Y-138000000D02*
X51299511Y-135299511D01*
X51299511Y-133299511D02*
X50000000Y-132000000D01*
X54000000Y-127840000D02*
X37960978Y-127840000D01*
X35000000Y-130800978D02*
X35000000Y-137000000D01*
X35000000Y-137000000D02*
X37380000Y-137000000D01*
X56540000Y-127840000D02*
X54000000Y-127840000D01*
X37960978Y-127840000D02*
X35000000Y-130800978D01*
X37380000Y-137000000D02*
X38200000Y-137820000D01*
D24*
X33000000Y-107300000D02*
X33000000Y-88500000D01*
X30950489Y-50399511D02*
X35000000Y-46350000D01*
X32000000Y-87500000D02*
X30950489Y-86450489D01*
X33000000Y-88500000D02*
X32000000Y-87500000D01*
X30950489Y-86450489D02*
X30950489Y-50399511D01*
X34300000Y-82700000D02*
X32000000Y-85000000D01*
X36000000Y-74000000D02*
X40000000Y-70000000D01*
X36000000Y-82700000D02*
X34300000Y-82700000D01*
X36000000Y-82700000D02*
X36000000Y-74000000D01*
X42000000Y-106000000D02*
X42000000Y-123000000D01*
X45000000Y-103000000D02*
X42000000Y-106000000D01*
X32500000Y-71874345D02*
X32500000Y-72190000D01*
X41374345Y-63000000D02*
X32500000Y-71874345D01*
X49000000Y-63000000D02*
X42000000Y-63000000D01*
X42000000Y-63000000D02*
X41374345Y-63000000D01*
X39500000Y-63000000D02*
X37000000Y-63000000D01*
X50500000Y-80000000D02*
X53000000Y-80000000D01*
X49000000Y-81500000D02*
X50500000Y-80000000D01*
X55425000Y-82425000D02*
X53000000Y-80000000D01*
X49000000Y-83000000D02*
X49000000Y-81500000D01*
X55425000Y-110000000D02*
X55425000Y-82425000D01*
X52000000Y-69000000D02*
X53000000Y-68000000D01*
X54925480Y-85425480D02*
X53000000Y-83500000D01*
X54925480Y-107099520D02*
X54925480Y-85425480D01*
X53000000Y-68000000D02*
X53000000Y-46000000D01*
X52000000Y-76000000D02*
X52000000Y-69000000D01*
X52025000Y-110000000D02*
X54925480Y-107099520D01*
X48000000Y-80000000D02*
X52000000Y-76000000D01*
X54000000Y-123000000D02*
X58000000Y-123000000D01*
X52460000Y-117000000D02*
X52460000Y-121460000D01*
X52460000Y-121460000D02*
X54000000Y-123000000D01*
X46000000Y-108000000D02*
X45000000Y-108000000D01*
X55000000Y-117000000D02*
X46000000Y-108000000D01*
X51500000Y-102400000D02*
X49100000Y-100000000D01*
X36500000Y-100000000D02*
X34650000Y-98150000D01*
X34650000Y-98150000D02*
X34650000Y-87000000D01*
X49100000Y-100000000D02*
X36500000Y-100000000D01*
X33000000Y-120000000D02*
X38500000Y-114500000D01*
X38500000Y-114500000D02*
X38500000Y-102400000D01*
X45300000Y-119700000D02*
X45000000Y-119400000D01*
X45300000Y-123000000D02*
X45300000Y-119700000D01*
X45820000Y-132740000D02*
X45820000Y-135280000D01*
G04 #@! TA.AperFunction,Conductor*
G36*
X59434121Y-31528002D02*
G01*
X59480614Y-31581658D01*
X59492000Y-31634000D01*
X59492001Y-85998868D01*
X59492001Y-122555503D01*
X59471999Y-122623624D01*
X59418343Y-122670117D01*
X59348069Y-122680221D01*
X59283489Y-122650727D01*
X59244295Y-122588115D01*
X59235710Y-122556075D01*
X59235706Y-122556064D01*
X59234284Y-122550757D01*
X59139966Y-122348489D01*
X59139849Y-122348238D01*
X59139846Y-122348233D01*
X59137523Y-122343251D01*
X59006198Y-122155700D01*
X58844300Y-121993802D01*
X58839792Y-121990645D01*
X58839789Y-121990643D01*
X58747059Y-121925713D01*
X58656749Y-121862477D01*
X58651767Y-121860154D01*
X58651762Y-121860151D01*
X58454225Y-121768039D01*
X58454224Y-121768039D01*
X58449243Y-121765716D01*
X58443935Y-121764294D01*
X58443933Y-121764293D01*
X58233402Y-121707881D01*
X58233400Y-121707881D01*
X58228087Y-121706457D01*
X58000000Y-121686502D01*
X57771913Y-121706457D01*
X57766600Y-121707881D01*
X57766598Y-121707881D01*
X57556067Y-121764293D01*
X57556065Y-121764294D01*
X57550757Y-121765716D01*
X57545776Y-121768039D01*
X57545775Y-121768039D01*
X57348238Y-121860151D01*
X57348233Y-121860154D01*
X57343251Y-121862477D01*
X57252941Y-121925713D01*
X57160211Y-121990643D01*
X57160208Y-121990645D01*
X57155700Y-121993802D01*
X56993802Y-122155700D01*
X56990645Y-122160208D01*
X56990643Y-122160211D01*
X56901325Y-122287771D01*
X56845868Y-122332099D01*
X56798112Y-122341500D01*
X54324950Y-122341500D01*
X54256829Y-122321498D01*
X54235855Y-122304595D01*
X53155405Y-121224145D01*
X53121379Y-121161833D01*
X53118500Y-121135050D01*
X53118500Y-118323933D01*
X53138502Y-118255812D01*
X53179773Y-118215907D01*
X53183684Y-118213991D01*
X53187893Y-118210989D01*
X53187896Y-118210987D01*
X53267193Y-118154425D01*
X53372243Y-118079494D01*
X53417309Y-118034585D01*
X53479681Y-118000669D01*
X53550487Y-118005857D01*
X53607249Y-118048503D01*
X53624231Y-118079607D01*
X53640527Y-118123075D01*
X53649385Y-118146705D01*
X53736739Y-118263261D01*
X53853295Y-118350615D01*
X53989684Y-118401745D01*
X54051866Y-118408500D01*
X55948134Y-118408500D01*
X56010316Y-118401745D01*
X56146705Y-118350615D01*
X56263261Y-118263261D01*
X56350615Y-118146705D01*
X56401745Y-118010316D01*
X56408500Y-117948134D01*
X56408500Y-116051866D01*
X56401745Y-115989684D01*
X56350615Y-115853295D01*
X56263261Y-115736739D01*
X56146705Y-115649385D01*
X56010316Y-115598255D01*
X55948134Y-115591500D01*
X54574950Y-115591500D01*
X54506829Y-115571498D01*
X54485855Y-115554595D01*
X46523654Y-107592394D01*
X46515665Y-107583615D01*
X46515663Y-107583613D01*
X46511416Y-107576920D01*
X46505636Y-107571492D01*
X46502416Y-107567600D01*
X46474406Y-107502363D01*
X46473500Y-107487284D01*
X46473500Y-107036866D01*
X46466745Y-106974684D01*
X46415615Y-106838295D01*
X46328261Y-106721739D01*
X46211705Y-106634385D01*
X46075316Y-106583255D01*
X46013134Y-106576500D01*
X43986866Y-106576500D01*
X43924684Y-106583255D01*
X43788295Y-106634385D01*
X43671739Y-106721739D01*
X43584385Y-106838295D01*
X43533255Y-106974684D01*
X43526500Y-107036866D01*
X43526500Y-108963134D01*
X43533255Y-109025316D01*
X43584385Y-109161705D01*
X43671739Y-109278261D01*
X43788295Y-109365615D01*
X43924684Y-109416745D01*
X43986866Y-109423500D01*
X44302230Y-109423500D01*
X44370351Y-109443502D01*
X44416844Y-109497158D01*
X44426948Y-109567432D01*
X44397454Y-109632012D01*
X44350448Y-109665909D01*
X44288011Y-109691771D01*
X44288007Y-109691773D01*
X44283437Y-109693666D01*
X44072260Y-109823075D01*
X43883927Y-109983927D01*
X43723075Y-110172260D01*
X43593666Y-110383437D01*
X43498885Y-110612258D01*
X43497730Y-110617070D01*
X43442221Y-110848276D01*
X43442220Y-110848282D01*
X43441066Y-110853089D01*
X43421634Y-111100000D01*
X43441066Y-111346911D01*
X43442220Y-111351718D01*
X43442221Y-111351724D01*
X43478499Y-111502830D01*
X43498885Y-111587742D01*
X43593666Y-111816563D01*
X43723075Y-112027740D01*
X43883927Y-112216073D01*
X44072260Y-112376925D01*
X44283437Y-112506334D01*
X44288007Y-112508227D01*
X44288011Y-112508229D01*
X44507685Y-112599221D01*
X44512258Y-112601115D01*
X44597170Y-112621501D01*
X44748276Y-112657779D01*
X44748282Y-112657780D01*
X44753089Y-112658934D01*
X45000000Y-112678366D01*
X45246911Y-112658934D01*
X45251718Y-112657780D01*
X45251724Y-112657779D01*
X45402830Y-112621501D01*
X45487742Y-112601115D01*
X45492315Y-112599221D01*
X45711989Y-112508229D01*
X45711993Y-112508227D01*
X45716563Y-112506334D01*
X45927740Y-112376925D01*
X46116073Y-112216073D01*
X46276925Y-112027740D01*
X46406334Y-111816563D01*
X46501115Y-111587742D01*
X46521501Y-111502830D01*
X46557779Y-111351724D01*
X46557780Y-111351718D01*
X46558934Y-111346911D01*
X46578366Y-111100000D01*
X46558934Y-110853089D01*
X46557780Y-110848282D01*
X46557779Y-110848276D01*
X46502270Y-110617070D01*
X46501115Y-110612258D01*
X46406334Y-110383437D01*
X46276925Y-110172260D01*
X46116073Y-109983927D01*
X45927740Y-109823075D01*
X45716563Y-109693666D01*
X45711993Y-109691773D01*
X45711989Y-109691771D01*
X45649552Y-109665909D01*
X45594271Y-109621360D01*
X45571850Y-109553997D01*
X45589408Y-109485206D01*
X45641370Y-109436828D01*
X45697770Y-109423500D01*
X46013134Y-109423500D01*
X46075316Y-109416745D01*
X46211705Y-109365615D01*
X46251557Y-109335747D01*
X46318065Y-109310899D01*
X46387447Y-109325952D01*
X46416218Y-109347478D01*
X52444311Y-115375571D01*
X52478337Y-115437883D01*
X52473272Y-115508698D01*
X52430725Y-115565534D01*
X52364560Y-115590154D01*
X52361411Y-115590116D01*
X52132464Y-115625150D01*
X51912314Y-115697106D01*
X51907726Y-115699494D01*
X51907722Y-115699496D01*
X51711461Y-115801663D01*
X51706872Y-115804052D01*
X51702739Y-115807155D01*
X51702736Y-115807157D01*
X51630088Y-115861703D01*
X51521655Y-115943117D01*
X51361639Y-116110564D01*
X51231119Y-116301899D01*
X51133602Y-116511981D01*
X51071707Y-116735169D01*
X51047095Y-116965469D01*
X51060427Y-117196697D01*
X51061564Y-117201743D01*
X51061565Y-117201749D01*
X51093741Y-117344523D01*
X51111346Y-117422642D01*
X51198484Y-117637237D01*
X51201183Y-117641641D01*
X51311483Y-117821634D01*
X51319501Y-117834719D01*
X51471147Y-118009784D01*
X51649349Y-118157730D01*
X51653816Y-118160340D01*
X51739070Y-118210158D01*
X51787794Y-118261796D01*
X51801500Y-118318946D01*
X51801500Y-121377944D01*
X51800941Y-121389800D01*
X51799212Y-121397537D01*
X51799461Y-121405459D01*
X51801438Y-121468369D01*
X51801500Y-121472327D01*
X51801500Y-121501432D01*
X51802056Y-121505832D01*
X51802988Y-121517664D01*
X51804438Y-121563831D01*
X51809800Y-121582285D01*
X51810419Y-121584416D01*
X51814430Y-121603782D01*
X51817118Y-121625064D01*
X51820034Y-121632429D01*
X51820035Y-121632433D01*
X51834126Y-121668021D01*
X51837965Y-121679231D01*
X51850855Y-121723600D01*
X51861775Y-121742065D01*
X51870466Y-121759805D01*
X51878365Y-121779756D01*
X51905516Y-121817126D01*
X51912033Y-121827048D01*
X51931507Y-121859977D01*
X51931510Y-121859981D01*
X51935547Y-121866807D01*
X51950711Y-121881971D01*
X51963551Y-121897004D01*
X51976159Y-121914357D01*
X51990758Y-121926434D01*
X52011752Y-121943802D01*
X52020532Y-121951792D01*
X53476345Y-123407605D01*
X53484335Y-123416385D01*
X53488584Y-123423080D01*
X53494362Y-123428506D01*
X53494363Y-123428507D01*
X53540257Y-123471604D01*
X53543099Y-123474359D01*
X53563667Y-123494927D01*
X53567170Y-123497644D01*
X53576195Y-123505352D01*
X53609867Y-123536972D01*
X53616818Y-123540793D01*
X53616819Y-123540794D01*
X53628658Y-123547303D01*
X53645182Y-123558157D01*
X53655271Y-123565982D01*
X53662132Y-123571304D01*
X53669404Y-123574451D01*
X53669406Y-123574452D01*
X53704535Y-123589654D01*
X53715196Y-123594876D01*
X53755663Y-123617124D01*
X53776441Y-123622459D01*
X53795131Y-123628858D01*
X53814824Y-123637380D01*
X53858596Y-123644313D01*
X53860448Y-123644606D01*
X53872071Y-123647013D01*
X53900072Y-123654202D01*
X53916812Y-123658500D01*
X53938259Y-123658500D01*
X53957969Y-123660051D01*
X53979152Y-123663406D01*
X54025141Y-123659059D01*
X54036996Y-123658500D01*
X56798112Y-123658500D01*
X56866233Y-123678502D01*
X56901325Y-123712229D01*
X56964005Y-123801745D01*
X56993802Y-123844300D01*
X57155700Y-124006198D01*
X57160208Y-124009355D01*
X57160211Y-124009357D01*
X57238389Y-124064098D01*
X57343251Y-124137523D01*
X57348233Y-124139846D01*
X57348238Y-124139849D01*
X57544765Y-124231490D01*
X57550757Y-124234284D01*
X57556065Y-124235706D01*
X57556067Y-124235707D01*
X57766598Y-124292119D01*
X57766600Y-124292119D01*
X57771913Y-124293543D01*
X58000000Y-124313498D01*
X58228087Y-124293543D01*
X58233400Y-124292119D01*
X58233402Y-124292119D01*
X58443933Y-124235707D01*
X58443935Y-124235706D01*
X58449243Y-124234284D01*
X58455235Y-124231490D01*
X58651762Y-124139849D01*
X58651767Y-124139846D01*
X58656749Y-124137523D01*
X58761611Y-124064098D01*
X58839789Y-124009357D01*
X58839792Y-124009355D01*
X58844300Y-124006198D01*
X59006198Y-123844300D01*
X59035996Y-123801745D01*
X59129195Y-123668642D01*
X59137523Y-123656749D01*
X59139846Y-123651767D01*
X59139849Y-123651762D01*
X59231961Y-123454225D01*
X59231961Y-123454224D01*
X59234284Y-123449243D01*
X59235707Y-123443933D01*
X59235710Y-123443925D01*
X59244295Y-123411885D01*
X59281246Y-123351263D01*
X59345107Y-123320241D01*
X59415602Y-123328670D01*
X59470348Y-123373874D01*
X59492001Y-123444497D01*
X59492001Y-140366000D01*
X59471999Y-140434121D01*
X59418343Y-140480614D01*
X59366001Y-140492000D01*
X30634000Y-140492000D01*
X30565879Y-140471998D01*
X30519386Y-140418342D01*
X30508000Y-140366000D01*
X30508000Y-137844669D01*
X31692001Y-137844669D01*
X31692371Y-137851490D01*
X31697895Y-137902352D01*
X31701521Y-137917604D01*
X31746676Y-138038054D01*
X31755214Y-138053649D01*
X31831715Y-138155724D01*
X31844276Y-138168285D01*
X31946351Y-138244786D01*
X31961946Y-138253324D01*
X32082394Y-138298478D01*
X32097649Y-138302105D01*
X32148514Y-138307631D01*
X32155328Y-138308000D01*
X32727885Y-138308000D01*
X32743124Y-138303525D01*
X32744329Y-138302135D01*
X32746000Y-138294452D01*
X32746000Y-137272115D01*
X32741525Y-137256876D01*
X32740135Y-137255671D01*
X32732452Y-137254000D01*
X31710116Y-137254000D01*
X31694877Y-137258475D01*
X31693672Y-137259865D01*
X31692001Y-137267548D01*
X31692001Y-137844669D01*
X30508000Y-137844669D01*
X30508000Y-136727885D01*
X31692000Y-136727885D01*
X31696475Y-136743124D01*
X31697865Y-136744329D01*
X31705548Y-136746000D01*
X32727885Y-136746000D01*
X32743124Y-136741525D01*
X32744329Y-136740135D01*
X32746000Y-136732452D01*
X32746000Y-135710116D01*
X32741525Y-135694877D01*
X32740135Y-135693672D01*
X32732452Y-135692001D01*
X32155331Y-135692001D01*
X32148510Y-135692371D01*
X32097648Y-135697895D01*
X32082396Y-135701521D01*
X31961946Y-135746676D01*
X31946351Y-135755214D01*
X31844276Y-135831715D01*
X31831715Y-135844276D01*
X31755214Y-135946351D01*
X31746676Y-135961946D01*
X31701522Y-136082394D01*
X31697895Y-136097649D01*
X31692369Y-136148514D01*
X31692000Y-136155328D01*
X31692000Y-136727885D01*
X30508000Y-136727885D01*
X30508000Y-130120000D01*
X31686502Y-130120000D01*
X31706457Y-130348087D01*
X31707881Y-130353400D01*
X31707881Y-130353402D01*
X31736764Y-130461192D01*
X31765716Y-130569243D01*
X31768039Y-130574224D01*
X31768039Y-130574225D01*
X31860151Y-130771762D01*
X31860154Y-130771767D01*
X31862477Y-130776749D01*
X31993802Y-130964300D01*
X32155700Y-131126198D01*
X32160208Y-131129355D01*
X32160211Y-131129357D01*
X32233084Y-131180383D01*
X32343251Y-131257523D01*
X32348233Y-131259846D01*
X32348238Y-131259849D01*
X32545775Y-131351961D01*
X32550757Y-131354284D01*
X32556065Y-131355706D01*
X32556067Y-131355707D01*
X32766598Y-131412119D01*
X32766600Y-131412119D01*
X32771913Y-131413543D01*
X33000000Y-131433498D01*
X33228087Y-131413543D01*
X33233400Y-131412119D01*
X33233402Y-131412119D01*
X33443933Y-131355707D01*
X33443935Y-131355706D01*
X33449243Y-131354284D01*
X33454225Y-131351961D01*
X33651762Y-131259849D01*
X33651767Y-131259846D01*
X33656749Y-131257523D01*
X33766916Y-131180383D01*
X33839789Y-131129357D01*
X33839792Y-131129355D01*
X33844300Y-131126198D01*
X33976405Y-130994093D01*
X34038717Y-130960067D01*
X34109532Y-130965132D01*
X34166368Y-131007679D01*
X34191179Y-131074199D01*
X34191500Y-131083188D01*
X34191500Y-135622402D01*
X34171498Y-135690523D01*
X34117842Y-135737016D01*
X34047568Y-135747120D01*
X34021270Y-135740384D01*
X33917606Y-135701522D01*
X33902351Y-135697895D01*
X33851486Y-135692369D01*
X33844672Y-135692000D01*
X33272115Y-135692000D01*
X33256876Y-135696475D01*
X33255671Y-135697865D01*
X33254000Y-135705548D01*
X33254000Y-138289884D01*
X33258475Y-138305123D01*
X33259865Y-138306328D01*
X33267548Y-138307999D01*
X33844669Y-138307999D01*
X33851490Y-138307629D01*
X33902352Y-138302105D01*
X33917604Y-138298479D01*
X34038054Y-138253324D01*
X34053649Y-138244786D01*
X34155724Y-138168285D01*
X34174636Y-138149373D01*
X34176894Y-138151631D01*
X34221154Y-138118543D01*
X34291973Y-138113524D01*
X34333840Y-138131861D01*
X34333981Y-138131617D01*
X34336177Y-138132885D01*
X34337376Y-138133410D01*
X34338738Y-138134363D01*
X34343251Y-138137523D01*
X34348233Y-138139846D01*
X34348238Y-138139849D01*
X34545775Y-138231961D01*
X34550757Y-138234284D01*
X34556065Y-138235706D01*
X34556067Y-138235707D01*
X34766598Y-138292119D01*
X34766600Y-138292119D01*
X34771913Y-138293543D01*
X35000000Y-138313498D01*
X35228087Y-138293543D01*
X35233400Y-138292119D01*
X35233402Y-138292119D01*
X35443933Y-138235707D01*
X35443935Y-138235706D01*
X35449243Y-138234284D01*
X35454225Y-138231961D01*
X35651762Y-138139849D01*
X35651767Y-138139846D01*
X35656749Y-138137523D01*
X35776886Y-138053402D01*
X35839789Y-138009357D01*
X35839792Y-138009355D01*
X35844300Y-138006198D01*
X36005093Y-137845405D01*
X36067405Y-137811379D01*
X36094188Y-137808500D01*
X36770038Y-137808500D01*
X36838159Y-137828502D01*
X36884652Y-137882158D01*
X36895559Y-137923519D01*
X36905977Y-138042606D01*
X36905978Y-138042611D01*
X36906457Y-138048087D01*
X36907881Y-138053400D01*
X36907881Y-138053402D01*
X36929576Y-138134366D01*
X36965716Y-138269243D01*
X36968039Y-138274224D01*
X36968039Y-138274225D01*
X37060151Y-138471762D01*
X37060154Y-138471767D01*
X37062477Y-138476749D01*
X37193802Y-138664300D01*
X37355700Y-138826198D01*
X37360208Y-138829355D01*
X37360211Y-138829357D01*
X37431526Y-138879292D01*
X37543251Y-138957523D01*
X37548233Y-138959846D01*
X37548238Y-138959849D01*
X37722640Y-139041173D01*
X37750757Y-139054284D01*
X37756065Y-139055706D01*
X37756067Y-139055707D01*
X37966598Y-139112119D01*
X37966600Y-139112119D01*
X37971913Y-139113543D01*
X38200000Y-139133498D01*
X38428087Y-139113543D01*
X38433400Y-139112119D01*
X38433402Y-139112119D01*
X38643933Y-139055707D01*
X38643935Y-139055706D01*
X38649243Y-139054284D01*
X38677360Y-139041173D01*
X38851762Y-138959849D01*
X38851767Y-138959846D01*
X38856749Y-138957523D01*
X38968474Y-138879292D01*
X39039789Y-138829357D01*
X39039792Y-138829355D01*
X39044300Y-138826198D01*
X39206198Y-138664300D01*
X39337523Y-138476749D01*
X39339846Y-138471767D01*
X39339849Y-138471762D01*
X39431961Y-138274225D01*
X39431961Y-138274224D01*
X39434284Y-138269243D01*
X39470425Y-138134366D01*
X39492119Y-138053402D01*
X39492119Y-138053400D01*
X39493543Y-138048087D01*
X39513498Y-137820000D01*
X39493543Y-137591913D01*
X39483908Y-137555954D01*
X39435707Y-137376067D01*
X39435706Y-137376065D01*
X39434284Y-137370757D01*
X39388287Y-137272115D01*
X39339849Y-137168238D01*
X39339846Y-137168233D01*
X39337523Y-137163251D01*
X39228024Y-137006870D01*
X39209357Y-136980211D01*
X39209355Y-136980208D01*
X39206198Y-136975700D01*
X39044300Y-136813802D01*
X39039792Y-136810645D01*
X39039789Y-136810643D01*
X38947469Y-136746000D01*
X38856749Y-136682477D01*
X38851767Y-136680154D01*
X38851762Y-136680151D01*
X38817543Y-136664195D01*
X38764258Y-136617278D01*
X38744797Y-136549001D01*
X38765339Y-136481041D01*
X38817543Y-136435805D01*
X38851762Y-136419849D01*
X38851767Y-136419846D01*
X38856749Y-136417523D01*
X38968941Y-136338965D01*
X39039789Y-136289357D01*
X39039792Y-136289355D01*
X39044300Y-136286198D01*
X39206198Y-136124300D01*
X39224860Y-136097649D01*
X39297975Y-135993229D01*
X39337523Y-135936749D01*
X39339846Y-135931767D01*
X39339849Y-135931762D01*
X39431961Y-135734225D01*
X39431961Y-135734224D01*
X39434284Y-135729243D01*
X39438369Y-135714000D01*
X39492119Y-135513402D01*
X39492119Y-135513400D01*
X39493543Y-135508087D01*
X39513498Y-135280000D01*
X39493543Y-135051913D01*
X39478151Y-134994470D01*
X39435707Y-134836067D01*
X39435706Y-134836065D01*
X39434284Y-134830757D01*
X39379396Y-134713048D01*
X39339849Y-134628238D01*
X39339846Y-134628233D01*
X39337523Y-134623251D01*
X39219049Y-134454053D01*
X39209357Y-134440211D01*
X39209355Y-134440208D01*
X39206198Y-134435700D01*
X39044300Y-134273802D01*
X39039792Y-134270645D01*
X39039789Y-134270643D01*
X38913159Y-134181976D01*
X38856749Y-134142477D01*
X38851767Y-134140154D01*
X38851762Y-134140151D01*
X38817543Y-134124195D01*
X38764258Y-134077278D01*
X38744797Y-134009001D01*
X38765339Y-133941041D01*
X38817543Y-133895805D01*
X38851762Y-133879849D01*
X38851767Y-133879846D01*
X38856749Y-133877523D01*
X38968941Y-133798965D01*
X39039789Y-133749357D01*
X39039792Y-133749355D01*
X39044300Y-133746198D01*
X39206198Y-133584300D01*
X39337523Y-133396749D01*
X39339846Y-133391767D01*
X39339849Y-133391762D01*
X39431961Y-133194225D01*
X39431961Y-133194224D01*
X39434284Y-133189243D01*
X39437529Y-133177135D01*
X39492119Y-132973402D01*
X39492119Y-132973400D01*
X39493543Y-132968087D01*
X39513498Y-132740000D01*
X39493543Y-132511913D01*
X39478151Y-132454470D01*
X39435707Y-132296067D01*
X39435706Y-132296065D01*
X39434284Y-132290757D01*
X39400337Y-132217957D01*
X39339849Y-132088238D01*
X39339846Y-132088233D01*
X39337523Y-132083251D01*
X39223364Y-131920215D01*
X39209357Y-131900211D01*
X39209355Y-131900208D01*
X39206198Y-131895700D01*
X39044300Y-131733802D01*
X39039789Y-131730643D01*
X39035576Y-131727108D01*
X39036527Y-131725974D01*
X38996529Y-131675929D01*
X38989224Y-131605310D01*
X39021258Y-131541951D01*
X39082462Y-131505970D01*
X39099517Y-131502918D01*
X39110316Y-131501745D01*
X39246705Y-131450615D01*
X39363261Y-131363261D01*
X39450615Y-131246705D01*
X39501745Y-131110316D01*
X39508500Y-131048134D01*
X39508500Y-129351866D01*
X39501745Y-129289684D01*
X39450615Y-129153295D01*
X39363261Y-129036739D01*
X39246705Y-128949385D01*
X39110316Y-128898255D01*
X39102460Y-128897402D01*
X39101120Y-128897083D01*
X39039473Y-128861865D01*
X39006653Y-128798910D01*
X39013079Y-128728205D01*
X39056711Y-128672198D01*
X39130266Y-128648500D01*
X45654495Y-128648500D01*
X45722616Y-128668502D01*
X45769109Y-128722158D01*
X45779213Y-128792432D01*
X45749719Y-128857012D01*
X45689993Y-128895396D01*
X45665477Y-128900021D01*
X45591913Y-128906457D01*
X45586600Y-128907881D01*
X45586598Y-128907881D01*
X45376067Y-128964293D01*
X45376065Y-128964294D01*
X45370757Y-128965716D01*
X45365776Y-128968039D01*
X45365775Y-128968039D01*
X45168238Y-129060151D01*
X45168233Y-129060154D01*
X45163251Y-129062477D01*
X45153453Y-129069338D01*
X44980211Y-129190643D01*
X44980208Y-129190645D01*
X44975700Y-129193802D01*
X44813802Y-129355700D01*
X44810645Y-129360208D01*
X44810643Y-129360211D01*
X44776343Y-129409197D01*
X44682477Y-129543251D01*
X44680154Y-129548233D01*
X44680151Y-129548238D01*
X44639767Y-129634843D01*
X44585716Y-129750757D01*
X44584294Y-129756065D01*
X44584293Y-129756067D01*
X44541849Y-129914470D01*
X44526457Y-129971913D01*
X44506502Y-130200000D01*
X44526457Y-130428087D01*
X44527881Y-130433400D01*
X44527881Y-130433402D01*
X44581632Y-130634000D01*
X44585716Y-130649243D01*
X44588039Y-130654224D01*
X44588039Y-130654225D01*
X44680151Y-130851762D01*
X44680154Y-130851767D01*
X44682477Y-130856749D01*
X44745048Y-130946109D01*
X44788160Y-131007679D01*
X44813802Y-131044300D01*
X44975700Y-131206198D01*
X44980208Y-131209355D01*
X44980211Y-131209357D01*
X45021542Y-131238297D01*
X45163251Y-131337523D01*
X45168233Y-131339846D01*
X45168238Y-131339849D01*
X45202457Y-131355805D01*
X45255742Y-131402722D01*
X45275203Y-131470999D01*
X45254661Y-131538959D01*
X45202457Y-131584195D01*
X45168238Y-131600151D01*
X45168233Y-131600154D01*
X45163251Y-131602477D01*
X45079782Y-131660923D01*
X44980211Y-131730643D01*
X44980208Y-131730645D01*
X44975700Y-131733802D01*
X44813802Y-131895700D01*
X44810645Y-131900208D01*
X44810643Y-131900211D01*
X44796636Y-131920215D01*
X44682477Y-132083251D01*
X44680154Y-132088233D01*
X44680151Y-132088238D01*
X44619663Y-132217957D01*
X44585716Y-132290757D01*
X44584294Y-132296065D01*
X44584293Y-132296067D01*
X44541849Y-132454470D01*
X44526457Y-132511913D01*
X44506502Y-132740000D01*
X44526457Y-132968087D01*
X44527881Y-132973400D01*
X44527881Y-132973402D01*
X44582472Y-133177135D01*
X44585716Y-133189243D01*
X44588039Y-133194224D01*
X44588039Y-133194225D01*
X44680151Y-133391762D01*
X44680154Y-133391767D01*
X44682477Y-133396749D01*
X44813802Y-133584300D01*
X44975700Y-133746198D01*
X44980208Y-133749355D01*
X44980211Y-133749357D01*
X45038315Y-133790042D01*
X45107772Y-133838676D01*
X45152099Y-133894132D01*
X45161500Y-133941888D01*
X45161500Y-134078112D01*
X45141498Y-134146233D01*
X45107772Y-134181324D01*
X45038315Y-134229958D01*
X44980211Y-134270643D01*
X44980208Y-134270645D01*
X44975700Y-134273802D01*
X44813802Y-134435700D01*
X44810645Y-134440208D01*
X44810643Y-134440211D01*
X44800951Y-134454053D01*
X44682477Y-134623251D01*
X44680154Y-134628233D01*
X44680151Y-134628238D01*
X44640604Y-134713048D01*
X44585716Y-134830757D01*
X44584294Y-134836065D01*
X44584293Y-134836067D01*
X44541849Y-134994470D01*
X44526457Y-135051913D01*
X44506502Y-135280000D01*
X44526457Y-135508087D01*
X44527881Y-135513400D01*
X44527881Y-135513402D01*
X44581632Y-135714000D01*
X44585716Y-135729243D01*
X44588039Y-135734224D01*
X44588039Y-135734225D01*
X44680151Y-135931762D01*
X44680154Y-135931767D01*
X44682477Y-135936749D01*
X44722025Y-135993229D01*
X44795141Y-136097649D01*
X44813802Y-136124300D01*
X44975700Y-136286198D01*
X44980208Y-136289355D01*
X44980211Y-136289357D01*
X45051059Y-136338965D01*
X45163251Y-136417523D01*
X45168233Y-136419846D01*
X45168238Y-136419849D01*
X45202457Y-136435805D01*
X45255742Y-136482722D01*
X45275203Y-136550999D01*
X45254661Y-136618959D01*
X45202457Y-136664195D01*
X45168238Y-136680151D01*
X45168233Y-136680154D01*
X45163251Y-136682477D01*
X45072531Y-136746000D01*
X44980211Y-136810643D01*
X44980208Y-136810645D01*
X44975700Y-136813802D01*
X44813802Y-136975700D01*
X44810645Y-136980208D01*
X44810643Y-136980211D01*
X44791976Y-137006870D01*
X44682477Y-137163251D01*
X44680154Y-137168233D01*
X44680151Y-137168238D01*
X44631713Y-137272115D01*
X44585716Y-137370757D01*
X44584294Y-137376065D01*
X44584293Y-137376067D01*
X44536092Y-137555954D01*
X44526457Y-137591913D01*
X44506502Y-137820000D01*
X44526457Y-138048087D01*
X44527881Y-138053400D01*
X44527881Y-138053402D01*
X44549576Y-138134366D01*
X44585716Y-138269243D01*
X44588039Y-138274224D01*
X44588039Y-138274225D01*
X44680151Y-138471762D01*
X44680154Y-138471767D01*
X44682477Y-138476749D01*
X44813802Y-138664300D01*
X44975700Y-138826198D01*
X44980208Y-138829355D01*
X44980211Y-138829357D01*
X45051526Y-138879292D01*
X45163251Y-138957523D01*
X45168233Y-138959846D01*
X45168238Y-138959849D01*
X45342640Y-139041173D01*
X45370757Y-139054284D01*
X45376065Y-139055706D01*
X45376067Y-139055707D01*
X45586598Y-139112119D01*
X45586600Y-139112119D01*
X45591913Y-139113543D01*
X45820000Y-139133498D01*
X46048087Y-139113543D01*
X46053400Y-139112119D01*
X46053402Y-139112119D01*
X46263933Y-139055707D01*
X46263935Y-139055706D01*
X46269243Y-139054284D01*
X46297360Y-139041173D01*
X46471762Y-138959849D01*
X46471767Y-138959846D01*
X46476749Y-138957523D01*
X46588474Y-138879292D01*
X46659789Y-138829357D01*
X46659792Y-138829355D01*
X46664300Y-138826198D01*
X46826198Y-138664300D01*
X46957523Y-138476749D01*
X46959846Y-138471767D01*
X46959849Y-138471762D01*
X47051961Y-138274225D01*
X47051961Y-138274224D01*
X47054284Y-138269243D01*
X47090425Y-138134366D01*
X47112119Y-138053402D01*
X47112119Y-138053400D01*
X47113543Y-138048087D01*
X47133498Y-137820000D01*
X47113543Y-137591913D01*
X47103908Y-137555954D01*
X47055707Y-137376067D01*
X47055706Y-137376065D01*
X47054284Y-137370757D01*
X47008287Y-137272115D01*
X46959849Y-137168238D01*
X46959846Y-137168233D01*
X46957523Y-137163251D01*
X46848024Y-137006870D01*
X46829357Y-136980211D01*
X46829355Y-136980208D01*
X46826198Y-136975700D01*
X46664300Y-136813802D01*
X46659792Y-136810645D01*
X46659789Y-136810643D01*
X46567469Y-136746000D01*
X46476749Y-136682477D01*
X46471767Y-136680154D01*
X46471762Y-136680151D01*
X46437543Y-136664195D01*
X46384258Y-136617278D01*
X46364797Y-136549001D01*
X46385339Y-136481041D01*
X46437543Y-136435805D01*
X46471762Y-136419849D01*
X46471767Y-136419846D01*
X46476749Y-136417523D01*
X46588941Y-136338965D01*
X46659789Y-136289357D01*
X46659792Y-136289355D01*
X46664300Y-136286198D01*
X46826198Y-136124300D01*
X46844860Y-136097649D01*
X46917975Y-135993229D01*
X46957523Y-135936749D01*
X46959846Y-135931767D01*
X46959849Y-135931762D01*
X47051961Y-135734225D01*
X47051961Y-135734224D01*
X47054284Y-135729243D01*
X47058369Y-135714000D01*
X47112119Y-135513402D01*
X47112119Y-135513400D01*
X47113543Y-135508087D01*
X47133498Y-135280000D01*
X47113543Y-135051913D01*
X47098151Y-134994470D01*
X47055707Y-134836067D01*
X47055706Y-134836065D01*
X47054284Y-134830757D01*
X46999396Y-134713048D01*
X46959849Y-134628238D01*
X46959846Y-134628233D01*
X46957523Y-134623251D01*
X46839049Y-134454053D01*
X46829357Y-134440211D01*
X46829355Y-134440208D01*
X46826198Y-134435700D01*
X46664300Y-134273802D01*
X46659792Y-134270645D01*
X46659789Y-134270643D01*
X46601685Y-134229958D01*
X46532228Y-134181324D01*
X46487901Y-134125868D01*
X46478500Y-134078112D01*
X46478500Y-133941888D01*
X46498502Y-133873767D01*
X46532228Y-133838676D01*
X46601685Y-133790042D01*
X46659789Y-133749357D01*
X46659792Y-133749355D01*
X46664300Y-133746198D01*
X46826198Y-133584300D01*
X46957523Y-133396749D01*
X46959846Y-133391767D01*
X46959849Y-133391762D01*
X47051961Y-133194225D01*
X47051961Y-133194224D01*
X47054284Y-133189243D01*
X47057529Y-133177135D01*
X47112119Y-132973402D01*
X47112119Y-132973400D01*
X47113543Y-132968087D01*
X47133498Y-132740000D01*
X47113543Y-132511913D01*
X47098151Y-132454470D01*
X47055707Y-132296067D01*
X47055706Y-132296065D01*
X47054284Y-132290757D01*
X47020337Y-132217957D01*
X46959849Y-132088238D01*
X46959846Y-132088233D01*
X46957523Y-132083251D01*
X46843364Y-131920215D01*
X46829357Y-131900211D01*
X46829355Y-131900208D01*
X46826198Y-131895700D01*
X46664300Y-131733802D01*
X46659792Y-131730645D01*
X46659789Y-131730643D01*
X46560218Y-131660923D01*
X46476749Y-131602477D01*
X46471767Y-131600154D01*
X46471762Y-131600151D01*
X46437543Y-131584195D01*
X46384258Y-131537278D01*
X46364797Y-131469001D01*
X46385339Y-131401041D01*
X46437543Y-131355805D01*
X46471762Y-131339849D01*
X46471767Y-131339846D01*
X46476749Y-131337523D01*
X46618458Y-131238297D01*
X46659789Y-131209357D01*
X46659792Y-131209355D01*
X46664300Y-131206198D01*
X46825093Y-131045405D01*
X46887405Y-131011379D01*
X46914188Y-131008500D01*
X47812918Y-131008500D01*
X47881039Y-131028502D01*
X47902013Y-131045405D01*
X48654595Y-131797987D01*
X48688621Y-131860299D01*
X48691500Y-131887082D01*
X48691500Y-132848134D01*
X48698255Y-132910316D01*
X48749385Y-133046705D01*
X48754771Y-133053891D01*
X48831355Y-133156078D01*
X48831358Y-133156081D01*
X48836739Y-133163261D01*
X48843919Y-133168642D01*
X48850270Y-133174993D01*
X48848128Y-133177135D01*
X48881564Y-133221846D01*
X48886594Y-133292664D01*
X48868477Y-133334035D01*
X48868818Y-133334232D01*
X48867048Y-133337298D01*
X48866701Y-133338090D01*
X48866071Y-133338989D01*
X48860586Y-133348489D01*
X48768510Y-133545947D01*
X48764764Y-133556239D01*
X48708375Y-133766688D01*
X48706472Y-133777481D01*
X48687483Y-133994525D01*
X48687483Y-134005475D01*
X48706472Y-134222519D01*
X48708375Y-134233312D01*
X48764764Y-134443761D01*
X48768510Y-134454053D01*
X48860586Y-134651511D01*
X48866069Y-134661006D01*
X48902509Y-134713048D01*
X48912988Y-134721424D01*
X48926434Y-134714356D01*
X49910905Y-133729885D01*
X49973217Y-133695859D01*
X50044032Y-133700924D01*
X50089095Y-133729885D01*
X50270115Y-133910905D01*
X50304141Y-133973217D01*
X50299076Y-134044032D01*
X50270115Y-134089095D01*
X49284923Y-135074287D01*
X49278493Y-135086062D01*
X49287789Y-135098077D01*
X49338994Y-135133931D01*
X49348489Y-135139414D01*
X49545947Y-135231490D01*
X49556239Y-135235236D01*
X49766688Y-135291625D01*
X49777481Y-135293528D01*
X49994525Y-135312517D01*
X50005475Y-135312517D01*
X50222519Y-135293528D01*
X50233312Y-135291625D01*
X50332111Y-135265152D01*
X50403087Y-135266842D01*
X50461883Y-135306636D01*
X50490077Y-135374125D01*
X50490134Y-135374685D01*
X50490060Y-135381732D01*
X50499222Y-135424108D01*
X50501280Y-135436674D01*
X50506114Y-135479766D01*
X50508430Y-135486417D01*
X50508431Y-135486421D01*
X50517144Y-135511441D01*
X50521307Y-135526253D01*
X50528392Y-135559021D01*
X50546719Y-135598324D01*
X50551501Y-135610100D01*
X50565766Y-135651063D01*
X50569500Y-135657038D01*
X50569501Y-135657041D01*
X50583538Y-135679506D01*
X50590877Y-135693023D01*
X50602070Y-135717025D01*
X50605049Y-135723413D01*
X50609366Y-135728978D01*
X50609367Y-135728980D01*
X50631617Y-135757664D01*
X50638913Y-135768123D01*
X50661885Y-135804887D01*
X50666845Y-135809882D01*
X50666846Y-135809883D01*
X50690487Y-135833690D01*
X50691072Y-135834315D01*
X50691589Y-135834981D01*
X50717579Y-135860971D01*
X50789696Y-135933593D01*
X50790733Y-135934251D01*
X50791962Y-135935354D01*
X52604595Y-137747987D01*
X52638621Y-137810299D01*
X52641500Y-137837082D01*
X52641500Y-138898134D01*
X52648255Y-138960316D01*
X52699385Y-139096705D01*
X52786739Y-139213261D01*
X52903295Y-139300615D01*
X53039684Y-139351745D01*
X53101866Y-139358500D01*
X54898134Y-139358500D01*
X54960316Y-139351745D01*
X55096705Y-139300615D01*
X55213261Y-139213261D01*
X55300615Y-139096705D01*
X55305346Y-139084086D01*
X55344598Y-138979382D01*
X55387240Y-138922618D01*
X55453802Y-138897918D01*
X55523150Y-138913126D01*
X55557817Y-138941114D01*
X55586250Y-138973938D01*
X55758126Y-139116632D01*
X55951000Y-139229338D01*
X56159692Y-139309030D01*
X56164760Y-139310061D01*
X56164763Y-139310062D01*
X56272017Y-139331883D01*
X56378597Y-139353567D01*
X56383772Y-139353757D01*
X56383774Y-139353757D01*
X56596673Y-139361564D01*
X56596677Y-139361564D01*
X56601837Y-139361753D01*
X56606957Y-139361097D01*
X56606959Y-139361097D01*
X56818288Y-139334025D01*
X56818289Y-139334025D01*
X56823416Y-139333368D01*
X56828366Y-139331883D01*
X57032429Y-139270661D01*
X57032434Y-139270659D01*
X57037384Y-139269174D01*
X57237994Y-139170896D01*
X57419860Y-139041173D01*
X57578096Y-138883489D01*
X57708453Y-138702077D01*
X57725198Y-138668197D01*
X57805136Y-138506453D01*
X57805137Y-138506451D01*
X57807430Y-138501811D01*
X57864790Y-138313019D01*
X57870865Y-138293023D01*
X57870865Y-138293021D01*
X57872370Y-138288069D01*
X57901529Y-138066590D01*
X57902226Y-138038054D01*
X57903074Y-138003365D01*
X57903074Y-138003361D01*
X57903156Y-138000000D01*
X57884852Y-137777361D01*
X57830431Y-137560702D01*
X57741354Y-137355840D01*
X57620014Y-137168277D01*
X57469670Y-137003051D01*
X57465619Y-136999852D01*
X57465615Y-136999848D01*
X57298414Y-136867800D01*
X57298410Y-136867798D01*
X57294359Y-136864598D01*
X57252569Y-136841529D01*
X57202598Y-136791097D01*
X57187826Y-136721654D01*
X57212942Y-136655248D01*
X57240294Y-136628641D01*
X57415328Y-136503792D01*
X57423200Y-136497139D01*
X57574052Y-136346812D01*
X57580730Y-136338965D01*
X57705003Y-136166020D01*
X57710313Y-136157183D01*
X57804670Y-135966267D01*
X57808469Y-135956672D01*
X57870377Y-135752910D01*
X57872555Y-135742837D01*
X57873986Y-135731962D01*
X57871775Y-135717778D01*
X57858617Y-135714000D01*
X53872000Y-135714000D01*
X53803879Y-135693998D01*
X53757386Y-135640342D01*
X53746000Y-135588000D01*
X53746000Y-135187885D01*
X54254000Y-135187885D01*
X54258475Y-135203124D01*
X54259865Y-135204329D01*
X54267548Y-135206000D01*
X56267885Y-135206000D01*
X56283124Y-135201525D01*
X56284329Y-135200135D01*
X56286000Y-135192452D01*
X56286000Y-135187885D01*
X56794000Y-135187885D01*
X56798475Y-135203124D01*
X56799865Y-135204329D01*
X56807548Y-135206000D01*
X57858344Y-135206000D01*
X57871875Y-135202027D01*
X57873180Y-135192947D01*
X57831214Y-135025875D01*
X57827894Y-135016124D01*
X57742972Y-134820814D01*
X57738105Y-134811739D01*
X57622426Y-134632926D01*
X57616136Y-134624757D01*
X57472806Y-134467240D01*
X57465273Y-134460215D01*
X57298139Y-134328222D01*
X57289552Y-134322517D01*
X57252116Y-134301851D01*
X57202146Y-134251419D01*
X57187374Y-134181976D01*
X57212490Y-134115571D01*
X57239842Y-134088964D01*
X57415327Y-133963792D01*
X57423200Y-133957139D01*
X57574052Y-133806812D01*
X57580730Y-133798965D01*
X57705003Y-133626020D01*
X57710313Y-133617183D01*
X57804670Y-133426267D01*
X57808469Y-133416672D01*
X57870377Y-133212910D01*
X57872555Y-133202837D01*
X57873986Y-133191962D01*
X57871775Y-133177778D01*
X57858617Y-133174000D01*
X56812115Y-133174000D01*
X56796876Y-133178475D01*
X56795671Y-133179865D01*
X56794000Y-133187548D01*
X56794000Y-135187885D01*
X56286000Y-135187885D01*
X56286000Y-133192115D01*
X56281525Y-133176876D01*
X56280135Y-133175671D01*
X56272452Y-133174000D01*
X54272115Y-133174000D01*
X54256876Y-133178475D01*
X54255671Y-133179865D01*
X54254000Y-133187548D01*
X54254000Y-135187885D01*
X53746000Y-135187885D01*
X53746000Y-133192115D01*
X53741525Y-133176876D01*
X53740135Y-133175671D01*
X53732452Y-133174000D01*
X52683225Y-133174000D01*
X52669694Y-133177973D01*
X52668257Y-133187966D01*
X52698565Y-133322446D01*
X52701645Y-133332275D01*
X52781770Y-133529603D01*
X52786413Y-133538794D01*
X52897694Y-133720388D01*
X52903777Y-133728699D01*
X53043213Y-133889667D01*
X53050580Y-133896883D01*
X53214434Y-134032916D01*
X53222881Y-134038831D01*
X53292479Y-134079501D01*
X53341203Y-134131140D01*
X53354274Y-134200923D01*
X53327543Y-134266694D01*
X53287087Y-134300053D01*
X53278462Y-134304542D01*
X53269738Y-134310036D01*
X53099433Y-134437905D01*
X53091726Y-134444748D01*
X52944590Y-134598717D01*
X52938104Y-134606727D01*
X52818098Y-134782649D01*
X52813000Y-134791623D01*
X52723338Y-134984783D01*
X52719775Y-134994470D01*
X52662864Y-135199681D01*
X52660933Y-135209802D01*
X52659229Y-135225747D01*
X52632102Y-135291357D01*
X52573811Y-135331886D01*
X52502861Y-135334466D01*
X52444847Y-135301455D01*
X52144916Y-135001524D01*
X52110890Y-134939212D01*
X52108011Y-134912429D01*
X52108011Y-133308725D01*
X52108018Y-133307405D01*
X52108888Y-133224337D01*
X52108962Y-133217290D01*
X52099800Y-133174914D01*
X52097741Y-133162343D01*
X52093693Y-133126255D01*
X52092908Y-133119256D01*
X52081878Y-133087581D01*
X52077715Y-133072769D01*
X52072120Y-133046892D01*
X52070630Y-133040001D01*
X52052303Y-133000698D01*
X52047521Y-132988922D01*
X52033256Y-132947959D01*
X52029521Y-132941981D01*
X52015484Y-132919516D01*
X52008145Y-132905999D01*
X51996952Y-132881997D01*
X51996951Y-132881996D01*
X51993973Y-132875609D01*
X51970011Y-132844717D01*
X51967405Y-132841358D01*
X51960109Y-132830899D01*
X51940869Y-132800107D01*
X51940867Y-132800104D01*
X51937137Y-132794135D01*
X51908535Y-132765332D01*
X51907950Y-132764707D01*
X51907433Y-132764041D01*
X51881443Y-132738051D01*
X51809326Y-132665429D01*
X51808289Y-132664771D01*
X51807060Y-132663668D01*
X51797575Y-132654183D01*
X52664389Y-132654183D01*
X52665912Y-132662607D01*
X52678292Y-132666000D01*
X53727885Y-132666000D01*
X53743124Y-132661525D01*
X53744329Y-132660135D01*
X53746000Y-132652452D01*
X53746000Y-132647885D01*
X54254000Y-132647885D01*
X54258475Y-132663124D01*
X54259865Y-132664329D01*
X54267548Y-132666000D01*
X56267885Y-132666000D01*
X56283124Y-132661525D01*
X56284329Y-132660135D01*
X56286000Y-132652452D01*
X56286000Y-132647885D01*
X56794000Y-132647885D01*
X56798475Y-132663124D01*
X56799865Y-132664329D01*
X56807548Y-132666000D01*
X57858344Y-132666000D01*
X57871875Y-132662027D01*
X57873180Y-132652947D01*
X57831214Y-132485875D01*
X57827894Y-132476124D01*
X57742972Y-132280814D01*
X57738105Y-132271739D01*
X57622426Y-132092926D01*
X57616136Y-132084757D01*
X57472806Y-131927240D01*
X57465273Y-131920215D01*
X57298139Y-131788222D01*
X57289552Y-131782517D01*
X57252116Y-131761851D01*
X57202146Y-131711419D01*
X57187374Y-131641976D01*
X57212490Y-131575571D01*
X57239842Y-131548964D01*
X57415327Y-131423792D01*
X57423200Y-131417139D01*
X57574052Y-131266812D01*
X57580730Y-131258965D01*
X57705003Y-131086020D01*
X57710313Y-131077183D01*
X57804670Y-130886267D01*
X57808469Y-130876672D01*
X57870377Y-130672910D01*
X57872555Y-130662837D01*
X57873986Y-130651962D01*
X57871775Y-130637778D01*
X57858617Y-130634000D01*
X56812115Y-130634000D01*
X56796876Y-130638475D01*
X56795671Y-130639865D01*
X56794000Y-130647548D01*
X56794000Y-132647885D01*
X56286000Y-132647885D01*
X56286000Y-130652115D01*
X56281525Y-130636876D01*
X56280135Y-130635671D01*
X56272452Y-130634000D01*
X54272115Y-130634000D01*
X54256876Y-130638475D01*
X54255671Y-130639865D01*
X54254000Y-130647548D01*
X54254000Y-132647885D01*
X53746000Y-132647885D01*
X53746000Y-130652115D01*
X53741525Y-130636876D01*
X53740135Y-130635671D01*
X53732452Y-130634000D01*
X52683225Y-130634000D01*
X52669694Y-130637973D01*
X52668257Y-130647966D01*
X52698565Y-130782446D01*
X52701645Y-130792275D01*
X52781770Y-130989603D01*
X52786413Y-130998794D01*
X52897694Y-131180388D01*
X52903777Y-131188699D01*
X53043213Y-131349667D01*
X53050580Y-131356883D01*
X53214434Y-131492916D01*
X53222881Y-131498831D01*
X53292479Y-131539501D01*
X53341203Y-131591140D01*
X53354274Y-131660923D01*
X53327543Y-131726694D01*
X53287087Y-131760053D01*
X53278462Y-131764542D01*
X53269738Y-131770036D01*
X53099433Y-131897905D01*
X53091726Y-131904748D01*
X52944590Y-132058717D01*
X52938104Y-132066727D01*
X52818098Y-132242649D01*
X52813000Y-132251623D01*
X52723338Y-132444783D01*
X52719775Y-132454470D01*
X52664389Y-132654183D01*
X51797575Y-132654183D01*
X51345405Y-132202013D01*
X51311379Y-132139701D01*
X51308500Y-132112918D01*
X51308500Y-131151866D01*
X51301745Y-131089684D01*
X51250615Y-130953295D01*
X51163261Y-130836739D01*
X51046705Y-130749385D01*
X50910316Y-130698255D01*
X50848134Y-130691500D01*
X49887081Y-130691500D01*
X49818960Y-130671498D01*
X49797986Y-130654595D01*
X48778235Y-129634843D01*
X48777307Y-129633906D01*
X48719157Y-129574525D01*
X48719156Y-129574524D01*
X48714229Y-129569493D01*
X48677779Y-129546002D01*
X48667454Y-129538583D01*
X48633557Y-129511524D01*
X48603362Y-129496927D01*
X48589945Y-129489398D01*
X48561762Y-129471235D01*
X48555145Y-129468827D01*
X48555140Y-129468824D01*
X48521027Y-129456408D01*
X48509284Y-129451447D01*
X48476597Y-129435646D01*
X48476592Y-129435644D01*
X48470251Y-129432579D01*
X48463393Y-129430996D01*
X48463391Y-129430995D01*
X48437574Y-129425035D01*
X48422831Y-129420668D01*
X48391315Y-129409197D01*
X48384325Y-129408314D01*
X48384317Y-129408312D01*
X48348299Y-129403762D01*
X48335747Y-129401526D01*
X48300386Y-129393362D01*
X48300383Y-129393362D01*
X48293515Y-129391776D01*
X48286469Y-129391751D01*
X48286466Y-129391751D01*
X48252944Y-129391634D01*
X48252062Y-129391605D01*
X48251231Y-129391500D01*
X48214581Y-129391500D01*
X48214141Y-129391499D01*
X48115657Y-129391155D01*
X48115652Y-129391155D01*
X48112130Y-129391143D01*
X48110930Y-129391411D01*
X48109293Y-129391500D01*
X46914188Y-129391500D01*
X46846067Y-129371498D01*
X46825093Y-129354595D01*
X46664300Y-129193802D01*
X46659792Y-129190645D01*
X46659789Y-129190643D01*
X46486547Y-129069338D01*
X46476749Y-129062477D01*
X46471767Y-129060154D01*
X46471762Y-129060151D01*
X46274225Y-128968039D01*
X46274224Y-128968039D01*
X46269243Y-128965716D01*
X46263935Y-128964294D01*
X46263933Y-128964293D01*
X46053402Y-128907881D01*
X46053400Y-128907881D01*
X46048087Y-128906457D01*
X45974523Y-128900021D01*
X45908405Y-128874157D01*
X45866766Y-128816654D01*
X45862825Y-128745767D01*
X45897834Y-128684002D01*
X45960679Y-128650970D01*
X45985505Y-128648500D01*
X52845389Y-128648500D01*
X52913510Y-128668502D01*
X52940625Y-128692001D01*
X53046250Y-128813938D01*
X53218126Y-128956632D01*
X53237647Y-128968039D01*
X53291955Y-128999774D01*
X53340679Y-129051412D01*
X53353750Y-129121195D01*
X53327019Y-129186967D01*
X53286562Y-129220327D01*
X53278457Y-129224546D01*
X53269738Y-129230036D01*
X53099433Y-129357905D01*
X53091726Y-129364748D01*
X52944590Y-129518717D01*
X52938104Y-129526727D01*
X52818098Y-129702649D01*
X52813000Y-129711623D01*
X52723338Y-129904783D01*
X52719775Y-129914470D01*
X52664389Y-130114183D01*
X52665912Y-130122607D01*
X52678292Y-130126000D01*
X57858344Y-130126000D01*
X57871875Y-130122027D01*
X57873180Y-130112947D01*
X57831214Y-129945875D01*
X57827894Y-129936124D01*
X57742972Y-129740814D01*
X57738105Y-129731739D01*
X57622426Y-129552926D01*
X57616136Y-129544757D01*
X57472806Y-129387240D01*
X57465273Y-129380215D01*
X57298139Y-129248222D01*
X57289556Y-129242520D01*
X57252602Y-129222120D01*
X57202631Y-129171687D01*
X57187859Y-129102245D01*
X57212975Y-129035839D01*
X57240327Y-129009232D01*
X57281097Y-128980151D01*
X57419860Y-128881173D01*
X57578096Y-128723489D01*
X57708453Y-128542077D01*
X57807430Y-128341811D01*
X57872370Y-128128069D01*
X57901529Y-127906590D01*
X57903156Y-127840000D01*
X57884852Y-127617361D01*
X57830431Y-127400702D01*
X57741354Y-127195840D01*
X57671072Y-127087201D01*
X57622822Y-127012617D01*
X57622820Y-127012614D01*
X57620014Y-127008277D01*
X57469670Y-126843051D01*
X57465619Y-126839852D01*
X57465615Y-126839848D01*
X57298414Y-126707800D01*
X57298410Y-126707798D01*
X57294359Y-126704598D01*
X57098789Y-126596638D01*
X57093920Y-126594914D01*
X57093916Y-126594912D01*
X56893087Y-126523795D01*
X56893083Y-126523794D01*
X56888212Y-126522069D01*
X56883119Y-126521162D01*
X56883116Y-126521161D01*
X56673373Y-126483800D01*
X56673367Y-126483799D01*
X56668284Y-126482894D01*
X56594452Y-126481992D01*
X56450081Y-126480228D01*
X56450079Y-126480228D01*
X56444911Y-126480165D01*
X56224091Y-126513955D01*
X56011756Y-126583357D01*
X55813607Y-126686507D01*
X55809474Y-126689610D01*
X55809471Y-126689612D01*
X55785247Y-126707800D01*
X55634965Y-126820635D01*
X55480629Y-126982138D01*
X55478632Y-126985065D01*
X55420603Y-127025148D01*
X55381102Y-127031500D01*
X55156850Y-127031500D01*
X55088729Y-127011498D01*
X55063656Y-126990299D01*
X54933151Y-126846876D01*
X54933145Y-126846870D01*
X54929670Y-126843051D01*
X54925619Y-126839852D01*
X54925615Y-126839848D01*
X54758414Y-126707800D01*
X54758410Y-126707798D01*
X54754359Y-126704598D01*
X54558789Y-126596638D01*
X54553920Y-126594914D01*
X54553916Y-126594912D01*
X54353087Y-126523795D01*
X54353083Y-126523794D01*
X54348212Y-126522069D01*
X54343119Y-126521162D01*
X54343116Y-126521161D01*
X54133373Y-126483800D01*
X54133367Y-126483799D01*
X54128284Y-126482894D01*
X54054452Y-126481992D01*
X53910081Y-126480228D01*
X53910079Y-126480228D01*
X53904911Y-126480165D01*
X53684091Y-126513955D01*
X53471756Y-126583357D01*
X53273607Y-126686507D01*
X53269474Y-126689610D01*
X53269471Y-126689612D01*
X53245247Y-126707800D01*
X53094965Y-126820635D01*
X52940629Y-126982138D01*
X52938632Y-126985065D01*
X52880603Y-127025148D01*
X52841102Y-127031500D01*
X37970143Y-127031500D01*
X37968824Y-127031493D01*
X37878757Y-127030550D01*
X37871879Y-127032037D01*
X37871869Y-127032038D01*
X37836391Y-127039709D01*
X37823816Y-127041769D01*
X37780723Y-127046603D01*
X37749052Y-127057632D01*
X37734243Y-127061795D01*
X37708349Y-127067393D01*
X37708346Y-127067394D01*
X37701468Y-127068881D01*
X37662165Y-127087208D01*
X37650389Y-127091990D01*
X37609426Y-127106255D01*
X37603451Y-127109989D01*
X37603448Y-127109990D01*
X37580983Y-127124027D01*
X37567466Y-127131366D01*
X37543459Y-127142561D01*
X37543455Y-127142563D01*
X37537076Y-127145538D01*
X37509162Y-127167190D01*
X37502822Y-127172108D01*
X37492373Y-127179397D01*
X37455602Y-127202374D01*
X37450603Y-127207339D01*
X37450601Y-127207340D01*
X37426793Y-127230983D01*
X37426170Y-127231566D01*
X37425508Y-127232079D01*
X37399660Y-127257927D01*
X37326896Y-127330185D01*
X37326237Y-127331223D01*
X37325131Y-127332456D01*
X34522592Y-130134994D01*
X34460280Y-130169020D01*
X34389464Y-130163955D01*
X34332629Y-130121408D01*
X34307976Y-130056881D01*
X34303756Y-130008651D01*
X34293543Y-129891913D01*
X34245234Y-129711623D01*
X34235707Y-129676067D01*
X34235706Y-129676065D01*
X34234284Y-129670757D01*
X34175530Y-129544757D01*
X34139849Y-129468238D01*
X34139846Y-129468233D01*
X34137523Y-129463251D01*
X34006198Y-129275700D01*
X33844300Y-129113802D01*
X33839792Y-129110645D01*
X33839789Y-129110643D01*
X33734243Y-129036739D01*
X33656749Y-128982477D01*
X33651767Y-128980154D01*
X33651762Y-128980151D01*
X33454225Y-128888039D01*
X33454224Y-128888039D01*
X33449243Y-128885716D01*
X33443935Y-128884294D01*
X33443933Y-128884293D01*
X33233402Y-128827881D01*
X33233400Y-128827881D01*
X33228087Y-128826457D01*
X33000000Y-128806502D01*
X32771913Y-128826457D01*
X32766600Y-128827881D01*
X32766598Y-128827881D01*
X32556067Y-128884293D01*
X32556065Y-128884294D01*
X32550757Y-128885716D01*
X32545776Y-128888039D01*
X32545775Y-128888039D01*
X32348238Y-128980151D01*
X32348233Y-128980154D01*
X32343251Y-128982477D01*
X32265757Y-129036739D01*
X32160211Y-129110643D01*
X32160208Y-129110645D01*
X32155700Y-129113802D01*
X31993802Y-129275700D01*
X31862477Y-129463251D01*
X31860154Y-129468233D01*
X31860151Y-129468238D01*
X31824470Y-129544757D01*
X31765716Y-129670757D01*
X31764294Y-129676065D01*
X31764293Y-129676067D01*
X31754766Y-129711623D01*
X31706457Y-129891913D01*
X31686502Y-130120000D01*
X30508000Y-130120000D01*
X30508000Y-124086062D01*
X36278493Y-124086062D01*
X36287789Y-124098077D01*
X36338994Y-124133931D01*
X36348489Y-124139414D01*
X36545947Y-124231490D01*
X36556239Y-124235236D01*
X36766688Y-124291625D01*
X36777481Y-124293528D01*
X36994525Y-124312517D01*
X37005475Y-124312517D01*
X37222519Y-124293528D01*
X37233312Y-124291625D01*
X37443761Y-124235236D01*
X37454053Y-124231490D01*
X37651511Y-124139414D01*
X37661006Y-124133931D01*
X37713048Y-124097491D01*
X37721424Y-124087012D01*
X37714356Y-124073566D01*
X37012812Y-123372022D01*
X36998868Y-123364408D01*
X36997035Y-123364539D01*
X36990420Y-123368790D01*
X36284923Y-124074287D01*
X36278493Y-124086062D01*
X30508000Y-124086062D01*
X30508000Y-87243450D01*
X30528002Y-87175329D01*
X30581658Y-87128836D01*
X30651932Y-87118732D01*
X30716512Y-87148226D01*
X30723095Y-87154355D01*
X30768013Y-87199273D01*
X30802039Y-87261585D01*
X30804439Y-87299348D01*
X30786884Y-87500000D01*
X30805314Y-87710655D01*
X30860044Y-87914910D01*
X30862366Y-87919891D01*
X30862367Y-87919892D01*
X30946364Y-88100023D01*
X30949411Y-88106558D01*
X31070699Y-88279776D01*
X31220224Y-88429301D01*
X31393442Y-88550589D01*
X31398420Y-88552910D01*
X31398423Y-88552912D01*
X31580108Y-88637633D01*
X31585090Y-88639956D01*
X31590398Y-88641378D01*
X31590400Y-88641379D01*
X31784030Y-88693262D01*
X31784032Y-88693262D01*
X31789345Y-88694686D01*
X32000000Y-88713116D01*
X32200651Y-88695561D01*
X32270255Y-88709550D01*
X32300727Y-88731987D01*
X32304595Y-88735855D01*
X32338621Y-88798167D01*
X32341500Y-88824950D01*
X32341500Y-106098112D01*
X32321498Y-106166233D01*
X32287772Y-106201324D01*
X32238457Y-106235855D01*
X32160211Y-106290643D01*
X32160208Y-106290645D01*
X32155700Y-106293802D01*
X31993802Y-106455700D01*
X31862477Y-106643251D01*
X31860154Y-106648233D01*
X31860151Y-106648238D01*
X31801242Y-106774570D01*
X31765716Y-106850757D01*
X31764294Y-106856065D01*
X31764293Y-106856067D01*
X31716758Y-107033469D01*
X31706457Y-107071913D01*
X31686502Y-107300000D01*
X31706457Y-107528087D01*
X31707881Y-107533400D01*
X31707881Y-107533402D01*
X31717045Y-107567600D01*
X31765716Y-107749243D01*
X31768039Y-107754224D01*
X31768039Y-107754225D01*
X31860151Y-107951762D01*
X31860154Y-107951767D01*
X31862477Y-107956749D01*
X31993802Y-108144300D01*
X32155700Y-108306198D01*
X32160208Y-108309355D01*
X32160211Y-108309357D01*
X32238389Y-108364098D01*
X32343251Y-108437523D01*
X32348233Y-108439846D01*
X32348238Y-108439849D01*
X32545775Y-108531961D01*
X32550757Y-108534284D01*
X32556065Y-108535706D01*
X32556067Y-108535707D01*
X32766598Y-108592119D01*
X32766600Y-108592119D01*
X32771913Y-108593543D01*
X33000000Y-108613498D01*
X33228087Y-108593543D01*
X33233400Y-108592119D01*
X33233402Y-108592119D01*
X33443933Y-108535707D01*
X33443935Y-108535706D01*
X33449243Y-108534284D01*
X33454225Y-108531961D01*
X33651762Y-108439849D01*
X33651767Y-108439846D01*
X33656749Y-108437523D01*
X33761611Y-108364098D01*
X33839789Y-108309357D01*
X33839792Y-108309355D01*
X33844300Y-108306198D01*
X34006198Y-108144300D01*
X34137523Y-107956749D01*
X34139846Y-107951767D01*
X34139849Y-107951762D01*
X34231961Y-107754225D01*
X34231961Y-107754224D01*
X34234284Y-107749243D01*
X34282956Y-107567600D01*
X34292119Y-107533402D01*
X34292119Y-107533400D01*
X34293543Y-107528087D01*
X34313498Y-107300000D01*
X34293543Y-107071913D01*
X34283242Y-107033469D01*
X34235707Y-106856067D01*
X34235706Y-106856065D01*
X34234284Y-106850757D01*
X34198758Y-106774570D01*
X34139849Y-106648238D01*
X34139846Y-106648233D01*
X34137523Y-106643251D01*
X34006198Y-106455700D01*
X33844300Y-106293802D01*
X33839792Y-106290645D01*
X33839789Y-106290643D01*
X33761543Y-106235855D01*
X33712228Y-106201324D01*
X33667901Y-106145868D01*
X33658500Y-106098112D01*
X33658500Y-88582060D01*
X33659059Y-88570203D01*
X33660789Y-88562463D01*
X33658562Y-88491599D01*
X33658500Y-88487641D01*
X33658500Y-88458568D01*
X33657947Y-88454189D01*
X33657014Y-88442346D01*
X33656704Y-88432460D01*
X33655563Y-88396169D01*
X33649579Y-88375571D01*
X33645571Y-88356218D01*
X33645132Y-88352743D01*
X33642882Y-88334936D01*
X33634205Y-88313019D01*
X33625875Y-88291982D01*
X33622029Y-88280747D01*
X33611358Y-88244016D01*
X33611357Y-88244013D01*
X33609145Y-88236400D01*
X33598225Y-88217935D01*
X33589534Y-88200195D01*
X33581635Y-88180244D01*
X33554482Y-88142871D01*
X33547967Y-88132952D01*
X33528493Y-88100023D01*
X33528490Y-88100019D01*
X33524453Y-88093193D01*
X33509289Y-88078029D01*
X33496448Y-88062995D01*
X33488501Y-88052057D01*
X33483841Y-88045643D01*
X33448247Y-88016197D01*
X33439468Y-88008208D01*
X33231987Y-87800727D01*
X33197961Y-87738415D01*
X33195562Y-87700650D01*
X33207879Y-87559873D01*
X33233742Y-87493755D01*
X33291246Y-87452115D01*
X33362133Y-87448175D01*
X33423897Y-87483185D01*
X33447594Y-87517606D01*
X33510149Y-87651758D01*
X33510153Y-87651764D01*
X33512477Y-87656749D01*
X33643802Y-87844300D01*
X33805700Y-88006198D01*
X33810208Y-88009355D01*
X33810211Y-88009357D01*
X33814577Y-88012414D01*
X33937772Y-88098676D01*
X33982099Y-88154132D01*
X33991500Y-88201888D01*
X33991500Y-98067944D01*
X33990941Y-98079800D01*
X33989212Y-98087537D01*
X33989461Y-98095459D01*
X33991438Y-98158369D01*
X33991500Y-98162327D01*
X33991500Y-98191432D01*
X33992056Y-98195832D01*
X33992988Y-98207664D01*
X33994438Y-98253831D01*
X33996650Y-98261444D01*
X33996650Y-98261445D01*
X34000419Y-98274416D01*
X34004430Y-98293782D01*
X34007118Y-98315064D01*
X34010034Y-98322429D01*
X34010035Y-98322433D01*
X34024126Y-98358021D01*
X34027965Y-98369231D01*
X34040855Y-98413600D01*
X34051775Y-98432065D01*
X34060466Y-98449805D01*
X34068365Y-98469756D01*
X34095516Y-98507126D01*
X34102033Y-98517048D01*
X34121507Y-98549977D01*
X34121510Y-98549981D01*
X34125547Y-98556807D01*
X34140711Y-98571971D01*
X34153551Y-98587004D01*
X34166159Y-98604357D01*
X34201752Y-98633802D01*
X34210532Y-98641792D01*
X35976345Y-100407605D01*
X35984335Y-100416385D01*
X35988584Y-100423080D01*
X35994362Y-100428506D01*
X35994363Y-100428507D01*
X36040257Y-100471604D01*
X36043099Y-100474359D01*
X36063667Y-100494927D01*
X36067170Y-100497644D01*
X36076195Y-100505352D01*
X36109867Y-100536972D01*
X36116818Y-100540793D01*
X36116819Y-100540794D01*
X36128658Y-100547303D01*
X36145182Y-100558157D01*
X36155271Y-100565982D01*
X36162132Y-100571304D01*
X36169404Y-100574451D01*
X36169406Y-100574452D01*
X36204535Y-100589654D01*
X36215196Y-100594876D01*
X36255663Y-100617124D01*
X36276441Y-100622459D01*
X36295131Y-100628858D01*
X36314824Y-100637380D01*
X36358596Y-100644313D01*
X36360448Y-100644606D01*
X36372071Y-100647013D01*
X36400072Y-100654202D01*
X36416812Y-100658500D01*
X36438259Y-100658500D01*
X36457969Y-100660051D01*
X36479152Y-100663406D01*
X36525141Y-100659059D01*
X36536996Y-100658500D01*
X37959154Y-100658500D01*
X38027275Y-100678502D01*
X38073768Y-100732158D01*
X38083872Y-100802432D01*
X38054378Y-100867012D01*
X38007372Y-100900909D01*
X37788011Y-100991771D01*
X37788007Y-100991773D01*
X37783437Y-100993666D01*
X37572260Y-101123075D01*
X37383927Y-101283927D01*
X37223075Y-101472260D01*
X37093666Y-101683437D01*
X37091773Y-101688007D01*
X37091771Y-101688011D01*
X37021170Y-101858458D01*
X36998885Y-101912258D01*
X36997730Y-101917070D01*
X36942221Y-102148276D01*
X36942220Y-102148282D01*
X36941066Y-102153089D01*
X36921634Y-102400000D01*
X36941066Y-102646911D01*
X36942220Y-102651718D01*
X36942221Y-102651724D01*
X36978499Y-102802830D01*
X36998885Y-102887742D01*
X37000778Y-102892313D01*
X37000779Y-102892315D01*
X37042665Y-102993435D01*
X37093666Y-103116563D01*
X37223075Y-103327740D01*
X37383927Y-103516073D01*
X37572260Y-103676925D01*
X37581764Y-103682749D01*
X37781335Y-103805046D01*
X37828966Y-103857694D01*
X37841500Y-103912479D01*
X37841500Y-106051458D01*
X37821498Y-106119579D01*
X37767842Y-106166072D01*
X37697568Y-106176176D01*
X37656921Y-106162107D01*
X37656749Y-106162477D01*
X37653177Y-106160811D01*
X37653174Y-106160810D01*
X37651771Y-106160156D01*
X37651768Y-106160154D01*
X37454225Y-106068039D01*
X37454224Y-106068039D01*
X37449243Y-106065716D01*
X37443935Y-106064294D01*
X37443933Y-106064293D01*
X37233402Y-106007881D01*
X37233400Y-106007881D01*
X37228087Y-106006457D01*
X37000000Y-105986502D01*
X36771913Y-106006457D01*
X36766600Y-106007881D01*
X36766598Y-106007881D01*
X36556067Y-106064293D01*
X36556065Y-106064294D01*
X36550757Y-106065716D01*
X36545776Y-106068039D01*
X36545775Y-106068039D01*
X36348238Y-106160151D01*
X36348233Y-106160154D01*
X36343251Y-106162477D01*
X36238457Y-106235855D01*
X36160211Y-106290643D01*
X36160208Y-106290645D01*
X36155700Y-106293802D01*
X35993802Y-106455700D01*
X35862477Y-106643251D01*
X35860154Y-106648233D01*
X35860151Y-106648238D01*
X35801242Y-106774570D01*
X35765716Y-106850757D01*
X35764294Y-106856065D01*
X35764293Y-106856067D01*
X35716758Y-107033469D01*
X35706457Y-107071913D01*
X35686502Y-107300000D01*
X35706457Y-107528087D01*
X35707881Y-107533400D01*
X35707881Y-107533402D01*
X35717045Y-107567600D01*
X35765716Y-107749243D01*
X35768039Y-107754224D01*
X35768039Y-107754225D01*
X35860151Y-107951762D01*
X35860154Y-107951767D01*
X35862477Y-107956749D01*
X35993802Y-108144300D01*
X36155700Y-108306198D01*
X36160208Y-108309355D01*
X36160211Y-108309357D01*
X36238389Y-108364098D01*
X36343251Y-108437523D01*
X36348233Y-108439846D01*
X36348238Y-108439849D01*
X36545775Y-108531961D01*
X36550757Y-108534284D01*
X36556065Y-108535706D01*
X36556067Y-108535707D01*
X36766598Y-108592119D01*
X36766600Y-108592119D01*
X36771913Y-108593543D01*
X37000000Y-108613498D01*
X37228087Y-108593543D01*
X37233400Y-108592119D01*
X37233402Y-108592119D01*
X37443933Y-108535707D01*
X37443935Y-108535706D01*
X37449243Y-108534284D01*
X37454225Y-108531961D01*
X37651768Y-108439846D01*
X37651771Y-108439844D01*
X37652862Y-108439335D01*
X37652864Y-108439335D01*
X37656749Y-108437523D01*
X37657113Y-108438304D01*
X37721495Y-108422685D01*
X37788587Y-108445905D01*
X37832474Y-108501713D01*
X37841500Y-108548542D01*
X37841500Y-114175050D01*
X37821498Y-114243171D01*
X37804595Y-114264145D01*
X33385364Y-118683376D01*
X33323052Y-118717402D01*
X33263659Y-118715988D01*
X33233405Y-118707882D01*
X33228087Y-118706457D01*
X33000000Y-118686502D01*
X32771913Y-118706457D01*
X32766600Y-118707881D01*
X32766598Y-118707881D01*
X32556067Y-118764293D01*
X32556065Y-118764294D01*
X32550757Y-118765716D01*
X32545776Y-118768039D01*
X32545775Y-118768039D01*
X32348238Y-118860151D01*
X32348233Y-118860154D01*
X32343251Y-118862477D01*
X32238389Y-118935902D01*
X32160211Y-118990643D01*
X32160208Y-118990645D01*
X32155700Y-118993802D01*
X31993802Y-119155700D01*
X31862477Y-119343251D01*
X31860154Y-119348233D01*
X31860151Y-119348238D01*
X31768039Y-119545775D01*
X31765716Y-119550757D01*
X31764294Y-119556065D01*
X31764293Y-119556067D01*
X31707882Y-119766595D01*
X31706457Y-119771913D01*
X31686502Y-120000000D01*
X31706457Y-120228087D01*
X31765716Y-120449243D01*
X31768039Y-120454224D01*
X31768039Y-120454225D01*
X31860151Y-120651762D01*
X31860154Y-120651767D01*
X31862477Y-120656749D01*
X31993802Y-120844300D01*
X32139502Y-120990000D01*
X32173528Y-121052312D01*
X32168463Y-121123127D01*
X32125916Y-121179963D01*
X32089263Y-121197132D01*
X32089684Y-121198255D01*
X31953295Y-121249385D01*
X31836739Y-121336739D01*
X31749385Y-121453295D01*
X31698255Y-121589684D01*
X31691500Y-121651866D01*
X31691500Y-123348134D01*
X31698255Y-123410316D01*
X31749385Y-123546705D01*
X31836739Y-123663261D01*
X31953295Y-123750615D01*
X32089684Y-123801745D01*
X32151866Y-123808500D01*
X33848134Y-123808500D01*
X33910316Y-123801745D01*
X34046705Y-123750615D01*
X34163261Y-123663261D01*
X34250615Y-123546705D01*
X34301745Y-123410316D01*
X34308500Y-123348134D01*
X34308500Y-123005475D01*
X35687483Y-123005475D01*
X35706472Y-123222519D01*
X35708375Y-123233312D01*
X35764764Y-123443761D01*
X35768510Y-123454053D01*
X35860586Y-123651511D01*
X35866069Y-123661006D01*
X35902509Y-123713048D01*
X35912988Y-123721424D01*
X35926434Y-123714356D01*
X36627978Y-123012812D01*
X36634356Y-123001132D01*
X37364408Y-123001132D01*
X37364539Y-123002965D01*
X37368790Y-123009580D01*
X38074287Y-123715077D01*
X38086062Y-123721507D01*
X38098077Y-123712211D01*
X38133931Y-123661006D01*
X38139414Y-123651511D01*
X38231490Y-123454053D01*
X38235236Y-123443761D01*
X38291625Y-123233312D01*
X38293528Y-123222519D01*
X38312517Y-123005475D01*
X38312517Y-123000000D01*
X40686502Y-123000000D01*
X40706457Y-123228087D01*
X40707881Y-123233400D01*
X40707881Y-123233402D01*
X40758706Y-123423080D01*
X40765716Y-123449243D01*
X40768039Y-123454224D01*
X40768039Y-123454225D01*
X40860151Y-123651762D01*
X40860154Y-123651767D01*
X40862477Y-123656749D01*
X40870805Y-123668642D01*
X40964005Y-123801745D01*
X40993802Y-123844300D01*
X41155700Y-124006198D01*
X41160208Y-124009355D01*
X41160211Y-124009357D01*
X41238389Y-124064098D01*
X41343251Y-124137523D01*
X41348233Y-124139846D01*
X41348238Y-124139849D01*
X41544765Y-124231490D01*
X41550757Y-124234284D01*
X41556065Y-124235706D01*
X41556067Y-124235707D01*
X41766598Y-124292119D01*
X41766600Y-124292119D01*
X41771913Y-124293543D01*
X42000000Y-124313498D01*
X42228087Y-124293543D01*
X42233400Y-124292119D01*
X42233402Y-124292119D01*
X42443933Y-124235707D01*
X42443935Y-124235706D01*
X42449243Y-124234284D01*
X42455235Y-124231490D01*
X42651762Y-124139849D01*
X42651767Y-124139846D01*
X42656749Y-124137523D01*
X42761611Y-124064098D01*
X42839789Y-124009357D01*
X42839792Y-124009355D01*
X42844300Y-124006198D01*
X43006198Y-123844300D01*
X43035996Y-123801745D01*
X43129195Y-123668642D01*
X43137523Y-123656749D01*
X43139846Y-123651767D01*
X43139849Y-123651762D01*
X43231961Y-123454225D01*
X43231961Y-123454224D01*
X43234284Y-123449243D01*
X43241295Y-123423080D01*
X43292119Y-123233402D01*
X43292119Y-123233400D01*
X43293543Y-123228087D01*
X43313498Y-123000000D01*
X43293543Y-122771913D01*
X43256981Y-122635461D01*
X43235707Y-122556067D01*
X43235706Y-122556065D01*
X43234284Y-122550757D01*
X43139966Y-122348489D01*
X43139849Y-122348238D01*
X43139846Y-122348233D01*
X43137523Y-122343251D01*
X43006198Y-122155700D01*
X42844300Y-121993802D01*
X42839792Y-121990645D01*
X42839789Y-121990643D01*
X42747059Y-121925713D01*
X42712228Y-121901324D01*
X42667901Y-121845868D01*
X42658500Y-121798112D01*
X42658500Y-119400000D01*
X43421634Y-119400000D01*
X43441066Y-119646911D01*
X43442220Y-119651718D01*
X43442221Y-119651724D01*
X43471077Y-119771913D01*
X43498885Y-119887742D01*
X43500778Y-119892313D01*
X43500779Y-119892315D01*
X43547652Y-120005475D01*
X43593666Y-120116563D01*
X43723075Y-120327740D01*
X43883927Y-120516073D01*
X44072260Y-120676925D01*
X44283437Y-120806334D01*
X44288007Y-120808227D01*
X44288011Y-120808229D01*
X44384503Y-120848197D01*
X44512258Y-120901115D01*
X44544916Y-120908956D01*
X44606483Y-120944306D01*
X44639166Y-121007332D01*
X44641500Y-121031473D01*
X44641500Y-121798112D01*
X44621498Y-121866233D01*
X44587772Y-121901324D01*
X44552941Y-121925713D01*
X44460211Y-121990643D01*
X44460208Y-121990645D01*
X44455700Y-121993802D01*
X44293802Y-122155700D01*
X44162477Y-122343251D01*
X44160154Y-122348233D01*
X44160151Y-122348238D01*
X44160034Y-122348489D01*
X44065716Y-122550757D01*
X44064294Y-122556065D01*
X44064293Y-122556067D01*
X44043019Y-122635461D01*
X44006457Y-122771913D01*
X43986502Y-123000000D01*
X44006457Y-123228087D01*
X44007881Y-123233400D01*
X44007881Y-123233402D01*
X44058706Y-123423080D01*
X44065716Y-123449243D01*
X44068039Y-123454224D01*
X44068039Y-123454225D01*
X44160151Y-123651762D01*
X44160154Y-123651767D01*
X44162477Y-123656749D01*
X44170805Y-123668642D01*
X44264005Y-123801745D01*
X44293802Y-123844300D01*
X44455700Y-124006198D01*
X44460208Y-124009355D01*
X44460211Y-124009357D01*
X44538389Y-124064098D01*
X44643251Y-124137523D01*
X44648233Y-124139846D01*
X44648238Y-124139849D01*
X44844765Y-124231490D01*
X44850757Y-124234284D01*
X44856065Y-124235706D01*
X44856067Y-124235707D01*
X45066598Y-124292119D01*
X45066600Y-124292119D01*
X45071913Y-124293543D01*
X45300000Y-124313498D01*
X45528087Y-124293543D01*
X45533400Y-124292119D01*
X45533402Y-124292119D01*
X45743933Y-124235707D01*
X45743935Y-124235706D01*
X45749243Y-124234284D01*
X45755235Y-124231490D01*
X45951762Y-124139849D01*
X45951767Y-124139846D01*
X45956749Y-124137523D01*
X46061611Y-124064098D01*
X46139789Y-124009357D01*
X46139792Y-124009355D01*
X46144300Y-124006198D01*
X46306198Y-123844300D01*
X46335996Y-123801745D01*
X46429195Y-123668642D01*
X46437523Y-123656749D01*
X46439846Y-123651767D01*
X46439849Y-123651762D01*
X46531961Y-123454225D01*
X46531961Y-123454224D01*
X46534284Y-123449243D01*
X46541295Y-123423080D01*
X46592119Y-123233402D01*
X46592119Y-123233400D01*
X46593543Y-123228087D01*
X46613498Y-123000000D01*
X46593543Y-122771913D01*
X46556981Y-122635461D01*
X46535707Y-122556067D01*
X46535706Y-122556065D01*
X46534284Y-122550757D01*
X46439966Y-122348489D01*
X46439849Y-122348238D01*
X46439846Y-122348233D01*
X46437523Y-122343251D01*
X46306198Y-122155700D01*
X46144300Y-121993802D01*
X46139792Y-121990645D01*
X46139789Y-121990643D01*
X46047059Y-121925713D01*
X46012228Y-121901324D01*
X45967901Y-121845868D01*
X45958500Y-121798112D01*
X45958500Y-120708739D01*
X45978502Y-120640618D01*
X46002670Y-120612928D01*
X46112306Y-120519291D01*
X46112311Y-120519286D01*
X46116073Y-120516073D01*
X46276925Y-120327740D01*
X46406334Y-120116563D01*
X46452349Y-120005475D01*
X46499221Y-119892315D01*
X46499222Y-119892313D01*
X46501115Y-119887742D01*
X46528923Y-119771913D01*
X46557779Y-119651724D01*
X46557780Y-119651718D01*
X46558934Y-119646911D01*
X46578366Y-119400000D01*
X46558934Y-119153089D01*
X46557780Y-119148282D01*
X46557779Y-119148276D01*
X46502270Y-118917070D01*
X46501115Y-118912258D01*
X46479532Y-118860151D01*
X46408229Y-118688011D01*
X46408227Y-118688007D01*
X46406334Y-118683437D01*
X46276925Y-118472260D01*
X46116073Y-118283927D01*
X45927740Y-118123075D01*
X45716563Y-117993666D01*
X45711993Y-117991773D01*
X45711989Y-117991771D01*
X45492315Y-117900779D01*
X45492313Y-117900778D01*
X45487742Y-117898885D01*
X45402830Y-117878499D01*
X45251724Y-117842221D01*
X45251718Y-117842220D01*
X45246911Y-117841066D01*
X45000000Y-117821634D01*
X44753089Y-117841066D01*
X44748282Y-117842220D01*
X44748276Y-117842221D01*
X44597170Y-117878499D01*
X44512258Y-117898885D01*
X44507687Y-117900778D01*
X44507685Y-117900779D01*
X44288011Y-117991771D01*
X44288007Y-117991773D01*
X44283437Y-117993666D01*
X44072260Y-118123075D01*
X43883927Y-118283927D01*
X43723075Y-118472260D01*
X43593666Y-118683437D01*
X43591773Y-118688007D01*
X43591771Y-118688011D01*
X43520468Y-118860151D01*
X43498885Y-118912258D01*
X43497730Y-118917070D01*
X43442221Y-119148276D01*
X43442220Y-119148282D01*
X43441066Y-119153089D01*
X43421634Y-119400000D01*
X42658500Y-119400000D01*
X42658500Y-106324950D01*
X42678502Y-106256829D01*
X42695405Y-106235855D01*
X44985855Y-103945405D01*
X45048167Y-103911379D01*
X45074950Y-103908500D01*
X45095487Y-103908500D01*
X45101939Y-103907128D01*
X45101944Y-103907128D01*
X45188888Y-103888647D01*
X45282288Y-103868794D01*
X45288319Y-103866109D01*
X45450722Y-103793803D01*
X45450724Y-103793802D01*
X45456752Y-103791118D01*
X45611253Y-103678866D01*
X45739040Y-103536944D01*
X45834527Y-103371556D01*
X45893542Y-103189928D01*
X45913504Y-103000000D01*
X45893542Y-102810072D01*
X45834527Y-102628444D01*
X45739040Y-102463056D01*
X45611253Y-102321134D01*
X45456752Y-102208882D01*
X45450724Y-102206198D01*
X45450722Y-102206197D01*
X45288319Y-102133891D01*
X45288318Y-102133891D01*
X45282288Y-102131206D01*
X45188887Y-102111353D01*
X45101944Y-102092872D01*
X45101939Y-102092872D01*
X45095487Y-102091500D01*
X44904513Y-102091500D01*
X44898061Y-102092872D01*
X44898056Y-102092872D01*
X44811113Y-102111353D01*
X44717712Y-102131206D01*
X44711682Y-102133891D01*
X44711681Y-102133891D01*
X44549278Y-102206197D01*
X44549276Y-102206198D01*
X44543248Y-102208882D01*
X44388747Y-102321134D01*
X44260960Y-102463056D01*
X44165473Y-102628444D01*
X44106458Y-102810072D01*
X44098295Y-102887742D01*
X44093245Y-102935786D01*
X44066232Y-103001442D01*
X44057030Y-103011710D01*
X41592395Y-105476345D01*
X41583615Y-105484335D01*
X41583613Y-105484337D01*
X41576920Y-105488584D01*
X41571494Y-105494362D01*
X41571493Y-105494363D01*
X41528396Y-105540257D01*
X41525641Y-105543099D01*
X41505073Y-105563667D01*
X41502356Y-105567170D01*
X41494648Y-105576195D01*
X41463028Y-105609867D01*
X41459207Y-105616818D01*
X41459206Y-105616819D01*
X41452697Y-105628658D01*
X41441843Y-105645182D01*
X41434018Y-105655271D01*
X41428696Y-105662132D01*
X41425549Y-105669404D01*
X41425548Y-105669406D01*
X41410346Y-105704535D01*
X41405124Y-105715195D01*
X41382876Y-105755663D01*
X41377541Y-105776441D01*
X41371142Y-105795131D01*
X41362620Y-105814824D01*
X41361380Y-105822655D01*
X41355394Y-105860448D01*
X41352987Y-105872071D01*
X41341500Y-105916812D01*
X41341500Y-105938259D01*
X41339949Y-105957969D01*
X41336594Y-105979152D01*
X41337340Y-105987043D01*
X41340941Y-106025138D01*
X41341500Y-106036996D01*
X41341500Y-121798112D01*
X41321498Y-121866233D01*
X41287772Y-121901324D01*
X41252941Y-121925713D01*
X41160211Y-121990643D01*
X41160208Y-121990645D01*
X41155700Y-121993802D01*
X40993802Y-122155700D01*
X40862477Y-122343251D01*
X40860154Y-122348233D01*
X40860151Y-122348238D01*
X40860034Y-122348489D01*
X40765716Y-122550757D01*
X40764294Y-122556065D01*
X40764293Y-122556067D01*
X40743019Y-122635461D01*
X40706457Y-122771913D01*
X40686502Y-123000000D01*
X38312517Y-123000000D01*
X38312517Y-122994525D01*
X38293528Y-122777481D01*
X38291625Y-122766688D01*
X38235236Y-122556239D01*
X38231490Y-122545947D01*
X38139414Y-122348489D01*
X38133931Y-122338994D01*
X38097491Y-122286952D01*
X38087012Y-122278576D01*
X38073566Y-122285644D01*
X37372022Y-122987188D01*
X37364408Y-123001132D01*
X36634356Y-123001132D01*
X36635592Y-122998868D01*
X36635461Y-122997035D01*
X36631210Y-122990420D01*
X35925713Y-122284923D01*
X35913938Y-122278493D01*
X35901923Y-122287789D01*
X35866069Y-122338994D01*
X35860586Y-122348489D01*
X35768510Y-122545947D01*
X35764764Y-122556239D01*
X35708375Y-122766688D01*
X35706472Y-122777481D01*
X35687483Y-122994525D01*
X35687483Y-123005475D01*
X34308500Y-123005475D01*
X34308500Y-121912988D01*
X36278576Y-121912988D01*
X36285644Y-121926434D01*
X36987188Y-122627978D01*
X37001132Y-122635592D01*
X37002965Y-122635461D01*
X37009580Y-122631210D01*
X37715077Y-121925713D01*
X37721507Y-121913938D01*
X37712211Y-121901923D01*
X37661006Y-121866069D01*
X37651511Y-121860586D01*
X37454053Y-121768510D01*
X37443761Y-121764764D01*
X37233312Y-121708375D01*
X37222519Y-121706472D01*
X37005475Y-121687483D01*
X36994525Y-121687483D01*
X36777481Y-121706472D01*
X36766688Y-121708375D01*
X36556239Y-121764764D01*
X36545947Y-121768510D01*
X36348489Y-121860586D01*
X36338994Y-121866069D01*
X36286952Y-121902509D01*
X36278576Y-121912988D01*
X34308500Y-121912988D01*
X34308500Y-121651866D01*
X34301745Y-121589684D01*
X34250615Y-121453295D01*
X34163261Y-121336739D01*
X34046705Y-121249385D01*
X33910316Y-121198255D01*
X33911046Y-121196309D01*
X33858795Y-121166455D01*
X33825979Y-121103497D01*
X33832409Y-121032793D01*
X33860498Y-120990000D01*
X34006198Y-120844300D01*
X34137523Y-120656749D01*
X34139846Y-120651767D01*
X34139849Y-120651762D01*
X34231961Y-120454225D01*
X34231961Y-120454224D01*
X34234284Y-120449243D01*
X34293543Y-120228087D01*
X34313498Y-120000000D01*
X35686502Y-120000000D01*
X35706457Y-120228087D01*
X35765716Y-120449243D01*
X35768039Y-120454224D01*
X35768039Y-120454225D01*
X35860151Y-120651762D01*
X35860154Y-120651767D01*
X35862477Y-120656749D01*
X35993802Y-120844300D01*
X36155700Y-121006198D01*
X36160208Y-121009355D01*
X36160211Y-121009357D01*
X36191796Y-121031473D01*
X36343251Y-121137523D01*
X36348233Y-121139846D01*
X36348238Y-121139849D01*
X36545775Y-121231961D01*
X36550757Y-121234284D01*
X36556065Y-121235706D01*
X36556067Y-121235707D01*
X36766598Y-121292119D01*
X36766600Y-121292119D01*
X36771913Y-121293543D01*
X37000000Y-121313498D01*
X37228087Y-121293543D01*
X37233400Y-121292119D01*
X37233402Y-121292119D01*
X37443933Y-121235707D01*
X37443935Y-121235706D01*
X37449243Y-121234284D01*
X37454225Y-121231961D01*
X37651762Y-121139849D01*
X37651767Y-121139846D01*
X37656749Y-121137523D01*
X37808204Y-121031473D01*
X37839789Y-121009357D01*
X37839792Y-121009355D01*
X37844300Y-121006198D01*
X38006198Y-120844300D01*
X38137523Y-120656749D01*
X38139846Y-120651767D01*
X38139849Y-120651762D01*
X38231961Y-120454225D01*
X38231961Y-120454224D01*
X38234284Y-120449243D01*
X38293543Y-120228087D01*
X38313498Y-120000000D01*
X38293543Y-119771913D01*
X38292118Y-119766595D01*
X38235707Y-119556067D01*
X38235706Y-119556065D01*
X38234284Y-119550757D01*
X38231961Y-119545775D01*
X38139849Y-119348238D01*
X38139846Y-119348233D01*
X38137523Y-119343251D01*
X38006198Y-119155700D01*
X37844300Y-118993802D01*
X37839792Y-118990645D01*
X37839789Y-118990643D01*
X37761611Y-118935902D01*
X37656749Y-118862477D01*
X37651767Y-118860154D01*
X37651762Y-118860151D01*
X37454225Y-118768039D01*
X37454224Y-118768039D01*
X37449243Y-118765716D01*
X37443935Y-118764294D01*
X37443933Y-118764293D01*
X37233402Y-118707881D01*
X37233400Y-118707881D01*
X37228087Y-118706457D01*
X37000000Y-118686502D01*
X36771913Y-118706457D01*
X36766600Y-118707881D01*
X36766598Y-118707881D01*
X36556067Y-118764293D01*
X36556065Y-118764294D01*
X36550757Y-118765716D01*
X36545776Y-118768039D01*
X36545775Y-118768039D01*
X36348238Y-118860151D01*
X36348233Y-118860154D01*
X36343251Y-118862477D01*
X36238389Y-118935902D01*
X36160211Y-118990643D01*
X36160208Y-118990645D01*
X36155700Y-118993802D01*
X35993802Y-119155700D01*
X35862477Y-119343251D01*
X35860154Y-119348233D01*
X35860151Y-119348238D01*
X35768039Y-119545775D01*
X35765716Y-119550757D01*
X35764294Y-119556065D01*
X35764293Y-119556067D01*
X35707882Y-119766595D01*
X35706457Y-119771913D01*
X35686502Y-120000000D01*
X34313498Y-120000000D01*
X34293543Y-119771913D01*
X34291485Y-119764234D01*
X34284012Y-119736341D01*
X34285702Y-119665365D01*
X34316624Y-119614636D01*
X38907605Y-115023655D01*
X38916385Y-115015665D01*
X38916387Y-115015663D01*
X38923080Y-115011416D01*
X38971605Y-114959742D01*
X38974359Y-114956901D01*
X38994927Y-114936333D01*
X38997647Y-114932826D01*
X39005353Y-114923804D01*
X39031544Y-114895913D01*
X39036972Y-114890133D01*
X39040794Y-114883181D01*
X39047303Y-114871342D01*
X39058157Y-114854818D01*
X39066445Y-114844132D01*
X39071304Y-114837868D01*
X39074452Y-114830594D01*
X39089654Y-114795465D01*
X39094876Y-114784805D01*
X39113305Y-114751284D01*
X39113306Y-114751282D01*
X39117124Y-114744337D01*
X39122459Y-114723559D01*
X39128858Y-114704869D01*
X39137380Y-114685176D01*
X39144606Y-114639552D01*
X39147013Y-114627929D01*
X39156528Y-114590868D01*
X39158500Y-114583188D01*
X39158500Y-114561741D01*
X39160051Y-114542031D01*
X39162166Y-114528677D01*
X39163406Y-114520848D01*
X39159059Y-114474859D01*
X39158500Y-114463004D01*
X39158500Y-103912479D01*
X39178502Y-103844358D01*
X39218665Y-103805046D01*
X39418236Y-103682749D01*
X39427740Y-103676925D01*
X39616073Y-103516073D01*
X39776925Y-103327740D01*
X39906334Y-103116563D01*
X39957336Y-102993435D01*
X39999221Y-102892315D01*
X39999222Y-102892313D01*
X40001115Y-102887742D01*
X40021501Y-102802830D01*
X40057779Y-102651724D01*
X40057780Y-102651718D01*
X40058934Y-102646911D01*
X40078366Y-102400000D01*
X40058934Y-102153089D01*
X40057780Y-102148282D01*
X40057779Y-102148276D01*
X40002270Y-101917070D01*
X40001115Y-101912258D01*
X39978830Y-101858458D01*
X39908229Y-101688011D01*
X39908227Y-101688007D01*
X39906334Y-101683437D01*
X39776925Y-101472260D01*
X39616073Y-101283927D01*
X39427740Y-101123075D01*
X39216563Y-100993666D01*
X39211993Y-100991773D01*
X39211989Y-100991771D01*
X38992628Y-100900909D01*
X38937347Y-100856361D01*
X38914926Y-100788997D01*
X38932484Y-100720206D01*
X38984446Y-100671828D01*
X39040846Y-100658500D01*
X48775050Y-100658500D01*
X48843171Y-100678502D01*
X48864145Y-100695405D01*
X49964886Y-101796146D01*
X49998912Y-101858458D01*
X49998309Y-101914656D01*
X49942223Y-102148267D01*
X49942222Y-102148275D01*
X49941066Y-102153089D01*
X49921634Y-102400000D01*
X49941066Y-102646911D01*
X49942220Y-102651718D01*
X49942221Y-102651724D01*
X49978499Y-102802830D01*
X49998885Y-102887742D01*
X50000778Y-102892313D01*
X50000779Y-102892315D01*
X50042665Y-102993435D01*
X50093666Y-103116563D01*
X50223075Y-103327740D01*
X50383927Y-103516073D01*
X50572260Y-103676925D01*
X50783437Y-103806334D01*
X50788007Y-103808227D01*
X50788011Y-103808229D01*
X51007685Y-103899221D01*
X51012258Y-103901115D01*
X51097170Y-103921501D01*
X51248276Y-103957779D01*
X51248282Y-103957780D01*
X51253089Y-103958934D01*
X51500000Y-103978366D01*
X51746911Y-103958934D01*
X51751718Y-103957780D01*
X51751724Y-103957779D01*
X51902830Y-103921501D01*
X51987742Y-103901115D01*
X51992315Y-103899221D01*
X52211989Y-103808229D01*
X52211993Y-103808227D01*
X52216563Y-103806334D01*
X52427740Y-103676925D01*
X52616073Y-103516073D01*
X52776925Y-103327740D01*
X52906334Y-103116563D01*
X52957336Y-102993435D01*
X52999221Y-102892315D01*
X52999222Y-102892313D01*
X53001115Y-102887742D01*
X53021501Y-102802830D01*
X53057779Y-102651724D01*
X53057780Y-102651718D01*
X53058934Y-102646911D01*
X53078366Y-102400000D01*
X53058934Y-102153089D01*
X53057780Y-102148282D01*
X53057779Y-102148276D01*
X53002270Y-101917070D01*
X53001115Y-101912258D01*
X52978830Y-101858458D01*
X52908229Y-101688011D01*
X52908227Y-101688007D01*
X52906334Y-101683437D01*
X52776925Y-101472260D01*
X52616073Y-101283927D01*
X52427740Y-101123075D01*
X52216563Y-100993666D01*
X52211993Y-100991773D01*
X52211989Y-100991771D01*
X51992315Y-100900779D01*
X51992313Y-100900778D01*
X51987742Y-100898885D01*
X51854983Y-100867012D01*
X51751724Y-100842221D01*
X51751718Y-100842220D01*
X51746911Y-100841066D01*
X51500000Y-100821634D01*
X51253089Y-100841066D01*
X51248275Y-100842222D01*
X51248267Y-100842223D01*
X51014656Y-100898309D01*
X50943748Y-100894763D01*
X50896146Y-100864886D01*
X49623655Y-99592395D01*
X49615665Y-99583615D01*
X49615663Y-99583613D01*
X49611416Y-99576920D01*
X49559742Y-99528395D01*
X49556901Y-99525641D01*
X49536333Y-99505073D01*
X49532826Y-99502353D01*
X49523804Y-99494647D01*
X49495913Y-99468456D01*
X49490133Y-99463028D01*
X49483181Y-99459206D01*
X49471342Y-99452697D01*
X49454818Y-99441843D01*
X49444132Y-99433555D01*
X49437868Y-99428696D01*
X49430596Y-99425549D01*
X49430594Y-99425548D01*
X49395465Y-99410346D01*
X49384805Y-99405124D01*
X49351284Y-99386695D01*
X49351282Y-99386694D01*
X49344337Y-99382876D01*
X49323559Y-99377541D01*
X49304869Y-99371142D01*
X49285176Y-99362620D01*
X49239552Y-99355394D01*
X49227929Y-99352987D01*
X49199928Y-99345798D01*
X49183188Y-99341500D01*
X49161741Y-99341500D01*
X49142031Y-99339949D01*
X49128677Y-99337834D01*
X49120848Y-99336594D01*
X49074859Y-99340941D01*
X49063004Y-99341500D01*
X36824950Y-99341500D01*
X36756829Y-99321498D01*
X36735855Y-99304595D01*
X35345405Y-97914145D01*
X35311379Y-97851833D01*
X35308500Y-97825050D01*
X35308500Y-94100000D01*
X36921634Y-94100000D01*
X36941066Y-94346911D01*
X36942220Y-94351718D01*
X36942221Y-94351724D01*
X36978499Y-94502830D01*
X36998885Y-94587742D01*
X37093666Y-94816563D01*
X37223075Y-95027740D01*
X37383927Y-95216073D01*
X37572260Y-95376925D01*
X37783437Y-95506334D01*
X37788007Y-95508227D01*
X37788011Y-95508229D01*
X38007685Y-95599221D01*
X38012258Y-95601115D01*
X38097170Y-95621501D01*
X38248276Y-95657779D01*
X38248282Y-95657780D01*
X38253089Y-95658934D01*
X38500000Y-95678366D01*
X38746911Y-95658934D01*
X38751718Y-95657780D01*
X38751724Y-95657779D01*
X38902830Y-95621501D01*
X38987742Y-95601115D01*
X38992315Y-95599221D01*
X39211989Y-95508229D01*
X39211993Y-95508227D01*
X39216563Y-95506334D01*
X39427740Y-95376925D01*
X39616073Y-95216073D01*
X39776925Y-95027740D01*
X39906334Y-94816563D01*
X40001115Y-94587742D01*
X40021501Y-94502830D01*
X40057779Y-94351724D01*
X40057780Y-94351718D01*
X40058934Y-94346911D01*
X40078366Y-94100000D01*
X49921634Y-94100000D01*
X49941066Y-94346911D01*
X49942220Y-94351718D01*
X49942221Y-94351724D01*
X49978499Y-94502830D01*
X49998885Y-94587742D01*
X50093666Y-94816563D01*
X50223075Y-95027740D01*
X50383927Y-95216073D01*
X50572260Y-95376925D01*
X50783437Y-95506334D01*
X50788007Y-95508227D01*
X50788011Y-95508229D01*
X51007685Y-95599221D01*
X51012258Y-95601115D01*
X51097170Y-95621501D01*
X51248276Y-95657779D01*
X51248282Y-95657780D01*
X51253089Y-95658934D01*
X51500000Y-95678366D01*
X51746911Y-95658934D01*
X51751718Y-95657780D01*
X51751724Y-95657779D01*
X51902830Y-95621501D01*
X51987742Y-95601115D01*
X51992315Y-95599221D01*
X52211989Y-95508229D01*
X52211993Y-95508227D01*
X52216563Y-95506334D01*
X52427740Y-95376925D01*
X52616073Y-95216073D01*
X52776925Y-95027740D01*
X52906334Y-94816563D01*
X53001115Y-94587742D01*
X53021501Y-94502830D01*
X53057779Y-94351724D01*
X53057780Y-94351718D01*
X53058934Y-94346911D01*
X53078366Y-94100000D01*
X53058934Y-93853089D01*
X53057780Y-93848282D01*
X53057779Y-93848276D01*
X53002270Y-93617070D01*
X53001115Y-93612258D01*
X52906334Y-93383437D01*
X52776925Y-93172260D01*
X52616073Y-92983927D01*
X52427740Y-92823075D01*
X52216563Y-92693666D01*
X52148342Y-92665408D01*
X52093062Y-92620859D01*
X52070641Y-92553496D01*
X52088199Y-92484705D01*
X52140162Y-92436326D01*
X52196561Y-92422999D01*
X52509669Y-92422999D01*
X52516490Y-92422629D01*
X52567352Y-92417105D01*
X52582604Y-92413479D01*
X52703054Y-92368324D01*
X52718649Y-92359786D01*
X52820724Y-92283285D01*
X52833285Y-92270724D01*
X52909786Y-92168649D01*
X52918324Y-92153054D01*
X52963478Y-92032606D01*
X52967105Y-92017351D01*
X52972631Y-91966486D01*
X52973000Y-91959672D01*
X52973000Y-91272115D01*
X52968525Y-91256876D01*
X52967135Y-91255671D01*
X52959452Y-91254000D01*
X50045116Y-91254000D01*
X50029877Y-91258475D01*
X50028672Y-91259865D01*
X50027001Y-91267548D01*
X50027001Y-91959669D01*
X50027371Y-91966490D01*
X50032895Y-92017352D01*
X50036521Y-92032604D01*
X50081676Y-92153054D01*
X50090214Y-92168649D01*
X50166715Y-92270724D01*
X50179276Y-92283285D01*
X50281351Y-92359786D01*
X50296946Y-92368324D01*
X50417394Y-92413478D01*
X50432649Y-92417105D01*
X50483514Y-92422631D01*
X50490328Y-92423000D01*
X50803438Y-92423000D01*
X50871559Y-92443002D01*
X50918052Y-92496658D01*
X50928156Y-92566932D01*
X50898662Y-92631512D01*
X50851657Y-92665408D01*
X50823360Y-92677129D01*
X50788011Y-92691771D01*
X50788007Y-92691773D01*
X50783437Y-92693666D01*
X50572260Y-92823075D01*
X50383927Y-92983927D01*
X50223075Y-93172260D01*
X50093666Y-93383437D01*
X49998885Y-93612258D01*
X49997730Y-93617070D01*
X49942221Y-93848276D01*
X49942220Y-93848282D01*
X49941066Y-93853089D01*
X49921634Y-94100000D01*
X40078366Y-94100000D01*
X40058934Y-93853089D01*
X40057780Y-93848282D01*
X40057779Y-93848276D01*
X40002270Y-93617070D01*
X40001115Y-93612258D01*
X39906334Y-93383437D01*
X39776925Y-93172260D01*
X39616073Y-92983927D01*
X39427740Y-92823075D01*
X39216563Y-92693666D01*
X39148342Y-92665408D01*
X39093062Y-92620859D01*
X39070641Y-92553496D01*
X39088199Y-92484705D01*
X39140162Y-92436326D01*
X39196561Y-92422999D01*
X39509669Y-92422999D01*
X39516490Y-92422629D01*
X39567352Y-92417105D01*
X39582604Y-92413479D01*
X39703054Y-92368324D01*
X39718649Y-92359786D01*
X39820724Y-92283285D01*
X39833285Y-92270724D01*
X39909786Y-92168649D01*
X39918324Y-92153054D01*
X39963478Y-92032606D01*
X39967105Y-92017351D01*
X39972631Y-91966486D01*
X39973000Y-91959672D01*
X39973000Y-91272115D01*
X39968525Y-91256876D01*
X39967135Y-91255671D01*
X39959452Y-91254000D01*
X37045116Y-91254000D01*
X37029877Y-91258475D01*
X37028672Y-91259865D01*
X37027001Y-91267548D01*
X37027001Y-91959669D01*
X37027371Y-91966490D01*
X37032895Y-92017352D01*
X37036521Y-92032604D01*
X37081676Y-92153054D01*
X37090214Y-92168649D01*
X37166715Y-92270724D01*
X37179276Y-92283285D01*
X37281351Y-92359786D01*
X37296946Y-92368324D01*
X37417394Y-92413478D01*
X37432649Y-92417105D01*
X37483514Y-92422631D01*
X37490328Y-92423000D01*
X37803438Y-92423000D01*
X37871559Y-92443002D01*
X37918052Y-92496658D01*
X37928156Y-92566932D01*
X37898662Y-92631512D01*
X37851657Y-92665408D01*
X37823360Y-92677129D01*
X37788011Y-92691771D01*
X37788007Y-92691773D01*
X37783437Y-92693666D01*
X37572260Y-92823075D01*
X37383927Y-92983927D01*
X37223075Y-93172260D01*
X37093666Y-93383437D01*
X36998885Y-93612258D01*
X36997730Y-93617070D01*
X36942221Y-93848276D01*
X36942220Y-93848282D01*
X36941066Y-93853089D01*
X36921634Y-94100000D01*
X35308500Y-94100000D01*
X35308500Y-90727885D01*
X37027000Y-90727885D01*
X37031475Y-90743124D01*
X37032865Y-90744329D01*
X37040548Y-90746000D01*
X38227885Y-90746000D01*
X38243124Y-90741525D01*
X38244329Y-90740135D01*
X38246000Y-90732452D01*
X38246000Y-90727885D01*
X38754000Y-90727885D01*
X38758475Y-90743124D01*
X38759865Y-90744329D01*
X38767548Y-90746000D01*
X39954884Y-90746000D01*
X39970123Y-90741525D01*
X39971328Y-90740135D01*
X39972999Y-90732452D01*
X39972999Y-90727885D01*
X50027000Y-90727885D01*
X50031475Y-90743124D01*
X50032865Y-90744329D01*
X50040548Y-90746000D01*
X51227885Y-90746000D01*
X51243124Y-90741525D01*
X51244329Y-90740135D01*
X51246000Y-90732452D01*
X51246000Y-90727885D01*
X51754000Y-90727885D01*
X51758475Y-90743124D01*
X51759865Y-90744329D01*
X51767548Y-90746000D01*
X52954884Y-90746000D01*
X52970123Y-90741525D01*
X52971328Y-90740135D01*
X52972999Y-90732452D01*
X52972999Y-90040331D01*
X52972629Y-90033510D01*
X52967105Y-89982648D01*
X52963479Y-89967396D01*
X52918324Y-89846946D01*
X52909786Y-89831351D01*
X52833285Y-89729276D01*
X52820724Y-89716715D01*
X52718649Y-89640214D01*
X52703054Y-89631676D01*
X52582606Y-89586522D01*
X52567351Y-89582895D01*
X52516486Y-89577369D01*
X52509672Y-89577000D01*
X51772115Y-89577000D01*
X51756876Y-89581475D01*
X51755671Y-89582865D01*
X51754000Y-89590548D01*
X51754000Y-90727885D01*
X51246000Y-90727885D01*
X51246000Y-89595116D01*
X51241525Y-89579877D01*
X51240135Y-89578672D01*
X51232452Y-89577001D01*
X50490331Y-89577001D01*
X50483510Y-89577371D01*
X50432648Y-89582895D01*
X50417396Y-89586521D01*
X50296946Y-89631676D01*
X50281351Y-89640214D01*
X50179276Y-89716715D01*
X50166715Y-89729276D01*
X50090214Y-89831351D01*
X50081676Y-89846946D01*
X50036522Y-89967394D01*
X50032895Y-89982649D01*
X50027369Y-90033514D01*
X50027000Y-90040328D01*
X50027000Y-90727885D01*
X39972999Y-90727885D01*
X39972999Y-90040331D01*
X39972629Y-90033510D01*
X39967105Y-89982648D01*
X39963479Y-89967396D01*
X39918324Y-89846946D01*
X39909786Y-89831351D01*
X39833285Y-89729276D01*
X39820724Y-89716715D01*
X39718649Y-89640214D01*
X39703054Y-89631676D01*
X39582606Y-89586522D01*
X39567351Y-89582895D01*
X39516486Y-89577369D01*
X39509672Y-89577000D01*
X38772115Y-89577000D01*
X38756876Y-89581475D01*
X38755671Y-89582865D01*
X38754000Y-89590548D01*
X38754000Y-90727885D01*
X38246000Y-90727885D01*
X38246000Y-89595116D01*
X38241525Y-89579877D01*
X38240135Y-89578672D01*
X38232452Y-89577001D01*
X37490331Y-89577001D01*
X37483510Y-89577371D01*
X37432648Y-89582895D01*
X37417396Y-89586521D01*
X37296946Y-89631676D01*
X37281351Y-89640214D01*
X37179276Y-89716715D01*
X37166715Y-89729276D01*
X37090214Y-89831351D01*
X37081676Y-89846946D01*
X37036522Y-89967394D01*
X37032895Y-89982649D01*
X37027369Y-90033514D01*
X37027000Y-90040328D01*
X37027000Y-90727885D01*
X35308500Y-90727885D01*
X35308500Y-88201888D01*
X35328502Y-88133767D01*
X35362228Y-88098676D01*
X35485423Y-88012414D01*
X35489789Y-88009357D01*
X35489792Y-88009355D01*
X35494300Y-88006198D01*
X35656198Y-87844300D01*
X35787523Y-87656749D01*
X35789846Y-87651767D01*
X35789849Y-87651762D01*
X35881961Y-87454225D01*
X35881961Y-87454224D01*
X35884284Y-87449243D01*
X35939427Y-87243450D01*
X35942119Y-87233402D01*
X35942119Y-87233400D01*
X35943543Y-87228087D01*
X35963498Y-87000000D01*
X46036502Y-87000000D01*
X46056457Y-87228087D01*
X46057881Y-87233400D01*
X46057881Y-87233402D01*
X46060574Y-87243450D01*
X46115716Y-87449243D01*
X46118039Y-87454224D01*
X46118039Y-87454225D01*
X46210151Y-87651762D01*
X46210154Y-87651767D01*
X46212477Y-87656749D01*
X46343802Y-87844300D01*
X46505700Y-88006198D01*
X46510208Y-88009355D01*
X46510211Y-88009357D01*
X46514577Y-88012414D01*
X46693251Y-88137523D01*
X46698233Y-88139846D01*
X46698238Y-88139849D01*
X46865711Y-88217942D01*
X46900757Y-88234284D01*
X46906065Y-88235706D01*
X46906067Y-88235707D01*
X47116598Y-88292119D01*
X47116600Y-88292119D01*
X47121913Y-88293543D01*
X47350000Y-88313498D01*
X47578087Y-88293543D01*
X47583400Y-88292119D01*
X47583402Y-88292119D01*
X47793933Y-88235707D01*
X47793935Y-88235706D01*
X47799243Y-88234284D01*
X47834289Y-88217942D01*
X48001762Y-88139849D01*
X48001767Y-88139846D01*
X48006749Y-88137523D01*
X48185423Y-88012414D01*
X48189789Y-88009357D01*
X48189792Y-88009355D01*
X48194300Y-88006198D01*
X48356198Y-87844300D01*
X48487523Y-87656749D01*
X48489846Y-87651767D01*
X48489849Y-87651762D01*
X48581961Y-87454225D01*
X48581961Y-87454224D01*
X48584284Y-87449243D01*
X48639427Y-87243450D01*
X48642119Y-87233402D01*
X48642119Y-87233400D01*
X48643543Y-87228087D01*
X48662250Y-87014261D01*
X52350294Y-87014261D01*
X52359590Y-87026276D01*
X52389189Y-87047001D01*
X52398677Y-87052479D01*
X52580277Y-87137159D01*
X52590571Y-87140907D01*
X52784122Y-87192769D01*
X52794909Y-87194671D01*
X52994525Y-87212135D01*
X53005475Y-87212135D01*
X53205091Y-87194671D01*
X53215878Y-87192769D01*
X53409429Y-87140907D01*
X53419723Y-87137159D01*
X53601323Y-87052479D01*
X53610811Y-87047001D01*
X53641248Y-87025689D01*
X53649623Y-87015212D01*
X53642554Y-87001764D01*
X53012812Y-86372022D01*
X52998868Y-86364408D01*
X52997035Y-86364539D01*
X52990420Y-86368790D01*
X52356724Y-87002486D01*
X52350294Y-87014261D01*
X48662250Y-87014261D01*
X48663498Y-87000000D01*
X48643543Y-86771913D01*
X48628649Y-86716329D01*
X48585707Y-86556067D01*
X48585706Y-86556065D01*
X48584284Y-86550757D01*
X48535943Y-86447088D01*
X48489849Y-86348238D01*
X48489846Y-86348233D01*
X48487523Y-86343251D01*
X48390782Y-86205091D01*
X48359357Y-86160211D01*
X48359355Y-86160208D01*
X48356198Y-86155700D01*
X48205973Y-86005475D01*
X51787865Y-86005475D01*
X51805329Y-86205091D01*
X51807231Y-86215878D01*
X51859093Y-86409429D01*
X51862841Y-86419723D01*
X51947521Y-86601323D01*
X51952999Y-86610811D01*
X51974311Y-86641248D01*
X51984788Y-86649623D01*
X51998236Y-86642554D01*
X52627978Y-86012812D01*
X52635592Y-85998868D01*
X52635461Y-85997035D01*
X52631210Y-85990420D01*
X51997514Y-85356724D01*
X51985739Y-85350294D01*
X51973724Y-85359590D01*
X51952999Y-85389189D01*
X51947521Y-85398677D01*
X51862841Y-85580277D01*
X51859093Y-85590571D01*
X51807231Y-85784122D01*
X51805329Y-85794909D01*
X51787865Y-85994525D01*
X51787865Y-86005475D01*
X48205973Y-86005475D01*
X48194300Y-85993802D01*
X48189792Y-85990645D01*
X48189789Y-85990643D01*
X48096621Y-85925406D01*
X48006749Y-85862477D01*
X48001767Y-85860154D01*
X48001762Y-85860151D01*
X47804225Y-85768039D01*
X47804224Y-85768039D01*
X47799243Y-85765716D01*
X47793935Y-85764294D01*
X47793933Y-85764293D01*
X47583402Y-85707881D01*
X47583400Y-85707881D01*
X47578087Y-85706457D01*
X47350000Y-85686502D01*
X47121913Y-85706457D01*
X47116600Y-85707881D01*
X47116598Y-85707881D01*
X46906067Y-85764293D01*
X46906065Y-85764294D01*
X46900757Y-85765716D01*
X46895776Y-85768039D01*
X46895775Y-85768039D01*
X46698238Y-85860151D01*
X46698233Y-85860154D01*
X46693251Y-85862477D01*
X46603379Y-85925406D01*
X46510211Y-85990643D01*
X46510208Y-85990645D01*
X46505700Y-85993802D01*
X46343802Y-86155700D01*
X46340645Y-86160208D01*
X46340643Y-86160211D01*
X46309218Y-86205091D01*
X46212477Y-86343251D01*
X46210154Y-86348233D01*
X46210151Y-86348238D01*
X46164057Y-86447088D01*
X46115716Y-86550757D01*
X46114294Y-86556065D01*
X46114293Y-86556067D01*
X46071351Y-86716329D01*
X46056457Y-86771913D01*
X46036502Y-87000000D01*
X35963498Y-87000000D01*
X35943543Y-86771913D01*
X35928649Y-86716329D01*
X35885707Y-86556067D01*
X35885706Y-86556065D01*
X35884284Y-86550757D01*
X35835943Y-86447088D01*
X35789849Y-86348238D01*
X35789846Y-86348233D01*
X35787523Y-86343251D01*
X35690782Y-86205091D01*
X35659357Y-86160211D01*
X35659355Y-86160208D01*
X35656198Y-86155700D01*
X35494300Y-85993802D01*
X35489792Y-85990645D01*
X35489789Y-85990643D01*
X35396621Y-85925406D01*
X35306749Y-85862477D01*
X35301767Y-85860154D01*
X35301762Y-85860151D01*
X35104225Y-85768039D01*
X35104224Y-85768039D01*
X35099243Y-85765716D01*
X35093935Y-85764294D01*
X35093933Y-85764293D01*
X34883402Y-85707881D01*
X34883400Y-85707881D01*
X34878087Y-85706457D01*
X34650000Y-85686502D01*
X34421913Y-85706457D01*
X34416600Y-85707881D01*
X34416598Y-85707881D01*
X34206067Y-85764293D01*
X34206065Y-85764294D01*
X34200757Y-85765716D01*
X34195776Y-85768039D01*
X34195775Y-85768039D01*
X33998238Y-85860151D01*
X33998233Y-85860154D01*
X33993251Y-85862477D01*
X33903379Y-85925406D01*
X33810211Y-85990643D01*
X33810208Y-85990645D01*
X33805700Y-85993802D01*
X33643802Y-86155700D01*
X33640645Y-86160208D01*
X33640643Y-86160211D01*
X33609218Y-86205091D01*
X33512477Y-86343251D01*
X33510154Y-86348233D01*
X33510151Y-86348238D01*
X33464057Y-86447088D01*
X33415716Y-86550757D01*
X33414294Y-86556065D01*
X33414293Y-86556067D01*
X33371351Y-86716329D01*
X33356457Y-86771913D01*
X33355978Y-86777393D01*
X33340167Y-86958104D01*
X33314303Y-87024222D01*
X33256800Y-87065862D01*
X33185912Y-87069802D01*
X33124148Y-87034792D01*
X33100451Y-87000372D01*
X33052912Y-86898423D01*
X33052910Y-86898420D01*
X33050589Y-86893442D01*
X32929301Y-86720224D01*
X32779776Y-86570699D01*
X32606558Y-86449411D01*
X32601580Y-86447090D01*
X32601577Y-86447088D01*
X32423812Y-86364195D01*
X32370527Y-86317278D01*
X32351066Y-86249000D01*
X32371608Y-86181040D01*
X32423812Y-86135805D01*
X32601577Y-86052912D01*
X32601580Y-86052910D01*
X32606558Y-86050589D01*
X32779776Y-85929301D01*
X32929301Y-85779776D01*
X33050589Y-85606558D01*
X33139956Y-85414910D01*
X33194686Y-85210655D01*
X33213116Y-85000000D01*
X33195561Y-84799349D01*
X33209550Y-84729745D01*
X33231987Y-84699273D01*
X34535855Y-83395405D01*
X34598167Y-83361379D01*
X34624950Y-83358500D01*
X34798112Y-83358500D01*
X34866233Y-83378502D01*
X34901324Y-83412228D01*
X34993802Y-83544300D01*
X35155700Y-83706198D01*
X35160208Y-83709355D01*
X35160211Y-83709357D01*
X35221503Y-83752274D01*
X35343251Y-83837523D01*
X35348233Y-83839846D01*
X35348238Y-83839849D01*
X35509209Y-83914910D01*
X35550757Y-83934284D01*
X35556065Y-83935706D01*
X35556067Y-83935707D01*
X35766598Y-83992119D01*
X35766600Y-83992119D01*
X35771913Y-83993543D01*
X36000000Y-84013498D01*
X36228087Y-83993543D01*
X36233400Y-83992119D01*
X36233402Y-83992119D01*
X36443933Y-83935707D01*
X36443935Y-83935706D01*
X36449243Y-83934284D01*
X36490791Y-83914910D01*
X36651762Y-83839849D01*
X36651767Y-83839846D01*
X36656749Y-83837523D01*
X36778497Y-83752274D01*
X36839789Y-83709357D01*
X36839792Y-83709355D01*
X36844300Y-83706198D01*
X37006198Y-83544300D01*
X37137523Y-83356749D01*
X37139846Y-83351767D01*
X37139849Y-83351762D01*
X37231961Y-83154225D01*
X37231961Y-83154224D01*
X37234284Y-83149243D01*
X37293543Y-82928087D01*
X37313498Y-82700000D01*
X38686502Y-82700000D01*
X38706457Y-82928087D01*
X38765716Y-83149243D01*
X38768039Y-83154224D01*
X38768039Y-83154225D01*
X38860151Y-83351762D01*
X38860154Y-83351767D01*
X38862477Y-83356749D01*
X38993802Y-83544300D01*
X39155700Y-83706198D01*
X39160208Y-83709355D01*
X39160211Y-83709357D01*
X39221503Y-83752274D01*
X39343251Y-83837523D01*
X39348233Y-83839846D01*
X39348238Y-83839849D01*
X39509209Y-83914910D01*
X39550757Y-83934284D01*
X39556065Y-83935706D01*
X39556067Y-83935707D01*
X39766598Y-83992119D01*
X39766600Y-83992119D01*
X39771913Y-83993543D01*
X40000000Y-84013498D01*
X40228087Y-83993543D01*
X40233400Y-83992119D01*
X40233402Y-83992119D01*
X40443933Y-83935707D01*
X40443935Y-83935706D01*
X40449243Y-83934284D01*
X40490791Y-83914910D01*
X40651762Y-83839849D01*
X40651767Y-83839846D01*
X40656749Y-83837523D01*
X40778497Y-83752274D01*
X40839789Y-83709357D01*
X40839792Y-83709355D01*
X40844300Y-83706198D01*
X41006198Y-83544300D01*
X41137523Y-83356749D01*
X41139846Y-83351767D01*
X41139849Y-83351762D01*
X41231961Y-83154225D01*
X41231961Y-83154224D01*
X41234284Y-83149243D01*
X41274274Y-83000000D01*
X42686502Y-83000000D01*
X42706457Y-83228087D01*
X42707881Y-83233400D01*
X42707881Y-83233402D01*
X42724340Y-83294825D01*
X42765716Y-83449243D01*
X42768039Y-83454224D01*
X42768039Y-83454225D01*
X42860151Y-83651762D01*
X42860154Y-83651767D01*
X42862477Y-83656749D01*
X42903944Y-83715970D01*
X42989057Y-83837523D01*
X42993802Y-83844300D01*
X43155700Y-84006198D01*
X43160208Y-84009355D01*
X43160211Y-84009357D01*
X43165441Y-84013019D01*
X43343251Y-84137523D01*
X43348233Y-84139846D01*
X43348238Y-84139849D01*
X43545775Y-84231961D01*
X43550757Y-84234284D01*
X43556065Y-84235706D01*
X43556067Y-84235707D01*
X43766598Y-84292119D01*
X43766600Y-84292119D01*
X43771913Y-84293543D01*
X44000000Y-84313498D01*
X44228087Y-84293543D01*
X44233400Y-84292119D01*
X44233402Y-84292119D01*
X44443933Y-84235707D01*
X44443935Y-84235706D01*
X44449243Y-84234284D01*
X44454225Y-84231961D01*
X44651762Y-84139849D01*
X44651767Y-84139846D01*
X44656749Y-84137523D01*
X44834559Y-84013019D01*
X44839789Y-84009357D01*
X44839792Y-84009355D01*
X44844300Y-84006198D01*
X45006198Y-83844300D01*
X45010944Y-83837523D01*
X45096056Y-83715970D01*
X45137523Y-83656749D01*
X45139846Y-83651767D01*
X45139849Y-83651762D01*
X45231961Y-83454225D01*
X45231961Y-83454224D01*
X45234284Y-83449243D01*
X45275661Y-83294825D01*
X45292119Y-83233402D01*
X45292119Y-83233400D01*
X45293543Y-83228087D01*
X45313498Y-83000000D01*
X45293543Y-82771913D01*
X45280902Y-82724736D01*
X45235707Y-82556067D01*
X45235706Y-82556065D01*
X45234284Y-82550757D01*
X45231961Y-82545775D01*
X45139849Y-82348238D01*
X45139846Y-82348233D01*
X45137523Y-82343251D01*
X45048532Y-82216159D01*
X45009357Y-82160211D01*
X45009355Y-82160208D01*
X45006198Y-82155700D01*
X44844300Y-81993802D01*
X44839792Y-81990645D01*
X44839789Y-81990643D01*
X44728015Y-81912378D01*
X44656749Y-81862477D01*
X44651767Y-81860154D01*
X44651762Y-81860151D01*
X44454225Y-81768039D01*
X44454224Y-81768039D01*
X44449243Y-81765716D01*
X44443935Y-81764294D01*
X44443933Y-81764293D01*
X44233402Y-81707881D01*
X44233400Y-81707881D01*
X44228087Y-81706457D01*
X44000000Y-81686502D01*
X43771913Y-81706457D01*
X43766600Y-81707881D01*
X43766598Y-81707881D01*
X43556067Y-81764293D01*
X43556065Y-81764294D01*
X43550757Y-81765716D01*
X43545776Y-81768039D01*
X43545775Y-81768039D01*
X43348238Y-81860151D01*
X43348233Y-81860154D01*
X43343251Y-81862477D01*
X43271985Y-81912378D01*
X43160211Y-81990643D01*
X43160208Y-81990645D01*
X43155700Y-81993802D01*
X42993802Y-82155700D01*
X42990645Y-82160208D01*
X42990643Y-82160211D01*
X42951468Y-82216159D01*
X42862477Y-82343251D01*
X42860154Y-82348233D01*
X42860151Y-82348238D01*
X42768039Y-82545775D01*
X42765716Y-82550757D01*
X42764294Y-82556065D01*
X42764293Y-82556067D01*
X42719098Y-82724736D01*
X42706457Y-82771913D01*
X42686502Y-83000000D01*
X41274274Y-83000000D01*
X41293543Y-82928087D01*
X41313498Y-82700000D01*
X41293543Y-82471913D01*
X41257860Y-82338743D01*
X41235707Y-82256067D01*
X41235706Y-82256065D01*
X41234284Y-82250757D01*
X41231961Y-82245775D01*
X41139849Y-82048238D01*
X41139846Y-82048233D01*
X41137523Y-82043251D01*
X41060470Y-81933208D01*
X41009357Y-81860211D01*
X41009355Y-81860208D01*
X41006198Y-81855700D01*
X40844300Y-81693802D01*
X40839792Y-81690645D01*
X40839789Y-81690643D01*
X40761611Y-81635902D01*
X40656749Y-81562477D01*
X40651767Y-81560154D01*
X40651762Y-81560151D01*
X40454225Y-81468039D01*
X40454224Y-81468039D01*
X40449243Y-81465716D01*
X40443935Y-81464294D01*
X40443933Y-81464293D01*
X40233402Y-81407881D01*
X40233400Y-81407881D01*
X40228087Y-81406457D01*
X40000000Y-81386502D01*
X39771913Y-81406457D01*
X39766600Y-81407881D01*
X39766598Y-81407881D01*
X39556067Y-81464293D01*
X39556065Y-81464294D01*
X39550757Y-81465716D01*
X39545776Y-81468039D01*
X39545775Y-81468039D01*
X39348238Y-81560151D01*
X39348233Y-81560154D01*
X39343251Y-81562477D01*
X39238389Y-81635902D01*
X39160211Y-81690643D01*
X39160208Y-81690645D01*
X39155700Y-81693802D01*
X38993802Y-81855700D01*
X38990645Y-81860208D01*
X38990643Y-81860211D01*
X38939530Y-81933208D01*
X38862477Y-82043251D01*
X38860154Y-82048233D01*
X38860151Y-82048238D01*
X38768039Y-82245775D01*
X38765716Y-82250757D01*
X38764294Y-82256065D01*
X38764293Y-82256067D01*
X38742140Y-82338743D01*
X38706457Y-82471913D01*
X38686502Y-82700000D01*
X37313498Y-82700000D01*
X37293543Y-82471913D01*
X37257860Y-82338743D01*
X37235707Y-82256067D01*
X37235706Y-82256065D01*
X37234284Y-82250757D01*
X37231961Y-82245775D01*
X37139849Y-82048238D01*
X37139846Y-82048233D01*
X37137523Y-82043251D01*
X37060470Y-81933208D01*
X37009357Y-81860211D01*
X37009355Y-81860208D01*
X37006198Y-81855700D01*
X36844300Y-81693802D01*
X36839792Y-81690645D01*
X36839789Y-81690643D01*
X36781685Y-81649958D01*
X36712228Y-81601324D01*
X36667901Y-81545868D01*
X36658500Y-81498112D01*
X36658500Y-74324950D01*
X36678502Y-74256829D01*
X36695405Y-74235855D01*
X37931260Y-73000000D01*
X43586540Y-73000000D01*
X43606359Y-73315020D01*
X43665505Y-73625072D01*
X43763044Y-73925266D01*
X43764731Y-73928852D01*
X43764733Y-73928856D01*
X43895750Y-74207283D01*
X43895754Y-74207290D01*
X43897438Y-74210869D01*
X44066568Y-74477375D01*
X44267767Y-74720582D01*
X44497860Y-74936654D01*
X44753221Y-75122184D01*
X45029821Y-75274247D01*
X45033490Y-75275700D01*
X45033495Y-75275702D01*
X45319628Y-75388990D01*
X45323298Y-75390443D01*
X45629025Y-75468940D01*
X45942179Y-75508500D01*
X46257821Y-75508500D01*
X46570975Y-75468940D01*
X46876702Y-75390443D01*
X46880372Y-75388990D01*
X47166505Y-75275702D01*
X47166510Y-75275700D01*
X47170179Y-75274247D01*
X47446779Y-75122184D01*
X47702140Y-74936654D01*
X47932233Y-74720582D01*
X48133432Y-74477375D01*
X48302562Y-74210869D01*
X48304246Y-74207290D01*
X48304250Y-74207283D01*
X48435267Y-73928856D01*
X48435269Y-73928852D01*
X48436956Y-73925266D01*
X48534495Y-73625072D01*
X48593641Y-73315020D01*
X48613460Y-73000000D01*
X48593641Y-72684980D01*
X48534495Y-72374928D01*
X48436956Y-72074734D01*
X48435267Y-72071144D01*
X48304250Y-71792717D01*
X48304246Y-71792710D01*
X48302562Y-71789131D01*
X48133432Y-71522625D01*
X47942740Y-71292119D01*
X47934758Y-71282470D01*
X47934757Y-71282469D01*
X47932233Y-71279418D01*
X47702140Y-71063346D01*
X47446779Y-70877816D01*
X47319498Y-70807842D01*
X47173648Y-70727660D01*
X47173647Y-70727659D01*
X47170179Y-70725753D01*
X47166510Y-70724300D01*
X47166505Y-70724298D01*
X46880372Y-70611010D01*
X46880371Y-70611010D01*
X46876702Y-70609557D01*
X46570975Y-70531060D01*
X46257821Y-70491500D01*
X45942179Y-70491500D01*
X45629025Y-70531060D01*
X45323298Y-70609557D01*
X45319629Y-70611010D01*
X45319628Y-70611010D01*
X45033495Y-70724298D01*
X45033490Y-70724300D01*
X45029821Y-70725753D01*
X45026353Y-70727659D01*
X45026352Y-70727660D01*
X44880503Y-70807842D01*
X44753221Y-70877816D01*
X44497860Y-71063346D01*
X44267767Y-71279418D01*
X44265243Y-71282469D01*
X44265242Y-71282470D01*
X44257260Y-71292119D01*
X44066568Y-71522625D01*
X43897438Y-71789131D01*
X43895754Y-71792710D01*
X43895750Y-71792717D01*
X43764733Y-72071144D01*
X43763044Y-72074734D01*
X43665505Y-72374928D01*
X43606359Y-72684980D01*
X43586540Y-73000000D01*
X37931260Y-73000000D01*
X39614635Y-71316624D01*
X39676947Y-71282598D01*
X39736340Y-71284012D01*
X39766594Y-71292118D01*
X39766596Y-71292118D01*
X39771913Y-71293543D01*
X40000000Y-71313498D01*
X40228087Y-71293543D01*
X40233400Y-71292119D01*
X40233402Y-71292119D01*
X40443933Y-71235707D01*
X40443935Y-71235706D01*
X40449243Y-71234284D01*
X40455235Y-71231490D01*
X40651762Y-71139849D01*
X40651767Y-71139846D01*
X40656749Y-71137523D01*
X40766009Y-71061018D01*
X40839789Y-71009357D01*
X40839792Y-71009355D01*
X40844300Y-71006198D01*
X41006198Y-70844300D01*
X41137523Y-70656749D01*
X41139846Y-70651767D01*
X41139849Y-70651762D01*
X41231961Y-70454225D01*
X41231961Y-70454224D01*
X41234284Y-70449243D01*
X41282970Y-70267548D01*
X41292119Y-70233402D01*
X41292119Y-70233400D01*
X41293543Y-70228087D01*
X41313498Y-70000000D01*
X41293543Y-69771913D01*
X41292119Y-69766598D01*
X41235707Y-69556067D01*
X41235706Y-69556065D01*
X41234284Y-69550757D01*
X41139966Y-69348489D01*
X41139849Y-69348238D01*
X41139846Y-69348233D01*
X41137523Y-69343251D01*
X41006198Y-69155700D01*
X40844300Y-68993802D01*
X40839792Y-68990645D01*
X40839789Y-68990643D01*
X40723379Y-68909132D01*
X40656749Y-68862477D01*
X40651767Y-68860154D01*
X40651762Y-68860151D01*
X40454225Y-68768039D01*
X40454224Y-68768039D01*
X40449243Y-68765716D01*
X40443935Y-68764294D01*
X40443933Y-68764293D01*
X40233402Y-68707881D01*
X40233400Y-68707881D01*
X40228087Y-68706457D01*
X40000000Y-68686502D01*
X39771913Y-68706457D01*
X39766600Y-68707881D01*
X39766598Y-68707881D01*
X39556067Y-68764293D01*
X39556065Y-68764294D01*
X39550757Y-68765716D01*
X39545776Y-68768039D01*
X39545775Y-68768039D01*
X39348238Y-68860151D01*
X39348233Y-68860154D01*
X39343251Y-68862477D01*
X39276621Y-68909132D01*
X39160211Y-68990643D01*
X39160208Y-68990645D01*
X39155700Y-68993802D01*
X38993802Y-69155700D01*
X38862477Y-69343251D01*
X38860154Y-69348233D01*
X38860151Y-69348238D01*
X38860034Y-69348489D01*
X38765716Y-69550757D01*
X38764294Y-69556065D01*
X38764293Y-69556067D01*
X38707881Y-69766598D01*
X38706457Y-69771913D01*
X38686502Y-70000000D01*
X38706457Y-70228087D01*
X38707881Y-70233402D01*
X38707882Y-70233406D01*
X38715988Y-70263660D01*
X38714298Y-70334637D01*
X38683376Y-70385365D01*
X35592395Y-73476345D01*
X35583615Y-73484335D01*
X35583613Y-73484337D01*
X35576920Y-73488584D01*
X35571494Y-73494362D01*
X35571493Y-73494363D01*
X35528396Y-73540257D01*
X35525641Y-73543099D01*
X35505073Y-73563667D01*
X35502356Y-73567170D01*
X35494648Y-73576195D01*
X35463028Y-73609867D01*
X35459207Y-73616818D01*
X35459206Y-73616819D01*
X35452697Y-73628658D01*
X35441843Y-73645182D01*
X35434018Y-73655271D01*
X35428696Y-73662132D01*
X35425549Y-73669404D01*
X35425548Y-73669406D01*
X35410346Y-73704535D01*
X35405124Y-73715195D01*
X35382876Y-73755663D01*
X35377541Y-73776441D01*
X35371142Y-73795131D01*
X35362620Y-73814824D01*
X35361380Y-73822655D01*
X35355394Y-73860448D01*
X35352987Y-73872071D01*
X35341500Y-73916812D01*
X35341500Y-73938259D01*
X35339949Y-73957969D01*
X35336594Y-73979152D01*
X35337340Y-73987043D01*
X35340941Y-74025138D01*
X35341500Y-74036996D01*
X35341500Y-81498112D01*
X35321498Y-81566233D01*
X35287772Y-81601324D01*
X35218315Y-81649958D01*
X35160211Y-81690643D01*
X35160208Y-81690645D01*
X35155700Y-81693802D01*
X34993802Y-81855700D01*
X34990645Y-81860208D01*
X34990643Y-81860211D01*
X34949958Y-81918315D01*
X34933936Y-81941198D01*
X34901325Y-81987771D01*
X34845868Y-82032099D01*
X34798112Y-82041500D01*
X34382056Y-82041500D01*
X34370200Y-82040941D01*
X34370197Y-82040941D01*
X34362463Y-82039212D01*
X34307446Y-82040941D01*
X34291631Y-82041438D01*
X34287673Y-82041500D01*
X34258568Y-82041500D01*
X34254168Y-82042056D01*
X34242336Y-82042988D01*
X34196169Y-82044438D01*
X34175579Y-82050420D01*
X34156218Y-82054430D01*
X34149230Y-82055312D01*
X34142796Y-82056125D01*
X34142795Y-82056125D01*
X34134936Y-82057118D01*
X34127571Y-82060034D01*
X34127567Y-82060035D01*
X34091979Y-82074126D01*
X34080769Y-82077965D01*
X34036400Y-82090855D01*
X34017943Y-82101771D01*
X34000193Y-82110466D01*
X33980244Y-82118365D01*
X33973833Y-82123023D01*
X33973831Y-82123024D01*
X33942864Y-82145523D01*
X33932946Y-82152038D01*
X33893193Y-82175548D01*
X33878032Y-82190709D01*
X33863000Y-82203548D01*
X33845643Y-82216159D01*
X33821143Y-82245775D01*
X33816193Y-82251758D01*
X33808203Y-82260538D01*
X32300727Y-83768013D01*
X32238415Y-83802039D01*
X32200652Y-83804439D01*
X32000000Y-83786884D01*
X31789345Y-83805314D01*
X31784033Y-83806737D01*
X31784029Y-83806738D01*
X31774235Y-83809363D01*
X31767602Y-83811140D01*
X31696626Y-83809452D01*
X31637829Y-83769659D01*
X31609880Y-83704395D01*
X31608989Y-83689434D01*
X31608989Y-81025535D01*
X31628991Y-80957414D01*
X31682647Y-80910921D01*
X31752921Y-80900817D01*
X31807259Y-80922322D01*
X31838737Y-80944363D01*
X31838742Y-80944366D01*
X31843251Y-80947523D01*
X31848233Y-80949846D01*
X31848238Y-80949849D01*
X31983852Y-81013086D01*
X32050757Y-81044284D01*
X32056065Y-81045706D01*
X32056067Y-81045707D01*
X32266598Y-81102119D01*
X32266600Y-81102119D01*
X32271913Y-81103543D01*
X32500000Y-81123498D01*
X32728087Y-81103543D01*
X32733400Y-81102119D01*
X32733402Y-81102119D01*
X32943933Y-81045707D01*
X32943935Y-81045706D01*
X32949243Y-81044284D01*
X33016148Y-81013086D01*
X33151762Y-80949849D01*
X33151767Y-80949846D01*
X33156749Y-80947523D01*
X33261611Y-80874098D01*
X33339789Y-80819357D01*
X33339792Y-80819355D01*
X33344300Y-80816198D01*
X33506198Y-80654300D01*
X33637523Y-80466749D01*
X33639846Y-80461767D01*
X33639849Y-80461762D01*
X33731961Y-80264225D01*
X33731961Y-80264224D01*
X33734284Y-80259243D01*
X33786147Y-80065691D01*
X33792119Y-80043402D01*
X33792119Y-80043400D01*
X33793543Y-80038087D01*
X33813498Y-79810000D01*
X33793543Y-79581913D01*
X33734284Y-79360757D01*
X33731961Y-79355775D01*
X33639849Y-79158238D01*
X33639846Y-79158233D01*
X33637523Y-79153251D01*
X33506198Y-78965700D01*
X33344300Y-78803802D01*
X33339792Y-78800645D01*
X33339789Y-78800643D01*
X33195336Y-78699496D01*
X33156749Y-78672477D01*
X33151767Y-78670154D01*
X33151762Y-78670151D01*
X32954225Y-78578039D01*
X32954224Y-78578039D01*
X32949243Y-78575716D01*
X32943935Y-78574294D01*
X32943933Y-78574293D01*
X32733402Y-78517881D01*
X32733400Y-78517881D01*
X32728087Y-78516457D01*
X32500000Y-78496502D01*
X32271913Y-78516457D01*
X32266600Y-78517881D01*
X32266598Y-78517881D01*
X32056067Y-78574293D01*
X32056065Y-78574294D01*
X32050757Y-78575716D01*
X32045776Y-78578039D01*
X32045775Y-78578039D01*
X31848238Y-78670151D01*
X31848233Y-78670154D01*
X31843251Y-78672477D01*
X31838743Y-78675633D01*
X31838737Y-78675637D01*
X31807259Y-78697678D01*
X31739985Y-78720366D01*
X31671125Y-78703081D01*
X31622541Y-78651311D01*
X31608989Y-78594465D01*
X31608989Y-73624500D01*
X31628991Y-73556379D01*
X31682647Y-73509886D01*
X31734989Y-73498500D01*
X33348134Y-73498500D01*
X33410316Y-73491745D01*
X33546705Y-73440615D01*
X33663261Y-73353261D01*
X33750615Y-73236705D01*
X33801745Y-73100316D01*
X33808500Y-73038134D01*
X33808500Y-71549295D01*
X33828502Y-71481174D01*
X33845405Y-71460200D01*
X34668894Y-70636711D01*
X34731206Y-70602685D01*
X34802021Y-70607750D01*
X34858857Y-70650297D01*
X34863504Y-70657344D01*
X34991028Y-70839467D01*
X34998084Y-70847875D01*
X35152125Y-71001916D01*
X35160533Y-71008972D01*
X35338993Y-71133931D01*
X35348489Y-71139414D01*
X35545947Y-71231490D01*
X35556239Y-71235236D01*
X35728503Y-71281394D01*
X35742599Y-71281058D01*
X35746000Y-71273116D01*
X35746000Y-71267967D01*
X36254000Y-71267967D01*
X36257973Y-71281498D01*
X36266522Y-71282727D01*
X36443761Y-71235236D01*
X36454053Y-71231490D01*
X36651511Y-71139414D01*
X36661007Y-71133931D01*
X36839467Y-71008972D01*
X36847875Y-71001916D01*
X37001916Y-70847875D01*
X37008972Y-70839467D01*
X37133931Y-70661007D01*
X37139414Y-70651511D01*
X37231490Y-70454053D01*
X37235236Y-70443761D01*
X37281394Y-70271497D01*
X37281058Y-70257401D01*
X37273116Y-70254000D01*
X36272115Y-70254000D01*
X36256876Y-70258475D01*
X36255671Y-70259865D01*
X36254000Y-70267548D01*
X36254000Y-71267967D01*
X35746000Y-71267967D01*
X35746000Y-69872000D01*
X35766002Y-69803879D01*
X35819658Y-69757386D01*
X35872000Y-69746000D01*
X37267967Y-69746000D01*
X37281498Y-69742027D01*
X37282727Y-69733478D01*
X37235236Y-69556239D01*
X37231490Y-69545947D01*
X37139414Y-69348489D01*
X37133931Y-69338993D01*
X37008972Y-69160533D01*
X37001916Y-69152125D01*
X36847875Y-68998084D01*
X36839467Y-68991028D01*
X36656498Y-68862912D01*
X36657478Y-68861513D01*
X36613823Y-68815745D01*
X36600374Y-68746034D01*
X36626750Y-68680118D01*
X36636711Y-68668894D01*
X41094435Y-64211170D01*
X41156747Y-64177144D01*
X41227562Y-64182209D01*
X41247100Y-64191477D01*
X41384860Y-64271977D01*
X41384863Y-64271979D01*
X41389322Y-64274584D01*
X41605694Y-64357209D01*
X41610760Y-64358240D01*
X41610761Y-64358240D01*
X41663846Y-64369040D01*
X41832656Y-64403385D01*
X41963324Y-64408176D01*
X42058949Y-64411683D01*
X42058953Y-64411683D01*
X42064113Y-64411872D01*
X42069233Y-64411216D01*
X42069235Y-64411216D01*
X42142270Y-64401860D01*
X42293847Y-64382442D01*
X42298795Y-64380957D01*
X42298802Y-64380956D01*
X42510747Y-64317369D01*
X42515690Y-64315886D01*
X42520565Y-64313498D01*
X42719049Y-64216262D01*
X42719052Y-64216260D01*
X42723684Y-64213991D01*
X42912243Y-64079494D01*
X43076303Y-63916005D01*
X43137876Y-63830318D01*
X43208443Y-63732113D01*
X43208444Y-63732112D01*
X43211458Y-63727917D01*
X43213748Y-63723284D01*
X43215957Y-63719607D01*
X43268186Y-63671517D01*
X43323961Y-63658500D01*
X47565500Y-63658500D01*
X47633621Y-63678502D01*
X47680114Y-63732158D01*
X47691500Y-63784500D01*
X47691500Y-63848134D01*
X47698255Y-63910316D01*
X47749385Y-64046705D01*
X47836739Y-64163261D01*
X47953295Y-64250615D01*
X48089684Y-64301745D01*
X48151866Y-64308500D01*
X49848134Y-64308500D01*
X49910316Y-64301745D01*
X50046705Y-64250615D01*
X50163261Y-64163261D01*
X50168642Y-64156081D01*
X50174992Y-64149731D01*
X50177232Y-64151971D01*
X50221565Y-64118829D01*
X50292384Y-64113810D01*
X50333790Y-64131949D01*
X50333981Y-64131617D01*
X50336964Y-64133339D01*
X50337797Y-64133704D01*
X50343251Y-64137523D01*
X50348233Y-64139846D01*
X50348238Y-64139849D01*
X50507238Y-64213991D01*
X50550757Y-64234284D01*
X50556065Y-64235706D01*
X50556067Y-64235707D01*
X50766598Y-64292119D01*
X50766600Y-64292119D01*
X50771913Y-64293543D01*
X51000000Y-64313498D01*
X51228087Y-64293543D01*
X51233400Y-64292119D01*
X51233402Y-64292119D01*
X51443933Y-64235707D01*
X51443935Y-64235706D01*
X51449243Y-64234284D01*
X51492762Y-64213991D01*
X51651762Y-64139849D01*
X51651767Y-64139846D01*
X51656749Y-64137523D01*
X51839179Y-64009784D01*
X51839789Y-64009357D01*
X51839792Y-64009355D01*
X51844300Y-64006198D01*
X52006198Y-63844300D01*
X52015989Y-63830318D01*
X52112287Y-63692790D01*
X52167744Y-63648462D01*
X52238364Y-63641153D01*
X52301724Y-63673184D01*
X52337709Y-63734385D01*
X52341500Y-63765061D01*
X52341500Y-67675050D01*
X52321498Y-67743171D01*
X52304595Y-67764145D01*
X51592395Y-68476345D01*
X51583615Y-68484335D01*
X51583613Y-68484337D01*
X51576920Y-68488584D01*
X51571494Y-68494362D01*
X51571493Y-68494363D01*
X51528396Y-68540257D01*
X51525641Y-68543099D01*
X51505073Y-68563667D01*
X51502356Y-68567170D01*
X51494648Y-68576195D01*
X51463028Y-68609867D01*
X51459207Y-68616818D01*
X51459206Y-68616819D01*
X51452697Y-68628658D01*
X51441843Y-68645182D01*
X51434018Y-68655271D01*
X51428696Y-68662132D01*
X51425549Y-68669404D01*
X51425548Y-68669406D01*
X51410346Y-68704535D01*
X51405124Y-68715195D01*
X51388170Y-68746034D01*
X51382876Y-68755663D01*
X51377541Y-68776441D01*
X51371142Y-68795131D01*
X51362620Y-68814824D01*
X51361380Y-68822655D01*
X51355394Y-68860448D01*
X51352987Y-68872071D01*
X51341500Y-68916812D01*
X51341500Y-68938259D01*
X51339949Y-68957969D01*
X51336594Y-68979152D01*
X51337340Y-68987043D01*
X51340941Y-69025138D01*
X51341500Y-69036996D01*
X51341500Y-75675051D01*
X51321498Y-75743172D01*
X51304595Y-75764146D01*
X48470446Y-78598294D01*
X48408134Y-78632320D01*
X48359255Y-78633246D01*
X48138095Y-78593851D01*
X48138089Y-78593850D01*
X48133006Y-78592945D01*
X48060096Y-78592054D01*
X47906581Y-78590179D01*
X47906579Y-78590179D01*
X47901411Y-78590116D01*
X47672464Y-78625150D01*
X47452314Y-78697106D01*
X47447726Y-78699494D01*
X47447722Y-78699496D01*
X47251461Y-78801663D01*
X47246872Y-78804052D01*
X47242739Y-78807155D01*
X47242736Y-78807157D01*
X47065790Y-78940012D01*
X47061655Y-78943117D01*
X46901639Y-79110564D01*
X46898730Y-79114829D01*
X46898724Y-79114837D01*
X46883152Y-79137665D01*
X46771119Y-79301899D01*
X46673602Y-79511981D01*
X46611707Y-79735169D01*
X46587095Y-79965469D01*
X46587392Y-79970622D01*
X46587392Y-79970625D01*
X46593067Y-80069041D01*
X46600427Y-80196697D01*
X46601564Y-80201743D01*
X46601565Y-80201749D01*
X46614522Y-80259243D01*
X46651346Y-80422642D01*
X46653288Y-80427424D01*
X46653289Y-80427428D01*
X46736540Y-80632450D01*
X46738484Y-80637237D01*
X46859501Y-80834719D01*
X47011147Y-81009784D01*
X47189349Y-81157730D01*
X47389322Y-81274584D01*
X47605694Y-81357209D01*
X47610760Y-81358240D01*
X47610761Y-81358240D01*
X47647463Y-81365707D01*
X47832656Y-81403385D01*
X47955271Y-81407881D01*
X48058949Y-81411683D01*
X48058953Y-81411683D01*
X48064113Y-81411872D01*
X48069233Y-81411216D01*
X48069235Y-81411216D01*
X48197857Y-81394739D01*
X48267967Y-81405923D01*
X48320901Y-81453237D01*
X48339308Y-81507862D01*
X48340941Y-81525140D01*
X48341500Y-81536996D01*
X48341500Y-81798112D01*
X48321498Y-81866233D01*
X48287772Y-81901324D01*
X48242237Y-81933208D01*
X48160211Y-81990643D01*
X48160208Y-81990645D01*
X48155700Y-81993802D01*
X47993802Y-82155700D01*
X47990645Y-82160208D01*
X47990643Y-82160211D01*
X47951468Y-82216159D01*
X47862477Y-82343251D01*
X47860154Y-82348233D01*
X47860151Y-82348238D01*
X47768039Y-82545775D01*
X47765716Y-82550757D01*
X47764294Y-82556065D01*
X47764293Y-82556067D01*
X47719098Y-82724736D01*
X47706457Y-82771913D01*
X47686502Y-83000000D01*
X47706457Y-83228087D01*
X47707881Y-83233400D01*
X47707881Y-83233402D01*
X47724340Y-83294825D01*
X47765716Y-83449243D01*
X47768039Y-83454224D01*
X47768039Y-83454225D01*
X47860151Y-83651762D01*
X47860154Y-83651767D01*
X47862477Y-83656749D01*
X47903944Y-83715970D01*
X47989057Y-83837523D01*
X47993802Y-83844300D01*
X48155700Y-84006198D01*
X48160208Y-84009355D01*
X48160211Y-84009357D01*
X48165441Y-84013019D01*
X48343251Y-84137523D01*
X48348233Y-84139846D01*
X48348238Y-84139849D01*
X48545775Y-84231961D01*
X48550757Y-84234284D01*
X48556065Y-84235706D01*
X48556067Y-84235707D01*
X48766598Y-84292119D01*
X48766600Y-84292119D01*
X48771913Y-84293543D01*
X49000000Y-84313498D01*
X49228087Y-84293543D01*
X49233400Y-84292119D01*
X49233402Y-84292119D01*
X49443933Y-84235707D01*
X49443935Y-84235706D01*
X49449243Y-84234284D01*
X49454225Y-84231961D01*
X49651762Y-84139849D01*
X49651767Y-84139846D01*
X49656749Y-84137523D01*
X49834559Y-84013019D01*
X49839789Y-84009357D01*
X49839792Y-84009355D01*
X49844300Y-84006198D01*
X50006198Y-83844300D01*
X50010944Y-83837523D01*
X50096056Y-83715970D01*
X50137523Y-83656749D01*
X50139846Y-83651767D01*
X50139849Y-83651762D01*
X50231961Y-83454225D01*
X50231961Y-83454224D01*
X50234284Y-83449243D01*
X50275661Y-83294825D01*
X50292119Y-83233402D01*
X50292119Y-83233400D01*
X50293543Y-83228087D01*
X50313498Y-83000000D01*
X50293543Y-82771913D01*
X50280902Y-82724736D01*
X50235707Y-82556067D01*
X50235706Y-82556065D01*
X50234284Y-82550757D01*
X50231961Y-82545775D01*
X50139849Y-82348238D01*
X50139846Y-82348233D01*
X50137523Y-82343251D01*
X50048532Y-82216159D01*
X50009357Y-82160211D01*
X50009355Y-82160208D01*
X50006198Y-82155700D01*
X49844300Y-81993802D01*
X49839790Y-81990644D01*
X49839784Y-81990639D01*
X49728015Y-81912378D01*
X49683686Y-81856921D01*
X49676377Y-81786302D01*
X49711190Y-81720070D01*
X50031527Y-81399733D01*
X50093839Y-81365707D01*
X50145742Y-81365357D01*
X50198048Y-81375999D01*
X50332656Y-81403385D01*
X50455271Y-81407881D01*
X50558949Y-81411683D01*
X50558953Y-81411683D01*
X50564113Y-81411872D01*
X50569233Y-81411216D01*
X50569235Y-81411216D01*
X50661861Y-81399350D01*
X50793847Y-81382442D01*
X50798795Y-81380957D01*
X50798802Y-81380956D01*
X51010747Y-81317369D01*
X51015690Y-81315886D01*
X51096236Y-81276427D01*
X51219049Y-81216262D01*
X51219052Y-81216260D01*
X51223684Y-81213991D01*
X51412243Y-81079494D01*
X51576303Y-80916005D01*
X51645370Y-80819888D01*
X51701365Y-80776240D01*
X51772068Y-80769794D01*
X51835033Y-80802597D01*
X51855128Y-80827584D01*
X51856799Y-80830311D01*
X51856804Y-80830318D01*
X51859501Y-80834719D01*
X52011147Y-81009784D01*
X52189349Y-81157730D01*
X52389322Y-81274584D01*
X52605694Y-81357209D01*
X52610760Y-81358240D01*
X52610761Y-81358240D01*
X52647463Y-81365707D01*
X52832656Y-81403385D01*
X52955271Y-81407881D01*
X53058949Y-81411683D01*
X53058953Y-81411683D01*
X53064113Y-81411872D01*
X53069233Y-81411216D01*
X53069235Y-81411216D01*
X53161861Y-81399350D01*
X53293847Y-81382442D01*
X53298796Y-81380957D01*
X53298802Y-81380956D01*
X53330423Y-81371469D01*
X53342789Y-81367759D01*
X53413783Y-81367343D01*
X53468090Y-81399350D01*
X54729595Y-82660855D01*
X54763621Y-82723167D01*
X54766500Y-82749950D01*
X54766500Y-84031050D01*
X54746498Y-84099171D01*
X54692842Y-84145664D01*
X54622568Y-84155768D01*
X54557988Y-84126274D01*
X54551405Y-84120145D01*
X54231987Y-83800727D01*
X54197961Y-83738415D01*
X54195561Y-83700650D01*
X54196543Y-83689434D01*
X54213116Y-83500000D01*
X54194686Y-83289345D01*
X54139956Y-83085090D01*
X54069223Y-82933402D01*
X54052912Y-82898423D01*
X54052910Y-82898420D01*
X54050589Y-82893442D01*
X53929301Y-82720224D01*
X53779776Y-82570699D01*
X53606558Y-82449411D01*
X53601580Y-82447090D01*
X53601577Y-82447088D01*
X53419892Y-82362367D01*
X53419891Y-82362366D01*
X53414910Y-82360044D01*
X53409602Y-82358622D01*
X53409600Y-82358621D01*
X53215970Y-82306738D01*
X53215968Y-82306738D01*
X53210655Y-82305314D01*
X53000000Y-82286884D01*
X52789345Y-82305314D01*
X52784032Y-82306738D01*
X52784030Y-82306738D01*
X52590400Y-82358621D01*
X52590398Y-82358622D01*
X52585090Y-82360044D01*
X52580109Y-82362366D01*
X52580108Y-82362367D01*
X52398423Y-82447088D01*
X52398420Y-82447090D01*
X52393442Y-82449411D01*
X52220224Y-82570699D01*
X52070699Y-82720224D01*
X51949411Y-82893442D01*
X51947090Y-82898420D01*
X51947088Y-82898423D01*
X51930777Y-82933402D01*
X51860044Y-83085090D01*
X51805314Y-83289345D01*
X51786884Y-83500000D01*
X51805314Y-83710655D01*
X51806738Y-83715968D01*
X51806738Y-83715970D01*
X51831787Y-83809452D01*
X51860044Y-83914910D01*
X51862366Y-83919891D01*
X51862367Y-83919892D01*
X51896935Y-83994022D01*
X51949411Y-84106558D01*
X52070699Y-84279776D01*
X52220224Y-84429301D01*
X52393442Y-84550589D01*
X52398420Y-84552910D01*
X52398423Y-84552912D01*
X52472835Y-84587611D01*
X52576782Y-84636082D01*
X52630066Y-84682998D01*
X52649527Y-84751275D01*
X52628985Y-84819235D01*
X52576780Y-84864471D01*
X52398677Y-84947521D01*
X52389189Y-84952999D01*
X52358752Y-84974311D01*
X52350377Y-84984788D01*
X52357446Y-84998236D01*
X54002486Y-86643276D01*
X54014261Y-86649706D01*
X54026276Y-86640410D01*
X54037767Y-86623999D01*
X54093224Y-86579671D01*
X54163843Y-86572362D01*
X54227204Y-86604393D01*
X54263189Y-86665594D01*
X54266980Y-86696270D01*
X54266980Y-106774570D01*
X54246978Y-106842691D01*
X54230075Y-106863665D01*
X52369539Y-108724201D01*
X52307227Y-108758227D01*
X52255322Y-108756994D01*
X52255098Y-108758264D01*
X52249691Y-108757310D01*
X52244371Y-108755885D01*
X52025000Y-108736693D01*
X51805629Y-108755885D01*
X51592924Y-108812880D01*
X51499562Y-108856415D01*
X51398334Y-108903618D01*
X51398329Y-108903621D01*
X51393347Y-108905944D01*
X51388840Y-108909100D01*
X51388838Y-108909101D01*
X51217473Y-109029092D01*
X51217470Y-109029094D01*
X51212962Y-109032251D01*
X51057251Y-109187962D01*
X51054094Y-109192470D01*
X51054092Y-109192473D01*
X50936628Y-109360229D01*
X50930944Y-109368347D01*
X50928621Y-109373329D01*
X50928618Y-109373334D01*
X50907978Y-109417598D01*
X50837880Y-109567924D01*
X50780885Y-109780629D01*
X50761693Y-110000000D01*
X50780885Y-110219371D01*
X50837880Y-110432076D01*
X50840205Y-110437061D01*
X50928618Y-110626666D01*
X50928621Y-110626671D01*
X50930944Y-110631653D01*
X51057251Y-110812038D01*
X51212962Y-110967749D01*
X51393346Y-111094056D01*
X51592924Y-111187120D01*
X51805629Y-111244115D01*
X52025000Y-111263307D01*
X52244371Y-111244115D01*
X52457076Y-111187120D01*
X52656654Y-111094056D01*
X52837038Y-110967749D01*
X52992749Y-110812038D01*
X53119056Y-110631653D01*
X53121379Y-110626671D01*
X53121382Y-110626666D01*
X53209795Y-110437061D01*
X53212120Y-110432076D01*
X53269115Y-110219371D01*
X53288307Y-110000000D01*
X53269115Y-109780629D01*
X53267690Y-109775309D01*
X53266736Y-109769902D01*
X53268364Y-109769615D01*
X53269881Y-109706179D01*
X53300799Y-109655461D01*
X54551405Y-108404855D01*
X54613717Y-108370829D01*
X54684532Y-108375894D01*
X54741368Y-108418441D01*
X54766179Y-108484961D01*
X54766500Y-108493950D01*
X54766500Y-108859151D01*
X54746498Y-108927272D01*
X54712772Y-108962363D01*
X54664190Y-108996380D01*
X54634086Y-109017460D01*
X54612962Y-109032251D01*
X54457251Y-109187962D01*
X54454094Y-109192470D01*
X54454092Y-109192473D01*
X54336628Y-109360229D01*
X54330944Y-109368347D01*
X54328621Y-109373329D01*
X54328618Y-109373334D01*
X54307978Y-109417598D01*
X54237880Y-109567924D01*
X54180885Y-109780629D01*
X54161693Y-110000000D01*
X54180885Y-110219371D01*
X54237880Y-110432076D01*
X54240205Y-110437061D01*
X54328618Y-110626666D01*
X54328621Y-110626671D01*
X54330944Y-110631653D01*
X54457251Y-110812038D01*
X54612962Y-110967749D01*
X54793346Y-111094056D01*
X54992924Y-111187120D01*
X55205629Y-111244115D01*
X55425000Y-111263307D01*
X55644371Y-111244115D01*
X55857076Y-111187120D01*
X56056654Y-111094056D01*
X56237038Y-110967749D01*
X56392749Y-110812038D01*
X56519056Y-110631653D01*
X56521379Y-110626671D01*
X56521382Y-110626666D01*
X56609795Y-110437061D01*
X56612120Y-110432076D01*
X56669115Y-110219371D01*
X56688307Y-110000000D01*
X56669115Y-109780629D01*
X56612120Y-109567924D01*
X56542022Y-109417598D01*
X56521382Y-109373334D01*
X56521379Y-109373329D01*
X56519056Y-109368347D01*
X56513372Y-109360229D01*
X56395908Y-109192473D01*
X56395906Y-109192470D01*
X56392749Y-109187962D01*
X56237038Y-109032251D01*
X56215915Y-109017460D01*
X56185810Y-108996380D01*
X56137228Y-108962363D01*
X56092901Y-108906907D01*
X56083500Y-108859151D01*
X56083500Y-82507059D01*
X56084059Y-82495203D01*
X56085789Y-82487463D01*
X56085473Y-82477393D01*
X56083562Y-82416611D01*
X56083500Y-82412653D01*
X56083500Y-82383568D01*
X56082946Y-82379179D01*
X56082013Y-82367337D01*
X56080811Y-82329094D01*
X56080562Y-82321169D01*
X56074580Y-82300579D01*
X56070570Y-82281216D01*
X56068875Y-82267796D01*
X56068875Y-82267795D01*
X56067882Y-82259936D01*
X56064966Y-82252571D01*
X56064965Y-82252567D01*
X56050874Y-82216979D01*
X56047035Y-82205769D01*
X56034145Y-82161400D01*
X56023225Y-82142935D01*
X56014534Y-82125195D01*
X56006635Y-82105244D01*
X55979482Y-82067871D01*
X55972967Y-82057952D01*
X55953493Y-82025023D01*
X55953490Y-82025019D01*
X55949453Y-82018193D01*
X55934289Y-82003029D01*
X55921448Y-81987995D01*
X55913501Y-81977057D01*
X55908841Y-81970643D01*
X55873247Y-81941197D01*
X55864468Y-81933208D01*
X54399538Y-80468278D01*
X54365512Y-80405966D01*
X54368075Y-80342554D01*
X54379903Y-80303624D01*
X54381408Y-80298671D01*
X54411640Y-80069041D01*
X54411722Y-80065691D01*
X54413245Y-80003365D01*
X54413245Y-80003361D01*
X54413327Y-80000000D01*
X54407032Y-79923434D01*
X54394773Y-79774318D01*
X54394772Y-79774312D01*
X54394349Y-79769167D01*
X54337925Y-79544533D01*
X54335866Y-79539797D01*
X54247630Y-79336868D01*
X54247628Y-79336865D01*
X54245570Y-79332131D01*
X54119764Y-79137665D01*
X53963887Y-78966358D01*
X53959836Y-78963159D01*
X53959832Y-78963155D01*
X53786177Y-78826011D01*
X53786172Y-78826008D01*
X53782123Y-78822810D01*
X53777607Y-78820317D01*
X53777604Y-78820315D01*
X53583879Y-78713373D01*
X53583875Y-78713371D01*
X53579355Y-78710876D01*
X53574486Y-78709152D01*
X53574482Y-78709150D01*
X53365903Y-78635288D01*
X53365899Y-78635287D01*
X53361028Y-78633562D01*
X53355935Y-78632655D01*
X53355932Y-78632654D01*
X53138095Y-78593851D01*
X53138089Y-78593850D01*
X53133006Y-78592945D01*
X53060096Y-78592054D01*
X52906581Y-78590179D01*
X52906579Y-78590179D01*
X52901411Y-78590116D01*
X52672464Y-78625150D01*
X52452314Y-78697106D01*
X52447726Y-78699494D01*
X52447722Y-78699496D01*
X52251461Y-78801663D01*
X52246872Y-78804052D01*
X52242739Y-78807155D01*
X52242736Y-78807157D01*
X52065790Y-78940012D01*
X52061655Y-78943117D01*
X51901639Y-79110564D01*
X51854836Y-79179174D01*
X51799927Y-79224175D01*
X51729402Y-79232346D01*
X51665655Y-79201092D01*
X51644959Y-79176609D01*
X51622577Y-79142013D01*
X51622574Y-79142009D01*
X51619764Y-79137665D01*
X51463887Y-78966358D01*
X51459836Y-78963159D01*
X51459832Y-78963155D01*
X51286177Y-78826011D01*
X51286172Y-78826008D01*
X51282123Y-78822810D01*
X51277607Y-78820317D01*
X51277604Y-78820315D01*
X51083879Y-78713373D01*
X51083875Y-78713371D01*
X51079355Y-78710876D01*
X51074486Y-78709152D01*
X51074482Y-78709150D01*
X50865903Y-78635288D01*
X50865899Y-78635287D01*
X50861028Y-78633562D01*
X50855935Y-78632655D01*
X50855932Y-78632654D01*
X50638106Y-78593853D01*
X50638101Y-78593852D01*
X50633006Y-78592945D01*
X50629497Y-78592902D01*
X50564012Y-78566756D01*
X50522776Y-78508962D01*
X50519332Y-78438049D01*
X50552713Y-78378546D01*
X52407600Y-76523659D01*
X52416381Y-76515669D01*
X52416390Y-76515661D01*
X52423080Y-76511416D01*
X52471621Y-76459725D01*
X52474375Y-76456884D01*
X52494926Y-76436333D01*
X52497638Y-76432837D01*
X52505349Y-76423808D01*
X52531544Y-76395913D01*
X52536972Y-76390133D01*
X52547301Y-76371345D01*
X52558158Y-76354816D01*
X52566444Y-76344134D01*
X52571304Y-76337869D01*
X52589659Y-76295455D01*
X52594873Y-76284812D01*
X52613304Y-76251286D01*
X52613304Y-76251285D01*
X52617124Y-76244337D01*
X52619095Y-76236660D01*
X52619097Y-76236655D01*
X52622455Y-76223574D01*
X52628861Y-76204862D01*
X52634233Y-76192448D01*
X52637380Y-76185177D01*
X52644608Y-76139541D01*
X52647012Y-76127930D01*
X52658500Y-76083188D01*
X52658500Y-76061742D01*
X52660051Y-76042032D01*
X52662166Y-76028678D01*
X52663406Y-76020849D01*
X52659059Y-75974860D01*
X52658500Y-75963005D01*
X52658500Y-74575843D01*
X52678502Y-74507722D01*
X52732158Y-74461229D01*
X52802432Y-74451125D01*
X52867012Y-74480619D01*
X52881583Y-74495525D01*
X53067767Y-74720582D01*
X53297860Y-74936654D01*
X53553221Y-75122184D01*
X53829821Y-75274247D01*
X53833490Y-75275700D01*
X53833495Y-75275702D01*
X54119628Y-75388990D01*
X54123298Y-75390443D01*
X54429025Y-75468940D01*
X54742179Y-75508500D01*
X55057821Y-75508500D01*
X55370975Y-75468940D01*
X55676702Y-75390443D01*
X55680372Y-75388990D01*
X55966505Y-75275702D01*
X55966510Y-75275700D01*
X55970179Y-75274247D01*
X56246779Y-75122184D01*
X56502140Y-74936654D01*
X56732233Y-74720582D01*
X56933432Y-74477375D01*
X57102562Y-74210869D01*
X57104246Y-74207290D01*
X57104250Y-74207283D01*
X57235267Y-73928856D01*
X57235269Y-73928852D01*
X57236956Y-73925266D01*
X57334495Y-73625072D01*
X57393641Y-73315020D01*
X57413460Y-73000000D01*
X57393641Y-72684980D01*
X57334495Y-72374928D01*
X57236956Y-72074734D01*
X57235267Y-72071144D01*
X57104250Y-71792717D01*
X57104246Y-71792710D01*
X57102562Y-71789131D01*
X56933432Y-71522625D01*
X56742740Y-71292119D01*
X56734758Y-71282470D01*
X56734757Y-71282469D01*
X56732233Y-71279418D01*
X56502140Y-71063346D01*
X56246779Y-70877816D01*
X56119498Y-70807842D01*
X55973648Y-70727660D01*
X55973647Y-70727659D01*
X55970179Y-70725753D01*
X55966510Y-70724300D01*
X55966505Y-70724298D01*
X55680372Y-70611010D01*
X55680371Y-70611010D01*
X55676702Y-70609557D01*
X55370975Y-70531060D01*
X55057821Y-70491500D01*
X54742179Y-70491500D01*
X54429025Y-70531060D01*
X54123298Y-70609557D01*
X54119629Y-70611010D01*
X54119628Y-70611010D01*
X53833495Y-70724298D01*
X53833490Y-70724300D01*
X53829821Y-70725753D01*
X53826353Y-70727659D01*
X53826352Y-70727660D01*
X53680503Y-70807842D01*
X53553221Y-70877816D01*
X53297860Y-71063346D01*
X53067767Y-71279418D01*
X53065243Y-71282469D01*
X53065242Y-71282470D01*
X53057260Y-71292119D01*
X52900860Y-71481174D01*
X52881585Y-71504473D01*
X52822751Y-71544211D01*
X52751773Y-71545833D01*
X52691185Y-71508823D01*
X52660225Y-71444933D01*
X52658500Y-71424157D01*
X52658500Y-69324950D01*
X52678502Y-69256829D01*
X52695405Y-69235855D01*
X53407605Y-68523655D01*
X53416385Y-68515665D01*
X53416387Y-68515663D01*
X53423080Y-68511416D01*
X53471605Y-68459742D01*
X53474359Y-68456901D01*
X53494927Y-68436333D01*
X53497647Y-68432826D01*
X53505353Y-68423804D01*
X53531544Y-68395913D01*
X53536972Y-68390133D01*
X53540794Y-68383181D01*
X53547303Y-68371342D01*
X53558157Y-68354818D01*
X53566445Y-68344132D01*
X53571304Y-68337868D01*
X53574452Y-68330594D01*
X53589654Y-68295465D01*
X53594876Y-68284805D01*
X53613305Y-68251284D01*
X53613306Y-68251282D01*
X53617124Y-68244337D01*
X53622459Y-68223559D01*
X53628858Y-68204869D01*
X53637380Y-68185176D01*
X53644606Y-68139552D01*
X53647013Y-68127929D01*
X53656528Y-68090868D01*
X53658500Y-68083188D01*
X53658500Y-68061741D01*
X53660051Y-68042031D01*
X53662166Y-68028677D01*
X53663406Y-68020848D01*
X53659059Y-67974859D01*
X53658500Y-67963004D01*
X53658500Y-47323933D01*
X53678502Y-47255812D01*
X53719773Y-47215907D01*
X53723684Y-47213991D01*
X53727893Y-47210989D01*
X53727896Y-47210987D01*
X53814755Y-47149031D01*
X53912243Y-47079494D01*
X54076303Y-46916005D01*
X54211458Y-46727917D01*
X54282880Y-46583406D01*
X54311784Y-46524922D01*
X54311785Y-46524920D01*
X54314078Y-46520280D01*
X54381408Y-46298671D01*
X54411640Y-46069041D01*
X54413327Y-46000000D01*
X54404758Y-45895775D01*
X54394773Y-45774318D01*
X54394772Y-45774312D01*
X54394349Y-45769167D01*
X54360797Y-45635592D01*
X54339184Y-45549544D01*
X54339183Y-45549540D01*
X54337925Y-45544533D01*
X54323771Y-45511981D01*
X54247630Y-45336868D01*
X54247628Y-45336865D01*
X54245570Y-45332131D01*
X54119764Y-45137665D01*
X53963887Y-44966358D01*
X53959836Y-44963159D01*
X53959832Y-44963155D01*
X53786177Y-44826011D01*
X53786172Y-44826008D01*
X53782123Y-44822810D01*
X53777607Y-44820317D01*
X53777604Y-44820315D01*
X53583879Y-44713373D01*
X53583875Y-44713371D01*
X53579355Y-44710876D01*
X53574486Y-44709152D01*
X53574482Y-44709150D01*
X53365903Y-44635288D01*
X53365899Y-44635287D01*
X53361028Y-44633562D01*
X53355935Y-44632655D01*
X53355932Y-44632654D01*
X53138095Y-44593851D01*
X53138089Y-44593850D01*
X53133006Y-44592945D01*
X53060096Y-44592054D01*
X52906581Y-44590179D01*
X52906579Y-44590179D01*
X52901411Y-44590116D01*
X52672464Y-44625150D01*
X52452314Y-44697106D01*
X52447726Y-44699494D01*
X52447722Y-44699496D01*
X52251461Y-44801663D01*
X52246872Y-44804052D01*
X52242739Y-44807155D01*
X52242736Y-44807157D01*
X52183284Y-44851795D01*
X52061655Y-44943117D01*
X52058083Y-44946855D01*
X51953803Y-45055978D01*
X51901639Y-45110564D01*
X51854836Y-45179174D01*
X51799927Y-45224175D01*
X51729402Y-45232346D01*
X51665655Y-45201092D01*
X51644959Y-45176609D01*
X51622577Y-45142013D01*
X51622574Y-45142009D01*
X51619764Y-45137665D01*
X51463887Y-44966358D01*
X51459836Y-44963159D01*
X51459832Y-44963155D01*
X51286177Y-44826011D01*
X51286172Y-44826008D01*
X51282123Y-44822810D01*
X51277607Y-44820317D01*
X51277604Y-44820315D01*
X51083879Y-44713373D01*
X51083875Y-44713371D01*
X51079355Y-44710876D01*
X51074486Y-44709152D01*
X51074482Y-44709150D01*
X50865903Y-44635288D01*
X50865899Y-44635287D01*
X50861028Y-44633562D01*
X50855935Y-44632655D01*
X50855932Y-44632654D01*
X50638095Y-44593851D01*
X50638089Y-44593850D01*
X50633006Y-44592945D01*
X50560096Y-44592054D01*
X50406581Y-44590179D01*
X50406579Y-44590179D01*
X50401411Y-44590116D01*
X50172464Y-44625150D01*
X49952314Y-44697106D01*
X49947726Y-44699494D01*
X49947722Y-44699496D01*
X49751461Y-44801663D01*
X49746872Y-44804052D01*
X49742739Y-44807155D01*
X49742736Y-44807157D01*
X49683284Y-44851795D01*
X49561655Y-44943117D01*
X49558083Y-44946855D01*
X49453803Y-45055978D01*
X49401639Y-45110564D01*
X49398730Y-45114829D01*
X49398724Y-45114837D01*
X49350199Y-45185972D01*
X49295288Y-45230975D01*
X49224763Y-45239146D01*
X49163884Y-45210439D01*
X49158538Y-45205835D01*
X49148973Y-45210238D01*
X48372021Y-45987189D01*
X48364408Y-46001132D01*
X48364539Y-46002966D01*
X48368790Y-46009580D01*
X49146307Y-46787096D01*
X49158313Y-46793652D01*
X49167244Y-46786829D01*
X49233519Y-46761370D01*
X49303037Y-46775783D01*
X49351165Y-46821117D01*
X49356800Y-46830311D01*
X49359501Y-46834719D01*
X49511147Y-47009784D01*
X49689349Y-47157730D01*
X49889322Y-47274584D01*
X50105694Y-47357209D01*
X50110760Y-47358240D01*
X50110761Y-47358240D01*
X50163846Y-47369040D01*
X50332656Y-47403385D01*
X50463324Y-47408176D01*
X50558949Y-47411683D01*
X50558953Y-47411683D01*
X50564113Y-47411872D01*
X50569233Y-47411216D01*
X50569235Y-47411216D01*
X50642291Y-47401857D01*
X50793847Y-47382442D01*
X50798795Y-47380957D01*
X50798802Y-47380956D01*
X51010747Y-47317369D01*
X51015690Y-47315886D01*
X51097161Y-47275974D01*
X51219049Y-47216262D01*
X51219052Y-47216260D01*
X51223684Y-47213991D01*
X51412243Y-47079494D01*
X51576303Y-46916005D01*
X51645370Y-46819888D01*
X51701365Y-46776240D01*
X51772068Y-46769794D01*
X51835033Y-46802597D01*
X51855128Y-46827584D01*
X51856799Y-46830311D01*
X51856802Y-46830315D01*
X51859501Y-46834719D01*
X52011147Y-47009784D01*
X52189349Y-47157730D01*
X52244212Y-47189789D01*
X52279070Y-47210158D01*
X52327794Y-47261796D01*
X52341500Y-47318946D01*
X52341500Y-62234939D01*
X52321498Y-62303060D01*
X52267842Y-62349553D01*
X52197568Y-62359657D01*
X52132988Y-62330163D01*
X52112287Y-62307210D01*
X52009357Y-62160211D01*
X52009355Y-62160208D01*
X52006198Y-62155700D01*
X51844300Y-61993802D01*
X51839792Y-61990645D01*
X51839789Y-61990643D01*
X51761611Y-61935902D01*
X51656749Y-61862477D01*
X51651767Y-61860154D01*
X51651762Y-61860151D01*
X51454225Y-61768039D01*
X51454224Y-61768039D01*
X51449243Y-61765716D01*
X51443935Y-61764294D01*
X51443933Y-61764293D01*
X51233402Y-61707881D01*
X51233400Y-61707881D01*
X51228087Y-61706457D01*
X51000000Y-61686502D01*
X50771913Y-61706457D01*
X50766600Y-61707881D01*
X50766598Y-61707881D01*
X50556067Y-61764293D01*
X50556065Y-61764294D01*
X50550757Y-61765716D01*
X50545776Y-61768039D01*
X50545775Y-61768039D01*
X50348238Y-61860151D01*
X50348233Y-61860154D01*
X50343251Y-61862477D01*
X50337798Y-61866295D01*
X50337314Y-61866459D01*
X50333981Y-61868383D01*
X50333594Y-61867713D01*
X50270526Y-61888988D01*
X50201665Y-61871707D01*
X50176263Y-61848998D01*
X50174992Y-61850269D01*
X50168642Y-61843919D01*
X50163261Y-61836739D01*
X50046705Y-61749385D01*
X49910316Y-61698255D01*
X49848134Y-61691500D01*
X48151866Y-61691500D01*
X48089684Y-61698255D01*
X47953295Y-61749385D01*
X47836739Y-61836739D01*
X47749385Y-61953295D01*
X47698255Y-62089684D01*
X47691500Y-62151866D01*
X47691500Y-62215500D01*
X47671498Y-62283621D01*
X47617842Y-62330114D01*
X47565500Y-62341500D01*
X43320186Y-62341500D01*
X43252065Y-62321498D01*
X43214394Y-62283940D01*
X43122575Y-62142009D01*
X43122570Y-62142003D01*
X43119764Y-62137665D01*
X42963887Y-61966358D01*
X42959836Y-61963159D01*
X42959832Y-61963155D01*
X42786177Y-61826011D01*
X42786172Y-61826008D01*
X42782123Y-61822810D01*
X42777607Y-61820317D01*
X42777604Y-61820315D01*
X42583879Y-61713373D01*
X42583875Y-61713371D01*
X42579355Y-61710876D01*
X42574486Y-61709152D01*
X42574482Y-61709150D01*
X42365903Y-61635288D01*
X42365899Y-61635287D01*
X42361028Y-61633562D01*
X42355935Y-61632655D01*
X42355932Y-61632654D01*
X42138095Y-61593851D01*
X42138089Y-61593850D01*
X42133006Y-61592945D01*
X42060096Y-61592054D01*
X41906581Y-61590179D01*
X41906579Y-61590179D01*
X41901411Y-61590116D01*
X41672464Y-61625150D01*
X41452314Y-61697106D01*
X41447726Y-61699494D01*
X41447722Y-61699496D01*
X41251461Y-61801663D01*
X41246872Y-61804052D01*
X41242739Y-61807155D01*
X41242736Y-61807157D01*
X41070769Y-61936274D01*
X41061655Y-61943117D01*
X40901639Y-62110564D01*
X40854836Y-62179174D01*
X40799927Y-62224175D01*
X40729402Y-62232346D01*
X40665655Y-62201092D01*
X40644959Y-62176609D01*
X40622577Y-62142013D01*
X40622574Y-62142009D01*
X40619764Y-62137665D01*
X40463887Y-61966358D01*
X40459836Y-61963159D01*
X40459832Y-61963155D01*
X40286177Y-61826011D01*
X40286172Y-61826008D01*
X40282123Y-61822810D01*
X40277607Y-61820317D01*
X40277604Y-61820315D01*
X40083879Y-61713373D01*
X40083875Y-61713371D01*
X40079355Y-61710876D01*
X40074486Y-61709152D01*
X40074482Y-61709150D01*
X39865903Y-61635288D01*
X39865899Y-61635287D01*
X39861028Y-61633562D01*
X39855935Y-61632655D01*
X39855932Y-61632654D01*
X39638095Y-61593851D01*
X39638089Y-61593850D01*
X39633006Y-61592945D01*
X39560096Y-61592054D01*
X39406581Y-61590179D01*
X39406579Y-61590179D01*
X39401411Y-61590116D01*
X39172464Y-61625150D01*
X38952314Y-61697106D01*
X38947726Y-61699494D01*
X38947722Y-61699496D01*
X38751461Y-61801663D01*
X38746872Y-61804052D01*
X38742739Y-61807155D01*
X38742736Y-61807157D01*
X38570769Y-61936274D01*
X38561655Y-61943117D01*
X38401639Y-62110564D01*
X38354836Y-62179174D01*
X38299927Y-62224175D01*
X38229402Y-62232346D01*
X38165655Y-62201092D01*
X38144959Y-62176609D01*
X38122577Y-62142013D01*
X38122574Y-62142009D01*
X38119764Y-62137665D01*
X37963887Y-61966358D01*
X37959836Y-61963159D01*
X37959832Y-61963155D01*
X37786177Y-61826011D01*
X37786172Y-61826008D01*
X37782123Y-61822810D01*
X37777607Y-61820317D01*
X37777604Y-61820315D01*
X37583879Y-61713373D01*
X37583875Y-61713371D01*
X37579355Y-61710876D01*
X37574486Y-61709152D01*
X37574482Y-61709150D01*
X37365903Y-61635288D01*
X37365899Y-61635287D01*
X37361028Y-61633562D01*
X37355935Y-61632655D01*
X37355932Y-61632654D01*
X37138095Y-61593851D01*
X37138089Y-61593850D01*
X37133006Y-61592945D01*
X37060096Y-61592054D01*
X36906581Y-61590179D01*
X36906579Y-61590179D01*
X36901411Y-61590116D01*
X36672464Y-61625150D01*
X36452314Y-61697106D01*
X36447726Y-61699494D01*
X36447722Y-61699496D01*
X36251461Y-61801663D01*
X36246872Y-61804052D01*
X36242739Y-61807155D01*
X36242736Y-61807157D01*
X36070769Y-61936274D01*
X36061655Y-61943117D01*
X35901639Y-62110564D01*
X35898730Y-62114829D01*
X35898724Y-62114837D01*
X35883152Y-62137665D01*
X35771119Y-62301899D01*
X35673602Y-62511981D01*
X35611707Y-62735169D01*
X35587095Y-62965469D01*
X35600427Y-63196697D01*
X35601564Y-63201743D01*
X35601565Y-63201749D01*
X35607501Y-63228087D01*
X35651346Y-63422642D01*
X35653288Y-63427424D01*
X35653289Y-63427428D01*
X35736540Y-63632450D01*
X35738484Y-63637237D01*
X35859501Y-63834719D01*
X36011147Y-64009784D01*
X36189349Y-64157730D01*
X36389322Y-64274584D01*
X36605694Y-64357209D01*
X36610760Y-64358240D01*
X36610761Y-64358240D01*
X36663846Y-64369040D01*
X36832656Y-64403385D01*
X36963324Y-64408176D01*
X37058949Y-64411683D01*
X37058953Y-64411683D01*
X37064113Y-64411872D01*
X37069233Y-64411216D01*
X37069235Y-64411216D01*
X37142270Y-64401860D01*
X37293847Y-64382442D01*
X37298795Y-64380957D01*
X37298802Y-64380956D01*
X37510747Y-64317369D01*
X37515690Y-64315886D01*
X37520565Y-64313498D01*
X37719049Y-64216262D01*
X37719052Y-64216260D01*
X37723684Y-64213991D01*
X37912243Y-64079494D01*
X38076303Y-63916005D01*
X38145370Y-63819888D01*
X38201365Y-63776240D01*
X38272068Y-63769794D01*
X38335033Y-63802597D01*
X38355128Y-63827584D01*
X38356799Y-63830311D01*
X38356804Y-63830318D01*
X38359501Y-63834719D01*
X38511147Y-64009784D01*
X38689349Y-64157730D01*
X38889322Y-64274584D01*
X38894151Y-64276428D01*
X38909746Y-64282383D01*
X38966251Y-64325368D01*
X38990546Y-64392079D01*
X38974918Y-64461334D01*
X38953896Y-64489189D01*
X32598490Y-70844595D01*
X32536178Y-70878621D01*
X32509395Y-70881500D01*
X31734989Y-70881500D01*
X31666868Y-70861498D01*
X31620375Y-70807842D01*
X31608989Y-70755500D01*
X31608989Y-56000000D01*
X32586540Y-56000000D01*
X32606359Y-56315020D01*
X32665505Y-56625072D01*
X32763044Y-56925266D01*
X32764731Y-56928852D01*
X32764733Y-56928856D01*
X32895750Y-57207283D01*
X32895754Y-57207290D01*
X32897438Y-57210869D01*
X33066568Y-57477375D01*
X33267767Y-57720582D01*
X33497860Y-57936654D01*
X33753221Y-58122184D01*
X34029821Y-58274247D01*
X34033490Y-58275700D01*
X34033495Y-58275702D01*
X34319628Y-58388990D01*
X34323298Y-58390443D01*
X34629025Y-58468940D01*
X34942179Y-58508500D01*
X35257821Y-58508500D01*
X35570975Y-58468940D01*
X35876702Y-58390443D01*
X35880372Y-58388990D01*
X36166505Y-58275702D01*
X36166510Y-58275700D01*
X36170179Y-58274247D01*
X36446779Y-58122184D01*
X36702140Y-57936654D01*
X36932233Y-57720582D01*
X37133432Y-57477375D01*
X37302562Y-57210869D01*
X37304246Y-57207290D01*
X37304250Y-57207283D01*
X37435267Y-56928856D01*
X37435269Y-56928852D01*
X37436956Y-56925266D01*
X37534495Y-56625072D01*
X37593641Y-56315020D01*
X37613460Y-56000000D01*
X41386540Y-56000000D01*
X41406359Y-56315020D01*
X41465505Y-56625072D01*
X41563044Y-56925266D01*
X41564731Y-56928852D01*
X41564733Y-56928856D01*
X41695750Y-57207283D01*
X41695754Y-57207290D01*
X41697438Y-57210869D01*
X41866568Y-57477375D01*
X42067767Y-57720582D01*
X42297860Y-57936654D01*
X42553221Y-58122184D01*
X42829821Y-58274247D01*
X42833490Y-58275700D01*
X42833495Y-58275702D01*
X43119628Y-58388990D01*
X43123298Y-58390443D01*
X43429025Y-58468940D01*
X43742179Y-58508500D01*
X44057821Y-58508500D01*
X44370975Y-58468940D01*
X44676702Y-58390443D01*
X44680372Y-58388990D01*
X44966505Y-58275702D01*
X44966510Y-58275700D01*
X44970179Y-58274247D01*
X45246779Y-58122184D01*
X45502140Y-57936654D01*
X45732233Y-57720582D01*
X45933432Y-57477375D01*
X46102562Y-57210869D01*
X46104246Y-57207290D01*
X46104250Y-57207283D01*
X46235267Y-56928856D01*
X46235269Y-56928852D01*
X46236956Y-56925266D01*
X46334495Y-56625072D01*
X46393641Y-56315020D01*
X46413460Y-56000000D01*
X46393641Y-55684980D01*
X46334495Y-55374928D01*
X46236956Y-55074734D01*
X46235267Y-55071144D01*
X46104250Y-54792717D01*
X46104246Y-54792710D01*
X46102562Y-54789131D01*
X45933432Y-54522625D01*
X45732233Y-54279418D01*
X45502140Y-54063346D01*
X45246779Y-53877816D01*
X44970179Y-53725753D01*
X44966510Y-53724300D01*
X44966505Y-53724298D01*
X44680372Y-53611010D01*
X44680371Y-53611010D01*
X44676702Y-53609557D01*
X44370975Y-53531060D01*
X44057821Y-53491500D01*
X43742179Y-53491500D01*
X43429025Y-53531060D01*
X43123298Y-53609557D01*
X43119629Y-53611010D01*
X43119628Y-53611010D01*
X42833495Y-53724298D01*
X42833490Y-53724300D01*
X42829821Y-53725753D01*
X42553221Y-53877816D01*
X42297860Y-54063346D01*
X42067767Y-54279418D01*
X41866568Y-54522625D01*
X41697438Y-54789131D01*
X41695754Y-54792710D01*
X41695750Y-54792717D01*
X41564733Y-55071144D01*
X41563044Y-55074734D01*
X41465505Y-55374928D01*
X41406359Y-55684980D01*
X41386540Y-56000000D01*
X37613460Y-56000000D01*
X37593641Y-55684980D01*
X37534495Y-55374928D01*
X37436956Y-55074734D01*
X37435267Y-55071144D01*
X37304250Y-54792717D01*
X37304246Y-54792710D01*
X37302562Y-54789131D01*
X37133432Y-54522625D01*
X36932233Y-54279418D01*
X36702140Y-54063346D01*
X36446779Y-53877816D01*
X36170179Y-53725753D01*
X36166510Y-53724300D01*
X36166505Y-53724298D01*
X35880372Y-53611010D01*
X35880371Y-53611010D01*
X35876702Y-53609557D01*
X35570975Y-53531060D01*
X35257821Y-53491500D01*
X34942179Y-53491500D01*
X34629025Y-53531060D01*
X34323298Y-53609557D01*
X34319629Y-53611010D01*
X34319628Y-53611010D01*
X34033495Y-53724298D01*
X34033490Y-53724300D01*
X34029821Y-53725753D01*
X33753221Y-53877816D01*
X33497860Y-54063346D01*
X33267767Y-54279418D01*
X33066568Y-54522625D01*
X32897438Y-54789131D01*
X32895754Y-54792710D01*
X32895750Y-54792717D01*
X32764733Y-55071144D01*
X32763044Y-55074734D01*
X32665505Y-55374928D01*
X32606359Y-55684980D01*
X32586540Y-56000000D01*
X31608989Y-56000000D01*
X31608989Y-50724461D01*
X31628991Y-50656340D01*
X31645894Y-50635366D01*
X34614635Y-47666624D01*
X34676947Y-47632598D01*
X34736340Y-47634012D01*
X34766594Y-47642118D01*
X34766596Y-47642118D01*
X34771913Y-47643543D01*
X35000000Y-47663498D01*
X35228087Y-47643543D01*
X35233400Y-47642119D01*
X35233402Y-47642119D01*
X35443933Y-47585707D01*
X35443935Y-47585706D01*
X35449243Y-47584284D01*
X35454225Y-47581961D01*
X35651762Y-47489849D01*
X35651767Y-47489846D01*
X35656749Y-47487523D01*
X35776910Y-47403385D01*
X35839789Y-47359357D01*
X35839792Y-47359355D01*
X35844300Y-47356198D01*
X36006198Y-47194300D01*
X36040214Y-47145721D01*
X36089138Y-47075850D01*
X36137523Y-47006749D01*
X36139846Y-47001767D01*
X36139849Y-47001762D01*
X36231961Y-46804225D01*
X36231961Y-46804224D01*
X36234284Y-46799243D01*
X36237611Y-46786829D01*
X36292119Y-46583402D01*
X36292119Y-46583400D01*
X36293543Y-46578087D01*
X36313498Y-46350000D01*
X39686502Y-46350000D01*
X39706457Y-46578087D01*
X39707881Y-46583400D01*
X39707881Y-46583402D01*
X39762390Y-46786829D01*
X39765716Y-46799243D01*
X39768039Y-46804224D01*
X39768039Y-46804225D01*
X39860151Y-47001762D01*
X39860154Y-47001767D01*
X39862477Y-47006749D01*
X39910862Y-47075850D01*
X39959787Y-47145721D01*
X39993802Y-47194300D01*
X40155700Y-47356198D01*
X40160208Y-47359355D01*
X40160211Y-47359357D01*
X40223090Y-47403385D01*
X40343251Y-47487523D01*
X40348233Y-47489846D01*
X40348238Y-47489849D01*
X40545775Y-47581961D01*
X40550757Y-47584284D01*
X40556065Y-47585706D01*
X40556067Y-47585707D01*
X40766598Y-47642119D01*
X40766600Y-47642119D01*
X40771913Y-47643543D01*
X41000000Y-47663498D01*
X41228087Y-47643543D01*
X41233400Y-47642119D01*
X41233402Y-47642119D01*
X41443933Y-47585707D01*
X41443935Y-47585706D01*
X41449243Y-47584284D01*
X41454225Y-47581961D01*
X41651762Y-47489849D01*
X41651767Y-47489846D01*
X41656749Y-47487523D01*
X41776910Y-47403385D01*
X41839789Y-47359357D01*
X41839792Y-47359355D01*
X41844300Y-47356198D01*
X42006198Y-47194300D01*
X42029231Y-47161406D01*
X47203423Y-47161406D01*
X47208704Y-47168461D01*
X47385080Y-47271527D01*
X47394363Y-47275974D01*
X47601003Y-47354883D01*
X47610901Y-47357759D01*
X47827653Y-47401857D01*
X47837883Y-47403076D01*
X48058914Y-47411182D01*
X48069223Y-47410714D01*
X48288623Y-47382608D01*
X48298688Y-47380468D01*
X48510557Y-47316905D01*
X48520152Y-47313144D01*
X48718778Y-47215838D01*
X48727636Y-47210559D01*
X48785097Y-47169572D01*
X48793497Y-47158874D01*
X48786510Y-47145721D01*
X48012811Y-46372021D01*
X47998868Y-46364408D01*
X47997034Y-46364539D01*
X47990420Y-46368790D01*
X47210180Y-47149031D01*
X47203423Y-47161406D01*
X42029231Y-47161406D01*
X42040214Y-47145721D01*
X42089138Y-47075850D01*
X42137523Y-47006749D01*
X42139846Y-47001767D01*
X42139849Y-47001762D01*
X42231961Y-46804225D01*
X42231961Y-46804224D01*
X42234284Y-46799243D01*
X42237611Y-46786829D01*
X42292119Y-46583402D01*
X42292119Y-46583400D01*
X42293543Y-46578087D01*
X42313498Y-46350000D01*
X42293543Y-46121913D01*
X42253009Y-45970638D01*
X46587893Y-45970638D01*
X46600627Y-46191468D01*
X46602061Y-46201670D01*
X46650685Y-46417439D01*
X46653773Y-46427292D01*
X46736986Y-46632220D01*
X46741634Y-46641421D01*
X46830097Y-46785781D01*
X46840553Y-46795242D01*
X46849331Y-46791458D01*
X47627979Y-46012811D01*
X47635592Y-45998868D01*
X47635461Y-45997034D01*
X47631210Y-45990420D01*
X46853862Y-45213073D01*
X46842330Y-45206776D01*
X46830048Y-45216399D01*
X46774467Y-45297877D01*
X46769379Y-45306833D01*
X46676252Y-45507459D01*
X46672689Y-45517146D01*
X46613581Y-45730280D01*
X46611650Y-45740400D01*
X46588145Y-45960349D01*
X46587893Y-45970638D01*
X42253009Y-45970638D01*
X42234284Y-45900757D01*
X42172923Y-45769167D01*
X42139849Y-45698238D01*
X42139846Y-45698233D01*
X42137523Y-45693251D01*
X42006198Y-45505700D01*
X41844300Y-45343802D01*
X41839792Y-45340645D01*
X41839789Y-45340643D01*
X41694836Y-45239146D01*
X41656749Y-45212477D01*
X41651767Y-45210154D01*
X41651762Y-45210151D01*
X41454225Y-45118039D01*
X41454224Y-45118039D01*
X41449243Y-45115716D01*
X41443935Y-45114294D01*
X41443933Y-45114293D01*
X41233402Y-45057881D01*
X41233400Y-45057881D01*
X41228087Y-45056457D01*
X41000000Y-45036502D01*
X40771913Y-45056457D01*
X40766600Y-45057881D01*
X40766598Y-45057881D01*
X40556067Y-45114293D01*
X40556065Y-45114294D01*
X40550757Y-45115716D01*
X40545776Y-45118039D01*
X40545775Y-45118039D01*
X40348238Y-45210151D01*
X40348233Y-45210154D01*
X40343251Y-45212477D01*
X40305164Y-45239146D01*
X40160211Y-45340643D01*
X40160208Y-45340645D01*
X40155700Y-45343802D01*
X39993802Y-45505700D01*
X39862477Y-45693251D01*
X39860154Y-45698233D01*
X39860151Y-45698238D01*
X39827077Y-45769167D01*
X39765716Y-45900757D01*
X39706457Y-46121913D01*
X39686502Y-46350000D01*
X36313498Y-46350000D01*
X36293543Y-46121913D01*
X36234284Y-45900757D01*
X36172923Y-45769167D01*
X36139849Y-45698238D01*
X36139846Y-45698233D01*
X36137523Y-45693251D01*
X36006198Y-45505700D01*
X35844300Y-45343802D01*
X35839792Y-45340645D01*
X35839789Y-45340643D01*
X35694836Y-45239146D01*
X35656749Y-45212477D01*
X35651767Y-45210154D01*
X35651762Y-45210151D01*
X35454225Y-45118039D01*
X35454224Y-45118039D01*
X35449243Y-45115716D01*
X35443935Y-45114294D01*
X35443933Y-45114293D01*
X35233402Y-45057881D01*
X35233400Y-45057881D01*
X35228087Y-45056457D01*
X35000000Y-45036502D01*
X34771913Y-45056457D01*
X34766600Y-45057881D01*
X34766598Y-45057881D01*
X34556067Y-45114293D01*
X34556065Y-45114294D01*
X34550757Y-45115716D01*
X34545776Y-45118039D01*
X34545775Y-45118039D01*
X34348238Y-45210151D01*
X34348233Y-45210154D01*
X34343251Y-45212477D01*
X34305164Y-45239146D01*
X34160211Y-45340643D01*
X34160208Y-45340645D01*
X34155700Y-45343802D01*
X33993802Y-45505700D01*
X33862477Y-45693251D01*
X33860154Y-45698233D01*
X33860151Y-45698238D01*
X33827077Y-45769167D01*
X33765716Y-45900757D01*
X33706457Y-46121913D01*
X33686502Y-46350000D01*
X33706457Y-46578087D01*
X33707881Y-46583402D01*
X33707882Y-46583406D01*
X33715988Y-46613660D01*
X33714298Y-46684637D01*
X33683376Y-46735365D01*
X30723095Y-49695645D01*
X30660783Y-49729671D01*
X30589967Y-49724606D01*
X30533132Y-49682059D01*
X30508321Y-49615539D01*
X30508000Y-49606550D01*
X30508000Y-44840711D01*
X47205508Y-44840711D01*
X47212251Y-44853040D01*
X47987189Y-45627979D01*
X48001132Y-45635592D01*
X48002966Y-45635461D01*
X48009580Y-45631210D01*
X48788994Y-44851795D01*
X48796011Y-44838944D01*
X48788237Y-44828274D01*
X48785902Y-44826430D01*
X48777320Y-44820729D01*
X48583678Y-44713833D01*
X48574272Y-44709606D01*
X48365772Y-44635772D01*
X48355809Y-44633140D01*
X48138047Y-44594350D01*
X48127796Y-44593381D01*
X47906616Y-44590679D01*
X47896332Y-44591399D01*
X47677693Y-44624855D01*
X47667666Y-44627244D01*
X47457426Y-44695961D01*
X47447916Y-44699958D01*
X47251725Y-44802089D01*
X47243007Y-44807578D01*
X47213961Y-44829386D01*
X47205508Y-44840711D01*
X30508000Y-44840711D01*
X30508000Y-39000000D01*
X43586540Y-39000000D01*
X43606359Y-39315020D01*
X43665505Y-39625072D01*
X43763044Y-39925266D01*
X43764731Y-39928852D01*
X43764733Y-39928856D01*
X43895750Y-40207283D01*
X43895754Y-40207290D01*
X43897438Y-40210869D01*
X44066568Y-40477375D01*
X44267767Y-40720582D01*
X44497860Y-40936654D01*
X44753221Y-41122184D01*
X45029821Y-41274247D01*
X45033490Y-41275700D01*
X45033495Y-41275702D01*
X45319628Y-41388990D01*
X45323298Y-41390443D01*
X45629025Y-41468940D01*
X45942179Y-41508500D01*
X46257821Y-41508500D01*
X46570975Y-41468940D01*
X46876702Y-41390443D01*
X46880372Y-41388990D01*
X47166505Y-41275702D01*
X47166510Y-41275700D01*
X47170179Y-41274247D01*
X47446779Y-41122184D01*
X47702140Y-40936654D01*
X47932233Y-40720582D01*
X48133432Y-40477375D01*
X48302562Y-40210869D01*
X48304246Y-40207290D01*
X48304250Y-40207283D01*
X48435267Y-39928856D01*
X48435269Y-39928852D01*
X48436956Y-39925266D01*
X48534495Y-39625072D01*
X48593641Y-39315020D01*
X48613460Y-39000000D01*
X52386540Y-39000000D01*
X52406359Y-39315020D01*
X52465505Y-39625072D01*
X52563044Y-39925266D01*
X52564731Y-39928852D01*
X52564733Y-39928856D01*
X52695750Y-40207283D01*
X52695754Y-40207290D01*
X52697438Y-40210869D01*
X52866568Y-40477375D01*
X53067767Y-40720582D01*
X53297860Y-40936654D01*
X53553221Y-41122184D01*
X53829821Y-41274247D01*
X53833490Y-41275700D01*
X53833495Y-41275702D01*
X54119628Y-41388990D01*
X54123298Y-41390443D01*
X54429025Y-41468940D01*
X54742179Y-41508500D01*
X55057821Y-41508500D01*
X55370975Y-41468940D01*
X55676702Y-41390443D01*
X55680372Y-41388990D01*
X55966505Y-41275702D01*
X55966510Y-41275700D01*
X55970179Y-41274247D01*
X56246779Y-41122184D01*
X56502140Y-40936654D01*
X56732233Y-40720582D01*
X56933432Y-40477375D01*
X57102562Y-40210869D01*
X57104246Y-40207290D01*
X57104250Y-40207283D01*
X57235267Y-39928856D01*
X57235269Y-39928852D01*
X57236956Y-39925266D01*
X57334495Y-39625072D01*
X57393641Y-39315020D01*
X57413460Y-39000000D01*
X57393641Y-38684980D01*
X57334495Y-38374928D01*
X57236956Y-38074734D01*
X57235267Y-38071144D01*
X57104250Y-37792717D01*
X57104246Y-37792710D01*
X57102562Y-37789131D01*
X56933432Y-37522625D01*
X56732233Y-37279418D01*
X56502140Y-37063346D01*
X56246779Y-36877816D01*
X55970179Y-36725753D01*
X55966510Y-36724300D01*
X55966505Y-36724298D01*
X55680372Y-36611010D01*
X55680371Y-36611010D01*
X55676702Y-36609557D01*
X55370975Y-36531060D01*
X55057821Y-36491500D01*
X54742179Y-36491500D01*
X54429025Y-36531060D01*
X54123298Y-36609557D01*
X54119629Y-36611010D01*
X54119628Y-36611010D01*
X53833495Y-36724298D01*
X53833490Y-36724300D01*
X53829821Y-36725753D01*
X53553221Y-36877816D01*
X53297860Y-37063346D01*
X53067767Y-37279418D01*
X52866568Y-37522625D01*
X52697438Y-37789131D01*
X52695754Y-37792710D01*
X52695750Y-37792717D01*
X52564733Y-38071144D01*
X52563044Y-38074734D01*
X52465505Y-38374928D01*
X52406359Y-38684980D01*
X52386540Y-39000000D01*
X48613460Y-39000000D01*
X48593641Y-38684980D01*
X48534495Y-38374928D01*
X48436956Y-38074734D01*
X48435267Y-38071144D01*
X48304250Y-37792717D01*
X48304246Y-37792710D01*
X48302562Y-37789131D01*
X48133432Y-37522625D01*
X47932233Y-37279418D01*
X47702140Y-37063346D01*
X47446779Y-36877816D01*
X47170179Y-36725753D01*
X47166510Y-36724300D01*
X47166505Y-36724298D01*
X46880372Y-36611010D01*
X46880371Y-36611010D01*
X46876702Y-36609557D01*
X46570975Y-36531060D01*
X46257821Y-36491500D01*
X45942179Y-36491500D01*
X45629025Y-36531060D01*
X45323298Y-36609557D01*
X45319629Y-36611010D01*
X45319628Y-36611010D01*
X45033495Y-36724298D01*
X45033490Y-36724300D01*
X45029821Y-36725753D01*
X44753221Y-36877816D01*
X44497860Y-37063346D01*
X44267767Y-37279418D01*
X44066568Y-37522625D01*
X43897438Y-37789131D01*
X43895754Y-37792710D01*
X43895750Y-37792717D01*
X43764733Y-38071144D01*
X43763044Y-38074734D01*
X43665505Y-38374928D01*
X43606359Y-38684980D01*
X43586540Y-39000000D01*
X30508000Y-39000000D01*
X30508000Y-33916522D01*
X33717273Y-33916522D01*
X33764764Y-34093761D01*
X33768510Y-34104053D01*
X33860586Y-34301511D01*
X33866069Y-34311007D01*
X33991028Y-34489467D01*
X33998084Y-34497875D01*
X34152125Y-34651916D01*
X34160533Y-34658972D01*
X34338993Y-34783931D01*
X34348489Y-34789414D01*
X34545947Y-34881490D01*
X34556239Y-34885236D01*
X34728503Y-34931394D01*
X34742599Y-34931058D01*
X34746000Y-34923116D01*
X34746000Y-34917967D01*
X35254000Y-34917967D01*
X35257973Y-34931498D01*
X35266522Y-34932727D01*
X35443761Y-34885236D01*
X35454053Y-34881490D01*
X35651511Y-34789414D01*
X35661007Y-34783931D01*
X35839467Y-34658972D01*
X35847875Y-34651916D01*
X36001916Y-34497875D01*
X36008972Y-34489467D01*
X36133931Y-34311007D01*
X36139414Y-34301511D01*
X36231490Y-34104053D01*
X36235236Y-34093761D01*
X36281394Y-33921497D01*
X36281275Y-33916522D01*
X39717273Y-33916522D01*
X39764764Y-34093761D01*
X39768510Y-34104053D01*
X39860586Y-34301511D01*
X39866069Y-34311007D01*
X39991028Y-34489467D01*
X39998084Y-34497875D01*
X40152125Y-34651916D01*
X40160533Y-34658972D01*
X40338993Y-34783931D01*
X40348489Y-34789414D01*
X40545947Y-34881490D01*
X40556239Y-34885236D01*
X40728503Y-34931394D01*
X40742599Y-34931058D01*
X40746000Y-34923116D01*
X40746000Y-34917967D01*
X41254000Y-34917967D01*
X41257973Y-34931498D01*
X41266522Y-34932727D01*
X41443761Y-34885236D01*
X41454053Y-34881490D01*
X41651511Y-34789414D01*
X41661007Y-34783931D01*
X41839467Y-34658972D01*
X41847875Y-34651916D01*
X42001916Y-34497875D01*
X42008972Y-34489467D01*
X42133931Y-34311007D01*
X42139414Y-34301511D01*
X42231490Y-34104053D01*
X42235236Y-34093761D01*
X42281394Y-33921497D01*
X42281058Y-33907401D01*
X42273116Y-33904000D01*
X41272115Y-33904000D01*
X41256876Y-33908475D01*
X41255671Y-33909865D01*
X41254000Y-33917548D01*
X41254000Y-34917967D01*
X40746000Y-34917967D01*
X40746000Y-33922115D01*
X40741525Y-33906876D01*
X40740135Y-33905671D01*
X40732452Y-33904000D01*
X39732033Y-33904000D01*
X39718502Y-33907973D01*
X39717273Y-33916522D01*
X36281275Y-33916522D01*
X36281058Y-33907401D01*
X36273116Y-33904000D01*
X35272115Y-33904000D01*
X35256876Y-33908475D01*
X35255671Y-33909865D01*
X35254000Y-33917548D01*
X35254000Y-34917967D01*
X34746000Y-34917967D01*
X34746000Y-33922115D01*
X34741525Y-33906876D01*
X34740135Y-33905671D01*
X34732452Y-33904000D01*
X33732033Y-33904000D01*
X33718502Y-33907973D01*
X33717273Y-33916522D01*
X30508000Y-33916522D01*
X30508000Y-33378503D01*
X33718606Y-33378503D01*
X33718942Y-33392599D01*
X33726884Y-33396000D01*
X34727885Y-33396000D01*
X34743124Y-33391525D01*
X34744329Y-33390135D01*
X34746000Y-33382452D01*
X34746000Y-33377885D01*
X35254000Y-33377885D01*
X35258475Y-33393124D01*
X35259865Y-33394329D01*
X35267548Y-33396000D01*
X36267967Y-33396000D01*
X36281498Y-33392027D01*
X36282727Y-33383478D01*
X36281394Y-33378503D01*
X39718606Y-33378503D01*
X39718942Y-33392599D01*
X39726884Y-33396000D01*
X40727885Y-33396000D01*
X40743124Y-33391525D01*
X40744329Y-33390135D01*
X40746000Y-33382452D01*
X40746000Y-33377885D01*
X41254000Y-33377885D01*
X41258475Y-33393124D01*
X41259865Y-33394329D01*
X41267548Y-33396000D01*
X42267967Y-33396000D01*
X42281498Y-33392027D01*
X42282727Y-33383478D01*
X42235236Y-33206239D01*
X42231490Y-33195947D01*
X42139414Y-32998489D01*
X42133931Y-32988993D01*
X42008972Y-32810533D01*
X42001916Y-32802125D01*
X41847875Y-32648084D01*
X41839467Y-32641028D01*
X41661007Y-32516069D01*
X41651511Y-32510586D01*
X41454053Y-32418510D01*
X41443761Y-32414764D01*
X41271497Y-32368606D01*
X41257401Y-32368942D01*
X41254000Y-32376884D01*
X41254000Y-33377885D01*
X40746000Y-33377885D01*
X40746000Y-32382033D01*
X40742027Y-32368502D01*
X40733478Y-32367273D01*
X40556239Y-32414764D01*
X40545947Y-32418510D01*
X40348489Y-32510586D01*
X40338993Y-32516069D01*
X40160533Y-32641028D01*
X40152125Y-32648084D01*
X39998084Y-32802125D01*
X39991028Y-32810533D01*
X39866069Y-32988993D01*
X39860586Y-32998489D01*
X39768510Y-33195947D01*
X39764764Y-33206239D01*
X39718606Y-33378503D01*
X36281394Y-33378503D01*
X36235236Y-33206239D01*
X36231490Y-33195947D01*
X36139414Y-32998489D01*
X36133931Y-32988993D01*
X36008972Y-32810533D01*
X36001916Y-32802125D01*
X35847875Y-32648084D01*
X35839467Y-32641028D01*
X35661007Y-32516069D01*
X35651511Y-32510586D01*
X35454053Y-32418510D01*
X35443761Y-32414764D01*
X35271497Y-32368606D01*
X35257401Y-32368942D01*
X35254000Y-32376884D01*
X35254000Y-33377885D01*
X34746000Y-33377885D01*
X34746000Y-32382033D01*
X34742027Y-32368502D01*
X34733478Y-32367273D01*
X34556239Y-32414764D01*
X34545947Y-32418510D01*
X34348489Y-32510586D01*
X34338993Y-32516069D01*
X34160533Y-32641028D01*
X34152125Y-32648084D01*
X33998084Y-32802125D01*
X33991028Y-32810533D01*
X33866069Y-32988993D01*
X33860586Y-32998489D01*
X33768510Y-33195947D01*
X33764764Y-33206239D01*
X33718606Y-33378503D01*
X30508000Y-33378503D01*
X30508000Y-31634000D01*
X30528002Y-31565879D01*
X30581658Y-31519386D01*
X30634000Y-31508000D01*
X59366000Y-31508000D01*
X59434121Y-31528002D01*
G37*
G04 #@! TD.AperFunction*
M02*
