G04 #@! TF.GenerationSoftware,KiCad,Pcbnew,(5.1.9)-1*
G04 #@! TF.CreationDate,2021-10-01T15:05:00+02:00*
G04 #@! TF.ProjectId,StupidBox,53747570-6964-4426-9f78-2e6b69636164,rev?*
G04 #@! TF.SameCoordinates,Original*
G04 #@! TF.FileFunction,Legend,Bot*
G04 #@! TF.FilePolarity,Positive*
%FSLAX46Y46*%
G04 Gerber Fmt 4.6, Leading zero omitted, Abs format (unit mm)*
G04 Created by KiCad (PCBNEW (5.1.9)-1) date 2021-10-01 15:05:00*
%MOMM*%
%LPD*%
G01*
G04 APERTURE LIST*
%ADD10C,0.150000*%
%ADD11C,0.120000*%
%ADD12C,4.000000*%
%ADD13C,1.800000*%
%ADD14O,1.600000X1.600000*%
%ADD15R,1.600000X1.600000*%
%ADD16C,1.600000*%
%ADD17C,1.500000*%
%ADD18C,2.130000*%
%ADD19R,1.930000X1.830000*%
%ADD20O,1.700000X1.700000*%
%ADD21R,1.700000X1.700000*%
%ADD22R,1.800000X1.800000*%
%ADD23C,1.400000*%
G04 APERTURE END LIST*
D10*
X37761904Y-150071428D02*
X37000000Y-150071428D01*
X37380952Y-150452380D02*
X37380952Y-149690476D01*
X36000000Y-150452380D02*
X36571428Y-150452380D01*
X36285714Y-150452380D02*
X36285714Y-149452380D01*
X36380952Y-149595238D01*
X36476190Y-149690476D01*
X36571428Y-149738095D01*
X35619047Y-149547619D02*
X35571428Y-149500000D01*
X35476190Y-149452380D01*
X35238095Y-149452380D01*
X35142857Y-149500000D01*
X35095238Y-149547619D01*
X35047619Y-149642857D01*
X35047619Y-149738095D01*
X35095238Y-149880952D01*
X35666666Y-150452380D01*
X35047619Y-150452380D01*
X34761904Y-149452380D02*
X34428571Y-150452380D01*
X34095238Y-149452380D01*
X55761904Y-150071428D02*
X55000000Y-150071428D01*
X54000000Y-150452380D02*
X54571428Y-150452380D01*
X54285714Y-150452380D02*
X54285714Y-149452380D01*
X54380952Y-149595238D01*
X54476190Y-149690476D01*
X54571428Y-149738095D01*
X53619047Y-149547619D02*
X53571428Y-149500000D01*
X53476190Y-149452380D01*
X53238095Y-149452380D01*
X53142857Y-149500000D01*
X53095238Y-149547619D01*
X53047619Y-149642857D01*
X53047619Y-149738095D01*
X53095238Y-149880952D01*
X53666666Y-150452380D01*
X53047619Y-150452380D01*
X52761904Y-149452380D02*
X52428571Y-150452380D01*
X52095238Y-149452380D01*
D11*
X38670000Y-144670000D02*
X38670000Y-146000000D01*
X40000000Y-144670000D02*
X38670000Y-144670000D01*
X38670000Y-147270000D02*
X38670000Y-149870000D01*
X41270000Y-147270000D02*
X38670000Y-147270000D01*
X41270000Y-144670000D02*
X41270000Y-147270000D01*
X38670000Y-149870000D02*
X51490000Y-149870000D01*
X41270000Y-144670000D02*
X51490000Y-144670000D01*
X51490000Y-144670000D02*
X51490000Y-149870000D01*
D10*
X37122380Y-146936666D02*
X37836666Y-146936666D01*
X37979523Y-146889047D01*
X38074761Y-146793809D01*
X38122380Y-146650952D01*
X38122380Y-146555714D01*
X38122380Y-147936666D02*
X38122380Y-147365238D01*
X38122380Y-147650952D02*
X37122380Y-147650952D01*
X37265238Y-147555714D01*
X37360476Y-147460476D01*
X37408095Y-147365238D01*
%LPC*%
D12*
X54900000Y-39000000D03*
X46100000Y-39000000D03*
D13*
X53000000Y-46000000D03*
X50500000Y-46000000D03*
X48000000Y-46000000D03*
D14*
X49120000Y-130000000D03*
X41500000Y-137620000D03*
X49120000Y-132540000D03*
X41500000Y-135080000D03*
X49120000Y-135080000D03*
X41500000Y-132540000D03*
X49120000Y-137620000D03*
D15*
X41500000Y-130000000D03*
D12*
X54900000Y-73000000D03*
X46100000Y-73000000D03*
D13*
X53000000Y-80000000D03*
X50500000Y-80000000D03*
X48000000Y-80000000D03*
D14*
X56000000Y-51300000D03*
D16*
X56000000Y-64000000D03*
D14*
X41000000Y-46000000D03*
D16*
X41000000Y-33300000D03*
D14*
X42300000Y-123000000D03*
D16*
X55000000Y-123000000D03*
D17*
X52025000Y-110000000D03*
X55425000Y-110000000D03*
D14*
X37000000Y-33300000D03*
D16*
X37000000Y-46000000D03*
D14*
X40000000Y-82700000D03*
D16*
X40000000Y-70000000D03*
D14*
X36000000Y-70000000D03*
D16*
X36000000Y-82700000D03*
D14*
X37000000Y-107300000D03*
D16*
X37000000Y-120000000D03*
D14*
X47700000Y-87000000D03*
D16*
X35000000Y-87000000D03*
D14*
X33000000Y-107300000D03*
D16*
X33000000Y-120000000D03*
D18*
X45000000Y-119400000D03*
D19*
X45000000Y-108000000D03*
D18*
X45000000Y-111100000D03*
X38500000Y-102400000D03*
D19*
X38500000Y-91000000D03*
D18*
X38500000Y-94100000D03*
X51500000Y-102400000D03*
D19*
X51500000Y-91000000D03*
D18*
X51500000Y-94100000D03*
D20*
X50160000Y-148540000D03*
X50160000Y-146000000D03*
X47620000Y-148540000D03*
X47620000Y-146000000D03*
X45080000Y-148540000D03*
X45080000Y-146000000D03*
X42540000Y-148540000D03*
X42540000Y-146000000D03*
X40000000Y-148540000D03*
D21*
X40000000Y-146000000D03*
D12*
X43900000Y-56000000D03*
X35100000Y-56000000D03*
D13*
X42000000Y-63000000D03*
X39500000Y-63000000D03*
X37000000Y-63000000D03*
X52460000Y-117000000D03*
D22*
X55000000Y-117000000D03*
D14*
X36000000Y-66000000D03*
D15*
X43620000Y-66000000D03*
D14*
X32000000Y-134000000D03*
D15*
X32000000Y-126380000D03*
D23*
X53000000Y-86000000D03*
X53000000Y-83500000D03*
D16*
X44000000Y-83000000D03*
X49000000Y-83000000D03*
X51000000Y-63000000D03*
D15*
X49000000Y-63000000D03*
D16*
X36000000Y-133000000D03*
X36000000Y-128000000D03*
D23*
X32000000Y-87500000D03*
X32000000Y-85000000D03*
D16*
X36000000Y-138000000D03*
D15*
X36000000Y-140000000D03*
D16*
X54000000Y-132000000D03*
D15*
X54000000Y-130000000D03*
M02*
