%FSLAX45Y45*%
G04 Gerber Fmt 4.5, Leading zero omitted, Abs format (unit mm)*
G04 Created by KiCad (PCBNEW (5.1.9)-1) date 2021-10-01 15:05:01*
%MOMM*%
%LPD*%
G01*
G04 APERTURE LIST*
%TA.AperFunction,Profile*%
%ADD10C,0.050000*%
%TD*%
%ADD11C,0.200000*%
%ADD12C,0.300000*%
G04 APERTURE END LIST*
D10*
X6000000Y-3100000D02*
X6000000Y-15100000D01*
X6000000Y-15235000D02*
X6000000Y-15100000D01*
X3000000Y-15235000D02*
X6000000Y-15235000D01*
X3000000Y-3100000D02*
X6000000Y-3100000D01*
X3000000Y-3100000D02*
X3000000Y-15235000D01*
D11*
X3165000Y-8465000D02*
X3235000Y-8535000D01*
X3235000Y-8465000D02*
X3165000Y-8535000D01*
X3165000Y-8715000D02*
X3235000Y-8785000D01*
X3235000Y-8715000D02*
X3165000Y-8785000D01*
X5265000Y-8315000D02*
X5335000Y-8385000D01*
X5335000Y-8315000D02*
X5265000Y-8385000D01*
X5265000Y-8565000D02*
X5335000Y-8635000D01*
X5335000Y-8565000D02*
X5265000Y-8635000D01*
X3240000Y-12638000D02*
G75*
G03*
X3240000Y-12638000I-40000J0D01*
G01*
X3240000Y-13400000D02*
G75*
G03*
X3240000Y-13400000I-40000J0D01*
G01*
X3340000Y-10730000D02*
G75*
G03*
X3340000Y-10730000I-40000J0D01*
G01*
X3340000Y-12000000D02*
G75*
G03*
X3340000Y-12000000I-40000J0D01*
G01*
X3540000Y-8700000D02*
G75*
G03*
X3540000Y-8700000I-40000J0D01*
G01*
X3640000Y-6600000D02*
G75*
G03*
X3640000Y-6600000I-40000J0D01*
G01*
X3640000Y-7000000D02*
G75*
G03*
X3640000Y-7000000I-40000J0D01*
G01*
X3640000Y-8270000D02*
G75*
G03*
X3640000Y-8270000I-40000J0D01*
G01*
X3640000Y-12800000D02*
G75*
G03*
X3640000Y-12800000I-40000J0D01*
G01*
X3640000Y-13300000D02*
G75*
G03*
X3640000Y-13300000I-40000J0D01*
G01*
X3640000Y-13800000D02*
G75*
G03*
X3640000Y-13800000I-40000J0D01*
G01*
X3640000Y-14000000D02*
G75*
G03*
X3640000Y-14000000I-40000J0D01*
G01*
X3740000Y-3330000D02*
G75*
G03*
X3740000Y-3330000I-40000J0D01*
G01*
X3740000Y-4600000D02*
G75*
G03*
X3740000Y-4600000I-40000J0D01*
G01*
X3740000Y-10730000D02*
G75*
G03*
X3740000Y-10730000I-40000J0D01*
G01*
X3740000Y-12000000D02*
G75*
G03*
X3740000Y-12000000I-40000J0D01*
G01*
X4040000Y-7000000D02*
G75*
G03*
X4040000Y-7000000I-40000J0D01*
G01*
X4040000Y-8270000D02*
G75*
G03*
X4040000Y-8270000I-40000J0D01*
G01*
X4140000Y-3330000D02*
G75*
G03*
X4140000Y-3330000I-40000J0D01*
G01*
X4140000Y-4600000D02*
G75*
G03*
X4140000Y-4600000I-40000J0D01*
G01*
X4190000Y-13000000D02*
G75*
G03*
X4190000Y-13000000I-40000J0D01*
G01*
X4190000Y-13254000D02*
G75*
G03*
X4190000Y-13254000I-40000J0D01*
G01*
X4190000Y-13508000D02*
G75*
G03*
X4190000Y-13508000I-40000J0D01*
G01*
X4190000Y-13762000D02*
G75*
G03*
X4190000Y-13762000I-40000J0D01*
G01*
X4270000Y-12300000D02*
G75*
G03*
X4270000Y-12300000I-40000J0D01*
G01*
X4402000Y-6600000D02*
G75*
G03*
X4402000Y-6600000I-40000J0D01*
G01*
X4440000Y-8300000D02*
G75*
G03*
X4440000Y-8300000I-40000J0D01*
G01*
X4810000Y-8700000D02*
G75*
G03*
X4810000Y-8700000I-40000J0D01*
G01*
X4940000Y-6300000D02*
G75*
G03*
X4940000Y-6300000I-40000J0D01*
G01*
X4940000Y-8300000D02*
G75*
G03*
X4940000Y-8300000I-40000J0D01*
G01*
X4952000Y-13000000D02*
G75*
G03*
X4952000Y-13000000I-40000J0D01*
G01*
X4952000Y-13254000D02*
G75*
G03*
X4952000Y-13254000I-40000J0D01*
G01*
X4952000Y-13508000D02*
G75*
G03*
X4952000Y-13508000I-40000J0D01*
G01*
X4952000Y-13762000D02*
G75*
G03*
X4952000Y-13762000I-40000J0D01*
G01*
X5140000Y-6300000D02*
G75*
G03*
X5140000Y-6300000I-40000J0D01*
G01*
X5242500Y-11000000D02*
G75*
G03*
X5242500Y-11000000I-40000J0D01*
G01*
X5440000Y-13000000D02*
G75*
G03*
X5440000Y-13000000I-40000J0D01*
G01*
X5440000Y-13200000D02*
G75*
G03*
X5440000Y-13200000I-40000J0D01*
G01*
X5540000Y-12300000D02*
G75*
G03*
X5540000Y-12300000I-40000J0D01*
G01*
X5582500Y-11000000D02*
G75*
G03*
X5582500Y-11000000I-40000J0D01*
G01*
X5640000Y-5130000D02*
G75*
G03*
X5640000Y-5130000I-40000J0D01*
G01*
X5640000Y-6400000D02*
G75*
G03*
X5640000Y-6400000I-40000J0D01*
G01*
X5246000Y-11655000D02*
X5246000Y-11745000D01*
X5201000Y-11700000D02*
X5291000Y-11700000D01*
X5500000Y-11655000D02*
X5500000Y-11745000D01*
X5455000Y-11700000D02*
X5545000Y-11700000D01*
X3735356Y-6335356D02*
X3735356Y-6264644D01*
X3664644Y-6264644D01*
X3664644Y-6335356D01*
X3735356Y-6335356D01*
X3985356Y-6335356D02*
X3985356Y-6264644D01*
X3914644Y-6264644D01*
X3914644Y-6335356D01*
X3985356Y-6335356D01*
X4035356Y-14635356D02*
X4035356Y-14564644D01*
X3964644Y-14564644D01*
X3964644Y-14635356D01*
X4035356Y-14635356D01*
X4035356Y-14889356D02*
X4035356Y-14818644D01*
X3964644Y-14818644D01*
X3964644Y-14889356D01*
X4035356Y-14889356D01*
X4235356Y-6335356D02*
X4235356Y-6264644D01*
X4164644Y-6264644D01*
X4164644Y-6335356D01*
X4235356Y-6335356D01*
X4289356Y-14635356D02*
X4289356Y-14564644D01*
X4218644Y-14564644D01*
X4218644Y-14635356D01*
X4289356Y-14635356D01*
X4289356Y-14889356D02*
X4289356Y-14818644D01*
X4218644Y-14818644D01*
X4218644Y-14889356D01*
X4289356Y-14889356D01*
X4543356Y-14635356D02*
X4543356Y-14564644D01*
X4472644Y-14564644D01*
X4472644Y-14635356D01*
X4543356Y-14635356D01*
X4543356Y-14889356D02*
X4543356Y-14818644D01*
X4472644Y-14818644D01*
X4472644Y-14889356D01*
X4543356Y-14889356D01*
X4797356Y-14635356D02*
X4797356Y-14564644D01*
X4726644Y-14564644D01*
X4726644Y-14635356D01*
X4797356Y-14635356D01*
X4797356Y-14889356D02*
X4797356Y-14818644D01*
X4726644Y-14818644D01*
X4726644Y-14889356D01*
X4797356Y-14889356D01*
X4835356Y-4635356D02*
X4835356Y-4564644D01*
X4764644Y-4564644D01*
X4764644Y-4635356D01*
X4835356Y-4635356D01*
X4835356Y-8035356D02*
X4835356Y-7964644D01*
X4764644Y-7964644D01*
X4764644Y-8035356D01*
X4835356Y-8035356D01*
X5051356Y-14635356D02*
X5051356Y-14564644D01*
X4980644Y-14564644D01*
X4980644Y-14635356D01*
X5051356Y-14635356D01*
X5051356Y-14889356D02*
X5051356Y-14818644D01*
X4980644Y-14818644D01*
X4980644Y-14889356D01*
X5051356Y-14889356D01*
X5085356Y-4635356D02*
X5085356Y-4564644D01*
X5014644Y-4564644D01*
X5014644Y-4635356D01*
X5085356Y-4635356D01*
X5085356Y-8035356D02*
X5085356Y-7964644D01*
X5014644Y-7964644D01*
X5014644Y-8035356D01*
X5085356Y-8035356D01*
X5335356Y-4635356D02*
X5335356Y-4564644D01*
X5264644Y-4564644D01*
X5264644Y-4635356D01*
X5335356Y-4635356D01*
X5335356Y-8035356D02*
X5335356Y-7964644D01*
X5264644Y-7964644D01*
X5264644Y-8035356D01*
X5335356Y-8035356D01*
X3850000Y-9161000D02*
X3911000Y-9100000D01*
X3850000Y-9039000D01*
X3789000Y-9100000D01*
X3850000Y-9161000D01*
X4500000Y-10861000D02*
X4561000Y-10800000D01*
X4500000Y-10739000D01*
X4439000Y-10800000D01*
X4500000Y-10861000D01*
X5150000Y-9161000D02*
X5211000Y-9100000D01*
X5150000Y-9039000D01*
X5089000Y-9100000D01*
X5150000Y-9161000D01*
X3779000Y-9339000D02*
X3921000Y-9481000D01*
X3921000Y-9339000D02*
X3779000Y-9481000D01*
X3921000Y-9410000D02*
G75*
G03*
X3921000Y-9410000I-71000J0D01*
G01*
X4429000Y-11039000D02*
X4571000Y-11181000D01*
X4571000Y-11039000D02*
X4429000Y-11181000D01*
X4571000Y-11110000D02*
G75*
G03*
X4571000Y-11110000I-71000J0D01*
G01*
X5079000Y-9339000D02*
X5221000Y-9481000D01*
X5221000Y-9339000D02*
X5079000Y-9481000D01*
X5221000Y-9410000D02*
G75*
G03*
X5221000Y-9410000I-71000J0D01*
G01*
X3778500Y-10168500D02*
X3921500Y-10311500D01*
X3921500Y-10168500D02*
X3778500Y-10311500D01*
X3850000Y-10168500D02*
X3850000Y-10311500D01*
X3778500Y-10240000D02*
X3921500Y-10240000D01*
X4428500Y-11868500D02*
X4571500Y-12011500D01*
X4571500Y-11868500D02*
X4428500Y-12011500D01*
X4500000Y-11868500D02*
X4500000Y-12011500D01*
X4428500Y-11940000D02*
X4571500Y-11940000D01*
X5078500Y-10168500D02*
X5221500Y-10311500D01*
X5221500Y-10168500D02*
X5078500Y-10311500D01*
X5150000Y-10168500D02*
X5150000Y-10311500D01*
X5078500Y-10240000D02*
X5221500Y-10240000D01*
D12*
X3283928Y-15703214D02*
X3283928Y-15403214D01*
X3355357Y-15403214D01*
X3398214Y-15417500D01*
X3426786Y-15446071D01*
X3441071Y-15474643D01*
X3455357Y-15531786D01*
X3455357Y-15574643D01*
X3441071Y-15631786D01*
X3426786Y-15660357D01*
X3398214Y-15688929D01*
X3355357Y-15703214D01*
X3283928Y-15703214D01*
X3583928Y-15703214D02*
X3583928Y-15503214D01*
X3583928Y-15560357D02*
X3598214Y-15531786D01*
X3612500Y-15517500D01*
X3641071Y-15503214D01*
X3669643Y-15503214D01*
X3769643Y-15703214D02*
X3769643Y-15503214D01*
X3769643Y-15403214D02*
X3755357Y-15417500D01*
X3769643Y-15431786D01*
X3783928Y-15417500D01*
X3769643Y-15403214D01*
X3769643Y-15431786D01*
X3955357Y-15703214D02*
X3926786Y-15688929D01*
X3912500Y-15660357D01*
X3912500Y-15403214D01*
X4112500Y-15703214D02*
X4083928Y-15688929D01*
X4069643Y-15660357D01*
X4069643Y-15403214D01*
X4455357Y-15703214D02*
X4455357Y-15403214D01*
X4555357Y-15617500D01*
X4655357Y-15403214D01*
X4655357Y-15703214D01*
X4926786Y-15703214D02*
X4926786Y-15546071D01*
X4912500Y-15517500D01*
X4883928Y-15503214D01*
X4826786Y-15503214D01*
X4798214Y-15517500D01*
X4926786Y-15688929D02*
X4898214Y-15703214D01*
X4826786Y-15703214D01*
X4798214Y-15688929D01*
X4783928Y-15660357D01*
X4783928Y-15631786D01*
X4798214Y-15603214D01*
X4826786Y-15588929D01*
X4898214Y-15588929D01*
X4926786Y-15574643D01*
X5069643Y-15503214D02*
X5069643Y-15803214D01*
X5069643Y-15517500D02*
X5098214Y-15503214D01*
X5155357Y-15503214D01*
X5183928Y-15517500D01*
X5198214Y-15531786D01*
X5212500Y-15560357D01*
X5212500Y-15646071D01*
X5198214Y-15674643D01*
X5183928Y-15688929D01*
X5155357Y-15703214D01*
X5098214Y-15703214D01*
X5069643Y-15688929D01*
X5341071Y-15674643D02*
X5355357Y-15688929D01*
X5341071Y-15703214D01*
X5326786Y-15688929D01*
X5341071Y-15674643D01*
X5341071Y-15703214D01*
X5341071Y-15517500D02*
X5355357Y-15531786D01*
X5341071Y-15546071D01*
X5326786Y-15531786D01*
X5341071Y-15517500D01*
X5341071Y-15546071D01*
X2927500Y-16162500D02*
X2997500Y-16232500D01*
X2997500Y-16162500D02*
X2927500Y-16232500D01*
X3341071Y-16033214D02*
X3369643Y-16033214D01*
X3398214Y-16047500D01*
X3412500Y-16061786D01*
X3426786Y-16090357D01*
X3441071Y-16147500D01*
X3441071Y-16218929D01*
X3426786Y-16276071D01*
X3412500Y-16304643D01*
X3398214Y-16318929D01*
X3369643Y-16333214D01*
X3341071Y-16333214D01*
X3312500Y-16318929D01*
X3298214Y-16304643D01*
X3283928Y-16276071D01*
X3269643Y-16218929D01*
X3269643Y-16147500D01*
X3283928Y-16090357D01*
X3298214Y-16061786D01*
X3312500Y-16047500D01*
X3341071Y-16033214D01*
X3569643Y-16304643D02*
X3583928Y-16318929D01*
X3569643Y-16333214D01*
X3555357Y-16318929D01*
X3569643Y-16304643D01*
X3569643Y-16333214D01*
X3683928Y-16033214D02*
X3883928Y-16033214D01*
X3755357Y-16333214D01*
X4055357Y-16033214D02*
X4083928Y-16033214D01*
X4112500Y-16047500D01*
X4126786Y-16061786D01*
X4141071Y-16090357D01*
X4155357Y-16147500D01*
X4155357Y-16218929D01*
X4141071Y-16276071D01*
X4126786Y-16304643D01*
X4112500Y-16318929D01*
X4083928Y-16333214D01*
X4055357Y-16333214D01*
X4026786Y-16318929D01*
X4012500Y-16304643D01*
X3998214Y-16276071D01*
X3983928Y-16218929D01*
X3983928Y-16147500D01*
X3998214Y-16090357D01*
X4012500Y-16061786D01*
X4026786Y-16047500D01*
X4055357Y-16033214D01*
X4283928Y-16333214D02*
X4283928Y-16133214D01*
X4283928Y-16161786D02*
X4298214Y-16147500D01*
X4326786Y-16133214D01*
X4369643Y-16133214D01*
X4398214Y-16147500D01*
X4412500Y-16176071D01*
X4412500Y-16333214D01*
X4412500Y-16176071D02*
X4426786Y-16147500D01*
X4455357Y-16133214D01*
X4498214Y-16133214D01*
X4526786Y-16147500D01*
X4541071Y-16176071D01*
X4541071Y-16333214D01*
X4683928Y-16333214D02*
X4683928Y-16133214D01*
X4683928Y-16161786D02*
X4698214Y-16147500D01*
X4726786Y-16133214D01*
X4769643Y-16133214D01*
X4798214Y-16147500D01*
X4812500Y-16176071D01*
X4812500Y-16333214D01*
X4812500Y-16176071D02*
X4826786Y-16147500D01*
X4855357Y-16133214D01*
X4898214Y-16133214D01*
X4926786Y-16147500D01*
X4941071Y-16176071D01*
X4941071Y-16333214D01*
X5526786Y-16018929D02*
X5269643Y-16404643D01*
X5912500Y-16033214D02*
X5941071Y-16033214D01*
X5969643Y-16047500D01*
X5983928Y-16061786D01*
X5998214Y-16090357D01*
X6012500Y-16147500D01*
X6012500Y-16218929D01*
X5998214Y-16276071D01*
X5983928Y-16304643D01*
X5969643Y-16318929D01*
X5941071Y-16333214D01*
X5912500Y-16333214D01*
X5883928Y-16318929D01*
X5869643Y-16304643D01*
X5855357Y-16276071D01*
X5841071Y-16218929D01*
X5841071Y-16147500D01*
X5855357Y-16090357D01*
X5869643Y-16061786D01*
X5883928Y-16047500D01*
X5912500Y-16033214D01*
X6141071Y-16304643D02*
X6155357Y-16318929D01*
X6141071Y-16333214D01*
X6126786Y-16318929D01*
X6141071Y-16304643D01*
X6141071Y-16333214D01*
X6341071Y-16033214D02*
X6369643Y-16033214D01*
X6398214Y-16047500D01*
X6412500Y-16061786D01*
X6426786Y-16090357D01*
X6441071Y-16147500D01*
X6441071Y-16218929D01*
X6426786Y-16276071D01*
X6412500Y-16304643D01*
X6398214Y-16318929D01*
X6369643Y-16333214D01*
X6341071Y-16333214D01*
X6312500Y-16318929D01*
X6298214Y-16304643D01*
X6283928Y-16276071D01*
X6269643Y-16218929D01*
X6269643Y-16147500D01*
X6283928Y-16090357D01*
X6298214Y-16061786D01*
X6312500Y-16047500D01*
X6341071Y-16033214D01*
X6555357Y-16061786D02*
X6569643Y-16047500D01*
X6598214Y-16033214D01*
X6669643Y-16033214D01*
X6698214Y-16047500D01*
X6712500Y-16061786D01*
X6726786Y-16090357D01*
X6726786Y-16118929D01*
X6712500Y-16161786D01*
X6541071Y-16333214D01*
X6726786Y-16333214D01*
X6898214Y-16161786D02*
X6869643Y-16147500D01*
X6855357Y-16133214D01*
X6841071Y-16104643D01*
X6841071Y-16090357D01*
X6855357Y-16061786D01*
X6869643Y-16047500D01*
X6898214Y-16033214D01*
X6955357Y-16033214D01*
X6983928Y-16047500D01*
X6998214Y-16061786D01*
X7012500Y-16090357D01*
X7012500Y-16104643D01*
X6998214Y-16133214D01*
X6983928Y-16147500D01*
X6955357Y-16161786D01*
X6898214Y-16161786D01*
X6869643Y-16176071D01*
X6855357Y-16190357D01*
X6841071Y-16218929D01*
X6841071Y-16276071D01*
X6855357Y-16304643D01*
X6869643Y-16318929D01*
X6898214Y-16333214D01*
X6955357Y-16333214D01*
X6983928Y-16318929D01*
X6998214Y-16304643D01*
X7012500Y-16276071D01*
X7012500Y-16218929D01*
X6998214Y-16190357D01*
X6983928Y-16176071D01*
X6955357Y-16161786D01*
X7126786Y-16033214D02*
X7126786Y-16090357D01*
X7241071Y-16033214D02*
X7241071Y-16090357D01*
X7683928Y-16447500D02*
X7669643Y-16433214D01*
X7641071Y-16390357D01*
X7626786Y-16361786D01*
X7612500Y-16318929D01*
X7598214Y-16247500D01*
X7598214Y-16190357D01*
X7612500Y-16118929D01*
X7626786Y-16076071D01*
X7641071Y-16047500D01*
X7669643Y-16004643D01*
X7683928Y-15990357D01*
X7926786Y-16133214D02*
X7926786Y-16333214D01*
X7855357Y-16018929D02*
X7783928Y-16233214D01*
X7969643Y-16233214D01*
X8312500Y-16333214D02*
X8312500Y-16033214D01*
X8441071Y-16333214D02*
X8441071Y-16176071D01*
X8426786Y-16147500D01*
X8398214Y-16133214D01*
X8355357Y-16133214D01*
X8326786Y-16147500D01*
X8312500Y-16161786D01*
X8626786Y-16333214D02*
X8598214Y-16318929D01*
X8583928Y-16304643D01*
X8569643Y-16276071D01*
X8569643Y-16190357D01*
X8583928Y-16161786D01*
X8598214Y-16147500D01*
X8626786Y-16133214D01*
X8669643Y-16133214D01*
X8698214Y-16147500D01*
X8712500Y-16161786D01*
X8726786Y-16190357D01*
X8726786Y-16276071D01*
X8712500Y-16304643D01*
X8698214Y-16318929D01*
X8669643Y-16333214D01*
X8626786Y-16333214D01*
X8898214Y-16333214D02*
X8869643Y-16318929D01*
X8855357Y-16290357D01*
X8855357Y-16033214D01*
X9126786Y-16318929D02*
X9098214Y-16333214D01*
X9041071Y-16333214D01*
X9012500Y-16318929D01*
X8998214Y-16290357D01*
X8998214Y-16176071D01*
X9012500Y-16147500D01*
X9041071Y-16133214D01*
X9098214Y-16133214D01*
X9126786Y-16147500D01*
X9141071Y-16176071D01*
X9141071Y-16204643D01*
X8998214Y-16233214D01*
X9255357Y-16318929D02*
X9283928Y-16333214D01*
X9341071Y-16333214D01*
X9369643Y-16318929D01*
X9383928Y-16290357D01*
X9383928Y-16276071D01*
X9369643Y-16247500D01*
X9341071Y-16233214D01*
X9298214Y-16233214D01*
X9269643Y-16218929D01*
X9255357Y-16190357D01*
X9255357Y-16176071D01*
X9269643Y-16147500D01*
X9298214Y-16133214D01*
X9341071Y-16133214D01*
X9369643Y-16147500D01*
X9483928Y-16447500D02*
X9498214Y-16433214D01*
X9526786Y-16390357D01*
X9541071Y-16361786D01*
X9555357Y-16318929D01*
X9569643Y-16247500D01*
X9569643Y-16190357D01*
X9555357Y-16118929D01*
X9541071Y-16076071D01*
X9526786Y-16047500D01*
X9498214Y-16004643D01*
X9483928Y-15990357D01*
X2997500Y-16593500D02*
G75*
G03*
X2997500Y-16593500I-40000J0D01*
G01*
X3341071Y-16429214D02*
X3369643Y-16429214D01*
X3398214Y-16443500D01*
X3412500Y-16457786D01*
X3426786Y-16486357D01*
X3441071Y-16543500D01*
X3441071Y-16614929D01*
X3426786Y-16672071D01*
X3412500Y-16700643D01*
X3398214Y-16714929D01*
X3369643Y-16729214D01*
X3341071Y-16729214D01*
X3312500Y-16714929D01*
X3298214Y-16700643D01*
X3283928Y-16672071D01*
X3269643Y-16614929D01*
X3269643Y-16543500D01*
X3283928Y-16486357D01*
X3298214Y-16457786D01*
X3312500Y-16443500D01*
X3341071Y-16429214D01*
X3569643Y-16700643D02*
X3583928Y-16714929D01*
X3569643Y-16729214D01*
X3555357Y-16714929D01*
X3569643Y-16700643D01*
X3569643Y-16729214D01*
X3755357Y-16557786D02*
X3726786Y-16543500D01*
X3712500Y-16529214D01*
X3698214Y-16500643D01*
X3698214Y-16486357D01*
X3712500Y-16457786D01*
X3726786Y-16443500D01*
X3755357Y-16429214D01*
X3812500Y-16429214D01*
X3841071Y-16443500D01*
X3855357Y-16457786D01*
X3869643Y-16486357D01*
X3869643Y-16500643D01*
X3855357Y-16529214D01*
X3841071Y-16543500D01*
X3812500Y-16557786D01*
X3755357Y-16557786D01*
X3726786Y-16572071D01*
X3712500Y-16586357D01*
X3698214Y-16614929D01*
X3698214Y-16672071D01*
X3712500Y-16700643D01*
X3726786Y-16714929D01*
X3755357Y-16729214D01*
X3812500Y-16729214D01*
X3841071Y-16714929D01*
X3855357Y-16700643D01*
X3869643Y-16672071D01*
X3869643Y-16614929D01*
X3855357Y-16586357D01*
X3841071Y-16572071D01*
X3812500Y-16557786D01*
X4055357Y-16429214D02*
X4083928Y-16429214D01*
X4112500Y-16443500D01*
X4126786Y-16457786D01*
X4141071Y-16486357D01*
X4155357Y-16543500D01*
X4155357Y-16614929D01*
X4141071Y-16672071D01*
X4126786Y-16700643D01*
X4112500Y-16714929D01*
X4083928Y-16729214D01*
X4055357Y-16729214D01*
X4026786Y-16714929D01*
X4012500Y-16700643D01*
X3998214Y-16672071D01*
X3983928Y-16614929D01*
X3983928Y-16543500D01*
X3998214Y-16486357D01*
X4012500Y-16457786D01*
X4026786Y-16443500D01*
X4055357Y-16429214D01*
X4283928Y-16729214D02*
X4283928Y-16529214D01*
X4283928Y-16557786D02*
X4298214Y-16543500D01*
X4326786Y-16529214D01*
X4369643Y-16529214D01*
X4398214Y-16543500D01*
X4412500Y-16572071D01*
X4412500Y-16729214D01*
X4412500Y-16572071D02*
X4426786Y-16543500D01*
X4455357Y-16529214D01*
X4498214Y-16529214D01*
X4526786Y-16543500D01*
X4541071Y-16572071D01*
X4541071Y-16729214D01*
X4683928Y-16729214D02*
X4683928Y-16529214D01*
X4683928Y-16557786D02*
X4698214Y-16543500D01*
X4726786Y-16529214D01*
X4769643Y-16529214D01*
X4798214Y-16543500D01*
X4812500Y-16572071D01*
X4812500Y-16729214D01*
X4812500Y-16572071D02*
X4826786Y-16543500D01*
X4855357Y-16529214D01*
X4898214Y-16529214D01*
X4926786Y-16543500D01*
X4941071Y-16572071D01*
X4941071Y-16729214D01*
X5526786Y-16414929D02*
X5269643Y-16800643D01*
X5912500Y-16429214D02*
X5941071Y-16429214D01*
X5969643Y-16443500D01*
X5983928Y-16457786D01*
X5998214Y-16486357D01*
X6012500Y-16543500D01*
X6012500Y-16614929D01*
X5998214Y-16672071D01*
X5983928Y-16700643D01*
X5969643Y-16714929D01*
X5941071Y-16729214D01*
X5912500Y-16729214D01*
X5883928Y-16714929D01*
X5869643Y-16700643D01*
X5855357Y-16672071D01*
X5841071Y-16614929D01*
X5841071Y-16543500D01*
X5855357Y-16486357D01*
X5869643Y-16457786D01*
X5883928Y-16443500D01*
X5912500Y-16429214D01*
X6141071Y-16700643D02*
X6155357Y-16714929D01*
X6141071Y-16729214D01*
X6126786Y-16714929D01*
X6141071Y-16700643D01*
X6141071Y-16729214D01*
X6341071Y-16429214D02*
X6369643Y-16429214D01*
X6398214Y-16443500D01*
X6412500Y-16457786D01*
X6426786Y-16486357D01*
X6441071Y-16543500D01*
X6441071Y-16614929D01*
X6426786Y-16672071D01*
X6412500Y-16700643D01*
X6398214Y-16714929D01*
X6369643Y-16729214D01*
X6341071Y-16729214D01*
X6312500Y-16714929D01*
X6298214Y-16700643D01*
X6283928Y-16672071D01*
X6269643Y-16614929D01*
X6269643Y-16543500D01*
X6283928Y-16486357D01*
X6298214Y-16457786D01*
X6312500Y-16443500D01*
X6341071Y-16429214D01*
X6541071Y-16429214D02*
X6726786Y-16429214D01*
X6626786Y-16543500D01*
X6669643Y-16543500D01*
X6698214Y-16557786D01*
X6712500Y-16572071D01*
X6726786Y-16600643D01*
X6726786Y-16672071D01*
X6712500Y-16700643D01*
X6698214Y-16714929D01*
X6669643Y-16729214D01*
X6583928Y-16729214D01*
X6555357Y-16714929D01*
X6541071Y-16700643D01*
X7012500Y-16729214D02*
X6841071Y-16729214D01*
X6926786Y-16729214D02*
X6926786Y-16429214D01*
X6898214Y-16472071D01*
X6869643Y-16500643D01*
X6841071Y-16514929D01*
X7126786Y-16429214D02*
X7126786Y-16486357D01*
X7241071Y-16429214D02*
X7241071Y-16486357D01*
X7683928Y-16843500D02*
X7669643Y-16829214D01*
X7641071Y-16786357D01*
X7626786Y-16757786D01*
X7612500Y-16714929D01*
X7598214Y-16643500D01*
X7598214Y-16586357D01*
X7612500Y-16514929D01*
X7626786Y-16472071D01*
X7641071Y-16443500D01*
X7669643Y-16400643D01*
X7683928Y-16386357D01*
X7926786Y-16529214D02*
X7926786Y-16729214D01*
X7855357Y-16414929D02*
X7783928Y-16629214D01*
X7969643Y-16629214D01*
X8069643Y-16457786D02*
X8083928Y-16443500D01*
X8112500Y-16429214D01*
X8183928Y-16429214D01*
X8212500Y-16443500D01*
X8226786Y-16457786D01*
X8241071Y-16486357D01*
X8241071Y-16514929D01*
X8226786Y-16557786D01*
X8055357Y-16729214D01*
X8241071Y-16729214D01*
X8598214Y-16729214D02*
X8598214Y-16429214D01*
X8726786Y-16729214D02*
X8726786Y-16572071D01*
X8712500Y-16543500D01*
X8683928Y-16529214D01*
X8641071Y-16529214D01*
X8612500Y-16543500D01*
X8598214Y-16557786D01*
X8912500Y-16729214D02*
X8883928Y-16714929D01*
X8869643Y-16700643D01*
X8855357Y-16672071D01*
X8855357Y-16586357D01*
X8869643Y-16557786D01*
X8883928Y-16543500D01*
X8912500Y-16529214D01*
X8955357Y-16529214D01*
X8983928Y-16543500D01*
X8998214Y-16557786D01*
X9012500Y-16586357D01*
X9012500Y-16672071D01*
X8998214Y-16700643D01*
X8983928Y-16714929D01*
X8955357Y-16729214D01*
X8912500Y-16729214D01*
X9183928Y-16729214D02*
X9155357Y-16714929D01*
X9141071Y-16686357D01*
X9141071Y-16429214D01*
X9412500Y-16714929D02*
X9383928Y-16729214D01*
X9326786Y-16729214D01*
X9298214Y-16714929D01*
X9283928Y-16686357D01*
X9283928Y-16572071D01*
X9298214Y-16543500D01*
X9326786Y-16529214D01*
X9383928Y-16529214D01*
X9412500Y-16543500D01*
X9426786Y-16572071D01*
X9426786Y-16600643D01*
X9283928Y-16629214D01*
X9541071Y-16714929D02*
X9569643Y-16729214D01*
X9626786Y-16729214D01*
X9655357Y-16714929D01*
X9669643Y-16686357D01*
X9669643Y-16672071D01*
X9655357Y-16643500D01*
X9626786Y-16629214D01*
X9583928Y-16629214D01*
X9555357Y-16614929D01*
X9541071Y-16586357D01*
X9541071Y-16572071D01*
X9555357Y-16543500D01*
X9583928Y-16529214D01*
X9626786Y-16529214D01*
X9655357Y-16543500D01*
X9769643Y-16843500D02*
X9783928Y-16829214D01*
X9812500Y-16786357D01*
X9826786Y-16757786D01*
X9841071Y-16714929D01*
X9855357Y-16643500D01*
X9855357Y-16586357D01*
X9841071Y-16514929D01*
X9826786Y-16472071D01*
X9812500Y-16443500D01*
X9783928Y-16400643D01*
X9769643Y-16386357D01*
X2952500Y-16944500D02*
X2952500Y-17034500D01*
X2907500Y-16989500D02*
X2997500Y-16989500D01*
X3341071Y-16825214D02*
X3369643Y-16825214D01*
X3398214Y-16839500D01*
X3412500Y-16853786D01*
X3426786Y-16882357D01*
X3441071Y-16939500D01*
X3441071Y-17010929D01*
X3426786Y-17068072D01*
X3412500Y-17096643D01*
X3398214Y-17110929D01*
X3369643Y-17125214D01*
X3341071Y-17125214D01*
X3312500Y-17110929D01*
X3298214Y-17096643D01*
X3283928Y-17068072D01*
X3269643Y-17010929D01*
X3269643Y-16939500D01*
X3283928Y-16882357D01*
X3298214Y-16853786D01*
X3312500Y-16839500D01*
X3341071Y-16825214D01*
X3569643Y-17096643D02*
X3583928Y-17110929D01*
X3569643Y-17125214D01*
X3555357Y-17110929D01*
X3569643Y-17096643D01*
X3569643Y-17125214D01*
X3726786Y-17125214D02*
X3783928Y-17125214D01*
X3812500Y-17110929D01*
X3826786Y-17096643D01*
X3855357Y-17053786D01*
X3869643Y-16996643D01*
X3869643Y-16882357D01*
X3855357Y-16853786D01*
X3841071Y-16839500D01*
X3812500Y-16825214D01*
X3755357Y-16825214D01*
X3726786Y-16839500D01*
X3712500Y-16853786D01*
X3698214Y-16882357D01*
X3698214Y-16953786D01*
X3712500Y-16982357D01*
X3726786Y-16996643D01*
X3755357Y-17010929D01*
X3812500Y-17010929D01*
X3841071Y-16996643D01*
X3855357Y-16982357D01*
X3869643Y-16953786D01*
X4055357Y-16825214D02*
X4083928Y-16825214D01*
X4112500Y-16839500D01*
X4126786Y-16853786D01*
X4141071Y-16882357D01*
X4155357Y-16939500D01*
X4155357Y-17010929D01*
X4141071Y-17068072D01*
X4126786Y-17096643D01*
X4112500Y-17110929D01*
X4083928Y-17125214D01*
X4055357Y-17125214D01*
X4026786Y-17110929D01*
X4012500Y-17096643D01*
X3998214Y-17068072D01*
X3983928Y-17010929D01*
X3983928Y-16939500D01*
X3998214Y-16882357D01*
X4012500Y-16853786D01*
X4026786Y-16839500D01*
X4055357Y-16825214D01*
X4283928Y-17125214D02*
X4283928Y-16925214D01*
X4283928Y-16953786D02*
X4298214Y-16939500D01*
X4326786Y-16925214D01*
X4369643Y-16925214D01*
X4398214Y-16939500D01*
X4412500Y-16968072D01*
X4412500Y-17125214D01*
X4412500Y-16968072D02*
X4426786Y-16939500D01*
X4455357Y-16925214D01*
X4498214Y-16925214D01*
X4526786Y-16939500D01*
X4541071Y-16968072D01*
X4541071Y-17125214D01*
X4683928Y-17125214D02*
X4683928Y-16925214D01*
X4683928Y-16953786D02*
X4698214Y-16939500D01*
X4726786Y-16925214D01*
X4769643Y-16925214D01*
X4798214Y-16939500D01*
X4812500Y-16968072D01*
X4812500Y-17125214D01*
X4812500Y-16968072D02*
X4826786Y-16939500D01*
X4855357Y-16925214D01*
X4898214Y-16925214D01*
X4926786Y-16939500D01*
X4941071Y-16968072D01*
X4941071Y-17125214D01*
X5526786Y-16810929D02*
X5269643Y-17196643D01*
X5912500Y-16825214D02*
X5941071Y-16825214D01*
X5969643Y-16839500D01*
X5983928Y-16853786D01*
X5998214Y-16882357D01*
X6012500Y-16939500D01*
X6012500Y-17010929D01*
X5998214Y-17068072D01*
X5983928Y-17096643D01*
X5969643Y-17110929D01*
X5941071Y-17125214D01*
X5912500Y-17125214D01*
X5883928Y-17110929D01*
X5869643Y-17096643D01*
X5855357Y-17068072D01*
X5841071Y-17010929D01*
X5841071Y-16939500D01*
X5855357Y-16882357D01*
X5869643Y-16853786D01*
X5883928Y-16839500D01*
X5912500Y-16825214D01*
X6141071Y-17096643D02*
X6155357Y-17110929D01*
X6141071Y-17125214D01*
X6126786Y-17110929D01*
X6141071Y-17096643D01*
X6141071Y-17125214D01*
X6341071Y-16825214D02*
X6369643Y-16825214D01*
X6398214Y-16839500D01*
X6412500Y-16853786D01*
X6426786Y-16882357D01*
X6441071Y-16939500D01*
X6441071Y-17010929D01*
X6426786Y-17068072D01*
X6412500Y-17096643D01*
X6398214Y-17110929D01*
X6369643Y-17125214D01*
X6341071Y-17125214D01*
X6312500Y-17110929D01*
X6298214Y-17096643D01*
X6283928Y-17068072D01*
X6269643Y-17010929D01*
X6269643Y-16939500D01*
X6283928Y-16882357D01*
X6298214Y-16853786D01*
X6312500Y-16839500D01*
X6341071Y-16825214D01*
X6541071Y-16825214D02*
X6726786Y-16825214D01*
X6626786Y-16939500D01*
X6669643Y-16939500D01*
X6698214Y-16953786D01*
X6712500Y-16968072D01*
X6726786Y-16996643D01*
X6726786Y-17068072D01*
X6712500Y-17096643D01*
X6698214Y-17110929D01*
X6669643Y-17125214D01*
X6583928Y-17125214D01*
X6555357Y-17110929D01*
X6541071Y-17096643D01*
X6998214Y-16825214D02*
X6855357Y-16825214D01*
X6841071Y-16968072D01*
X6855357Y-16953786D01*
X6883928Y-16939500D01*
X6955357Y-16939500D01*
X6983928Y-16953786D01*
X6998214Y-16968072D01*
X7012500Y-16996643D01*
X7012500Y-17068072D01*
X6998214Y-17096643D01*
X6983928Y-17110929D01*
X6955357Y-17125214D01*
X6883928Y-17125214D01*
X6855357Y-17110929D01*
X6841071Y-17096643D01*
X7126786Y-16825214D02*
X7126786Y-16882357D01*
X7241071Y-16825214D02*
X7241071Y-16882357D01*
X7683928Y-17239500D02*
X7669643Y-17225214D01*
X7641071Y-17182357D01*
X7626786Y-17153786D01*
X7612500Y-17110929D01*
X7598214Y-17039500D01*
X7598214Y-16982357D01*
X7612500Y-16910929D01*
X7626786Y-16868072D01*
X7641071Y-16839500D01*
X7669643Y-16796643D01*
X7683928Y-16782357D01*
X7783928Y-16853786D02*
X7798214Y-16839500D01*
X7826786Y-16825214D01*
X7898214Y-16825214D01*
X7926786Y-16839500D01*
X7941071Y-16853786D01*
X7955357Y-16882357D01*
X7955357Y-16910929D01*
X7941071Y-16953786D01*
X7769643Y-17125214D01*
X7955357Y-17125214D01*
X8312500Y-17125214D02*
X8312500Y-16825214D01*
X8441071Y-17125214D02*
X8441071Y-16968072D01*
X8426786Y-16939500D01*
X8398214Y-16925214D01*
X8355357Y-16925214D01*
X8326786Y-16939500D01*
X8312500Y-16953786D01*
X8626786Y-17125214D02*
X8598214Y-17110929D01*
X8583928Y-17096643D01*
X8569643Y-17068072D01*
X8569643Y-16982357D01*
X8583928Y-16953786D01*
X8598214Y-16939500D01*
X8626786Y-16925214D01*
X8669643Y-16925214D01*
X8698214Y-16939500D01*
X8712500Y-16953786D01*
X8726786Y-16982357D01*
X8726786Y-17068072D01*
X8712500Y-17096643D01*
X8698214Y-17110929D01*
X8669643Y-17125214D01*
X8626786Y-17125214D01*
X8898214Y-17125214D02*
X8869643Y-17110929D01*
X8855357Y-17082357D01*
X8855357Y-16825214D01*
X9126786Y-17110929D02*
X9098214Y-17125214D01*
X9041071Y-17125214D01*
X9012500Y-17110929D01*
X8998214Y-17082357D01*
X8998214Y-16968072D01*
X9012500Y-16939500D01*
X9041071Y-16925214D01*
X9098214Y-16925214D01*
X9126786Y-16939500D01*
X9141071Y-16968072D01*
X9141071Y-16996643D01*
X8998214Y-17025214D01*
X9255357Y-17110929D02*
X9283928Y-17125214D01*
X9341071Y-17125214D01*
X9369643Y-17110929D01*
X9383928Y-17082357D01*
X9383928Y-17068072D01*
X9369643Y-17039500D01*
X9341071Y-17025214D01*
X9298214Y-17025214D01*
X9269643Y-17010929D01*
X9255357Y-16982357D01*
X9255357Y-16968072D01*
X9269643Y-16939500D01*
X9298214Y-16925214D01*
X9341071Y-16925214D01*
X9369643Y-16939500D01*
X9483928Y-17239500D02*
X9498214Y-17225214D01*
X9526786Y-17182357D01*
X9541071Y-17153786D01*
X9555357Y-17110929D01*
X9569643Y-17039500D01*
X9569643Y-16982357D01*
X9555357Y-16910929D01*
X9541071Y-16868072D01*
X9526786Y-16839500D01*
X9498214Y-16796643D01*
X9483928Y-16782357D01*
X2982856Y-17420856D02*
X2982856Y-17350144D01*
X2912144Y-17350144D01*
X2912144Y-17420856D01*
X2982856Y-17420856D01*
X3441071Y-17521214D02*
X3269643Y-17521214D01*
X3355357Y-17521214D02*
X3355357Y-17221214D01*
X3326786Y-17264072D01*
X3298214Y-17292643D01*
X3269643Y-17306929D01*
X3569643Y-17492643D02*
X3583928Y-17506929D01*
X3569643Y-17521214D01*
X3555357Y-17506929D01*
X3569643Y-17492643D01*
X3569643Y-17521214D01*
X3769643Y-17221214D02*
X3798214Y-17221214D01*
X3826786Y-17235500D01*
X3841071Y-17249786D01*
X3855357Y-17278357D01*
X3869643Y-17335500D01*
X3869643Y-17406929D01*
X3855357Y-17464072D01*
X3841071Y-17492643D01*
X3826786Y-17506929D01*
X3798214Y-17521214D01*
X3769643Y-17521214D01*
X3741071Y-17506929D01*
X3726786Y-17492643D01*
X3712500Y-17464072D01*
X3698214Y-17406929D01*
X3698214Y-17335500D01*
X3712500Y-17278357D01*
X3726786Y-17249786D01*
X3741071Y-17235500D01*
X3769643Y-17221214D01*
X4055357Y-17221214D02*
X4083928Y-17221214D01*
X4112500Y-17235500D01*
X4126786Y-17249786D01*
X4141071Y-17278357D01*
X4155357Y-17335500D01*
X4155357Y-17406929D01*
X4141071Y-17464072D01*
X4126786Y-17492643D01*
X4112500Y-17506929D01*
X4083928Y-17521214D01*
X4055357Y-17521214D01*
X4026786Y-17506929D01*
X4012500Y-17492643D01*
X3998214Y-17464072D01*
X3983928Y-17406929D01*
X3983928Y-17335500D01*
X3998214Y-17278357D01*
X4012500Y-17249786D01*
X4026786Y-17235500D01*
X4055357Y-17221214D01*
X4283928Y-17521214D02*
X4283928Y-17321214D01*
X4283928Y-17349786D02*
X4298214Y-17335500D01*
X4326786Y-17321214D01*
X4369643Y-17321214D01*
X4398214Y-17335500D01*
X4412500Y-17364072D01*
X4412500Y-17521214D01*
X4412500Y-17364072D02*
X4426786Y-17335500D01*
X4455357Y-17321214D01*
X4498214Y-17321214D01*
X4526786Y-17335500D01*
X4541071Y-17364072D01*
X4541071Y-17521214D01*
X4683928Y-17521214D02*
X4683928Y-17321214D01*
X4683928Y-17349786D02*
X4698214Y-17335500D01*
X4726786Y-17321214D01*
X4769643Y-17321214D01*
X4798214Y-17335500D01*
X4812500Y-17364072D01*
X4812500Y-17521214D01*
X4812500Y-17364072D02*
X4826786Y-17335500D01*
X4855357Y-17321214D01*
X4898214Y-17321214D01*
X4926786Y-17335500D01*
X4941071Y-17364072D01*
X4941071Y-17521214D01*
X5526786Y-17206929D02*
X5269643Y-17592643D01*
X5912500Y-17221214D02*
X5941071Y-17221214D01*
X5969643Y-17235500D01*
X5983928Y-17249786D01*
X5998214Y-17278357D01*
X6012500Y-17335500D01*
X6012500Y-17406929D01*
X5998214Y-17464072D01*
X5983928Y-17492643D01*
X5969643Y-17506929D01*
X5941071Y-17521214D01*
X5912500Y-17521214D01*
X5883928Y-17506929D01*
X5869643Y-17492643D01*
X5855357Y-17464072D01*
X5841071Y-17406929D01*
X5841071Y-17335500D01*
X5855357Y-17278357D01*
X5869643Y-17249786D01*
X5883928Y-17235500D01*
X5912500Y-17221214D01*
X6141071Y-17492643D02*
X6155357Y-17506929D01*
X6141071Y-17521214D01*
X6126786Y-17506929D01*
X6141071Y-17492643D01*
X6141071Y-17521214D01*
X6341071Y-17221214D02*
X6369643Y-17221214D01*
X6398214Y-17235500D01*
X6412500Y-17249786D01*
X6426786Y-17278357D01*
X6441071Y-17335500D01*
X6441071Y-17406929D01*
X6426786Y-17464072D01*
X6412500Y-17492643D01*
X6398214Y-17506929D01*
X6369643Y-17521214D01*
X6341071Y-17521214D01*
X6312500Y-17506929D01*
X6298214Y-17492643D01*
X6283928Y-17464072D01*
X6269643Y-17406929D01*
X6269643Y-17335500D01*
X6283928Y-17278357D01*
X6298214Y-17249786D01*
X6312500Y-17235500D01*
X6341071Y-17221214D01*
X6541071Y-17221214D02*
X6726786Y-17221214D01*
X6626786Y-17335500D01*
X6669643Y-17335500D01*
X6698214Y-17349786D01*
X6712500Y-17364072D01*
X6726786Y-17392643D01*
X6726786Y-17464072D01*
X6712500Y-17492643D01*
X6698214Y-17506929D01*
X6669643Y-17521214D01*
X6583928Y-17521214D01*
X6555357Y-17506929D01*
X6541071Y-17492643D01*
X6869643Y-17521214D02*
X6926786Y-17521214D01*
X6955357Y-17506929D01*
X6969643Y-17492643D01*
X6998214Y-17449786D01*
X7012500Y-17392643D01*
X7012500Y-17278357D01*
X6998214Y-17249786D01*
X6983928Y-17235500D01*
X6955357Y-17221214D01*
X6898214Y-17221214D01*
X6869643Y-17235500D01*
X6855357Y-17249786D01*
X6841071Y-17278357D01*
X6841071Y-17349786D01*
X6855357Y-17378357D01*
X6869643Y-17392643D01*
X6898214Y-17406929D01*
X6955357Y-17406929D01*
X6983928Y-17392643D01*
X6998214Y-17378357D01*
X7012500Y-17349786D01*
X7126786Y-17221214D02*
X7126786Y-17278357D01*
X7241071Y-17221214D02*
X7241071Y-17278357D01*
X7683928Y-17635500D02*
X7669643Y-17621214D01*
X7641071Y-17578357D01*
X7626786Y-17549786D01*
X7612500Y-17506929D01*
X7598214Y-17435500D01*
X7598214Y-17378357D01*
X7612500Y-17306929D01*
X7626786Y-17264072D01*
X7641071Y-17235500D01*
X7669643Y-17192643D01*
X7683928Y-17178357D01*
X7955357Y-17521214D02*
X7783928Y-17521214D01*
X7869643Y-17521214D02*
X7869643Y-17221214D01*
X7841071Y-17264072D01*
X7812500Y-17292643D01*
X7783928Y-17306929D01*
X8098214Y-17521214D02*
X8155357Y-17521214D01*
X8183928Y-17506929D01*
X8198214Y-17492643D01*
X8226786Y-17449786D01*
X8241071Y-17392643D01*
X8241071Y-17278357D01*
X8226786Y-17249786D01*
X8212500Y-17235500D01*
X8183928Y-17221214D01*
X8126786Y-17221214D01*
X8098214Y-17235500D01*
X8083928Y-17249786D01*
X8069643Y-17278357D01*
X8069643Y-17349786D01*
X8083928Y-17378357D01*
X8098214Y-17392643D01*
X8126786Y-17406929D01*
X8183928Y-17406929D01*
X8212500Y-17392643D01*
X8226786Y-17378357D01*
X8241071Y-17349786D01*
X8598214Y-17521214D02*
X8598214Y-17221214D01*
X8726786Y-17521214D02*
X8726786Y-17364072D01*
X8712500Y-17335500D01*
X8683928Y-17321214D01*
X8641071Y-17321214D01*
X8612500Y-17335500D01*
X8598214Y-17349786D01*
X8912500Y-17521214D02*
X8883928Y-17506929D01*
X8869643Y-17492643D01*
X8855357Y-17464072D01*
X8855357Y-17378357D01*
X8869643Y-17349786D01*
X8883928Y-17335500D01*
X8912500Y-17321214D01*
X8955357Y-17321214D01*
X8983928Y-17335500D01*
X8998214Y-17349786D01*
X9012500Y-17378357D01*
X9012500Y-17464072D01*
X8998214Y-17492643D01*
X8983928Y-17506929D01*
X8955357Y-17521214D01*
X8912500Y-17521214D01*
X9183928Y-17521214D02*
X9155357Y-17506929D01*
X9141071Y-17478357D01*
X9141071Y-17221214D01*
X9412500Y-17506929D02*
X9383928Y-17521214D01*
X9326786Y-17521214D01*
X9298214Y-17506929D01*
X9283928Y-17478357D01*
X9283928Y-17364072D01*
X9298214Y-17335500D01*
X9326786Y-17321214D01*
X9383928Y-17321214D01*
X9412500Y-17335500D01*
X9426786Y-17364072D01*
X9426786Y-17392643D01*
X9283928Y-17421214D01*
X9541071Y-17506929D02*
X9569643Y-17521214D01*
X9626786Y-17521214D01*
X9655357Y-17506929D01*
X9669643Y-17478357D01*
X9669643Y-17464072D01*
X9655357Y-17435500D01*
X9626786Y-17421214D01*
X9583928Y-17421214D01*
X9555357Y-17406929D01*
X9541071Y-17378357D01*
X9541071Y-17364072D01*
X9555357Y-17335500D01*
X9583928Y-17321214D01*
X9626786Y-17321214D01*
X9655357Y-17335500D01*
X9769643Y-17635500D02*
X9783928Y-17621214D01*
X9812500Y-17578357D01*
X9826786Y-17549786D01*
X9841071Y-17506929D01*
X9855357Y-17435500D01*
X9855357Y-17378357D01*
X9841071Y-17306929D01*
X9826786Y-17264072D01*
X9812500Y-17235500D01*
X9783928Y-17192643D01*
X9769643Y-17178357D01*
X2936500Y-17842500D02*
X2997500Y-17781500D01*
X2936500Y-17720500D01*
X2875500Y-17781500D01*
X2936500Y-17842500D01*
X3441071Y-17917214D02*
X3269643Y-17917214D01*
X3355357Y-17917214D02*
X3355357Y-17617214D01*
X3326786Y-17660072D01*
X3298214Y-17688643D01*
X3269643Y-17702929D01*
X3569643Y-17888643D02*
X3583928Y-17902929D01*
X3569643Y-17917214D01*
X3555357Y-17902929D01*
X3569643Y-17888643D01*
X3569643Y-17917214D01*
X3698214Y-17645786D02*
X3712500Y-17631500D01*
X3741071Y-17617214D01*
X3812500Y-17617214D01*
X3841071Y-17631500D01*
X3855357Y-17645786D01*
X3869643Y-17674357D01*
X3869643Y-17702929D01*
X3855357Y-17745786D01*
X3683928Y-17917214D01*
X3869643Y-17917214D01*
X3983928Y-17645786D02*
X3998214Y-17631500D01*
X4026786Y-17617214D01*
X4098214Y-17617214D01*
X4126786Y-17631500D01*
X4141071Y-17645786D01*
X4155357Y-17674357D01*
X4155357Y-17702929D01*
X4141071Y-17745786D01*
X3969643Y-17917214D01*
X4155357Y-17917214D01*
X4283928Y-17917214D02*
X4283928Y-17717214D01*
X4283928Y-17745786D02*
X4298214Y-17731500D01*
X4326786Y-17717214D01*
X4369643Y-17717214D01*
X4398214Y-17731500D01*
X4412500Y-17760072D01*
X4412500Y-17917214D01*
X4412500Y-17760072D02*
X4426786Y-17731500D01*
X4455357Y-17717214D01*
X4498214Y-17717214D01*
X4526786Y-17731500D01*
X4541071Y-17760072D01*
X4541071Y-17917214D01*
X4683928Y-17917214D02*
X4683928Y-17717214D01*
X4683928Y-17745786D02*
X4698214Y-17731500D01*
X4726786Y-17717214D01*
X4769643Y-17717214D01*
X4798214Y-17731500D01*
X4812500Y-17760072D01*
X4812500Y-17917214D01*
X4812500Y-17760072D02*
X4826786Y-17731500D01*
X4855357Y-17717214D01*
X4898214Y-17717214D01*
X4926786Y-17731500D01*
X4941071Y-17760072D01*
X4941071Y-17917214D01*
X5526786Y-17602929D02*
X5269643Y-17988643D01*
X5912500Y-17617214D02*
X5941071Y-17617214D01*
X5969643Y-17631500D01*
X5983928Y-17645786D01*
X5998214Y-17674357D01*
X6012500Y-17731500D01*
X6012500Y-17802929D01*
X5998214Y-17860072D01*
X5983928Y-17888643D01*
X5969643Y-17902929D01*
X5941071Y-17917214D01*
X5912500Y-17917214D01*
X5883928Y-17902929D01*
X5869643Y-17888643D01*
X5855357Y-17860072D01*
X5841071Y-17802929D01*
X5841071Y-17731500D01*
X5855357Y-17674357D01*
X5869643Y-17645786D01*
X5883928Y-17631500D01*
X5912500Y-17617214D01*
X6141071Y-17888643D02*
X6155357Y-17902929D01*
X6141071Y-17917214D01*
X6126786Y-17902929D01*
X6141071Y-17888643D01*
X6141071Y-17917214D01*
X6341071Y-17617214D02*
X6369643Y-17617214D01*
X6398214Y-17631500D01*
X6412500Y-17645786D01*
X6426786Y-17674357D01*
X6441071Y-17731500D01*
X6441071Y-17802929D01*
X6426786Y-17860072D01*
X6412500Y-17888643D01*
X6398214Y-17902929D01*
X6369643Y-17917214D01*
X6341071Y-17917214D01*
X6312500Y-17902929D01*
X6298214Y-17888643D01*
X6283928Y-17860072D01*
X6269643Y-17802929D01*
X6269643Y-17731500D01*
X6283928Y-17674357D01*
X6298214Y-17645786D01*
X6312500Y-17631500D01*
X6341071Y-17617214D01*
X6698214Y-17717214D02*
X6698214Y-17917214D01*
X6626786Y-17602929D02*
X6555357Y-17817214D01*
X6741071Y-17817214D01*
X6898214Y-17745786D02*
X6869643Y-17731500D01*
X6855357Y-17717214D01*
X6841071Y-17688643D01*
X6841071Y-17674357D01*
X6855357Y-17645786D01*
X6869643Y-17631500D01*
X6898214Y-17617214D01*
X6955357Y-17617214D01*
X6983928Y-17631500D01*
X6998214Y-17645786D01*
X7012500Y-17674357D01*
X7012500Y-17688643D01*
X6998214Y-17717214D01*
X6983928Y-17731500D01*
X6955357Y-17745786D01*
X6898214Y-17745786D01*
X6869643Y-17760072D01*
X6855357Y-17774357D01*
X6841071Y-17802929D01*
X6841071Y-17860072D01*
X6855357Y-17888643D01*
X6869643Y-17902929D01*
X6898214Y-17917214D01*
X6955357Y-17917214D01*
X6983928Y-17902929D01*
X6998214Y-17888643D01*
X7012500Y-17860072D01*
X7012500Y-17802929D01*
X6998214Y-17774357D01*
X6983928Y-17760072D01*
X6955357Y-17745786D01*
X7126786Y-17617214D02*
X7126786Y-17674357D01*
X7241071Y-17617214D02*
X7241071Y-17674357D01*
X7683928Y-18031500D02*
X7669643Y-18017214D01*
X7641071Y-17974357D01*
X7626786Y-17945786D01*
X7612500Y-17902929D01*
X7598214Y-17831500D01*
X7598214Y-17774357D01*
X7612500Y-17702929D01*
X7626786Y-17660072D01*
X7641071Y-17631500D01*
X7669643Y-17588643D01*
X7683928Y-17574357D01*
X7769643Y-17617214D02*
X7955357Y-17617214D01*
X7855357Y-17731500D01*
X7898214Y-17731500D01*
X7926786Y-17745786D01*
X7941071Y-17760072D01*
X7955357Y-17788643D01*
X7955357Y-17860072D01*
X7941071Y-17888643D01*
X7926786Y-17902929D01*
X7898214Y-17917214D01*
X7812500Y-17917214D01*
X7783928Y-17902929D01*
X7769643Y-17888643D01*
X8312500Y-17917214D02*
X8312500Y-17617214D01*
X8441071Y-17917214D02*
X8441071Y-17760072D01*
X8426786Y-17731500D01*
X8398214Y-17717214D01*
X8355357Y-17717214D01*
X8326786Y-17731500D01*
X8312500Y-17745786D01*
X8626786Y-17917214D02*
X8598214Y-17902929D01*
X8583928Y-17888643D01*
X8569643Y-17860072D01*
X8569643Y-17774357D01*
X8583928Y-17745786D01*
X8598214Y-17731500D01*
X8626786Y-17717214D01*
X8669643Y-17717214D01*
X8698214Y-17731500D01*
X8712500Y-17745786D01*
X8726786Y-17774357D01*
X8726786Y-17860072D01*
X8712500Y-17888643D01*
X8698214Y-17902929D01*
X8669643Y-17917214D01*
X8626786Y-17917214D01*
X8898214Y-17917214D02*
X8869643Y-17902929D01*
X8855357Y-17874357D01*
X8855357Y-17617214D01*
X9126786Y-17902929D02*
X9098214Y-17917214D01*
X9041071Y-17917214D01*
X9012500Y-17902929D01*
X8998214Y-17874357D01*
X8998214Y-17760072D01*
X9012500Y-17731500D01*
X9041071Y-17717214D01*
X9098214Y-17717214D01*
X9126786Y-17731500D01*
X9141071Y-17760072D01*
X9141071Y-17788643D01*
X8998214Y-17817214D01*
X9255357Y-17902929D02*
X9283928Y-17917214D01*
X9341071Y-17917214D01*
X9369643Y-17902929D01*
X9383928Y-17874357D01*
X9383928Y-17860072D01*
X9369643Y-17831500D01*
X9341071Y-17817214D01*
X9298214Y-17817214D01*
X9269643Y-17802929D01*
X9255357Y-17774357D01*
X9255357Y-17760072D01*
X9269643Y-17731500D01*
X9298214Y-17717214D01*
X9341071Y-17717214D01*
X9369643Y-17731500D01*
X9483928Y-18031500D02*
X9498214Y-18017214D01*
X9526786Y-17974357D01*
X9541071Y-17945786D01*
X9555357Y-17902929D01*
X9569643Y-17831500D01*
X9569643Y-17774357D01*
X9555357Y-17702929D01*
X9541071Y-17660072D01*
X9526786Y-17631500D01*
X9498214Y-17588643D01*
X9483928Y-17574357D01*
X2855500Y-18106500D02*
X2997500Y-18248500D01*
X2997500Y-18106500D02*
X2855500Y-18248500D01*
X2997500Y-18177500D02*
G75*
G03*
X2997500Y-18177500I-71000J0D01*
G01*
X3441071Y-18313214D02*
X3269643Y-18313214D01*
X3355357Y-18313214D02*
X3355357Y-18013214D01*
X3326786Y-18056072D01*
X3298214Y-18084643D01*
X3269643Y-18098929D01*
X3569643Y-18284643D02*
X3583928Y-18298929D01*
X3569643Y-18313214D01*
X3555357Y-18298929D01*
X3569643Y-18284643D01*
X3569643Y-18313214D01*
X3841071Y-18113214D02*
X3841071Y-18313214D01*
X3769643Y-17998929D02*
X3698214Y-18213214D01*
X3883928Y-18213214D01*
X3983928Y-18041786D02*
X3998214Y-18027500D01*
X4026786Y-18013214D01*
X4098214Y-18013214D01*
X4126786Y-18027500D01*
X4141071Y-18041786D01*
X4155357Y-18070357D01*
X4155357Y-18098929D01*
X4141071Y-18141786D01*
X3969643Y-18313214D01*
X4155357Y-18313214D01*
X4283928Y-18313214D02*
X4283928Y-18113214D01*
X4283928Y-18141786D02*
X4298214Y-18127500D01*
X4326786Y-18113214D01*
X4369643Y-18113214D01*
X4398214Y-18127500D01*
X4412500Y-18156072D01*
X4412500Y-18313214D01*
X4412500Y-18156072D02*
X4426786Y-18127500D01*
X4455357Y-18113214D01*
X4498214Y-18113214D01*
X4526786Y-18127500D01*
X4541071Y-18156072D01*
X4541071Y-18313214D01*
X4683928Y-18313214D02*
X4683928Y-18113214D01*
X4683928Y-18141786D02*
X4698214Y-18127500D01*
X4726786Y-18113214D01*
X4769643Y-18113214D01*
X4798214Y-18127500D01*
X4812500Y-18156072D01*
X4812500Y-18313214D01*
X4812500Y-18156072D02*
X4826786Y-18127500D01*
X4855357Y-18113214D01*
X4898214Y-18113214D01*
X4926786Y-18127500D01*
X4941071Y-18156072D01*
X4941071Y-18313214D01*
X5526786Y-17998929D02*
X5269643Y-18384643D01*
X5912500Y-18013214D02*
X5941071Y-18013214D01*
X5969643Y-18027500D01*
X5983928Y-18041786D01*
X5998214Y-18070357D01*
X6012500Y-18127500D01*
X6012500Y-18198929D01*
X5998214Y-18256072D01*
X5983928Y-18284643D01*
X5969643Y-18298929D01*
X5941071Y-18313214D01*
X5912500Y-18313214D01*
X5883928Y-18298929D01*
X5869643Y-18284643D01*
X5855357Y-18256072D01*
X5841071Y-18198929D01*
X5841071Y-18127500D01*
X5855357Y-18070357D01*
X5869643Y-18041786D01*
X5883928Y-18027500D01*
X5912500Y-18013214D01*
X6141071Y-18284643D02*
X6155357Y-18298929D01*
X6141071Y-18313214D01*
X6126786Y-18298929D01*
X6141071Y-18284643D01*
X6141071Y-18313214D01*
X6341071Y-18013214D02*
X6369643Y-18013214D01*
X6398214Y-18027500D01*
X6412500Y-18041786D01*
X6426786Y-18070357D01*
X6441071Y-18127500D01*
X6441071Y-18198929D01*
X6426786Y-18256072D01*
X6412500Y-18284643D01*
X6398214Y-18298929D01*
X6369643Y-18313214D01*
X6341071Y-18313214D01*
X6312500Y-18298929D01*
X6298214Y-18284643D01*
X6283928Y-18256072D01*
X6269643Y-18198929D01*
X6269643Y-18127500D01*
X6283928Y-18070357D01*
X6298214Y-18041786D01*
X6312500Y-18027500D01*
X6341071Y-18013214D01*
X6712500Y-18013214D02*
X6569643Y-18013214D01*
X6555357Y-18156072D01*
X6569643Y-18141786D01*
X6598214Y-18127500D01*
X6669643Y-18127500D01*
X6698214Y-18141786D01*
X6712500Y-18156072D01*
X6726786Y-18184643D01*
X6726786Y-18256072D01*
X6712500Y-18284643D01*
X6698214Y-18298929D01*
X6669643Y-18313214D01*
X6598214Y-18313214D01*
X6569643Y-18298929D01*
X6555357Y-18284643D01*
X6983928Y-18013214D02*
X6926786Y-18013214D01*
X6898214Y-18027500D01*
X6883928Y-18041786D01*
X6855357Y-18084643D01*
X6841071Y-18141786D01*
X6841071Y-18256072D01*
X6855357Y-18284643D01*
X6869643Y-18298929D01*
X6898214Y-18313214D01*
X6955357Y-18313214D01*
X6983928Y-18298929D01*
X6998214Y-18284643D01*
X7012500Y-18256072D01*
X7012500Y-18184643D01*
X6998214Y-18156072D01*
X6983928Y-18141786D01*
X6955357Y-18127500D01*
X6898214Y-18127500D01*
X6869643Y-18141786D01*
X6855357Y-18156072D01*
X6841071Y-18184643D01*
X7126786Y-18013214D02*
X7126786Y-18070357D01*
X7241071Y-18013214D02*
X7241071Y-18070357D01*
X7683928Y-18427500D02*
X7669643Y-18413214D01*
X7641071Y-18370357D01*
X7626786Y-18341786D01*
X7612500Y-18298929D01*
X7598214Y-18227500D01*
X7598214Y-18170357D01*
X7612500Y-18098929D01*
X7626786Y-18056072D01*
X7641071Y-18027500D01*
X7669643Y-17984643D01*
X7683928Y-17970357D01*
X7769643Y-18013214D02*
X7955357Y-18013214D01*
X7855357Y-18127500D01*
X7898214Y-18127500D01*
X7926786Y-18141786D01*
X7941071Y-18156072D01*
X7955357Y-18184643D01*
X7955357Y-18256072D01*
X7941071Y-18284643D01*
X7926786Y-18298929D01*
X7898214Y-18313214D01*
X7812500Y-18313214D01*
X7783928Y-18298929D01*
X7769643Y-18284643D01*
X8312500Y-18313214D02*
X8312500Y-18013214D01*
X8441071Y-18313214D02*
X8441071Y-18156072D01*
X8426786Y-18127500D01*
X8398214Y-18113214D01*
X8355357Y-18113214D01*
X8326786Y-18127500D01*
X8312500Y-18141786D01*
X8626786Y-18313214D02*
X8598214Y-18298929D01*
X8583928Y-18284643D01*
X8569643Y-18256072D01*
X8569643Y-18170357D01*
X8583928Y-18141786D01*
X8598214Y-18127500D01*
X8626786Y-18113214D01*
X8669643Y-18113214D01*
X8698214Y-18127500D01*
X8712500Y-18141786D01*
X8726786Y-18170357D01*
X8726786Y-18256072D01*
X8712500Y-18284643D01*
X8698214Y-18298929D01*
X8669643Y-18313214D01*
X8626786Y-18313214D01*
X8898214Y-18313214D02*
X8869643Y-18298929D01*
X8855357Y-18270357D01*
X8855357Y-18013214D01*
X9126786Y-18298929D02*
X9098214Y-18313214D01*
X9041071Y-18313214D01*
X9012500Y-18298929D01*
X8998214Y-18270357D01*
X8998214Y-18156072D01*
X9012500Y-18127500D01*
X9041071Y-18113214D01*
X9098214Y-18113214D01*
X9126786Y-18127500D01*
X9141071Y-18156072D01*
X9141071Y-18184643D01*
X8998214Y-18213214D01*
X9255357Y-18298929D02*
X9283928Y-18313214D01*
X9341071Y-18313214D01*
X9369643Y-18298929D01*
X9383928Y-18270357D01*
X9383928Y-18256072D01*
X9369643Y-18227500D01*
X9341071Y-18213214D01*
X9298214Y-18213214D01*
X9269643Y-18198929D01*
X9255357Y-18170357D01*
X9255357Y-18156072D01*
X9269643Y-18127500D01*
X9298214Y-18113214D01*
X9341071Y-18113214D01*
X9369643Y-18127500D01*
X9483928Y-18427500D02*
X9498214Y-18413214D01*
X9526786Y-18370357D01*
X9541071Y-18341786D01*
X9555357Y-18298929D01*
X9569643Y-18227500D01*
X9569643Y-18170357D01*
X9555357Y-18098929D01*
X9541071Y-18056072D01*
X9526786Y-18027500D01*
X9498214Y-17984643D01*
X9483928Y-17970357D01*
X2854500Y-18502000D02*
X2997500Y-18645000D01*
X2997500Y-18502000D02*
X2854500Y-18645000D01*
X2926000Y-18502000D02*
X2926000Y-18645000D01*
X2854500Y-18573500D02*
X2997500Y-18573500D01*
X3441071Y-18709214D02*
X3269643Y-18709214D01*
X3355357Y-18709214D02*
X3355357Y-18409214D01*
X3326786Y-18452072D01*
X3298214Y-18480643D01*
X3269643Y-18494929D01*
X3569643Y-18680643D02*
X3583928Y-18694929D01*
X3569643Y-18709214D01*
X3555357Y-18694929D01*
X3569643Y-18680643D01*
X3569643Y-18709214D01*
X3841071Y-18509214D02*
X3841071Y-18709214D01*
X3769643Y-18394929D02*
X3698214Y-18609214D01*
X3883928Y-18609214D01*
X3969643Y-18409214D02*
X4155357Y-18409214D01*
X4055357Y-18523500D01*
X4098214Y-18523500D01*
X4126786Y-18537786D01*
X4141071Y-18552072D01*
X4155357Y-18580643D01*
X4155357Y-18652072D01*
X4141071Y-18680643D01*
X4126786Y-18694929D01*
X4098214Y-18709214D01*
X4012500Y-18709214D01*
X3983928Y-18694929D01*
X3969643Y-18680643D01*
X4283928Y-18709214D02*
X4283928Y-18509214D01*
X4283928Y-18537786D02*
X4298214Y-18523500D01*
X4326786Y-18509214D01*
X4369643Y-18509214D01*
X4398214Y-18523500D01*
X4412500Y-18552072D01*
X4412500Y-18709214D01*
X4412500Y-18552072D02*
X4426786Y-18523500D01*
X4455357Y-18509214D01*
X4498214Y-18509214D01*
X4526786Y-18523500D01*
X4541071Y-18552072D01*
X4541071Y-18709214D01*
X4683928Y-18709214D02*
X4683928Y-18509214D01*
X4683928Y-18537786D02*
X4698214Y-18523500D01*
X4726786Y-18509214D01*
X4769643Y-18509214D01*
X4798214Y-18523500D01*
X4812500Y-18552072D01*
X4812500Y-18709214D01*
X4812500Y-18552072D02*
X4826786Y-18523500D01*
X4855357Y-18509214D01*
X4898214Y-18509214D01*
X4926786Y-18523500D01*
X4941071Y-18552072D01*
X4941071Y-18709214D01*
X5526786Y-18394929D02*
X5269643Y-18780643D01*
X5912500Y-18409214D02*
X5941071Y-18409214D01*
X5969643Y-18423500D01*
X5983928Y-18437786D01*
X5998214Y-18466357D01*
X6012500Y-18523500D01*
X6012500Y-18594929D01*
X5998214Y-18652072D01*
X5983928Y-18680643D01*
X5969643Y-18694929D01*
X5941071Y-18709214D01*
X5912500Y-18709214D01*
X5883928Y-18694929D01*
X5869643Y-18680643D01*
X5855357Y-18652072D01*
X5841071Y-18594929D01*
X5841071Y-18523500D01*
X5855357Y-18466357D01*
X5869643Y-18437786D01*
X5883928Y-18423500D01*
X5912500Y-18409214D01*
X6141071Y-18680643D02*
X6155357Y-18694929D01*
X6141071Y-18709214D01*
X6126786Y-18694929D01*
X6141071Y-18680643D01*
X6141071Y-18709214D01*
X6341071Y-18409214D02*
X6369643Y-18409214D01*
X6398214Y-18423500D01*
X6412500Y-18437786D01*
X6426786Y-18466357D01*
X6441071Y-18523500D01*
X6441071Y-18594929D01*
X6426786Y-18652072D01*
X6412500Y-18680643D01*
X6398214Y-18694929D01*
X6369643Y-18709214D01*
X6341071Y-18709214D01*
X6312500Y-18694929D01*
X6298214Y-18680643D01*
X6283928Y-18652072D01*
X6269643Y-18594929D01*
X6269643Y-18523500D01*
X6283928Y-18466357D01*
X6298214Y-18437786D01*
X6312500Y-18423500D01*
X6341071Y-18409214D01*
X6712500Y-18409214D02*
X6569643Y-18409214D01*
X6555357Y-18552072D01*
X6569643Y-18537786D01*
X6598214Y-18523500D01*
X6669643Y-18523500D01*
X6698214Y-18537786D01*
X6712500Y-18552072D01*
X6726786Y-18580643D01*
X6726786Y-18652072D01*
X6712500Y-18680643D01*
X6698214Y-18694929D01*
X6669643Y-18709214D01*
X6598214Y-18709214D01*
X6569643Y-18694929D01*
X6555357Y-18680643D01*
X6983928Y-18409214D02*
X6926786Y-18409214D01*
X6898214Y-18423500D01*
X6883928Y-18437786D01*
X6855357Y-18480643D01*
X6841071Y-18537786D01*
X6841071Y-18652072D01*
X6855357Y-18680643D01*
X6869643Y-18694929D01*
X6898214Y-18709214D01*
X6955357Y-18709214D01*
X6983928Y-18694929D01*
X6998214Y-18680643D01*
X7012500Y-18652072D01*
X7012500Y-18580643D01*
X6998214Y-18552072D01*
X6983928Y-18537786D01*
X6955357Y-18523500D01*
X6898214Y-18523500D01*
X6869643Y-18537786D01*
X6855357Y-18552072D01*
X6841071Y-18580643D01*
X7126786Y-18409214D02*
X7126786Y-18466357D01*
X7241071Y-18409214D02*
X7241071Y-18466357D01*
X7683928Y-18823500D02*
X7669643Y-18809214D01*
X7641071Y-18766357D01*
X7626786Y-18737786D01*
X7612500Y-18694929D01*
X7598214Y-18623500D01*
X7598214Y-18566357D01*
X7612500Y-18494929D01*
X7626786Y-18452072D01*
X7641071Y-18423500D01*
X7669643Y-18380643D01*
X7683928Y-18366357D01*
X7769643Y-18409214D02*
X7955357Y-18409214D01*
X7855357Y-18523500D01*
X7898214Y-18523500D01*
X7926786Y-18537786D01*
X7941071Y-18552072D01*
X7955357Y-18580643D01*
X7955357Y-18652072D01*
X7941071Y-18680643D01*
X7926786Y-18694929D01*
X7898214Y-18709214D01*
X7812500Y-18709214D01*
X7783928Y-18694929D01*
X7769643Y-18680643D01*
X8312500Y-18709214D02*
X8312500Y-18409214D01*
X8441071Y-18709214D02*
X8441071Y-18552072D01*
X8426786Y-18523500D01*
X8398214Y-18509214D01*
X8355357Y-18509214D01*
X8326786Y-18523500D01*
X8312500Y-18537786D01*
X8626786Y-18709214D02*
X8598214Y-18694929D01*
X8583928Y-18680643D01*
X8569643Y-18652072D01*
X8569643Y-18566357D01*
X8583928Y-18537786D01*
X8598214Y-18523500D01*
X8626786Y-18509214D01*
X8669643Y-18509214D01*
X8698214Y-18523500D01*
X8712500Y-18537786D01*
X8726786Y-18566357D01*
X8726786Y-18652072D01*
X8712500Y-18680643D01*
X8698214Y-18694929D01*
X8669643Y-18709214D01*
X8626786Y-18709214D01*
X8898214Y-18709214D02*
X8869643Y-18694929D01*
X8855357Y-18666357D01*
X8855357Y-18409214D01*
X9126786Y-18694929D02*
X9098214Y-18709214D01*
X9041071Y-18709214D01*
X9012500Y-18694929D01*
X8998214Y-18666357D01*
X8998214Y-18552072D01*
X9012500Y-18523500D01*
X9041071Y-18509214D01*
X9098214Y-18509214D01*
X9126786Y-18523500D01*
X9141071Y-18552072D01*
X9141071Y-18580643D01*
X8998214Y-18609214D01*
X9255357Y-18694929D02*
X9283928Y-18709214D01*
X9341071Y-18709214D01*
X9369643Y-18694929D01*
X9383928Y-18666357D01*
X9383928Y-18652072D01*
X9369643Y-18623500D01*
X9341071Y-18609214D01*
X9298214Y-18609214D01*
X9269643Y-18594929D01*
X9255357Y-18566357D01*
X9255357Y-18552072D01*
X9269643Y-18523500D01*
X9298214Y-18509214D01*
X9341071Y-18509214D01*
X9369643Y-18523500D01*
X9483928Y-18823500D02*
X9498214Y-18809214D01*
X9526786Y-18766357D01*
X9541071Y-18737786D01*
X9555357Y-18694929D01*
X9569643Y-18623500D01*
X9569643Y-18566357D01*
X9555357Y-18494929D01*
X9541071Y-18452072D01*
X9526786Y-18423500D01*
X9498214Y-18380643D01*
X9483928Y-18366357D01*
M02*
