G04 #@! TF.GenerationSoftware,KiCad,Pcbnew,(5.1.9)-1*
G04 #@! TF.CreationDate,2021-10-16T13:12:11+02:00*
G04 #@! TF.ProjectId,StupidBox,53747570-6964-4426-9f78-2e6b69636164,rev?*
G04 #@! TF.SameCoordinates,Original*
G04 #@! TF.FileFunction,Copper,L2,Bot*
G04 #@! TF.FilePolarity,Positive*
%FSLAX46Y46*%
G04 Gerber Fmt 4.6, Leading zero omitted, Abs format (unit mm)*
G04 Created by KiCad (PCBNEW (5.1.9)-1) date 2021-10-16 13:12:11*
%MOMM*%
%LPD*%
G01*
G04 APERTURE LIST*
G04 #@! TA.AperFunction,WasherPad*
%ADD10C,4.000000*%
G04 #@! TD*
G04 #@! TA.AperFunction,ComponentPad*
%ADD11C,1.800000*%
G04 #@! TD*
G04 #@! TA.AperFunction,ComponentPad*
%ADD12O,1.600000X1.600000*%
G04 #@! TD*
G04 #@! TA.AperFunction,ComponentPad*
%ADD13R,1.600000X1.600000*%
G04 #@! TD*
G04 #@! TA.AperFunction,ComponentPad*
%ADD14C,1.600000*%
G04 #@! TD*
G04 #@! TA.AperFunction,ComponentPad*
%ADD15C,1.500000*%
G04 #@! TD*
G04 #@! TA.AperFunction,ComponentPad*
%ADD16C,2.130000*%
G04 #@! TD*
G04 #@! TA.AperFunction,ComponentPad*
%ADD17R,1.930000X1.830000*%
G04 #@! TD*
G04 #@! TA.AperFunction,ComponentPad*
%ADD18O,1.700000X1.700000*%
G04 #@! TD*
G04 #@! TA.AperFunction,ComponentPad*
%ADD19R,1.700000X1.700000*%
G04 #@! TD*
G04 #@! TA.AperFunction,ComponentPad*
%ADD20R,1.800000X1.800000*%
G04 #@! TD*
G04 #@! TA.AperFunction,ComponentPad*
%ADD21C,1.400000*%
G04 #@! TD*
G04 #@! TA.AperFunction,ViaPad*
%ADD22C,0.800000*%
G04 #@! TD*
G04 #@! TA.AperFunction,Conductor*
%ADD23C,0.300000*%
G04 #@! TD*
G04 #@! TA.AperFunction,Conductor*
%ADD24C,0.254000*%
G04 #@! TD*
G04 #@! TA.AperFunction,Conductor*
%ADD25C,0.100000*%
G04 #@! TD*
G04 APERTURE END LIST*
D10*
X54900000Y-39000000D03*
X46100000Y-39000000D03*
D11*
X53000000Y-46000000D03*
X50500000Y-46000000D03*
X48000000Y-46000000D03*
D12*
X49120000Y-127500000D03*
X41500000Y-135120000D03*
X49120000Y-130040000D03*
X41500000Y-132580000D03*
X49120000Y-132580000D03*
X41500000Y-130040000D03*
X49120000Y-135120000D03*
D13*
X41500000Y-127500000D03*
D10*
X54900000Y-73000000D03*
X46100000Y-73000000D03*
D11*
X53000000Y-80000000D03*
X50500000Y-80000000D03*
X48000000Y-80000000D03*
D12*
X56000000Y-51300000D03*
D14*
X56000000Y-64000000D03*
D12*
X41000000Y-46000000D03*
D14*
X41000000Y-33300000D03*
D12*
X42300000Y-123000000D03*
D14*
X55000000Y-123000000D03*
D15*
X52025000Y-110000000D03*
X55425000Y-110000000D03*
D12*
X37000000Y-33300000D03*
D14*
X37000000Y-46000000D03*
D12*
X40000000Y-82700000D03*
D14*
X40000000Y-70000000D03*
D12*
X36000000Y-70000000D03*
D14*
X36000000Y-82700000D03*
D12*
X37000000Y-107300000D03*
D14*
X37000000Y-120000000D03*
D12*
X47700000Y-87000000D03*
D14*
X35000000Y-87000000D03*
D12*
X33000000Y-107300000D03*
D14*
X33000000Y-120000000D03*
D16*
X45000000Y-119400000D03*
D17*
X45000000Y-108000000D03*
D16*
X45000000Y-111100000D03*
X38500000Y-102400000D03*
D17*
X38500000Y-91000000D03*
D16*
X38500000Y-94100000D03*
X51500000Y-102400000D03*
D17*
X51500000Y-91000000D03*
D16*
X51500000Y-94100000D03*
D18*
X56540000Y-127840000D03*
X54000000Y-127840000D03*
X56540000Y-130380000D03*
X54000000Y-130380000D03*
X56540000Y-132920000D03*
X54000000Y-132920000D03*
X56540000Y-135460000D03*
X54000000Y-135460000D03*
X56540000Y-138000000D03*
D19*
X54000000Y-138000000D03*
D10*
X43900000Y-56000000D03*
X35100000Y-56000000D03*
D11*
X42000000Y-63000000D03*
X39500000Y-63000000D03*
X37000000Y-63000000D03*
X52460000Y-117000000D03*
D20*
X55000000Y-117000000D03*
D12*
X36000000Y-66000000D03*
D13*
X43620000Y-66000000D03*
D12*
X32500000Y-130120000D03*
D13*
X32500000Y-122500000D03*
D21*
X53000000Y-86000000D03*
X53000000Y-83500000D03*
D14*
X44000000Y-83000000D03*
X49000000Y-83000000D03*
X51000000Y-63000000D03*
D13*
X49000000Y-63000000D03*
D14*
X36500000Y-128000000D03*
X36500000Y-123000000D03*
D21*
X32000000Y-87500000D03*
X32000000Y-85000000D03*
D14*
X37000000Y-131500000D03*
D13*
X37000000Y-133500000D03*
D14*
X32000000Y-137000000D03*
D13*
X34000000Y-137000000D03*
D22*
X58500000Y-79000000D03*
D23*
X34000000Y-123230002D02*
X34000000Y-137000000D01*
X37000000Y-120230002D02*
X34000000Y-123230002D01*
X37000000Y-120000000D02*
X37000000Y-120230002D01*
X53000000Y-137000000D02*
X54000000Y-138000000D01*
X52799999Y-131179999D02*
X49120000Y-127500000D01*
X52799999Y-136799999D02*
X52799999Y-131179999D01*
X53000000Y-137000000D02*
X52799999Y-136799999D01*
X37880000Y-131500000D02*
X37000000Y-131500000D01*
X41500000Y-135120000D02*
X37880000Y-131500000D01*
X37000000Y-107300000D02*
X37000000Y-106000000D01*
X30949999Y-86050001D02*
X32000000Y-85000000D01*
X30949999Y-99949999D02*
X30949999Y-86050001D01*
X37000000Y-106000000D02*
X30949999Y-99949999D01*
X40349999Y-126849999D02*
X36500000Y-123000000D01*
X40349999Y-131429999D02*
X40349999Y-126849999D01*
X41500000Y-132580000D02*
X40349999Y-131429999D01*
X40000000Y-119500000D02*
X36500000Y-123000000D01*
X40000000Y-82700000D02*
X40000000Y-119500000D01*
X43450001Y-89450001D02*
X43450001Y-128089999D01*
X42000000Y-88000000D02*
X43450001Y-89450001D01*
X42000000Y-67620000D02*
X42000000Y-88000000D01*
X43450001Y-128089999D02*
X41500000Y-130040000D01*
X43620000Y-66000000D02*
X42000000Y-67620000D01*
X47969999Y-114055001D02*
X52025000Y-110000000D01*
X47969999Y-133969999D02*
X49120000Y-135120000D01*
X47969999Y-114055001D02*
X47969999Y-133969999D01*
X52150001Y-72849999D02*
X46000000Y-79000000D01*
X52150001Y-47650001D02*
X52150001Y-72849999D01*
X50500000Y-46000000D02*
X52150001Y-47650001D01*
X46000000Y-96900000D02*
X51500000Y-102400000D01*
X46000000Y-79000000D02*
X46000000Y-96900000D01*
X57250001Y-65250001D02*
X56000000Y-64000000D01*
X57250001Y-77750001D02*
X58500000Y-79000000D01*
X57250001Y-65250001D02*
X57250001Y-77750001D01*
D24*
X59340001Y-78394200D02*
X59303937Y-78340226D01*
X59159774Y-78196063D01*
X58990256Y-78082795D01*
X58801898Y-78004774D01*
X58601939Y-77965000D01*
X58575157Y-77965000D01*
X58035001Y-77424844D01*
X58035001Y-65288553D01*
X58038798Y-65250000D01*
X58035001Y-65211447D01*
X58035001Y-65211440D01*
X58023642Y-65096114D01*
X57978755Y-64948141D01*
X57905863Y-64811768D01*
X57807765Y-64692237D01*
X57777818Y-64667660D01*
X57404554Y-64294396D01*
X57435000Y-64141335D01*
X57435000Y-63858665D01*
X57379853Y-63581426D01*
X57271680Y-63320273D01*
X57114637Y-63085241D01*
X56914759Y-62885363D01*
X56679727Y-62728320D01*
X56418574Y-62620147D01*
X56141335Y-62565000D01*
X55858665Y-62565000D01*
X55581426Y-62620147D01*
X55320273Y-62728320D01*
X55085241Y-62885363D01*
X54885363Y-63085241D01*
X54728320Y-63320273D01*
X54620147Y-63581426D01*
X54565000Y-63858665D01*
X54565000Y-64141335D01*
X54620147Y-64418574D01*
X54728320Y-64679727D01*
X54885363Y-64914759D01*
X55085241Y-65114637D01*
X55320273Y-65271680D01*
X55581426Y-65379853D01*
X55858665Y-65435000D01*
X56141335Y-65435000D01*
X56294396Y-65404554D01*
X56465001Y-65575159D01*
X56465001Y-70876613D01*
X56148141Y-70664893D01*
X55668601Y-70466261D01*
X55159525Y-70365000D01*
X54640475Y-70365000D01*
X54131399Y-70466261D01*
X53651859Y-70664893D01*
X53220285Y-70953262D01*
X52935001Y-71238546D01*
X52935001Y-51158665D01*
X54565000Y-51158665D01*
X54565000Y-51441335D01*
X54620147Y-51718574D01*
X54728320Y-51979727D01*
X54885363Y-52214759D01*
X55085241Y-52414637D01*
X55320273Y-52571680D01*
X55581426Y-52679853D01*
X55858665Y-52735000D01*
X56141335Y-52735000D01*
X56418574Y-52679853D01*
X56679727Y-52571680D01*
X56914759Y-52414637D01*
X57114637Y-52214759D01*
X57271680Y-51979727D01*
X57379853Y-51718574D01*
X57435000Y-51441335D01*
X57435000Y-51158665D01*
X57379853Y-50881426D01*
X57271680Y-50620273D01*
X57114637Y-50385241D01*
X56914759Y-50185363D01*
X56679727Y-50028320D01*
X56418574Y-49920147D01*
X56141335Y-49865000D01*
X55858665Y-49865000D01*
X55581426Y-49920147D01*
X55320273Y-50028320D01*
X55085241Y-50185363D01*
X54885363Y-50385241D01*
X54728320Y-50620273D01*
X54620147Y-50881426D01*
X54565000Y-51158665D01*
X52935001Y-51158665D01*
X52935001Y-47688557D01*
X52938798Y-47650001D01*
X52935001Y-47611441D01*
X52935001Y-47611440D01*
X52931021Y-47571027D01*
X52927473Y-47535000D01*
X53151184Y-47535000D01*
X53447743Y-47476011D01*
X53727095Y-47360299D01*
X53978505Y-47192312D01*
X54192312Y-46978505D01*
X54360299Y-46727095D01*
X54476011Y-46447743D01*
X54535000Y-46151184D01*
X54535000Y-45848816D01*
X54476011Y-45552257D01*
X54360299Y-45272905D01*
X54192312Y-45021495D01*
X53978505Y-44807688D01*
X53727095Y-44639701D01*
X53447743Y-44523989D01*
X53151184Y-44465000D01*
X52848816Y-44465000D01*
X52552257Y-44523989D01*
X52272905Y-44639701D01*
X52021495Y-44807688D01*
X51807688Y-45021495D01*
X51750000Y-45107831D01*
X51692312Y-45021495D01*
X51478505Y-44807688D01*
X51227095Y-44639701D01*
X50947743Y-44523989D01*
X50651184Y-44465000D01*
X50348816Y-44465000D01*
X50052257Y-44523989D01*
X49772905Y-44639701D01*
X49521495Y-44807688D01*
X49307688Y-45021495D01*
X49212262Y-45164310D01*
X49064080Y-45115525D01*
X48179605Y-46000000D01*
X49064080Y-46884475D01*
X49212262Y-46835690D01*
X49307688Y-46978505D01*
X49521495Y-47192312D01*
X49772905Y-47360299D01*
X50052257Y-47476011D01*
X50348816Y-47535000D01*
X50651184Y-47535000D01*
X50879440Y-47489597D01*
X51365001Y-47975158D01*
X51365002Y-61609491D01*
X51141335Y-61565000D01*
X50858665Y-61565000D01*
X50581426Y-61620147D01*
X50320273Y-61728320D01*
X50264790Y-61765393D01*
X50251185Y-61748815D01*
X50154494Y-61669463D01*
X50044180Y-61610498D01*
X49924482Y-61574188D01*
X49800000Y-61561928D01*
X48200000Y-61561928D01*
X48075518Y-61574188D01*
X47955820Y-61610498D01*
X47845506Y-61669463D01*
X47748815Y-61748815D01*
X47669463Y-61845506D01*
X47610498Y-61955820D01*
X47574188Y-62075518D01*
X47561928Y-62200000D01*
X47561928Y-63800000D01*
X47574188Y-63924482D01*
X47610498Y-64044180D01*
X47669463Y-64154494D01*
X47748815Y-64251185D01*
X47845506Y-64330537D01*
X47955820Y-64389502D01*
X48075518Y-64425812D01*
X48200000Y-64438072D01*
X49800000Y-64438072D01*
X49924482Y-64425812D01*
X50044180Y-64389502D01*
X50154494Y-64330537D01*
X50251185Y-64251185D01*
X50264790Y-64234607D01*
X50320273Y-64271680D01*
X50581426Y-64379853D01*
X50858665Y-64435000D01*
X51141335Y-64435000D01*
X51365002Y-64390509D01*
X51365002Y-72524841D01*
X45472190Y-78417653D01*
X45442236Y-78442236D01*
X45344138Y-78561768D01*
X45271246Y-78698141D01*
X45226359Y-78846114D01*
X45215000Y-78961440D01*
X45215000Y-78961447D01*
X45211203Y-79000000D01*
X45215000Y-79038553D01*
X45215000Y-82235445D01*
X45114637Y-82085241D01*
X44914759Y-81885363D01*
X44679727Y-81728320D01*
X44418574Y-81620147D01*
X44141335Y-81565000D01*
X43858665Y-81565000D01*
X43581426Y-81620147D01*
X43320273Y-81728320D01*
X43085241Y-81885363D01*
X42885363Y-82085241D01*
X42785000Y-82235445D01*
X42785000Y-72740475D01*
X43465000Y-72740475D01*
X43465000Y-73259525D01*
X43566261Y-73768601D01*
X43764893Y-74248141D01*
X44053262Y-74679715D01*
X44420285Y-75046738D01*
X44851859Y-75335107D01*
X45331399Y-75533739D01*
X45840475Y-75635000D01*
X46359525Y-75635000D01*
X46868601Y-75533739D01*
X47348141Y-75335107D01*
X47779715Y-75046738D01*
X48146738Y-74679715D01*
X48435107Y-74248141D01*
X48633739Y-73768601D01*
X48735000Y-73259525D01*
X48735000Y-72740475D01*
X48633739Y-72231399D01*
X48435107Y-71751859D01*
X48146738Y-71320285D01*
X47779715Y-70953262D01*
X47348141Y-70664893D01*
X46868601Y-70466261D01*
X46359525Y-70365000D01*
X45840475Y-70365000D01*
X45331399Y-70466261D01*
X44851859Y-70664893D01*
X44420285Y-70953262D01*
X44053262Y-71320285D01*
X43764893Y-71751859D01*
X43566261Y-72231399D01*
X43465000Y-72740475D01*
X42785000Y-72740475D01*
X42785000Y-67945157D01*
X43292085Y-67438072D01*
X44420000Y-67438072D01*
X44544482Y-67425812D01*
X44664180Y-67389502D01*
X44774494Y-67330537D01*
X44871185Y-67251185D01*
X44950537Y-67154494D01*
X45009502Y-67044180D01*
X45045812Y-66924482D01*
X45058072Y-66800000D01*
X45058072Y-65200000D01*
X45045812Y-65075518D01*
X45009502Y-64955820D01*
X44950537Y-64845506D01*
X44871185Y-64748815D01*
X44774494Y-64669463D01*
X44664180Y-64610498D01*
X44544482Y-64574188D01*
X44420000Y-64561928D01*
X42820000Y-64561928D01*
X42695518Y-64574188D01*
X42575820Y-64610498D01*
X42465506Y-64669463D01*
X42368815Y-64748815D01*
X42289463Y-64845506D01*
X42230498Y-64955820D01*
X42194188Y-65075518D01*
X42181928Y-65200000D01*
X42181928Y-66327915D01*
X41472190Y-67037653D01*
X41442236Y-67062236D01*
X41344138Y-67181768D01*
X41271246Y-67318141D01*
X41226359Y-67466114D01*
X41215000Y-67581440D01*
X41215000Y-67581447D01*
X41211203Y-67620000D01*
X41215000Y-67658553D01*
X41215000Y-69235445D01*
X41114637Y-69085241D01*
X40914759Y-68885363D01*
X40679727Y-68728320D01*
X40418574Y-68620147D01*
X40141335Y-68565000D01*
X39858665Y-68565000D01*
X39581426Y-68620147D01*
X39320273Y-68728320D01*
X39085241Y-68885363D01*
X38885363Y-69085241D01*
X38728320Y-69320273D01*
X38620147Y-69581426D01*
X38565000Y-69858665D01*
X38565000Y-70141335D01*
X38620147Y-70418574D01*
X38728320Y-70679727D01*
X38885363Y-70914759D01*
X39085241Y-71114637D01*
X39320273Y-71271680D01*
X39581426Y-71379853D01*
X39858665Y-71435000D01*
X40141335Y-71435000D01*
X40418574Y-71379853D01*
X40679727Y-71271680D01*
X40914759Y-71114637D01*
X41114637Y-70914759D01*
X41215000Y-70764555D01*
X41215001Y-81935446D01*
X41114637Y-81785241D01*
X40914759Y-81585363D01*
X40679727Y-81428320D01*
X40418574Y-81320147D01*
X40141335Y-81265000D01*
X39858665Y-81265000D01*
X39581426Y-81320147D01*
X39320273Y-81428320D01*
X39085241Y-81585363D01*
X38885363Y-81785241D01*
X38728320Y-82020273D01*
X38620147Y-82281426D01*
X38565000Y-82558665D01*
X38565000Y-82841335D01*
X38620147Y-83118574D01*
X38728320Y-83379727D01*
X38885363Y-83614759D01*
X39085241Y-83814637D01*
X39215000Y-83901339D01*
X39215000Y-89448059D01*
X38785750Y-89450000D01*
X38627000Y-89608750D01*
X38627000Y-90873000D01*
X38647000Y-90873000D01*
X38647000Y-91127000D01*
X38627000Y-91127000D01*
X38627000Y-91147000D01*
X38373000Y-91147000D01*
X38373000Y-91127000D01*
X37058750Y-91127000D01*
X36900000Y-91285750D01*
X36896928Y-91915000D01*
X36909188Y-92039482D01*
X36945498Y-92159180D01*
X37004463Y-92269494D01*
X37083815Y-92366185D01*
X37180506Y-92445537D01*
X37290820Y-92504502D01*
X37410518Y-92540812D01*
X37535000Y-92553072D01*
X37795140Y-92551895D01*
X37694748Y-92593479D01*
X37416313Y-92779523D01*
X37179523Y-93016313D01*
X36993479Y-93294748D01*
X36865330Y-93604128D01*
X36800000Y-93932565D01*
X36800000Y-94267435D01*
X36865330Y-94595872D01*
X36993479Y-94905252D01*
X37179523Y-95183687D01*
X37416313Y-95420477D01*
X37694748Y-95606521D01*
X38004128Y-95734670D01*
X38332565Y-95800000D01*
X38667435Y-95800000D01*
X38995872Y-95734670D01*
X39215000Y-95643904D01*
X39215000Y-100856096D01*
X38995872Y-100765330D01*
X38667435Y-100700000D01*
X38332565Y-100700000D01*
X38004128Y-100765330D01*
X37694748Y-100893479D01*
X37416313Y-101079523D01*
X37179523Y-101316313D01*
X36993479Y-101594748D01*
X36865330Y-101904128D01*
X36800000Y-102232565D01*
X36800000Y-102567435D01*
X36865330Y-102895872D01*
X36993479Y-103205252D01*
X37179523Y-103483687D01*
X37416313Y-103720477D01*
X37694748Y-103906521D01*
X38004128Y-104034670D01*
X38332565Y-104100000D01*
X38667435Y-104100000D01*
X38995872Y-104034670D01*
X39215001Y-103943904D01*
X39215001Y-119174841D01*
X38435000Y-119954842D01*
X38435000Y-119858665D01*
X38379853Y-119581426D01*
X38271680Y-119320273D01*
X38114637Y-119085241D01*
X37914759Y-118885363D01*
X37679727Y-118728320D01*
X37418574Y-118620147D01*
X37141335Y-118565000D01*
X36858665Y-118565000D01*
X36581426Y-118620147D01*
X36320273Y-118728320D01*
X36085241Y-118885363D01*
X35885363Y-119085241D01*
X35728320Y-119320273D01*
X35620147Y-119581426D01*
X35565000Y-119858665D01*
X35565000Y-120141335D01*
X35620147Y-120418574D01*
X35643908Y-120475937D01*
X33938072Y-122181773D01*
X33938072Y-121700000D01*
X33925812Y-121575518D01*
X33889502Y-121455820D01*
X33830537Y-121345506D01*
X33751185Y-121248815D01*
X33734473Y-121235100D01*
X33914759Y-121114637D01*
X34114637Y-120914759D01*
X34271680Y-120679727D01*
X34379853Y-120418574D01*
X34435000Y-120141335D01*
X34435000Y-119858665D01*
X34379853Y-119581426D01*
X34271680Y-119320273D01*
X34114637Y-119085241D01*
X33914759Y-118885363D01*
X33679727Y-118728320D01*
X33418574Y-118620147D01*
X33141335Y-118565000D01*
X32858665Y-118565000D01*
X32581426Y-118620147D01*
X32320273Y-118728320D01*
X32085241Y-118885363D01*
X31885363Y-119085241D01*
X31728320Y-119320273D01*
X31620147Y-119581426D01*
X31565000Y-119858665D01*
X31565000Y-120141335D01*
X31620147Y-120418574D01*
X31728320Y-120679727D01*
X31885363Y-120914759D01*
X32032532Y-121061928D01*
X31700000Y-121061928D01*
X31575518Y-121074188D01*
X31455820Y-121110498D01*
X31345506Y-121169463D01*
X31248815Y-121248815D01*
X31169463Y-121345506D01*
X31110498Y-121455820D01*
X31074188Y-121575518D01*
X31061928Y-121700000D01*
X31061928Y-123300000D01*
X31074188Y-123424482D01*
X31110498Y-123544180D01*
X31169463Y-123654494D01*
X31248815Y-123751185D01*
X31345506Y-123830537D01*
X31455820Y-123889502D01*
X31575518Y-123925812D01*
X31700000Y-123938072D01*
X33215000Y-123938072D01*
X33215000Y-128871889D01*
X33179727Y-128848320D01*
X32918574Y-128740147D01*
X32641335Y-128685000D01*
X32358665Y-128685000D01*
X32081426Y-128740147D01*
X31820273Y-128848320D01*
X31585241Y-129005363D01*
X31385363Y-129205241D01*
X31228320Y-129440273D01*
X31120147Y-129701426D01*
X31065000Y-129978665D01*
X31065000Y-130261335D01*
X31120147Y-130538574D01*
X31228320Y-130799727D01*
X31385363Y-131034759D01*
X31585241Y-131234637D01*
X31820273Y-131391680D01*
X32081426Y-131499853D01*
X32358665Y-131555000D01*
X32641335Y-131555000D01*
X32918574Y-131499853D01*
X33179727Y-131391680D01*
X33215001Y-131368111D01*
X33215001Y-135561928D01*
X33200000Y-135561928D01*
X33075518Y-135574188D01*
X32955820Y-135610498D01*
X32845506Y-135669463D01*
X32748815Y-135748815D01*
X32738193Y-135761758D01*
X32486004Y-135642429D01*
X32211816Y-135573700D01*
X31929488Y-135559783D01*
X31649870Y-135601213D01*
X31383708Y-135696397D01*
X31258486Y-135763329D01*
X31186903Y-136007298D01*
X32000000Y-136820395D01*
X32014143Y-136806253D01*
X32193748Y-136985858D01*
X32179605Y-137000000D01*
X32193748Y-137014143D01*
X32014143Y-137193748D01*
X32000000Y-137179605D01*
X31186903Y-137992702D01*
X31258486Y-138236671D01*
X31513996Y-138357571D01*
X31788184Y-138426300D01*
X32070512Y-138440217D01*
X32350130Y-138398787D01*
X32616292Y-138303603D01*
X32738309Y-138238384D01*
X32748815Y-138251185D01*
X32845506Y-138330537D01*
X32955820Y-138389502D01*
X33075518Y-138425812D01*
X33200000Y-138438072D01*
X34800000Y-138438072D01*
X34924482Y-138425812D01*
X35044180Y-138389502D01*
X35154494Y-138330537D01*
X35251185Y-138251185D01*
X35330537Y-138154494D01*
X35389502Y-138044180D01*
X35425812Y-137924482D01*
X35438072Y-137800000D01*
X35438072Y-136200000D01*
X35425812Y-136075518D01*
X35389502Y-135955820D01*
X35330537Y-135845506D01*
X35251185Y-135748815D01*
X35154494Y-135669463D01*
X35044180Y-135610498D01*
X34924482Y-135574188D01*
X34800000Y-135561928D01*
X34785000Y-135561928D01*
X34785000Y-134300000D01*
X35561928Y-134300000D01*
X35574188Y-134424482D01*
X35610498Y-134544180D01*
X35669463Y-134654494D01*
X35748815Y-134751185D01*
X35845506Y-134830537D01*
X35955820Y-134889502D01*
X36075518Y-134925812D01*
X36200000Y-134938072D01*
X36714250Y-134935000D01*
X36873000Y-134776250D01*
X36873000Y-133627000D01*
X37127000Y-133627000D01*
X37127000Y-134776250D01*
X37285750Y-134935000D01*
X37800000Y-134938072D01*
X37924482Y-134925812D01*
X38044180Y-134889502D01*
X38154494Y-134830537D01*
X38251185Y-134751185D01*
X38330537Y-134654494D01*
X38389502Y-134544180D01*
X38425812Y-134424482D01*
X38438072Y-134300000D01*
X38435000Y-133785750D01*
X38276250Y-133627000D01*
X37127000Y-133627000D01*
X36873000Y-133627000D01*
X35723750Y-133627000D01*
X35565000Y-133785750D01*
X35561928Y-134300000D01*
X34785000Y-134300000D01*
X34785000Y-128992702D01*
X35686903Y-128992702D01*
X35758486Y-129236671D01*
X36013996Y-129357571D01*
X36288184Y-129426300D01*
X36570512Y-129440217D01*
X36850130Y-129398787D01*
X37116292Y-129303603D01*
X37241514Y-129236671D01*
X37313097Y-128992702D01*
X36500000Y-128179605D01*
X35686903Y-128992702D01*
X34785000Y-128992702D01*
X34785000Y-128070512D01*
X35059783Y-128070512D01*
X35101213Y-128350130D01*
X35196397Y-128616292D01*
X35263329Y-128741514D01*
X35507298Y-128813097D01*
X36320395Y-128000000D01*
X36679605Y-128000000D01*
X37492702Y-128813097D01*
X37736671Y-128741514D01*
X37857571Y-128486004D01*
X37926300Y-128211816D01*
X37940217Y-127929488D01*
X37898787Y-127649870D01*
X37803603Y-127383708D01*
X37736671Y-127258486D01*
X37492702Y-127186903D01*
X36679605Y-128000000D01*
X36320395Y-128000000D01*
X35507298Y-127186903D01*
X35263329Y-127258486D01*
X35142429Y-127513996D01*
X35073700Y-127788184D01*
X35059783Y-128070512D01*
X34785000Y-128070512D01*
X34785000Y-127007298D01*
X35686903Y-127007298D01*
X36500000Y-127820395D01*
X37313097Y-127007298D01*
X37241514Y-126763329D01*
X36986004Y-126642429D01*
X36711816Y-126573700D01*
X36429488Y-126559783D01*
X36149870Y-126601213D01*
X35883708Y-126696397D01*
X35758486Y-126763329D01*
X35686903Y-127007298D01*
X34785000Y-127007298D01*
X34785000Y-123555159D01*
X35087203Y-123252956D01*
X35120147Y-123418574D01*
X35228320Y-123679727D01*
X35385363Y-123914759D01*
X35585241Y-124114637D01*
X35820273Y-124271680D01*
X36081426Y-124379853D01*
X36358665Y-124435000D01*
X36641335Y-124435000D01*
X36794397Y-124404554D01*
X39565000Y-127175157D01*
X39564999Y-131391446D01*
X39561202Y-131429999D01*
X39564999Y-131468552D01*
X39564999Y-131468559D01*
X39576358Y-131583885D01*
X39621245Y-131731858D01*
X39694137Y-131868231D01*
X39792235Y-131987763D01*
X39822189Y-132012346D01*
X40095446Y-132285604D01*
X40065000Y-132438665D01*
X40065000Y-132574843D01*
X38462347Y-130972190D01*
X38437764Y-130942236D01*
X38318233Y-130844138D01*
X38270622Y-130818690D01*
X38114637Y-130585241D01*
X37914759Y-130385363D01*
X37679727Y-130228320D01*
X37418574Y-130120147D01*
X37141335Y-130065000D01*
X36858665Y-130065000D01*
X36581426Y-130120147D01*
X36320273Y-130228320D01*
X36085241Y-130385363D01*
X35885363Y-130585241D01*
X35728320Y-130820273D01*
X35620147Y-131081426D01*
X35565000Y-131358665D01*
X35565000Y-131641335D01*
X35620147Y-131918574D01*
X35728320Y-132179727D01*
X35765393Y-132235210D01*
X35748815Y-132248815D01*
X35669463Y-132345506D01*
X35610498Y-132455820D01*
X35574188Y-132575518D01*
X35561928Y-132700000D01*
X35565000Y-133214250D01*
X35723750Y-133373000D01*
X36873000Y-133373000D01*
X36873000Y-133353000D01*
X37127000Y-133353000D01*
X37127000Y-133373000D01*
X38276250Y-133373000D01*
X38435000Y-133214250D01*
X38435292Y-133165449D01*
X40095446Y-134825604D01*
X40065000Y-134978665D01*
X40065000Y-135261335D01*
X40120147Y-135538574D01*
X40228320Y-135799727D01*
X40385363Y-136034759D01*
X40585241Y-136234637D01*
X40820273Y-136391680D01*
X41081426Y-136499853D01*
X41358665Y-136555000D01*
X41641335Y-136555000D01*
X41918574Y-136499853D01*
X42179727Y-136391680D01*
X42414759Y-136234637D01*
X42614637Y-136034759D01*
X42771680Y-135799727D01*
X42879853Y-135538574D01*
X42935000Y-135261335D01*
X42935000Y-134978665D01*
X42879853Y-134701426D01*
X42771680Y-134440273D01*
X42614637Y-134205241D01*
X42414759Y-134005363D01*
X42182241Y-133850000D01*
X42414759Y-133694637D01*
X42614637Y-133494759D01*
X42771680Y-133259727D01*
X42879853Y-132998574D01*
X42935000Y-132721335D01*
X42935000Y-132438665D01*
X42879853Y-132161426D01*
X42771680Y-131900273D01*
X42614637Y-131665241D01*
X42414759Y-131465363D01*
X42182241Y-131310000D01*
X42414759Y-131154637D01*
X42614637Y-130954759D01*
X42771680Y-130719727D01*
X42879853Y-130458574D01*
X42935000Y-130181335D01*
X42935000Y-129898665D01*
X42904554Y-129745603D01*
X43977811Y-128672346D01*
X44007765Y-128647763D01*
X44105863Y-128528232D01*
X44178755Y-128391859D01*
X44223643Y-128243886D01*
X44231021Y-128168973D01*
X44235001Y-128128560D01*
X44235001Y-128128555D01*
X44238798Y-128089999D01*
X44235001Y-128051443D01*
X44235001Y-120923194D01*
X44504128Y-121034670D01*
X44832565Y-121100000D01*
X45167435Y-121100000D01*
X45495872Y-121034670D01*
X45805252Y-120906521D01*
X46083687Y-120720477D01*
X46320477Y-120483687D01*
X46506521Y-120205252D01*
X46634670Y-119895872D01*
X46700000Y-119567435D01*
X46700000Y-119232565D01*
X46634670Y-118904128D01*
X46506521Y-118594748D01*
X46320477Y-118316313D01*
X46083687Y-118079523D01*
X45805252Y-117893479D01*
X45495872Y-117765330D01*
X45167435Y-117700000D01*
X44832565Y-117700000D01*
X44504128Y-117765330D01*
X44235001Y-117876806D01*
X44235001Y-114055001D01*
X47181202Y-114055001D01*
X47184999Y-114093554D01*
X47185000Y-133931436D01*
X47181202Y-133969999D01*
X47196358Y-134123885D01*
X47241245Y-134271858D01*
X47241246Y-134271859D01*
X47314138Y-134408232D01*
X47340434Y-134440273D01*
X47387654Y-134497811D01*
X47387658Y-134497815D01*
X47412236Y-134527763D01*
X47442184Y-134552341D01*
X47715446Y-134825604D01*
X47685000Y-134978665D01*
X47685000Y-135261335D01*
X47740147Y-135538574D01*
X47848320Y-135799727D01*
X48005363Y-136034759D01*
X48205241Y-136234637D01*
X48440273Y-136391680D01*
X48701426Y-136499853D01*
X48978665Y-136555000D01*
X49261335Y-136555000D01*
X49538574Y-136499853D01*
X49799727Y-136391680D01*
X50034759Y-136234637D01*
X50234637Y-136034759D01*
X50391680Y-135799727D01*
X50499853Y-135538574D01*
X50555000Y-135261335D01*
X50555000Y-134978665D01*
X50499853Y-134701426D01*
X50391680Y-134440273D01*
X50234637Y-134205241D01*
X50034759Y-134005363D01*
X49802241Y-133850000D01*
X50034759Y-133694637D01*
X50234637Y-133494759D01*
X50391680Y-133259727D01*
X50499853Y-132998574D01*
X50555000Y-132721335D01*
X50555000Y-132438665D01*
X50499853Y-132161426D01*
X50391680Y-131900273D01*
X50234637Y-131665241D01*
X50034759Y-131465363D01*
X49802241Y-131310000D01*
X50034759Y-131154637D01*
X50234637Y-130954759D01*
X50391680Y-130719727D01*
X50499853Y-130458574D01*
X50555000Y-130181335D01*
X50555000Y-130045158D01*
X52015000Y-131505158D01*
X52014999Y-136761446D01*
X52011202Y-136799999D01*
X52014999Y-136838552D01*
X52014999Y-136838559D01*
X52026358Y-136953885D01*
X52071245Y-137101858D01*
X52144137Y-137238231D01*
X52242235Y-137357763D01*
X52272189Y-137382346D01*
X52511928Y-137622085D01*
X52511928Y-138850000D01*
X52524188Y-138974482D01*
X52560498Y-139094180D01*
X52619463Y-139204494D01*
X52698815Y-139301185D01*
X52795506Y-139380537D01*
X52905820Y-139439502D01*
X53025518Y-139475812D01*
X53150000Y-139488072D01*
X54850000Y-139488072D01*
X54974482Y-139475812D01*
X55094180Y-139439502D01*
X55204494Y-139380537D01*
X55301185Y-139301185D01*
X55380537Y-139204494D01*
X55439502Y-139094180D01*
X55461513Y-139021620D01*
X55593368Y-139153475D01*
X55836589Y-139315990D01*
X56106842Y-139427932D01*
X56393740Y-139485000D01*
X56686260Y-139485000D01*
X56973158Y-139427932D01*
X57243411Y-139315990D01*
X57486632Y-139153475D01*
X57693475Y-138946632D01*
X57855990Y-138703411D01*
X57967932Y-138433158D01*
X58025000Y-138146260D01*
X58025000Y-137853740D01*
X57967932Y-137566842D01*
X57855990Y-137296589D01*
X57693475Y-137053368D01*
X57486632Y-136846525D01*
X57304466Y-136724805D01*
X57421355Y-136655178D01*
X57637588Y-136460269D01*
X57811641Y-136226920D01*
X57936825Y-135964099D01*
X57981476Y-135816890D01*
X57860155Y-135587000D01*
X56667000Y-135587000D01*
X56667000Y-135607000D01*
X56413000Y-135607000D01*
X56413000Y-135587000D01*
X54127000Y-135587000D01*
X54127000Y-135607000D01*
X53873000Y-135607000D01*
X53873000Y-135587000D01*
X53853000Y-135587000D01*
X53853000Y-135333000D01*
X53873000Y-135333000D01*
X53873000Y-133047000D01*
X54127000Y-133047000D01*
X54127000Y-135333000D01*
X56413000Y-135333000D01*
X56413000Y-133047000D01*
X56667000Y-133047000D01*
X56667000Y-135333000D01*
X57860155Y-135333000D01*
X57981476Y-135103110D01*
X57936825Y-134955901D01*
X57811641Y-134693080D01*
X57637588Y-134459731D01*
X57421355Y-134264822D01*
X57295745Y-134190000D01*
X57421355Y-134115178D01*
X57637588Y-133920269D01*
X57811641Y-133686920D01*
X57936825Y-133424099D01*
X57981476Y-133276890D01*
X57860155Y-133047000D01*
X56667000Y-133047000D01*
X56413000Y-133047000D01*
X54127000Y-133047000D01*
X53873000Y-133047000D01*
X53853000Y-133047000D01*
X53853000Y-132793000D01*
X53873000Y-132793000D01*
X53873000Y-130507000D01*
X54127000Y-130507000D01*
X54127000Y-132793000D01*
X56413000Y-132793000D01*
X56413000Y-130507000D01*
X56667000Y-130507000D01*
X56667000Y-132793000D01*
X57860155Y-132793000D01*
X57981476Y-132563110D01*
X57936825Y-132415901D01*
X57811641Y-132153080D01*
X57637588Y-131919731D01*
X57421355Y-131724822D01*
X57295745Y-131650000D01*
X57421355Y-131575178D01*
X57637588Y-131380269D01*
X57811641Y-131146920D01*
X57936825Y-130884099D01*
X57981476Y-130736890D01*
X57860155Y-130507000D01*
X56667000Y-130507000D01*
X56413000Y-130507000D01*
X54127000Y-130507000D01*
X53873000Y-130507000D01*
X53853000Y-130507000D01*
X53853000Y-130253000D01*
X53873000Y-130253000D01*
X53873000Y-130233000D01*
X54127000Y-130233000D01*
X54127000Y-130253000D01*
X56413000Y-130253000D01*
X56413000Y-130233000D01*
X56667000Y-130233000D01*
X56667000Y-130253000D01*
X57860155Y-130253000D01*
X57981476Y-130023110D01*
X57936825Y-129875901D01*
X57811641Y-129613080D01*
X57637588Y-129379731D01*
X57421355Y-129184822D01*
X57304466Y-129115195D01*
X57486632Y-128993475D01*
X57693475Y-128786632D01*
X57855990Y-128543411D01*
X57967932Y-128273158D01*
X58025000Y-127986260D01*
X58025000Y-127693740D01*
X57967932Y-127406842D01*
X57855990Y-127136589D01*
X57693475Y-126893368D01*
X57486632Y-126686525D01*
X57243411Y-126524010D01*
X56973158Y-126412068D01*
X56686260Y-126355000D01*
X56393740Y-126355000D01*
X56106842Y-126412068D01*
X55836589Y-126524010D01*
X55593368Y-126686525D01*
X55386525Y-126893368D01*
X55270000Y-127067760D01*
X55153475Y-126893368D01*
X54946632Y-126686525D01*
X54703411Y-126524010D01*
X54433158Y-126412068D01*
X54146260Y-126355000D01*
X53853740Y-126355000D01*
X53566842Y-126412068D01*
X53296589Y-126524010D01*
X53053368Y-126686525D01*
X52846525Y-126893368D01*
X52684010Y-127136589D01*
X52572068Y-127406842D01*
X52515000Y-127693740D01*
X52515000Y-127986260D01*
X52572068Y-128273158D01*
X52684010Y-128543411D01*
X52846525Y-128786632D01*
X53053368Y-128993475D01*
X53235534Y-129115195D01*
X53118645Y-129184822D01*
X52902412Y-129379731D01*
X52728359Y-129613080D01*
X52604105Y-129873948D01*
X50524554Y-127794397D01*
X50555000Y-127641335D01*
X50555000Y-127358665D01*
X50499853Y-127081426D01*
X50391680Y-126820273D01*
X50234637Y-126585241D01*
X50034759Y-126385363D01*
X49799727Y-126228320D01*
X49538574Y-126120147D01*
X49261335Y-126065000D01*
X48978665Y-126065000D01*
X48754999Y-126109491D01*
X48754999Y-122858665D01*
X53565000Y-122858665D01*
X53565000Y-123141335D01*
X53620147Y-123418574D01*
X53728320Y-123679727D01*
X53885363Y-123914759D01*
X54085241Y-124114637D01*
X54320273Y-124271680D01*
X54581426Y-124379853D01*
X54858665Y-124435000D01*
X55141335Y-124435000D01*
X55418574Y-124379853D01*
X55679727Y-124271680D01*
X55914759Y-124114637D01*
X56114637Y-123914759D01*
X56271680Y-123679727D01*
X56379853Y-123418574D01*
X56435000Y-123141335D01*
X56435000Y-122858665D01*
X56379853Y-122581426D01*
X56271680Y-122320273D01*
X56114637Y-122085241D01*
X55914759Y-121885363D01*
X55679727Y-121728320D01*
X55418574Y-121620147D01*
X55141335Y-121565000D01*
X54858665Y-121565000D01*
X54581426Y-121620147D01*
X54320273Y-121728320D01*
X54085241Y-121885363D01*
X53885363Y-122085241D01*
X53728320Y-122320273D01*
X53620147Y-122581426D01*
X53565000Y-122858665D01*
X48754999Y-122858665D01*
X48754999Y-116848816D01*
X50925000Y-116848816D01*
X50925000Y-117151184D01*
X50983989Y-117447743D01*
X51099701Y-117727095D01*
X51267688Y-117978505D01*
X51481495Y-118192312D01*
X51732905Y-118360299D01*
X52012257Y-118476011D01*
X52308816Y-118535000D01*
X52611184Y-118535000D01*
X52907743Y-118476011D01*
X53187095Y-118360299D01*
X53438505Y-118192312D01*
X53504944Y-118125873D01*
X53510498Y-118144180D01*
X53569463Y-118254494D01*
X53648815Y-118351185D01*
X53745506Y-118430537D01*
X53855820Y-118489502D01*
X53975518Y-118525812D01*
X54100000Y-118538072D01*
X55900000Y-118538072D01*
X56024482Y-118525812D01*
X56144180Y-118489502D01*
X56254494Y-118430537D01*
X56351185Y-118351185D01*
X56430537Y-118254494D01*
X56489502Y-118144180D01*
X56525812Y-118024482D01*
X56538072Y-117900000D01*
X56538072Y-116100000D01*
X56525812Y-115975518D01*
X56489502Y-115855820D01*
X56430537Y-115745506D01*
X56351185Y-115648815D01*
X56254494Y-115569463D01*
X56144180Y-115510498D01*
X56024482Y-115474188D01*
X55900000Y-115461928D01*
X54100000Y-115461928D01*
X53975518Y-115474188D01*
X53855820Y-115510498D01*
X53745506Y-115569463D01*
X53648815Y-115648815D01*
X53569463Y-115745506D01*
X53510498Y-115855820D01*
X53504944Y-115874127D01*
X53438505Y-115807688D01*
X53187095Y-115639701D01*
X52907743Y-115523989D01*
X52611184Y-115465000D01*
X52308816Y-115465000D01*
X52012257Y-115523989D01*
X51732905Y-115639701D01*
X51481495Y-115807688D01*
X51267688Y-116021495D01*
X51099701Y-116272905D01*
X50983989Y-116552257D01*
X50925000Y-116848816D01*
X48754999Y-116848816D01*
X48754999Y-114380158D01*
X51773125Y-111362033D01*
X51888589Y-111385000D01*
X52161411Y-111385000D01*
X52428989Y-111331775D01*
X52681043Y-111227371D01*
X52907886Y-111075799D01*
X53100799Y-110882886D01*
X53252371Y-110656043D01*
X53356775Y-110403989D01*
X53410000Y-110136411D01*
X53410000Y-109863589D01*
X54040000Y-109863589D01*
X54040000Y-110136411D01*
X54093225Y-110403989D01*
X54197629Y-110656043D01*
X54349201Y-110882886D01*
X54542114Y-111075799D01*
X54768957Y-111227371D01*
X55021011Y-111331775D01*
X55288589Y-111385000D01*
X55561411Y-111385000D01*
X55828989Y-111331775D01*
X56081043Y-111227371D01*
X56307886Y-111075799D01*
X56500799Y-110882886D01*
X56652371Y-110656043D01*
X56756775Y-110403989D01*
X56810000Y-110136411D01*
X56810000Y-109863589D01*
X56756775Y-109596011D01*
X56652371Y-109343957D01*
X56500799Y-109117114D01*
X56307886Y-108924201D01*
X56081043Y-108772629D01*
X55828989Y-108668225D01*
X55561411Y-108615000D01*
X55288589Y-108615000D01*
X55021011Y-108668225D01*
X54768957Y-108772629D01*
X54542114Y-108924201D01*
X54349201Y-109117114D01*
X54197629Y-109343957D01*
X54093225Y-109596011D01*
X54040000Y-109863589D01*
X53410000Y-109863589D01*
X53356775Y-109596011D01*
X53252371Y-109343957D01*
X53100799Y-109117114D01*
X52907886Y-108924201D01*
X52681043Y-108772629D01*
X52428989Y-108668225D01*
X52161411Y-108615000D01*
X51888589Y-108615000D01*
X51621011Y-108668225D01*
X51368957Y-108772629D01*
X51142114Y-108924201D01*
X50949201Y-109117114D01*
X50797629Y-109343957D01*
X50693225Y-109596011D01*
X50640000Y-109863589D01*
X50640000Y-110136411D01*
X50662967Y-110251875D01*
X47442189Y-113472654D01*
X47412235Y-113497237D01*
X47314137Y-113616769D01*
X47241245Y-113753142D01*
X47196358Y-113901115D01*
X47184999Y-114016441D01*
X47184999Y-114016448D01*
X47181202Y-114055001D01*
X44235001Y-114055001D01*
X44235001Y-112623194D01*
X44504128Y-112734670D01*
X44832565Y-112800000D01*
X45167435Y-112800000D01*
X45495872Y-112734670D01*
X45805252Y-112606521D01*
X46083687Y-112420477D01*
X46320477Y-112183687D01*
X46506521Y-111905252D01*
X46634670Y-111595872D01*
X46700000Y-111267435D01*
X46700000Y-110932565D01*
X46634670Y-110604128D01*
X46506521Y-110294748D01*
X46320477Y-110016313D01*
X46083687Y-109779523D01*
X45805252Y-109593479D01*
X45707701Y-109553072D01*
X45965000Y-109553072D01*
X46089482Y-109540812D01*
X46209180Y-109504502D01*
X46319494Y-109445537D01*
X46416185Y-109366185D01*
X46495537Y-109269494D01*
X46554502Y-109159180D01*
X46590812Y-109039482D01*
X46603072Y-108915000D01*
X46603072Y-107085000D01*
X46590812Y-106960518D01*
X46554502Y-106840820D01*
X46495537Y-106730506D01*
X46416185Y-106633815D01*
X46319494Y-106554463D01*
X46209180Y-106495498D01*
X46089482Y-106459188D01*
X45965000Y-106446928D01*
X44235001Y-106446928D01*
X44235001Y-89488553D01*
X44238798Y-89450000D01*
X44235001Y-89411447D01*
X44235001Y-89411440D01*
X44223642Y-89296114D01*
X44178755Y-89148141D01*
X44105863Y-89011768D01*
X44007765Y-88892237D01*
X43977818Y-88867660D01*
X42785000Y-87674843D01*
X42785000Y-83764555D01*
X42885363Y-83914759D01*
X43085241Y-84114637D01*
X43320273Y-84271680D01*
X43581426Y-84379853D01*
X43858665Y-84435000D01*
X44141335Y-84435000D01*
X44418574Y-84379853D01*
X44679727Y-84271680D01*
X44914759Y-84114637D01*
X45114637Y-83914759D01*
X45215000Y-83764554D01*
X45215001Y-96861437D01*
X45211203Y-96900000D01*
X45226359Y-97053886D01*
X45271246Y-97201859D01*
X45271247Y-97201860D01*
X45344139Y-97338233D01*
X45384690Y-97387644D01*
X45417655Y-97427812D01*
X45417659Y-97427816D01*
X45442237Y-97457764D01*
X45472185Y-97482342D01*
X49873719Y-101883876D01*
X49865330Y-101904128D01*
X49800000Y-102232565D01*
X49800000Y-102567435D01*
X49865330Y-102895872D01*
X49993479Y-103205252D01*
X50179523Y-103483687D01*
X50416313Y-103720477D01*
X50694748Y-103906521D01*
X51004128Y-104034670D01*
X51332565Y-104100000D01*
X51667435Y-104100000D01*
X51995872Y-104034670D01*
X52305252Y-103906521D01*
X52583687Y-103720477D01*
X52820477Y-103483687D01*
X53006521Y-103205252D01*
X53134670Y-102895872D01*
X53200000Y-102567435D01*
X53200000Y-102232565D01*
X53134670Y-101904128D01*
X53006521Y-101594748D01*
X52820477Y-101316313D01*
X52583687Y-101079523D01*
X52305252Y-100893479D01*
X51995872Y-100765330D01*
X51667435Y-100700000D01*
X51332565Y-100700000D01*
X51004128Y-100765330D01*
X50983876Y-100773719D01*
X46785000Y-96574843D01*
X46785000Y-93932565D01*
X49800000Y-93932565D01*
X49800000Y-94267435D01*
X49865330Y-94595872D01*
X49993479Y-94905252D01*
X50179523Y-95183687D01*
X50416313Y-95420477D01*
X50694748Y-95606521D01*
X51004128Y-95734670D01*
X51332565Y-95800000D01*
X51667435Y-95800000D01*
X51995872Y-95734670D01*
X52305252Y-95606521D01*
X52583687Y-95420477D01*
X52820477Y-95183687D01*
X53006521Y-94905252D01*
X53134670Y-94595872D01*
X53200000Y-94267435D01*
X53200000Y-93932565D01*
X53134670Y-93604128D01*
X53006521Y-93294748D01*
X52820477Y-93016313D01*
X52583687Y-92779523D01*
X52305252Y-92593479D01*
X52204860Y-92551895D01*
X52465000Y-92553072D01*
X52589482Y-92540812D01*
X52709180Y-92504502D01*
X52819494Y-92445537D01*
X52916185Y-92366185D01*
X52995537Y-92269494D01*
X53054502Y-92159180D01*
X53090812Y-92039482D01*
X53103072Y-91915000D01*
X53100000Y-91285750D01*
X52941250Y-91127000D01*
X51627000Y-91127000D01*
X51627000Y-91147000D01*
X51373000Y-91147000D01*
X51373000Y-91127000D01*
X50058750Y-91127000D01*
X49900000Y-91285750D01*
X49896928Y-91915000D01*
X49909188Y-92039482D01*
X49945498Y-92159180D01*
X50004463Y-92269494D01*
X50083815Y-92366185D01*
X50180506Y-92445537D01*
X50290820Y-92504502D01*
X50410518Y-92540812D01*
X50535000Y-92553072D01*
X50795140Y-92551895D01*
X50694748Y-92593479D01*
X50416313Y-92779523D01*
X50179523Y-93016313D01*
X49993479Y-93294748D01*
X49865330Y-93604128D01*
X49800000Y-93932565D01*
X46785000Y-93932565D01*
X46785000Y-90085000D01*
X49896928Y-90085000D01*
X49900000Y-90714250D01*
X50058750Y-90873000D01*
X51373000Y-90873000D01*
X51373000Y-89608750D01*
X51627000Y-89608750D01*
X51627000Y-90873000D01*
X52941250Y-90873000D01*
X53100000Y-90714250D01*
X53103072Y-90085000D01*
X53090812Y-89960518D01*
X53054502Y-89840820D01*
X52995537Y-89730506D01*
X52916185Y-89633815D01*
X52819494Y-89554463D01*
X52709180Y-89495498D01*
X52589482Y-89459188D01*
X52465000Y-89446928D01*
X51785750Y-89450000D01*
X51627000Y-89608750D01*
X51373000Y-89608750D01*
X51214250Y-89450000D01*
X50535000Y-89446928D01*
X50410518Y-89459188D01*
X50290820Y-89495498D01*
X50180506Y-89554463D01*
X50083815Y-89633815D01*
X50004463Y-89730506D01*
X49945498Y-89840820D01*
X49909188Y-89960518D01*
X49896928Y-90085000D01*
X46785000Y-90085000D01*
X46785000Y-88098094D01*
X46844869Y-88152385D01*
X47086119Y-88297070D01*
X47350960Y-88391909D01*
X47573000Y-88270624D01*
X47573000Y-87127000D01*
X47827000Y-87127000D01*
X47827000Y-88270624D01*
X48049040Y-88391909D01*
X48313881Y-88297070D01*
X48555131Y-88152385D01*
X48763519Y-87963414D01*
X48931037Y-87737420D01*
X49051246Y-87483087D01*
X49091904Y-87349039D01*
X48969915Y-87127000D01*
X47827000Y-87127000D01*
X47573000Y-87127000D01*
X47553000Y-87127000D01*
X47553000Y-86921269D01*
X52258336Y-86921269D01*
X52317797Y-87155037D01*
X52556242Y-87265934D01*
X52811740Y-87328183D01*
X53074473Y-87339390D01*
X53334344Y-87299125D01*
X53581366Y-87208935D01*
X53682203Y-87155037D01*
X53741664Y-86921269D01*
X53000000Y-86179605D01*
X52258336Y-86921269D01*
X47553000Y-86921269D01*
X47553000Y-86873000D01*
X47573000Y-86873000D01*
X47573000Y-85729376D01*
X47827000Y-85729376D01*
X47827000Y-86873000D01*
X48969915Y-86873000D01*
X49091904Y-86650961D01*
X49051246Y-86516913D01*
X48931037Y-86262580D01*
X48791603Y-86074473D01*
X51660610Y-86074473D01*
X51700875Y-86334344D01*
X51791065Y-86581366D01*
X51844963Y-86682203D01*
X52078731Y-86741664D01*
X52820395Y-86000000D01*
X53179605Y-86000000D01*
X53921269Y-86741664D01*
X54155037Y-86682203D01*
X54265934Y-86443758D01*
X54328183Y-86188260D01*
X54339390Y-85925527D01*
X54299125Y-85665656D01*
X54208935Y-85418634D01*
X54155037Y-85317797D01*
X53921269Y-85258336D01*
X53179605Y-86000000D01*
X52820395Y-86000000D01*
X52078731Y-85258336D01*
X51844963Y-85317797D01*
X51734066Y-85556242D01*
X51671817Y-85811740D01*
X51660610Y-86074473D01*
X48791603Y-86074473D01*
X48763519Y-86036586D01*
X48555131Y-85847615D01*
X48313881Y-85702930D01*
X48049040Y-85608091D01*
X47827000Y-85729376D01*
X47573000Y-85729376D01*
X47350960Y-85608091D01*
X47086119Y-85702930D01*
X46844869Y-85847615D01*
X46785000Y-85901906D01*
X46785000Y-82858665D01*
X47565000Y-82858665D01*
X47565000Y-83141335D01*
X47620147Y-83418574D01*
X47728320Y-83679727D01*
X47885363Y-83914759D01*
X48085241Y-84114637D01*
X48320273Y-84271680D01*
X48581426Y-84379853D01*
X48858665Y-84435000D01*
X49141335Y-84435000D01*
X49418574Y-84379853D01*
X49679727Y-84271680D01*
X49914759Y-84114637D01*
X50114637Y-83914759D01*
X50271680Y-83679727D01*
X50379853Y-83418574D01*
X50389810Y-83368514D01*
X51665000Y-83368514D01*
X51665000Y-83631486D01*
X51716304Y-83889405D01*
X51816939Y-84132359D01*
X51963038Y-84351013D01*
X52148987Y-84536962D01*
X52367641Y-84683061D01*
X52530118Y-84750361D01*
X52418634Y-84791065D01*
X52317797Y-84844963D01*
X52258336Y-85078731D01*
X53000000Y-85820395D01*
X53741664Y-85078731D01*
X53682203Y-84844963D01*
X53474596Y-84748408D01*
X53632359Y-84683061D01*
X53851013Y-84536962D01*
X54036962Y-84351013D01*
X54183061Y-84132359D01*
X54283696Y-83889405D01*
X54335000Y-83631486D01*
X54335000Y-83368514D01*
X54283696Y-83110595D01*
X54183061Y-82867641D01*
X54036962Y-82648987D01*
X53851013Y-82463038D01*
X53632359Y-82316939D01*
X53389405Y-82216304D01*
X53131486Y-82165000D01*
X52868514Y-82165000D01*
X52610595Y-82216304D01*
X52367641Y-82316939D01*
X52148987Y-82463038D01*
X51963038Y-82648987D01*
X51816939Y-82867641D01*
X51716304Y-83110595D01*
X51665000Y-83368514D01*
X50389810Y-83368514D01*
X50435000Y-83141335D01*
X50435000Y-82858665D01*
X50379853Y-82581426D01*
X50271680Y-82320273D01*
X50114637Y-82085241D01*
X49914759Y-81885363D01*
X49679727Y-81728320D01*
X49418574Y-81620147D01*
X49141335Y-81565000D01*
X48858665Y-81565000D01*
X48581426Y-81620147D01*
X48320273Y-81728320D01*
X48085241Y-81885363D01*
X47885363Y-82085241D01*
X47728320Y-82320273D01*
X47620147Y-82581426D01*
X47565000Y-82858665D01*
X46785000Y-82858665D01*
X46785000Y-80944550D01*
X46807688Y-80978505D01*
X47021495Y-81192312D01*
X47272905Y-81360299D01*
X47552257Y-81476011D01*
X47848816Y-81535000D01*
X48151184Y-81535000D01*
X48447743Y-81476011D01*
X48727095Y-81360299D01*
X48978505Y-81192312D01*
X49192312Y-80978505D01*
X49250000Y-80892169D01*
X49307688Y-80978505D01*
X49521495Y-81192312D01*
X49772905Y-81360299D01*
X50052257Y-81476011D01*
X50348816Y-81535000D01*
X50651184Y-81535000D01*
X50947743Y-81476011D01*
X51227095Y-81360299D01*
X51478505Y-81192312D01*
X51692312Y-80978505D01*
X51750000Y-80892169D01*
X51807688Y-80978505D01*
X52021495Y-81192312D01*
X52272905Y-81360299D01*
X52552257Y-81476011D01*
X52848816Y-81535000D01*
X53151184Y-81535000D01*
X53447743Y-81476011D01*
X53727095Y-81360299D01*
X53978505Y-81192312D01*
X54192312Y-80978505D01*
X54360299Y-80727095D01*
X54476011Y-80447743D01*
X54535000Y-80151184D01*
X54535000Y-79848816D01*
X54476011Y-79552257D01*
X54360299Y-79272905D01*
X54192312Y-79021495D01*
X53978505Y-78807688D01*
X53727095Y-78639701D01*
X53447743Y-78523989D01*
X53151184Y-78465000D01*
X52848816Y-78465000D01*
X52552257Y-78523989D01*
X52272905Y-78639701D01*
X52021495Y-78807688D01*
X51807688Y-79021495D01*
X51750000Y-79107831D01*
X51692312Y-79021495D01*
X51478505Y-78807688D01*
X51227095Y-78639701D01*
X50947743Y-78523989D01*
X50651184Y-78465000D01*
X50348816Y-78465000D01*
X50052257Y-78523989D01*
X49772905Y-78639701D01*
X49521495Y-78807688D01*
X49307688Y-79021495D01*
X49250000Y-79107831D01*
X49192312Y-79021495D01*
X48978505Y-78807688D01*
X48727095Y-78639701D01*
X48447743Y-78523989D01*
X48151184Y-78465000D01*
X47848816Y-78465000D01*
X47594588Y-78515569D01*
X52362162Y-73747995D01*
X52366261Y-73768601D01*
X52564893Y-74248141D01*
X52853262Y-74679715D01*
X53220285Y-75046738D01*
X53651859Y-75335107D01*
X54131399Y-75533739D01*
X54640475Y-75635000D01*
X55159525Y-75635000D01*
X55668601Y-75533739D01*
X56148141Y-75335107D01*
X56465002Y-75123387D01*
X56465002Y-77711438D01*
X56461204Y-77750001D01*
X56476360Y-77903887D01*
X56521247Y-78051860D01*
X56521248Y-78051861D01*
X56594140Y-78188234D01*
X56612990Y-78211202D01*
X56667656Y-78277813D01*
X56667660Y-78277817D01*
X56692238Y-78307765D01*
X56722186Y-78332343D01*
X57465000Y-79075157D01*
X57465000Y-79101939D01*
X57504774Y-79301898D01*
X57582795Y-79490256D01*
X57696063Y-79659774D01*
X57840226Y-79803937D01*
X58009744Y-79917205D01*
X58198102Y-79995226D01*
X58398061Y-80035000D01*
X58601939Y-80035000D01*
X58801898Y-79995226D01*
X58990256Y-79917205D01*
X59159774Y-79803937D01*
X59303937Y-79659774D01*
X59340001Y-79605800D01*
X59340002Y-140340000D01*
X30660000Y-140340000D01*
X30660000Y-137514515D01*
X30696397Y-137616292D01*
X30763329Y-137741514D01*
X31007298Y-137813097D01*
X31820395Y-137000000D01*
X31007298Y-136186903D01*
X30763329Y-136258486D01*
X30660000Y-136476861D01*
X30660000Y-107158665D01*
X31565000Y-107158665D01*
X31565000Y-107441335D01*
X31620147Y-107718574D01*
X31728320Y-107979727D01*
X31885363Y-108214759D01*
X32085241Y-108414637D01*
X32320273Y-108571680D01*
X32581426Y-108679853D01*
X32858665Y-108735000D01*
X33141335Y-108735000D01*
X33418574Y-108679853D01*
X33679727Y-108571680D01*
X33914759Y-108414637D01*
X34114637Y-108214759D01*
X34271680Y-107979727D01*
X34379853Y-107718574D01*
X34435000Y-107441335D01*
X34435000Y-107158665D01*
X34379853Y-106881426D01*
X34271680Y-106620273D01*
X34114637Y-106385241D01*
X33914759Y-106185363D01*
X33679727Y-106028320D01*
X33418574Y-105920147D01*
X33141335Y-105865000D01*
X32858665Y-105865000D01*
X32581426Y-105920147D01*
X32320273Y-106028320D01*
X32085241Y-106185363D01*
X31885363Y-106385241D01*
X31728320Y-106620273D01*
X31620147Y-106881426D01*
X31565000Y-107158665D01*
X30660000Y-107158665D01*
X30660000Y-100770157D01*
X36080223Y-106190381D01*
X35885363Y-106385241D01*
X35728320Y-106620273D01*
X35620147Y-106881426D01*
X35565000Y-107158665D01*
X35565000Y-107441335D01*
X35620147Y-107718574D01*
X35728320Y-107979727D01*
X35885363Y-108214759D01*
X36085241Y-108414637D01*
X36320273Y-108571680D01*
X36581426Y-108679853D01*
X36858665Y-108735000D01*
X37141335Y-108735000D01*
X37418574Y-108679853D01*
X37679727Y-108571680D01*
X37914759Y-108414637D01*
X38114637Y-108214759D01*
X38271680Y-107979727D01*
X38379853Y-107718574D01*
X38435000Y-107441335D01*
X38435000Y-107158665D01*
X38379853Y-106881426D01*
X38271680Y-106620273D01*
X38114637Y-106385241D01*
X37914759Y-106185363D01*
X37785000Y-106098661D01*
X37785000Y-106038552D01*
X37788797Y-105999999D01*
X37785000Y-105961446D01*
X37785000Y-105961439D01*
X37773641Y-105846113D01*
X37728754Y-105698140D01*
X37655862Y-105561767D01*
X37557764Y-105442236D01*
X37527816Y-105417658D01*
X31734999Y-99624842D01*
X31734999Y-90085000D01*
X36896928Y-90085000D01*
X36900000Y-90714250D01*
X37058750Y-90873000D01*
X38373000Y-90873000D01*
X38373000Y-89608750D01*
X38214250Y-89450000D01*
X37535000Y-89446928D01*
X37410518Y-89459188D01*
X37290820Y-89495498D01*
X37180506Y-89554463D01*
X37083815Y-89633815D01*
X37004463Y-89730506D01*
X36945498Y-89840820D01*
X36909188Y-89960518D01*
X36896928Y-90085000D01*
X31734999Y-90085000D01*
X31734999Y-88808442D01*
X31868514Y-88835000D01*
X32131486Y-88835000D01*
X32389405Y-88783696D01*
X32632359Y-88683061D01*
X32851013Y-88536962D01*
X33036962Y-88351013D01*
X33183061Y-88132359D01*
X33283696Y-87889405D01*
X33335000Y-87631486D01*
X33335000Y-87368514D01*
X33283696Y-87110595D01*
X33183061Y-86867641D01*
X33177064Y-86858665D01*
X33565000Y-86858665D01*
X33565000Y-87141335D01*
X33620147Y-87418574D01*
X33728320Y-87679727D01*
X33885363Y-87914759D01*
X34085241Y-88114637D01*
X34320273Y-88271680D01*
X34581426Y-88379853D01*
X34858665Y-88435000D01*
X35141335Y-88435000D01*
X35418574Y-88379853D01*
X35679727Y-88271680D01*
X35914759Y-88114637D01*
X36114637Y-87914759D01*
X36271680Y-87679727D01*
X36379853Y-87418574D01*
X36435000Y-87141335D01*
X36435000Y-86858665D01*
X36379853Y-86581426D01*
X36271680Y-86320273D01*
X36114637Y-86085241D01*
X35914759Y-85885363D01*
X35679727Y-85728320D01*
X35418574Y-85620147D01*
X35141335Y-85565000D01*
X34858665Y-85565000D01*
X34581426Y-85620147D01*
X34320273Y-85728320D01*
X34085241Y-85885363D01*
X33885363Y-86085241D01*
X33728320Y-86320273D01*
X33620147Y-86581426D01*
X33565000Y-86858665D01*
X33177064Y-86858665D01*
X33036962Y-86648987D01*
X32851013Y-86463038D01*
X32632359Y-86316939D01*
X32470754Y-86250000D01*
X32632359Y-86183061D01*
X32851013Y-86036962D01*
X33036962Y-85851013D01*
X33183061Y-85632359D01*
X33283696Y-85389405D01*
X33335000Y-85131486D01*
X33335000Y-84868514D01*
X33283696Y-84610595D01*
X33183061Y-84367641D01*
X33036962Y-84148987D01*
X32851013Y-83963038D01*
X32632359Y-83816939D01*
X32389405Y-83716304D01*
X32131486Y-83665000D01*
X31868514Y-83665000D01*
X31610595Y-83716304D01*
X31367641Y-83816939D01*
X31148987Y-83963038D01*
X30963038Y-84148987D01*
X30816939Y-84367641D01*
X30716304Y-84610595D01*
X30665000Y-84868514D01*
X30665000Y-85131486D01*
X30680489Y-85209354D01*
X30660000Y-85229843D01*
X30660000Y-82558665D01*
X34565000Y-82558665D01*
X34565000Y-82841335D01*
X34620147Y-83118574D01*
X34728320Y-83379727D01*
X34885363Y-83614759D01*
X35085241Y-83814637D01*
X35320273Y-83971680D01*
X35581426Y-84079853D01*
X35858665Y-84135000D01*
X36141335Y-84135000D01*
X36418574Y-84079853D01*
X36679727Y-83971680D01*
X36914759Y-83814637D01*
X37114637Y-83614759D01*
X37271680Y-83379727D01*
X37379853Y-83118574D01*
X37435000Y-82841335D01*
X37435000Y-82558665D01*
X37379853Y-82281426D01*
X37271680Y-82020273D01*
X37114637Y-81785241D01*
X36914759Y-81585363D01*
X36679727Y-81428320D01*
X36418574Y-81320147D01*
X36141335Y-81265000D01*
X35858665Y-81265000D01*
X35581426Y-81320147D01*
X35320273Y-81428320D01*
X35085241Y-81585363D01*
X34885363Y-81785241D01*
X34728320Y-82020273D01*
X34620147Y-82281426D01*
X34565000Y-82558665D01*
X30660000Y-82558665D01*
X30660000Y-70349040D01*
X34608091Y-70349040D01*
X34702930Y-70613881D01*
X34847615Y-70855131D01*
X35036586Y-71063519D01*
X35262580Y-71231037D01*
X35516913Y-71351246D01*
X35650961Y-71391904D01*
X35873000Y-71269915D01*
X35873000Y-70127000D01*
X36127000Y-70127000D01*
X36127000Y-71269915D01*
X36349039Y-71391904D01*
X36483087Y-71351246D01*
X36737420Y-71231037D01*
X36963414Y-71063519D01*
X37152385Y-70855131D01*
X37297070Y-70613881D01*
X37391909Y-70349040D01*
X37270624Y-70127000D01*
X36127000Y-70127000D01*
X35873000Y-70127000D01*
X34729376Y-70127000D01*
X34608091Y-70349040D01*
X30660000Y-70349040D01*
X30660000Y-69650960D01*
X34608091Y-69650960D01*
X34729376Y-69873000D01*
X35873000Y-69873000D01*
X35873000Y-68730085D01*
X36127000Y-68730085D01*
X36127000Y-69873000D01*
X37270624Y-69873000D01*
X37391909Y-69650960D01*
X37297070Y-69386119D01*
X37152385Y-69144869D01*
X36963414Y-68936481D01*
X36737420Y-68768963D01*
X36483087Y-68648754D01*
X36349039Y-68608096D01*
X36127000Y-68730085D01*
X35873000Y-68730085D01*
X35650961Y-68608096D01*
X35516913Y-68648754D01*
X35262580Y-68768963D01*
X35036586Y-68936481D01*
X34847615Y-69144869D01*
X34702930Y-69386119D01*
X34608091Y-69650960D01*
X30660000Y-69650960D01*
X30660000Y-65858665D01*
X34565000Y-65858665D01*
X34565000Y-66141335D01*
X34620147Y-66418574D01*
X34728320Y-66679727D01*
X34885363Y-66914759D01*
X35085241Y-67114637D01*
X35320273Y-67271680D01*
X35581426Y-67379853D01*
X35858665Y-67435000D01*
X36141335Y-67435000D01*
X36418574Y-67379853D01*
X36679727Y-67271680D01*
X36914759Y-67114637D01*
X37114637Y-66914759D01*
X37271680Y-66679727D01*
X37379853Y-66418574D01*
X37435000Y-66141335D01*
X37435000Y-65858665D01*
X37379853Y-65581426D01*
X37271680Y-65320273D01*
X37114637Y-65085241D01*
X36914759Y-64885363D01*
X36679727Y-64728320D01*
X36418574Y-64620147D01*
X36141335Y-64565000D01*
X35858665Y-64565000D01*
X35581426Y-64620147D01*
X35320273Y-64728320D01*
X35085241Y-64885363D01*
X34885363Y-65085241D01*
X34728320Y-65320273D01*
X34620147Y-65581426D01*
X34565000Y-65858665D01*
X30660000Y-65858665D01*
X30660000Y-62848816D01*
X35465000Y-62848816D01*
X35465000Y-63151184D01*
X35523989Y-63447743D01*
X35639701Y-63727095D01*
X35807688Y-63978505D01*
X36021495Y-64192312D01*
X36272905Y-64360299D01*
X36552257Y-64476011D01*
X36848816Y-64535000D01*
X37151184Y-64535000D01*
X37447743Y-64476011D01*
X37727095Y-64360299D01*
X37978505Y-64192312D01*
X38192312Y-63978505D01*
X38250000Y-63892169D01*
X38307688Y-63978505D01*
X38521495Y-64192312D01*
X38772905Y-64360299D01*
X39052257Y-64476011D01*
X39348816Y-64535000D01*
X39651184Y-64535000D01*
X39947743Y-64476011D01*
X40227095Y-64360299D01*
X40478505Y-64192312D01*
X40692312Y-63978505D01*
X40750000Y-63892169D01*
X40807688Y-63978505D01*
X41021495Y-64192312D01*
X41272905Y-64360299D01*
X41552257Y-64476011D01*
X41848816Y-64535000D01*
X42151184Y-64535000D01*
X42447743Y-64476011D01*
X42727095Y-64360299D01*
X42978505Y-64192312D01*
X43192312Y-63978505D01*
X43360299Y-63727095D01*
X43476011Y-63447743D01*
X43535000Y-63151184D01*
X43535000Y-62848816D01*
X43476011Y-62552257D01*
X43360299Y-62272905D01*
X43192312Y-62021495D01*
X42978505Y-61807688D01*
X42727095Y-61639701D01*
X42447743Y-61523989D01*
X42151184Y-61465000D01*
X41848816Y-61465000D01*
X41552257Y-61523989D01*
X41272905Y-61639701D01*
X41021495Y-61807688D01*
X40807688Y-62021495D01*
X40750000Y-62107831D01*
X40692312Y-62021495D01*
X40478505Y-61807688D01*
X40227095Y-61639701D01*
X39947743Y-61523989D01*
X39651184Y-61465000D01*
X39348816Y-61465000D01*
X39052257Y-61523989D01*
X38772905Y-61639701D01*
X38521495Y-61807688D01*
X38307688Y-62021495D01*
X38250000Y-62107831D01*
X38192312Y-62021495D01*
X37978505Y-61807688D01*
X37727095Y-61639701D01*
X37447743Y-61523989D01*
X37151184Y-61465000D01*
X36848816Y-61465000D01*
X36552257Y-61523989D01*
X36272905Y-61639701D01*
X36021495Y-61807688D01*
X35807688Y-62021495D01*
X35639701Y-62272905D01*
X35523989Y-62552257D01*
X35465000Y-62848816D01*
X30660000Y-62848816D01*
X30660000Y-55740475D01*
X32465000Y-55740475D01*
X32465000Y-56259525D01*
X32566261Y-56768601D01*
X32764893Y-57248141D01*
X33053262Y-57679715D01*
X33420285Y-58046738D01*
X33851859Y-58335107D01*
X34331399Y-58533739D01*
X34840475Y-58635000D01*
X35359525Y-58635000D01*
X35868601Y-58533739D01*
X36348141Y-58335107D01*
X36779715Y-58046738D01*
X37146738Y-57679715D01*
X37435107Y-57248141D01*
X37633739Y-56768601D01*
X37735000Y-56259525D01*
X37735000Y-55740475D01*
X41265000Y-55740475D01*
X41265000Y-56259525D01*
X41366261Y-56768601D01*
X41564893Y-57248141D01*
X41853262Y-57679715D01*
X42220285Y-58046738D01*
X42651859Y-58335107D01*
X43131399Y-58533739D01*
X43640475Y-58635000D01*
X44159525Y-58635000D01*
X44668601Y-58533739D01*
X45148141Y-58335107D01*
X45579715Y-58046738D01*
X45946738Y-57679715D01*
X46235107Y-57248141D01*
X46433739Y-56768601D01*
X46535000Y-56259525D01*
X46535000Y-55740475D01*
X46433739Y-55231399D01*
X46235107Y-54751859D01*
X45946738Y-54320285D01*
X45579715Y-53953262D01*
X45148141Y-53664893D01*
X44668601Y-53466261D01*
X44159525Y-53365000D01*
X43640475Y-53365000D01*
X43131399Y-53466261D01*
X42651859Y-53664893D01*
X42220285Y-53953262D01*
X41853262Y-54320285D01*
X41564893Y-54751859D01*
X41366261Y-55231399D01*
X41265000Y-55740475D01*
X37735000Y-55740475D01*
X37633739Y-55231399D01*
X37435107Y-54751859D01*
X37146738Y-54320285D01*
X36779715Y-53953262D01*
X36348141Y-53664893D01*
X35868601Y-53466261D01*
X35359525Y-53365000D01*
X34840475Y-53365000D01*
X34331399Y-53466261D01*
X33851859Y-53664893D01*
X33420285Y-53953262D01*
X33053262Y-54320285D01*
X32764893Y-54751859D01*
X32566261Y-55231399D01*
X32465000Y-55740475D01*
X30660000Y-55740475D01*
X30660000Y-45858665D01*
X35565000Y-45858665D01*
X35565000Y-46141335D01*
X35620147Y-46418574D01*
X35728320Y-46679727D01*
X35885363Y-46914759D01*
X36085241Y-47114637D01*
X36320273Y-47271680D01*
X36581426Y-47379853D01*
X36858665Y-47435000D01*
X37141335Y-47435000D01*
X37418574Y-47379853D01*
X37679727Y-47271680D01*
X37914759Y-47114637D01*
X38114637Y-46914759D01*
X38271680Y-46679727D01*
X38379853Y-46418574D01*
X38435000Y-46141335D01*
X38435000Y-45858665D01*
X39565000Y-45858665D01*
X39565000Y-46141335D01*
X39620147Y-46418574D01*
X39728320Y-46679727D01*
X39885363Y-46914759D01*
X40085241Y-47114637D01*
X40320273Y-47271680D01*
X40581426Y-47379853D01*
X40858665Y-47435000D01*
X41141335Y-47435000D01*
X41418574Y-47379853D01*
X41679727Y-47271680D01*
X41914759Y-47114637D01*
X41965316Y-47064080D01*
X47115525Y-47064080D01*
X47199208Y-47318261D01*
X47471775Y-47449158D01*
X47764642Y-47524365D01*
X48066553Y-47540991D01*
X48365907Y-47498397D01*
X48651199Y-47398222D01*
X48800792Y-47318261D01*
X48884475Y-47064080D01*
X48000000Y-46179605D01*
X47115525Y-47064080D01*
X41965316Y-47064080D01*
X42114637Y-46914759D01*
X42271680Y-46679727D01*
X42379853Y-46418574D01*
X42435000Y-46141335D01*
X42435000Y-46066553D01*
X46459009Y-46066553D01*
X46501603Y-46365907D01*
X46601778Y-46651199D01*
X46681739Y-46800792D01*
X46935920Y-46884475D01*
X47820395Y-46000000D01*
X46935920Y-45115525D01*
X46681739Y-45199208D01*
X46550842Y-45471775D01*
X46475635Y-45764642D01*
X46459009Y-46066553D01*
X42435000Y-46066553D01*
X42435000Y-45858665D01*
X42379853Y-45581426D01*
X42271680Y-45320273D01*
X42114637Y-45085241D01*
X41965316Y-44935920D01*
X47115525Y-44935920D01*
X48000000Y-45820395D01*
X48884475Y-44935920D01*
X48800792Y-44681739D01*
X48528225Y-44550842D01*
X48235358Y-44475635D01*
X47933447Y-44459009D01*
X47634093Y-44501603D01*
X47348801Y-44601778D01*
X47199208Y-44681739D01*
X47115525Y-44935920D01*
X41965316Y-44935920D01*
X41914759Y-44885363D01*
X41679727Y-44728320D01*
X41418574Y-44620147D01*
X41141335Y-44565000D01*
X40858665Y-44565000D01*
X40581426Y-44620147D01*
X40320273Y-44728320D01*
X40085241Y-44885363D01*
X39885363Y-45085241D01*
X39728320Y-45320273D01*
X39620147Y-45581426D01*
X39565000Y-45858665D01*
X38435000Y-45858665D01*
X38379853Y-45581426D01*
X38271680Y-45320273D01*
X38114637Y-45085241D01*
X37914759Y-44885363D01*
X37679727Y-44728320D01*
X37418574Y-44620147D01*
X37141335Y-44565000D01*
X36858665Y-44565000D01*
X36581426Y-44620147D01*
X36320273Y-44728320D01*
X36085241Y-44885363D01*
X35885363Y-45085241D01*
X35728320Y-45320273D01*
X35620147Y-45581426D01*
X35565000Y-45858665D01*
X30660000Y-45858665D01*
X30660000Y-38740475D01*
X43465000Y-38740475D01*
X43465000Y-39259525D01*
X43566261Y-39768601D01*
X43764893Y-40248141D01*
X44053262Y-40679715D01*
X44420285Y-41046738D01*
X44851859Y-41335107D01*
X45331399Y-41533739D01*
X45840475Y-41635000D01*
X46359525Y-41635000D01*
X46868601Y-41533739D01*
X47348141Y-41335107D01*
X47779715Y-41046738D01*
X48146738Y-40679715D01*
X48435107Y-40248141D01*
X48633739Y-39768601D01*
X48735000Y-39259525D01*
X48735000Y-38740475D01*
X52265000Y-38740475D01*
X52265000Y-39259525D01*
X52366261Y-39768601D01*
X52564893Y-40248141D01*
X52853262Y-40679715D01*
X53220285Y-41046738D01*
X53651859Y-41335107D01*
X54131399Y-41533739D01*
X54640475Y-41635000D01*
X55159525Y-41635000D01*
X55668601Y-41533739D01*
X56148141Y-41335107D01*
X56579715Y-41046738D01*
X56946738Y-40679715D01*
X57235107Y-40248141D01*
X57433739Y-39768601D01*
X57535000Y-39259525D01*
X57535000Y-38740475D01*
X57433739Y-38231399D01*
X57235107Y-37751859D01*
X56946738Y-37320285D01*
X56579715Y-36953262D01*
X56148141Y-36664893D01*
X55668601Y-36466261D01*
X55159525Y-36365000D01*
X54640475Y-36365000D01*
X54131399Y-36466261D01*
X53651859Y-36664893D01*
X53220285Y-36953262D01*
X52853262Y-37320285D01*
X52564893Y-37751859D01*
X52366261Y-38231399D01*
X52265000Y-38740475D01*
X48735000Y-38740475D01*
X48633739Y-38231399D01*
X48435107Y-37751859D01*
X48146738Y-37320285D01*
X47779715Y-36953262D01*
X47348141Y-36664893D01*
X46868601Y-36466261D01*
X46359525Y-36365000D01*
X45840475Y-36365000D01*
X45331399Y-36466261D01*
X44851859Y-36664893D01*
X44420285Y-36953262D01*
X44053262Y-37320285D01*
X43764893Y-37751859D01*
X43566261Y-38231399D01*
X43465000Y-38740475D01*
X30660000Y-38740475D01*
X30660000Y-33649040D01*
X35608091Y-33649040D01*
X35702930Y-33913881D01*
X35847615Y-34155131D01*
X36036586Y-34363519D01*
X36262580Y-34531037D01*
X36516913Y-34651246D01*
X36650961Y-34691904D01*
X36873000Y-34569915D01*
X36873000Y-33427000D01*
X37127000Y-33427000D01*
X37127000Y-34569915D01*
X37349039Y-34691904D01*
X37483087Y-34651246D01*
X37737420Y-34531037D01*
X37963414Y-34363519D01*
X38027632Y-34292702D01*
X40186903Y-34292702D01*
X40258486Y-34536671D01*
X40513996Y-34657571D01*
X40788184Y-34726300D01*
X41070512Y-34740217D01*
X41350130Y-34698787D01*
X41616292Y-34603603D01*
X41741514Y-34536671D01*
X41813097Y-34292702D01*
X41000000Y-33479605D01*
X40186903Y-34292702D01*
X38027632Y-34292702D01*
X38152385Y-34155131D01*
X38297070Y-33913881D01*
X38391909Y-33649040D01*
X38270624Y-33427000D01*
X37127000Y-33427000D01*
X36873000Y-33427000D01*
X35729376Y-33427000D01*
X35608091Y-33649040D01*
X30660000Y-33649040D01*
X30660000Y-33370512D01*
X39559783Y-33370512D01*
X39601213Y-33650130D01*
X39696397Y-33916292D01*
X39763329Y-34041514D01*
X40007298Y-34113097D01*
X40820395Y-33300000D01*
X41179605Y-33300000D01*
X41992702Y-34113097D01*
X42236671Y-34041514D01*
X42357571Y-33786004D01*
X42426300Y-33511816D01*
X42440217Y-33229488D01*
X42398787Y-32949870D01*
X42303603Y-32683708D01*
X42236671Y-32558486D01*
X41992702Y-32486903D01*
X41179605Y-33300000D01*
X40820395Y-33300000D01*
X40007298Y-32486903D01*
X39763329Y-32558486D01*
X39642429Y-32813996D01*
X39573700Y-33088184D01*
X39559783Y-33370512D01*
X30660000Y-33370512D01*
X30660000Y-32950960D01*
X35608091Y-32950960D01*
X35729376Y-33173000D01*
X36873000Y-33173000D01*
X36873000Y-32030085D01*
X37127000Y-32030085D01*
X37127000Y-33173000D01*
X38270624Y-33173000D01*
X38391909Y-32950960D01*
X38297070Y-32686119D01*
X38152385Y-32444869D01*
X38027633Y-32307298D01*
X40186903Y-32307298D01*
X41000000Y-33120395D01*
X41813097Y-32307298D01*
X41741514Y-32063329D01*
X41486004Y-31942429D01*
X41211816Y-31873700D01*
X40929488Y-31859783D01*
X40649870Y-31901213D01*
X40383708Y-31996397D01*
X40258486Y-32063329D01*
X40186903Y-32307298D01*
X38027633Y-32307298D01*
X37963414Y-32236481D01*
X37737420Y-32068963D01*
X37483087Y-31948754D01*
X37349039Y-31908096D01*
X37127000Y-32030085D01*
X36873000Y-32030085D01*
X36650961Y-31908096D01*
X36516913Y-31948754D01*
X36262580Y-32068963D01*
X36036586Y-32236481D01*
X35847615Y-32444869D01*
X35702930Y-32686119D01*
X35608091Y-32950960D01*
X30660000Y-32950960D01*
X30660000Y-31660000D01*
X59340000Y-31660000D01*
X59340001Y-78394200D01*
G04 #@! TA.AperFunction,Conductor*
D25*
G36*
X59340001Y-78394200D02*
G01*
X59303937Y-78340226D01*
X59159774Y-78196063D01*
X58990256Y-78082795D01*
X58801898Y-78004774D01*
X58601939Y-77965000D01*
X58575157Y-77965000D01*
X58035001Y-77424844D01*
X58035001Y-65288553D01*
X58038798Y-65250000D01*
X58035001Y-65211447D01*
X58035001Y-65211440D01*
X58023642Y-65096114D01*
X57978755Y-64948141D01*
X57905863Y-64811768D01*
X57807765Y-64692237D01*
X57777818Y-64667660D01*
X57404554Y-64294396D01*
X57435000Y-64141335D01*
X57435000Y-63858665D01*
X57379853Y-63581426D01*
X57271680Y-63320273D01*
X57114637Y-63085241D01*
X56914759Y-62885363D01*
X56679727Y-62728320D01*
X56418574Y-62620147D01*
X56141335Y-62565000D01*
X55858665Y-62565000D01*
X55581426Y-62620147D01*
X55320273Y-62728320D01*
X55085241Y-62885363D01*
X54885363Y-63085241D01*
X54728320Y-63320273D01*
X54620147Y-63581426D01*
X54565000Y-63858665D01*
X54565000Y-64141335D01*
X54620147Y-64418574D01*
X54728320Y-64679727D01*
X54885363Y-64914759D01*
X55085241Y-65114637D01*
X55320273Y-65271680D01*
X55581426Y-65379853D01*
X55858665Y-65435000D01*
X56141335Y-65435000D01*
X56294396Y-65404554D01*
X56465001Y-65575159D01*
X56465001Y-70876613D01*
X56148141Y-70664893D01*
X55668601Y-70466261D01*
X55159525Y-70365000D01*
X54640475Y-70365000D01*
X54131399Y-70466261D01*
X53651859Y-70664893D01*
X53220285Y-70953262D01*
X52935001Y-71238546D01*
X52935001Y-51158665D01*
X54565000Y-51158665D01*
X54565000Y-51441335D01*
X54620147Y-51718574D01*
X54728320Y-51979727D01*
X54885363Y-52214759D01*
X55085241Y-52414637D01*
X55320273Y-52571680D01*
X55581426Y-52679853D01*
X55858665Y-52735000D01*
X56141335Y-52735000D01*
X56418574Y-52679853D01*
X56679727Y-52571680D01*
X56914759Y-52414637D01*
X57114637Y-52214759D01*
X57271680Y-51979727D01*
X57379853Y-51718574D01*
X57435000Y-51441335D01*
X57435000Y-51158665D01*
X57379853Y-50881426D01*
X57271680Y-50620273D01*
X57114637Y-50385241D01*
X56914759Y-50185363D01*
X56679727Y-50028320D01*
X56418574Y-49920147D01*
X56141335Y-49865000D01*
X55858665Y-49865000D01*
X55581426Y-49920147D01*
X55320273Y-50028320D01*
X55085241Y-50185363D01*
X54885363Y-50385241D01*
X54728320Y-50620273D01*
X54620147Y-50881426D01*
X54565000Y-51158665D01*
X52935001Y-51158665D01*
X52935001Y-47688557D01*
X52938798Y-47650001D01*
X52935001Y-47611441D01*
X52935001Y-47611440D01*
X52931021Y-47571027D01*
X52927473Y-47535000D01*
X53151184Y-47535000D01*
X53447743Y-47476011D01*
X53727095Y-47360299D01*
X53978505Y-47192312D01*
X54192312Y-46978505D01*
X54360299Y-46727095D01*
X54476011Y-46447743D01*
X54535000Y-46151184D01*
X54535000Y-45848816D01*
X54476011Y-45552257D01*
X54360299Y-45272905D01*
X54192312Y-45021495D01*
X53978505Y-44807688D01*
X53727095Y-44639701D01*
X53447743Y-44523989D01*
X53151184Y-44465000D01*
X52848816Y-44465000D01*
X52552257Y-44523989D01*
X52272905Y-44639701D01*
X52021495Y-44807688D01*
X51807688Y-45021495D01*
X51750000Y-45107831D01*
X51692312Y-45021495D01*
X51478505Y-44807688D01*
X51227095Y-44639701D01*
X50947743Y-44523989D01*
X50651184Y-44465000D01*
X50348816Y-44465000D01*
X50052257Y-44523989D01*
X49772905Y-44639701D01*
X49521495Y-44807688D01*
X49307688Y-45021495D01*
X49212262Y-45164310D01*
X49064080Y-45115525D01*
X48179605Y-46000000D01*
X49064080Y-46884475D01*
X49212262Y-46835690D01*
X49307688Y-46978505D01*
X49521495Y-47192312D01*
X49772905Y-47360299D01*
X50052257Y-47476011D01*
X50348816Y-47535000D01*
X50651184Y-47535000D01*
X50879440Y-47489597D01*
X51365001Y-47975158D01*
X51365002Y-61609491D01*
X51141335Y-61565000D01*
X50858665Y-61565000D01*
X50581426Y-61620147D01*
X50320273Y-61728320D01*
X50264790Y-61765393D01*
X50251185Y-61748815D01*
X50154494Y-61669463D01*
X50044180Y-61610498D01*
X49924482Y-61574188D01*
X49800000Y-61561928D01*
X48200000Y-61561928D01*
X48075518Y-61574188D01*
X47955820Y-61610498D01*
X47845506Y-61669463D01*
X47748815Y-61748815D01*
X47669463Y-61845506D01*
X47610498Y-61955820D01*
X47574188Y-62075518D01*
X47561928Y-62200000D01*
X47561928Y-63800000D01*
X47574188Y-63924482D01*
X47610498Y-64044180D01*
X47669463Y-64154494D01*
X47748815Y-64251185D01*
X47845506Y-64330537D01*
X47955820Y-64389502D01*
X48075518Y-64425812D01*
X48200000Y-64438072D01*
X49800000Y-64438072D01*
X49924482Y-64425812D01*
X50044180Y-64389502D01*
X50154494Y-64330537D01*
X50251185Y-64251185D01*
X50264790Y-64234607D01*
X50320273Y-64271680D01*
X50581426Y-64379853D01*
X50858665Y-64435000D01*
X51141335Y-64435000D01*
X51365002Y-64390509D01*
X51365002Y-72524841D01*
X45472190Y-78417653D01*
X45442236Y-78442236D01*
X45344138Y-78561768D01*
X45271246Y-78698141D01*
X45226359Y-78846114D01*
X45215000Y-78961440D01*
X45215000Y-78961447D01*
X45211203Y-79000000D01*
X45215000Y-79038553D01*
X45215000Y-82235445D01*
X45114637Y-82085241D01*
X44914759Y-81885363D01*
X44679727Y-81728320D01*
X44418574Y-81620147D01*
X44141335Y-81565000D01*
X43858665Y-81565000D01*
X43581426Y-81620147D01*
X43320273Y-81728320D01*
X43085241Y-81885363D01*
X42885363Y-82085241D01*
X42785000Y-82235445D01*
X42785000Y-72740475D01*
X43465000Y-72740475D01*
X43465000Y-73259525D01*
X43566261Y-73768601D01*
X43764893Y-74248141D01*
X44053262Y-74679715D01*
X44420285Y-75046738D01*
X44851859Y-75335107D01*
X45331399Y-75533739D01*
X45840475Y-75635000D01*
X46359525Y-75635000D01*
X46868601Y-75533739D01*
X47348141Y-75335107D01*
X47779715Y-75046738D01*
X48146738Y-74679715D01*
X48435107Y-74248141D01*
X48633739Y-73768601D01*
X48735000Y-73259525D01*
X48735000Y-72740475D01*
X48633739Y-72231399D01*
X48435107Y-71751859D01*
X48146738Y-71320285D01*
X47779715Y-70953262D01*
X47348141Y-70664893D01*
X46868601Y-70466261D01*
X46359525Y-70365000D01*
X45840475Y-70365000D01*
X45331399Y-70466261D01*
X44851859Y-70664893D01*
X44420285Y-70953262D01*
X44053262Y-71320285D01*
X43764893Y-71751859D01*
X43566261Y-72231399D01*
X43465000Y-72740475D01*
X42785000Y-72740475D01*
X42785000Y-67945157D01*
X43292085Y-67438072D01*
X44420000Y-67438072D01*
X44544482Y-67425812D01*
X44664180Y-67389502D01*
X44774494Y-67330537D01*
X44871185Y-67251185D01*
X44950537Y-67154494D01*
X45009502Y-67044180D01*
X45045812Y-66924482D01*
X45058072Y-66800000D01*
X45058072Y-65200000D01*
X45045812Y-65075518D01*
X45009502Y-64955820D01*
X44950537Y-64845506D01*
X44871185Y-64748815D01*
X44774494Y-64669463D01*
X44664180Y-64610498D01*
X44544482Y-64574188D01*
X44420000Y-64561928D01*
X42820000Y-64561928D01*
X42695518Y-64574188D01*
X42575820Y-64610498D01*
X42465506Y-64669463D01*
X42368815Y-64748815D01*
X42289463Y-64845506D01*
X42230498Y-64955820D01*
X42194188Y-65075518D01*
X42181928Y-65200000D01*
X42181928Y-66327915D01*
X41472190Y-67037653D01*
X41442236Y-67062236D01*
X41344138Y-67181768D01*
X41271246Y-67318141D01*
X41226359Y-67466114D01*
X41215000Y-67581440D01*
X41215000Y-67581447D01*
X41211203Y-67620000D01*
X41215000Y-67658553D01*
X41215000Y-69235445D01*
X41114637Y-69085241D01*
X40914759Y-68885363D01*
X40679727Y-68728320D01*
X40418574Y-68620147D01*
X40141335Y-68565000D01*
X39858665Y-68565000D01*
X39581426Y-68620147D01*
X39320273Y-68728320D01*
X39085241Y-68885363D01*
X38885363Y-69085241D01*
X38728320Y-69320273D01*
X38620147Y-69581426D01*
X38565000Y-69858665D01*
X38565000Y-70141335D01*
X38620147Y-70418574D01*
X38728320Y-70679727D01*
X38885363Y-70914759D01*
X39085241Y-71114637D01*
X39320273Y-71271680D01*
X39581426Y-71379853D01*
X39858665Y-71435000D01*
X40141335Y-71435000D01*
X40418574Y-71379853D01*
X40679727Y-71271680D01*
X40914759Y-71114637D01*
X41114637Y-70914759D01*
X41215000Y-70764555D01*
X41215001Y-81935446D01*
X41114637Y-81785241D01*
X40914759Y-81585363D01*
X40679727Y-81428320D01*
X40418574Y-81320147D01*
X40141335Y-81265000D01*
X39858665Y-81265000D01*
X39581426Y-81320147D01*
X39320273Y-81428320D01*
X39085241Y-81585363D01*
X38885363Y-81785241D01*
X38728320Y-82020273D01*
X38620147Y-82281426D01*
X38565000Y-82558665D01*
X38565000Y-82841335D01*
X38620147Y-83118574D01*
X38728320Y-83379727D01*
X38885363Y-83614759D01*
X39085241Y-83814637D01*
X39215000Y-83901339D01*
X39215000Y-89448059D01*
X38785750Y-89450000D01*
X38627000Y-89608750D01*
X38627000Y-90873000D01*
X38647000Y-90873000D01*
X38647000Y-91127000D01*
X38627000Y-91127000D01*
X38627000Y-91147000D01*
X38373000Y-91147000D01*
X38373000Y-91127000D01*
X37058750Y-91127000D01*
X36900000Y-91285750D01*
X36896928Y-91915000D01*
X36909188Y-92039482D01*
X36945498Y-92159180D01*
X37004463Y-92269494D01*
X37083815Y-92366185D01*
X37180506Y-92445537D01*
X37290820Y-92504502D01*
X37410518Y-92540812D01*
X37535000Y-92553072D01*
X37795140Y-92551895D01*
X37694748Y-92593479D01*
X37416313Y-92779523D01*
X37179523Y-93016313D01*
X36993479Y-93294748D01*
X36865330Y-93604128D01*
X36800000Y-93932565D01*
X36800000Y-94267435D01*
X36865330Y-94595872D01*
X36993479Y-94905252D01*
X37179523Y-95183687D01*
X37416313Y-95420477D01*
X37694748Y-95606521D01*
X38004128Y-95734670D01*
X38332565Y-95800000D01*
X38667435Y-95800000D01*
X38995872Y-95734670D01*
X39215000Y-95643904D01*
X39215000Y-100856096D01*
X38995872Y-100765330D01*
X38667435Y-100700000D01*
X38332565Y-100700000D01*
X38004128Y-100765330D01*
X37694748Y-100893479D01*
X37416313Y-101079523D01*
X37179523Y-101316313D01*
X36993479Y-101594748D01*
X36865330Y-101904128D01*
X36800000Y-102232565D01*
X36800000Y-102567435D01*
X36865330Y-102895872D01*
X36993479Y-103205252D01*
X37179523Y-103483687D01*
X37416313Y-103720477D01*
X37694748Y-103906521D01*
X38004128Y-104034670D01*
X38332565Y-104100000D01*
X38667435Y-104100000D01*
X38995872Y-104034670D01*
X39215001Y-103943904D01*
X39215001Y-119174841D01*
X38435000Y-119954842D01*
X38435000Y-119858665D01*
X38379853Y-119581426D01*
X38271680Y-119320273D01*
X38114637Y-119085241D01*
X37914759Y-118885363D01*
X37679727Y-118728320D01*
X37418574Y-118620147D01*
X37141335Y-118565000D01*
X36858665Y-118565000D01*
X36581426Y-118620147D01*
X36320273Y-118728320D01*
X36085241Y-118885363D01*
X35885363Y-119085241D01*
X35728320Y-119320273D01*
X35620147Y-119581426D01*
X35565000Y-119858665D01*
X35565000Y-120141335D01*
X35620147Y-120418574D01*
X35643908Y-120475937D01*
X33938072Y-122181773D01*
X33938072Y-121700000D01*
X33925812Y-121575518D01*
X33889502Y-121455820D01*
X33830537Y-121345506D01*
X33751185Y-121248815D01*
X33734473Y-121235100D01*
X33914759Y-121114637D01*
X34114637Y-120914759D01*
X34271680Y-120679727D01*
X34379853Y-120418574D01*
X34435000Y-120141335D01*
X34435000Y-119858665D01*
X34379853Y-119581426D01*
X34271680Y-119320273D01*
X34114637Y-119085241D01*
X33914759Y-118885363D01*
X33679727Y-118728320D01*
X33418574Y-118620147D01*
X33141335Y-118565000D01*
X32858665Y-118565000D01*
X32581426Y-118620147D01*
X32320273Y-118728320D01*
X32085241Y-118885363D01*
X31885363Y-119085241D01*
X31728320Y-119320273D01*
X31620147Y-119581426D01*
X31565000Y-119858665D01*
X31565000Y-120141335D01*
X31620147Y-120418574D01*
X31728320Y-120679727D01*
X31885363Y-120914759D01*
X32032532Y-121061928D01*
X31700000Y-121061928D01*
X31575518Y-121074188D01*
X31455820Y-121110498D01*
X31345506Y-121169463D01*
X31248815Y-121248815D01*
X31169463Y-121345506D01*
X31110498Y-121455820D01*
X31074188Y-121575518D01*
X31061928Y-121700000D01*
X31061928Y-123300000D01*
X31074188Y-123424482D01*
X31110498Y-123544180D01*
X31169463Y-123654494D01*
X31248815Y-123751185D01*
X31345506Y-123830537D01*
X31455820Y-123889502D01*
X31575518Y-123925812D01*
X31700000Y-123938072D01*
X33215000Y-123938072D01*
X33215000Y-128871889D01*
X33179727Y-128848320D01*
X32918574Y-128740147D01*
X32641335Y-128685000D01*
X32358665Y-128685000D01*
X32081426Y-128740147D01*
X31820273Y-128848320D01*
X31585241Y-129005363D01*
X31385363Y-129205241D01*
X31228320Y-129440273D01*
X31120147Y-129701426D01*
X31065000Y-129978665D01*
X31065000Y-130261335D01*
X31120147Y-130538574D01*
X31228320Y-130799727D01*
X31385363Y-131034759D01*
X31585241Y-131234637D01*
X31820273Y-131391680D01*
X32081426Y-131499853D01*
X32358665Y-131555000D01*
X32641335Y-131555000D01*
X32918574Y-131499853D01*
X33179727Y-131391680D01*
X33215001Y-131368111D01*
X33215001Y-135561928D01*
X33200000Y-135561928D01*
X33075518Y-135574188D01*
X32955820Y-135610498D01*
X32845506Y-135669463D01*
X32748815Y-135748815D01*
X32738193Y-135761758D01*
X32486004Y-135642429D01*
X32211816Y-135573700D01*
X31929488Y-135559783D01*
X31649870Y-135601213D01*
X31383708Y-135696397D01*
X31258486Y-135763329D01*
X31186903Y-136007298D01*
X32000000Y-136820395D01*
X32014143Y-136806253D01*
X32193748Y-136985858D01*
X32179605Y-137000000D01*
X32193748Y-137014143D01*
X32014143Y-137193748D01*
X32000000Y-137179605D01*
X31186903Y-137992702D01*
X31258486Y-138236671D01*
X31513996Y-138357571D01*
X31788184Y-138426300D01*
X32070512Y-138440217D01*
X32350130Y-138398787D01*
X32616292Y-138303603D01*
X32738309Y-138238384D01*
X32748815Y-138251185D01*
X32845506Y-138330537D01*
X32955820Y-138389502D01*
X33075518Y-138425812D01*
X33200000Y-138438072D01*
X34800000Y-138438072D01*
X34924482Y-138425812D01*
X35044180Y-138389502D01*
X35154494Y-138330537D01*
X35251185Y-138251185D01*
X35330537Y-138154494D01*
X35389502Y-138044180D01*
X35425812Y-137924482D01*
X35438072Y-137800000D01*
X35438072Y-136200000D01*
X35425812Y-136075518D01*
X35389502Y-135955820D01*
X35330537Y-135845506D01*
X35251185Y-135748815D01*
X35154494Y-135669463D01*
X35044180Y-135610498D01*
X34924482Y-135574188D01*
X34800000Y-135561928D01*
X34785000Y-135561928D01*
X34785000Y-134300000D01*
X35561928Y-134300000D01*
X35574188Y-134424482D01*
X35610498Y-134544180D01*
X35669463Y-134654494D01*
X35748815Y-134751185D01*
X35845506Y-134830537D01*
X35955820Y-134889502D01*
X36075518Y-134925812D01*
X36200000Y-134938072D01*
X36714250Y-134935000D01*
X36873000Y-134776250D01*
X36873000Y-133627000D01*
X37127000Y-133627000D01*
X37127000Y-134776250D01*
X37285750Y-134935000D01*
X37800000Y-134938072D01*
X37924482Y-134925812D01*
X38044180Y-134889502D01*
X38154494Y-134830537D01*
X38251185Y-134751185D01*
X38330537Y-134654494D01*
X38389502Y-134544180D01*
X38425812Y-134424482D01*
X38438072Y-134300000D01*
X38435000Y-133785750D01*
X38276250Y-133627000D01*
X37127000Y-133627000D01*
X36873000Y-133627000D01*
X35723750Y-133627000D01*
X35565000Y-133785750D01*
X35561928Y-134300000D01*
X34785000Y-134300000D01*
X34785000Y-128992702D01*
X35686903Y-128992702D01*
X35758486Y-129236671D01*
X36013996Y-129357571D01*
X36288184Y-129426300D01*
X36570512Y-129440217D01*
X36850130Y-129398787D01*
X37116292Y-129303603D01*
X37241514Y-129236671D01*
X37313097Y-128992702D01*
X36500000Y-128179605D01*
X35686903Y-128992702D01*
X34785000Y-128992702D01*
X34785000Y-128070512D01*
X35059783Y-128070512D01*
X35101213Y-128350130D01*
X35196397Y-128616292D01*
X35263329Y-128741514D01*
X35507298Y-128813097D01*
X36320395Y-128000000D01*
X36679605Y-128000000D01*
X37492702Y-128813097D01*
X37736671Y-128741514D01*
X37857571Y-128486004D01*
X37926300Y-128211816D01*
X37940217Y-127929488D01*
X37898787Y-127649870D01*
X37803603Y-127383708D01*
X37736671Y-127258486D01*
X37492702Y-127186903D01*
X36679605Y-128000000D01*
X36320395Y-128000000D01*
X35507298Y-127186903D01*
X35263329Y-127258486D01*
X35142429Y-127513996D01*
X35073700Y-127788184D01*
X35059783Y-128070512D01*
X34785000Y-128070512D01*
X34785000Y-127007298D01*
X35686903Y-127007298D01*
X36500000Y-127820395D01*
X37313097Y-127007298D01*
X37241514Y-126763329D01*
X36986004Y-126642429D01*
X36711816Y-126573700D01*
X36429488Y-126559783D01*
X36149870Y-126601213D01*
X35883708Y-126696397D01*
X35758486Y-126763329D01*
X35686903Y-127007298D01*
X34785000Y-127007298D01*
X34785000Y-123555159D01*
X35087203Y-123252956D01*
X35120147Y-123418574D01*
X35228320Y-123679727D01*
X35385363Y-123914759D01*
X35585241Y-124114637D01*
X35820273Y-124271680D01*
X36081426Y-124379853D01*
X36358665Y-124435000D01*
X36641335Y-124435000D01*
X36794397Y-124404554D01*
X39565000Y-127175157D01*
X39564999Y-131391446D01*
X39561202Y-131429999D01*
X39564999Y-131468552D01*
X39564999Y-131468559D01*
X39576358Y-131583885D01*
X39621245Y-131731858D01*
X39694137Y-131868231D01*
X39792235Y-131987763D01*
X39822189Y-132012346D01*
X40095446Y-132285604D01*
X40065000Y-132438665D01*
X40065000Y-132574843D01*
X38462347Y-130972190D01*
X38437764Y-130942236D01*
X38318233Y-130844138D01*
X38270622Y-130818690D01*
X38114637Y-130585241D01*
X37914759Y-130385363D01*
X37679727Y-130228320D01*
X37418574Y-130120147D01*
X37141335Y-130065000D01*
X36858665Y-130065000D01*
X36581426Y-130120147D01*
X36320273Y-130228320D01*
X36085241Y-130385363D01*
X35885363Y-130585241D01*
X35728320Y-130820273D01*
X35620147Y-131081426D01*
X35565000Y-131358665D01*
X35565000Y-131641335D01*
X35620147Y-131918574D01*
X35728320Y-132179727D01*
X35765393Y-132235210D01*
X35748815Y-132248815D01*
X35669463Y-132345506D01*
X35610498Y-132455820D01*
X35574188Y-132575518D01*
X35561928Y-132700000D01*
X35565000Y-133214250D01*
X35723750Y-133373000D01*
X36873000Y-133373000D01*
X36873000Y-133353000D01*
X37127000Y-133353000D01*
X37127000Y-133373000D01*
X38276250Y-133373000D01*
X38435000Y-133214250D01*
X38435292Y-133165449D01*
X40095446Y-134825604D01*
X40065000Y-134978665D01*
X40065000Y-135261335D01*
X40120147Y-135538574D01*
X40228320Y-135799727D01*
X40385363Y-136034759D01*
X40585241Y-136234637D01*
X40820273Y-136391680D01*
X41081426Y-136499853D01*
X41358665Y-136555000D01*
X41641335Y-136555000D01*
X41918574Y-136499853D01*
X42179727Y-136391680D01*
X42414759Y-136234637D01*
X42614637Y-136034759D01*
X42771680Y-135799727D01*
X42879853Y-135538574D01*
X42935000Y-135261335D01*
X42935000Y-134978665D01*
X42879853Y-134701426D01*
X42771680Y-134440273D01*
X42614637Y-134205241D01*
X42414759Y-134005363D01*
X42182241Y-133850000D01*
X42414759Y-133694637D01*
X42614637Y-133494759D01*
X42771680Y-133259727D01*
X42879853Y-132998574D01*
X42935000Y-132721335D01*
X42935000Y-132438665D01*
X42879853Y-132161426D01*
X42771680Y-131900273D01*
X42614637Y-131665241D01*
X42414759Y-131465363D01*
X42182241Y-131310000D01*
X42414759Y-131154637D01*
X42614637Y-130954759D01*
X42771680Y-130719727D01*
X42879853Y-130458574D01*
X42935000Y-130181335D01*
X42935000Y-129898665D01*
X42904554Y-129745603D01*
X43977811Y-128672346D01*
X44007765Y-128647763D01*
X44105863Y-128528232D01*
X44178755Y-128391859D01*
X44223643Y-128243886D01*
X44231021Y-128168973D01*
X44235001Y-128128560D01*
X44235001Y-128128555D01*
X44238798Y-128089999D01*
X44235001Y-128051443D01*
X44235001Y-120923194D01*
X44504128Y-121034670D01*
X44832565Y-121100000D01*
X45167435Y-121100000D01*
X45495872Y-121034670D01*
X45805252Y-120906521D01*
X46083687Y-120720477D01*
X46320477Y-120483687D01*
X46506521Y-120205252D01*
X46634670Y-119895872D01*
X46700000Y-119567435D01*
X46700000Y-119232565D01*
X46634670Y-118904128D01*
X46506521Y-118594748D01*
X46320477Y-118316313D01*
X46083687Y-118079523D01*
X45805252Y-117893479D01*
X45495872Y-117765330D01*
X45167435Y-117700000D01*
X44832565Y-117700000D01*
X44504128Y-117765330D01*
X44235001Y-117876806D01*
X44235001Y-114055001D01*
X47181202Y-114055001D01*
X47184999Y-114093554D01*
X47185000Y-133931436D01*
X47181202Y-133969999D01*
X47196358Y-134123885D01*
X47241245Y-134271858D01*
X47241246Y-134271859D01*
X47314138Y-134408232D01*
X47340434Y-134440273D01*
X47387654Y-134497811D01*
X47387658Y-134497815D01*
X47412236Y-134527763D01*
X47442184Y-134552341D01*
X47715446Y-134825604D01*
X47685000Y-134978665D01*
X47685000Y-135261335D01*
X47740147Y-135538574D01*
X47848320Y-135799727D01*
X48005363Y-136034759D01*
X48205241Y-136234637D01*
X48440273Y-136391680D01*
X48701426Y-136499853D01*
X48978665Y-136555000D01*
X49261335Y-136555000D01*
X49538574Y-136499853D01*
X49799727Y-136391680D01*
X50034759Y-136234637D01*
X50234637Y-136034759D01*
X50391680Y-135799727D01*
X50499853Y-135538574D01*
X50555000Y-135261335D01*
X50555000Y-134978665D01*
X50499853Y-134701426D01*
X50391680Y-134440273D01*
X50234637Y-134205241D01*
X50034759Y-134005363D01*
X49802241Y-133850000D01*
X50034759Y-133694637D01*
X50234637Y-133494759D01*
X50391680Y-133259727D01*
X50499853Y-132998574D01*
X50555000Y-132721335D01*
X50555000Y-132438665D01*
X50499853Y-132161426D01*
X50391680Y-131900273D01*
X50234637Y-131665241D01*
X50034759Y-131465363D01*
X49802241Y-131310000D01*
X50034759Y-131154637D01*
X50234637Y-130954759D01*
X50391680Y-130719727D01*
X50499853Y-130458574D01*
X50555000Y-130181335D01*
X50555000Y-130045158D01*
X52015000Y-131505158D01*
X52014999Y-136761446D01*
X52011202Y-136799999D01*
X52014999Y-136838552D01*
X52014999Y-136838559D01*
X52026358Y-136953885D01*
X52071245Y-137101858D01*
X52144137Y-137238231D01*
X52242235Y-137357763D01*
X52272189Y-137382346D01*
X52511928Y-137622085D01*
X52511928Y-138850000D01*
X52524188Y-138974482D01*
X52560498Y-139094180D01*
X52619463Y-139204494D01*
X52698815Y-139301185D01*
X52795506Y-139380537D01*
X52905820Y-139439502D01*
X53025518Y-139475812D01*
X53150000Y-139488072D01*
X54850000Y-139488072D01*
X54974482Y-139475812D01*
X55094180Y-139439502D01*
X55204494Y-139380537D01*
X55301185Y-139301185D01*
X55380537Y-139204494D01*
X55439502Y-139094180D01*
X55461513Y-139021620D01*
X55593368Y-139153475D01*
X55836589Y-139315990D01*
X56106842Y-139427932D01*
X56393740Y-139485000D01*
X56686260Y-139485000D01*
X56973158Y-139427932D01*
X57243411Y-139315990D01*
X57486632Y-139153475D01*
X57693475Y-138946632D01*
X57855990Y-138703411D01*
X57967932Y-138433158D01*
X58025000Y-138146260D01*
X58025000Y-137853740D01*
X57967932Y-137566842D01*
X57855990Y-137296589D01*
X57693475Y-137053368D01*
X57486632Y-136846525D01*
X57304466Y-136724805D01*
X57421355Y-136655178D01*
X57637588Y-136460269D01*
X57811641Y-136226920D01*
X57936825Y-135964099D01*
X57981476Y-135816890D01*
X57860155Y-135587000D01*
X56667000Y-135587000D01*
X56667000Y-135607000D01*
X56413000Y-135607000D01*
X56413000Y-135587000D01*
X54127000Y-135587000D01*
X54127000Y-135607000D01*
X53873000Y-135607000D01*
X53873000Y-135587000D01*
X53853000Y-135587000D01*
X53853000Y-135333000D01*
X53873000Y-135333000D01*
X53873000Y-133047000D01*
X54127000Y-133047000D01*
X54127000Y-135333000D01*
X56413000Y-135333000D01*
X56413000Y-133047000D01*
X56667000Y-133047000D01*
X56667000Y-135333000D01*
X57860155Y-135333000D01*
X57981476Y-135103110D01*
X57936825Y-134955901D01*
X57811641Y-134693080D01*
X57637588Y-134459731D01*
X57421355Y-134264822D01*
X57295745Y-134190000D01*
X57421355Y-134115178D01*
X57637588Y-133920269D01*
X57811641Y-133686920D01*
X57936825Y-133424099D01*
X57981476Y-133276890D01*
X57860155Y-133047000D01*
X56667000Y-133047000D01*
X56413000Y-133047000D01*
X54127000Y-133047000D01*
X53873000Y-133047000D01*
X53853000Y-133047000D01*
X53853000Y-132793000D01*
X53873000Y-132793000D01*
X53873000Y-130507000D01*
X54127000Y-130507000D01*
X54127000Y-132793000D01*
X56413000Y-132793000D01*
X56413000Y-130507000D01*
X56667000Y-130507000D01*
X56667000Y-132793000D01*
X57860155Y-132793000D01*
X57981476Y-132563110D01*
X57936825Y-132415901D01*
X57811641Y-132153080D01*
X57637588Y-131919731D01*
X57421355Y-131724822D01*
X57295745Y-131650000D01*
X57421355Y-131575178D01*
X57637588Y-131380269D01*
X57811641Y-131146920D01*
X57936825Y-130884099D01*
X57981476Y-130736890D01*
X57860155Y-130507000D01*
X56667000Y-130507000D01*
X56413000Y-130507000D01*
X54127000Y-130507000D01*
X53873000Y-130507000D01*
X53853000Y-130507000D01*
X53853000Y-130253000D01*
X53873000Y-130253000D01*
X53873000Y-130233000D01*
X54127000Y-130233000D01*
X54127000Y-130253000D01*
X56413000Y-130253000D01*
X56413000Y-130233000D01*
X56667000Y-130233000D01*
X56667000Y-130253000D01*
X57860155Y-130253000D01*
X57981476Y-130023110D01*
X57936825Y-129875901D01*
X57811641Y-129613080D01*
X57637588Y-129379731D01*
X57421355Y-129184822D01*
X57304466Y-129115195D01*
X57486632Y-128993475D01*
X57693475Y-128786632D01*
X57855990Y-128543411D01*
X57967932Y-128273158D01*
X58025000Y-127986260D01*
X58025000Y-127693740D01*
X57967932Y-127406842D01*
X57855990Y-127136589D01*
X57693475Y-126893368D01*
X57486632Y-126686525D01*
X57243411Y-126524010D01*
X56973158Y-126412068D01*
X56686260Y-126355000D01*
X56393740Y-126355000D01*
X56106842Y-126412068D01*
X55836589Y-126524010D01*
X55593368Y-126686525D01*
X55386525Y-126893368D01*
X55270000Y-127067760D01*
X55153475Y-126893368D01*
X54946632Y-126686525D01*
X54703411Y-126524010D01*
X54433158Y-126412068D01*
X54146260Y-126355000D01*
X53853740Y-126355000D01*
X53566842Y-126412068D01*
X53296589Y-126524010D01*
X53053368Y-126686525D01*
X52846525Y-126893368D01*
X52684010Y-127136589D01*
X52572068Y-127406842D01*
X52515000Y-127693740D01*
X52515000Y-127986260D01*
X52572068Y-128273158D01*
X52684010Y-128543411D01*
X52846525Y-128786632D01*
X53053368Y-128993475D01*
X53235534Y-129115195D01*
X53118645Y-129184822D01*
X52902412Y-129379731D01*
X52728359Y-129613080D01*
X52604105Y-129873948D01*
X50524554Y-127794397D01*
X50555000Y-127641335D01*
X50555000Y-127358665D01*
X50499853Y-127081426D01*
X50391680Y-126820273D01*
X50234637Y-126585241D01*
X50034759Y-126385363D01*
X49799727Y-126228320D01*
X49538574Y-126120147D01*
X49261335Y-126065000D01*
X48978665Y-126065000D01*
X48754999Y-126109491D01*
X48754999Y-122858665D01*
X53565000Y-122858665D01*
X53565000Y-123141335D01*
X53620147Y-123418574D01*
X53728320Y-123679727D01*
X53885363Y-123914759D01*
X54085241Y-124114637D01*
X54320273Y-124271680D01*
X54581426Y-124379853D01*
X54858665Y-124435000D01*
X55141335Y-124435000D01*
X55418574Y-124379853D01*
X55679727Y-124271680D01*
X55914759Y-124114637D01*
X56114637Y-123914759D01*
X56271680Y-123679727D01*
X56379853Y-123418574D01*
X56435000Y-123141335D01*
X56435000Y-122858665D01*
X56379853Y-122581426D01*
X56271680Y-122320273D01*
X56114637Y-122085241D01*
X55914759Y-121885363D01*
X55679727Y-121728320D01*
X55418574Y-121620147D01*
X55141335Y-121565000D01*
X54858665Y-121565000D01*
X54581426Y-121620147D01*
X54320273Y-121728320D01*
X54085241Y-121885363D01*
X53885363Y-122085241D01*
X53728320Y-122320273D01*
X53620147Y-122581426D01*
X53565000Y-122858665D01*
X48754999Y-122858665D01*
X48754999Y-116848816D01*
X50925000Y-116848816D01*
X50925000Y-117151184D01*
X50983989Y-117447743D01*
X51099701Y-117727095D01*
X51267688Y-117978505D01*
X51481495Y-118192312D01*
X51732905Y-118360299D01*
X52012257Y-118476011D01*
X52308816Y-118535000D01*
X52611184Y-118535000D01*
X52907743Y-118476011D01*
X53187095Y-118360299D01*
X53438505Y-118192312D01*
X53504944Y-118125873D01*
X53510498Y-118144180D01*
X53569463Y-118254494D01*
X53648815Y-118351185D01*
X53745506Y-118430537D01*
X53855820Y-118489502D01*
X53975518Y-118525812D01*
X54100000Y-118538072D01*
X55900000Y-118538072D01*
X56024482Y-118525812D01*
X56144180Y-118489502D01*
X56254494Y-118430537D01*
X56351185Y-118351185D01*
X56430537Y-118254494D01*
X56489502Y-118144180D01*
X56525812Y-118024482D01*
X56538072Y-117900000D01*
X56538072Y-116100000D01*
X56525812Y-115975518D01*
X56489502Y-115855820D01*
X56430537Y-115745506D01*
X56351185Y-115648815D01*
X56254494Y-115569463D01*
X56144180Y-115510498D01*
X56024482Y-115474188D01*
X55900000Y-115461928D01*
X54100000Y-115461928D01*
X53975518Y-115474188D01*
X53855820Y-115510498D01*
X53745506Y-115569463D01*
X53648815Y-115648815D01*
X53569463Y-115745506D01*
X53510498Y-115855820D01*
X53504944Y-115874127D01*
X53438505Y-115807688D01*
X53187095Y-115639701D01*
X52907743Y-115523989D01*
X52611184Y-115465000D01*
X52308816Y-115465000D01*
X52012257Y-115523989D01*
X51732905Y-115639701D01*
X51481495Y-115807688D01*
X51267688Y-116021495D01*
X51099701Y-116272905D01*
X50983989Y-116552257D01*
X50925000Y-116848816D01*
X48754999Y-116848816D01*
X48754999Y-114380158D01*
X51773125Y-111362033D01*
X51888589Y-111385000D01*
X52161411Y-111385000D01*
X52428989Y-111331775D01*
X52681043Y-111227371D01*
X52907886Y-111075799D01*
X53100799Y-110882886D01*
X53252371Y-110656043D01*
X53356775Y-110403989D01*
X53410000Y-110136411D01*
X53410000Y-109863589D01*
X54040000Y-109863589D01*
X54040000Y-110136411D01*
X54093225Y-110403989D01*
X54197629Y-110656043D01*
X54349201Y-110882886D01*
X54542114Y-111075799D01*
X54768957Y-111227371D01*
X55021011Y-111331775D01*
X55288589Y-111385000D01*
X55561411Y-111385000D01*
X55828989Y-111331775D01*
X56081043Y-111227371D01*
X56307886Y-111075799D01*
X56500799Y-110882886D01*
X56652371Y-110656043D01*
X56756775Y-110403989D01*
X56810000Y-110136411D01*
X56810000Y-109863589D01*
X56756775Y-109596011D01*
X56652371Y-109343957D01*
X56500799Y-109117114D01*
X56307886Y-108924201D01*
X56081043Y-108772629D01*
X55828989Y-108668225D01*
X55561411Y-108615000D01*
X55288589Y-108615000D01*
X55021011Y-108668225D01*
X54768957Y-108772629D01*
X54542114Y-108924201D01*
X54349201Y-109117114D01*
X54197629Y-109343957D01*
X54093225Y-109596011D01*
X54040000Y-109863589D01*
X53410000Y-109863589D01*
X53356775Y-109596011D01*
X53252371Y-109343957D01*
X53100799Y-109117114D01*
X52907886Y-108924201D01*
X52681043Y-108772629D01*
X52428989Y-108668225D01*
X52161411Y-108615000D01*
X51888589Y-108615000D01*
X51621011Y-108668225D01*
X51368957Y-108772629D01*
X51142114Y-108924201D01*
X50949201Y-109117114D01*
X50797629Y-109343957D01*
X50693225Y-109596011D01*
X50640000Y-109863589D01*
X50640000Y-110136411D01*
X50662967Y-110251875D01*
X47442189Y-113472654D01*
X47412235Y-113497237D01*
X47314137Y-113616769D01*
X47241245Y-113753142D01*
X47196358Y-113901115D01*
X47184999Y-114016441D01*
X47184999Y-114016448D01*
X47181202Y-114055001D01*
X44235001Y-114055001D01*
X44235001Y-112623194D01*
X44504128Y-112734670D01*
X44832565Y-112800000D01*
X45167435Y-112800000D01*
X45495872Y-112734670D01*
X45805252Y-112606521D01*
X46083687Y-112420477D01*
X46320477Y-112183687D01*
X46506521Y-111905252D01*
X46634670Y-111595872D01*
X46700000Y-111267435D01*
X46700000Y-110932565D01*
X46634670Y-110604128D01*
X46506521Y-110294748D01*
X46320477Y-110016313D01*
X46083687Y-109779523D01*
X45805252Y-109593479D01*
X45707701Y-109553072D01*
X45965000Y-109553072D01*
X46089482Y-109540812D01*
X46209180Y-109504502D01*
X46319494Y-109445537D01*
X46416185Y-109366185D01*
X46495537Y-109269494D01*
X46554502Y-109159180D01*
X46590812Y-109039482D01*
X46603072Y-108915000D01*
X46603072Y-107085000D01*
X46590812Y-106960518D01*
X46554502Y-106840820D01*
X46495537Y-106730506D01*
X46416185Y-106633815D01*
X46319494Y-106554463D01*
X46209180Y-106495498D01*
X46089482Y-106459188D01*
X45965000Y-106446928D01*
X44235001Y-106446928D01*
X44235001Y-89488553D01*
X44238798Y-89450000D01*
X44235001Y-89411447D01*
X44235001Y-89411440D01*
X44223642Y-89296114D01*
X44178755Y-89148141D01*
X44105863Y-89011768D01*
X44007765Y-88892237D01*
X43977818Y-88867660D01*
X42785000Y-87674843D01*
X42785000Y-83764555D01*
X42885363Y-83914759D01*
X43085241Y-84114637D01*
X43320273Y-84271680D01*
X43581426Y-84379853D01*
X43858665Y-84435000D01*
X44141335Y-84435000D01*
X44418574Y-84379853D01*
X44679727Y-84271680D01*
X44914759Y-84114637D01*
X45114637Y-83914759D01*
X45215000Y-83764554D01*
X45215001Y-96861437D01*
X45211203Y-96900000D01*
X45226359Y-97053886D01*
X45271246Y-97201859D01*
X45271247Y-97201860D01*
X45344139Y-97338233D01*
X45384690Y-97387644D01*
X45417655Y-97427812D01*
X45417659Y-97427816D01*
X45442237Y-97457764D01*
X45472185Y-97482342D01*
X49873719Y-101883876D01*
X49865330Y-101904128D01*
X49800000Y-102232565D01*
X49800000Y-102567435D01*
X49865330Y-102895872D01*
X49993479Y-103205252D01*
X50179523Y-103483687D01*
X50416313Y-103720477D01*
X50694748Y-103906521D01*
X51004128Y-104034670D01*
X51332565Y-104100000D01*
X51667435Y-104100000D01*
X51995872Y-104034670D01*
X52305252Y-103906521D01*
X52583687Y-103720477D01*
X52820477Y-103483687D01*
X53006521Y-103205252D01*
X53134670Y-102895872D01*
X53200000Y-102567435D01*
X53200000Y-102232565D01*
X53134670Y-101904128D01*
X53006521Y-101594748D01*
X52820477Y-101316313D01*
X52583687Y-101079523D01*
X52305252Y-100893479D01*
X51995872Y-100765330D01*
X51667435Y-100700000D01*
X51332565Y-100700000D01*
X51004128Y-100765330D01*
X50983876Y-100773719D01*
X46785000Y-96574843D01*
X46785000Y-93932565D01*
X49800000Y-93932565D01*
X49800000Y-94267435D01*
X49865330Y-94595872D01*
X49993479Y-94905252D01*
X50179523Y-95183687D01*
X50416313Y-95420477D01*
X50694748Y-95606521D01*
X51004128Y-95734670D01*
X51332565Y-95800000D01*
X51667435Y-95800000D01*
X51995872Y-95734670D01*
X52305252Y-95606521D01*
X52583687Y-95420477D01*
X52820477Y-95183687D01*
X53006521Y-94905252D01*
X53134670Y-94595872D01*
X53200000Y-94267435D01*
X53200000Y-93932565D01*
X53134670Y-93604128D01*
X53006521Y-93294748D01*
X52820477Y-93016313D01*
X52583687Y-92779523D01*
X52305252Y-92593479D01*
X52204860Y-92551895D01*
X52465000Y-92553072D01*
X52589482Y-92540812D01*
X52709180Y-92504502D01*
X52819494Y-92445537D01*
X52916185Y-92366185D01*
X52995537Y-92269494D01*
X53054502Y-92159180D01*
X53090812Y-92039482D01*
X53103072Y-91915000D01*
X53100000Y-91285750D01*
X52941250Y-91127000D01*
X51627000Y-91127000D01*
X51627000Y-91147000D01*
X51373000Y-91147000D01*
X51373000Y-91127000D01*
X50058750Y-91127000D01*
X49900000Y-91285750D01*
X49896928Y-91915000D01*
X49909188Y-92039482D01*
X49945498Y-92159180D01*
X50004463Y-92269494D01*
X50083815Y-92366185D01*
X50180506Y-92445537D01*
X50290820Y-92504502D01*
X50410518Y-92540812D01*
X50535000Y-92553072D01*
X50795140Y-92551895D01*
X50694748Y-92593479D01*
X50416313Y-92779523D01*
X50179523Y-93016313D01*
X49993479Y-93294748D01*
X49865330Y-93604128D01*
X49800000Y-93932565D01*
X46785000Y-93932565D01*
X46785000Y-90085000D01*
X49896928Y-90085000D01*
X49900000Y-90714250D01*
X50058750Y-90873000D01*
X51373000Y-90873000D01*
X51373000Y-89608750D01*
X51627000Y-89608750D01*
X51627000Y-90873000D01*
X52941250Y-90873000D01*
X53100000Y-90714250D01*
X53103072Y-90085000D01*
X53090812Y-89960518D01*
X53054502Y-89840820D01*
X52995537Y-89730506D01*
X52916185Y-89633815D01*
X52819494Y-89554463D01*
X52709180Y-89495498D01*
X52589482Y-89459188D01*
X52465000Y-89446928D01*
X51785750Y-89450000D01*
X51627000Y-89608750D01*
X51373000Y-89608750D01*
X51214250Y-89450000D01*
X50535000Y-89446928D01*
X50410518Y-89459188D01*
X50290820Y-89495498D01*
X50180506Y-89554463D01*
X50083815Y-89633815D01*
X50004463Y-89730506D01*
X49945498Y-89840820D01*
X49909188Y-89960518D01*
X49896928Y-90085000D01*
X46785000Y-90085000D01*
X46785000Y-88098094D01*
X46844869Y-88152385D01*
X47086119Y-88297070D01*
X47350960Y-88391909D01*
X47573000Y-88270624D01*
X47573000Y-87127000D01*
X47827000Y-87127000D01*
X47827000Y-88270624D01*
X48049040Y-88391909D01*
X48313881Y-88297070D01*
X48555131Y-88152385D01*
X48763519Y-87963414D01*
X48931037Y-87737420D01*
X49051246Y-87483087D01*
X49091904Y-87349039D01*
X48969915Y-87127000D01*
X47827000Y-87127000D01*
X47573000Y-87127000D01*
X47553000Y-87127000D01*
X47553000Y-86921269D01*
X52258336Y-86921269D01*
X52317797Y-87155037D01*
X52556242Y-87265934D01*
X52811740Y-87328183D01*
X53074473Y-87339390D01*
X53334344Y-87299125D01*
X53581366Y-87208935D01*
X53682203Y-87155037D01*
X53741664Y-86921269D01*
X53000000Y-86179605D01*
X52258336Y-86921269D01*
X47553000Y-86921269D01*
X47553000Y-86873000D01*
X47573000Y-86873000D01*
X47573000Y-85729376D01*
X47827000Y-85729376D01*
X47827000Y-86873000D01*
X48969915Y-86873000D01*
X49091904Y-86650961D01*
X49051246Y-86516913D01*
X48931037Y-86262580D01*
X48791603Y-86074473D01*
X51660610Y-86074473D01*
X51700875Y-86334344D01*
X51791065Y-86581366D01*
X51844963Y-86682203D01*
X52078731Y-86741664D01*
X52820395Y-86000000D01*
X53179605Y-86000000D01*
X53921269Y-86741664D01*
X54155037Y-86682203D01*
X54265934Y-86443758D01*
X54328183Y-86188260D01*
X54339390Y-85925527D01*
X54299125Y-85665656D01*
X54208935Y-85418634D01*
X54155037Y-85317797D01*
X53921269Y-85258336D01*
X53179605Y-86000000D01*
X52820395Y-86000000D01*
X52078731Y-85258336D01*
X51844963Y-85317797D01*
X51734066Y-85556242D01*
X51671817Y-85811740D01*
X51660610Y-86074473D01*
X48791603Y-86074473D01*
X48763519Y-86036586D01*
X48555131Y-85847615D01*
X48313881Y-85702930D01*
X48049040Y-85608091D01*
X47827000Y-85729376D01*
X47573000Y-85729376D01*
X47350960Y-85608091D01*
X47086119Y-85702930D01*
X46844869Y-85847615D01*
X46785000Y-85901906D01*
X46785000Y-82858665D01*
X47565000Y-82858665D01*
X47565000Y-83141335D01*
X47620147Y-83418574D01*
X47728320Y-83679727D01*
X47885363Y-83914759D01*
X48085241Y-84114637D01*
X48320273Y-84271680D01*
X48581426Y-84379853D01*
X48858665Y-84435000D01*
X49141335Y-84435000D01*
X49418574Y-84379853D01*
X49679727Y-84271680D01*
X49914759Y-84114637D01*
X50114637Y-83914759D01*
X50271680Y-83679727D01*
X50379853Y-83418574D01*
X50389810Y-83368514D01*
X51665000Y-83368514D01*
X51665000Y-83631486D01*
X51716304Y-83889405D01*
X51816939Y-84132359D01*
X51963038Y-84351013D01*
X52148987Y-84536962D01*
X52367641Y-84683061D01*
X52530118Y-84750361D01*
X52418634Y-84791065D01*
X52317797Y-84844963D01*
X52258336Y-85078731D01*
X53000000Y-85820395D01*
X53741664Y-85078731D01*
X53682203Y-84844963D01*
X53474596Y-84748408D01*
X53632359Y-84683061D01*
X53851013Y-84536962D01*
X54036962Y-84351013D01*
X54183061Y-84132359D01*
X54283696Y-83889405D01*
X54335000Y-83631486D01*
X54335000Y-83368514D01*
X54283696Y-83110595D01*
X54183061Y-82867641D01*
X54036962Y-82648987D01*
X53851013Y-82463038D01*
X53632359Y-82316939D01*
X53389405Y-82216304D01*
X53131486Y-82165000D01*
X52868514Y-82165000D01*
X52610595Y-82216304D01*
X52367641Y-82316939D01*
X52148987Y-82463038D01*
X51963038Y-82648987D01*
X51816939Y-82867641D01*
X51716304Y-83110595D01*
X51665000Y-83368514D01*
X50389810Y-83368514D01*
X50435000Y-83141335D01*
X50435000Y-82858665D01*
X50379853Y-82581426D01*
X50271680Y-82320273D01*
X50114637Y-82085241D01*
X49914759Y-81885363D01*
X49679727Y-81728320D01*
X49418574Y-81620147D01*
X49141335Y-81565000D01*
X48858665Y-81565000D01*
X48581426Y-81620147D01*
X48320273Y-81728320D01*
X48085241Y-81885363D01*
X47885363Y-82085241D01*
X47728320Y-82320273D01*
X47620147Y-82581426D01*
X47565000Y-82858665D01*
X46785000Y-82858665D01*
X46785000Y-80944550D01*
X46807688Y-80978505D01*
X47021495Y-81192312D01*
X47272905Y-81360299D01*
X47552257Y-81476011D01*
X47848816Y-81535000D01*
X48151184Y-81535000D01*
X48447743Y-81476011D01*
X48727095Y-81360299D01*
X48978505Y-81192312D01*
X49192312Y-80978505D01*
X49250000Y-80892169D01*
X49307688Y-80978505D01*
X49521495Y-81192312D01*
X49772905Y-81360299D01*
X50052257Y-81476011D01*
X50348816Y-81535000D01*
X50651184Y-81535000D01*
X50947743Y-81476011D01*
X51227095Y-81360299D01*
X51478505Y-81192312D01*
X51692312Y-80978505D01*
X51750000Y-80892169D01*
X51807688Y-80978505D01*
X52021495Y-81192312D01*
X52272905Y-81360299D01*
X52552257Y-81476011D01*
X52848816Y-81535000D01*
X53151184Y-81535000D01*
X53447743Y-81476011D01*
X53727095Y-81360299D01*
X53978505Y-81192312D01*
X54192312Y-80978505D01*
X54360299Y-80727095D01*
X54476011Y-80447743D01*
X54535000Y-80151184D01*
X54535000Y-79848816D01*
X54476011Y-79552257D01*
X54360299Y-79272905D01*
X54192312Y-79021495D01*
X53978505Y-78807688D01*
X53727095Y-78639701D01*
X53447743Y-78523989D01*
X53151184Y-78465000D01*
X52848816Y-78465000D01*
X52552257Y-78523989D01*
X52272905Y-78639701D01*
X52021495Y-78807688D01*
X51807688Y-79021495D01*
X51750000Y-79107831D01*
X51692312Y-79021495D01*
X51478505Y-78807688D01*
X51227095Y-78639701D01*
X50947743Y-78523989D01*
X50651184Y-78465000D01*
X50348816Y-78465000D01*
X50052257Y-78523989D01*
X49772905Y-78639701D01*
X49521495Y-78807688D01*
X49307688Y-79021495D01*
X49250000Y-79107831D01*
X49192312Y-79021495D01*
X48978505Y-78807688D01*
X48727095Y-78639701D01*
X48447743Y-78523989D01*
X48151184Y-78465000D01*
X47848816Y-78465000D01*
X47594588Y-78515569D01*
X52362162Y-73747995D01*
X52366261Y-73768601D01*
X52564893Y-74248141D01*
X52853262Y-74679715D01*
X53220285Y-75046738D01*
X53651859Y-75335107D01*
X54131399Y-75533739D01*
X54640475Y-75635000D01*
X55159525Y-75635000D01*
X55668601Y-75533739D01*
X56148141Y-75335107D01*
X56465002Y-75123387D01*
X56465002Y-77711438D01*
X56461204Y-77750001D01*
X56476360Y-77903887D01*
X56521247Y-78051860D01*
X56521248Y-78051861D01*
X56594140Y-78188234D01*
X56612990Y-78211202D01*
X56667656Y-78277813D01*
X56667660Y-78277817D01*
X56692238Y-78307765D01*
X56722186Y-78332343D01*
X57465000Y-79075157D01*
X57465000Y-79101939D01*
X57504774Y-79301898D01*
X57582795Y-79490256D01*
X57696063Y-79659774D01*
X57840226Y-79803937D01*
X58009744Y-79917205D01*
X58198102Y-79995226D01*
X58398061Y-80035000D01*
X58601939Y-80035000D01*
X58801898Y-79995226D01*
X58990256Y-79917205D01*
X59159774Y-79803937D01*
X59303937Y-79659774D01*
X59340001Y-79605800D01*
X59340002Y-140340000D01*
X30660000Y-140340000D01*
X30660000Y-137514515D01*
X30696397Y-137616292D01*
X30763329Y-137741514D01*
X31007298Y-137813097D01*
X31820395Y-137000000D01*
X31007298Y-136186903D01*
X30763329Y-136258486D01*
X30660000Y-136476861D01*
X30660000Y-107158665D01*
X31565000Y-107158665D01*
X31565000Y-107441335D01*
X31620147Y-107718574D01*
X31728320Y-107979727D01*
X31885363Y-108214759D01*
X32085241Y-108414637D01*
X32320273Y-108571680D01*
X32581426Y-108679853D01*
X32858665Y-108735000D01*
X33141335Y-108735000D01*
X33418574Y-108679853D01*
X33679727Y-108571680D01*
X33914759Y-108414637D01*
X34114637Y-108214759D01*
X34271680Y-107979727D01*
X34379853Y-107718574D01*
X34435000Y-107441335D01*
X34435000Y-107158665D01*
X34379853Y-106881426D01*
X34271680Y-106620273D01*
X34114637Y-106385241D01*
X33914759Y-106185363D01*
X33679727Y-106028320D01*
X33418574Y-105920147D01*
X33141335Y-105865000D01*
X32858665Y-105865000D01*
X32581426Y-105920147D01*
X32320273Y-106028320D01*
X32085241Y-106185363D01*
X31885363Y-106385241D01*
X31728320Y-106620273D01*
X31620147Y-106881426D01*
X31565000Y-107158665D01*
X30660000Y-107158665D01*
X30660000Y-100770157D01*
X36080223Y-106190381D01*
X35885363Y-106385241D01*
X35728320Y-106620273D01*
X35620147Y-106881426D01*
X35565000Y-107158665D01*
X35565000Y-107441335D01*
X35620147Y-107718574D01*
X35728320Y-107979727D01*
X35885363Y-108214759D01*
X36085241Y-108414637D01*
X36320273Y-108571680D01*
X36581426Y-108679853D01*
X36858665Y-108735000D01*
X37141335Y-108735000D01*
X37418574Y-108679853D01*
X37679727Y-108571680D01*
X37914759Y-108414637D01*
X38114637Y-108214759D01*
X38271680Y-107979727D01*
X38379853Y-107718574D01*
X38435000Y-107441335D01*
X38435000Y-107158665D01*
X38379853Y-106881426D01*
X38271680Y-106620273D01*
X38114637Y-106385241D01*
X37914759Y-106185363D01*
X37785000Y-106098661D01*
X37785000Y-106038552D01*
X37788797Y-105999999D01*
X37785000Y-105961446D01*
X37785000Y-105961439D01*
X37773641Y-105846113D01*
X37728754Y-105698140D01*
X37655862Y-105561767D01*
X37557764Y-105442236D01*
X37527816Y-105417658D01*
X31734999Y-99624842D01*
X31734999Y-90085000D01*
X36896928Y-90085000D01*
X36900000Y-90714250D01*
X37058750Y-90873000D01*
X38373000Y-90873000D01*
X38373000Y-89608750D01*
X38214250Y-89450000D01*
X37535000Y-89446928D01*
X37410518Y-89459188D01*
X37290820Y-89495498D01*
X37180506Y-89554463D01*
X37083815Y-89633815D01*
X37004463Y-89730506D01*
X36945498Y-89840820D01*
X36909188Y-89960518D01*
X36896928Y-90085000D01*
X31734999Y-90085000D01*
X31734999Y-88808442D01*
X31868514Y-88835000D01*
X32131486Y-88835000D01*
X32389405Y-88783696D01*
X32632359Y-88683061D01*
X32851013Y-88536962D01*
X33036962Y-88351013D01*
X33183061Y-88132359D01*
X33283696Y-87889405D01*
X33335000Y-87631486D01*
X33335000Y-87368514D01*
X33283696Y-87110595D01*
X33183061Y-86867641D01*
X33177064Y-86858665D01*
X33565000Y-86858665D01*
X33565000Y-87141335D01*
X33620147Y-87418574D01*
X33728320Y-87679727D01*
X33885363Y-87914759D01*
X34085241Y-88114637D01*
X34320273Y-88271680D01*
X34581426Y-88379853D01*
X34858665Y-88435000D01*
X35141335Y-88435000D01*
X35418574Y-88379853D01*
X35679727Y-88271680D01*
X35914759Y-88114637D01*
X36114637Y-87914759D01*
X36271680Y-87679727D01*
X36379853Y-87418574D01*
X36435000Y-87141335D01*
X36435000Y-86858665D01*
X36379853Y-86581426D01*
X36271680Y-86320273D01*
X36114637Y-86085241D01*
X35914759Y-85885363D01*
X35679727Y-85728320D01*
X35418574Y-85620147D01*
X35141335Y-85565000D01*
X34858665Y-85565000D01*
X34581426Y-85620147D01*
X34320273Y-85728320D01*
X34085241Y-85885363D01*
X33885363Y-86085241D01*
X33728320Y-86320273D01*
X33620147Y-86581426D01*
X33565000Y-86858665D01*
X33177064Y-86858665D01*
X33036962Y-86648987D01*
X32851013Y-86463038D01*
X32632359Y-86316939D01*
X32470754Y-86250000D01*
X32632359Y-86183061D01*
X32851013Y-86036962D01*
X33036962Y-85851013D01*
X33183061Y-85632359D01*
X33283696Y-85389405D01*
X33335000Y-85131486D01*
X33335000Y-84868514D01*
X33283696Y-84610595D01*
X33183061Y-84367641D01*
X33036962Y-84148987D01*
X32851013Y-83963038D01*
X32632359Y-83816939D01*
X32389405Y-83716304D01*
X32131486Y-83665000D01*
X31868514Y-83665000D01*
X31610595Y-83716304D01*
X31367641Y-83816939D01*
X31148987Y-83963038D01*
X30963038Y-84148987D01*
X30816939Y-84367641D01*
X30716304Y-84610595D01*
X30665000Y-84868514D01*
X30665000Y-85131486D01*
X30680489Y-85209354D01*
X30660000Y-85229843D01*
X30660000Y-82558665D01*
X34565000Y-82558665D01*
X34565000Y-82841335D01*
X34620147Y-83118574D01*
X34728320Y-83379727D01*
X34885363Y-83614759D01*
X35085241Y-83814637D01*
X35320273Y-83971680D01*
X35581426Y-84079853D01*
X35858665Y-84135000D01*
X36141335Y-84135000D01*
X36418574Y-84079853D01*
X36679727Y-83971680D01*
X36914759Y-83814637D01*
X37114637Y-83614759D01*
X37271680Y-83379727D01*
X37379853Y-83118574D01*
X37435000Y-82841335D01*
X37435000Y-82558665D01*
X37379853Y-82281426D01*
X37271680Y-82020273D01*
X37114637Y-81785241D01*
X36914759Y-81585363D01*
X36679727Y-81428320D01*
X36418574Y-81320147D01*
X36141335Y-81265000D01*
X35858665Y-81265000D01*
X35581426Y-81320147D01*
X35320273Y-81428320D01*
X35085241Y-81585363D01*
X34885363Y-81785241D01*
X34728320Y-82020273D01*
X34620147Y-82281426D01*
X34565000Y-82558665D01*
X30660000Y-82558665D01*
X30660000Y-70349040D01*
X34608091Y-70349040D01*
X34702930Y-70613881D01*
X34847615Y-70855131D01*
X35036586Y-71063519D01*
X35262580Y-71231037D01*
X35516913Y-71351246D01*
X35650961Y-71391904D01*
X35873000Y-71269915D01*
X35873000Y-70127000D01*
X36127000Y-70127000D01*
X36127000Y-71269915D01*
X36349039Y-71391904D01*
X36483087Y-71351246D01*
X36737420Y-71231037D01*
X36963414Y-71063519D01*
X37152385Y-70855131D01*
X37297070Y-70613881D01*
X37391909Y-70349040D01*
X37270624Y-70127000D01*
X36127000Y-70127000D01*
X35873000Y-70127000D01*
X34729376Y-70127000D01*
X34608091Y-70349040D01*
X30660000Y-70349040D01*
X30660000Y-69650960D01*
X34608091Y-69650960D01*
X34729376Y-69873000D01*
X35873000Y-69873000D01*
X35873000Y-68730085D01*
X36127000Y-68730085D01*
X36127000Y-69873000D01*
X37270624Y-69873000D01*
X37391909Y-69650960D01*
X37297070Y-69386119D01*
X37152385Y-69144869D01*
X36963414Y-68936481D01*
X36737420Y-68768963D01*
X36483087Y-68648754D01*
X36349039Y-68608096D01*
X36127000Y-68730085D01*
X35873000Y-68730085D01*
X35650961Y-68608096D01*
X35516913Y-68648754D01*
X35262580Y-68768963D01*
X35036586Y-68936481D01*
X34847615Y-69144869D01*
X34702930Y-69386119D01*
X34608091Y-69650960D01*
X30660000Y-69650960D01*
X30660000Y-65858665D01*
X34565000Y-65858665D01*
X34565000Y-66141335D01*
X34620147Y-66418574D01*
X34728320Y-66679727D01*
X34885363Y-66914759D01*
X35085241Y-67114637D01*
X35320273Y-67271680D01*
X35581426Y-67379853D01*
X35858665Y-67435000D01*
X36141335Y-67435000D01*
X36418574Y-67379853D01*
X36679727Y-67271680D01*
X36914759Y-67114637D01*
X37114637Y-66914759D01*
X37271680Y-66679727D01*
X37379853Y-66418574D01*
X37435000Y-66141335D01*
X37435000Y-65858665D01*
X37379853Y-65581426D01*
X37271680Y-65320273D01*
X37114637Y-65085241D01*
X36914759Y-64885363D01*
X36679727Y-64728320D01*
X36418574Y-64620147D01*
X36141335Y-64565000D01*
X35858665Y-64565000D01*
X35581426Y-64620147D01*
X35320273Y-64728320D01*
X35085241Y-64885363D01*
X34885363Y-65085241D01*
X34728320Y-65320273D01*
X34620147Y-65581426D01*
X34565000Y-65858665D01*
X30660000Y-65858665D01*
X30660000Y-62848816D01*
X35465000Y-62848816D01*
X35465000Y-63151184D01*
X35523989Y-63447743D01*
X35639701Y-63727095D01*
X35807688Y-63978505D01*
X36021495Y-64192312D01*
X36272905Y-64360299D01*
X36552257Y-64476011D01*
X36848816Y-64535000D01*
X37151184Y-64535000D01*
X37447743Y-64476011D01*
X37727095Y-64360299D01*
X37978505Y-64192312D01*
X38192312Y-63978505D01*
X38250000Y-63892169D01*
X38307688Y-63978505D01*
X38521495Y-64192312D01*
X38772905Y-64360299D01*
X39052257Y-64476011D01*
X39348816Y-64535000D01*
X39651184Y-64535000D01*
X39947743Y-64476011D01*
X40227095Y-64360299D01*
X40478505Y-64192312D01*
X40692312Y-63978505D01*
X40750000Y-63892169D01*
X40807688Y-63978505D01*
X41021495Y-64192312D01*
X41272905Y-64360299D01*
X41552257Y-64476011D01*
X41848816Y-64535000D01*
X42151184Y-64535000D01*
X42447743Y-64476011D01*
X42727095Y-64360299D01*
X42978505Y-64192312D01*
X43192312Y-63978505D01*
X43360299Y-63727095D01*
X43476011Y-63447743D01*
X43535000Y-63151184D01*
X43535000Y-62848816D01*
X43476011Y-62552257D01*
X43360299Y-62272905D01*
X43192312Y-62021495D01*
X42978505Y-61807688D01*
X42727095Y-61639701D01*
X42447743Y-61523989D01*
X42151184Y-61465000D01*
X41848816Y-61465000D01*
X41552257Y-61523989D01*
X41272905Y-61639701D01*
X41021495Y-61807688D01*
X40807688Y-62021495D01*
X40750000Y-62107831D01*
X40692312Y-62021495D01*
X40478505Y-61807688D01*
X40227095Y-61639701D01*
X39947743Y-61523989D01*
X39651184Y-61465000D01*
X39348816Y-61465000D01*
X39052257Y-61523989D01*
X38772905Y-61639701D01*
X38521495Y-61807688D01*
X38307688Y-62021495D01*
X38250000Y-62107831D01*
X38192312Y-62021495D01*
X37978505Y-61807688D01*
X37727095Y-61639701D01*
X37447743Y-61523989D01*
X37151184Y-61465000D01*
X36848816Y-61465000D01*
X36552257Y-61523989D01*
X36272905Y-61639701D01*
X36021495Y-61807688D01*
X35807688Y-62021495D01*
X35639701Y-62272905D01*
X35523989Y-62552257D01*
X35465000Y-62848816D01*
X30660000Y-62848816D01*
X30660000Y-55740475D01*
X32465000Y-55740475D01*
X32465000Y-56259525D01*
X32566261Y-56768601D01*
X32764893Y-57248141D01*
X33053262Y-57679715D01*
X33420285Y-58046738D01*
X33851859Y-58335107D01*
X34331399Y-58533739D01*
X34840475Y-58635000D01*
X35359525Y-58635000D01*
X35868601Y-58533739D01*
X36348141Y-58335107D01*
X36779715Y-58046738D01*
X37146738Y-57679715D01*
X37435107Y-57248141D01*
X37633739Y-56768601D01*
X37735000Y-56259525D01*
X37735000Y-55740475D01*
X41265000Y-55740475D01*
X41265000Y-56259525D01*
X41366261Y-56768601D01*
X41564893Y-57248141D01*
X41853262Y-57679715D01*
X42220285Y-58046738D01*
X42651859Y-58335107D01*
X43131399Y-58533739D01*
X43640475Y-58635000D01*
X44159525Y-58635000D01*
X44668601Y-58533739D01*
X45148141Y-58335107D01*
X45579715Y-58046738D01*
X45946738Y-57679715D01*
X46235107Y-57248141D01*
X46433739Y-56768601D01*
X46535000Y-56259525D01*
X46535000Y-55740475D01*
X46433739Y-55231399D01*
X46235107Y-54751859D01*
X45946738Y-54320285D01*
X45579715Y-53953262D01*
X45148141Y-53664893D01*
X44668601Y-53466261D01*
X44159525Y-53365000D01*
X43640475Y-53365000D01*
X43131399Y-53466261D01*
X42651859Y-53664893D01*
X42220285Y-53953262D01*
X41853262Y-54320285D01*
X41564893Y-54751859D01*
X41366261Y-55231399D01*
X41265000Y-55740475D01*
X37735000Y-55740475D01*
X37633739Y-55231399D01*
X37435107Y-54751859D01*
X37146738Y-54320285D01*
X36779715Y-53953262D01*
X36348141Y-53664893D01*
X35868601Y-53466261D01*
X35359525Y-53365000D01*
X34840475Y-53365000D01*
X34331399Y-53466261D01*
X33851859Y-53664893D01*
X33420285Y-53953262D01*
X33053262Y-54320285D01*
X32764893Y-54751859D01*
X32566261Y-55231399D01*
X32465000Y-55740475D01*
X30660000Y-55740475D01*
X30660000Y-45858665D01*
X35565000Y-45858665D01*
X35565000Y-46141335D01*
X35620147Y-46418574D01*
X35728320Y-46679727D01*
X35885363Y-46914759D01*
X36085241Y-47114637D01*
X36320273Y-47271680D01*
X36581426Y-47379853D01*
X36858665Y-47435000D01*
X37141335Y-47435000D01*
X37418574Y-47379853D01*
X37679727Y-47271680D01*
X37914759Y-47114637D01*
X38114637Y-46914759D01*
X38271680Y-46679727D01*
X38379853Y-46418574D01*
X38435000Y-46141335D01*
X38435000Y-45858665D01*
X39565000Y-45858665D01*
X39565000Y-46141335D01*
X39620147Y-46418574D01*
X39728320Y-46679727D01*
X39885363Y-46914759D01*
X40085241Y-47114637D01*
X40320273Y-47271680D01*
X40581426Y-47379853D01*
X40858665Y-47435000D01*
X41141335Y-47435000D01*
X41418574Y-47379853D01*
X41679727Y-47271680D01*
X41914759Y-47114637D01*
X41965316Y-47064080D01*
X47115525Y-47064080D01*
X47199208Y-47318261D01*
X47471775Y-47449158D01*
X47764642Y-47524365D01*
X48066553Y-47540991D01*
X48365907Y-47498397D01*
X48651199Y-47398222D01*
X48800792Y-47318261D01*
X48884475Y-47064080D01*
X48000000Y-46179605D01*
X47115525Y-47064080D01*
X41965316Y-47064080D01*
X42114637Y-46914759D01*
X42271680Y-46679727D01*
X42379853Y-46418574D01*
X42435000Y-46141335D01*
X42435000Y-46066553D01*
X46459009Y-46066553D01*
X46501603Y-46365907D01*
X46601778Y-46651199D01*
X46681739Y-46800792D01*
X46935920Y-46884475D01*
X47820395Y-46000000D01*
X46935920Y-45115525D01*
X46681739Y-45199208D01*
X46550842Y-45471775D01*
X46475635Y-45764642D01*
X46459009Y-46066553D01*
X42435000Y-46066553D01*
X42435000Y-45858665D01*
X42379853Y-45581426D01*
X42271680Y-45320273D01*
X42114637Y-45085241D01*
X41965316Y-44935920D01*
X47115525Y-44935920D01*
X48000000Y-45820395D01*
X48884475Y-44935920D01*
X48800792Y-44681739D01*
X48528225Y-44550842D01*
X48235358Y-44475635D01*
X47933447Y-44459009D01*
X47634093Y-44501603D01*
X47348801Y-44601778D01*
X47199208Y-44681739D01*
X47115525Y-44935920D01*
X41965316Y-44935920D01*
X41914759Y-44885363D01*
X41679727Y-44728320D01*
X41418574Y-44620147D01*
X41141335Y-44565000D01*
X40858665Y-44565000D01*
X40581426Y-44620147D01*
X40320273Y-44728320D01*
X40085241Y-44885363D01*
X39885363Y-45085241D01*
X39728320Y-45320273D01*
X39620147Y-45581426D01*
X39565000Y-45858665D01*
X38435000Y-45858665D01*
X38379853Y-45581426D01*
X38271680Y-45320273D01*
X38114637Y-45085241D01*
X37914759Y-44885363D01*
X37679727Y-44728320D01*
X37418574Y-44620147D01*
X37141335Y-44565000D01*
X36858665Y-44565000D01*
X36581426Y-44620147D01*
X36320273Y-44728320D01*
X36085241Y-44885363D01*
X35885363Y-45085241D01*
X35728320Y-45320273D01*
X35620147Y-45581426D01*
X35565000Y-45858665D01*
X30660000Y-45858665D01*
X30660000Y-38740475D01*
X43465000Y-38740475D01*
X43465000Y-39259525D01*
X43566261Y-39768601D01*
X43764893Y-40248141D01*
X44053262Y-40679715D01*
X44420285Y-41046738D01*
X44851859Y-41335107D01*
X45331399Y-41533739D01*
X45840475Y-41635000D01*
X46359525Y-41635000D01*
X46868601Y-41533739D01*
X47348141Y-41335107D01*
X47779715Y-41046738D01*
X48146738Y-40679715D01*
X48435107Y-40248141D01*
X48633739Y-39768601D01*
X48735000Y-39259525D01*
X48735000Y-38740475D01*
X52265000Y-38740475D01*
X52265000Y-39259525D01*
X52366261Y-39768601D01*
X52564893Y-40248141D01*
X52853262Y-40679715D01*
X53220285Y-41046738D01*
X53651859Y-41335107D01*
X54131399Y-41533739D01*
X54640475Y-41635000D01*
X55159525Y-41635000D01*
X55668601Y-41533739D01*
X56148141Y-41335107D01*
X56579715Y-41046738D01*
X56946738Y-40679715D01*
X57235107Y-40248141D01*
X57433739Y-39768601D01*
X57535000Y-39259525D01*
X57535000Y-38740475D01*
X57433739Y-38231399D01*
X57235107Y-37751859D01*
X56946738Y-37320285D01*
X56579715Y-36953262D01*
X56148141Y-36664893D01*
X55668601Y-36466261D01*
X55159525Y-36365000D01*
X54640475Y-36365000D01*
X54131399Y-36466261D01*
X53651859Y-36664893D01*
X53220285Y-36953262D01*
X52853262Y-37320285D01*
X52564893Y-37751859D01*
X52366261Y-38231399D01*
X52265000Y-38740475D01*
X48735000Y-38740475D01*
X48633739Y-38231399D01*
X48435107Y-37751859D01*
X48146738Y-37320285D01*
X47779715Y-36953262D01*
X47348141Y-36664893D01*
X46868601Y-36466261D01*
X46359525Y-36365000D01*
X45840475Y-36365000D01*
X45331399Y-36466261D01*
X44851859Y-36664893D01*
X44420285Y-36953262D01*
X44053262Y-37320285D01*
X43764893Y-37751859D01*
X43566261Y-38231399D01*
X43465000Y-38740475D01*
X30660000Y-38740475D01*
X30660000Y-33649040D01*
X35608091Y-33649040D01*
X35702930Y-33913881D01*
X35847615Y-34155131D01*
X36036586Y-34363519D01*
X36262580Y-34531037D01*
X36516913Y-34651246D01*
X36650961Y-34691904D01*
X36873000Y-34569915D01*
X36873000Y-33427000D01*
X37127000Y-33427000D01*
X37127000Y-34569915D01*
X37349039Y-34691904D01*
X37483087Y-34651246D01*
X37737420Y-34531037D01*
X37963414Y-34363519D01*
X38027632Y-34292702D01*
X40186903Y-34292702D01*
X40258486Y-34536671D01*
X40513996Y-34657571D01*
X40788184Y-34726300D01*
X41070512Y-34740217D01*
X41350130Y-34698787D01*
X41616292Y-34603603D01*
X41741514Y-34536671D01*
X41813097Y-34292702D01*
X41000000Y-33479605D01*
X40186903Y-34292702D01*
X38027632Y-34292702D01*
X38152385Y-34155131D01*
X38297070Y-33913881D01*
X38391909Y-33649040D01*
X38270624Y-33427000D01*
X37127000Y-33427000D01*
X36873000Y-33427000D01*
X35729376Y-33427000D01*
X35608091Y-33649040D01*
X30660000Y-33649040D01*
X30660000Y-33370512D01*
X39559783Y-33370512D01*
X39601213Y-33650130D01*
X39696397Y-33916292D01*
X39763329Y-34041514D01*
X40007298Y-34113097D01*
X40820395Y-33300000D01*
X41179605Y-33300000D01*
X41992702Y-34113097D01*
X42236671Y-34041514D01*
X42357571Y-33786004D01*
X42426300Y-33511816D01*
X42440217Y-33229488D01*
X42398787Y-32949870D01*
X42303603Y-32683708D01*
X42236671Y-32558486D01*
X41992702Y-32486903D01*
X41179605Y-33300000D01*
X40820395Y-33300000D01*
X40007298Y-32486903D01*
X39763329Y-32558486D01*
X39642429Y-32813996D01*
X39573700Y-33088184D01*
X39559783Y-33370512D01*
X30660000Y-33370512D01*
X30660000Y-32950960D01*
X35608091Y-32950960D01*
X35729376Y-33173000D01*
X36873000Y-33173000D01*
X36873000Y-32030085D01*
X37127000Y-32030085D01*
X37127000Y-33173000D01*
X38270624Y-33173000D01*
X38391909Y-32950960D01*
X38297070Y-32686119D01*
X38152385Y-32444869D01*
X38027633Y-32307298D01*
X40186903Y-32307298D01*
X41000000Y-33120395D01*
X41813097Y-32307298D01*
X41741514Y-32063329D01*
X41486004Y-31942429D01*
X41211816Y-31873700D01*
X40929488Y-31859783D01*
X40649870Y-31901213D01*
X40383708Y-31996397D01*
X40258486Y-32063329D01*
X40186903Y-32307298D01*
X38027633Y-32307298D01*
X37963414Y-32236481D01*
X37737420Y-32068963D01*
X37483087Y-31948754D01*
X37349039Y-31908096D01*
X37127000Y-32030085D01*
X36873000Y-32030085D01*
X36650961Y-31908096D01*
X36516913Y-31948754D01*
X36262580Y-32068963D01*
X36036586Y-32236481D01*
X35847615Y-32444869D01*
X35702930Y-32686119D01*
X35608091Y-32950960D01*
X30660000Y-32950960D01*
X30660000Y-31660000D01*
X59340000Y-31660000D01*
X59340001Y-78394200D01*
G37*
G04 #@! TD.AperFunction*
M02*
