G04 #@! TF.GenerationSoftware,KiCad,Pcbnew,(5.1.9)-1*
G04 #@! TF.CreationDate,2021-10-16T13:12:11+02:00*
G04 #@! TF.ProjectId,StupidBox,53747570-6964-4426-9f78-2e6b69636164,rev?*
G04 #@! TF.SameCoordinates,Original*
G04 #@! TF.FileFunction,Legend,Top*
G04 #@! TF.FilePolarity,Positive*
%FSLAX46Y46*%
G04 Gerber Fmt 4.6, Leading zero omitted, Abs format (unit mm)*
G04 Created by KiCad (PCBNEW (5.1.9)-1) date 2021-10-16 13:12:11*
%MOMM*%
%LPD*%
G01*
G04 APERTURE LIST*
%ADD10C,0.120000*%
%ADD11C,0.150000*%
%ADD12C,4.000000*%
%ADD13C,1.800000*%
%ADD14O,1.600000X1.600000*%
%ADD15R,1.600000X1.600000*%
%ADD16C,1.600000*%
%ADD17C,1.500000*%
%ADD18C,2.130000*%
%ADD19R,1.930000X1.830000*%
%ADD20O,1.700000X1.700000*%
%ADD21R,1.700000X1.700000*%
%ADD22R,1.800000X1.800000*%
%ADD23C,1.400000*%
G04 APERTURE END LIST*
D10*
X45479000Y-32880000D02*
X55520000Y-32880000D01*
X53870000Y-45120000D02*
X55520000Y-45120000D01*
X51371000Y-45120000D02*
X52130000Y-45120000D01*
X48871000Y-45120000D02*
X49630000Y-45120000D01*
X45479000Y-45120000D02*
X47129000Y-45120000D01*
X55520000Y-36816000D02*
X55520000Y-32880000D01*
X55520000Y-45120000D02*
X55520000Y-41183000D01*
X45479000Y-36816000D02*
X45479000Y-32880000D01*
X45479000Y-45120000D02*
X45479000Y-41183000D01*
X47960000Y-126170000D02*
X46310000Y-126170000D01*
X47960000Y-136450000D02*
X47960000Y-126170000D01*
X42660000Y-136450000D02*
X47960000Y-136450000D01*
X42660000Y-126170000D02*
X42660000Y-136450000D01*
X44310000Y-126170000D02*
X42660000Y-126170000D01*
X46310000Y-126170000D02*
G75*
G02*
X44310000Y-126170000I-1000000J0D01*
G01*
X45479000Y-66880000D02*
X55520000Y-66880000D01*
X53870000Y-79120000D02*
X55520000Y-79120000D01*
X51371000Y-79120000D02*
X52130000Y-79120000D01*
X48871000Y-79120000D02*
X49630000Y-79120000D01*
X45479000Y-79120000D02*
X47129000Y-79120000D01*
X55520000Y-70816000D02*
X55520000Y-66880000D01*
X55520000Y-79120000D02*
X55520000Y-75183000D01*
X45479000Y-70816000D02*
X45479000Y-66880000D01*
X45479000Y-79120000D02*
X45479000Y-75183000D01*
X56000000Y-52340000D02*
X56000000Y-53030000D01*
X56000000Y-62960000D02*
X56000000Y-62270000D01*
X54280000Y-53030000D02*
X54280000Y-62270000D01*
X57720000Y-53030000D02*
X54280000Y-53030000D01*
X57720000Y-62270000D02*
X57720000Y-53030000D01*
X54280000Y-62270000D02*
X57720000Y-62270000D01*
X41000000Y-44960000D02*
X41000000Y-44270000D01*
X41000000Y-34340000D02*
X41000000Y-35030000D01*
X42720000Y-44270000D02*
X42720000Y-35030000D01*
X39280000Y-44270000D02*
X42720000Y-44270000D01*
X39280000Y-35030000D02*
X39280000Y-44270000D01*
X42720000Y-35030000D02*
X39280000Y-35030000D01*
X43340000Y-123000000D02*
X44030000Y-123000000D01*
X53960000Y-123000000D02*
X53270000Y-123000000D01*
X44030000Y-124720000D02*
X53270000Y-124720000D01*
X44030000Y-121280000D02*
X44030000Y-124720000D01*
X53270000Y-121280000D02*
X44030000Y-121280000D01*
X53270000Y-124720000D02*
X53270000Y-121280000D01*
X55275000Y-112150000D02*
X52225000Y-112150000D01*
X55275000Y-107850000D02*
X52225000Y-107850000D01*
X52180487Y-107881751D02*
G75*
G03*
X52225000Y-112150000I1544513J-2118249D01*
G01*
X55253234Y-112165526D02*
G75*
G03*
X55275000Y-107850000I-1528234J2165526D01*
G01*
X37000000Y-34340000D02*
X37000000Y-35030000D01*
X37000000Y-44960000D02*
X37000000Y-44270000D01*
X35280000Y-35030000D02*
X35280000Y-44270000D01*
X38720000Y-35030000D02*
X35280000Y-35030000D01*
X38720000Y-44270000D02*
X38720000Y-35030000D01*
X35280000Y-44270000D02*
X38720000Y-44270000D01*
X40000000Y-81660000D02*
X40000000Y-80970000D01*
X40000000Y-71040000D02*
X40000000Y-71730000D01*
X41720000Y-80970000D02*
X41720000Y-71730000D01*
X38280000Y-80970000D02*
X41720000Y-80970000D01*
X38280000Y-71730000D02*
X38280000Y-80970000D01*
X41720000Y-71730000D02*
X38280000Y-71730000D01*
X36000000Y-71040000D02*
X36000000Y-71730000D01*
X36000000Y-81660000D02*
X36000000Y-80970000D01*
X34280000Y-71730000D02*
X34280000Y-80970000D01*
X37720000Y-71730000D02*
X34280000Y-71730000D01*
X37720000Y-80970000D02*
X37720000Y-71730000D01*
X34280000Y-80970000D02*
X37720000Y-80970000D01*
X37000000Y-108340000D02*
X37000000Y-109030000D01*
X37000000Y-118960000D02*
X37000000Y-118270000D01*
X35280000Y-109030000D02*
X35280000Y-118270000D01*
X38720000Y-109030000D02*
X35280000Y-109030000D01*
X38720000Y-118270000D02*
X38720000Y-109030000D01*
X35280000Y-118270000D02*
X38720000Y-118270000D01*
X46660000Y-87000000D02*
X45970000Y-87000000D01*
X36040000Y-87000000D02*
X36730000Y-87000000D01*
X45970000Y-85280000D02*
X36730000Y-85280000D01*
X45970000Y-88720000D02*
X45970000Y-85280000D01*
X36730000Y-88720000D02*
X45970000Y-88720000D01*
X36730000Y-85280000D02*
X36730000Y-88720000D01*
X33000000Y-108340000D02*
X33000000Y-109030000D01*
X33000000Y-118960000D02*
X33000000Y-118270000D01*
X31280000Y-109030000D02*
X31280000Y-118270000D01*
X34720000Y-109030000D02*
X31280000Y-109030000D01*
X34720000Y-118270000D02*
X34720000Y-109030000D01*
X31280000Y-118270000D02*
X34720000Y-118270000D01*
X43940000Y-107000000D02*
X44800000Y-107000000D01*
X43940000Y-107000000D02*
X43940000Y-107800000D01*
X46800000Y-114480000D02*
G75*
G03*
X46800000Y-114480000I-1800000J0D01*
G01*
X44650000Y-109980000D02*
X40500000Y-109980000D01*
X49500000Y-109980000D02*
X45350000Y-109980000D01*
X44500000Y-120480000D02*
X40500000Y-120480000D01*
X49500000Y-120480000D02*
X45500000Y-120480000D01*
X49500000Y-109980000D02*
X49500000Y-120480000D01*
X40500000Y-109980000D02*
X40500000Y-120480000D01*
X37440000Y-90000000D02*
X38300000Y-90000000D01*
X37440000Y-90000000D02*
X37440000Y-90800000D01*
X40300000Y-97480000D02*
G75*
G03*
X40300000Y-97480000I-1800000J0D01*
G01*
X38150000Y-92980000D02*
X34000000Y-92980000D01*
X43000000Y-92980000D02*
X38850000Y-92980000D01*
X38000000Y-103480000D02*
X34000000Y-103480000D01*
X43000000Y-103480000D02*
X39000000Y-103480000D01*
X43000000Y-92980000D02*
X43000000Y-103480000D01*
X34000000Y-92980000D02*
X34000000Y-103480000D01*
X50440000Y-90000000D02*
X51300000Y-90000000D01*
X50440000Y-90000000D02*
X50440000Y-90800000D01*
X53300000Y-97480000D02*
G75*
G03*
X53300000Y-97480000I-1800000J0D01*
G01*
X51150000Y-92980000D02*
X47000000Y-92980000D01*
X56000000Y-92980000D02*
X51850000Y-92980000D01*
X51000000Y-103480000D02*
X47000000Y-103480000D01*
X56000000Y-103480000D02*
X52000000Y-103480000D01*
X56000000Y-92980000D02*
X56000000Y-103480000D01*
X47000000Y-92980000D02*
X47000000Y-103480000D01*
X34530000Y-49880000D02*
X44470000Y-49880000D01*
X42870000Y-62120000D02*
X44470000Y-62120000D01*
X40371000Y-62120000D02*
X41130000Y-62120000D01*
X37871000Y-62120000D02*
X38630000Y-62120000D01*
X34530000Y-62120000D02*
X36129000Y-62120000D01*
X44470000Y-53745000D02*
X44470000Y-49880000D01*
X44470000Y-62120000D02*
X44470000Y-58255000D01*
X34530000Y-53745000D02*
X34530000Y-49880000D01*
X34530000Y-62120000D02*
X34530000Y-58255000D01*
X56290000Y-118545000D02*
X56290000Y-115455000D01*
X56230000Y-117000000D02*
G75*
G03*
X56230000Y-117000000I-2500000J0D01*
G01*
X50740000Y-117000462D02*
G75*
G02*
X56290000Y-115455170I2990000J462D01*
G01*
X50740000Y-116999538D02*
G75*
G03*
X56290000Y-118544830I2990000J-462D01*
G01*
X41330000Y-67120000D02*
X41330000Y-64880000D01*
X41090000Y-67120000D02*
X41090000Y-64880000D01*
X41210000Y-67120000D02*
X41210000Y-64880000D01*
X37040000Y-66000000D02*
X37690000Y-66000000D01*
X42580000Y-66000000D02*
X41930000Y-66000000D01*
X37690000Y-67120000D02*
X41930000Y-67120000D01*
X37690000Y-64880000D02*
X37690000Y-67120000D01*
X41930000Y-64880000D02*
X37690000Y-64880000D01*
X41930000Y-67120000D02*
X41930000Y-64880000D01*
X33620000Y-124790000D02*
X31380000Y-124790000D01*
X33620000Y-125030000D02*
X31380000Y-125030000D01*
X33620000Y-124910000D02*
X31380000Y-124910000D01*
X32500000Y-129080000D02*
X32500000Y-128430000D01*
X32500000Y-123540000D02*
X32500000Y-124190000D01*
X33620000Y-128430000D02*
X33620000Y-124190000D01*
X31380000Y-128430000D02*
X33620000Y-128430000D01*
X31380000Y-124190000D02*
X31380000Y-128430000D01*
X33620000Y-124190000D02*
X31380000Y-124190000D01*
X54120000Y-87170000D02*
X51880000Y-87170000D01*
X54120000Y-82330000D02*
X51880000Y-82330000D01*
X51880000Y-82330000D02*
X51880000Y-87170000D01*
X54120000Y-82330000D02*
X54120000Y-87170000D01*
X42880000Y-84370000D02*
X42880000Y-81630000D01*
X50120000Y-84370000D02*
X50120000Y-81630000D01*
X50120000Y-81630000D02*
X42880000Y-81630000D01*
X50120000Y-84370000D02*
X42880000Y-84370000D01*
X47445225Y-61275000D02*
X47445225Y-61775000D01*
X47195225Y-61525000D02*
X47695225Y-61525000D01*
X52601000Y-62716000D02*
X52601000Y-63284000D01*
X52561000Y-62482000D02*
X52561000Y-63518000D01*
X52521000Y-62323000D02*
X52521000Y-63677000D01*
X52481000Y-62195000D02*
X52481000Y-63805000D01*
X52441000Y-62085000D02*
X52441000Y-63915000D01*
X52401000Y-61989000D02*
X52401000Y-64011000D01*
X52361000Y-61902000D02*
X52361000Y-64098000D01*
X52321000Y-61822000D02*
X52321000Y-64178000D01*
X52281000Y-61749000D02*
X52281000Y-64251000D01*
X52241000Y-61681000D02*
X52241000Y-64319000D01*
X52201000Y-61617000D02*
X52201000Y-64383000D01*
X52161000Y-61557000D02*
X52161000Y-64443000D01*
X52121000Y-61500000D02*
X52121000Y-64500000D01*
X52081000Y-61446000D02*
X52081000Y-64554000D01*
X52041000Y-61395000D02*
X52041000Y-64605000D01*
X52001000Y-64040000D02*
X52001000Y-64653000D01*
X52001000Y-61347000D02*
X52001000Y-61960000D01*
X51961000Y-64040000D02*
X51961000Y-64699000D01*
X51961000Y-61301000D02*
X51961000Y-61960000D01*
X51921000Y-64040000D02*
X51921000Y-64743000D01*
X51921000Y-61257000D02*
X51921000Y-61960000D01*
X51881000Y-64040000D02*
X51881000Y-64785000D01*
X51881000Y-61215000D02*
X51881000Y-61960000D01*
X51841000Y-64040000D02*
X51841000Y-64826000D01*
X51841000Y-61174000D02*
X51841000Y-61960000D01*
X51801000Y-64040000D02*
X51801000Y-64864000D01*
X51801000Y-61136000D02*
X51801000Y-61960000D01*
X51761000Y-64040000D02*
X51761000Y-64901000D01*
X51761000Y-61099000D02*
X51761000Y-61960000D01*
X51721000Y-64040000D02*
X51721000Y-64937000D01*
X51721000Y-61063000D02*
X51721000Y-61960000D01*
X51681000Y-64040000D02*
X51681000Y-64971000D01*
X51681000Y-61029000D02*
X51681000Y-61960000D01*
X51641000Y-64040000D02*
X51641000Y-65004000D01*
X51641000Y-60996000D02*
X51641000Y-61960000D01*
X51601000Y-64040000D02*
X51601000Y-65035000D01*
X51601000Y-60965000D02*
X51601000Y-61960000D01*
X51561000Y-64040000D02*
X51561000Y-65065000D01*
X51561000Y-60935000D02*
X51561000Y-61960000D01*
X51521000Y-64040000D02*
X51521000Y-65095000D01*
X51521000Y-60905000D02*
X51521000Y-61960000D01*
X51481000Y-64040000D02*
X51481000Y-65122000D01*
X51481000Y-60878000D02*
X51481000Y-61960000D01*
X51441000Y-64040000D02*
X51441000Y-65149000D01*
X51441000Y-60851000D02*
X51441000Y-61960000D01*
X51401000Y-64040000D02*
X51401000Y-65175000D01*
X51401000Y-60825000D02*
X51401000Y-61960000D01*
X51361000Y-64040000D02*
X51361000Y-65200000D01*
X51361000Y-60800000D02*
X51361000Y-61960000D01*
X51321000Y-64040000D02*
X51321000Y-65224000D01*
X51321000Y-60776000D02*
X51321000Y-61960000D01*
X51281000Y-64040000D02*
X51281000Y-65247000D01*
X51281000Y-60753000D02*
X51281000Y-61960000D01*
X51241000Y-64040000D02*
X51241000Y-65268000D01*
X51241000Y-60732000D02*
X51241000Y-61960000D01*
X51201000Y-64040000D02*
X51201000Y-65290000D01*
X51201000Y-60710000D02*
X51201000Y-61960000D01*
X51161000Y-64040000D02*
X51161000Y-65310000D01*
X51161000Y-60690000D02*
X51161000Y-61960000D01*
X51121000Y-64040000D02*
X51121000Y-65329000D01*
X51121000Y-60671000D02*
X51121000Y-61960000D01*
X51081000Y-64040000D02*
X51081000Y-65348000D01*
X51081000Y-60652000D02*
X51081000Y-61960000D01*
X51041000Y-64040000D02*
X51041000Y-65365000D01*
X51041000Y-60635000D02*
X51041000Y-61960000D01*
X51001000Y-64040000D02*
X51001000Y-65382000D01*
X51001000Y-60618000D02*
X51001000Y-61960000D01*
X50961000Y-64040000D02*
X50961000Y-65398000D01*
X50961000Y-60602000D02*
X50961000Y-61960000D01*
X50921000Y-64040000D02*
X50921000Y-65414000D01*
X50921000Y-60586000D02*
X50921000Y-61960000D01*
X50881000Y-64040000D02*
X50881000Y-65428000D01*
X50881000Y-60572000D02*
X50881000Y-61960000D01*
X50841000Y-64040000D02*
X50841000Y-65442000D01*
X50841000Y-60558000D02*
X50841000Y-61960000D01*
X50801000Y-64040000D02*
X50801000Y-65455000D01*
X50801000Y-60545000D02*
X50801000Y-61960000D01*
X50761000Y-64040000D02*
X50761000Y-65468000D01*
X50761000Y-60532000D02*
X50761000Y-61960000D01*
X50721000Y-64040000D02*
X50721000Y-65480000D01*
X50721000Y-60520000D02*
X50721000Y-61960000D01*
X50680000Y-64040000D02*
X50680000Y-65491000D01*
X50680000Y-60509000D02*
X50680000Y-61960000D01*
X50640000Y-64040000D02*
X50640000Y-65501000D01*
X50640000Y-60499000D02*
X50640000Y-61960000D01*
X50600000Y-64040000D02*
X50600000Y-65511000D01*
X50600000Y-60489000D02*
X50600000Y-61960000D01*
X50560000Y-64040000D02*
X50560000Y-65520000D01*
X50560000Y-60480000D02*
X50560000Y-61960000D01*
X50520000Y-64040000D02*
X50520000Y-65528000D01*
X50520000Y-60472000D02*
X50520000Y-61960000D01*
X50480000Y-64040000D02*
X50480000Y-65536000D01*
X50480000Y-60464000D02*
X50480000Y-61960000D01*
X50440000Y-64040000D02*
X50440000Y-65543000D01*
X50440000Y-60457000D02*
X50440000Y-61960000D01*
X50400000Y-64040000D02*
X50400000Y-65550000D01*
X50400000Y-60450000D02*
X50400000Y-61960000D01*
X50360000Y-64040000D02*
X50360000Y-65556000D01*
X50360000Y-60444000D02*
X50360000Y-61960000D01*
X50320000Y-64040000D02*
X50320000Y-65561000D01*
X50320000Y-60439000D02*
X50320000Y-61960000D01*
X50280000Y-64040000D02*
X50280000Y-65565000D01*
X50280000Y-60435000D02*
X50280000Y-61960000D01*
X50240000Y-64040000D02*
X50240000Y-65569000D01*
X50240000Y-60431000D02*
X50240000Y-61960000D01*
X50200000Y-64040000D02*
X50200000Y-65573000D01*
X50200000Y-60427000D02*
X50200000Y-61960000D01*
X50160000Y-64040000D02*
X50160000Y-65576000D01*
X50160000Y-60424000D02*
X50160000Y-61960000D01*
X50120000Y-64040000D02*
X50120000Y-65578000D01*
X50120000Y-60422000D02*
X50120000Y-61960000D01*
X50080000Y-64040000D02*
X50080000Y-65579000D01*
X50080000Y-60421000D02*
X50080000Y-61960000D01*
X50040000Y-60420000D02*
X50040000Y-61960000D01*
X50040000Y-64040000D02*
X50040000Y-65580000D01*
X50000000Y-60420000D02*
X50000000Y-61960000D01*
X50000000Y-64040000D02*
X50000000Y-65580000D01*
X52620000Y-63000000D02*
G75*
G03*
X52620000Y-63000000I-2620000J0D01*
G01*
X37620000Y-129120000D02*
X35380000Y-129120000D01*
X37620000Y-121880000D02*
X35380000Y-121880000D01*
X35380000Y-121880000D02*
X35380000Y-129120000D01*
X37620000Y-121880000D02*
X37620000Y-129120000D01*
X33120000Y-88670000D02*
X30880000Y-88670000D01*
X33120000Y-83830000D02*
X30880000Y-83830000D01*
X30880000Y-83830000D02*
X30880000Y-88670000D01*
X33120000Y-83830000D02*
X33120000Y-88670000D01*
X35275000Y-135054775D02*
X35775000Y-135054775D01*
X35525000Y-135304775D02*
X35525000Y-134804775D01*
X36716000Y-129899000D02*
X37284000Y-129899000D01*
X36482000Y-129939000D02*
X37518000Y-129939000D01*
X36323000Y-129979000D02*
X37677000Y-129979000D01*
X36195000Y-130019000D02*
X37805000Y-130019000D01*
X36085000Y-130059000D02*
X37915000Y-130059000D01*
X35989000Y-130099000D02*
X38011000Y-130099000D01*
X35902000Y-130139000D02*
X38098000Y-130139000D01*
X35822000Y-130179000D02*
X38178000Y-130179000D01*
X35749000Y-130219000D02*
X38251000Y-130219000D01*
X35681000Y-130259000D02*
X38319000Y-130259000D01*
X35617000Y-130299000D02*
X38383000Y-130299000D01*
X35557000Y-130339000D02*
X38443000Y-130339000D01*
X35500000Y-130379000D02*
X38500000Y-130379000D01*
X35446000Y-130419000D02*
X38554000Y-130419000D01*
X35395000Y-130459000D02*
X38605000Y-130459000D01*
X38040000Y-130499000D02*
X38653000Y-130499000D01*
X35347000Y-130499000D02*
X35960000Y-130499000D01*
X38040000Y-130539000D02*
X38699000Y-130539000D01*
X35301000Y-130539000D02*
X35960000Y-130539000D01*
X38040000Y-130579000D02*
X38743000Y-130579000D01*
X35257000Y-130579000D02*
X35960000Y-130579000D01*
X38040000Y-130619000D02*
X38785000Y-130619000D01*
X35215000Y-130619000D02*
X35960000Y-130619000D01*
X38040000Y-130659000D02*
X38826000Y-130659000D01*
X35174000Y-130659000D02*
X35960000Y-130659000D01*
X38040000Y-130699000D02*
X38864000Y-130699000D01*
X35136000Y-130699000D02*
X35960000Y-130699000D01*
X38040000Y-130739000D02*
X38901000Y-130739000D01*
X35099000Y-130739000D02*
X35960000Y-130739000D01*
X38040000Y-130779000D02*
X38937000Y-130779000D01*
X35063000Y-130779000D02*
X35960000Y-130779000D01*
X38040000Y-130819000D02*
X38971000Y-130819000D01*
X35029000Y-130819000D02*
X35960000Y-130819000D01*
X38040000Y-130859000D02*
X39004000Y-130859000D01*
X34996000Y-130859000D02*
X35960000Y-130859000D01*
X38040000Y-130899000D02*
X39035000Y-130899000D01*
X34965000Y-130899000D02*
X35960000Y-130899000D01*
X38040000Y-130939000D02*
X39065000Y-130939000D01*
X34935000Y-130939000D02*
X35960000Y-130939000D01*
X38040000Y-130979000D02*
X39095000Y-130979000D01*
X34905000Y-130979000D02*
X35960000Y-130979000D01*
X38040000Y-131019000D02*
X39122000Y-131019000D01*
X34878000Y-131019000D02*
X35960000Y-131019000D01*
X38040000Y-131059000D02*
X39149000Y-131059000D01*
X34851000Y-131059000D02*
X35960000Y-131059000D01*
X38040000Y-131099000D02*
X39175000Y-131099000D01*
X34825000Y-131099000D02*
X35960000Y-131099000D01*
X38040000Y-131139000D02*
X39200000Y-131139000D01*
X34800000Y-131139000D02*
X35960000Y-131139000D01*
X38040000Y-131179000D02*
X39224000Y-131179000D01*
X34776000Y-131179000D02*
X35960000Y-131179000D01*
X38040000Y-131219000D02*
X39247000Y-131219000D01*
X34753000Y-131219000D02*
X35960000Y-131219000D01*
X38040000Y-131259000D02*
X39268000Y-131259000D01*
X34732000Y-131259000D02*
X35960000Y-131259000D01*
X38040000Y-131299000D02*
X39290000Y-131299000D01*
X34710000Y-131299000D02*
X35960000Y-131299000D01*
X38040000Y-131339000D02*
X39310000Y-131339000D01*
X34690000Y-131339000D02*
X35960000Y-131339000D01*
X38040000Y-131379000D02*
X39329000Y-131379000D01*
X34671000Y-131379000D02*
X35960000Y-131379000D01*
X38040000Y-131419000D02*
X39348000Y-131419000D01*
X34652000Y-131419000D02*
X35960000Y-131419000D01*
X38040000Y-131459000D02*
X39365000Y-131459000D01*
X34635000Y-131459000D02*
X35960000Y-131459000D01*
X38040000Y-131499000D02*
X39382000Y-131499000D01*
X34618000Y-131499000D02*
X35960000Y-131499000D01*
X38040000Y-131539000D02*
X39398000Y-131539000D01*
X34602000Y-131539000D02*
X35960000Y-131539000D01*
X38040000Y-131579000D02*
X39414000Y-131579000D01*
X34586000Y-131579000D02*
X35960000Y-131579000D01*
X38040000Y-131619000D02*
X39428000Y-131619000D01*
X34572000Y-131619000D02*
X35960000Y-131619000D01*
X38040000Y-131659000D02*
X39442000Y-131659000D01*
X34558000Y-131659000D02*
X35960000Y-131659000D01*
X38040000Y-131699000D02*
X39455000Y-131699000D01*
X34545000Y-131699000D02*
X35960000Y-131699000D01*
X38040000Y-131739000D02*
X39468000Y-131739000D01*
X34532000Y-131739000D02*
X35960000Y-131739000D01*
X38040000Y-131779000D02*
X39480000Y-131779000D01*
X34520000Y-131779000D02*
X35960000Y-131779000D01*
X38040000Y-131820000D02*
X39491000Y-131820000D01*
X34509000Y-131820000D02*
X35960000Y-131820000D01*
X38040000Y-131860000D02*
X39501000Y-131860000D01*
X34499000Y-131860000D02*
X35960000Y-131860000D01*
X38040000Y-131900000D02*
X39511000Y-131900000D01*
X34489000Y-131900000D02*
X35960000Y-131900000D01*
X38040000Y-131940000D02*
X39520000Y-131940000D01*
X34480000Y-131940000D02*
X35960000Y-131940000D01*
X38040000Y-131980000D02*
X39528000Y-131980000D01*
X34472000Y-131980000D02*
X35960000Y-131980000D01*
X38040000Y-132020000D02*
X39536000Y-132020000D01*
X34464000Y-132020000D02*
X35960000Y-132020000D01*
X38040000Y-132060000D02*
X39543000Y-132060000D01*
X34457000Y-132060000D02*
X35960000Y-132060000D01*
X38040000Y-132100000D02*
X39550000Y-132100000D01*
X34450000Y-132100000D02*
X35960000Y-132100000D01*
X38040000Y-132140000D02*
X39556000Y-132140000D01*
X34444000Y-132140000D02*
X35960000Y-132140000D01*
X38040000Y-132180000D02*
X39561000Y-132180000D01*
X34439000Y-132180000D02*
X35960000Y-132180000D01*
X38040000Y-132220000D02*
X39565000Y-132220000D01*
X34435000Y-132220000D02*
X35960000Y-132220000D01*
X38040000Y-132260000D02*
X39569000Y-132260000D01*
X34431000Y-132260000D02*
X35960000Y-132260000D01*
X38040000Y-132300000D02*
X39573000Y-132300000D01*
X34427000Y-132300000D02*
X35960000Y-132300000D01*
X38040000Y-132340000D02*
X39576000Y-132340000D01*
X34424000Y-132340000D02*
X35960000Y-132340000D01*
X38040000Y-132380000D02*
X39578000Y-132380000D01*
X34422000Y-132380000D02*
X35960000Y-132380000D01*
X38040000Y-132420000D02*
X39579000Y-132420000D01*
X34421000Y-132420000D02*
X35960000Y-132420000D01*
X34420000Y-132460000D02*
X35960000Y-132460000D01*
X38040000Y-132460000D02*
X39580000Y-132460000D01*
X34420000Y-132500000D02*
X35960000Y-132500000D01*
X38040000Y-132500000D02*
X39580000Y-132500000D01*
X39620000Y-132500000D02*
G75*
G03*
X39620000Y-132500000I-2620000J0D01*
G01*
X35554775Y-138725000D02*
X35554775Y-138225000D01*
X35804775Y-138475000D02*
X35304775Y-138475000D01*
X30399000Y-137284000D02*
X30399000Y-136716000D01*
X30439000Y-137518000D02*
X30439000Y-136482000D01*
X30479000Y-137677000D02*
X30479000Y-136323000D01*
X30519000Y-137805000D02*
X30519000Y-136195000D01*
X30559000Y-137915000D02*
X30559000Y-136085000D01*
X30599000Y-138011000D02*
X30599000Y-135989000D01*
X30639000Y-138098000D02*
X30639000Y-135902000D01*
X30679000Y-138178000D02*
X30679000Y-135822000D01*
X30719000Y-138251000D02*
X30719000Y-135749000D01*
X30759000Y-138319000D02*
X30759000Y-135681000D01*
X30799000Y-138383000D02*
X30799000Y-135617000D01*
X30839000Y-138443000D02*
X30839000Y-135557000D01*
X30879000Y-138500000D02*
X30879000Y-135500000D01*
X30919000Y-138554000D02*
X30919000Y-135446000D01*
X30959000Y-138605000D02*
X30959000Y-135395000D01*
X30999000Y-135960000D02*
X30999000Y-135347000D01*
X30999000Y-138653000D02*
X30999000Y-138040000D01*
X31039000Y-135960000D02*
X31039000Y-135301000D01*
X31039000Y-138699000D02*
X31039000Y-138040000D01*
X31079000Y-135960000D02*
X31079000Y-135257000D01*
X31079000Y-138743000D02*
X31079000Y-138040000D01*
X31119000Y-135960000D02*
X31119000Y-135215000D01*
X31119000Y-138785000D02*
X31119000Y-138040000D01*
X31159000Y-135960000D02*
X31159000Y-135174000D01*
X31159000Y-138826000D02*
X31159000Y-138040000D01*
X31199000Y-135960000D02*
X31199000Y-135136000D01*
X31199000Y-138864000D02*
X31199000Y-138040000D01*
X31239000Y-135960000D02*
X31239000Y-135099000D01*
X31239000Y-138901000D02*
X31239000Y-138040000D01*
X31279000Y-135960000D02*
X31279000Y-135063000D01*
X31279000Y-138937000D02*
X31279000Y-138040000D01*
X31319000Y-135960000D02*
X31319000Y-135029000D01*
X31319000Y-138971000D02*
X31319000Y-138040000D01*
X31359000Y-135960000D02*
X31359000Y-134996000D01*
X31359000Y-139004000D02*
X31359000Y-138040000D01*
X31399000Y-135960000D02*
X31399000Y-134965000D01*
X31399000Y-139035000D02*
X31399000Y-138040000D01*
X31439000Y-135960000D02*
X31439000Y-134935000D01*
X31439000Y-139065000D02*
X31439000Y-138040000D01*
X31479000Y-135960000D02*
X31479000Y-134905000D01*
X31479000Y-139095000D02*
X31479000Y-138040000D01*
X31519000Y-135960000D02*
X31519000Y-134878000D01*
X31519000Y-139122000D02*
X31519000Y-138040000D01*
X31559000Y-135960000D02*
X31559000Y-134851000D01*
X31559000Y-139149000D02*
X31559000Y-138040000D01*
X31599000Y-135960000D02*
X31599000Y-134825000D01*
X31599000Y-139175000D02*
X31599000Y-138040000D01*
X31639000Y-135960000D02*
X31639000Y-134800000D01*
X31639000Y-139200000D02*
X31639000Y-138040000D01*
X31679000Y-135960000D02*
X31679000Y-134776000D01*
X31679000Y-139224000D02*
X31679000Y-138040000D01*
X31719000Y-135960000D02*
X31719000Y-134753000D01*
X31719000Y-139247000D02*
X31719000Y-138040000D01*
X31759000Y-135960000D02*
X31759000Y-134732000D01*
X31759000Y-139268000D02*
X31759000Y-138040000D01*
X31799000Y-135960000D02*
X31799000Y-134710000D01*
X31799000Y-139290000D02*
X31799000Y-138040000D01*
X31839000Y-135960000D02*
X31839000Y-134690000D01*
X31839000Y-139310000D02*
X31839000Y-138040000D01*
X31879000Y-135960000D02*
X31879000Y-134671000D01*
X31879000Y-139329000D02*
X31879000Y-138040000D01*
X31919000Y-135960000D02*
X31919000Y-134652000D01*
X31919000Y-139348000D02*
X31919000Y-138040000D01*
X31959000Y-135960000D02*
X31959000Y-134635000D01*
X31959000Y-139365000D02*
X31959000Y-138040000D01*
X31999000Y-135960000D02*
X31999000Y-134618000D01*
X31999000Y-139382000D02*
X31999000Y-138040000D01*
X32039000Y-135960000D02*
X32039000Y-134602000D01*
X32039000Y-139398000D02*
X32039000Y-138040000D01*
X32079000Y-135960000D02*
X32079000Y-134586000D01*
X32079000Y-139414000D02*
X32079000Y-138040000D01*
X32119000Y-135960000D02*
X32119000Y-134572000D01*
X32119000Y-139428000D02*
X32119000Y-138040000D01*
X32159000Y-135960000D02*
X32159000Y-134558000D01*
X32159000Y-139442000D02*
X32159000Y-138040000D01*
X32199000Y-135960000D02*
X32199000Y-134545000D01*
X32199000Y-139455000D02*
X32199000Y-138040000D01*
X32239000Y-135960000D02*
X32239000Y-134532000D01*
X32239000Y-139468000D02*
X32239000Y-138040000D01*
X32279000Y-135960000D02*
X32279000Y-134520000D01*
X32279000Y-139480000D02*
X32279000Y-138040000D01*
X32320000Y-135960000D02*
X32320000Y-134509000D01*
X32320000Y-139491000D02*
X32320000Y-138040000D01*
X32360000Y-135960000D02*
X32360000Y-134499000D01*
X32360000Y-139501000D02*
X32360000Y-138040000D01*
X32400000Y-135960000D02*
X32400000Y-134489000D01*
X32400000Y-139511000D02*
X32400000Y-138040000D01*
X32440000Y-135960000D02*
X32440000Y-134480000D01*
X32440000Y-139520000D02*
X32440000Y-138040000D01*
X32480000Y-135960000D02*
X32480000Y-134472000D01*
X32480000Y-139528000D02*
X32480000Y-138040000D01*
X32520000Y-135960000D02*
X32520000Y-134464000D01*
X32520000Y-139536000D02*
X32520000Y-138040000D01*
X32560000Y-135960000D02*
X32560000Y-134457000D01*
X32560000Y-139543000D02*
X32560000Y-138040000D01*
X32600000Y-135960000D02*
X32600000Y-134450000D01*
X32600000Y-139550000D02*
X32600000Y-138040000D01*
X32640000Y-135960000D02*
X32640000Y-134444000D01*
X32640000Y-139556000D02*
X32640000Y-138040000D01*
X32680000Y-135960000D02*
X32680000Y-134439000D01*
X32680000Y-139561000D02*
X32680000Y-138040000D01*
X32720000Y-135960000D02*
X32720000Y-134435000D01*
X32720000Y-139565000D02*
X32720000Y-138040000D01*
X32760000Y-135960000D02*
X32760000Y-134431000D01*
X32760000Y-139569000D02*
X32760000Y-138040000D01*
X32800000Y-135960000D02*
X32800000Y-134427000D01*
X32800000Y-139573000D02*
X32800000Y-138040000D01*
X32840000Y-135960000D02*
X32840000Y-134424000D01*
X32840000Y-139576000D02*
X32840000Y-138040000D01*
X32880000Y-135960000D02*
X32880000Y-134422000D01*
X32880000Y-139578000D02*
X32880000Y-138040000D01*
X32920000Y-135960000D02*
X32920000Y-134421000D01*
X32920000Y-139579000D02*
X32920000Y-138040000D01*
X32960000Y-139580000D02*
X32960000Y-138040000D01*
X32960000Y-135960000D02*
X32960000Y-134420000D01*
X33000000Y-139580000D02*
X33000000Y-138040000D01*
X33000000Y-135960000D02*
X33000000Y-134420000D01*
X35620000Y-137000000D02*
G75*
G03*
X35620000Y-137000000I-2620000J0D01*
G01*
D11*
X47714285Y-47452380D02*
X48047619Y-48452380D01*
X48380952Y-47452380D01*
X48904761Y-47452380D02*
X49095238Y-47452380D01*
X49190476Y-47500000D01*
X49285714Y-47595238D01*
X49333333Y-47785714D01*
X49333333Y-48119047D01*
X49285714Y-48309523D01*
X49190476Y-48404761D01*
X49095238Y-48452380D01*
X48904761Y-48452380D01*
X48809523Y-48404761D01*
X48714285Y-48309523D01*
X48666666Y-48119047D01*
X48666666Y-47785714D01*
X48714285Y-47595238D01*
X48809523Y-47500000D01*
X48904761Y-47452380D01*
X50238095Y-48452380D02*
X49761904Y-48452380D01*
X49761904Y-47452380D01*
X50571428Y-47452380D02*
X50571428Y-48261904D01*
X50619047Y-48357142D01*
X50666666Y-48404761D01*
X50761904Y-48452380D01*
X50952380Y-48452380D01*
X51047619Y-48404761D01*
X51095238Y-48357142D01*
X51142857Y-48261904D01*
X51142857Y-47452380D01*
X51619047Y-48452380D02*
X51619047Y-47452380D01*
X51952380Y-48166666D01*
X52285714Y-47452380D01*
X52285714Y-48452380D01*
X52761904Y-47928571D02*
X53095238Y-47928571D01*
X53238095Y-48452380D02*
X52761904Y-48452380D01*
X52761904Y-47452380D01*
X53238095Y-47452380D01*
X54190476Y-48452380D02*
X53619047Y-48452380D01*
X53904761Y-48452380D02*
X53904761Y-47452380D01*
X53809523Y-47595238D01*
X53714285Y-47690476D01*
X53619047Y-47738095D01*
X44548095Y-124622380D02*
X44548095Y-125431904D01*
X44595714Y-125527142D01*
X44643333Y-125574761D01*
X44738571Y-125622380D01*
X44929047Y-125622380D01*
X45024285Y-125574761D01*
X45071904Y-125527142D01*
X45119523Y-125431904D01*
X45119523Y-124622380D01*
X46119523Y-125622380D02*
X45548095Y-125622380D01*
X45833809Y-125622380D02*
X45833809Y-124622380D01*
X45738571Y-124765238D01*
X45643333Y-124860476D01*
X45548095Y-124908095D01*
X42302380Y-76211904D02*
X42302380Y-75640476D01*
X43302380Y-75926190D02*
X42302380Y-75926190D01*
X42302380Y-75116666D02*
X42302380Y-74926190D01*
X42350000Y-74830952D01*
X42445238Y-74735714D01*
X42635714Y-74688095D01*
X42969047Y-74688095D01*
X43159523Y-74735714D01*
X43254761Y-74830952D01*
X43302380Y-74926190D01*
X43302380Y-75116666D01*
X43254761Y-75211904D01*
X43159523Y-75307142D01*
X42969047Y-75354761D01*
X42635714Y-75354761D01*
X42445238Y-75307142D01*
X42350000Y-75211904D01*
X42302380Y-75116666D01*
X43302380Y-74259523D02*
X42302380Y-74259523D01*
X43302380Y-73688095D01*
X42302380Y-73688095D01*
X42778571Y-73211904D02*
X42778571Y-72878571D01*
X43302380Y-72735714D02*
X43302380Y-73211904D01*
X42302380Y-73211904D01*
X42302380Y-72735714D01*
X43302380Y-71783333D02*
X43302380Y-72354761D01*
X43302380Y-72069047D02*
X42302380Y-72069047D01*
X42445238Y-72164285D01*
X42540476Y-72259523D01*
X42588095Y-72354761D01*
X55357142Y-66452380D02*
X55023809Y-65976190D01*
X54785714Y-66452380D02*
X54785714Y-65452380D01*
X55166666Y-65452380D01*
X55261904Y-65500000D01*
X55309523Y-65547619D01*
X55357142Y-65642857D01*
X55357142Y-65785714D01*
X55309523Y-65880952D01*
X55261904Y-65928571D01*
X55166666Y-65976190D01*
X54785714Y-65976190D01*
X56309523Y-66452380D02*
X55738095Y-66452380D01*
X56023809Y-66452380D02*
X56023809Y-65452380D01*
X55928571Y-65595238D01*
X55833333Y-65690476D01*
X55738095Y-65738095D01*
X56928571Y-65452380D02*
X57023809Y-65452380D01*
X57119047Y-65500000D01*
X57166666Y-65547619D01*
X57214285Y-65642857D01*
X57261904Y-65833333D01*
X57261904Y-66071428D01*
X57214285Y-66261904D01*
X57166666Y-66357142D01*
X57119047Y-66404761D01*
X57023809Y-66452380D01*
X56928571Y-66452380D01*
X56833333Y-66404761D01*
X56785714Y-66357142D01*
X56738095Y-66261904D01*
X56690476Y-66071428D01*
X56690476Y-65833333D01*
X56738095Y-65642857D01*
X56785714Y-65547619D01*
X56833333Y-65500000D01*
X56928571Y-65452380D01*
X40833333Y-48452380D02*
X40500000Y-47976190D01*
X40261904Y-48452380D02*
X40261904Y-47452380D01*
X40642857Y-47452380D01*
X40738095Y-47500000D01*
X40785714Y-47547619D01*
X40833333Y-47642857D01*
X40833333Y-47785714D01*
X40785714Y-47880952D01*
X40738095Y-47928571D01*
X40642857Y-47976190D01*
X40261904Y-47976190D01*
X41309523Y-48452380D02*
X41500000Y-48452380D01*
X41595238Y-48404761D01*
X41642857Y-48357142D01*
X41738095Y-48214285D01*
X41785714Y-48023809D01*
X41785714Y-47642857D01*
X41738095Y-47547619D01*
X41690476Y-47500000D01*
X41595238Y-47452380D01*
X41404761Y-47452380D01*
X41309523Y-47500000D01*
X41261904Y-47547619D01*
X41214285Y-47642857D01*
X41214285Y-47880952D01*
X41261904Y-47976190D01*
X41309523Y-48023809D01*
X41404761Y-48071428D01*
X41595238Y-48071428D01*
X41690476Y-48023809D01*
X41738095Y-47976190D01*
X41785714Y-47880952D01*
X48483333Y-126172380D02*
X48150000Y-125696190D01*
X47911904Y-126172380D02*
X47911904Y-125172380D01*
X48292857Y-125172380D01*
X48388095Y-125220000D01*
X48435714Y-125267619D01*
X48483333Y-125362857D01*
X48483333Y-125505714D01*
X48435714Y-125600952D01*
X48388095Y-125648571D01*
X48292857Y-125696190D01*
X47911904Y-125696190D01*
X49054761Y-125600952D02*
X48959523Y-125553333D01*
X48911904Y-125505714D01*
X48864285Y-125410476D01*
X48864285Y-125362857D01*
X48911904Y-125267619D01*
X48959523Y-125220000D01*
X49054761Y-125172380D01*
X49245238Y-125172380D01*
X49340476Y-125220000D01*
X49388095Y-125267619D01*
X49435714Y-125362857D01*
X49435714Y-125410476D01*
X49388095Y-125505714D01*
X49340476Y-125553333D01*
X49245238Y-125600952D01*
X49054761Y-125600952D01*
X48959523Y-125648571D01*
X48911904Y-125696190D01*
X48864285Y-125791428D01*
X48864285Y-125981904D01*
X48911904Y-126077142D01*
X48959523Y-126124761D01*
X49054761Y-126172380D01*
X49245238Y-126172380D01*
X49340476Y-126124761D01*
X49388095Y-126077142D01*
X49435714Y-125981904D01*
X49435714Y-125791428D01*
X49388095Y-125696190D01*
X49340476Y-125648571D01*
X49245238Y-125600952D01*
X53558333Y-113452380D02*
X53225000Y-112976190D01*
X52986904Y-113452380D02*
X52986904Y-112452380D01*
X53367857Y-112452380D01*
X53463095Y-112500000D01*
X53510714Y-112547619D01*
X53558333Y-112642857D01*
X53558333Y-112785714D01*
X53510714Y-112880952D01*
X53463095Y-112928571D01*
X53367857Y-112976190D01*
X52986904Y-112976190D01*
X53891666Y-112452380D02*
X54558333Y-112452380D01*
X54129761Y-113452380D01*
X36833333Y-48452380D02*
X36500000Y-47976190D01*
X36261904Y-48452380D02*
X36261904Y-47452380D01*
X36642857Y-47452380D01*
X36738095Y-47500000D01*
X36785714Y-47547619D01*
X36833333Y-47642857D01*
X36833333Y-47785714D01*
X36785714Y-47880952D01*
X36738095Y-47928571D01*
X36642857Y-47976190D01*
X36261904Y-47976190D01*
X37690476Y-47452380D02*
X37500000Y-47452380D01*
X37404761Y-47500000D01*
X37357142Y-47547619D01*
X37261904Y-47690476D01*
X37214285Y-47880952D01*
X37214285Y-48261904D01*
X37261904Y-48357142D01*
X37309523Y-48404761D01*
X37404761Y-48452380D01*
X37595238Y-48452380D01*
X37690476Y-48404761D01*
X37738095Y-48357142D01*
X37785714Y-48261904D01*
X37785714Y-48023809D01*
X37738095Y-47928571D01*
X37690476Y-47880952D01*
X37595238Y-47833333D01*
X37404761Y-47833333D01*
X37309523Y-47880952D01*
X37261904Y-47928571D01*
X37214285Y-48023809D01*
X40452380Y-76516666D02*
X39976190Y-76850000D01*
X40452380Y-77088095D02*
X39452380Y-77088095D01*
X39452380Y-76707142D01*
X39500000Y-76611904D01*
X39547619Y-76564285D01*
X39642857Y-76516666D01*
X39785714Y-76516666D01*
X39880952Y-76564285D01*
X39928571Y-76611904D01*
X39976190Y-76707142D01*
X39976190Y-77088095D01*
X39452380Y-75611904D02*
X39452380Y-76088095D01*
X39928571Y-76135714D01*
X39880952Y-76088095D01*
X39833333Y-75992857D01*
X39833333Y-75754761D01*
X39880952Y-75659523D01*
X39928571Y-75611904D01*
X40023809Y-75564285D01*
X40261904Y-75564285D01*
X40357142Y-75611904D01*
X40404761Y-75659523D01*
X40452380Y-75754761D01*
X40452380Y-75992857D01*
X40404761Y-76088095D01*
X40357142Y-76135714D01*
X36452380Y-76516666D02*
X35976190Y-76850000D01*
X36452380Y-77088095D02*
X35452380Y-77088095D01*
X35452380Y-76707142D01*
X35500000Y-76611904D01*
X35547619Y-76564285D01*
X35642857Y-76516666D01*
X35785714Y-76516666D01*
X35880952Y-76564285D01*
X35928571Y-76611904D01*
X35976190Y-76707142D01*
X35976190Y-77088095D01*
X35785714Y-75659523D02*
X36452380Y-75659523D01*
X35404761Y-75897619D02*
X36119047Y-76135714D01*
X36119047Y-75516666D01*
X37452380Y-113666666D02*
X36976190Y-114000000D01*
X37452380Y-114238095D02*
X36452380Y-114238095D01*
X36452380Y-113857142D01*
X36500000Y-113761904D01*
X36547619Y-113714285D01*
X36642857Y-113666666D01*
X36785714Y-113666666D01*
X36880952Y-113714285D01*
X36928571Y-113761904D01*
X36976190Y-113857142D01*
X36976190Y-114238095D01*
X36452380Y-113333333D02*
X36452380Y-112714285D01*
X36833333Y-113047619D01*
X36833333Y-112904761D01*
X36880952Y-112809523D01*
X36928571Y-112761904D01*
X37023809Y-112714285D01*
X37261904Y-112714285D01*
X37357142Y-112761904D01*
X37404761Y-112809523D01*
X37452380Y-112904761D01*
X37452380Y-113190476D01*
X37404761Y-113285714D01*
X37357142Y-113333333D01*
X41183333Y-87452380D02*
X40850000Y-86976190D01*
X40611904Y-87452380D02*
X40611904Y-86452380D01*
X40992857Y-86452380D01*
X41088095Y-86500000D01*
X41135714Y-86547619D01*
X41183333Y-86642857D01*
X41183333Y-86785714D01*
X41135714Y-86880952D01*
X41088095Y-86928571D01*
X40992857Y-86976190D01*
X40611904Y-86976190D01*
X41564285Y-86547619D02*
X41611904Y-86500000D01*
X41707142Y-86452380D01*
X41945238Y-86452380D01*
X42040476Y-86500000D01*
X42088095Y-86547619D01*
X42135714Y-86642857D01*
X42135714Y-86738095D01*
X42088095Y-86880952D01*
X41516666Y-87452380D01*
X42135714Y-87452380D01*
X33452380Y-113666666D02*
X32976190Y-114000000D01*
X33452380Y-114238095D02*
X32452380Y-114238095D01*
X32452380Y-113857142D01*
X32500000Y-113761904D01*
X32547619Y-113714285D01*
X32642857Y-113666666D01*
X32785714Y-113666666D01*
X32880952Y-113714285D01*
X32928571Y-113761904D01*
X32976190Y-113857142D01*
X32976190Y-114238095D01*
X33452380Y-112714285D02*
X33452380Y-113285714D01*
X33452380Y-113000000D02*
X32452380Y-113000000D01*
X32595238Y-113095238D01*
X32690476Y-113190476D01*
X32738095Y-113285714D01*
X40636666Y-108532380D02*
X40636666Y-109246666D01*
X40589047Y-109389523D01*
X40493809Y-109484761D01*
X40350952Y-109532380D01*
X40255714Y-109532380D01*
X41541428Y-108865714D02*
X41541428Y-109532380D01*
X41303333Y-108484761D02*
X41065238Y-109199047D01*
X41684285Y-109199047D01*
X34136666Y-91532380D02*
X34136666Y-92246666D01*
X34089047Y-92389523D01*
X33993809Y-92484761D01*
X33850952Y-92532380D01*
X33755714Y-92532380D01*
X34517619Y-91532380D02*
X35136666Y-91532380D01*
X34803333Y-91913333D01*
X34946190Y-91913333D01*
X35041428Y-91960952D01*
X35089047Y-92008571D01*
X35136666Y-92103809D01*
X35136666Y-92341904D01*
X35089047Y-92437142D01*
X35041428Y-92484761D01*
X34946190Y-92532380D01*
X34660476Y-92532380D01*
X34565238Y-92484761D01*
X34517619Y-92437142D01*
X47136666Y-91532380D02*
X47136666Y-92246666D01*
X47089047Y-92389523D01*
X46993809Y-92484761D01*
X46850952Y-92532380D01*
X46755714Y-92532380D01*
X47565238Y-91627619D02*
X47612857Y-91580000D01*
X47708095Y-91532380D01*
X47946190Y-91532380D01*
X48041428Y-91580000D01*
X48089047Y-91627619D01*
X48136666Y-91722857D01*
X48136666Y-91818095D01*
X48089047Y-91960952D01*
X47517619Y-92532380D01*
X48136666Y-92532380D01*
X31350000Y-58354761D02*
X31302380Y-58450000D01*
X31302380Y-58592857D01*
X31350000Y-58735714D01*
X31445238Y-58830952D01*
X31540476Y-58878571D01*
X31730952Y-58926190D01*
X31873809Y-58926190D01*
X32064285Y-58878571D01*
X32159523Y-58830952D01*
X32254761Y-58735714D01*
X32302380Y-58592857D01*
X32302380Y-58497619D01*
X32254761Y-58354761D01*
X32207142Y-58307142D01*
X31873809Y-58307142D01*
X31873809Y-58497619D01*
X32016666Y-57926190D02*
X32016666Y-57450000D01*
X32302380Y-58021428D02*
X31302380Y-57688095D01*
X32302380Y-57354761D01*
X32302380Y-57021428D02*
X31302380Y-57021428D01*
X32302380Y-56545238D02*
X31302380Y-56545238D01*
X32302380Y-55973809D01*
X31302380Y-55973809D01*
X32302380Y-54973809D02*
X32302380Y-55545238D01*
X32302380Y-55259523D02*
X31302380Y-55259523D01*
X31445238Y-55354761D01*
X31540476Y-55450000D01*
X31588095Y-55545238D01*
X52991904Y-121412380D02*
X52991904Y-120412380D01*
X53230000Y-120412380D01*
X53372857Y-120460000D01*
X53468095Y-120555238D01*
X53515714Y-120650476D01*
X53563333Y-120840952D01*
X53563333Y-120983809D01*
X53515714Y-121174285D01*
X53468095Y-121269523D01*
X53372857Y-121364761D01*
X53230000Y-121412380D01*
X52991904Y-121412380D01*
X53896666Y-120412380D02*
X54515714Y-120412380D01*
X54182380Y-120793333D01*
X54325238Y-120793333D01*
X54420476Y-120840952D01*
X54468095Y-120888571D01*
X54515714Y-120983809D01*
X54515714Y-121221904D01*
X54468095Y-121317142D01*
X54420476Y-121364761D01*
X54325238Y-121412380D01*
X54039523Y-121412380D01*
X53944285Y-121364761D01*
X53896666Y-121317142D01*
X39071904Y-68572380D02*
X39071904Y-67572380D01*
X39310000Y-67572380D01*
X39452857Y-67620000D01*
X39548095Y-67715238D01*
X39595714Y-67810476D01*
X39643333Y-68000952D01*
X39643333Y-68143809D01*
X39595714Y-68334285D01*
X39548095Y-68429523D01*
X39452857Y-68524761D01*
X39310000Y-68572380D01*
X39071904Y-68572380D01*
X40024285Y-67667619D02*
X40071904Y-67620000D01*
X40167142Y-67572380D01*
X40405238Y-67572380D01*
X40500476Y-67620000D01*
X40548095Y-67667619D01*
X40595714Y-67762857D01*
X40595714Y-67858095D01*
X40548095Y-68000952D01*
X39976666Y-68572380D01*
X40595714Y-68572380D01*
X43358095Y-68252380D02*
X43358095Y-67252380D01*
X43929523Y-68252380D02*
X43500952Y-67680952D01*
X43929523Y-67252380D02*
X43358095Y-67823809D01*
X32952380Y-127048095D02*
X31952380Y-127048095D01*
X31952380Y-126810000D01*
X32000000Y-126667142D01*
X32095238Y-126571904D01*
X32190476Y-126524285D01*
X32380952Y-126476666D01*
X32523809Y-126476666D01*
X32714285Y-126524285D01*
X32809523Y-126571904D01*
X32904761Y-126667142D01*
X32952380Y-126810000D01*
X32952380Y-127048095D01*
X32952380Y-125524285D02*
X32952380Y-126095714D01*
X32952380Y-125810000D02*
X31952380Y-125810000D01*
X32095238Y-125905238D01*
X32190476Y-126000476D01*
X32238095Y-126095714D01*
X34752380Y-122761904D02*
X33752380Y-122761904D01*
X34752380Y-122190476D02*
X34180952Y-122619047D01*
X33752380Y-122190476D02*
X34323809Y-122761904D01*
X52833333Y-88357142D02*
X52785714Y-88404761D01*
X52642857Y-88452380D01*
X52547619Y-88452380D01*
X52404761Y-88404761D01*
X52309523Y-88309523D01*
X52261904Y-88214285D01*
X52214285Y-88023809D01*
X52214285Y-87880952D01*
X52261904Y-87690476D01*
X52309523Y-87595238D01*
X52404761Y-87500000D01*
X52547619Y-87452380D01*
X52642857Y-87452380D01*
X52785714Y-87500000D01*
X52833333Y-87547619D01*
X53166666Y-87452380D02*
X53833333Y-87452380D01*
X53404761Y-88452380D01*
X46333333Y-85857142D02*
X46285714Y-85904761D01*
X46142857Y-85952380D01*
X46047619Y-85952380D01*
X45904761Y-85904761D01*
X45809523Y-85809523D01*
X45761904Y-85714285D01*
X45714285Y-85523809D01*
X45714285Y-85380952D01*
X45761904Y-85190476D01*
X45809523Y-85095238D01*
X45904761Y-85000000D01*
X46047619Y-84952380D01*
X46142857Y-84952380D01*
X46285714Y-85000000D01*
X46333333Y-85047619D01*
X47190476Y-84952380D02*
X47000000Y-84952380D01*
X46904761Y-85000000D01*
X46857142Y-85047619D01*
X46761904Y-85190476D01*
X46714285Y-85380952D01*
X46714285Y-85761904D01*
X46761904Y-85857142D01*
X46809523Y-85904761D01*
X46904761Y-85952380D01*
X47095238Y-85952380D01*
X47190476Y-85904761D01*
X47238095Y-85857142D01*
X47285714Y-85761904D01*
X47285714Y-85523809D01*
X47238095Y-85428571D01*
X47190476Y-85380952D01*
X47095238Y-85333333D01*
X46904761Y-85333333D01*
X46809523Y-85380952D01*
X46761904Y-85428571D01*
X46714285Y-85523809D01*
X49833333Y-59607142D02*
X49785714Y-59654761D01*
X49642857Y-59702380D01*
X49547619Y-59702380D01*
X49404761Y-59654761D01*
X49309523Y-59559523D01*
X49261904Y-59464285D01*
X49214285Y-59273809D01*
X49214285Y-59130952D01*
X49261904Y-58940476D01*
X49309523Y-58845238D01*
X49404761Y-58750000D01*
X49547619Y-58702380D01*
X49642857Y-58702380D01*
X49785714Y-58750000D01*
X49833333Y-58797619D01*
X50738095Y-58702380D02*
X50261904Y-58702380D01*
X50214285Y-59178571D01*
X50261904Y-59130952D01*
X50357142Y-59083333D01*
X50595238Y-59083333D01*
X50690476Y-59130952D01*
X50738095Y-59178571D01*
X50785714Y-59273809D01*
X50785714Y-59511904D01*
X50738095Y-59607142D01*
X50690476Y-59654761D01*
X50595238Y-59702380D01*
X50357142Y-59702380D01*
X50261904Y-59654761D01*
X50214285Y-59607142D01*
X39107142Y-125666666D02*
X39154761Y-125714285D01*
X39202380Y-125857142D01*
X39202380Y-125952380D01*
X39154761Y-126095238D01*
X39059523Y-126190476D01*
X38964285Y-126238095D01*
X38773809Y-126285714D01*
X38630952Y-126285714D01*
X38440476Y-126238095D01*
X38345238Y-126190476D01*
X38250000Y-126095238D01*
X38202380Y-125952380D01*
X38202380Y-125857142D01*
X38250000Y-125714285D01*
X38297619Y-125666666D01*
X38535714Y-124809523D02*
X39202380Y-124809523D01*
X38154761Y-125047619D02*
X38869047Y-125285714D01*
X38869047Y-124666666D01*
X31833333Y-83357142D02*
X31785714Y-83404761D01*
X31642857Y-83452380D01*
X31547619Y-83452380D01*
X31404761Y-83404761D01*
X31309523Y-83309523D01*
X31261904Y-83214285D01*
X31214285Y-83023809D01*
X31214285Y-82880952D01*
X31261904Y-82690476D01*
X31309523Y-82595238D01*
X31404761Y-82500000D01*
X31547619Y-82452380D01*
X31642857Y-82452380D01*
X31785714Y-82500000D01*
X31833333Y-82547619D01*
X32166666Y-82452380D02*
X32785714Y-82452380D01*
X32452380Y-82833333D01*
X32595238Y-82833333D01*
X32690476Y-82880952D01*
X32738095Y-82928571D01*
X32785714Y-83023809D01*
X32785714Y-83261904D01*
X32738095Y-83357142D01*
X32690476Y-83404761D01*
X32595238Y-83452380D01*
X32309523Y-83452380D01*
X32214285Y-83404761D01*
X32166666Y-83357142D01*
X38833333Y-129857142D02*
X38785714Y-129904761D01*
X38642857Y-129952380D01*
X38547619Y-129952380D01*
X38404761Y-129904761D01*
X38309523Y-129809523D01*
X38261904Y-129714285D01*
X38214285Y-129523809D01*
X38214285Y-129380952D01*
X38261904Y-129190476D01*
X38309523Y-129095238D01*
X38404761Y-129000000D01*
X38547619Y-128952380D01*
X38642857Y-128952380D01*
X38785714Y-129000000D01*
X38833333Y-129047619D01*
X39214285Y-129047619D02*
X39261904Y-129000000D01*
X39357142Y-128952380D01*
X39595238Y-128952380D01*
X39690476Y-129000000D01*
X39738095Y-129047619D01*
X39785714Y-129142857D01*
X39785714Y-129238095D01*
X39738095Y-129380952D01*
X39166666Y-129952380D01*
X39785714Y-129952380D01*
X30833333Y-133857142D02*
X30785714Y-133904761D01*
X30642857Y-133952380D01*
X30547619Y-133952380D01*
X30404761Y-133904761D01*
X30309523Y-133809523D01*
X30261904Y-133714285D01*
X30214285Y-133523809D01*
X30214285Y-133380952D01*
X30261904Y-133190476D01*
X30309523Y-133095238D01*
X30404761Y-133000000D01*
X30547619Y-132952380D01*
X30642857Y-132952380D01*
X30785714Y-133000000D01*
X30833333Y-133047619D01*
X31785714Y-133952380D02*
X31214285Y-133952380D01*
X31500000Y-133952380D02*
X31500000Y-132952380D01*
X31404761Y-133095238D01*
X31309523Y-133190476D01*
X31214285Y-133238095D01*
%LPC*%
D12*
X54900000Y-39000000D03*
X46100000Y-39000000D03*
D13*
X53000000Y-46000000D03*
X50500000Y-46000000D03*
X48000000Y-46000000D03*
D14*
X49120000Y-127500000D03*
X41500000Y-135120000D03*
X49120000Y-130040000D03*
X41500000Y-132580000D03*
X49120000Y-132580000D03*
X41500000Y-130040000D03*
X49120000Y-135120000D03*
D15*
X41500000Y-127500000D03*
D12*
X54900000Y-73000000D03*
X46100000Y-73000000D03*
D13*
X53000000Y-80000000D03*
X50500000Y-80000000D03*
X48000000Y-80000000D03*
D14*
X56000000Y-51300000D03*
D16*
X56000000Y-64000000D03*
D14*
X41000000Y-46000000D03*
D16*
X41000000Y-33300000D03*
D14*
X42300000Y-123000000D03*
D16*
X55000000Y-123000000D03*
D17*
X52025000Y-110000000D03*
X55425000Y-110000000D03*
D14*
X37000000Y-33300000D03*
D16*
X37000000Y-46000000D03*
D14*
X40000000Y-82700000D03*
D16*
X40000000Y-70000000D03*
D14*
X36000000Y-70000000D03*
D16*
X36000000Y-82700000D03*
D14*
X37000000Y-107300000D03*
D16*
X37000000Y-120000000D03*
D14*
X47700000Y-87000000D03*
D16*
X35000000Y-87000000D03*
D14*
X33000000Y-107300000D03*
D16*
X33000000Y-120000000D03*
D18*
X45000000Y-119400000D03*
D19*
X45000000Y-108000000D03*
D18*
X45000000Y-111100000D03*
X38500000Y-102400000D03*
D19*
X38500000Y-91000000D03*
D18*
X38500000Y-94100000D03*
X51500000Y-102400000D03*
D19*
X51500000Y-91000000D03*
D18*
X51500000Y-94100000D03*
D20*
X56540000Y-127840000D03*
X54000000Y-127840000D03*
X56540000Y-130380000D03*
X54000000Y-130380000D03*
X56540000Y-132920000D03*
X54000000Y-132920000D03*
X56540000Y-135460000D03*
X54000000Y-135460000D03*
X56540000Y-138000000D03*
D21*
X54000000Y-138000000D03*
D12*
X43900000Y-56000000D03*
X35100000Y-56000000D03*
D13*
X42000000Y-63000000D03*
X39500000Y-63000000D03*
X37000000Y-63000000D03*
X52460000Y-117000000D03*
D22*
X55000000Y-117000000D03*
D14*
X36000000Y-66000000D03*
D15*
X43620000Y-66000000D03*
D14*
X32500000Y-130120000D03*
D15*
X32500000Y-122500000D03*
D23*
X53000000Y-86000000D03*
X53000000Y-83500000D03*
D16*
X44000000Y-83000000D03*
X49000000Y-83000000D03*
X51000000Y-63000000D03*
D15*
X49000000Y-63000000D03*
D16*
X36500000Y-128000000D03*
X36500000Y-123000000D03*
D23*
X32000000Y-87500000D03*
X32000000Y-85000000D03*
D16*
X37000000Y-131500000D03*
D15*
X37000000Y-133500000D03*
D16*
X32000000Y-137000000D03*
D15*
X34000000Y-137000000D03*
M02*
