M48
; DRILL file {KiCad (5.1.9)-1} date 10/16/21 13:12:14
; FORMAT={-:-/ absolute / metric / decimal}
; #@! TF.CreationDate,2021-10-16T13:12:14+02:00
; #@! TF.GenerationSoftware,Kicad,Pcbnew,(5.1.9)-1
; #@! TF.FileFunction,Plated,1,2,PTH
FMAT,2
METRIC
T1C0.400
T2C0.700
T3C0.800
T4C0.900
T5C1.000
T6C1.220
T7C1.420
T8C1.430
%
G90
G05
T1
X58.5Y-79.0
T2
X32.0Y-85.0
X32.0Y-87.5
X53.0Y-83.5
X53.0Y-86.0
T3
X32.0Y-137.0
X32.5Y-122.5
X32.5Y-130.12
X33.0Y-107.3
X33.0Y-120.0
X34.0Y-137.0
X35.0Y-87.0
X36.0Y-66.0
X36.0Y-70.0
X36.0Y-82.7
X36.5Y-123.0
X36.5Y-128.0
X37.0Y-33.3
X37.0Y-46.0
X37.0Y-107.3
X37.0Y-120.0
X37.0Y-131.5
X37.0Y-133.5
X40.0Y-70.0
X40.0Y-82.7
X41.0Y-33.3
X41.0Y-46.0
X41.5Y-127.5
X41.5Y-130.04
X41.5Y-132.58
X41.5Y-135.12
X42.3Y-123.0
X43.62Y-66.0
X44.0Y-83.0
X47.7Y-87.0
X49.0Y-63.0
X49.0Y-83.0
X49.12Y-127.5
X49.12Y-130.04
X49.12Y-132.58
X49.12Y-135.12
X51.0Y-63.0
X52.025Y-110.0
X55.0Y-123.0
X55.425Y-110.0
X56.0Y-51.3
X56.0Y-64.0
T4
X52.46Y-117.0
X55.0Y-117.0
T5
X37.0Y-63.0
X39.5Y-63.0
X42.0Y-63.0
X48.0Y-46.0
X48.0Y-80.0
X50.5Y-46.0
X50.5Y-80.0
X53.0Y-46.0
X53.0Y-80.0
X54.0Y-127.84
X54.0Y-130.38
X54.0Y-132.92
X54.0Y-135.46
X54.0Y-138.0
X56.54Y-127.84
X56.54Y-130.38
X56.54Y-132.92
X56.54Y-135.46
X56.54Y-138.0
T6
X38.5Y-91.0
X45.0Y-108.0
X51.5Y-91.0
T7
X38.5Y-94.1
X45.0Y-111.1
X51.5Y-94.1
T8
X38.5Y-102.4
X45.0Y-119.4
X51.5Y-102.4
T0
M30
