M48
; DRILL file {KiCad (6.0.1)} date Mon Sep 12 17:15:26 2022
; FORMAT={-:-/ absolute / metric / decimal}
; #@! TF.CreationDate,2022-09-12T17:15:26+02:00
; #@! TF.GenerationSoftware,Kicad,Pcbnew,(6.0.1)
; #@! TF.FileFunction,Plated,1,2,PTH
FMAT,2
METRIC
; #@! TA.AperFunction,Plated,PTH,ComponentDrill
T1C0.800
; #@! TA.AperFunction,Plated,PTH,ComponentDrill
T2C1.000
%
G90
G05
T1
X110.175Y-46.575
X110.175Y-54.075
X110.175Y-64.825
X110.175Y-72.575
X110.175Y-83.575
X110.175Y-91.075
X110.175Y-102.075
X110.175Y-109.575
X110.175Y-120.575
X110.175Y-128.075
X110.175Y-139.075
X110.175Y-146.325
X110.265Y-97.075
X110.675Y-41.575
X110.675Y-60.075
X110.675Y-78.575
X110.675Y-115.575
X110.675Y-133.575
X112.175Y-46.575
X112.175Y-54.075
X112.175Y-64.825
X112.175Y-72.575
X112.175Y-83.575
X112.175Y-91.075
X112.175Y-102.075
X112.175Y-109.575
X112.175Y-120.575
X112.175Y-128.075
X112.175Y-139.075
X112.175Y-146.325
X117.675Y-44.495
X117.675Y-54.655
X117.675Y-62.995
X117.675Y-73.155
X117.675Y-81.575
X117.675Y-91.735
X117.675Y-99.995
X117.675Y-110.155
X117.925Y-118.495
X117.925Y-128.655
X117.925Y-136.575
X117.925Y-146.735
X120.345Y-55.575
X120.425Y-74.075
X120.425Y-92.575
X120.425Y-97.075
X120.425Y-111.075
X120.675Y-129.575
X120.675Y-147.575
X120.835Y-41.575
X120.835Y-60.075
X120.835Y-78.575
X120.835Y-115.575
X120.835Y-133.575
X121.425Y-44.575
X121.425Y-49.575
X121.425Y-63.075
X121.425Y-68.075
X121.425Y-81.575
X121.425Y-86.575
X121.425Y-100.075
X121.425Y-105.075
X121.675Y-118.575
X121.675Y-123.575
X121.675Y-136.575
X121.675Y-141.575
X122.685Y-97.075
X123.095Y-78.575
X123.095Y-133.575
X123.175Y-41.575
X123.175Y-60.075
X123.175Y-115.575
X124.605Y-44.775
X124.605Y-52.395
X124.605Y-63.275
X124.605Y-70.895
X124.605Y-81.775
X124.605Y-89.395
X124.605Y-100.275
X124.605Y-107.895
X124.855Y-118.775
X124.855Y-126.395
X124.855Y-136.775
X124.855Y-144.395
X127.145Y-44.775
X127.145Y-52.395
X127.145Y-63.275
X127.145Y-70.895
X127.145Y-81.775
X127.145Y-89.395
X127.145Y-100.275
X127.145Y-107.895
X127.395Y-118.775
X127.395Y-126.395
X127.395Y-136.775
X127.395Y-144.395
X129.685Y-44.775
X129.685Y-52.395
X129.685Y-63.275
X129.685Y-70.895
X129.685Y-81.775
X129.685Y-89.395
X129.685Y-100.275
X129.685Y-107.895
X129.935Y-118.775
X129.935Y-126.395
X129.935Y-136.775
X129.935Y-144.395
X130.505Y-55.575
X130.585Y-74.075
X130.585Y-92.575
X130.585Y-111.075
X130.835Y-129.575
X130.835Y-147.575
X132.225Y-44.775
X132.225Y-52.395
X132.225Y-63.275
X132.225Y-70.895
X132.225Y-81.775
X132.225Y-89.395
X132.225Y-100.275
X132.225Y-107.895
X132.475Y-118.775
X132.475Y-126.395
X132.475Y-136.775
X132.475Y-144.395
X132.845Y-97.075
X133.255Y-78.575
X133.255Y-133.575
X133.335Y-41.575
X133.335Y-60.075
X133.335Y-115.575
X135.425Y-47.575
X135.425Y-52.575
X135.425Y-66.075
X135.425Y-71.075
X135.425Y-81.575
X135.425Y-86.575
X135.425Y-103.075
X135.425Y-108.075
X135.675Y-121.575
X135.675Y-126.575
X135.675Y-139.575
X135.675Y-144.575
T2
X106.425Y-41.375
X106.425Y-43.915
X106.425Y-46.455
X106.425Y-48.995
X106.425Y-51.535
X106.425Y-54.075
X106.425Y-59.875
X106.425Y-62.415
X106.425Y-64.955
X106.425Y-67.495
X106.425Y-70.035
X106.425Y-72.575
X106.425Y-78.375
X106.425Y-80.915
X106.425Y-83.455
X106.425Y-85.995
X106.425Y-88.535
X106.425Y-91.075
X106.425Y-96.875
X106.425Y-99.415
X106.425Y-101.955
X106.425Y-104.495
X106.425Y-107.035
X106.425Y-109.575
X106.425Y-115.375
X106.425Y-117.915
X106.425Y-120.455
X106.425Y-122.995
X106.425Y-125.535
X106.425Y-128.075
X106.425Y-133.875
X106.425Y-136.415
X106.425Y-138.955
X106.425Y-141.495
X106.425Y-144.035
X106.425Y-146.575
X135.925Y-90.075
X135.925Y-92.615
X135.925Y-95.155
X135.925Y-97.695
T0
M30
