G04 #@! TF.GenerationSoftware,KiCad,Pcbnew,(6.0.1)*
G04 #@! TF.CreationDate,2022-09-12T17:15:24+02:00*
G04 #@! TF.ProjectId,Output-mixer,4f757470-7574-42d6-9d69-7865722e6b69,rev?*
G04 #@! TF.SameCoordinates,Original*
G04 #@! TF.FileFunction,Legend,Top*
G04 #@! TF.FilePolarity,Positive*
%FSLAX46Y46*%
G04 Gerber Fmt 4.6, Leading zero omitted, Abs format (unit mm)*
G04 Created by KiCad (PCBNEW (6.0.1)) date 2022-09-12 17:15:24*
%MOMM*%
%LPD*%
G01*
G04 APERTURE LIST*
G04 #@! TA.AperFunction,Profile*
%ADD10C,0.050000*%
G04 #@! TD*
%ADD11C,0.150000*%
%ADD12C,0.120000*%
%ADD13C,1.600000*%
%ADD14O,1.600000X1.600000*%
%ADD15R,1.700000X1.700000*%
%ADD16O,1.700000X1.700000*%
%ADD17R,1.600000X1.600000*%
G04 APERTURE END LIST*
D10*
X104175000Y-39325000D02*
X138175000Y-39325000D01*
X138175000Y-149325000D02*
X104175000Y-149325000D01*
X104175000Y-39325000D02*
X104175000Y-149325000D01*
X138175000Y-39325000D02*
X138175000Y-149325000D01*
D11*
X121782142Y-84717857D02*
X121829761Y-84765476D01*
X121877380Y-84908333D01*
X121877380Y-85003571D01*
X121829761Y-85146428D01*
X121734523Y-85241666D01*
X121639285Y-85289285D01*
X121448809Y-85336904D01*
X121305952Y-85336904D01*
X121115476Y-85289285D01*
X121020238Y-85241666D01*
X120925000Y-85146428D01*
X120877380Y-85003571D01*
X120877380Y-84908333D01*
X120925000Y-84765476D01*
X120972619Y-84717857D01*
X121877380Y-83765476D02*
X121877380Y-84336904D01*
X121877380Y-84051190D02*
X120877380Y-84051190D01*
X121020238Y-84146428D01*
X121115476Y-84241666D01*
X121163095Y-84336904D01*
X121210714Y-82908333D02*
X121877380Y-82908333D01*
X120829761Y-83146428D02*
X121544047Y-83384523D01*
X121544047Y-82765476D01*
X115588333Y-134027380D02*
X115255000Y-133551190D01*
X115016904Y-134027380D02*
X115016904Y-133027380D01*
X115397857Y-133027380D01*
X115493095Y-133075000D01*
X115540714Y-133122619D01*
X115588333Y-133217857D01*
X115588333Y-133360714D01*
X115540714Y-133455952D01*
X115493095Y-133503571D01*
X115397857Y-133551190D01*
X115016904Y-133551190D01*
X116445476Y-133027380D02*
X116255000Y-133027380D01*
X116159761Y-133075000D01*
X116112142Y-133122619D01*
X116016904Y-133265476D01*
X115969285Y-133455952D01*
X115969285Y-133836904D01*
X116016904Y-133932142D01*
X116064523Y-133979761D01*
X116159761Y-134027380D01*
X116350238Y-134027380D01*
X116445476Y-133979761D01*
X116493095Y-133932142D01*
X116540714Y-133836904D01*
X116540714Y-133598809D01*
X116493095Y-133503571D01*
X116445476Y-133455952D01*
X116350238Y-133408333D01*
X116159761Y-133408333D01*
X116064523Y-133455952D01*
X116016904Y-133503571D01*
X115969285Y-133598809D01*
X118127380Y-50217857D02*
X117651190Y-50551190D01*
X118127380Y-50789285D02*
X117127380Y-50789285D01*
X117127380Y-50408333D01*
X117175000Y-50313095D01*
X117222619Y-50265476D01*
X117317857Y-50217857D01*
X117460714Y-50217857D01*
X117555952Y-50265476D01*
X117603571Y-50313095D01*
X117651190Y-50408333D01*
X117651190Y-50789285D01*
X117127380Y-49360714D02*
X117127380Y-49551190D01*
X117175000Y-49646428D01*
X117222619Y-49694047D01*
X117365476Y-49789285D01*
X117555952Y-49836904D01*
X117936904Y-49836904D01*
X118032142Y-49789285D01*
X118079761Y-49741666D01*
X118127380Y-49646428D01*
X118127380Y-49455952D01*
X118079761Y-49360714D01*
X118032142Y-49313095D01*
X117936904Y-49265476D01*
X117698809Y-49265476D01*
X117603571Y-49313095D01*
X117555952Y-49360714D01*
X117508333Y-49455952D01*
X117508333Y-49646428D01*
X117555952Y-49741666D01*
X117603571Y-49789285D01*
X117698809Y-49836904D01*
X117127380Y-48360714D02*
X117127380Y-48836904D01*
X117603571Y-48884523D01*
X117555952Y-48836904D01*
X117508333Y-48741666D01*
X117508333Y-48503571D01*
X117555952Y-48408333D01*
X117603571Y-48360714D01*
X117698809Y-48313095D01*
X117936904Y-48313095D01*
X118032142Y-48360714D01*
X118079761Y-48408333D01*
X118127380Y-48503571D01*
X118127380Y-48741666D01*
X118079761Y-48836904D01*
X118032142Y-48884523D01*
X105615476Y-111357380D02*
X105615476Y-112071666D01*
X105567857Y-112214523D01*
X105472619Y-112309761D01*
X105329761Y-112357380D01*
X105234523Y-112357380D01*
X105996428Y-111357380D02*
X106615476Y-111357380D01*
X106282142Y-111738333D01*
X106425000Y-111738333D01*
X106520238Y-111785952D01*
X106567857Y-111833571D01*
X106615476Y-111928809D01*
X106615476Y-112166904D01*
X106567857Y-112262142D01*
X106520238Y-112309761D01*
X106425000Y-112357380D01*
X106139285Y-112357380D01*
X106044047Y-112309761D01*
X105996428Y-112262142D01*
X107472619Y-111690714D02*
X107472619Y-112357380D01*
X107234523Y-111309761D02*
X106996428Y-112024047D01*
X107615476Y-112024047D01*
X135782142Y-50717857D02*
X135829761Y-50765476D01*
X135877380Y-50908333D01*
X135877380Y-51003571D01*
X135829761Y-51146428D01*
X135734523Y-51241666D01*
X135639285Y-51289285D01*
X135448809Y-51336904D01*
X135305952Y-51336904D01*
X135115476Y-51289285D01*
X135020238Y-51241666D01*
X134925000Y-51146428D01*
X134877380Y-51003571D01*
X134877380Y-50908333D01*
X134925000Y-50765476D01*
X134972619Y-50717857D01*
X135877380Y-49765476D02*
X135877380Y-50336904D01*
X135877380Y-50051190D02*
X134877380Y-50051190D01*
X135020238Y-50146428D01*
X135115476Y-50241666D01*
X135163095Y-50336904D01*
X135877380Y-48813095D02*
X135877380Y-49384523D01*
X135877380Y-49098809D02*
X134877380Y-49098809D01*
X135020238Y-49194047D01*
X135115476Y-49289285D01*
X135163095Y-49384523D01*
X124782142Y-56027380D02*
X124448809Y-55551190D01*
X124210714Y-56027380D02*
X124210714Y-55027380D01*
X124591666Y-55027380D01*
X124686904Y-55075000D01*
X124734523Y-55122619D01*
X124782142Y-55217857D01*
X124782142Y-55360714D01*
X124734523Y-55455952D01*
X124686904Y-55503571D01*
X124591666Y-55551190D01*
X124210714Y-55551190D01*
X125115476Y-55027380D02*
X125782142Y-55027380D01*
X125353571Y-56027380D01*
X126686904Y-56027380D02*
X126115476Y-56027380D01*
X126401190Y-56027380D02*
X126401190Y-55027380D01*
X126305952Y-55170238D01*
X126210714Y-55265476D01*
X126115476Y-55313095D01*
X135782142Y-106217857D02*
X135829761Y-106265476D01*
X135877380Y-106408333D01*
X135877380Y-106503571D01*
X135829761Y-106646428D01*
X135734523Y-106741666D01*
X135639285Y-106789285D01*
X135448809Y-106836904D01*
X135305952Y-106836904D01*
X135115476Y-106789285D01*
X135020238Y-106741666D01*
X134925000Y-106646428D01*
X134877380Y-106503571D01*
X134877380Y-106408333D01*
X134925000Y-106265476D01*
X134972619Y-106217857D01*
X135210714Y-105360714D02*
X135877380Y-105360714D01*
X134829761Y-105598809D02*
X135544047Y-105836904D01*
X135544047Y-105217857D01*
X135877380Y-104313095D02*
X135877380Y-104884523D01*
X135877380Y-104598809D02*
X134877380Y-104598809D01*
X135020238Y-104694047D01*
X135115476Y-104789285D01*
X135163095Y-104884523D01*
X115588333Y-79027380D02*
X115255000Y-78551190D01*
X115016904Y-79027380D02*
X115016904Y-78027380D01*
X115397857Y-78027380D01*
X115493095Y-78075000D01*
X115540714Y-78122619D01*
X115588333Y-78217857D01*
X115588333Y-78360714D01*
X115540714Y-78455952D01*
X115493095Y-78503571D01*
X115397857Y-78551190D01*
X115016904Y-78551190D01*
X115921666Y-78027380D02*
X116540714Y-78027380D01*
X116207380Y-78408333D01*
X116350238Y-78408333D01*
X116445476Y-78455952D01*
X116493095Y-78503571D01*
X116540714Y-78598809D01*
X116540714Y-78836904D01*
X116493095Y-78932142D01*
X116445476Y-78979761D01*
X116350238Y-79027380D01*
X116064523Y-79027380D01*
X115969285Y-78979761D01*
X115921666Y-78932142D01*
X124862142Y-111527380D02*
X124528809Y-111051190D01*
X124290714Y-111527380D02*
X124290714Y-110527380D01*
X124671666Y-110527380D01*
X124766904Y-110575000D01*
X124814523Y-110622619D01*
X124862142Y-110717857D01*
X124862142Y-110860714D01*
X124814523Y-110955952D01*
X124766904Y-111003571D01*
X124671666Y-111051190D01*
X124290714Y-111051190D01*
X125195476Y-110527380D02*
X125862142Y-110527380D01*
X125433571Y-111527380D01*
X126671666Y-110860714D02*
X126671666Y-111527380D01*
X126433571Y-110479761D02*
X126195476Y-111194047D01*
X126814523Y-111194047D01*
X115588333Y-116027380D02*
X115255000Y-115551190D01*
X115016904Y-116027380D02*
X115016904Y-115027380D01*
X115397857Y-115027380D01*
X115493095Y-115075000D01*
X115540714Y-115122619D01*
X115588333Y-115217857D01*
X115588333Y-115360714D01*
X115540714Y-115455952D01*
X115493095Y-115503571D01*
X115397857Y-115551190D01*
X115016904Y-115551190D01*
X116493095Y-115027380D02*
X116016904Y-115027380D01*
X115969285Y-115503571D01*
X116016904Y-115455952D01*
X116112142Y-115408333D01*
X116350238Y-115408333D01*
X116445476Y-115455952D01*
X116493095Y-115503571D01*
X116540714Y-115598809D01*
X116540714Y-115836904D01*
X116493095Y-115932142D01*
X116445476Y-115979761D01*
X116350238Y-116027380D01*
X116112142Y-116027380D01*
X116016904Y-115979761D01*
X115969285Y-115932142D01*
X108115476Y-148027380D02*
X108115476Y-148741666D01*
X108067857Y-148884523D01*
X107972619Y-148979761D01*
X107829761Y-149027380D01*
X107734523Y-149027380D01*
X108496428Y-148027380D02*
X109115476Y-148027380D01*
X108782142Y-148408333D01*
X108925000Y-148408333D01*
X109020238Y-148455952D01*
X109067857Y-148503571D01*
X109115476Y-148598809D01*
X109115476Y-148836904D01*
X109067857Y-148932142D01*
X109020238Y-148979761D01*
X108925000Y-149027380D01*
X108639285Y-149027380D01*
X108544047Y-148979761D01*
X108496428Y-148932142D01*
X109686904Y-148455952D02*
X109591666Y-148408333D01*
X109544047Y-148360714D01*
X109496428Y-148265476D01*
X109496428Y-148217857D01*
X109544047Y-148122619D01*
X109591666Y-148075000D01*
X109686904Y-148027380D01*
X109877380Y-148027380D01*
X109972619Y-148075000D01*
X110020238Y-148122619D01*
X110067857Y-148217857D01*
X110067857Y-148265476D01*
X110020238Y-148360714D01*
X109972619Y-148408333D01*
X109877380Y-148455952D01*
X109686904Y-148455952D01*
X109591666Y-148503571D01*
X109544047Y-148551190D01*
X109496428Y-148646428D01*
X109496428Y-148836904D01*
X109544047Y-148932142D01*
X109591666Y-148979761D01*
X109686904Y-149027380D01*
X109877380Y-149027380D01*
X109972619Y-148979761D01*
X110020238Y-148932142D01*
X110067857Y-148836904D01*
X110067857Y-148646428D01*
X110020238Y-148551190D01*
X109972619Y-148503571D01*
X109877380Y-148455952D01*
X121832142Y-47717857D02*
X121879761Y-47765476D01*
X121927380Y-47908333D01*
X121927380Y-48003571D01*
X121879761Y-48146428D01*
X121784523Y-48241666D01*
X121689285Y-48289285D01*
X121498809Y-48336904D01*
X121355952Y-48336904D01*
X121165476Y-48289285D01*
X121070238Y-48241666D01*
X120975000Y-48146428D01*
X120927380Y-48003571D01*
X120927380Y-47908333D01*
X120975000Y-47765476D01*
X121022619Y-47717857D01*
X121927380Y-46765476D02*
X121927380Y-47336904D01*
X121927380Y-47051190D02*
X120927380Y-47051190D01*
X121070238Y-47146428D01*
X121165476Y-47241666D01*
X121213095Y-47336904D01*
X121355952Y-46194047D02*
X121308333Y-46289285D01*
X121260714Y-46336904D01*
X121165476Y-46384523D01*
X121117857Y-46384523D01*
X121022619Y-46336904D01*
X120975000Y-46289285D01*
X120927380Y-46194047D01*
X120927380Y-46003571D01*
X120975000Y-45908333D01*
X121022619Y-45860714D01*
X121117857Y-45813095D01*
X121165476Y-45813095D01*
X121260714Y-45860714D01*
X121308333Y-45908333D01*
X121355952Y-46003571D01*
X121355952Y-46194047D01*
X121403571Y-46289285D01*
X121451190Y-46336904D01*
X121546428Y-46384523D01*
X121736904Y-46384523D01*
X121832142Y-46336904D01*
X121879761Y-46289285D01*
X121927380Y-46194047D01*
X121927380Y-46003571D01*
X121879761Y-45908333D01*
X121832142Y-45860714D01*
X121736904Y-45813095D01*
X121546428Y-45813095D01*
X121451190Y-45860714D01*
X121403571Y-45908333D01*
X121355952Y-46003571D01*
X118127380Y-105717857D02*
X117651190Y-106051190D01*
X118127380Y-106289285D02*
X117127380Y-106289285D01*
X117127380Y-105908333D01*
X117175000Y-105813095D01*
X117222619Y-105765476D01*
X117317857Y-105717857D01*
X117460714Y-105717857D01*
X117555952Y-105765476D01*
X117603571Y-105813095D01*
X117651190Y-105908333D01*
X117651190Y-106289285D01*
X117127380Y-104860714D02*
X117127380Y-105051190D01*
X117175000Y-105146428D01*
X117222619Y-105194047D01*
X117365476Y-105289285D01*
X117555952Y-105336904D01*
X117936904Y-105336904D01*
X118032142Y-105289285D01*
X118079761Y-105241666D01*
X118127380Y-105146428D01*
X118127380Y-104955952D01*
X118079761Y-104860714D01*
X118032142Y-104813095D01*
X117936904Y-104765476D01*
X117698809Y-104765476D01*
X117603571Y-104813095D01*
X117555952Y-104860714D01*
X117508333Y-104955952D01*
X117508333Y-105146428D01*
X117555952Y-105241666D01*
X117603571Y-105289285D01*
X117698809Y-105336904D01*
X117555952Y-104194047D02*
X117508333Y-104289285D01*
X117460714Y-104336904D01*
X117365476Y-104384523D01*
X117317857Y-104384523D01*
X117222619Y-104336904D01*
X117175000Y-104289285D01*
X117127380Y-104194047D01*
X117127380Y-104003571D01*
X117175000Y-103908333D01*
X117222619Y-103860714D01*
X117317857Y-103813095D01*
X117365476Y-103813095D01*
X117460714Y-103860714D01*
X117508333Y-103908333D01*
X117555952Y-104003571D01*
X117555952Y-104194047D01*
X117603571Y-104289285D01*
X117651190Y-104336904D01*
X117746428Y-104384523D01*
X117936904Y-104384523D01*
X118032142Y-104336904D01*
X118079761Y-104289285D01*
X118127380Y-104194047D01*
X118127380Y-104003571D01*
X118079761Y-103908333D01*
X118032142Y-103860714D01*
X117936904Y-103813095D01*
X117746428Y-103813095D01*
X117651190Y-103860714D01*
X117603571Y-103908333D01*
X117555952Y-104003571D01*
X122032142Y-121717857D02*
X122079761Y-121765476D01*
X122127380Y-121908333D01*
X122127380Y-122003571D01*
X122079761Y-122146428D01*
X121984523Y-122241666D01*
X121889285Y-122289285D01*
X121698809Y-122336904D01*
X121555952Y-122336904D01*
X121365476Y-122289285D01*
X121270238Y-122241666D01*
X121175000Y-122146428D01*
X121127380Y-122003571D01*
X121127380Y-121908333D01*
X121175000Y-121765476D01*
X121222619Y-121717857D01*
X121127380Y-121384523D02*
X121127380Y-120765476D01*
X121508333Y-121098809D01*
X121508333Y-120955952D01*
X121555952Y-120860714D01*
X121603571Y-120813095D01*
X121698809Y-120765476D01*
X121936904Y-120765476D01*
X122032142Y-120813095D01*
X122079761Y-120860714D01*
X122127380Y-120955952D01*
X122127380Y-121241666D01*
X122079761Y-121336904D01*
X122032142Y-121384523D01*
X121555952Y-120194047D02*
X121508333Y-120289285D01*
X121460714Y-120336904D01*
X121365476Y-120384523D01*
X121317857Y-120384523D01*
X121222619Y-120336904D01*
X121175000Y-120289285D01*
X121127380Y-120194047D01*
X121127380Y-120003571D01*
X121175000Y-119908333D01*
X121222619Y-119860714D01*
X121317857Y-119813095D01*
X121365476Y-119813095D01*
X121460714Y-119860714D01*
X121508333Y-119908333D01*
X121555952Y-120003571D01*
X121555952Y-120194047D01*
X121603571Y-120289285D01*
X121651190Y-120336904D01*
X121746428Y-120384523D01*
X121936904Y-120384523D01*
X122032142Y-120336904D01*
X122079761Y-120289285D01*
X122127380Y-120194047D01*
X122127380Y-120003571D01*
X122079761Y-119908333D01*
X122032142Y-119860714D01*
X121936904Y-119813095D01*
X121746428Y-119813095D01*
X121651190Y-119860714D01*
X121603571Y-119908333D01*
X121555952Y-120003571D01*
X136032142Y-142717857D02*
X136079761Y-142765476D01*
X136127380Y-142908333D01*
X136127380Y-143003571D01*
X136079761Y-143146428D01*
X135984523Y-143241666D01*
X135889285Y-143289285D01*
X135698809Y-143336904D01*
X135555952Y-143336904D01*
X135365476Y-143289285D01*
X135270238Y-143241666D01*
X135175000Y-143146428D01*
X135127380Y-143003571D01*
X135127380Y-142908333D01*
X135175000Y-142765476D01*
X135222619Y-142717857D01*
X135127380Y-142384523D02*
X135127380Y-141765476D01*
X135508333Y-142098809D01*
X135508333Y-141955952D01*
X135555952Y-141860714D01*
X135603571Y-141813095D01*
X135698809Y-141765476D01*
X135936904Y-141765476D01*
X136032142Y-141813095D01*
X136079761Y-141860714D01*
X136127380Y-141955952D01*
X136127380Y-142241666D01*
X136079761Y-142336904D01*
X136032142Y-142384523D01*
X135127380Y-141432142D02*
X135127380Y-140765476D01*
X136127380Y-141194047D01*
X118377380Y-142297857D02*
X117901190Y-142631190D01*
X118377380Y-142869285D02*
X117377380Y-142869285D01*
X117377380Y-142488333D01*
X117425000Y-142393095D01*
X117472619Y-142345476D01*
X117567857Y-142297857D01*
X117710714Y-142297857D01*
X117805952Y-142345476D01*
X117853571Y-142393095D01*
X117901190Y-142488333D01*
X117901190Y-142869285D01*
X117377380Y-141964523D02*
X117377380Y-141297857D01*
X118377380Y-141726428D01*
X117377380Y-140726428D02*
X117377380Y-140631190D01*
X117425000Y-140535952D01*
X117472619Y-140488333D01*
X117567857Y-140440714D01*
X117758333Y-140393095D01*
X117996428Y-140393095D01*
X118186904Y-140440714D01*
X118282142Y-140488333D01*
X118329761Y-140535952D01*
X118377380Y-140631190D01*
X118377380Y-140726428D01*
X118329761Y-140821666D01*
X118282142Y-140869285D01*
X118186904Y-140916904D01*
X117996428Y-140964523D01*
X117758333Y-140964523D01*
X117567857Y-140916904D01*
X117472619Y-140869285D01*
X117425000Y-140821666D01*
X117377380Y-140726428D01*
X124862142Y-93027380D02*
X124528809Y-92551190D01*
X124290714Y-93027380D02*
X124290714Y-92027380D01*
X124671666Y-92027380D01*
X124766904Y-92075000D01*
X124814523Y-92122619D01*
X124862142Y-92217857D01*
X124862142Y-92360714D01*
X124814523Y-92455952D01*
X124766904Y-92503571D01*
X124671666Y-92551190D01*
X124290714Y-92551190D01*
X125195476Y-92027380D02*
X125862142Y-92027380D01*
X125433571Y-93027380D01*
X126147857Y-92027380D02*
X126766904Y-92027380D01*
X126433571Y-92408333D01*
X126576428Y-92408333D01*
X126671666Y-92455952D01*
X126719285Y-92503571D01*
X126766904Y-92598809D01*
X126766904Y-92836904D01*
X126719285Y-92932142D01*
X126671666Y-92979761D01*
X126576428Y-93027380D01*
X126290714Y-93027380D01*
X126195476Y-92979761D01*
X126147857Y-92932142D01*
X127877380Y-86336904D02*
X128686904Y-86336904D01*
X128782142Y-86289285D01*
X128829761Y-86241666D01*
X128877380Y-86146428D01*
X128877380Y-85955952D01*
X128829761Y-85860714D01*
X128782142Y-85813095D01*
X128686904Y-85765476D01*
X127877380Y-85765476D01*
X127877380Y-85384523D02*
X127877380Y-84765476D01*
X128258333Y-85098809D01*
X128258333Y-84955952D01*
X128305952Y-84860714D01*
X128353571Y-84813095D01*
X128448809Y-84765476D01*
X128686904Y-84765476D01*
X128782142Y-84813095D01*
X128829761Y-84860714D01*
X128877380Y-84955952D01*
X128877380Y-85241666D01*
X128829761Y-85336904D01*
X128782142Y-85384523D01*
X125112142Y-148027380D02*
X124778809Y-147551190D01*
X124540714Y-148027380D02*
X124540714Y-147027380D01*
X124921666Y-147027380D01*
X125016904Y-147075000D01*
X125064523Y-147122619D01*
X125112142Y-147217857D01*
X125112142Y-147360714D01*
X125064523Y-147455952D01*
X125016904Y-147503571D01*
X124921666Y-147551190D01*
X124540714Y-147551190D01*
X125445476Y-147027380D02*
X126112142Y-147027380D01*
X125683571Y-148027380D01*
X126921666Y-147027380D02*
X126731190Y-147027380D01*
X126635952Y-147075000D01*
X126588333Y-147122619D01*
X126493095Y-147265476D01*
X126445476Y-147455952D01*
X126445476Y-147836904D01*
X126493095Y-147932142D01*
X126540714Y-147979761D01*
X126635952Y-148027380D01*
X126826428Y-148027380D01*
X126921666Y-147979761D01*
X126969285Y-147932142D01*
X127016904Y-147836904D01*
X127016904Y-147598809D01*
X126969285Y-147503571D01*
X126921666Y-147455952D01*
X126826428Y-147408333D01*
X126635952Y-147408333D01*
X126540714Y-147455952D01*
X126493095Y-147503571D01*
X126445476Y-147598809D01*
X127877380Y-104846904D02*
X128686904Y-104846904D01*
X128782142Y-104799285D01*
X128829761Y-104751666D01*
X128877380Y-104656428D01*
X128877380Y-104465952D01*
X128829761Y-104370714D01*
X128782142Y-104323095D01*
X128686904Y-104275476D01*
X127877380Y-104275476D01*
X128210714Y-103370714D02*
X128877380Y-103370714D01*
X127829761Y-103608809D02*
X128544047Y-103846904D01*
X128544047Y-103227857D01*
X115668333Y-41847380D02*
X115335000Y-41371190D01*
X115096904Y-41847380D02*
X115096904Y-40847380D01*
X115477857Y-40847380D01*
X115573095Y-40895000D01*
X115620714Y-40942619D01*
X115668333Y-41037857D01*
X115668333Y-41180714D01*
X115620714Y-41275952D01*
X115573095Y-41323571D01*
X115477857Y-41371190D01*
X115096904Y-41371190D01*
X116620714Y-41847380D02*
X116049285Y-41847380D01*
X116335000Y-41847380D02*
X116335000Y-40847380D01*
X116239761Y-40990238D01*
X116144523Y-41085476D01*
X116049285Y-41133095D01*
X135782142Y-84717857D02*
X135829761Y-84765476D01*
X135877380Y-84908333D01*
X135877380Y-85003571D01*
X135829761Y-85146428D01*
X135734523Y-85241666D01*
X135639285Y-85289285D01*
X135448809Y-85336904D01*
X135305952Y-85336904D01*
X135115476Y-85289285D01*
X135020238Y-85241666D01*
X134925000Y-85146428D01*
X134877380Y-85003571D01*
X134877380Y-84908333D01*
X134925000Y-84765476D01*
X134972619Y-84717857D01*
X135877380Y-83765476D02*
X135877380Y-84336904D01*
X135877380Y-84051190D02*
X134877380Y-84051190D01*
X135020238Y-84146428D01*
X135115476Y-84241666D01*
X135163095Y-84336904D01*
X134877380Y-82860714D02*
X134877380Y-83336904D01*
X135353571Y-83384523D01*
X135305952Y-83336904D01*
X135258333Y-83241666D01*
X135258333Y-83003571D01*
X135305952Y-82908333D01*
X135353571Y-82860714D01*
X135448809Y-82813095D01*
X135686904Y-82813095D01*
X135782142Y-82860714D01*
X135829761Y-82908333D01*
X135877380Y-83003571D01*
X135877380Y-83241666D01*
X135829761Y-83336904D01*
X135782142Y-83384523D01*
X127612142Y-116027380D02*
X127278809Y-115551190D01*
X127040714Y-116027380D02*
X127040714Y-115027380D01*
X127421666Y-115027380D01*
X127516904Y-115075000D01*
X127564523Y-115122619D01*
X127612142Y-115217857D01*
X127612142Y-115360714D01*
X127564523Y-115455952D01*
X127516904Y-115503571D01*
X127421666Y-115551190D01*
X127040714Y-115551190D01*
X128564523Y-116027380D02*
X127993095Y-116027380D01*
X128278809Y-116027380D02*
X128278809Y-115027380D01*
X128183571Y-115170238D01*
X128088333Y-115265476D01*
X127993095Y-115313095D01*
X128945476Y-115122619D02*
X128993095Y-115075000D01*
X129088333Y-115027380D01*
X129326428Y-115027380D01*
X129421666Y-115075000D01*
X129469285Y-115122619D01*
X129516904Y-115217857D01*
X129516904Y-115313095D01*
X129469285Y-115455952D01*
X128897857Y-116027380D01*
X129516904Y-116027380D01*
X128088333Y-60527380D02*
X127755000Y-60051190D01*
X127516904Y-60527380D02*
X127516904Y-59527380D01*
X127897857Y-59527380D01*
X127993095Y-59575000D01*
X128040714Y-59622619D01*
X128088333Y-59717857D01*
X128088333Y-59860714D01*
X128040714Y-59955952D01*
X127993095Y-60003571D01*
X127897857Y-60051190D01*
X127516904Y-60051190D01*
X128659761Y-59955952D02*
X128564523Y-59908333D01*
X128516904Y-59860714D01*
X128469285Y-59765476D01*
X128469285Y-59717857D01*
X128516904Y-59622619D01*
X128564523Y-59575000D01*
X128659761Y-59527380D01*
X128850238Y-59527380D01*
X128945476Y-59575000D01*
X128993095Y-59622619D01*
X129040714Y-59717857D01*
X129040714Y-59765476D01*
X128993095Y-59860714D01*
X128945476Y-59908333D01*
X128850238Y-59955952D01*
X128659761Y-59955952D01*
X128564523Y-60003571D01*
X128516904Y-60051190D01*
X128469285Y-60146428D01*
X128469285Y-60336904D01*
X128516904Y-60432142D01*
X128564523Y-60479761D01*
X128659761Y-60527380D01*
X128850238Y-60527380D01*
X128945476Y-60479761D01*
X128993095Y-60432142D01*
X129040714Y-60336904D01*
X129040714Y-60146428D01*
X128993095Y-60051190D01*
X128945476Y-60003571D01*
X128850238Y-59955952D01*
X118127380Y-68717857D02*
X117651190Y-69051190D01*
X118127380Y-69289285D02*
X117127380Y-69289285D01*
X117127380Y-68908333D01*
X117175000Y-68813095D01*
X117222619Y-68765476D01*
X117317857Y-68717857D01*
X117460714Y-68717857D01*
X117555952Y-68765476D01*
X117603571Y-68813095D01*
X117651190Y-68908333D01*
X117651190Y-69289285D01*
X117127380Y-67860714D02*
X117127380Y-68051190D01*
X117175000Y-68146428D01*
X117222619Y-68194047D01*
X117365476Y-68289285D01*
X117555952Y-68336904D01*
X117936904Y-68336904D01*
X118032142Y-68289285D01*
X118079761Y-68241666D01*
X118127380Y-68146428D01*
X118127380Y-67955952D01*
X118079761Y-67860714D01*
X118032142Y-67813095D01*
X117936904Y-67765476D01*
X117698809Y-67765476D01*
X117603571Y-67813095D01*
X117555952Y-67860714D01*
X117508333Y-67955952D01*
X117508333Y-68146428D01*
X117555952Y-68241666D01*
X117603571Y-68289285D01*
X117698809Y-68336904D01*
X117127380Y-66908333D02*
X117127380Y-67098809D01*
X117175000Y-67194047D01*
X117222619Y-67241666D01*
X117365476Y-67336904D01*
X117555952Y-67384523D01*
X117936904Y-67384523D01*
X118032142Y-67336904D01*
X118079761Y-67289285D01*
X118127380Y-67194047D01*
X118127380Y-67003571D01*
X118079761Y-66908333D01*
X118032142Y-66860714D01*
X117936904Y-66813095D01*
X117698809Y-66813095D01*
X117603571Y-66860714D01*
X117555952Y-66908333D01*
X117508333Y-67003571D01*
X117508333Y-67194047D01*
X117555952Y-67289285D01*
X117603571Y-67336904D01*
X117698809Y-67384523D01*
X132115476Y-93777380D02*
X132115476Y-94491666D01*
X132067857Y-94634523D01*
X131972619Y-94729761D01*
X131829761Y-94777380D01*
X131734523Y-94777380D01*
X132496428Y-93777380D02*
X133115476Y-93777380D01*
X132782142Y-94158333D01*
X132925000Y-94158333D01*
X133020238Y-94205952D01*
X133067857Y-94253571D01*
X133115476Y-94348809D01*
X133115476Y-94586904D01*
X133067857Y-94682142D01*
X133020238Y-94729761D01*
X132925000Y-94777380D01*
X132639285Y-94777380D01*
X132544047Y-94729761D01*
X132496428Y-94682142D01*
X133591666Y-94777380D02*
X133782142Y-94777380D01*
X133877380Y-94729761D01*
X133925000Y-94682142D01*
X134020238Y-94539285D01*
X134067857Y-94348809D01*
X134067857Y-93967857D01*
X134020238Y-93872619D01*
X133972619Y-93825000D01*
X133877380Y-93777380D01*
X133686904Y-93777380D01*
X133591666Y-93825000D01*
X133544047Y-93872619D01*
X133496428Y-93967857D01*
X133496428Y-94205952D01*
X133544047Y-94301190D01*
X133591666Y-94348809D01*
X133686904Y-94396428D01*
X133877380Y-94396428D01*
X133972619Y-94348809D01*
X134020238Y-94301190D01*
X134067857Y-94205952D01*
X118377380Y-124217857D02*
X117901190Y-124551190D01*
X118377380Y-124789285D02*
X117377380Y-124789285D01*
X117377380Y-124408333D01*
X117425000Y-124313095D01*
X117472619Y-124265476D01*
X117567857Y-124217857D01*
X117710714Y-124217857D01*
X117805952Y-124265476D01*
X117853571Y-124313095D01*
X117901190Y-124408333D01*
X117901190Y-124789285D01*
X117377380Y-123360714D02*
X117377380Y-123551190D01*
X117425000Y-123646428D01*
X117472619Y-123694047D01*
X117615476Y-123789285D01*
X117805952Y-123836904D01*
X118186904Y-123836904D01*
X118282142Y-123789285D01*
X118329761Y-123741666D01*
X118377380Y-123646428D01*
X118377380Y-123455952D01*
X118329761Y-123360714D01*
X118282142Y-123313095D01*
X118186904Y-123265476D01*
X117948809Y-123265476D01*
X117853571Y-123313095D01*
X117805952Y-123360714D01*
X117758333Y-123455952D01*
X117758333Y-123646428D01*
X117805952Y-123741666D01*
X117853571Y-123789285D01*
X117948809Y-123836904D01*
X118377380Y-122789285D02*
X118377380Y-122598809D01*
X118329761Y-122503571D01*
X118282142Y-122455952D01*
X118139285Y-122360714D01*
X117948809Y-122313095D01*
X117567857Y-122313095D01*
X117472619Y-122360714D01*
X117425000Y-122408333D01*
X117377380Y-122503571D01*
X117377380Y-122694047D01*
X117425000Y-122789285D01*
X117472619Y-122836904D01*
X117567857Y-122884523D01*
X117805952Y-122884523D01*
X117901190Y-122836904D01*
X117948809Y-122789285D01*
X117996428Y-122694047D01*
X117996428Y-122503571D01*
X117948809Y-122408333D01*
X117901190Y-122360714D01*
X117805952Y-122313095D01*
X127532142Y-79027380D02*
X127198809Y-78551190D01*
X126960714Y-79027380D02*
X126960714Y-78027380D01*
X127341666Y-78027380D01*
X127436904Y-78075000D01*
X127484523Y-78122619D01*
X127532142Y-78217857D01*
X127532142Y-78360714D01*
X127484523Y-78455952D01*
X127436904Y-78503571D01*
X127341666Y-78551190D01*
X126960714Y-78551190D01*
X128484523Y-79027380D02*
X127913095Y-79027380D01*
X128198809Y-79027380D02*
X128198809Y-78027380D01*
X128103571Y-78170238D01*
X128008333Y-78265476D01*
X127913095Y-78313095D01*
X129436904Y-79027380D02*
X128865476Y-79027380D01*
X129151190Y-79027380D02*
X129151190Y-78027380D01*
X129055952Y-78170238D01*
X128960714Y-78265476D01*
X128865476Y-78313095D01*
X124862142Y-74527380D02*
X124528809Y-74051190D01*
X124290714Y-74527380D02*
X124290714Y-73527380D01*
X124671666Y-73527380D01*
X124766904Y-73575000D01*
X124814523Y-73622619D01*
X124862142Y-73717857D01*
X124862142Y-73860714D01*
X124814523Y-73955952D01*
X124766904Y-74003571D01*
X124671666Y-74051190D01*
X124290714Y-74051190D01*
X125195476Y-73527380D02*
X125862142Y-73527380D01*
X125433571Y-74527380D01*
X126195476Y-73622619D02*
X126243095Y-73575000D01*
X126338333Y-73527380D01*
X126576428Y-73527380D01*
X126671666Y-73575000D01*
X126719285Y-73622619D01*
X126766904Y-73717857D01*
X126766904Y-73813095D01*
X126719285Y-73955952D01*
X126147857Y-74527380D01*
X126766904Y-74527380D01*
X128008333Y-134027380D02*
X127675000Y-133551190D01*
X127436904Y-134027380D02*
X127436904Y-133027380D01*
X127817857Y-133027380D01*
X127913095Y-133075000D01*
X127960714Y-133122619D01*
X128008333Y-133217857D01*
X128008333Y-133360714D01*
X127960714Y-133455952D01*
X127913095Y-133503571D01*
X127817857Y-133551190D01*
X127436904Y-133551190D01*
X128484523Y-134027380D02*
X128675000Y-134027380D01*
X128770238Y-133979761D01*
X128817857Y-133932142D01*
X128913095Y-133789285D01*
X128960714Y-133598809D01*
X128960714Y-133217857D01*
X128913095Y-133122619D01*
X128865476Y-133075000D01*
X128770238Y-133027380D01*
X128579761Y-133027380D01*
X128484523Y-133075000D01*
X128436904Y-133122619D01*
X128389285Y-133217857D01*
X128389285Y-133455952D01*
X128436904Y-133551190D01*
X128484523Y-133598809D01*
X128579761Y-133646428D01*
X128770238Y-133646428D01*
X128865476Y-133598809D01*
X128913095Y-133551190D01*
X128960714Y-133455952D01*
X125112142Y-130027380D02*
X124778809Y-129551190D01*
X124540714Y-130027380D02*
X124540714Y-129027380D01*
X124921666Y-129027380D01*
X125016904Y-129075000D01*
X125064523Y-129122619D01*
X125112142Y-129217857D01*
X125112142Y-129360714D01*
X125064523Y-129455952D01*
X125016904Y-129503571D01*
X124921666Y-129551190D01*
X124540714Y-129551190D01*
X125445476Y-129027380D02*
X126112142Y-129027380D01*
X125683571Y-130027380D01*
X126969285Y-129027380D02*
X126493095Y-129027380D01*
X126445476Y-129503571D01*
X126493095Y-129455952D01*
X126588333Y-129408333D01*
X126826428Y-129408333D01*
X126921666Y-129455952D01*
X126969285Y-129503571D01*
X127016904Y-129598809D01*
X127016904Y-129836904D01*
X126969285Y-129932142D01*
X126921666Y-129979761D01*
X126826428Y-130027380D01*
X126588333Y-130027380D01*
X126493095Y-129979761D01*
X126445476Y-129932142D01*
X127598333Y-97527380D02*
X127265000Y-97051190D01*
X127026904Y-97527380D02*
X127026904Y-96527380D01*
X127407857Y-96527380D01*
X127503095Y-96575000D01*
X127550714Y-96622619D01*
X127598333Y-96717857D01*
X127598333Y-96860714D01*
X127550714Y-96955952D01*
X127503095Y-97003571D01*
X127407857Y-97051190D01*
X127026904Y-97051190D01*
X127931666Y-96527380D02*
X128598333Y-96527380D01*
X128169761Y-97527380D01*
X105615476Y-74357380D02*
X105615476Y-75071666D01*
X105567857Y-75214523D01*
X105472619Y-75309761D01*
X105329761Y-75357380D01*
X105234523Y-75357380D01*
X105996428Y-74357380D02*
X106615476Y-74357380D01*
X106282142Y-74738333D01*
X106425000Y-74738333D01*
X106520238Y-74785952D01*
X106567857Y-74833571D01*
X106615476Y-74928809D01*
X106615476Y-75166904D01*
X106567857Y-75262142D01*
X106520238Y-75309761D01*
X106425000Y-75357380D01*
X106139285Y-75357380D01*
X106044047Y-75309761D01*
X105996428Y-75262142D01*
X106996428Y-74452619D02*
X107044047Y-74405000D01*
X107139285Y-74357380D01*
X107377380Y-74357380D01*
X107472619Y-74405000D01*
X107520238Y-74452619D01*
X107567857Y-74547857D01*
X107567857Y-74643095D01*
X107520238Y-74785952D01*
X106948809Y-75357380D01*
X107567857Y-75357380D01*
X121782142Y-103217857D02*
X121829761Y-103265476D01*
X121877380Y-103408333D01*
X121877380Y-103503571D01*
X121829761Y-103646428D01*
X121734523Y-103741666D01*
X121639285Y-103789285D01*
X121448809Y-103836904D01*
X121305952Y-103836904D01*
X121115476Y-103789285D01*
X121020238Y-103741666D01*
X120925000Y-103646428D01*
X120877380Y-103503571D01*
X120877380Y-103408333D01*
X120925000Y-103265476D01*
X120972619Y-103217857D01*
X121210714Y-102360714D02*
X121877380Y-102360714D01*
X120829761Y-102598809D02*
X121544047Y-102836904D01*
X121544047Y-102217857D01*
X120972619Y-101884523D02*
X120925000Y-101836904D01*
X120877380Y-101741666D01*
X120877380Y-101503571D01*
X120925000Y-101408333D01*
X120972619Y-101360714D01*
X121067857Y-101313095D01*
X121163095Y-101313095D01*
X121305952Y-101360714D01*
X121877380Y-101932142D01*
X121877380Y-101313095D01*
X135782142Y-69217857D02*
X135829761Y-69265476D01*
X135877380Y-69408333D01*
X135877380Y-69503571D01*
X135829761Y-69646428D01*
X135734523Y-69741666D01*
X135639285Y-69789285D01*
X135448809Y-69836904D01*
X135305952Y-69836904D01*
X135115476Y-69789285D01*
X135020238Y-69741666D01*
X134925000Y-69646428D01*
X134877380Y-69503571D01*
X134877380Y-69408333D01*
X134925000Y-69265476D01*
X134972619Y-69217857D01*
X135877380Y-68265476D02*
X135877380Y-68836904D01*
X135877380Y-68551190D02*
X134877380Y-68551190D01*
X135020238Y-68646428D01*
X135115476Y-68741666D01*
X135163095Y-68836904D01*
X134877380Y-67932142D02*
X134877380Y-67265476D01*
X135877380Y-67694047D01*
X122032142Y-139717857D02*
X122079761Y-139765476D01*
X122127380Y-139908333D01*
X122127380Y-140003571D01*
X122079761Y-140146428D01*
X121984523Y-140241666D01*
X121889285Y-140289285D01*
X121698809Y-140336904D01*
X121555952Y-140336904D01*
X121365476Y-140289285D01*
X121270238Y-140241666D01*
X121175000Y-140146428D01*
X121127380Y-140003571D01*
X121127380Y-139908333D01*
X121175000Y-139765476D01*
X121222619Y-139717857D01*
X121460714Y-138860714D02*
X122127380Y-138860714D01*
X121079761Y-139098809D02*
X121794047Y-139336904D01*
X121794047Y-138717857D01*
X121127380Y-138146428D02*
X121127380Y-138051190D01*
X121175000Y-137955952D01*
X121222619Y-137908333D01*
X121317857Y-137860714D01*
X121508333Y-137813095D01*
X121746428Y-137813095D01*
X121936904Y-137860714D01*
X122032142Y-137908333D01*
X122079761Y-137955952D01*
X122127380Y-138051190D01*
X122127380Y-138146428D01*
X122079761Y-138241666D01*
X122032142Y-138289285D01*
X121936904Y-138336904D01*
X121746428Y-138384523D01*
X121508333Y-138384523D01*
X121317857Y-138336904D01*
X121222619Y-138289285D01*
X121175000Y-138241666D01*
X121127380Y-138146428D01*
X105615476Y-129857380D02*
X105615476Y-130571666D01*
X105567857Y-130714523D01*
X105472619Y-130809761D01*
X105329761Y-130857380D01*
X105234523Y-130857380D01*
X105996428Y-129857380D02*
X106615476Y-129857380D01*
X106282142Y-130238333D01*
X106425000Y-130238333D01*
X106520238Y-130285952D01*
X106567857Y-130333571D01*
X106615476Y-130428809D01*
X106615476Y-130666904D01*
X106567857Y-130762142D01*
X106520238Y-130809761D01*
X106425000Y-130857380D01*
X106139285Y-130857380D01*
X106044047Y-130809761D01*
X105996428Y-130762142D01*
X106948809Y-129857380D02*
X107615476Y-129857380D01*
X107186904Y-130857380D01*
X115008333Y-97527380D02*
X114675000Y-97051190D01*
X114436904Y-97527380D02*
X114436904Y-96527380D01*
X114817857Y-96527380D01*
X114913095Y-96575000D01*
X114960714Y-96622619D01*
X115008333Y-96717857D01*
X115008333Y-96860714D01*
X114960714Y-96955952D01*
X114913095Y-97003571D01*
X114817857Y-97051190D01*
X114436904Y-97051190D01*
X115865476Y-96860714D02*
X115865476Y-97527380D01*
X115627380Y-96479761D02*
X115389285Y-97194047D01*
X116008333Y-97194047D01*
X118127380Y-87297857D02*
X117651190Y-87631190D01*
X118127380Y-87869285D02*
X117127380Y-87869285D01*
X117127380Y-87488333D01*
X117175000Y-87393095D01*
X117222619Y-87345476D01*
X117317857Y-87297857D01*
X117460714Y-87297857D01*
X117555952Y-87345476D01*
X117603571Y-87393095D01*
X117651190Y-87488333D01*
X117651190Y-87869285D01*
X117127380Y-86440714D02*
X117127380Y-86631190D01*
X117175000Y-86726428D01*
X117222619Y-86774047D01*
X117365476Y-86869285D01*
X117555952Y-86916904D01*
X117936904Y-86916904D01*
X118032142Y-86869285D01*
X118079761Y-86821666D01*
X118127380Y-86726428D01*
X118127380Y-86535952D01*
X118079761Y-86440714D01*
X118032142Y-86393095D01*
X117936904Y-86345476D01*
X117698809Y-86345476D01*
X117603571Y-86393095D01*
X117555952Y-86440714D01*
X117508333Y-86535952D01*
X117508333Y-86726428D01*
X117555952Y-86821666D01*
X117603571Y-86869285D01*
X117698809Y-86916904D01*
X117127380Y-86012142D02*
X117127380Y-85345476D01*
X118127380Y-85774047D01*
X127612142Y-42027380D02*
X127278809Y-41551190D01*
X127040714Y-42027380D02*
X127040714Y-41027380D01*
X127421666Y-41027380D01*
X127516904Y-41075000D01*
X127564523Y-41122619D01*
X127612142Y-41217857D01*
X127612142Y-41360714D01*
X127564523Y-41455952D01*
X127516904Y-41503571D01*
X127421666Y-41551190D01*
X127040714Y-41551190D01*
X128564523Y-42027380D02*
X127993095Y-42027380D01*
X128278809Y-42027380D02*
X128278809Y-41027380D01*
X128183571Y-41170238D01*
X128088333Y-41265476D01*
X127993095Y-41313095D01*
X129183571Y-41027380D02*
X129278809Y-41027380D01*
X129374047Y-41075000D01*
X129421666Y-41122619D01*
X129469285Y-41217857D01*
X129516904Y-41408333D01*
X129516904Y-41646428D01*
X129469285Y-41836904D01*
X129421666Y-41932142D01*
X129374047Y-41979761D01*
X129278809Y-42027380D01*
X129183571Y-42027380D01*
X129088333Y-41979761D01*
X129040714Y-41932142D01*
X128993095Y-41836904D01*
X128945476Y-41646428D01*
X128945476Y-41408333D01*
X128993095Y-41217857D01*
X129040714Y-41122619D01*
X129088333Y-41075000D01*
X129183571Y-41027380D01*
X127877380Y-67846904D02*
X128686904Y-67846904D01*
X128782142Y-67799285D01*
X128829761Y-67751666D01*
X128877380Y-67656428D01*
X128877380Y-67465952D01*
X128829761Y-67370714D01*
X128782142Y-67323095D01*
X128686904Y-67275476D01*
X127877380Y-67275476D01*
X127972619Y-66846904D02*
X127925000Y-66799285D01*
X127877380Y-66704047D01*
X127877380Y-66465952D01*
X127925000Y-66370714D01*
X127972619Y-66323095D01*
X128067857Y-66275476D01*
X128163095Y-66275476D01*
X128305952Y-66323095D01*
X128877380Y-66894523D01*
X128877380Y-66275476D01*
X127877380Y-123346904D02*
X128686904Y-123346904D01*
X128782142Y-123299285D01*
X128829761Y-123251666D01*
X128877380Y-123156428D01*
X128877380Y-122965952D01*
X128829761Y-122870714D01*
X128782142Y-122823095D01*
X128686904Y-122775476D01*
X127877380Y-122775476D01*
X127877380Y-121823095D02*
X127877380Y-122299285D01*
X128353571Y-122346904D01*
X128305952Y-122299285D01*
X128258333Y-122204047D01*
X128258333Y-121965952D01*
X128305952Y-121870714D01*
X128353571Y-121823095D01*
X128448809Y-121775476D01*
X128686904Y-121775476D01*
X128782142Y-121823095D01*
X128829761Y-121870714D01*
X128877380Y-121965952D01*
X128877380Y-122204047D01*
X128829761Y-122299285D01*
X128782142Y-122346904D01*
X115588333Y-60527380D02*
X115255000Y-60051190D01*
X115016904Y-60527380D02*
X115016904Y-59527380D01*
X115397857Y-59527380D01*
X115493095Y-59575000D01*
X115540714Y-59622619D01*
X115588333Y-59717857D01*
X115588333Y-59860714D01*
X115540714Y-59955952D01*
X115493095Y-60003571D01*
X115397857Y-60051190D01*
X115016904Y-60051190D01*
X115969285Y-59622619D02*
X116016904Y-59575000D01*
X116112142Y-59527380D01*
X116350238Y-59527380D01*
X116445476Y-59575000D01*
X116493095Y-59622619D01*
X116540714Y-59717857D01*
X116540714Y-59813095D01*
X116493095Y-59955952D01*
X115921666Y-60527380D01*
X116540714Y-60527380D01*
X136032142Y-124777857D02*
X136079761Y-124825476D01*
X136127380Y-124968333D01*
X136127380Y-125063571D01*
X136079761Y-125206428D01*
X135984523Y-125301666D01*
X135889285Y-125349285D01*
X135698809Y-125396904D01*
X135555952Y-125396904D01*
X135365476Y-125349285D01*
X135270238Y-125301666D01*
X135175000Y-125206428D01*
X135127380Y-125063571D01*
X135127380Y-124968333D01*
X135175000Y-124825476D01*
X135222619Y-124777857D01*
X135127380Y-124444523D02*
X135127380Y-123825476D01*
X135508333Y-124158809D01*
X135508333Y-124015952D01*
X135555952Y-123920714D01*
X135603571Y-123873095D01*
X135698809Y-123825476D01*
X135936904Y-123825476D01*
X136032142Y-123873095D01*
X136079761Y-123920714D01*
X136127380Y-124015952D01*
X136127380Y-124301666D01*
X136079761Y-124396904D01*
X136032142Y-124444523D01*
X136127380Y-123349285D02*
X136127380Y-123158809D01*
X136079761Y-123063571D01*
X136032142Y-123015952D01*
X135889285Y-122920714D01*
X135698809Y-122873095D01*
X135317857Y-122873095D01*
X135222619Y-122920714D01*
X135175000Y-122968333D01*
X135127380Y-123063571D01*
X135127380Y-123254047D01*
X135175000Y-123349285D01*
X135222619Y-123396904D01*
X135317857Y-123444523D01*
X135555952Y-123444523D01*
X135651190Y-123396904D01*
X135698809Y-123349285D01*
X135746428Y-123254047D01*
X135746428Y-123063571D01*
X135698809Y-122968333D01*
X135651190Y-122920714D01*
X135555952Y-122873095D01*
X105615476Y-92857380D02*
X105615476Y-93571666D01*
X105567857Y-93714523D01*
X105472619Y-93809761D01*
X105329761Y-93857380D01*
X105234523Y-93857380D01*
X105996428Y-92857380D02*
X106615476Y-92857380D01*
X106282142Y-93238333D01*
X106425000Y-93238333D01*
X106520238Y-93285952D01*
X106567857Y-93333571D01*
X106615476Y-93428809D01*
X106615476Y-93666904D01*
X106567857Y-93762142D01*
X106520238Y-93809761D01*
X106425000Y-93857380D01*
X106139285Y-93857380D01*
X106044047Y-93809761D01*
X105996428Y-93762142D01*
X106948809Y-92857380D02*
X107567857Y-92857380D01*
X107234523Y-93238333D01*
X107377380Y-93238333D01*
X107472619Y-93285952D01*
X107520238Y-93333571D01*
X107567857Y-93428809D01*
X107567857Y-93666904D01*
X107520238Y-93762142D01*
X107472619Y-93809761D01*
X107377380Y-93857380D01*
X107091666Y-93857380D01*
X106996428Y-93809761D01*
X106948809Y-93762142D01*
X121782142Y-66217857D02*
X121829761Y-66265476D01*
X121877380Y-66408333D01*
X121877380Y-66503571D01*
X121829761Y-66646428D01*
X121734523Y-66741666D01*
X121639285Y-66789285D01*
X121448809Y-66836904D01*
X121305952Y-66836904D01*
X121115476Y-66789285D01*
X121020238Y-66741666D01*
X120925000Y-66646428D01*
X120877380Y-66503571D01*
X120877380Y-66408333D01*
X120925000Y-66265476D01*
X120972619Y-66217857D01*
X121877380Y-65265476D02*
X121877380Y-65836904D01*
X121877380Y-65551190D02*
X120877380Y-65551190D01*
X121020238Y-65646428D01*
X121115476Y-65741666D01*
X121163095Y-65836904D01*
X120877380Y-64408333D02*
X120877380Y-64598809D01*
X120925000Y-64694047D01*
X120972619Y-64741666D01*
X121115476Y-64836904D01*
X121305952Y-64884523D01*
X121686904Y-64884523D01*
X121782142Y-64836904D01*
X121829761Y-64789285D01*
X121877380Y-64694047D01*
X121877380Y-64503571D01*
X121829761Y-64408333D01*
X121782142Y-64360714D01*
X121686904Y-64313095D01*
X121448809Y-64313095D01*
X121353571Y-64360714D01*
X121305952Y-64408333D01*
X121258333Y-64503571D01*
X121258333Y-64694047D01*
X121305952Y-64789285D01*
X121353571Y-64836904D01*
X121448809Y-64884523D01*
X128127380Y-141346904D02*
X128936904Y-141346904D01*
X129032142Y-141299285D01*
X129079761Y-141251666D01*
X129127380Y-141156428D01*
X129127380Y-140965952D01*
X129079761Y-140870714D01*
X129032142Y-140823095D01*
X128936904Y-140775476D01*
X128127380Y-140775476D01*
X128127380Y-139870714D02*
X128127380Y-140061190D01*
X128175000Y-140156428D01*
X128222619Y-140204047D01*
X128365476Y-140299285D01*
X128555952Y-140346904D01*
X128936904Y-140346904D01*
X129032142Y-140299285D01*
X129079761Y-140251666D01*
X129127380Y-140156428D01*
X129127380Y-139965952D01*
X129079761Y-139870714D01*
X129032142Y-139823095D01*
X128936904Y-139775476D01*
X128698809Y-139775476D01*
X128603571Y-139823095D01*
X128555952Y-139870714D01*
X128508333Y-139965952D01*
X128508333Y-140156428D01*
X128555952Y-140251666D01*
X128603571Y-140299285D01*
X128698809Y-140346904D01*
X105615476Y-55857380D02*
X105615476Y-56571666D01*
X105567857Y-56714523D01*
X105472619Y-56809761D01*
X105329761Y-56857380D01*
X105234523Y-56857380D01*
X105996428Y-55857380D02*
X106615476Y-55857380D01*
X106282142Y-56238333D01*
X106425000Y-56238333D01*
X106520238Y-56285952D01*
X106567857Y-56333571D01*
X106615476Y-56428809D01*
X106615476Y-56666904D01*
X106567857Y-56762142D01*
X106520238Y-56809761D01*
X106425000Y-56857380D01*
X106139285Y-56857380D01*
X106044047Y-56809761D01*
X105996428Y-56762142D01*
X107567857Y-56857380D02*
X106996428Y-56857380D01*
X107282142Y-56857380D02*
X107282142Y-55857380D01*
X107186904Y-56000238D01*
X107091666Y-56095476D01*
X106996428Y-56143095D01*
X127877380Y-49336904D02*
X128686904Y-49336904D01*
X128782142Y-49289285D01*
X128829761Y-49241666D01*
X128877380Y-49146428D01*
X128877380Y-48955952D01*
X128829761Y-48860714D01*
X128782142Y-48813095D01*
X128686904Y-48765476D01*
X127877380Y-48765476D01*
X128877380Y-47765476D02*
X128877380Y-48336904D01*
X128877380Y-48051190D02*
X127877380Y-48051190D01*
X128020238Y-48146428D01*
X128115476Y-48241666D01*
X128163095Y-48336904D01*
D12*
X120055000Y-80455000D02*
X122795000Y-80455000D01*
X122795000Y-87695000D02*
X122795000Y-80455000D01*
X120055000Y-87695000D02*
X120055000Y-80455000D01*
X120055000Y-87695000D02*
X122795000Y-87695000D01*
X119025000Y-132205000D02*
X112485000Y-132205000D01*
X119025000Y-134945000D02*
X119025000Y-132205000D01*
X112485000Y-132205000D02*
X112485000Y-134945000D01*
X111715000Y-133575000D02*
X112485000Y-133575000D01*
X112485000Y-134945000D02*
X119025000Y-134945000D01*
X119795000Y-133575000D02*
X119025000Y-133575000D01*
X119045000Y-52845000D02*
X119045000Y-46305000D01*
X119045000Y-46305000D02*
X116305000Y-46305000D01*
X117675000Y-45535000D02*
X117675000Y-46305000D01*
X116305000Y-46305000D02*
X116305000Y-52845000D01*
X117675000Y-53615000D02*
X117675000Y-52845000D01*
X116305000Y-52845000D02*
X119045000Y-52845000D01*
X107755000Y-110905000D02*
X106425000Y-110905000D01*
X107755000Y-108305000D02*
X107755000Y-95545000D01*
X107755000Y-95545000D02*
X105095000Y-95545000D01*
X107755000Y-108305000D02*
X105095000Y-108305000D01*
X107755000Y-109575000D02*
X107755000Y-110905000D01*
X105095000Y-108305000D02*
X105095000Y-95545000D01*
X134055000Y-53695000D02*
X134055000Y-46455000D01*
X134055000Y-53695000D02*
X136795000Y-53695000D01*
X136795000Y-53695000D02*
X136795000Y-46455000D01*
X134055000Y-46455000D02*
X136795000Y-46455000D01*
X122155000Y-54205000D02*
X122155000Y-56945000D01*
X128695000Y-56945000D02*
X128695000Y-54205000D01*
X128695000Y-54205000D02*
X122155000Y-54205000D01*
X121385000Y-55575000D02*
X122155000Y-55575000D01*
X122155000Y-56945000D02*
X128695000Y-56945000D01*
X129465000Y-55575000D02*
X128695000Y-55575000D01*
X136795000Y-109195000D02*
X136795000Y-101955000D01*
X134055000Y-109195000D02*
X136795000Y-109195000D01*
X134055000Y-101955000D02*
X136795000Y-101955000D01*
X134055000Y-109195000D02*
X134055000Y-101955000D01*
X119795000Y-78575000D02*
X119025000Y-78575000D01*
X112485000Y-79945000D02*
X119025000Y-79945000D01*
X119025000Y-79945000D02*
X119025000Y-77205000D01*
X111715000Y-78575000D02*
X112485000Y-78575000D01*
X119025000Y-77205000D02*
X112485000Y-77205000D01*
X112485000Y-77205000D02*
X112485000Y-79945000D01*
X122235000Y-109705000D02*
X122235000Y-112445000D01*
X129545000Y-111075000D02*
X128775000Y-111075000D01*
X128775000Y-112445000D02*
X128775000Y-109705000D01*
X121465000Y-111075000D02*
X122235000Y-111075000D01*
X128775000Y-109705000D02*
X122235000Y-109705000D01*
X122235000Y-112445000D02*
X128775000Y-112445000D01*
X119025000Y-114205000D02*
X112485000Y-114205000D01*
X119795000Y-115575000D02*
X119025000Y-115575000D01*
X119025000Y-116945000D02*
X119025000Y-114205000D01*
X111715000Y-115575000D02*
X112485000Y-115575000D01*
X112485000Y-116945000D02*
X119025000Y-116945000D01*
X112485000Y-114205000D02*
X112485000Y-116945000D01*
X107755000Y-132545000D02*
X105095000Y-132545000D01*
X107755000Y-145305000D02*
X105095000Y-145305000D01*
X107755000Y-147905000D02*
X106425000Y-147905000D01*
X107755000Y-145305000D02*
X107755000Y-132545000D01*
X107755000Y-146575000D02*
X107755000Y-147905000D01*
X105095000Y-145305000D02*
X105095000Y-132545000D01*
X120055000Y-50695000D02*
X122795000Y-50695000D01*
X120055000Y-50695000D02*
X120055000Y-43455000D01*
X120055000Y-43455000D02*
X122795000Y-43455000D01*
X122795000Y-50695000D02*
X122795000Y-43455000D01*
X116305000Y-108345000D02*
X119045000Y-108345000D01*
X116305000Y-101805000D02*
X116305000Y-108345000D01*
X117675000Y-101035000D02*
X117675000Y-101805000D01*
X119045000Y-108345000D02*
X119045000Y-101805000D01*
X119045000Y-101805000D02*
X116305000Y-101805000D01*
X117675000Y-109115000D02*
X117675000Y-108345000D01*
X123045000Y-124695000D02*
X120305000Y-124695000D01*
X123045000Y-117455000D02*
X120305000Y-117455000D01*
X120305000Y-117455000D02*
X120305000Y-124695000D01*
X123045000Y-117455000D02*
X123045000Y-124695000D01*
X137045000Y-145695000D02*
X137045000Y-138455000D01*
X134305000Y-145695000D02*
X137045000Y-145695000D01*
X134305000Y-138455000D02*
X137045000Y-138455000D01*
X134305000Y-145695000D02*
X134305000Y-138455000D01*
X119295000Y-144925000D02*
X119295000Y-138385000D01*
X117925000Y-137615000D02*
X117925000Y-138385000D01*
X116555000Y-144925000D02*
X119295000Y-144925000D01*
X117925000Y-145695000D02*
X117925000Y-144925000D01*
X116555000Y-138385000D02*
X116555000Y-144925000D01*
X119295000Y-138385000D02*
X116555000Y-138385000D01*
X128775000Y-91205000D02*
X122235000Y-91205000D01*
X122235000Y-91205000D02*
X122235000Y-93945000D01*
X128775000Y-93945000D02*
X128775000Y-91205000D01*
X129545000Y-92575000D02*
X128775000Y-92575000D01*
X122235000Y-93945000D02*
X128775000Y-93945000D01*
X121465000Y-92575000D02*
X122235000Y-92575000D01*
X133555000Y-84585000D02*
X133555000Y-82935000D01*
X133615000Y-90725000D02*
X133615000Y-80445000D01*
X123215000Y-80445000D02*
X123215000Y-90725000D01*
X133555000Y-82935000D02*
X123275000Y-82935000D01*
X123275000Y-88235000D02*
X133555000Y-88235000D01*
X133615000Y-80445000D02*
X123215000Y-80445000D01*
X123215000Y-90725000D02*
X133615000Y-90725000D01*
X133555000Y-88235000D02*
X133555000Y-86585000D01*
X123275000Y-82935000D02*
X123275000Y-88235000D01*
X133555000Y-84585000D02*
G75*
G03*
X133555000Y-86585000I0J-1000000D01*
G01*
X129025000Y-146205000D02*
X122485000Y-146205000D01*
X121715000Y-147575000D02*
X122485000Y-147575000D01*
X129795000Y-147575000D02*
X129025000Y-147575000D01*
X122485000Y-146205000D02*
X122485000Y-148945000D01*
X129025000Y-148945000D02*
X129025000Y-146205000D01*
X122485000Y-148945000D02*
X129025000Y-148945000D01*
X123275000Y-101435000D02*
X123275000Y-106735000D01*
X133555000Y-101435000D02*
X123275000Y-101435000D01*
X133555000Y-106735000D02*
X133555000Y-105085000D01*
X123275000Y-106735000D02*
X133555000Y-106735000D01*
X133615000Y-98945000D02*
X123215000Y-98945000D01*
X123215000Y-109225000D02*
X133615000Y-109225000D01*
X133555000Y-103085000D02*
X133555000Y-101435000D01*
X133615000Y-109225000D02*
X133615000Y-98945000D01*
X123215000Y-98945000D02*
X123215000Y-109225000D01*
X133555000Y-103085000D02*
G75*
G03*
X133555000Y-105085000I0J-1000000D01*
G01*
X119025000Y-42945000D02*
X119025000Y-40205000D01*
X112485000Y-40205000D02*
X112485000Y-42945000D01*
X111715000Y-41575000D02*
X112485000Y-41575000D01*
X119025000Y-40205000D02*
X112485000Y-40205000D01*
X119795000Y-41575000D02*
X119025000Y-41575000D01*
X112485000Y-42945000D02*
X119025000Y-42945000D01*
X136795000Y-87695000D02*
X136795000Y-80455000D01*
X134055000Y-80455000D02*
X136795000Y-80455000D01*
X134055000Y-87695000D02*
X134055000Y-80455000D01*
X134055000Y-87695000D02*
X136795000Y-87695000D01*
X124985000Y-116945000D02*
X131525000Y-116945000D01*
X131525000Y-114205000D02*
X124985000Y-114205000D01*
X124215000Y-115575000D02*
X124985000Y-115575000D01*
X131525000Y-116945000D02*
X131525000Y-114205000D01*
X124985000Y-114205000D02*
X124985000Y-116945000D01*
X132295000Y-115575000D02*
X131525000Y-115575000D01*
X132295000Y-60075000D02*
X131525000Y-60075000D01*
X124215000Y-60075000D02*
X124985000Y-60075000D01*
X131525000Y-58705000D02*
X124985000Y-58705000D01*
X124985000Y-58705000D02*
X124985000Y-61445000D01*
X131525000Y-61445000D02*
X131525000Y-58705000D01*
X124985000Y-61445000D02*
X131525000Y-61445000D01*
X117675000Y-64035000D02*
X117675000Y-64805000D01*
X119045000Y-71345000D02*
X119045000Y-64805000D01*
X116305000Y-64805000D02*
X116305000Y-71345000D01*
X116305000Y-71345000D02*
X119045000Y-71345000D01*
X117675000Y-72115000D02*
X117675000Y-71345000D01*
X119045000Y-64805000D02*
X116305000Y-64805000D01*
X134595000Y-88745000D02*
X135925000Y-88745000D01*
X134595000Y-91345000D02*
X134595000Y-99025000D01*
X137255000Y-91345000D02*
X137255000Y-99025000D01*
X134595000Y-91345000D02*
X137255000Y-91345000D01*
X134595000Y-90075000D02*
X134595000Y-88745000D01*
X134595000Y-99025000D02*
X137255000Y-99025000D01*
X119295000Y-120305000D02*
X116555000Y-120305000D01*
X117925000Y-119535000D02*
X117925000Y-120305000D01*
X116555000Y-120305000D02*
X116555000Y-126845000D01*
X117925000Y-127615000D02*
X117925000Y-126845000D01*
X119295000Y-126845000D02*
X119295000Y-120305000D01*
X116555000Y-126845000D02*
X119295000Y-126845000D01*
X132215000Y-78575000D02*
X131445000Y-78575000D01*
X131445000Y-79945000D02*
X131445000Y-77205000D01*
X124905000Y-77205000D02*
X124905000Y-79945000D01*
X124905000Y-79945000D02*
X131445000Y-79945000D01*
X124135000Y-78575000D02*
X124905000Y-78575000D01*
X131445000Y-77205000D02*
X124905000Y-77205000D01*
X129545000Y-74075000D02*
X128775000Y-74075000D01*
X128775000Y-72705000D02*
X122235000Y-72705000D01*
X121465000Y-74075000D02*
X122235000Y-74075000D01*
X122235000Y-75445000D02*
X128775000Y-75445000D01*
X128775000Y-75445000D02*
X128775000Y-72705000D01*
X122235000Y-72705000D02*
X122235000Y-75445000D01*
X124905000Y-132205000D02*
X124905000Y-134945000D01*
X132215000Y-133575000D02*
X131445000Y-133575000D01*
X131445000Y-132205000D02*
X124905000Y-132205000D01*
X124905000Y-134945000D02*
X131445000Y-134945000D01*
X131445000Y-134945000D02*
X131445000Y-132205000D01*
X124135000Y-133575000D02*
X124905000Y-133575000D01*
X129025000Y-128205000D02*
X122485000Y-128205000D01*
X129025000Y-130945000D02*
X129025000Y-128205000D01*
X121715000Y-129575000D02*
X122485000Y-129575000D01*
X122485000Y-130945000D02*
X129025000Y-130945000D01*
X129795000Y-129575000D02*
X129025000Y-129575000D01*
X122485000Y-128205000D02*
X122485000Y-130945000D01*
X123725000Y-97075000D02*
X124495000Y-97075000D01*
X131035000Y-98445000D02*
X131035000Y-95705000D01*
X131805000Y-97075000D02*
X131035000Y-97075000D01*
X124495000Y-98445000D02*
X131035000Y-98445000D01*
X124495000Y-95705000D02*
X124495000Y-98445000D01*
X131035000Y-95705000D02*
X124495000Y-95705000D01*
X107755000Y-72575000D02*
X107755000Y-73905000D01*
X107755000Y-71305000D02*
X107755000Y-58545000D01*
X107755000Y-58545000D02*
X105095000Y-58545000D01*
X107755000Y-71305000D02*
X105095000Y-71305000D01*
X107755000Y-73905000D02*
X106425000Y-73905000D01*
X105095000Y-71305000D02*
X105095000Y-58545000D01*
X122795000Y-106195000D02*
X120055000Y-106195000D01*
X122795000Y-98955000D02*
X122795000Y-106195000D01*
X122795000Y-98955000D02*
X120055000Y-98955000D01*
X120055000Y-98955000D02*
X120055000Y-106195000D01*
X134055000Y-64955000D02*
X136795000Y-64955000D01*
X134055000Y-72195000D02*
X136795000Y-72195000D01*
X134055000Y-72195000D02*
X134055000Y-64955000D01*
X136795000Y-72195000D02*
X136795000Y-64955000D01*
X120305000Y-135455000D02*
X120305000Y-142695000D01*
X123045000Y-135455000D02*
X120305000Y-135455000D01*
X123045000Y-135455000D02*
X123045000Y-142695000D01*
X123045000Y-142695000D02*
X120305000Y-142695000D01*
X107755000Y-128075000D02*
X107755000Y-129405000D01*
X107755000Y-126805000D02*
X107755000Y-114045000D01*
X107755000Y-126805000D02*
X105095000Y-126805000D01*
X107755000Y-129405000D02*
X106425000Y-129405000D01*
X107755000Y-114045000D02*
X105095000Y-114045000D01*
X105095000Y-126805000D02*
X105095000Y-114045000D01*
X111305000Y-97075000D02*
X112075000Y-97075000D01*
X112075000Y-98445000D02*
X118615000Y-98445000D01*
X112075000Y-95705000D02*
X112075000Y-98445000D01*
X119385000Y-97075000D02*
X118615000Y-97075000D01*
X118615000Y-95705000D02*
X112075000Y-95705000D01*
X118615000Y-98445000D02*
X118615000Y-95705000D01*
X116305000Y-83385000D02*
X116305000Y-89925000D01*
X119045000Y-89925000D02*
X119045000Y-83385000D01*
X117675000Y-90695000D02*
X117675000Y-89925000D01*
X119045000Y-83385000D02*
X116305000Y-83385000D01*
X117675000Y-82615000D02*
X117675000Y-83385000D01*
X116305000Y-89925000D02*
X119045000Y-89925000D01*
X131525000Y-42945000D02*
X131525000Y-40205000D01*
X124985000Y-40205000D02*
X124985000Y-42945000D01*
X131525000Y-40205000D02*
X124985000Y-40205000D01*
X132295000Y-41575000D02*
X131525000Y-41575000D01*
X124985000Y-42945000D02*
X131525000Y-42945000D01*
X124215000Y-41575000D02*
X124985000Y-41575000D01*
X123215000Y-72225000D02*
X133615000Y-72225000D01*
X123275000Y-69735000D02*
X133555000Y-69735000D01*
X133615000Y-61945000D02*
X123215000Y-61945000D01*
X123275000Y-64435000D02*
X123275000Y-69735000D01*
X133615000Y-72225000D02*
X133615000Y-61945000D01*
X133555000Y-66085000D02*
X133555000Y-64435000D01*
X133555000Y-69735000D02*
X133555000Y-68085000D01*
X123215000Y-61945000D02*
X123215000Y-72225000D01*
X133555000Y-64435000D02*
X123275000Y-64435000D01*
X133555000Y-66085000D02*
G75*
G03*
X133555000Y-68085000I0J-1000000D01*
G01*
X133805000Y-121585000D02*
X133805000Y-119935000D01*
X123465000Y-117445000D02*
X123465000Y-127725000D01*
X123525000Y-125235000D02*
X133805000Y-125235000D01*
X133805000Y-119935000D02*
X123525000Y-119935000D01*
X133865000Y-117445000D02*
X123465000Y-117445000D01*
X133865000Y-127725000D02*
X133865000Y-117445000D01*
X123465000Y-127725000D02*
X133865000Y-127725000D01*
X133805000Y-125235000D02*
X133805000Y-123585000D01*
X123525000Y-119935000D02*
X123525000Y-125235000D01*
X133805000Y-121585000D02*
G75*
G03*
X133805000Y-123585000I0J-1000000D01*
G01*
X112485000Y-61445000D02*
X119025000Y-61445000D01*
X111715000Y-60075000D02*
X112485000Y-60075000D01*
X119795000Y-60075000D02*
X119025000Y-60075000D01*
X112485000Y-58705000D02*
X112485000Y-61445000D01*
X119025000Y-58705000D02*
X112485000Y-58705000D01*
X119025000Y-61445000D02*
X119025000Y-58705000D01*
X137045000Y-127695000D02*
X137045000Y-120455000D01*
X134305000Y-120455000D02*
X137045000Y-120455000D01*
X134305000Y-127695000D02*
X137045000Y-127695000D01*
X134305000Y-127695000D02*
X134305000Y-120455000D01*
X107755000Y-89805000D02*
X107755000Y-77045000D01*
X105095000Y-89805000D02*
X105095000Y-77045000D01*
X107755000Y-77045000D02*
X105095000Y-77045000D01*
X107755000Y-92405000D02*
X106425000Y-92405000D01*
X107755000Y-91075000D02*
X107755000Y-92405000D01*
X107755000Y-89805000D02*
X105095000Y-89805000D01*
X122795000Y-69195000D02*
X122795000Y-61955000D01*
X120055000Y-61955000D02*
X122795000Y-61955000D01*
X120055000Y-69195000D02*
X122795000Y-69195000D01*
X120055000Y-69195000D02*
X120055000Y-61955000D01*
X133805000Y-143235000D02*
X133805000Y-141585000D01*
X133865000Y-145725000D02*
X133865000Y-135445000D01*
X123465000Y-145725000D02*
X133865000Y-145725000D01*
X123465000Y-135445000D02*
X123465000Y-145725000D01*
X133805000Y-137935000D02*
X123525000Y-137935000D01*
X133865000Y-135445000D02*
X123465000Y-135445000D01*
X123525000Y-137935000D02*
X123525000Y-143235000D01*
X133805000Y-139585000D02*
X133805000Y-137935000D01*
X123525000Y-143235000D02*
X133805000Y-143235000D01*
X133805000Y-139585000D02*
G75*
G03*
X133805000Y-141585000I0J-1000000D01*
G01*
X105095000Y-52805000D02*
X105095000Y-40045000D01*
X107755000Y-55405000D02*
X106425000Y-55405000D01*
X107755000Y-52805000D02*
X107755000Y-40045000D01*
X107755000Y-40045000D02*
X105095000Y-40045000D01*
X107755000Y-54075000D02*
X107755000Y-55405000D01*
X107755000Y-52805000D02*
X105095000Y-52805000D01*
X123215000Y-53725000D02*
X133615000Y-53725000D01*
X123215000Y-43445000D02*
X123215000Y-53725000D01*
X123275000Y-51235000D02*
X133555000Y-51235000D01*
X133555000Y-47585000D02*
X133555000Y-45935000D01*
X123275000Y-45935000D02*
X123275000Y-51235000D01*
X133615000Y-53725000D02*
X133615000Y-43445000D01*
X133555000Y-45935000D02*
X123275000Y-45935000D01*
X133555000Y-51235000D02*
X133555000Y-49585000D01*
X133615000Y-43445000D02*
X123215000Y-43445000D01*
X133555000Y-47585000D02*
G75*
G03*
X133555000Y-49585000I0J-1000000D01*
G01*
%LPC*%
D13*
X121425000Y-86575000D03*
X121425000Y-81575000D03*
X120835000Y-133575000D03*
D14*
X110675000Y-133575000D03*
D13*
X117675000Y-54655000D03*
D14*
X117675000Y-44495000D03*
D15*
X106425000Y-109575000D03*
D16*
X106425000Y-107035000D03*
X106425000Y-104495000D03*
X106425000Y-101955000D03*
X106425000Y-99415000D03*
X106425000Y-96875000D03*
D13*
X135425000Y-52575000D03*
X135425000Y-47575000D03*
X120345000Y-55575000D03*
D14*
X130505000Y-55575000D03*
D13*
X135425000Y-108075000D03*
X135425000Y-103075000D03*
X120835000Y-78575000D03*
D14*
X110675000Y-78575000D03*
D13*
X120425000Y-111075000D03*
D14*
X130585000Y-111075000D03*
D13*
X120835000Y-115575000D03*
D14*
X110675000Y-115575000D03*
D15*
X106425000Y-146575000D03*
D16*
X106425000Y-144035000D03*
X106425000Y-141495000D03*
X106425000Y-138955000D03*
X106425000Y-136415000D03*
X106425000Y-133875000D03*
D13*
X121425000Y-49575000D03*
X121425000Y-44575000D03*
X117675000Y-110155000D03*
D14*
X117675000Y-99995000D03*
D13*
X121675000Y-118575000D03*
X121675000Y-123575000D03*
X135675000Y-144575000D03*
X135675000Y-139575000D03*
X117925000Y-146735000D03*
D14*
X117925000Y-136575000D03*
D13*
X120425000Y-92575000D03*
D14*
X130585000Y-92575000D03*
D17*
X132225000Y-81775000D03*
D14*
X129685000Y-81775000D03*
X127145000Y-81775000D03*
X124605000Y-81775000D03*
X124605000Y-89395000D03*
X127145000Y-89395000D03*
X129685000Y-89395000D03*
X132225000Y-89395000D03*
D13*
X120675000Y-147575000D03*
D14*
X130835000Y-147575000D03*
D17*
X132225000Y-100275000D03*
D14*
X129685000Y-100275000D03*
X127145000Y-100275000D03*
X124605000Y-100275000D03*
X124605000Y-107895000D03*
X127145000Y-107895000D03*
X129685000Y-107895000D03*
X132225000Y-107895000D03*
D13*
X120835000Y-41575000D03*
D14*
X110675000Y-41575000D03*
D13*
X135425000Y-86575000D03*
X135425000Y-81575000D03*
X123175000Y-115575000D03*
D14*
X133335000Y-115575000D03*
D13*
X123175000Y-60075000D03*
D14*
X133335000Y-60075000D03*
D13*
X117675000Y-73155000D03*
D14*
X117675000Y-62995000D03*
D15*
X135925000Y-90075000D03*
D16*
X135925000Y-92615000D03*
X135925000Y-95155000D03*
X135925000Y-97695000D03*
D13*
X117925000Y-128655000D03*
D14*
X117925000Y-118495000D03*
D13*
X123095000Y-78575000D03*
D14*
X133255000Y-78575000D03*
D13*
X120425000Y-74075000D03*
D14*
X130585000Y-74075000D03*
D13*
X123095000Y-133575000D03*
D14*
X133255000Y-133575000D03*
D13*
X120675000Y-129575000D03*
D14*
X130835000Y-129575000D03*
D13*
X122685000Y-97075000D03*
D14*
X132845000Y-97075000D03*
D15*
X106425000Y-72575000D03*
D16*
X106425000Y-70035000D03*
X106425000Y-67495000D03*
X106425000Y-64955000D03*
X106425000Y-62415000D03*
X106425000Y-59875000D03*
D13*
X121425000Y-100075000D03*
X121425000Y-105075000D03*
X135425000Y-71075000D03*
X135425000Y-66075000D03*
X121675000Y-136575000D03*
X121675000Y-141575000D03*
D15*
X106425000Y-128075000D03*
D16*
X106425000Y-125535000D03*
X106425000Y-122995000D03*
X106425000Y-120455000D03*
X106425000Y-117915000D03*
X106425000Y-115375000D03*
D13*
X120425000Y-97075000D03*
D14*
X110265000Y-97075000D03*
D13*
X117675000Y-91735000D03*
D14*
X117675000Y-81575000D03*
D13*
X123175000Y-41575000D03*
D14*
X133335000Y-41575000D03*
D17*
X132225000Y-63275000D03*
D14*
X129685000Y-63275000D03*
X127145000Y-63275000D03*
X124605000Y-63275000D03*
X124605000Y-70895000D03*
X127145000Y-70895000D03*
X129685000Y-70895000D03*
X132225000Y-70895000D03*
D17*
X132475000Y-118775000D03*
D14*
X129935000Y-118775000D03*
X127395000Y-118775000D03*
X124855000Y-118775000D03*
X124855000Y-126395000D03*
X127395000Y-126395000D03*
X129935000Y-126395000D03*
X132475000Y-126395000D03*
D13*
X120835000Y-60075000D03*
D14*
X110675000Y-60075000D03*
D13*
X135675000Y-126575000D03*
X135675000Y-121575000D03*
D15*
X106425000Y-91075000D03*
D16*
X106425000Y-88535000D03*
X106425000Y-85995000D03*
X106425000Y-83455000D03*
X106425000Y-80915000D03*
X106425000Y-78375000D03*
D13*
X121425000Y-68075000D03*
X121425000Y-63075000D03*
D17*
X132475000Y-136775000D03*
D14*
X129935000Y-136775000D03*
X127395000Y-136775000D03*
X124855000Y-136775000D03*
X124855000Y-144395000D03*
X127395000Y-144395000D03*
X129935000Y-144395000D03*
X132475000Y-144395000D03*
D15*
X106425000Y-54075000D03*
D16*
X106425000Y-51535000D03*
X106425000Y-48995000D03*
X106425000Y-46455000D03*
X106425000Y-43915000D03*
X106425000Y-41375000D03*
D17*
X132225000Y-44775000D03*
D14*
X129685000Y-44775000D03*
X127145000Y-44775000D03*
X124605000Y-44775000D03*
X124605000Y-52395000D03*
X127145000Y-52395000D03*
X129685000Y-52395000D03*
X132225000Y-52395000D03*
D17*
X112175000Y-109575000D03*
D13*
X110175000Y-109575000D03*
D17*
X112175000Y-102075000D03*
D13*
X110175000Y-102075000D03*
D17*
X112175000Y-139075000D03*
D13*
X110175000Y-139075000D03*
D17*
X112175000Y-91075000D03*
D13*
X110175000Y-91075000D03*
D17*
X112175000Y-120575000D03*
D13*
X110175000Y-120575000D03*
D17*
X112175000Y-128075000D03*
D13*
X110175000Y-128075000D03*
D17*
X112175000Y-64825000D03*
D13*
X110175000Y-64825000D03*
D17*
X112175000Y-54075000D03*
D13*
X110175000Y-54075000D03*
D17*
X112175000Y-72575000D03*
D13*
X110175000Y-72575000D03*
D17*
X112175000Y-46575000D03*
D13*
X110175000Y-46575000D03*
D17*
X112175000Y-83575000D03*
D13*
X110175000Y-83575000D03*
D17*
X112175000Y-146325000D03*
D13*
X110175000Y-146325000D03*
M02*
