%FSLAX45Y45*%
G04 Gerber Fmt 4.5, Leading zero omitted, Abs format (unit mm)*
G04 Created by KiCad (PCBNEW (6.0.1)) date 2022-09-13 09:45:55*
%MOMM*%
%LPD*%
G01*
G04 APERTURE LIST*
%TA.AperFunction,Profile*%
%ADD10C,0.050000*%
%TD*%
%ADD11C,0.200000*%
%ADD12C,0.300000*%
%ADD13C,0.600000*%
%ADD14C,0.650000*%
G04 APERTURE END LIST*
D10*
X23700000Y-2750000D02*
X23700000Y-15550000D01*
X17700000Y-15550000D02*
X17700000Y-15100000D01*
X17700000Y-2750000D02*
X17700000Y-15100000D01*
X23700000Y-15550000D02*
X17700000Y-15550000D01*
X17700000Y-2750000D02*
X23700000Y-2750000D01*
D11*
D12*
X18450000Y-2900000D02*
X18750000Y-3200000D01*
X18750000Y-2900000D02*
X18450000Y-3200000D01*
D11*
X18475000Y-3190000D02*
X18725000Y-3190000D01*
X18475000Y-2910000D02*
X18725000Y-2910000D01*
X18725000Y-3190000D02*
G75*
G03*
X18725000Y-2910000I0J140000D01*
G01*
X18475000Y-2910000D02*
G75*
G03*
X18475000Y-3190000I0J-140000D01*
G01*
D12*
X18450000Y-15100000D02*
X18750000Y-15400000D01*
X18750000Y-15100000D02*
X18450000Y-15400000D01*
D11*
X18475000Y-15390000D02*
X18725000Y-15390000D01*
X18475000Y-15110000D02*
X18725000Y-15110000D01*
X18725000Y-15390000D02*
G75*
G03*
X18725000Y-15110000I0J140000D01*
G01*
X18475000Y-15110000D02*
G75*
G03*
X18475000Y-15390000I0J-140000D01*
G01*
D12*
X22650000Y-2900000D02*
X22950000Y-3200000D01*
X22950000Y-2900000D02*
X22650000Y-3200000D01*
D11*
X22675000Y-3190000D02*
X22925000Y-3190000D01*
X22675000Y-2910000D02*
X22925000Y-2910000D01*
X22925000Y-3190000D02*
G75*
G03*
X22925000Y-2910000I0J140000D01*
G01*
X22675000Y-2910000D02*
G75*
G03*
X22675000Y-3190000I0J-140000D01*
G01*
D12*
X22650000Y-15100000D02*
X22950000Y-15400000D01*
X22950000Y-15100000D02*
X22650000Y-15400000D01*
D11*
X22675000Y-15390000D02*
X22925000Y-15390000D01*
X22675000Y-15110000D02*
X22925000Y-15110000D01*
X22925000Y-15390000D02*
G75*
G03*
X22925000Y-15110000I0J140000D01*
G01*
X22675000Y-15110000D02*
G75*
G03*
X22675000Y-15390000I0J-140000D01*
G01*
D13*
X20000000Y-8050000D02*
G75*
G03*
X20000000Y-8050000I-300000J0D01*
G01*
X20000000Y-13950000D02*
G75*
G03*
X20000000Y-13950000I-300000J0D01*
G01*
X21000000Y-8050000D02*
G75*
G03*
X21000000Y-8050000I-300000J0D01*
G01*
X21000000Y-13950000D02*
G75*
G03*
X21000000Y-13950000I-300000J0D01*
G01*
X22000000Y-8050000D02*
G75*
G03*
X22000000Y-8050000I-300000J0D01*
G01*
X22000000Y-13950000D02*
G75*
G03*
X22000000Y-13950000I-300000J0D01*
G01*
D14*
X18900000Y-9975000D02*
X18900000Y-10625000D01*
X18575000Y-10300000D02*
X19225000Y-10300000D01*
X19200000Y-4025000D02*
X19200000Y-4675000D01*
X18875000Y-4350000D02*
X19525000Y-4350000D01*
X19400000Y-6025000D02*
X19400000Y-6675000D01*
X19075000Y-6350000D02*
X19725000Y-6350000D01*
X19400000Y-11925000D02*
X19400000Y-12575000D01*
X19075000Y-12250000D02*
X19725000Y-12250000D01*
X20050000Y-8825000D02*
X20050000Y-9475000D01*
X19725000Y-9150000D02*
X20375000Y-9150000D01*
X22000000Y-6025000D02*
X22000000Y-6675000D01*
X21675000Y-6350000D02*
X22325000Y-6350000D01*
X22000000Y-11925000D02*
X22000000Y-12575000D01*
X21675000Y-12250000D02*
X22325000Y-12250000D01*
X22200000Y-9925000D02*
X22200000Y-10575000D01*
X21875000Y-10250000D02*
X22525000Y-10250000D01*
X22500000Y-4075000D02*
X22500000Y-4725000D01*
X22175000Y-4400000D02*
X22825000Y-4400000D01*
D11*
X17955119Y-15862976D02*
X17955119Y-15662976D01*
X18002738Y-15662976D01*
X18031309Y-15672500D01*
X18050357Y-15691548D01*
X18059881Y-15710595D01*
X18069405Y-15748690D01*
X18069405Y-15777262D01*
X18059881Y-15815357D01*
X18050357Y-15834405D01*
X18031309Y-15853452D01*
X18002738Y-15862976D01*
X17955119Y-15862976D01*
X18155119Y-15862976D02*
X18155119Y-15729643D01*
X18155119Y-15767738D02*
X18164643Y-15748690D01*
X18174167Y-15739167D01*
X18193214Y-15729643D01*
X18212262Y-15729643D01*
X18278928Y-15862976D02*
X18278928Y-15729643D01*
X18278928Y-15662976D02*
X18269405Y-15672500D01*
X18278928Y-15682024D01*
X18288452Y-15672500D01*
X18278928Y-15662976D01*
X18278928Y-15682024D01*
X18402738Y-15862976D02*
X18383690Y-15853452D01*
X18374167Y-15834405D01*
X18374167Y-15662976D01*
X18507500Y-15862976D02*
X18488452Y-15853452D01*
X18478928Y-15834405D01*
X18478928Y-15662976D01*
X18736071Y-15862976D02*
X18736071Y-15662976D01*
X18802738Y-15805833D01*
X18869405Y-15662976D01*
X18869405Y-15862976D01*
X19050357Y-15862976D02*
X19050357Y-15758214D01*
X19040833Y-15739167D01*
X19021786Y-15729643D01*
X18983690Y-15729643D01*
X18964643Y-15739167D01*
X19050357Y-15853452D02*
X19031309Y-15862976D01*
X18983690Y-15862976D01*
X18964643Y-15853452D01*
X18955119Y-15834405D01*
X18955119Y-15815357D01*
X18964643Y-15796309D01*
X18983690Y-15786786D01*
X19031309Y-15786786D01*
X19050357Y-15777262D01*
X19145595Y-15729643D02*
X19145595Y-15929643D01*
X19145595Y-15739167D02*
X19164643Y-15729643D01*
X19202738Y-15729643D01*
X19221786Y-15739167D01*
X19231309Y-15748690D01*
X19240833Y-15767738D01*
X19240833Y-15824881D01*
X19231309Y-15843928D01*
X19221786Y-15853452D01*
X19202738Y-15862976D01*
X19164643Y-15862976D01*
X19145595Y-15853452D01*
X19326548Y-15843928D02*
X19336071Y-15853452D01*
X19326548Y-15862976D01*
X19317024Y-15853452D01*
X19326548Y-15843928D01*
X19326548Y-15862976D01*
X19326548Y-15739167D02*
X19336071Y-15748690D01*
X19326548Y-15758214D01*
X19317024Y-15748690D01*
X19326548Y-15739167D01*
X19326548Y-15758214D01*
X17497500Y-16092500D02*
X17697500Y-16292500D01*
X17697500Y-16092500D02*
X17497500Y-16292500D01*
X17936071Y-16082976D02*
X18059881Y-16082976D01*
X17993214Y-16159167D01*
X18021786Y-16159167D01*
X18040833Y-16168690D01*
X18050357Y-16178214D01*
X18059881Y-16197262D01*
X18059881Y-16244881D01*
X18050357Y-16263928D01*
X18040833Y-16273452D01*
X18021786Y-16282976D01*
X17964643Y-16282976D01*
X17945595Y-16273452D01*
X17936071Y-16263928D01*
X18145595Y-16263928D02*
X18155119Y-16273452D01*
X18145595Y-16282976D01*
X18136071Y-16273452D01*
X18145595Y-16263928D01*
X18145595Y-16282976D01*
X18278928Y-16082976D02*
X18297976Y-16082976D01*
X18317024Y-16092500D01*
X18326548Y-16102024D01*
X18336071Y-16121071D01*
X18345595Y-16159167D01*
X18345595Y-16206786D01*
X18336071Y-16244881D01*
X18326548Y-16263928D01*
X18317024Y-16273452D01*
X18297976Y-16282976D01*
X18278928Y-16282976D01*
X18259881Y-16273452D01*
X18250357Y-16263928D01*
X18240833Y-16244881D01*
X18231309Y-16206786D01*
X18231309Y-16159167D01*
X18240833Y-16121071D01*
X18250357Y-16102024D01*
X18259881Y-16092500D01*
X18278928Y-16082976D01*
X18469405Y-16082976D02*
X18488452Y-16082976D01*
X18507500Y-16092500D01*
X18517024Y-16102024D01*
X18526548Y-16121071D01*
X18536071Y-16159167D01*
X18536071Y-16206786D01*
X18526548Y-16244881D01*
X18517024Y-16263928D01*
X18507500Y-16273452D01*
X18488452Y-16282976D01*
X18469405Y-16282976D01*
X18450357Y-16273452D01*
X18440833Y-16263928D01*
X18431309Y-16244881D01*
X18421786Y-16206786D01*
X18421786Y-16159167D01*
X18431309Y-16121071D01*
X18440833Y-16102024D01*
X18450357Y-16092500D01*
X18469405Y-16082976D01*
X18659881Y-16082976D02*
X18678928Y-16082976D01*
X18697976Y-16092500D01*
X18707500Y-16102024D01*
X18717024Y-16121071D01*
X18726548Y-16159167D01*
X18726548Y-16206786D01*
X18717024Y-16244881D01*
X18707500Y-16263928D01*
X18697976Y-16273452D01*
X18678928Y-16282976D01*
X18659881Y-16282976D01*
X18640833Y-16273452D01*
X18631309Y-16263928D01*
X18621786Y-16244881D01*
X18612262Y-16206786D01*
X18612262Y-16159167D01*
X18621786Y-16121071D01*
X18631309Y-16102024D01*
X18640833Y-16092500D01*
X18659881Y-16082976D01*
X18812262Y-16282976D02*
X18812262Y-16149643D01*
X18812262Y-16168690D02*
X18821786Y-16159167D01*
X18840833Y-16149643D01*
X18869405Y-16149643D01*
X18888452Y-16159167D01*
X18897976Y-16178214D01*
X18897976Y-16282976D01*
X18897976Y-16178214D02*
X18907500Y-16159167D01*
X18926548Y-16149643D01*
X18955119Y-16149643D01*
X18974167Y-16159167D01*
X18983690Y-16178214D01*
X18983690Y-16282976D01*
X19078928Y-16282976D02*
X19078928Y-16149643D01*
X19078928Y-16168690D02*
X19088452Y-16159167D01*
X19107500Y-16149643D01*
X19136071Y-16149643D01*
X19155119Y-16159167D01*
X19164643Y-16178214D01*
X19164643Y-16282976D01*
X19164643Y-16178214D02*
X19174167Y-16159167D01*
X19193214Y-16149643D01*
X19221786Y-16149643D01*
X19240833Y-16159167D01*
X19250357Y-16178214D01*
X19250357Y-16282976D01*
X19640833Y-16073452D02*
X19469405Y-16330595D01*
X19897976Y-16082976D02*
X19917024Y-16082976D01*
X19936071Y-16092500D01*
X19945595Y-16102024D01*
X19955119Y-16121071D01*
X19964643Y-16159167D01*
X19964643Y-16206786D01*
X19955119Y-16244881D01*
X19945595Y-16263928D01*
X19936071Y-16273452D01*
X19917024Y-16282976D01*
X19897976Y-16282976D01*
X19878928Y-16273452D01*
X19869405Y-16263928D01*
X19859881Y-16244881D01*
X19850357Y-16206786D01*
X19850357Y-16159167D01*
X19859881Y-16121071D01*
X19869405Y-16102024D01*
X19878928Y-16092500D01*
X19897976Y-16082976D01*
X20050357Y-16263928D02*
X20059881Y-16273452D01*
X20050357Y-16282976D01*
X20040833Y-16273452D01*
X20050357Y-16263928D01*
X20050357Y-16282976D01*
X20250357Y-16282976D02*
X20136071Y-16282976D01*
X20193214Y-16282976D02*
X20193214Y-16082976D01*
X20174167Y-16111548D01*
X20155119Y-16130595D01*
X20136071Y-16140119D01*
X20440833Y-16282976D02*
X20326548Y-16282976D01*
X20383690Y-16282976D02*
X20383690Y-16082976D01*
X20364643Y-16111548D01*
X20345595Y-16130595D01*
X20326548Y-16140119D01*
X20555119Y-16168690D02*
X20536071Y-16159167D01*
X20526548Y-16149643D01*
X20517024Y-16130595D01*
X20517024Y-16121071D01*
X20526548Y-16102024D01*
X20536071Y-16092500D01*
X20555119Y-16082976D01*
X20593214Y-16082976D01*
X20612262Y-16092500D01*
X20621786Y-16102024D01*
X20631309Y-16121071D01*
X20631309Y-16130595D01*
X20621786Y-16149643D01*
X20612262Y-16159167D01*
X20593214Y-16168690D01*
X20555119Y-16168690D01*
X20536071Y-16178214D01*
X20526548Y-16187738D01*
X20517024Y-16206786D01*
X20517024Y-16244881D01*
X20526548Y-16263928D01*
X20536071Y-16273452D01*
X20555119Y-16282976D01*
X20593214Y-16282976D01*
X20612262Y-16273452D01*
X20621786Y-16263928D01*
X20631309Y-16244881D01*
X20631309Y-16206786D01*
X20621786Y-16187738D01*
X20612262Y-16178214D01*
X20593214Y-16168690D01*
X20821786Y-16282976D02*
X20707500Y-16282976D01*
X20764643Y-16282976D02*
X20764643Y-16082976D01*
X20745595Y-16111548D01*
X20726548Y-16130595D01*
X20707500Y-16140119D01*
X20897976Y-16082976D02*
X20897976Y-16121071D01*
X20974167Y-16082976D02*
X20974167Y-16121071D01*
X21269405Y-16359167D02*
X21259881Y-16349643D01*
X21240833Y-16321071D01*
X21231309Y-16302024D01*
X21221786Y-16273452D01*
X21212262Y-16225833D01*
X21212262Y-16187738D01*
X21221786Y-16140119D01*
X21231309Y-16111548D01*
X21240833Y-16092500D01*
X21259881Y-16063928D01*
X21269405Y-16054405D01*
X21383690Y-16082976D02*
X21402738Y-16082976D01*
X21421786Y-16092500D01*
X21431309Y-16102024D01*
X21440833Y-16121071D01*
X21450357Y-16159167D01*
X21450357Y-16206786D01*
X21440833Y-16244881D01*
X21431309Y-16263928D01*
X21421786Y-16273452D01*
X21402738Y-16282976D01*
X21383690Y-16282976D01*
X21364643Y-16273452D01*
X21355119Y-16263928D01*
X21345595Y-16244881D01*
X21336071Y-16206786D01*
X21336071Y-16159167D01*
X21345595Y-16121071D01*
X21355119Y-16102024D01*
X21364643Y-16092500D01*
X21383690Y-16082976D01*
X21688452Y-16282976D02*
X21688452Y-16082976D01*
X21774167Y-16282976D02*
X21774167Y-16178214D01*
X21764643Y-16159167D01*
X21745595Y-16149643D01*
X21717024Y-16149643D01*
X21697976Y-16159167D01*
X21688452Y-16168690D01*
X21897976Y-16282976D02*
X21878928Y-16273452D01*
X21869405Y-16263928D01*
X21859881Y-16244881D01*
X21859881Y-16187738D01*
X21869405Y-16168690D01*
X21878928Y-16159167D01*
X21897976Y-16149643D01*
X21926548Y-16149643D01*
X21945595Y-16159167D01*
X21955119Y-16168690D01*
X21964643Y-16187738D01*
X21964643Y-16244881D01*
X21955119Y-16263928D01*
X21945595Y-16273452D01*
X21926548Y-16282976D01*
X21897976Y-16282976D01*
X22078928Y-16282976D02*
X22059881Y-16273452D01*
X22050357Y-16254405D01*
X22050357Y-16082976D01*
X22231309Y-16273452D02*
X22212262Y-16282976D01*
X22174167Y-16282976D01*
X22155119Y-16273452D01*
X22145595Y-16254405D01*
X22145595Y-16178214D01*
X22155119Y-16159167D01*
X22174167Y-16149643D01*
X22212262Y-16149643D01*
X22231309Y-16159167D01*
X22240833Y-16178214D01*
X22240833Y-16197262D01*
X22145595Y-16216309D01*
X22317024Y-16273452D02*
X22336071Y-16282976D01*
X22374166Y-16282976D01*
X22393214Y-16273452D01*
X22402738Y-16254405D01*
X22402738Y-16244881D01*
X22393214Y-16225833D01*
X22374166Y-16216309D01*
X22345595Y-16216309D01*
X22326548Y-16206786D01*
X22317024Y-16187738D01*
X22317024Y-16178214D01*
X22326548Y-16159167D01*
X22345595Y-16149643D01*
X22374166Y-16149643D01*
X22393214Y-16159167D01*
X22640833Y-16206786D02*
X22793214Y-16206786D01*
X22717024Y-16282976D02*
X22717024Y-16130595D01*
X23126547Y-16149643D02*
X23126547Y-16282976D01*
X23078928Y-16073452D02*
X23031309Y-16216309D01*
X23155119Y-16216309D01*
X23374166Y-16273452D02*
X23393214Y-16282976D01*
X23431309Y-16282976D01*
X23450357Y-16273452D01*
X23459881Y-16254405D01*
X23459881Y-16244881D01*
X23450357Y-16225833D01*
X23431309Y-16216309D01*
X23402738Y-16216309D01*
X23383690Y-16206786D01*
X23374166Y-16187738D01*
X23374166Y-16178214D01*
X23383690Y-16159167D01*
X23402738Y-16149643D01*
X23431309Y-16149643D01*
X23450357Y-16159167D01*
X23574166Y-16282976D02*
X23555119Y-16273452D01*
X23545595Y-16254405D01*
X23545595Y-16082976D01*
X23678928Y-16282976D02*
X23659881Y-16273452D01*
X23650357Y-16263928D01*
X23640833Y-16244881D01*
X23640833Y-16187738D01*
X23650357Y-16168690D01*
X23659881Y-16159167D01*
X23678928Y-16149643D01*
X23707500Y-16149643D01*
X23726547Y-16159167D01*
X23736071Y-16168690D01*
X23745595Y-16187738D01*
X23745595Y-16244881D01*
X23736071Y-16263928D01*
X23726547Y-16273452D01*
X23707500Y-16282976D01*
X23678928Y-16282976D01*
X23802738Y-16149643D02*
X23878928Y-16149643D01*
X23831309Y-16082976D02*
X23831309Y-16254405D01*
X23840833Y-16273452D01*
X23859881Y-16282976D01*
X23878928Y-16282976D01*
X23936071Y-16273452D02*
X23955119Y-16282976D01*
X23993214Y-16282976D01*
X24012262Y-16273452D01*
X24021786Y-16254405D01*
X24021786Y-16244881D01*
X24012262Y-16225833D01*
X23993214Y-16216309D01*
X23964643Y-16216309D01*
X23945595Y-16206786D01*
X23936071Y-16187738D01*
X23936071Y-16178214D01*
X23945595Y-16159167D01*
X23964643Y-16149643D01*
X23993214Y-16149643D01*
X24012262Y-16159167D01*
X24088452Y-16359167D02*
X24097976Y-16349643D01*
X24117024Y-16321071D01*
X24126547Y-16302024D01*
X24136071Y-16273452D01*
X24145595Y-16225833D01*
X24145595Y-16187738D01*
X24136071Y-16140119D01*
X24126547Y-16111548D01*
X24117024Y-16092500D01*
X24097976Y-16063928D01*
X24088452Y-16054405D01*
X17697500Y-16512500D02*
G75*
G03*
X17697500Y-16512500I-100000J0D01*
G01*
X18040833Y-16402976D02*
X18002738Y-16402976D01*
X17983690Y-16412500D01*
X17974167Y-16422024D01*
X17955119Y-16450595D01*
X17945595Y-16488690D01*
X17945595Y-16564881D01*
X17955119Y-16583928D01*
X17964643Y-16593452D01*
X17983690Y-16602976D01*
X18021786Y-16602976D01*
X18040833Y-16593452D01*
X18050357Y-16583928D01*
X18059881Y-16564881D01*
X18059881Y-16517262D01*
X18050357Y-16498214D01*
X18040833Y-16488690D01*
X18021786Y-16479167D01*
X17983690Y-16479167D01*
X17964643Y-16488690D01*
X17955119Y-16498214D01*
X17945595Y-16517262D01*
X18145595Y-16583928D02*
X18155119Y-16593452D01*
X18145595Y-16602976D01*
X18136071Y-16593452D01*
X18145595Y-16583928D01*
X18145595Y-16602976D01*
X18278928Y-16402976D02*
X18297976Y-16402976D01*
X18317024Y-16412500D01*
X18326548Y-16422024D01*
X18336071Y-16441071D01*
X18345595Y-16479167D01*
X18345595Y-16526786D01*
X18336071Y-16564881D01*
X18326548Y-16583928D01*
X18317024Y-16593452D01*
X18297976Y-16602976D01*
X18278928Y-16602976D01*
X18259881Y-16593452D01*
X18250357Y-16583928D01*
X18240833Y-16564881D01*
X18231309Y-16526786D01*
X18231309Y-16479167D01*
X18240833Y-16441071D01*
X18250357Y-16422024D01*
X18259881Y-16412500D01*
X18278928Y-16402976D01*
X18469405Y-16402976D02*
X18488452Y-16402976D01*
X18507500Y-16412500D01*
X18517024Y-16422024D01*
X18526548Y-16441071D01*
X18536071Y-16479167D01*
X18536071Y-16526786D01*
X18526548Y-16564881D01*
X18517024Y-16583928D01*
X18507500Y-16593452D01*
X18488452Y-16602976D01*
X18469405Y-16602976D01*
X18450357Y-16593452D01*
X18440833Y-16583928D01*
X18431309Y-16564881D01*
X18421786Y-16526786D01*
X18421786Y-16479167D01*
X18431309Y-16441071D01*
X18440833Y-16422024D01*
X18450357Y-16412500D01*
X18469405Y-16402976D01*
X18659881Y-16402976D02*
X18678928Y-16402976D01*
X18697976Y-16412500D01*
X18707500Y-16422024D01*
X18717024Y-16441071D01*
X18726548Y-16479167D01*
X18726548Y-16526786D01*
X18717024Y-16564881D01*
X18707500Y-16583928D01*
X18697976Y-16593452D01*
X18678928Y-16602976D01*
X18659881Y-16602976D01*
X18640833Y-16593452D01*
X18631309Y-16583928D01*
X18621786Y-16564881D01*
X18612262Y-16526786D01*
X18612262Y-16479167D01*
X18621786Y-16441071D01*
X18631309Y-16422024D01*
X18640833Y-16412500D01*
X18659881Y-16402976D01*
X18812262Y-16602976D02*
X18812262Y-16469643D01*
X18812262Y-16488690D02*
X18821786Y-16479167D01*
X18840833Y-16469643D01*
X18869405Y-16469643D01*
X18888452Y-16479167D01*
X18897976Y-16498214D01*
X18897976Y-16602976D01*
X18897976Y-16498214D02*
X18907500Y-16479167D01*
X18926548Y-16469643D01*
X18955119Y-16469643D01*
X18974167Y-16479167D01*
X18983690Y-16498214D01*
X18983690Y-16602976D01*
X19078928Y-16602976D02*
X19078928Y-16469643D01*
X19078928Y-16488690D02*
X19088452Y-16479167D01*
X19107500Y-16469643D01*
X19136071Y-16469643D01*
X19155119Y-16479167D01*
X19164643Y-16498214D01*
X19164643Y-16602976D01*
X19164643Y-16498214D02*
X19174167Y-16479167D01*
X19193214Y-16469643D01*
X19221786Y-16469643D01*
X19240833Y-16479167D01*
X19250357Y-16498214D01*
X19250357Y-16602976D01*
X19640833Y-16393452D02*
X19469405Y-16650595D01*
X19897976Y-16402976D02*
X19917024Y-16402976D01*
X19936071Y-16412500D01*
X19945595Y-16422024D01*
X19955119Y-16441071D01*
X19964643Y-16479167D01*
X19964643Y-16526786D01*
X19955119Y-16564881D01*
X19945595Y-16583928D01*
X19936071Y-16593452D01*
X19917024Y-16602976D01*
X19897976Y-16602976D01*
X19878928Y-16593452D01*
X19869405Y-16583928D01*
X19859881Y-16564881D01*
X19850357Y-16526786D01*
X19850357Y-16479167D01*
X19859881Y-16441071D01*
X19869405Y-16422024D01*
X19878928Y-16412500D01*
X19897976Y-16402976D01*
X20050357Y-16583928D02*
X20059881Y-16593452D01*
X20050357Y-16602976D01*
X20040833Y-16593452D01*
X20050357Y-16583928D01*
X20050357Y-16602976D01*
X20136071Y-16422024D02*
X20145595Y-16412500D01*
X20164643Y-16402976D01*
X20212262Y-16402976D01*
X20231309Y-16412500D01*
X20240833Y-16422024D01*
X20250357Y-16441071D01*
X20250357Y-16460119D01*
X20240833Y-16488690D01*
X20126548Y-16602976D01*
X20250357Y-16602976D01*
X20317024Y-16402976D02*
X20440833Y-16402976D01*
X20374167Y-16479167D01*
X20402738Y-16479167D01*
X20421786Y-16488690D01*
X20431309Y-16498214D01*
X20440833Y-16517262D01*
X20440833Y-16564881D01*
X20431309Y-16583928D01*
X20421786Y-16593452D01*
X20402738Y-16602976D01*
X20345595Y-16602976D01*
X20326548Y-16593452D01*
X20317024Y-16583928D01*
X20612262Y-16402976D02*
X20574167Y-16402976D01*
X20555119Y-16412500D01*
X20545595Y-16422024D01*
X20526548Y-16450595D01*
X20517024Y-16488690D01*
X20517024Y-16564881D01*
X20526548Y-16583928D01*
X20536071Y-16593452D01*
X20555119Y-16602976D01*
X20593214Y-16602976D01*
X20612262Y-16593452D01*
X20621786Y-16583928D01*
X20631309Y-16564881D01*
X20631309Y-16517262D01*
X20621786Y-16498214D01*
X20612262Y-16488690D01*
X20593214Y-16479167D01*
X20555119Y-16479167D01*
X20536071Y-16488690D01*
X20526548Y-16498214D01*
X20517024Y-16517262D01*
X20707500Y-16422024D02*
X20717024Y-16412500D01*
X20736071Y-16402976D01*
X20783690Y-16402976D01*
X20802738Y-16412500D01*
X20812262Y-16422024D01*
X20821786Y-16441071D01*
X20821786Y-16460119D01*
X20812262Y-16488690D01*
X20697976Y-16602976D01*
X20821786Y-16602976D01*
X20897976Y-16402976D02*
X20897976Y-16441071D01*
X20974167Y-16402976D02*
X20974167Y-16441071D01*
X21269405Y-16679167D02*
X21259881Y-16669643D01*
X21240833Y-16641071D01*
X21231309Y-16622024D01*
X21221786Y-16593452D01*
X21212262Y-16545833D01*
X21212262Y-16507738D01*
X21221786Y-16460119D01*
X21231309Y-16431548D01*
X21240833Y-16412500D01*
X21259881Y-16383928D01*
X21269405Y-16374405D01*
X21431309Y-16402976D02*
X21393214Y-16402976D01*
X21374167Y-16412500D01*
X21364643Y-16422024D01*
X21345595Y-16450595D01*
X21336071Y-16488690D01*
X21336071Y-16564881D01*
X21345595Y-16583928D01*
X21355119Y-16593452D01*
X21374167Y-16602976D01*
X21412262Y-16602976D01*
X21431309Y-16593452D01*
X21440833Y-16583928D01*
X21450357Y-16564881D01*
X21450357Y-16517262D01*
X21440833Y-16498214D01*
X21431309Y-16488690D01*
X21412262Y-16479167D01*
X21374167Y-16479167D01*
X21355119Y-16488690D01*
X21345595Y-16498214D01*
X21336071Y-16517262D01*
X21688452Y-16602976D02*
X21688452Y-16402976D01*
X21774167Y-16602976D02*
X21774167Y-16498214D01*
X21764643Y-16479167D01*
X21745595Y-16469643D01*
X21717024Y-16469643D01*
X21697976Y-16479167D01*
X21688452Y-16488690D01*
X21897976Y-16602976D02*
X21878928Y-16593452D01*
X21869405Y-16583928D01*
X21859881Y-16564881D01*
X21859881Y-16507738D01*
X21869405Y-16488690D01*
X21878928Y-16479167D01*
X21897976Y-16469643D01*
X21926548Y-16469643D01*
X21945595Y-16479167D01*
X21955119Y-16488690D01*
X21964643Y-16507738D01*
X21964643Y-16564881D01*
X21955119Y-16583928D01*
X21945595Y-16593452D01*
X21926548Y-16602976D01*
X21897976Y-16602976D01*
X22078928Y-16602976D02*
X22059881Y-16593452D01*
X22050357Y-16574405D01*
X22050357Y-16402976D01*
X22231309Y-16593452D02*
X22212262Y-16602976D01*
X22174167Y-16602976D01*
X22155119Y-16593452D01*
X22145595Y-16574405D01*
X22145595Y-16498214D01*
X22155119Y-16479167D01*
X22174167Y-16469643D01*
X22212262Y-16469643D01*
X22231309Y-16479167D01*
X22240833Y-16498214D01*
X22240833Y-16517262D01*
X22145595Y-16536309D01*
X22317024Y-16593452D02*
X22336071Y-16602976D01*
X22374166Y-16602976D01*
X22393214Y-16593452D01*
X22402738Y-16574405D01*
X22402738Y-16564881D01*
X22393214Y-16545833D01*
X22374166Y-16536309D01*
X22345595Y-16536309D01*
X22326548Y-16526786D01*
X22317024Y-16507738D01*
X22317024Y-16498214D01*
X22326548Y-16479167D01*
X22345595Y-16469643D01*
X22374166Y-16469643D01*
X22393214Y-16479167D01*
X22469405Y-16679167D02*
X22478928Y-16669643D01*
X22497976Y-16641071D01*
X22507500Y-16622024D01*
X22517024Y-16593452D01*
X22526547Y-16545833D01*
X22526547Y-16507738D01*
X22517024Y-16460119D01*
X22507500Y-16431548D01*
X22497976Y-16412500D01*
X22478928Y-16383928D01*
X22469405Y-16374405D01*
X17597500Y-16732500D02*
X17597500Y-16932500D01*
X17497500Y-16832500D02*
X17697500Y-16832500D01*
X18040833Y-16722976D02*
X18002738Y-16722976D01*
X17983690Y-16732500D01*
X17974167Y-16742024D01*
X17955119Y-16770595D01*
X17945595Y-16808690D01*
X17945595Y-16884881D01*
X17955119Y-16903929D01*
X17964643Y-16913452D01*
X17983690Y-16922976D01*
X18021786Y-16922976D01*
X18040833Y-16913452D01*
X18050357Y-16903929D01*
X18059881Y-16884881D01*
X18059881Y-16837262D01*
X18050357Y-16818214D01*
X18040833Y-16808690D01*
X18021786Y-16799167D01*
X17983690Y-16799167D01*
X17964643Y-16808690D01*
X17955119Y-16818214D01*
X17945595Y-16837262D01*
X18145595Y-16903929D02*
X18155119Y-16913452D01*
X18145595Y-16922976D01*
X18136071Y-16913452D01*
X18145595Y-16903929D01*
X18145595Y-16922976D01*
X18336071Y-16722976D02*
X18240833Y-16722976D01*
X18231309Y-16818214D01*
X18240833Y-16808690D01*
X18259881Y-16799167D01*
X18307500Y-16799167D01*
X18326548Y-16808690D01*
X18336071Y-16818214D01*
X18345595Y-16837262D01*
X18345595Y-16884881D01*
X18336071Y-16903929D01*
X18326548Y-16913452D01*
X18307500Y-16922976D01*
X18259881Y-16922976D01*
X18240833Y-16913452D01*
X18231309Y-16903929D01*
X18469405Y-16722976D02*
X18488452Y-16722976D01*
X18507500Y-16732500D01*
X18517024Y-16742024D01*
X18526548Y-16761071D01*
X18536071Y-16799167D01*
X18536071Y-16846786D01*
X18526548Y-16884881D01*
X18517024Y-16903929D01*
X18507500Y-16913452D01*
X18488452Y-16922976D01*
X18469405Y-16922976D01*
X18450357Y-16913452D01*
X18440833Y-16903929D01*
X18431309Y-16884881D01*
X18421786Y-16846786D01*
X18421786Y-16799167D01*
X18431309Y-16761071D01*
X18440833Y-16742024D01*
X18450357Y-16732500D01*
X18469405Y-16722976D01*
X18659881Y-16722976D02*
X18678928Y-16722976D01*
X18697976Y-16732500D01*
X18707500Y-16742024D01*
X18717024Y-16761071D01*
X18726548Y-16799167D01*
X18726548Y-16846786D01*
X18717024Y-16884881D01*
X18707500Y-16903929D01*
X18697976Y-16913452D01*
X18678928Y-16922976D01*
X18659881Y-16922976D01*
X18640833Y-16913452D01*
X18631309Y-16903929D01*
X18621786Y-16884881D01*
X18612262Y-16846786D01*
X18612262Y-16799167D01*
X18621786Y-16761071D01*
X18631309Y-16742024D01*
X18640833Y-16732500D01*
X18659881Y-16722976D01*
X18812262Y-16922976D02*
X18812262Y-16789643D01*
X18812262Y-16808690D02*
X18821786Y-16799167D01*
X18840833Y-16789643D01*
X18869405Y-16789643D01*
X18888452Y-16799167D01*
X18897976Y-16818214D01*
X18897976Y-16922976D01*
X18897976Y-16818214D02*
X18907500Y-16799167D01*
X18926548Y-16789643D01*
X18955119Y-16789643D01*
X18974167Y-16799167D01*
X18983690Y-16818214D01*
X18983690Y-16922976D01*
X19078928Y-16922976D02*
X19078928Y-16789643D01*
X19078928Y-16808690D02*
X19088452Y-16799167D01*
X19107500Y-16789643D01*
X19136071Y-16789643D01*
X19155119Y-16799167D01*
X19164643Y-16818214D01*
X19164643Y-16922976D01*
X19164643Y-16818214D02*
X19174167Y-16799167D01*
X19193214Y-16789643D01*
X19221786Y-16789643D01*
X19240833Y-16799167D01*
X19250357Y-16818214D01*
X19250357Y-16922976D01*
X19640833Y-16713452D02*
X19469405Y-16970595D01*
X19897976Y-16722976D02*
X19917024Y-16722976D01*
X19936071Y-16732500D01*
X19945595Y-16742024D01*
X19955119Y-16761071D01*
X19964643Y-16799167D01*
X19964643Y-16846786D01*
X19955119Y-16884881D01*
X19945595Y-16903929D01*
X19936071Y-16913452D01*
X19917024Y-16922976D01*
X19897976Y-16922976D01*
X19878928Y-16913452D01*
X19869405Y-16903929D01*
X19859881Y-16884881D01*
X19850357Y-16846786D01*
X19850357Y-16799167D01*
X19859881Y-16761071D01*
X19869405Y-16742024D01*
X19878928Y-16732500D01*
X19897976Y-16722976D01*
X20050357Y-16903929D02*
X20059881Y-16913452D01*
X20050357Y-16922976D01*
X20040833Y-16913452D01*
X20050357Y-16903929D01*
X20050357Y-16922976D01*
X20136071Y-16742024D02*
X20145595Y-16732500D01*
X20164643Y-16722976D01*
X20212262Y-16722976D01*
X20231309Y-16732500D01*
X20240833Y-16742024D01*
X20250357Y-16761071D01*
X20250357Y-16780119D01*
X20240833Y-16808690D01*
X20126548Y-16922976D01*
X20250357Y-16922976D01*
X20431309Y-16722976D02*
X20336071Y-16722976D01*
X20326548Y-16818214D01*
X20336071Y-16808690D01*
X20355119Y-16799167D01*
X20402738Y-16799167D01*
X20421786Y-16808690D01*
X20431309Y-16818214D01*
X20440833Y-16837262D01*
X20440833Y-16884881D01*
X20431309Y-16903929D01*
X20421786Y-16913452D01*
X20402738Y-16922976D01*
X20355119Y-16922976D01*
X20336071Y-16913452D01*
X20326548Y-16903929D01*
X20621786Y-16722976D02*
X20526548Y-16722976D01*
X20517024Y-16818214D01*
X20526548Y-16808690D01*
X20545595Y-16799167D01*
X20593214Y-16799167D01*
X20612262Y-16808690D01*
X20621786Y-16818214D01*
X20631309Y-16837262D01*
X20631309Y-16884881D01*
X20621786Y-16903929D01*
X20612262Y-16913452D01*
X20593214Y-16922976D01*
X20545595Y-16922976D01*
X20526548Y-16913452D01*
X20517024Y-16903929D01*
X20726548Y-16922976D02*
X20764643Y-16922976D01*
X20783690Y-16913452D01*
X20793214Y-16903929D01*
X20812262Y-16875357D01*
X20821786Y-16837262D01*
X20821786Y-16761071D01*
X20812262Y-16742024D01*
X20802738Y-16732500D01*
X20783690Y-16722976D01*
X20745595Y-16722976D01*
X20726548Y-16732500D01*
X20717024Y-16742024D01*
X20707500Y-16761071D01*
X20707500Y-16808690D01*
X20717024Y-16827738D01*
X20726548Y-16837262D01*
X20745595Y-16846786D01*
X20783690Y-16846786D01*
X20802738Y-16837262D01*
X20812262Y-16827738D01*
X20821786Y-16808690D01*
X20897976Y-16722976D02*
X20897976Y-16761071D01*
X20974167Y-16722976D02*
X20974167Y-16761071D01*
X21269405Y-16999167D02*
X21259881Y-16989643D01*
X21240833Y-16961071D01*
X21231309Y-16942024D01*
X21221786Y-16913452D01*
X21212262Y-16865833D01*
X21212262Y-16827738D01*
X21221786Y-16780119D01*
X21231309Y-16751548D01*
X21240833Y-16732500D01*
X21259881Y-16703928D01*
X21269405Y-16694405D01*
X21355119Y-16922976D02*
X21393214Y-16922976D01*
X21412262Y-16913452D01*
X21421786Y-16903929D01*
X21440833Y-16875357D01*
X21450357Y-16837262D01*
X21450357Y-16761071D01*
X21440833Y-16742024D01*
X21431309Y-16732500D01*
X21412262Y-16722976D01*
X21374167Y-16722976D01*
X21355119Y-16732500D01*
X21345595Y-16742024D01*
X21336071Y-16761071D01*
X21336071Y-16808690D01*
X21345595Y-16827738D01*
X21355119Y-16837262D01*
X21374167Y-16846786D01*
X21412262Y-16846786D01*
X21431309Y-16837262D01*
X21440833Y-16827738D01*
X21450357Y-16808690D01*
X21688452Y-16922976D02*
X21688452Y-16722976D01*
X21774167Y-16922976D02*
X21774167Y-16818214D01*
X21764643Y-16799167D01*
X21745595Y-16789643D01*
X21717024Y-16789643D01*
X21697976Y-16799167D01*
X21688452Y-16808690D01*
X21897976Y-16922976D02*
X21878928Y-16913452D01*
X21869405Y-16903929D01*
X21859881Y-16884881D01*
X21859881Y-16827738D01*
X21869405Y-16808690D01*
X21878928Y-16799167D01*
X21897976Y-16789643D01*
X21926548Y-16789643D01*
X21945595Y-16799167D01*
X21955119Y-16808690D01*
X21964643Y-16827738D01*
X21964643Y-16884881D01*
X21955119Y-16903929D01*
X21945595Y-16913452D01*
X21926548Y-16922976D01*
X21897976Y-16922976D01*
X22078928Y-16922976D02*
X22059881Y-16913452D01*
X22050357Y-16894405D01*
X22050357Y-16722976D01*
X22231309Y-16913452D02*
X22212262Y-16922976D01*
X22174167Y-16922976D01*
X22155119Y-16913452D01*
X22145595Y-16894405D01*
X22145595Y-16818214D01*
X22155119Y-16799167D01*
X22174167Y-16789643D01*
X22212262Y-16789643D01*
X22231309Y-16799167D01*
X22240833Y-16818214D01*
X22240833Y-16837262D01*
X22145595Y-16856310D01*
X22317024Y-16913452D02*
X22336071Y-16922976D01*
X22374166Y-16922976D01*
X22393214Y-16913452D01*
X22402738Y-16894405D01*
X22402738Y-16884881D01*
X22393214Y-16865833D01*
X22374166Y-16856310D01*
X22345595Y-16856310D01*
X22326548Y-16846786D01*
X22317024Y-16827738D01*
X22317024Y-16818214D01*
X22326548Y-16799167D01*
X22345595Y-16789643D01*
X22374166Y-16789643D01*
X22393214Y-16799167D01*
X22469405Y-16999167D02*
X22478928Y-16989643D01*
X22497976Y-16961071D01*
X22507500Y-16942024D01*
X22517024Y-16913452D01*
X22526547Y-16865833D01*
X22526547Y-16827738D01*
X22517024Y-16780119D01*
X22507500Y-16751548D01*
X22497976Y-16732500D01*
X22478928Y-16703928D01*
X22469405Y-16694405D01*
M02*
