G04 #@! TF.GenerationSoftware,KiCad,Pcbnew,(6.0.0)*
G04 #@! TF.CreationDate,2022-07-07T12:02:20+01:00*
G04 #@! TF.ProjectId,PSU,5053552e-6b69-4636-9164-5f7063625858,rev?*
G04 #@! TF.SameCoordinates,Original*
G04 #@! TF.FileFunction,Copper,L1,Top*
G04 #@! TF.FilePolarity,Positive*
%FSLAX46Y46*%
G04 Gerber Fmt 4.6, Leading zero omitted, Abs format (unit mm)*
G04 Created by KiCad (PCBNEW (6.0.0)) date 2022-07-07 12:02:20*
%MOMM*%
%LPD*%
G01*
G04 APERTURE LIST*
G04 #@! TA.AperFunction,Profile*
%ADD10C,0.150000*%
G04 #@! TD*
G04 #@! TA.AperFunction,ComponentPad*
%ADD11R,3.000000X3.000000*%
G04 #@! TD*
G04 #@! TA.AperFunction,ComponentPad*
%ADD12C,3.000000*%
G04 #@! TD*
G04 #@! TA.AperFunction,ComponentPad*
%ADD13R,1.600000X1.600000*%
G04 #@! TD*
G04 #@! TA.AperFunction,ComponentPad*
%ADD14C,1.600000*%
G04 #@! TD*
G04 #@! TA.AperFunction,ComponentPad*
%ADD15R,2.400000X2.400000*%
G04 #@! TD*
G04 #@! TA.AperFunction,ComponentPad*
%ADD16C,2.400000*%
G04 #@! TD*
G04 #@! TA.AperFunction,ComponentPad*
%ADD17R,1.800000X1.800000*%
G04 #@! TD*
G04 #@! TA.AperFunction,ComponentPad*
%ADD18C,1.800000*%
G04 #@! TD*
G04 #@! TA.AperFunction,ComponentPad*
%ADD19R,2.000000X1.905000*%
G04 #@! TD*
G04 #@! TA.AperFunction,ComponentPad*
%ADD20O,2.000000X1.905000*%
G04 #@! TD*
G04 #@! TA.AperFunction,ComponentPad*
%ADD21O,1.600000X1.600000*%
G04 #@! TD*
G04 #@! TA.AperFunction,ComponentPad*
%ADD22R,2.200000X2.200000*%
G04 #@! TD*
G04 #@! TA.AperFunction,ComponentPad*
%ADD23O,2.200000X2.200000*%
G04 #@! TD*
G04 #@! TA.AperFunction,ComponentPad*
%ADD24C,2.000000*%
G04 #@! TD*
G04 APERTURE END LIST*
D10*
X43000000Y-53000000D02*
X153490000Y-53000000D01*
X153490000Y-96000000D02*
X43000000Y-96000000D01*
X153490000Y-96000000D02*
X153490000Y-53000000D01*
X43000000Y-96000000D02*
X43000000Y-53000000D01*
D11*
X147000000Y-69420000D03*
D12*
X147000000Y-74500000D03*
X147000000Y-79580000D03*
D13*
X71875000Y-73275000D03*
D14*
X71875000Y-75275000D03*
D15*
X100450000Y-58035000D03*
D16*
X100450000Y-65535000D03*
D13*
X90925000Y-73275000D03*
D14*
X90925000Y-75275000D03*
D15*
X81400000Y-83435000D03*
D16*
X81400000Y-90935000D03*
D15*
X100450000Y-83435000D03*
D16*
X100450000Y-90935000D03*
D13*
X139820000Y-57400000D03*
D14*
X139820000Y-55400000D03*
D13*
X133470000Y-93595000D03*
D14*
X133470000Y-91595000D03*
D17*
X139820000Y-93595000D03*
D18*
X139820000Y-91055000D03*
D17*
X133470000Y-73910000D03*
D18*
X133470000Y-71370000D03*
D19*
X114420000Y-84705000D03*
D20*
X114420000Y-87245000D03*
X114420000Y-89785000D03*
D15*
X81400000Y-58035000D03*
D16*
X81400000Y-65535000D03*
D15*
X62350000Y-58035000D03*
D16*
X62350000Y-65535000D03*
D15*
X62350000Y-83435000D03*
D16*
X62350000Y-90935000D03*
D14*
X133470000Y-54860000D03*
D21*
X133470000Y-67560000D03*
D14*
X139820000Y-87245000D03*
D21*
X139820000Y-74545000D03*
D22*
X56000000Y-76450000D03*
D23*
X66160000Y-76450000D03*
D22*
X66160000Y-72640000D03*
D23*
X56000000Y-72640000D03*
D22*
X110610000Y-56765000D03*
D23*
X110610000Y-66925000D03*
D22*
X110610000Y-92325000D03*
D23*
X110610000Y-82165000D03*
D22*
X133470000Y-77720000D03*
D23*
X133470000Y-87880000D03*
D22*
X139820000Y-61210000D03*
D23*
X139820000Y-71370000D03*
D19*
X114420000Y-59305000D03*
D20*
X114420000Y-61845000D03*
X114420000Y-64385000D03*
D24*
X147000000Y-63500000D03*
X147000000Y-90000000D03*
X147000000Y-85000000D03*
D11*
X48380000Y-77085000D03*
D12*
X48380000Y-72005000D03*
G04 #@! TA.AperFunction,Conductor*
G36*
X132788928Y-53528002D02*
G01*
X132835421Y-53581658D01*
X132845525Y-53651932D01*
X132816031Y-53716512D01*
X132793078Y-53737213D01*
X132756952Y-53762509D01*
X132748576Y-53772988D01*
X132755644Y-53786434D01*
X133457188Y-54487978D01*
X133471132Y-54495592D01*
X133472965Y-54495461D01*
X133479580Y-54491210D01*
X134185077Y-53785713D01*
X134191507Y-53773938D01*
X134182211Y-53761923D01*
X134146922Y-53737213D01*
X134102594Y-53681755D01*
X134095285Y-53611136D01*
X134127316Y-53547776D01*
X134188518Y-53511791D01*
X134219193Y-53508000D01*
X152856000Y-53508000D01*
X152924121Y-53528002D01*
X152970614Y-53581658D01*
X152982000Y-53634000D01*
X152982000Y-95366000D01*
X152961998Y-95434121D01*
X152908342Y-95480614D01*
X152856000Y-95492000D01*
X43634000Y-95492000D01*
X43565879Y-95471998D01*
X43519386Y-95418342D01*
X43508000Y-95366000D01*
X43508000Y-94439669D01*
X132162001Y-94439669D01*
X132162371Y-94446490D01*
X132167895Y-94497352D01*
X132171521Y-94512604D01*
X132216676Y-94633054D01*
X132225214Y-94648649D01*
X132301715Y-94750724D01*
X132314276Y-94763285D01*
X132416351Y-94839786D01*
X132431946Y-94848324D01*
X132552394Y-94893478D01*
X132567649Y-94897105D01*
X132618514Y-94902631D01*
X132625328Y-94903000D01*
X133197885Y-94903000D01*
X133213124Y-94898525D01*
X133214329Y-94897135D01*
X133216000Y-94889452D01*
X133216000Y-94884884D01*
X133724000Y-94884884D01*
X133728475Y-94900123D01*
X133729865Y-94901328D01*
X133737548Y-94902999D01*
X134314669Y-94902999D01*
X134321490Y-94902629D01*
X134372352Y-94897105D01*
X134387604Y-94893479D01*
X134508054Y-94848324D01*
X134523649Y-94839786D01*
X134625724Y-94763285D01*
X134638285Y-94750724D01*
X134714786Y-94648649D01*
X134723324Y-94633054D01*
X134758333Y-94539669D01*
X138412001Y-94539669D01*
X138412371Y-94546490D01*
X138417895Y-94597352D01*
X138421521Y-94612604D01*
X138466676Y-94733054D01*
X138475214Y-94748649D01*
X138551715Y-94850724D01*
X138564276Y-94863285D01*
X138666351Y-94939786D01*
X138681946Y-94948324D01*
X138802394Y-94993478D01*
X138817649Y-94997105D01*
X138868514Y-95002631D01*
X138875328Y-95003000D01*
X139547885Y-95003000D01*
X139563124Y-94998525D01*
X139564329Y-94997135D01*
X139566000Y-94989452D01*
X139566000Y-94984884D01*
X140074000Y-94984884D01*
X140078475Y-95000123D01*
X140079865Y-95001328D01*
X140087548Y-95002999D01*
X140764669Y-95002999D01*
X140771490Y-95002629D01*
X140822352Y-94997105D01*
X140837604Y-94993479D01*
X140958054Y-94948324D01*
X140973649Y-94939786D01*
X141075724Y-94863285D01*
X141088285Y-94850724D01*
X141164786Y-94748649D01*
X141173324Y-94733054D01*
X141218478Y-94612606D01*
X141222105Y-94597351D01*
X141227631Y-94546486D01*
X141228000Y-94539672D01*
X141228000Y-93867115D01*
X141223525Y-93851876D01*
X141222135Y-93850671D01*
X141214452Y-93849000D01*
X140092115Y-93849000D01*
X140076876Y-93853475D01*
X140075671Y-93854865D01*
X140074000Y-93862548D01*
X140074000Y-94984884D01*
X139566000Y-94984884D01*
X139566000Y-93867115D01*
X139561525Y-93851876D01*
X139560135Y-93850671D01*
X139552452Y-93849000D01*
X138430116Y-93849000D01*
X138414877Y-93853475D01*
X138413672Y-93854865D01*
X138412001Y-93862548D01*
X138412001Y-94539669D01*
X134758333Y-94539669D01*
X134768478Y-94512606D01*
X134772105Y-94497351D01*
X134777631Y-94446486D01*
X134778000Y-94439672D01*
X134778000Y-93867115D01*
X134773525Y-93851876D01*
X134772135Y-93850671D01*
X134764452Y-93849000D01*
X133742115Y-93849000D01*
X133726876Y-93853475D01*
X133725671Y-93854865D01*
X133724000Y-93862548D01*
X133724000Y-94884884D01*
X133216000Y-94884884D01*
X133216000Y-93867115D01*
X133211525Y-93851876D01*
X133210135Y-93850671D01*
X133202452Y-93849000D01*
X132180116Y-93849000D01*
X132164877Y-93853475D01*
X132163672Y-93854865D01*
X132162001Y-93862548D01*
X132162001Y-94439669D01*
X43508000Y-94439669D01*
X43508000Y-93473134D01*
X109001500Y-93473134D01*
X109008255Y-93535316D01*
X109059385Y-93671705D01*
X109146739Y-93788261D01*
X109263295Y-93875615D01*
X109399684Y-93926745D01*
X109461866Y-93933500D01*
X111758134Y-93933500D01*
X111820316Y-93926745D01*
X111956705Y-93875615D01*
X112073261Y-93788261D01*
X112160615Y-93671705D01*
X112211745Y-93535316D01*
X112218500Y-93473134D01*
X112218500Y-91595000D01*
X132156502Y-91595000D01*
X132176457Y-91823087D01*
X132177881Y-91828400D01*
X132177881Y-91828402D01*
X132217070Y-91974654D01*
X132235716Y-92044243D01*
X132238039Y-92049224D01*
X132238039Y-92049225D01*
X132330151Y-92246762D01*
X132330154Y-92246767D01*
X132332477Y-92251749D01*
X132335637Y-92256262D01*
X132336590Y-92257624D01*
X132336825Y-92258320D01*
X132338383Y-92261019D01*
X132337840Y-92261332D01*
X132359274Y-92324900D01*
X132341985Y-92393759D01*
X132319344Y-92419081D01*
X132320627Y-92420364D01*
X132301715Y-92439276D01*
X132225214Y-92541351D01*
X132216676Y-92556946D01*
X132171522Y-92677394D01*
X132167895Y-92692649D01*
X132162369Y-92743514D01*
X132162000Y-92750328D01*
X132162000Y-93322885D01*
X132166475Y-93338124D01*
X132167865Y-93339329D01*
X132175548Y-93341000D01*
X134759884Y-93341000D01*
X134775123Y-93336525D01*
X134776328Y-93335135D01*
X134777999Y-93327452D01*
X134777999Y-92750331D01*
X134777629Y-92743510D01*
X134772105Y-92692648D01*
X134768479Y-92677396D01*
X134723324Y-92556946D01*
X134714786Y-92541351D01*
X134638285Y-92439276D01*
X134619373Y-92420364D01*
X134621631Y-92418106D01*
X134588543Y-92373846D01*
X134583524Y-92303027D01*
X134601861Y-92261160D01*
X134601617Y-92261019D01*
X134602885Y-92258823D01*
X134603410Y-92257624D01*
X134604363Y-92256262D01*
X134607523Y-92251749D01*
X134609846Y-92246767D01*
X134609849Y-92246762D01*
X134701961Y-92049225D01*
X134701961Y-92049224D01*
X134704284Y-92044243D01*
X134722931Y-91974654D01*
X134762119Y-91828402D01*
X134762119Y-91828400D01*
X134763543Y-91823087D01*
X134783498Y-91595000D01*
X134763543Y-91366913D01*
X134738096Y-91271944D01*
X134705707Y-91151067D01*
X134705706Y-91151065D01*
X134704284Y-91145757D01*
X134689795Y-91114684D01*
X134645862Y-91020469D01*
X138407095Y-91020469D01*
X138407392Y-91025622D01*
X138407392Y-91025625D01*
X138420129Y-91246529D01*
X138420427Y-91251697D01*
X138421564Y-91256743D01*
X138421565Y-91256749D01*
X138445194Y-91361598D01*
X138471346Y-91477642D01*
X138473288Y-91482424D01*
X138473289Y-91482428D01*
X138535642Y-91635984D01*
X138558484Y-91692237D01*
X138679501Y-91889719D01*
X138682882Y-91893622D01*
X138791653Y-92019191D01*
X138821135Y-92083776D01*
X138811020Y-92154049D01*
X138764519Y-92207697D01*
X138740646Y-92219670D01*
X138681944Y-92241677D01*
X138666351Y-92250214D01*
X138564276Y-92326715D01*
X138551715Y-92339276D01*
X138475214Y-92441351D01*
X138466676Y-92456946D01*
X138421522Y-92577394D01*
X138417895Y-92592649D01*
X138412369Y-92643514D01*
X138412000Y-92650328D01*
X138412000Y-93322885D01*
X138416475Y-93338124D01*
X138417865Y-93339329D01*
X138425548Y-93341000D01*
X141209884Y-93341000D01*
X141225123Y-93336525D01*
X141226328Y-93335135D01*
X141227999Y-93327452D01*
X141227999Y-92650331D01*
X141227629Y-92643510D01*
X141222105Y-92592648D01*
X141218479Y-92577396D01*
X141173324Y-92456946D01*
X141164786Y-92441351D01*
X141088285Y-92339276D01*
X141075724Y-92326715D01*
X140973649Y-92250214D01*
X140958052Y-92241675D01*
X140899415Y-92219693D01*
X140842650Y-92177052D01*
X140817950Y-92110490D01*
X140833157Y-92041141D01*
X140854703Y-92012461D01*
X140892641Y-91974654D01*
X140896303Y-91971005D01*
X141031458Y-91782917D01*
X141078641Y-91687450D01*
X141131784Y-91579922D01*
X141131785Y-91579920D01*
X141134078Y-91575280D01*
X141201408Y-91353671D01*
X141217338Y-91232670D01*
X146132160Y-91232670D01*
X146137887Y-91240320D01*
X146309042Y-91345205D01*
X146317837Y-91349687D01*
X146527988Y-91436734D01*
X146537373Y-91439783D01*
X146758554Y-91492885D01*
X146768301Y-91494428D01*
X146995070Y-91512275D01*
X147004930Y-91512275D01*
X147231699Y-91494428D01*
X147241446Y-91492885D01*
X147462627Y-91439783D01*
X147472012Y-91436734D01*
X147682163Y-91349687D01*
X147690958Y-91345205D01*
X147858445Y-91242568D01*
X147867907Y-91232110D01*
X147864124Y-91223334D01*
X147012812Y-90372022D01*
X146998868Y-90364408D01*
X146997035Y-90364539D01*
X146990420Y-90368790D01*
X146138920Y-91220290D01*
X146132160Y-91232670D01*
X141217338Y-91232670D01*
X141231640Y-91124041D01*
X141231869Y-91114684D01*
X141233245Y-91058365D01*
X141233245Y-91058361D01*
X141233327Y-91055000D01*
X141224407Y-90946502D01*
X141214773Y-90829318D01*
X141214772Y-90829312D01*
X141214349Y-90824167D01*
X141157925Y-90599533D01*
X141155866Y-90594797D01*
X141067630Y-90391868D01*
X141067628Y-90391865D01*
X141065570Y-90387131D01*
X140939764Y-90192665D01*
X140914009Y-90164360D01*
X140873308Y-90119631D01*
X140783887Y-90021358D01*
X140779836Y-90018159D01*
X140779832Y-90018155D01*
X140763086Y-90004930D01*
X145487725Y-90004930D01*
X145505572Y-90231699D01*
X145507115Y-90241446D01*
X145560217Y-90462627D01*
X145563266Y-90472012D01*
X145650313Y-90682163D01*
X145654795Y-90690958D01*
X145757432Y-90858445D01*
X145767890Y-90867907D01*
X145776666Y-90864124D01*
X146627978Y-90012812D01*
X146634356Y-90001132D01*
X147364408Y-90001132D01*
X147364539Y-90002965D01*
X147368790Y-90009580D01*
X148220290Y-90861080D01*
X148232670Y-90867840D01*
X148240320Y-90862113D01*
X148345205Y-90690958D01*
X148349687Y-90682163D01*
X148436734Y-90472012D01*
X148439783Y-90462627D01*
X148492885Y-90241446D01*
X148494428Y-90231699D01*
X148512275Y-90004930D01*
X148512275Y-89995070D01*
X148494428Y-89768301D01*
X148492885Y-89758554D01*
X148439783Y-89537373D01*
X148436734Y-89527988D01*
X148349687Y-89317837D01*
X148345205Y-89309042D01*
X148242568Y-89141555D01*
X148232110Y-89132093D01*
X148223334Y-89135876D01*
X147372022Y-89987188D01*
X147364408Y-90001132D01*
X146634356Y-90001132D01*
X146635592Y-89998868D01*
X146635461Y-89997035D01*
X146631210Y-89990420D01*
X145779710Y-89138920D01*
X145767330Y-89132160D01*
X145759680Y-89137887D01*
X145654795Y-89309042D01*
X145650313Y-89317837D01*
X145563266Y-89527988D01*
X145560217Y-89537373D01*
X145507115Y-89758554D01*
X145505572Y-89768301D01*
X145487725Y-89995070D01*
X145487725Y-90004930D01*
X140763086Y-90004930D01*
X140606177Y-89881011D01*
X140606172Y-89881008D01*
X140602123Y-89877810D01*
X140597607Y-89875317D01*
X140597604Y-89875315D01*
X140403879Y-89768373D01*
X140403875Y-89768371D01*
X140399355Y-89765876D01*
X140394486Y-89764152D01*
X140394482Y-89764150D01*
X140185903Y-89690288D01*
X140185899Y-89690287D01*
X140181028Y-89688562D01*
X140175935Y-89687655D01*
X140175932Y-89687654D01*
X139958095Y-89648851D01*
X139958089Y-89648850D01*
X139953006Y-89647945D01*
X139878673Y-89647037D01*
X139726581Y-89645179D01*
X139726579Y-89645179D01*
X139721411Y-89645116D01*
X139492464Y-89680150D01*
X139272314Y-89752106D01*
X139267726Y-89754494D01*
X139267722Y-89754496D01*
X139071461Y-89856663D01*
X139066872Y-89859052D01*
X139062739Y-89862155D01*
X139062736Y-89862157D01*
X138896211Y-89987188D01*
X138881655Y-89998117D01*
X138878083Y-90001855D01*
X138725525Y-90161498D01*
X138721639Y-90165564D01*
X138718725Y-90169836D01*
X138718724Y-90169837D01*
X138700189Y-90197009D01*
X138591119Y-90356899D01*
X138493602Y-90566981D01*
X138431707Y-90790169D01*
X138407095Y-91020469D01*
X134645862Y-91020469D01*
X134609849Y-90943238D01*
X134609846Y-90943233D01*
X134607523Y-90938251D01*
X134496554Y-90779771D01*
X134479357Y-90755211D01*
X134479355Y-90755208D01*
X134476198Y-90750700D01*
X134314300Y-90588802D01*
X134309792Y-90585645D01*
X134309789Y-90585643D01*
X134147507Y-90472012D01*
X134126749Y-90457477D01*
X134121767Y-90455154D01*
X134121762Y-90455151D01*
X133924225Y-90363039D01*
X133924224Y-90363039D01*
X133919243Y-90360716D01*
X133913935Y-90359294D01*
X133913933Y-90359293D01*
X133703402Y-90302881D01*
X133703400Y-90302881D01*
X133698087Y-90301457D01*
X133470000Y-90281502D01*
X133241913Y-90301457D01*
X133236600Y-90302881D01*
X133236598Y-90302881D01*
X133026067Y-90359293D01*
X133026065Y-90359294D01*
X133020757Y-90360716D01*
X133015776Y-90363039D01*
X133015775Y-90363039D01*
X132818238Y-90455151D01*
X132818233Y-90455154D01*
X132813251Y-90457477D01*
X132792493Y-90472012D01*
X132630211Y-90585643D01*
X132630208Y-90585645D01*
X132625700Y-90588802D01*
X132463802Y-90750700D01*
X132460645Y-90755208D01*
X132460643Y-90755211D01*
X132443446Y-90779771D01*
X132332477Y-90938251D01*
X132330154Y-90943233D01*
X132330151Y-90943238D01*
X132250205Y-91114684D01*
X132235716Y-91145757D01*
X132234294Y-91151065D01*
X132234293Y-91151067D01*
X132201904Y-91271944D01*
X132176457Y-91366913D01*
X132156502Y-91595000D01*
X112218500Y-91595000D01*
X112218500Y-91176866D01*
X112211745Y-91114684D01*
X112160615Y-90978295D01*
X112073261Y-90861739D01*
X111956705Y-90774385D01*
X111820316Y-90723255D01*
X111758134Y-90716500D01*
X109461866Y-90716500D01*
X109399684Y-90723255D01*
X109263295Y-90774385D01*
X109146739Y-90861739D01*
X109059385Y-90978295D01*
X109008255Y-91114684D01*
X109001500Y-91176866D01*
X109001500Y-93473134D01*
X43508000Y-93473134D01*
X43508000Y-90890151D01*
X60637296Y-90890151D01*
X60637520Y-90894817D01*
X60637520Y-90894822D01*
X60638936Y-90924301D01*
X60649480Y-91143798D01*
X60671947Y-91256749D01*
X60690207Y-91348544D01*
X60699021Y-91392857D01*
X60700600Y-91397255D01*
X60700602Y-91397262D01*
X60745022Y-91520980D01*
X60784831Y-91631858D01*
X60787048Y-91635984D01*
X60887582Y-91823087D01*
X60905025Y-91855551D01*
X60907820Y-91859294D01*
X60907822Y-91859297D01*
X61054171Y-92055282D01*
X61054176Y-92055288D01*
X61056963Y-92059020D01*
X61060272Y-92062300D01*
X61060277Y-92062306D01*
X61206943Y-92207697D01*
X61237307Y-92237797D01*
X61241069Y-92240555D01*
X61241072Y-92240558D01*
X61422854Y-92373846D01*
X61442094Y-92387953D01*
X61446229Y-92390129D01*
X61446233Y-92390131D01*
X61453129Y-92393759D01*
X61666827Y-92506191D01*
X61767510Y-92541351D01*
X61870728Y-92577396D01*
X61906568Y-92589912D01*
X62156050Y-92637278D01*
X62276532Y-92642011D01*
X62405125Y-92647064D01*
X62405130Y-92647064D01*
X62409793Y-92647247D01*
X62508774Y-92636407D01*
X62657569Y-92620112D01*
X62657575Y-92620111D01*
X62662222Y-92619602D01*
X62771680Y-92590784D01*
X62903273Y-92556138D01*
X62907793Y-92554948D01*
X63026353Y-92504011D01*
X63136807Y-92456557D01*
X63136810Y-92456555D01*
X63141110Y-92454708D01*
X63145090Y-92452245D01*
X63145094Y-92452243D01*
X63353064Y-92323547D01*
X63353066Y-92323545D01*
X63357047Y-92321082D01*
X63360624Y-92318054D01*
X63547289Y-92160031D01*
X63547291Y-92160029D01*
X63550862Y-92157006D01*
X63718295Y-91966084D01*
X63770246Y-91885318D01*
X63853141Y-91756442D01*
X63855669Y-91752512D01*
X63959967Y-91520980D01*
X64028896Y-91276575D01*
X64056656Y-91058365D01*
X64060545Y-91027798D01*
X64060545Y-91027792D01*
X64060943Y-91024667D01*
X64061188Y-91015336D01*
X64063208Y-90938160D01*
X64063291Y-90935000D01*
X64059958Y-90890151D01*
X79687296Y-90890151D01*
X79687520Y-90894817D01*
X79687520Y-90894822D01*
X79688936Y-90924301D01*
X79699480Y-91143798D01*
X79721947Y-91256749D01*
X79740207Y-91348544D01*
X79749021Y-91392857D01*
X79750600Y-91397255D01*
X79750602Y-91397262D01*
X79795022Y-91520980D01*
X79834831Y-91631858D01*
X79837048Y-91635984D01*
X79937582Y-91823087D01*
X79955025Y-91855551D01*
X79957820Y-91859294D01*
X79957822Y-91859297D01*
X80104171Y-92055282D01*
X80104176Y-92055288D01*
X80106963Y-92059020D01*
X80110272Y-92062300D01*
X80110277Y-92062306D01*
X80256943Y-92207697D01*
X80287307Y-92237797D01*
X80291069Y-92240555D01*
X80291072Y-92240558D01*
X80472854Y-92373846D01*
X80492094Y-92387953D01*
X80496229Y-92390129D01*
X80496233Y-92390131D01*
X80503129Y-92393759D01*
X80716827Y-92506191D01*
X80817510Y-92541351D01*
X80920728Y-92577396D01*
X80956568Y-92589912D01*
X81206050Y-92637278D01*
X81326532Y-92642011D01*
X81455125Y-92647064D01*
X81455130Y-92647064D01*
X81459793Y-92647247D01*
X81558774Y-92636407D01*
X81707569Y-92620112D01*
X81707575Y-92620111D01*
X81712222Y-92619602D01*
X81821680Y-92590784D01*
X81953273Y-92556138D01*
X81957793Y-92554948D01*
X82076353Y-92504011D01*
X82186807Y-92456557D01*
X82186810Y-92456555D01*
X82191110Y-92454708D01*
X82195090Y-92452245D01*
X82195094Y-92452243D01*
X82403064Y-92323547D01*
X82403066Y-92323545D01*
X82407047Y-92321082D01*
X82410624Y-92318054D01*
X82597289Y-92160031D01*
X82597291Y-92160029D01*
X82600862Y-92157006D01*
X82768295Y-91966084D01*
X82820246Y-91885318D01*
X82903141Y-91756442D01*
X82905669Y-91752512D01*
X83009967Y-91520980D01*
X83078896Y-91276575D01*
X83106656Y-91058365D01*
X83110545Y-91027798D01*
X83110545Y-91027792D01*
X83110943Y-91024667D01*
X83111188Y-91015336D01*
X83113208Y-90938160D01*
X83113291Y-90935000D01*
X83109958Y-90890151D01*
X98737296Y-90890151D01*
X98737520Y-90894817D01*
X98737520Y-90894822D01*
X98738936Y-90924301D01*
X98749480Y-91143798D01*
X98771947Y-91256749D01*
X98790207Y-91348544D01*
X98799021Y-91392857D01*
X98800600Y-91397255D01*
X98800602Y-91397262D01*
X98845022Y-91520980D01*
X98884831Y-91631858D01*
X98887048Y-91635984D01*
X98987582Y-91823087D01*
X99005025Y-91855551D01*
X99007820Y-91859294D01*
X99007822Y-91859297D01*
X99154171Y-92055282D01*
X99154176Y-92055288D01*
X99156963Y-92059020D01*
X99160272Y-92062300D01*
X99160277Y-92062306D01*
X99306943Y-92207697D01*
X99337307Y-92237797D01*
X99341069Y-92240555D01*
X99341072Y-92240558D01*
X99522854Y-92373846D01*
X99542094Y-92387953D01*
X99546229Y-92390129D01*
X99546233Y-92390131D01*
X99553129Y-92393759D01*
X99766827Y-92506191D01*
X99867510Y-92541351D01*
X99970728Y-92577396D01*
X100006568Y-92589912D01*
X100256050Y-92637278D01*
X100376532Y-92642011D01*
X100505125Y-92647064D01*
X100505130Y-92647064D01*
X100509793Y-92647247D01*
X100608774Y-92636407D01*
X100757569Y-92620112D01*
X100757575Y-92620111D01*
X100762222Y-92619602D01*
X100871680Y-92590784D01*
X101003273Y-92556138D01*
X101007793Y-92554948D01*
X101126353Y-92504011D01*
X101236807Y-92456557D01*
X101236810Y-92456555D01*
X101241110Y-92454708D01*
X101245090Y-92452245D01*
X101245094Y-92452243D01*
X101453064Y-92323547D01*
X101453066Y-92323545D01*
X101457047Y-92321082D01*
X101460624Y-92318054D01*
X101647289Y-92160031D01*
X101647291Y-92160029D01*
X101650862Y-92157006D01*
X101818295Y-91966084D01*
X101870246Y-91885318D01*
X101953141Y-91756442D01*
X101955669Y-91752512D01*
X102059967Y-91520980D01*
X102128896Y-91276575D01*
X102156656Y-91058365D01*
X102160545Y-91027798D01*
X102160545Y-91027792D01*
X102160943Y-91024667D01*
X102161188Y-91015336D01*
X102163208Y-90938160D01*
X102163291Y-90935000D01*
X102157447Y-90856358D01*
X102144818Y-90686411D01*
X102144817Y-90686407D01*
X102144472Y-90681759D01*
X102126047Y-90600330D01*
X102089459Y-90438639D01*
X102088428Y-90434082D01*
X102064294Y-90372022D01*
X101998084Y-90201762D01*
X101998083Y-90201760D01*
X101996391Y-90197409D01*
X101991492Y-90188838D01*
X101872702Y-89980997D01*
X101872700Y-89980995D01*
X101870383Y-89976940D01*
X101799688Y-89887263D01*
X112910064Y-89887263D01*
X112946404Y-90124744D01*
X112971577Y-90201762D01*
X113019434Y-90348183D01*
X113019437Y-90348189D01*
X113021042Y-90353101D01*
X113023429Y-90357687D01*
X113023431Y-90357691D01*
X113129584Y-90561607D01*
X113131975Y-90566200D01*
X113135085Y-90570342D01*
X113270502Y-90750700D01*
X113276223Y-90758320D01*
X113449912Y-90924301D01*
X113563655Y-91001891D01*
X113641509Y-91055000D01*
X113648378Y-91059686D01*
X113653061Y-91061860D01*
X113653065Y-91061862D01*
X113861595Y-91158658D01*
X113861599Y-91158659D01*
X113866290Y-91160837D01*
X114097798Y-91225040D01*
X114102935Y-91225589D01*
X114290593Y-91245644D01*
X114290601Y-91245644D01*
X114293928Y-91246000D01*
X114528402Y-91246000D01*
X114530975Y-91245788D01*
X114530986Y-91245788D01*
X114631946Y-91237487D01*
X114706937Y-91231322D01*
X114939944Y-91172794D01*
X115090605Y-91107285D01*
X115155526Y-91079057D01*
X115155529Y-91079055D01*
X115160263Y-91076997D01*
X115312833Y-90978295D01*
X115357637Y-90949310D01*
X115357640Y-90949308D01*
X115361977Y-90946502D01*
X115539670Y-90784814D01*
X115652341Y-90642148D01*
X115685367Y-90600330D01*
X115685370Y-90600325D01*
X115688568Y-90596276D01*
X115701995Y-90571954D01*
X115802177Y-90390474D01*
X115802179Y-90390470D01*
X115804674Y-90385950D01*
X115809607Y-90372022D01*
X115883144Y-90164360D01*
X115883145Y-90164356D01*
X115884870Y-90159485D01*
X115890183Y-90129659D01*
X115926095Y-89928052D01*
X115926096Y-89928046D01*
X115927001Y-89922963D01*
X115929059Y-89754496D01*
X115929873Y-89687907D01*
X115929873Y-89687905D01*
X115929936Y-89682737D01*
X115893596Y-89445256D01*
X115836468Y-89270470D01*
X115820566Y-89221817D01*
X115820563Y-89221811D01*
X115818958Y-89216899D01*
X115803868Y-89187910D01*
X115710416Y-89008393D01*
X115708025Y-89003800D01*
X115563777Y-88811680D01*
X115490433Y-88741591D01*
X115393825Y-88649270D01*
X115393824Y-88649269D01*
X115390088Y-88645699D01*
X115353097Y-88620465D01*
X115308096Y-88565556D01*
X115299925Y-88495032D01*
X115331179Y-88431284D01*
X115355660Y-88410589D01*
X115357635Y-88409311D01*
X115361977Y-88406502D01*
X115539670Y-88244814D01*
X115628447Y-88132403D01*
X115685367Y-88060330D01*
X115685370Y-88060325D01*
X115688568Y-88056276D01*
X115702885Y-88030342D01*
X115785878Y-87880000D01*
X131856526Y-87880000D01*
X131876391Y-88132403D01*
X131877545Y-88137210D01*
X131877546Y-88137216D01*
X131904911Y-88251198D01*
X131935495Y-88378591D01*
X131937388Y-88383162D01*
X131937389Y-88383164D01*
X132026674Y-88598716D01*
X132032384Y-88612502D01*
X132164672Y-88828376D01*
X132329102Y-89020898D01*
X132521624Y-89185328D01*
X132737498Y-89317616D01*
X132742068Y-89319509D01*
X132742072Y-89319511D01*
X132961776Y-89410515D01*
X132971409Y-89414505D01*
X133054966Y-89434565D01*
X133212784Y-89472454D01*
X133212790Y-89472455D01*
X133217597Y-89473609D01*
X133470000Y-89493474D01*
X133722403Y-89473609D01*
X133727210Y-89472455D01*
X133727216Y-89472454D01*
X133885034Y-89434565D01*
X133968591Y-89414505D01*
X133978224Y-89410515D01*
X134197928Y-89319511D01*
X134197932Y-89319509D01*
X134202502Y-89317616D01*
X134418376Y-89185328D01*
X134610898Y-89020898D01*
X134775328Y-88828376D01*
X134812394Y-88767890D01*
X146132093Y-88767890D01*
X146135876Y-88776666D01*
X146987188Y-89627978D01*
X147001132Y-89635592D01*
X147002965Y-89635461D01*
X147009580Y-89631210D01*
X147861080Y-88779710D01*
X147867840Y-88767330D01*
X147862113Y-88759680D01*
X147690958Y-88654795D01*
X147682163Y-88650313D01*
X147472012Y-88563266D01*
X147462627Y-88560217D01*
X147241446Y-88507115D01*
X147231699Y-88505572D01*
X147004930Y-88487725D01*
X146995070Y-88487725D01*
X146768301Y-88505572D01*
X146758554Y-88507115D01*
X146537373Y-88560217D01*
X146527988Y-88563266D01*
X146317837Y-88650313D01*
X146309042Y-88654795D01*
X146141555Y-88757432D01*
X146132093Y-88767890D01*
X134812394Y-88767890D01*
X134907616Y-88612502D01*
X134913327Y-88598716D01*
X135002611Y-88383164D01*
X135002612Y-88383162D01*
X135004505Y-88378591D01*
X135035089Y-88251198D01*
X135062454Y-88137216D01*
X135062455Y-88137210D01*
X135063609Y-88132403D01*
X135083474Y-87880000D01*
X135063609Y-87627597D01*
X135061662Y-87619485D01*
X135005660Y-87386221D01*
X135004505Y-87381409D01*
X134992480Y-87352377D01*
X134948003Y-87245000D01*
X138506502Y-87245000D01*
X138526457Y-87473087D01*
X138527881Y-87478400D01*
X138527881Y-87478402D01*
X138565685Y-87619485D01*
X138585716Y-87694243D01*
X138588039Y-87699224D01*
X138588039Y-87699225D01*
X138680151Y-87896762D01*
X138680154Y-87896767D01*
X138682477Y-87901749D01*
X138813802Y-88089300D01*
X138975700Y-88251198D01*
X138980208Y-88254355D01*
X138980211Y-88254357D01*
X139058389Y-88309098D01*
X139163251Y-88382523D01*
X139168233Y-88384846D01*
X139168238Y-88384849D01*
X139338932Y-88464444D01*
X139370757Y-88479284D01*
X139376065Y-88480706D01*
X139376067Y-88480707D01*
X139586598Y-88537119D01*
X139586600Y-88537119D01*
X139591913Y-88538543D01*
X139820000Y-88558498D01*
X140048087Y-88538543D01*
X140053400Y-88537119D01*
X140053402Y-88537119D01*
X140263933Y-88480707D01*
X140263935Y-88480706D01*
X140269243Y-88479284D01*
X140301068Y-88464444D01*
X140471762Y-88384849D01*
X140471767Y-88384846D01*
X140476749Y-88382523D01*
X140581611Y-88309098D01*
X140659789Y-88254357D01*
X140659792Y-88254355D01*
X140664300Y-88251198D01*
X140826198Y-88089300D01*
X140957523Y-87901749D01*
X140959846Y-87896767D01*
X140959849Y-87896762D01*
X141051961Y-87699225D01*
X141051961Y-87699224D01*
X141054284Y-87694243D01*
X141074316Y-87619485D01*
X141112119Y-87478402D01*
X141112119Y-87478400D01*
X141113543Y-87473087D01*
X141133498Y-87245000D01*
X141113543Y-87016913D01*
X141090690Y-86931624D01*
X141055707Y-86801067D01*
X141055706Y-86801065D01*
X141054284Y-86795757D01*
X141026370Y-86735894D01*
X140959849Y-86593238D01*
X140959846Y-86593233D01*
X140957523Y-86588251D01*
X140852486Y-86438243D01*
X140829357Y-86405211D01*
X140829355Y-86405208D01*
X140826198Y-86400700D01*
X140664300Y-86238802D01*
X140659792Y-86235645D01*
X140659789Y-86235643D01*
X140487017Y-86114667D01*
X140476749Y-86107477D01*
X140471767Y-86105154D01*
X140471762Y-86105151D01*
X140274225Y-86013039D01*
X140274224Y-86013039D01*
X140269243Y-86010716D01*
X140263935Y-86009294D01*
X140263933Y-86009293D01*
X140053402Y-85952881D01*
X140053400Y-85952881D01*
X140048087Y-85951457D01*
X139820000Y-85931502D01*
X139591913Y-85951457D01*
X139586600Y-85952881D01*
X139586598Y-85952881D01*
X139376067Y-86009293D01*
X139376065Y-86009294D01*
X139370757Y-86010716D01*
X139365776Y-86013039D01*
X139365775Y-86013039D01*
X139168238Y-86105151D01*
X139168233Y-86105154D01*
X139163251Y-86107477D01*
X139152983Y-86114667D01*
X138980211Y-86235643D01*
X138980208Y-86235645D01*
X138975700Y-86238802D01*
X138813802Y-86400700D01*
X138810645Y-86405208D01*
X138810643Y-86405211D01*
X138787514Y-86438243D01*
X138682477Y-86588251D01*
X138680154Y-86593233D01*
X138680151Y-86593238D01*
X138613630Y-86735894D01*
X138585716Y-86795757D01*
X138584294Y-86801065D01*
X138584293Y-86801067D01*
X138549310Y-86931624D01*
X138526457Y-87016913D01*
X138506502Y-87245000D01*
X134948003Y-87245000D01*
X134909511Y-87152072D01*
X134909509Y-87152068D01*
X134907616Y-87147498D01*
X134775328Y-86931624D01*
X134610898Y-86739102D01*
X134418376Y-86574672D01*
X134202502Y-86442384D01*
X134197932Y-86440491D01*
X134197928Y-86440489D01*
X133973164Y-86347389D01*
X133973162Y-86347388D01*
X133968591Y-86345495D01*
X133825887Y-86311235D01*
X133727216Y-86287546D01*
X133727210Y-86287545D01*
X133722403Y-86286391D01*
X133470000Y-86266526D01*
X133217597Y-86286391D01*
X133212790Y-86287545D01*
X133212784Y-86287546D01*
X133114113Y-86311235D01*
X132971409Y-86345495D01*
X132966838Y-86347388D01*
X132966836Y-86347389D01*
X132742072Y-86440489D01*
X132742068Y-86440491D01*
X132737498Y-86442384D01*
X132521624Y-86574672D01*
X132329102Y-86739102D01*
X132164672Y-86931624D01*
X132032384Y-87147498D01*
X132030491Y-87152068D01*
X132030489Y-87152072D01*
X131947520Y-87352377D01*
X131935495Y-87381409D01*
X131934340Y-87386221D01*
X131878339Y-87619485D01*
X131876391Y-87627597D01*
X131856526Y-87880000D01*
X115785878Y-87880000D01*
X115802177Y-87850474D01*
X115802179Y-87850470D01*
X115804674Y-87845950D01*
X115856633Y-87699225D01*
X115883144Y-87624360D01*
X115883145Y-87624356D01*
X115884870Y-87619485D01*
X115890183Y-87589659D01*
X115926095Y-87388052D01*
X115926096Y-87388046D01*
X115927001Y-87382963D01*
X115928687Y-87245000D01*
X115929873Y-87147907D01*
X115929873Y-87147905D01*
X115929936Y-87142737D01*
X115893596Y-86905256D01*
X115839289Y-86739102D01*
X115820566Y-86681817D01*
X115820563Y-86681811D01*
X115818958Y-86676899D01*
X115772811Y-86588251D01*
X115710416Y-86468393D01*
X115708025Y-86463800D01*
X115591272Y-86308300D01*
X115566367Y-86241818D01*
X115581359Y-86172422D01*
X115631489Y-86122148D01*
X115647803Y-86114667D01*
X115658054Y-86110824D01*
X115673649Y-86102286D01*
X115775724Y-86025785D01*
X115788285Y-86013224D01*
X115864786Y-85911149D01*
X115873324Y-85895554D01*
X115918478Y-85775106D01*
X115922105Y-85759851D01*
X115927631Y-85708986D01*
X115928000Y-85702172D01*
X115928000Y-85000000D01*
X145486835Y-85000000D01*
X145505465Y-85236711D01*
X145560895Y-85467594D01*
X145651760Y-85686963D01*
X145654346Y-85691183D01*
X145773241Y-85885202D01*
X145773245Y-85885208D01*
X145775824Y-85889416D01*
X145930031Y-86069969D01*
X146110584Y-86224176D01*
X146114792Y-86226755D01*
X146114798Y-86226759D01*
X146306673Y-86344340D01*
X146313037Y-86348240D01*
X146317607Y-86350133D01*
X146317611Y-86350135D01*
X146519415Y-86433724D01*
X146532406Y-86439105D01*
X146556836Y-86444970D01*
X146758476Y-86493380D01*
X146758482Y-86493381D01*
X146763289Y-86494535D01*
X147000000Y-86513165D01*
X147236711Y-86494535D01*
X147241518Y-86493381D01*
X147241524Y-86493380D01*
X147443164Y-86444970D01*
X147467594Y-86439105D01*
X147480585Y-86433724D01*
X147682389Y-86350135D01*
X147682393Y-86350133D01*
X147686963Y-86348240D01*
X147693327Y-86344340D01*
X147885202Y-86226759D01*
X147885208Y-86226755D01*
X147889416Y-86224176D01*
X148069969Y-86069969D01*
X148224176Y-85889416D01*
X148226755Y-85885208D01*
X148226759Y-85885202D01*
X148345654Y-85691183D01*
X148348240Y-85686963D01*
X148439105Y-85467594D01*
X148494535Y-85236711D01*
X148513165Y-85000000D01*
X148494535Y-84763289D01*
X148491971Y-84752606D01*
X148440260Y-84537218D01*
X148439105Y-84532406D01*
X148404694Y-84449329D01*
X148350135Y-84317611D01*
X148350133Y-84317607D01*
X148348240Y-84313037D01*
X148345654Y-84308817D01*
X148226759Y-84114798D01*
X148226755Y-84114792D01*
X148224176Y-84110584D01*
X148069969Y-83930031D01*
X147889416Y-83775824D01*
X147885208Y-83773245D01*
X147885202Y-83773241D01*
X147691183Y-83654346D01*
X147686963Y-83651760D01*
X147682393Y-83649867D01*
X147682389Y-83649865D01*
X147472167Y-83562789D01*
X147472165Y-83562788D01*
X147467594Y-83560895D01*
X147387391Y-83541640D01*
X147241524Y-83506620D01*
X147241518Y-83506619D01*
X147236711Y-83505465D01*
X147000000Y-83486835D01*
X146763289Y-83505465D01*
X146758482Y-83506619D01*
X146758476Y-83506620D01*
X146612609Y-83541640D01*
X146532406Y-83560895D01*
X146527835Y-83562788D01*
X146527833Y-83562789D01*
X146317611Y-83649865D01*
X146317607Y-83649867D01*
X146313037Y-83651760D01*
X146308817Y-83654346D01*
X146114798Y-83773241D01*
X146114792Y-83773245D01*
X146110584Y-83775824D01*
X145930031Y-83930031D01*
X145775824Y-84110584D01*
X145773245Y-84114792D01*
X145773241Y-84114798D01*
X145654346Y-84308817D01*
X145651760Y-84313037D01*
X145649867Y-84317607D01*
X145649865Y-84317611D01*
X145595306Y-84449329D01*
X145560895Y-84532406D01*
X145559740Y-84537218D01*
X145508030Y-84752606D01*
X145505465Y-84763289D01*
X145486835Y-85000000D01*
X115928000Y-85000000D01*
X115928000Y-84977115D01*
X115923525Y-84961876D01*
X115922135Y-84960671D01*
X115914452Y-84959000D01*
X112930116Y-84959000D01*
X112914877Y-84963475D01*
X112913672Y-84964865D01*
X112912001Y-84972548D01*
X112912001Y-85702169D01*
X112912371Y-85708990D01*
X112917895Y-85759852D01*
X112921521Y-85775104D01*
X112966676Y-85895554D01*
X112975214Y-85911149D01*
X113051715Y-86013224D01*
X113064276Y-86025785D01*
X113166351Y-86102286D01*
X113181945Y-86110824D01*
X113193513Y-86115160D01*
X113250279Y-86157801D01*
X113274980Y-86224362D01*
X113259774Y-86293711D01*
X113248168Y-86311235D01*
X113154633Y-86429670D01*
X113154630Y-86429675D01*
X113151432Y-86433724D01*
X113148939Y-86438240D01*
X113148937Y-86438243D01*
X113037823Y-86639526D01*
X113035326Y-86644050D01*
X113033602Y-86648919D01*
X113033600Y-86648923D01*
X112981603Y-86795757D01*
X112955130Y-86870515D01*
X112954223Y-86875608D01*
X112954222Y-86875611D01*
X112929053Y-87016913D01*
X112912999Y-87107037D01*
X112912936Y-87112201D01*
X112911247Y-87250475D01*
X112910064Y-87347263D01*
X112946404Y-87584744D01*
X112962023Y-87632531D01*
X113019434Y-87808183D01*
X113019437Y-87808189D01*
X113021042Y-87813101D01*
X113023429Y-87817687D01*
X113023431Y-87817691D01*
X113069536Y-87906257D01*
X113131975Y-88026200D01*
X113135085Y-88030342D01*
X113211715Y-88132403D01*
X113276223Y-88218320D01*
X113449912Y-88384301D01*
X113486903Y-88409535D01*
X113531904Y-88464444D01*
X113540075Y-88534968D01*
X113508821Y-88598716D01*
X113484340Y-88619411D01*
X113482707Y-88620468D01*
X113478023Y-88623498D01*
X113300330Y-88785186D01*
X113276141Y-88815815D01*
X113154633Y-88969670D01*
X113154630Y-88969675D01*
X113151432Y-88973724D01*
X113148939Y-88978240D01*
X113148937Y-88978243D01*
X113061919Y-89135876D01*
X113035326Y-89184050D01*
X113033602Y-89188919D01*
X113033600Y-89188923D01*
X112977081Y-89348528D01*
X112955130Y-89410515D01*
X112954223Y-89415608D01*
X112954222Y-89415611D01*
X112915038Y-89635592D01*
X112912999Y-89647037D01*
X112912936Y-89652201D01*
X112911637Y-89758554D01*
X112910064Y-89887263D01*
X101799688Y-89887263D01*
X101713171Y-89777517D01*
X101606980Y-89677623D01*
X101531610Y-89606722D01*
X101531608Y-89606720D01*
X101528209Y-89603523D01*
X101369574Y-89493474D01*
X101323393Y-89461437D01*
X101323390Y-89461435D01*
X101319561Y-89458779D01*
X101315384Y-89456719D01*
X101315377Y-89456715D01*
X101095996Y-89348528D01*
X101095992Y-89348527D01*
X101091810Y-89346464D01*
X100849960Y-89269047D01*
X100845355Y-89268297D01*
X100603935Y-89228980D01*
X100603934Y-89228980D01*
X100599323Y-89228229D01*
X100472365Y-89226567D01*
X100350083Y-89224966D01*
X100350080Y-89224966D01*
X100345406Y-89224905D01*
X100093787Y-89259149D01*
X99849993Y-89330208D01*
X99619380Y-89436522D01*
X99598260Y-89450369D01*
X99410928Y-89573189D01*
X99410923Y-89573193D01*
X99407015Y-89575755D01*
X99348504Y-89627978D01*
X99281643Y-89687654D01*
X99217562Y-89744848D01*
X99055183Y-89940087D01*
X98923447Y-90157182D01*
X98921638Y-90161496D01*
X98921637Y-90161498D01*
X98827517Y-90385950D01*
X98825246Y-90391365D01*
X98762738Y-90637490D01*
X98737296Y-90890151D01*
X83109958Y-90890151D01*
X83107447Y-90856358D01*
X83094818Y-90686411D01*
X83094817Y-90686407D01*
X83094472Y-90681759D01*
X83076047Y-90600330D01*
X83039459Y-90438639D01*
X83038428Y-90434082D01*
X83014294Y-90372022D01*
X82948084Y-90201762D01*
X82948083Y-90201760D01*
X82946391Y-90197409D01*
X82941492Y-90188838D01*
X82822702Y-89980997D01*
X82822700Y-89980995D01*
X82820383Y-89976940D01*
X82663171Y-89777517D01*
X82556980Y-89677623D01*
X82481610Y-89606722D01*
X82481608Y-89606720D01*
X82478209Y-89603523D01*
X82319574Y-89493474D01*
X82273393Y-89461437D01*
X82273390Y-89461435D01*
X82269561Y-89458779D01*
X82265384Y-89456719D01*
X82265377Y-89456715D01*
X82045996Y-89348528D01*
X82045992Y-89348527D01*
X82041810Y-89346464D01*
X81799960Y-89269047D01*
X81795355Y-89268297D01*
X81553935Y-89228980D01*
X81553934Y-89228980D01*
X81549323Y-89228229D01*
X81422365Y-89226567D01*
X81300083Y-89224966D01*
X81300080Y-89224966D01*
X81295406Y-89224905D01*
X81043787Y-89259149D01*
X80799993Y-89330208D01*
X80569380Y-89436522D01*
X80548260Y-89450369D01*
X80360928Y-89573189D01*
X80360923Y-89573193D01*
X80357015Y-89575755D01*
X80298504Y-89627978D01*
X80231643Y-89687654D01*
X80167562Y-89744848D01*
X80005183Y-89940087D01*
X79873447Y-90157182D01*
X79871638Y-90161496D01*
X79871637Y-90161498D01*
X79777517Y-90385950D01*
X79775246Y-90391365D01*
X79712738Y-90637490D01*
X79687296Y-90890151D01*
X64059958Y-90890151D01*
X64057447Y-90856358D01*
X64044818Y-90686411D01*
X64044817Y-90686407D01*
X64044472Y-90681759D01*
X64026047Y-90600330D01*
X63989459Y-90438639D01*
X63988428Y-90434082D01*
X63964294Y-90372022D01*
X63898084Y-90201762D01*
X63898083Y-90201760D01*
X63896391Y-90197409D01*
X63891492Y-90188838D01*
X63772702Y-89980997D01*
X63772700Y-89980995D01*
X63770383Y-89976940D01*
X63613171Y-89777517D01*
X63506980Y-89677623D01*
X63431610Y-89606722D01*
X63431608Y-89606720D01*
X63428209Y-89603523D01*
X63269574Y-89493474D01*
X63223393Y-89461437D01*
X63223390Y-89461435D01*
X63219561Y-89458779D01*
X63215384Y-89456719D01*
X63215377Y-89456715D01*
X62995996Y-89348528D01*
X62995992Y-89348527D01*
X62991810Y-89346464D01*
X62749960Y-89269047D01*
X62745355Y-89268297D01*
X62503935Y-89228980D01*
X62503934Y-89228980D01*
X62499323Y-89228229D01*
X62372365Y-89226567D01*
X62250083Y-89224966D01*
X62250080Y-89224966D01*
X62245406Y-89224905D01*
X61993787Y-89259149D01*
X61749993Y-89330208D01*
X61519380Y-89436522D01*
X61498260Y-89450369D01*
X61310928Y-89573189D01*
X61310923Y-89573193D01*
X61307015Y-89575755D01*
X61248504Y-89627978D01*
X61181643Y-89687654D01*
X61117562Y-89744848D01*
X60955183Y-89940087D01*
X60823447Y-90157182D01*
X60821638Y-90161496D01*
X60821637Y-90161498D01*
X60727517Y-90385950D01*
X60725246Y-90391365D01*
X60662738Y-90637490D01*
X60637296Y-90890151D01*
X43508000Y-90890151D01*
X43508000Y-84679669D01*
X60642001Y-84679669D01*
X60642371Y-84686490D01*
X60647895Y-84737352D01*
X60651521Y-84752604D01*
X60696676Y-84873054D01*
X60705214Y-84888649D01*
X60781715Y-84990724D01*
X60794276Y-85003285D01*
X60896351Y-85079786D01*
X60911946Y-85088324D01*
X61032394Y-85133478D01*
X61047649Y-85137105D01*
X61098514Y-85142631D01*
X61105328Y-85143000D01*
X62077885Y-85143000D01*
X62093124Y-85138525D01*
X62094329Y-85137135D01*
X62096000Y-85129452D01*
X62096000Y-85124884D01*
X62604000Y-85124884D01*
X62608475Y-85140123D01*
X62609865Y-85141328D01*
X62617548Y-85142999D01*
X63594669Y-85142999D01*
X63601490Y-85142629D01*
X63652352Y-85137105D01*
X63667604Y-85133479D01*
X63788054Y-85088324D01*
X63803649Y-85079786D01*
X63905724Y-85003285D01*
X63918285Y-84990724D01*
X63994786Y-84888649D01*
X64003324Y-84873054D01*
X64048478Y-84752606D01*
X64052105Y-84737351D01*
X64057631Y-84686486D01*
X64058000Y-84679672D01*
X64058000Y-84679669D01*
X79692001Y-84679669D01*
X79692371Y-84686490D01*
X79697895Y-84737352D01*
X79701521Y-84752604D01*
X79746676Y-84873054D01*
X79755214Y-84888649D01*
X79831715Y-84990724D01*
X79844276Y-85003285D01*
X79946351Y-85079786D01*
X79961946Y-85088324D01*
X80082394Y-85133478D01*
X80097649Y-85137105D01*
X80148514Y-85142631D01*
X80155328Y-85143000D01*
X81127885Y-85143000D01*
X81143124Y-85138525D01*
X81144329Y-85137135D01*
X81146000Y-85129452D01*
X81146000Y-85124884D01*
X81654000Y-85124884D01*
X81658475Y-85140123D01*
X81659865Y-85141328D01*
X81667548Y-85142999D01*
X82644669Y-85142999D01*
X82651490Y-85142629D01*
X82702352Y-85137105D01*
X82717604Y-85133479D01*
X82838054Y-85088324D01*
X82853649Y-85079786D01*
X82955724Y-85003285D01*
X82968285Y-84990724D01*
X83044786Y-84888649D01*
X83053324Y-84873054D01*
X83098478Y-84752606D01*
X83102105Y-84737351D01*
X83107631Y-84686486D01*
X83108000Y-84679672D01*
X83108000Y-84679669D01*
X98742001Y-84679669D01*
X98742371Y-84686490D01*
X98747895Y-84737352D01*
X98751521Y-84752604D01*
X98796676Y-84873054D01*
X98805214Y-84888649D01*
X98881715Y-84990724D01*
X98894276Y-85003285D01*
X98996351Y-85079786D01*
X99011946Y-85088324D01*
X99132394Y-85133478D01*
X99147649Y-85137105D01*
X99198514Y-85142631D01*
X99205328Y-85143000D01*
X100177885Y-85143000D01*
X100193124Y-85138525D01*
X100194329Y-85137135D01*
X100196000Y-85129452D01*
X100196000Y-85124884D01*
X100704000Y-85124884D01*
X100708475Y-85140123D01*
X100709865Y-85141328D01*
X100717548Y-85142999D01*
X101694669Y-85142999D01*
X101701490Y-85142629D01*
X101752352Y-85137105D01*
X101767604Y-85133479D01*
X101888054Y-85088324D01*
X101903649Y-85079786D01*
X102005724Y-85003285D01*
X102018285Y-84990724D01*
X102094786Y-84888649D01*
X102103324Y-84873054D01*
X102148478Y-84752606D01*
X102152105Y-84737351D01*
X102157631Y-84686486D01*
X102158000Y-84679672D01*
X102158000Y-84432885D01*
X112912000Y-84432885D01*
X112916475Y-84448124D01*
X112917865Y-84449329D01*
X112925548Y-84451000D01*
X114147885Y-84451000D01*
X114163124Y-84446525D01*
X114164329Y-84445135D01*
X114166000Y-84437452D01*
X114166000Y-84432885D01*
X114674000Y-84432885D01*
X114678475Y-84448124D01*
X114679865Y-84449329D01*
X114687548Y-84451000D01*
X115909884Y-84451000D01*
X115925123Y-84446525D01*
X115926328Y-84445135D01*
X115927999Y-84437452D01*
X115927999Y-83707831D01*
X115927629Y-83701010D01*
X115922105Y-83650148D01*
X115918479Y-83634896D01*
X115873324Y-83514446D01*
X115864786Y-83498851D01*
X115788285Y-83396776D01*
X115775724Y-83384215D01*
X115673649Y-83307714D01*
X115658054Y-83299176D01*
X115537606Y-83254022D01*
X115522351Y-83250395D01*
X115471486Y-83244869D01*
X115464672Y-83244500D01*
X114692115Y-83244500D01*
X114676876Y-83248975D01*
X114675671Y-83250365D01*
X114674000Y-83258048D01*
X114674000Y-84432885D01*
X114166000Y-84432885D01*
X114166000Y-83262616D01*
X114161525Y-83247377D01*
X114160135Y-83246172D01*
X114152452Y-83244501D01*
X113375331Y-83244501D01*
X113368510Y-83244871D01*
X113317648Y-83250395D01*
X113302396Y-83254021D01*
X113181946Y-83299176D01*
X113166351Y-83307714D01*
X113064276Y-83384215D01*
X113051715Y-83396776D01*
X112975214Y-83498851D01*
X112966676Y-83514446D01*
X112921522Y-83634894D01*
X112917895Y-83650149D01*
X112912369Y-83701014D01*
X112912000Y-83707828D01*
X112912000Y-84432885D01*
X102158000Y-84432885D01*
X102158000Y-83707115D01*
X102153525Y-83691876D01*
X102152135Y-83690671D01*
X102144452Y-83689000D01*
X100722115Y-83689000D01*
X100706876Y-83693475D01*
X100705671Y-83694865D01*
X100704000Y-83702548D01*
X100704000Y-85124884D01*
X100196000Y-85124884D01*
X100196000Y-83707115D01*
X100191525Y-83691876D01*
X100190135Y-83690671D01*
X100182452Y-83689000D01*
X98760116Y-83689000D01*
X98744877Y-83693475D01*
X98743672Y-83694865D01*
X98742001Y-83702548D01*
X98742001Y-84679669D01*
X83108000Y-84679669D01*
X83108000Y-83707115D01*
X83103525Y-83691876D01*
X83102135Y-83690671D01*
X83094452Y-83689000D01*
X81672115Y-83689000D01*
X81656876Y-83693475D01*
X81655671Y-83694865D01*
X81654000Y-83702548D01*
X81654000Y-85124884D01*
X81146000Y-85124884D01*
X81146000Y-83707115D01*
X81141525Y-83691876D01*
X81140135Y-83690671D01*
X81132452Y-83689000D01*
X79710116Y-83689000D01*
X79694877Y-83693475D01*
X79693672Y-83694865D01*
X79692001Y-83702548D01*
X79692001Y-84679669D01*
X64058000Y-84679669D01*
X64058000Y-83707115D01*
X64053525Y-83691876D01*
X64052135Y-83690671D01*
X64044452Y-83689000D01*
X62622115Y-83689000D01*
X62606876Y-83693475D01*
X62605671Y-83694865D01*
X62604000Y-83702548D01*
X62604000Y-85124884D01*
X62096000Y-85124884D01*
X62096000Y-83707115D01*
X62091525Y-83691876D01*
X62090135Y-83690671D01*
X62082452Y-83689000D01*
X60660116Y-83689000D01*
X60644877Y-83693475D01*
X60643672Y-83694865D01*
X60642001Y-83702548D01*
X60642001Y-84679669D01*
X43508000Y-84679669D01*
X43508000Y-83162885D01*
X60642000Y-83162885D01*
X60646475Y-83178124D01*
X60647865Y-83179329D01*
X60655548Y-83181000D01*
X62077885Y-83181000D01*
X62093124Y-83176525D01*
X62094329Y-83175135D01*
X62096000Y-83167452D01*
X62096000Y-83162885D01*
X62604000Y-83162885D01*
X62608475Y-83178124D01*
X62609865Y-83179329D01*
X62617548Y-83181000D01*
X64039884Y-83181000D01*
X64055123Y-83176525D01*
X64056328Y-83175135D01*
X64057999Y-83167452D01*
X64057999Y-83162885D01*
X79692000Y-83162885D01*
X79696475Y-83178124D01*
X79697865Y-83179329D01*
X79705548Y-83181000D01*
X81127885Y-83181000D01*
X81143124Y-83176525D01*
X81144329Y-83175135D01*
X81146000Y-83167452D01*
X81146000Y-83162885D01*
X81654000Y-83162885D01*
X81658475Y-83178124D01*
X81659865Y-83179329D01*
X81667548Y-83181000D01*
X83089884Y-83181000D01*
X83105123Y-83176525D01*
X83106328Y-83175135D01*
X83107999Y-83167452D01*
X83107999Y-83162885D01*
X98742000Y-83162885D01*
X98746475Y-83178124D01*
X98747865Y-83179329D01*
X98755548Y-83181000D01*
X100177885Y-83181000D01*
X100193124Y-83176525D01*
X100194329Y-83175135D01*
X100196000Y-83167452D01*
X100196000Y-83162885D01*
X100704000Y-83162885D01*
X100708475Y-83178124D01*
X100709865Y-83179329D01*
X100717548Y-83181000D01*
X102139884Y-83181000D01*
X102155123Y-83176525D01*
X102156328Y-83175135D01*
X102157999Y-83167452D01*
X102157999Y-82190331D01*
X102157629Y-82183510D01*
X102155619Y-82165000D01*
X108996526Y-82165000D01*
X109016391Y-82417403D01*
X109075495Y-82663591D01*
X109172384Y-82897502D01*
X109304672Y-83113376D01*
X109469102Y-83305898D01*
X109661624Y-83470328D01*
X109877498Y-83602616D01*
X109882068Y-83604509D01*
X109882072Y-83604511D01*
X110096851Y-83693475D01*
X110111409Y-83699505D01*
X110146090Y-83707831D01*
X110352784Y-83757454D01*
X110352790Y-83757455D01*
X110357597Y-83758609D01*
X110610000Y-83778474D01*
X110862403Y-83758609D01*
X110867210Y-83757455D01*
X110867216Y-83757454D01*
X111073910Y-83707831D01*
X111108591Y-83699505D01*
X111123149Y-83693475D01*
X111337928Y-83604511D01*
X111337932Y-83604509D01*
X111342502Y-83602616D01*
X111558376Y-83470328D01*
X111750898Y-83305898D01*
X111915328Y-83113376D01*
X112047616Y-82897502D01*
X112144505Y-82663591D01*
X112203609Y-82417403D01*
X112223474Y-82165000D01*
X112203609Y-81912597D01*
X112195610Y-81879276D01*
X112160467Y-81732895D01*
X112144505Y-81666409D01*
X112113035Y-81590434D01*
X112049511Y-81437072D01*
X112049509Y-81437068D01*
X112047616Y-81432498D01*
X111915328Y-81216624D01*
X111750898Y-81024102D01*
X111558376Y-80859672D01*
X111342502Y-80727384D01*
X111337932Y-80725491D01*
X111337928Y-80725489D01*
X111113164Y-80632389D01*
X111113162Y-80632388D01*
X111108591Y-80630495D01*
X111001559Y-80604799D01*
X110867216Y-80572546D01*
X110867210Y-80572545D01*
X110862403Y-80571391D01*
X110610000Y-80551526D01*
X110357597Y-80571391D01*
X110352790Y-80572545D01*
X110352784Y-80572546D01*
X110218441Y-80604799D01*
X110111409Y-80630495D01*
X110106838Y-80632388D01*
X110106836Y-80632389D01*
X109882072Y-80725489D01*
X109882068Y-80725491D01*
X109877498Y-80727384D01*
X109661624Y-80859672D01*
X109469102Y-81024102D01*
X109304672Y-81216624D01*
X109172384Y-81432498D01*
X109170491Y-81437068D01*
X109170489Y-81437072D01*
X109106965Y-81590434D01*
X109075495Y-81666409D01*
X109059533Y-81732895D01*
X109024391Y-81879276D01*
X109016391Y-81912597D01*
X108996526Y-82165000D01*
X102155619Y-82165000D01*
X102152105Y-82132648D01*
X102148479Y-82117396D01*
X102103324Y-81996946D01*
X102094786Y-81981351D01*
X102018285Y-81879276D01*
X102005724Y-81866715D01*
X101903649Y-81790214D01*
X101888054Y-81781676D01*
X101767606Y-81736522D01*
X101752351Y-81732895D01*
X101701486Y-81727369D01*
X101694672Y-81727000D01*
X100722115Y-81727000D01*
X100706876Y-81731475D01*
X100705671Y-81732865D01*
X100704000Y-81740548D01*
X100704000Y-83162885D01*
X100196000Y-83162885D01*
X100196000Y-81745116D01*
X100191525Y-81729877D01*
X100190135Y-81728672D01*
X100182452Y-81727001D01*
X99205331Y-81727001D01*
X99198510Y-81727371D01*
X99147648Y-81732895D01*
X99132396Y-81736521D01*
X99011946Y-81781676D01*
X98996351Y-81790214D01*
X98894276Y-81866715D01*
X98881715Y-81879276D01*
X98805214Y-81981351D01*
X98796676Y-81996946D01*
X98751522Y-82117394D01*
X98747895Y-82132649D01*
X98742369Y-82183514D01*
X98742000Y-82190328D01*
X98742000Y-83162885D01*
X83107999Y-83162885D01*
X83107999Y-82190331D01*
X83107629Y-82183510D01*
X83102105Y-82132648D01*
X83098479Y-82117396D01*
X83053324Y-81996946D01*
X83044786Y-81981351D01*
X82968285Y-81879276D01*
X82955724Y-81866715D01*
X82853649Y-81790214D01*
X82838054Y-81781676D01*
X82717606Y-81736522D01*
X82702351Y-81732895D01*
X82651486Y-81727369D01*
X82644672Y-81727000D01*
X81672115Y-81727000D01*
X81656876Y-81731475D01*
X81655671Y-81732865D01*
X81654000Y-81740548D01*
X81654000Y-83162885D01*
X81146000Y-83162885D01*
X81146000Y-81745116D01*
X81141525Y-81729877D01*
X81140135Y-81728672D01*
X81132452Y-81727001D01*
X80155331Y-81727001D01*
X80148510Y-81727371D01*
X80097648Y-81732895D01*
X80082396Y-81736521D01*
X79961946Y-81781676D01*
X79946351Y-81790214D01*
X79844276Y-81866715D01*
X79831715Y-81879276D01*
X79755214Y-81981351D01*
X79746676Y-81996946D01*
X79701522Y-82117394D01*
X79697895Y-82132649D01*
X79692369Y-82183514D01*
X79692000Y-82190328D01*
X79692000Y-83162885D01*
X64057999Y-83162885D01*
X64057999Y-82190331D01*
X64057629Y-82183510D01*
X64052105Y-82132648D01*
X64048479Y-82117396D01*
X64003324Y-81996946D01*
X63994786Y-81981351D01*
X63918285Y-81879276D01*
X63905724Y-81866715D01*
X63803649Y-81790214D01*
X63788054Y-81781676D01*
X63667606Y-81736522D01*
X63652351Y-81732895D01*
X63601486Y-81727369D01*
X63594672Y-81727000D01*
X62622115Y-81727000D01*
X62606876Y-81731475D01*
X62605671Y-81732865D01*
X62604000Y-81740548D01*
X62604000Y-83162885D01*
X62096000Y-83162885D01*
X62096000Y-81745116D01*
X62091525Y-81729877D01*
X62090135Y-81728672D01*
X62082452Y-81727001D01*
X61105331Y-81727001D01*
X61098510Y-81727371D01*
X61047648Y-81732895D01*
X61032396Y-81736521D01*
X60911946Y-81781676D01*
X60896351Y-81790214D01*
X60794276Y-81866715D01*
X60781715Y-81879276D01*
X60705214Y-81981351D01*
X60696676Y-81996946D01*
X60651522Y-82117394D01*
X60647895Y-82132649D01*
X60642369Y-82183514D01*
X60642000Y-82190328D01*
X60642000Y-83162885D01*
X43508000Y-83162885D01*
X43508000Y-79558918D01*
X144986917Y-79558918D01*
X145002682Y-79832320D01*
X145003507Y-79836525D01*
X145003508Y-79836533D01*
X145014127Y-79890657D01*
X145055405Y-80101053D01*
X145056792Y-80105103D01*
X145056793Y-80105108D01*
X145077605Y-80165895D01*
X145144112Y-80360144D01*
X145146039Y-80363975D01*
X145250939Y-80572546D01*
X145267160Y-80604799D01*
X145269586Y-80608328D01*
X145269589Y-80608334D01*
X145350108Y-80725489D01*
X145422274Y-80830490D01*
X145606582Y-81033043D01*
X145816675Y-81208707D01*
X145820316Y-81210991D01*
X146045024Y-81351951D01*
X146045028Y-81351953D01*
X146048664Y-81354234D01*
X146116544Y-81384883D01*
X146294345Y-81465164D01*
X146294349Y-81465166D01*
X146298257Y-81466930D01*
X146302377Y-81468150D01*
X146302376Y-81468150D01*
X146556723Y-81543491D01*
X146556727Y-81543492D01*
X146560836Y-81544709D01*
X146565070Y-81545357D01*
X146565075Y-81545358D01*
X146827298Y-81585483D01*
X146827300Y-81585483D01*
X146831540Y-81586132D01*
X146970912Y-81588322D01*
X147101071Y-81590367D01*
X147101077Y-81590367D01*
X147105362Y-81590434D01*
X147377235Y-81557534D01*
X147642127Y-81488041D01*
X147646087Y-81486401D01*
X147646092Y-81486399D01*
X147786407Y-81428278D01*
X147895136Y-81383241D01*
X148131582Y-81245073D01*
X148347089Y-81076094D01*
X148388809Y-81033043D01*
X148534686Y-80882509D01*
X148537669Y-80879431D01*
X148540202Y-80875983D01*
X148540206Y-80875978D01*
X148697257Y-80662178D01*
X148699795Y-80658723D01*
X148727154Y-80608334D01*
X148828418Y-80421830D01*
X148828419Y-80421828D01*
X148830468Y-80418054D01*
X148927269Y-80161877D01*
X148988407Y-79894933D01*
X149012751Y-79622161D01*
X149013193Y-79580000D01*
X148995989Y-79327631D01*
X148994859Y-79311055D01*
X148994858Y-79311049D01*
X148994567Y-79306778D01*
X148939032Y-79038612D01*
X148847617Y-78780465D01*
X148722013Y-78537112D01*
X148712040Y-78522921D01*
X148567008Y-78316562D01*
X148564545Y-78313057D01*
X148378125Y-78112445D01*
X148374810Y-78109731D01*
X148374806Y-78109728D01*
X148214446Y-77978475D01*
X148166205Y-77938990D01*
X147932704Y-77795901D01*
X147928768Y-77794173D01*
X147685873Y-77687549D01*
X147685869Y-77687548D01*
X147681945Y-77685825D01*
X147418566Y-77610800D01*
X147414324Y-77610196D01*
X147414318Y-77610195D01*
X147213834Y-77581662D01*
X147147443Y-77572213D01*
X147003589Y-77571460D01*
X146877877Y-77570802D01*
X146877871Y-77570802D01*
X146873591Y-77570780D01*
X146869347Y-77571339D01*
X146869343Y-77571339D01*
X146750302Y-77587011D01*
X146602078Y-77606525D01*
X146597938Y-77607658D01*
X146597936Y-77607658D01*
X146525008Y-77627609D01*
X146337928Y-77678788D01*
X146333980Y-77680472D01*
X146089982Y-77784546D01*
X146089978Y-77784548D01*
X146086030Y-77786232D01*
X146068531Y-77796705D01*
X145854725Y-77924664D01*
X145854721Y-77924667D01*
X145851043Y-77926868D01*
X145637318Y-78098094D01*
X145448808Y-78296742D01*
X145289002Y-78519136D01*
X145160857Y-78761161D01*
X145159385Y-78765184D01*
X145159383Y-78765188D01*
X145090549Y-78953285D01*
X145066743Y-79018337D01*
X145008404Y-79285907D01*
X144986917Y-79558918D01*
X43508000Y-79558918D01*
X43508000Y-78629669D01*
X46372001Y-78629669D01*
X46372371Y-78636490D01*
X46377895Y-78687352D01*
X46381521Y-78702604D01*
X46426676Y-78823054D01*
X46435214Y-78838649D01*
X46511715Y-78940724D01*
X46524276Y-78953285D01*
X46626351Y-79029786D01*
X46641946Y-79038324D01*
X46762394Y-79083478D01*
X46777649Y-79087105D01*
X46828514Y-79092631D01*
X46835328Y-79093000D01*
X48107885Y-79093000D01*
X48123124Y-79088525D01*
X48124329Y-79087135D01*
X48126000Y-79079452D01*
X48126000Y-79074884D01*
X48634000Y-79074884D01*
X48638475Y-79090123D01*
X48639865Y-79091328D01*
X48647548Y-79092999D01*
X49924669Y-79092999D01*
X49931490Y-79092629D01*
X49982352Y-79087105D01*
X49997604Y-79083479D01*
X50118054Y-79038324D01*
X50133649Y-79029786D01*
X50235724Y-78953285D01*
X50248285Y-78940724D01*
X50305285Y-78864669D01*
X131862001Y-78864669D01*
X131862371Y-78871490D01*
X131867895Y-78922352D01*
X131871521Y-78937604D01*
X131916676Y-79058054D01*
X131925214Y-79073649D01*
X132001715Y-79175724D01*
X132014276Y-79188285D01*
X132116351Y-79264786D01*
X132131946Y-79273324D01*
X132252394Y-79318478D01*
X132267649Y-79322105D01*
X132318514Y-79327631D01*
X132325328Y-79328000D01*
X133197885Y-79328000D01*
X133213124Y-79323525D01*
X133214329Y-79322135D01*
X133216000Y-79314452D01*
X133216000Y-79309884D01*
X133724000Y-79309884D01*
X133728475Y-79325123D01*
X133729865Y-79326328D01*
X133737548Y-79327999D01*
X134614669Y-79327999D01*
X134621490Y-79327629D01*
X134672352Y-79322105D01*
X134687604Y-79318479D01*
X134808054Y-79273324D01*
X134823649Y-79264786D01*
X134925724Y-79188285D01*
X134938285Y-79175724D01*
X135014786Y-79073649D01*
X135023324Y-79058054D01*
X135068478Y-78937606D01*
X135072105Y-78922351D01*
X135077631Y-78871486D01*
X135078000Y-78864672D01*
X135078000Y-77992115D01*
X135073525Y-77976876D01*
X135072135Y-77975671D01*
X135064452Y-77974000D01*
X133742115Y-77974000D01*
X133726876Y-77978475D01*
X133725671Y-77979865D01*
X133724000Y-77987548D01*
X133724000Y-79309884D01*
X133216000Y-79309884D01*
X133216000Y-77992115D01*
X133211525Y-77976876D01*
X133210135Y-77975671D01*
X133202452Y-77974000D01*
X131880116Y-77974000D01*
X131864877Y-77978475D01*
X131863672Y-77979865D01*
X131862001Y-77987548D01*
X131862001Y-78864669D01*
X50305285Y-78864669D01*
X50324786Y-78838649D01*
X50333324Y-78823054D01*
X50378478Y-78702606D01*
X50382105Y-78687351D01*
X50387631Y-78636486D01*
X50388000Y-78629672D01*
X50388000Y-77598134D01*
X54391500Y-77598134D01*
X54398255Y-77660316D01*
X54449385Y-77796705D01*
X54536739Y-77913261D01*
X54653295Y-78000615D01*
X54789684Y-78051745D01*
X54851866Y-78058500D01*
X57148134Y-78058500D01*
X57210316Y-78051745D01*
X57346705Y-78000615D01*
X57463261Y-77913261D01*
X57550615Y-77796705D01*
X57601745Y-77660316D01*
X57608500Y-77598134D01*
X57608500Y-76450000D01*
X64546526Y-76450000D01*
X64566391Y-76702403D01*
X64567545Y-76707210D01*
X64567546Y-76707216D01*
X64595856Y-76825135D01*
X64625495Y-76948591D01*
X64722384Y-77182502D01*
X64854672Y-77398376D01*
X65019102Y-77590898D01*
X65211624Y-77755328D01*
X65427498Y-77887616D01*
X65432068Y-77889509D01*
X65432072Y-77889511D01*
X65646851Y-77978475D01*
X65661409Y-77984505D01*
X65728513Y-78000615D01*
X65902784Y-78042454D01*
X65902790Y-78042455D01*
X65907597Y-78043609D01*
X66160000Y-78063474D01*
X66412403Y-78043609D01*
X66417210Y-78042455D01*
X66417216Y-78042454D01*
X66591487Y-78000615D01*
X66658591Y-77984505D01*
X66673149Y-77978475D01*
X66887928Y-77889511D01*
X66887932Y-77889509D01*
X66892502Y-77887616D01*
X67108376Y-77755328D01*
X67300898Y-77590898D01*
X67423043Y-77447885D01*
X131862000Y-77447885D01*
X131866475Y-77463124D01*
X131867865Y-77464329D01*
X131875548Y-77466000D01*
X133197885Y-77466000D01*
X133213124Y-77461525D01*
X133214329Y-77460135D01*
X133216000Y-77452452D01*
X133216000Y-77447885D01*
X133724000Y-77447885D01*
X133728475Y-77463124D01*
X133729865Y-77464329D01*
X133737548Y-77466000D01*
X135059884Y-77466000D01*
X135075123Y-77461525D01*
X135076328Y-77460135D01*
X135077999Y-77452452D01*
X135077999Y-76575331D01*
X135077629Y-76568510D01*
X135072105Y-76517648D01*
X135068479Y-76502396D01*
X135023324Y-76381946D01*
X135014786Y-76366351D01*
X134938285Y-76264276D01*
X134925724Y-76251715D01*
X134823649Y-76175214D01*
X134808054Y-76166676D01*
X134687606Y-76121522D01*
X134672351Y-76117895D01*
X134621486Y-76112369D01*
X134614672Y-76112000D01*
X133742115Y-76112000D01*
X133726876Y-76116475D01*
X133725671Y-76117865D01*
X133724000Y-76125548D01*
X133724000Y-77447885D01*
X133216000Y-77447885D01*
X133216000Y-76130116D01*
X133211525Y-76114877D01*
X133210135Y-76113672D01*
X133202452Y-76112001D01*
X132325331Y-76112001D01*
X132318510Y-76112371D01*
X132267648Y-76117895D01*
X132252396Y-76121521D01*
X132131946Y-76166676D01*
X132116351Y-76175214D01*
X132014276Y-76251715D01*
X132001715Y-76264276D01*
X131925214Y-76366351D01*
X131916676Y-76381946D01*
X131871522Y-76502394D01*
X131867895Y-76517649D01*
X131862369Y-76568514D01*
X131862000Y-76575328D01*
X131862000Y-77447885D01*
X67423043Y-77447885D01*
X67465328Y-77398376D01*
X67597616Y-77182502D01*
X67694505Y-76948591D01*
X67724144Y-76825135D01*
X67752454Y-76707216D01*
X67752455Y-76707210D01*
X67753609Y-76702403D01*
X67773474Y-76450000D01*
X67766474Y-76361062D01*
X71153493Y-76361062D01*
X71162789Y-76373077D01*
X71213994Y-76408931D01*
X71223489Y-76414414D01*
X71420947Y-76506490D01*
X71431239Y-76510236D01*
X71641688Y-76566625D01*
X71652481Y-76568528D01*
X71869525Y-76587517D01*
X71880475Y-76587517D01*
X72097519Y-76568528D01*
X72108312Y-76566625D01*
X72318761Y-76510236D01*
X72329053Y-76506490D01*
X72526511Y-76414414D01*
X72536006Y-76408931D01*
X72588048Y-76372491D01*
X72596424Y-76362012D01*
X72589356Y-76348566D01*
X71887812Y-75647022D01*
X71873868Y-75639408D01*
X71872035Y-75639539D01*
X71865420Y-75643790D01*
X71159923Y-76349287D01*
X71153493Y-76361062D01*
X67766474Y-76361062D01*
X67753609Y-76197597D01*
X67748236Y-76175214D01*
X67695660Y-75956221D01*
X67694505Y-75951409D01*
X67647953Y-75839022D01*
X67599511Y-75722072D01*
X67599509Y-75722068D01*
X67597616Y-75717498D01*
X67465328Y-75501624D01*
X67300898Y-75309102D01*
X67267380Y-75280475D01*
X70562483Y-75280475D01*
X70581472Y-75497519D01*
X70583375Y-75508312D01*
X70639764Y-75718761D01*
X70643510Y-75729053D01*
X70735586Y-75926511D01*
X70741069Y-75936006D01*
X70777509Y-75988048D01*
X70787988Y-75996424D01*
X70801434Y-75989356D01*
X71785905Y-75004885D01*
X71848217Y-74970859D01*
X71919032Y-74975924D01*
X71964095Y-75004885D01*
X72949287Y-75990077D01*
X72961062Y-75996507D01*
X72973077Y-75987211D01*
X73008931Y-75936006D01*
X73014414Y-75926511D01*
X73106490Y-75729053D01*
X73110236Y-75718761D01*
X73166625Y-75508312D01*
X73168528Y-75497519D01*
X73187517Y-75280475D01*
X73187517Y-75275000D01*
X89611502Y-75275000D01*
X89631457Y-75503087D01*
X89632881Y-75508400D01*
X89632881Y-75508402D01*
X89688909Y-75717498D01*
X89690716Y-75724243D01*
X89693039Y-75729224D01*
X89693039Y-75729225D01*
X89785151Y-75926762D01*
X89785154Y-75926767D01*
X89787477Y-75931749D01*
X89804613Y-75956221D01*
X89905027Y-76099627D01*
X89918802Y-76119300D01*
X90080700Y-76281198D01*
X90085208Y-76284355D01*
X90085211Y-76284357D01*
X90113884Y-76304434D01*
X90268251Y-76412523D01*
X90273233Y-76414846D01*
X90273238Y-76414849D01*
X90468071Y-76505700D01*
X90475757Y-76509284D01*
X90481065Y-76510706D01*
X90481067Y-76510707D01*
X90691598Y-76567119D01*
X90691600Y-76567119D01*
X90696913Y-76568543D01*
X90925000Y-76588498D01*
X91153087Y-76568543D01*
X91158400Y-76567119D01*
X91158402Y-76567119D01*
X91368933Y-76510707D01*
X91368935Y-76510706D01*
X91374243Y-76509284D01*
X91381929Y-76505700D01*
X91576762Y-76414849D01*
X91576767Y-76414846D01*
X91581749Y-76412523D01*
X91736116Y-76304434D01*
X91764789Y-76284357D01*
X91764792Y-76284355D01*
X91769300Y-76281198D01*
X91931198Y-76119300D01*
X91944974Y-76099627D01*
X91951957Y-76089654D01*
X145775618Y-76089654D01*
X145782673Y-76099627D01*
X145813679Y-76125551D01*
X145820598Y-76130579D01*
X146045272Y-76271515D01*
X146052807Y-76275556D01*
X146294520Y-76384694D01*
X146302551Y-76387680D01*
X146556832Y-76463002D01*
X146565184Y-76464869D01*
X146827340Y-76504984D01*
X146835874Y-76505700D01*
X147101045Y-76509867D01*
X147109596Y-76509418D01*
X147372883Y-76477557D01*
X147381284Y-76475955D01*
X147637824Y-76408653D01*
X147645926Y-76405926D01*
X147890949Y-76304434D01*
X147898617Y-76300628D01*
X148127598Y-76166822D01*
X148134679Y-76162009D01*
X148214655Y-76099301D01*
X148223125Y-76087442D01*
X148216608Y-76075818D01*
X147012812Y-74872022D01*
X146998868Y-74864408D01*
X146997035Y-74864539D01*
X146990420Y-74868790D01*
X145782910Y-76076300D01*
X145775618Y-76089654D01*
X91951957Y-76089654D01*
X92045387Y-75956221D01*
X92062523Y-75931749D01*
X92064846Y-75926767D01*
X92064849Y-75926762D01*
X92156961Y-75729225D01*
X92156961Y-75729224D01*
X92159284Y-75724243D01*
X92161092Y-75717498D01*
X92217119Y-75508402D01*
X92217119Y-75508400D01*
X92218543Y-75503087D01*
X92238498Y-75275000D01*
X92218543Y-75046913D01*
X92217119Y-75041598D01*
X92160707Y-74831067D01*
X92160706Y-74831065D01*
X92159284Y-74825757D01*
X92156151Y-74819038D01*
X92064849Y-74623238D01*
X92064846Y-74623233D01*
X92062523Y-74618251D01*
X92059363Y-74613738D01*
X92058410Y-74612376D01*
X92058175Y-74611680D01*
X92056617Y-74608981D01*
X92057160Y-74608668D01*
X92035726Y-74545100D01*
X92053015Y-74476241D01*
X92075656Y-74450919D01*
X92074373Y-74449636D01*
X92093285Y-74430724D01*
X92169786Y-74328649D01*
X92178324Y-74313054D01*
X92223478Y-74192606D01*
X92227105Y-74177351D01*
X92232631Y-74126486D01*
X92233000Y-74119672D01*
X92233000Y-73547115D01*
X92228525Y-73531876D01*
X92227135Y-73530671D01*
X92219452Y-73529000D01*
X89635116Y-73529000D01*
X89619877Y-73533475D01*
X89618672Y-73534865D01*
X89617001Y-73542548D01*
X89617001Y-74119669D01*
X89617371Y-74126490D01*
X89622895Y-74177352D01*
X89626521Y-74192604D01*
X89671676Y-74313054D01*
X89680214Y-74328649D01*
X89756715Y-74430724D01*
X89775627Y-74449636D01*
X89773369Y-74451894D01*
X89806457Y-74496154D01*
X89811476Y-74566973D01*
X89793139Y-74608840D01*
X89793383Y-74608981D01*
X89792115Y-74611177D01*
X89791590Y-74612376D01*
X89790637Y-74613738D01*
X89787477Y-74618251D01*
X89785154Y-74623233D01*
X89785151Y-74623238D01*
X89693849Y-74819038D01*
X89690716Y-74825757D01*
X89689294Y-74831065D01*
X89689293Y-74831067D01*
X89632881Y-75041598D01*
X89631457Y-75046913D01*
X89611502Y-75275000D01*
X73187517Y-75275000D01*
X73187517Y-75269525D01*
X73168528Y-75052481D01*
X73166625Y-75041688D01*
X73110236Y-74831239D01*
X73106490Y-74820947D01*
X73014414Y-74623489D01*
X73008929Y-74613989D01*
X73008299Y-74613090D01*
X73008144Y-74612630D01*
X73006182Y-74609232D01*
X73006865Y-74608838D01*
X72985612Y-74545816D01*
X73002898Y-74476956D01*
X73025934Y-74451197D01*
X73024730Y-74449993D01*
X73031081Y-74443642D01*
X73038261Y-74438261D01*
X73043642Y-74431081D01*
X73043645Y-74431078D01*
X73120229Y-74328891D01*
X73125615Y-74321705D01*
X73176745Y-74185316D01*
X73183500Y-74123134D01*
X73183500Y-73002885D01*
X89617000Y-73002885D01*
X89621475Y-73018124D01*
X89622865Y-73019329D01*
X89630548Y-73021000D01*
X90652885Y-73021000D01*
X90668124Y-73016525D01*
X90669329Y-73015135D01*
X90671000Y-73007452D01*
X90671000Y-73002885D01*
X91179000Y-73002885D01*
X91183475Y-73018124D01*
X91184865Y-73019329D01*
X91192548Y-73021000D01*
X92214884Y-73021000D01*
X92230123Y-73016525D01*
X92231328Y-73015135D01*
X92232999Y-73007452D01*
X92232999Y-72430331D01*
X92232629Y-72423510D01*
X92227105Y-72372648D01*
X92223479Y-72357396D01*
X92178324Y-72236946D01*
X92169786Y-72221351D01*
X92093285Y-72119276D01*
X92080724Y-72106715D01*
X91978649Y-72030214D01*
X91963054Y-72021676D01*
X91842606Y-71976522D01*
X91827351Y-71972895D01*
X91776486Y-71967369D01*
X91769672Y-71967000D01*
X91197115Y-71967000D01*
X91181876Y-71971475D01*
X91180671Y-71972865D01*
X91179000Y-71980548D01*
X91179000Y-73002885D01*
X90671000Y-73002885D01*
X90671000Y-71985116D01*
X90666525Y-71969877D01*
X90665135Y-71968672D01*
X90657452Y-71967001D01*
X90080331Y-71967001D01*
X90073510Y-71967371D01*
X90022648Y-71972895D01*
X90007396Y-71976521D01*
X89886946Y-72021676D01*
X89871351Y-72030214D01*
X89769276Y-72106715D01*
X89756715Y-72119276D01*
X89680214Y-72221351D01*
X89671676Y-72236946D01*
X89626522Y-72357394D01*
X89622895Y-72372649D01*
X89617369Y-72423514D01*
X89617000Y-72430328D01*
X89617000Y-73002885D01*
X73183500Y-73002885D01*
X73183500Y-72426866D01*
X73176745Y-72364684D01*
X73125615Y-72228295D01*
X73038261Y-72111739D01*
X72921705Y-72024385D01*
X72785316Y-71973255D01*
X72723134Y-71966500D01*
X71026866Y-71966500D01*
X70964684Y-71973255D01*
X70828295Y-72024385D01*
X70711739Y-72111739D01*
X70624385Y-72228295D01*
X70573255Y-72364684D01*
X70566500Y-72426866D01*
X70566500Y-74123134D01*
X70573255Y-74185316D01*
X70624385Y-74321705D01*
X70629771Y-74328891D01*
X70706355Y-74431078D01*
X70706358Y-74431081D01*
X70711739Y-74438261D01*
X70718919Y-74443642D01*
X70725270Y-74449993D01*
X70723128Y-74452135D01*
X70756564Y-74496846D01*
X70761594Y-74567664D01*
X70743477Y-74609035D01*
X70743818Y-74609232D01*
X70742048Y-74612298D01*
X70741701Y-74613090D01*
X70741071Y-74613989D01*
X70735586Y-74623489D01*
X70643510Y-74820947D01*
X70639764Y-74831239D01*
X70583375Y-75041688D01*
X70581472Y-75052481D01*
X70562483Y-75269525D01*
X70562483Y-75280475D01*
X67267380Y-75280475D01*
X67108376Y-75144672D01*
X66892502Y-75012384D01*
X66887932Y-75010491D01*
X66887928Y-75010489D01*
X66663164Y-74917389D01*
X66663162Y-74917388D01*
X66658591Y-74915495D01*
X66573968Y-74895179D01*
X66417216Y-74857546D01*
X66417210Y-74857545D01*
X66412403Y-74856391D01*
X66160000Y-74836526D01*
X65907597Y-74856391D01*
X65902790Y-74857545D01*
X65902784Y-74857546D01*
X65746032Y-74895179D01*
X65661409Y-74915495D01*
X65656838Y-74917388D01*
X65656836Y-74917389D01*
X65432072Y-75010489D01*
X65432068Y-75010491D01*
X65427498Y-75012384D01*
X65211624Y-75144672D01*
X65019102Y-75309102D01*
X64854672Y-75501624D01*
X64722384Y-75717498D01*
X64720491Y-75722068D01*
X64720489Y-75722072D01*
X64672047Y-75839022D01*
X64625495Y-75951409D01*
X64624340Y-75956221D01*
X64571765Y-76175214D01*
X64566391Y-76197597D01*
X64546526Y-76450000D01*
X57608500Y-76450000D01*
X57608500Y-75301866D01*
X57601745Y-75239684D01*
X57550615Y-75103295D01*
X57463261Y-74986739D01*
X57346705Y-74899385D01*
X57210316Y-74848255D01*
X57148134Y-74841500D01*
X54851866Y-74841500D01*
X54789684Y-74848255D01*
X54653295Y-74899385D01*
X54536739Y-74986739D01*
X54449385Y-75103295D01*
X54398255Y-75239684D01*
X54391500Y-75301866D01*
X54391500Y-77598134D01*
X50388000Y-77598134D01*
X50388000Y-77357115D01*
X50383525Y-77341876D01*
X50382135Y-77340671D01*
X50374452Y-77339000D01*
X48652115Y-77339000D01*
X48636876Y-77343475D01*
X48635671Y-77344865D01*
X48634000Y-77352548D01*
X48634000Y-79074884D01*
X48126000Y-79074884D01*
X48126000Y-77357115D01*
X48121525Y-77341876D01*
X48120135Y-77340671D01*
X48112452Y-77339000D01*
X46390116Y-77339000D01*
X46374877Y-77343475D01*
X46373672Y-77344865D01*
X46372001Y-77352548D01*
X46372001Y-78629669D01*
X43508000Y-78629669D01*
X43508000Y-76812885D01*
X46372000Y-76812885D01*
X46376475Y-76828124D01*
X46377865Y-76829329D01*
X46385548Y-76831000D01*
X48107885Y-76831000D01*
X48123124Y-76826525D01*
X48124329Y-76825135D01*
X48126000Y-76817452D01*
X48126000Y-76812885D01*
X48634000Y-76812885D01*
X48638475Y-76828124D01*
X48639865Y-76829329D01*
X48647548Y-76831000D01*
X50369884Y-76831000D01*
X50385123Y-76826525D01*
X50386328Y-76825135D01*
X50387999Y-76817452D01*
X50387999Y-75540331D01*
X50387629Y-75533510D01*
X50382105Y-75482648D01*
X50378479Y-75467396D01*
X50333324Y-75346946D01*
X50324786Y-75331351D01*
X50248285Y-75229276D01*
X50235724Y-75216715D01*
X50133649Y-75140214D01*
X50118054Y-75131676D01*
X49997606Y-75086522D01*
X49982351Y-75082895D01*
X49931486Y-75077369D01*
X49924672Y-75077000D01*
X48652115Y-75077000D01*
X48636876Y-75081475D01*
X48635671Y-75082865D01*
X48634000Y-75090548D01*
X48634000Y-76812885D01*
X48126000Y-76812885D01*
X48126000Y-75095116D01*
X48121525Y-75079877D01*
X48120135Y-75078672D01*
X48112452Y-75077001D01*
X46835331Y-75077001D01*
X46828510Y-75077371D01*
X46777648Y-75082895D01*
X46762396Y-75086521D01*
X46641946Y-75131676D01*
X46626351Y-75140214D01*
X46524276Y-75216715D01*
X46511715Y-75229276D01*
X46435214Y-75331351D01*
X46426676Y-75346946D01*
X46381522Y-75467394D01*
X46377895Y-75482649D01*
X46372369Y-75533514D01*
X46372000Y-75540328D01*
X46372000Y-76812885D01*
X43508000Y-76812885D01*
X43508000Y-71983918D01*
X46366917Y-71983918D01*
X46382682Y-72257320D01*
X46383507Y-72261525D01*
X46383508Y-72261533D01*
X46406708Y-72379784D01*
X46435405Y-72526053D01*
X46436792Y-72530103D01*
X46436793Y-72530108D01*
X46514171Y-72756109D01*
X46524112Y-72785144D01*
X46551217Y-72839036D01*
X46642735Y-73021000D01*
X46647160Y-73029799D01*
X46649586Y-73033328D01*
X46649589Y-73033334D01*
X46718624Y-73133779D01*
X46802274Y-73255490D01*
X46805161Y-73258663D01*
X46805162Y-73258664D01*
X46973072Y-73443196D01*
X46986582Y-73458043D01*
X47196675Y-73633707D01*
X47200316Y-73635991D01*
X47425024Y-73776951D01*
X47425028Y-73776953D01*
X47428664Y-73779234D01*
X47496544Y-73809883D01*
X47674345Y-73890164D01*
X47674349Y-73890166D01*
X47678257Y-73891930D01*
X47682377Y-73893150D01*
X47682376Y-73893150D01*
X47936723Y-73968491D01*
X47936727Y-73968492D01*
X47940836Y-73969709D01*
X47945070Y-73970357D01*
X47945075Y-73970358D01*
X48207298Y-74010483D01*
X48207300Y-74010483D01*
X48211540Y-74011132D01*
X48350912Y-74013322D01*
X48481071Y-74015367D01*
X48481077Y-74015367D01*
X48485362Y-74015434D01*
X48757235Y-73982534D01*
X49022127Y-73913041D01*
X49026087Y-73911401D01*
X49026092Y-73911399D01*
X49192524Y-73842460D01*
X49275136Y-73808241D01*
X49451451Y-73705211D01*
X49507879Y-73672237D01*
X49507880Y-73672236D01*
X49511582Y-73670073D01*
X49727089Y-73501094D01*
X49765771Y-73461178D01*
X49914686Y-73307509D01*
X49917669Y-73304431D01*
X49920202Y-73300983D01*
X49920206Y-73300978D01*
X50077257Y-73087178D01*
X50079795Y-73083723D01*
X50107154Y-73033334D01*
X50208418Y-72846830D01*
X50208419Y-72846828D01*
X50210468Y-72843054D01*
X50285333Y-72644930D01*
X50287196Y-72640000D01*
X54386526Y-72640000D01*
X54406391Y-72892403D01*
X54407545Y-72897210D01*
X54407546Y-72897216D01*
X54435856Y-73015135D01*
X54465495Y-73138591D01*
X54467388Y-73143162D01*
X54467389Y-73143164D01*
X54537754Y-73313039D01*
X54562384Y-73372502D01*
X54694672Y-73588376D01*
X54859102Y-73780898D01*
X55051624Y-73945328D01*
X55267498Y-74077616D01*
X55272068Y-74079509D01*
X55272072Y-74079511D01*
X55412015Y-74137477D01*
X55501409Y-74174505D01*
X55576806Y-74192606D01*
X55742784Y-74232454D01*
X55742790Y-74232455D01*
X55747597Y-74233609D01*
X56000000Y-74253474D01*
X56252403Y-74233609D01*
X56257210Y-74232455D01*
X56257216Y-74232454D01*
X56423194Y-74192606D01*
X56498591Y-74174505D01*
X56587985Y-74137477D01*
X56727928Y-74079511D01*
X56727932Y-74079509D01*
X56732502Y-74077616D01*
X56948376Y-73945328D01*
X57132426Y-73788134D01*
X64551500Y-73788134D01*
X64558255Y-73850316D01*
X64609385Y-73986705D01*
X64696739Y-74103261D01*
X64813295Y-74190615D01*
X64949684Y-74241745D01*
X65011866Y-74248500D01*
X67308134Y-74248500D01*
X67370316Y-74241745D01*
X67506705Y-74190615D01*
X67623261Y-74103261D01*
X67710615Y-73986705D01*
X67761745Y-73850316D01*
X67768500Y-73788134D01*
X67768500Y-71491866D01*
X67761745Y-71429684D01*
X67726425Y-71335469D01*
X132057095Y-71335469D01*
X132057392Y-71340622D01*
X132057392Y-71340625D01*
X132066112Y-71491866D01*
X132070427Y-71566697D01*
X132071564Y-71571743D01*
X132071565Y-71571749D01*
X132099530Y-71695838D01*
X132121346Y-71792642D01*
X132123288Y-71797424D01*
X132123289Y-71797428D01*
X132200753Y-71988198D01*
X132208484Y-72007237D01*
X132329501Y-72204719D01*
X132343908Y-72221351D01*
X132441304Y-72333788D01*
X132470786Y-72398373D01*
X132460671Y-72468646D01*
X132414170Y-72522294D01*
X132390296Y-72534267D01*
X132334515Y-72555179D01*
X132323295Y-72559385D01*
X132206739Y-72646739D01*
X132119385Y-72763295D01*
X132068255Y-72899684D01*
X132061500Y-72961866D01*
X132061500Y-74858134D01*
X132068255Y-74920316D01*
X132119385Y-75056705D01*
X132206739Y-75173261D01*
X132323295Y-75260615D01*
X132459684Y-75311745D01*
X132521866Y-75318500D01*
X134418134Y-75318500D01*
X134480316Y-75311745D01*
X134616705Y-75260615D01*
X134733261Y-75173261D01*
X134820615Y-75056705D01*
X134871745Y-74920316D01*
X134878500Y-74858134D01*
X134878500Y-74545000D01*
X138506502Y-74545000D01*
X138526457Y-74773087D01*
X138527881Y-74778400D01*
X138527881Y-74778402D01*
X138550962Y-74864539D01*
X138585716Y-74994243D01*
X138588039Y-74999224D01*
X138588039Y-74999225D01*
X138680151Y-75196762D01*
X138680154Y-75196767D01*
X138682477Y-75201749D01*
X138755400Y-75305894D01*
X138773226Y-75331351D01*
X138813802Y-75389300D01*
X138975700Y-75551198D01*
X138980208Y-75554355D01*
X138980211Y-75554357D01*
X139019565Y-75581913D01*
X139163251Y-75682523D01*
X139168233Y-75684846D01*
X139168238Y-75684849D01*
X139263404Y-75729225D01*
X139370757Y-75779284D01*
X139376065Y-75780706D01*
X139376067Y-75780707D01*
X139586598Y-75837119D01*
X139586600Y-75837119D01*
X139591913Y-75838543D01*
X139820000Y-75858498D01*
X140048087Y-75838543D01*
X140053400Y-75837119D01*
X140053402Y-75837119D01*
X140263933Y-75780707D01*
X140263935Y-75780706D01*
X140269243Y-75779284D01*
X140376596Y-75729225D01*
X140471762Y-75684849D01*
X140471767Y-75684846D01*
X140476749Y-75682523D01*
X140620435Y-75581913D01*
X140659789Y-75554357D01*
X140659792Y-75554355D01*
X140664300Y-75551198D01*
X140826198Y-75389300D01*
X140866775Y-75331351D01*
X140884600Y-75305894D01*
X140957523Y-75201749D01*
X140959846Y-75196767D01*
X140959849Y-75196762D01*
X141051961Y-74999225D01*
X141051961Y-74999224D01*
X141054284Y-74994243D01*
X141089039Y-74864539D01*
X141112119Y-74778402D01*
X141112119Y-74778400D01*
X141113543Y-74773087D01*
X141133498Y-74545000D01*
X141128092Y-74483204D01*
X144987665Y-74483204D01*
X145002932Y-74747969D01*
X145004005Y-74756470D01*
X145055065Y-75016722D01*
X145057276Y-75024974D01*
X145143184Y-75275894D01*
X145146499Y-75283779D01*
X145265664Y-75520713D01*
X145270020Y-75528079D01*
X145399347Y-75716250D01*
X145409601Y-75724594D01*
X145423342Y-75717448D01*
X146627978Y-74512812D01*
X146634356Y-74501132D01*
X147364408Y-74501132D01*
X147364539Y-74502965D01*
X147368790Y-74509580D01*
X148575730Y-75716520D01*
X148587939Y-75723187D01*
X148599439Y-75714497D01*
X148696831Y-75581913D01*
X148701418Y-75574685D01*
X148827962Y-75341621D01*
X148831530Y-75333827D01*
X148925271Y-75085750D01*
X148927748Y-75077544D01*
X148986954Y-74819038D01*
X148988294Y-74810577D01*
X149012031Y-74544616D01*
X149012277Y-74539677D01*
X149012666Y-74502485D01*
X149012523Y-74497519D01*
X148994362Y-74231123D01*
X148993201Y-74222649D01*
X148939419Y-73962944D01*
X148937120Y-73954709D01*
X148848588Y-73704705D01*
X148845191Y-73696854D01*
X148723550Y-73461178D01*
X148719122Y-73453866D01*
X148600031Y-73284417D01*
X148589509Y-73276037D01*
X148576121Y-73283089D01*
X147372022Y-74487188D01*
X147364408Y-74501132D01*
X146634356Y-74501132D01*
X146635592Y-74498868D01*
X146635461Y-74497035D01*
X146631210Y-74490420D01*
X145423814Y-73283024D01*
X145411804Y-73276466D01*
X145400064Y-73285434D01*
X145291935Y-73435911D01*
X145287418Y-73443196D01*
X145163325Y-73677567D01*
X145159839Y-73685395D01*
X145068700Y-73934446D01*
X145066311Y-73942670D01*
X145009812Y-74201795D01*
X145008563Y-74210250D01*
X144987754Y-74474653D01*
X144987665Y-74483204D01*
X141128092Y-74483204D01*
X141113543Y-74316913D01*
X141100652Y-74268802D01*
X141055707Y-74101067D01*
X141055706Y-74101065D01*
X141054284Y-74095757D01*
X141051961Y-74090775D01*
X140959849Y-73893238D01*
X140959846Y-73893233D01*
X140957523Y-73888251D01*
X140826198Y-73700700D01*
X140664300Y-73538802D01*
X140659792Y-73535645D01*
X140659789Y-73535643D01*
X140552900Y-73460799D01*
X140476749Y-73407477D01*
X140471767Y-73405154D01*
X140471762Y-73405151D01*
X140274225Y-73313039D01*
X140274224Y-73313039D01*
X140269243Y-73310716D01*
X140263935Y-73309294D01*
X140263933Y-73309293D01*
X140053402Y-73252881D01*
X140053400Y-73252881D01*
X140048087Y-73251457D01*
X139820000Y-73231502D01*
X139591913Y-73251457D01*
X139586600Y-73252881D01*
X139586598Y-73252881D01*
X139376067Y-73309293D01*
X139376065Y-73309294D01*
X139370757Y-73310716D01*
X139365776Y-73313039D01*
X139365775Y-73313039D01*
X139168238Y-73405151D01*
X139168233Y-73405154D01*
X139163251Y-73407477D01*
X139087100Y-73460799D01*
X138980211Y-73535643D01*
X138980208Y-73535645D01*
X138975700Y-73538802D01*
X138813802Y-73700700D01*
X138682477Y-73888251D01*
X138680154Y-73893233D01*
X138680151Y-73893238D01*
X138588039Y-74090775D01*
X138585716Y-74095757D01*
X138584294Y-74101065D01*
X138584293Y-74101067D01*
X138539348Y-74268802D01*
X138526457Y-74316913D01*
X138506502Y-74545000D01*
X134878500Y-74545000D01*
X134878500Y-72961866D01*
X134871745Y-72899684D01*
X134820615Y-72763295D01*
X134733261Y-72646739D01*
X134616705Y-72559385D01*
X134608296Y-72556233D01*
X134608295Y-72556232D01*
X134549804Y-72534305D01*
X134493039Y-72491664D01*
X134468339Y-72425103D01*
X134483546Y-72355754D01*
X134505093Y-72327073D01*
X134542636Y-72289660D01*
X134542640Y-72289655D01*
X134546303Y-72286005D01*
X134681458Y-72097917D01*
X134705325Y-72049627D01*
X134781784Y-71894922D01*
X134781785Y-71894920D01*
X134784078Y-71890280D01*
X134851408Y-71668671D01*
X134855521Y-71637431D01*
X138230512Y-71637431D01*
X138284817Y-71863624D01*
X138287866Y-71873009D01*
X138380936Y-72097700D01*
X138385417Y-72106494D01*
X138512496Y-72313867D01*
X138518289Y-72321840D01*
X138676249Y-72506787D01*
X138683213Y-72513751D01*
X138868160Y-72671711D01*
X138876133Y-72677504D01*
X139083506Y-72804583D01*
X139092300Y-72809064D01*
X139316991Y-72902134D01*
X139326376Y-72905183D01*
X139548385Y-72958483D01*
X139562470Y-72957778D01*
X139566000Y-72948899D01*
X139566000Y-72944597D01*
X140074000Y-72944597D01*
X140077973Y-72958128D01*
X140087431Y-72959488D01*
X140283147Y-72912500D01*
X145776584Y-72912500D01*
X145782980Y-72923770D01*
X146987188Y-74127978D01*
X147001132Y-74135592D01*
X147002965Y-74135461D01*
X147009580Y-74131210D01*
X148216604Y-72924186D01*
X148223795Y-72911017D01*
X148216473Y-72900780D01*
X148169233Y-72862115D01*
X148162261Y-72857160D01*
X147936122Y-72718582D01*
X147928552Y-72714624D01*
X147685704Y-72608022D01*
X147677644Y-72605120D01*
X147422592Y-72532467D01*
X147414214Y-72530685D01*
X147151656Y-72493318D01*
X147143111Y-72492691D01*
X146877908Y-72491302D01*
X146869374Y-72491839D01*
X146606433Y-72526456D01*
X146598035Y-72528149D01*
X146342238Y-72598127D01*
X146334143Y-72600946D01*
X146090199Y-72704997D01*
X146082577Y-72708881D01*
X145855013Y-72845075D01*
X145847981Y-72849962D01*
X145785053Y-72900377D01*
X145776584Y-72912500D01*
X140283147Y-72912500D01*
X140313624Y-72905183D01*
X140323009Y-72902134D01*
X140547700Y-72809064D01*
X140556494Y-72804583D01*
X140763867Y-72677504D01*
X140771840Y-72671711D01*
X140956787Y-72513751D01*
X140963751Y-72506787D01*
X141121711Y-72321840D01*
X141127504Y-72313867D01*
X141254583Y-72106494D01*
X141259064Y-72097700D01*
X141352134Y-71873009D01*
X141355183Y-71863624D01*
X141408483Y-71641615D01*
X141407778Y-71627530D01*
X141398899Y-71624000D01*
X140092115Y-71624000D01*
X140076876Y-71628475D01*
X140075671Y-71629865D01*
X140074000Y-71637548D01*
X140074000Y-72944597D01*
X139566000Y-72944597D01*
X139566000Y-71642115D01*
X139561525Y-71626876D01*
X139560135Y-71625671D01*
X139552452Y-71624000D01*
X138245403Y-71624000D01*
X138231872Y-71627973D01*
X138230512Y-71637431D01*
X134855521Y-71637431D01*
X134881640Y-71439041D01*
X134882042Y-71422598D01*
X134883245Y-71373365D01*
X134883245Y-71373361D01*
X134883327Y-71370000D01*
X134869759Y-71204970D01*
X134864773Y-71144318D01*
X134864772Y-71144312D01*
X134864349Y-71139167D01*
X134854105Y-71098385D01*
X138231517Y-71098385D01*
X138232222Y-71112470D01*
X138241101Y-71116000D01*
X139547885Y-71116000D01*
X139563124Y-71111525D01*
X139564329Y-71110135D01*
X139566000Y-71102452D01*
X139566000Y-71097885D01*
X140074000Y-71097885D01*
X140078475Y-71113124D01*
X140079865Y-71114329D01*
X140087548Y-71116000D01*
X141394597Y-71116000D01*
X141408128Y-71112027D01*
X141409488Y-71102569D01*
X141377212Y-70968134D01*
X144991500Y-70968134D01*
X144998255Y-71030316D01*
X145049385Y-71166705D01*
X145136739Y-71283261D01*
X145253295Y-71370615D01*
X145389684Y-71421745D01*
X145451866Y-71428500D01*
X148548134Y-71428500D01*
X148610316Y-71421745D01*
X148746705Y-71370615D01*
X148863261Y-71283261D01*
X148950615Y-71166705D01*
X149001745Y-71030316D01*
X149008500Y-70968134D01*
X149008500Y-67871866D01*
X149001745Y-67809684D01*
X148950615Y-67673295D01*
X148863261Y-67556739D01*
X148746705Y-67469385D01*
X148610316Y-67418255D01*
X148548134Y-67411500D01*
X145451866Y-67411500D01*
X145389684Y-67418255D01*
X145253295Y-67469385D01*
X145136739Y-67556739D01*
X145049385Y-67673295D01*
X144998255Y-67809684D01*
X144991500Y-67871866D01*
X144991500Y-70968134D01*
X141377212Y-70968134D01*
X141355183Y-70876376D01*
X141352134Y-70866991D01*
X141259064Y-70642300D01*
X141254583Y-70633506D01*
X141127504Y-70426133D01*
X141121711Y-70418160D01*
X140963751Y-70233213D01*
X140956787Y-70226249D01*
X140771840Y-70068289D01*
X140763867Y-70062496D01*
X140556494Y-69935417D01*
X140547700Y-69930936D01*
X140323009Y-69837866D01*
X140313624Y-69834817D01*
X140091615Y-69781517D01*
X140077530Y-69782222D01*
X140074000Y-69791101D01*
X140074000Y-71097885D01*
X139566000Y-71097885D01*
X139566000Y-69795403D01*
X139562027Y-69781872D01*
X139552569Y-69780512D01*
X139326376Y-69834817D01*
X139316991Y-69837866D01*
X139092300Y-69930936D01*
X139083506Y-69935417D01*
X138876133Y-70062496D01*
X138868160Y-70068289D01*
X138683213Y-70226249D01*
X138676249Y-70233213D01*
X138518289Y-70418160D01*
X138512496Y-70426133D01*
X138385417Y-70633506D01*
X138380936Y-70642300D01*
X138287866Y-70866991D01*
X138284817Y-70876376D01*
X138231517Y-71098385D01*
X134854105Y-71098385D01*
X134820832Y-70965919D01*
X134809184Y-70919544D01*
X134809183Y-70919540D01*
X134807925Y-70914533D01*
X134805866Y-70909797D01*
X134717630Y-70706868D01*
X134717628Y-70706865D01*
X134715570Y-70702131D01*
X134589764Y-70507665D01*
X134433887Y-70336358D01*
X134429836Y-70333159D01*
X134429832Y-70333155D01*
X134256177Y-70196011D01*
X134256172Y-70196008D01*
X134252123Y-70192810D01*
X134247607Y-70190317D01*
X134247604Y-70190315D01*
X134053879Y-70083373D01*
X134053875Y-70083371D01*
X134049355Y-70080876D01*
X134044486Y-70079152D01*
X134044482Y-70079150D01*
X133835903Y-70005288D01*
X133835899Y-70005287D01*
X133831028Y-70003562D01*
X133825935Y-70002655D01*
X133825932Y-70002654D01*
X133608095Y-69963851D01*
X133608089Y-69963850D01*
X133603006Y-69962945D01*
X133530096Y-69962054D01*
X133376581Y-69960179D01*
X133376579Y-69960179D01*
X133371411Y-69960116D01*
X133142464Y-69995150D01*
X132922314Y-70067106D01*
X132917726Y-70069494D01*
X132917722Y-70069496D01*
X132721461Y-70171663D01*
X132716872Y-70174052D01*
X132712739Y-70177155D01*
X132712736Y-70177157D01*
X132654475Y-70220901D01*
X132531655Y-70313117D01*
X132371639Y-70480564D01*
X132368725Y-70484836D01*
X132368724Y-70484837D01*
X132353152Y-70507665D01*
X132241119Y-70671899D01*
X132143602Y-70881981D01*
X132081707Y-71105169D01*
X132057095Y-71335469D01*
X67726425Y-71335469D01*
X67710615Y-71293295D01*
X67623261Y-71176739D01*
X67506705Y-71089385D01*
X67370316Y-71038255D01*
X67308134Y-71031500D01*
X65011866Y-71031500D01*
X64949684Y-71038255D01*
X64813295Y-71089385D01*
X64696739Y-71176739D01*
X64609385Y-71293295D01*
X64558255Y-71429684D01*
X64551500Y-71491866D01*
X64551500Y-73788134D01*
X57132426Y-73788134D01*
X57140898Y-73780898D01*
X57305328Y-73588376D01*
X57437616Y-73372502D01*
X57462247Y-73313039D01*
X57532611Y-73143164D01*
X57532612Y-73143162D01*
X57534505Y-73138591D01*
X57564144Y-73015135D01*
X57592454Y-72897216D01*
X57592455Y-72897210D01*
X57593609Y-72892403D01*
X57613474Y-72640000D01*
X57593609Y-72387597D01*
X57591734Y-72379784D01*
X57535660Y-72146221D01*
X57534505Y-72141409D01*
X57525337Y-72119276D01*
X57439511Y-71912072D01*
X57439509Y-71912068D01*
X57437616Y-71907498D01*
X57305328Y-71691624D01*
X57140898Y-71499102D01*
X56948376Y-71334672D01*
X56732502Y-71202384D01*
X56727932Y-71200491D01*
X56727928Y-71200489D01*
X56503164Y-71107389D01*
X56503162Y-71107388D01*
X56498591Y-71105495D01*
X56413968Y-71085179D01*
X56257216Y-71047546D01*
X56257210Y-71047545D01*
X56252403Y-71046391D01*
X56000000Y-71026526D01*
X55747597Y-71046391D01*
X55742790Y-71047545D01*
X55742784Y-71047546D01*
X55586032Y-71085179D01*
X55501409Y-71105495D01*
X55496838Y-71107388D01*
X55496836Y-71107389D01*
X55272072Y-71200489D01*
X55272068Y-71200491D01*
X55267498Y-71202384D01*
X55051624Y-71334672D01*
X54859102Y-71499102D01*
X54694672Y-71691624D01*
X54562384Y-71907498D01*
X54560491Y-71912068D01*
X54560489Y-71912072D01*
X54474663Y-72119276D01*
X54465495Y-72141409D01*
X54464340Y-72146221D01*
X54408267Y-72379784D01*
X54406391Y-72387597D01*
X54386526Y-72640000D01*
X50287196Y-72640000D01*
X50305751Y-72590895D01*
X50305752Y-72590891D01*
X50307269Y-72586877D01*
X50354012Y-72382784D01*
X50367449Y-72324117D01*
X50367450Y-72324113D01*
X50368407Y-72319933D01*
X50368949Y-72313867D01*
X50392531Y-72049627D01*
X50392531Y-72049625D01*
X50392751Y-72047161D01*
X50393193Y-72005000D01*
X50393020Y-72002450D01*
X50374859Y-71736055D01*
X50374858Y-71736049D01*
X50374567Y-71731778D01*
X50366252Y-71691624D01*
X50339310Y-71561529D01*
X50319032Y-71463612D01*
X50227617Y-71205465D01*
X50172091Y-71097885D01*
X50103978Y-70965919D01*
X50103978Y-70965918D01*
X50102013Y-70962112D01*
X50092040Y-70947921D01*
X49947008Y-70741562D01*
X49944545Y-70738057D01*
X49758125Y-70537445D01*
X49754810Y-70534731D01*
X49754806Y-70534728D01*
X49549523Y-70366706D01*
X49546205Y-70363990D01*
X49381847Y-70263272D01*
X49316366Y-70223145D01*
X49316365Y-70223145D01*
X49312704Y-70220901D01*
X49308768Y-70219173D01*
X49065873Y-70112549D01*
X49065869Y-70112548D01*
X49061945Y-70110825D01*
X48798566Y-70035800D01*
X48794324Y-70035196D01*
X48794318Y-70035195D01*
X48565673Y-70002654D01*
X48527443Y-69997213D01*
X48383589Y-69996460D01*
X48257877Y-69995802D01*
X48257871Y-69995802D01*
X48253591Y-69995780D01*
X48249347Y-69996339D01*
X48249343Y-69996339D01*
X48130302Y-70012011D01*
X47982078Y-70031525D01*
X47977938Y-70032658D01*
X47977936Y-70032658D01*
X47905008Y-70052609D01*
X47717928Y-70103788D01*
X47713980Y-70105472D01*
X47469982Y-70209546D01*
X47469978Y-70209548D01*
X47466030Y-70211232D01*
X47347414Y-70282222D01*
X47234725Y-70349664D01*
X47234721Y-70349667D01*
X47231043Y-70351868D01*
X47017318Y-70523094D01*
X47000717Y-70540588D01*
X46871659Y-70676587D01*
X46828808Y-70721742D01*
X46669002Y-70944136D01*
X46540857Y-71186161D01*
X46539385Y-71190184D01*
X46539383Y-71190188D01*
X46451739Y-71429684D01*
X46446743Y-71443337D01*
X46388404Y-71710907D01*
X46388068Y-71715177D01*
X46367785Y-71972895D01*
X46366917Y-71983918D01*
X43508000Y-71983918D01*
X43508000Y-66908359D01*
X61341386Y-66908359D01*
X61350099Y-66919879D01*
X61438586Y-66984760D01*
X61446505Y-66989708D01*
X61662877Y-67103547D01*
X61671451Y-67107275D01*
X61902282Y-67187885D01*
X61911291Y-67190299D01*
X62151518Y-67235908D01*
X62160775Y-67236962D01*
X62405107Y-67246563D01*
X62414420Y-67246237D01*
X62657478Y-67219618D01*
X62666655Y-67217917D01*
X62903107Y-67155665D01*
X62911926Y-67152628D01*
X63136584Y-67056107D01*
X63144856Y-67051800D01*
X63352777Y-66923135D01*
X63354620Y-66921796D01*
X63362038Y-66910541D01*
X63360760Y-66908359D01*
X80391386Y-66908359D01*
X80400099Y-66919879D01*
X80488586Y-66984760D01*
X80496505Y-66989708D01*
X80712877Y-67103547D01*
X80721451Y-67107275D01*
X80952282Y-67187885D01*
X80961291Y-67190299D01*
X81201518Y-67235908D01*
X81210775Y-67236962D01*
X81455107Y-67246563D01*
X81464420Y-67246237D01*
X81707478Y-67219618D01*
X81716655Y-67217917D01*
X81953107Y-67155665D01*
X81961926Y-67152628D01*
X82186584Y-67056107D01*
X82194856Y-67051800D01*
X82402777Y-66923135D01*
X82404620Y-66921796D01*
X82412038Y-66910541D01*
X82410760Y-66908359D01*
X99441386Y-66908359D01*
X99450099Y-66919879D01*
X99538586Y-66984760D01*
X99546505Y-66989708D01*
X99762877Y-67103547D01*
X99771451Y-67107275D01*
X100002282Y-67187885D01*
X100011291Y-67190299D01*
X100251518Y-67235908D01*
X100260775Y-67236962D01*
X100505107Y-67246563D01*
X100514420Y-67246237D01*
X100757478Y-67219618D01*
X100766655Y-67217917D01*
X101003107Y-67155665D01*
X101011926Y-67152628D01*
X101236584Y-67056107D01*
X101244856Y-67051800D01*
X101449763Y-66925000D01*
X108996526Y-66925000D01*
X109016391Y-67177403D01*
X109017545Y-67182210D01*
X109017546Y-67182216D01*
X109052209Y-67326598D01*
X109075495Y-67423591D01*
X109077388Y-67428162D01*
X109077389Y-67428164D01*
X109133621Y-67563919D01*
X109172384Y-67657502D01*
X109304672Y-67873376D01*
X109469102Y-68065898D01*
X109661624Y-68230328D01*
X109877498Y-68362616D01*
X109882068Y-68364509D01*
X109882072Y-68364511D01*
X109987540Y-68408197D01*
X110111409Y-68459505D01*
X110196032Y-68479821D01*
X110352784Y-68517454D01*
X110352790Y-68517455D01*
X110357597Y-68518609D01*
X110610000Y-68538474D01*
X110862403Y-68518609D01*
X110867210Y-68517455D01*
X110867216Y-68517454D01*
X111023968Y-68479821D01*
X111108591Y-68459505D01*
X111232460Y-68408197D01*
X111337928Y-68364511D01*
X111337932Y-68364509D01*
X111342502Y-68362616D01*
X111558376Y-68230328D01*
X111750898Y-68065898D01*
X111915328Y-67873376D01*
X112047616Y-67657502D01*
X112086380Y-67563919D01*
X112088003Y-67560000D01*
X132156502Y-67560000D01*
X132176457Y-67788087D01*
X132177881Y-67793400D01*
X132177881Y-67793402D01*
X132200318Y-67877135D01*
X132235716Y-68009243D01*
X132238039Y-68014224D01*
X132238039Y-68014225D01*
X132330151Y-68211762D01*
X132330154Y-68211767D01*
X132332477Y-68216749D01*
X132463802Y-68404300D01*
X132625700Y-68566198D01*
X132630208Y-68569355D01*
X132630211Y-68569357D01*
X132708389Y-68624098D01*
X132813251Y-68697523D01*
X132818233Y-68699846D01*
X132818238Y-68699849D01*
X133015775Y-68791961D01*
X133020757Y-68794284D01*
X133026065Y-68795706D01*
X133026067Y-68795707D01*
X133236598Y-68852119D01*
X133236600Y-68852119D01*
X133241913Y-68853543D01*
X133470000Y-68873498D01*
X133698087Y-68853543D01*
X133703400Y-68852119D01*
X133703402Y-68852119D01*
X133913933Y-68795707D01*
X133913935Y-68795706D01*
X133919243Y-68794284D01*
X133924225Y-68791961D01*
X134121762Y-68699849D01*
X134121767Y-68699846D01*
X134126749Y-68697523D01*
X134231611Y-68624098D01*
X134309789Y-68569357D01*
X134309792Y-68569355D01*
X134314300Y-68566198D01*
X134476198Y-68404300D01*
X134607523Y-68216749D01*
X134609846Y-68211767D01*
X134609849Y-68211762D01*
X134701961Y-68014225D01*
X134701961Y-68014224D01*
X134704284Y-68009243D01*
X134739683Y-67877135D01*
X134762119Y-67793402D01*
X134762119Y-67793400D01*
X134763543Y-67788087D01*
X134783498Y-67560000D01*
X134763543Y-67331913D01*
X134762119Y-67326598D01*
X134705707Y-67116067D01*
X134705706Y-67116065D01*
X134704284Y-67110757D01*
X134700922Y-67103547D01*
X134609849Y-66908238D01*
X134609846Y-66908233D01*
X134607523Y-66903251D01*
X134476198Y-66715700D01*
X134314300Y-66553802D01*
X134309792Y-66550645D01*
X134309789Y-66550643D01*
X134231611Y-66495902D01*
X134126749Y-66422477D01*
X134121767Y-66420154D01*
X134121762Y-66420151D01*
X133924225Y-66328039D01*
X133924224Y-66328039D01*
X133919243Y-66325716D01*
X133913935Y-66324294D01*
X133913933Y-66324293D01*
X133703402Y-66267881D01*
X133703400Y-66267881D01*
X133698087Y-66266457D01*
X133470000Y-66246502D01*
X133241913Y-66266457D01*
X133236600Y-66267881D01*
X133236598Y-66267881D01*
X133026067Y-66324293D01*
X133026065Y-66324294D01*
X133020757Y-66325716D01*
X133015776Y-66328039D01*
X133015775Y-66328039D01*
X132818238Y-66420151D01*
X132818233Y-66420154D01*
X132813251Y-66422477D01*
X132708389Y-66495902D01*
X132630211Y-66550643D01*
X132630208Y-66550645D01*
X132625700Y-66553802D01*
X132463802Y-66715700D01*
X132332477Y-66903251D01*
X132330154Y-66908233D01*
X132330151Y-66908238D01*
X132239078Y-67103547D01*
X132235716Y-67110757D01*
X132234294Y-67116065D01*
X132234293Y-67116067D01*
X132177881Y-67326598D01*
X132176457Y-67331913D01*
X132156502Y-67560000D01*
X112088003Y-67560000D01*
X112142611Y-67428164D01*
X112142612Y-67428162D01*
X112144505Y-67423591D01*
X112167791Y-67326598D01*
X112202454Y-67182216D01*
X112202455Y-67182210D01*
X112203609Y-67177403D01*
X112223474Y-66925000D01*
X112203609Y-66672597D01*
X112144505Y-66426409D01*
X112141913Y-66420151D01*
X112049511Y-66197072D01*
X112049509Y-66197068D01*
X112047616Y-66192498D01*
X111915328Y-65976624D01*
X111750898Y-65784102D01*
X111558376Y-65619672D01*
X111342502Y-65487384D01*
X111337932Y-65485491D01*
X111337928Y-65485489D01*
X111113164Y-65392389D01*
X111113162Y-65392388D01*
X111108591Y-65390495D01*
X110989450Y-65361892D01*
X110867216Y-65332546D01*
X110867210Y-65332545D01*
X110862403Y-65331391D01*
X110610000Y-65311526D01*
X110357597Y-65331391D01*
X110352790Y-65332545D01*
X110352784Y-65332546D01*
X110230550Y-65361892D01*
X110111409Y-65390495D01*
X110106838Y-65392388D01*
X110106836Y-65392389D01*
X109882072Y-65485489D01*
X109882068Y-65485491D01*
X109877498Y-65487384D01*
X109661624Y-65619672D01*
X109469102Y-65784102D01*
X109304672Y-65976624D01*
X109172384Y-66192498D01*
X109170491Y-66197068D01*
X109170489Y-66197072D01*
X109078087Y-66420151D01*
X109075495Y-66426409D01*
X109016391Y-66672597D01*
X108996526Y-66925000D01*
X101449763Y-66925000D01*
X101452777Y-66923135D01*
X101454620Y-66921796D01*
X101462038Y-66910541D01*
X101455974Y-66900184D01*
X100462812Y-65907022D01*
X100448868Y-65899408D01*
X100447035Y-65899539D01*
X100440420Y-65903790D01*
X99448044Y-66896166D01*
X99441386Y-66908359D01*
X82410760Y-66908359D01*
X82405974Y-66900184D01*
X81412812Y-65907022D01*
X81398868Y-65899408D01*
X81397035Y-65899539D01*
X81390420Y-65903790D01*
X80398044Y-66896166D01*
X80391386Y-66908359D01*
X63360760Y-66908359D01*
X63355974Y-66900184D01*
X62362812Y-65907022D01*
X62348868Y-65899408D01*
X62347035Y-65899539D01*
X62340420Y-65903790D01*
X61348044Y-66896166D01*
X61341386Y-66908359D01*
X43508000Y-66908359D01*
X43508000Y-65494835D01*
X60638022Y-65494835D01*
X60649754Y-65739064D01*
X60650891Y-65748324D01*
X60698593Y-65988143D01*
X60701082Y-65997118D01*
X60783708Y-66227250D01*
X60787505Y-66235778D01*
X60903234Y-66451160D01*
X60908245Y-66459027D01*
X60965173Y-66535263D01*
X60976431Y-66543712D01*
X60988850Y-66536940D01*
X61977978Y-65547812D01*
X61984356Y-65536132D01*
X62714408Y-65536132D01*
X62714539Y-65537965D01*
X62718790Y-65544580D01*
X63713732Y-66539522D01*
X63726112Y-66546282D01*
X63734453Y-66540038D01*
X63852700Y-66356202D01*
X63857147Y-66348011D01*
X63957572Y-66125076D01*
X63960767Y-66116298D01*
X64027135Y-65880973D01*
X64028993Y-65871844D01*
X64060044Y-65627770D01*
X64060525Y-65621483D01*
X64062706Y-65538160D01*
X64062555Y-65531851D01*
X64059804Y-65494835D01*
X79688022Y-65494835D01*
X79699754Y-65739064D01*
X79700891Y-65748324D01*
X79748593Y-65988143D01*
X79751082Y-65997118D01*
X79833708Y-66227250D01*
X79837505Y-66235778D01*
X79953234Y-66451160D01*
X79958245Y-66459027D01*
X80015173Y-66535263D01*
X80026431Y-66543712D01*
X80038850Y-66536940D01*
X81027978Y-65547812D01*
X81034356Y-65536132D01*
X81764408Y-65536132D01*
X81764539Y-65537965D01*
X81768790Y-65544580D01*
X82763732Y-66539522D01*
X82776112Y-66546282D01*
X82784453Y-66540038D01*
X82902700Y-66356202D01*
X82907147Y-66348011D01*
X83007572Y-66125076D01*
X83010767Y-66116298D01*
X83077135Y-65880973D01*
X83078993Y-65871844D01*
X83110044Y-65627770D01*
X83110525Y-65621483D01*
X83112706Y-65538160D01*
X83112555Y-65531851D01*
X83109804Y-65494835D01*
X98738022Y-65494835D01*
X98749754Y-65739064D01*
X98750891Y-65748324D01*
X98798593Y-65988143D01*
X98801082Y-65997118D01*
X98883708Y-66227250D01*
X98887505Y-66235778D01*
X99003234Y-66451160D01*
X99008245Y-66459027D01*
X99065173Y-66535263D01*
X99076431Y-66543712D01*
X99088850Y-66536940D01*
X100077978Y-65547812D01*
X100084356Y-65536132D01*
X100814408Y-65536132D01*
X100814539Y-65537965D01*
X100818790Y-65544580D01*
X101813732Y-66539522D01*
X101826112Y-66546282D01*
X101834453Y-66540038D01*
X101952700Y-66356202D01*
X101957147Y-66348011D01*
X102057572Y-66125076D01*
X102060767Y-66116298D01*
X102127135Y-65880973D01*
X102128993Y-65871844D01*
X102160044Y-65627770D01*
X102160525Y-65621483D01*
X102162706Y-65538160D01*
X102162555Y-65531851D01*
X102144321Y-65286486D01*
X102142944Y-65277280D01*
X102088979Y-65038786D01*
X102086255Y-65029875D01*
X101997633Y-64801983D01*
X101993619Y-64793567D01*
X101872284Y-64581276D01*
X101867074Y-64573553D01*
X101835787Y-64533865D01*
X101823863Y-64525395D01*
X101812328Y-64531882D01*
X100822022Y-65522188D01*
X100814408Y-65536132D01*
X100084356Y-65536132D01*
X100085592Y-65533868D01*
X100085461Y-65532035D01*
X100081210Y-65525420D01*
X99086828Y-64531038D01*
X99073520Y-64523771D01*
X99063481Y-64530893D01*
X99058581Y-64536784D01*
X99053168Y-64544373D01*
X98926322Y-64753409D01*
X98922084Y-64761726D01*
X98827529Y-64987214D01*
X98824572Y-64996052D01*
X98764384Y-65233042D01*
X98762763Y-65242232D01*
X98738267Y-65485510D01*
X98738022Y-65494835D01*
X83109804Y-65494835D01*
X83094321Y-65286486D01*
X83092944Y-65277280D01*
X83038979Y-65038786D01*
X83036255Y-65029875D01*
X82947633Y-64801983D01*
X82943619Y-64793567D01*
X82822284Y-64581276D01*
X82817074Y-64573553D01*
X82785787Y-64533865D01*
X82773863Y-64525395D01*
X82762328Y-64531882D01*
X81772022Y-65522188D01*
X81764408Y-65536132D01*
X81034356Y-65536132D01*
X81035592Y-65533868D01*
X81035461Y-65532035D01*
X81031210Y-65525420D01*
X80036828Y-64531038D01*
X80023520Y-64523771D01*
X80013481Y-64530893D01*
X80008581Y-64536784D01*
X80003168Y-64544373D01*
X79876322Y-64753409D01*
X79872084Y-64761726D01*
X79777529Y-64987214D01*
X79774572Y-64996052D01*
X79714384Y-65233042D01*
X79712763Y-65242232D01*
X79688267Y-65485510D01*
X79688022Y-65494835D01*
X64059804Y-65494835D01*
X64044321Y-65286486D01*
X64042944Y-65277280D01*
X63988979Y-65038786D01*
X63986255Y-65029875D01*
X63897633Y-64801983D01*
X63893619Y-64793567D01*
X63772284Y-64581276D01*
X63767074Y-64573553D01*
X63735787Y-64533865D01*
X63723863Y-64525395D01*
X63712328Y-64531882D01*
X62722022Y-65522188D01*
X62714408Y-65536132D01*
X61984356Y-65536132D01*
X61985592Y-65533868D01*
X61985461Y-65532035D01*
X61981210Y-65525420D01*
X60986828Y-64531038D01*
X60973520Y-64523771D01*
X60963481Y-64530893D01*
X60958581Y-64536784D01*
X60953168Y-64544373D01*
X60826322Y-64753409D01*
X60822084Y-64761726D01*
X60727529Y-64987214D01*
X60724572Y-64996052D01*
X60664384Y-65233042D01*
X60662763Y-65242232D01*
X60638267Y-65485510D01*
X60638022Y-65494835D01*
X43508000Y-65494835D01*
X43508000Y-64159917D01*
X61339330Y-64159917D01*
X61343903Y-64169693D01*
X62337188Y-65162978D01*
X62351132Y-65170592D01*
X62352965Y-65170461D01*
X62359580Y-65166210D01*
X63352488Y-64173302D01*
X63358872Y-64161612D01*
X63357555Y-64159917D01*
X80389330Y-64159917D01*
X80393903Y-64169693D01*
X81387188Y-65162978D01*
X81401132Y-65170592D01*
X81402965Y-65170461D01*
X81409580Y-65166210D01*
X82402488Y-64173302D01*
X82408872Y-64161612D01*
X82407555Y-64159917D01*
X99439330Y-64159917D01*
X99443903Y-64169693D01*
X100437188Y-65162978D01*
X100451132Y-65170592D01*
X100452965Y-65170461D01*
X100459580Y-65166210D01*
X101138527Y-64487263D01*
X112910064Y-64487263D01*
X112946404Y-64724744D01*
X112983094Y-64836997D01*
X113019434Y-64948183D01*
X113019437Y-64948189D01*
X113021042Y-64953101D01*
X113023429Y-64957687D01*
X113023431Y-64957691D01*
X113061008Y-65029875D01*
X113131975Y-65166200D01*
X113135085Y-65170342D01*
X113255713Y-65331003D01*
X113276223Y-65358320D01*
X113449912Y-65524301D01*
X113648378Y-65659686D01*
X113653061Y-65661860D01*
X113653065Y-65661862D01*
X113861595Y-65758658D01*
X113861599Y-65758659D01*
X113866290Y-65760837D01*
X114097798Y-65825040D01*
X114102935Y-65825589D01*
X114290593Y-65845644D01*
X114290601Y-65845644D01*
X114293928Y-65846000D01*
X114528402Y-65846000D01*
X114530975Y-65845788D01*
X114530986Y-65845788D01*
X114631946Y-65837487D01*
X114706937Y-65831322D01*
X114939944Y-65772794D01*
X115068771Y-65716779D01*
X115155526Y-65679057D01*
X115155529Y-65679055D01*
X115160263Y-65676997D01*
X115361977Y-65546502D01*
X115539670Y-65384814D01*
X115624595Y-65277280D01*
X115685367Y-65200330D01*
X115685370Y-65200325D01*
X115688568Y-65196276D01*
X115702747Y-65170592D01*
X115802177Y-64990474D01*
X115802179Y-64990470D01*
X115804674Y-64985950D01*
X115884870Y-64759485D01*
X115885778Y-64754389D01*
X115926095Y-64528052D01*
X115926096Y-64528046D01*
X115927001Y-64522963D01*
X115929936Y-64282737D01*
X115893596Y-64045256D01*
X115835917Y-63868785D01*
X115820566Y-63821817D01*
X115820563Y-63821811D01*
X115818958Y-63816899D01*
X115708025Y-63603800D01*
X115630090Y-63500000D01*
X145486835Y-63500000D01*
X145505465Y-63736711D01*
X145560895Y-63967594D01*
X145562788Y-63972165D01*
X145562789Y-63972167D01*
X145644607Y-64169693D01*
X145651760Y-64186963D01*
X145654346Y-64191183D01*
X145773241Y-64385202D01*
X145773245Y-64385208D01*
X145775824Y-64389416D01*
X145930031Y-64569969D01*
X146110584Y-64724176D01*
X146114792Y-64726755D01*
X146114798Y-64726759D01*
X146308817Y-64845654D01*
X146313037Y-64848240D01*
X146317607Y-64850133D01*
X146317611Y-64850135D01*
X146527833Y-64937211D01*
X146532406Y-64939105D01*
X146570219Y-64948183D01*
X146758476Y-64993380D01*
X146758482Y-64993381D01*
X146763289Y-64994535D01*
X147000000Y-65013165D01*
X147236711Y-64994535D01*
X147241518Y-64993381D01*
X147241524Y-64993380D01*
X147429781Y-64948183D01*
X147467594Y-64939105D01*
X147472167Y-64937211D01*
X147682389Y-64850135D01*
X147682393Y-64850133D01*
X147686963Y-64848240D01*
X147691183Y-64845654D01*
X147885202Y-64726759D01*
X147885208Y-64726755D01*
X147889416Y-64724176D01*
X148069969Y-64569969D01*
X148224176Y-64389416D01*
X148226755Y-64385208D01*
X148226759Y-64385202D01*
X148345654Y-64191183D01*
X148348240Y-64186963D01*
X148355394Y-64169693D01*
X148437211Y-63972167D01*
X148437212Y-63972165D01*
X148439105Y-63967594D01*
X148494535Y-63736711D01*
X148513165Y-63500000D01*
X148494535Y-63263289D01*
X148491170Y-63249270D01*
X148453653Y-63093003D01*
X148439105Y-63032406D01*
X148429508Y-63009237D01*
X148350135Y-62817611D01*
X148350133Y-62817607D01*
X148348240Y-62813037D01*
X148312815Y-62755229D01*
X148226759Y-62614798D01*
X148226755Y-62614792D01*
X148224176Y-62610584D01*
X148069969Y-62430031D01*
X147889416Y-62275824D01*
X147885208Y-62273245D01*
X147885202Y-62273241D01*
X147691183Y-62154346D01*
X147686963Y-62151760D01*
X147682393Y-62149867D01*
X147682389Y-62149865D01*
X147472167Y-62062789D01*
X147472165Y-62062788D01*
X147467594Y-62060895D01*
X147387391Y-62041640D01*
X147241524Y-62006620D01*
X147241518Y-62006619D01*
X147236711Y-62005465D01*
X147000000Y-61986835D01*
X146763289Y-62005465D01*
X146758482Y-62006619D01*
X146758476Y-62006620D01*
X146612609Y-62041640D01*
X146532406Y-62060895D01*
X146527835Y-62062788D01*
X146527833Y-62062789D01*
X146317611Y-62149865D01*
X146317607Y-62149867D01*
X146313037Y-62151760D01*
X146308817Y-62154346D01*
X146114798Y-62273241D01*
X146114792Y-62273245D01*
X146110584Y-62275824D01*
X145930031Y-62430031D01*
X145775824Y-62610584D01*
X145773245Y-62614792D01*
X145773241Y-62614798D01*
X145687185Y-62755229D01*
X145651760Y-62813037D01*
X145649867Y-62817607D01*
X145649865Y-62817611D01*
X145570492Y-63009237D01*
X145560895Y-63032406D01*
X145546347Y-63093003D01*
X145508831Y-63249270D01*
X145505465Y-63263289D01*
X145486835Y-63500000D01*
X115630090Y-63500000D01*
X115563777Y-63411680D01*
X115408495Y-63263289D01*
X115393825Y-63249270D01*
X115393824Y-63249269D01*
X115390088Y-63245699D01*
X115352649Y-63220160D01*
X115307648Y-63165249D01*
X115299477Y-63094725D01*
X115330731Y-63030978D01*
X115355210Y-63010284D01*
X115357326Y-63008915D01*
X115365498Y-63002622D01*
X115535480Y-62847950D01*
X115542506Y-62840417D01*
X115684945Y-62660056D01*
X115690650Y-62651469D01*
X115801714Y-62450278D01*
X115805944Y-62440866D01*
X115835241Y-62358134D01*
X138211500Y-62358134D01*
X138218255Y-62420316D01*
X138269385Y-62556705D01*
X138356739Y-62673261D01*
X138473295Y-62760615D01*
X138609684Y-62811745D01*
X138671866Y-62818500D01*
X140968134Y-62818500D01*
X141030316Y-62811745D01*
X141166705Y-62760615D01*
X141283261Y-62673261D01*
X141370615Y-62556705D01*
X141421745Y-62420316D01*
X141428500Y-62358134D01*
X141428500Y-60061866D01*
X141421745Y-59999684D01*
X141370615Y-59863295D01*
X141283261Y-59746739D01*
X141166705Y-59659385D01*
X141030316Y-59608255D01*
X140968134Y-59601500D01*
X138671866Y-59601500D01*
X138609684Y-59608255D01*
X138473295Y-59659385D01*
X138356739Y-59746739D01*
X138269385Y-59863295D01*
X138218255Y-59999684D01*
X138211500Y-60061866D01*
X138211500Y-62358134D01*
X115835241Y-62358134D01*
X115882659Y-62224232D01*
X115885293Y-62214261D01*
X115902647Y-62116837D01*
X115901187Y-62103540D01*
X115886630Y-62099000D01*
X112951904Y-62099000D01*
X112938560Y-62102918D01*
X112936573Y-62117194D01*
X112946110Y-62179515D01*
X112948499Y-62189543D01*
X113019898Y-62407988D01*
X113023895Y-62417497D01*
X113130011Y-62621344D01*
X113135505Y-62630069D01*
X113273493Y-62813852D01*
X113280336Y-62821559D01*
X113446491Y-62980339D01*
X113454498Y-62986823D01*
X113487356Y-63009237D01*
X113532359Y-63064148D01*
X113540532Y-63134672D01*
X113509278Y-63198420D01*
X113484796Y-63219116D01*
X113483181Y-63220161D01*
X113478023Y-63223498D01*
X113300330Y-63385186D01*
X113276141Y-63415815D01*
X113154633Y-63569670D01*
X113154630Y-63569675D01*
X113151432Y-63573724D01*
X113148939Y-63578240D01*
X113148937Y-63578243D01*
X113037823Y-63779526D01*
X113035326Y-63784050D01*
X113033602Y-63788919D01*
X113033600Y-63788923D01*
X112956856Y-64005640D01*
X112955130Y-64010515D01*
X112954223Y-64015608D01*
X112954222Y-64015611D01*
X112923700Y-64186963D01*
X112912999Y-64247037D01*
X112912936Y-64252201D01*
X112911214Y-64393175D01*
X112910064Y-64487263D01*
X101138527Y-64487263D01*
X101452488Y-64173302D01*
X101458872Y-64161612D01*
X101449460Y-64149502D01*
X101323144Y-64061873D01*
X101315116Y-64057145D01*
X101095810Y-63948995D01*
X101087177Y-63945507D01*
X100854288Y-63870958D01*
X100845238Y-63868785D01*
X100603891Y-63829480D01*
X100594602Y-63828668D01*
X100350114Y-63825467D01*
X100340803Y-63826037D01*
X100098522Y-63859010D01*
X100089403Y-63860948D01*
X99854668Y-63929367D01*
X99845915Y-63932639D01*
X99623869Y-64035004D01*
X99615714Y-64039524D01*
X99448468Y-64149175D01*
X99439330Y-64159917D01*
X82407555Y-64159917D01*
X82399460Y-64149502D01*
X82273144Y-64061873D01*
X82265116Y-64057145D01*
X82045810Y-63948995D01*
X82037177Y-63945507D01*
X81804288Y-63870958D01*
X81795238Y-63868785D01*
X81553891Y-63829480D01*
X81544602Y-63828668D01*
X81300114Y-63825467D01*
X81290803Y-63826037D01*
X81048522Y-63859010D01*
X81039403Y-63860948D01*
X80804668Y-63929367D01*
X80795915Y-63932639D01*
X80573869Y-64035004D01*
X80565714Y-64039524D01*
X80398468Y-64149175D01*
X80389330Y-64159917D01*
X63357555Y-64159917D01*
X63349460Y-64149502D01*
X63223144Y-64061873D01*
X63215116Y-64057145D01*
X62995810Y-63948995D01*
X62987177Y-63945507D01*
X62754288Y-63870958D01*
X62745238Y-63868785D01*
X62503891Y-63829480D01*
X62494602Y-63828668D01*
X62250114Y-63825467D01*
X62240803Y-63826037D01*
X61998522Y-63859010D01*
X61989403Y-63860948D01*
X61754668Y-63929367D01*
X61745915Y-63932639D01*
X61523869Y-64035004D01*
X61515714Y-64039524D01*
X61348468Y-64149175D01*
X61339330Y-64159917D01*
X43508000Y-64159917D01*
X43508000Y-60305634D01*
X112911500Y-60305634D01*
X112918255Y-60367816D01*
X112969385Y-60504205D01*
X113056739Y-60620761D01*
X113173295Y-60708115D01*
X113192368Y-60715265D01*
X113193683Y-60715758D01*
X113250447Y-60758401D01*
X113275146Y-60824962D01*
X113259938Y-60894311D01*
X113248334Y-60911832D01*
X113155055Y-61029944D01*
X113149350Y-61038531D01*
X113038286Y-61239722D01*
X113034056Y-61249134D01*
X112957341Y-61465768D01*
X112954707Y-61475739D01*
X112937353Y-61573163D01*
X112938813Y-61586460D01*
X112953370Y-61591000D01*
X115888096Y-61591000D01*
X115901440Y-61587082D01*
X115903427Y-61572806D01*
X115893890Y-61510485D01*
X115891501Y-61500457D01*
X115820102Y-61282012D01*
X115816105Y-61272503D01*
X115709989Y-61068656D01*
X115704500Y-61059939D01*
X115591098Y-60908901D01*
X115566193Y-60842416D01*
X115581186Y-60773020D01*
X115631316Y-60722747D01*
X115647625Y-60715268D01*
X115666705Y-60708115D01*
X115783261Y-60620761D01*
X115870615Y-60504205D01*
X115921745Y-60367816D01*
X115928500Y-60305634D01*
X115928500Y-58304366D01*
X115921745Y-58242184D01*
X115870615Y-58105795D01*
X115783261Y-57989239D01*
X115666705Y-57901885D01*
X115530316Y-57850755D01*
X115468134Y-57844000D01*
X113371866Y-57844000D01*
X113309684Y-57850755D01*
X113173295Y-57901885D01*
X113056739Y-57989239D01*
X112969385Y-58105795D01*
X112918255Y-58242184D01*
X112911500Y-58304366D01*
X112911500Y-60305634D01*
X43508000Y-60305634D01*
X43508000Y-59283134D01*
X60641500Y-59283134D01*
X60648255Y-59345316D01*
X60699385Y-59481705D01*
X60786739Y-59598261D01*
X60903295Y-59685615D01*
X61039684Y-59736745D01*
X61101866Y-59743500D01*
X63598134Y-59743500D01*
X63660316Y-59736745D01*
X63796705Y-59685615D01*
X63913261Y-59598261D01*
X64000615Y-59481705D01*
X64051745Y-59345316D01*
X64058500Y-59283134D01*
X79691500Y-59283134D01*
X79698255Y-59345316D01*
X79749385Y-59481705D01*
X79836739Y-59598261D01*
X79953295Y-59685615D01*
X80089684Y-59736745D01*
X80151866Y-59743500D01*
X82648134Y-59743500D01*
X82710316Y-59736745D01*
X82846705Y-59685615D01*
X82963261Y-59598261D01*
X83050615Y-59481705D01*
X83101745Y-59345316D01*
X83108500Y-59283134D01*
X98741500Y-59283134D01*
X98748255Y-59345316D01*
X98799385Y-59481705D01*
X98886739Y-59598261D01*
X99003295Y-59685615D01*
X99139684Y-59736745D01*
X99201866Y-59743500D01*
X101698134Y-59743500D01*
X101760316Y-59736745D01*
X101896705Y-59685615D01*
X102013261Y-59598261D01*
X102100615Y-59481705D01*
X102151745Y-59345316D01*
X102158500Y-59283134D01*
X102158500Y-57913134D01*
X109001500Y-57913134D01*
X109008255Y-57975316D01*
X109059385Y-58111705D01*
X109146739Y-58228261D01*
X109263295Y-58315615D01*
X109399684Y-58366745D01*
X109461866Y-58373500D01*
X111758134Y-58373500D01*
X111820316Y-58366745D01*
X111956705Y-58315615D01*
X112073261Y-58228261D01*
X112160615Y-58111705D01*
X112211745Y-57975316D01*
X112218500Y-57913134D01*
X112218500Y-55946062D01*
X132748493Y-55946062D01*
X132757789Y-55958077D01*
X132808994Y-55993931D01*
X132818489Y-55999414D01*
X133015947Y-56091490D01*
X133026239Y-56095236D01*
X133236688Y-56151625D01*
X133247481Y-56153528D01*
X133464525Y-56172517D01*
X133475475Y-56172517D01*
X133692519Y-56153528D01*
X133703312Y-56151625D01*
X133913761Y-56095236D01*
X133924053Y-56091490D01*
X134121511Y-55999414D01*
X134131006Y-55993931D01*
X134183048Y-55957491D01*
X134191424Y-55947012D01*
X134184356Y-55933566D01*
X133482812Y-55232022D01*
X133468868Y-55224408D01*
X133467035Y-55224539D01*
X133460420Y-55228790D01*
X132754923Y-55934287D01*
X132748493Y-55946062D01*
X112218500Y-55946062D01*
X112218500Y-55616866D01*
X112211745Y-55554684D01*
X112160615Y-55418295D01*
X112073261Y-55301739D01*
X111956705Y-55214385D01*
X111820316Y-55163255D01*
X111758134Y-55156500D01*
X109461866Y-55156500D01*
X109399684Y-55163255D01*
X109263295Y-55214385D01*
X109146739Y-55301739D01*
X109059385Y-55418295D01*
X109008255Y-55554684D01*
X109001500Y-55616866D01*
X109001500Y-57913134D01*
X102158500Y-57913134D01*
X102158500Y-56786866D01*
X102151745Y-56724684D01*
X102100615Y-56588295D01*
X102013261Y-56471739D01*
X101896705Y-56384385D01*
X101760316Y-56333255D01*
X101698134Y-56326500D01*
X99201866Y-56326500D01*
X99139684Y-56333255D01*
X99003295Y-56384385D01*
X98886739Y-56471739D01*
X98799385Y-56588295D01*
X98748255Y-56724684D01*
X98741500Y-56786866D01*
X98741500Y-59283134D01*
X83108500Y-59283134D01*
X83108500Y-56786866D01*
X83101745Y-56724684D01*
X83050615Y-56588295D01*
X82963261Y-56471739D01*
X82846705Y-56384385D01*
X82710316Y-56333255D01*
X82648134Y-56326500D01*
X80151866Y-56326500D01*
X80089684Y-56333255D01*
X79953295Y-56384385D01*
X79836739Y-56471739D01*
X79749385Y-56588295D01*
X79698255Y-56724684D01*
X79691500Y-56786866D01*
X79691500Y-59283134D01*
X64058500Y-59283134D01*
X64058500Y-56786866D01*
X64051745Y-56724684D01*
X64000615Y-56588295D01*
X63913261Y-56471739D01*
X63796705Y-56384385D01*
X63660316Y-56333255D01*
X63598134Y-56326500D01*
X61101866Y-56326500D01*
X61039684Y-56333255D01*
X60903295Y-56384385D01*
X60786739Y-56471739D01*
X60699385Y-56588295D01*
X60648255Y-56724684D01*
X60641500Y-56786866D01*
X60641500Y-59283134D01*
X43508000Y-59283134D01*
X43508000Y-54865475D01*
X132157483Y-54865475D01*
X132176472Y-55082519D01*
X132178375Y-55093312D01*
X132234764Y-55303761D01*
X132238510Y-55314053D01*
X132330586Y-55511511D01*
X132336069Y-55521006D01*
X132372509Y-55573048D01*
X132382988Y-55581424D01*
X132396434Y-55574356D01*
X133097978Y-54872812D01*
X133104356Y-54861132D01*
X133834408Y-54861132D01*
X133834539Y-54862965D01*
X133838790Y-54869580D01*
X134544287Y-55575077D01*
X134556062Y-55581507D01*
X134568077Y-55572211D01*
X134603931Y-55521006D01*
X134609414Y-55511511D01*
X134658859Y-55405475D01*
X138507483Y-55405475D01*
X138526472Y-55622519D01*
X138528375Y-55633312D01*
X138584764Y-55843761D01*
X138588510Y-55854053D01*
X138680586Y-56051511D01*
X138686071Y-56061011D01*
X138686701Y-56061910D01*
X138686856Y-56062370D01*
X138688818Y-56065768D01*
X138688135Y-56066162D01*
X138709388Y-56129184D01*
X138692102Y-56198044D01*
X138669066Y-56223803D01*
X138670270Y-56225007D01*
X138663919Y-56231358D01*
X138656739Y-56236739D01*
X138651358Y-56243919D01*
X138651355Y-56243922D01*
X138603708Y-56307498D01*
X138569385Y-56353295D01*
X138518255Y-56489684D01*
X138511500Y-56551866D01*
X138511500Y-58248134D01*
X138518255Y-58310316D01*
X138569385Y-58446705D01*
X138656739Y-58563261D01*
X138773295Y-58650615D01*
X138909684Y-58701745D01*
X138971866Y-58708500D01*
X140668134Y-58708500D01*
X140730316Y-58701745D01*
X140866705Y-58650615D01*
X140983261Y-58563261D01*
X141070615Y-58446705D01*
X141121745Y-58310316D01*
X141128500Y-58248134D01*
X141128500Y-56551866D01*
X141121745Y-56489684D01*
X141070615Y-56353295D01*
X141036292Y-56307498D01*
X140988645Y-56243922D01*
X140988642Y-56243919D01*
X140983261Y-56236739D01*
X140976081Y-56231358D01*
X140969730Y-56225007D01*
X140971872Y-56222865D01*
X140938436Y-56178154D01*
X140933406Y-56107336D01*
X140951523Y-56065965D01*
X140951182Y-56065768D01*
X140952952Y-56062702D01*
X140953299Y-56061910D01*
X140953929Y-56061011D01*
X140959414Y-56051511D01*
X141051490Y-55854053D01*
X141055236Y-55843761D01*
X141111625Y-55633312D01*
X141113528Y-55622519D01*
X141132517Y-55405475D01*
X141132517Y-55394525D01*
X141113528Y-55177481D01*
X141111625Y-55166688D01*
X141055236Y-54956239D01*
X141051490Y-54945947D01*
X140959414Y-54748489D01*
X140953931Y-54738994D01*
X140917491Y-54686952D01*
X140907012Y-54678576D01*
X140893566Y-54685644D01*
X139909095Y-55670115D01*
X139846783Y-55704141D01*
X139775968Y-55699076D01*
X139730905Y-55670115D01*
X138745713Y-54684923D01*
X138733938Y-54678493D01*
X138721923Y-54687789D01*
X138686069Y-54738994D01*
X138680586Y-54748489D01*
X138588510Y-54945947D01*
X138584764Y-54956239D01*
X138528375Y-55166688D01*
X138526472Y-55177481D01*
X138507483Y-55394525D01*
X138507483Y-55405475D01*
X134658859Y-55405475D01*
X134701490Y-55314053D01*
X134705236Y-55303761D01*
X134761625Y-55093312D01*
X134763528Y-55082519D01*
X134782517Y-54865475D01*
X134782517Y-54854525D01*
X134763528Y-54637481D01*
X134761625Y-54626688D01*
X134705236Y-54416239D01*
X134701490Y-54405947D01*
X134658143Y-54312988D01*
X139098576Y-54312988D01*
X139105644Y-54326434D01*
X139807188Y-55027978D01*
X139821132Y-55035592D01*
X139822965Y-55035461D01*
X139829580Y-55031210D01*
X140535077Y-54325713D01*
X140541507Y-54313938D01*
X140532211Y-54301923D01*
X140481006Y-54266069D01*
X140471511Y-54260586D01*
X140274053Y-54168510D01*
X140263761Y-54164764D01*
X140053312Y-54108375D01*
X140042519Y-54106472D01*
X139825475Y-54087483D01*
X139814525Y-54087483D01*
X139597481Y-54106472D01*
X139586688Y-54108375D01*
X139376239Y-54164764D01*
X139365947Y-54168510D01*
X139168489Y-54260586D01*
X139158994Y-54266069D01*
X139106952Y-54302509D01*
X139098576Y-54312988D01*
X134658143Y-54312988D01*
X134609414Y-54208489D01*
X134603931Y-54198994D01*
X134567491Y-54146952D01*
X134557012Y-54138576D01*
X134543566Y-54145644D01*
X133842022Y-54847188D01*
X133834408Y-54861132D01*
X133104356Y-54861132D01*
X133105592Y-54858868D01*
X133105461Y-54857035D01*
X133101210Y-54850420D01*
X132395713Y-54144923D01*
X132383938Y-54138493D01*
X132371923Y-54147789D01*
X132336069Y-54198994D01*
X132330586Y-54208489D01*
X132238510Y-54405947D01*
X132234764Y-54416239D01*
X132178375Y-54626688D01*
X132176472Y-54637481D01*
X132157483Y-54854525D01*
X132157483Y-54865475D01*
X43508000Y-54865475D01*
X43508000Y-53634000D01*
X43528002Y-53565879D01*
X43581658Y-53519386D01*
X43634000Y-53508000D01*
X132720807Y-53508000D01*
X132788928Y-53528002D01*
G37*
G04 #@! TD.AperFunction*
M02*
