G04 #@! TF.GenerationSoftware,KiCad,Pcbnew,(6.0.0)*
G04 #@! TF.CreationDate,2022-04-30T23:11:35+02:00*
G04 #@! TF.ProjectId,Output-mixer,4f757470-7574-42d6-9d69-7865722e6b69,rev?*
G04 #@! TF.SameCoordinates,Original*
G04 #@! TF.FileFunction,Legend,Top*
G04 #@! TF.FilePolarity,Positive*
%FSLAX46Y46*%
G04 Gerber Fmt 4.6, Leading zero omitted, Abs format (unit mm)*
G04 Created by KiCad (PCBNEW (6.0.0)) date 2022-04-30 23:11:35*
%MOMM*%
%LPD*%
G01*
G04 APERTURE LIST*
%ADD10C,0.120000*%
%ADD11C,0.150000*%
%ADD12C,0.400000*%
%ADD13C,4.575000*%
%ADD14C,9.075000*%
%ADD15C,5.460165*%
%ADD16C,0.200000*%
G04 #@! TA.AperFunction,Profile*
%ADD17C,0.050000*%
G04 #@! TD*
%ADD18C,0.100000*%
%ADD19O,6.700000X4.200000*%
G04 APERTURE END LIST*
D10*
X89046447Y-155946447D02*
X89046447Y-157346447D01*
X90246447Y-157346447D02*
X91446447Y-157346447D01*
X87446447Y-157346447D02*
X88446447Y-156746447D01*
X88446447Y-156746447D02*
X87446447Y-156346447D01*
X89046447Y-157346447D02*
X89646447Y-157346447D01*
X90646447Y-155146447D02*
X91446447Y-155146447D01*
X92046447Y-157346447D02*
X92846447Y-157346447D01*
X93446447Y-155546447D02*
X94846447Y-155946447D01*
X90246447Y-155546447D02*
X90246447Y-157346447D01*
X90246447Y-156146447D02*
X90646447Y-156146447D01*
X92046447Y-156146447D02*
X92046447Y-157346447D01*
X93246447Y-157146447D02*
X93446447Y-157346447D01*
X92046447Y-156146447D02*
X92846447Y-156146447D01*
X93446447Y-157346447D02*
X93446447Y-157146447D01*
X93446447Y-155546447D02*
X93446447Y-157346447D01*
X94846447Y-155946447D02*
X93446447Y-156346447D01*
X92046447Y-156746447D02*
X92246447Y-156746447D01*
X87446447Y-156346447D02*
X88446447Y-155946447D01*
X93446447Y-157346447D02*
X93646447Y-157146447D01*
X87446447Y-155546447D02*
X87446447Y-157346447D01*
X88446447Y-155946447D02*
X87446447Y-155546447D01*
X100246447Y-156146447D02*
X100046447Y-156146447D01*
X95846447Y-157346447D02*
X95846447Y-157146447D01*
X97246447Y-156146447D02*
X97246447Y-157346447D01*
X98446447Y-156146447D02*
X98046447Y-157346447D01*
X98046447Y-157346447D02*
X99246447Y-156146447D01*
X100646447Y-156146447D02*
X100046447Y-157346447D01*
X100646447Y-156146447D02*
X101046447Y-156946447D01*
X96846447Y-156146447D02*
X96846447Y-156346447D01*
X89046447Y-155946447D02*
X88846447Y-156146447D01*
X89046447Y-155946447D02*
X89246447Y-156146447D01*
X99646447Y-156146447D02*
X99446447Y-157346447D01*
X90646447Y-155146447D02*
G75*
G03*
X90246447Y-155546447I-1J-399999D01*
G01*
X96646447Y-156946447D02*
X95846447Y-157346447D01*
X91446447Y-157346447D02*
X91246447Y-157146447D01*
X91446447Y-157346447D02*
X91246447Y-157546447D01*
X95846447Y-156346447D02*
X96646447Y-156946447D01*
X98046447Y-156146447D02*
X97246447Y-156146447D01*
X99446447Y-157346447D02*
X100246447Y-156146447D01*
X99646447Y-156146447D02*
X98846447Y-157346447D01*
X98446447Y-156146447D02*
X98246447Y-156146447D01*
X98846447Y-157346447D02*
X99046447Y-157346447D01*
X99246447Y-156146447D02*
X99046447Y-156146447D01*
X97246447Y-157346447D02*
X98046447Y-156146447D01*
X100046447Y-157346447D02*
X101046447Y-156946447D01*
X96846447Y-156146447D02*
X95846447Y-156346447D01*
X136746447Y-138796447D02*
X137446447Y-138796447D01*
X135146447Y-140496447D02*
X134646447Y-138796447D01*
X134646447Y-138796447D02*
X135546447Y-138796447D01*
X135846447Y-138796447D02*
X135546447Y-140496447D01*
X135546447Y-140496447D02*
X136546447Y-138796447D01*
X135546447Y-138796447D02*
X135146447Y-140496447D01*
X137146447Y-138796447D02*
X136146447Y-140496447D01*
X36446447Y-43946447D02*
X36246447Y-44046447D01*
X36346447Y-45646447D02*
X37146447Y-43946447D01*
X36346447Y-45646447D02*
X36246447Y-45646447D01*
X37146447Y-43946447D02*
X37146447Y-45646447D01*
X36446447Y-43946447D02*
X36546447Y-44146447D01*
X37146447Y-45646447D02*
X37946447Y-43946447D01*
X35646447Y-45646447D02*
X36446447Y-43946447D01*
X37946447Y-43946447D02*
X37846447Y-43946447D01*
X103646447Y-116446447D02*
X102946447Y-118046447D01*
D11*
X41646447Y-148646447D02*
X26646447Y-148646447D01*
X26646447Y-148646447D02*
X26646447Y-139646447D01*
X26646447Y-139646447D02*
X41646447Y-139646447D01*
X41646447Y-139646447D02*
X41646447Y-148646447D01*
G36*
X41646447Y-148646447D02*
G01*
X26646447Y-148646447D01*
X26646447Y-139646447D01*
X41646447Y-139646447D01*
X41646447Y-148646447D01*
G37*
X41646447Y-148646447D02*
X26646447Y-148646447D01*
X26646447Y-139646447D01*
X41646447Y-139646447D01*
X41646447Y-148646447D01*
D10*
X137846447Y-138796447D02*
X137746447Y-138996447D01*
D11*
X48646447Y-144146447D02*
X48146447Y-144646447D01*
X48146447Y-144646447D02*
X48146447Y-143646447D01*
X48146447Y-143646447D02*
X48646447Y-144146447D01*
G36*
X48646447Y-144146447D02*
G01*
X48146447Y-144646447D01*
X48146447Y-143646447D01*
X48646447Y-144146447D01*
G37*
X48646447Y-144146447D02*
X48146447Y-144646447D01*
X48146447Y-143646447D01*
X48646447Y-144146447D01*
D10*
X36346447Y-138146447D02*
X37146447Y-136446447D01*
X91846447Y-36296447D02*
G75*
G03*
X91446447Y-36696447I-1J-399999D01*
G01*
X58646447Y-65196447D02*
X56946447Y-64196447D01*
X66146447Y-76718530D02*
X65686447Y-77308530D01*
X102946447Y-44046447D02*
X102846447Y-43846447D01*
X88946447Y-37196447D02*
X89246447Y-37196447D01*
X104146447Y-64896447D02*
X105146447Y-64896447D01*
X105296447Y-81046447D02*
X105196447Y-81046447D01*
X58646447Y-99946447D02*
X58446447Y-100146447D01*
X110146447Y-126046447D02*
X110146447Y-125646447D01*
X110146447Y-125646447D02*
X110546447Y-125646447D01*
X110546447Y-125646447D02*
X110146447Y-126046447D01*
G36*
X110146447Y-126046447D02*
G01*
X110146447Y-125646447D01*
X110546447Y-125646447D01*
X110146447Y-126046447D01*
G37*
X110146447Y-126046447D02*
X110146447Y-125646447D01*
X110546447Y-125646447D01*
X110146447Y-126046447D01*
X56946447Y-66246447D02*
X56946447Y-66446447D01*
X57696447Y-102946447D02*
X56946447Y-103246447D01*
X105046447Y-42446447D02*
X104946447Y-44046447D01*
X58646447Y-81446447D02*
X58446447Y-81646447D01*
D12*
X55646447Y-99896447D02*
G75*
G03*
X56146447Y-99396447I-1J500001D01*
G01*
D10*
X64146447Y-57018530D02*
X64496447Y-56728530D01*
X37146447Y-80946447D02*
X37146447Y-82646447D01*
X104946447Y-43246447D02*
X104646447Y-43246447D01*
X77036447Y-120118530D02*
X76686447Y-120438530D01*
X78596447Y-60296447D02*
X78996447Y-61996447D01*
X160446447Y-127293530D02*
X160136447Y-127183530D01*
X143446447Y-115946447D02*
X143346447Y-115946447D01*
X56946447Y-84746447D02*
X56946447Y-84946447D01*
X61863342Y-88646447D02*
X62634954Y-88646447D01*
X78596447Y-134296447D02*
X78496447Y-134296447D01*
X137746447Y-71888530D02*
X138186447Y-71728530D01*
X58646447Y-63746447D02*
X58646447Y-63046447D01*
X79896447Y-134296447D02*
X79796447Y-134296447D01*
X105046447Y-60946447D02*
X104946447Y-62546447D01*
X58646447Y-137746447D02*
X58646447Y-137046447D01*
X78996447Y-98996447D02*
X79296447Y-97296447D01*
D12*
X111646447Y-49146447D02*
X111646447Y-54146447D01*
X112146447Y-122646447D02*
X117146447Y-122646447D01*
D10*
X110146447Y-125646447D02*
G75*
G03*
X105146447Y-120646447I-4936336J63664D01*
G01*
X58646447Y-46696447D02*
X56946447Y-45696447D01*
X78649148Y-144146447D02*
X79420760Y-144146447D01*
X64146447Y-131018530D02*
X64496447Y-130728530D01*
D12*
X50646447Y-112396447D02*
X55646447Y-112396447D01*
D10*
X78996447Y-117496447D02*
X79296447Y-115796447D01*
X78746447Y-141718530D02*
X78286447Y-141858530D01*
X105796447Y-79446447D02*
X105296447Y-81046447D01*
X57296447Y-81746447D02*
X58646447Y-82246447D01*
X62546447Y-86218530D02*
X63006447Y-86358530D01*
D12*
X117646447Y-49146447D02*
G75*
G03*
X117146447Y-48646447I-500001J-1D01*
G01*
D10*
X64146447Y-46118530D02*
X64556447Y-46468530D01*
X99446447Y-36696447D02*
X99246447Y-37996447D01*
X56946447Y-118246447D02*
G75*
G03*
X57296447Y-118746447I556447J17013D01*
G01*
X79496447Y-61996447D02*
X80396447Y-61996447D01*
X152076447Y-74128530D02*
X151836447Y-73928530D01*
X37146447Y-101146447D02*
X37946447Y-99446447D01*
X58646447Y-118446447D02*
X58846447Y-118646447D01*
D12*
X117146447Y-91646447D02*
G75*
G03*
X117646447Y-91146447I-1J500001D01*
G01*
D10*
X56946447Y-46746447D02*
X57696447Y-47446447D01*
D12*
X117646447Y-123146447D02*
G75*
G03*
X117146447Y-122646447I-500001J-1D01*
G01*
D10*
X103646447Y-97946447D02*
X104546447Y-98346447D01*
X77076447Y-75358530D02*
X76836447Y-75158530D01*
X75146447Y-76718530D02*
G75*
G03*
X66146447Y-76718530I-4500000J6572083D01*
G01*
X104946447Y-117246447D02*
X104646447Y-117246447D01*
D12*
X50646447Y-149396447D02*
G75*
G03*
X50146447Y-149896447I1J-500001D01*
G01*
D10*
X79496447Y-43496447D02*
X80396447Y-43496447D01*
X152846447Y-104946447D02*
X153246447Y-105546447D01*
X62546447Y-123218530D02*
X63006447Y-123358530D01*
D12*
X56146447Y-112896447D02*
X56146447Y-117896447D01*
D10*
X147796447Y-40946447D02*
X147696447Y-40746447D01*
D12*
X111646447Y-86146447D02*
X111646447Y-91146447D01*
D10*
X152846447Y-104946447D02*
X152046447Y-106646447D01*
X105046447Y-79446447D02*
X104946447Y-81046447D01*
D12*
X117146447Y-128646447D02*
G75*
G03*
X117646447Y-128146447I-1J500001D01*
G01*
X50146447Y-80896447D02*
G75*
G03*
X50646447Y-81396447I500001J1D01*
G01*
D10*
X56946447Y-65246447D02*
X57696447Y-65946447D01*
D12*
X112146447Y-104146447D02*
G75*
G03*
X111646447Y-104646447I1J-500001D01*
G01*
D10*
X48146447Y-88646447D02*
X45646447Y-88646447D01*
X160746447Y-121993530D02*
X160286447Y-122133530D01*
X79296447Y-60296447D02*
X79196447Y-60296447D01*
X78446447Y-54518530D02*
X78136447Y-54408530D01*
X134196447Y-60696447D02*
X133796447Y-62396447D01*
D12*
X50146447Y-62396447D02*
G75*
G03*
X50646447Y-62896447I500001J1D01*
G01*
D10*
X64146447Y-75518530D02*
X64496447Y-75228530D01*
X86346447Y-37996447D02*
X86346447Y-37796447D01*
X78596447Y-41796447D02*
X78496447Y-41796447D01*
X56946447Y-139246447D02*
X56946447Y-139446447D01*
X103146447Y-80946447D02*
X102946447Y-81046447D01*
X77036447Y-138618530D02*
X76686447Y-138938530D01*
X75146447Y-58218530D02*
X75596447Y-58828530D01*
D12*
X117646447Y-49146447D02*
X117646447Y-54146447D01*
D10*
X103646447Y-79446447D02*
X104546447Y-79846447D01*
D12*
X55646447Y-155396447D02*
X50646447Y-155396447D01*
D10*
X106296447Y-97946447D02*
X106196447Y-97946447D01*
X79296447Y-115796447D02*
X79196447Y-115796447D01*
X106296447Y-97946447D02*
X105796447Y-99546447D01*
D12*
X112146447Y-67146447D02*
X117146447Y-67146447D01*
D10*
X36346447Y-119646447D02*
X36246447Y-119646447D01*
X56946447Y-140246447D02*
X58646447Y-140546447D01*
X99246447Y-37996447D02*
X99946447Y-37996447D01*
X90946447Y-36896447D02*
X90246447Y-36996447D01*
X143996447Y-108296447D02*
X143596447Y-109996447D01*
D12*
X56146447Y-131396447D02*
X56146447Y-136396447D01*
D10*
X56946447Y-120746447D02*
X58646447Y-121146447D01*
D12*
X111646447Y-104646447D02*
X111646447Y-109646447D01*
D10*
X58646447Y-102196447D02*
X56946447Y-101196447D01*
X57696447Y-121446447D02*
X56946447Y-121746447D01*
D12*
X117646447Y-123146447D02*
X117646447Y-128146447D01*
D10*
X56946447Y-137996447D02*
X56946447Y-137296447D01*
X105796447Y-97946447D02*
X105296447Y-99546447D01*
D12*
X50646447Y-75396447D02*
G75*
G03*
X50146447Y-75896447I1J-500001D01*
G01*
D10*
X105296447Y-62546447D02*
X105196447Y-62546447D01*
X56946447Y-120746447D02*
X56946447Y-120946447D01*
X79896447Y-134296447D02*
X79496447Y-135996447D01*
X78446447Y-147018530D02*
X78136447Y-146908530D01*
X37146447Y-119646447D02*
X37946447Y-117946447D01*
X105796447Y-42446447D02*
X105296447Y-44046447D01*
D12*
X112146447Y-122646447D02*
G75*
G03*
X111646447Y-123146447I1J-500001D01*
G01*
X117646447Y-86146447D02*
X117646447Y-91146447D01*
D10*
X77496447Y-80496447D02*
X78296447Y-80496447D01*
D12*
X55646447Y-62896447D02*
G75*
G03*
X56146447Y-62396447I-1J500001D01*
G01*
D10*
X77076447Y-149358530D02*
X76836447Y-149158530D01*
X37946447Y-80946447D02*
X37846447Y-80946447D01*
X92546447Y-37996447D02*
X92796447Y-36296447D01*
X77076447Y-112358530D02*
X76836447Y-112158530D01*
X91246447Y-37996447D02*
X91946447Y-37996447D01*
D11*
X98046447Y-37996447D02*
X99046447Y-36296447D01*
D10*
X90546447Y-36296447D02*
X89746447Y-37996447D01*
D12*
X55646447Y-155396447D02*
G75*
G03*
X56146447Y-154896447I-1J500001D01*
G01*
D10*
X103646447Y-42446447D02*
X104546447Y-42846447D01*
X75146447Y-95218530D02*
X75596447Y-95828530D01*
X56946447Y-46746447D02*
X58646447Y-47146447D01*
X78996447Y-61996447D02*
X79296447Y-60296447D01*
X89346447Y-36296447D02*
X89746447Y-36296447D01*
D11*
X98146447Y-36296447D02*
X98746447Y-37996447D01*
D10*
X151946447Y-43446447D02*
X152346447Y-44046447D01*
X35646447Y-138146447D02*
X36446447Y-136446447D01*
X157146447Y-130993530D02*
G75*
G03*
X148146447Y-130993530I-4500000J6572083D01*
G01*
X58646447Y-118446447D02*
X58446447Y-118646447D01*
X105796447Y-116446447D02*
X105796447Y-118046447D01*
X56946447Y-102246447D02*
X57696447Y-102946447D01*
X110146447Y-70546447D02*
X110146447Y-70146447D01*
X110146447Y-70146447D02*
X110546447Y-70146447D01*
X110546447Y-70146447D02*
X110146447Y-70546447D01*
G36*
X110146447Y-70546447D02*
G01*
X110146447Y-70146447D01*
X110546447Y-70146447D01*
X110146447Y-70546447D01*
G37*
X110146447Y-70546447D02*
X110146447Y-70146447D01*
X110546447Y-70146447D01*
X110146447Y-70546447D01*
X145496447Y-40946447D02*
X145096447Y-42646447D01*
X35646447Y-101146447D02*
X36446447Y-99446447D01*
X56946447Y-46746447D02*
X56946447Y-46946447D01*
X86346447Y-37996447D02*
X86546447Y-37996447D01*
X75146447Y-150718530D02*
G75*
G03*
X66146447Y-150718530I-4500000J6572083D01*
G01*
X56946447Y-100996447D02*
X56946447Y-100296447D01*
X78649148Y-125646447D02*
X79420760Y-125646447D01*
X56946447Y-121746447D02*
X58646447Y-122046447D01*
X57846447Y-100446447D02*
X57846447Y-100146447D01*
X135596447Y-104946447D02*
X135196447Y-106646447D01*
X103646447Y-134946447D02*
X104546447Y-135346447D01*
D12*
X111646447Y-54146447D02*
G75*
G03*
X112146447Y-54646447I500001J1D01*
G01*
D10*
X104146447Y-120396447D02*
X105146447Y-120396447D01*
X143596447Y-109996447D02*
X143096447Y-108296447D01*
D11*
X41646447Y-111646447D02*
X26646447Y-111646447D01*
X26646447Y-111646447D02*
X26646447Y-102646447D01*
X26646447Y-102646447D02*
X41646447Y-102646447D01*
X41646447Y-102646447D02*
X41646447Y-111646447D01*
G36*
X41646447Y-111646447D02*
G01*
X26646447Y-111646447D01*
X26646447Y-102646447D01*
X41646447Y-102646447D01*
X41646447Y-111646447D01*
G37*
X41646447Y-111646447D02*
X26646447Y-111646447D01*
X26646447Y-102646447D01*
X41646447Y-102646447D01*
X41646447Y-111646447D01*
D10*
X106296447Y-42446447D02*
X105796447Y-44046447D01*
X58646447Y-99946447D02*
X58846447Y-100146447D01*
X67446447Y-80818530D02*
X67636447Y-81268530D01*
X70646447Y-80680141D02*
X70646447Y-79718530D01*
X36446447Y-99446447D02*
X36246447Y-99546447D01*
D13*
X43933947Y-107146447D02*
G75*
G03*
X43933947Y-107146447I-2287500J0D01*
G01*
D10*
X61863342Y-107146447D02*
X62634954Y-107146447D01*
X139846447Y-43446447D02*
X139446447Y-45146447D01*
X79496447Y-98996447D02*
X80396447Y-98996447D01*
X75146447Y-132218530D02*
G75*
G03*
X66146447Y-132218530I-4500000J6572083D01*
G01*
X75146447Y-113718530D02*
X75596447Y-114328530D01*
X62546447Y-104718530D02*
X63006447Y-104858530D01*
X110146447Y-107146447D02*
G75*
G03*
X105146447Y-102146447I-4936336J63664D01*
G01*
D12*
X111646447Y-146646447D02*
G75*
G03*
X112146447Y-147146447I500001J1D01*
G01*
D10*
X105046447Y-116446447D02*
X104246447Y-118046447D01*
D12*
X55646447Y-81396447D02*
G75*
G03*
X56146447Y-80896447I-1J500001D01*
G01*
D10*
X105296447Y-136546447D02*
X105196447Y-136546447D01*
X62746447Y-128618530D02*
X63186447Y-128458530D01*
X104146447Y-120646447D02*
G75*
G03*
X99146447Y-125646447I-31626J-4968374D01*
G01*
X90246447Y-36996447D02*
X90846447Y-37496447D01*
X37146447Y-64146447D02*
X37946447Y-62446447D01*
X35646447Y-82646447D02*
X36446447Y-80946447D01*
X78746447Y-123218530D02*
X78286447Y-123358530D01*
X110146447Y-70146447D02*
G75*
G03*
X105146447Y-65146447I-4936336J63664D01*
G01*
X104146447Y-46646447D02*
G75*
G03*
X99146447Y-51646447I-31626J-4968374D01*
G01*
X56946447Y-118246447D02*
X56946447Y-117846447D01*
X58646447Y-81446447D02*
X58846447Y-81646447D01*
D12*
X56146447Y-57396447D02*
G75*
G03*
X55646447Y-56896447I-500001J-1D01*
G01*
D10*
X142446447Y-61088530D02*
X142636447Y-61538530D01*
X106296447Y-42446447D02*
X106196447Y-42446447D01*
X77036447Y-64618530D02*
X76686447Y-64938530D01*
X103646447Y-79446447D02*
X102946447Y-81046447D01*
X145496447Y-42646447D02*
X146496447Y-40946447D01*
X62546447Y-49218530D02*
X63006447Y-49358530D01*
X61863342Y-70146447D02*
X62634954Y-70146447D01*
X100946447Y-36996447D02*
X101546447Y-37496447D01*
X104546447Y-135346447D02*
X103346447Y-135646447D01*
X101646447Y-36896447D02*
X100946447Y-36996447D01*
X140846447Y-115946447D02*
X141646447Y-117646447D01*
X88946447Y-36696447D02*
X88746447Y-37996447D01*
X151946447Y-43446447D02*
X151146447Y-45146447D01*
X57696447Y-47446447D02*
X56946447Y-47746447D01*
X37946447Y-99446447D02*
X37846447Y-99446447D01*
X104546447Y-42846447D02*
X103346447Y-43146447D01*
X105296447Y-118046447D02*
X105196447Y-118046447D01*
X75146447Y-113718530D02*
G75*
G03*
X66146447Y-113718530I-4500000J6572083D01*
G01*
X58646447Y-62946447D02*
X58446447Y-63146447D01*
X104146447Y-139396447D02*
X105146447Y-139396447D01*
X87246447Y-36296447D02*
X86246447Y-36896447D01*
X66146447Y-113718530D02*
X65686447Y-114308530D01*
X152246447Y-44646447D02*
X152046447Y-45146447D01*
D11*
X161646447Y-57031612D02*
X139646447Y-57031612D01*
X139646447Y-57031612D02*
X139646447Y-46261282D01*
X139646447Y-46261282D02*
X161646447Y-46261282D01*
X161646447Y-46261282D02*
X161646447Y-57031612D01*
G36*
X161646447Y-57031612D02*
G01*
X139646447Y-57031612D01*
X139646447Y-46261282D01*
X161646447Y-46261282D01*
X161646447Y-57031612D01*
G37*
X161646447Y-57031612D02*
X139646447Y-57031612D01*
X139646447Y-46261282D01*
X161646447Y-46261282D01*
X161646447Y-57031612D01*
D10*
X57296447Y-63246447D02*
X58646447Y-63746447D01*
D11*
X98746447Y-37996447D02*
X98546447Y-37996447D01*
D10*
X153649148Y-68988530D02*
X154420760Y-68988530D01*
X135596447Y-104946447D02*
X135496447Y-104946447D01*
X104146447Y-83896447D02*
X105146447Y-83896447D01*
X58646447Y-139196447D02*
X56946447Y-138196447D01*
X57846447Y-44946447D02*
X57846447Y-44646447D01*
X148146447Y-130993530D02*
X147686447Y-131583530D01*
X77076447Y-130858530D02*
X76836447Y-130658530D01*
X79296447Y-78796447D02*
X79196447Y-78796447D01*
X141146447Y-75488530D02*
X140686447Y-76078530D01*
X58646447Y-44446447D02*
X58446447Y-44646447D01*
X37146447Y-99446447D02*
X37146447Y-101146447D01*
X58646447Y-44446447D02*
X58846447Y-44646447D01*
X56946447Y-44246447D02*
X56946447Y-43846447D01*
X73946447Y-43918530D02*
X73786447Y-44298530D01*
X66146447Y-132218530D02*
X65686447Y-132808530D01*
X96046447Y-36296447D02*
X95646447Y-36996447D01*
X56946447Y-81246447D02*
X56946447Y-80846447D01*
X70646447Y-62180141D02*
X70646447Y-61218530D01*
X139446447Y-45146447D02*
X140346447Y-45146447D01*
D12*
X50146447Y-117896447D02*
G75*
G03*
X50646447Y-118396447I500001J1D01*
G01*
D10*
X79296447Y-134296447D02*
X79196447Y-134296447D01*
D11*
X41646447Y-130146447D02*
X26646447Y-130146447D01*
X26646447Y-130146447D02*
X26646447Y-121146447D01*
X26646447Y-121146447D02*
X41646447Y-121146447D01*
X41646447Y-121146447D02*
X41646447Y-130146447D01*
G36*
X41646447Y-130146447D02*
G01*
X26646447Y-130146447D01*
X26646447Y-121146447D01*
X41646447Y-121146447D01*
X41646447Y-130146447D01*
G37*
X41646447Y-130146447D02*
X26646447Y-130146447D01*
X26646447Y-121146447D01*
X41646447Y-121146447D01*
X41646447Y-130146447D01*
D10*
X64146447Y-101618530D02*
X64556447Y-101968530D01*
D12*
X111646447Y-109646447D02*
G75*
G03*
X112146447Y-110146447I500001J1D01*
G01*
D10*
X98746447Y-88646447D02*
X99146447Y-88646447D01*
X99146447Y-88646447D02*
X99146447Y-89046447D01*
X99146447Y-89046447D02*
X98746447Y-88646447D01*
G36*
X99146447Y-89046447D02*
G01*
X98746447Y-88646447D01*
X99146447Y-88646447D01*
X99146447Y-89046447D01*
G37*
X99146447Y-89046447D02*
X98746447Y-88646447D01*
X99146447Y-88646447D01*
X99146447Y-89046447D01*
X77496447Y-61996447D02*
X78296447Y-61996447D01*
D12*
X50146447Y-154896447D02*
G75*
G03*
X50646447Y-155396447I500001J1D01*
G01*
D10*
X73946447Y-117918530D02*
X73786447Y-118298530D01*
X36446447Y-80946447D02*
X36546447Y-81146447D01*
X61863342Y-125646447D02*
X62634954Y-125646447D01*
X77896447Y-134296447D02*
X77796447Y-134296447D01*
X56946447Y-101896447D02*
X58646447Y-102196447D01*
X78596447Y-78796447D02*
X78496447Y-78796447D01*
X70646447Y-136180141D02*
X70646447Y-135218530D01*
X64146447Y-138618530D02*
X64556447Y-138968530D01*
D12*
X117146447Y-147146447D02*
X112146447Y-147146447D01*
D10*
X36446447Y-136446447D02*
X36546447Y-136646447D01*
X66146447Y-95218530D02*
X65686447Y-95808530D01*
X105796447Y-134946447D02*
X105296447Y-136546447D01*
X91846447Y-36296447D02*
X92246447Y-36296447D01*
X78596447Y-78796447D02*
X78996447Y-80496447D01*
X79296447Y-97296447D02*
X79196447Y-97296447D01*
D12*
X50646447Y-93896447D02*
X55646447Y-93896447D01*
D10*
X105796447Y-134946447D02*
X105796447Y-136546447D01*
X104146447Y-102396447D02*
X105146447Y-102396447D01*
X105046447Y-42446447D02*
X104246447Y-44046447D01*
X149446447Y-116593530D02*
X149636447Y-117043530D01*
D12*
X117646447Y-141646447D02*
X117646447Y-146646447D01*
X111646447Y-128146447D02*
G75*
G03*
X112146447Y-128646447I500001J1D01*
G01*
D13*
X43933947Y-144146447D02*
G75*
G03*
X43933947Y-144146447I-2287500J0D01*
G01*
D10*
X106296447Y-60946447D02*
X106196447Y-60946447D01*
X56946447Y-63996447D02*
X56946447Y-63296447D01*
X105796447Y-60946447D02*
X105796447Y-62546447D01*
X143446447Y-115946447D02*
X143046447Y-117646447D01*
D11*
X48646447Y-51646447D02*
X48146447Y-52146447D01*
X48146447Y-52146447D02*
X48146447Y-51146447D01*
X48146447Y-51146447D02*
X48646447Y-51646447D01*
G36*
X48646447Y-51646447D02*
G01*
X48146447Y-52146447D01*
X48146447Y-51146447D01*
X48646447Y-51646447D01*
G37*
X48646447Y-51646447D02*
X48146447Y-52146447D01*
X48146447Y-51146447D01*
X48646447Y-51646447D01*
D10*
X103646447Y-42446447D02*
X102946447Y-44046447D01*
D11*
X41646447Y-74646447D02*
X26646447Y-74646447D01*
X26646447Y-74646447D02*
X26646447Y-65646447D01*
X26646447Y-65646447D02*
X41646447Y-65646447D01*
X41646447Y-65646447D02*
X41646447Y-74646447D01*
G36*
X41646447Y-74646447D02*
G01*
X26646447Y-74646447D01*
X26646447Y-65646447D01*
X41646447Y-65646447D01*
X41646447Y-74646447D01*
G37*
X41646447Y-74646447D02*
X26646447Y-74646447D01*
X26646447Y-65646447D01*
X41646447Y-65646447D01*
X41646447Y-74646447D01*
D10*
X77896447Y-97296447D02*
X77796447Y-97296447D01*
D12*
X117646447Y-141646447D02*
G75*
G03*
X117146447Y-141146447I-500001J-1D01*
G01*
D10*
X137846447Y-138796447D02*
X137746447Y-138596447D01*
X105046447Y-116446447D02*
X104946447Y-118046447D01*
D12*
X55646447Y-136896447D02*
G75*
G03*
X56146447Y-136396447I-1J500001D01*
G01*
D10*
X153146447Y-106146447D02*
X152946447Y-106646447D01*
X103646447Y-134946447D02*
X102946447Y-136546447D01*
X104946447Y-61746447D02*
X104646447Y-61746447D01*
X142546447Y-117646447D02*
X142046447Y-115946447D01*
X105046447Y-97946447D02*
X104946447Y-99546447D01*
X101246447Y-36296447D02*
X100446447Y-37996447D01*
X103146447Y-117946447D02*
X102946447Y-118046447D01*
X139846447Y-43446447D02*
X139746447Y-43446447D01*
X157646447Y-130993530D02*
X158096447Y-131603530D01*
X104146447Y-65396447D02*
X105146447Y-65396447D01*
X78746447Y-104718530D02*
X78286447Y-104858530D01*
X48146447Y-51646447D02*
X45646447Y-51646447D01*
X57696447Y-139946447D02*
X56946447Y-140246447D01*
X56946447Y-83746447D02*
X58646447Y-84146447D01*
X36446447Y-136446447D02*
X36246447Y-136546447D01*
X56946447Y-62746447D02*
G75*
G03*
X57296447Y-63246447I556447J17013D01*
G01*
D12*
X56146447Y-75896447D02*
X56146447Y-80896447D01*
D11*
X98146447Y-36296447D02*
X97946447Y-36296447D01*
D10*
X153246447Y-105546447D02*
X152546447Y-105646447D01*
X37146447Y-82646447D02*
X37946447Y-80946447D01*
X57696447Y-65946447D02*
X56946447Y-66246447D01*
X101546447Y-37496447D02*
X101346447Y-37996447D01*
D12*
X55646447Y-62896447D02*
X50646447Y-62896447D01*
D10*
X79896447Y-78796447D02*
X79496447Y-80496447D01*
X104146447Y-83396447D02*
X105146447Y-83396447D01*
X106296447Y-116446447D02*
X106196447Y-116446447D01*
X90846447Y-37496447D02*
X90646447Y-37996447D01*
X78596447Y-41796447D02*
X78996447Y-43496447D01*
X79896447Y-78796447D02*
X79796447Y-78796447D01*
X87246447Y-36296447D02*
X87046447Y-36196447D01*
D12*
X55646447Y-118396447D02*
X50646447Y-118396447D01*
D10*
X104146447Y-120896447D02*
X105146447Y-120896447D01*
X36346447Y-64146447D02*
X37146447Y-62446447D01*
D11*
X41646447Y-93146447D02*
X26646447Y-93146447D01*
X26646447Y-93146447D02*
X26646447Y-84146447D01*
X26646447Y-84146447D02*
X41646447Y-84146447D01*
X41646447Y-84146447D02*
X41646447Y-93146447D01*
G36*
X41646447Y-93146447D02*
G01*
X26646447Y-93146447D01*
X26646447Y-84146447D01*
X41646447Y-84146447D01*
X41646447Y-93146447D01*
G37*
X41646447Y-93146447D02*
X26646447Y-93146447D01*
X26646447Y-84146447D01*
X41646447Y-84146447D01*
X41646447Y-93146447D01*
D10*
X61863342Y-51646447D02*
X62634954Y-51646447D01*
X78746447Y-49218530D02*
X78286447Y-49358530D01*
D14*
X157183947Y-145646447D02*
G75*
G03*
X157183947Y-145646447I-4537500J0D01*
G01*
D10*
X143863342Y-124421447D02*
X144634954Y-124421447D01*
D12*
X55646447Y-136896447D02*
X50646447Y-136896447D01*
D10*
X100046447Y-37996447D02*
X99846447Y-37796447D01*
X102946447Y-81046447D02*
X102846447Y-80846447D01*
D12*
X55646447Y-81396447D02*
X50646447Y-81396447D01*
D10*
X104546447Y-61346447D02*
X103346447Y-61646447D01*
D12*
X50646447Y-149396447D02*
X55646447Y-149396447D01*
D10*
X153746447Y-66488530D02*
X153286447Y-66628530D01*
X105796447Y-42446447D02*
X105796447Y-44046447D01*
X139146447Y-63388530D02*
X139556447Y-63738530D01*
D11*
X41646447Y-56146447D02*
X26646447Y-56146447D01*
X26646447Y-56146447D02*
X26646447Y-47146447D01*
X26646447Y-47146447D02*
X41646447Y-47146447D01*
X41646447Y-47146447D02*
X41646447Y-56146447D01*
G36*
X41646447Y-56146447D02*
G01*
X26646447Y-56146447D01*
X26646447Y-47146447D01*
X41646447Y-47146447D01*
X41646447Y-56146447D01*
G37*
X41646447Y-56146447D02*
X26646447Y-56146447D01*
X26646447Y-47146447D01*
X41646447Y-47146447D01*
X41646447Y-56146447D01*
D10*
X56946447Y-102246447D02*
X58646447Y-102646447D01*
X75146447Y-76718530D02*
X75596447Y-77328530D01*
X58646447Y-83696447D02*
X56946447Y-82696447D01*
X75146447Y-58218530D02*
G75*
G03*
X66146447Y-58218530I-4500000J6572083D01*
G01*
D12*
X112146447Y-85646447D02*
G75*
G03*
X111646447Y-86146447I1J-500001D01*
G01*
D10*
X48146447Y-107146447D02*
X45646447Y-107146447D01*
X57296447Y-44746447D02*
X58646447Y-45246447D01*
X79896447Y-60296447D02*
X79496447Y-61996447D01*
X140846447Y-115946447D02*
X140746447Y-115946447D01*
X56946447Y-65246447D02*
X56946447Y-65446447D01*
X79896447Y-41796447D02*
X79496447Y-43496447D01*
X78996447Y-43496447D02*
X79296447Y-41796447D01*
X36446447Y-62446447D02*
X36546447Y-62646447D01*
D15*
X142376529Y-51646447D02*
G75*
G03*
X142376529Y-51646447I-2730082J0D01*
G01*
D10*
X98746447Y-51646447D02*
X99146447Y-51646447D01*
X99146447Y-51646447D02*
X99146447Y-52046447D01*
X99146447Y-52046447D02*
X98746447Y-51646447D01*
G36*
X99146447Y-52046447D02*
G01*
X98746447Y-51646447D01*
X99146447Y-51646447D01*
X99146447Y-52046447D01*
G37*
X99146447Y-52046447D02*
X98746447Y-51646447D01*
X99146447Y-51646447D01*
X99146447Y-52046447D01*
X66146447Y-58218530D02*
X65686447Y-58808530D01*
X78649148Y-107146447D02*
X79420760Y-107146447D01*
D13*
X43933947Y-70146447D02*
G75*
G03*
X43933947Y-70146447I-2287500J0D01*
G01*
D10*
X146296447Y-108296447D02*
X146196447Y-108496447D01*
X103146447Y-62446447D02*
X102946447Y-62546447D01*
D12*
X50646447Y-75396447D02*
X55646447Y-75396447D01*
D10*
X56946447Y-46396447D02*
X58646447Y-46696447D01*
X77496447Y-135996447D02*
X78296447Y-135996447D01*
X56946447Y-66246447D02*
X58646447Y-66546447D01*
X56946447Y-63596447D02*
X58646447Y-64596447D01*
X104546447Y-116846447D02*
X103346447Y-117146447D01*
X152646447Y-116455141D02*
X152646447Y-115493530D01*
X145896447Y-108296447D02*
X146296447Y-108296447D01*
X105796447Y-79446447D02*
X105796447Y-81046447D01*
X56946447Y-100596447D02*
X58646447Y-101596447D01*
X56946447Y-47746447D02*
X58646447Y-48046447D01*
X57296447Y-118746447D02*
X58646447Y-119246447D01*
X37146447Y-117946447D02*
X37146447Y-119646447D01*
X56946447Y-83746447D02*
X56946447Y-83946447D01*
X152546447Y-105646447D02*
X153146447Y-106146447D01*
X77896447Y-115796447D02*
X77796447Y-115796447D01*
D12*
X111646447Y-91146447D02*
G75*
G03*
X112146447Y-91646447I500001J1D01*
G01*
D10*
X56946447Y-44246447D02*
G75*
G03*
X57296447Y-44746447I556447J17013D01*
G01*
X77036447Y-83118530D02*
X76686447Y-83438530D01*
X77896447Y-97296447D02*
X77496447Y-98996447D01*
X78596447Y-60296447D02*
X78496447Y-60296447D01*
X91446447Y-36696447D02*
X91246447Y-37996447D01*
X35646447Y-64146447D02*
X36446447Y-62446447D01*
D12*
X56146447Y-112896447D02*
G75*
G03*
X55646447Y-112396447I-500001J-1D01*
G01*
D10*
X104946447Y-98746447D02*
X104646447Y-98746447D01*
X91446447Y-37196447D02*
X91746447Y-37196447D01*
X75146447Y-150718530D02*
X75596447Y-151328530D01*
X56946447Y-103246447D02*
X58646447Y-103546447D01*
D12*
X56146447Y-131396447D02*
G75*
G03*
X55646447Y-130896447I-500001J-1D01*
G01*
D10*
X89346447Y-36296447D02*
G75*
G03*
X88946447Y-36696447I-1J-399999D01*
G01*
D13*
X43933947Y-51646447D02*
G75*
G03*
X43933947Y-51646447I-2287500J0D01*
G01*
D10*
X103646447Y-60946447D02*
X104546447Y-61346447D01*
X57296447Y-100246447D02*
X58646447Y-100746447D01*
X57846447Y-118946447D02*
X57846447Y-118646447D01*
X57846447Y-81946447D02*
X57846447Y-81646447D01*
X57296447Y-137246447D02*
X58646447Y-137746447D01*
X139146447Y-74288530D02*
X139496447Y-73998530D01*
X36446447Y-117946447D02*
X36546447Y-118146447D01*
D12*
X50646447Y-130896447D02*
G75*
G03*
X50146447Y-131396447I1J-500001D01*
G01*
D10*
X104146447Y-102146447D02*
G75*
G03*
X99146447Y-107146447I-31626J-4968374D01*
G01*
X96546447Y-37996447D02*
X97346447Y-36296447D01*
X56946447Y-120746447D02*
X57696447Y-121446447D01*
D12*
X50646447Y-56896447D02*
X55646447Y-56896447D01*
D10*
X105796447Y-60946447D02*
X105296447Y-62546447D01*
X67446447Y-62318530D02*
X67636447Y-62768530D01*
D13*
X43933947Y-88646447D02*
G75*
G03*
X43933947Y-88646447I-2287500J0D01*
G01*
D12*
X50146447Y-112896447D02*
X50146447Y-117896447D01*
D10*
X77896447Y-115796447D02*
X77496447Y-117496447D01*
X93596447Y-36296447D02*
X92546447Y-37996447D01*
X37946447Y-117946447D02*
X37846447Y-117946447D01*
D11*
X48646447Y-107146447D02*
X48146447Y-107646447D01*
X48146447Y-107646447D02*
X48146447Y-106646447D01*
X48146447Y-106646447D02*
X48646447Y-107146447D01*
G36*
X48646447Y-107146447D02*
G01*
X48146447Y-107646447D01*
X48146447Y-106646447D01*
X48646447Y-107146447D01*
G37*
X48646447Y-107146447D02*
X48146447Y-107646447D01*
X48146447Y-106646447D01*
X48646447Y-107146447D01*
D10*
X56946447Y-99746447D02*
X56946447Y-99346447D01*
X110146447Y-144546447D02*
X110146447Y-144146447D01*
X110146447Y-144146447D02*
X110546447Y-144146447D01*
X110546447Y-144146447D02*
X110146447Y-144546447D01*
G36*
X110146447Y-144546447D02*
G01*
X110146447Y-144146447D01*
X110546447Y-144146447D01*
X110146447Y-144546447D01*
G37*
X110146447Y-144546447D02*
X110146447Y-144146447D01*
X110546447Y-144146447D01*
X110146447Y-144546447D01*
X56946447Y-139246447D02*
X57696447Y-139946447D01*
X78996447Y-80496447D02*
X79296447Y-78796447D01*
X62746447Y-147118530D02*
X63186447Y-146958530D01*
X98746447Y-144146447D02*
X99146447Y-144146447D01*
X99146447Y-144146447D02*
X99146447Y-144546447D01*
X99146447Y-144546447D02*
X98746447Y-144146447D01*
G36*
X99146447Y-144546447D02*
G01*
X98746447Y-144146447D01*
X99146447Y-144146447D01*
X99146447Y-144546447D01*
G37*
X99146447Y-144546447D02*
X98746447Y-144146447D01*
X99146447Y-144146447D01*
X99146447Y-144546447D01*
D12*
X117646447Y-104646447D02*
G75*
G03*
X117146447Y-104146447I-500001J-1D01*
G01*
D11*
X48646447Y-88646447D02*
X48146447Y-89146447D01*
X48146447Y-89146447D02*
X48146447Y-88146447D01*
X48146447Y-88146447D02*
X48646447Y-88646447D01*
G36*
X48646447Y-88646447D02*
G01*
X48146447Y-89146447D01*
X48146447Y-88146447D01*
X48646447Y-88646447D01*
G37*
X48646447Y-88646447D02*
X48146447Y-89146447D01*
X48146447Y-88146447D01*
X48646447Y-88646447D01*
D10*
X86246447Y-36896447D02*
X87146447Y-37396447D01*
X88346447Y-36296447D02*
X87346447Y-37996447D01*
X75146447Y-95218530D02*
G75*
G03*
X66146447Y-95218530I-4500000J6572083D01*
G01*
X98746447Y-70146447D02*
X99146447Y-70146447D01*
X99146447Y-70146447D02*
X99146447Y-70546447D01*
X99146447Y-70546447D02*
X98746447Y-70146447D01*
G36*
X99146447Y-70546447D02*
G01*
X98746447Y-70146447D01*
X99146447Y-70146447D01*
X99146447Y-70546447D01*
G37*
X99146447Y-70546447D02*
X98746447Y-70146447D01*
X99146447Y-70146447D01*
X99146447Y-70546447D01*
X159076447Y-129633530D02*
X158836447Y-129433530D01*
X110146447Y-51646447D02*
G75*
G03*
X105146447Y-46646447I-4936336J63664D01*
G01*
X143996447Y-109996447D02*
X144996447Y-108296447D01*
X89546447Y-37996447D02*
X89346447Y-38196447D01*
X104146447Y-138896447D02*
X105146447Y-138896447D01*
X144596447Y-40946447D02*
X145496447Y-40946447D01*
D12*
X117146447Y-91646447D02*
X112146447Y-91646447D01*
D10*
X95146447Y-36296447D02*
X94946447Y-36196447D01*
X77896447Y-60296447D02*
X77496447Y-61996447D01*
X106296447Y-116446447D02*
X105796447Y-118046447D01*
D12*
X112146447Y-48646447D02*
G75*
G03*
X111646447Y-49146447I1J-500001D01*
G01*
D10*
X104946447Y-135746447D02*
X104646447Y-135746447D01*
X142046447Y-115946447D02*
X142946447Y-115946447D01*
X102946447Y-136546447D02*
X102846447Y-136346447D01*
X99846447Y-36296447D02*
X100246447Y-36296447D01*
X145196447Y-108296447D02*
X145896447Y-108296447D01*
D12*
X111646447Y-72646447D02*
G75*
G03*
X112146447Y-73146447I500001J1D01*
G01*
D10*
X56946447Y-82096447D02*
X58646447Y-83096447D01*
X106296447Y-134946447D02*
X106196447Y-134946447D01*
D11*
X48646447Y-70146447D02*
X48146447Y-70646447D01*
X48146447Y-70646447D02*
X48146447Y-69646447D01*
X48146447Y-69646447D02*
X48646447Y-70146447D01*
G36*
X48646447Y-70146447D02*
G01*
X48146447Y-70646447D01*
X48146447Y-69646447D01*
X48646447Y-70146447D01*
G37*
X48646447Y-70146447D02*
X48146447Y-70646447D01*
X48146447Y-69646447D01*
X48646447Y-70146447D01*
D10*
X79496447Y-117496447D02*
X80396447Y-117496447D01*
X77496447Y-98996447D02*
X78296447Y-98996447D01*
X134696447Y-60696447D02*
X134596447Y-60696447D01*
X150146447Y-75488530D02*
G75*
G03*
X141146447Y-75488530I-4500000J6572083D01*
G01*
D12*
X117646447Y-104646447D02*
X117646447Y-109646447D01*
D10*
X58646447Y-119246447D02*
X58646447Y-118546447D01*
X56946447Y-45496447D02*
X56946447Y-44796447D01*
X36346447Y-101146447D02*
X36246447Y-101146447D01*
D12*
X111646447Y-123146447D02*
X111646447Y-128146447D01*
D10*
X141646447Y-117646447D02*
X141646447Y-115946447D01*
D12*
X50646447Y-112396447D02*
G75*
G03*
X50146447Y-112896447I1J-500001D01*
G01*
D10*
X48146447Y-70146447D02*
X45646447Y-70146447D01*
X147396447Y-40946447D02*
X147796447Y-40946447D01*
X36346447Y-82646447D02*
X36246447Y-82646447D01*
X104146447Y-46896447D02*
X105146447Y-46896447D01*
X145796447Y-40946447D02*
X145496447Y-42646447D01*
X88746447Y-37996447D02*
X89446447Y-37996447D01*
D12*
X56146447Y-57396447D02*
X56146447Y-62396447D01*
D10*
X36446447Y-80946447D02*
X36246447Y-81046447D01*
X73946447Y-80918530D02*
X73786447Y-81298530D01*
X64146447Y-120118530D02*
X64556447Y-120468530D01*
D12*
X50646447Y-56896447D02*
G75*
G03*
X50146447Y-57396447I1J-500001D01*
G01*
D10*
X77036447Y-46118530D02*
X76686447Y-46438530D01*
X92796447Y-36296447D02*
X93596447Y-36296447D01*
X62746447Y-73118530D02*
X63186447Y-72958530D01*
X104146447Y-65146447D02*
G75*
G03*
X99146447Y-70146447I-31626J-4968374D01*
G01*
X48146447Y-125646447D02*
X45646447Y-125646447D01*
D12*
X111646447Y-67646447D02*
X111646447Y-72646447D01*
D10*
X110146447Y-52046447D02*
X110146447Y-51646447D01*
X110146447Y-51646447D02*
X110546447Y-51646447D01*
X110546447Y-51646447D02*
X110146447Y-52046447D01*
G36*
X110146447Y-52046447D02*
G01*
X110146447Y-51646447D01*
X110546447Y-51646447D01*
X110146447Y-52046447D01*
G37*
X110146447Y-52046447D02*
X110146447Y-51646447D01*
X110546447Y-51646447D01*
X110146447Y-52046447D01*
D12*
X117646447Y-67646447D02*
G75*
G03*
X117146447Y-67146447I-500001J-1D01*
G01*
X50146447Y-99396447D02*
G75*
G03*
X50646447Y-99896447I500001J1D01*
G01*
D10*
X56946447Y-83746447D02*
X57696447Y-84446447D01*
X95646447Y-36996447D02*
X95146447Y-36296447D01*
X96046447Y-36296447D02*
X96046447Y-37996447D01*
X151646447Y-44146447D02*
X152246447Y-44646447D01*
X105296447Y-99546447D02*
X105196447Y-99546447D01*
X79496447Y-80496447D02*
X80396447Y-80496447D01*
X87246447Y-36296447D02*
X87246447Y-36496447D01*
X104146447Y-83646447D02*
G75*
G03*
X99146447Y-88646447I-31626J-4968374D01*
G01*
D12*
X112146447Y-85646447D02*
X117146447Y-85646447D01*
D10*
X58646447Y-62946447D02*
X58846447Y-63146447D01*
D12*
X117646447Y-86146447D02*
G75*
G03*
X117146447Y-85646447I-500001J-1D01*
G01*
D10*
X87946447Y-36296447D02*
X88646447Y-36296447D01*
D12*
X117146447Y-73146447D02*
X112146447Y-73146447D01*
D10*
X78746447Y-86218530D02*
X78286447Y-86358530D01*
D12*
X50646447Y-93896447D02*
G75*
G03*
X50146447Y-94396447I1J-500001D01*
G01*
D10*
X136863342Y-68916447D02*
X137634954Y-68916447D01*
X102946447Y-62546447D02*
X102846447Y-62346447D01*
X56946447Y-99746447D02*
G75*
G03*
X57296447Y-100246447I556447J17013D01*
G01*
X105046447Y-134946447D02*
X104246447Y-136546447D01*
D12*
X50146447Y-136396447D02*
G75*
G03*
X50646447Y-136896447I500001J1D01*
G01*
D10*
X78446447Y-73018530D02*
X78136447Y-72908530D01*
X145596447Y-108296447D02*
X144596447Y-109996447D01*
X57846447Y-63446447D02*
X57846447Y-63146447D01*
X105796447Y-97946447D02*
X105796447Y-99546447D01*
X98746447Y-125646447D02*
X99146447Y-125646447D01*
X99146447Y-125646447D02*
X99146447Y-126046447D01*
X99146447Y-126046447D02*
X98746447Y-125646447D01*
G36*
X99146447Y-126046447D02*
G01*
X98746447Y-125646447D01*
X99146447Y-125646447D01*
X99146447Y-126046447D01*
G37*
X99146447Y-126046447D02*
X98746447Y-125646447D01*
X99146447Y-125646447D01*
X99146447Y-126046447D01*
X77896447Y-78796447D02*
X77496447Y-80496447D01*
X56946447Y-136746447D02*
X56946447Y-136346447D01*
D12*
X56146447Y-94396447D02*
G75*
G03*
X55646447Y-93896447I-500001J-1D01*
G01*
D10*
X67446447Y-43818530D02*
X67636447Y-44268530D01*
D11*
X48646447Y-125646447D02*
X48146447Y-126146447D01*
X48146447Y-126146447D02*
X48146447Y-125146447D01*
X48146447Y-125146447D02*
X48646447Y-125646447D01*
G36*
X48646447Y-125646447D02*
G01*
X48146447Y-126146447D01*
X48146447Y-125146447D01*
X48646447Y-125646447D01*
G37*
X48646447Y-125646447D02*
X48146447Y-126146447D01*
X48146447Y-125146447D01*
X48646447Y-125646447D01*
D10*
X78746447Y-67718530D02*
X78286447Y-67858530D01*
X56946447Y-84746447D02*
X58646447Y-85046447D01*
X70646447Y-99180141D02*
X70646447Y-98218530D01*
X56946447Y-119096447D02*
X58646447Y-120096447D01*
X143046447Y-117646447D02*
X144146447Y-117646447D01*
D12*
X50146447Y-131396447D02*
X50146447Y-136396447D01*
D10*
X104946447Y-80246447D02*
X104646447Y-80246447D01*
X70646447Y-43680141D02*
X70646447Y-42718530D01*
X97346447Y-36296447D02*
X97446447Y-36496447D01*
X77496447Y-117496447D02*
X78296447Y-117496447D01*
X77896447Y-60296447D02*
X77796447Y-60296447D01*
X58646447Y-100746447D02*
X58646447Y-100046447D01*
X78649148Y-70146447D02*
X79420760Y-70146447D01*
X78596447Y-97296447D02*
X78496447Y-97296447D01*
D12*
X112146447Y-104146447D02*
X117146447Y-104146447D01*
D10*
X64146447Y-94018530D02*
X64496447Y-93728530D01*
X106296447Y-134946447D02*
X105796447Y-136546447D01*
X104146447Y-46396447D02*
X105146447Y-46396447D01*
X134696447Y-60696447D02*
X134296447Y-62396447D01*
X56946447Y-119496447D02*
X56946447Y-118796447D01*
X57696447Y-84446447D02*
X56946447Y-84746447D01*
X148946447Y-61188530D02*
X148786447Y-61568530D01*
X56946447Y-83396447D02*
X58646447Y-83696447D01*
X56946447Y-139246447D02*
X58646447Y-139646447D01*
X56946447Y-62746447D02*
X56946447Y-62346447D01*
X78446447Y-91518530D02*
X78136447Y-91408530D01*
X110146447Y-88646447D02*
G75*
G03*
X105146447Y-83646447I-4936336J63664D01*
G01*
X97346447Y-36296447D02*
X97146447Y-36396447D01*
X70646447Y-117680141D02*
X70646447Y-116718530D01*
D12*
X117146447Y-128646447D02*
X112146447Y-128646447D01*
D10*
X137446447Y-138796447D02*
X137846447Y-138796447D01*
X78596447Y-134296447D02*
X78996447Y-135996447D01*
D12*
X50646447Y-130896447D02*
X55646447Y-130896447D01*
D10*
X58646447Y-82246447D02*
X58646447Y-81546447D01*
X56946447Y-138896447D02*
X58646447Y-139196447D01*
X36446447Y-62446447D02*
X36246447Y-62546447D01*
X87146447Y-37396447D02*
X86346447Y-37996447D01*
X73946447Y-62418530D02*
X73786447Y-62798530D01*
X147796447Y-40946447D02*
X147696447Y-41146447D01*
X78596447Y-115796447D02*
X78496447Y-115796447D01*
X56946447Y-81246447D02*
G75*
G03*
X57296447Y-81746447I556447J17013D01*
G01*
X147096447Y-40946447D02*
X146096447Y-42646447D01*
X102946447Y-118046447D02*
X102846447Y-117846447D01*
D12*
X56146447Y-75896447D02*
G75*
G03*
X55646447Y-75396447I-500001J-1D01*
G01*
X112146447Y-67146447D02*
G75*
G03*
X111646447Y-67646447I1J-500001D01*
G01*
D10*
X77496447Y-43496447D02*
X78296447Y-43496447D01*
X64146447Y-64618530D02*
X64556447Y-64968530D01*
X78996447Y-135996447D02*
X79296447Y-134296447D01*
X56946447Y-103246447D02*
X56946447Y-103446447D01*
X110146447Y-144146447D02*
G75*
G03*
X105146447Y-139146447I-4936336J63664D01*
G01*
X36346447Y-64146447D02*
X36246447Y-64146447D01*
X105796447Y-116446447D02*
X105296447Y-118046447D01*
X56946447Y-65246447D02*
X58646447Y-65646447D01*
X75146447Y-132218530D02*
X75596447Y-132828530D01*
X132096447Y-60696447D02*
X131996447Y-60696447D01*
D12*
X50146447Y-75896447D02*
X50146447Y-80896447D01*
D10*
X105046447Y-134946447D02*
X104946447Y-136546447D01*
X56946447Y-102246447D02*
X56946447Y-102446447D01*
X145096447Y-42646447D02*
X144596447Y-40946447D01*
X92046447Y-37996447D02*
X91846447Y-38196447D01*
X103146447Y-43946447D02*
X102946447Y-44046447D01*
X92046447Y-37996447D02*
X91846447Y-37796447D01*
D12*
X55646447Y-99896447D02*
X50646447Y-99896447D01*
D10*
X61863342Y-144146447D02*
X62634954Y-144146447D01*
X160649148Y-124421447D02*
X161420760Y-124421447D01*
X79896447Y-60296447D02*
X79796447Y-60296447D01*
X62746447Y-91618530D02*
X63186447Y-91458530D01*
D12*
X50146447Y-94396447D02*
X50146447Y-99396447D01*
X55646447Y-118396447D02*
G75*
G03*
X56146447Y-117896447I-1J500001D01*
G01*
D10*
X99846447Y-36296447D02*
G75*
G03*
X99446447Y-36696447I-1J-399999D01*
G01*
X37946447Y-62446447D02*
X37846447Y-62446447D01*
X103646447Y-97946447D02*
X102946447Y-99546447D01*
D12*
X112146447Y-48646447D02*
X117146447Y-48646447D01*
D10*
X62746447Y-110118530D02*
X63186447Y-109958530D01*
X79296447Y-41796447D02*
X79196447Y-41796447D01*
X62546447Y-67718530D02*
X63006447Y-67858530D01*
X104146447Y-139146447D02*
G75*
G03*
X99146447Y-144146447I-31626J-4968374D01*
G01*
X56946447Y-121746447D02*
X56946447Y-121946447D01*
D12*
X112146447Y-141146447D02*
X117146447Y-141146447D01*
D10*
X141646447Y-115946447D02*
X141546447Y-115946447D01*
X77036447Y-101618530D02*
X76686447Y-101938530D01*
X144296447Y-108296447D02*
X143996447Y-109996447D01*
X77076447Y-56858530D02*
X76836447Y-56658530D01*
X106296447Y-79446447D02*
X106196447Y-79446447D01*
X146146447Y-129793530D02*
X146496447Y-129503530D01*
X36346447Y-138146447D02*
X36246447Y-138146447D01*
X73946447Y-136418530D02*
X73786447Y-136798530D01*
X79896447Y-97296447D02*
X79496447Y-98996447D01*
X56946447Y-82496447D02*
X56946447Y-81796447D01*
D12*
X56146447Y-94396447D02*
X56146447Y-99396447D01*
D10*
X36346447Y-82646447D02*
X37146447Y-80946447D01*
X106296447Y-60946447D02*
X105796447Y-62546447D01*
X132896447Y-60696447D02*
X132796447Y-60696447D01*
X56946447Y-47746447D02*
X56946447Y-47946447D01*
X56946447Y-64896447D02*
X58646447Y-65196447D01*
X78446447Y-128518530D02*
X78136447Y-128408530D01*
X144746447Y-127393530D02*
X145186447Y-127233530D01*
X106296447Y-79446447D02*
X105796447Y-81046447D01*
X105046447Y-60946447D02*
X104246447Y-62546447D01*
X77896447Y-41796447D02*
X77796447Y-41796447D01*
X152036447Y-63388530D02*
X151686447Y-63708530D01*
X96046447Y-36296447D02*
X95846447Y-36196447D01*
X152346447Y-44046447D02*
X151646447Y-44146447D01*
X73946447Y-99418530D02*
X73786447Y-99798530D01*
X79896447Y-115796447D02*
X79496447Y-117496447D01*
X77896447Y-78796447D02*
X77796447Y-78796447D01*
X103646447Y-116446447D02*
X104546447Y-116846447D01*
X57846447Y-137446447D02*
X57846447Y-137146447D01*
X133296447Y-60696447D02*
X134196447Y-60696447D01*
D12*
X56146447Y-149896447D02*
G75*
G03*
X55646447Y-149396447I-500001J-1D01*
G01*
D10*
X105046447Y-97946447D02*
X104246447Y-99546447D01*
X37146447Y-62446447D02*
X37146447Y-64146447D01*
X79896447Y-97296447D02*
X79796447Y-97296447D01*
D12*
X111646447Y-141646447D02*
X111646447Y-146646447D01*
X50146447Y-149896447D02*
X50146447Y-154896447D01*
D10*
X37146447Y-136446447D02*
X37146447Y-138146447D01*
X100046447Y-37996447D02*
X99846447Y-38196447D01*
D12*
X117146447Y-54646447D02*
G75*
G03*
X117646447Y-54146447I-1J500001D01*
G01*
D10*
X36446447Y-117946447D02*
X36246447Y-118046447D01*
X67446447Y-99318530D02*
X67636447Y-99768530D01*
X98746447Y-107146447D02*
X99146447Y-107146447D01*
X99146447Y-107146447D02*
X99146447Y-107546447D01*
X99146447Y-107546447D02*
X98746447Y-107146447D01*
G36*
X99146447Y-107546447D02*
G01*
X98746447Y-107146447D01*
X99146447Y-107146447D01*
X99146447Y-107546447D01*
G37*
X99146447Y-107546447D02*
X98746447Y-107146447D01*
X99146447Y-107146447D01*
X99146447Y-107546447D01*
X155946447Y-116693530D02*
X155786447Y-117073530D01*
X56946447Y-137596447D02*
X58646447Y-138596447D01*
X48146447Y-144146447D02*
X45646447Y-144146447D01*
X64146447Y-83118530D02*
X64556447Y-83468530D01*
D12*
X117146447Y-110146447D02*
G75*
G03*
X117646447Y-109646447I-1J500001D01*
G01*
D10*
X103146447Y-99446447D02*
X102946447Y-99546447D01*
D13*
X43933947Y-125646447D02*
G75*
G03*
X43933947Y-125646447I-2287500J0D01*
G01*
D10*
X102946447Y-99546447D02*
X102846447Y-99346447D01*
X36346447Y-101146447D02*
X37146447Y-99446447D01*
X78446447Y-110018530D02*
X78136447Y-109908530D01*
D12*
X56146447Y-149896447D02*
X56146447Y-154896447D01*
D10*
X132896447Y-62396447D02*
X132896447Y-60696447D01*
X104146447Y-101896447D02*
X105146447Y-101896447D01*
X35646447Y-119646447D02*
X36446447Y-117946447D01*
X110146447Y-89046447D02*
X110146447Y-88646447D01*
X110146447Y-88646447D02*
X110546447Y-88646447D01*
X110546447Y-88646447D02*
X110146447Y-89046447D01*
G36*
X110146447Y-89046447D02*
G01*
X110146447Y-88646447D01*
X110546447Y-88646447D01*
X110146447Y-89046447D01*
G37*
X110146447Y-89046447D02*
X110146447Y-88646447D01*
X110546447Y-88646447D01*
X110146447Y-89046447D01*
X36446447Y-99446447D02*
X36546447Y-99646447D01*
X144546447Y-121993530D02*
X145006447Y-122133530D01*
X150146447Y-75488530D02*
X150596447Y-76098530D01*
D12*
X117146447Y-73146447D02*
G75*
G03*
X117646447Y-72646447I-1J500001D01*
G01*
D10*
X105046447Y-79446447D02*
X104246447Y-81046447D01*
X66146447Y-150718530D02*
X65686447Y-151308530D01*
X90546447Y-36296447D02*
X90946447Y-36896447D01*
X79896447Y-115796447D02*
X79796447Y-115796447D01*
X142946447Y-115946447D02*
X142546447Y-117646447D01*
X103646447Y-60946447D02*
X102946447Y-62546447D01*
X56946447Y-120396447D02*
X58646447Y-120696447D01*
D11*
X99046447Y-36296447D02*
X98846447Y-36296447D01*
D10*
X134296447Y-62396447D02*
X135396447Y-62396447D01*
X37146447Y-138146447D02*
X37946447Y-136446447D01*
X56946447Y-136746447D02*
G75*
G03*
X57296447Y-137246447I556447J17013D01*
G01*
X67446447Y-136318530D02*
X67636447Y-136768530D01*
X137546447Y-66488530D02*
X138006447Y-66628530D01*
X89546447Y-37996447D02*
X89346447Y-37796447D01*
D12*
X50146447Y-57396447D02*
X50146447Y-62396447D01*
D11*
X98046447Y-37996447D02*
X97846447Y-37996447D01*
D10*
X159036447Y-118893530D02*
X158686447Y-119213530D01*
D11*
X161646447Y-100646447D02*
X135646447Y-100646447D01*
X135646447Y-100646447D02*
X135646447Y-82646447D01*
X135646447Y-82646447D02*
X161646447Y-82646447D01*
X161646447Y-82646447D02*
X161646447Y-100646447D01*
G36*
X161646447Y-100646447D02*
G01*
X135646447Y-100646447D01*
X135646447Y-82646447D01*
X161646447Y-82646447D01*
X161646447Y-100646447D01*
G37*
X161646447Y-100646447D02*
X135646447Y-100646447D01*
X135646447Y-82646447D01*
X161646447Y-82646447D01*
X161646447Y-100646447D01*
D10*
X146146447Y-118893530D02*
X146556447Y-119243530D01*
X78649148Y-51646447D02*
X79420760Y-51646447D01*
X36346447Y-119646447D02*
X37146447Y-117946447D01*
X146696447Y-40946447D02*
X147396447Y-40946447D01*
D14*
X140183947Y-91646447D02*
G75*
G03*
X140183947Y-91646447I-4537500J0D01*
G01*
D10*
X58646447Y-45246447D02*
X58646447Y-44546447D01*
D12*
X117646447Y-67646447D02*
X117646447Y-72646447D01*
D10*
X64146447Y-112518530D02*
X64496447Y-112228530D01*
X62546447Y-141718530D02*
X63006447Y-141858530D01*
D12*
X117146447Y-54646447D02*
X112146447Y-54646447D01*
D10*
X133796447Y-62396447D02*
X133296447Y-60696447D01*
X77076447Y-93858530D02*
X76836447Y-93658530D01*
X103146447Y-136446447D02*
X102946447Y-136546447D01*
X110146447Y-107546447D02*
X110146447Y-107146447D01*
X110146447Y-107146447D02*
X110546447Y-107146447D01*
X110546447Y-107146447D02*
X110146447Y-107546447D01*
G36*
X110146447Y-107546447D02*
G01*
X110146447Y-107146447D01*
X110546447Y-107146447D01*
X110146447Y-107546447D01*
G37*
X110146447Y-107546447D02*
X110146447Y-107146447D01*
X110546447Y-107146447D01*
X110146447Y-107546447D01*
X56946447Y-140246447D02*
X56946447Y-140446447D01*
X58646447Y-136946447D02*
X58846447Y-137146447D01*
X37946447Y-136446447D02*
X37846447Y-136446447D01*
X78596447Y-97296447D02*
X78996447Y-98996447D01*
X153446447Y-71788530D02*
X153136447Y-71678530D01*
D12*
X117146447Y-110146447D02*
X112146447Y-110146447D01*
D10*
X105296447Y-44046447D02*
X105196447Y-44046447D01*
X79496447Y-135996447D02*
X80396447Y-135996447D01*
X58646447Y-120696447D02*
X56946447Y-119696447D01*
X143096447Y-108296447D02*
X143996447Y-108296447D01*
X132096447Y-60696447D02*
X132896447Y-62396447D01*
X64146447Y-149518530D02*
X64496447Y-149228530D01*
X145646447Y-60950141D02*
X145646447Y-59988530D01*
X104546447Y-79846447D02*
X103346447Y-80146447D01*
X58646447Y-136946447D02*
X58446447Y-137146447D01*
X135196447Y-106646447D02*
X136096447Y-106646447D01*
D12*
X117146447Y-147146447D02*
G75*
G03*
X117646447Y-146646447I-1J500001D01*
G01*
D16*
X161646447Y-154646447D02*
X152646447Y-154646447D01*
X152646447Y-154646447D02*
X152646447Y-136646447D01*
X152646447Y-136646447D02*
X161646447Y-136646447D01*
X161646447Y-136646447D02*
X161646447Y-154646447D01*
G36*
X161646447Y-154646447D02*
G01*
X152646447Y-154646447D01*
X152646447Y-136646447D01*
X161646447Y-136646447D01*
X161646447Y-154646447D01*
G37*
X161646447Y-154646447D02*
X152646447Y-154646447D01*
X152646447Y-136646447D01*
X161646447Y-136646447D01*
X161646447Y-154646447D01*
D10*
X77896447Y-41796447D02*
X77496447Y-43496447D01*
X56946447Y-45096447D02*
X58646447Y-46096447D01*
X95146447Y-36296447D02*
X95146447Y-37996447D01*
X79896447Y-41796447D02*
X79796447Y-41796447D01*
X77896447Y-134296447D02*
X77496447Y-135996447D01*
X67446447Y-117818530D02*
X67636447Y-118268530D01*
X78596447Y-115796447D02*
X78996447Y-117496447D01*
X62746447Y-54618530D02*
X63186447Y-54458530D01*
X78649148Y-88646447D02*
X79420760Y-88646447D01*
X101246447Y-36296447D02*
X101646447Y-36896447D01*
X99446447Y-37196447D02*
X99746447Y-37196447D01*
X104546447Y-98346447D02*
X103346447Y-98646447D01*
D12*
X112146447Y-141146447D02*
G75*
G03*
X111646447Y-141646447I1J-500001D01*
G01*
D10*
X146296447Y-108296447D02*
X146196447Y-108096447D01*
D17*
X26646447Y-34646447D02*
X26646447Y-162646447D01*
X26646447Y-34646447D02*
X161646447Y-34646447D01*
X161646447Y-34646447D02*
X161646447Y-162646447D01*
X161646447Y-162646447D02*
X26646447Y-162646447D01*
G36*
X131886299Y-145333905D02*
G01*
X131886420Y-145346112D01*
X131886539Y-145366151D01*
X131886655Y-145393771D01*
X131886768Y-145428721D01*
X131886879Y-145470749D01*
X131886986Y-145519606D01*
X131887090Y-145575040D01*
X131887190Y-145636801D01*
X131887287Y-145704638D01*
X131887379Y-145778299D01*
X131887467Y-145857534D01*
X131887551Y-145942092D01*
X131887630Y-146031722D01*
X131887703Y-146126174D01*
X131887772Y-146225196D01*
X131887834Y-146328538D01*
X131887891Y-146435948D01*
X131887943Y-146547177D01*
X131887988Y-146661972D01*
X131888026Y-146780084D01*
X131888058Y-146901261D01*
X131888083Y-147025253D01*
X131888100Y-147151808D01*
X131888110Y-147280676D01*
X131888113Y-147390197D01*
X131888107Y-147520809D01*
X131888088Y-147649318D01*
X131888058Y-147775474D01*
X131888016Y-147899025D01*
X131887963Y-148019720D01*
X131887899Y-148137310D01*
X131887825Y-148251543D01*
X131887741Y-148362168D01*
X131887648Y-148468934D01*
X131887545Y-148571590D01*
X131887433Y-148669886D01*
X131887313Y-148763571D01*
X131887184Y-148852394D01*
X131887049Y-148936103D01*
X131886905Y-149014449D01*
X131886755Y-149087180D01*
X131886598Y-149154046D01*
X131886435Y-149214795D01*
X131886267Y-149269177D01*
X131886093Y-149316941D01*
X131885914Y-149357836D01*
X131885730Y-149391611D01*
X131885542Y-149418015D01*
X131885350Y-149436798D01*
X131885154Y-149447708D01*
X131884988Y-149450606D01*
X131880298Y-149448580D01*
X131870191Y-149443132D01*
X131856357Y-149435194D01*
X131846447Y-149429310D01*
X131730592Y-149354859D01*
X131619454Y-149273735D01*
X131513305Y-149186296D01*
X131412419Y-149092895D01*
X131317069Y-148993888D01*
X131227528Y-148889631D01*
X131144070Y-148780477D01*
X131066967Y-148666782D01*
X130996495Y-148548901D01*
X130932925Y-148427190D01*
X130876531Y-148302003D01*
X130827586Y-148173695D01*
X130790688Y-148057773D01*
X130755971Y-147922799D01*
X130729174Y-147785686D01*
X130710333Y-147647009D01*
X130699488Y-147507341D01*
X130696678Y-147367256D01*
X130701942Y-147227329D01*
X130715318Y-147088133D01*
X130721849Y-147040197D01*
X130745872Y-146904997D01*
X130777983Y-146771121D01*
X130817978Y-146639057D01*
X130865656Y-146509292D01*
X130920812Y-146382314D01*
X130983243Y-146258609D01*
X131052746Y-146138665D01*
X131129119Y-146022970D01*
X131168526Y-145968596D01*
X131199404Y-145927958D01*
X131228948Y-145890689D01*
X131258469Y-145855293D01*
X131289280Y-145820275D01*
X131322691Y-145784138D01*
X131360013Y-145745387D01*
X131396233Y-145708834D01*
X131454422Y-145651956D01*
X131509567Y-145600793D01*
X131563181Y-145554087D01*
X131616779Y-145510576D01*
X131671876Y-145469002D01*
X131729988Y-145428106D01*
X131750613Y-145414191D01*
X131772056Y-145400024D01*
X131794517Y-145385458D01*
X131816846Y-145371209D01*
X131837893Y-145357994D01*
X131856507Y-145346527D01*
X131871538Y-145337527D01*
X131881837Y-145331708D01*
X131886176Y-145329780D01*
X131886299Y-145333905D01*
G37*
G36*
X139511506Y-145331947D02*
G01*
X139522111Y-145337971D01*
X139537383Y-145347134D01*
X139556170Y-145358722D01*
X139577323Y-145372017D01*
X139599691Y-145386304D01*
X139622125Y-145400867D01*
X139642280Y-145414191D01*
X139701755Y-145455143D01*
X139757704Y-145496347D01*
X139811640Y-145539060D01*
X139865079Y-145584544D01*
X139919535Y-145634057D01*
X139976524Y-145688859D01*
X139996660Y-145708834D01*
X140038394Y-145751029D01*
X140075089Y-145789324D01*
X140108056Y-145825215D01*
X140138607Y-145860196D01*
X140168053Y-145895764D01*
X140197705Y-145933415D01*
X140224367Y-145968596D01*
X140305019Y-146083457D01*
X140378349Y-146202119D01*
X140444282Y-146324273D01*
X140502743Y-146449605D01*
X140553657Y-146577806D01*
X140596949Y-146708562D01*
X140632544Y-146841563D01*
X140660367Y-146976497D01*
X140680343Y-147113053D01*
X140692398Y-147250919D01*
X140696456Y-147389784D01*
X140692442Y-147529335D01*
X140680282Y-147669263D01*
X140662951Y-147791455D01*
X140635805Y-147928302D01*
X140600663Y-148062930D01*
X140557631Y-148195085D01*
X140506813Y-148324513D01*
X140448312Y-148450956D01*
X140382232Y-148574162D01*
X140308679Y-148693874D01*
X140273231Y-148746447D01*
X140189708Y-148859611D01*
X140099821Y-148967465D01*
X140003825Y-149069760D01*
X139901980Y-149166244D01*
X139794542Y-149256665D01*
X139681770Y-149340773D01*
X139621447Y-149381707D01*
X139595964Y-149398253D01*
X139571856Y-149413560D01*
X139550139Y-149427012D01*
X139531828Y-149437995D01*
X139517940Y-149445894D01*
X139509490Y-149450093D01*
X139507662Y-149450614D01*
X139507480Y-149446489D01*
X139507300Y-149434281D01*
X139507123Y-149414242D01*
X139506951Y-149386623D01*
X139506782Y-149351673D01*
X139506617Y-149309644D01*
X139506457Y-149260787D01*
X139506303Y-149205353D01*
X139506153Y-149143593D01*
X139506010Y-149075756D01*
X139505872Y-149002095D01*
X139505741Y-148922860D01*
X139505617Y-148838302D01*
X139505500Y-148748672D01*
X139505390Y-148654220D01*
X139505288Y-148555198D01*
X139505195Y-148451856D01*
X139505110Y-148344445D01*
X139505034Y-148233217D01*
X139504967Y-148118421D01*
X139504910Y-148000310D01*
X139504862Y-147879132D01*
X139504825Y-147755141D01*
X139504799Y-147628585D01*
X139504784Y-147499717D01*
X139504780Y-147390197D01*
X139504784Y-147259585D01*
X139504795Y-147131076D01*
X139504814Y-147004920D01*
X139504840Y-146881369D01*
X139504873Y-146760673D01*
X139504912Y-146643083D01*
X139504958Y-146528850D01*
X139505010Y-146418225D01*
X139505068Y-146311458D01*
X139505132Y-146208802D01*
X139505201Y-146110505D01*
X139505276Y-146016820D01*
X139505355Y-145927997D01*
X139505440Y-145844287D01*
X139505528Y-145765941D01*
X139505622Y-145693209D01*
X139505719Y-145626343D01*
X139505820Y-145565594D01*
X139505924Y-145511211D01*
X139506032Y-145463447D01*
X139506143Y-145422552D01*
X139506257Y-145388777D01*
X139506374Y-145362372D01*
X139506493Y-145343589D01*
X139506614Y-145332678D01*
X139506717Y-145329780D01*
X139511506Y-145331947D01*
G37*
G36*
X135942277Y-141496412D02*
G01*
X136134505Y-141511193D01*
X136326964Y-141534281D01*
X136519755Y-141565674D01*
X136712979Y-141605372D01*
X136906738Y-141653376D01*
X136992280Y-141677155D01*
X137154166Y-141726348D01*
X137315712Y-141780905D01*
X137477729Y-141841151D01*
X137641031Y-141907411D01*
X137806430Y-141980008D01*
X137974738Y-142059267D01*
X138079780Y-142111328D01*
X138151471Y-142147982D01*
X138216424Y-142182268D01*
X138275665Y-142214837D01*
X138330222Y-142246341D01*
X138381122Y-142277432D01*
X138429393Y-142308763D01*
X138476063Y-142340984D01*
X138522159Y-142374748D01*
X138568709Y-142410707D01*
X138616739Y-142449513D01*
X138629780Y-142460302D01*
X138655679Y-142482650D01*
X138685861Y-142510079D01*
X138719153Y-142541414D01*
X138754381Y-142575481D01*
X138790372Y-142611105D01*
X138825954Y-142647113D01*
X138859952Y-142682330D01*
X138891193Y-142715582D01*
X138918505Y-142745695D01*
X138940674Y-142771447D01*
X139022460Y-142874610D01*
X139096394Y-142977368D01*
X139162887Y-143080397D01*
X139222348Y-143184369D01*
X139275188Y-143289958D01*
X139320427Y-143394364D01*
X139357158Y-143493120D01*
X139387462Y-143591042D01*
X139411977Y-143690521D01*
X139431343Y-143793950D01*
X139436774Y-143829780D01*
X139437263Y-143833451D01*
X139437731Y-143837600D01*
X139438178Y-143842416D01*
X139438605Y-143848089D01*
X139439012Y-143854806D01*
X139439399Y-143862759D01*
X139439768Y-143872134D01*
X139440118Y-143883122D01*
X139440451Y-143895911D01*
X139440767Y-143910691D01*
X139441067Y-143927650D01*
X139441351Y-143946978D01*
X139441619Y-143968863D01*
X139441873Y-143993495D01*
X139442112Y-144021063D01*
X139442338Y-144051755D01*
X139442551Y-144085760D01*
X139442752Y-144123268D01*
X139442941Y-144164468D01*
X139443118Y-144209549D01*
X139443285Y-144258699D01*
X139443442Y-144312109D01*
X139443589Y-144369966D01*
X139443727Y-144432459D01*
X139443857Y-144499779D01*
X139443979Y-144572113D01*
X139444094Y-144649652D01*
X139444202Y-144732583D01*
X139444303Y-144821096D01*
X139444400Y-144915380D01*
X139444491Y-145015624D01*
X139444578Y-145122018D01*
X139444661Y-145234749D01*
X139444741Y-145354007D01*
X139444818Y-145479982D01*
X139444893Y-145612861D01*
X139444967Y-145752835D01*
X139445040Y-145900092D01*
X139445112Y-146054821D01*
X139445184Y-146217211D01*
X139445257Y-146387452D01*
X139445332Y-146565732D01*
X139445374Y-146668322D01*
X139446514Y-149454780D01*
X138792280Y-149454780D01*
X138792244Y-146724572D01*
X138792235Y-146528236D01*
X138792214Y-146338532D01*
X138792180Y-146155528D01*
X138792134Y-145979290D01*
X138792076Y-145809885D01*
X138792006Y-145647381D01*
X138791924Y-145491845D01*
X138791829Y-145343343D01*
X138791724Y-145201944D01*
X138791606Y-145067713D01*
X138791477Y-144940719D01*
X138791336Y-144821028D01*
X138791184Y-144708707D01*
X138791021Y-144603824D01*
X138790846Y-144506445D01*
X138790661Y-144416639D01*
X138790464Y-144334471D01*
X138790257Y-144260010D01*
X138790039Y-144193321D01*
X138789810Y-144134473D01*
X138789570Y-144083532D01*
X138789320Y-144040566D01*
X138789060Y-144005642D01*
X138788790Y-143978826D01*
X138788509Y-143960186D01*
X138788218Y-143949789D01*
X138788115Y-143948127D01*
X138777119Y-143868543D01*
X138758125Y-143787229D01*
X138731239Y-143704405D01*
X138696565Y-143620289D01*
X138654209Y-143535100D01*
X138604276Y-143449055D01*
X138546871Y-143362374D01*
X138482099Y-143275275D01*
X138439081Y-143222111D01*
X138366288Y-143139081D01*
X138288630Y-143058475D01*
X138206976Y-142980982D01*
X138122196Y-142907286D01*
X138035161Y-142838077D01*
X137946741Y-142774039D01*
X137857805Y-142715861D01*
X137769224Y-142664229D01*
X137681867Y-142619830D01*
X137668196Y-142613505D01*
X137633797Y-142598283D01*
X137592635Y-142580868D01*
X137545853Y-142561697D01*
X137494592Y-142541210D01*
X137439996Y-142519845D01*
X137383208Y-142498041D01*
X137325371Y-142476238D01*
X137267627Y-142454873D01*
X137211119Y-142434386D01*
X137156990Y-142415215D01*
X137106863Y-142397962D01*
X136967964Y-142352485D01*
X136834489Y-142311967D01*
X136705348Y-142276171D01*
X136579450Y-142244863D01*
X136455704Y-142217805D01*
X136333018Y-142194763D01*
X136210302Y-142175500D01*
X136086465Y-142159779D01*
X135960414Y-142147367D01*
X135940197Y-142145690D01*
X135915223Y-142144124D01*
X135883239Y-142142828D01*
X135845562Y-142141800D01*
X135803511Y-142141041D01*
X135758402Y-142140552D01*
X135711554Y-142140331D01*
X135664286Y-142140380D01*
X135617915Y-142140698D01*
X135573759Y-142141284D01*
X135533137Y-142142140D01*
X135497366Y-142143265D01*
X135467764Y-142144659D01*
X135452697Y-142145690D01*
X135327164Y-142157493D01*
X135204036Y-142172505D01*
X135082223Y-142190961D01*
X134960639Y-142213096D01*
X134838196Y-142239145D01*
X134713806Y-142269345D01*
X134586381Y-142303930D01*
X134454834Y-142343135D01*
X134318078Y-142387196D01*
X134284926Y-142398328D01*
X134233969Y-142415867D01*
X134179511Y-142435162D01*
X134122702Y-142455770D01*
X134064695Y-142477250D01*
X134006639Y-142499158D01*
X133949685Y-142521053D01*
X133894985Y-142542493D01*
X133843688Y-142563036D01*
X133796946Y-142582240D01*
X133755910Y-142599663D01*
X133724365Y-142613657D01*
X133633559Y-142658763D01*
X133541985Y-142711345D01*
X133450456Y-142770699D01*
X133359788Y-142836119D01*
X133270794Y-142906901D01*
X133184289Y-142982340D01*
X133101087Y-143061729D01*
X133022002Y-143144365D01*
X132947848Y-143229542D01*
X132879441Y-143316556D01*
X132826882Y-143390748D01*
X132777589Y-143467577D01*
X132735100Y-143541636D01*
X132698891Y-143614125D01*
X132668438Y-143686244D01*
X132643217Y-143759194D01*
X132622706Y-143834176D01*
X132611784Y-143883904D01*
X132603020Y-143927697D01*
X132601779Y-146691239D01*
X132600539Y-149454780D01*
X131946379Y-149454780D01*
X131947519Y-146668322D01*
X131947595Y-146485494D01*
X131947668Y-146310810D01*
X131947741Y-146144082D01*
X131947813Y-145985120D01*
X131947886Y-145833735D01*
X131947959Y-145689738D01*
X131948033Y-145552941D01*
X131948109Y-145423153D01*
X131948187Y-145300187D01*
X131948268Y-145183853D01*
X131948353Y-145073962D01*
X131948442Y-144970325D01*
X131948535Y-144872753D01*
X131948634Y-144781057D01*
X131948739Y-144695048D01*
X131948850Y-144614537D01*
X131948967Y-144539334D01*
X131949093Y-144469252D01*
X131949226Y-144404100D01*
X131949368Y-144343691D01*
X131949520Y-144287834D01*
X131949681Y-144236341D01*
X131949852Y-144189023D01*
X131950035Y-144145690D01*
X131950229Y-144106154D01*
X131950435Y-144070226D01*
X131950653Y-144037716D01*
X131950885Y-144008436D01*
X131951131Y-143982197D01*
X131951391Y-143958809D01*
X131951667Y-143938084D01*
X131951957Y-143919832D01*
X131952264Y-143903865D01*
X131952588Y-143889993D01*
X131952928Y-143878028D01*
X131953287Y-143867780D01*
X131953664Y-143859060D01*
X131954060Y-143851680D01*
X131954475Y-143845450D01*
X131954911Y-143840181D01*
X131955367Y-143835685D01*
X131955844Y-143831772D01*
X131956119Y-143829780D01*
X131977066Y-143710223D01*
X132005404Y-143592809D01*
X132041244Y-143477297D01*
X132084700Y-143363448D01*
X132135884Y-143251020D01*
X132194908Y-143139774D01*
X132261887Y-143029469D01*
X132336932Y-142919865D01*
X132420155Y-142810721D01*
X132452180Y-142771447D01*
X132474451Y-142745595D01*
X132501820Y-142715434D01*
X132533112Y-142682141D01*
X132567153Y-142646890D01*
X132602766Y-142610859D01*
X132638778Y-142575223D01*
X132674012Y-142541157D01*
X132707294Y-142509839D01*
X132737448Y-142482443D01*
X132763113Y-142460302D01*
X132811705Y-142420636D01*
X132858545Y-142383990D01*
X132904661Y-142349710D01*
X132951080Y-142317146D01*
X132998829Y-142285644D01*
X133048937Y-142254553D01*
X133102430Y-142223221D01*
X133160336Y-142190996D01*
X133223682Y-142157226D01*
X133293497Y-142121259D01*
X133313113Y-142111328D01*
X133483608Y-142027820D01*
X133650696Y-141951175D01*
X133815187Y-141881065D01*
X133977896Y-141817169D01*
X134139635Y-141759160D01*
X134301216Y-141706715D01*
X134400613Y-141677155D01*
X134594640Y-141625493D01*
X134788087Y-141582136D01*
X134981057Y-141547085D01*
X135173649Y-141520339D01*
X135365966Y-141501899D01*
X135558109Y-141491764D01*
X135750179Y-141489935D01*
X135942277Y-141496412D01*
G37*
G36*
X133360304Y-144991683D02*
G01*
X133384279Y-145001980D01*
X133410093Y-145016391D01*
X133434962Y-145033119D01*
X133456101Y-145050366D01*
X133465006Y-145059285D01*
X133485979Y-145085726D01*
X133504604Y-145115301D01*
X133518908Y-145144747D01*
X133522550Y-145154480D01*
X133531863Y-145181864D01*
X133532924Y-147381130D01*
X133533001Y-147544527D01*
X133533070Y-147699795D01*
X133533130Y-147847140D01*
X133533181Y-147986769D01*
X133533222Y-148118885D01*
X133533253Y-148243695D01*
X133533273Y-148361403D01*
X133533283Y-148472215D01*
X133533280Y-148576337D01*
X133533266Y-148673974D01*
X133533240Y-148765330D01*
X133533200Y-148850612D01*
X133533147Y-148930025D01*
X133533080Y-149003773D01*
X133532998Y-149072063D01*
X133532902Y-149135100D01*
X133532791Y-149193089D01*
X133532663Y-149246235D01*
X133532519Y-149294744D01*
X133532359Y-149338821D01*
X133532181Y-149378671D01*
X133531986Y-149414501D01*
X133531772Y-149446514D01*
X133531540Y-149474917D01*
X133531289Y-149499914D01*
X133531018Y-149521711D01*
X133530727Y-149540514D01*
X133530415Y-149556528D01*
X133530082Y-149569958D01*
X133529728Y-149581009D01*
X133529352Y-149589887D01*
X133528954Y-149596797D01*
X133528532Y-149601945D01*
X133528087Y-149605536D01*
X133527782Y-149607144D01*
X133515018Y-149645141D01*
X133495226Y-149681944D01*
X133469678Y-149715967D01*
X133439643Y-149745625D01*
X133406392Y-149769330D01*
X133391549Y-149777238D01*
X133378995Y-149783083D01*
X133367156Y-149788040D01*
X133355241Y-149792179D01*
X133342458Y-149795572D01*
X133328014Y-149798292D01*
X133311119Y-149800409D01*
X133290981Y-149801996D01*
X133266807Y-149803124D01*
X133237806Y-149803865D01*
X133203186Y-149804290D01*
X133162156Y-149804471D01*
X133113923Y-149804480D01*
X133090872Y-149804449D01*
X133039394Y-149804303D01*
X132995660Y-149804034D01*
X132959082Y-149803628D01*
X132929072Y-149803069D01*
X132905041Y-149802343D01*
X132886400Y-149801435D01*
X132872562Y-149800329D01*
X132862938Y-149799012D01*
X132861030Y-149798628D01*
X132816282Y-149784801D01*
X132775572Y-149764118D01*
X132739600Y-149737112D01*
X132709062Y-149704321D01*
X132684658Y-149666280D01*
X132682182Y-149661402D01*
X132680181Y-149657633D01*
X132678280Y-149654490D01*
X132676475Y-149651763D01*
X132674766Y-149649240D01*
X132673149Y-149646709D01*
X132671621Y-149643960D01*
X132670180Y-149640781D01*
X132668824Y-149636962D01*
X132667550Y-149632289D01*
X132666355Y-149626554D01*
X132665237Y-149619544D01*
X132664193Y-149611047D01*
X132663222Y-149600854D01*
X132662319Y-149588751D01*
X132661483Y-149574530D01*
X132660712Y-149557977D01*
X132660002Y-149538881D01*
X132659351Y-149517033D01*
X132658757Y-149492219D01*
X132658217Y-149464229D01*
X132657728Y-149432853D01*
X132657288Y-149397877D01*
X132656895Y-149359092D01*
X132656545Y-149316285D01*
X132656237Y-149269247D01*
X132655967Y-149217765D01*
X132655734Y-149161628D01*
X132655534Y-149100625D01*
X132655366Y-149034544D01*
X132655226Y-148963175D01*
X132655112Y-148886307D01*
X132655022Y-148803727D01*
X132654953Y-148715225D01*
X132654902Y-148620589D01*
X132654867Y-148519608D01*
X132654845Y-148412071D01*
X132654834Y-148297767D01*
X132654832Y-148176485D01*
X132654835Y-148048012D01*
X132654841Y-147912139D01*
X132654848Y-147768653D01*
X132654853Y-147617343D01*
X132654854Y-147457999D01*
X132654852Y-147389822D01*
X132654847Y-147228713D01*
X132654844Y-147075725D01*
X132654842Y-146930643D01*
X132654844Y-146793255D01*
X132654849Y-146663347D01*
X132654859Y-146540706D01*
X132654874Y-146425118D01*
X132654895Y-146316372D01*
X132654924Y-146214252D01*
X132654959Y-146118546D01*
X132655004Y-146029041D01*
X132655057Y-145945524D01*
X132655121Y-145867780D01*
X132655195Y-145795598D01*
X132655281Y-145728763D01*
X132655380Y-145667062D01*
X132655491Y-145610282D01*
X132655617Y-145558211D01*
X132655757Y-145510633D01*
X132655913Y-145467337D01*
X132656085Y-145428109D01*
X132656274Y-145392736D01*
X132656481Y-145361004D01*
X132656707Y-145332700D01*
X132656952Y-145307611D01*
X132657218Y-145285524D01*
X132657504Y-145266225D01*
X132657812Y-145249501D01*
X132658143Y-145235140D01*
X132658497Y-145222926D01*
X132658875Y-145212648D01*
X132659279Y-145204093D01*
X132659708Y-145197045D01*
X132660163Y-145191294D01*
X132660646Y-145186624D01*
X132661156Y-145182824D01*
X132661696Y-145179679D01*
X132662265Y-145176977D01*
X132662865Y-145174504D01*
X132662996Y-145173986D01*
X132678399Y-145129980D01*
X132700750Y-145090214D01*
X132729500Y-145055288D01*
X132764101Y-145025800D01*
X132804007Y-145002352D01*
X132829780Y-144991605D01*
X132856863Y-144981864D01*
X133331863Y-144981864D01*
X133360304Y-144991683D01*
G37*
G36*
X138292114Y-144979842D02*
G01*
X138343753Y-144979876D01*
X138387820Y-144979993D01*
X138425075Y-144980260D01*
X138456282Y-144980745D01*
X138482199Y-144981516D01*
X138503590Y-144982642D01*
X138521214Y-144984189D01*
X138535833Y-144986226D01*
X138548208Y-144988821D01*
X138559100Y-144992041D01*
X138569272Y-144995955D01*
X138579482Y-145000630D01*
X138590494Y-145006134D01*
X138591253Y-145006521D01*
X138630769Y-145030910D01*
X138664200Y-145060796D01*
X138691803Y-145096474D01*
X138713837Y-145138243D01*
X138720854Y-145155913D01*
X138731863Y-145186030D01*
X138732932Y-147376791D01*
X138733016Y-147539925D01*
X138733102Y-147694936D01*
X138733187Y-147842036D01*
X138733270Y-147981435D01*
X138733347Y-148113344D01*
X138733416Y-148237975D01*
X138733473Y-148355537D01*
X138733517Y-148466243D01*
X138733545Y-148570302D01*
X138733554Y-148667926D01*
X138733542Y-148759326D01*
X138733505Y-148844712D01*
X138733442Y-148924295D01*
X138733349Y-148998287D01*
X138733224Y-149066898D01*
X138733065Y-149130339D01*
X138732868Y-149188821D01*
X138732631Y-149242554D01*
X138732351Y-149291751D01*
X138732026Y-149336621D01*
X138731653Y-149377376D01*
X138731229Y-149414226D01*
X138730753Y-149447382D01*
X138730220Y-149477056D01*
X138729629Y-149503457D01*
X138728976Y-149526798D01*
X138728260Y-149547289D01*
X138727477Y-149565140D01*
X138726625Y-149580563D01*
X138725702Y-149593769D01*
X138724703Y-149604968D01*
X138723628Y-149614371D01*
X138722474Y-149622190D01*
X138721236Y-149628634D01*
X138719914Y-149633916D01*
X138718505Y-149638246D01*
X138717005Y-149641834D01*
X138715412Y-149644893D01*
X138713723Y-149647632D01*
X138711936Y-149650262D01*
X138710049Y-149652995D01*
X138708058Y-149656041D01*
X138705960Y-149659611D01*
X138704261Y-149662872D01*
X138680886Y-149701023D01*
X138651122Y-149734243D01*
X138615876Y-149761625D01*
X138592038Y-149775090D01*
X138579069Y-149781373D01*
X138567169Y-149786697D01*
X138555539Y-149791139D01*
X138543376Y-149794777D01*
X138529881Y-149797689D01*
X138514252Y-149799953D01*
X138495690Y-149801647D01*
X138473392Y-149802848D01*
X138446559Y-149803635D01*
X138414389Y-149804085D01*
X138376083Y-149804275D01*
X138330838Y-149804285D01*
X138292280Y-149804221D01*
X138250815Y-149804066D01*
X138211264Y-149803783D01*
X138174533Y-149803388D01*
X138141531Y-149802895D01*
X138113163Y-149802322D01*
X138090336Y-149801684D01*
X138073957Y-149800997D01*
X138064933Y-149800277D01*
X138064558Y-149800219D01*
X138022432Y-149789054D01*
X137983011Y-149770437D01*
X137947076Y-149745026D01*
X137915406Y-149713477D01*
X137888781Y-149676445D01*
X137868051Y-149634766D01*
X137856863Y-149606864D01*
X137855602Y-147404780D01*
X137855507Y-147231492D01*
X137855428Y-147066395D01*
X137855363Y-146909344D01*
X137855313Y-146760197D01*
X137855278Y-146618810D01*
X137855259Y-146485041D01*
X137855256Y-146358745D01*
X137855269Y-146239781D01*
X137855298Y-146128004D01*
X137855343Y-146023271D01*
X137855405Y-145925439D01*
X137855484Y-145834366D01*
X137855580Y-145749907D01*
X137855694Y-145671919D01*
X137855824Y-145600260D01*
X137855973Y-145534786D01*
X137856140Y-145475353D01*
X137856325Y-145421819D01*
X137856528Y-145374041D01*
X137856750Y-145331875D01*
X137856991Y-145295177D01*
X137857251Y-145263806D01*
X137857530Y-145237617D01*
X137857829Y-145216467D01*
X137858148Y-145200213D01*
X137858486Y-145188712D01*
X137858845Y-145181820D01*
X137859082Y-145179780D01*
X137863171Y-145165234D01*
X137869885Y-145146658D01*
X137877982Y-145127402D01*
X137880603Y-145121768D01*
X137900760Y-145087819D01*
X137926915Y-145056436D01*
X137957235Y-145029493D01*
X137989885Y-145008861D01*
X137992372Y-145007623D01*
X138004453Y-145001770D01*
X138015341Y-144996801D01*
X138025812Y-144992643D01*
X138036646Y-144989225D01*
X138048619Y-144986474D01*
X138062511Y-144984318D01*
X138079098Y-144982686D01*
X138099160Y-144981504D01*
X138123473Y-144980702D01*
X138152816Y-144980206D01*
X138187967Y-144979945D01*
X138229704Y-144979846D01*
X138278805Y-144979838D01*
X138292114Y-144979842D01*
G37*
%LPC*%
D18*
X117146447Y-54146447D02*
X112146447Y-54146447D01*
X112146447Y-54146447D02*
X112146447Y-49146447D01*
X112146447Y-49146447D02*
X117146447Y-49146447D01*
X117146447Y-49146447D02*
X117146447Y-54146447D01*
G36*
X117146447Y-54146447D02*
G01*
X112146447Y-54146447D01*
X112146447Y-49146447D01*
X117146447Y-49146447D01*
X117146447Y-54146447D01*
G37*
X117146447Y-54146447D02*
X112146447Y-54146447D01*
X112146447Y-49146447D01*
X117146447Y-49146447D01*
X117146447Y-54146447D01*
X55646447Y-117896447D02*
X50646447Y-117896447D01*
X50646447Y-117896447D02*
X50646447Y-112896447D01*
X50646447Y-112896447D02*
X55646447Y-112896447D01*
X55646447Y-112896447D02*
X55646447Y-117896447D01*
G36*
X55646447Y-117896447D02*
G01*
X50646447Y-117896447D01*
X50646447Y-112896447D01*
X55646447Y-112896447D01*
X55646447Y-117896447D01*
G37*
X55646447Y-117896447D02*
X50646447Y-117896447D01*
X50646447Y-112896447D01*
X55646447Y-112896447D01*
X55646447Y-117896447D01*
X55646447Y-62396447D02*
X50646447Y-62396447D01*
X50646447Y-62396447D02*
X50646447Y-57396447D01*
X50646447Y-57396447D02*
X55646447Y-57396447D01*
X55646447Y-57396447D02*
X55646447Y-62396447D01*
G36*
X55646447Y-62396447D02*
G01*
X50646447Y-62396447D01*
X50646447Y-57396447D01*
X55646447Y-57396447D01*
X55646447Y-62396447D01*
G37*
X55646447Y-62396447D02*
X50646447Y-62396447D01*
X50646447Y-57396447D01*
X55646447Y-57396447D01*
X55646447Y-62396447D01*
X117146447Y-72646447D02*
X112146447Y-72646447D01*
X112146447Y-72646447D02*
X112146447Y-67646447D01*
X112146447Y-67646447D02*
X117146447Y-67646447D01*
X117146447Y-67646447D02*
X117146447Y-72646447D01*
G36*
X117146447Y-72646447D02*
G01*
X112146447Y-72646447D01*
X112146447Y-67646447D01*
X117146447Y-67646447D01*
X117146447Y-72646447D01*
G37*
X117146447Y-72646447D02*
X112146447Y-72646447D01*
X112146447Y-67646447D01*
X117146447Y-67646447D01*
X117146447Y-72646447D01*
X117146447Y-91146447D02*
X112146447Y-91146447D01*
X112146447Y-91146447D02*
X112146447Y-86146447D01*
X112146447Y-86146447D02*
X117146447Y-86146447D01*
X117146447Y-86146447D02*
X117146447Y-91146447D01*
G36*
X117146447Y-91146447D02*
G01*
X112146447Y-91146447D01*
X112146447Y-86146447D01*
X117146447Y-86146447D01*
X117146447Y-91146447D01*
G37*
X117146447Y-91146447D02*
X112146447Y-91146447D01*
X112146447Y-86146447D01*
X117146447Y-86146447D01*
X117146447Y-91146447D01*
X117146447Y-146646447D02*
X112146447Y-146646447D01*
X112146447Y-146646447D02*
X112146447Y-141646447D01*
X112146447Y-141646447D02*
X117146447Y-141646447D01*
X117146447Y-141646447D02*
X117146447Y-146646447D01*
G36*
X117146447Y-146646447D02*
G01*
X112146447Y-146646447D01*
X112146447Y-141646447D01*
X117146447Y-141646447D01*
X117146447Y-146646447D01*
G37*
X117146447Y-146646447D02*
X112146447Y-146646447D01*
X112146447Y-141646447D01*
X117146447Y-141646447D01*
X117146447Y-146646447D01*
X55646447Y-80896447D02*
X50646447Y-80896447D01*
X50646447Y-80896447D02*
X50646447Y-75896447D01*
X50646447Y-75896447D02*
X55646447Y-75896447D01*
X55646447Y-75896447D02*
X55646447Y-80896447D01*
G36*
X55646447Y-80896447D02*
G01*
X50646447Y-80896447D01*
X50646447Y-75896447D01*
X55646447Y-75896447D01*
X55646447Y-80896447D01*
G37*
X55646447Y-80896447D02*
X50646447Y-80896447D01*
X50646447Y-75896447D01*
X55646447Y-75896447D01*
X55646447Y-80896447D01*
X117146447Y-109646447D02*
X112146447Y-109646447D01*
X112146447Y-109646447D02*
X112146447Y-104646447D01*
X112146447Y-104646447D02*
X117146447Y-104646447D01*
X117146447Y-104646447D02*
X117146447Y-109646447D01*
G36*
X117146447Y-109646447D02*
G01*
X112146447Y-109646447D01*
X112146447Y-104646447D01*
X117146447Y-104646447D01*
X117146447Y-109646447D01*
G37*
X117146447Y-109646447D02*
X112146447Y-109646447D01*
X112146447Y-104646447D01*
X117146447Y-104646447D01*
X117146447Y-109646447D01*
X55646447Y-99396447D02*
X50646447Y-99396447D01*
X50646447Y-99396447D02*
X50646447Y-94396447D01*
X50646447Y-94396447D02*
X55646447Y-94396447D01*
X55646447Y-94396447D02*
X55646447Y-99396447D01*
G36*
X55646447Y-99396447D02*
G01*
X50646447Y-99396447D01*
X50646447Y-94396447D01*
X55646447Y-94396447D01*
X55646447Y-99396447D01*
G37*
X55646447Y-99396447D02*
X50646447Y-99396447D01*
X50646447Y-94396447D01*
X55646447Y-94396447D01*
X55646447Y-99396447D01*
X117146447Y-128146447D02*
X112146447Y-128146447D01*
X112146447Y-128146447D02*
X112146447Y-123146447D01*
X112146447Y-123146447D02*
X117146447Y-123146447D01*
X117146447Y-123146447D02*
X117146447Y-128146447D01*
G36*
X117146447Y-128146447D02*
G01*
X112146447Y-128146447D01*
X112146447Y-123146447D01*
X117146447Y-123146447D01*
X117146447Y-128146447D01*
G37*
X117146447Y-128146447D02*
X112146447Y-128146447D01*
X112146447Y-123146447D01*
X117146447Y-123146447D01*
X117146447Y-128146447D01*
X55646447Y-154896447D02*
X50646447Y-154896447D01*
X50646447Y-154896447D02*
X50646447Y-149896447D01*
X50646447Y-149896447D02*
X55646447Y-149896447D01*
X55646447Y-149896447D02*
X55646447Y-154896447D01*
G36*
X55646447Y-154896447D02*
G01*
X50646447Y-154896447D01*
X50646447Y-149896447D01*
X55646447Y-149896447D01*
X55646447Y-154896447D01*
G37*
X55646447Y-154896447D02*
X50646447Y-154896447D01*
X50646447Y-149896447D01*
X55646447Y-149896447D01*
X55646447Y-154896447D01*
X55646447Y-136396447D02*
X50646447Y-136396447D01*
X50646447Y-136396447D02*
X50646447Y-131396447D01*
X50646447Y-131396447D02*
X55646447Y-131396447D01*
X55646447Y-131396447D02*
X55646447Y-136396447D01*
G36*
X55646447Y-136396447D02*
G01*
X50646447Y-136396447D01*
X50646447Y-131396447D01*
X55646447Y-131396447D01*
X55646447Y-136396447D01*
G37*
X55646447Y-136396447D02*
X50646447Y-136396447D01*
X50646447Y-131396447D01*
X55646447Y-131396447D01*
X55646447Y-136396447D01*
D19*
X146646447Y-159646447D03*
X41646447Y-159646447D03*
X146646447Y-37646447D03*
X41646447Y-37646447D03*
M02*
