G04 #@! TF.GenerationSoftware,KiCad,Pcbnew,(6.0.0)*
G04 #@! TF.CreationDate,2022-07-07T12:02:20+01:00*
G04 #@! TF.ProjectId,PSU,5053552e-6b69-4636-9164-5f7063625858,rev?*
G04 #@! TF.SameCoordinates,Original*
G04 #@! TF.FileFunction,Copper,L2,Bot*
G04 #@! TF.FilePolarity,Positive*
%FSLAX46Y46*%
G04 Gerber Fmt 4.6, Leading zero omitted, Abs format (unit mm)*
G04 Created by KiCad (PCBNEW (6.0.0)) date 2022-07-07 12:02:20*
%MOMM*%
%LPD*%
G01*
G04 APERTURE LIST*
G04 #@! TA.AperFunction,Profile*
%ADD10C,0.150000*%
G04 #@! TD*
G04 #@! TA.AperFunction,ComponentPad*
%ADD11R,3.000000X3.000000*%
G04 #@! TD*
G04 #@! TA.AperFunction,ComponentPad*
%ADD12C,3.000000*%
G04 #@! TD*
G04 #@! TA.AperFunction,ComponentPad*
%ADD13R,1.600000X1.600000*%
G04 #@! TD*
G04 #@! TA.AperFunction,ComponentPad*
%ADD14C,1.600000*%
G04 #@! TD*
G04 #@! TA.AperFunction,ComponentPad*
%ADD15R,2.400000X2.400000*%
G04 #@! TD*
G04 #@! TA.AperFunction,ComponentPad*
%ADD16C,2.400000*%
G04 #@! TD*
G04 #@! TA.AperFunction,ComponentPad*
%ADD17R,1.800000X1.800000*%
G04 #@! TD*
G04 #@! TA.AperFunction,ComponentPad*
%ADD18C,1.800000*%
G04 #@! TD*
G04 #@! TA.AperFunction,ComponentPad*
%ADD19R,2.000000X1.905000*%
G04 #@! TD*
G04 #@! TA.AperFunction,ComponentPad*
%ADD20O,2.000000X1.905000*%
G04 #@! TD*
G04 #@! TA.AperFunction,ComponentPad*
%ADD21O,1.600000X1.600000*%
G04 #@! TD*
G04 #@! TA.AperFunction,ComponentPad*
%ADD22R,2.200000X2.200000*%
G04 #@! TD*
G04 #@! TA.AperFunction,ComponentPad*
%ADD23O,2.200000X2.200000*%
G04 #@! TD*
G04 #@! TA.AperFunction,ComponentPad*
%ADD24C,2.000000*%
G04 #@! TD*
G04 #@! TA.AperFunction,Conductor*
%ADD25C,1.000000*%
G04 #@! TD*
G04 APERTURE END LIST*
D10*
X43000000Y-53000000D02*
X153490000Y-53000000D01*
X153490000Y-96000000D02*
X43000000Y-96000000D01*
X153490000Y-96000000D02*
X153490000Y-53000000D01*
X43000000Y-96000000D02*
X43000000Y-53000000D01*
D11*
X147000000Y-69420000D03*
D12*
X147000000Y-74500000D03*
X147000000Y-79580000D03*
D13*
X71875000Y-73275000D03*
D14*
X71875000Y-75275000D03*
D15*
X100450000Y-58035000D03*
D16*
X100450000Y-65535000D03*
D13*
X90925000Y-73275000D03*
D14*
X90925000Y-75275000D03*
D15*
X81400000Y-83435000D03*
D16*
X81400000Y-90935000D03*
D15*
X100450000Y-83435000D03*
D16*
X100450000Y-90935000D03*
D13*
X139820000Y-57400000D03*
D14*
X139820000Y-55400000D03*
D13*
X133470000Y-93595000D03*
D14*
X133470000Y-91595000D03*
D17*
X139820000Y-93595000D03*
D18*
X139820000Y-91055000D03*
D17*
X133470000Y-73910000D03*
D18*
X133470000Y-71370000D03*
D19*
X114420000Y-84705000D03*
D20*
X114420000Y-87245000D03*
X114420000Y-89785000D03*
D15*
X81400000Y-58035000D03*
D16*
X81400000Y-65535000D03*
D15*
X62350000Y-58035000D03*
D16*
X62350000Y-65535000D03*
D15*
X62350000Y-83435000D03*
D16*
X62350000Y-90935000D03*
D14*
X133470000Y-54860000D03*
D21*
X133470000Y-67560000D03*
D14*
X139820000Y-87245000D03*
D21*
X139820000Y-74545000D03*
D22*
X56000000Y-76450000D03*
D23*
X66160000Y-76450000D03*
D22*
X66160000Y-72640000D03*
D23*
X56000000Y-72640000D03*
D22*
X110610000Y-56765000D03*
D23*
X110610000Y-66925000D03*
D22*
X110610000Y-92325000D03*
D23*
X110610000Y-82165000D03*
D22*
X133470000Y-77720000D03*
D23*
X133470000Y-87880000D03*
D22*
X139820000Y-61210000D03*
D23*
X139820000Y-71370000D03*
D19*
X114420000Y-59305000D03*
D20*
X114420000Y-61845000D03*
X114420000Y-64385000D03*
D24*
X147000000Y-63500000D03*
X147000000Y-90000000D03*
X147000000Y-85000000D03*
D11*
X48380000Y-77085000D03*
D12*
X48380000Y-72005000D03*
D25*
X144710000Y-61210000D02*
X139820000Y-61210000D01*
X147000000Y-63500000D02*
X144710000Y-61210000D01*
X147000000Y-63500000D02*
X147000000Y-69420000D01*
X147000000Y-85000000D02*
X147000000Y-79580000D01*
X136100000Y-73910000D02*
X141770000Y-79580000D01*
X133470000Y-73910000D02*
X136100000Y-73910000D01*
X141770000Y-79580000D02*
X133470000Y-87880000D01*
X147000000Y-79580000D02*
X141770000Y-79580000D01*
X144945000Y-69420000D02*
X147000000Y-69420000D01*
X144945000Y-69420000D02*
X139820000Y-74545000D01*
X62350000Y-65535000D02*
X62350000Y-83435000D01*
X81400000Y-83435000D02*
X81400000Y-65535000D01*
X100450000Y-65535000D02*
X100450000Y-83435000D01*
X48380000Y-77085000D02*
X54730000Y-83435000D01*
X49015000Y-76450000D02*
X48380000Y-77085000D01*
X54730000Y-83435000D02*
X62350000Y-83435000D01*
X66160000Y-61845000D02*
X62350000Y-58035000D01*
X100450000Y-58035000D02*
X109340000Y-58035000D01*
X71875000Y-73275000D02*
X71875000Y-58035000D01*
X109340000Y-58035000D02*
X110610000Y-56765000D01*
X62350000Y-58035000D02*
X71875000Y-58035000D01*
X71875000Y-58035000D02*
X81400000Y-58035000D01*
X111880000Y-56765000D02*
X114420000Y-59305000D01*
X81400000Y-58035000D02*
X100450000Y-58035000D01*
X110610000Y-56765000D02*
X111880000Y-56765000D01*
X66160000Y-72640000D02*
X66160000Y-61845000D01*
X109220000Y-82165000D02*
X110610000Y-82165000D01*
X90805000Y-90935000D02*
X100450000Y-90935000D01*
X114420000Y-87245000D02*
X112420000Y-87245000D01*
X66160000Y-87125000D02*
X62350000Y-90935000D01*
X62350000Y-90935000D02*
X81400000Y-90935000D01*
X90925000Y-90815000D02*
X90805000Y-90935000D01*
X81400000Y-90935000D02*
X90805000Y-90935000D01*
X90925000Y-75275000D02*
X90925000Y-90815000D01*
X100450000Y-90935000D02*
X109220000Y-82165000D01*
X110610000Y-85435000D02*
X110610000Y-82165000D01*
X66160000Y-76450000D02*
X66160000Y-87125000D01*
X112420000Y-87245000D02*
X110610000Y-85435000D01*
X114420000Y-64385000D02*
X113150000Y-64385000D01*
X139820000Y-57400000D02*
X139820000Y-61210000D01*
X114420000Y-64385000D02*
X136645000Y-64385000D01*
X113150000Y-64385000D02*
X110610000Y-66925000D01*
X136645000Y-64385000D02*
X139820000Y-61210000D01*
X131660000Y-89785000D02*
X133470000Y-91595000D01*
X111880000Y-92325000D02*
X114420000Y-89785000D01*
X114420000Y-89785000D02*
X131660000Y-89785000D01*
X110610000Y-92325000D02*
X111880000Y-92325000D01*
X133470000Y-91595000D02*
X133470000Y-87880000D01*
X56000000Y-72640000D02*
X56000000Y-76450000D01*
X56000000Y-72640000D02*
X49015000Y-72640000D01*
X49015000Y-72640000D02*
X48380000Y-72005000D01*
X139820000Y-91055000D02*
X139820000Y-87245000D01*
X133470000Y-71370000D02*
X133470000Y-67560000D01*
M02*
