%FSLAX45Y45*%
G04 Gerber Fmt 4.5, Leading zero omitted, Abs format (unit mm)*
G04 Created by KiCad (PCBNEW (6.0.0)) date 2022-01-31 13:08:05*
%MOMM*%
%LPD*%
G01*
G04 APERTURE LIST*
%TA.AperFunction,Profile*%
%ADD10C,0.050000*%
%TD*%
%ADD11C,0.200000*%
G04 APERTURE END LIST*
D10*
X15750000Y-2500000D02*
X15750000Y-15800000D01*
X11750000Y-15800000D02*
X11750000Y-15100000D01*
X11750000Y-2500000D02*
X11750000Y-15100000D01*
X15750000Y-15800000D02*
X11750000Y-15800000D01*
X11750000Y-2500000D02*
X15750000Y-2500000D01*
D11*
X12005119Y-16112976D02*
X12005119Y-15912976D01*
X12052738Y-15912976D01*
X12081309Y-15922500D01*
X12100357Y-15941548D01*
X12109881Y-15960595D01*
X12119405Y-15998690D01*
X12119405Y-16027262D01*
X12109881Y-16065357D01*
X12100357Y-16084405D01*
X12081309Y-16103452D01*
X12052738Y-16112976D01*
X12005119Y-16112976D01*
X12205119Y-16112976D02*
X12205119Y-15979643D01*
X12205119Y-16017738D02*
X12214643Y-15998690D01*
X12224166Y-15989167D01*
X12243214Y-15979643D01*
X12262262Y-15979643D01*
X12328928Y-16112976D02*
X12328928Y-15979643D01*
X12328928Y-15912976D02*
X12319405Y-15922500D01*
X12328928Y-15932024D01*
X12338452Y-15922500D01*
X12328928Y-15912976D01*
X12328928Y-15932024D01*
X12452738Y-16112976D02*
X12433690Y-16103452D01*
X12424166Y-16084405D01*
X12424166Y-15912976D01*
X12557500Y-16112976D02*
X12538452Y-16103452D01*
X12528928Y-16084405D01*
X12528928Y-15912976D01*
X12786071Y-16112976D02*
X12786071Y-15912976D01*
X12852738Y-16055833D01*
X12919405Y-15912976D01*
X12919405Y-16112976D01*
X13100357Y-16112976D02*
X13100357Y-16008214D01*
X13090833Y-15989167D01*
X13071786Y-15979643D01*
X13033690Y-15979643D01*
X13014643Y-15989167D01*
X13100357Y-16103452D02*
X13081309Y-16112976D01*
X13033690Y-16112976D01*
X13014643Y-16103452D01*
X13005119Y-16084405D01*
X13005119Y-16065357D01*
X13014643Y-16046309D01*
X13033690Y-16036786D01*
X13081309Y-16036786D01*
X13100357Y-16027262D01*
X13195595Y-15979643D02*
X13195595Y-16179643D01*
X13195595Y-15989167D02*
X13214643Y-15979643D01*
X13252738Y-15979643D01*
X13271786Y-15989167D01*
X13281309Y-15998690D01*
X13290833Y-16017738D01*
X13290833Y-16074881D01*
X13281309Y-16093928D01*
X13271786Y-16103452D01*
X13252738Y-16112976D01*
X13214643Y-16112976D01*
X13195595Y-16103452D01*
X13376547Y-16093928D02*
X13386071Y-16103452D01*
X13376547Y-16112976D01*
X13367024Y-16103452D01*
X13376547Y-16093928D01*
X13376547Y-16112976D01*
X13376547Y-15989167D02*
X13386071Y-15998690D01*
X13376547Y-16008214D01*
X13367024Y-15998690D01*
X13376547Y-15989167D01*
X13376547Y-16008214D01*
M02*
