%FSLAX45Y45*%
G04 Gerber Fmt 4.5, Leading zero omitted, Abs format (unit mm)*
G04 Created by KiCad (PCBNEW (6.0.1)) date 2022-02-07 13:45:05*
%MOMM*%
%LPD*%
G01*
G04 APERTURE LIST*
%TA.AperFunction,Profile*%
%ADD10C,0.050000*%
%TD*%
%ADD11C,0.200000*%
%ADD12C,0.300000*%
%ADD13C,0.600000*%
%ADD14C,0.650000*%
G04 APERTURE END LIST*
D10*
X23700000Y-2650000D02*
X23700000Y-15650000D01*
X17700000Y-15650000D02*
X17700000Y-15100000D01*
X17700000Y-2650000D02*
X17700000Y-15100000D01*
X23700000Y-15650000D02*
X17700000Y-15650000D01*
X17700000Y-2650000D02*
X23700000Y-2650000D01*
D11*
D12*
X18450000Y-2800000D02*
X18750000Y-3100000D01*
X18750000Y-2800000D02*
X18450000Y-3100000D01*
D11*
X18475000Y-3090000D02*
X18725000Y-3090000D01*
X18475000Y-2810000D02*
X18725000Y-2810000D01*
X18725000Y-3090000D02*
G75*
G03*
X18725000Y-2810000I0J140000D01*
G01*
X18475000Y-2810000D02*
G75*
G03*
X18475000Y-3090000I0J-140000D01*
G01*
D12*
X18450000Y-15200000D02*
X18750000Y-15500000D01*
X18750000Y-15200000D02*
X18450000Y-15500000D01*
D11*
X18475000Y-15490000D02*
X18725000Y-15490000D01*
X18475000Y-15210000D02*
X18725000Y-15210000D01*
X18725000Y-15490000D02*
G75*
G03*
X18725000Y-15210000I0J140000D01*
G01*
X18475000Y-15210000D02*
G75*
G03*
X18475000Y-15490000I0J-140000D01*
G01*
D12*
X22650000Y-2800000D02*
X22950000Y-3100000D01*
X22950000Y-2800000D02*
X22650000Y-3100000D01*
D11*
X22675000Y-3090000D02*
X22925000Y-3090000D01*
X22675000Y-2810000D02*
X22925000Y-2810000D01*
X22925000Y-3090000D02*
G75*
G03*
X22925000Y-2810000I0J140000D01*
G01*
X22675000Y-2810000D02*
G75*
G03*
X22675000Y-3090000I0J-140000D01*
G01*
D12*
X22650000Y-15200000D02*
X22950000Y-15500000D01*
X22950000Y-15200000D02*
X22650000Y-15500000D01*
D11*
X22675000Y-15490000D02*
X22925000Y-15490000D01*
X22675000Y-15210000D02*
X22925000Y-15210000D01*
X22925000Y-15490000D02*
G75*
G03*
X22925000Y-15210000I0J140000D01*
G01*
X22675000Y-15210000D02*
G75*
G03*
X22675000Y-15490000I0J-140000D01*
G01*
D13*
X20000000Y-8050000D02*
G75*
G03*
X20000000Y-8050000I-300000J0D01*
G01*
X20000000Y-13950000D02*
G75*
G03*
X20000000Y-13950000I-300000J0D01*
G01*
X21000000Y-8050000D02*
G75*
G03*
X21000000Y-8050000I-300000J0D01*
G01*
X21000000Y-13950000D02*
G75*
G03*
X21000000Y-13950000I-300000J0D01*
G01*
X22000000Y-8050000D02*
G75*
G03*
X22000000Y-8050000I-300000J0D01*
G01*
X22000000Y-13950000D02*
G75*
G03*
X22000000Y-13950000I-300000J0D01*
G01*
D14*
X18900000Y-9975000D02*
X18900000Y-10625000D01*
X18575000Y-10300000D02*
X19225000Y-10300000D01*
X19200000Y-4025000D02*
X19200000Y-4675000D01*
X18875000Y-4350000D02*
X19525000Y-4350000D01*
X19400000Y-6025000D02*
X19400000Y-6675000D01*
X19075000Y-6350000D02*
X19725000Y-6350000D01*
X19400000Y-11925000D02*
X19400000Y-12575000D01*
X19075000Y-12250000D02*
X19725000Y-12250000D01*
X20050000Y-8825000D02*
X20050000Y-9475000D01*
X19725000Y-9150000D02*
X20375000Y-9150000D01*
X22000000Y-6025000D02*
X22000000Y-6675000D01*
X21675000Y-6350000D02*
X22325000Y-6350000D01*
X22000000Y-11925000D02*
X22000000Y-12575000D01*
X21675000Y-12250000D02*
X22325000Y-12250000D01*
X22200000Y-9925000D02*
X22200000Y-10575000D01*
X21875000Y-10250000D02*
X22525000Y-10250000D01*
X22500000Y-4075000D02*
X22500000Y-4725000D01*
X22175000Y-4400000D02*
X22825000Y-4400000D01*
D11*
X17955119Y-15962976D02*
X17955119Y-15762976D01*
X18002738Y-15762976D01*
X18031309Y-15772500D01*
X18050357Y-15791548D01*
X18059881Y-15810595D01*
X18069405Y-15848690D01*
X18069405Y-15877262D01*
X18059881Y-15915357D01*
X18050357Y-15934405D01*
X18031309Y-15953452D01*
X18002738Y-15962976D01*
X17955119Y-15962976D01*
X18155119Y-15962976D02*
X18155119Y-15829643D01*
X18155119Y-15867738D02*
X18164643Y-15848690D01*
X18174167Y-15839167D01*
X18193214Y-15829643D01*
X18212262Y-15829643D01*
X18278928Y-15962976D02*
X18278928Y-15829643D01*
X18278928Y-15762976D02*
X18269405Y-15772500D01*
X18278928Y-15782024D01*
X18288452Y-15772500D01*
X18278928Y-15762976D01*
X18278928Y-15782024D01*
X18402738Y-15962976D02*
X18383690Y-15953452D01*
X18374167Y-15934405D01*
X18374167Y-15762976D01*
X18507500Y-15962976D02*
X18488452Y-15953452D01*
X18478928Y-15934405D01*
X18478928Y-15762976D01*
X18736071Y-15962976D02*
X18736071Y-15762976D01*
X18802738Y-15905833D01*
X18869405Y-15762976D01*
X18869405Y-15962976D01*
X19050357Y-15962976D02*
X19050357Y-15858214D01*
X19040833Y-15839167D01*
X19021786Y-15829643D01*
X18983690Y-15829643D01*
X18964643Y-15839167D01*
X19050357Y-15953452D02*
X19031309Y-15962976D01*
X18983690Y-15962976D01*
X18964643Y-15953452D01*
X18955119Y-15934405D01*
X18955119Y-15915357D01*
X18964643Y-15896309D01*
X18983690Y-15886786D01*
X19031309Y-15886786D01*
X19050357Y-15877262D01*
X19145595Y-15829643D02*
X19145595Y-16029643D01*
X19145595Y-15839167D02*
X19164643Y-15829643D01*
X19202738Y-15829643D01*
X19221786Y-15839167D01*
X19231309Y-15848690D01*
X19240833Y-15867738D01*
X19240833Y-15924881D01*
X19231309Y-15943928D01*
X19221786Y-15953452D01*
X19202738Y-15962976D01*
X19164643Y-15962976D01*
X19145595Y-15953452D01*
X19326548Y-15943928D02*
X19336071Y-15953452D01*
X19326548Y-15962976D01*
X19317024Y-15953452D01*
X19326548Y-15943928D01*
X19326548Y-15962976D01*
X19326548Y-15839167D02*
X19336071Y-15848690D01*
X19326548Y-15858214D01*
X19317024Y-15848690D01*
X19326548Y-15839167D01*
X19326548Y-15858214D01*
X17497500Y-16192500D02*
X17697500Y-16392500D01*
X17697500Y-16192500D02*
X17497500Y-16392500D01*
X17936071Y-16182976D02*
X18059881Y-16182976D01*
X17993214Y-16259167D01*
X18021786Y-16259167D01*
X18040833Y-16268690D01*
X18050357Y-16278214D01*
X18059881Y-16297262D01*
X18059881Y-16344881D01*
X18050357Y-16363928D01*
X18040833Y-16373452D01*
X18021786Y-16382976D01*
X17964643Y-16382976D01*
X17945595Y-16373452D01*
X17936071Y-16363928D01*
X18145595Y-16363928D02*
X18155119Y-16373452D01*
X18145595Y-16382976D01*
X18136071Y-16373452D01*
X18145595Y-16363928D01*
X18145595Y-16382976D01*
X18278928Y-16182976D02*
X18297976Y-16182976D01*
X18317024Y-16192500D01*
X18326548Y-16202024D01*
X18336071Y-16221071D01*
X18345595Y-16259167D01*
X18345595Y-16306786D01*
X18336071Y-16344881D01*
X18326548Y-16363928D01*
X18317024Y-16373452D01*
X18297976Y-16382976D01*
X18278928Y-16382976D01*
X18259881Y-16373452D01*
X18250357Y-16363928D01*
X18240833Y-16344881D01*
X18231309Y-16306786D01*
X18231309Y-16259167D01*
X18240833Y-16221071D01*
X18250357Y-16202024D01*
X18259881Y-16192500D01*
X18278928Y-16182976D01*
X18469405Y-16182976D02*
X18488452Y-16182976D01*
X18507500Y-16192500D01*
X18517024Y-16202024D01*
X18526548Y-16221071D01*
X18536071Y-16259167D01*
X18536071Y-16306786D01*
X18526548Y-16344881D01*
X18517024Y-16363928D01*
X18507500Y-16373452D01*
X18488452Y-16382976D01*
X18469405Y-16382976D01*
X18450357Y-16373452D01*
X18440833Y-16363928D01*
X18431309Y-16344881D01*
X18421786Y-16306786D01*
X18421786Y-16259167D01*
X18431309Y-16221071D01*
X18440833Y-16202024D01*
X18450357Y-16192500D01*
X18469405Y-16182976D01*
X18659881Y-16182976D02*
X18678928Y-16182976D01*
X18697976Y-16192500D01*
X18707500Y-16202024D01*
X18717024Y-16221071D01*
X18726548Y-16259167D01*
X18726548Y-16306786D01*
X18717024Y-16344881D01*
X18707500Y-16363928D01*
X18697976Y-16373452D01*
X18678928Y-16382976D01*
X18659881Y-16382976D01*
X18640833Y-16373452D01*
X18631309Y-16363928D01*
X18621786Y-16344881D01*
X18612262Y-16306786D01*
X18612262Y-16259167D01*
X18621786Y-16221071D01*
X18631309Y-16202024D01*
X18640833Y-16192500D01*
X18659881Y-16182976D01*
X18812262Y-16382976D02*
X18812262Y-16249643D01*
X18812262Y-16268690D02*
X18821786Y-16259167D01*
X18840833Y-16249643D01*
X18869405Y-16249643D01*
X18888452Y-16259167D01*
X18897976Y-16278214D01*
X18897976Y-16382976D01*
X18897976Y-16278214D02*
X18907500Y-16259167D01*
X18926548Y-16249643D01*
X18955119Y-16249643D01*
X18974167Y-16259167D01*
X18983690Y-16278214D01*
X18983690Y-16382976D01*
X19078928Y-16382976D02*
X19078928Y-16249643D01*
X19078928Y-16268690D02*
X19088452Y-16259167D01*
X19107500Y-16249643D01*
X19136071Y-16249643D01*
X19155119Y-16259167D01*
X19164643Y-16278214D01*
X19164643Y-16382976D01*
X19164643Y-16278214D02*
X19174167Y-16259167D01*
X19193214Y-16249643D01*
X19221786Y-16249643D01*
X19240833Y-16259167D01*
X19250357Y-16278214D01*
X19250357Y-16382976D01*
X19640833Y-16173452D02*
X19469405Y-16430595D01*
X19897976Y-16182976D02*
X19917024Y-16182976D01*
X19936071Y-16192500D01*
X19945595Y-16202024D01*
X19955119Y-16221071D01*
X19964643Y-16259167D01*
X19964643Y-16306786D01*
X19955119Y-16344881D01*
X19945595Y-16363928D01*
X19936071Y-16373452D01*
X19917024Y-16382976D01*
X19897976Y-16382976D01*
X19878928Y-16373452D01*
X19869405Y-16363928D01*
X19859881Y-16344881D01*
X19850357Y-16306786D01*
X19850357Y-16259167D01*
X19859881Y-16221071D01*
X19869405Y-16202024D01*
X19878928Y-16192500D01*
X19897976Y-16182976D01*
X20050357Y-16363928D02*
X20059881Y-16373452D01*
X20050357Y-16382976D01*
X20040833Y-16373452D01*
X20050357Y-16363928D01*
X20050357Y-16382976D01*
X20250357Y-16382976D02*
X20136071Y-16382976D01*
X20193214Y-16382976D02*
X20193214Y-16182976D01*
X20174167Y-16211548D01*
X20155119Y-16230595D01*
X20136071Y-16240119D01*
X20440833Y-16382976D02*
X20326548Y-16382976D01*
X20383690Y-16382976D02*
X20383690Y-16182976D01*
X20364643Y-16211548D01*
X20345595Y-16230595D01*
X20326548Y-16240119D01*
X20555119Y-16268690D02*
X20536071Y-16259167D01*
X20526548Y-16249643D01*
X20517024Y-16230595D01*
X20517024Y-16221071D01*
X20526548Y-16202024D01*
X20536071Y-16192500D01*
X20555119Y-16182976D01*
X20593214Y-16182976D01*
X20612262Y-16192500D01*
X20621786Y-16202024D01*
X20631309Y-16221071D01*
X20631309Y-16230595D01*
X20621786Y-16249643D01*
X20612262Y-16259167D01*
X20593214Y-16268690D01*
X20555119Y-16268690D01*
X20536071Y-16278214D01*
X20526548Y-16287738D01*
X20517024Y-16306786D01*
X20517024Y-16344881D01*
X20526548Y-16363928D01*
X20536071Y-16373452D01*
X20555119Y-16382976D01*
X20593214Y-16382976D01*
X20612262Y-16373452D01*
X20621786Y-16363928D01*
X20631309Y-16344881D01*
X20631309Y-16306786D01*
X20621786Y-16287738D01*
X20612262Y-16278214D01*
X20593214Y-16268690D01*
X20821786Y-16382976D02*
X20707500Y-16382976D01*
X20764643Y-16382976D02*
X20764643Y-16182976D01*
X20745595Y-16211548D01*
X20726548Y-16230595D01*
X20707500Y-16240119D01*
X20897976Y-16182976D02*
X20897976Y-16221071D01*
X20974167Y-16182976D02*
X20974167Y-16221071D01*
X21269405Y-16459167D02*
X21259881Y-16449643D01*
X21240833Y-16421071D01*
X21231309Y-16402024D01*
X21221786Y-16373452D01*
X21212262Y-16325833D01*
X21212262Y-16287738D01*
X21221786Y-16240119D01*
X21231309Y-16211548D01*
X21240833Y-16192500D01*
X21259881Y-16163928D01*
X21269405Y-16154405D01*
X21383690Y-16182976D02*
X21402738Y-16182976D01*
X21421786Y-16192500D01*
X21431309Y-16202024D01*
X21440833Y-16221071D01*
X21450357Y-16259167D01*
X21450357Y-16306786D01*
X21440833Y-16344881D01*
X21431309Y-16363928D01*
X21421786Y-16373452D01*
X21402738Y-16382976D01*
X21383690Y-16382976D01*
X21364643Y-16373452D01*
X21355119Y-16363928D01*
X21345595Y-16344881D01*
X21336071Y-16306786D01*
X21336071Y-16259167D01*
X21345595Y-16221071D01*
X21355119Y-16202024D01*
X21364643Y-16192500D01*
X21383690Y-16182976D01*
X21688452Y-16382976D02*
X21688452Y-16182976D01*
X21774167Y-16382976D02*
X21774167Y-16278214D01*
X21764643Y-16259167D01*
X21745595Y-16249643D01*
X21717024Y-16249643D01*
X21697976Y-16259167D01*
X21688452Y-16268690D01*
X21897976Y-16382976D02*
X21878928Y-16373452D01*
X21869405Y-16363928D01*
X21859881Y-16344881D01*
X21859881Y-16287738D01*
X21869405Y-16268690D01*
X21878928Y-16259167D01*
X21897976Y-16249643D01*
X21926548Y-16249643D01*
X21945595Y-16259167D01*
X21955119Y-16268690D01*
X21964643Y-16287738D01*
X21964643Y-16344881D01*
X21955119Y-16363928D01*
X21945595Y-16373452D01*
X21926548Y-16382976D01*
X21897976Y-16382976D01*
X22078928Y-16382976D02*
X22059881Y-16373452D01*
X22050357Y-16354405D01*
X22050357Y-16182976D01*
X22231309Y-16373452D02*
X22212262Y-16382976D01*
X22174167Y-16382976D01*
X22155119Y-16373452D01*
X22145595Y-16354405D01*
X22145595Y-16278214D01*
X22155119Y-16259167D01*
X22174167Y-16249643D01*
X22212262Y-16249643D01*
X22231309Y-16259167D01*
X22240833Y-16278214D01*
X22240833Y-16297262D01*
X22145595Y-16316309D01*
X22317024Y-16373452D02*
X22336071Y-16382976D01*
X22374166Y-16382976D01*
X22393214Y-16373452D01*
X22402738Y-16354405D01*
X22402738Y-16344881D01*
X22393214Y-16325833D01*
X22374166Y-16316309D01*
X22345595Y-16316309D01*
X22326548Y-16306786D01*
X22317024Y-16287738D01*
X22317024Y-16278214D01*
X22326548Y-16259167D01*
X22345595Y-16249643D01*
X22374166Y-16249643D01*
X22393214Y-16259167D01*
X22640833Y-16306786D02*
X22793214Y-16306786D01*
X22717024Y-16382976D02*
X22717024Y-16230595D01*
X23126547Y-16249643D02*
X23126547Y-16382976D01*
X23078928Y-16173452D02*
X23031309Y-16316309D01*
X23155119Y-16316309D01*
X23374166Y-16373452D02*
X23393214Y-16382976D01*
X23431309Y-16382976D01*
X23450357Y-16373452D01*
X23459881Y-16354405D01*
X23459881Y-16344881D01*
X23450357Y-16325833D01*
X23431309Y-16316309D01*
X23402738Y-16316309D01*
X23383690Y-16306786D01*
X23374166Y-16287738D01*
X23374166Y-16278214D01*
X23383690Y-16259167D01*
X23402738Y-16249643D01*
X23431309Y-16249643D01*
X23450357Y-16259167D01*
X23574166Y-16382976D02*
X23555119Y-16373452D01*
X23545595Y-16354405D01*
X23545595Y-16182976D01*
X23678928Y-16382976D02*
X23659881Y-16373452D01*
X23650357Y-16363928D01*
X23640833Y-16344881D01*
X23640833Y-16287738D01*
X23650357Y-16268690D01*
X23659881Y-16259167D01*
X23678928Y-16249643D01*
X23707500Y-16249643D01*
X23726547Y-16259167D01*
X23736071Y-16268690D01*
X23745595Y-16287738D01*
X23745595Y-16344881D01*
X23736071Y-16363928D01*
X23726547Y-16373452D01*
X23707500Y-16382976D01*
X23678928Y-16382976D01*
X23802738Y-16249643D02*
X23878928Y-16249643D01*
X23831309Y-16182976D02*
X23831309Y-16354405D01*
X23840833Y-16373452D01*
X23859881Y-16382976D01*
X23878928Y-16382976D01*
X23936071Y-16373452D02*
X23955119Y-16382976D01*
X23993214Y-16382976D01*
X24012262Y-16373452D01*
X24021786Y-16354405D01*
X24021786Y-16344881D01*
X24012262Y-16325833D01*
X23993214Y-16316309D01*
X23964643Y-16316309D01*
X23945595Y-16306786D01*
X23936071Y-16287738D01*
X23936071Y-16278214D01*
X23945595Y-16259167D01*
X23964643Y-16249643D01*
X23993214Y-16249643D01*
X24012262Y-16259167D01*
X24088452Y-16459167D02*
X24097976Y-16449643D01*
X24117024Y-16421071D01*
X24126547Y-16402024D01*
X24136071Y-16373452D01*
X24145595Y-16325833D01*
X24145595Y-16287738D01*
X24136071Y-16240119D01*
X24126547Y-16211548D01*
X24117024Y-16192500D01*
X24097976Y-16163928D01*
X24088452Y-16154405D01*
X17697500Y-16612500D02*
G75*
G03*
X17697500Y-16612500I-100000J0D01*
G01*
X18040833Y-16502976D02*
X18002738Y-16502976D01*
X17983690Y-16512500D01*
X17974167Y-16522024D01*
X17955119Y-16550595D01*
X17945595Y-16588690D01*
X17945595Y-16664881D01*
X17955119Y-16683928D01*
X17964643Y-16693452D01*
X17983690Y-16702976D01*
X18021786Y-16702976D01*
X18040833Y-16693452D01*
X18050357Y-16683928D01*
X18059881Y-16664881D01*
X18059881Y-16617262D01*
X18050357Y-16598214D01*
X18040833Y-16588690D01*
X18021786Y-16579167D01*
X17983690Y-16579167D01*
X17964643Y-16588690D01*
X17955119Y-16598214D01*
X17945595Y-16617262D01*
X18145595Y-16683928D02*
X18155119Y-16693452D01*
X18145595Y-16702976D01*
X18136071Y-16693452D01*
X18145595Y-16683928D01*
X18145595Y-16702976D01*
X18278928Y-16502976D02*
X18297976Y-16502976D01*
X18317024Y-16512500D01*
X18326548Y-16522024D01*
X18336071Y-16541071D01*
X18345595Y-16579167D01*
X18345595Y-16626786D01*
X18336071Y-16664881D01*
X18326548Y-16683928D01*
X18317024Y-16693452D01*
X18297976Y-16702976D01*
X18278928Y-16702976D01*
X18259881Y-16693452D01*
X18250357Y-16683928D01*
X18240833Y-16664881D01*
X18231309Y-16626786D01*
X18231309Y-16579167D01*
X18240833Y-16541071D01*
X18250357Y-16522024D01*
X18259881Y-16512500D01*
X18278928Y-16502976D01*
X18469405Y-16502976D02*
X18488452Y-16502976D01*
X18507500Y-16512500D01*
X18517024Y-16522024D01*
X18526548Y-16541071D01*
X18536071Y-16579167D01*
X18536071Y-16626786D01*
X18526548Y-16664881D01*
X18517024Y-16683928D01*
X18507500Y-16693452D01*
X18488452Y-16702976D01*
X18469405Y-16702976D01*
X18450357Y-16693452D01*
X18440833Y-16683928D01*
X18431309Y-16664881D01*
X18421786Y-16626786D01*
X18421786Y-16579167D01*
X18431309Y-16541071D01*
X18440833Y-16522024D01*
X18450357Y-16512500D01*
X18469405Y-16502976D01*
X18659881Y-16502976D02*
X18678928Y-16502976D01*
X18697976Y-16512500D01*
X18707500Y-16522024D01*
X18717024Y-16541071D01*
X18726548Y-16579167D01*
X18726548Y-16626786D01*
X18717024Y-16664881D01*
X18707500Y-16683928D01*
X18697976Y-16693452D01*
X18678928Y-16702976D01*
X18659881Y-16702976D01*
X18640833Y-16693452D01*
X18631309Y-16683928D01*
X18621786Y-16664881D01*
X18612262Y-16626786D01*
X18612262Y-16579167D01*
X18621786Y-16541071D01*
X18631309Y-16522024D01*
X18640833Y-16512500D01*
X18659881Y-16502976D01*
X18812262Y-16702976D02*
X18812262Y-16569643D01*
X18812262Y-16588690D02*
X18821786Y-16579167D01*
X18840833Y-16569643D01*
X18869405Y-16569643D01*
X18888452Y-16579167D01*
X18897976Y-16598214D01*
X18897976Y-16702976D01*
X18897976Y-16598214D02*
X18907500Y-16579167D01*
X18926548Y-16569643D01*
X18955119Y-16569643D01*
X18974167Y-16579167D01*
X18983690Y-16598214D01*
X18983690Y-16702976D01*
X19078928Y-16702976D02*
X19078928Y-16569643D01*
X19078928Y-16588690D02*
X19088452Y-16579167D01*
X19107500Y-16569643D01*
X19136071Y-16569643D01*
X19155119Y-16579167D01*
X19164643Y-16598214D01*
X19164643Y-16702976D01*
X19164643Y-16598214D02*
X19174167Y-16579167D01*
X19193214Y-16569643D01*
X19221786Y-16569643D01*
X19240833Y-16579167D01*
X19250357Y-16598214D01*
X19250357Y-16702976D01*
X19640833Y-16493452D02*
X19469405Y-16750595D01*
X19897976Y-16502976D02*
X19917024Y-16502976D01*
X19936071Y-16512500D01*
X19945595Y-16522024D01*
X19955119Y-16541071D01*
X19964643Y-16579167D01*
X19964643Y-16626786D01*
X19955119Y-16664881D01*
X19945595Y-16683928D01*
X19936071Y-16693452D01*
X19917024Y-16702976D01*
X19897976Y-16702976D01*
X19878928Y-16693452D01*
X19869405Y-16683928D01*
X19859881Y-16664881D01*
X19850357Y-16626786D01*
X19850357Y-16579167D01*
X19859881Y-16541071D01*
X19869405Y-16522024D01*
X19878928Y-16512500D01*
X19897976Y-16502976D01*
X20050357Y-16683928D02*
X20059881Y-16693452D01*
X20050357Y-16702976D01*
X20040833Y-16693452D01*
X20050357Y-16683928D01*
X20050357Y-16702976D01*
X20136071Y-16522024D02*
X20145595Y-16512500D01*
X20164643Y-16502976D01*
X20212262Y-16502976D01*
X20231309Y-16512500D01*
X20240833Y-16522024D01*
X20250357Y-16541071D01*
X20250357Y-16560119D01*
X20240833Y-16588690D01*
X20126548Y-16702976D01*
X20250357Y-16702976D01*
X20317024Y-16502976D02*
X20440833Y-16502976D01*
X20374167Y-16579167D01*
X20402738Y-16579167D01*
X20421786Y-16588690D01*
X20431309Y-16598214D01*
X20440833Y-16617262D01*
X20440833Y-16664881D01*
X20431309Y-16683928D01*
X20421786Y-16693452D01*
X20402738Y-16702976D01*
X20345595Y-16702976D01*
X20326548Y-16693452D01*
X20317024Y-16683928D01*
X20612262Y-16502976D02*
X20574167Y-16502976D01*
X20555119Y-16512500D01*
X20545595Y-16522024D01*
X20526548Y-16550595D01*
X20517024Y-16588690D01*
X20517024Y-16664881D01*
X20526548Y-16683928D01*
X20536071Y-16693452D01*
X20555119Y-16702976D01*
X20593214Y-16702976D01*
X20612262Y-16693452D01*
X20621786Y-16683928D01*
X20631309Y-16664881D01*
X20631309Y-16617262D01*
X20621786Y-16598214D01*
X20612262Y-16588690D01*
X20593214Y-16579167D01*
X20555119Y-16579167D01*
X20536071Y-16588690D01*
X20526548Y-16598214D01*
X20517024Y-16617262D01*
X20707500Y-16522024D02*
X20717024Y-16512500D01*
X20736071Y-16502976D01*
X20783690Y-16502976D01*
X20802738Y-16512500D01*
X20812262Y-16522024D01*
X20821786Y-16541071D01*
X20821786Y-16560119D01*
X20812262Y-16588690D01*
X20697976Y-16702976D01*
X20821786Y-16702976D01*
X20897976Y-16502976D02*
X20897976Y-16541071D01*
X20974167Y-16502976D02*
X20974167Y-16541071D01*
X21269405Y-16779167D02*
X21259881Y-16769643D01*
X21240833Y-16741071D01*
X21231309Y-16722024D01*
X21221786Y-16693452D01*
X21212262Y-16645833D01*
X21212262Y-16607738D01*
X21221786Y-16560119D01*
X21231309Y-16531548D01*
X21240833Y-16512500D01*
X21259881Y-16483928D01*
X21269405Y-16474405D01*
X21431309Y-16502976D02*
X21393214Y-16502976D01*
X21374167Y-16512500D01*
X21364643Y-16522024D01*
X21345595Y-16550595D01*
X21336071Y-16588690D01*
X21336071Y-16664881D01*
X21345595Y-16683928D01*
X21355119Y-16693452D01*
X21374167Y-16702976D01*
X21412262Y-16702976D01*
X21431309Y-16693452D01*
X21440833Y-16683928D01*
X21450357Y-16664881D01*
X21450357Y-16617262D01*
X21440833Y-16598214D01*
X21431309Y-16588690D01*
X21412262Y-16579167D01*
X21374167Y-16579167D01*
X21355119Y-16588690D01*
X21345595Y-16598214D01*
X21336071Y-16617262D01*
X21688452Y-16702976D02*
X21688452Y-16502976D01*
X21774167Y-16702976D02*
X21774167Y-16598214D01*
X21764643Y-16579167D01*
X21745595Y-16569643D01*
X21717024Y-16569643D01*
X21697976Y-16579167D01*
X21688452Y-16588690D01*
X21897976Y-16702976D02*
X21878928Y-16693452D01*
X21869405Y-16683928D01*
X21859881Y-16664881D01*
X21859881Y-16607738D01*
X21869405Y-16588690D01*
X21878928Y-16579167D01*
X21897976Y-16569643D01*
X21926548Y-16569643D01*
X21945595Y-16579167D01*
X21955119Y-16588690D01*
X21964643Y-16607738D01*
X21964643Y-16664881D01*
X21955119Y-16683928D01*
X21945595Y-16693452D01*
X21926548Y-16702976D01*
X21897976Y-16702976D01*
X22078928Y-16702976D02*
X22059881Y-16693452D01*
X22050357Y-16674405D01*
X22050357Y-16502976D01*
X22231309Y-16693452D02*
X22212262Y-16702976D01*
X22174167Y-16702976D01*
X22155119Y-16693452D01*
X22145595Y-16674405D01*
X22145595Y-16598214D01*
X22155119Y-16579167D01*
X22174167Y-16569643D01*
X22212262Y-16569643D01*
X22231309Y-16579167D01*
X22240833Y-16598214D01*
X22240833Y-16617262D01*
X22145595Y-16636309D01*
X22317024Y-16693452D02*
X22336071Y-16702976D01*
X22374166Y-16702976D01*
X22393214Y-16693452D01*
X22402738Y-16674405D01*
X22402738Y-16664881D01*
X22393214Y-16645833D01*
X22374166Y-16636309D01*
X22345595Y-16636309D01*
X22326548Y-16626786D01*
X22317024Y-16607738D01*
X22317024Y-16598214D01*
X22326548Y-16579167D01*
X22345595Y-16569643D01*
X22374166Y-16569643D01*
X22393214Y-16579167D01*
X22469405Y-16779167D02*
X22478928Y-16769643D01*
X22497976Y-16741071D01*
X22507500Y-16722024D01*
X22517024Y-16693452D01*
X22526547Y-16645833D01*
X22526547Y-16607738D01*
X22517024Y-16560119D01*
X22507500Y-16531548D01*
X22497976Y-16512500D01*
X22478928Y-16483928D01*
X22469405Y-16474405D01*
X17597500Y-16832500D02*
X17597500Y-17032500D01*
X17497500Y-16932500D02*
X17697500Y-16932500D01*
X18040833Y-16822976D02*
X18002738Y-16822976D01*
X17983690Y-16832500D01*
X17974167Y-16842024D01*
X17955119Y-16870595D01*
X17945595Y-16908690D01*
X17945595Y-16984881D01*
X17955119Y-17003929D01*
X17964643Y-17013452D01*
X17983690Y-17022976D01*
X18021786Y-17022976D01*
X18040833Y-17013452D01*
X18050357Y-17003929D01*
X18059881Y-16984881D01*
X18059881Y-16937262D01*
X18050357Y-16918214D01*
X18040833Y-16908690D01*
X18021786Y-16899167D01*
X17983690Y-16899167D01*
X17964643Y-16908690D01*
X17955119Y-16918214D01*
X17945595Y-16937262D01*
X18145595Y-17003929D02*
X18155119Y-17013452D01*
X18145595Y-17022976D01*
X18136071Y-17013452D01*
X18145595Y-17003929D01*
X18145595Y-17022976D01*
X18336071Y-16822976D02*
X18240833Y-16822976D01*
X18231309Y-16918214D01*
X18240833Y-16908690D01*
X18259881Y-16899167D01*
X18307500Y-16899167D01*
X18326548Y-16908690D01*
X18336071Y-16918214D01*
X18345595Y-16937262D01*
X18345595Y-16984881D01*
X18336071Y-17003929D01*
X18326548Y-17013452D01*
X18307500Y-17022976D01*
X18259881Y-17022976D01*
X18240833Y-17013452D01*
X18231309Y-17003929D01*
X18469405Y-16822976D02*
X18488452Y-16822976D01*
X18507500Y-16832500D01*
X18517024Y-16842024D01*
X18526548Y-16861071D01*
X18536071Y-16899167D01*
X18536071Y-16946786D01*
X18526548Y-16984881D01*
X18517024Y-17003929D01*
X18507500Y-17013452D01*
X18488452Y-17022976D01*
X18469405Y-17022976D01*
X18450357Y-17013452D01*
X18440833Y-17003929D01*
X18431309Y-16984881D01*
X18421786Y-16946786D01*
X18421786Y-16899167D01*
X18431309Y-16861071D01*
X18440833Y-16842024D01*
X18450357Y-16832500D01*
X18469405Y-16822976D01*
X18659881Y-16822976D02*
X18678928Y-16822976D01*
X18697976Y-16832500D01*
X18707500Y-16842024D01*
X18717024Y-16861071D01*
X18726548Y-16899167D01*
X18726548Y-16946786D01*
X18717024Y-16984881D01*
X18707500Y-17003929D01*
X18697976Y-17013452D01*
X18678928Y-17022976D01*
X18659881Y-17022976D01*
X18640833Y-17013452D01*
X18631309Y-17003929D01*
X18621786Y-16984881D01*
X18612262Y-16946786D01*
X18612262Y-16899167D01*
X18621786Y-16861071D01*
X18631309Y-16842024D01*
X18640833Y-16832500D01*
X18659881Y-16822976D01*
X18812262Y-17022976D02*
X18812262Y-16889643D01*
X18812262Y-16908690D02*
X18821786Y-16899167D01*
X18840833Y-16889643D01*
X18869405Y-16889643D01*
X18888452Y-16899167D01*
X18897976Y-16918214D01*
X18897976Y-17022976D01*
X18897976Y-16918214D02*
X18907500Y-16899167D01*
X18926548Y-16889643D01*
X18955119Y-16889643D01*
X18974167Y-16899167D01*
X18983690Y-16918214D01*
X18983690Y-17022976D01*
X19078928Y-17022976D02*
X19078928Y-16889643D01*
X19078928Y-16908690D02*
X19088452Y-16899167D01*
X19107500Y-16889643D01*
X19136071Y-16889643D01*
X19155119Y-16899167D01*
X19164643Y-16918214D01*
X19164643Y-17022976D01*
X19164643Y-16918214D02*
X19174167Y-16899167D01*
X19193214Y-16889643D01*
X19221786Y-16889643D01*
X19240833Y-16899167D01*
X19250357Y-16918214D01*
X19250357Y-17022976D01*
X19640833Y-16813452D02*
X19469405Y-17070595D01*
X19897976Y-16822976D02*
X19917024Y-16822976D01*
X19936071Y-16832500D01*
X19945595Y-16842024D01*
X19955119Y-16861071D01*
X19964643Y-16899167D01*
X19964643Y-16946786D01*
X19955119Y-16984881D01*
X19945595Y-17003929D01*
X19936071Y-17013452D01*
X19917024Y-17022976D01*
X19897976Y-17022976D01*
X19878928Y-17013452D01*
X19869405Y-17003929D01*
X19859881Y-16984881D01*
X19850357Y-16946786D01*
X19850357Y-16899167D01*
X19859881Y-16861071D01*
X19869405Y-16842024D01*
X19878928Y-16832500D01*
X19897976Y-16822976D01*
X20050357Y-17003929D02*
X20059881Y-17013452D01*
X20050357Y-17022976D01*
X20040833Y-17013452D01*
X20050357Y-17003929D01*
X20050357Y-17022976D01*
X20136071Y-16842024D02*
X20145595Y-16832500D01*
X20164643Y-16822976D01*
X20212262Y-16822976D01*
X20231309Y-16832500D01*
X20240833Y-16842024D01*
X20250357Y-16861071D01*
X20250357Y-16880119D01*
X20240833Y-16908690D01*
X20126548Y-17022976D01*
X20250357Y-17022976D01*
X20431309Y-16822976D02*
X20336071Y-16822976D01*
X20326548Y-16918214D01*
X20336071Y-16908690D01*
X20355119Y-16899167D01*
X20402738Y-16899167D01*
X20421786Y-16908690D01*
X20431309Y-16918214D01*
X20440833Y-16937262D01*
X20440833Y-16984881D01*
X20431309Y-17003929D01*
X20421786Y-17013452D01*
X20402738Y-17022976D01*
X20355119Y-17022976D01*
X20336071Y-17013452D01*
X20326548Y-17003929D01*
X20621786Y-16822976D02*
X20526548Y-16822976D01*
X20517024Y-16918214D01*
X20526548Y-16908690D01*
X20545595Y-16899167D01*
X20593214Y-16899167D01*
X20612262Y-16908690D01*
X20621786Y-16918214D01*
X20631309Y-16937262D01*
X20631309Y-16984881D01*
X20621786Y-17003929D01*
X20612262Y-17013452D01*
X20593214Y-17022976D01*
X20545595Y-17022976D01*
X20526548Y-17013452D01*
X20517024Y-17003929D01*
X20726548Y-17022976D02*
X20764643Y-17022976D01*
X20783690Y-17013452D01*
X20793214Y-17003929D01*
X20812262Y-16975357D01*
X20821786Y-16937262D01*
X20821786Y-16861071D01*
X20812262Y-16842024D01*
X20802738Y-16832500D01*
X20783690Y-16822976D01*
X20745595Y-16822976D01*
X20726548Y-16832500D01*
X20717024Y-16842024D01*
X20707500Y-16861071D01*
X20707500Y-16908690D01*
X20717024Y-16927738D01*
X20726548Y-16937262D01*
X20745595Y-16946786D01*
X20783690Y-16946786D01*
X20802738Y-16937262D01*
X20812262Y-16927738D01*
X20821786Y-16908690D01*
X20897976Y-16822976D02*
X20897976Y-16861071D01*
X20974167Y-16822976D02*
X20974167Y-16861071D01*
X21269405Y-17099167D02*
X21259881Y-17089643D01*
X21240833Y-17061071D01*
X21231309Y-17042024D01*
X21221786Y-17013452D01*
X21212262Y-16965833D01*
X21212262Y-16927738D01*
X21221786Y-16880119D01*
X21231309Y-16851548D01*
X21240833Y-16832500D01*
X21259881Y-16803929D01*
X21269405Y-16794405D01*
X21355119Y-17022976D02*
X21393214Y-17022976D01*
X21412262Y-17013452D01*
X21421786Y-17003929D01*
X21440833Y-16975357D01*
X21450357Y-16937262D01*
X21450357Y-16861071D01*
X21440833Y-16842024D01*
X21431309Y-16832500D01*
X21412262Y-16822976D01*
X21374167Y-16822976D01*
X21355119Y-16832500D01*
X21345595Y-16842024D01*
X21336071Y-16861071D01*
X21336071Y-16908690D01*
X21345595Y-16927738D01*
X21355119Y-16937262D01*
X21374167Y-16946786D01*
X21412262Y-16946786D01*
X21431309Y-16937262D01*
X21440833Y-16927738D01*
X21450357Y-16908690D01*
X21688452Y-17022976D02*
X21688452Y-16822976D01*
X21774167Y-17022976D02*
X21774167Y-16918214D01*
X21764643Y-16899167D01*
X21745595Y-16889643D01*
X21717024Y-16889643D01*
X21697976Y-16899167D01*
X21688452Y-16908690D01*
X21897976Y-17022976D02*
X21878928Y-17013452D01*
X21869405Y-17003929D01*
X21859881Y-16984881D01*
X21859881Y-16927738D01*
X21869405Y-16908690D01*
X21878928Y-16899167D01*
X21897976Y-16889643D01*
X21926548Y-16889643D01*
X21945595Y-16899167D01*
X21955119Y-16908690D01*
X21964643Y-16927738D01*
X21964643Y-16984881D01*
X21955119Y-17003929D01*
X21945595Y-17013452D01*
X21926548Y-17022976D01*
X21897976Y-17022976D01*
X22078928Y-17022976D02*
X22059881Y-17013452D01*
X22050357Y-16994405D01*
X22050357Y-16822976D01*
X22231309Y-17013452D02*
X22212262Y-17022976D01*
X22174167Y-17022976D01*
X22155119Y-17013452D01*
X22145595Y-16994405D01*
X22145595Y-16918214D01*
X22155119Y-16899167D01*
X22174167Y-16889643D01*
X22212262Y-16889643D01*
X22231309Y-16899167D01*
X22240833Y-16918214D01*
X22240833Y-16937262D01*
X22145595Y-16956310D01*
X22317024Y-17013452D02*
X22336071Y-17022976D01*
X22374166Y-17022976D01*
X22393214Y-17013452D01*
X22402738Y-16994405D01*
X22402738Y-16984881D01*
X22393214Y-16965833D01*
X22374166Y-16956310D01*
X22345595Y-16956310D01*
X22326548Y-16946786D01*
X22317024Y-16927738D01*
X22317024Y-16918214D01*
X22326548Y-16899167D01*
X22345595Y-16889643D01*
X22374166Y-16889643D01*
X22393214Y-16899167D01*
X22469405Y-17099167D02*
X22478928Y-17089643D01*
X22497976Y-17061071D01*
X22507500Y-17042024D01*
X22517024Y-17013452D01*
X22526547Y-16965833D01*
X22526547Y-16927738D01*
X22517024Y-16880119D01*
X22507500Y-16851548D01*
X22497976Y-16832500D01*
X22478928Y-16803929D01*
X22469405Y-16794405D01*
M02*
