%FSLAX45Y45*%
G04 Gerber Fmt 4.5, Leading zero omitted, Abs format (unit mm)*
G04 Created by KiCad (PCBNEW (6.0.0)) date 2022-01-31 13:08:05*
%MOMM*%
%LPD*%
G01*
G04 APERTURE LIST*
%TA.AperFunction,Profile*%
%ADD10C,0.050000*%
%TD*%
%ADD11C,0.200000*%
%ADD12C,0.300000*%
%ADD13C,0.600000*%
G04 APERTURE END LIST*
D10*
X15750000Y-2500000D02*
X15750000Y-15800000D01*
X11750000Y-15800000D02*
X11750000Y-15100000D01*
X11750000Y-2500000D02*
X11750000Y-15100000D01*
X15750000Y-15800000D02*
X11750000Y-15800000D01*
X11750000Y-2500000D02*
X15750000Y-2500000D01*
D11*
D12*
X12500000Y-2650000D02*
X12800000Y-2950000D01*
X12800000Y-2650000D02*
X12500000Y-2950000D01*
D11*
X12525000Y-2940000D02*
X12775000Y-2940000D01*
X12525000Y-2660000D02*
X12775000Y-2660000D01*
X12775000Y-2940000D02*
G75*
G03*
X12775000Y-2660000I0J140000D01*
G01*
X12525000Y-2660000D02*
G75*
G03*
X12525000Y-2940000I0J-140000D01*
G01*
D12*
X12500000Y-15350000D02*
X12800000Y-15650000D01*
X12800000Y-15350000D02*
X12500000Y-15650000D01*
D11*
X12525000Y-15640000D02*
X12775000Y-15640000D01*
X12525000Y-15360000D02*
X12775000Y-15360000D01*
X12775000Y-15640000D02*
G75*
G03*
X12775000Y-15360000I0J140000D01*
G01*
X12525000Y-15360000D02*
G75*
G03*
X12525000Y-15640000I0J-140000D01*
G01*
D12*
X14700000Y-2650000D02*
X15000000Y-2950000D01*
X15000000Y-2650000D02*
X14700000Y-2950000D01*
D11*
X14725000Y-2940000D02*
X14975000Y-2940000D01*
X14725000Y-2660000D02*
X14975000Y-2660000D01*
X14975000Y-2940000D02*
G75*
G03*
X14975000Y-2660000I0J140000D01*
G01*
X14725000Y-2660000D02*
G75*
G03*
X14725000Y-2940000I0J-140000D01*
G01*
D12*
X14700000Y-15350000D02*
X15000000Y-15650000D01*
X15000000Y-15350000D02*
X14700000Y-15650000D01*
D11*
X14725000Y-15640000D02*
X14975000Y-15640000D01*
X14725000Y-15360000D02*
X14975000Y-15360000D01*
X14975000Y-15640000D02*
G75*
G03*
X14975000Y-15360000I0J140000D01*
G01*
X14725000Y-15360000D02*
G75*
G03*
X14725000Y-15640000I0J-140000D01*
G01*
D13*
X13050000Y-8050000D02*
G75*
G03*
X13050000Y-8050000I-300000J0D01*
G01*
X13050000Y-13950000D02*
G75*
G03*
X13050000Y-13950000I-300000J0D01*
G01*
X13200000Y-4250000D02*
G75*
G03*
X13200000Y-4250000I-300000J0D01*
G01*
X13200000Y-10250000D02*
G75*
G03*
X13200000Y-10250000I-300000J0D01*
G01*
X13300000Y-6350000D02*
G75*
G03*
X13300000Y-6350000I-300000J0D01*
G01*
X13300000Y-12250000D02*
G75*
G03*
X13300000Y-12250000I-300000J0D01*
G01*
X14050000Y-8050000D02*
G75*
G03*
X14050000Y-8050000I-300000J0D01*
G01*
X14050000Y-9150000D02*
G75*
G03*
X14050000Y-9150000I-300000J0D01*
G01*
X14050000Y-13950000D02*
G75*
G03*
X14050000Y-13950000I-300000J0D01*
G01*
X14800000Y-6350000D02*
G75*
G03*
X14800000Y-6350000I-300000J0D01*
G01*
X14800000Y-12250000D02*
G75*
G03*
X14800000Y-12250000I-300000J0D01*
G01*
X15050000Y-8050000D02*
G75*
G03*
X15050000Y-8050000I-300000J0D01*
G01*
X15050000Y-13950000D02*
G75*
G03*
X15050000Y-13950000I-300000J0D01*
G01*
X15150000Y-4300000D02*
G75*
G03*
X15150000Y-4300000I-300000J0D01*
G01*
X15150000Y-10300000D02*
G75*
G03*
X15150000Y-10300000I-300000J0D01*
G01*
D11*
X12005119Y-16112976D02*
X12005119Y-15912976D01*
X12052738Y-15912976D01*
X12081309Y-15922500D01*
X12100357Y-15941548D01*
X12109881Y-15960595D01*
X12119405Y-15998690D01*
X12119405Y-16027262D01*
X12109881Y-16065357D01*
X12100357Y-16084405D01*
X12081309Y-16103452D01*
X12052738Y-16112976D01*
X12005119Y-16112976D01*
X12205119Y-16112976D02*
X12205119Y-15979643D01*
X12205119Y-16017738D02*
X12214643Y-15998690D01*
X12224166Y-15989167D01*
X12243214Y-15979643D01*
X12262262Y-15979643D01*
X12328928Y-16112976D02*
X12328928Y-15979643D01*
X12328928Y-15912976D02*
X12319405Y-15922500D01*
X12328928Y-15932024D01*
X12338452Y-15922500D01*
X12328928Y-15912976D01*
X12328928Y-15932024D01*
X12452738Y-16112976D02*
X12433690Y-16103452D01*
X12424166Y-16084405D01*
X12424166Y-15912976D01*
X12557500Y-16112976D02*
X12538452Y-16103452D01*
X12528928Y-16084405D01*
X12528928Y-15912976D01*
X12786071Y-16112976D02*
X12786071Y-15912976D01*
X12852738Y-16055833D01*
X12919405Y-15912976D01*
X12919405Y-16112976D01*
X13100357Y-16112976D02*
X13100357Y-16008214D01*
X13090833Y-15989167D01*
X13071786Y-15979643D01*
X13033690Y-15979643D01*
X13014643Y-15989167D01*
X13100357Y-16103452D02*
X13081309Y-16112976D01*
X13033690Y-16112976D01*
X13014643Y-16103452D01*
X13005119Y-16084405D01*
X13005119Y-16065357D01*
X13014643Y-16046309D01*
X13033690Y-16036786D01*
X13081309Y-16036786D01*
X13100357Y-16027262D01*
X13195595Y-15979643D02*
X13195595Y-16179643D01*
X13195595Y-15989167D02*
X13214643Y-15979643D01*
X13252738Y-15979643D01*
X13271786Y-15989167D01*
X13281309Y-15998690D01*
X13290833Y-16017738D01*
X13290833Y-16074881D01*
X13281309Y-16093928D01*
X13271786Y-16103452D01*
X13252738Y-16112976D01*
X13214643Y-16112976D01*
X13195595Y-16103452D01*
X13376547Y-16093928D02*
X13386071Y-16103452D01*
X13376547Y-16112976D01*
X13367024Y-16103452D01*
X13376547Y-16093928D01*
X13376547Y-16112976D01*
X13376547Y-15989167D02*
X13386071Y-15998690D01*
X13376547Y-16008214D01*
X13367024Y-15998690D01*
X13376547Y-15989167D01*
X13376547Y-16008214D01*
X11547500Y-16342500D02*
X11747500Y-16542500D01*
X11747500Y-16342500D02*
X11547500Y-16542500D01*
X11986071Y-16332976D02*
X12109881Y-16332976D01*
X12043214Y-16409167D01*
X12071786Y-16409167D01*
X12090833Y-16418690D01*
X12100357Y-16428214D01*
X12109881Y-16447262D01*
X12109881Y-16494881D01*
X12100357Y-16513928D01*
X12090833Y-16523452D01*
X12071786Y-16532976D01*
X12014643Y-16532976D01*
X11995595Y-16523452D01*
X11986071Y-16513928D01*
X12195595Y-16513928D02*
X12205119Y-16523452D01*
X12195595Y-16532976D01*
X12186071Y-16523452D01*
X12195595Y-16513928D01*
X12195595Y-16532976D01*
X12328928Y-16332976D02*
X12347976Y-16332976D01*
X12367024Y-16342500D01*
X12376547Y-16352024D01*
X12386071Y-16371071D01*
X12395595Y-16409167D01*
X12395595Y-16456786D01*
X12386071Y-16494881D01*
X12376547Y-16513928D01*
X12367024Y-16523452D01*
X12347976Y-16532976D01*
X12328928Y-16532976D01*
X12309881Y-16523452D01*
X12300357Y-16513928D01*
X12290833Y-16494881D01*
X12281309Y-16456786D01*
X12281309Y-16409167D01*
X12290833Y-16371071D01*
X12300357Y-16352024D01*
X12309881Y-16342500D01*
X12328928Y-16332976D01*
X12519405Y-16332976D02*
X12538452Y-16332976D01*
X12557500Y-16342500D01*
X12567024Y-16352024D01*
X12576547Y-16371071D01*
X12586071Y-16409167D01*
X12586071Y-16456786D01*
X12576547Y-16494881D01*
X12567024Y-16513928D01*
X12557500Y-16523452D01*
X12538452Y-16532976D01*
X12519405Y-16532976D01*
X12500357Y-16523452D01*
X12490833Y-16513928D01*
X12481309Y-16494881D01*
X12471786Y-16456786D01*
X12471786Y-16409167D01*
X12481309Y-16371071D01*
X12490833Y-16352024D01*
X12500357Y-16342500D01*
X12519405Y-16332976D01*
X12709881Y-16332976D02*
X12728928Y-16332976D01*
X12747976Y-16342500D01*
X12757500Y-16352024D01*
X12767024Y-16371071D01*
X12776547Y-16409167D01*
X12776547Y-16456786D01*
X12767024Y-16494881D01*
X12757500Y-16513928D01*
X12747976Y-16523452D01*
X12728928Y-16532976D01*
X12709881Y-16532976D01*
X12690833Y-16523452D01*
X12681309Y-16513928D01*
X12671786Y-16494881D01*
X12662262Y-16456786D01*
X12662262Y-16409167D01*
X12671786Y-16371071D01*
X12681309Y-16352024D01*
X12690833Y-16342500D01*
X12709881Y-16332976D01*
X12862262Y-16532976D02*
X12862262Y-16399643D01*
X12862262Y-16418690D02*
X12871786Y-16409167D01*
X12890833Y-16399643D01*
X12919405Y-16399643D01*
X12938452Y-16409167D01*
X12947976Y-16428214D01*
X12947976Y-16532976D01*
X12947976Y-16428214D02*
X12957500Y-16409167D01*
X12976547Y-16399643D01*
X13005119Y-16399643D01*
X13024166Y-16409167D01*
X13033690Y-16428214D01*
X13033690Y-16532976D01*
X13128928Y-16532976D02*
X13128928Y-16399643D01*
X13128928Y-16418690D02*
X13138452Y-16409167D01*
X13157500Y-16399643D01*
X13186071Y-16399643D01*
X13205119Y-16409167D01*
X13214643Y-16428214D01*
X13214643Y-16532976D01*
X13214643Y-16428214D02*
X13224166Y-16409167D01*
X13243214Y-16399643D01*
X13271786Y-16399643D01*
X13290833Y-16409167D01*
X13300357Y-16428214D01*
X13300357Y-16532976D01*
X13690833Y-16323452D02*
X13519405Y-16580595D01*
X13947976Y-16332976D02*
X13967024Y-16332976D01*
X13986071Y-16342500D01*
X13995595Y-16352024D01*
X14005119Y-16371071D01*
X14014643Y-16409167D01*
X14014643Y-16456786D01*
X14005119Y-16494881D01*
X13995595Y-16513928D01*
X13986071Y-16523452D01*
X13967024Y-16532976D01*
X13947976Y-16532976D01*
X13928928Y-16523452D01*
X13919405Y-16513928D01*
X13909881Y-16494881D01*
X13900357Y-16456786D01*
X13900357Y-16409167D01*
X13909881Y-16371071D01*
X13919405Y-16352024D01*
X13928928Y-16342500D01*
X13947976Y-16332976D01*
X14100357Y-16513928D02*
X14109881Y-16523452D01*
X14100357Y-16532976D01*
X14090833Y-16523452D01*
X14100357Y-16513928D01*
X14100357Y-16532976D01*
X14300357Y-16532976D02*
X14186071Y-16532976D01*
X14243214Y-16532976D02*
X14243214Y-16332976D01*
X14224166Y-16361548D01*
X14205119Y-16380595D01*
X14186071Y-16390119D01*
X14490833Y-16532976D02*
X14376547Y-16532976D01*
X14433690Y-16532976D02*
X14433690Y-16332976D01*
X14414643Y-16361548D01*
X14395595Y-16380595D01*
X14376547Y-16390119D01*
X14605119Y-16418690D02*
X14586071Y-16409167D01*
X14576547Y-16399643D01*
X14567024Y-16380595D01*
X14567024Y-16371071D01*
X14576547Y-16352024D01*
X14586071Y-16342500D01*
X14605119Y-16332976D01*
X14643214Y-16332976D01*
X14662262Y-16342500D01*
X14671786Y-16352024D01*
X14681309Y-16371071D01*
X14681309Y-16380595D01*
X14671786Y-16399643D01*
X14662262Y-16409167D01*
X14643214Y-16418690D01*
X14605119Y-16418690D01*
X14586071Y-16428214D01*
X14576547Y-16437738D01*
X14567024Y-16456786D01*
X14567024Y-16494881D01*
X14576547Y-16513928D01*
X14586071Y-16523452D01*
X14605119Y-16532976D01*
X14643214Y-16532976D01*
X14662262Y-16523452D01*
X14671786Y-16513928D01*
X14681309Y-16494881D01*
X14681309Y-16456786D01*
X14671786Y-16437738D01*
X14662262Y-16428214D01*
X14643214Y-16418690D01*
X14871786Y-16532976D02*
X14757500Y-16532976D01*
X14814643Y-16532976D02*
X14814643Y-16332976D01*
X14795595Y-16361548D01*
X14776547Y-16380595D01*
X14757500Y-16390119D01*
X14947976Y-16332976D02*
X14947976Y-16371071D01*
X15024166Y-16332976D02*
X15024166Y-16371071D01*
X15319405Y-16609167D02*
X15309881Y-16599643D01*
X15290833Y-16571071D01*
X15281309Y-16552024D01*
X15271786Y-16523452D01*
X15262262Y-16475833D01*
X15262262Y-16437738D01*
X15271786Y-16390119D01*
X15281309Y-16361548D01*
X15290833Y-16342500D01*
X15309881Y-16313928D01*
X15319405Y-16304405D01*
X15433690Y-16332976D02*
X15452738Y-16332976D01*
X15471786Y-16342500D01*
X15481309Y-16352024D01*
X15490833Y-16371071D01*
X15500357Y-16409167D01*
X15500357Y-16456786D01*
X15490833Y-16494881D01*
X15481309Y-16513928D01*
X15471786Y-16523452D01*
X15452738Y-16532976D01*
X15433690Y-16532976D01*
X15414643Y-16523452D01*
X15405119Y-16513928D01*
X15395595Y-16494881D01*
X15386071Y-16456786D01*
X15386071Y-16409167D01*
X15395595Y-16371071D01*
X15405119Y-16352024D01*
X15414643Y-16342500D01*
X15433690Y-16332976D01*
X15738452Y-16532976D02*
X15738452Y-16332976D01*
X15824166Y-16532976D02*
X15824166Y-16428214D01*
X15814643Y-16409167D01*
X15795595Y-16399643D01*
X15767024Y-16399643D01*
X15747976Y-16409167D01*
X15738452Y-16418690D01*
X15947976Y-16532976D02*
X15928928Y-16523452D01*
X15919405Y-16513928D01*
X15909881Y-16494881D01*
X15909881Y-16437738D01*
X15919405Y-16418690D01*
X15928928Y-16409167D01*
X15947976Y-16399643D01*
X15976547Y-16399643D01*
X15995595Y-16409167D01*
X16005119Y-16418690D01*
X16014643Y-16437738D01*
X16014643Y-16494881D01*
X16005119Y-16513928D01*
X15995595Y-16523452D01*
X15976547Y-16532976D01*
X15947976Y-16532976D01*
X16128928Y-16532976D02*
X16109881Y-16523452D01*
X16100357Y-16504405D01*
X16100357Y-16332976D01*
X16281309Y-16523452D02*
X16262262Y-16532976D01*
X16224166Y-16532976D01*
X16205119Y-16523452D01*
X16195595Y-16504405D01*
X16195595Y-16428214D01*
X16205119Y-16409167D01*
X16224166Y-16399643D01*
X16262262Y-16399643D01*
X16281309Y-16409167D01*
X16290833Y-16428214D01*
X16290833Y-16447262D01*
X16195595Y-16466309D01*
X16367024Y-16523452D02*
X16386071Y-16532976D01*
X16424166Y-16532976D01*
X16443214Y-16523452D01*
X16452738Y-16504405D01*
X16452738Y-16494881D01*
X16443214Y-16475833D01*
X16424166Y-16466309D01*
X16395595Y-16466309D01*
X16376547Y-16456786D01*
X16367024Y-16437738D01*
X16367024Y-16428214D01*
X16376547Y-16409167D01*
X16395595Y-16399643D01*
X16424166Y-16399643D01*
X16443214Y-16409167D01*
X16690833Y-16456786D02*
X16843214Y-16456786D01*
X16767024Y-16532976D02*
X16767024Y-16380595D01*
X17176548Y-16399643D02*
X17176548Y-16532976D01*
X17128928Y-16323452D02*
X17081309Y-16466309D01*
X17205119Y-16466309D01*
X17424167Y-16523452D02*
X17443214Y-16532976D01*
X17481309Y-16532976D01*
X17500357Y-16523452D01*
X17509881Y-16504405D01*
X17509881Y-16494881D01*
X17500357Y-16475833D01*
X17481309Y-16466309D01*
X17452738Y-16466309D01*
X17433690Y-16456786D01*
X17424167Y-16437738D01*
X17424167Y-16428214D01*
X17433690Y-16409167D01*
X17452738Y-16399643D01*
X17481309Y-16399643D01*
X17500357Y-16409167D01*
X17624167Y-16532976D02*
X17605119Y-16523452D01*
X17595595Y-16504405D01*
X17595595Y-16332976D01*
X17728928Y-16532976D02*
X17709881Y-16523452D01*
X17700357Y-16513928D01*
X17690833Y-16494881D01*
X17690833Y-16437738D01*
X17700357Y-16418690D01*
X17709881Y-16409167D01*
X17728928Y-16399643D01*
X17757500Y-16399643D01*
X17776548Y-16409167D01*
X17786071Y-16418690D01*
X17795595Y-16437738D01*
X17795595Y-16494881D01*
X17786071Y-16513928D01*
X17776548Y-16523452D01*
X17757500Y-16532976D01*
X17728928Y-16532976D01*
X17852738Y-16399643D02*
X17928928Y-16399643D01*
X17881309Y-16332976D02*
X17881309Y-16504405D01*
X17890833Y-16523452D01*
X17909881Y-16532976D01*
X17928928Y-16532976D01*
X17986071Y-16523452D02*
X18005119Y-16532976D01*
X18043214Y-16532976D01*
X18062262Y-16523452D01*
X18071786Y-16504405D01*
X18071786Y-16494881D01*
X18062262Y-16475833D01*
X18043214Y-16466309D01*
X18014643Y-16466309D01*
X17995595Y-16456786D01*
X17986071Y-16437738D01*
X17986071Y-16428214D01*
X17995595Y-16409167D01*
X18014643Y-16399643D01*
X18043214Y-16399643D01*
X18062262Y-16409167D01*
X18138452Y-16609167D02*
X18147976Y-16599643D01*
X18167024Y-16571071D01*
X18176548Y-16552024D01*
X18186071Y-16523452D01*
X18195595Y-16475833D01*
X18195595Y-16437738D01*
X18186071Y-16390119D01*
X18176548Y-16361548D01*
X18167024Y-16342500D01*
X18147976Y-16313928D01*
X18138452Y-16304405D01*
X11747500Y-16762500D02*
G75*
G03*
X11747500Y-16762500I-100000J0D01*
G01*
X12090833Y-16652976D02*
X12052738Y-16652976D01*
X12033690Y-16662500D01*
X12024166Y-16672024D01*
X12005119Y-16700595D01*
X11995595Y-16738690D01*
X11995595Y-16814881D01*
X12005119Y-16833929D01*
X12014643Y-16843452D01*
X12033690Y-16852976D01*
X12071786Y-16852976D01*
X12090833Y-16843452D01*
X12100357Y-16833929D01*
X12109881Y-16814881D01*
X12109881Y-16767262D01*
X12100357Y-16748214D01*
X12090833Y-16738690D01*
X12071786Y-16729167D01*
X12033690Y-16729167D01*
X12014643Y-16738690D01*
X12005119Y-16748214D01*
X11995595Y-16767262D01*
X12195595Y-16833929D02*
X12205119Y-16843452D01*
X12195595Y-16852976D01*
X12186071Y-16843452D01*
X12195595Y-16833929D01*
X12195595Y-16852976D01*
X12328928Y-16652976D02*
X12347976Y-16652976D01*
X12367024Y-16662500D01*
X12376547Y-16672024D01*
X12386071Y-16691071D01*
X12395595Y-16729167D01*
X12395595Y-16776786D01*
X12386071Y-16814881D01*
X12376547Y-16833929D01*
X12367024Y-16843452D01*
X12347976Y-16852976D01*
X12328928Y-16852976D01*
X12309881Y-16843452D01*
X12300357Y-16833929D01*
X12290833Y-16814881D01*
X12281309Y-16776786D01*
X12281309Y-16729167D01*
X12290833Y-16691071D01*
X12300357Y-16672024D01*
X12309881Y-16662500D01*
X12328928Y-16652976D01*
X12519405Y-16652976D02*
X12538452Y-16652976D01*
X12557500Y-16662500D01*
X12567024Y-16672024D01*
X12576547Y-16691071D01*
X12586071Y-16729167D01*
X12586071Y-16776786D01*
X12576547Y-16814881D01*
X12567024Y-16833929D01*
X12557500Y-16843452D01*
X12538452Y-16852976D01*
X12519405Y-16852976D01*
X12500357Y-16843452D01*
X12490833Y-16833929D01*
X12481309Y-16814881D01*
X12471786Y-16776786D01*
X12471786Y-16729167D01*
X12481309Y-16691071D01*
X12490833Y-16672024D01*
X12500357Y-16662500D01*
X12519405Y-16652976D01*
X12709881Y-16652976D02*
X12728928Y-16652976D01*
X12747976Y-16662500D01*
X12757500Y-16672024D01*
X12767024Y-16691071D01*
X12776547Y-16729167D01*
X12776547Y-16776786D01*
X12767024Y-16814881D01*
X12757500Y-16833929D01*
X12747976Y-16843452D01*
X12728928Y-16852976D01*
X12709881Y-16852976D01*
X12690833Y-16843452D01*
X12681309Y-16833929D01*
X12671786Y-16814881D01*
X12662262Y-16776786D01*
X12662262Y-16729167D01*
X12671786Y-16691071D01*
X12681309Y-16672024D01*
X12690833Y-16662500D01*
X12709881Y-16652976D01*
X12862262Y-16852976D02*
X12862262Y-16719643D01*
X12862262Y-16738690D02*
X12871786Y-16729167D01*
X12890833Y-16719643D01*
X12919405Y-16719643D01*
X12938452Y-16729167D01*
X12947976Y-16748214D01*
X12947976Y-16852976D01*
X12947976Y-16748214D02*
X12957500Y-16729167D01*
X12976547Y-16719643D01*
X13005119Y-16719643D01*
X13024166Y-16729167D01*
X13033690Y-16748214D01*
X13033690Y-16852976D01*
X13128928Y-16852976D02*
X13128928Y-16719643D01*
X13128928Y-16738690D02*
X13138452Y-16729167D01*
X13157500Y-16719643D01*
X13186071Y-16719643D01*
X13205119Y-16729167D01*
X13214643Y-16748214D01*
X13214643Y-16852976D01*
X13214643Y-16748214D02*
X13224166Y-16729167D01*
X13243214Y-16719643D01*
X13271786Y-16719643D01*
X13290833Y-16729167D01*
X13300357Y-16748214D01*
X13300357Y-16852976D01*
X13690833Y-16643452D02*
X13519405Y-16900595D01*
X13947976Y-16652976D02*
X13967024Y-16652976D01*
X13986071Y-16662500D01*
X13995595Y-16672024D01*
X14005119Y-16691071D01*
X14014643Y-16729167D01*
X14014643Y-16776786D01*
X14005119Y-16814881D01*
X13995595Y-16833929D01*
X13986071Y-16843452D01*
X13967024Y-16852976D01*
X13947976Y-16852976D01*
X13928928Y-16843452D01*
X13919405Y-16833929D01*
X13909881Y-16814881D01*
X13900357Y-16776786D01*
X13900357Y-16729167D01*
X13909881Y-16691071D01*
X13919405Y-16672024D01*
X13928928Y-16662500D01*
X13947976Y-16652976D01*
X14100357Y-16833929D02*
X14109881Y-16843452D01*
X14100357Y-16852976D01*
X14090833Y-16843452D01*
X14100357Y-16833929D01*
X14100357Y-16852976D01*
X14186071Y-16672024D02*
X14195595Y-16662500D01*
X14214643Y-16652976D01*
X14262262Y-16652976D01*
X14281309Y-16662500D01*
X14290833Y-16672024D01*
X14300357Y-16691071D01*
X14300357Y-16710119D01*
X14290833Y-16738690D01*
X14176547Y-16852976D01*
X14300357Y-16852976D01*
X14367024Y-16652976D02*
X14490833Y-16652976D01*
X14424166Y-16729167D01*
X14452738Y-16729167D01*
X14471786Y-16738690D01*
X14481309Y-16748214D01*
X14490833Y-16767262D01*
X14490833Y-16814881D01*
X14481309Y-16833929D01*
X14471786Y-16843452D01*
X14452738Y-16852976D01*
X14395595Y-16852976D01*
X14376547Y-16843452D01*
X14367024Y-16833929D01*
X14662262Y-16652976D02*
X14624166Y-16652976D01*
X14605119Y-16662500D01*
X14595595Y-16672024D01*
X14576547Y-16700595D01*
X14567024Y-16738690D01*
X14567024Y-16814881D01*
X14576547Y-16833929D01*
X14586071Y-16843452D01*
X14605119Y-16852976D01*
X14643214Y-16852976D01*
X14662262Y-16843452D01*
X14671786Y-16833929D01*
X14681309Y-16814881D01*
X14681309Y-16767262D01*
X14671786Y-16748214D01*
X14662262Y-16738690D01*
X14643214Y-16729167D01*
X14605119Y-16729167D01*
X14586071Y-16738690D01*
X14576547Y-16748214D01*
X14567024Y-16767262D01*
X14757500Y-16672024D02*
X14767024Y-16662500D01*
X14786071Y-16652976D01*
X14833690Y-16652976D01*
X14852738Y-16662500D01*
X14862262Y-16672024D01*
X14871786Y-16691071D01*
X14871786Y-16710119D01*
X14862262Y-16738690D01*
X14747976Y-16852976D01*
X14871786Y-16852976D01*
X14947976Y-16652976D02*
X14947976Y-16691071D01*
X15024166Y-16652976D02*
X15024166Y-16691071D01*
X15319405Y-16929167D02*
X15309881Y-16919643D01*
X15290833Y-16891071D01*
X15281309Y-16872024D01*
X15271786Y-16843452D01*
X15262262Y-16795833D01*
X15262262Y-16757738D01*
X15271786Y-16710119D01*
X15281309Y-16681548D01*
X15290833Y-16662500D01*
X15309881Y-16633928D01*
X15319405Y-16624405D01*
X15500357Y-16852976D02*
X15386071Y-16852976D01*
X15443214Y-16852976D02*
X15443214Y-16652976D01*
X15424166Y-16681548D01*
X15405119Y-16700595D01*
X15386071Y-16710119D01*
X15681309Y-16652976D02*
X15586071Y-16652976D01*
X15576547Y-16748214D01*
X15586071Y-16738690D01*
X15605119Y-16729167D01*
X15652738Y-16729167D01*
X15671786Y-16738690D01*
X15681309Y-16748214D01*
X15690833Y-16767262D01*
X15690833Y-16814881D01*
X15681309Y-16833929D01*
X15671786Y-16843452D01*
X15652738Y-16852976D01*
X15605119Y-16852976D01*
X15586071Y-16843452D01*
X15576547Y-16833929D01*
X15928928Y-16852976D02*
X15928928Y-16652976D01*
X16014643Y-16852976D02*
X16014643Y-16748214D01*
X16005119Y-16729167D01*
X15986071Y-16719643D01*
X15957500Y-16719643D01*
X15938452Y-16729167D01*
X15928928Y-16738690D01*
X16138452Y-16852976D02*
X16119405Y-16843452D01*
X16109881Y-16833929D01*
X16100357Y-16814881D01*
X16100357Y-16757738D01*
X16109881Y-16738690D01*
X16119405Y-16729167D01*
X16138452Y-16719643D01*
X16167024Y-16719643D01*
X16186071Y-16729167D01*
X16195595Y-16738690D01*
X16205119Y-16757738D01*
X16205119Y-16814881D01*
X16195595Y-16833929D01*
X16186071Y-16843452D01*
X16167024Y-16852976D01*
X16138452Y-16852976D01*
X16319405Y-16852976D02*
X16300357Y-16843452D01*
X16290833Y-16824405D01*
X16290833Y-16652976D01*
X16471786Y-16843452D02*
X16452738Y-16852976D01*
X16414643Y-16852976D01*
X16395595Y-16843452D01*
X16386071Y-16824405D01*
X16386071Y-16748214D01*
X16395595Y-16729167D01*
X16414643Y-16719643D01*
X16452738Y-16719643D01*
X16471786Y-16729167D01*
X16481309Y-16748214D01*
X16481309Y-16767262D01*
X16386071Y-16786310D01*
X16557500Y-16843452D02*
X16576547Y-16852976D01*
X16614643Y-16852976D01*
X16633690Y-16843452D01*
X16643214Y-16824405D01*
X16643214Y-16814881D01*
X16633690Y-16795833D01*
X16614643Y-16786310D01*
X16586071Y-16786310D01*
X16567024Y-16776786D01*
X16557500Y-16757738D01*
X16557500Y-16748214D01*
X16567024Y-16729167D01*
X16586071Y-16719643D01*
X16614643Y-16719643D01*
X16633690Y-16729167D01*
X16709881Y-16929167D02*
X16719405Y-16919643D01*
X16738452Y-16891071D01*
X16747976Y-16872024D01*
X16757500Y-16843452D01*
X16767024Y-16795833D01*
X16767024Y-16757738D01*
X16757500Y-16710119D01*
X16747976Y-16681548D01*
X16738452Y-16662500D01*
X16719405Y-16633928D01*
X16709881Y-16624405D01*
M02*
