%FSLAX45Y45*%
G04 Gerber Fmt 4.5, Leading zero omitted, Abs format (unit mm)*
G04 Created by KiCad (PCBNEW (6.0.6)) date 2022-11-24 12:51:04*
%MOMM*%
%LPD*%
G01*
G04 APERTURE LIST*
%TA.AperFunction,Profile*%
%ADD10C,0.050000*%
%TD*%
%ADD11C,0.200000*%
%ADD12C,0.300000*%
%ADD13C,0.600000*%
%ADD14C,0.650000*%
G04 APERTURE END LIST*
D10*
X12250000Y-3310000D02*
X12250000Y-16160000D01*
X6250000Y-16160000D02*
X6250000Y-15710000D01*
X6250000Y-3310000D02*
X6250000Y-15710000D01*
X12250000Y-16160000D02*
X6250000Y-16160000D01*
X6250000Y-3310000D02*
X12250000Y-3310000D01*
D11*
D12*
X7000000Y-3460000D02*
X7300000Y-3760000D01*
X7300000Y-3460000D02*
X7000000Y-3760000D01*
D11*
X7025000Y-3760000D02*
X7275000Y-3760000D01*
X7025000Y-3460000D02*
X7275000Y-3460000D01*
X7275000Y-3760000D02*
G75*
G03*
X7275000Y-3460000I0J150000D01*
G01*
X7025000Y-3460000D02*
G75*
G03*
X7025000Y-3760000I0J-150000D01*
G01*
D12*
X7000000Y-15710000D02*
X7300000Y-16010000D01*
X7300000Y-15710000D02*
X7000000Y-16010000D01*
D11*
X7025000Y-16010000D02*
X7275000Y-16010000D01*
X7025000Y-15710000D02*
X7275000Y-15710000D01*
X7275000Y-16010000D02*
G75*
G03*
X7275000Y-15710000I0J150000D01*
G01*
X7025000Y-15710000D02*
G75*
G03*
X7025000Y-16010000I0J-150000D01*
G01*
D12*
X11200000Y-3460000D02*
X11500000Y-3760000D01*
X11500000Y-3460000D02*
X11200000Y-3760000D01*
D11*
X11225000Y-3760000D02*
X11475000Y-3760000D01*
X11225000Y-3460000D02*
X11475000Y-3460000D01*
X11475000Y-3760000D02*
G75*
G03*
X11475000Y-3460000I0J150000D01*
G01*
X11225000Y-3460000D02*
G75*
G03*
X11225000Y-3760000I0J-150000D01*
G01*
D12*
X11200000Y-15710000D02*
X11500000Y-16010000D01*
X11500000Y-15710000D02*
X11200000Y-16010000D01*
D11*
X11225000Y-16010000D02*
X11475000Y-16010000D01*
X11225000Y-15710000D02*
X11475000Y-15710000D01*
X11475000Y-16010000D02*
G75*
G03*
X11475000Y-15710000I0J150000D01*
G01*
X11225000Y-15710000D02*
G75*
G03*
X11225000Y-16010000I0J-150000D01*
G01*
D13*
X8550000Y-8660000D02*
G75*
G03*
X8550000Y-8660000I-300000J0D01*
G01*
X8550000Y-14560000D02*
G75*
G03*
X8550000Y-14560000I-300000J0D01*
G01*
X9550000Y-8660000D02*
G75*
G03*
X9550000Y-8660000I-300000J0D01*
G01*
X9550000Y-14560000D02*
G75*
G03*
X9550000Y-14560000I-300000J0D01*
G01*
X10550000Y-8660000D02*
G75*
G03*
X10550000Y-8660000I-300000J0D01*
G01*
X10550000Y-14560000D02*
G75*
G03*
X10550000Y-14560000I-300000J0D01*
G01*
D14*
X7450000Y-10585000D02*
X7450000Y-11235000D01*
X7125000Y-10910000D02*
X7775000Y-10910000D01*
X7750000Y-4635000D02*
X7750000Y-5285000D01*
X7425000Y-4960000D02*
X8075000Y-4960000D01*
X7950000Y-6635000D02*
X7950000Y-7285000D01*
X7625000Y-6960000D02*
X8275000Y-6960000D01*
X7950000Y-12535000D02*
X7950000Y-13185000D01*
X7625000Y-12860000D02*
X8275000Y-12860000D01*
X8600000Y-9435000D02*
X8600000Y-10085000D01*
X8275000Y-9760000D02*
X8925000Y-9760000D01*
X10550000Y-6635000D02*
X10550000Y-7285000D01*
X10225000Y-6960000D02*
X10875000Y-6960000D01*
X10550000Y-12535000D02*
X10550000Y-13185000D01*
X10225000Y-12860000D02*
X10875000Y-12860000D01*
X10750000Y-10535000D02*
X10750000Y-11185000D01*
X10425000Y-10860000D02*
X11075000Y-10860000D01*
X11050000Y-4685000D02*
X11050000Y-5335000D01*
X10725000Y-5010000D02*
X11375000Y-5010000D01*
D11*
X6505119Y-16472976D02*
X6505119Y-16272976D01*
X6552738Y-16272976D01*
X6581309Y-16282500D01*
X6600357Y-16301548D01*
X6609881Y-16320595D01*
X6619405Y-16358690D01*
X6619405Y-16387262D01*
X6609881Y-16425357D01*
X6600357Y-16444405D01*
X6581309Y-16463452D01*
X6552738Y-16472976D01*
X6505119Y-16472976D01*
X6705119Y-16472976D02*
X6705119Y-16339643D01*
X6705119Y-16377738D02*
X6714643Y-16358690D01*
X6724166Y-16349167D01*
X6743214Y-16339643D01*
X6762262Y-16339643D01*
X6828928Y-16472976D02*
X6828928Y-16339643D01*
X6828928Y-16272976D02*
X6819405Y-16282500D01*
X6828928Y-16292024D01*
X6838452Y-16282500D01*
X6828928Y-16272976D01*
X6828928Y-16292024D01*
X6952738Y-16472976D02*
X6933690Y-16463452D01*
X6924166Y-16444405D01*
X6924166Y-16272976D01*
X7057500Y-16472976D02*
X7038452Y-16463452D01*
X7028928Y-16444405D01*
X7028928Y-16272976D01*
X7286071Y-16472976D02*
X7286071Y-16272976D01*
X7352738Y-16415833D01*
X7419405Y-16272976D01*
X7419405Y-16472976D01*
X7600357Y-16472976D02*
X7600357Y-16368214D01*
X7590833Y-16349167D01*
X7571786Y-16339643D01*
X7533690Y-16339643D01*
X7514643Y-16349167D01*
X7600357Y-16463452D02*
X7581309Y-16472976D01*
X7533690Y-16472976D01*
X7514643Y-16463452D01*
X7505119Y-16444405D01*
X7505119Y-16425357D01*
X7514643Y-16406309D01*
X7533690Y-16396786D01*
X7581309Y-16396786D01*
X7600357Y-16387262D01*
X7695595Y-16339643D02*
X7695595Y-16539643D01*
X7695595Y-16349167D02*
X7714643Y-16339643D01*
X7752738Y-16339643D01*
X7771786Y-16349167D01*
X7781309Y-16358690D01*
X7790833Y-16377738D01*
X7790833Y-16434881D01*
X7781309Y-16453928D01*
X7771786Y-16463452D01*
X7752738Y-16472976D01*
X7714643Y-16472976D01*
X7695595Y-16463452D01*
X7876547Y-16453928D02*
X7886071Y-16463452D01*
X7876547Y-16472976D01*
X7867024Y-16463452D01*
X7876547Y-16453928D01*
X7876547Y-16472976D01*
X7876547Y-16349167D02*
X7886071Y-16358690D01*
X7876547Y-16368214D01*
X7867024Y-16358690D01*
X7876547Y-16349167D01*
X7876547Y-16368214D01*
X6047500Y-16702500D02*
X6247500Y-16902500D01*
X6247500Y-16702500D02*
X6047500Y-16902500D01*
X6486071Y-16692976D02*
X6609881Y-16692976D01*
X6543214Y-16769167D01*
X6571786Y-16769167D01*
X6590833Y-16778690D01*
X6600357Y-16788214D01*
X6609881Y-16807262D01*
X6609881Y-16854881D01*
X6600357Y-16873929D01*
X6590833Y-16883452D01*
X6571786Y-16892976D01*
X6514643Y-16892976D01*
X6495595Y-16883452D01*
X6486071Y-16873929D01*
X6695595Y-16873929D02*
X6705119Y-16883452D01*
X6695595Y-16892976D01*
X6686071Y-16883452D01*
X6695595Y-16873929D01*
X6695595Y-16892976D01*
X6828928Y-16692976D02*
X6847976Y-16692976D01*
X6867024Y-16702500D01*
X6876547Y-16712024D01*
X6886071Y-16731071D01*
X6895595Y-16769167D01*
X6895595Y-16816786D01*
X6886071Y-16854881D01*
X6876547Y-16873929D01*
X6867024Y-16883452D01*
X6847976Y-16892976D01*
X6828928Y-16892976D01*
X6809881Y-16883452D01*
X6800357Y-16873929D01*
X6790833Y-16854881D01*
X6781309Y-16816786D01*
X6781309Y-16769167D01*
X6790833Y-16731071D01*
X6800357Y-16712024D01*
X6809881Y-16702500D01*
X6828928Y-16692976D01*
X7019405Y-16692976D02*
X7038452Y-16692976D01*
X7057500Y-16702500D01*
X7067024Y-16712024D01*
X7076547Y-16731071D01*
X7086071Y-16769167D01*
X7086071Y-16816786D01*
X7076547Y-16854881D01*
X7067024Y-16873929D01*
X7057500Y-16883452D01*
X7038452Y-16892976D01*
X7019405Y-16892976D01*
X7000357Y-16883452D01*
X6990833Y-16873929D01*
X6981309Y-16854881D01*
X6971786Y-16816786D01*
X6971786Y-16769167D01*
X6981309Y-16731071D01*
X6990833Y-16712024D01*
X7000357Y-16702500D01*
X7019405Y-16692976D01*
X7209881Y-16692976D02*
X7228928Y-16692976D01*
X7247976Y-16702500D01*
X7257500Y-16712024D01*
X7267024Y-16731071D01*
X7276547Y-16769167D01*
X7276547Y-16816786D01*
X7267024Y-16854881D01*
X7257500Y-16873929D01*
X7247976Y-16883452D01*
X7228928Y-16892976D01*
X7209881Y-16892976D01*
X7190833Y-16883452D01*
X7181309Y-16873929D01*
X7171786Y-16854881D01*
X7162262Y-16816786D01*
X7162262Y-16769167D01*
X7171786Y-16731071D01*
X7181309Y-16712024D01*
X7190833Y-16702500D01*
X7209881Y-16692976D01*
X7362262Y-16892976D02*
X7362262Y-16759643D01*
X7362262Y-16778690D02*
X7371786Y-16769167D01*
X7390833Y-16759643D01*
X7419405Y-16759643D01*
X7438452Y-16769167D01*
X7447976Y-16788214D01*
X7447976Y-16892976D01*
X7447976Y-16788214D02*
X7457500Y-16769167D01*
X7476547Y-16759643D01*
X7505119Y-16759643D01*
X7524166Y-16769167D01*
X7533690Y-16788214D01*
X7533690Y-16892976D01*
X7628928Y-16892976D02*
X7628928Y-16759643D01*
X7628928Y-16778690D02*
X7638452Y-16769167D01*
X7657500Y-16759643D01*
X7686071Y-16759643D01*
X7705119Y-16769167D01*
X7714643Y-16788214D01*
X7714643Y-16892976D01*
X7714643Y-16788214D02*
X7724166Y-16769167D01*
X7743214Y-16759643D01*
X7771786Y-16759643D01*
X7790833Y-16769167D01*
X7800357Y-16788214D01*
X7800357Y-16892976D01*
X8190833Y-16683452D02*
X8019405Y-16940595D01*
X8447976Y-16692976D02*
X8467024Y-16692976D01*
X8486071Y-16702500D01*
X8495595Y-16712024D01*
X8505119Y-16731071D01*
X8514643Y-16769167D01*
X8514643Y-16816786D01*
X8505119Y-16854881D01*
X8495595Y-16873929D01*
X8486071Y-16883452D01*
X8467024Y-16892976D01*
X8447976Y-16892976D01*
X8428928Y-16883452D01*
X8419405Y-16873929D01*
X8409881Y-16854881D01*
X8400357Y-16816786D01*
X8400357Y-16769167D01*
X8409881Y-16731071D01*
X8419405Y-16712024D01*
X8428928Y-16702500D01*
X8447976Y-16692976D01*
X8600357Y-16873929D02*
X8609881Y-16883452D01*
X8600357Y-16892976D01*
X8590833Y-16883452D01*
X8600357Y-16873929D01*
X8600357Y-16892976D01*
X8800357Y-16892976D02*
X8686071Y-16892976D01*
X8743214Y-16892976D02*
X8743214Y-16692976D01*
X8724167Y-16721548D01*
X8705119Y-16740595D01*
X8686071Y-16750119D01*
X8990833Y-16892976D02*
X8876548Y-16892976D01*
X8933690Y-16892976D02*
X8933690Y-16692976D01*
X8914643Y-16721548D01*
X8895595Y-16740595D01*
X8876548Y-16750119D01*
X9105119Y-16778690D02*
X9086071Y-16769167D01*
X9076548Y-16759643D01*
X9067024Y-16740595D01*
X9067024Y-16731071D01*
X9076548Y-16712024D01*
X9086071Y-16702500D01*
X9105119Y-16692976D01*
X9143214Y-16692976D01*
X9162262Y-16702500D01*
X9171786Y-16712024D01*
X9181309Y-16731071D01*
X9181309Y-16740595D01*
X9171786Y-16759643D01*
X9162262Y-16769167D01*
X9143214Y-16778690D01*
X9105119Y-16778690D01*
X9086071Y-16788214D01*
X9076548Y-16797738D01*
X9067024Y-16816786D01*
X9067024Y-16854881D01*
X9076548Y-16873929D01*
X9086071Y-16883452D01*
X9105119Y-16892976D01*
X9143214Y-16892976D01*
X9162262Y-16883452D01*
X9171786Y-16873929D01*
X9181309Y-16854881D01*
X9181309Y-16816786D01*
X9171786Y-16797738D01*
X9162262Y-16788214D01*
X9143214Y-16778690D01*
X9371786Y-16892976D02*
X9257500Y-16892976D01*
X9314643Y-16892976D02*
X9314643Y-16692976D01*
X9295595Y-16721548D01*
X9276548Y-16740595D01*
X9257500Y-16750119D01*
X9447976Y-16692976D02*
X9447976Y-16731071D01*
X9524167Y-16692976D02*
X9524167Y-16731071D01*
X9819405Y-16969167D02*
X9809881Y-16959643D01*
X9790833Y-16931071D01*
X9781309Y-16912024D01*
X9771786Y-16883452D01*
X9762262Y-16835833D01*
X9762262Y-16797738D01*
X9771786Y-16750119D01*
X9781309Y-16721548D01*
X9790833Y-16702500D01*
X9809881Y-16673928D01*
X9819405Y-16664405D01*
X9933690Y-16692976D02*
X9952738Y-16692976D01*
X9971786Y-16702500D01*
X9981309Y-16712024D01*
X9990833Y-16731071D01*
X10000357Y-16769167D01*
X10000357Y-16816786D01*
X9990833Y-16854881D01*
X9981309Y-16873929D01*
X9971786Y-16883452D01*
X9952738Y-16892976D01*
X9933690Y-16892976D01*
X9914643Y-16883452D01*
X9905119Y-16873929D01*
X9895595Y-16854881D01*
X9886071Y-16816786D01*
X9886071Y-16769167D01*
X9895595Y-16731071D01*
X9905119Y-16712024D01*
X9914643Y-16702500D01*
X9933690Y-16692976D01*
X10238452Y-16892976D02*
X10238452Y-16692976D01*
X10324167Y-16892976D02*
X10324167Y-16788214D01*
X10314643Y-16769167D01*
X10295595Y-16759643D01*
X10267024Y-16759643D01*
X10247976Y-16769167D01*
X10238452Y-16778690D01*
X10447976Y-16892976D02*
X10428928Y-16883452D01*
X10419405Y-16873929D01*
X10409881Y-16854881D01*
X10409881Y-16797738D01*
X10419405Y-16778690D01*
X10428928Y-16769167D01*
X10447976Y-16759643D01*
X10476548Y-16759643D01*
X10495595Y-16769167D01*
X10505119Y-16778690D01*
X10514643Y-16797738D01*
X10514643Y-16854881D01*
X10505119Y-16873929D01*
X10495595Y-16883452D01*
X10476548Y-16892976D01*
X10447976Y-16892976D01*
X10628928Y-16892976D02*
X10609881Y-16883452D01*
X10600357Y-16864405D01*
X10600357Y-16692976D01*
X10781309Y-16883452D02*
X10762262Y-16892976D01*
X10724167Y-16892976D01*
X10705119Y-16883452D01*
X10695595Y-16864405D01*
X10695595Y-16788214D01*
X10705119Y-16769167D01*
X10724167Y-16759643D01*
X10762262Y-16759643D01*
X10781309Y-16769167D01*
X10790833Y-16788214D01*
X10790833Y-16807262D01*
X10695595Y-16826310D01*
X10867024Y-16883452D02*
X10886071Y-16892976D01*
X10924167Y-16892976D01*
X10943214Y-16883452D01*
X10952738Y-16864405D01*
X10952738Y-16854881D01*
X10943214Y-16835833D01*
X10924167Y-16826310D01*
X10895595Y-16826310D01*
X10876548Y-16816786D01*
X10867024Y-16797738D01*
X10867024Y-16788214D01*
X10876548Y-16769167D01*
X10895595Y-16759643D01*
X10924167Y-16759643D01*
X10943214Y-16769167D01*
X11190833Y-16816786D02*
X11343214Y-16816786D01*
X11267024Y-16892976D02*
X11267024Y-16740595D01*
X11676547Y-16759643D02*
X11676547Y-16892976D01*
X11628928Y-16683452D02*
X11581309Y-16826310D01*
X11705119Y-16826310D01*
X11924166Y-16883452D02*
X11943214Y-16892976D01*
X11981309Y-16892976D01*
X12000357Y-16883452D01*
X12009881Y-16864405D01*
X12009881Y-16854881D01*
X12000357Y-16835833D01*
X11981309Y-16826310D01*
X11952738Y-16826310D01*
X11933690Y-16816786D01*
X11924166Y-16797738D01*
X11924166Y-16788214D01*
X11933690Y-16769167D01*
X11952738Y-16759643D01*
X11981309Y-16759643D01*
X12000357Y-16769167D01*
X12124166Y-16892976D02*
X12105119Y-16883452D01*
X12095595Y-16864405D01*
X12095595Y-16692976D01*
X12228928Y-16892976D02*
X12209881Y-16883452D01*
X12200357Y-16873929D01*
X12190833Y-16854881D01*
X12190833Y-16797738D01*
X12200357Y-16778690D01*
X12209881Y-16769167D01*
X12228928Y-16759643D01*
X12257500Y-16759643D01*
X12276547Y-16769167D01*
X12286071Y-16778690D01*
X12295595Y-16797738D01*
X12295595Y-16854881D01*
X12286071Y-16873929D01*
X12276547Y-16883452D01*
X12257500Y-16892976D01*
X12228928Y-16892976D01*
X12352738Y-16759643D02*
X12428928Y-16759643D01*
X12381309Y-16692976D02*
X12381309Y-16864405D01*
X12390833Y-16883452D01*
X12409881Y-16892976D01*
X12428928Y-16892976D01*
X12486071Y-16883452D02*
X12505119Y-16892976D01*
X12543214Y-16892976D01*
X12562262Y-16883452D01*
X12571786Y-16864405D01*
X12571786Y-16854881D01*
X12562262Y-16835833D01*
X12543214Y-16826310D01*
X12514643Y-16826310D01*
X12495595Y-16816786D01*
X12486071Y-16797738D01*
X12486071Y-16788214D01*
X12495595Y-16769167D01*
X12514643Y-16759643D01*
X12543214Y-16759643D01*
X12562262Y-16769167D01*
X12638452Y-16969167D02*
X12647976Y-16959643D01*
X12667024Y-16931071D01*
X12676547Y-16912024D01*
X12686071Y-16883452D01*
X12695595Y-16835833D01*
X12695595Y-16797738D01*
X12686071Y-16750119D01*
X12676547Y-16721548D01*
X12667024Y-16702500D01*
X12647976Y-16673928D01*
X12638452Y-16664405D01*
X6247500Y-17122500D02*
G75*
G03*
X6247500Y-17122500I-100000J0D01*
G01*
X6590833Y-17012976D02*
X6552738Y-17012976D01*
X6533690Y-17022500D01*
X6524166Y-17032024D01*
X6505119Y-17060595D01*
X6495595Y-17098690D01*
X6495595Y-17174881D01*
X6505119Y-17193929D01*
X6514643Y-17203452D01*
X6533690Y-17212976D01*
X6571786Y-17212976D01*
X6590833Y-17203452D01*
X6600357Y-17193929D01*
X6609881Y-17174881D01*
X6609881Y-17127262D01*
X6600357Y-17108214D01*
X6590833Y-17098690D01*
X6571786Y-17089167D01*
X6533690Y-17089167D01*
X6514643Y-17098690D01*
X6505119Y-17108214D01*
X6495595Y-17127262D01*
X6695595Y-17193929D02*
X6705119Y-17203452D01*
X6695595Y-17212976D01*
X6686071Y-17203452D01*
X6695595Y-17193929D01*
X6695595Y-17212976D01*
X6828928Y-17012976D02*
X6847976Y-17012976D01*
X6867024Y-17022500D01*
X6876547Y-17032024D01*
X6886071Y-17051071D01*
X6895595Y-17089167D01*
X6895595Y-17136786D01*
X6886071Y-17174881D01*
X6876547Y-17193929D01*
X6867024Y-17203452D01*
X6847976Y-17212976D01*
X6828928Y-17212976D01*
X6809881Y-17203452D01*
X6800357Y-17193929D01*
X6790833Y-17174881D01*
X6781309Y-17136786D01*
X6781309Y-17089167D01*
X6790833Y-17051071D01*
X6800357Y-17032024D01*
X6809881Y-17022500D01*
X6828928Y-17012976D01*
X7019405Y-17012976D02*
X7038452Y-17012976D01*
X7057500Y-17022500D01*
X7067024Y-17032024D01*
X7076547Y-17051071D01*
X7086071Y-17089167D01*
X7086071Y-17136786D01*
X7076547Y-17174881D01*
X7067024Y-17193929D01*
X7057500Y-17203452D01*
X7038452Y-17212976D01*
X7019405Y-17212976D01*
X7000357Y-17203452D01*
X6990833Y-17193929D01*
X6981309Y-17174881D01*
X6971786Y-17136786D01*
X6971786Y-17089167D01*
X6981309Y-17051071D01*
X6990833Y-17032024D01*
X7000357Y-17022500D01*
X7019405Y-17012976D01*
X7209881Y-17012976D02*
X7228928Y-17012976D01*
X7247976Y-17022500D01*
X7257500Y-17032024D01*
X7267024Y-17051071D01*
X7276547Y-17089167D01*
X7276547Y-17136786D01*
X7267024Y-17174881D01*
X7257500Y-17193929D01*
X7247976Y-17203452D01*
X7228928Y-17212976D01*
X7209881Y-17212976D01*
X7190833Y-17203452D01*
X7181309Y-17193929D01*
X7171786Y-17174881D01*
X7162262Y-17136786D01*
X7162262Y-17089167D01*
X7171786Y-17051071D01*
X7181309Y-17032024D01*
X7190833Y-17022500D01*
X7209881Y-17012976D01*
X7362262Y-17212976D02*
X7362262Y-17079643D01*
X7362262Y-17098690D02*
X7371786Y-17089167D01*
X7390833Y-17079643D01*
X7419405Y-17079643D01*
X7438452Y-17089167D01*
X7447976Y-17108214D01*
X7447976Y-17212976D01*
X7447976Y-17108214D02*
X7457500Y-17089167D01*
X7476547Y-17079643D01*
X7505119Y-17079643D01*
X7524166Y-17089167D01*
X7533690Y-17108214D01*
X7533690Y-17212976D01*
X7628928Y-17212976D02*
X7628928Y-17079643D01*
X7628928Y-17098690D02*
X7638452Y-17089167D01*
X7657500Y-17079643D01*
X7686071Y-17079643D01*
X7705119Y-17089167D01*
X7714643Y-17108214D01*
X7714643Y-17212976D01*
X7714643Y-17108214D02*
X7724166Y-17089167D01*
X7743214Y-17079643D01*
X7771786Y-17079643D01*
X7790833Y-17089167D01*
X7800357Y-17108214D01*
X7800357Y-17212976D01*
X8190833Y-17003452D02*
X8019405Y-17260595D01*
X8447976Y-17012976D02*
X8467024Y-17012976D01*
X8486071Y-17022500D01*
X8495595Y-17032024D01*
X8505119Y-17051071D01*
X8514643Y-17089167D01*
X8514643Y-17136786D01*
X8505119Y-17174881D01*
X8495595Y-17193929D01*
X8486071Y-17203452D01*
X8467024Y-17212976D01*
X8447976Y-17212976D01*
X8428928Y-17203452D01*
X8419405Y-17193929D01*
X8409881Y-17174881D01*
X8400357Y-17136786D01*
X8400357Y-17089167D01*
X8409881Y-17051071D01*
X8419405Y-17032024D01*
X8428928Y-17022500D01*
X8447976Y-17012976D01*
X8600357Y-17193929D02*
X8609881Y-17203452D01*
X8600357Y-17212976D01*
X8590833Y-17203452D01*
X8600357Y-17193929D01*
X8600357Y-17212976D01*
X8686071Y-17032024D02*
X8695595Y-17022500D01*
X8714643Y-17012976D01*
X8762262Y-17012976D01*
X8781309Y-17022500D01*
X8790833Y-17032024D01*
X8800357Y-17051071D01*
X8800357Y-17070119D01*
X8790833Y-17098690D01*
X8676548Y-17212976D01*
X8800357Y-17212976D01*
X8867024Y-17012976D02*
X8990833Y-17012976D01*
X8924167Y-17089167D01*
X8952738Y-17089167D01*
X8971786Y-17098690D01*
X8981309Y-17108214D01*
X8990833Y-17127262D01*
X8990833Y-17174881D01*
X8981309Y-17193929D01*
X8971786Y-17203452D01*
X8952738Y-17212976D01*
X8895595Y-17212976D01*
X8876548Y-17203452D01*
X8867024Y-17193929D01*
X9162262Y-17012976D02*
X9124167Y-17012976D01*
X9105119Y-17022500D01*
X9095595Y-17032024D01*
X9076548Y-17060595D01*
X9067024Y-17098690D01*
X9067024Y-17174881D01*
X9076548Y-17193929D01*
X9086071Y-17203452D01*
X9105119Y-17212976D01*
X9143214Y-17212976D01*
X9162262Y-17203452D01*
X9171786Y-17193929D01*
X9181309Y-17174881D01*
X9181309Y-17127262D01*
X9171786Y-17108214D01*
X9162262Y-17098690D01*
X9143214Y-17089167D01*
X9105119Y-17089167D01*
X9086071Y-17098690D01*
X9076548Y-17108214D01*
X9067024Y-17127262D01*
X9257500Y-17032024D02*
X9267024Y-17022500D01*
X9286071Y-17012976D01*
X9333690Y-17012976D01*
X9352738Y-17022500D01*
X9362262Y-17032024D01*
X9371786Y-17051071D01*
X9371786Y-17070119D01*
X9362262Y-17098690D01*
X9247976Y-17212976D01*
X9371786Y-17212976D01*
X9447976Y-17012976D02*
X9447976Y-17051071D01*
X9524167Y-17012976D02*
X9524167Y-17051071D01*
X9819405Y-17289167D02*
X9809881Y-17279643D01*
X9790833Y-17251071D01*
X9781309Y-17232024D01*
X9771786Y-17203452D01*
X9762262Y-17155833D01*
X9762262Y-17117738D01*
X9771786Y-17070119D01*
X9781309Y-17041548D01*
X9790833Y-17022500D01*
X9809881Y-16993929D01*
X9819405Y-16984405D01*
X9981309Y-17012976D02*
X9943214Y-17012976D01*
X9924167Y-17022500D01*
X9914643Y-17032024D01*
X9895595Y-17060595D01*
X9886071Y-17098690D01*
X9886071Y-17174881D01*
X9895595Y-17193929D01*
X9905119Y-17203452D01*
X9924167Y-17212976D01*
X9962262Y-17212976D01*
X9981309Y-17203452D01*
X9990833Y-17193929D01*
X10000357Y-17174881D01*
X10000357Y-17127262D01*
X9990833Y-17108214D01*
X9981309Y-17098690D01*
X9962262Y-17089167D01*
X9924167Y-17089167D01*
X9905119Y-17098690D01*
X9895595Y-17108214D01*
X9886071Y-17127262D01*
X10238452Y-17212976D02*
X10238452Y-17012976D01*
X10324167Y-17212976D02*
X10324167Y-17108214D01*
X10314643Y-17089167D01*
X10295595Y-17079643D01*
X10267024Y-17079643D01*
X10247976Y-17089167D01*
X10238452Y-17098690D01*
X10447976Y-17212976D02*
X10428928Y-17203452D01*
X10419405Y-17193929D01*
X10409881Y-17174881D01*
X10409881Y-17117738D01*
X10419405Y-17098690D01*
X10428928Y-17089167D01*
X10447976Y-17079643D01*
X10476548Y-17079643D01*
X10495595Y-17089167D01*
X10505119Y-17098690D01*
X10514643Y-17117738D01*
X10514643Y-17174881D01*
X10505119Y-17193929D01*
X10495595Y-17203452D01*
X10476548Y-17212976D01*
X10447976Y-17212976D01*
X10628928Y-17212976D02*
X10609881Y-17203452D01*
X10600357Y-17184405D01*
X10600357Y-17012976D01*
X10781309Y-17203452D02*
X10762262Y-17212976D01*
X10724167Y-17212976D01*
X10705119Y-17203452D01*
X10695595Y-17184405D01*
X10695595Y-17108214D01*
X10705119Y-17089167D01*
X10724167Y-17079643D01*
X10762262Y-17079643D01*
X10781309Y-17089167D01*
X10790833Y-17108214D01*
X10790833Y-17127262D01*
X10695595Y-17146310D01*
X10867024Y-17203452D02*
X10886071Y-17212976D01*
X10924167Y-17212976D01*
X10943214Y-17203452D01*
X10952738Y-17184405D01*
X10952738Y-17174881D01*
X10943214Y-17155833D01*
X10924167Y-17146310D01*
X10895595Y-17146310D01*
X10876548Y-17136786D01*
X10867024Y-17117738D01*
X10867024Y-17108214D01*
X10876548Y-17089167D01*
X10895595Y-17079643D01*
X10924167Y-17079643D01*
X10943214Y-17089167D01*
X11019405Y-17289167D02*
X11028928Y-17279643D01*
X11047976Y-17251071D01*
X11057500Y-17232024D01*
X11067024Y-17203452D01*
X11076548Y-17155833D01*
X11076548Y-17117738D01*
X11067024Y-17070119D01*
X11057500Y-17041548D01*
X11047976Y-17022500D01*
X11028928Y-16993929D01*
X11019405Y-16984405D01*
X6147500Y-17342500D02*
X6147500Y-17542500D01*
X6047500Y-17442500D02*
X6247500Y-17442500D01*
X6590833Y-17332976D02*
X6552738Y-17332976D01*
X6533690Y-17342500D01*
X6524166Y-17352024D01*
X6505119Y-17380595D01*
X6495595Y-17418690D01*
X6495595Y-17494881D01*
X6505119Y-17513929D01*
X6514643Y-17523452D01*
X6533690Y-17532976D01*
X6571786Y-17532976D01*
X6590833Y-17523452D01*
X6600357Y-17513929D01*
X6609881Y-17494881D01*
X6609881Y-17447262D01*
X6600357Y-17428214D01*
X6590833Y-17418690D01*
X6571786Y-17409167D01*
X6533690Y-17409167D01*
X6514643Y-17418690D01*
X6505119Y-17428214D01*
X6495595Y-17447262D01*
X6695595Y-17513929D02*
X6705119Y-17523452D01*
X6695595Y-17532976D01*
X6686071Y-17523452D01*
X6695595Y-17513929D01*
X6695595Y-17532976D01*
X6886071Y-17332976D02*
X6790833Y-17332976D01*
X6781309Y-17428214D01*
X6790833Y-17418690D01*
X6809881Y-17409167D01*
X6857500Y-17409167D01*
X6876547Y-17418690D01*
X6886071Y-17428214D01*
X6895595Y-17447262D01*
X6895595Y-17494881D01*
X6886071Y-17513929D01*
X6876547Y-17523452D01*
X6857500Y-17532976D01*
X6809881Y-17532976D01*
X6790833Y-17523452D01*
X6781309Y-17513929D01*
X7019405Y-17332976D02*
X7038452Y-17332976D01*
X7057500Y-17342500D01*
X7067024Y-17352024D01*
X7076547Y-17371071D01*
X7086071Y-17409167D01*
X7086071Y-17456786D01*
X7076547Y-17494881D01*
X7067024Y-17513929D01*
X7057500Y-17523452D01*
X7038452Y-17532976D01*
X7019405Y-17532976D01*
X7000357Y-17523452D01*
X6990833Y-17513929D01*
X6981309Y-17494881D01*
X6971786Y-17456786D01*
X6971786Y-17409167D01*
X6981309Y-17371071D01*
X6990833Y-17352024D01*
X7000357Y-17342500D01*
X7019405Y-17332976D01*
X7209881Y-17332976D02*
X7228928Y-17332976D01*
X7247976Y-17342500D01*
X7257500Y-17352024D01*
X7267024Y-17371071D01*
X7276547Y-17409167D01*
X7276547Y-17456786D01*
X7267024Y-17494881D01*
X7257500Y-17513929D01*
X7247976Y-17523452D01*
X7228928Y-17532976D01*
X7209881Y-17532976D01*
X7190833Y-17523452D01*
X7181309Y-17513929D01*
X7171786Y-17494881D01*
X7162262Y-17456786D01*
X7162262Y-17409167D01*
X7171786Y-17371071D01*
X7181309Y-17352024D01*
X7190833Y-17342500D01*
X7209881Y-17332976D01*
X7362262Y-17532976D02*
X7362262Y-17399643D01*
X7362262Y-17418690D02*
X7371786Y-17409167D01*
X7390833Y-17399643D01*
X7419405Y-17399643D01*
X7438452Y-17409167D01*
X7447976Y-17428214D01*
X7447976Y-17532976D01*
X7447976Y-17428214D02*
X7457500Y-17409167D01*
X7476547Y-17399643D01*
X7505119Y-17399643D01*
X7524166Y-17409167D01*
X7533690Y-17428214D01*
X7533690Y-17532976D01*
X7628928Y-17532976D02*
X7628928Y-17399643D01*
X7628928Y-17418690D02*
X7638452Y-17409167D01*
X7657500Y-17399643D01*
X7686071Y-17399643D01*
X7705119Y-17409167D01*
X7714643Y-17428214D01*
X7714643Y-17532976D01*
X7714643Y-17428214D02*
X7724166Y-17409167D01*
X7743214Y-17399643D01*
X7771786Y-17399643D01*
X7790833Y-17409167D01*
X7800357Y-17428214D01*
X7800357Y-17532976D01*
X8190833Y-17323452D02*
X8019405Y-17580595D01*
X8447976Y-17332976D02*
X8467024Y-17332976D01*
X8486071Y-17342500D01*
X8495595Y-17352024D01*
X8505119Y-17371071D01*
X8514643Y-17409167D01*
X8514643Y-17456786D01*
X8505119Y-17494881D01*
X8495595Y-17513929D01*
X8486071Y-17523452D01*
X8467024Y-17532976D01*
X8447976Y-17532976D01*
X8428928Y-17523452D01*
X8419405Y-17513929D01*
X8409881Y-17494881D01*
X8400357Y-17456786D01*
X8400357Y-17409167D01*
X8409881Y-17371071D01*
X8419405Y-17352024D01*
X8428928Y-17342500D01*
X8447976Y-17332976D01*
X8600357Y-17513929D02*
X8609881Y-17523452D01*
X8600357Y-17532976D01*
X8590833Y-17523452D01*
X8600357Y-17513929D01*
X8600357Y-17532976D01*
X8686071Y-17352024D02*
X8695595Y-17342500D01*
X8714643Y-17332976D01*
X8762262Y-17332976D01*
X8781309Y-17342500D01*
X8790833Y-17352024D01*
X8800357Y-17371071D01*
X8800357Y-17390119D01*
X8790833Y-17418690D01*
X8676548Y-17532976D01*
X8800357Y-17532976D01*
X8981309Y-17332976D02*
X8886071Y-17332976D01*
X8876548Y-17428214D01*
X8886071Y-17418690D01*
X8905119Y-17409167D01*
X8952738Y-17409167D01*
X8971786Y-17418690D01*
X8981309Y-17428214D01*
X8990833Y-17447262D01*
X8990833Y-17494881D01*
X8981309Y-17513929D01*
X8971786Y-17523452D01*
X8952738Y-17532976D01*
X8905119Y-17532976D01*
X8886071Y-17523452D01*
X8876548Y-17513929D01*
X9171786Y-17332976D02*
X9076548Y-17332976D01*
X9067024Y-17428214D01*
X9076548Y-17418690D01*
X9095595Y-17409167D01*
X9143214Y-17409167D01*
X9162262Y-17418690D01*
X9171786Y-17428214D01*
X9181309Y-17447262D01*
X9181309Y-17494881D01*
X9171786Y-17513929D01*
X9162262Y-17523452D01*
X9143214Y-17532976D01*
X9095595Y-17532976D01*
X9076548Y-17523452D01*
X9067024Y-17513929D01*
X9276548Y-17532976D02*
X9314643Y-17532976D01*
X9333690Y-17523452D01*
X9343214Y-17513929D01*
X9362262Y-17485357D01*
X9371786Y-17447262D01*
X9371786Y-17371071D01*
X9362262Y-17352024D01*
X9352738Y-17342500D01*
X9333690Y-17332976D01*
X9295595Y-17332976D01*
X9276548Y-17342500D01*
X9267024Y-17352024D01*
X9257500Y-17371071D01*
X9257500Y-17418690D01*
X9267024Y-17437738D01*
X9276548Y-17447262D01*
X9295595Y-17456786D01*
X9333690Y-17456786D01*
X9352738Y-17447262D01*
X9362262Y-17437738D01*
X9371786Y-17418690D01*
X9447976Y-17332976D02*
X9447976Y-17371071D01*
X9524167Y-17332976D02*
X9524167Y-17371071D01*
X9819405Y-17609167D02*
X9809881Y-17599643D01*
X9790833Y-17571071D01*
X9781309Y-17552024D01*
X9771786Y-17523452D01*
X9762262Y-17475833D01*
X9762262Y-17437738D01*
X9771786Y-17390119D01*
X9781309Y-17361548D01*
X9790833Y-17342500D01*
X9809881Y-17313929D01*
X9819405Y-17304405D01*
X9905119Y-17532976D02*
X9943214Y-17532976D01*
X9962262Y-17523452D01*
X9971786Y-17513929D01*
X9990833Y-17485357D01*
X10000357Y-17447262D01*
X10000357Y-17371071D01*
X9990833Y-17352024D01*
X9981309Y-17342500D01*
X9962262Y-17332976D01*
X9924167Y-17332976D01*
X9905119Y-17342500D01*
X9895595Y-17352024D01*
X9886071Y-17371071D01*
X9886071Y-17418690D01*
X9895595Y-17437738D01*
X9905119Y-17447262D01*
X9924167Y-17456786D01*
X9962262Y-17456786D01*
X9981309Y-17447262D01*
X9990833Y-17437738D01*
X10000357Y-17418690D01*
X10238452Y-17532976D02*
X10238452Y-17332976D01*
X10324167Y-17532976D02*
X10324167Y-17428214D01*
X10314643Y-17409167D01*
X10295595Y-17399643D01*
X10267024Y-17399643D01*
X10247976Y-17409167D01*
X10238452Y-17418690D01*
X10447976Y-17532976D02*
X10428928Y-17523452D01*
X10419405Y-17513929D01*
X10409881Y-17494881D01*
X10409881Y-17437738D01*
X10419405Y-17418690D01*
X10428928Y-17409167D01*
X10447976Y-17399643D01*
X10476548Y-17399643D01*
X10495595Y-17409167D01*
X10505119Y-17418690D01*
X10514643Y-17437738D01*
X10514643Y-17494881D01*
X10505119Y-17513929D01*
X10495595Y-17523452D01*
X10476548Y-17532976D01*
X10447976Y-17532976D01*
X10628928Y-17532976D02*
X10609881Y-17523452D01*
X10600357Y-17504405D01*
X10600357Y-17332976D01*
X10781309Y-17523452D02*
X10762262Y-17532976D01*
X10724167Y-17532976D01*
X10705119Y-17523452D01*
X10695595Y-17504405D01*
X10695595Y-17428214D01*
X10705119Y-17409167D01*
X10724167Y-17399643D01*
X10762262Y-17399643D01*
X10781309Y-17409167D01*
X10790833Y-17428214D01*
X10790833Y-17447262D01*
X10695595Y-17466310D01*
X10867024Y-17523452D02*
X10886071Y-17532976D01*
X10924167Y-17532976D01*
X10943214Y-17523452D01*
X10952738Y-17504405D01*
X10952738Y-17494881D01*
X10943214Y-17475833D01*
X10924167Y-17466310D01*
X10895595Y-17466310D01*
X10876548Y-17456786D01*
X10867024Y-17437738D01*
X10867024Y-17428214D01*
X10876548Y-17409167D01*
X10895595Y-17399643D01*
X10924167Y-17399643D01*
X10943214Y-17409167D01*
X11019405Y-17609167D02*
X11028928Y-17599643D01*
X11047976Y-17571071D01*
X11057500Y-17552024D01*
X11067024Y-17523452D01*
X11076548Y-17475833D01*
X11076548Y-17437738D01*
X11067024Y-17390119D01*
X11057500Y-17361548D01*
X11047976Y-17342500D01*
X11028928Y-17313929D01*
X11019405Y-17304405D01*
M02*
