G04 #@! TF.GenerationSoftware,KiCad,Pcbnew,(6.0.6)*
G04 #@! TF.CreationDate,2022-11-24T12:51:03+00:00*
G04 #@! TF.ProjectId,MS20-VCF,4d533230-2d56-4434-962e-6b696361645f,rev?*
G04 #@! TF.SameCoordinates,Original*
G04 #@! TF.FileFunction,Legend,Top*
G04 #@! TF.FilePolarity,Positive*
%FSLAX46Y46*%
G04 Gerber Fmt 4.6, Leading zero omitted, Abs format (unit mm)*
G04 Created by KiCad (PCBNEW (6.0.6)) date 2022-11-24 12:51:03*
%MOMM*%
%LPD*%
G01*
G04 APERTURE LIST*
%ADD10C,0.120000*%
%ADD11C,0.100000*%
G04 APERTURE END LIST*
D10*
X68500000Y-97100000D02*
X79000000Y-97100000D01*
X74500000Y-98600000D02*
X68500000Y-98600000D01*
X68000000Y-98100000D02*
X80500000Y-98100000D01*
X64750000Y-97600000D02*
X69500000Y-97600000D01*
X104500000Y-98100000D02*
X98000000Y-98100000D01*
X98500000Y-97100000D02*
X91500000Y-97100000D01*
X96000000Y-98100000D02*
X90000000Y-98100000D01*
X102000000Y-97100000D02*
X114000000Y-97100000D01*
X86600000Y-155400000D02*
X85600000Y-155000000D01*
X91400000Y-156600000D02*
X91600000Y-156800000D01*
X96200000Y-155600000D02*
X95400000Y-155600000D01*
X98800000Y-155600000D02*
X99200000Y-156400000D01*
X115200000Y-48500000D02*
G75*
G03*
X112200000Y-45500000I-3000000J0D01*
G01*
X105700000Y-51500000D02*
G75*
G03*
X108700000Y-54500000I3000000J0D01*
G01*
X112700000Y-55000000D02*
G75*
G03*
X115700000Y-52000000I0J3000000D01*
G01*
X105200000Y-52000000D02*
G75*
G03*
X108200000Y-55000000I3000000J0D01*
G01*
X108700000Y-45000000D02*
G75*
G03*
X105700000Y-48000000I0J-3000000D01*
G01*
X115700000Y-48000000D02*
G75*
G03*
X112700000Y-45000000I-3000000J0D01*
G01*
X120100000Y-109100000D02*
G75*
G03*
X119600000Y-108600000I-500000J0D01*
G01*
X115500000Y-128600000D02*
X112653553Y-128600000D01*
X79700000Y-107000000D02*
G75*
G03*
X76700000Y-104000000I-3000000J0D01*
G01*
X72700000Y-104000000D02*
G75*
G03*
X69700000Y-107000000I0J-3000000D01*
G01*
X69200000Y-111000000D02*
G75*
G03*
X72200000Y-114000000I3000000J0D01*
G01*
X76700000Y-114000000D02*
G75*
G03*
X79700000Y-111000000I0J3000000D01*
G01*
X69700000Y-110500000D02*
G75*
G03*
X72700000Y-113500000I3000000J0D01*
G01*
X79200000Y-107500000D02*
G75*
G03*
X76200000Y-104500000I-3000000J0D01*
G01*
X116000000Y-119600000D02*
X116000000Y-128100000D01*
X116500000Y-119100000D02*
G75*
G03*
X116000000Y-119600000I0J-500000D01*
G01*
X117200000Y-108600000D02*
X119613389Y-108600000D01*
X115500000Y-128600000D02*
G75*
G03*
X116000000Y-128100000I0J500000D01*
G01*
D11*
G36*
X117200000Y-109100000D02*
G01*
X116700000Y-108600000D01*
X117200000Y-108100000D01*
X117200000Y-109100000D01*
G37*
X117200000Y-109100000D02*
X116700000Y-108600000D01*
X117200000Y-108100000D01*
X117200000Y-109100000D01*
D10*
X120100000Y-109100000D02*
X120100000Y-118600000D01*
X107125000Y-116750000D02*
X107925000Y-116750000D01*
X76300000Y-95300000D02*
X76000000Y-95300000D01*
X92200000Y-78900000D02*
X92000000Y-79000000D01*
X73500000Y-95600000D02*
X72800000Y-94500000D01*
X96350000Y-38850000D02*
X95550000Y-40450000D01*
X115950000Y-54400000D02*
X116800000Y-54400000D01*
X92200000Y-39550000D02*
X92200000Y-40050000D01*
X72000000Y-94500000D02*
X71500000Y-96100000D01*
X118750000Y-70500000D02*
X118750000Y-70300000D01*
X118100000Y-53500000D02*
X119000000Y-53900000D01*
X104575000Y-116750000D02*
X104675000Y-116850000D01*
X119650000Y-68800000D02*
X118650000Y-69400000D01*
X110087500Y-116750000D02*
X111137500Y-116750000D01*
X115600000Y-55100000D02*
X115500000Y-55100000D01*
X82300000Y-139600000D02*
X82200000Y-139600000D01*
X91600000Y-156800000D02*
X91600000Y-156600000D01*
X111890000Y-64072083D02*
X111540000Y-64392083D01*
X71500000Y-96100000D02*
X71400000Y-96100000D01*
X117950000Y-70400000D02*
X117750000Y-70600000D01*
X96950000Y-40500000D02*
X97050000Y-40350000D01*
X79500000Y-79200000D02*
G75*
G03*
X80000000Y-79700000I500000J0D01*
G01*
X93000000Y-155400000D02*
X91600000Y-155800000D01*
X67700000Y-103600000D02*
X67600000Y-103600000D01*
X122000000Y-98100000D02*
X119000000Y-98100000D01*
X102600000Y-78900000D02*
X102300000Y-80600000D01*
X87600000Y-126172083D02*
X87140000Y-126312083D01*
X77125000Y-57750000D02*
X77925000Y-57750000D01*
X91100000Y-38750000D02*
X91100000Y-38950000D01*
X88800000Y-38750000D02*
X88800000Y-40450000D01*
X70400000Y-95600000D02*
X69600000Y-95300000D01*
X68500000Y-60100000D02*
X65500000Y-60100000D01*
X82000000Y-56100000D02*
G75*
G03*
X73000000Y-56100000I-4500000J6572083D01*
G01*
X96200000Y-36800000D02*
X96000000Y-38100000D01*
X90200000Y-40450000D02*
X90400000Y-40450000D01*
D11*
G36*
X106000000Y-137100000D02*
G01*
X105000000Y-137100000D01*
X105500000Y-136600000D01*
X106000000Y-137100000D01*
G37*
X106000000Y-137100000D02*
X105000000Y-137100000D01*
X105500000Y-136600000D01*
X106000000Y-137100000D01*
D10*
X115300000Y-111400000D02*
X114990000Y-111290000D01*
X67800000Y-49600000D02*
X65500000Y-49600000D01*
X85300000Y-52400000D02*
X84990000Y-52290000D01*
X118650000Y-69400000D02*
X119550000Y-69900000D01*
X74225000Y-59450000D02*
X74325000Y-59350000D01*
X109675000Y-116850000D02*
X109775000Y-116750000D01*
X107925000Y-116750000D02*
X106875000Y-118450000D01*
X101400000Y-78900000D02*
X102300000Y-78900000D01*
X104000000Y-96600000D02*
X98000000Y-96600000D01*
X92600000Y-38100000D02*
X92100000Y-36400000D01*
X66250000Y-127700000D02*
X65450000Y-129400000D01*
X69650000Y-127800000D02*
X69450000Y-127700000D01*
X108800000Y-61872083D02*
X108640000Y-62252083D01*
X97800000Y-155600000D02*
X97000000Y-156800000D01*
X112000000Y-98600000D02*
X106000000Y-98600000D01*
X88800000Y-154600000D02*
X89600000Y-154600000D01*
X93600000Y-137900000D02*
X94300000Y-137900000D01*
X69500000Y-69600000D02*
X72346447Y-69600000D01*
X73725000Y-58700000D02*
X74225000Y-59450000D01*
X98400000Y-155600000D02*
X98200000Y-155600000D01*
X92200000Y-40050000D02*
X93000000Y-40450000D01*
X93000000Y-36400000D02*
X92600000Y-38100000D01*
X107600000Y-138500000D02*
X107500000Y-140100000D01*
X90200000Y-40450000D02*
X90200000Y-40250000D01*
X81500000Y-97600000D02*
X79500000Y-97600000D01*
X111930000Y-74812083D02*
X111690000Y-74612083D01*
X77350000Y-79400000D02*
X76550000Y-80300000D01*
X112000000Y-115100000D02*
G75*
G03*
X103000000Y-115100000I-4500000J6572083D01*
G01*
X68700000Y-105300000D02*
X68600000Y-105100000D01*
X104975000Y-118450000D02*
X105975000Y-116750000D01*
X116400000Y-53500000D02*
X116300000Y-53500000D01*
X108400000Y-117300000D02*
X108925000Y-117300000D01*
X116550000Y-69900000D02*
X116350000Y-70400000D01*
X78825000Y-58400000D02*
X78925000Y-58300000D01*
X108725000Y-116750000D02*
X109775000Y-116750000D01*
X97600000Y-156800000D02*
X98400000Y-155600000D01*
X81000000Y-113200000D02*
X80900000Y-113200000D01*
X87200000Y-156800000D02*
X87800000Y-156800000D01*
X78725000Y-57750000D02*
X77725000Y-59450000D01*
X81800000Y-111600000D02*
X81700000Y-111600000D01*
X110800000Y-100800000D02*
X110640000Y-101180000D01*
X117950000Y-70400000D02*
X117750000Y-70200000D01*
X101900000Y-80600000D02*
X101400000Y-78900000D01*
X75900000Y-94900000D02*
X74700000Y-95200000D01*
X75000000Y-94500000D02*
X74300000Y-96100000D01*
X67950000Y-129400000D02*
X67750000Y-129600000D01*
X92700000Y-137900000D02*
X92400000Y-139600000D01*
X78700000Y-94500000D02*
X77700000Y-95000000D01*
X75000000Y-135172083D02*
X74540000Y-135762083D01*
X106800000Y-138500000D02*
X106900000Y-138600000D01*
X89700000Y-38750000D02*
X89500000Y-38650000D01*
X104050000Y-44500000D02*
X103350000Y-46200000D01*
X90200000Y-155600000D02*
X91000000Y-155600000D01*
X92200000Y-38750000D02*
X93000000Y-38850000D01*
X83100000Y-139600000D02*
X83900000Y-137900000D01*
X99000000Y-64072083D02*
X99410000Y-64422083D01*
X98800000Y-155600000D02*
X98200000Y-156800000D01*
X84000000Y-135172083D02*
G75*
G03*
X75000000Y-135172083I-4500000J6572083D01*
G01*
X92100000Y-80600000D02*
X92000000Y-80600000D01*
X77800000Y-96100000D02*
X78000000Y-96100000D01*
X75275000Y-57750000D02*
X74975000Y-59450000D01*
X76875000Y-59450000D02*
X77125000Y-57750000D01*
X113600000Y-67172083D02*
X113140000Y-67312083D01*
X98790000Y-108600000D02*
X99561612Y-108600000D01*
X73000000Y-133972083D02*
X73350000Y-133682083D01*
X95500000Y-36400000D02*
X95400000Y-36400000D01*
X119550000Y-69900000D02*
X118750000Y-70500000D01*
X103000000Y-138600000D02*
G75*
G03*
X102500000Y-139100000I0J-500000D01*
G01*
X83500000Y-112000000D02*
X82300000Y-112300000D01*
X85890000Y-123072083D02*
X85540000Y-123392083D01*
X116650000Y-69300000D02*
X115950000Y-69400000D01*
X78700000Y-94500000D02*
X78500000Y-94400000D01*
X77050000Y-81000000D02*
X77150000Y-80900000D01*
X78150000Y-79400000D02*
X78050000Y-81000000D01*
X102500000Y-142100000D02*
X102500000Y-139100000D01*
X119650000Y-68800000D02*
X119650000Y-69000000D01*
X87200000Y-155400000D02*
X87200000Y-156800000D01*
X67350000Y-128200000D02*
X67150000Y-129400000D01*
X101000000Y-113900000D02*
X101350000Y-113610000D01*
X103500000Y-78900000D02*
X104200000Y-78900000D01*
X97500000Y-69600000D02*
X96728388Y-69600000D01*
X94000000Y-137900000D02*
X93000000Y-139600000D01*
X119600000Y-119100000D02*
X116600000Y-119100000D01*
X89700000Y-38750000D02*
X89300000Y-39450000D01*
X92400000Y-139600000D02*
X93400000Y-137900000D01*
X104225000Y-118450000D02*
X104325000Y-118350000D01*
X70400000Y-94900000D02*
X69600000Y-94500000D01*
X78700000Y-94500000D02*
X78700000Y-94700000D01*
X69650000Y-127800000D02*
X68650000Y-128400000D01*
X105500000Y-138100000D02*
X105500000Y-137100000D01*
X113930000Y-113740000D02*
X113690000Y-113540000D01*
X69600000Y-52500000D02*
X70040000Y-52340000D01*
X88400000Y-155000000D02*
X88400000Y-156800000D01*
X72000000Y-94500000D02*
X72000000Y-96100000D01*
X83890000Y-44000000D02*
X83540000Y-44320000D01*
X116250000Y-68700000D02*
X116650000Y-69300000D01*
X108000000Y-97600000D02*
X119000000Y-97600000D01*
X78725000Y-57750000D02*
X79775000Y-57750000D01*
X96200000Y-156800000D02*
X97400000Y-155600000D01*
X94000000Y-155800000D02*
X94800000Y-156400000D01*
X89300000Y-39450000D02*
X88800000Y-38750000D01*
X79500000Y-79200000D02*
X79500000Y-78200000D01*
X103725000Y-117700000D02*
X104225000Y-118450000D01*
X111037500Y-116850000D02*
X111137500Y-116750000D01*
X102300000Y-61772083D02*
X102490000Y-62222083D01*
X97000000Y-156800000D02*
X97200000Y-156800000D01*
X65950000Y-128400000D02*
X66550000Y-128900000D01*
X93500000Y-97600000D02*
X96500000Y-97600000D01*
X69400000Y-103700000D02*
X68700000Y-105300000D01*
X67750000Y-127800000D02*
G75*
G03*
X67350000Y-128200000I0J-400000D01*
G01*
X82500000Y-83200000D02*
X82500000Y-80200000D01*
X89700000Y-38750000D02*
X89700000Y-40450000D01*
X97400000Y-155600000D02*
X97200000Y-155600000D01*
X92900000Y-80600000D02*
X93700000Y-78900000D01*
X105000000Y-138600000D02*
X103000000Y-138600000D01*
X95500000Y-36400000D02*
X94800000Y-38100000D01*
X91600000Y-156800000D02*
X91800000Y-156600000D01*
X116250000Y-68700000D02*
X115450000Y-70400000D01*
X108725000Y-116750000D02*
X107725000Y-118450000D01*
X96200000Y-37200000D02*
X96500000Y-37200000D01*
X110000000Y-76172083D02*
G75*
G03*
X101000000Y-76172083I-4500000J6572083D01*
G01*
X93400000Y-38100000D02*
X94600000Y-37500000D01*
X116400000Y-53500000D02*
X115600000Y-55100000D01*
X73000000Y-56100000D02*
X72540000Y-56690000D01*
X76400000Y-94500000D02*
X76300000Y-96100000D01*
X94000000Y-37100000D02*
X95000000Y-36700000D01*
X83900000Y-137900000D02*
X83800000Y-137900000D01*
X96600000Y-36400000D02*
G75*
G03*
X96200000Y-36800000I0J-400000D01*
G01*
X83930000Y-54740000D02*
X83690000Y-54540000D01*
X117400000Y-55100000D02*
X117300000Y-54900000D01*
X74575000Y-57750000D02*
X74675000Y-57850000D01*
X91500000Y-137900000D02*
X92400000Y-137900000D01*
X98375000Y-39550000D02*
X98475000Y-39450000D01*
X68790000Y-49600000D02*
X69561612Y-49600000D01*
X80800000Y-41800000D02*
X80640000Y-42180000D01*
X92900000Y-78900000D02*
X92900000Y-80600000D01*
X77700000Y-94500000D02*
X76700000Y-95000000D01*
X69400000Y-47100000D02*
X69860000Y-47240000D01*
X68750000Y-129500000D02*
X68750000Y-129300000D01*
X69600000Y-96100000D02*
X70400000Y-95600000D01*
X85600000Y-47100000D02*
X85140000Y-47240000D01*
X87300000Y-131472083D02*
X86990000Y-131362083D01*
X95650000Y-38850000D02*
X95550000Y-38850000D01*
X87200000Y-155400000D02*
X87400000Y-155600000D01*
X85600000Y-155000000D02*
X85600000Y-156800000D01*
X85600000Y-156800000D02*
X86600000Y-156200000D01*
X96450000Y-39750000D02*
X96950000Y-40500000D01*
X65000000Y-59600000D02*
G75*
G03*
X65500000Y-60100000I500000J0D01*
G01*
X77800000Y-96100000D02*
X77800000Y-95900000D01*
X92100000Y-37500000D02*
X91400000Y-36400000D01*
X74300000Y-96100000D02*
X74200000Y-95900000D01*
X107500000Y-100561611D02*
X107500000Y-99600000D01*
X92200000Y-78900000D02*
X92300000Y-79100000D01*
X69550000Y-128900000D02*
X68750000Y-129500000D01*
X105275000Y-116750000D02*
X104975000Y-118450000D01*
X69000000Y-60600000D02*
G75*
G03*
X68500000Y-60100000I-500000J0D01*
G01*
X92000000Y-139600000D02*
X91500000Y-137900000D01*
X65500000Y-49600000D02*
G75*
G03*
X65000000Y-50100000I0J-500000D01*
G01*
X66250000Y-127700000D02*
X66650000Y-128300000D01*
X98350000Y-38850000D02*
X99400000Y-38850000D01*
X82600000Y-111600000D02*
X81900000Y-113200000D01*
X102300000Y-80600000D02*
X103300000Y-78900000D01*
X82400000Y-137900000D02*
X82500000Y-138100000D01*
X96350000Y-38850000D02*
X96250000Y-38850000D01*
X87500000Y-128600000D02*
X88271612Y-128600000D01*
X108825000Y-117400000D02*
X108925000Y-117300000D01*
X95650000Y-38850000D02*
X95550000Y-40450000D01*
X92400000Y-137900000D02*
X92000000Y-139600000D01*
X117300000Y-53500000D02*
X117200000Y-53500000D01*
X105000000Y-138600000D02*
G75*
G03*
X105500000Y-138100000I0J500000D01*
G01*
X88800000Y-154600000D02*
G75*
G03*
X88400000Y-155000000I0J-400000D01*
G01*
X69600000Y-94500000D02*
X69600000Y-96100000D01*
X67950000Y-129400000D02*
X67750000Y-129200000D01*
X90200000Y-156800000D02*
X91000000Y-156800000D01*
X117150000Y-70400000D02*
X117850000Y-70400000D01*
X93300000Y-36400000D02*
X93000000Y-38100000D01*
X105050000Y-46200000D02*
X104950000Y-46000000D01*
X76800000Y-96100000D02*
X77000000Y-96100000D01*
X94000000Y-156800000D02*
X94000000Y-156600000D01*
X106875000Y-118450000D02*
X107125000Y-116750000D01*
X68750000Y-129500000D02*
X68950000Y-129500000D01*
X79762500Y-58300000D02*
X80287500Y-58300000D01*
X96600000Y-155600000D02*
X96400000Y-155600000D01*
X80187500Y-58400000D02*
X80287500Y-58300000D01*
X99300000Y-38950000D02*
X99400000Y-38850000D01*
X90200000Y-155600000D02*
X90200000Y-156800000D01*
X98050000Y-39450000D02*
X98475000Y-39450000D01*
X88400000Y-156800000D02*
X89600000Y-156800000D01*
X116500000Y-55100000D02*
X116400000Y-55100000D01*
X82800000Y-120872083D02*
X82640000Y-121252083D01*
X71600000Y-131572083D02*
X72040000Y-131412083D01*
X119000000Y-53900000D02*
X117800000Y-54200000D01*
X94800000Y-156400000D02*
X94000000Y-156800000D01*
X77350000Y-79400000D02*
X77450000Y-79500000D01*
X72400000Y-96100000D02*
X73500000Y-95600000D01*
X106650000Y-45000000D02*
X105450000Y-45300000D01*
X87200000Y-155400000D02*
X87000000Y-155600000D01*
X103000000Y-115100000D02*
X102540000Y-115690000D01*
X76550000Y-80300000D02*
X77050000Y-81000000D01*
X120500000Y-97100000D02*
X116500000Y-97100000D01*
X104050000Y-44500000D02*
X103950000Y-44500000D01*
X72500000Y-94500000D02*
X72400000Y-94500000D01*
X112000000Y-115100000D02*
X112450000Y-115710000D01*
X91600000Y-155000000D02*
X91600000Y-156800000D01*
X106500000Y-140100000D02*
X106600000Y-140000000D01*
X74575000Y-57750000D02*
X73725000Y-58700000D01*
X67150000Y-129400000D02*
X67850000Y-129400000D01*
X74975000Y-59450000D02*
X75975000Y-57750000D01*
X107600000Y-138500000D02*
X107500000Y-138500000D01*
X115600000Y-106100000D02*
X115140000Y-106240000D01*
X95000000Y-36700000D02*
X94400000Y-36400000D01*
X104300000Y-100700000D02*
X104490000Y-101150000D01*
X73000000Y-123072083D02*
X73410000Y-123422083D01*
X96800000Y-38100000D02*
X96600000Y-38300000D01*
X106000000Y-139400000D02*
X106500000Y-140100000D01*
X67350000Y-128600000D02*
X67650000Y-128600000D01*
X94100000Y-38750000D02*
X94000000Y-40450000D01*
X90200000Y-156200000D02*
X90400000Y-156200000D01*
X95400000Y-155600000D02*
X95400000Y-156800000D01*
X91000000Y-39850000D02*
X90200000Y-40450000D01*
X119650000Y-68800000D02*
X119450000Y-68700000D01*
X78850000Y-79400000D02*
X78750000Y-79400000D01*
X66550000Y-128900000D02*
X66350000Y-129400000D01*
X74500000Y-96000000D02*
X74300000Y-96100000D01*
X82000000Y-56100000D02*
X82450000Y-56710000D01*
X93000000Y-39350000D02*
X92200000Y-39550000D01*
X101000000Y-103000000D02*
X101410000Y-103350000D01*
X103350000Y-46200000D02*
X104450000Y-46200000D01*
X113500000Y-69600000D02*
X114271612Y-69600000D01*
X80100000Y-113200000D02*
X80000000Y-113200000D01*
X71250000Y-94500000D02*
X71150000Y-96100000D01*
D11*
G36*
X68300000Y-49600000D02*
G01*
X67800000Y-50100000D01*
X67800000Y-49100000D01*
X68300000Y-49600000D01*
G37*
X68300000Y-49600000D02*
X67800000Y-50100000D01*
X67800000Y-49100000D01*
X68300000Y-49600000D01*
D10*
X91600000Y-155000000D02*
X93000000Y-155400000D01*
X117350000Y-69600000D02*
X117650000Y-69600000D01*
X66650000Y-128300000D02*
X65950000Y-128400000D01*
X91100000Y-38750000D02*
X90100000Y-39350000D01*
X99400000Y-106100000D02*
X99860000Y-106240000D01*
X71000000Y-44000000D02*
X71410000Y-44350000D01*
X76575000Y-57750000D02*
X75575000Y-59450000D01*
X80900000Y-111600000D02*
X80100000Y-113200000D01*
X102300000Y-78900000D02*
X101900000Y-80600000D01*
X85444194Y-49600000D02*
X86215806Y-49600000D01*
X74300000Y-41700000D02*
X74490000Y-42150000D01*
X93000000Y-38850000D02*
X93000000Y-39350000D01*
X96800000Y-38100000D02*
X96600000Y-37900000D01*
X76700000Y-95000000D02*
X77600000Y-95500000D01*
X76175000Y-57750000D02*
X76875000Y-57750000D01*
X117750000Y-68800000D02*
X118150000Y-68800000D01*
X91500000Y-39750000D02*
X91900000Y-39750000D01*
X115444194Y-108600000D02*
X116215806Y-108600000D01*
X95000000Y-155600000D02*
X94000000Y-155800000D01*
X92100000Y-36400000D02*
X93000000Y-36400000D01*
X81037500Y-57850000D02*
X81137500Y-57750000D01*
X77700000Y-94500000D02*
X77700000Y-94700000D01*
X78400000Y-58300000D02*
X78925000Y-58300000D01*
X118750000Y-70500000D02*
X118950000Y-70500000D01*
X117350000Y-69200000D02*
X117150000Y-70400000D01*
X76300000Y-120772083D02*
X76490000Y-121222083D01*
X92100000Y-80600000D02*
X92900000Y-78900000D01*
X82100000Y-113100000D02*
X81900000Y-113200000D01*
X95000000Y-155600000D02*
X95000000Y-155800000D01*
X96000000Y-38100000D02*
X96700000Y-38100000D01*
X77500000Y-41561611D02*
X77500000Y-40600000D01*
D11*
G36*
X80000000Y-78200000D02*
G01*
X79000000Y-78200000D01*
X79500000Y-77700000D01*
X80000000Y-78200000D01*
G37*
X80000000Y-78200000D02*
X79000000Y-78200000D01*
X79500000Y-77700000D01*
X80000000Y-78200000D01*
D10*
X94400000Y-36400000D02*
X93400000Y-38100000D01*
X94600000Y-37500000D02*
X94000000Y-37100000D01*
X82600000Y-111600000D02*
X83500000Y-112000000D01*
X93500000Y-38750000D02*
X94100000Y-38750000D01*
X97250000Y-38850000D02*
X97350000Y-38950000D01*
X110000000Y-76172083D02*
X110450000Y-76782083D01*
X90100000Y-39350000D02*
X91000000Y-39850000D01*
X69650000Y-127800000D02*
X69650000Y-128000000D01*
X104575000Y-116750000D02*
X103725000Y-117700000D01*
X80900000Y-111600000D02*
X80800000Y-111600000D01*
X70300000Y-104100000D02*
X69100000Y-104400000D01*
X96600000Y-36400000D02*
X97000000Y-36400000D01*
X67700000Y-103600000D02*
X67000000Y-105300000D01*
X113300000Y-72472083D02*
X112990000Y-72362083D01*
X93400000Y-40450000D02*
X93500000Y-38750000D01*
X65000000Y-50100000D02*
X65000000Y-59600000D01*
X98350000Y-38850000D02*
X97350000Y-40500000D01*
X103900000Y-78900000D02*
X102900000Y-80600000D01*
X82300000Y-139600000D02*
X83100000Y-137900000D01*
X91000000Y-38100000D02*
X92100000Y-37500000D01*
X106175000Y-116750000D02*
X106875000Y-116750000D01*
X97250000Y-38850000D02*
X96450000Y-39750000D01*
X94800000Y-38100000D02*
X95600000Y-38100000D01*
X68900000Y-105200000D02*
X68700000Y-105300000D01*
X71400000Y-126172083D02*
X71860000Y-126312083D01*
X106800000Y-138500000D02*
X106000000Y-139400000D01*
X96600000Y-155600000D02*
X96200000Y-156800000D01*
X84000000Y-135172083D02*
X84450000Y-135782083D01*
X118100000Y-53500000D02*
X117400000Y-55100000D01*
X71000000Y-54900000D02*
X71350000Y-54610000D01*
X106575000Y-116750000D02*
X105575000Y-118450000D01*
X101000000Y-76172083D02*
X100540000Y-76762083D01*
X110187500Y-117400000D02*
X110287500Y-117300000D01*
X105500000Y-61633694D02*
X105500000Y-60672083D01*
X69400000Y-103700000D02*
X70300000Y-104100000D01*
X89600000Y-156800000D02*
X89400000Y-156600000D01*
X108300000Y-138500000D02*
X108200000Y-138500000D01*
X110087500Y-116750000D02*
X109087500Y-118450000D01*
X91100000Y-38750000D02*
X90900000Y-38650000D01*
X72800000Y-94500000D02*
X72400000Y-96100000D01*
X67000000Y-105300000D02*
X68100000Y-105300000D01*
X83100000Y-137900000D02*
X83100000Y-139600000D01*
X86600000Y-156200000D02*
X85600000Y-155800000D01*
X99600000Y-111500000D02*
X100040000Y-111340000D01*
X69600000Y-95300000D02*
X70400000Y-94900000D01*
X78850000Y-79400000D02*
X78050000Y-81000000D01*
X76800000Y-96100000D02*
X76800000Y-95900000D01*
X75000000Y-94500000D02*
X75900000Y-94900000D01*
X77700000Y-94500000D02*
X77500000Y-94400000D01*
X105250000Y-46100000D02*
X105050000Y-46200000D01*
X117600000Y-55000000D02*
X117400000Y-55100000D01*
X89600000Y-156800000D02*
X89400000Y-157000000D01*
X93000000Y-38100000D02*
X94000000Y-36400000D01*
X105750000Y-44600000D02*
X106650000Y-45000000D01*
X99000000Y-74972083D02*
X99350000Y-74682083D01*
X88800000Y-38750000D02*
X88600000Y-38650000D01*
X82400000Y-137900000D02*
X82200000Y-138000000D01*
X117300000Y-53500000D02*
X116500000Y-55100000D01*
X76400000Y-94500000D02*
X75600000Y-96100000D01*
X88400000Y-155600000D02*
X88800000Y-155600000D01*
X98200000Y-156800000D02*
X99200000Y-156400000D01*
X81600000Y-139600000D02*
X82400000Y-137900000D01*
X80087500Y-57750000D02*
X81137500Y-57750000D01*
X109762500Y-117300000D02*
X110287500Y-117300000D01*
X71250000Y-94500000D02*
X70450000Y-96100000D01*
X69000000Y-60600000D02*
X69000000Y-69100000D01*
X91400000Y-36400000D02*
X91000000Y-38100000D01*
X108300000Y-138500000D02*
X107500000Y-140100000D01*
X94000000Y-40450000D02*
X93400000Y-40450000D01*
X82500000Y-80200000D02*
G75*
G03*
X82000000Y-79700000I-500000J0D01*
G01*
X82100000Y-79700000D02*
X80000000Y-79700000D01*
X97500000Y-97600000D02*
X102500000Y-97600000D01*
X77600000Y-95500000D02*
X76800000Y-96100000D01*
X115950000Y-69400000D02*
X116550000Y-69900000D01*
X117750000Y-68800000D02*
G75*
G03*
X117350000Y-69200000I0J-400000D01*
G01*
X97800000Y-155600000D02*
X97600000Y-156800000D01*
X79675000Y-57850000D02*
X79775000Y-57750000D01*
X80450000Y-112500000D02*
X81300000Y-112500000D01*
X81900000Y-113200000D02*
X81800000Y-113000000D01*
X79500000Y-120633694D02*
X79500000Y-119672083D01*
X114000000Y-98100000D02*
X110000000Y-98100000D01*
X78600000Y-95500000D02*
X77800000Y-96100000D01*
X69000000Y-69100000D02*
G75*
G03*
X69500000Y-69600000I500000J0D01*
G01*
X72500000Y-94500000D02*
X72000000Y-96100000D01*
X97400000Y-67172083D02*
X97860000Y-67312083D01*
X68650000Y-128400000D02*
X69550000Y-128900000D01*
X71150000Y-95300000D02*
X70850000Y-95300000D01*
X85930000Y-133812083D02*
X85690000Y-133612083D01*
X85600000Y-155800000D02*
X86600000Y-155400000D01*
X77700000Y-95000000D02*
X78600000Y-95500000D01*
X105750000Y-44600000D02*
X105050000Y-46200000D01*
X91400000Y-80600000D02*
X92200000Y-78900000D01*
X93700000Y-78900000D02*
X93600000Y-78900000D01*
X113890000Y-103000000D02*
X113540000Y-103320000D01*
X77925000Y-57750000D02*
X76875000Y-59450000D01*
X95400000Y-156800000D02*
X96200000Y-155600000D01*
X78150000Y-79400000D02*
X78050000Y-79400000D01*
X119600000Y-119100000D02*
G75*
G03*
X120100000Y-118600000I0J500000D01*
G01*
X80087500Y-57750000D02*
X79087500Y-59450000D01*
X67750000Y-127800000D02*
X68150000Y-127800000D01*
X97600000Y-72572083D02*
X98040000Y-72412083D01*
X81800000Y-111600000D02*
X81000000Y-113200000D01*
M02*
