G04 #@! TF.GenerationSoftware,KiCad,Pcbnew,(6.0.6)*
G04 #@! TF.CreationDate,2022-11-24T12:51:03+00:00*
G04 #@! TF.ProjectId,MS20-VCF,4d533230-2d56-4434-962e-6b696361645f,rev?*
G04 #@! TF.SameCoordinates,Original*
G04 #@! TF.FileFunction,Legend,Bot*
G04 #@! TF.FilePolarity,Positive*
%FSLAX46Y46*%
G04 Gerber Fmt 4.6, Leading zero omitted, Abs format (unit mm)*
G04 Created by KiCad (PCBNEW (6.0.6)) date 2022-11-24 12:51:03*
%MOMM*%
%LPD*%
G01*
G04 APERTURE LIST*
%ADD10C,0.150000*%
%ADD11C,0.300000*%
G04 APERTURE END LIST*
D10*
X100547619Y-37592380D02*
X100547619Y-36592380D01*
X100309523Y-36592380D01*
X100166666Y-36640000D01*
X100071428Y-36735238D01*
X100023809Y-36830476D01*
X99976190Y-37020952D01*
X99976190Y-37163809D01*
X100023809Y-37354285D01*
X100071428Y-37449523D01*
X100166666Y-37544761D01*
X100309523Y-37592380D01*
X100547619Y-37592380D01*
X99404761Y-37592380D02*
X99500000Y-37544761D01*
X99547619Y-37497142D01*
X99595238Y-37401904D01*
X99595238Y-37116190D01*
X99547619Y-37020952D01*
X99500000Y-36973333D01*
X99404761Y-36925714D01*
X99261904Y-36925714D01*
X99166666Y-36973333D01*
X99119047Y-37020952D01*
X99071428Y-37116190D01*
X99071428Y-37401904D01*
X99119047Y-37497142D01*
X99166666Y-37544761D01*
X99261904Y-37592380D01*
X99404761Y-37592380D01*
X98214285Y-36925714D02*
X98214285Y-37592380D01*
X98642857Y-36925714D02*
X98642857Y-37449523D01*
X98595238Y-37544761D01*
X98500000Y-37592380D01*
X98357142Y-37592380D01*
X98261904Y-37544761D01*
X98214285Y-37497142D01*
X97738095Y-37592380D02*
X97738095Y-36592380D01*
X97738095Y-36973333D02*
X97642857Y-36925714D01*
X97452380Y-36925714D01*
X97357142Y-36973333D01*
X97309523Y-37020952D01*
X97261904Y-37116190D01*
X97261904Y-37401904D01*
X97309523Y-37497142D01*
X97357142Y-37544761D01*
X97452380Y-37592380D01*
X97642857Y-37592380D01*
X97738095Y-37544761D01*
X96690476Y-37592380D02*
X96785714Y-37544761D01*
X96833333Y-37449523D01*
X96833333Y-36592380D01*
X95928571Y-37544761D02*
X96023809Y-37592380D01*
X96214285Y-37592380D01*
X96309523Y-37544761D01*
X96357142Y-37449523D01*
X96357142Y-37068571D01*
X96309523Y-36973333D01*
X96214285Y-36925714D01*
X96023809Y-36925714D01*
X95928571Y-36973333D01*
X95880952Y-37068571D01*
X95880952Y-37163809D01*
X96357142Y-37259047D01*
X94690476Y-37592380D02*
X94690476Y-36592380D01*
X94357142Y-37306666D01*
X94023809Y-36592380D01*
X94023809Y-37592380D01*
X93595238Y-37544761D02*
X93452380Y-37592380D01*
X93214285Y-37592380D01*
X93119047Y-37544761D01*
X93071428Y-37497142D01*
X93023809Y-37401904D01*
X93023809Y-37306666D01*
X93071428Y-37211428D01*
X93119047Y-37163809D01*
X93214285Y-37116190D01*
X93404761Y-37068571D01*
X93500000Y-37020952D01*
X93547619Y-36973333D01*
X93595238Y-36878095D01*
X93595238Y-36782857D01*
X93547619Y-36687619D01*
X93500000Y-36640000D01*
X93404761Y-36592380D01*
X93166666Y-36592380D01*
X93023809Y-36640000D01*
X92595238Y-37211428D02*
X91833333Y-37211428D01*
X91404761Y-36687619D02*
X91357142Y-36640000D01*
X91261904Y-36592380D01*
X91023809Y-36592380D01*
X90928571Y-36640000D01*
X90880952Y-36687619D01*
X90833333Y-36782857D01*
X90833333Y-36878095D01*
X90880952Y-37020952D01*
X91452380Y-37592380D01*
X90833333Y-37592380D01*
X90214285Y-36592380D02*
X90119047Y-36592380D01*
X90023809Y-36640000D01*
X89976190Y-36687619D01*
X89928571Y-36782857D01*
X89880952Y-36973333D01*
X89880952Y-37211428D01*
X89928571Y-37401904D01*
X89976190Y-37497142D01*
X90023809Y-37544761D01*
X90119047Y-37592380D01*
X90214285Y-37592380D01*
X90309523Y-37544761D01*
X90357142Y-37497142D01*
X90404761Y-37401904D01*
X90452380Y-37211428D01*
X90452380Y-36973333D01*
X90404761Y-36782857D01*
X90357142Y-36687619D01*
X90309523Y-36640000D01*
X90214285Y-36592380D01*
X88833333Y-36592380D02*
X88500000Y-37592380D01*
X88166666Y-36592380D01*
X87261904Y-37497142D02*
X87309523Y-37544761D01*
X87452380Y-37592380D01*
X87547619Y-37592380D01*
X87690476Y-37544761D01*
X87785714Y-37449523D01*
X87833333Y-37354285D01*
X87880952Y-37163809D01*
X87880952Y-37020952D01*
X87833333Y-36830476D01*
X87785714Y-36735238D01*
X87690476Y-36640000D01*
X87547619Y-36592380D01*
X87452380Y-36592380D01*
X87309523Y-36640000D01*
X87261904Y-36687619D01*
X86500000Y-37068571D02*
X86833333Y-37068571D01*
X86833333Y-37592380D02*
X86833333Y-36592380D01*
X86357142Y-36592380D01*
X99761904Y-38202380D02*
X99428571Y-39202380D01*
X99095238Y-38202380D01*
X98238095Y-39202380D02*
X98809523Y-39202380D01*
X98523809Y-39202380D02*
X98523809Y-38202380D01*
X98619047Y-38345238D01*
X98714285Y-38440476D01*
X98809523Y-38488095D01*
X97809523Y-39107142D02*
X97761904Y-39154761D01*
X97809523Y-39202380D01*
X97857142Y-39154761D01*
X97809523Y-39107142D01*
X97809523Y-39202380D01*
X97380952Y-38297619D02*
X97333333Y-38250000D01*
X97238095Y-38202380D01*
X97000000Y-38202380D01*
X96904761Y-38250000D01*
X96857142Y-38297619D01*
X96809523Y-38392857D01*
X96809523Y-38488095D01*
X96857142Y-38630952D01*
X97428571Y-39202380D01*
X96809523Y-39202380D01*
X95285714Y-38678571D02*
X95142857Y-38726190D01*
X95095238Y-38773809D01*
X95047619Y-38869047D01*
X95047619Y-39011904D01*
X95095238Y-39107142D01*
X95142857Y-39154761D01*
X95238095Y-39202380D01*
X95619047Y-39202380D01*
X95619047Y-38202380D01*
X95285714Y-38202380D01*
X95190476Y-38250000D01*
X95142857Y-38297619D01*
X95095238Y-38392857D01*
X95095238Y-38488095D01*
X95142857Y-38583333D01*
X95190476Y-38630952D01*
X95285714Y-38678571D01*
X95619047Y-38678571D01*
X94476190Y-39202380D02*
X94571428Y-39154761D01*
X94619047Y-39059523D01*
X94619047Y-38202380D01*
X93714285Y-39154761D02*
X93809523Y-39202380D01*
X94000000Y-39202380D01*
X94095238Y-39154761D01*
X94142857Y-39059523D01*
X94142857Y-38678571D01*
X94095238Y-38583333D01*
X94000000Y-38535714D01*
X93809523Y-38535714D01*
X93714285Y-38583333D01*
X93666666Y-38678571D01*
X93666666Y-38773809D01*
X94142857Y-38869047D01*
X92857142Y-39154761D02*
X92952380Y-39202380D01*
X93142857Y-39202380D01*
X93238095Y-39154761D01*
X93285714Y-39059523D01*
X93285714Y-38678571D01*
X93238095Y-38583333D01*
X93142857Y-38535714D01*
X92952380Y-38535714D01*
X92857142Y-38583333D01*
X92809523Y-38678571D01*
X92809523Y-38773809D01*
X93285714Y-38869047D01*
X92380952Y-38535714D02*
X92380952Y-39535714D01*
X92380952Y-38583333D02*
X92285714Y-38535714D01*
X92095238Y-38535714D01*
X92000000Y-38583333D01*
X91952380Y-38630952D01*
X91904761Y-38726190D01*
X91904761Y-39011904D01*
X91952380Y-39107142D01*
X92000000Y-39154761D01*
X92095238Y-39202380D01*
X92285714Y-39202380D01*
X92380952Y-39154761D01*
X91523809Y-39154761D02*
X91380952Y-39202380D01*
X91142857Y-39202380D01*
X91047619Y-39154761D01*
X91000000Y-39107142D01*
X90952380Y-39011904D01*
X90952380Y-38916666D01*
X91000000Y-38821428D01*
X91047619Y-38773809D01*
X91142857Y-38726190D01*
X91333333Y-38678571D01*
X91428571Y-38630952D01*
X91476190Y-38583333D01*
X91523809Y-38488095D01*
X91523809Y-38392857D01*
X91476190Y-38297619D01*
X91428571Y-38250000D01*
X91333333Y-38202380D01*
X91095238Y-38202380D01*
X90952380Y-38250000D01*
X90380952Y-39202380D02*
X90476190Y-39154761D01*
X90523809Y-39107142D01*
X90571428Y-39011904D01*
X90571428Y-38726190D01*
X90523809Y-38630952D01*
X90476190Y-38583333D01*
X90380952Y-38535714D01*
X90238095Y-38535714D01*
X90142857Y-38583333D01*
X90095238Y-38630952D01*
X90047619Y-38726190D01*
X90047619Y-39011904D01*
X90095238Y-39107142D01*
X90142857Y-39154761D01*
X90238095Y-39202380D01*
X90380952Y-39202380D01*
X89190476Y-38535714D02*
X89190476Y-39202380D01*
X89619047Y-38535714D02*
X89619047Y-39059523D01*
X89571428Y-39154761D01*
X89476190Y-39202380D01*
X89333333Y-39202380D01*
X89238095Y-39154761D01*
X89190476Y-39107142D01*
X88714285Y-38535714D02*
X88714285Y-39202380D01*
X88714285Y-38630952D02*
X88666666Y-38583333D01*
X88571428Y-38535714D01*
X88428571Y-38535714D01*
X88333333Y-38583333D01*
X88285714Y-38678571D01*
X88285714Y-39202380D01*
X87380952Y-39202380D02*
X87380952Y-38202380D01*
X87380952Y-39154761D02*
X87476190Y-39202380D01*
X87666666Y-39202380D01*
X87761904Y-39154761D01*
X87809523Y-39107142D01*
X87857142Y-39011904D01*
X87857142Y-38726190D01*
X87809523Y-38630952D01*
X87761904Y-38583333D01*
X87666666Y-38535714D01*
X87476190Y-38535714D01*
X87380952Y-38583333D01*
X95214285Y-39907619D02*
X95166666Y-39860000D01*
X95071428Y-39812380D01*
X94833333Y-39812380D01*
X94738095Y-39860000D01*
X94690476Y-39907619D01*
X94642857Y-40002857D01*
X94642857Y-40098095D01*
X94690476Y-40240952D01*
X95261904Y-40812380D01*
X94642857Y-40812380D01*
X94023809Y-39812380D02*
X93928571Y-39812380D01*
X93833333Y-39860000D01*
X93785714Y-39907619D01*
X93738095Y-40002857D01*
X93690476Y-40193333D01*
X93690476Y-40431428D01*
X93738095Y-40621904D01*
X93785714Y-40717142D01*
X93833333Y-40764761D01*
X93928571Y-40812380D01*
X94023809Y-40812380D01*
X94119047Y-40764761D01*
X94166666Y-40717142D01*
X94214285Y-40621904D01*
X94261904Y-40431428D01*
X94261904Y-40193333D01*
X94214285Y-40002857D01*
X94166666Y-39907619D01*
X94119047Y-39860000D01*
X94023809Y-39812380D01*
X93309523Y-39907619D02*
X93261904Y-39860000D01*
X93166666Y-39812380D01*
X92928571Y-39812380D01*
X92833333Y-39860000D01*
X92785714Y-39907619D01*
X92738095Y-40002857D01*
X92738095Y-40098095D01*
X92785714Y-40240952D01*
X93357142Y-40812380D01*
X92738095Y-40812380D01*
X92357142Y-39907619D02*
X92309523Y-39860000D01*
X92214285Y-39812380D01*
X91976190Y-39812380D01*
X91880952Y-39860000D01*
X91833333Y-39907619D01*
X91785714Y-40002857D01*
X91785714Y-40098095D01*
X91833333Y-40240952D01*
X92404761Y-40812380D01*
X91785714Y-40812380D01*
X95357142Y-43028571D02*
X95690476Y-43028571D01*
X95690476Y-43552380D02*
X95690476Y-42552380D01*
X95214285Y-42552380D01*
X94833333Y-43552380D02*
X94833333Y-42885714D01*
X94833333Y-43076190D02*
X94785714Y-42980952D01*
X94738095Y-42933333D01*
X94642857Y-42885714D01*
X94547619Y-42885714D01*
X94071428Y-43552380D02*
X94166666Y-43504761D01*
X94214285Y-43457142D01*
X94261904Y-43361904D01*
X94261904Y-43076190D01*
X94214285Y-42980952D01*
X94166666Y-42933333D01*
X94071428Y-42885714D01*
X93928571Y-42885714D01*
X93833333Y-42933333D01*
X93785714Y-42980952D01*
X93738095Y-43076190D01*
X93738095Y-43361904D01*
X93785714Y-43457142D01*
X93833333Y-43504761D01*
X93928571Y-43552380D01*
X94071428Y-43552380D01*
X93309523Y-42885714D02*
X93309523Y-43552380D01*
X93309523Y-42980952D02*
X93261904Y-42933333D01*
X93166666Y-42885714D01*
X93023809Y-42885714D01*
X92928571Y-42933333D01*
X92880952Y-43028571D01*
X92880952Y-43552380D01*
X92547619Y-42885714D02*
X92166666Y-42885714D01*
X92404761Y-42552380D02*
X92404761Y-43409523D01*
X92357142Y-43504761D01*
X92261904Y-43552380D01*
X92166666Y-43552380D01*
D11*
X63678571Y-72171428D02*
X64750000Y-72171428D01*
X64964285Y-72100000D01*
X65107142Y-71957142D01*
X65178571Y-71742857D01*
X65178571Y-71600000D01*
X65178571Y-73600000D02*
X65178571Y-72885714D01*
X63678571Y-72885714D01*
X65035714Y-74957142D02*
X65107142Y-74885714D01*
X65178571Y-74671428D01*
X65178571Y-74528571D01*
X65107142Y-74314285D01*
X64964285Y-74171428D01*
X64821428Y-74100000D01*
X64535714Y-74028571D01*
X64321428Y-74028571D01*
X64035714Y-74100000D01*
X63892857Y-74171428D01*
X63750000Y-74314285D01*
X63678571Y-74528571D01*
X63678571Y-74671428D01*
X63750000Y-74885714D01*
X63821428Y-74957142D01*
X63678571Y-76028571D02*
X64750000Y-76028571D01*
X64964285Y-75957142D01*
X65107142Y-75814285D01*
X65178571Y-75600000D01*
X65178571Y-75457142D01*
X65178571Y-77457142D02*
X65178571Y-76742857D01*
X63678571Y-76742857D01*
X65035714Y-78814285D02*
X65107142Y-78742857D01*
X65178571Y-78528571D01*
X65178571Y-78385714D01*
X65107142Y-78171428D01*
X64964285Y-78028571D01*
X64821428Y-77957142D01*
X64535714Y-77885714D01*
X64321428Y-77885714D01*
X64035714Y-77957142D01*
X63892857Y-78028571D01*
X63750000Y-78171428D01*
X63678571Y-78385714D01*
X63678571Y-78528571D01*
X63750000Y-78742857D01*
X63821428Y-78814285D01*
X63678571Y-79885714D02*
X64750000Y-79885714D01*
X64964285Y-79814285D01*
X65107142Y-79671428D01*
X65178571Y-79457142D01*
X65178571Y-79314285D01*
X65178571Y-81314285D02*
X65178571Y-80600000D01*
X63678571Y-80600000D01*
X65035714Y-82671428D02*
X65107142Y-82600000D01*
X65178571Y-82385714D01*
X65178571Y-82242857D01*
X65107142Y-82028571D01*
X64964285Y-81885714D01*
X64821428Y-81814285D01*
X64535714Y-81742857D01*
X64321428Y-81742857D01*
X64035714Y-81814285D01*
X63892857Y-81885714D01*
X63750000Y-82028571D01*
X63678571Y-82242857D01*
X63678571Y-82385714D01*
X63750000Y-82600000D01*
X63821428Y-82671428D01*
X63678571Y-83742857D02*
X64750000Y-83742857D01*
X64964285Y-83671428D01*
X65107142Y-83528571D01*
X65178571Y-83314285D01*
X65178571Y-83171428D01*
X65178571Y-85171428D02*
X65178571Y-84457142D01*
X63678571Y-84457142D01*
X65035714Y-86528571D02*
X65107142Y-86457142D01*
X65178571Y-86242857D01*
X65178571Y-86100000D01*
X65107142Y-85885714D01*
X64964285Y-85742857D01*
X64821428Y-85671428D01*
X64535714Y-85600000D01*
X64321428Y-85600000D01*
X64035714Y-85671428D01*
X63892857Y-85742857D01*
X63750000Y-85885714D01*
X63678571Y-86100000D01*
X63678571Y-86242857D01*
X63750000Y-86457142D01*
X63821428Y-86528571D01*
M02*
