G04 #@! TF.GenerationSoftware,KiCad,Pcbnew,(6.0.0)*
G04 #@! TF.CreationDate,2022-04-04T19:59:42+01:00*
G04 #@! TF.ProjectId,StupidBoxPanel,53747570-6964-4426-9f78-50616e656c2e,rev?*
G04 #@! TF.SameCoordinates,Original*
G04 #@! TF.FileFunction,Legend,Top*
G04 #@! TF.FilePolarity,Positive*
%FSLAX46Y46*%
G04 Gerber Fmt 4.6, Leading zero omitted, Abs format (unit mm)*
G04 Created by KiCad (PCBNEW (6.0.0)) date 2022-04-04 19:59:42*
%MOMM*%
%LPD*%
G01*
G04 APERTURE LIST*
%ADD10C,0.120000*%
%ADD11O,6.700000X4.200000*%
G04 APERTURE END LIST*
D10*
X72500000Y-131000000D02*
X72500000Y-123000000D01*
X80000000Y-123000000D02*
X72500000Y-130500000D01*
X87250000Y-104500000D02*
X85750000Y-107250000D01*
X67190253Y-104214932D02*
X66725321Y-104405185D01*
X84000000Y-124000000D02*
X83500000Y-123500000D01*
X91118034Y-75750000D02*
G75*
G03*
X91118034Y-75750000I-1118034J0D01*
G01*
X87500000Y-78250000D02*
X87500000Y-77750000D01*
X87500000Y-78250000D02*
X88000000Y-78250000D01*
X89500000Y-76250000D02*
X87500000Y-78250000D01*
X87500000Y-77750000D02*
X88000000Y-78250000D01*
X81250000Y-68000000D02*
X81750000Y-68900000D01*
X81500000Y-107000000D02*
X81750000Y-104250000D01*
X74500000Y-131000000D02*
X81500000Y-124000000D01*
X77550000Y-120700000D02*
X77450000Y-122300000D01*
X81500000Y-128500000D02*
X79000000Y-131000000D01*
X80250000Y-109500000D02*
X76250000Y-110750000D01*
X80750000Y-106250000D02*
X80500000Y-108250000D01*
X89382031Y-86500000D02*
G75*
G03*
X89382031Y-86500000I-7782031J0D01*
G01*
X86500000Y-118000000D02*
X84500000Y-113250000D01*
X76200000Y-137300000D02*
X76000000Y-137400000D01*
X69700000Y-50300000D02*
X69300000Y-52000000D01*
X76300000Y-139000000D02*
X77400000Y-138400000D01*
X67190253Y-104214932D02*
G75*
G03*
X65788868Y-104964931I-499998J-750000D01*
G01*
X78000000Y-111250000D02*
X80250000Y-111500000D01*
X68400000Y-50300000D02*
X68300000Y-50300000D01*
X70900000Y-105064932D02*
X71700000Y-103364932D01*
X80500000Y-108500000D02*
X78000000Y-109250000D01*
X77500000Y-123000000D02*
X72500000Y-128000000D01*
X81500000Y-125500000D02*
X76000000Y-131000000D01*
X77400000Y-138400000D02*
X76700000Y-137300000D01*
X86250000Y-107750000D02*
X88250000Y-106000000D01*
X74700000Y-50800000D02*
X73600000Y-50800000D01*
X71225000Y-84700000D02*
X71025000Y-86000000D01*
X69300000Y-52000000D02*
X68800000Y-50300000D01*
X78400000Y-58100000D02*
X78600000Y-58000000D01*
X80200000Y-41599999D02*
G75*
G03*
X82700000Y-59100000I2228578J-8610204D01*
G01*
X69400000Y-105064932D02*
X70200000Y-103364932D01*
X67600000Y-50300000D02*
X68400000Y-52000000D01*
X85925000Y-67200000D02*
X85825000Y-67200000D01*
X75950000Y-121600000D02*
X76450000Y-122300000D01*
X84550000Y-101150000D02*
X85250000Y-101150000D01*
X75500000Y-47500000D02*
X74200000Y-47100000D01*
X76250000Y-112250000D02*
X80500000Y-111500000D01*
X75400000Y-139000000D02*
X76200000Y-137300000D01*
X81000000Y-137400000D02*
X79950000Y-139000000D01*
X79999999Y-64000000D02*
G75*
G03*
X75285085Y-59500000I-5350801J-886303D01*
G01*
X78250000Y-120700000D02*
X78150000Y-120700000D01*
X82050000Y-67100000D02*
X81250000Y-68000000D01*
X82000000Y-125500000D02*
X84000000Y-123500000D01*
X80200000Y-137400000D02*
X81000000Y-137400000D01*
X68400000Y-52000000D02*
X68400000Y-50300000D01*
X81500000Y-131000000D02*
X72500000Y-131000000D01*
X71225000Y-85200000D02*
X71525000Y-85200000D01*
X78250000Y-120700000D02*
X77450000Y-122300000D01*
X74750000Y-137300000D02*
X75650000Y-137300000D01*
X70200000Y-103364932D02*
X70000000Y-103464932D01*
X91250000Y-106500000D02*
X86750000Y-108250000D01*
X73500000Y-123000000D02*
X72500000Y-124000000D01*
X70900000Y-139000000D02*
X70900000Y-138800000D01*
X71800000Y-137300000D02*
X70800000Y-137900000D01*
X82200000Y-137400000D02*
X81150000Y-139000000D01*
X84900000Y-67150000D02*
X84875000Y-68900000D01*
X92000000Y-110750000D02*
X86750000Y-109750000D01*
X85925000Y-67200000D02*
X84875000Y-68900000D01*
X70200000Y-103364932D02*
X70300000Y-103564932D01*
X90000000Y-115500000D02*
X86500000Y-112000000D01*
X84150000Y-67100000D02*
X83950000Y-67200000D01*
X82000000Y-68300000D02*
X82100000Y-68400000D01*
X71075000Y-84300000D02*
X70975000Y-84300000D01*
X76750000Y-120700000D02*
X75950000Y-121600000D01*
X75650000Y-137300000D02*
X75350000Y-137900000D01*
X81500000Y-130500000D02*
X81000000Y-131000000D01*
X68425000Y-86000000D02*
X68675000Y-84250000D01*
X80500000Y-111250000D02*
X76000000Y-109750000D01*
X70050000Y-84250000D02*
X69000000Y-86000000D01*
X78500000Y-131000000D02*
X81500000Y-128000000D01*
X71025000Y-86000000D02*
X71725000Y-86000000D01*
X80700000Y-43100000D02*
G75*
G03*
X82700000Y-59100000I2150605J-7856174D01*
G01*
X84000000Y-105250000D02*
X83750000Y-106750000D01*
X71800000Y-137300000D02*
X71800000Y-137500000D01*
X81500000Y-124500000D02*
X75000000Y-131000000D01*
X81500000Y-129000000D02*
X79500000Y-131000000D01*
X79600000Y-137800000D02*
X78800000Y-137400000D01*
X85418034Y-123200000D02*
G75*
G03*
X85418034Y-123200000I-1118034J0D01*
G01*
X69000000Y-86000000D02*
X68900000Y-86000000D01*
X74800000Y-52500000D02*
X74000000Y-52800000D01*
X83750000Y-113250000D02*
X86500000Y-118000000D01*
X75500000Y-76000000D02*
G75*
G03*
X80000000Y-71000000I-1286859J5683173D01*
G01*
X90827312Y-86657907D02*
G75*
G03*
X90827312Y-86657907I-8627312J0D01*
G01*
X71625000Y-84300000D02*
G75*
G03*
X71225000Y-84700000I-1J-399999D01*
G01*
X83250000Y-104000000D02*
X84500000Y-106750000D01*
X71700000Y-138400000D02*
X70900000Y-139000000D01*
X86250000Y-112250000D02*
X87000000Y-117250000D01*
X83350000Y-101150000D02*
X82950000Y-102850000D01*
X63000001Y-72000000D02*
G75*
G03*
X67714915Y-76500000I5350801J886303D01*
G01*
X77500000Y-131000000D02*
X81500000Y-127000000D01*
X90500000Y-110500000D02*
X86750000Y-112250000D01*
X82450000Y-101150000D02*
X83350000Y-101150000D01*
X79000000Y-123000000D02*
X72500000Y-129500000D01*
X73350000Y-139000000D02*
X74350000Y-137300000D01*
X76750000Y-120700000D02*
X76850000Y-120800000D01*
X86500000Y-108000000D02*
X92000000Y-110000000D01*
X81750000Y-104250000D02*
X82500000Y-106750000D01*
X81000000Y-112500000D02*
X81750000Y-117500000D01*
X65000000Y-96500000D02*
X89000000Y-96500000D01*
X80200000Y-41600000D02*
X80700000Y-43100000D01*
X81500000Y-123000000D02*
X81500000Y-131000000D01*
X82950000Y-102850000D02*
X82450000Y-101150000D01*
X78500000Y-114250000D02*
X80750000Y-112000000D01*
X70800000Y-137900000D02*
X71700000Y-138400000D01*
X83350000Y-68900000D02*
X84150000Y-67100000D01*
X84500000Y-113250000D02*
X84000000Y-115000000D01*
X72500000Y-131000000D02*
X80500000Y-123000000D01*
X74900000Y-49000000D02*
X73700000Y-48900000D01*
X70900000Y-139000000D02*
X71100000Y-139000000D01*
X76450000Y-122300000D02*
X76550000Y-122200000D01*
X84000000Y-115000000D02*
X84000000Y-113000000D01*
X81500000Y-129500000D02*
X80000000Y-131000000D01*
X78000000Y-123000000D02*
X72500000Y-128500000D01*
X76000000Y-123000000D02*
X72500000Y-126500000D01*
X81800000Y-139000000D02*
X81900000Y-139000000D01*
X81000000Y-112250000D02*
X76250000Y-112250000D01*
X82950000Y-68100000D02*
X82650000Y-68100000D01*
X76700000Y-137300000D02*
X76300000Y-139000000D01*
X84900000Y-67150000D02*
X83850000Y-68900000D01*
X69800000Y-52000000D02*
X70900000Y-52000000D01*
X76250000Y-46150000D02*
X74950000Y-45450000D01*
X81600000Y-137400000D02*
X81900000Y-139000000D01*
X73500000Y-131000000D02*
X81500000Y-123000000D01*
X76200000Y-137300000D02*
X76300000Y-137500000D01*
X79600000Y-138500000D02*
X78800000Y-138200000D01*
X78000000Y-109250000D02*
X80250000Y-109750000D01*
X67725000Y-84250000D02*
X68425000Y-84250000D01*
X77000000Y-107750000D02*
X80250000Y-108750000D01*
X73650000Y-137300000D02*
X73350000Y-139000000D01*
X76600000Y-56900000D02*
X77000000Y-56700000D01*
X67190253Y-104214932D02*
X67000000Y-103750000D01*
X76500000Y-131000000D02*
X81500000Y-126000000D01*
X70200000Y-50300000D02*
X69800000Y-52000000D01*
X81000000Y-123000000D02*
X73000000Y-131000000D01*
X83050000Y-67100000D02*
X82250000Y-68900000D01*
X83050000Y-67100000D02*
X82950000Y-68900000D01*
X65788868Y-104964931D02*
G75*
G03*
X65028109Y-105762778I249998J-999998D01*
G01*
X75500000Y-54500000D02*
X74900000Y-54800000D01*
X71700000Y-103364932D02*
X71600000Y-103364932D01*
X81750000Y-68900000D02*
X82100000Y-68400000D01*
X70200000Y-50300000D02*
X70100000Y-50300000D01*
X86750000Y-111250000D02*
X89250000Y-108750000D01*
X83350000Y-102850000D02*
X84350000Y-101150000D01*
X81250000Y-112750000D02*
X78500000Y-114250000D01*
X83650000Y-101150000D02*
X83350000Y-102850000D01*
X78100000Y-44330000D02*
X77200000Y-43100000D01*
X82500000Y-104500000D02*
X81500000Y-107500000D01*
X89250000Y-108750000D02*
X86750000Y-110250000D01*
X62500000Y-98000000D02*
X91500000Y-98000000D01*
X83250000Y-106500000D02*
X82500000Y-104500000D01*
X86750000Y-107250000D02*
X91250000Y-106500000D01*
X79499999Y-64544350D02*
G75*
G03*
X74785085Y-60044350I-5350801J-886303D01*
G01*
X72500000Y-125000000D02*
X74500000Y-123000000D01*
X70050000Y-84250000D02*
X70025000Y-86000000D01*
X83850000Y-68900000D02*
X83750000Y-68900000D01*
X75500000Y-131000000D02*
X81500000Y-125000000D01*
X75350000Y-137900000D02*
X74550000Y-137900000D01*
X72600000Y-137300000D02*
X73300000Y-137300000D01*
X80000000Y-110750000D02*
X78000000Y-111250000D01*
X76000000Y-109750000D02*
X80250000Y-110500000D01*
X84000000Y-123500000D02*
X84000000Y-124000000D01*
X83000000Y-106500000D02*
X84000000Y-105250000D01*
X78800000Y-139000000D02*
X79600000Y-138500000D01*
X87000000Y-117250000D02*
X85250000Y-113000000D01*
X81250000Y-107750000D02*
X80750000Y-106250000D01*
X73000000Y-123000000D02*
X72500000Y-123500000D01*
X70100000Y-105064932D02*
X70000000Y-105064932D01*
X80750000Y-108000000D02*
X77000000Y-107750000D01*
X65028109Y-105762778D02*
G75*
G03*
X64028109Y-108762776I999999J-1999999D01*
G01*
X78500000Y-123000000D02*
X72500000Y-129000000D01*
X84150000Y-67100000D02*
X84250000Y-67300000D01*
X85750000Y-112750000D02*
X90000000Y-115500000D01*
X79950000Y-139000000D02*
X80200000Y-137400000D01*
X70900000Y-103364932D02*
X70900000Y-105064932D01*
X68675000Y-84250000D02*
X69475000Y-84250000D01*
X89250000Y-111750000D02*
X85750000Y-112500000D01*
X84000000Y-123500000D02*
X83500000Y-123500000D01*
X63500001Y-71500000D02*
G75*
G03*
X68214915Y-76000000I5350801J886303D01*
G01*
X81500000Y-126500000D02*
X77000000Y-131000000D01*
X68125000Y-84250000D02*
X67125000Y-86000000D01*
X85750000Y-107250000D02*
X83250000Y-104000000D01*
X74950000Y-137300000D02*
X74100000Y-139000000D01*
X71825000Y-86000000D02*
X71625000Y-85800000D01*
X78800000Y-138200000D02*
X79600000Y-137800000D01*
X70100000Y-105064932D02*
X70900000Y-103364932D01*
X71800000Y-137300000D02*
X71600000Y-137200000D01*
X81500000Y-123500000D02*
X74000000Y-131000000D01*
X72500000Y-123000000D02*
X81500000Y-123000000D01*
X84950000Y-101150000D02*
X83950000Y-102850000D01*
X75000000Y-123000000D02*
X72500000Y-125500000D01*
X84500000Y-106750000D02*
X87250000Y-104500000D01*
X67600000Y-50300000D02*
X67500000Y-50300000D01*
X78750000Y-104250000D02*
X81000000Y-107750000D01*
X82000000Y-107000000D02*
X78750000Y-104250000D01*
X78800000Y-137400000D02*
X78800000Y-139000000D01*
X71825000Y-86000000D02*
X71625000Y-86200000D01*
X77200000Y-45100000D02*
X76000000Y-44100000D01*
X87000000Y-111000000D02*
X90500000Y-110500000D01*
X62500000Y-97000000D02*
X91500000Y-97000000D01*
X77000000Y-123000000D02*
X72500000Y-127500000D01*
X82050000Y-67100000D02*
X82150000Y-67200000D01*
X76250000Y-110750000D02*
X80250000Y-110000000D01*
X90308819Y-86100000D02*
G75*
G03*
X90308819Y-86100000I-8508819J0D01*
G01*
X81500000Y-130000000D02*
X80500000Y-131000000D01*
X79170000Y-43660000D02*
X78500000Y-42300000D01*
X83500000Y-113500000D02*
X79750000Y-116500000D01*
X65000000Y-97500000D02*
X89000000Y-97500000D01*
X76500000Y-123000000D02*
X72500000Y-127000000D01*
X69475000Y-84250000D02*
X68425000Y-86000000D01*
X75500000Y-123000000D02*
X72500000Y-126000000D01*
X71625000Y-84300000D02*
X72025000Y-84300000D01*
X79750000Y-116500000D02*
X82500000Y-113250000D01*
X87000000Y-111750000D02*
X89250000Y-111750000D01*
X73000000Y-137300000D02*
X72000000Y-139000000D01*
X81500000Y-127500000D02*
X78000000Y-131000000D01*
X81750000Y-117500000D02*
X81750000Y-112750000D01*
X74000000Y-123000000D02*
X72500000Y-124500000D01*
X71075000Y-84300000D02*
X70025000Y-86000000D01*
X67544350Y-59714915D02*
G75*
G03*
X63044350Y-64714915I1286859J-5683173D01*
G01*
X88250000Y-106000000D02*
X85750000Y-107000000D01*
X72500000Y-130000000D02*
X79500000Y-123000000D01*
X68800000Y-50300000D02*
X69700000Y-50300000D01*
X81500000Y-137400000D02*
X81600000Y-137400000D01*
X90607735Y-85500000D02*
G75*
G03*
X90607735Y-85500000I-8407735J0D01*
G01*
X77550000Y-120700000D02*
X77450000Y-120700000D01*
%LPC*%
D11*
X71000000Y-28000000D03*
X71000000Y-155000000D03*
M02*
