%FSLAX45Y45*%
G04 Gerber Fmt 4.5, Leading zero omitted, Abs format (unit mm)*
G04 Created by KiCad (PCBNEW (5.1.9)-1) date 2021-10-23 20:05:06*
%MOMM*%
%LPD*%
G01*
G04 APERTURE LIST*
%TA.AperFunction,Profile*%
%ADD10C,0.050000*%
%TD*%
%ADD11C,0.200000*%
%ADD12C,0.300000*%
G04 APERTURE END LIST*
D10*
X7000000Y-3100000D02*
X7000000Y-14100000D01*
X3000000Y-14100000D02*
X7000000Y-14100000D01*
X3000000Y-3100000D02*
X7000000Y-3100000D01*
X3000000Y-3100000D02*
X3000000Y-14100000D01*
D11*
D12*
X3283928Y-14568214D02*
X3283928Y-14268214D01*
X3355357Y-14268214D01*
X3398214Y-14282500D01*
X3426786Y-14311071D01*
X3441071Y-14339643D01*
X3455357Y-14396786D01*
X3455357Y-14439643D01*
X3441071Y-14496786D01*
X3426786Y-14525357D01*
X3398214Y-14553929D01*
X3355357Y-14568214D01*
X3283928Y-14568214D01*
X3583928Y-14568214D02*
X3583928Y-14368214D01*
X3583928Y-14425357D02*
X3598214Y-14396786D01*
X3612500Y-14382500D01*
X3641071Y-14368214D01*
X3669643Y-14368214D01*
X3769643Y-14568214D02*
X3769643Y-14368214D01*
X3769643Y-14268214D02*
X3755357Y-14282500D01*
X3769643Y-14296786D01*
X3783928Y-14282500D01*
X3769643Y-14268214D01*
X3769643Y-14296786D01*
X3955357Y-14568214D02*
X3926786Y-14553929D01*
X3912500Y-14525357D01*
X3912500Y-14268214D01*
X4112500Y-14568214D02*
X4083928Y-14553929D01*
X4069643Y-14525357D01*
X4069643Y-14268214D01*
X4455357Y-14568214D02*
X4455357Y-14268214D01*
X4555357Y-14482500D01*
X4655357Y-14268214D01*
X4655357Y-14568214D01*
X4926786Y-14568214D02*
X4926786Y-14411071D01*
X4912500Y-14382500D01*
X4883928Y-14368214D01*
X4826786Y-14368214D01*
X4798214Y-14382500D01*
X4926786Y-14553929D02*
X4898214Y-14568214D01*
X4826786Y-14568214D01*
X4798214Y-14553929D01*
X4783928Y-14525357D01*
X4783928Y-14496786D01*
X4798214Y-14468214D01*
X4826786Y-14453929D01*
X4898214Y-14453929D01*
X4926786Y-14439643D01*
X5069643Y-14368214D02*
X5069643Y-14668214D01*
X5069643Y-14382500D02*
X5098214Y-14368214D01*
X5155357Y-14368214D01*
X5183928Y-14382500D01*
X5198214Y-14396786D01*
X5212500Y-14425357D01*
X5212500Y-14511071D01*
X5198214Y-14539643D01*
X5183928Y-14553929D01*
X5155357Y-14568214D01*
X5098214Y-14568214D01*
X5069643Y-14553929D01*
X5341071Y-14539643D02*
X5355357Y-14553929D01*
X5341071Y-14568214D01*
X5326786Y-14553929D01*
X5341071Y-14539643D01*
X5341071Y-14568214D01*
X5341071Y-14382500D02*
X5355357Y-14396786D01*
X5341071Y-14411071D01*
X5326786Y-14396786D01*
X5341071Y-14382500D01*
X5341071Y-14411071D01*
M02*
