M48
; DRILL file {KiCad (5.1.9)-1} date 10/23/21 20:05:06
; FORMAT={-:-/ absolute / metric / decimal}
; #@! TF.CreationDate,2021-10-23T20:05:06+01:00
; #@! TF.GenerationSoftware,Kicad,Pcbnew,(5.1.9)-1
; #@! TF.FileFunction,Plated,1,2,PTH
FMAT,2
METRIC
T1C0.750
T2C0.800
T3C0.900
T4C1.000
T5C3.100
%
G90
G05
T1
X36.5Y-120.0
X36.5Y-121.27
X36.5Y-122.54
X41.5Y-120.0
X41.5Y-121.27
X41.5Y-122.54
X41.5Y-125.5
X41.5Y-126.77
X41.5Y-128.04
X59.0Y-120.46
X59.0Y-121.73
X59.0Y-123.0
X59.0Y-125.96
X59.0Y-127.23
X59.0Y-128.5
X64.0Y-120.5
X64.0Y-121.77
X64.0Y-123.04
T2
X32.0Y-119.5
X32.0Y-129.66
X32.5Y-81.88
X32.5Y-89.5
X33.0Y-74.0
X33.44Y-57.0
X33.44Y-60.1
X33.44Y-63.2
X33.5Y-66.0
X33.5Y-71.0
X34.0Y-92.5
X34.0Y-94.5
X35.0Y-81.88
X35.0Y-89.5
X36.5Y-125.5
X36.5Y-135.66
X38.4Y-66.3
X38.5Y-84.34
X38.5Y-94.5
X39.5Y-79.0
X39.5Y-81.0
X40.0Y-132.0
X40.0Y-135.0
X43.16Y-74.0
X43.4Y-66.3
X43.6Y-57.0
X43.6Y-60.1
X43.6Y-63.2
X45.0Y-51.5
X45.0Y-120.0
X45.0Y-127.62
X45.0Y-132.0
X45.0Y-135.0
X46.25Y-56.92
X46.25Y-59.46
X46.25Y-62.0
X46.25Y-64.54
X46.5Y-114.0
X46.5Y-116.0
X47.0Y-51.5
X48.0Y-120.0
X48.0Y-130.16
X52.0Y-120.0
X52.0Y-130.16
X53.5Y-114.0
X53.5Y-116.0
X53.87Y-56.92
X53.87Y-59.46
X53.87Y-62.0
X53.87Y-64.54
X54.0Y-50.5
X54.0Y-52.5
X55.0Y-120.0
X55.0Y-127.62
X55.0Y-132.0
X55.0Y-135.0
X56.5Y-57.0
X56.5Y-60.0
X56.5Y-63.0
X56.5Y-74.0
X56.7Y-66.0
X56.7Y-69.0
X59.0Y-80.88
X59.0Y-88.5
X60.0Y-132.0
X60.0Y-135.0
X61.0Y-91.5
X61.0Y-93.5
X61.7Y-66.0
X61.7Y-69.0
X62.0Y-80.88
X62.0Y-88.5
X64.0Y-126.0
X64.0Y-136.16
X65.5Y-40.0
X65.5Y-50.16
X65.5Y-83.34
X65.5Y-93.5
X66.5Y-66.0
X66.5Y-71.0
X66.5Y-78.0
X66.5Y-80.0
X66.66Y-57.0
X66.66Y-60.0
X66.66Y-63.0
X66.66Y-74.0
X68.0Y-119.5
X68.0Y-129.66
T3
X65.5Y-34.0
X65.5Y-36.54
T4
X32.0Y-98.5
X32.0Y-101.04
X32.0Y-103.58
X32.0Y-106.12
X32.0Y-108.66
X32.0Y-111.2
X32.0Y-113.74
X32.0Y-116.28
X39.5Y-41.3
X39.5Y-54.0
X44.84Y-41.46
X44.84Y-44.0
X47.38Y-41.46
X47.38Y-44.0
X49.92Y-41.46
X49.92Y-44.0
X52.46Y-41.46
X52.46Y-44.0
X55.0Y-41.46
X55.0Y-44.0
X60.0Y-41.3
X60.0Y-54.0
X68.0Y-98.5
X68.0Y-101.04
X68.0Y-103.58
X68.0Y-106.12
X68.0Y-108.66
X68.0Y-111.2
X68.0Y-113.74
X68.0Y-116.28
T5
X50.0Y-35.0
T0
M30
