G04 #@! TF.GenerationSoftware,KiCad,Pcbnew,(5.1.9)-1*
G04 #@! TF.CreationDate,2021-10-23T20:05:05+01:00*
G04 #@! TF.ProjectId,Snare+Hihat,536e6172-652b-4486-9968-61742e6b6963,rev?*
G04 #@! TF.SameCoordinates,Original*
G04 #@! TF.FileFunction,Legend,Bot*
G04 #@! TF.FilePolarity,Positive*
%FSLAX46Y46*%
G04 Gerber Fmt 4.6, Leading zero omitted, Abs format (unit mm)*
G04 Created by KiCad (PCBNEW (5.1.9)-1) date 2021-10-23 20:05:05*
%MOMM*%
%LPD*%
G01*
G04 APERTURE LIST*
%ADD10C,0.120000*%
%ADD11C,0.150000*%
%ADD12O,1.600000X1.600000*%
%ADD13C,1.600000*%
%ADD14R,1.600000X1.600000*%
%ADD15R,1.500000X1.050000*%
%ADD16O,1.500000X1.050000*%
%ADD17O,1.700000X1.700000*%
%ADD18R,1.700000X1.700000*%
%ADD19O,2.000000X2.000000*%
%ADD20C,2.000000*%
%ADD21C,1.800000*%
%ADD22R,1.800000X1.800000*%
G04 APERTURE END LIST*
D10*
X56330000Y-45330000D02*
X56330000Y-44000000D01*
X55000000Y-45330000D02*
X56330000Y-45330000D01*
X56330000Y-42730000D02*
X56330000Y-40130000D01*
X53730000Y-42730000D02*
X56330000Y-42730000D01*
X53730000Y-45330000D02*
X53730000Y-42730000D01*
X56330000Y-40130000D02*
X43510000Y-40130000D01*
X53730000Y-45330000D02*
X43510000Y-45330000D01*
X43510000Y-45330000D02*
X43510000Y-40130000D01*
X66580000Y-33210000D02*
X66899000Y-33210000D01*
X64101000Y-33210000D02*
X64420000Y-33210000D01*
X66580961Y-36952713D02*
G75*
G03*
X66580000Y-33586670I-1080961J1682713D01*
G01*
X64419039Y-36952713D02*
G75*
G02*
X64420000Y-33586670I1080961J1682713D01*
G01*
X66580724Y-37513242D02*
G75*
G03*
X66898749Y-33210000I-1080724J2243242D01*
G01*
X64419276Y-37513242D02*
G75*
G02*
X64101251Y-33210000I1080724J2243242D01*
G01*
D11*
X56782380Y-42396666D02*
X57496666Y-42396666D01*
X57639523Y-42349047D01*
X57734761Y-42253809D01*
X57782380Y-42110952D01*
X57782380Y-42015714D01*
X56877619Y-42825238D02*
X56830000Y-42872857D01*
X56782380Y-42968095D01*
X56782380Y-43206190D01*
X56830000Y-43301428D01*
X56877619Y-43349047D01*
X56972857Y-43396666D01*
X57068095Y-43396666D01*
X57210952Y-43349047D01*
X57782380Y-42777619D01*
X57782380Y-43396666D01*
X62492380Y-34531904D02*
X61492380Y-34531904D01*
X61492380Y-34770000D01*
X61540000Y-34912857D01*
X61635238Y-35008095D01*
X61730476Y-35055714D01*
X61920952Y-35103333D01*
X62063809Y-35103333D01*
X62254285Y-35055714D01*
X62349523Y-35008095D01*
X62444761Y-34912857D01*
X62492380Y-34770000D01*
X62492380Y-34531904D01*
X61825714Y-35960476D02*
X62492380Y-35960476D01*
X61444761Y-35722380D02*
X62159047Y-35484285D01*
X62159047Y-36103333D01*
%LPC*%
D12*
X43600000Y-57000000D03*
D13*
X33440000Y-57000000D03*
X53500000Y-114000000D03*
D14*
X53500000Y-116000000D03*
D13*
X46500000Y-114000000D03*
D14*
X46500000Y-116000000D03*
D12*
X53870000Y-56920000D03*
X46250000Y-64540000D03*
X53870000Y-59460000D03*
X46250000Y-62000000D03*
X53870000Y-62000000D03*
X46250000Y-59460000D03*
X53870000Y-64540000D03*
D14*
X46250000Y-56920000D03*
D12*
X66660000Y-74000000D03*
D13*
X56500000Y-74000000D03*
D12*
X66660000Y-57000000D03*
D13*
X56500000Y-57000000D03*
D12*
X66660000Y-60000000D03*
D13*
X56500000Y-60000000D03*
D12*
X66660000Y-63000000D03*
D13*
X56500000Y-63000000D03*
D12*
X32000000Y-129660000D03*
D13*
X32000000Y-119500000D03*
D12*
X48000000Y-130160000D03*
D13*
X48000000Y-120000000D03*
D12*
X36500000Y-135660000D03*
D13*
X36500000Y-125500000D03*
D12*
X38500000Y-84340000D03*
D13*
X38500000Y-94500000D03*
D12*
X33000000Y-74000000D03*
D13*
X43160000Y-74000000D03*
D12*
X33440000Y-60100000D03*
D13*
X43600000Y-60100000D03*
D12*
X33440000Y-63200000D03*
D13*
X43600000Y-63200000D03*
D12*
X65500000Y-40000000D03*
D13*
X65500000Y-50160000D03*
D12*
X68000000Y-129660000D03*
D13*
X68000000Y-119500000D03*
D12*
X52000000Y-130160000D03*
D13*
X52000000Y-120000000D03*
D12*
X64000000Y-136160000D03*
D13*
X64000000Y-126000000D03*
D12*
X65500000Y-83340000D03*
D13*
X65500000Y-93500000D03*
D15*
X41500000Y-128040000D03*
D16*
X41500000Y-125500000D03*
X41500000Y-126770000D03*
D15*
X41500000Y-122540000D03*
D16*
X41500000Y-120000000D03*
X41500000Y-121270000D03*
D15*
X36500000Y-122540000D03*
D16*
X36500000Y-120000000D03*
X36500000Y-121270000D03*
D15*
X59000000Y-128500000D03*
D16*
X59000000Y-125960000D03*
X59000000Y-127230000D03*
D15*
X59000000Y-123000000D03*
D16*
X59000000Y-120460000D03*
X59000000Y-121730000D03*
D15*
X64000000Y-123040000D03*
D16*
X64000000Y-120500000D03*
X64000000Y-121770000D03*
D17*
X32000000Y-116280000D03*
X32000000Y-113740000D03*
X32000000Y-111200000D03*
X32000000Y-108660000D03*
X32000000Y-106120000D03*
X32000000Y-103580000D03*
X32000000Y-101040000D03*
D18*
X32000000Y-98500000D03*
D17*
X68000000Y-116280000D03*
X68000000Y-113740000D03*
X68000000Y-111200000D03*
X68000000Y-108660000D03*
X68000000Y-106120000D03*
X68000000Y-103580000D03*
X68000000Y-101040000D03*
D18*
X68000000Y-98500000D03*
D17*
X44840000Y-41460000D03*
X44840000Y-44000000D03*
X47380000Y-41460000D03*
X47380000Y-44000000D03*
X49920000Y-41460000D03*
X49920000Y-44000000D03*
X52460000Y-41460000D03*
X52460000Y-44000000D03*
X55000000Y-41460000D03*
D18*
X55000000Y-44000000D03*
D19*
X39500000Y-41300000D03*
D20*
X39500000Y-54000000D03*
D19*
X60000000Y-41300000D03*
D20*
X60000000Y-54000000D03*
D12*
X45000000Y-120000000D03*
D14*
X45000000Y-127620000D03*
D12*
X35000000Y-89500000D03*
D14*
X35000000Y-81880000D03*
D12*
X32500000Y-81880000D03*
D14*
X32500000Y-89500000D03*
D21*
X65500000Y-36540000D03*
D22*
X65500000Y-34000000D03*
D12*
X55000000Y-120000000D03*
D14*
X55000000Y-127620000D03*
D12*
X62000000Y-88500000D03*
D14*
X62000000Y-80880000D03*
D12*
X59000000Y-80880000D03*
D14*
X59000000Y-88500000D03*
D13*
X61700000Y-66000000D03*
X56700000Y-66000000D03*
X66500000Y-66000000D03*
X66500000Y-71000000D03*
X61700000Y-69000000D03*
X56700000Y-69000000D03*
X40000000Y-135000000D03*
X45000000Y-135000000D03*
X40000000Y-132000000D03*
X45000000Y-132000000D03*
X39500000Y-79000000D03*
D14*
X39500000Y-81000000D03*
D13*
X34000000Y-92500000D03*
D14*
X34000000Y-94500000D03*
D13*
X33500000Y-71000000D03*
X33500000Y-66000000D03*
X43400000Y-66300000D03*
X38400000Y-66300000D03*
X60000000Y-135000000D03*
X55000000Y-135000000D03*
X60000000Y-132000000D03*
X55000000Y-132000000D03*
X66500000Y-78000000D03*
D14*
X66500000Y-80000000D03*
D13*
X45000000Y-51500000D03*
D14*
X47000000Y-51500000D03*
D13*
X54000000Y-50500000D03*
D14*
X54000000Y-52500000D03*
D13*
X61000000Y-91500000D03*
D14*
X61000000Y-93500000D03*
M02*
