G04 #@! TF.GenerationSoftware,KiCad,Pcbnew,(6.0.0)*
G04 #@! TF.CreationDate,2022-01-31T09:13:51+01:00*
G04 #@! TF.ProjectId,Snare+Hihat,536e6172-652b-4486-9968-61742e6b6963,rev?*
G04 #@! TF.SameCoordinates,Original*
G04 #@! TF.FileFunction,Legend,Top*
G04 #@! TF.FilePolarity,Positive*
%FSLAX46Y46*%
G04 Gerber Fmt 4.6, Leading zero omitted, Abs format (unit mm)*
G04 Created by KiCad (PCBNEW (6.0.0)) date 2022-01-31 09:13:51*
%MOMM*%
%LPD*%
G01*
G04 APERTURE LIST*
%ADD10C,0.150000*%
%ADD11C,0.120000*%
%ADD12R,1.600000X1.600000*%
%ADD13C,1.600000*%
%ADD14O,1.600000X1.600000*%
%ADD15C,2.000000*%
%ADD16O,2.000000X2.000000*%
%ADD17R,1.700000X1.700000*%
%ADD18O,1.700000X1.700000*%
%ADD19R,1.500000X1.050000*%
%ADD20O,1.500000X1.050000*%
%ADD21R,1.800000X1.800000*%
%ADD22C,1.800000*%
G04 APERTURE END LIST*
D10*
X31380952Y-138952380D02*
X31380952Y-139666666D01*
X31333333Y-139809523D01*
X31238095Y-139904761D01*
X31095238Y-139952380D01*
X31000000Y-139952380D01*
X32333333Y-139952380D02*
X31857142Y-139952380D01*
X31857142Y-138952380D01*
X33238095Y-139857142D02*
X33190476Y-139904761D01*
X33047619Y-139952380D01*
X32952380Y-139952380D01*
X32809523Y-139904761D01*
X32714285Y-139809523D01*
X32666666Y-139714285D01*
X32619047Y-139523809D01*
X32619047Y-139380952D01*
X32666666Y-139190476D01*
X32714285Y-139095238D01*
X32809523Y-139000000D01*
X32952380Y-138952380D01*
X33047619Y-138952380D01*
X33190476Y-139000000D01*
X33238095Y-139047619D01*
X33952380Y-138952380D02*
X33952380Y-139666666D01*
X33904761Y-139809523D01*
X33809523Y-139904761D01*
X33666666Y-139952380D01*
X33571428Y-139952380D01*
X34904761Y-139952380D02*
X34428571Y-139952380D01*
X34428571Y-138952380D01*
X35809523Y-139857142D02*
X35761904Y-139904761D01*
X35619047Y-139952380D01*
X35523809Y-139952380D01*
X35380952Y-139904761D01*
X35285714Y-139809523D01*
X35238095Y-139714285D01*
X35190476Y-139523809D01*
X35190476Y-139380952D01*
X35238095Y-139190476D01*
X35285714Y-139095238D01*
X35380952Y-139000000D01*
X35523809Y-138952380D01*
X35619047Y-138952380D01*
X35761904Y-139000000D01*
X35809523Y-139047619D01*
X36523809Y-138952380D02*
X36523809Y-139666666D01*
X36476190Y-139809523D01*
X36380952Y-139904761D01*
X36238095Y-139952380D01*
X36142857Y-139952380D01*
X37476190Y-139952380D02*
X37000000Y-139952380D01*
X37000000Y-138952380D01*
X38380952Y-139857142D02*
X38333333Y-139904761D01*
X38190476Y-139952380D01*
X38095238Y-139952380D01*
X37952380Y-139904761D01*
X37857142Y-139809523D01*
X37809523Y-139714285D01*
X37761904Y-139523809D01*
X37761904Y-139380952D01*
X37809523Y-139190476D01*
X37857142Y-139095238D01*
X37952380Y-139000000D01*
X38095238Y-138952380D01*
X38190476Y-138952380D01*
X38333333Y-139000000D01*
X38380952Y-139047619D01*
X39095238Y-138952380D02*
X39095238Y-139666666D01*
X39047619Y-139809523D01*
X38952380Y-139904761D01*
X38809523Y-139952380D01*
X38714285Y-139952380D01*
X40047619Y-139952380D02*
X39571428Y-139952380D01*
X39571428Y-138952380D01*
X40952380Y-139857142D02*
X40904761Y-139904761D01*
X40761904Y-139952380D01*
X40666666Y-139952380D01*
X40523809Y-139904761D01*
X40428571Y-139809523D01*
X40380952Y-139714285D01*
X40333333Y-139523809D01*
X40333333Y-139380952D01*
X40380952Y-139190476D01*
X40428571Y-139095238D01*
X40523809Y-139000000D01*
X40666666Y-138952380D01*
X40761904Y-138952380D01*
X40904761Y-139000000D01*
X40952380Y-139047619D01*
X44666666Y-38794761D02*
X44809523Y-38842380D01*
X45047619Y-38842380D01*
X45142857Y-38794761D01*
X45190476Y-38747142D01*
X45238095Y-38651904D01*
X45238095Y-38556666D01*
X45190476Y-38461428D01*
X45142857Y-38413809D01*
X45047619Y-38366190D01*
X44857142Y-38318571D01*
X44761904Y-38270952D01*
X44714285Y-38223333D01*
X44666666Y-38128095D01*
X44666666Y-38032857D01*
X44714285Y-37937619D01*
X44761904Y-37890000D01*
X44857142Y-37842380D01*
X45095238Y-37842380D01*
X45238095Y-37890000D01*
X45666666Y-38175714D02*
X45666666Y-38842380D01*
X45666666Y-38270952D02*
X45714285Y-38223333D01*
X45809523Y-38175714D01*
X45952380Y-38175714D01*
X46047619Y-38223333D01*
X46095238Y-38318571D01*
X46095238Y-38842380D01*
X47000000Y-38842380D02*
X47000000Y-38318571D01*
X46952380Y-38223333D01*
X46857142Y-38175714D01*
X46666666Y-38175714D01*
X46571428Y-38223333D01*
X47000000Y-38794761D02*
X46904761Y-38842380D01*
X46666666Y-38842380D01*
X46571428Y-38794761D01*
X46523809Y-38699523D01*
X46523809Y-38604285D01*
X46571428Y-38509047D01*
X46666666Y-38461428D01*
X46904761Y-38461428D01*
X47000000Y-38413809D01*
X47476190Y-38842380D02*
X47476190Y-38175714D01*
X47476190Y-38366190D02*
X47523809Y-38270952D01*
X47571428Y-38223333D01*
X47666666Y-38175714D01*
X47761904Y-38175714D01*
X48476190Y-38794761D02*
X48380952Y-38842380D01*
X48190476Y-38842380D01*
X48095238Y-38794761D01*
X48047619Y-38699523D01*
X48047619Y-38318571D01*
X48095238Y-38223333D01*
X48190476Y-38175714D01*
X48380952Y-38175714D01*
X48476190Y-38223333D01*
X48523809Y-38318571D01*
X48523809Y-38413809D01*
X48047619Y-38509047D01*
X49714285Y-38461428D02*
X50476190Y-38461428D01*
X50095238Y-38842380D02*
X50095238Y-38080476D01*
X51714285Y-38842380D02*
X51714285Y-37842380D01*
X51714285Y-38318571D02*
X52285714Y-38318571D01*
X52285714Y-38842380D02*
X52285714Y-37842380D01*
X52761904Y-38842380D02*
X52761904Y-38175714D01*
X52761904Y-37842380D02*
X52714285Y-37890000D01*
X52761904Y-37937619D01*
X52809523Y-37890000D01*
X52761904Y-37842380D01*
X52761904Y-37937619D01*
X53238095Y-38842380D02*
X53238095Y-37842380D01*
X53238095Y-38318571D02*
X53809523Y-38318571D01*
X53809523Y-38842380D02*
X53809523Y-37842380D01*
X54714285Y-38842380D02*
X54714285Y-38318571D01*
X54666666Y-38223333D01*
X54571428Y-38175714D01*
X54380952Y-38175714D01*
X54285714Y-38223333D01*
X54714285Y-38794761D02*
X54619047Y-38842380D01*
X54380952Y-38842380D01*
X54285714Y-38794761D01*
X54238095Y-38699523D01*
X54238095Y-38604285D01*
X54285714Y-38509047D01*
X54380952Y-38461428D01*
X54619047Y-38461428D01*
X54714285Y-38413809D01*
X55047619Y-38175714D02*
X55428571Y-38175714D01*
X55190476Y-37842380D02*
X55190476Y-38699523D01*
X55238095Y-38794761D01*
X55333333Y-38842380D01*
X55428571Y-38842380D01*
X43738095Y-39452380D02*
X44071428Y-40452380D01*
X44404761Y-39452380D01*
X45261904Y-40452380D02*
X44690476Y-40452380D01*
X44976190Y-40452380D02*
X44976190Y-39452380D01*
X44880952Y-39595238D01*
X44785714Y-39690476D01*
X44690476Y-39738095D01*
X45690476Y-40357142D02*
X45738095Y-40404761D01*
X45690476Y-40452380D01*
X45642857Y-40404761D01*
X45690476Y-40357142D01*
X45690476Y-40452380D01*
X46357142Y-39452380D02*
X46452380Y-39452380D01*
X46547619Y-39500000D01*
X46595238Y-39547619D01*
X46642857Y-39642857D01*
X46690476Y-39833333D01*
X46690476Y-40071428D01*
X46642857Y-40261904D01*
X46595238Y-40357142D01*
X46547619Y-40404761D01*
X46452380Y-40452380D01*
X46357142Y-40452380D01*
X46261904Y-40404761D01*
X46214285Y-40357142D01*
X46166666Y-40261904D01*
X46119047Y-40071428D01*
X46119047Y-39833333D01*
X46166666Y-39642857D01*
X46214285Y-39547619D01*
X46261904Y-39500000D01*
X46357142Y-39452380D01*
X48214285Y-39928571D02*
X48357142Y-39976190D01*
X48404761Y-40023809D01*
X48452380Y-40119047D01*
X48452380Y-40261904D01*
X48404761Y-40357142D01*
X48357142Y-40404761D01*
X48261904Y-40452380D01*
X47880952Y-40452380D01*
X47880952Y-39452380D01*
X48214285Y-39452380D01*
X48309523Y-39500000D01*
X48357142Y-39547619D01*
X48404761Y-39642857D01*
X48404761Y-39738095D01*
X48357142Y-39833333D01*
X48309523Y-39880952D01*
X48214285Y-39928571D01*
X47880952Y-39928571D01*
X49023809Y-40452380D02*
X48928571Y-40404761D01*
X48880952Y-40309523D01*
X48880952Y-39452380D01*
X49785714Y-40404761D02*
X49690476Y-40452380D01*
X49500000Y-40452380D01*
X49404761Y-40404761D01*
X49357142Y-40309523D01*
X49357142Y-39928571D01*
X49404761Y-39833333D01*
X49500000Y-39785714D01*
X49690476Y-39785714D01*
X49785714Y-39833333D01*
X49833333Y-39928571D01*
X49833333Y-40023809D01*
X49357142Y-40119047D01*
X50642857Y-40404761D02*
X50547619Y-40452380D01*
X50357142Y-40452380D01*
X50261904Y-40404761D01*
X50214285Y-40309523D01*
X50214285Y-39928571D01*
X50261904Y-39833333D01*
X50357142Y-39785714D01*
X50547619Y-39785714D01*
X50642857Y-39833333D01*
X50690476Y-39928571D01*
X50690476Y-40023809D01*
X50214285Y-40119047D01*
X51119047Y-39785714D02*
X51119047Y-40785714D01*
X51119047Y-39833333D02*
X51214285Y-39785714D01*
X51404761Y-39785714D01*
X51500000Y-39833333D01*
X51547619Y-39880952D01*
X51595238Y-39976190D01*
X51595238Y-40261904D01*
X51547619Y-40357142D01*
X51500000Y-40404761D01*
X51404761Y-40452380D01*
X51214285Y-40452380D01*
X51119047Y-40404761D01*
X51976190Y-40404761D02*
X52119047Y-40452380D01*
X52357142Y-40452380D01*
X52452380Y-40404761D01*
X52500000Y-40357142D01*
X52547619Y-40261904D01*
X52547619Y-40166666D01*
X52500000Y-40071428D01*
X52452380Y-40023809D01*
X52357142Y-39976190D01*
X52166666Y-39928571D01*
X52071428Y-39880952D01*
X52023809Y-39833333D01*
X51976190Y-39738095D01*
X51976190Y-39642857D01*
X52023809Y-39547619D01*
X52071428Y-39500000D01*
X52166666Y-39452380D01*
X52404761Y-39452380D01*
X52547619Y-39500000D01*
X53119047Y-40452380D02*
X53023809Y-40404761D01*
X52976190Y-40357142D01*
X52928571Y-40261904D01*
X52928571Y-39976190D01*
X52976190Y-39880952D01*
X53023809Y-39833333D01*
X53119047Y-39785714D01*
X53261904Y-39785714D01*
X53357142Y-39833333D01*
X53404761Y-39880952D01*
X53452380Y-39976190D01*
X53452380Y-40261904D01*
X53404761Y-40357142D01*
X53357142Y-40404761D01*
X53261904Y-40452380D01*
X53119047Y-40452380D01*
X54309523Y-39785714D02*
X54309523Y-40452380D01*
X53880952Y-39785714D02*
X53880952Y-40309523D01*
X53928571Y-40404761D01*
X54023809Y-40452380D01*
X54166666Y-40452380D01*
X54261904Y-40404761D01*
X54309523Y-40357142D01*
X54785714Y-39785714D02*
X54785714Y-40452380D01*
X54785714Y-39880952D02*
X54833333Y-39833333D01*
X54928571Y-39785714D01*
X55071428Y-39785714D01*
X55166666Y-39833333D01*
X55214285Y-39928571D01*
X55214285Y-40452380D01*
X56119047Y-40452380D02*
X56119047Y-39452380D01*
X56119047Y-40404761D02*
X56023809Y-40452380D01*
X55833333Y-40452380D01*
X55738095Y-40404761D01*
X55690476Y-40357142D01*
X55642857Y-40261904D01*
X55642857Y-39976190D01*
X55690476Y-39880952D01*
X55738095Y-39833333D01*
X55833333Y-39785714D01*
X56023809Y-39785714D01*
X56119047Y-39833333D01*
X48285714Y-41157619D02*
X48333333Y-41110000D01*
X48428571Y-41062380D01*
X48666666Y-41062380D01*
X48761904Y-41110000D01*
X48809523Y-41157619D01*
X48857142Y-41252857D01*
X48857142Y-41348095D01*
X48809523Y-41490952D01*
X48238095Y-42062380D01*
X48857142Y-42062380D01*
X49476190Y-41062380D02*
X49571428Y-41062380D01*
X49666666Y-41110000D01*
X49714285Y-41157619D01*
X49761904Y-41252857D01*
X49809523Y-41443333D01*
X49809523Y-41681428D01*
X49761904Y-41871904D01*
X49714285Y-41967142D01*
X49666666Y-42014761D01*
X49571428Y-42062380D01*
X49476190Y-42062380D01*
X49380952Y-42014761D01*
X49333333Y-41967142D01*
X49285714Y-41871904D01*
X49238095Y-41681428D01*
X49238095Y-41443333D01*
X49285714Y-41252857D01*
X49333333Y-41157619D01*
X49380952Y-41110000D01*
X49476190Y-41062380D01*
X50190476Y-41157619D02*
X50238095Y-41110000D01*
X50333333Y-41062380D01*
X50571428Y-41062380D01*
X50666666Y-41110000D01*
X50714285Y-41157619D01*
X50761904Y-41252857D01*
X50761904Y-41348095D01*
X50714285Y-41490952D01*
X50142857Y-42062380D01*
X50761904Y-42062380D01*
X51142857Y-41157619D02*
X51190476Y-41110000D01*
X51285714Y-41062380D01*
X51523809Y-41062380D01*
X51619047Y-41110000D01*
X51666666Y-41157619D01*
X51714285Y-41252857D01*
X51714285Y-41348095D01*
X51666666Y-41490952D01*
X51095238Y-42062380D01*
X51714285Y-42062380D01*
X46547619Y-52678571D02*
X46690476Y-52726190D01*
X46738095Y-52773809D01*
X46785714Y-52869047D01*
X46785714Y-53011904D01*
X46738095Y-53107142D01*
X46690476Y-53154761D01*
X46595238Y-53202380D01*
X46214285Y-53202380D01*
X46214285Y-52202380D01*
X46547619Y-52202380D01*
X46642857Y-52250000D01*
X46690476Y-52297619D01*
X46738095Y-52392857D01*
X46738095Y-52488095D01*
X46690476Y-52583333D01*
X46642857Y-52630952D01*
X46547619Y-52678571D01*
X46214285Y-52678571D01*
X47357142Y-53202380D02*
X47261904Y-53154761D01*
X47214285Y-53107142D01*
X47166666Y-53011904D01*
X47166666Y-52726190D01*
X47214285Y-52630952D01*
X47261904Y-52583333D01*
X47357142Y-52535714D01*
X47500000Y-52535714D01*
X47595238Y-52583333D01*
X47642857Y-52630952D01*
X47690476Y-52726190D01*
X47690476Y-53011904D01*
X47642857Y-53107142D01*
X47595238Y-53154761D01*
X47500000Y-53202380D01*
X47357142Y-53202380D01*
X48547619Y-53202380D02*
X48547619Y-52678571D01*
X48500000Y-52583333D01*
X48404761Y-52535714D01*
X48214285Y-52535714D01*
X48119047Y-52583333D01*
X48547619Y-53154761D02*
X48452380Y-53202380D01*
X48214285Y-53202380D01*
X48119047Y-53154761D01*
X48071428Y-53059523D01*
X48071428Y-52964285D01*
X48119047Y-52869047D01*
X48214285Y-52821428D01*
X48452380Y-52821428D01*
X48547619Y-52773809D01*
X49023809Y-53202380D02*
X49023809Y-52535714D01*
X49023809Y-52726190D02*
X49071428Y-52630952D01*
X49119047Y-52583333D01*
X49214285Y-52535714D01*
X49309523Y-52535714D01*
X50071428Y-53202380D02*
X50071428Y-52202380D01*
X50071428Y-53154761D02*
X49976190Y-53202380D01*
X49785714Y-53202380D01*
X49690476Y-53154761D01*
X49642857Y-53107142D01*
X49595238Y-53011904D01*
X49595238Y-52726190D01*
X49642857Y-52630952D01*
X49690476Y-52583333D01*
X49785714Y-52535714D01*
X49976190Y-52535714D01*
X50071428Y-52583333D01*
X51833333Y-53202380D02*
X51261904Y-53202380D01*
X51547619Y-53202380D02*
X51547619Y-52202380D01*
X51452380Y-52345238D01*
X51357142Y-52440476D01*
X51261904Y-52488095D01*
X52976190Y-52154761D02*
X52119047Y-53440476D01*
X53261904Y-52297619D02*
X53309523Y-52250000D01*
X53404761Y-52202380D01*
X53642857Y-52202380D01*
X53738095Y-52250000D01*
X53785714Y-52297619D01*
X53833333Y-52392857D01*
X53833333Y-52488095D01*
X53785714Y-52630952D01*
X53214285Y-53202380D01*
X53833333Y-53202380D01*
X57357142Y-74166666D02*
X57404761Y-74214285D01*
X57452380Y-74357142D01*
X57452380Y-74452380D01*
X57404761Y-74595238D01*
X57309523Y-74690476D01*
X57214285Y-74738095D01*
X57023809Y-74785714D01*
X56880952Y-74785714D01*
X56690476Y-74738095D01*
X56595238Y-74690476D01*
X56500000Y-74595238D01*
X56452380Y-74452380D01*
X56452380Y-74357142D01*
X56500000Y-74214285D01*
X56547619Y-74166666D01*
X56785714Y-73309523D02*
X57452380Y-73309523D01*
X56404761Y-73547619D02*
X57119047Y-73785714D01*
X57119047Y-73166666D01*
X63607142Y-58166666D02*
X63654761Y-58214285D01*
X63702380Y-58357142D01*
X63702380Y-58452380D01*
X63654761Y-58595238D01*
X63559523Y-58690476D01*
X63464285Y-58738095D01*
X63273809Y-58785714D01*
X63130952Y-58785714D01*
X62940476Y-58738095D01*
X62845238Y-58690476D01*
X62750000Y-58595238D01*
X62702380Y-58452380D01*
X62702380Y-58357142D01*
X62750000Y-58214285D01*
X62797619Y-58166666D01*
X62702380Y-57833333D02*
X62702380Y-57166666D01*
X63702380Y-57595238D01*
X57333333Y-92947142D02*
X57285714Y-92994761D01*
X57142857Y-93042380D01*
X57047619Y-93042380D01*
X56904761Y-92994761D01*
X56809523Y-92899523D01*
X56761904Y-92804285D01*
X56714285Y-92613809D01*
X56714285Y-92470952D01*
X56761904Y-92280476D01*
X56809523Y-92185238D01*
X56904761Y-92090000D01*
X57047619Y-92042380D01*
X57142857Y-92042380D01*
X57285714Y-92090000D01*
X57333333Y-92137619D01*
X57904761Y-92470952D02*
X57809523Y-92423333D01*
X57761904Y-92375714D01*
X57714285Y-92280476D01*
X57714285Y-92232857D01*
X57761904Y-92137619D01*
X57809523Y-92090000D01*
X57904761Y-92042380D01*
X58095238Y-92042380D01*
X58190476Y-92090000D01*
X58238095Y-92137619D01*
X58285714Y-92232857D01*
X58285714Y-92280476D01*
X58238095Y-92375714D01*
X58190476Y-92423333D01*
X58095238Y-92470952D01*
X57904761Y-92470952D01*
X57809523Y-92518571D01*
X57761904Y-92566190D01*
X57714285Y-92661428D01*
X57714285Y-92851904D01*
X57761904Y-92947142D01*
X57809523Y-92994761D01*
X57904761Y-93042380D01*
X58095238Y-93042380D01*
X58190476Y-92994761D01*
X58238095Y-92947142D01*
X58285714Y-92851904D01*
X58285714Y-92661428D01*
X58238095Y-92566190D01*
X58190476Y-92518571D01*
X58095238Y-92470952D01*
X57333333Y-95947142D02*
X57285714Y-95994761D01*
X57142857Y-96042380D01*
X57047619Y-96042380D01*
X56904761Y-95994761D01*
X56809523Y-95899523D01*
X56761904Y-95804285D01*
X56714285Y-95613809D01*
X56714285Y-95470952D01*
X56761904Y-95280476D01*
X56809523Y-95185238D01*
X56904761Y-95090000D01*
X57047619Y-95042380D01*
X57142857Y-95042380D01*
X57285714Y-95090000D01*
X57333333Y-95137619D01*
X57809523Y-96042380D02*
X58000000Y-96042380D01*
X58095238Y-95994761D01*
X58142857Y-95947142D01*
X58238095Y-95804285D01*
X58285714Y-95613809D01*
X58285714Y-95232857D01*
X58238095Y-95137619D01*
X58190476Y-95090000D01*
X58095238Y-95042380D01*
X57904761Y-95042380D01*
X57809523Y-95090000D01*
X57761904Y-95137619D01*
X57714285Y-95232857D01*
X57714285Y-95470952D01*
X57761904Y-95566190D01*
X57809523Y-95613809D01*
X57904761Y-95661428D01*
X58095238Y-95661428D01*
X58190476Y-95613809D01*
X58238095Y-95566190D01*
X58285714Y-95470952D01*
X56357142Y-111757142D02*
X56309523Y-111804761D01*
X56166666Y-111852380D01*
X56071428Y-111852380D01*
X55928571Y-111804761D01*
X55833333Y-111709523D01*
X55785714Y-111614285D01*
X55738095Y-111423809D01*
X55738095Y-111280952D01*
X55785714Y-111090476D01*
X55833333Y-110995238D01*
X55928571Y-110900000D01*
X56071428Y-110852380D01*
X56166666Y-110852380D01*
X56309523Y-110900000D01*
X56357142Y-110947619D01*
X57309523Y-111852380D02*
X56738095Y-111852380D01*
X57023809Y-111852380D02*
X57023809Y-110852380D01*
X56928571Y-110995238D01*
X56833333Y-111090476D01*
X56738095Y-111138095D01*
X57928571Y-110852380D02*
X58023809Y-110852380D01*
X58119047Y-110900000D01*
X58166666Y-110947619D01*
X58214285Y-111042857D01*
X58261904Y-111233333D01*
X58261904Y-111471428D01*
X58214285Y-111661904D01*
X58166666Y-111757142D01*
X58119047Y-111804761D01*
X58023809Y-111852380D01*
X57928571Y-111852380D01*
X57833333Y-111804761D01*
X57785714Y-111757142D01*
X57738095Y-111661904D01*
X57690476Y-111471428D01*
X57690476Y-111233333D01*
X57738095Y-111042857D01*
X57785714Y-110947619D01*
X57833333Y-110900000D01*
X57928571Y-110852380D01*
X36857142Y-57642857D02*
X36904761Y-57690476D01*
X36952380Y-57833333D01*
X36952380Y-57928571D01*
X36904761Y-58071428D01*
X36809523Y-58166666D01*
X36714285Y-58214285D01*
X36523809Y-58261904D01*
X36380952Y-58261904D01*
X36190476Y-58214285D01*
X36095238Y-58166666D01*
X36000000Y-58071428D01*
X35952380Y-57928571D01*
X35952380Y-57833333D01*
X36000000Y-57690476D01*
X36047619Y-57642857D01*
X36952380Y-56690476D02*
X36952380Y-57261904D01*
X36952380Y-56976190D02*
X35952380Y-56976190D01*
X36095238Y-57071428D01*
X36190476Y-57166666D01*
X36238095Y-57261904D01*
X35952380Y-55833333D02*
X35952380Y-56023809D01*
X36000000Y-56119047D01*
X36047619Y-56166666D01*
X36190476Y-56261904D01*
X36380952Y-56309523D01*
X36761904Y-56309523D01*
X36857142Y-56261904D01*
X36904761Y-56214285D01*
X36952380Y-56119047D01*
X36952380Y-55928571D01*
X36904761Y-55833333D01*
X36857142Y-55785714D01*
X36761904Y-55738095D01*
X36523809Y-55738095D01*
X36428571Y-55785714D01*
X36380952Y-55833333D01*
X36333333Y-55928571D01*
X36333333Y-56119047D01*
X36380952Y-56214285D01*
X36428571Y-56261904D01*
X36523809Y-56309523D01*
X41857142Y-92947142D02*
X41809523Y-92994761D01*
X41666666Y-93042380D01*
X41571428Y-93042380D01*
X41428571Y-92994761D01*
X41333333Y-92899523D01*
X41285714Y-92804285D01*
X41238095Y-92613809D01*
X41238095Y-92470952D01*
X41285714Y-92280476D01*
X41333333Y-92185238D01*
X41428571Y-92090000D01*
X41571428Y-92042380D01*
X41666666Y-92042380D01*
X41809523Y-92090000D01*
X41857142Y-92137619D01*
X42809523Y-93042380D02*
X42238095Y-93042380D01*
X42523809Y-93042380D02*
X42523809Y-92042380D01*
X42428571Y-92185238D01*
X42333333Y-92280476D01*
X42238095Y-92328095D01*
X43142857Y-92042380D02*
X43809523Y-92042380D01*
X43380952Y-93042380D01*
X41857142Y-95947142D02*
X41809523Y-95994761D01*
X41666666Y-96042380D01*
X41571428Y-96042380D01*
X41428571Y-95994761D01*
X41333333Y-95899523D01*
X41285714Y-95804285D01*
X41238095Y-95613809D01*
X41238095Y-95470952D01*
X41285714Y-95280476D01*
X41333333Y-95185238D01*
X41428571Y-95090000D01*
X41571428Y-95042380D01*
X41666666Y-95042380D01*
X41809523Y-95090000D01*
X41857142Y-95137619D01*
X42809523Y-96042380D02*
X42238095Y-96042380D01*
X42523809Y-96042380D02*
X42523809Y-95042380D01*
X42428571Y-95185238D01*
X42333333Y-95280476D01*
X42238095Y-95328095D01*
X43380952Y-95470952D02*
X43285714Y-95423333D01*
X43238095Y-95375714D01*
X43190476Y-95280476D01*
X43190476Y-95232857D01*
X43238095Y-95137619D01*
X43285714Y-95090000D01*
X43380952Y-95042380D01*
X43571428Y-95042380D01*
X43666666Y-95090000D01*
X43714285Y-95137619D01*
X43761904Y-95232857D01*
X43761904Y-95280476D01*
X43714285Y-95375714D01*
X43666666Y-95423333D01*
X43571428Y-95470952D01*
X43380952Y-95470952D01*
X43285714Y-95518571D01*
X43238095Y-95566190D01*
X43190476Y-95661428D01*
X43190476Y-95851904D01*
X43238095Y-95947142D01*
X43285714Y-95994761D01*
X43380952Y-96042380D01*
X43571428Y-96042380D01*
X43666666Y-95994761D01*
X43714285Y-95947142D01*
X43761904Y-95851904D01*
X43761904Y-95661428D01*
X43714285Y-95566190D01*
X43666666Y-95518571D01*
X43571428Y-95470952D01*
X40857142Y-111607142D02*
X40809523Y-111654761D01*
X40666666Y-111702380D01*
X40571428Y-111702380D01*
X40428571Y-111654761D01*
X40333333Y-111559523D01*
X40285714Y-111464285D01*
X40238095Y-111273809D01*
X40238095Y-111130952D01*
X40285714Y-110940476D01*
X40333333Y-110845238D01*
X40428571Y-110750000D01*
X40571428Y-110702380D01*
X40666666Y-110702380D01*
X40809523Y-110750000D01*
X40857142Y-110797619D01*
X41809523Y-111702380D02*
X41238095Y-111702380D01*
X41523809Y-111702380D02*
X41523809Y-110702380D01*
X41428571Y-110845238D01*
X41333333Y-110940476D01*
X41238095Y-110988095D01*
X42285714Y-111702380D02*
X42476190Y-111702380D01*
X42571428Y-111654761D01*
X42619047Y-111607142D01*
X42714285Y-111464285D01*
X42761904Y-111273809D01*
X42761904Y-110892857D01*
X42714285Y-110797619D01*
X42666666Y-110750000D01*
X42571428Y-110702380D01*
X42380952Y-110702380D01*
X42285714Y-110750000D01*
X42238095Y-110797619D01*
X42190476Y-110892857D01*
X42190476Y-111130952D01*
X42238095Y-111226190D01*
X42285714Y-111273809D01*
X42380952Y-111321428D01*
X42571428Y-111321428D01*
X42666666Y-111273809D01*
X42714285Y-111226190D01*
X42761904Y-111130952D01*
X40857142Y-108337142D02*
X40809523Y-108384761D01*
X40666666Y-108432380D01*
X40571428Y-108432380D01*
X40428571Y-108384761D01*
X40333333Y-108289523D01*
X40285714Y-108194285D01*
X40238095Y-108003809D01*
X40238095Y-107860952D01*
X40285714Y-107670476D01*
X40333333Y-107575238D01*
X40428571Y-107480000D01*
X40571428Y-107432380D01*
X40666666Y-107432380D01*
X40809523Y-107480000D01*
X40857142Y-107527619D01*
X41238095Y-107527619D02*
X41285714Y-107480000D01*
X41380952Y-107432380D01*
X41619047Y-107432380D01*
X41714285Y-107480000D01*
X41761904Y-107527619D01*
X41809523Y-107622857D01*
X41809523Y-107718095D01*
X41761904Y-107860952D01*
X41190476Y-108432380D01*
X41809523Y-108432380D01*
X42428571Y-107432380D02*
X42523809Y-107432380D01*
X42619047Y-107480000D01*
X42666666Y-107527619D01*
X42714285Y-107622857D01*
X42761904Y-107813333D01*
X42761904Y-108051428D01*
X42714285Y-108241904D01*
X42666666Y-108337142D01*
X42619047Y-108384761D01*
X42523809Y-108432380D01*
X42428571Y-108432380D01*
X42333333Y-108384761D01*
X42285714Y-108337142D01*
X42238095Y-108241904D01*
X42190476Y-108051428D01*
X42190476Y-107813333D01*
X42238095Y-107622857D01*
X42285714Y-107527619D01*
X42333333Y-107480000D01*
X42428571Y-107432380D01*
X59202380Y-66738095D02*
X58202380Y-66738095D01*
X58202380Y-66500000D01*
X58250000Y-66357142D01*
X58345238Y-66261904D01*
X58440476Y-66214285D01*
X58630952Y-66166666D01*
X58773809Y-66166666D01*
X58964285Y-66214285D01*
X59059523Y-66261904D01*
X59154761Y-66357142D01*
X59202380Y-66500000D01*
X59202380Y-66738095D01*
X59202380Y-65214285D02*
X59202380Y-65785714D01*
X59202380Y-65500000D02*
X58202380Y-65500000D01*
X58345238Y-65595238D01*
X58440476Y-65690476D01*
X58488095Y-65785714D01*
X57402380Y-70261904D02*
X56402380Y-70261904D01*
X57402380Y-69690476D02*
X56830952Y-70119047D01*
X56402380Y-69690476D02*
X56973809Y-70261904D01*
X62202380Y-67118095D02*
X61202380Y-67118095D01*
X61202380Y-66880000D01*
X61250000Y-66737142D01*
X61345238Y-66641904D01*
X61440476Y-66594285D01*
X61630952Y-66546666D01*
X61773809Y-66546666D01*
X61964285Y-66594285D01*
X62059523Y-66641904D01*
X62154761Y-66737142D01*
X62202380Y-66880000D01*
X62202380Y-67118095D01*
X61297619Y-66165714D02*
X61250000Y-66118095D01*
X61202380Y-66022857D01*
X61202380Y-65784761D01*
X61250000Y-65689523D01*
X61297619Y-65641904D01*
X61392857Y-65594285D01*
X61488095Y-65594285D01*
X61630952Y-65641904D01*
X62202380Y-66213333D01*
X62202380Y-65594285D01*
X64002380Y-63261904D02*
X63002380Y-63261904D01*
X64002380Y-62690476D02*
X63430952Y-63119047D01*
X63002380Y-62690476D02*
X63573809Y-63261904D01*
X55452380Y-84828095D02*
X54452380Y-84828095D01*
X54452380Y-84590000D01*
X54500000Y-84447142D01*
X54595238Y-84351904D01*
X54690476Y-84304285D01*
X54880952Y-84256666D01*
X55023809Y-84256666D01*
X55214285Y-84304285D01*
X55309523Y-84351904D01*
X55404761Y-84447142D01*
X55452380Y-84590000D01*
X55452380Y-84828095D01*
X54452380Y-83923333D02*
X54452380Y-83304285D01*
X54833333Y-83637619D01*
X54833333Y-83494761D01*
X54880952Y-83399523D01*
X54928571Y-83351904D01*
X55023809Y-83304285D01*
X55261904Y-83304285D01*
X55357142Y-83351904D01*
X55404761Y-83399523D01*
X55452380Y-83494761D01*
X55452380Y-83780476D01*
X55404761Y-83875714D01*
X55357142Y-83923333D01*
X54952380Y-89851904D02*
X53952380Y-89851904D01*
X54952380Y-89280476D02*
X54380952Y-89709047D01*
X53952380Y-89280476D02*
X54523809Y-89851904D01*
X32952380Y-66238095D02*
X31952380Y-66238095D01*
X31952380Y-66000000D01*
X32000000Y-65857142D01*
X32095238Y-65761904D01*
X32190476Y-65714285D01*
X32380952Y-65666666D01*
X32523809Y-65666666D01*
X32714285Y-65714285D01*
X32809523Y-65761904D01*
X32904761Y-65857142D01*
X32952380Y-66000000D01*
X32952380Y-66238095D01*
X31952380Y-64809523D02*
X31952380Y-65000000D01*
X32000000Y-65095238D01*
X32047619Y-65142857D01*
X32190476Y-65238095D01*
X32380952Y-65285714D01*
X32761904Y-65285714D01*
X32857142Y-65238095D01*
X32904761Y-65190476D01*
X32952380Y-65095238D01*
X32952380Y-64904761D01*
X32904761Y-64809523D01*
X32857142Y-64761904D01*
X32761904Y-64714285D01*
X32523809Y-64714285D01*
X32428571Y-64761904D01*
X32380952Y-64809523D01*
X32333333Y-64904761D01*
X32333333Y-65095238D01*
X32380952Y-65190476D01*
X32428571Y-65238095D01*
X32523809Y-65285714D01*
X31152380Y-69761904D02*
X30152380Y-69761904D01*
X31152380Y-69190476D02*
X30580952Y-69619047D01*
X30152380Y-69190476D02*
X30723809Y-69761904D01*
X35452380Y-66738095D02*
X34452380Y-66738095D01*
X34452380Y-66500000D01*
X34500000Y-66357142D01*
X34595238Y-66261904D01*
X34690476Y-66214285D01*
X34880952Y-66166666D01*
X35023809Y-66166666D01*
X35214285Y-66214285D01*
X35309523Y-66261904D01*
X35404761Y-66357142D01*
X35452380Y-66500000D01*
X35452380Y-66738095D01*
X34452380Y-65833333D02*
X34452380Y-65166666D01*
X35452380Y-65595238D01*
X37252380Y-63261904D02*
X36252380Y-63261904D01*
X37252380Y-62690476D02*
X36680952Y-63119047D01*
X36252380Y-62690476D02*
X36823809Y-63261904D01*
X42548571Y-127143333D02*
X42548571Y-127476666D01*
X43072380Y-127476666D02*
X42072380Y-127476666D01*
X42072380Y-127000476D01*
X42548571Y-126286190D02*
X42596190Y-126143333D01*
X42643809Y-126095714D01*
X42739047Y-126048095D01*
X42881904Y-126048095D01*
X42977142Y-126095714D01*
X43024761Y-126143333D01*
X43072380Y-126238571D01*
X43072380Y-126619523D01*
X42072380Y-126619523D01*
X42072380Y-126286190D01*
X42120000Y-126190952D01*
X42167619Y-126143333D01*
X42262857Y-126095714D01*
X42358095Y-126095714D01*
X42453333Y-126143333D01*
X42500952Y-126190952D01*
X42548571Y-126286190D01*
X42548571Y-126619523D01*
X43072380Y-125095714D02*
X43072380Y-125667142D01*
X43072380Y-125381428D02*
X42072380Y-125381428D01*
X42215238Y-125476666D01*
X42310476Y-125571904D01*
X42358095Y-125667142D01*
X63548571Y-127143333D02*
X63548571Y-127476666D01*
X64072380Y-127476666D02*
X63072380Y-127476666D01*
X63072380Y-127000476D01*
X63548571Y-126286190D02*
X63596190Y-126143333D01*
X63643809Y-126095714D01*
X63739047Y-126048095D01*
X63881904Y-126048095D01*
X63977142Y-126095714D01*
X64024761Y-126143333D01*
X64072380Y-126238571D01*
X64072380Y-126619523D01*
X63072380Y-126619523D01*
X63072380Y-126286190D01*
X63120000Y-126190952D01*
X63167619Y-126143333D01*
X63262857Y-126095714D01*
X63358095Y-126095714D01*
X63453333Y-126143333D01*
X63500952Y-126190952D01*
X63548571Y-126286190D01*
X63548571Y-126619523D01*
X63167619Y-125667142D02*
X63120000Y-125619523D01*
X63072380Y-125524285D01*
X63072380Y-125286190D01*
X63120000Y-125190952D01*
X63167619Y-125143333D01*
X63262857Y-125095714D01*
X63358095Y-125095714D01*
X63500952Y-125143333D01*
X64072380Y-125714761D01*
X64072380Y-125095714D01*
X67416666Y-77122380D02*
X67416666Y-77836666D01*
X67369047Y-77979523D01*
X67273809Y-78074761D01*
X67130952Y-78122380D01*
X67035714Y-78122380D01*
X68369047Y-77122380D02*
X67892857Y-77122380D01*
X67845238Y-77598571D01*
X67892857Y-77550952D01*
X67988095Y-77503333D01*
X68226190Y-77503333D01*
X68321428Y-77550952D01*
X68369047Y-77598571D01*
X68416666Y-77693809D01*
X68416666Y-77931904D01*
X68369047Y-78027142D01*
X68321428Y-78074761D01*
X68226190Y-78122380D01*
X67988095Y-78122380D01*
X67892857Y-78074761D01*
X67845238Y-78027142D01*
X30666666Y-95622380D02*
X30666666Y-96336666D01*
X30619047Y-96479523D01*
X30523809Y-96574761D01*
X30380952Y-96622380D01*
X30285714Y-96622380D01*
X31047619Y-95622380D02*
X31714285Y-95622380D01*
X31285714Y-96622380D01*
X64547619Y-78685238D02*
X64500000Y-78780476D01*
X64404761Y-78875714D01*
X64261904Y-79018571D01*
X64214285Y-79113809D01*
X64214285Y-79209047D01*
X64452380Y-79161428D02*
X64404761Y-79256666D01*
X64309523Y-79351904D01*
X64119047Y-79399523D01*
X63785714Y-79399523D01*
X63595238Y-79351904D01*
X63500000Y-79256666D01*
X63452380Y-79161428D01*
X63452380Y-78970952D01*
X63500000Y-78875714D01*
X63595238Y-78780476D01*
X63785714Y-78732857D01*
X64119047Y-78732857D01*
X64309523Y-78780476D01*
X64404761Y-78875714D01*
X64452380Y-78970952D01*
X64452380Y-79161428D01*
X64452380Y-77780476D02*
X64452380Y-78351904D01*
X64452380Y-78066190D02*
X63452380Y-78066190D01*
X63595238Y-78161428D01*
X63690476Y-78256666D01*
X63738095Y-78351904D01*
X59547619Y-78685238D02*
X59500000Y-78780476D01*
X59404761Y-78875714D01*
X59261904Y-79018571D01*
X59214285Y-79113809D01*
X59214285Y-79209047D01*
X59452380Y-79161428D02*
X59404761Y-79256666D01*
X59309523Y-79351904D01*
X59119047Y-79399523D01*
X58785714Y-79399523D01*
X58595238Y-79351904D01*
X58500000Y-79256666D01*
X58452380Y-79161428D01*
X58452380Y-78970952D01*
X58500000Y-78875714D01*
X58595238Y-78780476D01*
X58785714Y-78732857D01*
X59119047Y-78732857D01*
X59309523Y-78780476D01*
X59404761Y-78875714D01*
X59452380Y-78970952D01*
X59452380Y-79161428D01*
X58547619Y-78351904D02*
X58500000Y-78304285D01*
X58452380Y-78209047D01*
X58452380Y-77970952D01*
X58500000Y-77875714D01*
X58547619Y-77828095D01*
X58642857Y-77780476D01*
X58738095Y-77780476D01*
X58880952Y-77828095D01*
X59452380Y-78399523D01*
X59452380Y-77780476D01*
X55904761Y-90637619D02*
X55809523Y-90590000D01*
X55714285Y-90494761D01*
X55571428Y-90351904D01*
X55476190Y-90304285D01*
X55380952Y-90304285D01*
X55428571Y-90542380D02*
X55333333Y-90494761D01*
X55238095Y-90399523D01*
X55190476Y-90209047D01*
X55190476Y-89875714D01*
X55238095Y-89685238D01*
X55333333Y-89590000D01*
X55428571Y-89542380D01*
X55619047Y-89542380D01*
X55714285Y-89590000D01*
X55809523Y-89685238D01*
X55857142Y-89875714D01*
X55857142Y-90209047D01*
X55809523Y-90399523D01*
X55714285Y-90494761D01*
X55619047Y-90542380D01*
X55428571Y-90542380D01*
X56190476Y-89542380D02*
X56809523Y-89542380D01*
X56476190Y-89923333D01*
X56619047Y-89923333D01*
X56714285Y-89970952D01*
X56761904Y-90018571D01*
X56809523Y-90113809D01*
X56809523Y-90351904D01*
X56761904Y-90447142D01*
X56714285Y-90494761D01*
X56619047Y-90542380D01*
X56333333Y-90542380D01*
X56238095Y-90494761D01*
X56190476Y-90447142D01*
X37047619Y-78185238D02*
X37000000Y-78280476D01*
X36904761Y-78375714D01*
X36761904Y-78518571D01*
X36714285Y-78613809D01*
X36714285Y-78709047D01*
X36952380Y-78661428D02*
X36904761Y-78756666D01*
X36809523Y-78851904D01*
X36619047Y-78899523D01*
X36285714Y-78899523D01*
X36095238Y-78851904D01*
X36000000Y-78756666D01*
X35952380Y-78661428D01*
X35952380Y-78470952D01*
X36000000Y-78375714D01*
X36095238Y-78280476D01*
X36285714Y-78232857D01*
X36619047Y-78232857D01*
X36809523Y-78280476D01*
X36904761Y-78375714D01*
X36952380Y-78470952D01*
X36952380Y-78661428D01*
X35952380Y-77328095D02*
X35952380Y-77804285D01*
X36428571Y-77851904D01*
X36380952Y-77804285D01*
X36333333Y-77709047D01*
X36333333Y-77470952D01*
X36380952Y-77375714D01*
X36428571Y-77328095D01*
X36523809Y-77280476D01*
X36761904Y-77280476D01*
X36857142Y-77328095D01*
X36904761Y-77375714D01*
X36952380Y-77470952D01*
X36952380Y-77709047D01*
X36904761Y-77804285D01*
X36857142Y-77851904D01*
X42047619Y-78185238D02*
X42000000Y-78280476D01*
X41904761Y-78375714D01*
X41761904Y-78518571D01*
X41714285Y-78613809D01*
X41714285Y-78709047D01*
X41952380Y-78661428D02*
X41904761Y-78756666D01*
X41809523Y-78851904D01*
X41619047Y-78899523D01*
X41285714Y-78899523D01*
X41095238Y-78851904D01*
X41000000Y-78756666D01*
X40952380Y-78661428D01*
X40952380Y-78470952D01*
X41000000Y-78375714D01*
X41095238Y-78280476D01*
X41285714Y-78232857D01*
X41619047Y-78232857D01*
X41809523Y-78280476D01*
X41904761Y-78375714D01*
X41952380Y-78470952D01*
X41952380Y-78661428D01*
X40952380Y-77375714D02*
X40952380Y-77566190D01*
X41000000Y-77661428D01*
X41047619Y-77709047D01*
X41190476Y-77804285D01*
X41380952Y-77851904D01*
X41761904Y-77851904D01*
X41857142Y-77804285D01*
X41904761Y-77756666D01*
X41952380Y-77661428D01*
X41952380Y-77470952D01*
X41904761Y-77375714D01*
X41857142Y-77328095D01*
X41761904Y-77280476D01*
X41523809Y-77280476D01*
X41428571Y-77328095D01*
X41380952Y-77375714D01*
X41333333Y-77470952D01*
X41333333Y-77661428D01*
X41380952Y-77756666D01*
X41428571Y-77804285D01*
X41523809Y-77851904D01*
X43904761Y-90637619D02*
X43809523Y-90590000D01*
X43714285Y-90494761D01*
X43571428Y-90351904D01*
X43476190Y-90304285D01*
X43380952Y-90304285D01*
X43428571Y-90542380D02*
X43333333Y-90494761D01*
X43238095Y-90399523D01*
X43190476Y-90209047D01*
X43190476Y-89875714D01*
X43238095Y-89685238D01*
X43333333Y-89590000D01*
X43428571Y-89542380D01*
X43619047Y-89542380D01*
X43714285Y-89590000D01*
X43809523Y-89685238D01*
X43857142Y-89875714D01*
X43857142Y-90209047D01*
X43809523Y-90399523D01*
X43714285Y-90494761D01*
X43619047Y-90542380D01*
X43428571Y-90542380D01*
X44190476Y-89542380D02*
X44857142Y-89542380D01*
X44428571Y-90542380D01*
X65702380Y-70006666D02*
X65226190Y-70340000D01*
X65702380Y-70578095D02*
X64702380Y-70578095D01*
X64702380Y-70197142D01*
X64750000Y-70101904D01*
X64797619Y-70054285D01*
X64892857Y-70006666D01*
X65035714Y-70006666D01*
X65130952Y-70054285D01*
X65178571Y-70101904D01*
X65226190Y-70197142D01*
X65226190Y-70578095D01*
X65702380Y-69054285D02*
X65702380Y-69625714D01*
X65702380Y-69340000D02*
X64702380Y-69340000D01*
X64845238Y-69435238D01*
X64940476Y-69530476D01*
X64988095Y-69625714D01*
X64452380Y-91836666D02*
X63976190Y-92170000D01*
X64452380Y-92408095D02*
X63452380Y-92408095D01*
X63452380Y-92027142D01*
X63500000Y-91931904D01*
X63547619Y-91884285D01*
X63642857Y-91836666D01*
X63785714Y-91836666D01*
X63880952Y-91884285D01*
X63928571Y-91931904D01*
X63976190Y-92027142D01*
X63976190Y-92408095D01*
X63547619Y-91455714D02*
X63500000Y-91408095D01*
X63452380Y-91312857D01*
X63452380Y-91074761D01*
X63500000Y-90979523D01*
X63547619Y-90931904D01*
X63642857Y-90884285D01*
X63738095Y-90884285D01*
X63880952Y-90931904D01*
X64452380Y-91503333D01*
X64452380Y-90884285D01*
X52452380Y-85836666D02*
X51976190Y-86170000D01*
X52452380Y-86408095D02*
X51452380Y-86408095D01*
X51452380Y-86027142D01*
X51500000Y-85931904D01*
X51547619Y-85884285D01*
X51642857Y-85836666D01*
X51785714Y-85836666D01*
X51880952Y-85884285D01*
X51928571Y-85931904D01*
X51976190Y-86027142D01*
X51976190Y-86408095D01*
X51452380Y-85503333D02*
X51452380Y-84884285D01*
X51833333Y-85217619D01*
X51833333Y-85074761D01*
X51880952Y-84979523D01*
X51928571Y-84931904D01*
X52023809Y-84884285D01*
X52261904Y-84884285D01*
X52357142Y-84931904D01*
X52404761Y-84979523D01*
X52452380Y-85074761D01*
X52452380Y-85360476D01*
X52404761Y-85455714D01*
X52357142Y-85503333D01*
X64702380Y-112166666D02*
X64226190Y-112500000D01*
X64702380Y-112738095D02*
X63702380Y-112738095D01*
X63702380Y-112357142D01*
X63750000Y-112261904D01*
X63797619Y-112214285D01*
X63892857Y-112166666D01*
X64035714Y-112166666D01*
X64130952Y-112214285D01*
X64178571Y-112261904D01*
X64226190Y-112357142D01*
X64226190Y-112738095D01*
X64035714Y-111309523D02*
X64702380Y-111309523D01*
X63654761Y-111547619D02*
X64369047Y-111785714D01*
X64369047Y-111166666D01*
X34452380Y-125586666D02*
X33976190Y-125920000D01*
X34452380Y-126158095D02*
X33452380Y-126158095D01*
X33452380Y-125777142D01*
X33500000Y-125681904D01*
X33547619Y-125634285D01*
X33642857Y-125586666D01*
X33785714Y-125586666D01*
X33880952Y-125634285D01*
X33928571Y-125681904D01*
X33976190Y-125777142D01*
X33976190Y-126158095D01*
X33452380Y-124729523D02*
X33452380Y-124920000D01*
X33500000Y-125015238D01*
X33547619Y-125062857D01*
X33690476Y-125158095D01*
X33880952Y-125205714D01*
X34261904Y-125205714D01*
X34357142Y-125158095D01*
X34404761Y-125110476D01*
X34452380Y-125015238D01*
X34452380Y-124824761D01*
X34404761Y-124729523D01*
X34357142Y-124681904D01*
X34261904Y-124634285D01*
X34023809Y-124634285D01*
X33928571Y-124681904D01*
X33880952Y-124729523D01*
X33833333Y-124824761D01*
X33833333Y-125015238D01*
X33880952Y-125110476D01*
X33928571Y-125158095D01*
X34023809Y-125205714D01*
X56253333Y-108452380D02*
X55920000Y-107976190D01*
X55681904Y-108452380D02*
X55681904Y-107452380D01*
X56062857Y-107452380D01*
X56158095Y-107500000D01*
X56205714Y-107547619D01*
X56253333Y-107642857D01*
X56253333Y-107785714D01*
X56205714Y-107880952D01*
X56158095Y-107928571D01*
X56062857Y-107976190D01*
X55681904Y-107976190D01*
X56586666Y-107452380D02*
X57253333Y-107452380D01*
X56824761Y-108452380D01*
X38952380Y-70062857D02*
X38476190Y-70396190D01*
X38952380Y-70634285D02*
X37952380Y-70634285D01*
X37952380Y-70253333D01*
X38000000Y-70158095D01*
X38047619Y-70110476D01*
X38142857Y-70062857D01*
X38285714Y-70062857D01*
X38380952Y-70110476D01*
X38428571Y-70158095D01*
X38476190Y-70253333D01*
X38476190Y-70634285D01*
X38952380Y-69110476D02*
X38952380Y-69681904D01*
X38952380Y-69396190D02*
X37952380Y-69396190D01*
X38095238Y-69491428D01*
X38190476Y-69586666D01*
X38238095Y-69681904D01*
X38047619Y-68729523D02*
X38000000Y-68681904D01*
X37952380Y-68586666D01*
X37952380Y-68348571D01*
X38000000Y-68253333D01*
X38047619Y-68205714D01*
X38142857Y-68158095D01*
X38238095Y-68158095D01*
X38380952Y-68205714D01*
X38952380Y-68777142D01*
X38952380Y-68158095D01*
X36952380Y-91812857D02*
X36476190Y-92146190D01*
X36952380Y-92384285D02*
X35952380Y-92384285D01*
X35952380Y-92003333D01*
X36000000Y-91908095D01*
X36047619Y-91860476D01*
X36142857Y-91812857D01*
X36285714Y-91812857D01*
X36380952Y-91860476D01*
X36428571Y-91908095D01*
X36476190Y-92003333D01*
X36476190Y-92384285D01*
X36952380Y-90860476D02*
X36952380Y-91431904D01*
X36952380Y-91146190D02*
X35952380Y-91146190D01*
X36095238Y-91241428D01*
X36190476Y-91336666D01*
X36238095Y-91431904D01*
X35952380Y-90527142D02*
X35952380Y-89908095D01*
X36333333Y-90241428D01*
X36333333Y-90098571D01*
X36380952Y-90003333D01*
X36428571Y-89955714D01*
X36523809Y-89908095D01*
X36761904Y-89908095D01*
X36857142Y-89955714D01*
X36904761Y-90003333D01*
X36952380Y-90098571D01*
X36952380Y-90384285D01*
X36904761Y-90479523D01*
X36857142Y-90527142D01*
X48452380Y-86312857D02*
X47976190Y-86646190D01*
X48452380Y-86884285D02*
X47452380Y-86884285D01*
X47452380Y-86503333D01*
X47500000Y-86408095D01*
X47547619Y-86360476D01*
X47642857Y-86312857D01*
X47785714Y-86312857D01*
X47880952Y-86360476D01*
X47928571Y-86408095D01*
X47976190Y-86503333D01*
X47976190Y-86884285D01*
X48452380Y-85360476D02*
X48452380Y-85931904D01*
X48452380Y-85646190D02*
X47452380Y-85646190D01*
X47595238Y-85741428D01*
X47690476Y-85836666D01*
X47738095Y-85931904D01*
X47785714Y-84503333D02*
X48452380Y-84503333D01*
X47404761Y-84741428D02*
X48119047Y-84979523D01*
X48119047Y-84360476D01*
X36402380Y-112892857D02*
X35926190Y-113226190D01*
X36402380Y-113464285D02*
X35402380Y-113464285D01*
X35402380Y-113083333D01*
X35450000Y-112988095D01*
X35497619Y-112940476D01*
X35592857Y-112892857D01*
X35735714Y-112892857D01*
X35830952Y-112940476D01*
X35878571Y-112988095D01*
X35926190Y-113083333D01*
X35926190Y-113464285D01*
X36402380Y-111940476D02*
X36402380Y-112511904D01*
X36402380Y-112226190D02*
X35402380Y-112226190D01*
X35545238Y-112321428D01*
X35640476Y-112416666D01*
X35688095Y-112511904D01*
X35402380Y-111035714D02*
X35402380Y-111511904D01*
X35878571Y-111559523D01*
X35830952Y-111511904D01*
X35783333Y-111416666D01*
X35783333Y-111178571D01*
X35830952Y-111083333D01*
X35878571Y-111035714D01*
X35973809Y-110988095D01*
X36211904Y-110988095D01*
X36307142Y-111035714D01*
X36354761Y-111083333D01*
X36402380Y-111178571D01*
X36402380Y-111416666D01*
X36354761Y-111511904D01*
X36307142Y-111559523D01*
X39607142Y-104952380D02*
X39273809Y-104476190D01*
X39035714Y-104952380D02*
X39035714Y-103952380D01*
X39416666Y-103952380D01*
X39511904Y-104000000D01*
X39559523Y-104047619D01*
X39607142Y-104142857D01*
X39607142Y-104285714D01*
X39559523Y-104380952D01*
X39511904Y-104428571D01*
X39416666Y-104476190D01*
X39035714Y-104476190D01*
X40559523Y-104952380D02*
X39988095Y-104952380D01*
X40273809Y-104952380D02*
X40273809Y-103952380D01*
X40178571Y-104095238D01*
X40083333Y-104190476D01*
X39988095Y-104238095D01*
X40892857Y-103952380D02*
X41559523Y-103952380D01*
X41130952Y-104952380D01*
X31857142Y-77892857D02*
X31904761Y-77940476D01*
X31952380Y-78083333D01*
X31952380Y-78178571D01*
X31904761Y-78321428D01*
X31809523Y-78416666D01*
X31714285Y-78464285D01*
X31523809Y-78511904D01*
X31380952Y-78511904D01*
X31190476Y-78464285D01*
X31095238Y-78416666D01*
X31000000Y-78321428D01*
X30952380Y-78178571D01*
X30952380Y-78083333D01*
X31000000Y-77940476D01*
X31047619Y-77892857D01*
X31952380Y-76940476D02*
X31952380Y-77511904D01*
X31952380Y-77226190D02*
X30952380Y-77226190D01*
X31095238Y-77321428D01*
X31190476Y-77416666D01*
X31238095Y-77511904D01*
X30952380Y-76035714D02*
X30952380Y-76511904D01*
X31428571Y-76559523D01*
X31380952Y-76511904D01*
X31333333Y-76416666D01*
X31333333Y-76178571D01*
X31380952Y-76083333D01*
X31428571Y-76035714D01*
X31523809Y-75988095D01*
X31761904Y-75988095D01*
X31857142Y-76035714D01*
X31904761Y-76083333D01*
X31952380Y-76178571D01*
X31952380Y-76416666D01*
X31904761Y-76511904D01*
X31857142Y-76559523D01*
X42857142Y-98607142D02*
X42809523Y-98654761D01*
X42666666Y-98702380D01*
X42571428Y-98702380D01*
X42428571Y-98654761D01*
X42333333Y-98559523D01*
X42285714Y-98464285D01*
X42238095Y-98273809D01*
X42238095Y-98130952D01*
X42285714Y-97940476D01*
X42333333Y-97845238D01*
X42428571Y-97750000D01*
X42571428Y-97702380D01*
X42666666Y-97702380D01*
X42809523Y-97750000D01*
X42857142Y-97797619D01*
X43238095Y-97797619D02*
X43285714Y-97750000D01*
X43380952Y-97702380D01*
X43619047Y-97702380D01*
X43714285Y-97750000D01*
X43761904Y-97797619D01*
X43809523Y-97892857D01*
X43809523Y-97988095D01*
X43761904Y-98130952D01*
X43190476Y-98702380D01*
X43809523Y-98702380D01*
X44190476Y-97797619D02*
X44238095Y-97750000D01*
X44333333Y-97702380D01*
X44571428Y-97702380D01*
X44666666Y-97750000D01*
X44714285Y-97797619D01*
X44761904Y-97892857D01*
X44761904Y-97988095D01*
X44714285Y-98130952D01*
X44142857Y-98702380D01*
X44761904Y-98702380D01*
X45452380Y-84828095D02*
X44452380Y-84828095D01*
X44452380Y-84590000D01*
X44500000Y-84447142D01*
X44595238Y-84351904D01*
X44690476Y-84304285D01*
X44880952Y-84256666D01*
X45023809Y-84256666D01*
X45214285Y-84304285D01*
X45309523Y-84351904D01*
X45404761Y-84447142D01*
X45452380Y-84590000D01*
X45452380Y-84828095D01*
X44880952Y-83685238D02*
X44833333Y-83780476D01*
X44785714Y-83828095D01*
X44690476Y-83875714D01*
X44642857Y-83875714D01*
X44547619Y-83828095D01*
X44500000Y-83780476D01*
X44452380Y-83685238D01*
X44452380Y-83494761D01*
X44500000Y-83399523D01*
X44547619Y-83351904D01*
X44642857Y-83304285D01*
X44690476Y-83304285D01*
X44785714Y-83351904D01*
X44833333Y-83399523D01*
X44880952Y-83494761D01*
X44880952Y-83685238D01*
X44928571Y-83780476D01*
X44976190Y-83828095D01*
X45071428Y-83875714D01*
X45261904Y-83875714D01*
X45357142Y-83828095D01*
X45404761Y-83780476D01*
X45452380Y-83685238D01*
X45452380Y-83494761D01*
X45404761Y-83399523D01*
X45357142Y-83351904D01*
X45261904Y-83304285D01*
X45071428Y-83304285D01*
X44976190Y-83351904D01*
X44928571Y-83399523D01*
X44880952Y-83494761D01*
X46452380Y-89851904D02*
X45452380Y-89851904D01*
X46452380Y-89280476D02*
X45880952Y-89709047D01*
X45452380Y-89280476D02*
X46023809Y-89851904D01*
X52357142Y-104107142D02*
X52309523Y-104154761D01*
X52166666Y-104202380D01*
X52071428Y-104202380D01*
X51928571Y-104154761D01*
X51833333Y-104059523D01*
X51785714Y-103964285D01*
X51738095Y-103773809D01*
X51738095Y-103630952D01*
X51785714Y-103440476D01*
X51833333Y-103345238D01*
X51928571Y-103250000D01*
X52071428Y-103202380D01*
X52166666Y-103202380D01*
X52309523Y-103250000D01*
X52357142Y-103297619D01*
X52738095Y-103297619D02*
X52785714Y-103250000D01*
X52880952Y-103202380D01*
X53119047Y-103202380D01*
X53214285Y-103250000D01*
X53261904Y-103297619D01*
X53309523Y-103392857D01*
X53309523Y-103488095D01*
X53261904Y-103630952D01*
X52690476Y-104202380D01*
X53309523Y-104202380D01*
X53642857Y-103202380D02*
X54261904Y-103202380D01*
X53928571Y-103583333D01*
X54071428Y-103583333D01*
X54166666Y-103630952D01*
X54214285Y-103678571D01*
X54261904Y-103773809D01*
X54261904Y-104011904D01*
X54214285Y-104107142D01*
X54166666Y-104154761D01*
X54071428Y-104202380D01*
X53785714Y-104202380D01*
X53690476Y-104154761D01*
X53642857Y-104107142D01*
X43713333Y-114952380D02*
X43380000Y-114476190D01*
X43141904Y-114952380D02*
X43141904Y-113952380D01*
X43522857Y-113952380D01*
X43618095Y-114000000D01*
X43665714Y-114047619D01*
X43713333Y-114142857D01*
X43713333Y-114285714D01*
X43665714Y-114380952D01*
X43618095Y-114428571D01*
X43522857Y-114476190D01*
X43141904Y-114476190D01*
X44284761Y-114380952D02*
X44189523Y-114333333D01*
X44141904Y-114285714D01*
X44094285Y-114190476D01*
X44094285Y-114142857D01*
X44141904Y-114047619D01*
X44189523Y-114000000D01*
X44284761Y-113952380D01*
X44475238Y-113952380D01*
X44570476Y-114000000D01*
X44618095Y-114047619D01*
X44665714Y-114142857D01*
X44665714Y-114190476D01*
X44618095Y-114285714D01*
X44570476Y-114333333D01*
X44475238Y-114380952D01*
X44284761Y-114380952D01*
X44189523Y-114428571D01*
X44141904Y-114476190D01*
X44094285Y-114571428D01*
X44094285Y-114761904D01*
X44141904Y-114857142D01*
X44189523Y-114904761D01*
X44284761Y-114952380D01*
X44475238Y-114952380D01*
X44570476Y-114904761D01*
X44618095Y-114857142D01*
X44665714Y-114761904D01*
X44665714Y-114571428D01*
X44618095Y-114476190D01*
X44570476Y-114428571D01*
X44475238Y-114380952D01*
X55777142Y-114952380D02*
X55443809Y-114476190D01*
X55205714Y-114952380D02*
X55205714Y-113952380D01*
X55586666Y-113952380D01*
X55681904Y-114000000D01*
X55729523Y-114047619D01*
X55777142Y-114142857D01*
X55777142Y-114285714D01*
X55729523Y-114380952D01*
X55681904Y-114428571D01*
X55586666Y-114476190D01*
X55205714Y-114476190D01*
X56729523Y-114952380D02*
X56158095Y-114952380D01*
X56443809Y-114952380D02*
X56443809Y-113952380D01*
X56348571Y-114095238D01*
X56253333Y-114190476D01*
X56158095Y-114238095D01*
X57348571Y-113952380D02*
X57443809Y-113952380D01*
X57539047Y-114000000D01*
X57586666Y-114047619D01*
X57634285Y-114142857D01*
X57681904Y-114333333D01*
X57681904Y-114571428D01*
X57634285Y-114761904D01*
X57586666Y-114857142D01*
X57539047Y-114904761D01*
X57443809Y-114952380D01*
X57348571Y-114952380D01*
X57253333Y-114904761D01*
X57205714Y-114857142D01*
X57158095Y-114761904D01*
X57110476Y-114571428D01*
X57110476Y-114333333D01*
X57158095Y-114142857D01*
X57205714Y-114047619D01*
X57253333Y-114000000D01*
X57348571Y-113952380D01*
X54307380Y-138309523D02*
X55021666Y-138309523D01*
X55164523Y-138357142D01*
X55259761Y-138452380D01*
X55307380Y-138595238D01*
X55307380Y-138690476D01*
X55307380Y-137309523D02*
X55307380Y-137880952D01*
X55307380Y-137595238D02*
X54307380Y-137595238D01*
X54450238Y-137690476D01*
X54545476Y-137785714D01*
X54593095Y-137880952D01*
X55307380Y-136357142D02*
X55307380Y-136928571D01*
X55307380Y-136642857D02*
X54307380Y-136642857D01*
X54450238Y-136738095D01*
X54545476Y-136833333D01*
X54593095Y-136928571D01*
D11*
X58402000Y-72919000D02*
X59710000Y-72919000D01*
X61790000Y-72719000D02*
X62997000Y-72719000D01*
X58601000Y-72559000D02*
X59710000Y-72559000D01*
X61790000Y-73440000D02*
X63270000Y-73440000D01*
X58259000Y-73320000D02*
X59710000Y-73320000D01*
X59250000Y-71879000D02*
X62250000Y-71879000D01*
X61790000Y-73279000D02*
X63230000Y-73279000D01*
X61790000Y-72119000D02*
X62535000Y-72119000D01*
X59007000Y-72079000D02*
X59710000Y-72079000D01*
X61790000Y-73159000D02*
X63192000Y-73159000D01*
X58368000Y-72999000D02*
X59710000Y-72999000D01*
X61790000Y-72279000D02*
X62687000Y-72279000D01*
X60073000Y-71479000D02*
X61427000Y-71479000D01*
X58440000Y-72839000D02*
X59710000Y-72839000D01*
X61790000Y-73520000D02*
X63286000Y-73520000D01*
X58965000Y-72119000D02*
X59710000Y-72119000D01*
X61790000Y-72759000D02*
X63018000Y-72759000D01*
X59652000Y-71639000D02*
X61848000Y-71639000D01*
X58295000Y-73199000D02*
X59710000Y-73199000D01*
X61790000Y-71999000D02*
X62403000Y-71999000D01*
X61790000Y-73360000D02*
X63251000Y-73360000D01*
X58421000Y-72879000D02*
X59710000Y-72879000D01*
X58655000Y-72479000D02*
X59710000Y-72479000D01*
X61790000Y-72559000D02*
X62899000Y-72559000D01*
X60232000Y-71439000D02*
X61268000Y-71439000D01*
X59307000Y-71839000D02*
X62193000Y-71839000D01*
X58170000Y-74000000D02*
X59710000Y-74000000D01*
X58214000Y-73520000D02*
X59710000Y-73520000D01*
X61790000Y-73720000D02*
X63315000Y-73720000D01*
X59025000Y-76554775D02*
X59525000Y-76554775D01*
X61790000Y-72599000D02*
X62925000Y-72599000D01*
X61790000Y-72359000D02*
X62754000Y-72359000D01*
X60466000Y-71399000D02*
X61034000Y-71399000D01*
X58526000Y-72679000D02*
X59710000Y-72679000D01*
X61790000Y-73079000D02*
X63164000Y-73079000D01*
X58746000Y-72359000D02*
X59710000Y-72359000D01*
X61790000Y-72079000D02*
X62493000Y-72079000D01*
X58282000Y-73239000D02*
X59710000Y-73239000D01*
X59145000Y-71959000D02*
X62355000Y-71959000D01*
X61790000Y-73560000D02*
X63293000Y-73560000D01*
X58813000Y-72279000D02*
X59710000Y-72279000D01*
X58460000Y-72799000D02*
X59710000Y-72799000D01*
X59572000Y-71679000D02*
X61928000Y-71679000D01*
X61790000Y-72999000D02*
X63132000Y-72999000D01*
X61790000Y-72039000D02*
X62449000Y-72039000D01*
X61790000Y-73960000D02*
X63330000Y-73960000D01*
X61790000Y-72799000D02*
X63040000Y-72799000D01*
X58575000Y-72599000D02*
X59710000Y-72599000D01*
X58715000Y-72399000D02*
X59710000Y-72399000D01*
X61790000Y-72439000D02*
X62815000Y-72439000D01*
X58270000Y-73279000D02*
X59710000Y-73279000D01*
X58849000Y-72239000D02*
X59710000Y-72239000D01*
X61790000Y-72679000D02*
X62974000Y-72679000D01*
X61790000Y-73840000D02*
X63326000Y-73840000D01*
X61790000Y-73039000D02*
X63148000Y-73039000D01*
X58194000Y-73640000D02*
X59710000Y-73640000D01*
X61790000Y-73760000D02*
X63319000Y-73760000D01*
X58222000Y-73480000D02*
X59710000Y-73480000D01*
X58385000Y-72959000D02*
X59710000Y-72959000D01*
X61790000Y-74000000D02*
X63330000Y-74000000D01*
X61790000Y-73640000D02*
X63306000Y-73640000D01*
X61790000Y-73920000D02*
X63329000Y-73920000D01*
X58207000Y-73560000D02*
X59710000Y-73560000D01*
X58482000Y-72759000D02*
X59710000Y-72759000D01*
X58200000Y-73600000D02*
X59710000Y-73600000D01*
X61790000Y-73480000D02*
X63278000Y-73480000D01*
X58185000Y-73720000D02*
X59710000Y-73720000D01*
X58308000Y-73159000D02*
X59710000Y-73159000D01*
X59051000Y-72039000D02*
X59710000Y-72039000D01*
X61790000Y-73880000D02*
X63328000Y-73880000D01*
X58779000Y-72319000D02*
X59710000Y-72319000D01*
X58177000Y-73800000D02*
X59710000Y-73800000D01*
X61790000Y-72519000D02*
X62872000Y-72519000D01*
X58924000Y-72159000D02*
X59710000Y-72159000D01*
X59367000Y-71799000D02*
X62133000Y-71799000D01*
X58172000Y-73880000D02*
X59710000Y-73880000D01*
X59196000Y-71919000D02*
X62304000Y-71919000D01*
X61790000Y-72639000D02*
X62950000Y-72639000D01*
X58181000Y-73760000D02*
X59710000Y-73760000D01*
X61790000Y-73800000D02*
X63323000Y-73800000D01*
X58171000Y-73920000D02*
X59710000Y-73920000D01*
X61790000Y-73320000D02*
X63241000Y-73320000D01*
X58352000Y-73039000D02*
X59710000Y-73039000D01*
X58170000Y-73960000D02*
X59710000Y-73960000D01*
X58685000Y-72439000D02*
X59710000Y-72439000D01*
X61790000Y-72479000D02*
X62845000Y-72479000D01*
X61790000Y-73199000D02*
X63205000Y-73199000D01*
X58550000Y-72639000D02*
X59710000Y-72639000D01*
X59945000Y-71519000D02*
X61555000Y-71519000D01*
X61790000Y-73119000D02*
X63178000Y-73119000D01*
X59431000Y-71759000D02*
X62069000Y-71759000D01*
X61790000Y-72319000D02*
X62721000Y-72319000D01*
X58230000Y-73440000D02*
X59710000Y-73440000D01*
X59835000Y-71559000D02*
X61665000Y-71559000D01*
X61790000Y-72199000D02*
X62614000Y-72199000D01*
X59739000Y-71599000D02*
X61761000Y-71599000D01*
X58322000Y-73119000D02*
X59710000Y-73119000D01*
X61790000Y-72919000D02*
X63098000Y-72919000D01*
X58189000Y-73680000D02*
X59710000Y-73680000D01*
X58628000Y-72519000D02*
X59710000Y-72519000D01*
X58336000Y-73079000D02*
X59710000Y-73079000D01*
X61790000Y-72159000D02*
X62576000Y-72159000D01*
X61790000Y-72399000D02*
X62785000Y-72399000D01*
X58239000Y-73400000D02*
X59710000Y-73400000D01*
X61790000Y-73239000D02*
X63218000Y-73239000D01*
X59097000Y-71999000D02*
X59710000Y-71999000D01*
X58503000Y-72719000D02*
X59710000Y-72719000D01*
X58174000Y-73840000D02*
X59710000Y-73840000D01*
X58249000Y-73360000D02*
X59710000Y-73360000D01*
X58886000Y-72199000D02*
X59710000Y-72199000D01*
X61790000Y-72959000D02*
X63115000Y-72959000D01*
X59499000Y-71719000D02*
X62001000Y-71719000D01*
X61790000Y-73400000D02*
X63261000Y-73400000D01*
X61790000Y-72879000D02*
X63079000Y-72879000D01*
X61790000Y-72239000D02*
X62651000Y-72239000D01*
X61790000Y-73680000D02*
X63311000Y-73680000D01*
X61790000Y-73600000D02*
X63300000Y-73600000D01*
X59275000Y-76804775D02*
X59275000Y-76304775D01*
X61790000Y-72839000D02*
X63060000Y-72839000D01*
X63370000Y-74000000D02*
G75*
G03*
X63370000Y-74000000I-2620000J0D01*
G01*
X67290000Y-58899000D02*
X68285000Y-58899000D01*
X67290000Y-60340000D02*
X68826000Y-60340000D01*
X65966000Y-57899000D02*
X66534000Y-57899000D01*
X63739000Y-59900000D02*
X65210000Y-59900000D01*
X64101000Y-59059000D02*
X65210000Y-59059000D01*
X67290000Y-60260000D02*
X68819000Y-60260000D01*
X64246000Y-58859000D02*
X65210000Y-58859000D01*
X64645000Y-58459000D02*
X67855000Y-58459000D01*
X63674000Y-60340000D02*
X65210000Y-60340000D01*
X63694000Y-60140000D02*
X65210000Y-60140000D01*
X67290000Y-59179000D02*
X68474000Y-59179000D01*
X67290000Y-59219000D02*
X68497000Y-59219000D01*
X63670000Y-60500000D02*
X65210000Y-60500000D01*
X64525000Y-63054775D02*
X65025000Y-63054775D01*
X67290000Y-59619000D02*
X68678000Y-59619000D01*
X65445000Y-58019000D02*
X67055000Y-58019000D01*
X67290000Y-58579000D02*
X67993000Y-58579000D01*
X67290000Y-60020000D02*
X68786000Y-60020000D01*
X64075000Y-59099000D02*
X65210000Y-59099000D01*
X64155000Y-58979000D02*
X65210000Y-58979000D01*
X67290000Y-58699000D02*
X68114000Y-58699000D01*
X67290000Y-59940000D02*
X68770000Y-59940000D01*
X63677000Y-60300000D02*
X65210000Y-60300000D01*
X63672000Y-60380000D02*
X65210000Y-60380000D01*
X64050000Y-59139000D02*
X65210000Y-59139000D01*
X67290000Y-60180000D02*
X68811000Y-60180000D01*
X67290000Y-59139000D02*
X68450000Y-59139000D01*
X64931000Y-58259000D02*
X67569000Y-58259000D01*
X63685000Y-60220000D02*
X65210000Y-60220000D01*
X67290000Y-60460000D02*
X68830000Y-60460000D01*
X63868000Y-59499000D02*
X65210000Y-59499000D01*
X63982000Y-59259000D02*
X65210000Y-59259000D01*
X67290000Y-60420000D02*
X68829000Y-60420000D01*
X67290000Y-59499000D02*
X68632000Y-59499000D01*
X65335000Y-58059000D02*
X67165000Y-58059000D01*
X63795000Y-59699000D02*
X65210000Y-59699000D01*
X63836000Y-59579000D02*
X65210000Y-59579000D01*
X64424000Y-58659000D02*
X65210000Y-58659000D01*
X67290000Y-58739000D02*
X68151000Y-58739000D01*
X67290000Y-59699000D02*
X68705000Y-59699000D01*
X63671000Y-60420000D02*
X65210000Y-60420000D01*
X67290000Y-59820000D02*
X68741000Y-59820000D01*
X64807000Y-58339000D02*
X67693000Y-58339000D01*
X63885000Y-59459000D02*
X65210000Y-59459000D01*
X64999000Y-58219000D02*
X67501000Y-58219000D01*
X65239000Y-58099000D02*
X67261000Y-58099000D01*
X65152000Y-58139000D02*
X67348000Y-58139000D01*
X67290000Y-60220000D02*
X68815000Y-60220000D01*
X63782000Y-59739000D02*
X65210000Y-59739000D01*
X64775000Y-63304775D02*
X64775000Y-62804775D01*
X67290000Y-59459000D02*
X68615000Y-59459000D01*
X63759000Y-59820000D02*
X65210000Y-59820000D01*
X64349000Y-58739000D02*
X65210000Y-58739000D01*
X64386000Y-58699000D02*
X65210000Y-58699000D01*
X67290000Y-59419000D02*
X68598000Y-59419000D01*
X67290000Y-60380000D02*
X68828000Y-60380000D01*
X67290000Y-59539000D02*
X68648000Y-59539000D01*
X63960000Y-59299000D02*
X65210000Y-59299000D01*
X67290000Y-58979000D02*
X68345000Y-58979000D01*
X67290000Y-59980000D02*
X68778000Y-59980000D01*
X67290000Y-59579000D02*
X68664000Y-59579000D01*
X64279000Y-58819000D02*
X65210000Y-58819000D01*
X64465000Y-58619000D02*
X65210000Y-58619000D01*
X67290000Y-58779000D02*
X68187000Y-58779000D01*
X64551000Y-58539000D02*
X65210000Y-58539000D01*
X64867000Y-58299000D02*
X67633000Y-58299000D01*
X63852000Y-59539000D02*
X65210000Y-59539000D01*
X63707000Y-60060000D02*
X65210000Y-60060000D01*
X67290000Y-59299000D02*
X68540000Y-59299000D01*
X64003000Y-59219000D02*
X65210000Y-59219000D01*
X67290000Y-59259000D02*
X68518000Y-59259000D01*
X64750000Y-58379000D02*
X67750000Y-58379000D01*
X67290000Y-60060000D02*
X68793000Y-60060000D01*
X64128000Y-59019000D02*
X65210000Y-59019000D01*
X63689000Y-60180000D02*
X65210000Y-60180000D01*
X63902000Y-59419000D02*
X65210000Y-59419000D01*
X67290000Y-59339000D02*
X68560000Y-59339000D01*
X67290000Y-58819000D02*
X68221000Y-58819000D01*
X63681000Y-60260000D02*
X65210000Y-60260000D01*
X67290000Y-59900000D02*
X68761000Y-59900000D01*
X67290000Y-59059000D02*
X68399000Y-59059000D01*
X63808000Y-59659000D02*
X65210000Y-59659000D01*
X67290000Y-59019000D02*
X68372000Y-59019000D01*
X67290000Y-59860000D02*
X68751000Y-59860000D01*
X63822000Y-59619000D02*
X65210000Y-59619000D01*
X63700000Y-60100000D02*
X65210000Y-60100000D01*
X67290000Y-58659000D02*
X68076000Y-58659000D01*
X64597000Y-58499000D02*
X65210000Y-58499000D01*
X63722000Y-59980000D02*
X65210000Y-59980000D01*
X63940000Y-59339000D02*
X65210000Y-59339000D01*
X67290000Y-60100000D02*
X68800000Y-60100000D01*
X63670000Y-60460000D02*
X65210000Y-60460000D01*
X67290000Y-58499000D02*
X67903000Y-58499000D01*
X63749000Y-59860000D02*
X65210000Y-59860000D01*
X67290000Y-58859000D02*
X68254000Y-58859000D01*
X67290000Y-58939000D02*
X68315000Y-58939000D01*
X65072000Y-58179000D02*
X67428000Y-58179000D01*
X67290000Y-60300000D02*
X68823000Y-60300000D01*
X63921000Y-59379000D02*
X65210000Y-59379000D01*
X67290000Y-60140000D02*
X68806000Y-60140000D01*
X67290000Y-59779000D02*
X68730000Y-59779000D01*
X67290000Y-59379000D02*
X68579000Y-59379000D01*
X64313000Y-58779000D02*
X65210000Y-58779000D01*
X64185000Y-58939000D02*
X65210000Y-58939000D01*
X67290000Y-59739000D02*
X68718000Y-59739000D01*
X67290000Y-60500000D02*
X68830000Y-60500000D01*
X67290000Y-59659000D02*
X68692000Y-59659000D01*
X64026000Y-59179000D02*
X65210000Y-59179000D01*
X64696000Y-58419000D02*
X67804000Y-58419000D01*
X63714000Y-60020000D02*
X65210000Y-60020000D01*
X65732000Y-57939000D02*
X66768000Y-57939000D01*
X63730000Y-59940000D02*
X65210000Y-59940000D01*
X67290000Y-58539000D02*
X67949000Y-58539000D01*
X67290000Y-58619000D02*
X68035000Y-58619000D01*
X64215000Y-58899000D02*
X65210000Y-58899000D01*
X64507000Y-58579000D02*
X65210000Y-58579000D01*
X63770000Y-59779000D02*
X65210000Y-59779000D01*
X65573000Y-57979000D02*
X66927000Y-57979000D01*
X67290000Y-59099000D02*
X68425000Y-59099000D01*
X68870000Y-60500000D02*
G75*
G03*
X68870000Y-60500000I-2620000J0D01*
G01*
X53880000Y-91220000D02*
X53880000Y-93960000D01*
X53880000Y-93960000D02*
X61120000Y-93960000D01*
X61120000Y-91220000D02*
X61120000Y-93960000D01*
X53880000Y-91220000D02*
X61120000Y-91220000D01*
X53880000Y-94220000D02*
X53880000Y-96960000D01*
X53880000Y-96960000D02*
X61120000Y-96960000D01*
X61120000Y-94220000D02*
X61120000Y-96960000D01*
X53880000Y-94220000D02*
X61120000Y-94220000D01*
X53380000Y-109880000D02*
X60620000Y-109880000D01*
X53380000Y-112620000D02*
X60620000Y-112620000D01*
X53380000Y-109880000D02*
X53380000Y-112620000D01*
X60620000Y-109880000D02*
X60620000Y-112620000D01*
X40540000Y-59880000D02*
X42078000Y-59880000D01*
X37378000Y-58519000D02*
X38460000Y-58519000D01*
X40540000Y-58199000D02*
X41364000Y-58199000D01*
X40540000Y-59440000D02*
X42020000Y-59440000D01*
X36921000Y-59920000D02*
X38460000Y-59920000D01*
X40540000Y-59239000D02*
X41968000Y-59239000D01*
X40540000Y-58719000D02*
X41747000Y-58719000D01*
X38322000Y-57679000D02*
X40678000Y-57679000D01*
X38695000Y-57519000D02*
X40305000Y-57519000D01*
X37253000Y-58719000D02*
X38460000Y-58719000D01*
X37032000Y-59239000D02*
X38460000Y-59239000D01*
X40540000Y-58679000D02*
X41724000Y-58679000D01*
X37757000Y-58079000D02*
X38460000Y-58079000D01*
X40540000Y-59920000D02*
X42079000Y-59920000D01*
X36989000Y-59400000D02*
X38460000Y-59400000D01*
X40540000Y-58959000D02*
X41865000Y-58959000D01*
X36957000Y-59560000D02*
X38460000Y-59560000D01*
X40540000Y-59119000D02*
X41928000Y-59119000D01*
X40540000Y-57999000D02*
X41153000Y-57999000D01*
X37276000Y-58679000D02*
X38460000Y-58679000D01*
X40540000Y-58079000D02*
X41243000Y-58079000D01*
X40540000Y-58359000D02*
X41504000Y-58359000D01*
X40540000Y-59480000D02*
X42028000Y-59480000D01*
X37135000Y-58959000D02*
X38460000Y-58959000D01*
X40540000Y-58879000D02*
X41829000Y-58879000D01*
X38000000Y-57879000D02*
X41000000Y-57879000D01*
X36950000Y-59600000D02*
X38460000Y-59600000D01*
X40540000Y-59680000D02*
X42061000Y-59680000D01*
X40540000Y-58559000D02*
X41649000Y-58559000D01*
X40540000Y-59199000D02*
X41955000Y-59199000D01*
X37020000Y-59279000D02*
X38460000Y-59279000D01*
X40540000Y-59840000D02*
X42076000Y-59840000D01*
X37171000Y-58879000D02*
X38460000Y-58879000D01*
X40540000Y-59600000D02*
X42050000Y-59600000D01*
X40540000Y-59520000D02*
X42036000Y-59520000D01*
X38489000Y-57599000D02*
X40511000Y-57599000D01*
X37847000Y-57999000D02*
X38460000Y-57999000D01*
X40540000Y-58999000D02*
X41882000Y-58999000D01*
X40540000Y-58439000D02*
X41565000Y-58439000D01*
X36980000Y-59440000D02*
X38460000Y-59440000D01*
X36999000Y-59360000D02*
X38460000Y-59360000D01*
X40540000Y-58799000D02*
X41790000Y-58799000D01*
X37072000Y-59119000D02*
X38460000Y-59119000D01*
X40540000Y-58159000D02*
X41326000Y-58159000D01*
X38402000Y-57639000D02*
X40598000Y-57639000D01*
X40540000Y-59960000D02*
X42080000Y-59960000D01*
X37325000Y-58599000D02*
X38460000Y-58599000D01*
X37465000Y-58399000D02*
X38460000Y-58399000D01*
X37496000Y-58359000D02*
X38460000Y-58359000D01*
X36920000Y-60000000D02*
X38460000Y-60000000D01*
X37599000Y-58239000D02*
X38460000Y-58239000D01*
X40540000Y-59159000D02*
X41942000Y-59159000D01*
X37086000Y-59079000D02*
X38460000Y-59079000D01*
X37058000Y-59159000D02*
X38460000Y-59159000D01*
X38057000Y-57839000D02*
X40943000Y-57839000D01*
X40540000Y-58479000D02*
X41595000Y-58479000D01*
X37674000Y-58159000D02*
X38460000Y-58159000D01*
X40540000Y-58399000D02*
X41535000Y-58399000D01*
X40540000Y-58039000D02*
X41199000Y-58039000D01*
X37895000Y-57959000D02*
X41105000Y-57959000D01*
X37190000Y-58839000D02*
X38460000Y-58839000D01*
X40540000Y-58639000D02*
X41700000Y-58639000D01*
X40540000Y-58239000D02*
X41401000Y-58239000D01*
X37946000Y-57919000D02*
X41054000Y-57919000D01*
X37529000Y-58319000D02*
X38460000Y-58319000D01*
X40540000Y-59360000D02*
X42001000Y-59360000D01*
X40540000Y-58319000D02*
X41471000Y-58319000D01*
X40540000Y-58279000D02*
X41437000Y-58279000D01*
X38181000Y-57759000D02*
X40819000Y-57759000D01*
X37715000Y-58119000D02*
X38460000Y-58119000D01*
X38585000Y-57559000D02*
X40415000Y-57559000D01*
X40540000Y-59400000D02*
X42011000Y-59400000D01*
X36927000Y-59800000D02*
X38460000Y-59800000D01*
X40540000Y-59800000D02*
X42073000Y-59800000D01*
X37232000Y-58759000D02*
X38460000Y-58759000D01*
X37775000Y-62554775D02*
X38275000Y-62554775D01*
X40540000Y-58599000D02*
X41675000Y-58599000D01*
X37351000Y-58559000D02*
X38460000Y-58559000D01*
X40540000Y-59560000D02*
X42043000Y-59560000D01*
X37636000Y-58199000D02*
X38460000Y-58199000D01*
X37045000Y-59199000D02*
X38460000Y-59199000D01*
X36924000Y-59840000D02*
X38460000Y-59840000D01*
X36944000Y-59640000D02*
X38460000Y-59640000D01*
X38982000Y-57439000D02*
X40018000Y-57439000D01*
X40540000Y-58839000D02*
X41810000Y-58839000D01*
X40540000Y-60000000D02*
X42080000Y-60000000D01*
X37118000Y-58999000D02*
X38460000Y-58999000D01*
X37009000Y-59320000D02*
X38460000Y-59320000D01*
X36964000Y-59520000D02*
X38460000Y-59520000D01*
X40540000Y-58759000D02*
X41768000Y-58759000D01*
X40540000Y-59720000D02*
X42065000Y-59720000D01*
X37300000Y-58639000D02*
X38460000Y-58639000D01*
X37563000Y-58279000D02*
X38460000Y-58279000D01*
X36935000Y-59720000D02*
X38460000Y-59720000D01*
X40540000Y-58519000D02*
X41622000Y-58519000D01*
X40540000Y-59279000D02*
X41980000Y-59279000D01*
X37102000Y-59039000D02*
X38460000Y-59039000D01*
X40540000Y-58919000D02*
X41848000Y-58919000D01*
X40540000Y-59640000D02*
X42056000Y-59640000D01*
X40540000Y-59039000D02*
X41898000Y-59039000D01*
X40540000Y-58119000D02*
X41285000Y-58119000D01*
X36922000Y-59880000D02*
X38460000Y-59880000D01*
X37435000Y-58439000D02*
X38460000Y-58439000D01*
X37405000Y-58479000D02*
X38460000Y-58479000D01*
X37210000Y-58799000D02*
X38460000Y-58799000D01*
X36972000Y-59480000D02*
X38460000Y-59480000D01*
X40540000Y-59320000D02*
X41991000Y-59320000D01*
X38823000Y-57479000D02*
X40177000Y-57479000D01*
X39216000Y-57399000D02*
X39784000Y-57399000D01*
X37152000Y-58919000D02*
X38460000Y-58919000D01*
X36920000Y-59960000D02*
X38460000Y-59960000D01*
X36931000Y-59760000D02*
X38460000Y-59760000D01*
X38249000Y-57719000D02*
X40751000Y-57719000D01*
X37801000Y-58039000D02*
X38460000Y-58039000D01*
X38025000Y-62804775D02*
X38025000Y-62304775D01*
X38117000Y-57799000D02*
X40883000Y-57799000D01*
X40540000Y-59079000D02*
X41914000Y-59079000D01*
X36939000Y-59680000D02*
X38460000Y-59680000D01*
X40540000Y-59760000D02*
X42069000Y-59760000D01*
X42120000Y-60000000D02*
G75*
G03*
X42120000Y-60000000I-2620000J0D01*
G01*
X38880000Y-93960000D02*
X38880000Y-91220000D01*
X46120000Y-93960000D02*
X38880000Y-93960000D01*
X46120000Y-93960000D02*
X46120000Y-91220000D01*
X46120000Y-91220000D02*
X38880000Y-91220000D01*
X46120000Y-96960000D02*
X46120000Y-94220000D01*
X46120000Y-94220000D02*
X38880000Y-94220000D01*
X38880000Y-96960000D02*
X38880000Y-94220000D01*
X46120000Y-96960000D02*
X38880000Y-96960000D01*
X37880000Y-109880000D02*
X37880000Y-112620000D01*
X37880000Y-112620000D02*
X45120000Y-112620000D01*
X37880000Y-109880000D02*
X45120000Y-109880000D01*
X45120000Y-109880000D02*
X45120000Y-112620000D01*
X37880000Y-109370000D02*
X37880000Y-106630000D01*
X45120000Y-109370000D02*
X37880000Y-109370000D01*
X45120000Y-106630000D02*
X37880000Y-106630000D01*
X45120000Y-109370000D02*
X45120000Y-106630000D01*
X58750000Y-63420000D02*
X58750000Y-64070000D01*
X58750000Y-68960000D02*
X58750000Y-68310000D01*
X57630000Y-67710000D02*
X59870000Y-67710000D01*
X57630000Y-67590000D02*
X59870000Y-67590000D01*
X59870000Y-68310000D02*
X59870000Y-64070000D01*
X57630000Y-68310000D02*
X59870000Y-68310000D01*
X57630000Y-67470000D02*
X59870000Y-67470000D01*
X59870000Y-64070000D02*
X57630000Y-64070000D01*
X57630000Y-64070000D02*
X57630000Y-68310000D01*
X62870000Y-68310000D02*
X62870000Y-64070000D01*
X61750000Y-68960000D02*
X61750000Y-68310000D01*
X60630000Y-64070000D02*
X60630000Y-68310000D01*
X62870000Y-64910000D02*
X60630000Y-64910000D01*
X62870000Y-64790000D02*
X60630000Y-64790000D01*
X62870000Y-64670000D02*
X60630000Y-64670000D01*
X61750000Y-63420000D02*
X61750000Y-64070000D01*
X62870000Y-64070000D02*
X60630000Y-64070000D01*
X60630000Y-68310000D02*
X62870000Y-68310000D01*
X56120000Y-86520000D02*
X56120000Y-82280000D01*
X53880000Y-85920000D02*
X56120000Y-85920000D01*
X55000000Y-81630000D02*
X55000000Y-82280000D01*
X53880000Y-85680000D02*
X56120000Y-85680000D01*
X53880000Y-85800000D02*
X56120000Y-85800000D01*
X53880000Y-86520000D02*
X56120000Y-86520000D01*
X55000000Y-87170000D02*
X55000000Y-86520000D01*
X56120000Y-82280000D02*
X53880000Y-82280000D01*
X53880000Y-82280000D02*
X53880000Y-86520000D01*
X33620000Y-67810000D02*
X33620000Y-63570000D01*
X33620000Y-63570000D02*
X31380000Y-63570000D01*
X31380000Y-67090000D02*
X33620000Y-67090000D01*
X32500000Y-68460000D02*
X32500000Y-67810000D01*
X31380000Y-66970000D02*
X33620000Y-66970000D01*
X31380000Y-63570000D02*
X31380000Y-67810000D01*
X32500000Y-62920000D02*
X32500000Y-63570000D01*
X31380000Y-67210000D02*
X33620000Y-67210000D01*
X31380000Y-67810000D02*
X33620000Y-67810000D01*
X35000000Y-62920000D02*
X35000000Y-63570000D01*
X36120000Y-64290000D02*
X33880000Y-64290000D01*
X36120000Y-67810000D02*
X36120000Y-63570000D01*
X36120000Y-64170000D02*
X33880000Y-64170000D01*
X35000000Y-68460000D02*
X35000000Y-67810000D01*
X36120000Y-64410000D02*
X33880000Y-64410000D01*
X33880000Y-67810000D02*
X36120000Y-67810000D01*
X36120000Y-63570000D02*
X33880000Y-63570000D01*
X33880000Y-63570000D02*
X33880000Y-67810000D01*
X41620000Y-121440000D02*
X37380000Y-121440000D01*
X39500000Y-121200000D02*
X39500000Y-121440000D01*
X37380000Y-121440000D02*
X37380000Y-131180000D01*
X39500000Y-131420000D02*
X39500000Y-131180000D01*
X41620000Y-131180000D02*
X41620000Y-121440000D01*
X37380000Y-131180000D02*
X41620000Y-131180000D01*
X62620000Y-121440000D02*
X58380000Y-121440000D01*
X60500000Y-121200000D02*
X60500000Y-121440000D01*
X58380000Y-131180000D02*
X62620000Y-131180000D01*
X60500000Y-131420000D02*
X60500000Y-131180000D01*
X58380000Y-121440000D02*
X58380000Y-131180000D01*
X62620000Y-131180000D02*
X62620000Y-121440000D01*
X69330000Y-99770000D02*
X69330000Y-117610000D01*
X66670000Y-117610000D02*
X69330000Y-117610000D01*
X66670000Y-97170000D02*
X68000000Y-97170000D01*
X66670000Y-99770000D02*
X69330000Y-99770000D01*
X66670000Y-98500000D02*
X66670000Y-97170000D01*
X66670000Y-99770000D02*
X66670000Y-117610000D01*
X33330000Y-99770000D02*
X33330000Y-117610000D01*
X30670000Y-97170000D02*
X32000000Y-97170000D01*
X30670000Y-99770000D02*
X33330000Y-99770000D01*
X30670000Y-117610000D02*
X33330000Y-117610000D01*
X30670000Y-98500000D02*
X30670000Y-97170000D01*
X30670000Y-99770000D02*
X30670000Y-117610000D01*
X65850000Y-84160000D02*
X65850000Y-80560000D01*
X65838478Y-80521522D02*
G75*
G03*
X61400000Y-82360000I-1838478J-1838478D01*
G01*
X61399999Y-82360000D02*
G75*
G03*
X65838478Y-84198478I2600001J0D01*
G01*
X60850000Y-84120000D02*
X60850000Y-80520000D01*
X56399999Y-82320000D02*
G75*
G03*
X60838478Y-84158478I2600001J0D01*
G01*
X60838478Y-80481522D02*
G75*
G03*
X56400000Y-82320000I-1838478J-1838478D01*
G01*
X60850000Y-89620000D02*
X60850000Y-86020000D01*
X56399999Y-87820000D02*
G75*
G03*
X60838478Y-89658478I2600001J0D01*
G01*
X60838478Y-85981522D02*
G75*
G03*
X56400000Y-87820000I-1838478J-1838478D01*
G01*
X38350000Y-83660000D02*
X38350000Y-80060000D01*
X33899999Y-81860000D02*
G75*
G03*
X38338478Y-83698478I2600001J0D01*
G01*
X38338478Y-80021522D02*
G75*
G03*
X33900000Y-81860000I-1838478J-1838478D01*
G01*
X43350000Y-83660000D02*
X43350000Y-80060000D01*
X38899999Y-81860000D02*
G75*
G03*
X43338478Y-83698478I2600001J0D01*
G01*
X43338478Y-80021522D02*
G75*
G03*
X38900000Y-81860000I-1838478J-1838478D01*
G01*
X43350000Y-89160000D02*
X43350000Y-85560000D01*
X43338478Y-85521522D02*
G75*
G03*
X38900000Y-87360000I-1838478J-1838478D01*
G01*
X38899999Y-87360000D02*
G75*
G03*
X43338478Y-89198478I2600001J0D01*
G01*
X66620000Y-66650000D02*
X63880000Y-66650000D01*
X65250000Y-73960000D02*
X65250000Y-73190000D01*
X65250000Y-65880000D02*
X65250000Y-66650000D01*
X66620000Y-73190000D02*
X66620000Y-66650000D01*
X63880000Y-66650000D02*
X63880000Y-73190000D01*
X63880000Y-73190000D02*
X66620000Y-73190000D01*
X62630000Y-94940000D02*
X65370000Y-94940000D01*
X62630000Y-88400000D02*
X62630000Y-94940000D01*
X64000000Y-87630000D02*
X64000000Y-88400000D01*
X64000000Y-95710000D02*
X64000000Y-94940000D01*
X65370000Y-94940000D02*
X65370000Y-88400000D01*
X65370000Y-88400000D02*
X62630000Y-88400000D01*
X50630000Y-82400000D02*
X50630000Y-88940000D01*
X50630000Y-88940000D02*
X53370000Y-88940000D01*
X52000000Y-81630000D02*
X52000000Y-82400000D01*
X52000000Y-89710000D02*
X52000000Y-88940000D01*
X53370000Y-82400000D02*
X50630000Y-82400000D01*
X53370000Y-88940000D02*
X53370000Y-82400000D01*
X64250000Y-115960000D02*
X64250000Y-115190000D01*
X65620000Y-108650000D02*
X62880000Y-108650000D01*
X64250000Y-107880000D02*
X64250000Y-108650000D01*
X62880000Y-108650000D02*
X62880000Y-115190000D01*
X65620000Y-115190000D02*
X65620000Y-108650000D01*
X62880000Y-115190000D02*
X65620000Y-115190000D01*
X35370000Y-128690000D02*
X35370000Y-122150000D01*
X32630000Y-128690000D02*
X35370000Y-128690000D01*
X34000000Y-129460000D02*
X34000000Y-128690000D01*
X35370000Y-122150000D02*
X32630000Y-122150000D01*
X32630000Y-122150000D02*
X32630000Y-128690000D01*
X34000000Y-121380000D02*
X34000000Y-122150000D01*
X53230000Y-106630000D02*
X53230000Y-109370000D01*
X53230000Y-109370000D02*
X59770000Y-109370000D01*
X59770000Y-109370000D02*
X59770000Y-106630000D01*
X60540000Y-108000000D02*
X59770000Y-108000000D01*
X52460000Y-108000000D02*
X53230000Y-108000000D01*
X59770000Y-106630000D02*
X53230000Y-106630000D01*
X39870000Y-66150000D02*
X37130000Y-66150000D01*
X37130000Y-72690000D02*
X39870000Y-72690000D01*
X39870000Y-72690000D02*
X39870000Y-66150000D01*
X37130000Y-66150000D02*
X37130000Y-72690000D01*
X38500000Y-73460000D02*
X38500000Y-72690000D01*
X38500000Y-65380000D02*
X38500000Y-66150000D01*
X35130000Y-87900000D02*
X35130000Y-94440000D01*
X36500000Y-95210000D02*
X36500000Y-94440000D01*
X35130000Y-94440000D02*
X37870000Y-94440000D01*
X37870000Y-87900000D02*
X35130000Y-87900000D01*
X37870000Y-94440000D02*
X37870000Y-87900000D01*
X36500000Y-87130000D02*
X36500000Y-87900000D01*
X48000000Y-89710000D02*
X48000000Y-88940000D01*
X48000000Y-81630000D02*
X48000000Y-82400000D01*
X46630000Y-88940000D02*
X49370000Y-88940000D01*
X46630000Y-82400000D02*
X46630000Y-88940000D01*
X49370000Y-82400000D02*
X46630000Y-82400000D01*
X49370000Y-88940000D02*
X49370000Y-82400000D01*
X34380000Y-115520000D02*
X37120000Y-115520000D01*
X34380000Y-108980000D02*
X34380000Y-115520000D01*
X37120000Y-108980000D02*
X34380000Y-108980000D01*
X35750000Y-108210000D02*
X35750000Y-108980000D01*
X35750000Y-116290000D02*
X35750000Y-115520000D01*
X37120000Y-115520000D02*
X37120000Y-108980000D01*
X36980000Y-105870000D02*
X43520000Y-105870000D01*
X43520000Y-105870000D02*
X43520000Y-103130000D01*
X43520000Y-103130000D02*
X36980000Y-103130000D01*
X44290000Y-104500000D02*
X43520000Y-104500000D01*
X36980000Y-103130000D02*
X36980000Y-105870000D01*
X36210000Y-104500000D02*
X36980000Y-104500000D01*
X35040000Y-72860000D02*
X36501000Y-72860000D01*
X32174000Y-71659000D02*
X32960000Y-71659000D01*
X31586000Y-72579000D02*
X32960000Y-72579000D01*
X35040000Y-73220000D02*
X36565000Y-73220000D01*
X35040000Y-72739000D02*
X36468000Y-72739000D01*
X35040000Y-72820000D02*
X36491000Y-72820000D01*
X35040000Y-71739000D02*
X35901000Y-71739000D01*
X31635000Y-72459000D02*
X32960000Y-72459000D01*
X35040000Y-73140000D02*
X36556000Y-73140000D01*
X35040000Y-71699000D02*
X35864000Y-71699000D01*
X35040000Y-72139000D02*
X36200000Y-72139000D01*
X33085000Y-71059000D02*
X34915000Y-71059000D01*
X31935000Y-71939000D02*
X32960000Y-71939000D01*
X31878000Y-72019000D02*
X32960000Y-72019000D01*
X31996000Y-71859000D02*
X32960000Y-71859000D01*
X31602000Y-72539000D02*
X32960000Y-72539000D01*
X35040000Y-72459000D02*
X36365000Y-72459000D01*
X32347000Y-71499000D02*
X32960000Y-71499000D01*
X31472000Y-72980000D02*
X32960000Y-72980000D01*
X31509000Y-72820000D02*
X32960000Y-72820000D01*
X32989000Y-71099000D02*
X35011000Y-71099000D01*
X35040000Y-72980000D02*
X36528000Y-72980000D01*
X31618000Y-72499000D02*
X32960000Y-72499000D01*
X32617000Y-71299000D02*
X35383000Y-71299000D01*
X31499000Y-72860000D02*
X32960000Y-72860000D01*
X31420000Y-73500000D02*
X32960000Y-73500000D01*
X31464000Y-73020000D02*
X32960000Y-73020000D01*
X35040000Y-72779000D02*
X36480000Y-72779000D01*
X35040000Y-72259000D02*
X36268000Y-72259000D01*
X31435000Y-73220000D02*
X32960000Y-73220000D01*
X31421000Y-73420000D02*
X32960000Y-73420000D01*
X32902000Y-71139000D02*
X35098000Y-71139000D01*
X35040000Y-73340000D02*
X36576000Y-73340000D01*
X32500000Y-71379000D02*
X35500000Y-71379000D01*
X31420000Y-73460000D02*
X32960000Y-73460000D01*
X32136000Y-71699000D02*
X32960000Y-71699000D01*
X35040000Y-71779000D02*
X35937000Y-71779000D01*
X35040000Y-71499000D02*
X35653000Y-71499000D01*
X35040000Y-73500000D02*
X36580000Y-73500000D01*
X33716000Y-70899000D02*
X34284000Y-70899000D01*
X32749000Y-71219000D02*
X35251000Y-71219000D01*
X35040000Y-73420000D02*
X36579000Y-73420000D01*
X35040000Y-71899000D02*
X36035000Y-71899000D01*
X32822000Y-71179000D02*
X35178000Y-71179000D01*
X35040000Y-71579000D02*
X35743000Y-71579000D01*
X31520000Y-72779000D02*
X32960000Y-72779000D01*
X33482000Y-70939000D02*
X34518000Y-70939000D01*
X31450000Y-73100000D02*
X32960000Y-73100000D01*
X35040000Y-72219000D02*
X36247000Y-72219000D01*
X31671000Y-72379000D02*
X32960000Y-72379000D01*
X31753000Y-72219000D02*
X32960000Y-72219000D01*
X35040000Y-73060000D02*
X36543000Y-73060000D01*
X33323000Y-70979000D02*
X34677000Y-70979000D01*
X35040000Y-72579000D02*
X36414000Y-72579000D01*
X31480000Y-72940000D02*
X32960000Y-72940000D01*
X32681000Y-71259000D02*
X35319000Y-71259000D01*
X31732000Y-72259000D02*
X32960000Y-72259000D01*
X31427000Y-73300000D02*
X32960000Y-73300000D01*
X35040000Y-72179000D02*
X36224000Y-72179000D01*
X31439000Y-73180000D02*
X32960000Y-73180000D01*
X32029000Y-71819000D02*
X32960000Y-71819000D01*
X35040000Y-73300000D02*
X36573000Y-73300000D01*
X32525000Y-76304775D02*
X32525000Y-75804775D01*
X35040000Y-72940000D02*
X36520000Y-72940000D01*
X35040000Y-71819000D02*
X35971000Y-71819000D01*
X35040000Y-72019000D02*
X36122000Y-72019000D01*
X31545000Y-72699000D02*
X32960000Y-72699000D01*
X31424000Y-73340000D02*
X32960000Y-73340000D01*
X31558000Y-72659000D02*
X32960000Y-72659000D01*
X35040000Y-72499000D02*
X36382000Y-72499000D01*
X35040000Y-72539000D02*
X36398000Y-72539000D01*
X31905000Y-71979000D02*
X32960000Y-71979000D01*
X35040000Y-72900000D02*
X36511000Y-72900000D01*
X31710000Y-72299000D02*
X32960000Y-72299000D01*
X35040000Y-72299000D02*
X36290000Y-72299000D01*
X35040000Y-72379000D02*
X36329000Y-72379000D01*
X32257000Y-71579000D02*
X32960000Y-71579000D01*
X35040000Y-71659000D02*
X35826000Y-71659000D01*
X31800000Y-72139000D02*
X32960000Y-72139000D01*
X32557000Y-71339000D02*
X35443000Y-71339000D01*
X35040000Y-73020000D02*
X36536000Y-73020000D01*
X35040000Y-72659000D02*
X36442000Y-72659000D01*
X31431000Y-73260000D02*
X32960000Y-73260000D01*
X31965000Y-71899000D02*
X32960000Y-71899000D01*
X31776000Y-72179000D02*
X32960000Y-72179000D01*
X35040000Y-71979000D02*
X36095000Y-71979000D01*
X31532000Y-72739000D02*
X32960000Y-72739000D01*
X35040000Y-72099000D02*
X36175000Y-72099000D01*
X31851000Y-72059000D02*
X32960000Y-72059000D01*
X35040000Y-71619000D02*
X35785000Y-71619000D01*
X35040000Y-73100000D02*
X36550000Y-73100000D01*
X31489000Y-72900000D02*
X32960000Y-72900000D01*
X32215000Y-71619000D02*
X32960000Y-71619000D01*
X32446000Y-71419000D02*
X35554000Y-71419000D01*
X31572000Y-72619000D02*
X32960000Y-72619000D01*
X31444000Y-73140000D02*
X32960000Y-73140000D01*
X35040000Y-71859000D02*
X36004000Y-71859000D01*
X35040000Y-72619000D02*
X36428000Y-72619000D01*
X32063000Y-71779000D02*
X32960000Y-71779000D01*
X35040000Y-73460000D02*
X36580000Y-73460000D01*
X31690000Y-72339000D02*
X32960000Y-72339000D01*
X35040000Y-72419000D02*
X36348000Y-72419000D01*
X31457000Y-73060000D02*
X32960000Y-73060000D01*
X31825000Y-72099000D02*
X32960000Y-72099000D01*
X35040000Y-71939000D02*
X36065000Y-71939000D01*
X35040000Y-72699000D02*
X36455000Y-72699000D01*
X33195000Y-71019000D02*
X34805000Y-71019000D01*
X31422000Y-73380000D02*
X32960000Y-73380000D01*
X35040000Y-73260000D02*
X36569000Y-73260000D01*
X32395000Y-71459000D02*
X35605000Y-71459000D01*
X31652000Y-72419000D02*
X32960000Y-72419000D01*
X35040000Y-72059000D02*
X36149000Y-72059000D01*
X35040000Y-73180000D02*
X36561000Y-73180000D01*
X35040000Y-71539000D02*
X35699000Y-71539000D01*
X32099000Y-71739000D02*
X32960000Y-71739000D01*
X35040000Y-72339000D02*
X36310000Y-72339000D01*
X32301000Y-71539000D02*
X32960000Y-71539000D01*
X35040000Y-73380000D02*
X36578000Y-73380000D01*
X32275000Y-76054775D02*
X32775000Y-76054775D01*
X36620000Y-73500000D02*
G75*
G03*
X36620000Y-73500000I-2620000J0D01*
G01*
X49632000Y-101251000D02*
X48290000Y-101251000D01*
X46210000Y-101011000D02*
X44782000Y-101011000D01*
X46210000Y-101051000D02*
X44795000Y-101051000D01*
X49664000Y-101171000D02*
X48290000Y-101171000D01*
X49399000Y-101691000D02*
X48290000Y-101691000D01*
X46210000Y-101891000D02*
X45246000Y-101891000D01*
X46210000Y-101691000D02*
X45101000Y-101691000D01*
X47534000Y-102851000D02*
X46966000Y-102851000D01*
X46210000Y-100690000D02*
X44707000Y-100690000D01*
X49372000Y-101731000D02*
X48290000Y-101731000D01*
X48804000Y-102331000D02*
X45696000Y-102331000D01*
X48501000Y-102531000D02*
X45999000Y-102531000D01*
X46210000Y-100250000D02*
X44670000Y-100250000D01*
X46210000Y-102251000D02*
X45597000Y-102251000D01*
X49730000Y-100971000D02*
X48290000Y-100971000D01*
X47768000Y-102811000D02*
X46732000Y-102811000D01*
X48055000Y-102731000D02*
X46445000Y-102731000D01*
X46210000Y-100330000D02*
X44671000Y-100330000D01*
X49221000Y-101931000D02*
X48290000Y-101931000D01*
X46210000Y-100810000D02*
X44730000Y-100810000D01*
X49741000Y-100930000D02*
X48290000Y-100930000D01*
X48165000Y-102691000D02*
X46335000Y-102691000D01*
X49035000Y-102131000D02*
X48290000Y-102131000D01*
X48993000Y-102171000D02*
X48290000Y-102171000D01*
X46210000Y-101491000D02*
X44982000Y-101491000D01*
X48693000Y-102411000D02*
X45807000Y-102411000D01*
X49648000Y-101211000D02*
X48290000Y-101211000D01*
X49800000Y-100650000D02*
X48290000Y-100650000D01*
X46210000Y-100850000D02*
X44739000Y-100850000D01*
X46210000Y-101251000D02*
X44868000Y-101251000D01*
X49560000Y-101411000D02*
X48290000Y-101411000D01*
X48903000Y-102251000D02*
X48290000Y-102251000D01*
X49285000Y-101851000D02*
X48290000Y-101851000D01*
X46210000Y-100610000D02*
X44694000Y-100610000D01*
X46210000Y-101531000D02*
X45003000Y-101531000D01*
X46210000Y-102171000D02*
X45507000Y-102171000D01*
X46210000Y-101291000D02*
X44885000Y-101291000D01*
X46210000Y-102091000D02*
X45424000Y-102091000D01*
X47927000Y-102771000D02*
X46573000Y-102771000D01*
X49579000Y-101371000D02*
X48290000Y-101371000D01*
X46210000Y-101931000D02*
X45279000Y-101931000D01*
X49315000Y-101811000D02*
X48290000Y-101811000D01*
X46210000Y-100971000D02*
X44770000Y-100971000D01*
X46210000Y-100930000D02*
X44759000Y-100930000D01*
X46210000Y-101611000D02*
X45050000Y-101611000D01*
X49830000Y-100250000D02*
X48290000Y-100250000D01*
X46210000Y-101171000D02*
X44836000Y-101171000D01*
X49811000Y-100570000D02*
X48290000Y-100570000D01*
X46210000Y-102051000D02*
X45386000Y-102051000D01*
X46210000Y-100370000D02*
X44672000Y-100370000D01*
X46210000Y-100410000D02*
X44674000Y-100410000D01*
X48633000Y-102451000D02*
X45867000Y-102451000D01*
X49254000Y-101891000D02*
X48290000Y-101891000D01*
X49778000Y-100770000D02*
X48290000Y-100770000D01*
X46210000Y-101651000D02*
X45075000Y-101651000D01*
X49830000Y-100290000D02*
X48290000Y-100290000D01*
X46210000Y-101211000D02*
X44852000Y-101211000D01*
X46210000Y-100650000D02*
X44700000Y-100650000D01*
X49187000Y-101971000D02*
X48290000Y-101971000D01*
X49793000Y-100690000D02*
X48290000Y-100690000D01*
X46210000Y-100530000D02*
X44685000Y-100530000D01*
X49474000Y-101571000D02*
X48290000Y-101571000D01*
X49151000Y-102011000D02*
X48290000Y-102011000D01*
X46210000Y-101451000D02*
X44960000Y-101451000D01*
X49761000Y-100850000D02*
X48290000Y-100850000D01*
X46210000Y-100490000D02*
X44681000Y-100490000D01*
X49823000Y-100450000D02*
X48290000Y-100450000D01*
X48428000Y-102571000D02*
X46072000Y-102571000D01*
X46210000Y-100570000D02*
X44689000Y-100570000D01*
X49751000Y-100890000D02*
X48290000Y-100890000D01*
X49826000Y-100410000D02*
X48290000Y-100410000D01*
X49450000Y-101611000D02*
X48290000Y-101611000D01*
X48261000Y-102651000D02*
X46239000Y-102651000D01*
X46210000Y-100290000D02*
X44670000Y-100290000D01*
X49705000Y-101051000D02*
X48290000Y-101051000D01*
X46210000Y-101371000D02*
X44921000Y-101371000D01*
X49678000Y-101131000D02*
X48290000Y-101131000D01*
X48725000Y-97445225D02*
X48725000Y-97945225D01*
X46210000Y-101411000D02*
X44940000Y-101411000D01*
X49114000Y-102051000D02*
X48290000Y-102051000D01*
X49076000Y-102091000D02*
X48290000Y-102091000D01*
X48855000Y-102291000D02*
X45645000Y-102291000D01*
X48569000Y-102491000D02*
X45931000Y-102491000D01*
X46210000Y-101851000D02*
X45215000Y-101851000D01*
X49345000Y-101771000D02*
X48290000Y-101771000D01*
X49718000Y-101011000D02*
X48290000Y-101011000D01*
X49819000Y-100490000D02*
X48290000Y-100490000D01*
X49518000Y-101491000D02*
X48290000Y-101491000D01*
X49497000Y-101531000D02*
X48290000Y-101531000D01*
X49540000Y-101451000D02*
X48290000Y-101451000D01*
X46210000Y-101091000D02*
X44808000Y-101091000D01*
X49598000Y-101331000D02*
X48290000Y-101331000D01*
X48348000Y-102611000D02*
X46152000Y-102611000D01*
X49692000Y-101091000D02*
X48290000Y-101091000D01*
X46210000Y-100730000D02*
X44714000Y-100730000D01*
X46210000Y-101771000D02*
X45155000Y-101771000D01*
X48750000Y-102371000D02*
X45750000Y-102371000D01*
X46210000Y-100450000D02*
X44677000Y-100450000D01*
X46210000Y-101971000D02*
X45313000Y-101971000D01*
X49425000Y-101651000D02*
X48290000Y-101651000D01*
X49786000Y-100730000D02*
X48290000Y-100730000D01*
X46210000Y-102131000D02*
X45465000Y-102131000D01*
X46210000Y-102211000D02*
X45551000Y-102211000D01*
X46210000Y-101571000D02*
X45026000Y-101571000D01*
X46210000Y-101811000D02*
X45185000Y-101811000D01*
X46210000Y-100890000D02*
X44749000Y-100890000D01*
X49770000Y-100810000D02*
X48290000Y-100810000D01*
X46210000Y-101131000D02*
X44822000Y-101131000D01*
X48949000Y-102211000D02*
X48290000Y-102211000D01*
X46210000Y-101731000D02*
X45128000Y-101731000D01*
X49815000Y-100530000D02*
X48290000Y-100530000D01*
X49829000Y-100330000D02*
X48290000Y-100330000D01*
X46210000Y-101331000D02*
X44902000Y-101331000D01*
X49806000Y-100610000D02*
X48290000Y-100610000D01*
X49615000Y-101291000D02*
X48290000Y-101291000D01*
X48975000Y-97695225D02*
X48475000Y-97695225D01*
X46210000Y-100770000D02*
X44722000Y-100770000D01*
X49828000Y-100370000D02*
X48290000Y-100370000D01*
X46210000Y-102011000D02*
X45349000Y-102011000D01*
X49870000Y-100250000D02*
G75*
G03*
X49870000Y-100250000I-2620000J0D01*
G01*
X45000000Y-81630000D02*
X45000000Y-82280000D01*
X46120000Y-86520000D02*
X46120000Y-82280000D01*
X46120000Y-82280000D02*
X43880000Y-82280000D01*
X43880000Y-86520000D02*
X46120000Y-86520000D01*
X43880000Y-85920000D02*
X46120000Y-85920000D01*
X45000000Y-87170000D02*
X45000000Y-86520000D01*
X43880000Y-85680000D02*
X46120000Y-85680000D01*
X43880000Y-82280000D02*
X43880000Y-86520000D01*
X43880000Y-85800000D02*
X46120000Y-85800000D01*
X55224000Y-101571000D02*
X54040000Y-101571000D01*
X55004000Y-101891000D02*
X54040000Y-101891000D01*
X54098000Y-102611000D02*
X51902000Y-102611000D01*
X51960000Y-101411000D02*
X50690000Y-101411000D01*
X51960000Y-101051000D02*
X50545000Y-101051000D01*
X51960000Y-100770000D02*
X50472000Y-100770000D01*
X51960000Y-101171000D02*
X50586000Y-101171000D01*
X51960000Y-100530000D02*
X50435000Y-100530000D01*
X55511000Y-100850000D02*
X54040000Y-100850000D01*
X54475000Y-97445225D02*
X54475000Y-97945225D01*
X55565000Y-100530000D02*
X54040000Y-100530000D01*
X55348000Y-101331000D02*
X54040000Y-101331000D01*
X55501000Y-100890000D02*
X54040000Y-100890000D01*
X51960000Y-100930000D02*
X50509000Y-100930000D01*
X55310000Y-101411000D02*
X54040000Y-101411000D01*
X51960000Y-101291000D02*
X50635000Y-101291000D01*
X55268000Y-101491000D02*
X54040000Y-101491000D01*
X51960000Y-101331000D02*
X50652000Y-101331000D01*
X54937000Y-101971000D02*
X54040000Y-101971000D01*
X53284000Y-102851000D02*
X52716000Y-102851000D01*
X51960000Y-100850000D02*
X50489000Y-100850000D01*
X55576000Y-100410000D02*
X54040000Y-100410000D01*
X55095000Y-101771000D02*
X54040000Y-101771000D01*
X51960000Y-101811000D02*
X50935000Y-101811000D01*
X51960000Y-101971000D02*
X51063000Y-101971000D01*
X55122000Y-101731000D02*
X54040000Y-101731000D01*
X55398000Y-101211000D02*
X54040000Y-101211000D01*
X55536000Y-100730000D02*
X54040000Y-100730000D01*
X51960000Y-100971000D02*
X50520000Y-100971000D01*
X55491000Y-100930000D02*
X54040000Y-100930000D01*
X55035000Y-101851000D02*
X54040000Y-101851000D01*
X54443000Y-102411000D02*
X51557000Y-102411000D01*
X55065000Y-101811000D02*
X54040000Y-101811000D01*
X51960000Y-100810000D02*
X50480000Y-100810000D01*
X51960000Y-102051000D02*
X51136000Y-102051000D01*
X55414000Y-101171000D02*
X54040000Y-101171000D01*
X54725000Y-97695225D02*
X54225000Y-97695225D01*
X51960000Y-101371000D02*
X50671000Y-101371000D01*
X51960000Y-100370000D02*
X50422000Y-100370000D01*
X51960000Y-101131000D02*
X50572000Y-101131000D01*
X55579000Y-100330000D02*
X54040000Y-100330000D01*
X55200000Y-101611000D02*
X54040000Y-101611000D01*
X54699000Y-102211000D02*
X54040000Y-102211000D01*
X55556000Y-100610000D02*
X54040000Y-100610000D01*
X55365000Y-101291000D02*
X54040000Y-101291000D01*
X55428000Y-101131000D02*
X54040000Y-101131000D01*
X51960000Y-102171000D02*
X51257000Y-102171000D01*
X51960000Y-102251000D02*
X51347000Y-102251000D01*
X55247000Y-101531000D02*
X54040000Y-101531000D01*
X51960000Y-100610000D02*
X50444000Y-100610000D01*
X55543000Y-100690000D02*
X54040000Y-100690000D01*
X54554000Y-102331000D02*
X51446000Y-102331000D01*
X54971000Y-101931000D02*
X54040000Y-101931000D01*
X55175000Y-101651000D02*
X54040000Y-101651000D01*
X51960000Y-101091000D02*
X50558000Y-101091000D01*
X51960000Y-100450000D02*
X50427000Y-100450000D01*
X51960000Y-101771000D02*
X50905000Y-101771000D01*
X55520000Y-100810000D02*
X54040000Y-100810000D01*
X55550000Y-100650000D02*
X54040000Y-100650000D01*
X51960000Y-101451000D02*
X50710000Y-101451000D01*
X55468000Y-101011000D02*
X54040000Y-101011000D01*
X55580000Y-100250000D02*
X54040000Y-100250000D01*
X51960000Y-100290000D02*
X50420000Y-100290000D01*
X51960000Y-101611000D02*
X50800000Y-101611000D01*
X51960000Y-101731000D02*
X50878000Y-101731000D01*
X51960000Y-102131000D02*
X51215000Y-102131000D01*
X53805000Y-102731000D02*
X52195000Y-102731000D01*
X54251000Y-102531000D02*
X51749000Y-102531000D01*
X51960000Y-101251000D02*
X50618000Y-101251000D01*
X51960000Y-101531000D02*
X50753000Y-101531000D01*
X51960000Y-101931000D02*
X51029000Y-101931000D01*
X54319000Y-102491000D02*
X51681000Y-102491000D01*
X55569000Y-100490000D02*
X54040000Y-100490000D01*
X51960000Y-101691000D02*
X50851000Y-101691000D01*
X51960000Y-102211000D02*
X51301000Y-102211000D01*
X53915000Y-102691000D02*
X52085000Y-102691000D01*
X54178000Y-102571000D02*
X51822000Y-102571000D01*
X55382000Y-101251000D02*
X54040000Y-101251000D01*
X55442000Y-101091000D02*
X54040000Y-101091000D01*
X55149000Y-101691000D02*
X54040000Y-101691000D01*
X51960000Y-101851000D02*
X50965000Y-101851000D01*
X54653000Y-102251000D02*
X54040000Y-102251000D01*
X54864000Y-102051000D02*
X54040000Y-102051000D01*
X55573000Y-100450000D02*
X54040000Y-100450000D01*
X55578000Y-100370000D02*
X54040000Y-100370000D01*
X51960000Y-100410000D02*
X50424000Y-100410000D01*
X51960000Y-102011000D02*
X51099000Y-102011000D01*
X55580000Y-100290000D02*
X54040000Y-100290000D01*
X54500000Y-102371000D02*
X51500000Y-102371000D01*
X51960000Y-101211000D02*
X50602000Y-101211000D01*
X51960000Y-100250000D02*
X50420000Y-100250000D01*
X54901000Y-102011000D02*
X54040000Y-102011000D01*
X51960000Y-101491000D02*
X50732000Y-101491000D01*
X51960000Y-102091000D02*
X51174000Y-102091000D01*
X54743000Y-102171000D02*
X54040000Y-102171000D01*
X51960000Y-101011000D02*
X50532000Y-101011000D01*
X51960000Y-101891000D02*
X50996000Y-101891000D01*
X55561000Y-100570000D02*
X54040000Y-100570000D01*
X51960000Y-100490000D02*
X50431000Y-100490000D01*
X51960000Y-101571000D02*
X50776000Y-101571000D01*
X54826000Y-102091000D02*
X54040000Y-102091000D01*
X54785000Y-102131000D02*
X54040000Y-102131000D01*
X51960000Y-100330000D02*
X50421000Y-100330000D01*
X55455000Y-101051000D02*
X54040000Y-101051000D01*
X53677000Y-102771000D02*
X52323000Y-102771000D01*
X55528000Y-100770000D02*
X54040000Y-100770000D01*
X51960000Y-100890000D02*
X50499000Y-100890000D01*
X55290000Y-101451000D02*
X54040000Y-101451000D01*
X55480000Y-100971000D02*
X54040000Y-100971000D01*
X51960000Y-100570000D02*
X50439000Y-100570000D01*
X53518000Y-102811000D02*
X52482000Y-102811000D01*
X51960000Y-100730000D02*
X50464000Y-100730000D01*
X54011000Y-102651000D02*
X51989000Y-102651000D01*
X51960000Y-100650000D02*
X50450000Y-100650000D01*
X55329000Y-101371000D02*
X54040000Y-101371000D01*
X51960000Y-101651000D02*
X50825000Y-101651000D01*
X54383000Y-102451000D02*
X51617000Y-102451000D01*
X51960000Y-100690000D02*
X50457000Y-100690000D01*
X54605000Y-102291000D02*
X51395000Y-102291000D01*
X55620000Y-100250000D02*
G75*
G03*
X55620000Y-100250000I-2620000J0D01*
G01*
X40610000Y-115870000D02*
X47150000Y-115870000D01*
X40610000Y-113130000D02*
X40610000Y-115870000D01*
X39840000Y-114500000D02*
X40610000Y-114500000D01*
X47150000Y-113130000D02*
X40610000Y-113130000D01*
X47150000Y-115870000D02*
X47150000Y-113130000D01*
X47920000Y-114500000D02*
X47150000Y-114500000D01*
X60460000Y-114500000D02*
X59690000Y-114500000D01*
X53150000Y-115870000D02*
X59690000Y-115870000D01*
X59690000Y-115870000D02*
X59690000Y-113130000D01*
X59690000Y-113130000D02*
X53150000Y-113130000D01*
X52380000Y-114500000D02*
X53150000Y-114500000D01*
X53150000Y-113130000D02*
X53150000Y-115870000D01*
X46115000Y-136170000D02*
X46115000Y-138830000D01*
X51255000Y-136170000D02*
X46115000Y-136170000D01*
X51255000Y-136170000D02*
X51255000Y-138830000D01*
X51255000Y-138830000D02*
X46115000Y-138830000D01*
X52525000Y-136170000D02*
X53855000Y-136170000D01*
X53855000Y-136170000D02*
X53855000Y-137500000D01*
%LPC*%
D12*
X60750000Y-75000000D03*
D13*
X60750000Y-73000000D03*
D12*
X66250000Y-61500000D03*
D13*
X66250000Y-59500000D03*
X55000000Y-92590000D03*
X60000000Y-92590000D03*
X55000000Y-95590000D03*
X60000000Y-95590000D03*
X54500000Y-111250000D03*
X59500000Y-111250000D03*
D12*
X39500000Y-61000000D03*
D13*
X39500000Y-59000000D03*
X45000000Y-92590000D03*
X40000000Y-92590000D03*
X45000000Y-95590000D03*
X40000000Y-95590000D03*
X39000000Y-111250000D03*
X44000000Y-111250000D03*
X44000000Y-108000000D03*
X39000000Y-108000000D03*
D12*
X58750000Y-70000000D03*
D14*
X58750000Y-62380000D03*
D12*
X61750000Y-62380000D03*
D14*
X61750000Y-70000000D03*
D12*
X55000000Y-88210000D03*
D14*
X55000000Y-80590000D03*
D12*
X32500000Y-69500000D03*
D14*
X32500000Y-61880000D03*
D12*
X35000000Y-61880000D03*
D14*
X35000000Y-69500000D03*
D15*
X39500000Y-119960000D03*
D16*
X39500000Y-132660000D03*
D15*
X60500000Y-119960000D03*
D16*
X60500000Y-132660000D03*
D17*
X68000000Y-98500000D03*
D18*
X68000000Y-101040000D03*
X68000000Y-103580000D03*
X68000000Y-106120000D03*
X68000000Y-108660000D03*
X68000000Y-111200000D03*
X68000000Y-113740000D03*
X68000000Y-116280000D03*
D17*
X32000000Y-98500000D03*
D18*
X32000000Y-101040000D03*
X32000000Y-103580000D03*
X32000000Y-106120000D03*
X32000000Y-108660000D03*
X32000000Y-111200000D03*
X32000000Y-113740000D03*
X32000000Y-116280000D03*
D19*
X64000000Y-83630000D03*
D20*
X64000000Y-82360000D03*
X64000000Y-81090000D03*
D19*
X59000000Y-83590000D03*
D20*
X59000000Y-82320000D03*
X59000000Y-81050000D03*
D19*
X59000000Y-89090000D03*
D20*
X59000000Y-87820000D03*
X59000000Y-86550000D03*
D19*
X36500000Y-83130000D03*
D20*
X36500000Y-81860000D03*
X36500000Y-80590000D03*
D19*
X41500000Y-83130000D03*
D20*
X41500000Y-81860000D03*
X41500000Y-80590000D03*
D19*
X41500000Y-88630000D03*
D20*
X41500000Y-87360000D03*
X41500000Y-86090000D03*
D13*
X65250000Y-75000000D03*
D14*
X65250000Y-64840000D03*
D13*
X64000000Y-86590000D03*
D14*
X64000000Y-96750000D03*
D13*
X52000000Y-80590000D03*
D14*
X52000000Y-90750000D03*
D13*
X64250000Y-117000000D03*
D14*
X64250000Y-106840000D03*
D13*
X34000000Y-120340000D03*
D14*
X34000000Y-130500000D03*
D13*
X61580000Y-108000000D03*
D14*
X51420000Y-108000000D03*
D13*
X38500000Y-74500000D03*
D14*
X38500000Y-64340000D03*
D13*
X36500000Y-86090000D03*
D14*
X36500000Y-96250000D03*
D13*
X48000000Y-80590000D03*
D14*
X48000000Y-90750000D03*
D13*
X35750000Y-117330000D03*
D14*
X35750000Y-107170000D03*
D13*
X35170000Y-104500000D03*
D14*
X45330000Y-104500000D03*
D12*
X34000000Y-74500000D03*
D13*
X34000000Y-72500000D03*
D12*
X47250000Y-99250000D03*
D13*
X47250000Y-101250000D03*
D12*
X45000000Y-88210000D03*
D14*
X45000000Y-80590000D03*
D12*
X53000000Y-99250000D03*
D13*
X53000000Y-101250000D03*
X38800000Y-114500000D03*
D14*
X48960000Y-114500000D03*
D13*
X61500000Y-114500000D03*
D14*
X51340000Y-114500000D03*
D17*
X52525000Y-137500000D03*
D18*
X49985000Y-137500000D03*
X47445000Y-137500000D03*
D21*
X34880000Y-137040000D03*
D22*
X34880000Y-134500000D03*
D17*
X44920000Y-129960000D03*
D18*
X44920000Y-132500000D03*
X47460000Y-129960000D03*
X47460000Y-132500000D03*
X50000000Y-129960000D03*
X50000000Y-132500000D03*
X52540000Y-129960000D03*
X52540000Y-132500000D03*
X55080000Y-129960000D03*
X55080000Y-132500000D03*
M02*
