M48
; DRILL file {KiCad (6.0.1)} date Mon Feb  7 17:43:14 2022
; FORMAT={-:-/ absolute / metric / decimal}
; #@! TF.CreationDate,2022-02-07T17:43:14+01:00
; #@! TF.GenerationSoftware,Kicad,Pcbnew,(6.0.1)
; #@! TF.FileFunction,Plated,1,2,PTH
FMAT,2
METRIC
; #@! TA.AperFunction,Plated,PTH,ComponentDrill
T1C0.750
; #@! TA.AperFunction,Plated,PTH,ComponentDrill
T2C0.800
; #@! TA.AperFunction,Plated,PTH,ComponentDrill
T3C0.900
; #@! TA.AperFunction,Plated,PTH,ComponentDrill
T4C1.000
; #@! TA.AperFunction,Plated,PTH,ViaDrill
T5C3.100
%
G90
G05
T1
X36.5Y-80.59
X36.5Y-81.86
X36.5Y-83.13
X41.5Y-80.59
X41.5Y-81.86
X41.5Y-83.13
X41.5Y-86.09
X41.5Y-87.36
X41.5Y-88.63
X59.0Y-81.05
X59.0Y-82.32
X59.0Y-83.59
X59.0Y-86.55
X59.0Y-87.82
X59.0Y-89.09
X64.0Y-81.09
X64.0Y-82.36
X64.0Y-83.63
T2
X32.5Y-61.88
X32.5Y-69.5
X34.0Y-72.5
X34.0Y-74.5
X34.0Y-120.34
X34.0Y-130.5
X35.0Y-61.88
X35.0Y-69.5
X35.17Y-104.5
X35.75Y-107.17
X35.75Y-117.33
X36.5Y-86.09
X36.5Y-96.25
X38.5Y-64.34
X38.5Y-74.5
X38.8Y-114.5
X39.0Y-108.0
X39.0Y-111.25
X39.5Y-59.0
X39.5Y-61.0
X40.0Y-92.59
X40.0Y-95.59
X44.0Y-108.0
X44.0Y-111.25
X45.0Y-80.59
X45.0Y-88.21
X45.0Y-92.59
X45.0Y-95.59
X45.33Y-104.5
X47.25Y-99.25
X47.25Y-101.25
X48.0Y-80.59
X48.0Y-90.75
X48.96Y-114.5
X51.34Y-114.5
X51.42Y-108.0
X52.0Y-80.59
X52.0Y-90.75
X53.0Y-99.25
X53.0Y-101.25
X54.5Y-111.25
X55.0Y-80.59
X55.0Y-88.21
X55.0Y-92.59
X55.0Y-95.59
X58.75Y-62.38
X58.75Y-70.0
X59.5Y-111.25
X60.0Y-92.59
X60.0Y-95.59
X60.75Y-73.0
X60.75Y-75.0
X61.5Y-114.5
X61.58Y-108.0
X61.75Y-62.38
X61.75Y-70.0
X64.0Y-86.59
X64.0Y-96.75
X64.25Y-106.84
X64.25Y-117.0
X65.25Y-64.84
X65.25Y-75.0
X66.25Y-59.5
X66.25Y-61.5
T3
X34.88Y-134.5
X34.88Y-137.04
T4
X32.0Y-98.5
X32.0Y-101.04
X32.0Y-103.58
X32.0Y-106.12
X32.0Y-108.66
X32.0Y-111.2
X32.0Y-113.74
X32.0Y-116.28
X39.5Y-119.96
X39.5Y-132.66
X44.92Y-129.96
X44.92Y-132.5
X47.445Y-137.5
X47.46Y-129.96
X47.46Y-132.5
X49.985Y-137.5
X50.0Y-129.96
X50.0Y-132.5
X52.525Y-137.5
X52.54Y-129.96
X52.54Y-132.5
X55.08Y-129.96
X55.08Y-132.5
X60.5Y-119.96
X60.5Y-132.66
X68.0Y-98.5
X68.0Y-101.04
X68.0Y-103.58
X68.0Y-106.12
X68.0Y-108.66
X68.0Y-111.2
X68.0Y-113.74
X68.0Y-116.28
T5
X50.0Y-49.0
T0
M30
