%FSLAX45Y45*%
G04 Gerber Fmt 4.5, Leading zero omitted, Abs format (unit mm)*
G04 Created by KiCad (PCBNEW (6.0.0)) date 2022-01-31 09:14:07*
%MOMM*%
%LPD*%
G01*
G04 APERTURE LIST*
%TA.AperFunction,Profile*%
%ADD10C,0.050000*%
%TD*%
%ADD11C,0.200000*%
%ADD12C,0.075000*%
%ADD13C,0.080000*%
%ADD14C,0.090000*%
%ADD15C,0.100000*%
%ADD16C,0.310000*%
G04 APERTURE END LIST*
D10*
X7000000Y-3100000D02*
X7000000Y-14100000D01*
X3000000Y-3100000D02*
X3000000Y-14100000D01*
X3000000Y-3100000D02*
X7000000Y-3100000D01*
X3000000Y-14100000D02*
X7000000Y-14100000D01*
D11*
D12*
X3612500Y-8021500D02*
X3687500Y-8096500D01*
X3687500Y-8021500D02*
X3612500Y-8096500D01*
X3612500Y-8148500D02*
X3687500Y-8223500D01*
X3687500Y-8148500D02*
X3612500Y-8223500D01*
X3612500Y-8275500D02*
X3687500Y-8350500D01*
X3687500Y-8275500D02*
X3612500Y-8350500D01*
X4112500Y-8021500D02*
X4187500Y-8096500D01*
X4187500Y-8021500D02*
X4112500Y-8096500D01*
X4112500Y-8148500D02*
X4187500Y-8223500D01*
X4187500Y-8148500D02*
X4112500Y-8223500D01*
X4112500Y-8275500D02*
X4187500Y-8350500D01*
X4187500Y-8275500D02*
X4112500Y-8350500D01*
X4112500Y-8571500D02*
X4187500Y-8646500D01*
X4187500Y-8571500D02*
X4112500Y-8646500D01*
X4112500Y-8698500D02*
X4187500Y-8773500D01*
X4187500Y-8698500D02*
X4112500Y-8773500D01*
X4112500Y-8825500D02*
X4187500Y-8900500D01*
X4187500Y-8825500D02*
X4112500Y-8900500D01*
X5862500Y-8067500D02*
X5937500Y-8142500D01*
X5937500Y-8067500D02*
X5862500Y-8142500D01*
X5862500Y-8194500D02*
X5937500Y-8269500D01*
X5937500Y-8194500D02*
X5862500Y-8269500D01*
X5862500Y-8321500D02*
X5937500Y-8396500D01*
X5937500Y-8321500D02*
X5862500Y-8396500D01*
X5862500Y-8617500D02*
X5937500Y-8692500D01*
X5937500Y-8617500D02*
X5862500Y-8692500D01*
X5862500Y-8744500D02*
X5937500Y-8819500D01*
X5937500Y-8744500D02*
X5862500Y-8819500D01*
X5862500Y-8871500D02*
X5937500Y-8946500D01*
X5937500Y-8871500D02*
X5862500Y-8946500D01*
X6362500Y-8071500D02*
X6437500Y-8146500D01*
X6437500Y-8071500D02*
X6362500Y-8146500D01*
X6362500Y-8198500D02*
X6437500Y-8273500D01*
X6437500Y-8198500D02*
X6362500Y-8273500D01*
X6362500Y-8325500D02*
X6437500Y-8400500D01*
X6437500Y-8325500D02*
X6362500Y-8400500D01*
D13*
X3290000Y-6188000D02*
G75*
G03*
X3290000Y-6188000I-40000J0D01*
G01*
X3290000Y-6950000D02*
G75*
G03*
X3290000Y-6950000I-40000J0D01*
G01*
X3440000Y-7250000D02*
G75*
G03*
X3440000Y-7250000I-40000J0D01*
G01*
X3440000Y-7450000D02*
G75*
G03*
X3440000Y-7450000I-40000J0D01*
G01*
X3440000Y-12034000D02*
G75*
G03*
X3440000Y-12034000I-40000J0D01*
G01*
X3440000Y-13050000D02*
G75*
G03*
X3440000Y-13050000I-40000J0D01*
G01*
X3540000Y-6188000D02*
G75*
G03*
X3540000Y-6188000I-40000J0D01*
G01*
X3540000Y-6950000D02*
G75*
G03*
X3540000Y-6950000I-40000J0D01*
G01*
X3557000Y-10450000D02*
G75*
G03*
X3557000Y-10450000I-40000J0D01*
G01*
X3615000Y-10717000D02*
G75*
G03*
X3615000Y-10717000I-40000J0D01*
G01*
X3615000Y-11733000D02*
G75*
G03*
X3615000Y-11733000I-40000J0D01*
G01*
X3690000Y-8609000D02*
G75*
G03*
X3690000Y-8609000I-40000J0D01*
G01*
X3690000Y-9625000D02*
G75*
G03*
X3690000Y-9625000I-40000J0D01*
G01*
X3890000Y-6434000D02*
G75*
G03*
X3890000Y-6434000I-40000J0D01*
G01*
X3890000Y-7450000D02*
G75*
G03*
X3890000Y-7450000I-40000J0D01*
G01*
X3920000Y-11450000D02*
G75*
G03*
X3920000Y-11450000I-40000J0D01*
G01*
X3940000Y-10800000D02*
G75*
G03*
X3940000Y-10800000I-40000J0D01*
G01*
X3940000Y-11125000D02*
G75*
G03*
X3940000Y-11125000I-40000J0D01*
G01*
X3990000Y-5900000D02*
G75*
G03*
X3990000Y-5900000I-40000J0D01*
G01*
X3990000Y-6100000D02*
G75*
G03*
X3990000Y-6100000I-40000J0D01*
G01*
X4040000Y-9259000D02*
G75*
G03*
X4040000Y-9259000I-40000J0D01*
G01*
X4040000Y-9559000D02*
G75*
G03*
X4040000Y-9559000I-40000J0D01*
G01*
X4440000Y-10800000D02*
G75*
G03*
X4440000Y-10800000I-40000J0D01*
G01*
X4440000Y-11125000D02*
G75*
G03*
X4440000Y-11125000I-40000J0D01*
G01*
X4540000Y-8059000D02*
G75*
G03*
X4540000Y-8059000I-40000J0D01*
G01*
X4540000Y-8821000D02*
G75*
G03*
X4540000Y-8821000I-40000J0D01*
G01*
X4540000Y-9259000D02*
G75*
G03*
X4540000Y-9259000I-40000J0D01*
G01*
X4540000Y-9559000D02*
G75*
G03*
X4540000Y-9559000I-40000J0D01*
G01*
X4573000Y-10450000D02*
G75*
G03*
X4573000Y-10450000I-40000J0D01*
G01*
X4765000Y-9925000D02*
G75*
G03*
X4765000Y-9925000I-40000J0D01*
G01*
X4765000Y-10125000D02*
G75*
G03*
X4765000Y-10125000I-40000J0D01*
G01*
X4840000Y-8059000D02*
G75*
G03*
X4840000Y-8059000I-40000J0D01*
G01*
X4840000Y-9075000D02*
G75*
G03*
X4840000Y-9075000I-40000J0D01*
G01*
X4936000Y-11450000D02*
G75*
G03*
X4936000Y-11450000I-40000J0D01*
G01*
X5174000Y-11450000D02*
G75*
G03*
X5174000Y-11450000I-40000J0D01*
G01*
X5182000Y-10800000D02*
G75*
G03*
X5182000Y-10800000I-40000J0D01*
G01*
X5240000Y-8059000D02*
G75*
G03*
X5240000Y-8059000I-40000J0D01*
G01*
X5240000Y-9075000D02*
G75*
G03*
X5240000Y-9075000I-40000J0D01*
G01*
X5340000Y-9925000D02*
G75*
G03*
X5340000Y-9925000I-40000J0D01*
G01*
X5340000Y-10125000D02*
G75*
G03*
X5340000Y-10125000I-40000J0D01*
G01*
X5490000Y-11125000D02*
G75*
G03*
X5490000Y-11125000I-40000J0D01*
G01*
X5540000Y-8059000D02*
G75*
G03*
X5540000Y-8059000I-40000J0D01*
G01*
X5540000Y-8821000D02*
G75*
G03*
X5540000Y-8821000I-40000J0D01*
G01*
X5540000Y-9259000D02*
G75*
G03*
X5540000Y-9259000I-40000J0D01*
G01*
X5540000Y-9559000D02*
G75*
G03*
X5540000Y-9559000I-40000J0D01*
G01*
X5915000Y-6238000D02*
G75*
G03*
X5915000Y-6238000I-40000J0D01*
G01*
X5915000Y-7000000D02*
G75*
G03*
X5915000Y-7000000I-40000J0D01*
G01*
X5990000Y-11125000D02*
G75*
G03*
X5990000Y-11125000I-40000J0D01*
G01*
X6040000Y-9259000D02*
G75*
G03*
X6040000Y-9259000I-40000J0D01*
G01*
X6040000Y-9559000D02*
G75*
G03*
X6040000Y-9559000I-40000J0D01*
G01*
X6115000Y-7300000D02*
G75*
G03*
X6115000Y-7300000I-40000J0D01*
G01*
X6115000Y-7500000D02*
G75*
G03*
X6115000Y-7500000I-40000J0D01*
G01*
X6190000Y-11450000D02*
G75*
G03*
X6190000Y-11450000I-40000J0D01*
G01*
X6198000Y-10800000D02*
G75*
G03*
X6198000Y-10800000I-40000J0D01*
G01*
X6215000Y-6238000D02*
G75*
G03*
X6215000Y-6238000I-40000J0D01*
G01*
X6215000Y-7000000D02*
G75*
G03*
X6215000Y-7000000I-40000J0D01*
G01*
X6440000Y-8659000D02*
G75*
G03*
X6440000Y-8659000I-40000J0D01*
G01*
X6440000Y-9675000D02*
G75*
G03*
X6440000Y-9675000I-40000J0D01*
G01*
X6465000Y-10684000D02*
G75*
G03*
X6465000Y-10684000I-40000J0D01*
G01*
X6465000Y-11700000D02*
G75*
G03*
X6465000Y-11700000I-40000J0D01*
G01*
X6565000Y-6484000D02*
G75*
G03*
X6565000Y-6484000I-40000J0D01*
G01*
X6565000Y-7500000D02*
G75*
G03*
X6565000Y-7500000I-40000J0D01*
G01*
X6665000Y-5950000D02*
G75*
G03*
X6665000Y-5950000I-40000J0D01*
G01*
X6665000Y-6150000D02*
G75*
G03*
X6665000Y-6150000I-40000J0D01*
G01*
D14*
X3488000Y-13405000D02*
X3488000Y-13495000D01*
X3443000Y-13450000D02*
X3533000Y-13450000D01*
X3488000Y-13659000D02*
X3488000Y-13749000D01*
X3443000Y-13704000D02*
X3533000Y-13704000D01*
D15*
X3235356Y-9885356D02*
X3235356Y-9814644D01*
X3164644Y-9814644D01*
X3164644Y-9885356D01*
X3235356Y-9885356D01*
X3235356Y-10139356D02*
X3235356Y-10068644D01*
X3164644Y-10068644D01*
X3164644Y-10139356D01*
X3235356Y-10139356D01*
X3235356Y-10393356D02*
X3235356Y-10322644D01*
X3164644Y-10322644D01*
X3164644Y-10393356D01*
X3235356Y-10393356D01*
X3235356Y-10647356D02*
X3235356Y-10576644D01*
X3164644Y-10576644D01*
X3164644Y-10647356D01*
X3235356Y-10647356D01*
X3235356Y-10901356D02*
X3235356Y-10830644D01*
X3164644Y-10830644D01*
X3164644Y-10901356D01*
X3235356Y-10901356D01*
X3235356Y-11155356D02*
X3235356Y-11084644D01*
X3164644Y-11084644D01*
X3164644Y-11155356D01*
X3235356Y-11155356D01*
X3235356Y-11409356D02*
X3235356Y-11338644D01*
X3164644Y-11338644D01*
X3164644Y-11409356D01*
X3235356Y-11409356D01*
X3235356Y-11663356D02*
X3235356Y-11592644D01*
X3164644Y-11592644D01*
X3164644Y-11663356D01*
X3235356Y-11663356D01*
X3985356Y-12031356D02*
X3985356Y-11960644D01*
X3914644Y-11960644D01*
X3914644Y-12031356D01*
X3985356Y-12031356D01*
X3985356Y-13301356D02*
X3985356Y-13230644D01*
X3914644Y-13230644D01*
X3914644Y-13301356D01*
X3985356Y-13301356D01*
X4527356Y-13031356D02*
X4527356Y-12960644D01*
X4456644Y-12960644D01*
X4456644Y-13031356D01*
X4527356Y-13031356D01*
X4527356Y-13285356D02*
X4527356Y-13214644D01*
X4456644Y-13214644D01*
X4456644Y-13285356D01*
X4527356Y-13285356D01*
X4779856Y-13785356D02*
X4779856Y-13714644D01*
X4709144Y-13714644D01*
X4709144Y-13785356D01*
X4779856Y-13785356D01*
X4781356Y-13031356D02*
X4781356Y-12960644D01*
X4710644Y-12960644D01*
X4710644Y-13031356D01*
X4781356Y-13031356D01*
X4781356Y-13285356D02*
X4781356Y-13214644D01*
X4710644Y-13214644D01*
X4710644Y-13285356D01*
X4781356Y-13285356D01*
X5033856Y-13785356D02*
X5033856Y-13714644D01*
X4963144Y-13714644D01*
X4963144Y-13785356D01*
X5033856Y-13785356D01*
X5035356Y-13031356D02*
X5035356Y-12960644D01*
X4964644Y-12960644D01*
X4964644Y-13031356D01*
X5035356Y-13031356D01*
X5035356Y-13285356D02*
X5035356Y-13214644D01*
X4964644Y-13214644D01*
X4964644Y-13285356D01*
X5035356Y-13285356D01*
X5287856Y-13785356D02*
X5287856Y-13714644D01*
X5217144Y-13714644D01*
X5217144Y-13785356D01*
X5287856Y-13785356D01*
X5289356Y-13031356D02*
X5289356Y-12960644D01*
X5218644Y-12960644D01*
X5218644Y-13031356D01*
X5289356Y-13031356D01*
X5289356Y-13285356D02*
X5289356Y-13214644D01*
X5218644Y-13214644D01*
X5218644Y-13285356D01*
X5289356Y-13285356D01*
X5543356Y-13031356D02*
X5543356Y-12960644D01*
X5472644Y-12960644D01*
X5472644Y-13031356D01*
X5543356Y-13031356D01*
X5543356Y-13285356D02*
X5543356Y-13214644D01*
X5472644Y-13214644D01*
X5472644Y-13285356D01*
X5543356Y-13285356D01*
X6085356Y-12031356D02*
X6085356Y-11960644D01*
X6014644Y-11960644D01*
X6014644Y-12031356D01*
X6085356Y-12031356D01*
X6085356Y-13301356D02*
X6085356Y-13230644D01*
X6014644Y-13230644D01*
X6014644Y-13301356D01*
X6085356Y-13301356D01*
X6835356Y-9885356D02*
X6835356Y-9814644D01*
X6764644Y-9814644D01*
X6764644Y-9885356D01*
X6835356Y-9885356D01*
X6835356Y-10139356D02*
X6835356Y-10068644D01*
X6764644Y-10068644D01*
X6764644Y-10139356D01*
X6835356Y-10139356D01*
X6835356Y-10393356D02*
X6835356Y-10322644D01*
X6764644Y-10322644D01*
X6764644Y-10393356D01*
X6835356Y-10393356D01*
X6835356Y-10647356D02*
X6835356Y-10576644D01*
X6764644Y-10576644D01*
X6764644Y-10647356D01*
X6835356Y-10647356D01*
X6835356Y-10901356D02*
X6835356Y-10830644D01*
X6764644Y-10830644D01*
X6764644Y-10901356D01*
X6835356Y-10901356D01*
X6835356Y-11155356D02*
X6835356Y-11084644D01*
X6764644Y-11084644D01*
X6764644Y-11155356D01*
X6835356Y-11155356D01*
X6835356Y-11409356D02*
X6835356Y-11338644D01*
X6764644Y-11338644D01*
X6764644Y-11409356D01*
X6835356Y-11409356D01*
X6835356Y-11663356D02*
X6835356Y-11592644D01*
X6764644Y-11592644D01*
X6764644Y-11663356D01*
X6835356Y-11663356D01*
D16*
X5000000Y-4855000D02*
X5155000Y-4700000D01*
X5000000Y-4545000D01*
X4845000Y-4700000D01*
X5000000Y-4855000D01*
D11*
X3255119Y-14412976D02*
X3255119Y-14212976D01*
X3302738Y-14212976D01*
X3331309Y-14222500D01*
X3350357Y-14241548D01*
X3359881Y-14260595D01*
X3369405Y-14298690D01*
X3369405Y-14327262D01*
X3359881Y-14365357D01*
X3350357Y-14384405D01*
X3331309Y-14403452D01*
X3302738Y-14412976D01*
X3255119Y-14412976D01*
X3455119Y-14412976D02*
X3455119Y-14279643D01*
X3455119Y-14317738D02*
X3464643Y-14298690D01*
X3474167Y-14289167D01*
X3493214Y-14279643D01*
X3512262Y-14279643D01*
X3578928Y-14412976D02*
X3578928Y-14279643D01*
X3578928Y-14212976D02*
X3569405Y-14222500D01*
X3578928Y-14232024D01*
X3588452Y-14222500D01*
X3578928Y-14212976D01*
X3578928Y-14232024D01*
X3702738Y-14412976D02*
X3683690Y-14403452D01*
X3674167Y-14384405D01*
X3674167Y-14212976D01*
X3807500Y-14412976D02*
X3788452Y-14403452D01*
X3778928Y-14384405D01*
X3778928Y-14212976D01*
X4036071Y-14412976D02*
X4036071Y-14212976D01*
X4102738Y-14355833D01*
X4169405Y-14212976D01*
X4169405Y-14412976D01*
X4350357Y-14412976D02*
X4350357Y-14308214D01*
X4340833Y-14289167D01*
X4321786Y-14279643D01*
X4283690Y-14279643D01*
X4264643Y-14289167D01*
X4350357Y-14403452D02*
X4331310Y-14412976D01*
X4283690Y-14412976D01*
X4264643Y-14403452D01*
X4255119Y-14384405D01*
X4255119Y-14365357D01*
X4264643Y-14346309D01*
X4283690Y-14336786D01*
X4331310Y-14336786D01*
X4350357Y-14327262D01*
X4445595Y-14279643D02*
X4445595Y-14479643D01*
X4445595Y-14289167D02*
X4464643Y-14279643D01*
X4502738Y-14279643D01*
X4521786Y-14289167D01*
X4531310Y-14298690D01*
X4540833Y-14317738D01*
X4540833Y-14374881D01*
X4531310Y-14393928D01*
X4521786Y-14403452D01*
X4502738Y-14412976D01*
X4464643Y-14412976D01*
X4445595Y-14403452D01*
X4626548Y-14393928D02*
X4636071Y-14403452D01*
X4626548Y-14412976D01*
X4617024Y-14403452D01*
X4626548Y-14393928D01*
X4626548Y-14412976D01*
X4626548Y-14289167D02*
X4636071Y-14298690D01*
X4626548Y-14308214D01*
X4617024Y-14298690D01*
X4626548Y-14289167D01*
X4626548Y-14308214D01*
D12*
X2922500Y-14705000D02*
X2997500Y-14780000D01*
X2997500Y-14705000D02*
X2922500Y-14780000D01*
D11*
X3293214Y-14632976D02*
X3312262Y-14632976D01*
X3331309Y-14642500D01*
X3340833Y-14652024D01*
X3350357Y-14671071D01*
X3359881Y-14709167D01*
X3359881Y-14756786D01*
X3350357Y-14794881D01*
X3340833Y-14813928D01*
X3331309Y-14823452D01*
X3312262Y-14832976D01*
X3293214Y-14832976D01*
X3274167Y-14823452D01*
X3264643Y-14813928D01*
X3255119Y-14794881D01*
X3245595Y-14756786D01*
X3245595Y-14709167D01*
X3255119Y-14671071D01*
X3264643Y-14652024D01*
X3274167Y-14642500D01*
X3293214Y-14632976D01*
X3445595Y-14813928D02*
X3455119Y-14823452D01*
X3445595Y-14832976D01*
X3436071Y-14823452D01*
X3445595Y-14813928D01*
X3445595Y-14832976D01*
X3521786Y-14632976D02*
X3655119Y-14632976D01*
X3569405Y-14832976D01*
X3826548Y-14632976D02*
X3731309Y-14632976D01*
X3721786Y-14728214D01*
X3731309Y-14718690D01*
X3750357Y-14709167D01*
X3797976Y-14709167D01*
X3817024Y-14718690D01*
X3826548Y-14728214D01*
X3836071Y-14747262D01*
X3836071Y-14794881D01*
X3826548Y-14813928D01*
X3817024Y-14823452D01*
X3797976Y-14832976D01*
X3750357Y-14832976D01*
X3731309Y-14823452D01*
X3721786Y-14813928D01*
X3959881Y-14632976D02*
X3978928Y-14632976D01*
X3997976Y-14642500D01*
X4007500Y-14652024D01*
X4017024Y-14671071D01*
X4026548Y-14709167D01*
X4026548Y-14756786D01*
X4017024Y-14794881D01*
X4007500Y-14813928D01*
X3997976Y-14823452D01*
X3978928Y-14832976D01*
X3959881Y-14832976D01*
X3940833Y-14823452D01*
X3931309Y-14813928D01*
X3921786Y-14794881D01*
X3912262Y-14756786D01*
X3912262Y-14709167D01*
X3921786Y-14671071D01*
X3931309Y-14652024D01*
X3940833Y-14642500D01*
X3959881Y-14632976D01*
X4112262Y-14832976D02*
X4112262Y-14699643D01*
X4112262Y-14718690D02*
X4121786Y-14709167D01*
X4140833Y-14699643D01*
X4169405Y-14699643D01*
X4188452Y-14709167D01*
X4197976Y-14728214D01*
X4197976Y-14832976D01*
X4197976Y-14728214D02*
X4207500Y-14709167D01*
X4226548Y-14699643D01*
X4255119Y-14699643D01*
X4274167Y-14709167D01*
X4283690Y-14728214D01*
X4283690Y-14832976D01*
X4378929Y-14832976D02*
X4378929Y-14699643D01*
X4378929Y-14718690D02*
X4388452Y-14709167D01*
X4407500Y-14699643D01*
X4436071Y-14699643D01*
X4455119Y-14709167D01*
X4464643Y-14728214D01*
X4464643Y-14832976D01*
X4464643Y-14728214D02*
X4474167Y-14709167D01*
X4493214Y-14699643D01*
X4521786Y-14699643D01*
X4540833Y-14709167D01*
X4550357Y-14728214D01*
X4550357Y-14832976D01*
X4940833Y-14623452D02*
X4769405Y-14880595D01*
X5197976Y-14632976D02*
X5217024Y-14632976D01*
X5236071Y-14642500D01*
X5245595Y-14652024D01*
X5255119Y-14671071D01*
X5264643Y-14709167D01*
X5264643Y-14756786D01*
X5255119Y-14794881D01*
X5245595Y-14813928D01*
X5236071Y-14823452D01*
X5217024Y-14832976D01*
X5197976Y-14832976D01*
X5178929Y-14823452D01*
X5169405Y-14813928D01*
X5159881Y-14794881D01*
X5150357Y-14756786D01*
X5150357Y-14709167D01*
X5159881Y-14671071D01*
X5169405Y-14652024D01*
X5178929Y-14642500D01*
X5197976Y-14632976D01*
X5350357Y-14813928D02*
X5359881Y-14823452D01*
X5350357Y-14832976D01*
X5340833Y-14823452D01*
X5350357Y-14813928D01*
X5350357Y-14832976D01*
X5483690Y-14632976D02*
X5502738Y-14632976D01*
X5521786Y-14642500D01*
X5531310Y-14652024D01*
X5540833Y-14671071D01*
X5550357Y-14709167D01*
X5550357Y-14756786D01*
X5540833Y-14794881D01*
X5531310Y-14813928D01*
X5521786Y-14823452D01*
X5502738Y-14832976D01*
X5483690Y-14832976D01*
X5464643Y-14823452D01*
X5455119Y-14813928D01*
X5445595Y-14794881D01*
X5436071Y-14756786D01*
X5436071Y-14709167D01*
X5445595Y-14671071D01*
X5455119Y-14652024D01*
X5464643Y-14642500D01*
X5483690Y-14632976D01*
X5626548Y-14652024D02*
X5636071Y-14642500D01*
X5655119Y-14632976D01*
X5702738Y-14632976D01*
X5721786Y-14642500D01*
X5731309Y-14652024D01*
X5740833Y-14671071D01*
X5740833Y-14690119D01*
X5731309Y-14718690D01*
X5617024Y-14832976D01*
X5740833Y-14832976D01*
X5836071Y-14832976D02*
X5874167Y-14832976D01*
X5893214Y-14823452D01*
X5902738Y-14813928D01*
X5921786Y-14785357D01*
X5931309Y-14747262D01*
X5931309Y-14671071D01*
X5921786Y-14652024D01*
X5912262Y-14642500D01*
X5893214Y-14632976D01*
X5855119Y-14632976D01*
X5836071Y-14642500D01*
X5826548Y-14652024D01*
X5817024Y-14671071D01*
X5817024Y-14718690D01*
X5826548Y-14737738D01*
X5836071Y-14747262D01*
X5855119Y-14756786D01*
X5893214Y-14756786D01*
X5912262Y-14747262D01*
X5921786Y-14737738D01*
X5931309Y-14718690D01*
X6112262Y-14632976D02*
X6017024Y-14632976D01*
X6007500Y-14728214D01*
X6017024Y-14718690D01*
X6036071Y-14709167D01*
X6083690Y-14709167D01*
X6102738Y-14718690D01*
X6112262Y-14728214D01*
X6121786Y-14747262D01*
X6121786Y-14794881D01*
X6112262Y-14813928D01*
X6102738Y-14823452D01*
X6083690Y-14832976D01*
X6036071Y-14832976D01*
X6017024Y-14823452D01*
X6007500Y-14813928D01*
X6197976Y-14632976D02*
X6197976Y-14671071D01*
X6274167Y-14632976D02*
X6274167Y-14671071D01*
X6569405Y-14909167D02*
X6559881Y-14899643D01*
X6540833Y-14871071D01*
X6531309Y-14852024D01*
X6521786Y-14823452D01*
X6512262Y-14775833D01*
X6512262Y-14737738D01*
X6521786Y-14690119D01*
X6531309Y-14661548D01*
X6540833Y-14642500D01*
X6559881Y-14613928D01*
X6569405Y-14604405D01*
X6750357Y-14832976D02*
X6636071Y-14832976D01*
X6693214Y-14832976D02*
X6693214Y-14632976D01*
X6674167Y-14661548D01*
X6655119Y-14680595D01*
X6636071Y-14690119D01*
X6864643Y-14718690D02*
X6845595Y-14709167D01*
X6836071Y-14699643D01*
X6826548Y-14680595D01*
X6826548Y-14671071D01*
X6836071Y-14652024D01*
X6845595Y-14642500D01*
X6864643Y-14632976D01*
X6902738Y-14632976D01*
X6921786Y-14642500D01*
X6931309Y-14652024D01*
X6940833Y-14671071D01*
X6940833Y-14680595D01*
X6931309Y-14699643D01*
X6921786Y-14709167D01*
X6902738Y-14718690D01*
X6864643Y-14718690D01*
X6845595Y-14728214D01*
X6836071Y-14737738D01*
X6826548Y-14756786D01*
X6826548Y-14794881D01*
X6836071Y-14813928D01*
X6845595Y-14823452D01*
X6864643Y-14832976D01*
X6902738Y-14832976D01*
X6921786Y-14823452D01*
X6931309Y-14813928D01*
X6940833Y-14794881D01*
X6940833Y-14756786D01*
X6931309Y-14737738D01*
X6921786Y-14728214D01*
X6902738Y-14718690D01*
X7178928Y-14832976D02*
X7178928Y-14632976D01*
X7264643Y-14832976D02*
X7264643Y-14728214D01*
X7255119Y-14709167D01*
X7236071Y-14699643D01*
X7207500Y-14699643D01*
X7188452Y-14709167D01*
X7178928Y-14718690D01*
X7388452Y-14832976D02*
X7369405Y-14823452D01*
X7359881Y-14813928D01*
X7350357Y-14794881D01*
X7350357Y-14737738D01*
X7359881Y-14718690D01*
X7369405Y-14709167D01*
X7388452Y-14699643D01*
X7417024Y-14699643D01*
X7436071Y-14709167D01*
X7445595Y-14718690D01*
X7455119Y-14737738D01*
X7455119Y-14794881D01*
X7445595Y-14813928D01*
X7436071Y-14823452D01*
X7417024Y-14832976D01*
X7388452Y-14832976D01*
X7569405Y-14832976D02*
X7550357Y-14823452D01*
X7540833Y-14804405D01*
X7540833Y-14632976D01*
X7721786Y-14823452D02*
X7702738Y-14832976D01*
X7664643Y-14832976D01*
X7645595Y-14823452D01*
X7636071Y-14804405D01*
X7636071Y-14728214D01*
X7645595Y-14709167D01*
X7664643Y-14699643D01*
X7702738Y-14699643D01*
X7721786Y-14709167D01*
X7731309Y-14728214D01*
X7731309Y-14747262D01*
X7636071Y-14766309D01*
X7807500Y-14823452D02*
X7826548Y-14832976D01*
X7864643Y-14832976D01*
X7883690Y-14823452D01*
X7893214Y-14804405D01*
X7893214Y-14794881D01*
X7883690Y-14775833D01*
X7864643Y-14766309D01*
X7836071Y-14766309D01*
X7817024Y-14756786D01*
X7807500Y-14737738D01*
X7807500Y-14728214D01*
X7817024Y-14709167D01*
X7836071Y-14699643D01*
X7864643Y-14699643D01*
X7883690Y-14709167D01*
X7959881Y-14909167D02*
X7969405Y-14899643D01*
X7988452Y-14871071D01*
X7997976Y-14852024D01*
X8007500Y-14823452D01*
X8017024Y-14775833D01*
X8017024Y-14737738D01*
X8007500Y-14690119D01*
X7997976Y-14661548D01*
X7988452Y-14642500D01*
X7969405Y-14613928D01*
X7959881Y-14604405D01*
D13*
X2997500Y-15006500D02*
G75*
G03*
X2997500Y-15006500I-40000J0D01*
G01*
D11*
X3293214Y-14896976D02*
X3312262Y-14896976D01*
X3331309Y-14906500D01*
X3340833Y-14916024D01*
X3350357Y-14935071D01*
X3359881Y-14973167D01*
X3359881Y-15020786D01*
X3350357Y-15058881D01*
X3340833Y-15077928D01*
X3331309Y-15087452D01*
X3312262Y-15096976D01*
X3293214Y-15096976D01*
X3274167Y-15087452D01*
X3264643Y-15077928D01*
X3255119Y-15058881D01*
X3245595Y-15020786D01*
X3245595Y-14973167D01*
X3255119Y-14935071D01*
X3264643Y-14916024D01*
X3274167Y-14906500D01*
X3293214Y-14896976D01*
X3445595Y-15077928D02*
X3455119Y-15087452D01*
X3445595Y-15096976D01*
X3436071Y-15087452D01*
X3445595Y-15077928D01*
X3445595Y-15096976D01*
X3569405Y-14982690D02*
X3550357Y-14973167D01*
X3540833Y-14963643D01*
X3531309Y-14944595D01*
X3531309Y-14935071D01*
X3540833Y-14916024D01*
X3550357Y-14906500D01*
X3569405Y-14896976D01*
X3607500Y-14896976D01*
X3626548Y-14906500D01*
X3636071Y-14916024D01*
X3645595Y-14935071D01*
X3645595Y-14944595D01*
X3636071Y-14963643D01*
X3626548Y-14973167D01*
X3607500Y-14982690D01*
X3569405Y-14982690D01*
X3550357Y-14992214D01*
X3540833Y-15001738D01*
X3531309Y-15020786D01*
X3531309Y-15058881D01*
X3540833Y-15077928D01*
X3550357Y-15087452D01*
X3569405Y-15096976D01*
X3607500Y-15096976D01*
X3626548Y-15087452D01*
X3636071Y-15077928D01*
X3645595Y-15058881D01*
X3645595Y-15020786D01*
X3636071Y-15001738D01*
X3626548Y-14992214D01*
X3607500Y-14982690D01*
X3769405Y-14896976D02*
X3788452Y-14896976D01*
X3807500Y-14906500D01*
X3817024Y-14916024D01*
X3826548Y-14935071D01*
X3836071Y-14973167D01*
X3836071Y-15020786D01*
X3826548Y-15058881D01*
X3817024Y-15077928D01*
X3807500Y-15087452D01*
X3788452Y-15096976D01*
X3769405Y-15096976D01*
X3750357Y-15087452D01*
X3740833Y-15077928D01*
X3731309Y-15058881D01*
X3721786Y-15020786D01*
X3721786Y-14973167D01*
X3731309Y-14935071D01*
X3740833Y-14916024D01*
X3750357Y-14906500D01*
X3769405Y-14896976D01*
X3959881Y-14896976D02*
X3978928Y-14896976D01*
X3997976Y-14906500D01*
X4007500Y-14916024D01*
X4017024Y-14935071D01*
X4026548Y-14973167D01*
X4026548Y-15020786D01*
X4017024Y-15058881D01*
X4007500Y-15077928D01*
X3997976Y-15087452D01*
X3978928Y-15096976D01*
X3959881Y-15096976D01*
X3940833Y-15087452D01*
X3931309Y-15077928D01*
X3921786Y-15058881D01*
X3912262Y-15020786D01*
X3912262Y-14973167D01*
X3921786Y-14935071D01*
X3931309Y-14916024D01*
X3940833Y-14906500D01*
X3959881Y-14896976D01*
X4112262Y-15096976D02*
X4112262Y-14963643D01*
X4112262Y-14982690D02*
X4121786Y-14973167D01*
X4140833Y-14963643D01*
X4169405Y-14963643D01*
X4188452Y-14973167D01*
X4197976Y-14992214D01*
X4197976Y-15096976D01*
X4197976Y-14992214D02*
X4207500Y-14973167D01*
X4226548Y-14963643D01*
X4255119Y-14963643D01*
X4274167Y-14973167D01*
X4283690Y-14992214D01*
X4283690Y-15096976D01*
X4378929Y-15096976D02*
X4378929Y-14963643D01*
X4378929Y-14982690D02*
X4388452Y-14973167D01*
X4407500Y-14963643D01*
X4436071Y-14963643D01*
X4455119Y-14973167D01*
X4464643Y-14992214D01*
X4464643Y-15096976D01*
X4464643Y-14992214D02*
X4474167Y-14973167D01*
X4493214Y-14963643D01*
X4521786Y-14963643D01*
X4540833Y-14973167D01*
X4550357Y-14992214D01*
X4550357Y-15096976D01*
X4940833Y-14887452D02*
X4769405Y-15144595D01*
X5197976Y-14896976D02*
X5217024Y-14896976D01*
X5236071Y-14906500D01*
X5245595Y-14916024D01*
X5255119Y-14935071D01*
X5264643Y-14973167D01*
X5264643Y-15020786D01*
X5255119Y-15058881D01*
X5245595Y-15077928D01*
X5236071Y-15087452D01*
X5217024Y-15096976D01*
X5197976Y-15096976D01*
X5178929Y-15087452D01*
X5169405Y-15077928D01*
X5159881Y-15058881D01*
X5150357Y-15020786D01*
X5150357Y-14973167D01*
X5159881Y-14935071D01*
X5169405Y-14916024D01*
X5178929Y-14906500D01*
X5197976Y-14896976D01*
X5350357Y-15077928D02*
X5359881Y-15087452D01*
X5350357Y-15096976D01*
X5340833Y-15087452D01*
X5350357Y-15077928D01*
X5350357Y-15096976D01*
X5483690Y-14896976D02*
X5502738Y-14896976D01*
X5521786Y-14906500D01*
X5531310Y-14916024D01*
X5540833Y-14935071D01*
X5550357Y-14973167D01*
X5550357Y-15020786D01*
X5540833Y-15058881D01*
X5531310Y-15077928D01*
X5521786Y-15087452D01*
X5502738Y-15096976D01*
X5483690Y-15096976D01*
X5464643Y-15087452D01*
X5455119Y-15077928D01*
X5445595Y-15058881D01*
X5436071Y-15020786D01*
X5436071Y-14973167D01*
X5445595Y-14935071D01*
X5455119Y-14916024D01*
X5464643Y-14906500D01*
X5483690Y-14896976D01*
X5617024Y-14896976D02*
X5740833Y-14896976D01*
X5674167Y-14973167D01*
X5702738Y-14973167D01*
X5721786Y-14982690D01*
X5731309Y-14992214D01*
X5740833Y-15011262D01*
X5740833Y-15058881D01*
X5731309Y-15077928D01*
X5721786Y-15087452D01*
X5702738Y-15096976D01*
X5645595Y-15096976D01*
X5626548Y-15087452D01*
X5617024Y-15077928D01*
X5931309Y-15096976D02*
X5817024Y-15096976D01*
X5874167Y-15096976D02*
X5874167Y-14896976D01*
X5855119Y-14925548D01*
X5836071Y-14944595D01*
X5817024Y-14954119D01*
X6112262Y-14896976D02*
X6017024Y-14896976D01*
X6007500Y-14992214D01*
X6017024Y-14982690D01*
X6036071Y-14973167D01*
X6083690Y-14973167D01*
X6102738Y-14982690D01*
X6112262Y-14992214D01*
X6121786Y-15011262D01*
X6121786Y-15058881D01*
X6112262Y-15077928D01*
X6102738Y-15087452D01*
X6083690Y-15096976D01*
X6036071Y-15096976D01*
X6017024Y-15087452D01*
X6007500Y-15077928D01*
X6197976Y-14896976D02*
X6197976Y-14935071D01*
X6274167Y-14896976D02*
X6274167Y-14935071D01*
X6569405Y-15173167D02*
X6559881Y-15163643D01*
X6540833Y-15135071D01*
X6531309Y-15116024D01*
X6521786Y-15087452D01*
X6512262Y-15039833D01*
X6512262Y-15001738D01*
X6521786Y-14954119D01*
X6531309Y-14925548D01*
X6540833Y-14906500D01*
X6559881Y-14877928D01*
X6569405Y-14868405D01*
X6731309Y-14896976D02*
X6693214Y-14896976D01*
X6674167Y-14906500D01*
X6664643Y-14916024D01*
X6645595Y-14944595D01*
X6636071Y-14982690D01*
X6636071Y-15058881D01*
X6645595Y-15077928D01*
X6655119Y-15087452D01*
X6674167Y-15096976D01*
X6712262Y-15096976D01*
X6731309Y-15087452D01*
X6740833Y-15077928D01*
X6750357Y-15058881D01*
X6750357Y-15011262D01*
X6740833Y-14992214D01*
X6731309Y-14982690D01*
X6712262Y-14973167D01*
X6674167Y-14973167D01*
X6655119Y-14982690D01*
X6645595Y-14992214D01*
X6636071Y-15011262D01*
X6921786Y-14963643D02*
X6921786Y-15096976D01*
X6874167Y-14887452D02*
X6826548Y-15030309D01*
X6950357Y-15030309D01*
X7178928Y-15096976D02*
X7178928Y-14896976D01*
X7264643Y-15096976D02*
X7264643Y-14992214D01*
X7255119Y-14973167D01*
X7236071Y-14963643D01*
X7207500Y-14963643D01*
X7188452Y-14973167D01*
X7178928Y-14982690D01*
X7388452Y-15096976D02*
X7369405Y-15087452D01*
X7359881Y-15077928D01*
X7350357Y-15058881D01*
X7350357Y-15001738D01*
X7359881Y-14982690D01*
X7369405Y-14973167D01*
X7388452Y-14963643D01*
X7417024Y-14963643D01*
X7436071Y-14973167D01*
X7445595Y-14982690D01*
X7455119Y-15001738D01*
X7455119Y-15058881D01*
X7445595Y-15077928D01*
X7436071Y-15087452D01*
X7417024Y-15096976D01*
X7388452Y-15096976D01*
X7569405Y-15096976D02*
X7550357Y-15087452D01*
X7540833Y-15068405D01*
X7540833Y-14896976D01*
X7721786Y-15087452D02*
X7702738Y-15096976D01*
X7664643Y-15096976D01*
X7645595Y-15087452D01*
X7636071Y-15068405D01*
X7636071Y-14992214D01*
X7645595Y-14973167D01*
X7664643Y-14963643D01*
X7702738Y-14963643D01*
X7721786Y-14973167D01*
X7731309Y-14992214D01*
X7731309Y-15011262D01*
X7636071Y-15030309D01*
X7807500Y-15087452D02*
X7826548Y-15096976D01*
X7864643Y-15096976D01*
X7883690Y-15087452D01*
X7893214Y-15068405D01*
X7893214Y-15058881D01*
X7883690Y-15039833D01*
X7864643Y-15030309D01*
X7836071Y-15030309D01*
X7817024Y-15020786D01*
X7807500Y-15001738D01*
X7807500Y-14992214D01*
X7817024Y-14973167D01*
X7836071Y-14963643D01*
X7864643Y-14963643D01*
X7883690Y-14973167D01*
X7959881Y-15173167D02*
X7969405Y-15163643D01*
X7988452Y-15135071D01*
X7997976Y-15116024D01*
X8007500Y-15087452D01*
X8017024Y-15039833D01*
X8017024Y-15001738D01*
X8007500Y-14954119D01*
X7997976Y-14925548D01*
X7988452Y-14906500D01*
X7969405Y-14877928D01*
X7959881Y-14868405D01*
D14*
X2952500Y-15225500D02*
X2952500Y-15315500D01*
X2907500Y-15270500D02*
X2997500Y-15270500D01*
D11*
X3293214Y-15160976D02*
X3312262Y-15160976D01*
X3331309Y-15170500D01*
X3340833Y-15180024D01*
X3350357Y-15199071D01*
X3359881Y-15237167D01*
X3359881Y-15284786D01*
X3350357Y-15322881D01*
X3340833Y-15341928D01*
X3331309Y-15351452D01*
X3312262Y-15360976D01*
X3293214Y-15360976D01*
X3274167Y-15351452D01*
X3264643Y-15341928D01*
X3255119Y-15322881D01*
X3245595Y-15284786D01*
X3245595Y-15237167D01*
X3255119Y-15199071D01*
X3264643Y-15180024D01*
X3274167Y-15170500D01*
X3293214Y-15160976D01*
X3445595Y-15341928D02*
X3455119Y-15351452D01*
X3445595Y-15360976D01*
X3436071Y-15351452D01*
X3445595Y-15341928D01*
X3445595Y-15360976D01*
X3550357Y-15360976D02*
X3588452Y-15360976D01*
X3607500Y-15351452D01*
X3617024Y-15341928D01*
X3636071Y-15313357D01*
X3645595Y-15275262D01*
X3645595Y-15199071D01*
X3636071Y-15180024D01*
X3626548Y-15170500D01*
X3607500Y-15160976D01*
X3569405Y-15160976D01*
X3550357Y-15170500D01*
X3540833Y-15180024D01*
X3531309Y-15199071D01*
X3531309Y-15246690D01*
X3540833Y-15265738D01*
X3550357Y-15275262D01*
X3569405Y-15284786D01*
X3607500Y-15284786D01*
X3626548Y-15275262D01*
X3636071Y-15265738D01*
X3645595Y-15246690D01*
X3769405Y-15160976D02*
X3788452Y-15160976D01*
X3807500Y-15170500D01*
X3817024Y-15180024D01*
X3826548Y-15199071D01*
X3836071Y-15237167D01*
X3836071Y-15284786D01*
X3826548Y-15322881D01*
X3817024Y-15341928D01*
X3807500Y-15351452D01*
X3788452Y-15360976D01*
X3769405Y-15360976D01*
X3750357Y-15351452D01*
X3740833Y-15341928D01*
X3731309Y-15322881D01*
X3721786Y-15284786D01*
X3721786Y-15237167D01*
X3731309Y-15199071D01*
X3740833Y-15180024D01*
X3750357Y-15170500D01*
X3769405Y-15160976D01*
X3959881Y-15160976D02*
X3978928Y-15160976D01*
X3997976Y-15170500D01*
X4007500Y-15180024D01*
X4017024Y-15199071D01*
X4026548Y-15237167D01*
X4026548Y-15284786D01*
X4017024Y-15322881D01*
X4007500Y-15341928D01*
X3997976Y-15351452D01*
X3978928Y-15360976D01*
X3959881Y-15360976D01*
X3940833Y-15351452D01*
X3931309Y-15341928D01*
X3921786Y-15322881D01*
X3912262Y-15284786D01*
X3912262Y-15237167D01*
X3921786Y-15199071D01*
X3931309Y-15180024D01*
X3940833Y-15170500D01*
X3959881Y-15160976D01*
X4112262Y-15360976D02*
X4112262Y-15227643D01*
X4112262Y-15246690D02*
X4121786Y-15237167D01*
X4140833Y-15227643D01*
X4169405Y-15227643D01*
X4188452Y-15237167D01*
X4197976Y-15256214D01*
X4197976Y-15360976D01*
X4197976Y-15256214D02*
X4207500Y-15237167D01*
X4226548Y-15227643D01*
X4255119Y-15227643D01*
X4274167Y-15237167D01*
X4283690Y-15256214D01*
X4283690Y-15360976D01*
X4378929Y-15360976D02*
X4378929Y-15227643D01*
X4378929Y-15246690D02*
X4388452Y-15237167D01*
X4407500Y-15227643D01*
X4436071Y-15227643D01*
X4455119Y-15237167D01*
X4464643Y-15256214D01*
X4464643Y-15360976D01*
X4464643Y-15256214D02*
X4474167Y-15237167D01*
X4493214Y-15227643D01*
X4521786Y-15227643D01*
X4540833Y-15237167D01*
X4550357Y-15256214D01*
X4550357Y-15360976D01*
X4940833Y-15151452D02*
X4769405Y-15408595D01*
X5197976Y-15160976D02*
X5217024Y-15160976D01*
X5236071Y-15170500D01*
X5245595Y-15180024D01*
X5255119Y-15199071D01*
X5264643Y-15237167D01*
X5264643Y-15284786D01*
X5255119Y-15322881D01*
X5245595Y-15341928D01*
X5236071Y-15351452D01*
X5217024Y-15360976D01*
X5197976Y-15360976D01*
X5178929Y-15351452D01*
X5169405Y-15341928D01*
X5159881Y-15322881D01*
X5150357Y-15284786D01*
X5150357Y-15237167D01*
X5159881Y-15199071D01*
X5169405Y-15180024D01*
X5178929Y-15170500D01*
X5197976Y-15160976D01*
X5350357Y-15341928D02*
X5359881Y-15351452D01*
X5350357Y-15360976D01*
X5340833Y-15351452D01*
X5350357Y-15341928D01*
X5350357Y-15360976D01*
X5483690Y-15160976D02*
X5502738Y-15160976D01*
X5521786Y-15170500D01*
X5531310Y-15180024D01*
X5540833Y-15199071D01*
X5550357Y-15237167D01*
X5550357Y-15284786D01*
X5540833Y-15322881D01*
X5531310Y-15341928D01*
X5521786Y-15351452D01*
X5502738Y-15360976D01*
X5483690Y-15360976D01*
X5464643Y-15351452D01*
X5455119Y-15341928D01*
X5445595Y-15322881D01*
X5436071Y-15284786D01*
X5436071Y-15237167D01*
X5445595Y-15199071D01*
X5455119Y-15180024D01*
X5464643Y-15170500D01*
X5483690Y-15160976D01*
X5617024Y-15160976D02*
X5740833Y-15160976D01*
X5674167Y-15237167D01*
X5702738Y-15237167D01*
X5721786Y-15246690D01*
X5731309Y-15256214D01*
X5740833Y-15275262D01*
X5740833Y-15322881D01*
X5731309Y-15341928D01*
X5721786Y-15351452D01*
X5702738Y-15360976D01*
X5645595Y-15360976D01*
X5626548Y-15351452D01*
X5617024Y-15341928D01*
X5921786Y-15160976D02*
X5826548Y-15160976D01*
X5817024Y-15256214D01*
X5826548Y-15246690D01*
X5845595Y-15237167D01*
X5893214Y-15237167D01*
X5912262Y-15246690D01*
X5921786Y-15256214D01*
X5931309Y-15275262D01*
X5931309Y-15322881D01*
X5921786Y-15341928D01*
X5912262Y-15351452D01*
X5893214Y-15360976D01*
X5845595Y-15360976D01*
X5826548Y-15351452D01*
X5817024Y-15341928D01*
X6102738Y-15227643D02*
X6102738Y-15360976D01*
X6055119Y-15151452D02*
X6007500Y-15294309D01*
X6131309Y-15294309D01*
X6197976Y-15160976D02*
X6197976Y-15199071D01*
X6274167Y-15160976D02*
X6274167Y-15199071D01*
X6569405Y-15437167D02*
X6559881Y-15427643D01*
X6540833Y-15399071D01*
X6531309Y-15380024D01*
X6521786Y-15351452D01*
X6512262Y-15303833D01*
X6512262Y-15265738D01*
X6521786Y-15218119D01*
X6531309Y-15189548D01*
X6540833Y-15170500D01*
X6559881Y-15141928D01*
X6569405Y-15132405D01*
X6636071Y-15180024D02*
X6645595Y-15170500D01*
X6664643Y-15160976D01*
X6712262Y-15160976D01*
X6731309Y-15170500D01*
X6740833Y-15180024D01*
X6750357Y-15199071D01*
X6750357Y-15218119D01*
X6740833Y-15246690D01*
X6626548Y-15360976D01*
X6750357Y-15360976D01*
X6988452Y-15360976D02*
X6988452Y-15160976D01*
X7074167Y-15360976D02*
X7074167Y-15256214D01*
X7064643Y-15237167D01*
X7045595Y-15227643D01*
X7017024Y-15227643D01*
X6997976Y-15237167D01*
X6988452Y-15246690D01*
X7197976Y-15360976D02*
X7178928Y-15351452D01*
X7169405Y-15341928D01*
X7159881Y-15322881D01*
X7159881Y-15265738D01*
X7169405Y-15246690D01*
X7178928Y-15237167D01*
X7197976Y-15227643D01*
X7226548Y-15227643D01*
X7245595Y-15237167D01*
X7255119Y-15246690D01*
X7264643Y-15265738D01*
X7264643Y-15322881D01*
X7255119Y-15341928D01*
X7245595Y-15351452D01*
X7226548Y-15360976D01*
X7197976Y-15360976D01*
X7378928Y-15360976D02*
X7359881Y-15351452D01*
X7350357Y-15332405D01*
X7350357Y-15160976D01*
X7531309Y-15351452D02*
X7512262Y-15360976D01*
X7474167Y-15360976D01*
X7455119Y-15351452D01*
X7445595Y-15332405D01*
X7445595Y-15256214D01*
X7455119Y-15237167D01*
X7474167Y-15227643D01*
X7512262Y-15227643D01*
X7531309Y-15237167D01*
X7540833Y-15256214D01*
X7540833Y-15275262D01*
X7445595Y-15294309D01*
X7617024Y-15351452D02*
X7636071Y-15360976D01*
X7674167Y-15360976D01*
X7693214Y-15351452D01*
X7702738Y-15332405D01*
X7702738Y-15322881D01*
X7693214Y-15303833D01*
X7674167Y-15294309D01*
X7645595Y-15294309D01*
X7626548Y-15284786D01*
X7617024Y-15265738D01*
X7617024Y-15256214D01*
X7626548Y-15237167D01*
X7645595Y-15227643D01*
X7674167Y-15227643D01*
X7693214Y-15237167D01*
X7769405Y-15437167D02*
X7778928Y-15427643D01*
X7797976Y-15399071D01*
X7807500Y-15380024D01*
X7817024Y-15351452D01*
X7826548Y-15303833D01*
X7826548Y-15265738D01*
X7817024Y-15218119D01*
X7807500Y-15189548D01*
X7797976Y-15170500D01*
X7778928Y-15141928D01*
X7769405Y-15132405D01*
D15*
X2982856Y-15569856D02*
X2982856Y-15499144D01*
X2912144Y-15499144D01*
X2912144Y-15569856D01*
X2982856Y-15569856D01*
D11*
X3359881Y-15624976D02*
X3245595Y-15624976D01*
X3302738Y-15624976D02*
X3302738Y-15424976D01*
X3283690Y-15453548D01*
X3264643Y-15472595D01*
X3245595Y-15482119D01*
X3445595Y-15605928D02*
X3455119Y-15615452D01*
X3445595Y-15624976D01*
X3436071Y-15615452D01*
X3445595Y-15605928D01*
X3445595Y-15624976D01*
X3578928Y-15424976D02*
X3597976Y-15424976D01*
X3617024Y-15434500D01*
X3626548Y-15444024D01*
X3636071Y-15463071D01*
X3645595Y-15501167D01*
X3645595Y-15548786D01*
X3636071Y-15586881D01*
X3626548Y-15605928D01*
X3617024Y-15615452D01*
X3597976Y-15624976D01*
X3578928Y-15624976D01*
X3559881Y-15615452D01*
X3550357Y-15605928D01*
X3540833Y-15586881D01*
X3531309Y-15548786D01*
X3531309Y-15501167D01*
X3540833Y-15463071D01*
X3550357Y-15444024D01*
X3559881Y-15434500D01*
X3578928Y-15424976D01*
X3769405Y-15424976D02*
X3788452Y-15424976D01*
X3807500Y-15434500D01*
X3817024Y-15444024D01*
X3826548Y-15463071D01*
X3836071Y-15501167D01*
X3836071Y-15548786D01*
X3826548Y-15586881D01*
X3817024Y-15605928D01*
X3807500Y-15615452D01*
X3788452Y-15624976D01*
X3769405Y-15624976D01*
X3750357Y-15615452D01*
X3740833Y-15605928D01*
X3731309Y-15586881D01*
X3721786Y-15548786D01*
X3721786Y-15501167D01*
X3731309Y-15463071D01*
X3740833Y-15444024D01*
X3750357Y-15434500D01*
X3769405Y-15424976D01*
X3959881Y-15424976D02*
X3978928Y-15424976D01*
X3997976Y-15434500D01*
X4007500Y-15444024D01*
X4017024Y-15463071D01*
X4026548Y-15501167D01*
X4026548Y-15548786D01*
X4017024Y-15586881D01*
X4007500Y-15605928D01*
X3997976Y-15615452D01*
X3978928Y-15624976D01*
X3959881Y-15624976D01*
X3940833Y-15615452D01*
X3931309Y-15605928D01*
X3921786Y-15586881D01*
X3912262Y-15548786D01*
X3912262Y-15501167D01*
X3921786Y-15463071D01*
X3931309Y-15444024D01*
X3940833Y-15434500D01*
X3959881Y-15424976D01*
X4112262Y-15624976D02*
X4112262Y-15491643D01*
X4112262Y-15510690D02*
X4121786Y-15501167D01*
X4140833Y-15491643D01*
X4169405Y-15491643D01*
X4188452Y-15501167D01*
X4197976Y-15520214D01*
X4197976Y-15624976D01*
X4197976Y-15520214D02*
X4207500Y-15501167D01*
X4226548Y-15491643D01*
X4255119Y-15491643D01*
X4274167Y-15501167D01*
X4283690Y-15520214D01*
X4283690Y-15624976D01*
X4378929Y-15624976D02*
X4378929Y-15491643D01*
X4378929Y-15510690D02*
X4388452Y-15501167D01*
X4407500Y-15491643D01*
X4436071Y-15491643D01*
X4455119Y-15501167D01*
X4464643Y-15520214D01*
X4464643Y-15624976D01*
X4464643Y-15520214D02*
X4474167Y-15501167D01*
X4493214Y-15491643D01*
X4521786Y-15491643D01*
X4540833Y-15501167D01*
X4550357Y-15520214D01*
X4550357Y-15624976D01*
X4940833Y-15415452D02*
X4769405Y-15672595D01*
X5197976Y-15424976D02*
X5217024Y-15424976D01*
X5236071Y-15434500D01*
X5245595Y-15444024D01*
X5255119Y-15463071D01*
X5264643Y-15501167D01*
X5264643Y-15548786D01*
X5255119Y-15586881D01*
X5245595Y-15605928D01*
X5236071Y-15615452D01*
X5217024Y-15624976D01*
X5197976Y-15624976D01*
X5178929Y-15615452D01*
X5169405Y-15605928D01*
X5159881Y-15586881D01*
X5150357Y-15548786D01*
X5150357Y-15501167D01*
X5159881Y-15463071D01*
X5169405Y-15444024D01*
X5178929Y-15434500D01*
X5197976Y-15424976D01*
X5350357Y-15605928D02*
X5359881Y-15615452D01*
X5350357Y-15624976D01*
X5340833Y-15615452D01*
X5350357Y-15605928D01*
X5350357Y-15624976D01*
X5483690Y-15424976D02*
X5502738Y-15424976D01*
X5521786Y-15434500D01*
X5531310Y-15444024D01*
X5540833Y-15463071D01*
X5550357Y-15501167D01*
X5550357Y-15548786D01*
X5540833Y-15586881D01*
X5531310Y-15605928D01*
X5521786Y-15615452D01*
X5502738Y-15624976D01*
X5483690Y-15624976D01*
X5464643Y-15615452D01*
X5455119Y-15605928D01*
X5445595Y-15586881D01*
X5436071Y-15548786D01*
X5436071Y-15501167D01*
X5445595Y-15463071D01*
X5455119Y-15444024D01*
X5464643Y-15434500D01*
X5483690Y-15424976D01*
X5617024Y-15424976D02*
X5740833Y-15424976D01*
X5674167Y-15501167D01*
X5702738Y-15501167D01*
X5721786Y-15510690D01*
X5731309Y-15520214D01*
X5740833Y-15539262D01*
X5740833Y-15586881D01*
X5731309Y-15605928D01*
X5721786Y-15615452D01*
X5702738Y-15624976D01*
X5645595Y-15624976D01*
X5626548Y-15615452D01*
X5617024Y-15605928D01*
X5836071Y-15624976D02*
X5874167Y-15624976D01*
X5893214Y-15615452D01*
X5902738Y-15605928D01*
X5921786Y-15577357D01*
X5931309Y-15539262D01*
X5931309Y-15463071D01*
X5921786Y-15444024D01*
X5912262Y-15434500D01*
X5893214Y-15424976D01*
X5855119Y-15424976D01*
X5836071Y-15434500D01*
X5826548Y-15444024D01*
X5817024Y-15463071D01*
X5817024Y-15510690D01*
X5826548Y-15529738D01*
X5836071Y-15539262D01*
X5855119Y-15548786D01*
X5893214Y-15548786D01*
X5912262Y-15539262D01*
X5921786Y-15529738D01*
X5931309Y-15510690D01*
X6102738Y-15491643D02*
X6102738Y-15624976D01*
X6055119Y-15415452D02*
X6007500Y-15558309D01*
X6131309Y-15558309D01*
X6197976Y-15424976D02*
X6197976Y-15463071D01*
X6274167Y-15424976D02*
X6274167Y-15463071D01*
X6569405Y-15701167D02*
X6559881Y-15691643D01*
X6540833Y-15663071D01*
X6531309Y-15644024D01*
X6521786Y-15615452D01*
X6512262Y-15567833D01*
X6512262Y-15529738D01*
X6521786Y-15482119D01*
X6531309Y-15453548D01*
X6540833Y-15434500D01*
X6559881Y-15405928D01*
X6569405Y-15396405D01*
X6626548Y-15424976D02*
X6750357Y-15424976D01*
X6683690Y-15501167D01*
X6712262Y-15501167D01*
X6731309Y-15510690D01*
X6740833Y-15520214D01*
X6750357Y-15539262D01*
X6750357Y-15586881D01*
X6740833Y-15605928D01*
X6731309Y-15615452D01*
X6712262Y-15624976D01*
X6655119Y-15624976D01*
X6636071Y-15615452D01*
X6626548Y-15605928D01*
X6817024Y-15424976D02*
X6940833Y-15424976D01*
X6874167Y-15501167D01*
X6902738Y-15501167D01*
X6921786Y-15510690D01*
X6931309Y-15520214D01*
X6940833Y-15539262D01*
X6940833Y-15586881D01*
X6931309Y-15605928D01*
X6921786Y-15615452D01*
X6902738Y-15624976D01*
X6845595Y-15624976D01*
X6826548Y-15615452D01*
X6817024Y-15605928D01*
X7178928Y-15624976D02*
X7178928Y-15424976D01*
X7264643Y-15624976D02*
X7264643Y-15520214D01*
X7255119Y-15501167D01*
X7236071Y-15491643D01*
X7207500Y-15491643D01*
X7188452Y-15501167D01*
X7178928Y-15510690D01*
X7388452Y-15624976D02*
X7369405Y-15615452D01*
X7359881Y-15605928D01*
X7350357Y-15586881D01*
X7350357Y-15529738D01*
X7359881Y-15510690D01*
X7369405Y-15501167D01*
X7388452Y-15491643D01*
X7417024Y-15491643D01*
X7436071Y-15501167D01*
X7445595Y-15510690D01*
X7455119Y-15529738D01*
X7455119Y-15586881D01*
X7445595Y-15605928D01*
X7436071Y-15615452D01*
X7417024Y-15624976D01*
X7388452Y-15624976D01*
X7569405Y-15624976D02*
X7550357Y-15615452D01*
X7540833Y-15596405D01*
X7540833Y-15424976D01*
X7721786Y-15615452D02*
X7702738Y-15624976D01*
X7664643Y-15624976D01*
X7645595Y-15615452D01*
X7636071Y-15596405D01*
X7636071Y-15520214D01*
X7645595Y-15501167D01*
X7664643Y-15491643D01*
X7702738Y-15491643D01*
X7721786Y-15501167D01*
X7731309Y-15520214D01*
X7731309Y-15539262D01*
X7636071Y-15558309D01*
X7807500Y-15615452D02*
X7826548Y-15624976D01*
X7864643Y-15624976D01*
X7883690Y-15615452D01*
X7893214Y-15596405D01*
X7893214Y-15586881D01*
X7883690Y-15567833D01*
X7864643Y-15558309D01*
X7836071Y-15558309D01*
X7817024Y-15548786D01*
X7807500Y-15529738D01*
X7807500Y-15520214D01*
X7817024Y-15501167D01*
X7836071Y-15491643D01*
X7864643Y-15491643D01*
X7883690Y-15501167D01*
X7959881Y-15701167D02*
X7969405Y-15691643D01*
X7988452Y-15663071D01*
X7997976Y-15644024D01*
X8007500Y-15615452D01*
X8017024Y-15567833D01*
X8017024Y-15529738D01*
X8007500Y-15482119D01*
X7997976Y-15453548D01*
X7988452Y-15434500D01*
X7969405Y-15405928D01*
X7959881Y-15396405D01*
X2897500Y-15898500D02*
X2997500Y-15798500D01*
X2897500Y-15698500D01*
X2797500Y-15798500D01*
X2897500Y-15898500D01*
X3236071Y-15688976D02*
X3359881Y-15688976D01*
X3293214Y-15765167D01*
X3321786Y-15765167D01*
X3340833Y-15774690D01*
X3350357Y-15784214D01*
X3359881Y-15803262D01*
X3359881Y-15850881D01*
X3350357Y-15869928D01*
X3340833Y-15879452D01*
X3321786Y-15888976D01*
X3264643Y-15888976D01*
X3245595Y-15879452D01*
X3236071Y-15869928D01*
X3445595Y-15869928D02*
X3455119Y-15879452D01*
X3445595Y-15888976D01*
X3436071Y-15879452D01*
X3445595Y-15869928D01*
X3445595Y-15888976D01*
X3645595Y-15888976D02*
X3531309Y-15888976D01*
X3588452Y-15888976D02*
X3588452Y-15688976D01*
X3569405Y-15717548D01*
X3550357Y-15736595D01*
X3531309Y-15746119D01*
X3769405Y-15688976D02*
X3788452Y-15688976D01*
X3807500Y-15698500D01*
X3817024Y-15708024D01*
X3826548Y-15727071D01*
X3836071Y-15765167D01*
X3836071Y-15812786D01*
X3826548Y-15850881D01*
X3817024Y-15869928D01*
X3807500Y-15879452D01*
X3788452Y-15888976D01*
X3769405Y-15888976D01*
X3750357Y-15879452D01*
X3740833Y-15869928D01*
X3731309Y-15850881D01*
X3721786Y-15812786D01*
X3721786Y-15765167D01*
X3731309Y-15727071D01*
X3740833Y-15708024D01*
X3750357Y-15698500D01*
X3769405Y-15688976D01*
X3959881Y-15688976D02*
X3978928Y-15688976D01*
X3997976Y-15698500D01*
X4007500Y-15708024D01*
X4017024Y-15727071D01*
X4026548Y-15765167D01*
X4026548Y-15812786D01*
X4017024Y-15850881D01*
X4007500Y-15869928D01*
X3997976Y-15879452D01*
X3978928Y-15888976D01*
X3959881Y-15888976D01*
X3940833Y-15879452D01*
X3931309Y-15869928D01*
X3921786Y-15850881D01*
X3912262Y-15812786D01*
X3912262Y-15765167D01*
X3921786Y-15727071D01*
X3931309Y-15708024D01*
X3940833Y-15698500D01*
X3959881Y-15688976D01*
X4112262Y-15888976D02*
X4112262Y-15755643D01*
X4112262Y-15774690D02*
X4121786Y-15765167D01*
X4140833Y-15755643D01*
X4169405Y-15755643D01*
X4188452Y-15765167D01*
X4197976Y-15784214D01*
X4197976Y-15888976D01*
X4197976Y-15784214D02*
X4207500Y-15765167D01*
X4226548Y-15755643D01*
X4255119Y-15755643D01*
X4274167Y-15765167D01*
X4283690Y-15784214D01*
X4283690Y-15888976D01*
X4378929Y-15888976D02*
X4378929Y-15755643D01*
X4378929Y-15774690D02*
X4388452Y-15765167D01*
X4407500Y-15755643D01*
X4436071Y-15755643D01*
X4455119Y-15765167D01*
X4464643Y-15784214D01*
X4464643Y-15888976D01*
X4464643Y-15784214D02*
X4474167Y-15765167D01*
X4493214Y-15755643D01*
X4521786Y-15755643D01*
X4540833Y-15765167D01*
X4550357Y-15784214D01*
X4550357Y-15888976D01*
X4940833Y-15679452D02*
X4769405Y-15936595D01*
X5197976Y-15688976D02*
X5217024Y-15688976D01*
X5236071Y-15698500D01*
X5245595Y-15708024D01*
X5255119Y-15727071D01*
X5264643Y-15765167D01*
X5264643Y-15812786D01*
X5255119Y-15850881D01*
X5245595Y-15869928D01*
X5236071Y-15879452D01*
X5217024Y-15888976D01*
X5197976Y-15888976D01*
X5178929Y-15879452D01*
X5169405Y-15869928D01*
X5159881Y-15850881D01*
X5150357Y-15812786D01*
X5150357Y-15765167D01*
X5159881Y-15727071D01*
X5169405Y-15708024D01*
X5178929Y-15698500D01*
X5197976Y-15688976D01*
X5350357Y-15869928D02*
X5359881Y-15879452D01*
X5350357Y-15888976D01*
X5340833Y-15879452D01*
X5350357Y-15869928D01*
X5350357Y-15888976D01*
X5550357Y-15888976D02*
X5436071Y-15888976D01*
X5493214Y-15888976D02*
X5493214Y-15688976D01*
X5474167Y-15717548D01*
X5455119Y-15736595D01*
X5436071Y-15746119D01*
X5626548Y-15708024D02*
X5636071Y-15698500D01*
X5655119Y-15688976D01*
X5702738Y-15688976D01*
X5721786Y-15698500D01*
X5731309Y-15708024D01*
X5740833Y-15727071D01*
X5740833Y-15746119D01*
X5731309Y-15774690D01*
X5617024Y-15888976D01*
X5740833Y-15888976D01*
X5817024Y-15708024D02*
X5826548Y-15698500D01*
X5845595Y-15688976D01*
X5893214Y-15688976D01*
X5912262Y-15698500D01*
X5921786Y-15708024D01*
X5931309Y-15727071D01*
X5931309Y-15746119D01*
X5921786Y-15774690D01*
X5807500Y-15888976D01*
X5931309Y-15888976D01*
X6055119Y-15688976D02*
X6074167Y-15688976D01*
X6093214Y-15698500D01*
X6102738Y-15708024D01*
X6112262Y-15727071D01*
X6121786Y-15765167D01*
X6121786Y-15812786D01*
X6112262Y-15850881D01*
X6102738Y-15869928D01*
X6093214Y-15879452D01*
X6074167Y-15888976D01*
X6055119Y-15888976D01*
X6036071Y-15879452D01*
X6026548Y-15869928D01*
X6017024Y-15850881D01*
X6007500Y-15812786D01*
X6007500Y-15765167D01*
X6017024Y-15727071D01*
X6026548Y-15708024D01*
X6036071Y-15698500D01*
X6055119Y-15688976D01*
X6197976Y-15688976D02*
X6197976Y-15727071D01*
X6274167Y-15688976D02*
X6274167Y-15727071D01*
X6569405Y-15965167D02*
X6559881Y-15955643D01*
X6540833Y-15927071D01*
X6531309Y-15908024D01*
X6521786Y-15879452D01*
X6512262Y-15831833D01*
X6512262Y-15793738D01*
X6521786Y-15746119D01*
X6531309Y-15717548D01*
X6540833Y-15698500D01*
X6559881Y-15669928D01*
X6569405Y-15660405D01*
X6750357Y-15888976D02*
X6636071Y-15888976D01*
X6693214Y-15888976D02*
X6693214Y-15688976D01*
X6674167Y-15717548D01*
X6655119Y-15736595D01*
X6636071Y-15746119D01*
X6988452Y-15888976D02*
X6988452Y-15688976D01*
X7074167Y-15888976D02*
X7074167Y-15784214D01*
X7064643Y-15765167D01*
X7045595Y-15755643D01*
X7017024Y-15755643D01*
X6997976Y-15765167D01*
X6988452Y-15774690D01*
X7197976Y-15888976D02*
X7178928Y-15879452D01*
X7169405Y-15869928D01*
X7159881Y-15850881D01*
X7159881Y-15793738D01*
X7169405Y-15774690D01*
X7178928Y-15765167D01*
X7197976Y-15755643D01*
X7226548Y-15755643D01*
X7245595Y-15765167D01*
X7255119Y-15774690D01*
X7264643Y-15793738D01*
X7264643Y-15850881D01*
X7255119Y-15869928D01*
X7245595Y-15879452D01*
X7226548Y-15888976D01*
X7197976Y-15888976D01*
X7378928Y-15888976D02*
X7359881Y-15879452D01*
X7350357Y-15860405D01*
X7350357Y-15688976D01*
X7531309Y-15879452D02*
X7512262Y-15888976D01*
X7474167Y-15888976D01*
X7455119Y-15879452D01*
X7445595Y-15860405D01*
X7445595Y-15784214D01*
X7455119Y-15765167D01*
X7474167Y-15755643D01*
X7512262Y-15755643D01*
X7531309Y-15765167D01*
X7540833Y-15784214D01*
X7540833Y-15803262D01*
X7445595Y-15822309D01*
X7607500Y-15965167D02*
X7617024Y-15955643D01*
X7636071Y-15927071D01*
X7645595Y-15908024D01*
X7655119Y-15879452D01*
X7664643Y-15831833D01*
X7664643Y-15793738D01*
X7655119Y-15746119D01*
X7645595Y-15717548D01*
X7636071Y-15698500D01*
X7617024Y-15669928D01*
X7607500Y-15660405D01*
M02*
