%FSLAX45Y45*%
G04 Gerber Fmt 4.5, Leading zero omitted, Abs format (unit mm)*
G04 Created by KiCad (PCBNEW (6.0.1)) date 2022-02-10 17:34:40*
%MOMM*%
%LPD*%
G01*
G04 APERTURE LIST*
%TA.AperFunction,Profile*%
%ADD10C,0.050000*%
%TD*%
%ADD11C,0.200000*%
%ADD12C,0.040000*%
%ADD13C,0.080000*%
%ADD14C,0.090000*%
%ADD15C,0.100000*%
G04 APERTURE END LIST*
D10*
X7000000Y-3100000D02*
X7000000Y-14100000D01*
X3000000Y-3100000D02*
X3000000Y-14100000D01*
X3000000Y-3100000D02*
X7000000Y-3100000D01*
X3000000Y-14100000D02*
X7000000Y-14100000D01*
D11*
D12*
X4430000Y-6230000D02*
X4470000Y-6270000D01*
X4470000Y-6230000D02*
X4430000Y-6270000D01*
X4432998Y-6582998D02*
X4472998Y-6622998D01*
X4472998Y-6582998D02*
X4432998Y-6622998D01*
X4580000Y-6480000D02*
X4620000Y-6520000D01*
X4620000Y-6480000D02*
X4580000Y-6520000D01*
X4930000Y-9180000D02*
X4970000Y-9220000D01*
X4970000Y-9180000D02*
X4930000Y-9220000D01*
D13*
X3240000Y-11200000D02*
G75*
G03*
X3240000Y-11200000I-40000J0D01*
G01*
X3240000Y-11550000D02*
G75*
G03*
X3240000Y-11550000I-40000J0D01*
G01*
X3240000Y-11900000D02*
G75*
G03*
X3240000Y-11900000I-40000J0D01*
G01*
X3240000Y-12250000D02*
G75*
G03*
X3240000Y-12250000I-40000J0D01*
G01*
X3340000Y-6250000D02*
G75*
G03*
X3340000Y-6250000I-40000J0D01*
G01*
X3340000Y-6750000D02*
G75*
G03*
X3340000Y-6750000I-40000J0D01*
G01*
X3340000Y-7442000D02*
G75*
G03*
X3340000Y-7442000I-40000J0D01*
G01*
X3340000Y-8458000D02*
G75*
G03*
X3340000Y-8458000I-40000J0D01*
G01*
X3340000Y-8684000D02*
G75*
G03*
X3340000Y-8684000I-40000J0D01*
G01*
X3340000Y-9700000D02*
G75*
G03*
X3340000Y-9700000I-40000J0D01*
G01*
X3640000Y-6119000D02*
G75*
G03*
X3640000Y-6119000I-40000J0D01*
G01*
X3640000Y-6881000D02*
G75*
G03*
X3640000Y-6881000I-40000J0D01*
G01*
X3690000Y-7442000D02*
G75*
G03*
X3690000Y-7442000I-40000J0D01*
G01*
X3690000Y-8458000D02*
G75*
G03*
X3690000Y-8458000I-40000J0D01*
G01*
X3690000Y-8684000D02*
G75*
G03*
X3690000Y-8684000I-40000J0D01*
G01*
X3690000Y-9700000D02*
G75*
G03*
X3690000Y-9700000I-40000J0D01*
G01*
X3740000Y-11200000D02*
G75*
G03*
X3740000Y-11200000I-40000J0D01*
G01*
X3740000Y-11550000D02*
G75*
G03*
X3740000Y-11550000I-40000J0D01*
G01*
X3740000Y-11900000D02*
G75*
G03*
X3740000Y-11900000I-40000J0D01*
G01*
X3740000Y-12250000D02*
G75*
G03*
X3740000Y-12250000I-40000J0D01*
G01*
X3940000Y-6119000D02*
G75*
G03*
X3940000Y-6119000I-40000J0D01*
G01*
X3940000Y-6881000D02*
G75*
G03*
X3940000Y-6881000I-40000J0D01*
G01*
X3982000Y-11200000D02*
G75*
G03*
X3982000Y-11200000I-40000J0D01*
G01*
X3982000Y-11550000D02*
G75*
G03*
X3982000Y-11550000I-40000J0D01*
G01*
X3982000Y-11900000D02*
G75*
G03*
X3982000Y-11900000I-40000J0D01*
G01*
X3982000Y-12250000D02*
G75*
G03*
X3982000Y-12250000I-40000J0D01*
G01*
X3985511Y-13222500D02*
G75*
G03*
X3985511Y-13222500I-40000J0D01*
G01*
X4009000Y-5050000D02*
G75*
G03*
X4009000Y-5050000I-40000J0D01*
G01*
X4009000Y-5350000D02*
G75*
G03*
X4009000Y-5350000I-40000J0D01*
G01*
X4040000Y-7442000D02*
G75*
G03*
X4040000Y-7442000I-40000J0D01*
G01*
X4040000Y-8458000D02*
G75*
G03*
X4040000Y-8458000I-40000J0D01*
G01*
X4040000Y-8684000D02*
G75*
G03*
X4040000Y-8684000I-40000J0D01*
G01*
X4040000Y-9700000D02*
G75*
G03*
X4040000Y-9700000I-40000J0D01*
G01*
X4140000Y-4750000D02*
G75*
G03*
X4140000Y-4750000I-40000J0D01*
G01*
X4140000Y-5650000D02*
G75*
G03*
X4140000Y-5650000I-40000J0D01*
G01*
X4185511Y-13222500D02*
G75*
G03*
X4185511Y-13222500I-40000J0D01*
G01*
X4240000Y-6250000D02*
G75*
G03*
X4240000Y-6250000I-40000J0D01*
G01*
X4240000Y-6750000D02*
G75*
G03*
X4240000Y-6750000I-40000J0D01*
G01*
X4390000Y-7442000D02*
G75*
G03*
X4390000Y-7442000I-40000J0D01*
G01*
X4390000Y-8458000D02*
G75*
G03*
X4390000Y-8458000I-40000J0D01*
G01*
X4390000Y-8684000D02*
G75*
G03*
X4390000Y-8684000I-40000J0D01*
G01*
X4390000Y-9700000D02*
G75*
G03*
X4390000Y-9700000I-40000J0D01*
G01*
X4640000Y-4750000D02*
G75*
G03*
X4640000Y-4750000I-40000J0D01*
G01*
X4640000Y-5650000D02*
G75*
G03*
X4640000Y-5650000I-40000J0D01*
G01*
X4771000Y-5050000D02*
G75*
G03*
X4771000Y-5050000I-40000J0D01*
G01*
X4771000Y-5350000D02*
G75*
G03*
X4771000Y-5350000I-40000J0D01*
G01*
X4824000Y-8300000D02*
G75*
G03*
X4824000Y-8300000I-40000J0D01*
G01*
X4832000Y-7250000D02*
G75*
G03*
X4832000Y-7250000I-40000J0D01*
G01*
X4832000Y-7600000D02*
G75*
G03*
X4832000Y-7600000I-40000J0D01*
G01*
X4832000Y-7950000D02*
G75*
G03*
X4832000Y-7950000I-40000J0D01*
G01*
X4998000Y-11200000D02*
G75*
G03*
X4998000Y-11200000I-40000J0D01*
G01*
X4998000Y-11550000D02*
G75*
G03*
X4998000Y-11550000I-40000J0D01*
G01*
X4998000Y-11900000D02*
G75*
G03*
X4998000Y-11900000I-40000J0D01*
G01*
X4998000Y-12250000D02*
G75*
G03*
X4998000Y-12250000I-40000J0D01*
G01*
X5040000Y-5150000D02*
G75*
G03*
X5040000Y-5150000I-40000J0D01*
G01*
X5040000Y-5650000D02*
G75*
G03*
X5040000Y-5650000I-40000J0D01*
G01*
X5040000Y-5892000D02*
G75*
G03*
X5040000Y-5892000I-40000J0D01*
G01*
X5040000Y-6908000D02*
G75*
G03*
X5040000Y-6908000I-40000J0D01*
G01*
X5240000Y-8830000D02*
G75*
G03*
X5240000Y-8830000I-40000J0D01*
G01*
X5240000Y-9084000D02*
G75*
G03*
X5240000Y-9084000I-40000J0D01*
G01*
X5240000Y-9338000D02*
G75*
G03*
X5240000Y-9338000I-40000J0D01*
G01*
X5240000Y-9592000D02*
G75*
G03*
X5240000Y-9592000I-40000J0D01*
G01*
X5240000Y-9846000D02*
G75*
G03*
X5240000Y-9846000I-40000J0D01*
G01*
X5240000Y-10100000D02*
G75*
G03*
X5240000Y-10100000I-40000J0D01*
G01*
X5240000Y-10354000D02*
G75*
G03*
X5240000Y-10354000I-40000J0D01*
G01*
X5390000Y-5150000D02*
G75*
G03*
X5390000Y-5150000I-40000J0D01*
G01*
X5390000Y-5650000D02*
G75*
G03*
X5390000Y-5650000I-40000J0D01*
G01*
X5390000Y-5892000D02*
G75*
G03*
X5390000Y-5892000I-40000J0D01*
G01*
X5390000Y-6908000D02*
G75*
G03*
X5390000Y-6908000I-40000J0D01*
G01*
X5482000Y-3450000D02*
G75*
G03*
X5482000Y-3450000I-40000J0D01*
G01*
X5482000Y-3800000D02*
G75*
G03*
X5482000Y-3800000I-40000J0D01*
G01*
X5482000Y-4150000D02*
G75*
G03*
X5482000Y-4150000I-40000J0D01*
G01*
X5482000Y-4500000D02*
G75*
G03*
X5482000Y-4500000I-40000J0D01*
G01*
X5740000Y-5150000D02*
G75*
G03*
X5740000Y-5150000I-40000J0D01*
G01*
X5740000Y-5650000D02*
G75*
G03*
X5740000Y-5650000I-40000J0D01*
G01*
X5740000Y-5900000D02*
G75*
G03*
X5740000Y-5900000I-40000J0D01*
G01*
X5740000Y-6916000D02*
G75*
G03*
X5740000Y-6916000I-40000J0D01*
G01*
X5840000Y-8300000D02*
G75*
G03*
X5840000Y-8300000I-40000J0D01*
G01*
X5848000Y-7250000D02*
G75*
G03*
X5848000Y-7250000I-40000J0D01*
G01*
X5848000Y-7600000D02*
G75*
G03*
X5848000Y-7600000I-40000J0D01*
G01*
X5848000Y-7950000D02*
G75*
G03*
X5848000Y-7950000I-40000J0D01*
G01*
X6002000Y-8830000D02*
G75*
G03*
X6002000Y-8830000I-40000J0D01*
G01*
X6002000Y-9084000D02*
G75*
G03*
X6002000Y-9084000I-40000J0D01*
G01*
X6002000Y-9338000D02*
G75*
G03*
X6002000Y-9338000I-40000J0D01*
G01*
X6002000Y-9592000D02*
G75*
G03*
X6002000Y-9592000I-40000J0D01*
G01*
X6002000Y-9846000D02*
G75*
G03*
X6002000Y-9846000I-40000J0D01*
G01*
X6002000Y-10100000D02*
G75*
G03*
X6002000Y-10100000I-40000J0D01*
G01*
X6002000Y-10354000D02*
G75*
G03*
X6002000Y-10354000I-40000J0D01*
G01*
X6090000Y-5150000D02*
G75*
G03*
X6090000Y-5150000I-40000J0D01*
G01*
X6090000Y-5650000D02*
G75*
G03*
X6090000Y-5650000I-40000J0D01*
G01*
X6090000Y-5892000D02*
G75*
G03*
X6090000Y-5892000I-40000J0D01*
G01*
X6090000Y-6908000D02*
G75*
G03*
X6090000Y-6908000I-40000J0D01*
G01*
X6132000Y-8300000D02*
G75*
G03*
X6132000Y-8300000I-40000J0D01*
G01*
X6140000Y-7250000D02*
G75*
G03*
X6140000Y-7250000I-40000J0D01*
G01*
X6140000Y-7600000D02*
G75*
G03*
X6140000Y-7600000I-40000J0D01*
G01*
X6140000Y-7950000D02*
G75*
G03*
X6140000Y-7950000I-40000J0D01*
G01*
X6374489Y-8842500D02*
G75*
G03*
X6374489Y-8842500I-40000J0D01*
G01*
X6498000Y-3450000D02*
G75*
G03*
X6498000Y-3450000I-40000J0D01*
G01*
X6498000Y-3800000D02*
G75*
G03*
X6498000Y-3800000I-40000J0D01*
G01*
X6498000Y-4150000D02*
G75*
G03*
X6498000Y-4150000I-40000J0D01*
G01*
X6498000Y-4500000D02*
G75*
G03*
X6498000Y-4500000I-40000J0D01*
G01*
X6574489Y-8842500D02*
G75*
G03*
X6574489Y-8842500I-40000J0D01*
G01*
X6632000Y-8300000D02*
G75*
G03*
X6632000Y-8300000I-40000J0D01*
G01*
X6640000Y-7250000D02*
G75*
G03*
X6640000Y-7250000I-40000J0D01*
G01*
X6640000Y-7600000D02*
G75*
G03*
X6640000Y-7600000I-40000J0D01*
G01*
X6640000Y-7950000D02*
G75*
G03*
X6640000Y-7950000I-40000J0D01*
G01*
X6740000Y-12414500D02*
G75*
G03*
X6740000Y-12414500I-40000J0D01*
G01*
X6740000Y-13430500D02*
G75*
G03*
X6740000Y-13430500I-40000J0D01*
G01*
D14*
X6096000Y-13177500D02*
X6096000Y-13267500D01*
X6051000Y-13222500D02*
X6141000Y-13222500D01*
X6350000Y-13177500D02*
X6350000Y-13267500D01*
X6305000Y-13222500D02*
X6395000Y-13222500D01*
D15*
X3535356Y-5085356D02*
X3535356Y-5014644D01*
X3464644Y-5014644D01*
X3464644Y-5085356D01*
X3535356Y-5085356D01*
X3535356Y-5339356D02*
X3535356Y-5268644D01*
X3464644Y-5268644D01*
X3464644Y-5339356D01*
X3535356Y-5339356D01*
X3535356Y-5593356D02*
X3535356Y-5522644D01*
X3464644Y-5522644D01*
X3464644Y-5593356D01*
X3535356Y-5593356D01*
X3535356Y-5847356D02*
X3535356Y-5776644D01*
X3464644Y-5776644D01*
X3464644Y-5847356D01*
X3535356Y-5847356D01*
X3535356Y-10135356D02*
X3535356Y-10064644D01*
X3464644Y-10064644D01*
X3464644Y-10135356D01*
X3535356Y-10135356D01*
X3535356Y-10389356D02*
X3535356Y-10318644D01*
X3464644Y-10318644D01*
X3464644Y-10389356D01*
X3535356Y-10389356D01*
X3535356Y-10643356D02*
X3535356Y-10572644D01*
X3464644Y-10572644D01*
X3464644Y-10643356D01*
X3535356Y-10643356D01*
X3535356Y-10897356D02*
X3535356Y-10826644D01*
X3464644Y-10826644D01*
X3464644Y-10897356D01*
X3535356Y-10897356D01*
X3535356Y-12777356D02*
X3535356Y-12706644D01*
X3464644Y-12706644D01*
X3464644Y-12777356D01*
X3535356Y-12777356D01*
X3535356Y-13031356D02*
X3535356Y-12960644D01*
X3464644Y-12960644D01*
X3464644Y-13031356D01*
X3535356Y-13031356D01*
X3535356Y-13285356D02*
X3535356Y-13214644D01*
X3464644Y-13214644D01*
X3464644Y-13285356D01*
X3535356Y-13285356D01*
X3900356Y-13807856D02*
X3900356Y-13737144D01*
X3829644Y-13737144D01*
X3829644Y-13807856D01*
X3900356Y-13807856D01*
X4676856Y-13131356D02*
X4676856Y-13060644D01*
X4606144Y-13060644D01*
X4606144Y-13131356D01*
X4676856Y-13131356D01*
X4676856Y-13385356D02*
X4676856Y-13314644D01*
X4606144Y-13314644D01*
X4606144Y-13385356D01*
X4676856Y-13385356D01*
X4930856Y-13131356D02*
X4930856Y-13060644D01*
X4860144Y-13060644D01*
X4860144Y-13131356D01*
X4930856Y-13131356D01*
X4930856Y-13385356D02*
X4930856Y-13314644D01*
X4860144Y-13314644D01*
X4860144Y-13385356D01*
X4930856Y-13385356D01*
X5170356Y-13807856D02*
X5170356Y-13737144D01*
X5099644Y-13737144D01*
X5099644Y-13807856D01*
X5170356Y-13807856D01*
X5184856Y-13131356D02*
X5184856Y-13060644D01*
X5114144Y-13060644D01*
X5114144Y-13131356D01*
X5184856Y-13131356D01*
X5184856Y-13385356D02*
X5184856Y-13314644D01*
X5114144Y-13314644D01*
X5114144Y-13385356D01*
X5184856Y-13385356D01*
X5438856Y-13131356D02*
X5438856Y-13060644D01*
X5368144Y-13060644D01*
X5368144Y-13131356D01*
X5438856Y-13131356D01*
X5438856Y-13385356D02*
X5438856Y-13314644D01*
X5368144Y-13314644D01*
X5368144Y-13385356D01*
X5438856Y-13385356D01*
X5450356Y-13807856D02*
X5450356Y-13737144D01*
X5379644Y-13737144D01*
X5379644Y-13807856D01*
X5450356Y-13807856D01*
X5692856Y-13131356D02*
X5692856Y-13060644D01*
X5622144Y-13060644D01*
X5622144Y-13131356D01*
X5692856Y-13131356D01*
X5692856Y-13385356D02*
X5692856Y-13314644D01*
X5622144Y-13314644D01*
X5622144Y-13385356D01*
X5692856Y-13385356D01*
X6535356Y-5085356D02*
X6535356Y-5014644D01*
X6464644Y-5014644D01*
X6464644Y-5085356D01*
X6535356Y-5085356D01*
X6535356Y-5339356D02*
X6535356Y-5268644D01*
X6464644Y-5268644D01*
X6464644Y-5339356D01*
X6535356Y-5339356D01*
X6535356Y-5593356D02*
X6535356Y-5522644D01*
X6464644Y-5522644D01*
X6464644Y-5593356D01*
X6535356Y-5593356D01*
X6535356Y-5847356D02*
X6535356Y-5776644D01*
X6464644Y-5776644D01*
X6464644Y-5847356D01*
X6535356Y-5847356D01*
X6535356Y-10135356D02*
X6535356Y-10064644D01*
X6464644Y-10064644D01*
X6464644Y-10135356D01*
X6535356Y-10135356D01*
X6535356Y-10389356D02*
X6535356Y-10318644D01*
X6464644Y-10318644D01*
X6464644Y-10389356D01*
X6535356Y-10389356D01*
X6535356Y-10643356D02*
X6535356Y-10572644D01*
X6464644Y-10572644D01*
X6464644Y-10643356D01*
X6535356Y-10643356D01*
X6535356Y-10897356D02*
X6535356Y-10826644D01*
X6464644Y-10826644D01*
X6464644Y-10897356D01*
X6535356Y-10897356D01*
X6720356Y-13807856D02*
X6720356Y-13737144D01*
X6649644Y-13737144D01*
X6649644Y-13807856D01*
X6720356Y-13807856D01*
D11*
X3255119Y-14412976D02*
X3255119Y-14212976D01*
X3302738Y-14212976D01*
X3331309Y-14222500D01*
X3350357Y-14241548D01*
X3359881Y-14260595D01*
X3369405Y-14298690D01*
X3369405Y-14327262D01*
X3359881Y-14365357D01*
X3350357Y-14384405D01*
X3331309Y-14403452D01*
X3302738Y-14412976D01*
X3255119Y-14412976D01*
X3455119Y-14412976D02*
X3455119Y-14279643D01*
X3455119Y-14317738D02*
X3464643Y-14298690D01*
X3474167Y-14289167D01*
X3493214Y-14279643D01*
X3512262Y-14279643D01*
X3578928Y-14412976D02*
X3578928Y-14279643D01*
X3578928Y-14212976D02*
X3569405Y-14222500D01*
X3578928Y-14232024D01*
X3588452Y-14222500D01*
X3578928Y-14212976D01*
X3578928Y-14232024D01*
X3702738Y-14412976D02*
X3683690Y-14403452D01*
X3674167Y-14384405D01*
X3674167Y-14212976D01*
X3807500Y-14412976D02*
X3788452Y-14403452D01*
X3778928Y-14384405D01*
X3778928Y-14212976D01*
X4036071Y-14412976D02*
X4036071Y-14212976D01*
X4102738Y-14355833D01*
X4169405Y-14212976D01*
X4169405Y-14412976D01*
X4350357Y-14412976D02*
X4350357Y-14308214D01*
X4340833Y-14289167D01*
X4321786Y-14279643D01*
X4283690Y-14279643D01*
X4264643Y-14289167D01*
X4350357Y-14403452D02*
X4331310Y-14412976D01*
X4283690Y-14412976D01*
X4264643Y-14403452D01*
X4255119Y-14384405D01*
X4255119Y-14365357D01*
X4264643Y-14346309D01*
X4283690Y-14336786D01*
X4331310Y-14336786D01*
X4350357Y-14327262D01*
X4445595Y-14279643D02*
X4445595Y-14479643D01*
X4445595Y-14289167D02*
X4464643Y-14279643D01*
X4502738Y-14279643D01*
X4521786Y-14289167D01*
X4531310Y-14298690D01*
X4540833Y-14317738D01*
X4540833Y-14374881D01*
X4531310Y-14393928D01*
X4521786Y-14403452D01*
X4502738Y-14412976D01*
X4464643Y-14412976D01*
X4445595Y-14403452D01*
X4626548Y-14393928D02*
X4636071Y-14403452D01*
X4626548Y-14412976D01*
X4617024Y-14403452D01*
X4626548Y-14393928D01*
X4626548Y-14412976D01*
X4626548Y-14289167D02*
X4636071Y-14298690D01*
X4626548Y-14308214D01*
X4617024Y-14298690D01*
X4626548Y-14289167D01*
X4626548Y-14308214D01*
D12*
X2957500Y-14722500D02*
X2997500Y-14762500D01*
X2997500Y-14722500D02*
X2957500Y-14762500D01*
D11*
X3293214Y-14632976D02*
X3312262Y-14632976D01*
X3331309Y-14642500D01*
X3340833Y-14652024D01*
X3350357Y-14671071D01*
X3359881Y-14709167D01*
X3359881Y-14756786D01*
X3350357Y-14794881D01*
X3340833Y-14813928D01*
X3331309Y-14823452D01*
X3312262Y-14832976D01*
X3293214Y-14832976D01*
X3274167Y-14823452D01*
X3264643Y-14813928D01*
X3255119Y-14794881D01*
X3245595Y-14756786D01*
X3245595Y-14709167D01*
X3255119Y-14671071D01*
X3264643Y-14652024D01*
X3274167Y-14642500D01*
X3293214Y-14632976D01*
X3445595Y-14813928D02*
X3455119Y-14823452D01*
X3445595Y-14832976D01*
X3436071Y-14823452D01*
X3445595Y-14813928D01*
X3445595Y-14832976D01*
X3626548Y-14699643D02*
X3626548Y-14832976D01*
X3578928Y-14623452D02*
X3531309Y-14766309D01*
X3655119Y-14766309D01*
X3769405Y-14632976D02*
X3788452Y-14632976D01*
X3807500Y-14642500D01*
X3817024Y-14652024D01*
X3826548Y-14671071D01*
X3836071Y-14709167D01*
X3836071Y-14756786D01*
X3826548Y-14794881D01*
X3817024Y-14813928D01*
X3807500Y-14823452D01*
X3788452Y-14832976D01*
X3769405Y-14832976D01*
X3750357Y-14823452D01*
X3740833Y-14813928D01*
X3731309Y-14794881D01*
X3721786Y-14756786D01*
X3721786Y-14709167D01*
X3731309Y-14671071D01*
X3740833Y-14652024D01*
X3750357Y-14642500D01*
X3769405Y-14632976D01*
X3959881Y-14632976D02*
X3978928Y-14632976D01*
X3997976Y-14642500D01*
X4007500Y-14652024D01*
X4017024Y-14671071D01*
X4026548Y-14709167D01*
X4026548Y-14756786D01*
X4017024Y-14794881D01*
X4007500Y-14813928D01*
X3997976Y-14823452D01*
X3978928Y-14832976D01*
X3959881Y-14832976D01*
X3940833Y-14823452D01*
X3931309Y-14813928D01*
X3921786Y-14794881D01*
X3912262Y-14756786D01*
X3912262Y-14709167D01*
X3921786Y-14671071D01*
X3931309Y-14652024D01*
X3940833Y-14642500D01*
X3959881Y-14632976D01*
X4112262Y-14832976D02*
X4112262Y-14699643D01*
X4112262Y-14718690D02*
X4121786Y-14709167D01*
X4140833Y-14699643D01*
X4169405Y-14699643D01*
X4188452Y-14709167D01*
X4197976Y-14728214D01*
X4197976Y-14832976D01*
X4197976Y-14728214D02*
X4207500Y-14709167D01*
X4226548Y-14699643D01*
X4255119Y-14699643D01*
X4274167Y-14709167D01*
X4283690Y-14728214D01*
X4283690Y-14832976D01*
X4378929Y-14832976D02*
X4378929Y-14699643D01*
X4378929Y-14718690D02*
X4388452Y-14709167D01*
X4407500Y-14699643D01*
X4436071Y-14699643D01*
X4455119Y-14709167D01*
X4464643Y-14728214D01*
X4464643Y-14832976D01*
X4464643Y-14728214D02*
X4474167Y-14709167D01*
X4493214Y-14699643D01*
X4521786Y-14699643D01*
X4540833Y-14709167D01*
X4550357Y-14728214D01*
X4550357Y-14832976D01*
X4940833Y-14623452D02*
X4769405Y-14880595D01*
X5197976Y-14632976D02*
X5217024Y-14632976D01*
X5236071Y-14642500D01*
X5245595Y-14652024D01*
X5255119Y-14671071D01*
X5264643Y-14709167D01*
X5264643Y-14756786D01*
X5255119Y-14794881D01*
X5245595Y-14813928D01*
X5236071Y-14823452D01*
X5217024Y-14832976D01*
X5197976Y-14832976D01*
X5178929Y-14823452D01*
X5169405Y-14813928D01*
X5159881Y-14794881D01*
X5150357Y-14756786D01*
X5150357Y-14709167D01*
X5159881Y-14671071D01*
X5169405Y-14652024D01*
X5178929Y-14642500D01*
X5197976Y-14632976D01*
X5350357Y-14813928D02*
X5359881Y-14823452D01*
X5350357Y-14832976D01*
X5340833Y-14823452D01*
X5350357Y-14813928D01*
X5350357Y-14832976D01*
X5483690Y-14632976D02*
X5502738Y-14632976D01*
X5521786Y-14642500D01*
X5531310Y-14652024D01*
X5540833Y-14671071D01*
X5550357Y-14709167D01*
X5550357Y-14756786D01*
X5540833Y-14794881D01*
X5531310Y-14813928D01*
X5521786Y-14823452D01*
X5502738Y-14832976D01*
X5483690Y-14832976D01*
X5464643Y-14823452D01*
X5455119Y-14813928D01*
X5445595Y-14794881D01*
X5436071Y-14756786D01*
X5436071Y-14709167D01*
X5445595Y-14671071D01*
X5455119Y-14652024D01*
X5464643Y-14642500D01*
X5483690Y-14632976D01*
X5740833Y-14832976D02*
X5626548Y-14832976D01*
X5683690Y-14832976D02*
X5683690Y-14632976D01*
X5664643Y-14661548D01*
X5645595Y-14680595D01*
X5626548Y-14690119D01*
X5921786Y-14632976D02*
X5826548Y-14632976D01*
X5817024Y-14728214D01*
X5826548Y-14718690D01*
X5845595Y-14709167D01*
X5893214Y-14709167D01*
X5912262Y-14718690D01*
X5921786Y-14728214D01*
X5931309Y-14747262D01*
X5931309Y-14794881D01*
X5921786Y-14813928D01*
X5912262Y-14823452D01*
X5893214Y-14832976D01*
X5845595Y-14832976D01*
X5826548Y-14823452D01*
X5817024Y-14813928D01*
X5997976Y-14632976D02*
X6131309Y-14632976D01*
X6045595Y-14832976D01*
X6197976Y-14632976D02*
X6197976Y-14671071D01*
X6274167Y-14632976D02*
X6274167Y-14671071D01*
X6569405Y-14909167D02*
X6559881Y-14899643D01*
X6540833Y-14871071D01*
X6531309Y-14852024D01*
X6521786Y-14823452D01*
X6512262Y-14775833D01*
X6512262Y-14737738D01*
X6521786Y-14690119D01*
X6531309Y-14661548D01*
X6540833Y-14642500D01*
X6559881Y-14613928D01*
X6569405Y-14604405D01*
X6731309Y-14699643D02*
X6731309Y-14832976D01*
X6683690Y-14623452D02*
X6636071Y-14766309D01*
X6759881Y-14766309D01*
X6988452Y-14832976D02*
X6988452Y-14632976D01*
X7074167Y-14832976D02*
X7074167Y-14728214D01*
X7064643Y-14709167D01*
X7045595Y-14699643D01*
X7017024Y-14699643D01*
X6997976Y-14709167D01*
X6988452Y-14718690D01*
X7197976Y-14832976D02*
X7178928Y-14823452D01*
X7169405Y-14813928D01*
X7159881Y-14794881D01*
X7159881Y-14737738D01*
X7169405Y-14718690D01*
X7178928Y-14709167D01*
X7197976Y-14699643D01*
X7226548Y-14699643D01*
X7245595Y-14709167D01*
X7255119Y-14718690D01*
X7264643Y-14737738D01*
X7264643Y-14794881D01*
X7255119Y-14813928D01*
X7245595Y-14823452D01*
X7226548Y-14832976D01*
X7197976Y-14832976D01*
X7378928Y-14832976D02*
X7359881Y-14823452D01*
X7350357Y-14804405D01*
X7350357Y-14632976D01*
X7531309Y-14823452D02*
X7512262Y-14832976D01*
X7474167Y-14832976D01*
X7455119Y-14823452D01*
X7445595Y-14804405D01*
X7445595Y-14728214D01*
X7455119Y-14709167D01*
X7474167Y-14699643D01*
X7512262Y-14699643D01*
X7531309Y-14709167D01*
X7540833Y-14728214D01*
X7540833Y-14747262D01*
X7445595Y-14766309D01*
X7617024Y-14823452D02*
X7636071Y-14832976D01*
X7674167Y-14832976D01*
X7693214Y-14823452D01*
X7702738Y-14804405D01*
X7702738Y-14794881D01*
X7693214Y-14775833D01*
X7674167Y-14766309D01*
X7645595Y-14766309D01*
X7626548Y-14756786D01*
X7617024Y-14737738D01*
X7617024Y-14728214D01*
X7626548Y-14709167D01*
X7645595Y-14699643D01*
X7674167Y-14699643D01*
X7693214Y-14709167D01*
X7769405Y-14909167D02*
X7778928Y-14899643D01*
X7797976Y-14871071D01*
X7807500Y-14852024D01*
X7817024Y-14823452D01*
X7826548Y-14775833D01*
X7826548Y-14737738D01*
X7817024Y-14690119D01*
X7807500Y-14661548D01*
X7797976Y-14642500D01*
X7778928Y-14613928D01*
X7769405Y-14604405D01*
D13*
X2997500Y-15006500D02*
G75*
G03*
X2997500Y-15006500I-40000J0D01*
G01*
D11*
X3293214Y-14896976D02*
X3312262Y-14896976D01*
X3331309Y-14906500D01*
X3340833Y-14916024D01*
X3350357Y-14935071D01*
X3359881Y-14973167D01*
X3359881Y-15020786D01*
X3350357Y-15058881D01*
X3340833Y-15077928D01*
X3331309Y-15087452D01*
X3312262Y-15096976D01*
X3293214Y-15096976D01*
X3274167Y-15087452D01*
X3264643Y-15077928D01*
X3255119Y-15058881D01*
X3245595Y-15020786D01*
X3245595Y-14973167D01*
X3255119Y-14935071D01*
X3264643Y-14916024D01*
X3274167Y-14906500D01*
X3293214Y-14896976D01*
X3445595Y-15077928D02*
X3455119Y-15087452D01*
X3445595Y-15096976D01*
X3436071Y-15087452D01*
X3445595Y-15077928D01*
X3445595Y-15096976D01*
X3569405Y-14982690D02*
X3550357Y-14973167D01*
X3540833Y-14963643D01*
X3531309Y-14944595D01*
X3531309Y-14935071D01*
X3540833Y-14916024D01*
X3550357Y-14906500D01*
X3569405Y-14896976D01*
X3607500Y-14896976D01*
X3626548Y-14906500D01*
X3636071Y-14916024D01*
X3645595Y-14935071D01*
X3645595Y-14944595D01*
X3636071Y-14963643D01*
X3626548Y-14973167D01*
X3607500Y-14982690D01*
X3569405Y-14982690D01*
X3550357Y-14992214D01*
X3540833Y-15001738D01*
X3531309Y-15020786D01*
X3531309Y-15058881D01*
X3540833Y-15077928D01*
X3550357Y-15087452D01*
X3569405Y-15096976D01*
X3607500Y-15096976D01*
X3626548Y-15087452D01*
X3636071Y-15077928D01*
X3645595Y-15058881D01*
X3645595Y-15020786D01*
X3636071Y-15001738D01*
X3626548Y-14992214D01*
X3607500Y-14982690D01*
X3769405Y-14896976D02*
X3788452Y-14896976D01*
X3807500Y-14906500D01*
X3817024Y-14916024D01*
X3826548Y-14935071D01*
X3836071Y-14973167D01*
X3836071Y-15020786D01*
X3826548Y-15058881D01*
X3817024Y-15077928D01*
X3807500Y-15087452D01*
X3788452Y-15096976D01*
X3769405Y-15096976D01*
X3750357Y-15087452D01*
X3740833Y-15077928D01*
X3731309Y-15058881D01*
X3721786Y-15020786D01*
X3721786Y-14973167D01*
X3731309Y-14935071D01*
X3740833Y-14916024D01*
X3750357Y-14906500D01*
X3769405Y-14896976D01*
X3959881Y-14896976D02*
X3978928Y-14896976D01*
X3997976Y-14906500D01*
X4007500Y-14916024D01*
X4017024Y-14935071D01*
X4026548Y-14973167D01*
X4026548Y-15020786D01*
X4017024Y-15058881D01*
X4007500Y-15077928D01*
X3997976Y-15087452D01*
X3978928Y-15096976D01*
X3959881Y-15096976D01*
X3940833Y-15087452D01*
X3931309Y-15077928D01*
X3921786Y-15058881D01*
X3912262Y-15020786D01*
X3912262Y-14973167D01*
X3921786Y-14935071D01*
X3931309Y-14916024D01*
X3940833Y-14906500D01*
X3959881Y-14896976D01*
X4112262Y-15096976D02*
X4112262Y-14963643D01*
X4112262Y-14982690D02*
X4121786Y-14973167D01*
X4140833Y-14963643D01*
X4169405Y-14963643D01*
X4188452Y-14973167D01*
X4197976Y-14992214D01*
X4197976Y-15096976D01*
X4197976Y-14992214D02*
X4207500Y-14973167D01*
X4226548Y-14963643D01*
X4255119Y-14963643D01*
X4274167Y-14973167D01*
X4283690Y-14992214D01*
X4283690Y-15096976D01*
X4378929Y-15096976D02*
X4378929Y-14963643D01*
X4378929Y-14982690D02*
X4388452Y-14973167D01*
X4407500Y-14963643D01*
X4436071Y-14963643D01*
X4455119Y-14973167D01*
X4464643Y-14992214D01*
X4464643Y-15096976D01*
X4464643Y-14992214D02*
X4474167Y-14973167D01*
X4493214Y-14963643D01*
X4521786Y-14963643D01*
X4540833Y-14973167D01*
X4550357Y-14992214D01*
X4550357Y-15096976D01*
X4940833Y-14887452D02*
X4769405Y-15144595D01*
X5197976Y-14896976D02*
X5217024Y-14896976D01*
X5236071Y-14906500D01*
X5245595Y-14916024D01*
X5255119Y-14935071D01*
X5264643Y-14973167D01*
X5264643Y-15020786D01*
X5255119Y-15058881D01*
X5245595Y-15077928D01*
X5236071Y-15087452D01*
X5217024Y-15096976D01*
X5197976Y-15096976D01*
X5178929Y-15087452D01*
X5169405Y-15077928D01*
X5159881Y-15058881D01*
X5150357Y-15020786D01*
X5150357Y-14973167D01*
X5159881Y-14935071D01*
X5169405Y-14916024D01*
X5178929Y-14906500D01*
X5197976Y-14896976D01*
X5350357Y-15077928D02*
X5359881Y-15087452D01*
X5350357Y-15096976D01*
X5340833Y-15087452D01*
X5350357Y-15077928D01*
X5350357Y-15096976D01*
X5483690Y-14896976D02*
X5502738Y-14896976D01*
X5521786Y-14906500D01*
X5531310Y-14916024D01*
X5540833Y-14935071D01*
X5550357Y-14973167D01*
X5550357Y-15020786D01*
X5540833Y-15058881D01*
X5531310Y-15077928D01*
X5521786Y-15087452D01*
X5502738Y-15096976D01*
X5483690Y-15096976D01*
X5464643Y-15087452D01*
X5455119Y-15077928D01*
X5445595Y-15058881D01*
X5436071Y-15020786D01*
X5436071Y-14973167D01*
X5445595Y-14935071D01*
X5455119Y-14916024D01*
X5464643Y-14906500D01*
X5483690Y-14896976D01*
X5617024Y-14896976D02*
X5740833Y-14896976D01*
X5674167Y-14973167D01*
X5702738Y-14973167D01*
X5721786Y-14982690D01*
X5731309Y-14992214D01*
X5740833Y-15011262D01*
X5740833Y-15058881D01*
X5731309Y-15077928D01*
X5721786Y-15087452D01*
X5702738Y-15096976D01*
X5645595Y-15096976D01*
X5626548Y-15087452D01*
X5617024Y-15077928D01*
X5931309Y-15096976D02*
X5817024Y-15096976D01*
X5874167Y-15096976D02*
X5874167Y-14896976D01*
X5855119Y-14925548D01*
X5836071Y-14944595D01*
X5817024Y-14954119D01*
X6112262Y-14896976D02*
X6017024Y-14896976D01*
X6007500Y-14992214D01*
X6017024Y-14982690D01*
X6036071Y-14973167D01*
X6083690Y-14973167D01*
X6102738Y-14982690D01*
X6112262Y-14992214D01*
X6121786Y-15011262D01*
X6121786Y-15058881D01*
X6112262Y-15077928D01*
X6102738Y-15087452D01*
X6083690Y-15096976D01*
X6036071Y-15096976D01*
X6017024Y-15087452D01*
X6007500Y-15077928D01*
X6197976Y-14896976D02*
X6197976Y-14935071D01*
X6274167Y-14896976D02*
X6274167Y-14935071D01*
X6569405Y-15173167D02*
X6559881Y-15163643D01*
X6540833Y-15135071D01*
X6531309Y-15116024D01*
X6521786Y-15087452D01*
X6512262Y-15039833D01*
X6512262Y-15001738D01*
X6521786Y-14954119D01*
X6531309Y-14925548D01*
X6540833Y-14906500D01*
X6559881Y-14877928D01*
X6569405Y-14868405D01*
X6750357Y-15096976D02*
X6636071Y-15096976D01*
X6693214Y-15096976D02*
X6693214Y-14896976D01*
X6674167Y-14925548D01*
X6655119Y-14944595D01*
X6636071Y-14954119D01*
X6874167Y-14896976D02*
X6893214Y-14896976D01*
X6912262Y-14906500D01*
X6921786Y-14916024D01*
X6931309Y-14935071D01*
X6940833Y-14973167D01*
X6940833Y-15020786D01*
X6931309Y-15058881D01*
X6921786Y-15077928D01*
X6912262Y-15087452D01*
X6893214Y-15096976D01*
X6874167Y-15096976D01*
X6855119Y-15087452D01*
X6845595Y-15077928D01*
X6836071Y-15058881D01*
X6826548Y-15020786D01*
X6826548Y-14973167D01*
X6836071Y-14935071D01*
X6845595Y-14916024D01*
X6855119Y-14906500D01*
X6874167Y-14896976D01*
X7055119Y-14982690D02*
X7036071Y-14973167D01*
X7026548Y-14963643D01*
X7017024Y-14944595D01*
X7017024Y-14935071D01*
X7026548Y-14916024D01*
X7036071Y-14906500D01*
X7055119Y-14896976D01*
X7093214Y-14896976D01*
X7112262Y-14906500D01*
X7121786Y-14916024D01*
X7131309Y-14935071D01*
X7131309Y-14944595D01*
X7121786Y-14963643D01*
X7112262Y-14973167D01*
X7093214Y-14982690D01*
X7055119Y-14982690D01*
X7036071Y-14992214D01*
X7026548Y-15001738D01*
X7017024Y-15020786D01*
X7017024Y-15058881D01*
X7026548Y-15077928D01*
X7036071Y-15087452D01*
X7055119Y-15096976D01*
X7093214Y-15096976D01*
X7112262Y-15087452D01*
X7121786Y-15077928D01*
X7131309Y-15058881D01*
X7131309Y-15020786D01*
X7121786Y-15001738D01*
X7112262Y-14992214D01*
X7093214Y-14982690D01*
X7369405Y-15096976D02*
X7369405Y-14896976D01*
X7455119Y-15096976D02*
X7455119Y-14992214D01*
X7445595Y-14973167D01*
X7426548Y-14963643D01*
X7397976Y-14963643D01*
X7378928Y-14973167D01*
X7369405Y-14982690D01*
X7578928Y-15096976D02*
X7559881Y-15087452D01*
X7550357Y-15077928D01*
X7540833Y-15058881D01*
X7540833Y-15001738D01*
X7550357Y-14982690D01*
X7559881Y-14973167D01*
X7578928Y-14963643D01*
X7607500Y-14963643D01*
X7626548Y-14973167D01*
X7636071Y-14982690D01*
X7645595Y-15001738D01*
X7645595Y-15058881D01*
X7636071Y-15077928D01*
X7626548Y-15087452D01*
X7607500Y-15096976D01*
X7578928Y-15096976D01*
X7759881Y-15096976D02*
X7740833Y-15087452D01*
X7731309Y-15068405D01*
X7731309Y-14896976D01*
X7912262Y-15087452D02*
X7893214Y-15096976D01*
X7855119Y-15096976D01*
X7836071Y-15087452D01*
X7826548Y-15068405D01*
X7826548Y-14992214D01*
X7836071Y-14973167D01*
X7855119Y-14963643D01*
X7893214Y-14963643D01*
X7912262Y-14973167D01*
X7921786Y-14992214D01*
X7921786Y-15011262D01*
X7826548Y-15030309D01*
X7997976Y-15087452D02*
X8017024Y-15096976D01*
X8055119Y-15096976D01*
X8074167Y-15087452D01*
X8083690Y-15068405D01*
X8083690Y-15058881D01*
X8074167Y-15039833D01*
X8055119Y-15030309D01*
X8026548Y-15030309D01*
X8007500Y-15020786D01*
X7997976Y-15001738D01*
X7997976Y-14992214D01*
X8007500Y-14973167D01*
X8026548Y-14963643D01*
X8055119Y-14963643D01*
X8074167Y-14973167D01*
X8150357Y-15173167D02*
X8159881Y-15163643D01*
X8178928Y-15135071D01*
X8188452Y-15116024D01*
X8197976Y-15087452D01*
X8207500Y-15039833D01*
X8207500Y-15001738D01*
X8197976Y-14954119D01*
X8188452Y-14925548D01*
X8178928Y-14906500D01*
X8159881Y-14877928D01*
X8150357Y-14868405D01*
D14*
X2952500Y-15225500D02*
X2952500Y-15315500D01*
X2907500Y-15270500D02*
X2997500Y-15270500D01*
D11*
X3293214Y-15160976D02*
X3312262Y-15160976D01*
X3331309Y-15170500D01*
X3340833Y-15180024D01*
X3350357Y-15199071D01*
X3359881Y-15237167D01*
X3359881Y-15284786D01*
X3350357Y-15322881D01*
X3340833Y-15341928D01*
X3331309Y-15351452D01*
X3312262Y-15360976D01*
X3293214Y-15360976D01*
X3274167Y-15351452D01*
X3264643Y-15341928D01*
X3255119Y-15322881D01*
X3245595Y-15284786D01*
X3245595Y-15237167D01*
X3255119Y-15199071D01*
X3264643Y-15180024D01*
X3274167Y-15170500D01*
X3293214Y-15160976D01*
X3445595Y-15341928D02*
X3455119Y-15351452D01*
X3445595Y-15360976D01*
X3436071Y-15351452D01*
X3445595Y-15341928D01*
X3445595Y-15360976D01*
X3550357Y-15360976D02*
X3588452Y-15360976D01*
X3607500Y-15351452D01*
X3617024Y-15341928D01*
X3636071Y-15313357D01*
X3645595Y-15275262D01*
X3645595Y-15199071D01*
X3636071Y-15180024D01*
X3626548Y-15170500D01*
X3607500Y-15160976D01*
X3569405Y-15160976D01*
X3550357Y-15170500D01*
X3540833Y-15180024D01*
X3531309Y-15199071D01*
X3531309Y-15246690D01*
X3540833Y-15265738D01*
X3550357Y-15275262D01*
X3569405Y-15284786D01*
X3607500Y-15284786D01*
X3626548Y-15275262D01*
X3636071Y-15265738D01*
X3645595Y-15246690D01*
X3769405Y-15160976D02*
X3788452Y-15160976D01*
X3807500Y-15170500D01*
X3817024Y-15180024D01*
X3826548Y-15199071D01*
X3836071Y-15237167D01*
X3836071Y-15284786D01*
X3826548Y-15322881D01*
X3817024Y-15341928D01*
X3807500Y-15351452D01*
X3788452Y-15360976D01*
X3769405Y-15360976D01*
X3750357Y-15351452D01*
X3740833Y-15341928D01*
X3731309Y-15322881D01*
X3721786Y-15284786D01*
X3721786Y-15237167D01*
X3731309Y-15199071D01*
X3740833Y-15180024D01*
X3750357Y-15170500D01*
X3769405Y-15160976D01*
X3959881Y-15160976D02*
X3978928Y-15160976D01*
X3997976Y-15170500D01*
X4007500Y-15180024D01*
X4017024Y-15199071D01*
X4026548Y-15237167D01*
X4026548Y-15284786D01*
X4017024Y-15322881D01*
X4007500Y-15341928D01*
X3997976Y-15351452D01*
X3978928Y-15360976D01*
X3959881Y-15360976D01*
X3940833Y-15351452D01*
X3931309Y-15341928D01*
X3921786Y-15322881D01*
X3912262Y-15284786D01*
X3912262Y-15237167D01*
X3921786Y-15199071D01*
X3931309Y-15180024D01*
X3940833Y-15170500D01*
X3959881Y-15160976D01*
X4112262Y-15360976D02*
X4112262Y-15227643D01*
X4112262Y-15246690D02*
X4121786Y-15237167D01*
X4140833Y-15227643D01*
X4169405Y-15227643D01*
X4188452Y-15237167D01*
X4197976Y-15256214D01*
X4197976Y-15360976D01*
X4197976Y-15256214D02*
X4207500Y-15237167D01*
X4226548Y-15227643D01*
X4255119Y-15227643D01*
X4274167Y-15237167D01*
X4283690Y-15256214D01*
X4283690Y-15360976D01*
X4378929Y-15360976D02*
X4378929Y-15227643D01*
X4378929Y-15246690D02*
X4388452Y-15237167D01*
X4407500Y-15227643D01*
X4436071Y-15227643D01*
X4455119Y-15237167D01*
X4464643Y-15256214D01*
X4464643Y-15360976D01*
X4464643Y-15256214D02*
X4474167Y-15237167D01*
X4493214Y-15227643D01*
X4521786Y-15227643D01*
X4540833Y-15237167D01*
X4550357Y-15256214D01*
X4550357Y-15360976D01*
X4940833Y-15151452D02*
X4769405Y-15408595D01*
X5197976Y-15160976D02*
X5217024Y-15160976D01*
X5236071Y-15170500D01*
X5245595Y-15180024D01*
X5255119Y-15199071D01*
X5264643Y-15237167D01*
X5264643Y-15284786D01*
X5255119Y-15322881D01*
X5245595Y-15341928D01*
X5236071Y-15351452D01*
X5217024Y-15360976D01*
X5197976Y-15360976D01*
X5178929Y-15351452D01*
X5169405Y-15341928D01*
X5159881Y-15322881D01*
X5150357Y-15284786D01*
X5150357Y-15237167D01*
X5159881Y-15199071D01*
X5169405Y-15180024D01*
X5178929Y-15170500D01*
X5197976Y-15160976D01*
X5350357Y-15341928D02*
X5359881Y-15351452D01*
X5350357Y-15360976D01*
X5340833Y-15351452D01*
X5350357Y-15341928D01*
X5350357Y-15360976D01*
X5483690Y-15160976D02*
X5502738Y-15160976D01*
X5521786Y-15170500D01*
X5531310Y-15180024D01*
X5540833Y-15199071D01*
X5550357Y-15237167D01*
X5550357Y-15284786D01*
X5540833Y-15322881D01*
X5531310Y-15341928D01*
X5521786Y-15351452D01*
X5502738Y-15360976D01*
X5483690Y-15360976D01*
X5464643Y-15351452D01*
X5455119Y-15341928D01*
X5445595Y-15322881D01*
X5436071Y-15284786D01*
X5436071Y-15237167D01*
X5445595Y-15199071D01*
X5455119Y-15180024D01*
X5464643Y-15170500D01*
X5483690Y-15160976D01*
X5617024Y-15160976D02*
X5740833Y-15160976D01*
X5674167Y-15237167D01*
X5702738Y-15237167D01*
X5721786Y-15246690D01*
X5731309Y-15256214D01*
X5740833Y-15275262D01*
X5740833Y-15322881D01*
X5731309Y-15341928D01*
X5721786Y-15351452D01*
X5702738Y-15360976D01*
X5645595Y-15360976D01*
X5626548Y-15351452D01*
X5617024Y-15341928D01*
X5921786Y-15160976D02*
X5826548Y-15160976D01*
X5817024Y-15256214D01*
X5826548Y-15246690D01*
X5845595Y-15237167D01*
X5893214Y-15237167D01*
X5912262Y-15246690D01*
X5921786Y-15256214D01*
X5931309Y-15275262D01*
X5931309Y-15322881D01*
X5921786Y-15341928D01*
X5912262Y-15351452D01*
X5893214Y-15360976D01*
X5845595Y-15360976D01*
X5826548Y-15351452D01*
X5817024Y-15341928D01*
X6102738Y-15227643D02*
X6102738Y-15360976D01*
X6055119Y-15151452D02*
X6007500Y-15294309D01*
X6131309Y-15294309D01*
X6197976Y-15160976D02*
X6197976Y-15199071D01*
X6274167Y-15160976D02*
X6274167Y-15199071D01*
X6569405Y-15437167D02*
X6559881Y-15427643D01*
X6540833Y-15399071D01*
X6531309Y-15380024D01*
X6521786Y-15351452D01*
X6512262Y-15303833D01*
X6512262Y-15265738D01*
X6521786Y-15218119D01*
X6531309Y-15189548D01*
X6540833Y-15170500D01*
X6559881Y-15141928D01*
X6569405Y-15132405D01*
X6636071Y-15180024D02*
X6645595Y-15170500D01*
X6664643Y-15160976D01*
X6712262Y-15160976D01*
X6731309Y-15170500D01*
X6740833Y-15180024D01*
X6750357Y-15199071D01*
X6750357Y-15218119D01*
X6740833Y-15246690D01*
X6626548Y-15360976D01*
X6750357Y-15360976D01*
X6988452Y-15360976D02*
X6988452Y-15160976D01*
X7074167Y-15360976D02*
X7074167Y-15256214D01*
X7064643Y-15237167D01*
X7045595Y-15227643D01*
X7017024Y-15227643D01*
X6997976Y-15237167D01*
X6988452Y-15246690D01*
X7197976Y-15360976D02*
X7178928Y-15351452D01*
X7169405Y-15341928D01*
X7159881Y-15322881D01*
X7159881Y-15265738D01*
X7169405Y-15246690D01*
X7178928Y-15237167D01*
X7197976Y-15227643D01*
X7226548Y-15227643D01*
X7245595Y-15237167D01*
X7255119Y-15246690D01*
X7264643Y-15265738D01*
X7264643Y-15322881D01*
X7255119Y-15341928D01*
X7245595Y-15351452D01*
X7226548Y-15360976D01*
X7197976Y-15360976D01*
X7378928Y-15360976D02*
X7359881Y-15351452D01*
X7350357Y-15332405D01*
X7350357Y-15160976D01*
X7531309Y-15351452D02*
X7512262Y-15360976D01*
X7474167Y-15360976D01*
X7455119Y-15351452D01*
X7445595Y-15332405D01*
X7445595Y-15256214D01*
X7455119Y-15237167D01*
X7474167Y-15227643D01*
X7512262Y-15227643D01*
X7531309Y-15237167D01*
X7540833Y-15256214D01*
X7540833Y-15275262D01*
X7445595Y-15294309D01*
X7617024Y-15351452D02*
X7636071Y-15360976D01*
X7674167Y-15360976D01*
X7693214Y-15351452D01*
X7702738Y-15332405D01*
X7702738Y-15322881D01*
X7693214Y-15303833D01*
X7674167Y-15294309D01*
X7645595Y-15294309D01*
X7626548Y-15284786D01*
X7617024Y-15265738D01*
X7617024Y-15256214D01*
X7626548Y-15237167D01*
X7645595Y-15227643D01*
X7674167Y-15227643D01*
X7693214Y-15237167D01*
X7769405Y-15437167D02*
X7778928Y-15427643D01*
X7797976Y-15399071D01*
X7807500Y-15380024D01*
X7817024Y-15351452D01*
X7826548Y-15303833D01*
X7826548Y-15265738D01*
X7817024Y-15218119D01*
X7807500Y-15189548D01*
X7797976Y-15170500D01*
X7778928Y-15141928D01*
X7769405Y-15132405D01*
D15*
X2982856Y-15569856D02*
X2982856Y-15499144D01*
X2912144Y-15499144D01*
X2912144Y-15569856D01*
X2982856Y-15569856D01*
D11*
X3359881Y-15624976D02*
X3245595Y-15624976D01*
X3302738Y-15624976D02*
X3302738Y-15424976D01*
X3283690Y-15453548D01*
X3264643Y-15472595D01*
X3245595Y-15482119D01*
X3445595Y-15605928D02*
X3455119Y-15615452D01*
X3445595Y-15624976D01*
X3436071Y-15615452D01*
X3445595Y-15605928D01*
X3445595Y-15624976D01*
X3578928Y-15424976D02*
X3597976Y-15424976D01*
X3617024Y-15434500D01*
X3626548Y-15444024D01*
X3636071Y-15463071D01*
X3645595Y-15501167D01*
X3645595Y-15548786D01*
X3636071Y-15586881D01*
X3626548Y-15605928D01*
X3617024Y-15615452D01*
X3597976Y-15624976D01*
X3578928Y-15624976D01*
X3559881Y-15615452D01*
X3550357Y-15605928D01*
X3540833Y-15586881D01*
X3531309Y-15548786D01*
X3531309Y-15501167D01*
X3540833Y-15463071D01*
X3550357Y-15444024D01*
X3559881Y-15434500D01*
X3578928Y-15424976D01*
X3769405Y-15424976D02*
X3788452Y-15424976D01*
X3807500Y-15434500D01*
X3817024Y-15444024D01*
X3826548Y-15463071D01*
X3836071Y-15501167D01*
X3836071Y-15548786D01*
X3826548Y-15586881D01*
X3817024Y-15605928D01*
X3807500Y-15615452D01*
X3788452Y-15624976D01*
X3769405Y-15624976D01*
X3750357Y-15615452D01*
X3740833Y-15605928D01*
X3731309Y-15586881D01*
X3721786Y-15548786D01*
X3721786Y-15501167D01*
X3731309Y-15463071D01*
X3740833Y-15444024D01*
X3750357Y-15434500D01*
X3769405Y-15424976D01*
X3959881Y-15424976D02*
X3978928Y-15424976D01*
X3997976Y-15434500D01*
X4007500Y-15444024D01*
X4017024Y-15463071D01*
X4026548Y-15501167D01*
X4026548Y-15548786D01*
X4017024Y-15586881D01*
X4007500Y-15605928D01*
X3997976Y-15615452D01*
X3978928Y-15624976D01*
X3959881Y-15624976D01*
X3940833Y-15615452D01*
X3931309Y-15605928D01*
X3921786Y-15586881D01*
X3912262Y-15548786D01*
X3912262Y-15501167D01*
X3921786Y-15463071D01*
X3931309Y-15444024D01*
X3940833Y-15434500D01*
X3959881Y-15424976D01*
X4112262Y-15624976D02*
X4112262Y-15491643D01*
X4112262Y-15510690D02*
X4121786Y-15501167D01*
X4140833Y-15491643D01*
X4169405Y-15491643D01*
X4188452Y-15501167D01*
X4197976Y-15520214D01*
X4197976Y-15624976D01*
X4197976Y-15520214D02*
X4207500Y-15501167D01*
X4226548Y-15491643D01*
X4255119Y-15491643D01*
X4274167Y-15501167D01*
X4283690Y-15520214D01*
X4283690Y-15624976D01*
X4378929Y-15624976D02*
X4378929Y-15491643D01*
X4378929Y-15510690D02*
X4388452Y-15501167D01*
X4407500Y-15491643D01*
X4436071Y-15491643D01*
X4455119Y-15501167D01*
X4464643Y-15520214D01*
X4464643Y-15624976D01*
X4464643Y-15520214D02*
X4474167Y-15501167D01*
X4493214Y-15491643D01*
X4521786Y-15491643D01*
X4540833Y-15501167D01*
X4550357Y-15520214D01*
X4550357Y-15624976D01*
X4940833Y-15415452D02*
X4769405Y-15672595D01*
X5197976Y-15424976D02*
X5217024Y-15424976D01*
X5236071Y-15434500D01*
X5245595Y-15444024D01*
X5255119Y-15463071D01*
X5264643Y-15501167D01*
X5264643Y-15548786D01*
X5255119Y-15586881D01*
X5245595Y-15605928D01*
X5236071Y-15615452D01*
X5217024Y-15624976D01*
X5197976Y-15624976D01*
X5178929Y-15615452D01*
X5169405Y-15605928D01*
X5159881Y-15586881D01*
X5150357Y-15548786D01*
X5150357Y-15501167D01*
X5159881Y-15463071D01*
X5169405Y-15444024D01*
X5178929Y-15434500D01*
X5197976Y-15424976D01*
X5350357Y-15605928D02*
X5359881Y-15615452D01*
X5350357Y-15624976D01*
X5340833Y-15615452D01*
X5350357Y-15605928D01*
X5350357Y-15624976D01*
X5483690Y-15424976D02*
X5502738Y-15424976D01*
X5521786Y-15434500D01*
X5531310Y-15444024D01*
X5540833Y-15463071D01*
X5550357Y-15501167D01*
X5550357Y-15548786D01*
X5540833Y-15586881D01*
X5531310Y-15605928D01*
X5521786Y-15615452D01*
X5502738Y-15624976D01*
X5483690Y-15624976D01*
X5464643Y-15615452D01*
X5455119Y-15605928D01*
X5445595Y-15586881D01*
X5436071Y-15548786D01*
X5436071Y-15501167D01*
X5445595Y-15463071D01*
X5455119Y-15444024D01*
X5464643Y-15434500D01*
X5483690Y-15424976D01*
X5617024Y-15424976D02*
X5740833Y-15424976D01*
X5674167Y-15501167D01*
X5702738Y-15501167D01*
X5721786Y-15510690D01*
X5731309Y-15520214D01*
X5740833Y-15539262D01*
X5740833Y-15586881D01*
X5731309Y-15605928D01*
X5721786Y-15615452D01*
X5702738Y-15624976D01*
X5645595Y-15624976D01*
X5626548Y-15615452D01*
X5617024Y-15605928D01*
X5836071Y-15624976D02*
X5874167Y-15624976D01*
X5893214Y-15615452D01*
X5902738Y-15605928D01*
X5921786Y-15577357D01*
X5931309Y-15539262D01*
X5931309Y-15463071D01*
X5921786Y-15444024D01*
X5912262Y-15434500D01*
X5893214Y-15424976D01*
X5855119Y-15424976D01*
X5836071Y-15434500D01*
X5826548Y-15444024D01*
X5817024Y-15463071D01*
X5817024Y-15510690D01*
X5826548Y-15529738D01*
X5836071Y-15539262D01*
X5855119Y-15548786D01*
X5893214Y-15548786D01*
X5912262Y-15539262D01*
X5921786Y-15529738D01*
X5931309Y-15510690D01*
X6102738Y-15491643D02*
X6102738Y-15624976D01*
X6055119Y-15415452D02*
X6007500Y-15558309D01*
X6131309Y-15558309D01*
X6197976Y-15424976D02*
X6197976Y-15463071D01*
X6274167Y-15424976D02*
X6274167Y-15463071D01*
X6569405Y-15701167D02*
X6559881Y-15691643D01*
X6540833Y-15663071D01*
X6531309Y-15644024D01*
X6521786Y-15615452D01*
X6512262Y-15567833D01*
X6512262Y-15529738D01*
X6521786Y-15482119D01*
X6531309Y-15453548D01*
X6540833Y-15434500D01*
X6559881Y-15405928D01*
X6569405Y-15396405D01*
X6626548Y-15424976D02*
X6750357Y-15424976D01*
X6683690Y-15501167D01*
X6712262Y-15501167D01*
X6731309Y-15510690D01*
X6740833Y-15520214D01*
X6750357Y-15539262D01*
X6750357Y-15586881D01*
X6740833Y-15605928D01*
X6731309Y-15615452D01*
X6712262Y-15624976D01*
X6655119Y-15624976D01*
X6636071Y-15615452D01*
X6626548Y-15605928D01*
X6817024Y-15424976D02*
X6940833Y-15424976D01*
X6874167Y-15501167D01*
X6902738Y-15501167D01*
X6921786Y-15510690D01*
X6931309Y-15520214D01*
X6940833Y-15539262D01*
X6940833Y-15586881D01*
X6931309Y-15605928D01*
X6921786Y-15615452D01*
X6902738Y-15624976D01*
X6845595Y-15624976D01*
X6826548Y-15615452D01*
X6817024Y-15605928D01*
X7178928Y-15624976D02*
X7178928Y-15424976D01*
X7264643Y-15624976D02*
X7264643Y-15520214D01*
X7255119Y-15501167D01*
X7236071Y-15491643D01*
X7207500Y-15491643D01*
X7188452Y-15501167D01*
X7178928Y-15510690D01*
X7388452Y-15624976D02*
X7369405Y-15615452D01*
X7359881Y-15605928D01*
X7350357Y-15586881D01*
X7350357Y-15529738D01*
X7359881Y-15510690D01*
X7369405Y-15501167D01*
X7388452Y-15491643D01*
X7417024Y-15491643D01*
X7436071Y-15501167D01*
X7445595Y-15510690D01*
X7455119Y-15529738D01*
X7455119Y-15586881D01*
X7445595Y-15605928D01*
X7436071Y-15615452D01*
X7417024Y-15624976D01*
X7388452Y-15624976D01*
X7569405Y-15624976D02*
X7550357Y-15615452D01*
X7540833Y-15596405D01*
X7540833Y-15424976D01*
X7721786Y-15615452D02*
X7702738Y-15624976D01*
X7664643Y-15624976D01*
X7645595Y-15615452D01*
X7636071Y-15596405D01*
X7636071Y-15520214D01*
X7645595Y-15501167D01*
X7664643Y-15491643D01*
X7702738Y-15491643D01*
X7721786Y-15501167D01*
X7731309Y-15520214D01*
X7731309Y-15539262D01*
X7636071Y-15558309D01*
X7807500Y-15615452D02*
X7826548Y-15624976D01*
X7864643Y-15624976D01*
X7883690Y-15615452D01*
X7893214Y-15596405D01*
X7893214Y-15586881D01*
X7883690Y-15567833D01*
X7864643Y-15558309D01*
X7836071Y-15558309D01*
X7817024Y-15548786D01*
X7807500Y-15529738D01*
X7807500Y-15520214D01*
X7817024Y-15501167D01*
X7836071Y-15491643D01*
X7864643Y-15491643D01*
X7883690Y-15501167D01*
X7959881Y-15701167D02*
X7969405Y-15691643D01*
X7988452Y-15663071D01*
X7997976Y-15644024D01*
X8007500Y-15615452D01*
X8017024Y-15567833D01*
X8017024Y-15529738D01*
X8007500Y-15482119D01*
X7997976Y-15453548D01*
X7988452Y-15434500D01*
X7969405Y-15405928D01*
X7959881Y-15396405D01*
M02*
