G04 #@! TF.GenerationSoftware,KiCad,Pcbnew,(6.0.1)*
G04 #@! TF.CreationDate,2022-02-10T17:34:38+01:00*
G04 #@! TF.ProjectId,Drumbox,4472756d-626f-4782-9e6b-696361645f70,rev?*
G04 #@! TF.SameCoordinates,Original*
G04 #@! TF.FileFunction,Soldermask,Top*
G04 #@! TF.FilePolarity,Negative*
%FSLAX46Y46*%
G04 Gerber Fmt 4.6, Leading zero omitted, Abs format (unit mm)*
G04 Created by KiCad (PCBNEW (6.0.1)) date 2022-02-10 17:34:38*
%MOMM*%
%LPD*%
G01*
G04 APERTURE LIST*
%ADD10C,1.600000*%
%ADD11R,1.700000X1.700000*%
%ADD12O,1.700000X1.700000*%
%ADD13O,1.600000X1.600000*%
%ADD14R,1.600000X1.600000*%
%ADD15C,2.000000*%
%ADD16O,2.000000X2.000000*%
%ADD17R,1.800000X1.800000*%
%ADD18C,1.800000*%
G04 APERTURE END LIST*
D10*
X46000000Y-56500000D03*
X41000000Y-56500000D03*
D11*
X65000000Y-50500000D03*
D12*
X65000000Y-53040000D03*
X65000000Y-55580000D03*
X65000000Y-58120000D03*
D10*
X64580000Y-41500000D03*
D13*
X54420000Y-41500000D03*
D10*
X40000000Y-86840000D03*
D13*
X40000000Y-97000000D03*
D14*
X41455113Y-132225000D03*
D10*
X39455113Y-132225000D03*
X36500000Y-84580000D03*
D13*
X36500000Y-74420000D03*
D10*
X67000000Y-134305000D03*
D13*
X67000000Y-124145000D03*
D14*
X63344888Y-88425000D03*
D10*
X65344888Y-88425000D03*
X58000000Y-83000000D03*
D13*
X47840000Y-83000000D03*
D15*
X54150000Y-137725000D03*
D16*
X66850000Y-137725000D03*
D10*
X61000000Y-72500000D03*
X66000000Y-72500000D03*
X53500000Y-58920000D03*
D13*
X53500000Y-69080000D03*
D11*
X35000000Y-132500000D03*
D12*
X35000000Y-129960000D03*
X35000000Y-127420000D03*
D14*
X39690000Y-50500000D03*
D13*
X47310000Y-50500000D03*
D10*
X58080000Y-79500000D03*
D13*
X47920000Y-79500000D03*
D10*
X50000000Y-51500000D03*
X50000000Y-56500000D03*
X37000000Y-112000000D03*
X32000000Y-112000000D03*
X64580000Y-38000000D03*
D13*
X54420000Y-38000000D03*
D10*
X50000000Y-58920000D03*
D13*
X50000000Y-69080000D03*
D10*
X43500000Y-74420000D03*
D13*
X43500000Y-84580000D03*
D15*
X38650000Y-137725000D03*
D16*
X51350000Y-137725000D03*
D10*
X60500000Y-51500000D03*
X60500000Y-56500000D03*
D14*
X39000000Y-61190000D03*
D13*
X39000000Y-68810000D03*
D10*
X61000000Y-76000000D03*
X66000000Y-76000000D03*
X60500000Y-58920000D03*
D13*
X60500000Y-69080000D03*
D10*
X58080000Y-72500000D03*
D13*
X47920000Y-72500000D03*
D11*
X35000000Y-101000000D03*
D12*
X35000000Y-103540000D03*
X35000000Y-106080000D03*
X35000000Y-108620000D03*
D10*
X53500000Y-51500000D03*
X53500000Y-56500000D03*
X60920000Y-83000000D03*
X65920000Y-83000000D03*
D11*
X65000000Y-101000000D03*
D12*
X65000000Y-103540000D03*
X65000000Y-106080000D03*
X65000000Y-108620000D03*
D10*
X39420000Y-119000000D03*
D13*
X49580000Y-119000000D03*
D10*
X43500000Y-97000000D03*
D13*
X43500000Y-86840000D03*
D10*
X57000000Y-51500000D03*
X57000000Y-56500000D03*
D11*
X35000000Y-50500000D03*
D12*
X35000000Y-53040000D03*
X35000000Y-55580000D03*
X35000000Y-58120000D03*
D10*
X39420000Y-115500000D03*
D13*
X49580000Y-115500000D03*
D10*
X37000000Y-119000000D03*
X32000000Y-119000000D03*
X58080000Y-76000000D03*
D13*
X47920000Y-76000000D03*
D10*
X57000000Y-59000000D03*
D13*
X57000000Y-69160000D03*
D14*
X36000000Y-61190000D03*
D13*
X36000000Y-68810000D03*
D10*
X33000000Y-67500000D03*
X33000000Y-62500000D03*
X46000000Y-47500000D03*
X41000000Y-47500000D03*
X40000000Y-84580000D03*
D13*
X40000000Y-74420000D03*
D10*
X36500000Y-86840000D03*
D13*
X36500000Y-97000000D03*
D14*
X52000000Y-88300000D03*
D13*
X52000000Y-90840000D03*
X52000000Y-93380000D03*
X52000000Y-95920000D03*
X52000000Y-98460000D03*
X52000000Y-101000000D03*
X52000000Y-103540000D03*
X59620000Y-103540000D03*
X59620000Y-101000000D03*
X59620000Y-98460000D03*
X59620000Y-95920000D03*
X59620000Y-93380000D03*
X59620000Y-90840000D03*
X59620000Y-88300000D03*
D10*
X42000000Y-67500000D03*
X42000000Y-62500000D03*
X64580000Y-45000000D03*
D13*
X54420000Y-45000000D03*
D10*
X33000000Y-97000000D03*
D13*
X33000000Y-86840000D03*
D10*
X37000000Y-115500000D03*
X32000000Y-115500000D03*
X61000000Y-79500000D03*
X66000000Y-79500000D03*
X39420000Y-122500000D03*
D13*
X49580000Y-122500000D03*
D10*
X39420000Y-112000000D03*
D13*
X49580000Y-112000000D03*
D10*
X37000000Y-122500000D03*
X32000000Y-122500000D03*
X64580000Y-34500000D03*
D13*
X54420000Y-34500000D03*
D14*
X39690000Y-53500000D03*
D13*
X47310000Y-53500000D03*
D10*
X33000000Y-74420000D03*
D13*
X33000000Y-84580000D03*
D17*
X63500000Y-132225000D03*
D18*
X60960000Y-132225000D03*
D11*
X56575000Y-133500000D03*
D12*
X56575000Y-130960000D03*
X54035000Y-133500000D03*
X54035000Y-130960000D03*
X51495000Y-133500000D03*
X51495000Y-130960000D03*
X48955000Y-133500000D03*
X48955000Y-130960000D03*
X46415000Y-133500000D03*
X46415000Y-130960000D03*
M02*
