G04 #@! TF.GenerationSoftware,KiCad,Pcbnew,(6.0.0)*
G04 #@! TF.CreationDate,2022-02-14T14:07:25+01:00*
G04 #@! TF.ProjectId,Basic-mixer,42617369-632d-46d6-9978-65722e6b6963,rev?*
G04 #@! TF.SameCoordinates,Original*
G04 #@! TF.FileFunction,Legend,Top*
G04 #@! TF.FilePolarity,Positive*
%FSLAX46Y46*%
G04 Gerber Fmt 4.6, Leading zero omitted, Abs format (unit mm)*
G04 Created by KiCad (PCBNEW (6.0.0)) date 2022-02-14 14:07:25*
%MOMM*%
%LPD*%
G01*
G04 APERTURE LIST*
%ADD10C,0.150000*%
%ADD11C,0.120000*%
%ADD12C,4.000000*%
%ADD13C,1.800000*%
%ADD14R,1.600000X1.600000*%
%ADD15C,1.600000*%
%ADD16O,3.700000X2.400000*%
%ADD17O,1.600000X1.600000*%
%ADD18R,1.800000X1.800000*%
%ADD19R,1.930000X1.830000*%
%ADD20C,2.130000*%
%ADD21R,1.700000X1.700000*%
%ADD22O,1.700000X1.700000*%
G04 APERTURE END LIST*
D10*
X68666666Y-106261904D02*
X68666666Y-105785714D01*
X68952380Y-106357142D02*
X67952380Y-106023809D01*
X68952380Y-105690476D01*
X68285714Y-104928571D02*
X68952380Y-104928571D01*
X68285714Y-105357142D02*
X68809523Y-105357142D01*
X68904761Y-105309523D01*
X68952380Y-105214285D01*
X68952380Y-105071428D01*
X68904761Y-104976190D01*
X68857142Y-104928571D01*
X68952380Y-104023809D02*
X67952380Y-104023809D01*
X68904761Y-104023809D02*
X68952380Y-104119047D01*
X68952380Y-104309523D01*
X68904761Y-104404761D01*
X68857142Y-104452380D01*
X68761904Y-104500000D01*
X68476190Y-104500000D01*
X68380952Y-104452380D01*
X68333333Y-104404761D01*
X68285714Y-104309523D01*
X68285714Y-104119047D01*
X68333333Y-104023809D01*
X68952380Y-103547619D02*
X68285714Y-103547619D01*
X67952380Y-103547619D02*
X68000000Y-103595238D01*
X68047619Y-103547619D01*
X68000000Y-103500000D01*
X67952380Y-103547619D01*
X68047619Y-103547619D01*
X68952380Y-102928571D02*
X68904761Y-103023809D01*
X68857142Y-103071428D01*
X68761904Y-103119047D01*
X68476190Y-103119047D01*
X68380952Y-103071428D01*
X68333333Y-103023809D01*
X68285714Y-102928571D01*
X68285714Y-102785714D01*
X68333333Y-102690476D01*
X68380952Y-102642857D01*
X68476190Y-102595238D01*
X68761904Y-102595238D01*
X68857142Y-102642857D01*
X68904761Y-102690476D01*
X68952380Y-102785714D01*
X68952380Y-102928571D01*
X68952380Y-101404761D02*
X68285714Y-101404761D01*
X68380952Y-101404761D02*
X68333333Y-101357142D01*
X68285714Y-101261904D01*
X68285714Y-101119047D01*
X68333333Y-101023809D01*
X68428571Y-100976190D01*
X68952380Y-100976190D01*
X68428571Y-100976190D02*
X68333333Y-100928571D01*
X68285714Y-100833333D01*
X68285714Y-100690476D01*
X68333333Y-100595238D01*
X68428571Y-100547619D01*
X68952380Y-100547619D01*
X68952380Y-100071428D02*
X68285714Y-100071428D01*
X67952380Y-100071428D02*
X68000000Y-100119047D01*
X68047619Y-100071428D01*
X68000000Y-100023809D01*
X67952380Y-100071428D01*
X68047619Y-100071428D01*
X68952380Y-99690476D02*
X68285714Y-99166666D01*
X68285714Y-99690476D02*
X68952380Y-99166666D01*
X68904761Y-98404761D02*
X68952380Y-98500000D01*
X68952380Y-98690476D01*
X68904761Y-98785714D01*
X68809523Y-98833333D01*
X68428571Y-98833333D01*
X68333333Y-98785714D01*
X68285714Y-98690476D01*
X68285714Y-98500000D01*
X68333333Y-98404761D01*
X68428571Y-98357142D01*
X68523809Y-98357142D01*
X68619047Y-98833333D01*
X68952380Y-97928571D02*
X68285714Y-97928571D01*
X68476190Y-97928571D02*
X68380952Y-97880952D01*
X68333333Y-97833333D01*
X68285714Y-97738095D01*
X68285714Y-97642857D01*
X67952380Y-93547619D02*
X68952380Y-93214285D01*
X67952380Y-92880952D01*
X68952380Y-92023809D02*
X68952380Y-92595238D01*
X68952380Y-92309523D02*
X67952380Y-92309523D01*
X68095238Y-92404761D01*
X68190476Y-92500000D01*
X68238095Y-92595238D01*
X68857142Y-91595238D02*
X68904761Y-91547619D01*
X68952380Y-91595238D01*
X68904761Y-91642857D01*
X68857142Y-91595238D01*
X68952380Y-91595238D01*
X67952380Y-90928571D02*
X67952380Y-90833333D01*
X68000000Y-90738095D01*
X68047619Y-90690476D01*
X68142857Y-90642857D01*
X68333333Y-90595238D01*
X68571428Y-90595238D01*
X68761904Y-90642857D01*
X68857142Y-90690476D01*
X68904761Y-90738095D01*
X68952380Y-90833333D01*
X68952380Y-90928571D01*
X68904761Y-91023809D01*
X68857142Y-91071428D01*
X68761904Y-91119047D01*
X68571428Y-91166666D01*
X68333333Y-91166666D01*
X68142857Y-91119047D01*
X68047619Y-91071428D01*
X68000000Y-91023809D01*
X67952380Y-90928571D01*
X68428571Y-89071428D02*
X68476190Y-88928571D01*
X68523809Y-88880952D01*
X68619047Y-88833333D01*
X68761904Y-88833333D01*
X68857142Y-88880952D01*
X68904761Y-88928571D01*
X68952380Y-89023809D01*
X68952380Y-89404761D01*
X67952380Y-89404761D01*
X67952380Y-89071428D01*
X68000000Y-88976190D01*
X68047619Y-88928571D01*
X68142857Y-88880952D01*
X68238095Y-88880952D01*
X68333333Y-88928571D01*
X68380952Y-88976190D01*
X68428571Y-89071428D01*
X68428571Y-89404761D01*
X68952380Y-88261904D02*
X68904761Y-88357142D01*
X68809523Y-88404761D01*
X67952380Y-88404761D01*
X68904761Y-87500000D02*
X68952380Y-87595238D01*
X68952380Y-87785714D01*
X68904761Y-87880952D01*
X68809523Y-87928571D01*
X68428571Y-87928571D01*
X68333333Y-87880952D01*
X68285714Y-87785714D01*
X68285714Y-87595238D01*
X68333333Y-87500000D01*
X68428571Y-87452380D01*
X68523809Y-87452380D01*
X68619047Y-87928571D01*
X68904761Y-86642857D02*
X68952380Y-86738095D01*
X68952380Y-86928571D01*
X68904761Y-87023809D01*
X68809523Y-87071428D01*
X68428571Y-87071428D01*
X68333333Y-87023809D01*
X68285714Y-86928571D01*
X68285714Y-86738095D01*
X68333333Y-86642857D01*
X68428571Y-86595238D01*
X68523809Y-86595238D01*
X68619047Y-87071428D01*
X68285714Y-86166666D02*
X69285714Y-86166666D01*
X68333333Y-86166666D02*
X68285714Y-86071428D01*
X68285714Y-85880952D01*
X68333333Y-85785714D01*
X68380952Y-85738095D01*
X68476190Y-85690476D01*
X68761904Y-85690476D01*
X68857142Y-85738095D01*
X68904761Y-85785714D01*
X68952380Y-85880952D01*
X68952380Y-86071428D01*
X68904761Y-86166666D01*
X68904761Y-85309523D02*
X68952380Y-85166666D01*
X68952380Y-84928571D01*
X68904761Y-84833333D01*
X68857142Y-84785714D01*
X68761904Y-84738095D01*
X68666666Y-84738095D01*
X68571428Y-84785714D01*
X68523809Y-84833333D01*
X68476190Y-84928571D01*
X68428571Y-85119047D01*
X68380952Y-85214285D01*
X68333333Y-85261904D01*
X68238095Y-85309523D01*
X68142857Y-85309523D01*
X68047619Y-85261904D01*
X68000000Y-85214285D01*
X67952380Y-85119047D01*
X67952380Y-84880952D01*
X68000000Y-84738095D01*
X68952380Y-84166666D02*
X68904761Y-84261904D01*
X68857142Y-84309523D01*
X68761904Y-84357142D01*
X68476190Y-84357142D01*
X68380952Y-84309523D01*
X68333333Y-84261904D01*
X68285714Y-84166666D01*
X68285714Y-84023809D01*
X68333333Y-83928571D01*
X68380952Y-83880952D01*
X68476190Y-83833333D01*
X68761904Y-83833333D01*
X68857142Y-83880952D01*
X68904761Y-83928571D01*
X68952380Y-84023809D01*
X68952380Y-84166666D01*
X68285714Y-82976190D02*
X68952380Y-82976190D01*
X68285714Y-83404761D02*
X68809523Y-83404761D01*
X68904761Y-83357142D01*
X68952380Y-83261904D01*
X68952380Y-83119047D01*
X68904761Y-83023809D01*
X68857142Y-82976190D01*
X68285714Y-82500000D02*
X68952380Y-82500000D01*
X68380952Y-82500000D02*
X68333333Y-82452380D01*
X68285714Y-82357142D01*
X68285714Y-82214285D01*
X68333333Y-82119047D01*
X68428571Y-82071428D01*
X68952380Y-82071428D01*
X68952380Y-81166666D02*
X67952380Y-81166666D01*
X68904761Y-81166666D02*
X68952380Y-81261904D01*
X68952380Y-81452380D01*
X68904761Y-81547619D01*
X68857142Y-81595238D01*
X68761904Y-81642857D01*
X68476190Y-81642857D01*
X68380952Y-81595238D01*
X68333333Y-81547619D01*
X68285714Y-81452380D01*
X68285714Y-81261904D01*
X68333333Y-81166666D01*
X68047619Y-79976190D02*
X68000000Y-79928571D01*
X67952380Y-79833333D01*
X67952380Y-79595238D01*
X68000000Y-79500000D01*
X68047619Y-79452380D01*
X68142857Y-79404761D01*
X68238095Y-79404761D01*
X68380952Y-79452380D01*
X68952380Y-80023809D01*
X68952380Y-79404761D01*
X67952380Y-78785714D02*
X67952380Y-78690476D01*
X68000000Y-78595238D01*
X68047619Y-78547619D01*
X68142857Y-78500000D01*
X68333333Y-78452380D01*
X68571428Y-78452380D01*
X68761904Y-78500000D01*
X68857142Y-78547619D01*
X68904761Y-78595238D01*
X68952380Y-78690476D01*
X68952380Y-78785714D01*
X68904761Y-78880952D01*
X68857142Y-78928571D01*
X68761904Y-78976190D01*
X68571428Y-79023809D01*
X68333333Y-79023809D01*
X68142857Y-78976190D01*
X68047619Y-78928571D01*
X68000000Y-78880952D01*
X67952380Y-78785714D01*
X68047619Y-78071428D02*
X68000000Y-78023809D01*
X67952380Y-77928571D01*
X67952380Y-77690476D01*
X68000000Y-77595238D01*
X68047619Y-77547619D01*
X68142857Y-77500000D01*
X68238095Y-77500000D01*
X68380952Y-77547619D01*
X68952380Y-78119047D01*
X68952380Y-77500000D01*
X68047619Y-77119047D02*
X68000000Y-77071428D01*
X67952380Y-76976190D01*
X67952380Y-76738095D01*
X68000000Y-76642857D01*
X68047619Y-76595238D01*
X68142857Y-76547619D01*
X68238095Y-76547619D01*
X68380952Y-76595238D01*
X68952380Y-77166666D01*
X68952380Y-76547619D01*
X59476190Y-77952380D02*
X59809523Y-78952380D01*
X60142857Y-77952380D01*
X60619047Y-78952380D02*
X60523809Y-78904761D01*
X60476190Y-78857142D01*
X60428571Y-78761904D01*
X60428571Y-78476190D01*
X60476190Y-78380952D01*
X60523809Y-78333333D01*
X60619047Y-78285714D01*
X60761904Y-78285714D01*
X60857142Y-78333333D01*
X60904761Y-78380952D01*
X60952380Y-78476190D01*
X60952380Y-78761904D01*
X60904761Y-78857142D01*
X60857142Y-78904761D01*
X60761904Y-78952380D01*
X60619047Y-78952380D01*
X61523809Y-78952380D02*
X61428571Y-78904761D01*
X61380952Y-78809523D01*
X61380952Y-77952380D01*
X61809523Y-77952380D02*
X62428571Y-77952380D01*
X62095238Y-78333333D01*
X62238095Y-78333333D01*
X62333333Y-78380952D01*
X62380952Y-78428571D01*
X62428571Y-78523809D01*
X62428571Y-78761904D01*
X62380952Y-78857142D01*
X62333333Y-78904761D01*
X62238095Y-78952380D01*
X61952380Y-78952380D01*
X61857142Y-78904761D01*
X61809523Y-78857142D01*
X59476190Y-100452380D02*
X59809523Y-101452380D01*
X60142857Y-100452380D01*
X60619047Y-101452380D02*
X60523809Y-101404761D01*
X60476190Y-101357142D01*
X60428571Y-101261904D01*
X60428571Y-100976190D01*
X60476190Y-100880952D01*
X60523809Y-100833333D01*
X60619047Y-100785714D01*
X60761904Y-100785714D01*
X60857142Y-100833333D01*
X60904761Y-100880952D01*
X60952380Y-100976190D01*
X60952380Y-101261904D01*
X60904761Y-101357142D01*
X60857142Y-101404761D01*
X60761904Y-101452380D01*
X60619047Y-101452380D01*
X61523809Y-101452380D02*
X61428571Y-101404761D01*
X61380952Y-101309523D01*
X61380952Y-100452380D01*
X62333333Y-100785714D02*
X62333333Y-101452380D01*
X62095238Y-100404761D02*
X61857142Y-101119047D01*
X62476190Y-101119047D01*
X36833333Y-120857142D02*
X36785714Y-120904761D01*
X36642857Y-120952380D01*
X36547619Y-120952380D01*
X36404761Y-120904761D01*
X36309523Y-120809523D01*
X36261904Y-120714285D01*
X36214285Y-120523809D01*
X36214285Y-120380952D01*
X36261904Y-120190476D01*
X36309523Y-120095238D01*
X36404761Y-120000000D01*
X36547619Y-119952380D01*
X36642857Y-119952380D01*
X36785714Y-120000000D01*
X36833333Y-120047619D01*
X37214285Y-120047619D02*
X37261904Y-120000000D01*
X37357142Y-119952380D01*
X37595238Y-119952380D01*
X37690476Y-120000000D01*
X37738095Y-120047619D01*
X37785714Y-120142857D01*
X37785714Y-120238095D01*
X37738095Y-120380952D01*
X37166666Y-120952380D01*
X37785714Y-120952380D01*
X45166666Y-100404761D02*
X45309523Y-100452380D01*
X45547619Y-100452380D01*
X45642857Y-100404761D01*
X45690476Y-100357142D01*
X45738095Y-100261904D01*
X45738095Y-100166666D01*
X45690476Y-100071428D01*
X45642857Y-100023809D01*
X45547619Y-99976190D01*
X45357142Y-99928571D01*
X45261904Y-99880952D01*
X45214285Y-99833333D01*
X45166666Y-99738095D01*
X45166666Y-99642857D01*
X45214285Y-99547619D01*
X45261904Y-99500000D01*
X45357142Y-99452380D01*
X45595238Y-99452380D01*
X45738095Y-99500000D01*
X46071428Y-99452380D02*
X46309523Y-100452380D01*
X46500000Y-99738095D01*
X46690476Y-100452380D01*
X46928571Y-99452380D01*
X47738095Y-99785714D02*
X47738095Y-100452380D01*
X47500000Y-99404761D02*
X47261904Y-100119047D01*
X47880952Y-100119047D01*
X49333333Y-123452380D02*
X49000000Y-122976190D01*
X48761904Y-123452380D02*
X48761904Y-122452380D01*
X49142857Y-122452380D01*
X49238095Y-122500000D01*
X49285714Y-122547619D01*
X49333333Y-122642857D01*
X49333333Y-122785714D01*
X49285714Y-122880952D01*
X49238095Y-122928571D01*
X49142857Y-122976190D01*
X48761904Y-122976190D01*
X49809523Y-123452380D02*
X50000000Y-123452380D01*
X50095238Y-123404761D01*
X50142857Y-123357142D01*
X50238095Y-123214285D01*
X50285714Y-123023809D01*
X50285714Y-122642857D01*
X50238095Y-122547619D01*
X50190476Y-122500000D01*
X50095238Y-122452380D01*
X49904761Y-122452380D01*
X49809523Y-122500000D01*
X49761904Y-122547619D01*
X49714285Y-122642857D01*
X49714285Y-122880952D01*
X49761904Y-122976190D01*
X49809523Y-123023809D01*
X49904761Y-123071428D01*
X50095238Y-123071428D01*
X50190476Y-123023809D01*
X50238095Y-122976190D01*
X50285714Y-122880952D01*
X48761904Y-70452380D02*
X48761904Y-69452380D01*
X49000000Y-69452380D01*
X49142857Y-69500000D01*
X49238095Y-69595238D01*
X49285714Y-69690476D01*
X49333333Y-69880952D01*
X49333333Y-70023809D01*
X49285714Y-70214285D01*
X49238095Y-70309523D01*
X49142857Y-70404761D01*
X49000000Y-70452380D01*
X48761904Y-70452380D01*
X49714285Y-69547619D02*
X49761904Y-69500000D01*
X49857142Y-69452380D01*
X50095238Y-69452380D01*
X50190476Y-69500000D01*
X50238095Y-69547619D01*
X50285714Y-69642857D01*
X50285714Y-69738095D01*
X50238095Y-69880952D01*
X49666666Y-70452380D01*
X50285714Y-70452380D01*
X62357142Y-118952380D02*
X62023809Y-118476190D01*
X61785714Y-118952380D02*
X61785714Y-117952380D01*
X62166666Y-117952380D01*
X62261904Y-118000000D01*
X62309523Y-118047619D01*
X62357142Y-118142857D01*
X62357142Y-118285714D01*
X62309523Y-118380952D01*
X62261904Y-118428571D01*
X62166666Y-118476190D01*
X61785714Y-118476190D01*
X63309523Y-118952380D02*
X62738095Y-118952380D01*
X63023809Y-118952380D02*
X63023809Y-117952380D01*
X62928571Y-118095238D01*
X62833333Y-118190476D01*
X62738095Y-118238095D01*
X63690476Y-118047619D02*
X63738095Y-118000000D01*
X63833333Y-117952380D01*
X64071428Y-117952380D01*
X64166666Y-118000000D01*
X64214285Y-118047619D01*
X64261904Y-118142857D01*
X64261904Y-118238095D01*
X64214285Y-118380952D01*
X63642857Y-118952380D01*
X64261904Y-118952380D01*
X52333333Y-92857142D02*
X52285714Y-92904761D01*
X52142857Y-92952380D01*
X52047619Y-92952380D01*
X51904761Y-92904761D01*
X51809523Y-92809523D01*
X51761904Y-92714285D01*
X51714285Y-92523809D01*
X51714285Y-92380952D01*
X51761904Y-92190476D01*
X51809523Y-92095238D01*
X51904761Y-92000000D01*
X52047619Y-91952380D01*
X52142857Y-91952380D01*
X52285714Y-92000000D01*
X52333333Y-92047619D01*
X53190476Y-91952380D02*
X53000000Y-91952380D01*
X52904761Y-92000000D01*
X52857142Y-92047619D01*
X52761904Y-92190476D01*
X52714285Y-92380952D01*
X52714285Y-92761904D01*
X52761904Y-92857142D01*
X52809523Y-92904761D01*
X52904761Y-92952380D01*
X53095238Y-92952380D01*
X53190476Y-92904761D01*
X53238095Y-92857142D01*
X53285714Y-92761904D01*
X53285714Y-92523809D01*
X53238095Y-92428571D01*
X53190476Y-92380952D01*
X53095238Y-92333333D01*
X52904761Y-92333333D01*
X52809523Y-92380952D01*
X52761904Y-92428571D01*
X52714285Y-92523809D01*
X62357142Y-96452380D02*
X62023809Y-95976190D01*
X61785714Y-96452380D02*
X61785714Y-95452380D01*
X62166666Y-95452380D01*
X62261904Y-95500000D01*
X62309523Y-95547619D01*
X62357142Y-95642857D01*
X62357142Y-95785714D01*
X62309523Y-95880952D01*
X62261904Y-95928571D01*
X62166666Y-95976190D01*
X61785714Y-95976190D01*
X63309523Y-96452380D02*
X62738095Y-96452380D01*
X63023809Y-96452380D02*
X63023809Y-95452380D01*
X62928571Y-95595238D01*
X62833333Y-95690476D01*
X62738095Y-95738095D01*
X63928571Y-95452380D02*
X64023809Y-95452380D01*
X64119047Y-95500000D01*
X64166666Y-95547619D01*
X64214285Y-95642857D01*
X64261904Y-95833333D01*
X64261904Y-96071428D01*
X64214285Y-96261904D01*
X64166666Y-96357142D01*
X64119047Y-96404761D01*
X64023809Y-96452380D01*
X63928571Y-96452380D01*
X63833333Y-96404761D01*
X63785714Y-96357142D01*
X63738095Y-96261904D01*
X63690476Y-96071428D01*
X63690476Y-95833333D01*
X63738095Y-95642857D01*
X63785714Y-95547619D01*
X63833333Y-95500000D01*
X63928571Y-95452380D01*
X59476190Y-55452380D02*
X59809523Y-56452380D01*
X60142857Y-55452380D01*
X60619047Y-56452380D02*
X60523809Y-56404761D01*
X60476190Y-56357142D01*
X60428571Y-56261904D01*
X60428571Y-55976190D01*
X60476190Y-55880952D01*
X60523809Y-55833333D01*
X60619047Y-55785714D01*
X60761904Y-55785714D01*
X60857142Y-55833333D01*
X60904761Y-55880952D01*
X60952380Y-55976190D01*
X60952380Y-56261904D01*
X60904761Y-56357142D01*
X60857142Y-56404761D01*
X60761904Y-56452380D01*
X60619047Y-56452380D01*
X61523809Y-56452380D02*
X61428571Y-56404761D01*
X61380952Y-56309523D01*
X61380952Y-55452380D01*
X61857142Y-55547619D02*
X61904761Y-55500000D01*
X62000000Y-55452380D01*
X62238095Y-55452380D01*
X62333333Y-55500000D01*
X62380952Y-55547619D01*
X62428571Y-55642857D01*
X62428571Y-55738095D01*
X62380952Y-55880952D01*
X61809523Y-56452380D01*
X62428571Y-56452380D01*
X36833333Y-48952380D02*
X36500000Y-48476190D01*
X36261904Y-48952380D02*
X36261904Y-47952380D01*
X36642857Y-47952380D01*
X36738095Y-48000000D01*
X36785714Y-48047619D01*
X36833333Y-48142857D01*
X36833333Y-48285714D01*
X36785714Y-48380952D01*
X36738095Y-48428571D01*
X36642857Y-48476190D01*
X36261904Y-48476190D01*
X37785714Y-48952380D02*
X37214285Y-48952380D01*
X37500000Y-48952380D02*
X37500000Y-47952380D01*
X37404761Y-48095238D01*
X37309523Y-48190476D01*
X37214285Y-48238095D01*
X36357142Y-116452380D02*
X36023809Y-115976190D01*
X35785714Y-116452380D02*
X35785714Y-115452380D01*
X36166666Y-115452380D01*
X36261904Y-115500000D01*
X36309523Y-115547619D01*
X36357142Y-115642857D01*
X36357142Y-115785714D01*
X36309523Y-115880952D01*
X36261904Y-115928571D01*
X36166666Y-115976190D01*
X35785714Y-115976190D01*
X37309523Y-116452380D02*
X36738095Y-116452380D01*
X37023809Y-116452380D02*
X37023809Y-115452380D01*
X36928571Y-115595238D01*
X36833333Y-115690476D01*
X36738095Y-115738095D01*
X38261904Y-116452380D02*
X37690476Y-116452380D01*
X37976190Y-116452380D02*
X37976190Y-115452380D01*
X37880952Y-115595238D01*
X37785714Y-115690476D01*
X37690476Y-115738095D01*
X48761904Y-92952380D02*
X48761904Y-91952380D01*
X49000000Y-91952380D01*
X49142857Y-92000000D01*
X49238095Y-92095238D01*
X49285714Y-92190476D01*
X49333333Y-92380952D01*
X49333333Y-92523809D01*
X49285714Y-92714285D01*
X49238095Y-92809523D01*
X49142857Y-92904761D01*
X49000000Y-92952380D01*
X48761904Y-92952380D01*
X50190476Y-92285714D02*
X50190476Y-92952380D01*
X49952380Y-91904761D02*
X49714285Y-92619047D01*
X50333333Y-92619047D01*
X36833333Y-71452380D02*
X36500000Y-70976190D01*
X36261904Y-71452380D02*
X36261904Y-70452380D01*
X36642857Y-70452380D01*
X36738095Y-70500000D01*
X36785714Y-70547619D01*
X36833333Y-70642857D01*
X36833333Y-70785714D01*
X36785714Y-70880952D01*
X36738095Y-70928571D01*
X36642857Y-70976190D01*
X36261904Y-70976190D01*
X37690476Y-70785714D02*
X37690476Y-71452380D01*
X37452380Y-70404761D02*
X37214285Y-71119047D01*
X37833333Y-71119047D01*
X67333333Y-134357142D02*
X67285714Y-134404761D01*
X67142857Y-134452380D01*
X67047619Y-134452380D01*
X66904761Y-134404761D01*
X66809523Y-134309523D01*
X66761904Y-134214285D01*
X66714285Y-134023809D01*
X66714285Y-133880952D01*
X66761904Y-133690476D01*
X66809523Y-133595238D01*
X66904761Y-133500000D01*
X67047619Y-133452380D01*
X67142857Y-133452380D01*
X67285714Y-133500000D01*
X67333333Y-133547619D01*
X68238095Y-133452380D02*
X67761904Y-133452380D01*
X67714285Y-133928571D01*
X67761904Y-133880952D01*
X67857142Y-133833333D01*
X68095238Y-133833333D01*
X68190476Y-133880952D01*
X68238095Y-133928571D01*
X68285714Y-134023809D01*
X68285714Y-134261904D01*
X68238095Y-134357142D01*
X68190476Y-134404761D01*
X68095238Y-134452380D01*
X67857142Y-134452380D01*
X67761904Y-134404761D01*
X67714285Y-134357142D01*
X31136666Y-101532380D02*
X31136666Y-102246666D01*
X31089047Y-102389523D01*
X30993809Y-102484761D01*
X30850952Y-102532380D01*
X30755714Y-102532380D01*
X32041428Y-101532380D02*
X31850952Y-101532380D01*
X31755714Y-101580000D01*
X31708095Y-101627619D01*
X31612857Y-101770476D01*
X31565238Y-101960952D01*
X31565238Y-102341904D01*
X31612857Y-102437142D01*
X31660476Y-102484761D01*
X31755714Y-102532380D01*
X31946190Y-102532380D01*
X32041428Y-102484761D01*
X32089047Y-102437142D01*
X32136666Y-102341904D01*
X32136666Y-102103809D01*
X32089047Y-102008571D01*
X32041428Y-101960952D01*
X31946190Y-101913333D01*
X31755714Y-101913333D01*
X31660476Y-101960952D01*
X31612857Y-102008571D01*
X31565238Y-102103809D01*
X49333333Y-130452380D02*
X49000000Y-129976190D01*
X48761904Y-130452380D02*
X48761904Y-129452380D01*
X49142857Y-129452380D01*
X49238095Y-129500000D01*
X49285714Y-129547619D01*
X49333333Y-129642857D01*
X49333333Y-129785714D01*
X49285714Y-129880952D01*
X49238095Y-129928571D01*
X49142857Y-129976190D01*
X48761904Y-129976190D01*
X49904761Y-129880952D02*
X49809523Y-129833333D01*
X49761904Y-129785714D01*
X49714285Y-129690476D01*
X49714285Y-129642857D01*
X49761904Y-129547619D01*
X49809523Y-129500000D01*
X49904761Y-129452380D01*
X50095238Y-129452380D01*
X50190476Y-129500000D01*
X50238095Y-129547619D01*
X50285714Y-129642857D01*
X50285714Y-129690476D01*
X50238095Y-129785714D01*
X50190476Y-129833333D01*
X50095238Y-129880952D01*
X49904761Y-129880952D01*
X49809523Y-129928571D01*
X49761904Y-129976190D01*
X49714285Y-130071428D01*
X49714285Y-130261904D01*
X49761904Y-130357142D01*
X49809523Y-130404761D01*
X49904761Y-130452380D01*
X50095238Y-130452380D01*
X50190476Y-130404761D01*
X50238095Y-130357142D01*
X50285714Y-130261904D01*
X50285714Y-130071428D01*
X50238095Y-129976190D01*
X50190476Y-129928571D01*
X50095238Y-129880952D01*
X45166666Y-32404761D02*
X45309523Y-32452380D01*
X45547619Y-32452380D01*
X45642857Y-32404761D01*
X45690476Y-32357142D01*
X45738095Y-32261904D01*
X45738095Y-32166666D01*
X45690476Y-32071428D01*
X45642857Y-32023809D01*
X45547619Y-31976190D01*
X45357142Y-31928571D01*
X45261904Y-31880952D01*
X45214285Y-31833333D01*
X45166666Y-31738095D01*
X45166666Y-31642857D01*
X45214285Y-31547619D01*
X45261904Y-31500000D01*
X45357142Y-31452380D01*
X45595238Y-31452380D01*
X45738095Y-31500000D01*
X46071428Y-31452380D02*
X46309523Y-32452380D01*
X46500000Y-31738095D01*
X46690476Y-32452380D01*
X46928571Y-31452380D01*
X47833333Y-32452380D02*
X47261904Y-32452380D01*
X47547619Y-32452380D02*
X47547619Y-31452380D01*
X47452380Y-31595238D01*
X47357142Y-31690476D01*
X47261904Y-31738095D01*
X59476190Y-32952380D02*
X59809523Y-33952380D01*
X60142857Y-32952380D01*
X60619047Y-33952380D02*
X60523809Y-33904761D01*
X60476190Y-33857142D01*
X60428571Y-33761904D01*
X60428571Y-33476190D01*
X60476190Y-33380952D01*
X60523809Y-33333333D01*
X60619047Y-33285714D01*
X60761904Y-33285714D01*
X60857142Y-33333333D01*
X60904761Y-33380952D01*
X60952380Y-33476190D01*
X60952380Y-33761904D01*
X60904761Y-33857142D01*
X60857142Y-33904761D01*
X60761904Y-33952380D01*
X60619047Y-33952380D01*
X61523809Y-33952380D02*
X61428571Y-33904761D01*
X61380952Y-33809523D01*
X61380952Y-32952380D01*
X62428571Y-33952380D02*
X61857142Y-33952380D01*
X62142857Y-33952380D02*
X62142857Y-32952380D01*
X62047619Y-33095238D01*
X61952380Y-33190476D01*
X61857142Y-33238095D01*
X36833333Y-93952380D02*
X36500000Y-93476190D01*
X36261904Y-93952380D02*
X36261904Y-92952380D01*
X36642857Y-92952380D01*
X36738095Y-93000000D01*
X36785714Y-93047619D01*
X36833333Y-93142857D01*
X36833333Y-93285714D01*
X36785714Y-93380952D01*
X36738095Y-93428571D01*
X36642857Y-93476190D01*
X36261904Y-93476190D01*
X37690476Y-92952380D02*
X37500000Y-92952380D01*
X37404761Y-93000000D01*
X37357142Y-93047619D01*
X37261904Y-93190476D01*
X37214285Y-93380952D01*
X37214285Y-93761904D01*
X37261904Y-93857142D01*
X37309523Y-93904761D01*
X37404761Y-93952380D01*
X37595238Y-93952380D01*
X37690476Y-93904761D01*
X37738095Y-93857142D01*
X37785714Y-93761904D01*
X37785714Y-93523809D01*
X37738095Y-93428571D01*
X37690476Y-93380952D01*
X37595238Y-93333333D01*
X37404761Y-93333333D01*
X37309523Y-93380952D01*
X37261904Y-93428571D01*
X37214285Y-93523809D01*
X48761904Y-115452380D02*
X48761904Y-114452380D01*
X49000000Y-114452380D01*
X49142857Y-114500000D01*
X49238095Y-114595238D01*
X49285714Y-114690476D01*
X49333333Y-114880952D01*
X49333333Y-115023809D01*
X49285714Y-115214285D01*
X49238095Y-115309523D01*
X49142857Y-115404761D01*
X49000000Y-115452380D01*
X48761904Y-115452380D01*
X50238095Y-114452380D02*
X49761904Y-114452380D01*
X49714285Y-114928571D01*
X49761904Y-114880952D01*
X49857142Y-114833333D01*
X50095238Y-114833333D01*
X50190476Y-114880952D01*
X50238095Y-114928571D01*
X50285714Y-115023809D01*
X50285714Y-115261904D01*
X50238095Y-115357142D01*
X50190476Y-115404761D01*
X50095238Y-115452380D01*
X49857142Y-115452380D01*
X49761904Y-115404761D01*
X49714285Y-115357142D01*
X62833333Y-73952380D02*
X62500000Y-73476190D01*
X62261904Y-73952380D02*
X62261904Y-72952380D01*
X62642857Y-72952380D01*
X62738095Y-73000000D01*
X62785714Y-73047619D01*
X62833333Y-73142857D01*
X62833333Y-73285714D01*
X62785714Y-73380952D01*
X62738095Y-73428571D01*
X62642857Y-73476190D01*
X62261904Y-73476190D01*
X63738095Y-72952380D02*
X63261904Y-72952380D01*
X63214285Y-73428571D01*
X63261904Y-73380952D01*
X63357142Y-73333333D01*
X63595238Y-73333333D01*
X63690476Y-73380952D01*
X63738095Y-73428571D01*
X63785714Y-73523809D01*
X63785714Y-73761904D01*
X63738095Y-73857142D01*
X63690476Y-73904761D01*
X63595238Y-73952380D01*
X63357142Y-73952380D01*
X63261904Y-73904761D01*
X63214285Y-73857142D01*
X52288445Y-115357142D02*
X52240826Y-115404761D01*
X52097969Y-115452380D01*
X52002731Y-115452380D01*
X51859873Y-115404761D01*
X51764635Y-115309523D01*
X51717016Y-115214285D01*
X51669397Y-115023809D01*
X51669397Y-114880952D01*
X51717016Y-114690476D01*
X51764635Y-114595238D01*
X51859873Y-114500000D01*
X52002731Y-114452380D01*
X52097969Y-114452380D01*
X52240826Y-114500000D01*
X52288445Y-114547619D01*
X52621778Y-114452380D02*
X53288445Y-114452380D01*
X52859873Y-115452380D01*
X62833333Y-51452380D02*
X62500000Y-50976190D01*
X62261904Y-51452380D02*
X62261904Y-50452380D01*
X62642857Y-50452380D01*
X62738095Y-50500000D01*
X62785714Y-50547619D01*
X62833333Y-50642857D01*
X62833333Y-50785714D01*
X62785714Y-50880952D01*
X62738095Y-50928571D01*
X62642857Y-50976190D01*
X62261904Y-50976190D01*
X63214285Y-50547619D02*
X63261904Y-50500000D01*
X63357142Y-50452380D01*
X63595238Y-50452380D01*
X63690476Y-50500000D01*
X63738095Y-50547619D01*
X63785714Y-50642857D01*
X63785714Y-50738095D01*
X63738095Y-50880952D01*
X63166666Y-51452380D01*
X63785714Y-51452380D01*
X31136666Y-56532380D02*
X31136666Y-57246666D01*
X31089047Y-57389523D01*
X30993809Y-57484761D01*
X30850952Y-57532380D01*
X30755714Y-57532380D01*
X31517619Y-56532380D02*
X32136666Y-56532380D01*
X31803333Y-56913333D01*
X31946190Y-56913333D01*
X32041428Y-56960952D01*
X32089047Y-57008571D01*
X32136666Y-57103809D01*
X32136666Y-57341904D01*
X32089047Y-57437142D01*
X32041428Y-57484761D01*
X31946190Y-57532380D01*
X31660476Y-57532380D01*
X31565238Y-57484761D01*
X31517619Y-57437142D01*
X45166666Y-77904761D02*
X45309523Y-77952380D01*
X45547619Y-77952380D01*
X45642857Y-77904761D01*
X45690476Y-77857142D01*
X45738095Y-77761904D01*
X45738095Y-77666666D01*
X45690476Y-77571428D01*
X45642857Y-77523809D01*
X45547619Y-77476190D01*
X45357142Y-77428571D01*
X45261904Y-77380952D01*
X45214285Y-77333333D01*
X45166666Y-77238095D01*
X45166666Y-77142857D01*
X45214285Y-77047619D01*
X45261904Y-77000000D01*
X45357142Y-76952380D01*
X45595238Y-76952380D01*
X45738095Y-77000000D01*
X46071428Y-76952380D02*
X46309523Y-77952380D01*
X46500000Y-77238095D01*
X46690476Y-77952380D01*
X46928571Y-76952380D01*
X47214285Y-76952380D02*
X47833333Y-76952380D01*
X47500000Y-77333333D01*
X47642857Y-77333333D01*
X47738095Y-77380952D01*
X47785714Y-77428571D01*
X47833333Y-77523809D01*
X47833333Y-77761904D01*
X47785714Y-77857142D01*
X47738095Y-77904761D01*
X47642857Y-77952380D01*
X47357142Y-77952380D01*
X47261904Y-77904761D01*
X47214285Y-77857142D01*
X45166666Y-55404761D02*
X45309523Y-55452380D01*
X45547619Y-55452380D01*
X45642857Y-55404761D01*
X45690476Y-55357142D01*
X45738095Y-55261904D01*
X45738095Y-55166666D01*
X45690476Y-55071428D01*
X45642857Y-55023809D01*
X45547619Y-54976190D01*
X45357142Y-54928571D01*
X45261904Y-54880952D01*
X45214285Y-54833333D01*
X45166666Y-54738095D01*
X45166666Y-54642857D01*
X45214285Y-54547619D01*
X45261904Y-54500000D01*
X45357142Y-54452380D01*
X45595238Y-54452380D01*
X45738095Y-54500000D01*
X46071428Y-54452380D02*
X46309523Y-55452380D01*
X46500000Y-54738095D01*
X46690476Y-55452380D01*
X46928571Y-54452380D01*
X47261904Y-54547619D02*
X47309523Y-54500000D01*
X47404761Y-54452380D01*
X47642857Y-54452380D01*
X47738095Y-54500000D01*
X47785714Y-54547619D01*
X47833333Y-54642857D01*
X47833333Y-54738095D01*
X47785714Y-54880952D01*
X47214285Y-55452380D01*
X47833333Y-55452380D01*
X31136666Y-34032380D02*
X31136666Y-34746666D01*
X31089047Y-34889523D01*
X30993809Y-34984761D01*
X30850952Y-35032380D01*
X30755714Y-35032380D01*
X32136666Y-35032380D02*
X31565238Y-35032380D01*
X31850952Y-35032380D02*
X31850952Y-34032380D01*
X31755714Y-34175238D01*
X31660476Y-34270476D01*
X31565238Y-34318095D01*
X49333333Y-126952380D02*
X49000000Y-126476190D01*
X48761904Y-126952380D02*
X48761904Y-125952380D01*
X49142857Y-125952380D01*
X49238095Y-126000000D01*
X49285714Y-126047619D01*
X49333333Y-126142857D01*
X49333333Y-126285714D01*
X49285714Y-126380952D01*
X49238095Y-126428571D01*
X49142857Y-126476190D01*
X48761904Y-126476190D01*
X49666666Y-125952380D02*
X50333333Y-125952380D01*
X49904761Y-126952380D01*
X48761904Y-47952380D02*
X48761904Y-46952380D01*
X49000000Y-46952380D01*
X49142857Y-47000000D01*
X49238095Y-47095238D01*
X49285714Y-47190476D01*
X49333333Y-47380952D01*
X49333333Y-47523809D01*
X49285714Y-47714285D01*
X49238095Y-47809523D01*
X49142857Y-47904761D01*
X49000000Y-47952380D01*
X48761904Y-47952380D01*
X50285714Y-47952380D02*
X49714285Y-47952380D01*
X50000000Y-47952380D02*
X50000000Y-46952380D01*
X49904761Y-47095238D01*
X49809523Y-47190476D01*
X49714285Y-47238095D01*
X52333334Y-47857142D02*
X52285715Y-47904761D01*
X52142858Y-47952380D01*
X52047620Y-47952380D01*
X51904762Y-47904761D01*
X51809524Y-47809523D01*
X51761905Y-47714285D01*
X51714286Y-47523809D01*
X51714286Y-47380952D01*
X51761905Y-47190476D01*
X51809524Y-47095238D01*
X51904762Y-47000000D01*
X52047620Y-46952380D01*
X52142858Y-46952380D01*
X52285715Y-47000000D01*
X52333334Y-47047619D01*
X53285715Y-47952380D02*
X52714286Y-47952380D01*
X53000001Y-47952380D02*
X53000001Y-46952380D01*
X52904762Y-47095238D01*
X52809524Y-47190476D01*
X52714286Y-47238095D01*
X52288445Y-70357142D02*
X52240826Y-70404761D01*
X52097969Y-70452380D01*
X52002731Y-70452380D01*
X51859873Y-70404761D01*
X51764635Y-70309523D01*
X51717016Y-70214285D01*
X51669397Y-70023809D01*
X51669397Y-69880952D01*
X51717016Y-69690476D01*
X51764635Y-69595238D01*
X51859873Y-69500000D01*
X52002731Y-69452380D01*
X52097969Y-69452380D01*
X52240826Y-69500000D01*
X52288445Y-69547619D01*
X53145588Y-69785714D02*
X53145588Y-70452380D01*
X52907492Y-69404761D02*
X52669397Y-70119047D01*
X53288445Y-70119047D01*
X32833333Y-137857142D02*
X32785714Y-137904761D01*
X32642857Y-137952380D01*
X32547619Y-137952380D01*
X32404761Y-137904761D01*
X32309523Y-137809523D01*
X32261904Y-137714285D01*
X32214285Y-137523809D01*
X32214285Y-137380952D01*
X32261904Y-137190476D01*
X32309523Y-137095238D01*
X32404761Y-137000000D01*
X32547619Y-136952380D01*
X32642857Y-136952380D01*
X32785714Y-137000000D01*
X32833333Y-137047619D01*
X33166666Y-136952380D02*
X33785714Y-136952380D01*
X33452380Y-137333333D01*
X33595238Y-137333333D01*
X33690476Y-137380952D01*
X33738095Y-137428571D01*
X33785714Y-137523809D01*
X33785714Y-137761904D01*
X33738095Y-137857142D01*
X33690476Y-137904761D01*
X33595238Y-137952380D01*
X33309523Y-137952380D01*
X33214285Y-137904761D01*
X33166666Y-137857142D01*
X31136666Y-79032380D02*
X31136666Y-79746666D01*
X31089047Y-79889523D01*
X30993809Y-79984761D01*
X30850952Y-80032380D01*
X30755714Y-80032380D01*
X32089047Y-79032380D02*
X31612857Y-79032380D01*
X31565238Y-79508571D01*
X31612857Y-79460952D01*
X31708095Y-79413333D01*
X31946190Y-79413333D01*
X32041428Y-79460952D01*
X32089047Y-79508571D01*
X32136666Y-79603809D01*
X32136666Y-79841904D01*
X32089047Y-79937142D01*
X32041428Y-79984761D01*
X31946190Y-80032380D01*
X31708095Y-80032380D01*
X31612857Y-79984761D01*
X31565238Y-79937142D01*
X42452380Y-133261904D02*
X43261904Y-133261904D01*
X43357142Y-133214285D01*
X43404761Y-133166666D01*
X43452380Y-133071428D01*
X43452380Y-132880952D01*
X43404761Y-132785714D01*
X43357142Y-132738095D01*
X43261904Y-132690476D01*
X42452380Y-132690476D01*
X43452380Y-131690476D02*
X43452380Y-132261904D01*
X43452380Y-131976190D02*
X42452380Y-131976190D01*
X42595238Y-132071428D01*
X42690476Y-132166666D01*
X42738095Y-132261904D01*
X56636666Y-122532380D02*
X56636666Y-123246666D01*
X56589047Y-123389523D01*
X56493809Y-123484761D01*
X56350952Y-123532380D01*
X56255714Y-123532380D01*
X57541428Y-122865714D02*
X57541428Y-123532380D01*
X57303333Y-122484761D02*
X57065238Y-123199047D01*
X57684285Y-123199047D01*
D11*
X61871000Y-91670000D02*
X62630000Y-91670000D01*
X56030000Y-79430000D02*
X65970000Y-79430000D01*
X56030000Y-83295000D02*
X56030000Y-79430000D01*
X56030000Y-91670000D02*
X56030000Y-87805000D01*
X65970000Y-91670000D02*
X65970000Y-87805000D01*
X56030000Y-91670000D02*
X57629000Y-91670000D01*
X65970000Y-83295000D02*
X65970000Y-79430000D01*
X64370000Y-91670000D02*
X65970000Y-91670000D01*
X59371000Y-91670000D02*
X60130000Y-91670000D01*
X61871000Y-114170000D02*
X62630000Y-114170000D01*
X64370000Y-114170000D02*
X65970000Y-114170000D01*
X65970000Y-105795000D02*
X65970000Y-101930000D01*
X56030000Y-105795000D02*
X56030000Y-101930000D01*
X56030000Y-114170000D02*
X57629000Y-114170000D01*
X65970000Y-114170000D02*
X65970000Y-110305000D01*
X56030000Y-101930000D02*
X65970000Y-101930000D01*
X56030000Y-114170000D02*
X56030000Y-110305000D01*
X59371000Y-114170000D02*
X60130000Y-114170000D01*
X33644888Y-117989000D02*
X33644888Y-119460000D01*
X33324888Y-117935000D02*
X33324888Y-119460000D01*
X34925888Y-121540000D02*
X34925888Y-122285000D01*
X34765888Y-121540000D02*
X34765888Y-122437000D01*
X35005888Y-121540000D02*
X35005888Y-122199000D01*
X34485888Y-121540000D02*
X34485888Y-122649000D01*
X33644888Y-121540000D02*
X33644888Y-123011000D01*
X33484888Y-121540000D02*
X33484888Y-123043000D01*
X33364888Y-121540000D02*
X33364888Y-123061000D01*
X33284888Y-117931000D02*
X33284888Y-119460000D01*
X35485888Y-119585000D02*
X35485888Y-121415000D01*
X34845888Y-118636000D02*
X34845888Y-119460000D01*
X33244888Y-121540000D02*
X33244888Y-123073000D01*
X33845888Y-121540000D02*
X33845888Y-122955000D01*
X35405888Y-119402000D02*
X35405888Y-121598000D01*
X34725888Y-121540000D02*
X34725888Y-122471000D01*
X35365888Y-119322000D02*
X35365888Y-121678000D01*
X34445888Y-121540000D02*
X34445888Y-122675000D01*
X33845888Y-118045000D02*
X33845888Y-119460000D01*
X33684888Y-117999000D02*
X33684888Y-119460000D01*
X34325888Y-121540000D02*
X34325888Y-122747000D01*
X33805888Y-121540000D02*
X33805888Y-122968000D01*
X33965888Y-121540000D02*
X33965888Y-122914000D01*
X34605888Y-118435000D02*
X34605888Y-119460000D01*
X34565888Y-118405000D02*
X34565888Y-119460000D01*
X33124888Y-117921000D02*
X33124888Y-119460000D01*
X33564888Y-117972000D02*
X33564888Y-119460000D01*
X35045888Y-121540000D02*
X35045888Y-122153000D01*
X35205888Y-119057000D02*
X35205888Y-121943000D01*
X33404888Y-121540000D02*
X33404888Y-123056000D01*
X33204888Y-121540000D02*
X33204888Y-123076000D01*
X33765888Y-121540000D02*
X33765888Y-122980000D01*
X33204888Y-117924000D02*
X33204888Y-119460000D01*
X35285888Y-119181000D02*
X35285888Y-121819000D01*
X33965888Y-118086000D02*
X33965888Y-119460000D01*
X34445888Y-118325000D02*
X34445888Y-119460000D01*
X34525888Y-118378000D02*
X34525888Y-119460000D01*
X33684888Y-121540000D02*
X33684888Y-123001000D01*
X33044888Y-121540000D02*
X33044888Y-123080000D01*
X34685888Y-118496000D02*
X34685888Y-119460000D01*
X34005888Y-118102000D02*
X34005888Y-119460000D01*
X34165888Y-118171000D02*
X34165888Y-119460000D01*
X33604888Y-121540000D02*
X33604888Y-123020000D01*
X33925888Y-121540000D02*
X33925888Y-122928000D01*
X33044888Y-117920000D02*
X33044888Y-119460000D01*
X34405888Y-118300000D02*
X34405888Y-119460000D01*
X34645888Y-118465000D02*
X34645888Y-119460000D01*
X34965888Y-121540000D02*
X34965888Y-122243000D01*
X33805888Y-118032000D02*
X33805888Y-119460000D01*
X33885888Y-118058000D02*
X33885888Y-119460000D01*
X34925888Y-118715000D02*
X34925888Y-119460000D01*
X35005888Y-118801000D02*
X35005888Y-119460000D01*
X35085888Y-118895000D02*
X35085888Y-122105000D01*
X34365888Y-118276000D02*
X34365888Y-119460000D01*
X33084888Y-121540000D02*
X33084888Y-123080000D01*
X35045888Y-118847000D02*
X35045888Y-119460000D01*
X34245888Y-121540000D02*
X34245888Y-122790000D01*
X34325888Y-118253000D02*
X34325888Y-119460000D01*
X34285888Y-121540000D02*
X34285888Y-122768000D01*
X35245888Y-119117000D02*
X35245888Y-121883000D01*
X33765888Y-118020000D02*
X33765888Y-119460000D01*
X34885888Y-121540000D02*
X34885888Y-122326000D01*
X34805888Y-118599000D02*
X34805888Y-119460000D01*
X35125888Y-118946000D02*
X35125888Y-122054000D01*
X34645888Y-121540000D02*
X34645888Y-122535000D01*
X35605888Y-119982000D02*
X35605888Y-121018000D01*
X34805888Y-121540000D02*
X34805888Y-122401000D01*
X34125888Y-121540000D02*
X34125888Y-122848000D01*
X34285888Y-118232000D02*
X34285888Y-119460000D01*
X33724888Y-121540000D02*
X33724888Y-122991000D01*
X33284888Y-121540000D02*
X33284888Y-123069000D01*
X33524888Y-121540000D02*
X33524888Y-123036000D01*
X33364888Y-117939000D02*
X33364888Y-119460000D01*
X33724888Y-118009000D02*
X33724888Y-119460000D01*
X33925888Y-118072000D02*
X33925888Y-119460000D01*
X35645888Y-120216000D02*
X35645888Y-120784000D01*
X33484888Y-117957000D02*
X33484888Y-119460000D01*
X35445888Y-119489000D02*
X35445888Y-121511000D01*
X34405888Y-121540000D02*
X34405888Y-122700000D01*
X35525888Y-119695000D02*
X35525888Y-121305000D01*
X33324888Y-121540000D02*
X33324888Y-123065000D01*
X34485888Y-118351000D02*
X34485888Y-119460000D01*
X35325888Y-119249000D02*
X35325888Y-121751000D01*
X34085888Y-121540000D02*
X34085888Y-122865000D01*
X34245888Y-118210000D02*
X34245888Y-119460000D01*
X34685888Y-121540000D02*
X34685888Y-122504000D01*
X34885888Y-118674000D02*
X34885888Y-119460000D01*
X34565888Y-121540000D02*
X34565888Y-122595000D01*
X34005888Y-121540000D02*
X34005888Y-122898000D01*
X33885888Y-121540000D02*
X33885888Y-122942000D01*
X33524888Y-117964000D02*
X33524888Y-119460000D01*
X34205888Y-118190000D02*
X34205888Y-119460000D01*
X34085888Y-118135000D02*
X34085888Y-119460000D01*
X34765888Y-118563000D02*
X34765888Y-119460000D01*
X34365888Y-121540000D02*
X34365888Y-122724000D01*
X34845888Y-121540000D02*
X34845888Y-122364000D01*
X33604888Y-117980000D02*
X33604888Y-119460000D01*
X34125888Y-118152000D02*
X34125888Y-119460000D01*
X34965888Y-118757000D02*
X34965888Y-119460000D01*
X33164888Y-121540000D02*
X33164888Y-123078000D01*
X34525888Y-121540000D02*
X34525888Y-122622000D01*
X33564888Y-121540000D02*
X33564888Y-123028000D01*
X34165888Y-121540000D02*
X34165888Y-122829000D01*
X33164888Y-117922000D02*
X33164888Y-119460000D01*
X33244888Y-117927000D02*
X33244888Y-119460000D01*
X33084888Y-117920000D02*
X33084888Y-119460000D01*
X33404888Y-117944000D02*
X33404888Y-119460000D01*
X33444888Y-117950000D02*
X33444888Y-119460000D01*
X34045888Y-118118000D02*
X34045888Y-119460000D01*
X34725888Y-118529000D02*
X34725888Y-119460000D01*
X30240113Y-119025000D02*
X30740113Y-119025000D01*
X30490113Y-118775000D02*
X30490113Y-119275000D01*
X33444888Y-121540000D02*
X33444888Y-123050000D01*
X34205888Y-121540000D02*
X34205888Y-122810000D01*
X33124888Y-121540000D02*
X33124888Y-123079000D01*
X34045888Y-121540000D02*
X34045888Y-122882000D01*
X35565888Y-119823000D02*
X35565888Y-121177000D01*
X34605888Y-121540000D02*
X34605888Y-122565000D01*
X35165888Y-119000000D02*
X35165888Y-122000000D01*
X35664888Y-120500000D02*
G75*
G03*
X35664888Y-120500000I-2620000J0D01*
G01*
X40150000Y-100900000D02*
X49850000Y-100900000D01*
X46500000Y-110500000D02*
X43750000Y-108700000D01*
X49250000Y-108700000D02*
X49250000Y-106300000D01*
X40150000Y-113900000D02*
X40150000Y-114100000D01*
X49850000Y-114100000D02*
X40150000Y-114100000D01*
X52850000Y-100900000D02*
X49850000Y-100900000D01*
X46500000Y-104500000D02*
X49250000Y-106300000D01*
X46500000Y-104500000D02*
X43750000Y-106300000D01*
X49250000Y-108700000D02*
X46500000Y-110500000D01*
X52850000Y-114100000D02*
X49850000Y-114100000D01*
X40150000Y-107500000D02*
X40150000Y-100900000D01*
X40150000Y-113500000D02*
X40150000Y-113900000D01*
X40150000Y-107500000D02*
X40150000Y-113500000D01*
X52850000Y-100900000D02*
X52850000Y-114100000D01*
X43750000Y-108700000D02*
X43750000Y-106300000D01*
X49500000Y-107500000D02*
G75*
G03*
X49500000Y-107500000I-3000000J0D01*
G01*
X52770000Y-121630000D02*
X46230000Y-121630000D01*
X45460000Y-123000000D02*
X46230000Y-123000000D01*
X46230000Y-124370000D02*
X52770000Y-124370000D01*
X52770000Y-124370000D02*
X52770000Y-121630000D01*
X46230000Y-121630000D02*
X46230000Y-124370000D01*
X53540000Y-123000000D02*
X52770000Y-123000000D01*
X44435000Y-71101000D02*
X44435000Y-71420000D01*
X44435000Y-73580000D02*
X44435000Y-73899000D01*
X44435000Y-73898749D02*
G75*
G03*
X48738242Y-73580724I2060000J1398748D01*
G01*
X48738242Y-71419276D02*
G75*
G03*
X44435000Y-71101251I-2243242J-1080723D01*
G01*
X44811670Y-73580000D02*
G75*
G03*
X48177713Y-73580961I1683330J1080000D01*
G01*
X48177713Y-71419039D02*
G75*
G03*
X44811670Y-71420000I-1682713J-1080961D01*
G01*
X58960000Y-118500000D02*
X59730000Y-118500000D01*
X59730000Y-119870000D02*
X66270000Y-119870000D01*
X67040000Y-118500000D02*
X66270000Y-118500000D01*
X66270000Y-119870000D02*
X66270000Y-117130000D01*
X66270000Y-117130000D02*
X59730000Y-117130000D01*
X59730000Y-117130000D02*
X59730000Y-119870000D01*
X50299000Y-97383000D02*
X50299000Y-94617000D01*
X51539000Y-98398000D02*
X51539000Y-97040000D01*
X51099000Y-94960000D02*
X51099000Y-93825000D01*
X51179000Y-94960000D02*
X51179000Y-93776000D01*
X51659000Y-94960000D02*
X51659000Y-93558000D01*
X49979000Y-96677000D02*
X49979000Y-95323000D01*
X52020000Y-94960000D02*
X52020000Y-93464000D01*
X50939000Y-94960000D02*
X50939000Y-93935000D01*
X52340000Y-98576000D02*
X52340000Y-97040000D01*
X51820000Y-94960000D02*
X51820000Y-93509000D01*
X51699000Y-98455000D02*
X51699000Y-97040000D01*
X50859000Y-98004000D02*
X50859000Y-97040000D01*
X52100000Y-94960000D02*
X52100000Y-93450000D01*
X51499000Y-98382000D02*
X51499000Y-97040000D01*
X50579000Y-97743000D02*
X50579000Y-97040000D01*
X50779000Y-97937000D02*
X50779000Y-97040000D01*
X52300000Y-94960000D02*
X52300000Y-93427000D01*
X50339000Y-97443000D02*
X50339000Y-94557000D01*
X51659000Y-98442000D02*
X51659000Y-97040000D01*
X50379000Y-97500000D02*
X50379000Y-94500000D01*
X52380000Y-94960000D02*
X52380000Y-93422000D01*
X52420000Y-98579000D02*
X52420000Y-97040000D01*
X52380000Y-98578000D02*
X52380000Y-97040000D01*
X51739000Y-98468000D02*
X51739000Y-97040000D01*
X55304775Y-97475000D02*
X54804775Y-97475000D01*
X50459000Y-97605000D02*
X50459000Y-94395000D01*
X51379000Y-98329000D02*
X51379000Y-97040000D01*
X51019000Y-98122000D02*
X51019000Y-97040000D01*
X51459000Y-98365000D02*
X51459000Y-97040000D01*
X51699000Y-94960000D02*
X51699000Y-93545000D01*
X51579000Y-98414000D02*
X51579000Y-97040000D01*
X49899000Y-96284000D02*
X49899000Y-95716000D01*
X50819000Y-97971000D02*
X50819000Y-97040000D01*
X52220000Y-98565000D02*
X52220000Y-97040000D01*
X51139000Y-98200000D02*
X51139000Y-97040000D01*
X52460000Y-98580000D02*
X52460000Y-97040000D01*
X51299000Y-98290000D02*
X51299000Y-97040000D01*
X52420000Y-94960000D02*
X52420000Y-93421000D01*
X51059000Y-94960000D02*
X51059000Y-93851000D01*
X52100000Y-98550000D02*
X52100000Y-97040000D01*
X50219000Y-97251000D02*
X50219000Y-94749000D01*
X52300000Y-98573000D02*
X52300000Y-97040000D01*
X51940000Y-94960000D02*
X51940000Y-93480000D01*
X52060000Y-94960000D02*
X52060000Y-93457000D01*
X51299000Y-94960000D02*
X51299000Y-93710000D01*
X50819000Y-94960000D02*
X50819000Y-94029000D01*
X50539000Y-97699000D02*
X50539000Y-97040000D01*
X52060000Y-98543000D02*
X52060000Y-97040000D01*
X51259000Y-98268000D02*
X51259000Y-97040000D01*
X49939000Y-96518000D02*
X49939000Y-95482000D01*
X52220000Y-94960000D02*
X52220000Y-93435000D01*
X50899000Y-94960000D02*
X50899000Y-93965000D01*
X50179000Y-97178000D02*
X50179000Y-94822000D01*
X51860000Y-94960000D02*
X51860000Y-93499000D01*
X51779000Y-98480000D02*
X51779000Y-97040000D01*
X51459000Y-94960000D02*
X51459000Y-93635000D01*
X51900000Y-98511000D02*
X51900000Y-97040000D01*
X50139000Y-97098000D02*
X50139000Y-94902000D01*
X50859000Y-94960000D02*
X50859000Y-93996000D01*
X51860000Y-98501000D02*
X51860000Y-97040000D01*
X51259000Y-94960000D02*
X51259000Y-93732000D01*
X50659000Y-94960000D02*
X50659000Y-94174000D01*
X51219000Y-94960000D02*
X51219000Y-93753000D01*
X51419000Y-98348000D02*
X51419000Y-97040000D01*
X52500000Y-94960000D02*
X52500000Y-93420000D01*
X52260000Y-94960000D02*
X52260000Y-93431000D01*
X50099000Y-97011000D02*
X50099000Y-94989000D01*
X50979000Y-98095000D02*
X50979000Y-97040000D01*
X52140000Y-98556000D02*
X52140000Y-97040000D01*
X51019000Y-94960000D02*
X51019000Y-93878000D01*
X55054775Y-97725000D02*
X55054775Y-97225000D01*
X51980000Y-98528000D02*
X51980000Y-97040000D01*
X50659000Y-97826000D02*
X50659000Y-97040000D01*
X50739000Y-97901000D02*
X50739000Y-97040000D01*
X51099000Y-98175000D02*
X51099000Y-97040000D01*
X50619000Y-97785000D02*
X50619000Y-97040000D01*
X51539000Y-94960000D02*
X51539000Y-93602000D01*
X52020000Y-98536000D02*
X52020000Y-97040000D01*
X51820000Y-98491000D02*
X51820000Y-97040000D01*
X51739000Y-94960000D02*
X51739000Y-93532000D01*
X50419000Y-97554000D02*
X50419000Y-94446000D01*
X50699000Y-94960000D02*
X50699000Y-94136000D01*
X51619000Y-98428000D02*
X51619000Y-97040000D01*
X51219000Y-98247000D02*
X51219000Y-97040000D01*
X52180000Y-94960000D02*
X52180000Y-93439000D01*
X51059000Y-98149000D02*
X51059000Y-97040000D01*
X50539000Y-94960000D02*
X50539000Y-94301000D01*
X51419000Y-94960000D02*
X51419000Y-93652000D01*
X50939000Y-98065000D02*
X50939000Y-97040000D01*
X51980000Y-94960000D02*
X51980000Y-93472000D01*
X50579000Y-94960000D02*
X50579000Y-94257000D01*
X52340000Y-94960000D02*
X52340000Y-93424000D01*
X51179000Y-98224000D02*
X51179000Y-97040000D01*
X52260000Y-98569000D02*
X52260000Y-97040000D01*
X51499000Y-94960000D02*
X51499000Y-93618000D01*
X51779000Y-94960000D02*
X51779000Y-93520000D01*
X51940000Y-98520000D02*
X51940000Y-97040000D01*
X51339000Y-98310000D02*
X51339000Y-97040000D01*
X51339000Y-94960000D02*
X51339000Y-93690000D01*
X50979000Y-94960000D02*
X50979000Y-93905000D01*
X51579000Y-94960000D02*
X51579000Y-93586000D01*
X50499000Y-94960000D02*
X50499000Y-94347000D01*
X50739000Y-94960000D02*
X50739000Y-94099000D01*
X52460000Y-94960000D02*
X52460000Y-93420000D01*
X50019000Y-96805000D02*
X50019000Y-95195000D01*
X52500000Y-98580000D02*
X52500000Y-97040000D01*
X51139000Y-94960000D02*
X51139000Y-93800000D01*
X52140000Y-94960000D02*
X52140000Y-93444000D01*
X50499000Y-97653000D02*
X50499000Y-97040000D01*
X50899000Y-98035000D02*
X50899000Y-97040000D01*
X50259000Y-97319000D02*
X50259000Y-94681000D01*
X51619000Y-94960000D02*
X51619000Y-93572000D01*
X51900000Y-94960000D02*
X51900000Y-93489000D01*
X50699000Y-97864000D02*
X50699000Y-97040000D01*
X52180000Y-98561000D02*
X52180000Y-97040000D01*
X50059000Y-96915000D02*
X50059000Y-95085000D01*
X50779000Y-94960000D02*
X50779000Y-94063000D01*
X51379000Y-94960000D02*
X51379000Y-93671000D01*
X50619000Y-94960000D02*
X50619000Y-94215000D01*
X55120000Y-96000000D02*
G75*
G03*
X55120000Y-96000000I-2620000J0D01*
G01*
X67040000Y-96000000D02*
X66270000Y-96000000D01*
X66270000Y-97370000D02*
X66270000Y-94630000D01*
X66270000Y-94630000D02*
X59730000Y-94630000D01*
X59730000Y-97370000D02*
X66270000Y-97370000D01*
X58960000Y-96000000D02*
X59730000Y-96000000D01*
X59730000Y-94630000D02*
X59730000Y-97370000D01*
X56030000Y-60795000D02*
X56030000Y-56930000D01*
X56030000Y-69170000D02*
X57629000Y-69170000D01*
X59371000Y-69170000D02*
X60130000Y-69170000D01*
X56030000Y-56930000D02*
X65970000Y-56930000D01*
X61871000Y-69170000D02*
X62630000Y-69170000D01*
X65970000Y-69170000D02*
X65970000Y-65305000D01*
X64370000Y-69170000D02*
X65970000Y-69170000D01*
X65970000Y-60795000D02*
X65970000Y-56930000D01*
X56030000Y-69170000D02*
X56030000Y-65305000D01*
X40270000Y-49870000D02*
X40270000Y-47130000D01*
X33730000Y-49870000D02*
X40270000Y-49870000D01*
X40270000Y-47130000D02*
X33730000Y-47130000D01*
X32960000Y-48500000D02*
X33730000Y-48500000D01*
X33730000Y-47130000D02*
X33730000Y-49870000D01*
X41040000Y-48500000D02*
X40270000Y-48500000D01*
X33730000Y-117370000D02*
X40270000Y-117370000D01*
X33730000Y-114630000D02*
X33730000Y-117370000D01*
X41040000Y-116000000D02*
X40270000Y-116000000D01*
X40270000Y-117370000D02*
X40270000Y-114630000D01*
X40270000Y-114630000D02*
X33730000Y-114630000D01*
X32960000Y-116000000D02*
X33730000Y-116000000D01*
X44435000Y-93601000D02*
X44435000Y-93920000D01*
X44435000Y-96080000D02*
X44435000Y-96399000D01*
X48177713Y-93919039D02*
G75*
G03*
X44811670Y-93920000I-1682713J-1080961D01*
G01*
X44811670Y-96080000D02*
G75*
G03*
X48177713Y-96080961I1683330J1080000D01*
G01*
X48738242Y-93919276D02*
G75*
G03*
X44435000Y-93601251I-2243242J-1080723D01*
G01*
X44435000Y-96398749D02*
G75*
G03*
X48738242Y-96080724I2060000J1398748D01*
G01*
X32960000Y-71000000D02*
X33730000Y-71000000D01*
X33730000Y-69630000D02*
X33730000Y-72370000D01*
X33730000Y-72370000D02*
X40270000Y-72370000D01*
X41040000Y-71000000D02*
X40270000Y-71000000D01*
X40270000Y-69630000D02*
X33730000Y-69630000D01*
X40270000Y-72370000D02*
X40270000Y-69630000D01*
X65960000Y-138164887D02*
X64422000Y-138164887D01*
X65960000Y-139685887D02*
X64996000Y-139685887D01*
X65960000Y-138204887D02*
X64424000Y-138204887D01*
X65960000Y-138124887D02*
X64421000Y-138124887D01*
X69480000Y-138765887D02*
X68040000Y-138765887D01*
X65960000Y-139245887D02*
X64710000Y-139245887D01*
X65960000Y-139765887D02*
X65063000Y-139765887D01*
X68785000Y-139925887D02*
X68040000Y-139925887D01*
X65960000Y-139045887D02*
X64618000Y-139045887D01*
X69442000Y-138885887D02*
X68040000Y-138885887D01*
X68383000Y-140245887D02*
X65617000Y-140245887D01*
X69573000Y-138244887D02*
X68040000Y-138244887D01*
X65960000Y-138965887D02*
X64586000Y-138965887D01*
X69149000Y-139485887D02*
X68040000Y-139485887D01*
X68319000Y-140285887D02*
X65681000Y-140285887D01*
X69536000Y-138524887D02*
X68040000Y-138524887D01*
X69511000Y-138644887D02*
X68040000Y-138644887D01*
X69268000Y-139285887D02*
X68040000Y-139285887D01*
X69290000Y-139245887D02*
X68040000Y-139245887D01*
X65960000Y-138404887D02*
X64444000Y-138404887D01*
X65960000Y-138244887D02*
X64427000Y-138244887D01*
X69550000Y-138444887D02*
X68040000Y-138444887D01*
X69455000Y-138845887D02*
X68040000Y-138845887D01*
X65960000Y-138324887D02*
X64435000Y-138324887D01*
X65960000Y-138845887D02*
X64545000Y-138845887D01*
X69398000Y-139005887D02*
X68040000Y-139005887D01*
X69468000Y-138805887D02*
X68040000Y-138805887D01*
X69491000Y-138724887D02*
X68040000Y-138724887D01*
X68653000Y-140045887D02*
X68040000Y-140045887D01*
X69543000Y-138484887D02*
X68040000Y-138484887D01*
X69580000Y-138084887D02*
X68040000Y-138084887D01*
X68937000Y-139765887D02*
X68040000Y-139765887D01*
X65960000Y-139445887D02*
X64825000Y-139445887D01*
X67518000Y-140605887D02*
X66482000Y-140605887D01*
X68826000Y-139885887D02*
X68040000Y-139885887D01*
X68098000Y-140405887D02*
X65902000Y-140405887D01*
X67915000Y-140485887D02*
X66085000Y-140485887D01*
X68864000Y-139845887D02*
X68040000Y-139845887D01*
X67805000Y-140525887D02*
X66195000Y-140525887D01*
X69382000Y-139045887D02*
X68040000Y-139045887D01*
X69348000Y-139125887D02*
X68040000Y-139125887D01*
X69365000Y-139085887D02*
X68040000Y-139085887D01*
X67284000Y-140645887D02*
X66716000Y-140645887D01*
X69200000Y-139405887D02*
X68040000Y-139405887D01*
X69310000Y-139205887D02*
X68040000Y-139205887D01*
X69528000Y-138564887D02*
X68040000Y-138564887D01*
X69414000Y-138965887D02*
X68040000Y-138965887D01*
X65960000Y-138444887D02*
X64450000Y-138444887D01*
X65960000Y-139365887D02*
X64776000Y-139365887D01*
X65960000Y-139965887D02*
X65257000Y-139965887D01*
X65960000Y-138364887D02*
X64439000Y-138364887D01*
X65960000Y-140005887D02*
X65301000Y-140005887D01*
X65960000Y-139925887D02*
X65215000Y-139925887D01*
X69247000Y-139325887D02*
X68040000Y-139325887D01*
X67677000Y-140565887D02*
X66323000Y-140565887D01*
X68605000Y-140085887D02*
X65395000Y-140085887D01*
X65960000Y-139845887D02*
X65136000Y-139845887D01*
X68743000Y-139965887D02*
X68040000Y-139965887D01*
X68443000Y-140205887D02*
X65557000Y-140205887D01*
X65960000Y-139325887D02*
X64753000Y-139325887D01*
X68971000Y-139725887D02*
X68040000Y-139725887D01*
X69175000Y-139445887D02*
X68040000Y-139445887D01*
X65960000Y-140045887D02*
X65347000Y-140045887D01*
X65960000Y-139125887D02*
X64652000Y-139125887D01*
X68500000Y-140165887D02*
X65500000Y-140165887D01*
X65960000Y-138805887D02*
X64532000Y-138805887D01*
X69122000Y-139525887D02*
X68040000Y-139525887D01*
X69576000Y-138204887D02*
X68040000Y-138204887D01*
X69065000Y-139605887D02*
X68040000Y-139605887D01*
X69004000Y-139685887D02*
X68040000Y-139685887D01*
X69329000Y-139165887D02*
X68040000Y-139165887D01*
X68554000Y-140125887D02*
X65446000Y-140125887D01*
X69579000Y-138124887D02*
X68040000Y-138124887D01*
X65960000Y-139805887D02*
X65099000Y-139805887D01*
X69035000Y-139645887D02*
X68040000Y-139645887D01*
X65960000Y-138765887D02*
X64520000Y-138765887D01*
X69580000Y-138044887D02*
X68040000Y-138044887D01*
X69565000Y-138324887D02*
X68040000Y-138324887D01*
X65960000Y-138644887D02*
X64489000Y-138644887D01*
X69501000Y-138684887D02*
X68040000Y-138684887D01*
X65960000Y-139005887D02*
X64602000Y-139005887D01*
X69428000Y-138925887D02*
X68040000Y-138925887D01*
X69569000Y-138284887D02*
X68040000Y-138284887D01*
X68011000Y-140445887D02*
X65989000Y-140445887D01*
X69224000Y-139365887D02*
X68040000Y-139365887D01*
X68699000Y-140005887D02*
X68040000Y-140005887D01*
X65960000Y-139085887D02*
X64635000Y-139085887D01*
X65960000Y-139645887D02*
X64965000Y-139645887D01*
X65960000Y-138604887D02*
X64480000Y-138604887D01*
X65960000Y-139565887D02*
X64905000Y-139565887D01*
X65960000Y-138925887D02*
X64572000Y-138925887D01*
X65960000Y-139205887D02*
X64690000Y-139205887D01*
X65960000Y-139405887D02*
X64800000Y-139405887D01*
X68475000Y-135240112D02*
X68475000Y-135740112D01*
X69520000Y-138604887D02*
X68040000Y-138604887D01*
X68178000Y-140365887D02*
X65822000Y-140365887D01*
X65960000Y-139885887D02*
X65174000Y-139885887D01*
X68725000Y-135490112D02*
X68225000Y-135490112D01*
X69095000Y-139565887D02*
X68040000Y-139565887D01*
X69561000Y-138364887D02*
X68040000Y-138364887D01*
X65960000Y-139285887D02*
X64732000Y-139285887D01*
X69556000Y-138404887D02*
X68040000Y-138404887D01*
X65960000Y-138524887D02*
X64464000Y-138524887D01*
X65960000Y-138084887D02*
X64420000Y-138084887D01*
X69578000Y-138164887D02*
X68040000Y-138164887D01*
X65960000Y-138724887D02*
X64509000Y-138724887D01*
X65960000Y-138284887D02*
X64431000Y-138284887D01*
X68901000Y-139805887D02*
X68040000Y-139805887D01*
X68251000Y-140325887D02*
X65749000Y-140325887D01*
X65960000Y-138885887D02*
X64558000Y-138885887D01*
X65960000Y-139485887D02*
X64851000Y-139485887D01*
X65960000Y-138684887D02*
X64499000Y-138684887D01*
X65960000Y-138564887D02*
X64472000Y-138564887D01*
X65960000Y-138484887D02*
X64457000Y-138484887D01*
X65960000Y-139725887D02*
X65029000Y-139725887D01*
X65960000Y-138044887D02*
X64420000Y-138044887D01*
X65960000Y-139525887D02*
X64878000Y-139525887D01*
X65960000Y-139605887D02*
X64935000Y-139605887D01*
X65960000Y-139165887D02*
X64671000Y-139165887D01*
X69620000Y-138044887D02*
G75*
G03*
X69620000Y-138044887I-2620000J0D01*
G01*
X34440000Y-100000000D02*
X34440000Y-100800000D01*
X31000000Y-102980000D02*
X31000000Y-113480000D01*
X40000000Y-102980000D02*
X40000000Y-113480000D01*
X40000000Y-102980000D02*
X35850000Y-102980000D01*
X35150000Y-102980000D02*
X31000000Y-102980000D01*
X34440000Y-100000000D02*
X35300000Y-100000000D01*
X35000000Y-113480000D02*
X31000000Y-113480000D01*
X40000000Y-113480000D02*
X36000000Y-113480000D01*
X37300000Y-107480000D02*
G75*
G03*
X37300000Y-107480000I-1800000J0D01*
G01*
X53540000Y-130000000D02*
X52770000Y-130000000D01*
X45460000Y-130000000D02*
X46230000Y-130000000D01*
X46230000Y-128630000D02*
X46230000Y-131370000D01*
X46230000Y-131370000D02*
X52770000Y-131370000D01*
X52770000Y-131370000D02*
X52770000Y-128630000D01*
X52770000Y-128630000D02*
X46230000Y-128630000D01*
X46500000Y-37000000D02*
X49250000Y-38800000D01*
X52850000Y-33400000D02*
X52850000Y-46600000D01*
X40150000Y-40000000D02*
X40150000Y-33400000D01*
X46500000Y-37000000D02*
X43750000Y-38800000D01*
X40150000Y-40000000D02*
X40150000Y-46000000D01*
X40150000Y-46400000D02*
X40150000Y-46600000D01*
X49250000Y-41200000D02*
X49250000Y-38800000D01*
X52850000Y-46600000D02*
X49850000Y-46600000D01*
X49850000Y-46600000D02*
X40150000Y-46600000D01*
X49250000Y-41200000D02*
X46500000Y-43000000D01*
X52850000Y-33400000D02*
X49850000Y-33400000D01*
X40150000Y-33400000D02*
X49850000Y-33400000D01*
X40150000Y-46000000D02*
X40150000Y-46400000D01*
X43750000Y-41200000D02*
X43750000Y-38800000D01*
X46500000Y-43000000D02*
X43750000Y-41200000D01*
X49500000Y-40000000D02*
G75*
G03*
X49500000Y-40000000I-3000000J0D01*
G01*
X56030000Y-34430000D02*
X65970000Y-34430000D01*
X56030000Y-38295000D02*
X56030000Y-34430000D01*
X65970000Y-38295000D02*
X65970000Y-34430000D01*
X56030000Y-46670000D02*
X57629000Y-46670000D01*
X65970000Y-46670000D02*
X65970000Y-42805000D01*
X61871000Y-46670000D02*
X62630000Y-46670000D01*
X59371000Y-46670000D02*
X60130000Y-46670000D01*
X56030000Y-46670000D02*
X56030000Y-42805000D01*
X64370000Y-46670000D02*
X65970000Y-46670000D01*
X32960000Y-93500000D02*
X33730000Y-93500000D01*
X33730000Y-92130000D02*
X33730000Y-94870000D01*
X33730000Y-94870000D02*
X40270000Y-94870000D01*
X40270000Y-92130000D02*
X33730000Y-92130000D01*
X41040000Y-93500000D02*
X40270000Y-93500000D01*
X40270000Y-94870000D02*
X40270000Y-92130000D01*
X44435000Y-116101000D02*
X44435000Y-116420000D01*
X44435000Y-118580000D02*
X44435000Y-118899000D01*
X48177713Y-116419039D02*
G75*
G03*
X44811670Y-116420000I-1682713J-1080961D01*
G01*
X44435000Y-118898749D02*
G75*
G03*
X48738242Y-118580724I2060000J1398748D01*
G01*
X48738242Y-116419276D02*
G75*
G03*
X44435000Y-116101251I-2243242J-1080723D01*
G01*
X44811670Y-118580000D02*
G75*
G03*
X48177713Y-118580961I1683330J1080000D01*
G01*
X67040000Y-73500000D02*
X66270000Y-73500000D01*
X66270000Y-72130000D02*
X59730000Y-72130000D01*
X59730000Y-74870000D02*
X66270000Y-74870000D01*
X58960000Y-73500000D02*
X59730000Y-73500000D01*
X59730000Y-72130000D02*
X59730000Y-74870000D01*
X66270000Y-74870000D02*
X66270000Y-72130000D01*
X51334112Y-120829000D02*
X51334112Y-119540000D01*
X50814112Y-120504000D02*
X50814112Y-119540000D01*
X51374112Y-120848000D02*
X51374112Y-119540000D01*
X52295112Y-121076000D02*
X52295112Y-119540000D01*
X55259887Y-119975000D02*
X54759887Y-119975000D01*
X50614112Y-117460000D02*
X50614112Y-116674000D01*
X50734112Y-120437000D02*
X50734112Y-119540000D01*
X51054112Y-120675000D02*
X51054112Y-119540000D01*
X52455112Y-121080000D02*
X52455112Y-119540000D01*
X51334112Y-117460000D02*
X51334112Y-116171000D01*
X50134112Y-119678000D02*
X50134112Y-117322000D01*
X50054112Y-119511000D02*
X50054112Y-117489000D01*
X52135112Y-121061000D02*
X52135112Y-119540000D01*
X51254112Y-120790000D02*
X51254112Y-119540000D01*
X50934112Y-117460000D02*
X50934112Y-116405000D01*
X52095112Y-121056000D02*
X52095112Y-119540000D01*
X51454112Y-120882000D02*
X51454112Y-119540000D01*
X49854112Y-118784000D02*
X49854112Y-118216000D01*
X50814112Y-117460000D02*
X50814112Y-116496000D01*
X51614112Y-120942000D02*
X51614112Y-119540000D01*
X51935112Y-117460000D02*
X51935112Y-115972000D01*
X51134112Y-120724000D02*
X51134112Y-119540000D01*
X50254112Y-119883000D02*
X50254112Y-117117000D01*
X51775112Y-117460000D02*
X51775112Y-116009000D01*
X51614112Y-117460000D02*
X51614112Y-116058000D01*
X50574112Y-117460000D02*
X50574112Y-116715000D01*
X50974112Y-117460000D02*
X50974112Y-116378000D01*
X52295112Y-117460000D02*
X52295112Y-115924000D01*
X51454112Y-117460000D02*
X51454112Y-116118000D01*
X51895112Y-117460000D02*
X51895112Y-115980000D01*
X51214112Y-120768000D02*
X51214112Y-119540000D01*
X51574112Y-117460000D02*
X51574112Y-116072000D01*
X51694112Y-117460000D02*
X51694112Y-116032000D01*
X50734112Y-117460000D02*
X50734112Y-116563000D01*
X51734112Y-117460000D02*
X51734112Y-116020000D01*
X51734112Y-120980000D02*
X51734112Y-119540000D01*
X51494112Y-120898000D02*
X51494112Y-119540000D01*
X52215112Y-117460000D02*
X52215112Y-115931000D01*
X51174112Y-120747000D02*
X51174112Y-119540000D01*
X50334112Y-120000000D02*
X50334112Y-117000000D01*
X52415112Y-117460000D02*
X52415112Y-115920000D01*
X51294112Y-120810000D02*
X51294112Y-119540000D01*
X50174112Y-119751000D02*
X50174112Y-117249000D01*
X52015112Y-121043000D02*
X52015112Y-119540000D01*
X51855112Y-121011000D02*
X51855112Y-119540000D01*
X50894112Y-120565000D02*
X50894112Y-119540000D01*
X52135112Y-117460000D02*
X52135112Y-115939000D01*
X50694112Y-117460000D02*
X50694112Y-116599000D01*
X50534112Y-117460000D02*
X50534112Y-116757000D01*
X50214112Y-119819000D02*
X50214112Y-117181000D01*
X52255112Y-117460000D02*
X52255112Y-115927000D01*
X50774112Y-117460000D02*
X50774112Y-116529000D01*
X50694112Y-120401000D02*
X50694112Y-119540000D01*
X51054112Y-117460000D02*
X51054112Y-116325000D01*
X52055112Y-117460000D02*
X52055112Y-115950000D01*
X51374112Y-117460000D02*
X51374112Y-116152000D01*
X52175112Y-121065000D02*
X52175112Y-119540000D01*
X50454112Y-120153000D02*
X50454112Y-119540000D01*
X51975112Y-117460000D02*
X51975112Y-115964000D01*
X51694112Y-120968000D02*
X51694112Y-119540000D01*
X50374112Y-120054000D02*
X50374112Y-116946000D01*
X51414112Y-120865000D02*
X51414112Y-119540000D01*
X51254112Y-117460000D02*
X51254112Y-116210000D01*
X50654112Y-117460000D02*
X50654112Y-116636000D01*
X50574112Y-120285000D02*
X50574112Y-119540000D01*
X51935112Y-121028000D02*
X51935112Y-119540000D01*
X52335112Y-121078000D02*
X52335112Y-119540000D01*
X50494112Y-117460000D02*
X50494112Y-116801000D01*
X52375112Y-117460000D02*
X52375112Y-115921000D01*
X50094112Y-119598000D02*
X50094112Y-117402000D01*
X52415112Y-121080000D02*
X52415112Y-119540000D01*
X51014112Y-120649000D02*
X51014112Y-119540000D01*
X51815112Y-117460000D02*
X51815112Y-115999000D01*
X51174112Y-117460000D02*
X51174112Y-116253000D01*
X50294112Y-119943000D02*
X50294112Y-117057000D01*
X51895112Y-121020000D02*
X51895112Y-119540000D01*
X52335112Y-117460000D02*
X52335112Y-115922000D01*
X49934112Y-119177000D02*
X49934112Y-117823000D01*
X49894112Y-119018000D02*
X49894112Y-117982000D01*
X51815112Y-121001000D02*
X51815112Y-119540000D01*
X51494112Y-117460000D02*
X51494112Y-116102000D01*
X51294112Y-117460000D02*
X51294112Y-116190000D01*
X51414112Y-117460000D02*
X51414112Y-116135000D01*
X51134112Y-117460000D02*
X51134112Y-116276000D01*
X52095112Y-117460000D02*
X52095112Y-115944000D01*
X50454112Y-117460000D02*
X50454112Y-116847000D01*
X52015112Y-117460000D02*
X52015112Y-115957000D01*
X50014112Y-119415000D02*
X50014112Y-117585000D01*
X50534112Y-120243000D02*
X50534112Y-119540000D01*
X51975112Y-121036000D02*
X51975112Y-119540000D01*
X51574112Y-120928000D02*
X51574112Y-119540000D01*
X50854112Y-120535000D02*
X50854112Y-119540000D01*
X51094112Y-117460000D02*
X51094112Y-116300000D01*
X50854112Y-117460000D02*
X50854112Y-116465000D01*
X50654112Y-120364000D02*
X50654112Y-119540000D01*
X51534112Y-120914000D02*
X51534112Y-119540000D01*
X50894112Y-117460000D02*
X50894112Y-116435000D01*
X51534112Y-117460000D02*
X51534112Y-116086000D01*
X52255112Y-121073000D02*
X52255112Y-119540000D01*
X51094112Y-120700000D02*
X51094112Y-119540000D01*
X52375112Y-121079000D02*
X52375112Y-119540000D01*
X49974112Y-119305000D02*
X49974112Y-117695000D01*
X50614112Y-120326000D02*
X50614112Y-119540000D01*
X50774112Y-120471000D02*
X50774112Y-119540000D01*
X52055112Y-121050000D02*
X52055112Y-119540000D01*
X50414112Y-120105000D02*
X50414112Y-116895000D01*
X51654112Y-120955000D02*
X51654112Y-119540000D01*
X51855112Y-117460000D02*
X51855112Y-115989000D01*
X52215112Y-121069000D02*
X52215112Y-119540000D01*
X51775112Y-120991000D02*
X51775112Y-119540000D01*
X51014112Y-117460000D02*
X51014112Y-116351000D01*
X51654112Y-117460000D02*
X51654112Y-116045000D01*
X50934112Y-120595000D02*
X50934112Y-119540000D01*
X52175112Y-117460000D02*
X52175112Y-115935000D01*
X50974112Y-120622000D02*
X50974112Y-119540000D01*
X50494112Y-120199000D02*
X50494112Y-119540000D01*
X51214112Y-117460000D02*
X51214112Y-116232000D01*
X55009887Y-120225000D02*
X55009887Y-119725000D01*
X52455112Y-117460000D02*
X52455112Y-115920000D01*
X55075112Y-118500000D02*
G75*
G03*
X55075112Y-118500000I-2620000J0D01*
G01*
X67040000Y-51000000D02*
X66270000Y-51000000D01*
X66270000Y-52370000D02*
X66270000Y-49630000D01*
X58960000Y-51000000D02*
X59730000Y-51000000D01*
X59730000Y-52370000D02*
X66270000Y-52370000D01*
X59730000Y-49630000D02*
X59730000Y-52370000D01*
X66270000Y-49630000D02*
X59730000Y-49630000D01*
X34440000Y-55000000D02*
X35300000Y-55000000D01*
X34440000Y-55000000D02*
X34440000Y-55800000D01*
X40000000Y-68480000D02*
X36000000Y-68480000D01*
X31000000Y-57980000D02*
X31000000Y-68480000D01*
X35000000Y-68480000D02*
X31000000Y-68480000D01*
X40000000Y-57980000D02*
X40000000Y-68480000D01*
X40000000Y-57980000D02*
X35850000Y-57980000D01*
X35150000Y-57980000D02*
X31000000Y-57980000D01*
X37300000Y-62480000D02*
G75*
G03*
X37300000Y-62480000I-1800000J0D01*
G01*
X52850000Y-91600000D02*
X49850000Y-91600000D01*
X52850000Y-78400000D02*
X52850000Y-91600000D01*
X52850000Y-78400000D02*
X49850000Y-78400000D01*
X49250000Y-86200000D02*
X49250000Y-83800000D01*
X40150000Y-78400000D02*
X49850000Y-78400000D01*
X46500000Y-82000000D02*
X43750000Y-83800000D01*
X40150000Y-85000000D02*
X40150000Y-91000000D01*
X43750000Y-86200000D02*
X43750000Y-83800000D01*
X46500000Y-88000000D02*
X43750000Y-86200000D01*
X49250000Y-86200000D02*
X46500000Y-88000000D01*
X40150000Y-91000000D02*
X40150000Y-91400000D01*
X40150000Y-91400000D02*
X40150000Y-91600000D01*
X49850000Y-91600000D02*
X40150000Y-91600000D01*
X46500000Y-82000000D02*
X49250000Y-83800000D01*
X40150000Y-85000000D02*
X40150000Y-78400000D01*
X49500000Y-85000000D02*
G75*
G03*
X49500000Y-85000000I-3000000J0D01*
G01*
X46500000Y-59500000D02*
X49250000Y-61300000D01*
X52850000Y-55900000D02*
X49850000Y-55900000D01*
X49850000Y-69100000D02*
X40150000Y-69100000D01*
X43750000Y-63700000D02*
X43750000Y-61300000D01*
X52850000Y-55900000D02*
X52850000Y-69100000D01*
X40150000Y-68900000D02*
X40150000Y-69100000D01*
X40150000Y-68500000D02*
X40150000Y-68900000D01*
X40150000Y-62500000D02*
X40150000Y-55900000D01*
X52850000Y-69100000D02*
X49850000Y-69100000D01*
X49250000Y-63700000D02*
X46500000Y-65500000D01*
X40150000Y-55900000D02*
X49850000Y-55900000D01*
X46500000Y-65500000D02*
X43750000Y-63700000D01*
X46500000Y-59500000D02*
X43750000Y-61300000D01*
X40150000Y-62500000D02*
X40150000Y-68500000D01*
X49250000Y-63700000D02*
X49250000Y-61300000D01*
X49500000Y-62500000D02*
G75*
G03*
X49500000Y-62500000I-3000000J0D01*
G01*
X31000000Y-35480000D02*
X31000000Y-45980000D01*
X40000000Y-35480000D02*
X40000000Y-45980000D01*
X40000000Y-35480000D02*
X35850000Y-35480000D01*
X35150000Y-35480000D02*
X31000000Y-35480000D01*
X34440000Y-32500000D02*
X34440000Y-33300000D01*
X35000000Y-45980000D02*
X31000000Y-45980000D01*
X34440000Y-32500000D02*
X35300000Y-32500000D01*
X40000000Y-45980000D02*
X36000000Y-45980000D01*
X37300000Y-39980000D02*
G75*
G03*
X37300000Y-39980000I-1800000J0D01*
G01*
X52770000Y-127870000D02*
X52770000Y-125130000D01*
X46230000Y-127870000D02*
X52770000Y-127870000D01*
X46230000Y-125130000D02*
X46230000Y-127870000D01*
X52770000Y-125130000D02*
X46230000Y-125130000D01*
X53540000Y-126500000D02*
X52770000Y-126500000D01*
X45460000Y-126500000D02*
X46230000Y-126500000D01*
X44435000Y-48601000D02*
X44435000Y-48920000D01*
X44435000Y-51080000D02*
X44435000Y-51399000D01*
X48177713Y-48919039D02*
G75*
G03*
X44811670Y-48920000I-1682713J-1080961D01*
G01*
X44435000Y-51398749D02*
G75*
G03*
X48738242Y-51080724I2060000J1398748D01*
G01*
X48738242Y-48919276D02*
G75*
G03*
X44435000Y-48601251I-2243242J-1080723D01*
G01*
X44811670Y-51080000D02*
G75*
G03*
X48177713Y-51080961I1683330J1080000D01*
G01*
X51734113Y-49960000D02*
X51734113Y-48520000D01*
X51294113Y-49960000D02*
X51294113Y-48690000D01*
X52055113Y-49960000D02*
X52055113Y-48450000D01*
X51775113Y-49960000D02*
X51775113Y-48509000D01*
X51975113Y-53536000D02*
X51975113Y-52040000D01*
X51214113Y-49960000D02*
X51214113Y-48732000D01*
X51614113Y-53442000D02*
X51614113Y-52040000D01*
X51254113Y-53290000D02*
X51254113Y-52040000D01*
X51975113Y-49960000D02*
X51975113Y-48464000D01*
X50574113Y-52785000D02*
X50574113Y-52040000D01*
X52255113Y-49960000D02*
X52255113Y-48427000D01*
X51534113Y-49960000D02*
X51534113Y-48586000D01*
X50854113Y-49960000D02*
X50854113Y-48965000D01*
X52215113Y-53569000D02*
X52215113Y-52040000D01*
X49854113Y-51284000D02*
X49854113Y-50716000D01*
X51374113Y-53348000D02*
X51374113Y-52040000D01*
X52375113Y-49960000D02*
X52375113Y-48421000D01*
X50974113Y-49960000D02*
X50974113Y-48878000D01*
X50494113Y-49960000D02*
X50494113Y-49301000D01*
X51414113Y-49960000D02*
X51414113Y-48635000D01*
X50574113Y-49960000D02*
X50574113Y-49215000D01*
X50014113Y-51915000D02*
X50014113Y-50085000D01*
X50094113Y-52098000D02*
X50094113Y-49902000D01*
X49934113Y-51677000D02*
X49934113Y-50323000D01*
X51614113Y-49960000D02*
X51614113Y-48558000D01*
X51454113Y-49960000D02*
X51454113Y-48618000D01*
X52415113Y-53580000D02*
X52415113Y-52040000D01*
X52375113Y-53579000D02*
X52375113Y-52040000D01*
X51574113Y-49960000D02*
X51574113Y-48572000D01*
X52135113Y-49960000D02*
X52135113Y-48439000D01*
X51094113Y-53200000D02*
X51094113Y-52040000D01*
X51054113Y-53175000D02*
X51054113Y-52040000D01*
X50454113Y-49960000D02*
X50454113Y-49347000D01*
X52335113Y-49960000D02*
X52335113Y-48422000D01*
X50534113Y-49960000D02*
X50534113Y-49257000D01*
X51855113Y-49960000D02*
X51855113Y-48489000D01*
X52015113Y-53543000D02*
X52015113Y-52040000D01*
X50254113Y-52383000D02*
X50254113Y-49617000D01*
X50694113Y-49960000D02*
X50694113Y-49099000D01*
X51855113Y-53511000D02*
X51855113Y-52040000D01*
X49974113Y-51805000D02*
X49974113Y-50195000D01*
X50934113Y-53095000D02*
X50934113Y-52040000D01*
X50494113Y-52699000D02*
X50494113Y-52040000D01*
X50614113Y-49960000D02*
X50614113Y-49174000D01*
X52455113Y-53580000D02*
X52455113Y-52040000D01*
X52095113Y-53556000D02*
X52095113Y-52040000D01*
X51574113Y-53428000D02*
X51574113Y-52040000D01*
X51174113Y-49960000D02*
X51174113Y-48753000D01*
X51334113Y-53329000D02*
X51334113Y-52040000D01*
X51775113Y-53491000D02*
X51775113Y-52040000D01*
X52255113Y-53573000D02*
X52255113Y-52040000D01*
X52095113Y-49960000D02*
X52095113Y-48444000D01*
X51134113Y-53224000D02*
X51134113Y-52040000D01*
X50454113Y-52653000D02*
X50454113Y-52040000D01*
X52335113Y-53578000D02*
X52335113Y-52040000D01*
X50334113Y-52500000D02*
X50334113Y-49500000D01*
X50974113Y-53122000D02*
X50974113Y-52040000D01*
X55259888Y-52475000D02*
X54759888Y-52475000D01*
X50294113Y-52443000D02*
X50294113Y-49557000D01*
X51414113Y-53365000D02*
X51414113Y-52040000D01*
X51935113Y-53528000D02*
X51935113Y-52040000D01*
X51014113Y-49960000D02*
X51014113Y-48851000D01*
X51694113Y-53468000D02*
X51694113Y-52040000D01*
X51935113Y-49960000D02*
X51935113Y-48472000D01*
X51214113Y-53268000D02*
X51214113Y-52040000D01*
X52295113Y-53576000D02*
X52295113Y-52040000D01*
X50814113Y-49960000D02*
X50814113Y-48996000D01*
X51174113Y-53247000D02*
X51174113Y-52040000D01*
X51014113Y-53149000D02*
X51014113Y-52040000D01*
X52175113Y-53565000D02*
X52175113Y-52040000D01*
X51694113Y-49960000D02*
X51694113Y-48532000D01*
X51815113Y-49960000D02*
X51815113Y-48499000D01*
X50654113Y-52864000D02*
X50654113Y-52040000D01*
X52055113Y-53550000D02*
X52055113Y-52040000D01*
X51294113Y-53310000D02*
X51294113Y-52040000D01*
X49894113Y-51518000D02*
X49894113Y-50482000D01*
X52455113Y-49960000D02*
X52455113Y-48420000D01*
X50614113Y-52826000D02*
X50614113Y-52040000D01*
X50654113Y-49960000D02*
X50654113Y-49136000D01*
X50774113Y-49960000D02*
X50774113Y-49029000D01*
X51494113Y-49960000D02*
X51494113Y-48602000D01*
X51654113Y-53455000D02*
X51654113Y-52040000D01*
X50774113Y-52971000D02*
X50774113Y-52040000D01*
X51334113Y-49960000D02*
X51334113Y-48671000D01*
X55009888Y-52725000D02*
X55009888Y-52225000D01*
X51374113Y-49960000D02*
X51374113Y-48652000D01*
X51734113Y-53480000D02*
X51734113Y-52040000D01*
X50414113Y-52605000D02*
X50414113Y-49395000D01*
X50374113Y-52554000D02*
X50374113Y-49446000D01*
X51254113Y-49960000D02*
X51254113Y-48710000D01*
X50214113Y-52319000D02*
X50214113Y-49681000D01*
X52295113Y-49960000D02*
X52295113Y-48424000D01*
X52215113Y-49960000D02*
X52215113Y-48431000D01*
X52135113Y-53561000D02*
X52135113Y-52040000D01*
X51895113Y-49960000D02*
X51895113Y-48480000D01*
X52175113Y-49960000D02*
X52175113Y-48435000D01*
X50854113Y-53035000D02*
X50854113Y-52040000D01*
X50054113Y-52011000D02*
X50054113Y-49989000D01*
X50694113Y-52901000D02*
X50694113Y-52040000D01*
X52015113Y-49960000D02*
X52015113Y-48457000D01*
X52415113Y-49960000D02*
X52415113Y-48420000D01*
X51895113Y-53520000D02*
X51895113Y-52040000D01*
X50734113Y-52937000D02*
X50734113Y-52040000D01*
X50934113Y-49960000D02*
X50934113Y-48905000D01*
X51454113Y-53382000D02*
X51454113Y-52040000D01*
X50814113Y-53004000D02*
X50814113Y-52040000D01*
X51815113Y-53501000D02*
X51815113Y-52040000D01*
X50534113Y-52743000D02*
X50534113Y-52040000D01*
X51534113Y-53414000D02*
X51534113Y-52040000D01*
X51054113Y-49960000D02*
X51054113Y-48825000D01*
X51494113Y-53398000D02*
X51494113Y-52040000D01*
X51094113Y-49960000D02*
X51094113Y-48800000D01*
X50134113Y-52178000D02*
X50134113Y-49822000D01*
X50894113Y-49960000D02*
X50894113Y-48935000D01*
X51134113Y-49960000D02*
X51134113Y-48776000D01*
X50174113Y-52251000D02*
X50174113Y-49749000D01*
X51654113Y-49960000D02*
X51654113Y-48545000D01*
X50734113Y-49960000D02*
X50734113Y-49063000D01*
X50894113Y-53065000D02*
X50894113Y-52040000D01*
X55075113Y-51000000D02*
G75*
G03*
X55075113Y-51000000I-2620000J0D01*
G01*
X52055112Y-76050000D02*
X52055112Y-74540000D01*
X51414112Y-75865000D02*
X51414112Y-74540000D01*
X51134112Y-72460000D02*
X51134112Y-71276000D01*
X51494112Y-72460000D02*
X51494112Y-71102000D01*
X52255112Y-72460000D02*
X52255112Y-70927000D01*
X51694112Y-75968000D02*
X51694112Y-74540000D01*
X51855112Y-72460000D02*
X51855112Y-70989000D01*
X50974112Y-72460000D02*
X50974112Y-71378000D01*
X51734112Y-72460000D02*
X51734112Y-71020000D01*
X50534112Y-72460000D02*
X50534112Y-71757000D01*
X51895112Y-72460000D02*
X51895112Y-70980000D01*
X51614112Y-75942000D02*
X51614112Y-74540000D01*
X52015112Y-72460000D02*
X52015112Y-70957000D01*
X51654112Y-72460000D02*
X51654112Y-71045000D01*
X52095112Y-76056000D02*
X52095112Y-74540000D01*
X50494112Y-75199000D02*
X50494112Y-74540000D01*
X50454112Y-75153000D02*
X50454112Y-74540000D01*
X52415112Y-72460000D02*
X52415112Y-70920000D01*
X51174112Y-72460000D02*
X51174112Y-71253000D01*
X51254112Y-72460000D02*
X51254112Y-71210000D01*
X52135112Y-76061000D02*
X52135112Y-74540000D01*
X52135112Y-72460000D02*
X52135112Y-70939000D01*
X50934112Y-75595000D02*
X50934112Y-74540000D01*
X50374112Y-75054000D02*
X50374112Y-71946000D01*
X52375112Y-72460000D02*
X52375112Y-70921000D01*
X50694112Y-72460000D02*
X50694112Y-71599000D01*
X50934112Y-72460000D02*
X50934112Y-71405000D01*
X50254112Y-74883000D02*
X50254112Y-72117000D01*
X52215112Y-72460000D02*
X52215112Y-70931000D01*
X51895112Y-76020000D02*
X51895112Y-74540000D01*
X52175112Y-72460000D02*
X52175112Y-70935000D01*
X51214112Y-75768000D02*
X51214112Y-74540000D01*
X50734112Y-72460000D02*
X50734112Y-71563000D01*
X50894112Y-72460000D02*
X50894112Y-71435000D01*
X51294112Y-72460000D02*
X51294112Y-71190000D01*
X50574112Y-72460000D02*
X50574112Y-71715000D01*
X51374112Y-72460000D02*
X51374112Y-71152000D01*
X50414112Y-75105000D02*
X50414112Y-71895000D01*
X49894112Y-74018000D02*
X49894112Y-72982000D01*
X51374112Y-75848000D02*
X51374112Y-74540000D01*
X50054112Y-74511000D02*
X50054112Y-72489000D01*
X51855112Y-76011000D02*
X51855112Y-74540000D01*
X50974112Y-75622000D02*
X50974112Y-74540000D01*
X50894112Y-75565000D02*
X50894112Y-74540000D01*
X51014112Y-75649000D02*
X51014112Y-74540000D01*
X50774112Y-75471000D02*
X50774112Y-74540000D01*
X51734112Y-75980000D02*
X51734112Y-74540000D01*
X52455112Y-72460000D02*
X52455112Y-70920000D01*
X50774112Y-72460000D02*
X50774112Y-71529000D01*
X51935112Y-76028000D02*
X51935112Y-74540000D01*
X51254112Y-75790000D02*
X51254112Y-74540000D01*
X49974112Y-74305000D02*
X49974112Y-72695000D01*
X50334112Y-75000000D02*
X50334112Y-72000000D01*
X50214112Y-74819000D02*
X50214112Y-72181000D01*
X50734112Y-75437000D02*
X50734112Y-74540000D01*
X51815112Y-76001000D02*
X51815112Y-74540000D01*
X51454112Y-75882000D02*
X51454112Y-74540000D01*
X51294112Y-75810000D02*
X51294112Y-74540000D01*
X52175112Y-76065000D02*
X52175112Y-74540000D01*
X51174112Y-75747000D02*
X51174112Y-74540000D01*
X51975112Y-72460000D02*
X51975112Y-70964000D01*
X50814112Y-75504000D02*
X50814112Y-74540000D01*
X52215112Y-76069000D02*
X52215112Y-74540000D01*
X51334112Y-72460000D02*
X51334112Y-71171000D01*
X51574112Y-72460000D02*
X51574112Y-71072000D01*
X50294112Y-74943000D02*
X50294112Y-72057000D01*
X50654112Y-72460000D02*
X50654112Y-71636000D01*
X51654112Y-75955000D02*
X51654112Y-74540000D01*
X51094112Y-75700000D02*
X51094112Y-74540000D01*
X50854112Y-75535000D02*
X50854112Y-74540000D01*
X50814112Y-72460000D02*
X50814112Y-71496000D01*
X50694112Y-75401000D02*
X50694112Y-74540000D01*
X52295112Y-72460000D02*
X52295112Y-70924000D01*
X50454112Y-72460000D02*
X50454112Y-71847000D01*
X52335112Y-72460000D02*
X52335112Y-70922000D01*
X50174112Y-74751000D02*
X50174112Y-72249000D01*
X50574112Y-75285000D02*
X50574112Y-74540000D01*
X52095112Y-72460000D02*
X52095112Y-70944000D01*
X50614112Y-72460000D02*
X50614112Y-71674000D01*
X51534112Y-72460000D02*
X51534112Y-71086000D01*
X51775112Y-72460000D02*
X51775112Y-71009000D01*
X52375112Y-76079000D02*
X52375112Y-74540000D01*
X50094112Y-74598000D02*
X50094112Y-72402000D01*
X52015112Y-76043000D02*
X52015112Y-74540000D01*
X51935112Y-72460000D02*
X51935112Y-70972000D01*
X50494112Y-72460000D02*
X50494112Y-71801000D01*
X50534112Y-75243000D02*
X50534112Y-74540000D01*
X51975112Y-76036000D02*
X51975112Y-74540000D01*
X50614112Y-75326000D02*
X50614112Y-74540000D01*
X52455112Y-76080000D02*
X52455112Y-74540000D01*
X51534112Y-75914000D02*
X51534112Y-74540000D01*
X50854112Y-72460000D02*
X50854112Y-71465000D01*
X51574112Y-75928000D02*
X51574112Y-74540000D01*
X51815112Y-72460000D02*
X51815112Y-70999000D01*
X52055112Y-72460000D02*
X52055112Y-70950000D01*
X51494112Y-75898000D02*
X51494112Y-74540000D01*
X51694112Y-72460000D02*
X51694112Y-71032000D01*
X49854112Y-73784000D02*
X49854112Y-73216000D01*
X50134112Y-74678000D02*
X50134112Y-72322000D01*
X51054112Y-72460000D02*
X51054112Y-71325000D01*
X51775112Y-75991000D02*
X51775112Y-74540000D01*
X49934112Y-74177000D02*
X49934112Y-72823000D01*
X52335112Y-76078000D02*
X52335112Y-74540000D01*
X51014112Y-72460000D02*
X51014112Y-71351000D01*
X51134112Y-75724000D02*
X51134112Y-74540000D01*
X52415112Y-76080000D02*
X52415112Y-74540000D01*
X52295112Y-76076000D02*
X52295112Y-74540000D01*
X51414112Y-72460000D02*
X51414112Y-71135000D01*
X51334112Y-75829000D02*
X51334112Y-74540000D01*
X55009887Y-75225000D02*
X55009887Y-74725000D01*
X51054112Y-75675000D02*
X51054112Y-74540000D01*
X50654112Y-75364000D02*
X50654112Y-74540000D01*
X51094112Y-72460000D02*
X51094112Y-71300000D01*
X52255112Y-76073000D02*
X52255112Y-74540000D01*
X50014112Y-74415000D02*
X50014112Y-72585000D01*
X51614112Y-72460000D02*
X51614112Y-71058000D01*
X55259887Y-74975000D02*
X54759887Y-74975000D01*
X51454112Y-72460000D02*
X51454112Y-71118000D01*
X51214112Y-72460000D02*
X51214112Y-71232000D01*
X55075112Y-73500000D02*
G75*
G03*
X55075112Y-73500000I-2620000J0D01*
G01*
X37940000Y-138540000D02*
X37940000Y-140043000D01*
X38941000Y-135351000D02*
X38941000Y-136460000D01*
X37740000Y-134931000D02*
X37740000Y-136460000D01*
X38701000Y-135210000D02*
X38701000Y-136460000D01*
X39461000Y-138540000D02*
X39461000Y-139199000D01*
X38261000Y-135032000D02*
X38261000Y-136460000D01*
X38621000Y-138540000D02*
X38621000Y-139829000D01*
X39501000Y-135847000D02*
X39501000Y-136460000D01*
X38221000Y-135020000D02*
X38221000Y-136460000D01*
X37540000Y-138540000D02*
X37540000Y-140080000D01*
X39061000Y-138540000D02*
X39061000Y-139565000D01*
X39861000Y-136402000D02*
X39861000Y-138598000D01*
X38981000Y-135378000D02*
X38981000Y-136460000D01*
X39941000Y-136585000D02*
X39941000Y-138415000D01*
X39701000Y-136117000D02*
X39701000Y-138883000D01*
X37740000Y-138540000D02*
X37740000Y-140069000D01*
X37580000Y-138540000D02*
X37580000Y-140079000D01*
X34945225Y-135775000D02*
X34945225Y-136275000D01*
X37620000Y-138540000D02*
X37620000Y-140078000D01*
X37500000Y-134920000D02*
X37500000Y-136460000D01*
X38461000Y-135102000D02*
X38461000Y-136460000D01*
X37900000Y-138540000D02*
X37900000Y-140050000D01*
X37540000Y-134920000D02*
X37540000Y-136460000D01*
X38821000Y-135276000D02*
X38821000Y-136460000D01*
X38661000Y-135190000D02*
X38661000Y-136460000D01*
X39181000Y-135529000D02*
X39181000Y-136460000D01*
X40021000Y-136823000D02*
X40021000Y-138177000D01*
X38020000Y-134972000D02*
X38020000Y-136460000D01*
X38100000Y-138540000D02*
X38100000Y-140011000D01*
X38261000Y-138540000D02*
X38261000Y-139968000D01*
X38901000Y-138540000D02*
X38901000Y-139675000D01*
X39061000Y-135435000D02*
X39061000Y-136460000D01*
X38861000Y-135300000D02*
X38861000Y-136460000D01*
X39741000Y-136181000D02*
X39741000Y-138819000D01*
X39021000Y-135405000D02*
X39021000Y-136460000D01*
X37940000Y-134957000D02*
X37940000Y-136460000D01*
X38701000Y-138540000D02*
X38701000Y-139790000D01*
X39301000Y-135636000D02*
X39301000Y-136460000D01*
X39501000Y-138540000D02*
X39501000Y-139153000D01*
X38381000Y-135072000D02*
X38381000Y-136460000D01*
X37860000Y-134944000D02*
X37860000Y-136460000D01*
X37620000Y-134922000D02*
X37620000Y-136460000D01*
X37780000Y-138540000D02*
X37780000Y-140065000D01*
X38581000Y-138540000D02*
X38581000Y-139848000D01*
X39381000Y-135715000D02*
X39381000Y-136460000D01*
X38661000Y-138540000D02*
X38661000Y-139810000D01*
X38501000Y-138540000D02*
X38501000Y-139882000D01*
X39421000Y-135757000D02*
X39421000Y-136460000D01*
X38821000Y-138540000D02*
X38821000Y-139724000D01*
X37660000Y-138540000D02*
X37660000Y-140076000D01*
X39381000Y-138540000D02*
X39381000Y-139285000D01*
X38341000Y-138540000D02*
X38341000Y-139942000D01*
X40101000Y-137216000D02*
X40101000Y-137784000D01*
X38461000Y-138540000D02*
X38461000Y-139898000D01*
X39821000Y-136322000D02*
X39821000Y-138678000D01*
X37900000Y-134950000D02*
X37900000Y-136460000D01*
X38621000Y-135171000D02*
X38621000Y-136460000D01*
X34695225Y-136025000D02*
X35195225Y-136025000D01*
X38541000Y-138540000D02*
X38541000Y-139865000D01*
X39781000Y-136249000D02*
X39781000Y-138751000D01*
X39101000Y-138540000D02*
X39101000Y-139535000D01*
X38381000Y-138540000D02*
X38381000Y-139928000D01*
X37820000Y-134939000D02*
X37820000Y-136460000D01*
X39341000Y-135674000D02*
X39341000Y-136460000D01*
X38501000Y-135118000D02*
X38501000Y-136460000D01*
X38581000Y-135152000D02*
X38581000Y-136460000D01*
X37700000Y-134927000D02*
X37700000Y-136460000D01*
X39341000Y-138540000D02*
X39341000Y-139326000D01*
X39221000Y-135563000D02*
X39221000Y-136460000D01*
X38221000Y-138540000D02*
X38221000Y-139980000D01*
X38941000Y-138540000D02*
X38941000Y-139649000D01*
X38981000Y-138540000D02*
X38981000Y-139622000D01*
X38781000Y-138540000D02*
X38781000Y-139747000D01*
X37580000Y-134921000D02*
X37580000Y-136460000D01*
X39661000Y-136057000D02*
X39661000Y-138943000D01*
X39301000Y-138540000D02*
X39301000Y-139364000D01*
X38861000Y-138540000D02*
X38861000Y-139700000D01*
X39261000Y-138540000D02*
X39261000Y-139401000D01*
X38301000Y-138540000D02*
X38301000Y-139955000D01*
X38180000Y-138540000D02*
X38180000Y-139991000D01*
X39141000Y-138540000D02*
X39141000Y-139504000D01*
X37820000Y-138540000D02*
X37820000Y-140061000D01*
X39541000Y-135895000D02*
X39541000Y-139105000D01*
X37500000Y-138540000D02*
X37500000Y-140080000D01*
X39101000Y-135465000D02*
X39101000Y-136460000D01*
X38020000Y-138540000D02*
X38020000Y-140028000D01*
X39021000Y-138540000D02*
X39021000Y-139595000D01*
X38060000Y-134980000D02*
X38060000Y-136460000D01*
X38140000Y-138540000D02*
X38140000Y-140001000D01*
X37860000Y-138540000D02*
X37860000Y-140056000D01*
X39221000Y-138540000D02*
X39221000Y-139437000D01*
X39981000Y-136695000D02*
X39981000Y-138305000D01*
X39181000Y-138540000D02*
X39181000Y-139471000D01*
X39621000Y-136000000D02*
X39621000Y-139000000D01*
X38301000Y-135045000D02*
X38301000Y-136460000D01*
X39461000Y-135801000D02*
X39461000Y-136460000D01*
X38541000Y-135135000D02*
X38541000Y-136460000D01*
X37980000Y-138540000D02*
X37980000Y-140036000D01*
X39141000Y-135496000D02*
X39141000Y-136460000D01*
X37980000Y-134964000D02*
X37980000Y-136460000D01*
X38421000Y-135086000D02*
X38421000Y-136460000D01*
X38100000Y-134989000D02*
X38100000Y-136460000D01*
X38140000Y-134999000D02*
X38140000Y-136460000D01*
X38060000Y-138540000D02*
X38060000Y-140020000D01*
X39581000Y-135946000D02*
X39581000Y-139054000D01*
X37780000Y-134935000D02*
X37780000Y-136460000D01*
X38421000Y-138540000D02*
X38421000Y-139914000D01*
X39901000Y-136489000D02*
X39901000Y-138511000D01*
X37660000Y-134924000D02*
X37660000Y-136460000D01*
X38341000Y-135058000D02*
X38341000Y-136460000D01*
X39421000Y-138540000D02*
X39421000Y-139243000D01*
X40061000Y-136982000D02*
X40061000Y-138018000D01*
X38901000Y-135325000D02*
X38901000Y-136460000D01*
X38741000Y-138540000D02*
X38741000Y-139768000D01*
X38741000Y-135232000D02*
X38741000Y-136460000D01*
X38781000Y-135253000D02*
X38781000Y-136460000D01*
X38180000Y-135009000D02*
X38180000Y-136460000D01*
X37700000Y-138540000D02*
X37700000Y-140073000D01*
X39261000Y-135599000D02*
X39261000Y-136460000D01*
X40120000Y-137500000D02*
G75*
G03*
X40120000Y-137500000I-2620000J0D01*
G01*
X40000000Y-80480000D02*
X35850000Y-80480000D01*
X40000000Y-90980000D02*
X36000000Y-90980000D01*
X34440000Y-77500000D02*
X34440000Y-78300000D01*
X40000000Y-80480000D02*
X40000000Y-90980000D01*
X35000000Y-90980000D02*
X31000000Y-90980000D01*
X31000000Y-80480000D02*
X31000000Y-90980000D01*
X35150000Y-80480000D02*
X31000000Y-80480000D01*
X34440000Y-77500000D02*
X35300000Y-77500000D01*
X37300000Y-84980000D02*
G75*
G03*
X37300000Y-84980000I-1800000J0D01*
G01*
X31370000Y-131640000D02*
X41650000Y-131640000D01*
X41650000Y-126340000D02*
X31370000Y-126340000D01*
X31310000Y-123850000D02*
X31310000Y-134130000D01*
X31310000Y-134130000D02*
X41710000Y-134130000D01*
X41650000Y-131640000D02*
X41650000Y-126340000D01*
X41710000Y-134130000D02*
X41710000Y-123850000D01*
X41710000Y-123850000D02*
X31310000Y-123850000D01*
X31370000Y-129990000D02*
X31370000Y-131640000D01*
X31370000Y-126340000D02*
X31370000Y-127990000D01*
X31370000Y-129990000D02*
G75*
G03*
X31370000Y-127990000I0J1000000D01*
G01*
X65500000Y-123980000D02*
X65500000Y-134480000D01*
X60500000Y-134480000D02*
X56500000Y-134480000D01*
X65500000Y-134480000D02*
X61500000Y-134480000D01*
X65500000Y-123980000D02*
X61350000Y-123980000D01*
X56500000Y-123980000D02*
X56500000Y-134480000D01*
X59940000Y-121000000D02*
X59940000Y-121800000D01*
X60650000Y-123980000D02*
X56500000Y-123980000D01*
X59940000Y-121000000D02*
X60800000Y-121000000D01*
X62800000Y-128480000D02*
G75*
G03*
X62800000Y-128480000I-1800000J0D01*
G01*
%LPC*%
D12*
X65400000Y-85550000D03*
X56600000Y-85550000D03*
D13*
X63500000Y-92550000D03*
X61000000Y-92550000D03*
X58500000Y-92550000D03*
D12*
X65400000Y-108050000D03*
X56600000Y-108050000D03*
D13*
X63500000Y-115050000D03*
X61000000Y-115050000D03*
X58500000Y-115050000D03*
D14*
X32044888Y-120500000D03*
D15*
X34044888Y-120500000D03*
D16*
X44100000Y-102800000D03*
X44100000Y-107500000D03*
X44100000Y-112200000D03*
X48900000Y-102800000D03*
X48900000Y-107500000D03*
X48900000Y-112200000D03*
D15*
X44420000Y-123000000D03*
D17*
X54580000Y-123000000D03*
D18*
X45225000Y-72500000D03*
D13*
X47765000Y-72500000D03*
D15*
X68080000Y-118500000D03*
D17*
X57920000Y-118500000D03*
D14*
X53500000Y-96000000D03*
D15*
X51500000Y-96000000D03*
X68080000Y-96000000D03*
D17*
X57920000Y-96000000D03*
D12*
X65400000Y-63050000D03*
X56600000Y-63050000D03*
D13*
X63500000Y-70050000D03*
X61000000Y-70050000D03*
X58500000Y-70050000D03*
D15*
X31920000Y-48500000D03*
D17*
X42080000Y-48500000D03*
D15*
X31920000Y-116000000D03*
D17*
X42080000Y-116000000D03*
D18*
X45225000Y-95000000D03*
D13*
X47765000Y-95000000D03*
D15*
X31920000Y-71000000D03*
D17*
X42080000Y-71000000D03*
D14*
X67000000Y-137044887D03*
D15*
X67000000Y-139044887D03*
D19*
X35500000Y-101000000D03*
D20*
X35500000Y-112400000D03*
X35500000Y-104100000D03*
D15*
X44420000Y-130000000D03*
D17*
X54580000Y-130000000D03*
D16*
X44100000Y-35300000D03*
X44100000Y-40000000D03*
X44100000Y-44700000D03*
X48900000Y-35300000D03*
X48900000Y-40000000D03*
X48900000Y-44700000D03*
D12*
X56600000Y-40550000D03*
X65400000Y-40550000D03*
D13*
X63500000Y-47550000D03*
X61000000Y-47550000D03*
X58500000Y-47550000D03*
D15*
X31920000Y-93500000D03*
D17*
X42080000Y-93500000D03*
D18*
X45225000Y-117500000D03*
D13*
X47765000Y-117500000D03*
D15*
X68080000Y-73500000D03*
D17*
X57920000Y-73500000D03*
D14*
X53455112Y-118500000D03*
D15*
X51455112Y-118500000D03*
X68080000Y-51000000D03*
D17*
X57920000Y-51000000D03*
D19*
X35500000Y-56000000D03*
D20*
X35500000Y-67400000D03*
X35500000Y-59100000D03*
D16*
X44100000Y-80300000D03*
X44100000Y-85000000D03*
X44100000Y-89700000D03*
X48900000Y-80300000D03*
X48900000Y-85000000D03*
X48900000Y-89700000D03*
X44100000Y-57800000D03*
X44100000Y-62500000D03*
X44100000Y-67200000D03*
X48900000Y-57800000D03*
X48900000Y-62500000D03*
X48900000Y-67200000D03*
D19*
X35500000Y-33500000D03*
D20*
X35500000Y-44900000D03*
X35500000Y-36600000D03*
D15*
X54580000Y-126500000D03*
D17*
X44420000Y-126500000D03*
D18*
X45225000Y-50000000D03*
D13*
X47765000Y-50000000D03*
D14*
X53455113Y-51000000D03*
D15*
X51455113Y-51000000D03*
D14*
X53455112Y-73500000D03*
D15*
X51455112Y-73500000D03*
D14*
X36500000Y-137500000D03*
D15*
X38500000Y-137500000D03*
D19*
X35500000Y-78500000D03*
D20*
X35500000Y-89900000D03*
X35500000Y-81600000D03*
D14*
X32700000Y-132800000D03*
D17*
X35240000Y-132800000D03*
X37780000Y-132800000D03*
X40320000Y-132800000D03*
X40320000Y-125180000D03*
X37780000Y-125180000D03*
X35240000Y-125180000D03*
X32700000Y-125180000D03*
D19*
X61000000Y-122000000D03*
D20*
X61000000Y-133400000D03*
X61000000Y-125100000D03*
D21*
X43925000Y-135725000D03*
D22*
X43925000Y-138265000D03*
X46465000Y-135725000D03*
X46465000Y-138265000D03*
X49005000Y-135725000D03*
X49005000Y-138265000D03*
X51545000Y-135725000D03*
X51545000Y-138265000D03*
X54085000Y-135725000D03*
X54085000Y-138265000D03*
M02*
