G04 #@! TF.GenerationSoftware,KiCad,Pcbnew,(5.1.9)-1*
G04 #@! TF.CreationDate,2021-10-01T14:40:05+02:00*
G04 #@! TF.ProjectId,MS20-VCF,4d533230-2d56-4434-962e-6b696361645f,rev?*
G04 #@! TF.SameCoordinates,Original*
G04 #@! TF.FileFunction,Copper,L1,Top*
G04 #@! TF.FilePolarity,Positive*
%FSLAX46Y46*%
G04 Gerber Fmt 4.6, Leading zero omitted, Abs format (unit mm)*
G04 Created by KiCad (PCBNEW (5.1.9)-1) date 2021-10-01 14:40:05*
%MOMM*%
%LPD*%
G01*
G04 APERTURE LIST*
G04 #@! TA.AperFunction,ComponentPad*
%ADD10C,1.600000*%
G04 #@! TD*
G04 #@! TA.AperFunction,ComponentPad*
%ADD11R,1.600000X1.600000*%
G04 #@! TD*
G04 #@! TA.AperFunction,ComponentPad*
%ADD12O,1.700000X1.700000*%
G04 #@! TD*
G04 #@! TA.AperFunction,ComponentPad*
%ADD13R,1.700000X1.700000*%
G04 #@! TD*
G04 #@! TA.AperFunction,ComponentPad*
%ADD14O,1.600000X1.600000*%
G04 #@! TD*
G04 #@! TA.AperFunction,ComponentPad*
%ADD15C,1.440000*%
G04 #@! TD*
G04 #@! TA.AperFunction,ComponentPad*
%ADD16R,1.050000X1.500000*%
G04 #@! TD*
G04 #@! TA.AperFunction,ComponentPad*
%ADD17O,1.050000X1.500000*%
G04 #@! TD*
G04 #@! TA.AperFunction,ComponentPad*
%ADD18O,2.000000X2.000000*%
G04 #@! TD*
G04 #@! TA.AperFunction,ComponentPad*
%ADD19C,2.000000*%
G04 #@! TD*
G04 #@! TA.AperFunction,ViaPad*
%ADD20C,1.200000*%
G04 #@! TD*
G04 #@! TA.AperFunction,ViaPad*
%ADD21C,0.800000*%
G04 #@! TD*
G04 #@! TA.AperFunction,Conductor*
%ADD22C,0.600000*%
G04 #@! TD*
G04 #@! TA.AperFunction,Conductor*
%ADD23C,0.300000*%
G04 #@! TD*
G04 APERTURE END LIST*
D10*
X51000000Y-121000000D03*
D11*
X51000000Y-123000000D03*
D10*
X51000000Y-115000000D03*
D11*
X51000000Y-117000000D03*
D10*
X63000000Y-70000000D03*
D11*
X61000000Y-70000000D03*
D10*
X57000000Y-70000000D03*
D11*
X55000000Y-70000000D03*
D12*
X67000000Y-142700000D03*
X67000000Y-140160000D03*
X67000000Y-137620000D03*
X67000000Y-135080000D03*
X67000000Y-132540000D03*
D13*
X67000000Y-130000000D03*
D12*
X33000000Y-142700000D03*
X33000000Y-140160000D03*
X33000000Y-137620000D03*
X33000000Y-135080000D03*
X33000000Y-132540000D03*
D13*
X33000000Y-130000000D03*
D12*
X50160000Y-92540000D03*
X50160000Y-90000000D03*
X47620000Y-92540000D03*
X47620000Y-90000000D03*
X45080000Y-92540000D03*
X45080000Y-90000000D03*
X42540000Y-92540000D03*
X42540000Y-90000000D03*
X40000000Y-92540000D03*
D13*
X40000000Y-90000000D03*
D12*
X67000000Y-81700000D03*
X67000000Y-79160000D03*
X67000000Y-76620000D03*
X67000000Y-74080000D03*
X67000000Y-71540000D03*
D13*
X67000000Y-69000000D03*
D12*
X33000000Y-81700000D03*
X33000000Y-79160000D03*
X33000000Y-76620000D03*
X33000000Y-74080000D03*
X33000000Y-71540000D03*
D13*
X33000000Y-69000000D03*
D14*
X65620000Y-116000000D03*
X58000000Y-123620000D03*
X65620000Y-118540000D03*
X58000000Y-121080000D03*
X65620000Y-121080000D03*
X58000000Y-118540000D03*
X65620000Y-123620000D03*
D11*
X58000000Y-116000000D03*
D14*
X45000000Y-102000000D03*
X37380000Y-119780000D03*
X45000000Y-104540000D03*
X37380000Y-117240000D03*
X45000000Y-107080000D03*
X37380000Y-114700000D03*
X45000000Y-109620000D03*
X37380000Y-112160000D03*
X45000000Y-112160000D03*
X37380000Y-109620000D03*
X45000000Y-114700000D03*
X37380000Y-107080000D03*
X45000000Y-117240000D03*
X37380000Y-104540000D03*
X45000000Y-119780000D03*
D11*
X37380000Y-102000000D03*
D14*
X63620000Y-57000000D03*
X56000000Y-64620000D03*
X63620000Y-59540000D03*
X56000000Y-62080000D03*
X63620000Y-62080000D03*
X56000000Y-59540000D03*
X63620000Y-64620000D03*
D11*
X56000000Y-57000000D03*
D14*
X38380000Y-81700000D03*
X46000000Y-63920000D03*
X38380000Y-79160000D03*
X46000000Y-66460000D03*
X38380000Y-76620000D03*
X46000000Y-69000000D03*
X38380000Y-74080000D03*
X46000000Y-71540000D03*
X38380000Y-71540000D03*
X46000000Y-74080000D03*
X38380000Y-69000000D03*
X46000000Y-76620000D03*
X38380000Y-66460000D03*
X46000000Y-79160000D03*
X38380000Y-63920000D03*
D11*
X46000000Y-81700000D03*
D15*
X67000000Y-94000000D03*
X67000000Y-96540000D03*
X67000000Y-99080000D03*
X67000000Y-49000000D03*
X67000000Y-46460000D03*
X67000000Y-43920000D03*
X67000000Y-105000000D03*
X67000000Y-107540000D03*
X67000000Y-110080000D03*
X67000000Y-34000000D03*
X67000000Y-36540000D03*
X67000000Y-39080000D03*
D14*
X45000000Y-140000000D03*
D10*
X55160000Y-140000000D03*
D14*
X53000000Y-144000000D03*
D10*
X63160000Y-144000000D03*
D14*
X55160000Y-134000000D03*
D10*
X45000000Y-134000000D03*
D14*
X45000000Y-131000000D03*
D10*
X55160000Y-131000000D03*
D14*
X45000000Y-137000000D03*
D10*
X55160000Y-137000000D03*
D14*
X33000000Y-116160000D03*
D10*
X33000000Y-106000000D03*
D14*
X33000000Y-103000000D03*
D10*
X33000000Y-92840000D03*
D14*
X36840000Y-144000000D03*
D10*
X47000000Y-144000000D03*
D14*
X63000000Y-130000000D03*
D10*
X63000000Y-140160000D03*
D14*
X60000000Y-130000000D03*
D10*
X60000000Y-140160000D03*
D14*
X40000000Y-130000000D03*
D10*
X40000000Y-140160000D03*
D14*
X49000000Y-101840000D03*
D10*
X49000000Y-112000000D03*
D14*
X63160000Y-147000000D03*
D10*
X53000000Y-147000000D03*
D14*
X63160000Y-150000000D03*
D10*
X53000000Y-150000000D03*
D14*
X37000000Y-130000000D03*
D10*
X37000000Y-140160000D03*
D14*
X53000000Y-43160000D03*
D10*
X53000000Y-33000000D03*
D14*
X48840000Y-79000000D03*
D10*
X59000000Y-79000000D03*
D14*
X35840000Y-38000000D03*
D10*
X46000000Y-38000000D03*
D14*
X35840000Y-44000000D03*
D10*
X46000000Y-44000000D03*
D14*
X46000000Y-35000000D03*
D10*
X35840000Y-35000000D03*
D14*
X36000000Y-60000000D03*
D10*
X46160000Y-60000000D03*
D14*
X48840000Y-76000000D03*
D10*
X59000000Y-76000000D03*
D14*
X35840000Y-41000000D03*
D10*
X46000000Y-41000000D03*
D14*
X65160000Y-53500000D03*
D10*
X55000000Y-53500000D03*
D14*
X42000000Y-53000000D03*
D10*
X52160000Y-53000000D03*
D14*
X42000000Y-56000000D03*
D10*
X52160000Y-56000000D03*
D14*
X50000000Y-35000000D03*
D10*
X50000000Y-45160000D03*
D14*
X32000000Y-52000000D03*
D10*
X32000000Y-41840000D03*
D14*
X32000000Y-54840000D03*
D10*
X32000000Y-65000000D03*
D14*
X63000000Y-75000000D03*
D10*
X63000000Y-85160000D03*
D16*
X40000000Y-148000000D03*
D17*
X37460000Y-148000000D03*
X38730000Y-148000000D03*
D16*
X47000000Y-148000000D03*
D17*
X44460000Y-148000000D03*
X45730000Y-148000000D03*
D16*
X44460000Y-49000000D03*
D17*
X47000000Y-49000000D03*
X45730000Y-49000000D03*
D16*
X50730000Y-49000000D03*
D17*
X53270000Y-49000000D03*
X52000000Y-49000000D03*
D18*
X51700000Y-86000000D03*
D19*
X39000000Y-86000000D03*
D18*
X39000000Y-97000000D03*
D19*
X51700000Y-97000000D03*
D14*
X59000000Y-111000000D03*
D11*
X59000000Y-103380000D03*
D14*
X56000000Y-103380000D03*
D11*
X56000000Y-111000000D03*
D14*
X62000000Y-111000000D03*
D11*
X62000000Y-103380000D03*
D14*
X56000000Y-92380000D03*
D11*
X56000000Y-100000000D03*
D14*
X62000000Y-100000000D03*
D11*
X62000000Y-92380000D03*
D14*
X59000000Y-100000000D03*
D11*
X59000000Y-92380000D03*
D14*
X56000000Y-43000000D03*
D11*
X56000000Y-50620000D03*
D14*
X58900000Y-33000000D03*
D11*
X58900000Y-40620000D03*
D14*
X59000000Y-50620000D03*
D11*
X59000000Y-43000000D03*
D14*
X56000000Y-40620000D03*
D11*
X56000000Y-33000000D03*
D14*
X62000000Y-43000000D03*
D11*
X62000000Y-50620000D03*
D14*
X62000000Y-33000000D03*
D11*
X62000000Y-40620000D03*
D10*
X34000000Y-123000000D03*
D11*
X32000000Y-123000000D03*
D10*
X37000000Y-127000000D03*
X42000000Y-127000000D03*
X58000000Y-127000000D03*
X63000000Y-127000000D03*
X53000000Y-111000000D03*
X53000000Y-106000000D03*
X38000000Y-55000000D03*
D11*
X36000000Y-55000000D03*
D10*
X36000000Y-47000000D03*
X41000000Y-47000000D03*
X68000000Y-58000000D03*
X68000000Y-53000000D03*
X52000000Y-61000000D03*
D11*
X50000000Y-61000000D03*
D10*
X50000000Y-67000000D03*
D11*
X52000000Y-67000000D03*
D10*
X54000000Y-82000000D03*
X49000000Y-82000000D03*
D20*
X54750000Y-121000000D03*
X54750000Y-128500000D03*
D21*
X40500000Y-82500000D03*
X40500000Y-65750001D03*
X68500000Y-84000000D03*
X42500000Y-139250000D03*
X42250000Y-147500000D03*
X50250000Y-151250000D03*
X50250000Y-140500000D03*
D22*
X67000000Y-88250000D02*
X67000000Y-81700000D01*
X56205998Y-90250000D02*
X65000000Y-90250000D01*
X51700000Y-94755998D02*
X56205998Y-90250000D01*
X65000000Y-90250000D02*
X67000000Y-88250000D01*
X51700000Y-97000000D02*
X51700000Y-94755998D01*
D23*
X55000000Y-70000000D02*
X52000000Y-67000000D01*
D22*
X54750000Y-121000000D02*
X54750000Y-128500000D01*
X59000000Y-79000000D02*
X54000000Y-84000000D01*
X41000000Y-84000000D02*
X39000000Y-86000000D01*
X54000000Y-84000000D02*
X41000000Y-84000000D01*
X67000000Y-74080000D02*
X67000000Y-74000000D01*
D23*
X67000000Y-74080000D02*
X63080000Y-78000000D01*
X60000000Y-78000000D02*
X59000000Y-79000000D01*
X63080000Y-78000000D02*
X60000000Y-78000000D01*
X59000000Y-76000000D02*
X59000000Y-79000000D01*
X53310001Y-54150001D02*
X52160000Y-53000000D01*
X53310001Y-59689999D02*
X53310001Y-54150001D01*
X52000000Y-61000000D02*
X53310001Y-59689999D01*
X63000000Y-70080000D02*
X63000000Y-70000000D01*
X66210000Y-73290000D02*
X63000000Y-70080000D01*
X67000000Y-74080000D02*
X66210000Y-73290000D01*
X59849999Y-70349999D02*
X52000000Y-62500000D01*
X61999999Y-73230001D02*
X59849999Y-71080001D01*
X52000000Y-62500000D02*
X52000000Y-61000000D01*
X66150001Y-73230001D02*
X61999999Y-73230001D01*
X59849999Y-71080001D02*
X59849999Y-70349999D01*
X66210000Y-73290000D02*
X66150001Y-73230001D01*
X65660000Y-53000000D02*
X65160000Y-53500000D01*
X68000000Y-53000000D02*
X65660000Y-53000000D01*
X65160000Y-58000000D02*
X65160000Y-53500000D01*
X63620000Y-59540000D02*
X65160000Y-58000000D01*
X37229999Y-67610001D02*
X38380000Y-66460000D01*
X37229999Y-70389999D02*
X37229999Y-67610001D01*
X38380000Y-71540000D02*
X37229999Y-70389999D01*
X40849999Y-47150001D02*
X41000000Y-47000000D01*
X40849999Y-54559123D02*
X40849999Y-47150001D01*
X37229999Y-58179123D02*
X40849999Y-54559123D01*
X37229999Y-65309999D02*
X37229999Y-58179123D01*
X38380000Y-66460000D02*
X37229999Y-65309999D01*
X50150001Y-82849999D02*
X49650010Y-83349990D01*
X50150001Y-80310001D02*
X50150001Y-82849999D01*
X48840000Y-79000000D02*
X50150001Y-80310001D01*
X41000000Y-83000000D02*
X40500000Y-82500000D01*
X41349990Y-83349990D02*
X41000000Y-83000000D01*
X49650010Y-83349990D02*
X41349990Y-83349990D01*
X40500000Y-82500000D02*
X40500000Y-82500000D01*
X40210001Y-65750001D02*
X38380000Y-63920000D01*
X40500000Y-65750001D02*
X40210001Y-65750001D01*
X62000000Y-43000000D02*
X59000000Y-43000000D01*
X46000000Y-60160000D02*
X46160000Y-60000000D01*
X46000000Y-63920000D02*
X46000000Y-60160000D01*
X42160000Y-56000000D02*
X42000000Y-56000000D01*
X46160000Y-60000000D02*
X42160000Y-56000000D01*
X68070001Y-37610001D02*
X67000000Y-36540000D01*
X68070001Y-45389999D02*
X68070001Y-37610001D01*
X67000000Y-46460000D02*
X68070001Y-45389999D01*
X64172001Y-63469999D02*
X69500000Y-68797998D01*
X61632001Y-63469999D02*
X64172001Y-63469999D01*
X56000000Y-57837998D02*
X61632001Y-63469999D01*
X56000000Y-57000000D02*
X56000000Y-57837998D01*
X69500000Y-68797998D02*
X69500000Y-83000000D01*
X69500000Y-83000000D02*
X68500000Y-84000000D01*
X68500000Y-84000000D02*
X68500000Y-84000000D01*
X44849999Y-67610001D02*
X46000000Y-66460000D01*
X44849999Y-70389999D02*
X44849999Y-67610001D01*
X46000000Y-71540000D02*
X44849999Y-70389999D01*
X63920000Y-62080000D02*
X63620000Y-62080000D01*
X68000000Y-58000000D02*
X63920000Y-62080000D01*
X42000000Y-51460000D02*
X44460000Y-49000000D01*
X42000000Y-53000000D02*
X42000000Y-51460000D01*
X55647997Y-55849999D02*
X57389999Y-55849999D01*
X57389999Y-55849999D02*
X63620000Y-62080000D01*
X53849999Y-54052001D02*
X55647997Y-55849999D01*
X53849999Y-53057119D02*
X53849999Y-54052001D01*
X52642879Y-51849999D02*
X53849999Y-53057119D01*
X46259999Y-51849999D02*
X52642879Y-51849999D01*
X44460000Y-50050000D02*
X46259999Y-51849999D01*
X44460000Y-49000000D02*
X44460000Y-50050000D01*
X33000000Y-71330002D02*
X33000000Y-71540000D01*
X30849999Y-69180001D02*
X33000000Y-71330002D01*
X30849999Y-51447999D02*
X30849999Y-69180001D01*
X32797998Y-49500000D02*
X30849999Y-51447999D01*
X33500000Y-49500000D02*
X32797998Y-49500000D01*
X36000000Y-47000000D02*
X33500000Y-49500000D01*
X34200001Y-56799999D02*
X36000000Y-55000000D01*
X34200001Y-75419999D02*
X34200001Y-56799999D01*
X33000000Y-76620000D02*
X34200001Y-75419999D01*
X42309999Y-72929999D02*
X38380000Y-69000000D01*
X55201371Y-72929999D02*
X42309999Y-72929999D01*
X57000000Y-71131370D02*
X55201371Y-72929999D01*
X57000000Y-70000000D02*
X57000000Y-71131370D01*
X61000000Y-69620000D02*
X56000000Y-64620000D01*
X61000000Y-70000000D02*
X61000000Y-69620000D01*
D22*
X50700000Y-114700000D02*
X51000000Y-115000000D01*
X45000000Y-114700000D02*
X50700000Y-114700000D01*
D23*
X68070001Y-97610001D02*
X68070001Y-106469999D01*
X68070001Y-106469999D02*
X67000000Y-107540000D01*
X67000000Y-96540000D02*
X68070001Y-97610001D01*
X68070001Y-110593601D02*
X65663602Y-113000000D01*
X68070001Y-108610001D02*
X68070001Y-110593601D01*
X67000000Y-107540000D02*
X68070001Y-108610001D01*
X61000000Y-113000000D02*
X58000000Y-116000000D01*
X65663602Y-113000000D02*
X61000000Y-113000000D01*
X53000000Y-111000000D02*
X58000000Y-116000000D01*
X38530001Y-116089999D02*
X37380000Y-117240000D01*
X38530001Y-113310001D02*
X38530001Y-116089999D01*
X37380000Y-112160000D02*
X38530001Y-113310001D01*
X36229999Y-111009999D02*
X37380000Y-112160000D01*
X36229999Y-106527999D02*
X36229999Y-111009999D01*
X52929999Y-105929999D02*
X36827999Y-105929999D01*
X36827999Y-105929999D02*
X36229999Y-106527999D01*
X53000000Y-106000000D02*
X52929999Y-105929999D01*
X60000000Y-129000000D02*
X60000000Y-130000000D01*
X58000000Y-127000000D02*
X60000000Y-129000000D01*
X42150001Y-145849999D02*
X40000000Y-148000000D01*
X58849999Y-140400001D02*
X53400001Y-145849999D01*
X58849999Y-131150001D02*
X58849999Y-140400001D01*
X53400001Y-145849999D02*
X42150001Y-145849999D01*
X60000000Y-130000000D02*
X58849999Y-131150001D01*
X63000000Y-130000000D02*
X63000000Y-127000000D01*
X63942002Y-127000000D02*
X63000000Y-127000000D01*
X66770001Y-124172001D02*
X63942002Y-127000000D01*
X66770001Y-119690001D02*
X66770001Y-124172001D01*
X65620000Y-118540000D02*
X66770001Y-119690001D01*
X42000000Y-120240000D02*
X45000000Y-117240000D01*
X42000000Y-127000000D02*
X42000000Y-120240000D01*
X53000000Y-136160000D02*
X55160000Y-134000000D01*
X53000000Y-144000000D02*
X53000000Y-136160000D01*
X45000000Y-123840000D02*
X45000000Y-119780000D01*
X55160000Y-134000000D02*
X45000000Y-123840000D01*
X38849999Y-140712001D02*
X40137998Y-142000000D01*
X38849999Y-133649998D02*
X38849999Y-140712001D01*
X34000000Y-128799999D02*
X38849999Y-133649998D01*
X34000000Y-123000000D02*
X34000000Y-128799999D01*
X51000000Y-142000000D02*
X53000000Y-144000000D01*
X40137998Y-142000000D02*
X51000000Y-142000000D01*
X65380000Y-50620000D02*
X67000000Y-49000000D01*
X62000000Y-50620000D02*
X65380000Y-50620000D01*
X68570011Y-47429989D02*
X67000000Y-49000000D01*
X68570011Y-36526409D02*
X68570011Y-47429989D01*
X67513601Y-35469999D02*
X68570011Y-36526409D01*
X63338629Y-35469999D02*
X67513601Y-35469999D01*
X62000000Y-34131370D02*
X63338629Y-35469999D01*
X62000000Y-33000000D02*
X62000000Y-34131370D01*
X58900000Y-33000000D02*
X56000000Y-33000000D01*
X59000000Y-50620000D02*
X56000000Y-50620000D01*
X58380000Y-40620000D02*
X56000000Y-43000000D01*
X58900000Y-40620000D02*
X58380000Y-40620000D01*
X55840000Y-43160000D02*
X56000000Y-43000000D01*
X53000000Y-43160000D02*
X55840000Y-43160000D01*
X60129999Y-41849999D02*
X58900000Y-40620000D01*
X64230001Y-41849999D02*
X60129999Y-41849999D01*
X67000000Y-39080000D02*
X64230001Y-41849999D01*
X63620000Y-94000000D02*
X62000000Y-92380000D01*
X67000000Y-94000000D02*
X63620000Y-94000000D01*
X59000000Y-95380000D02*
X62000000Y-92380000D01*
X59000000Y-100000000D02*
X59000000Y-95380000D01*
X59000000Y-92380000D02*
X56000000Y-92380000D01*
X62000000Y-100000000D02*
X62000000Y-103380000D01*
X56000000Y-100000000D02*
X56000000Y-103380000D01*
X62000000Y-106380000D02*
X59000000Y-103380000D01*
X62000000Y-111000000D02*
X62000000Y-106380000D01*
X64929999Y-112150001D02*
X67000000Y-110080000D01*
X60150001Y-112150001D02*
X64929999Y-112150001D01*
X59000000Y-111000000D02*
X60150001Y-112150001D01*
X56000000Y-111000000D02*
X59000000Y-111000000D01*
X56000000Y-111000000D02*
X54500000Y-109500000D01*
X51750000Y-112290000D02*
X58000000Y-118540000D01*
X51750000Y-110547998D02*
X51750000Y-112290000D01*
X52797998Y-109500000D02*
X51750000Y-110547998D01*
X54500000Y-109500000D02*
X52797998Y-109500000D01*
X45000000Y-140000000D02*
X43500000Y-138500000D01*
X43500000Y-119577998D02*
X44447999Y-118629999D01*
X43500000Y-138500000D02*
X43500000Y-119577998D01*
X57910001Y-118629999D02*
X58000000Y-118540000D01*
X44447999Y-118629999D02*
X57910001Y-118629999D01*
D22*
X39000000Y-93540000D02*
X40000000Y-92540000D01*
X39000000Y-97000000D02*
X39000000Y-93540000D01*
X40000000Y-92540000D02*
X40000000Y-90000000D01*
X50160000Y-92540000D02*
X50160000Y-90000000D01*
X50160000Y-87540000D02*
X51700000Y-86000000D01*
X50160000Y-90000000D02*
X50160000Y-87540000D01*
D23*
X33000000Y-66000000D02*
X32000000Y-65000000D01*
X33000000Y-69000000D02*
X33000000Y-66000000D01*
X38780000Y-41000000D02*
X35840000Y-41000000D01*
X45730000Y-47950000D02*
X38780000Y-41000000D01*
X45730000Y-49000000D02*
X45730000Y-47950000D01*
X59690001Y-65770001D02*
X61770001Y-65770001D01*
X56000000Y-62080000D02*
X59690001Y-65770001D01*
X65000000Y-69000000D02*
X67000000Y-69000000D01*
X61770001Y-65770001D02*
X65000000Y-69000000D01*
X31799999Y-131200001D02*
X33000000Y-130000000D01*
X31799999Y-143802450D02*
X31799999Y-131200001D01*
X37997549Y-150000000D02*
X31799999Y-143802450D01*
X53000000Y-150000000D02*
X37997549Y-150000000D01*
X38730000Y-145890000D02*
X36840000Y-144000000D01*
X38730000Y-148000000D02*
X38730000Y-145890000D01*
X35540000Y-142700000D02*
X36840000Y-144000000D01*
X33000000Y-142700000D02*
X35540000Y-142700000D01*
X62447999Y-131150001D02*
X65849999Y-131150001D01*
X61849999Y-130552001D02*
X62447999Y-131150001D01*
X65849999Y-131150001D02*
X67000000Y-130000000D01*
X61849999Y-129147997D02*
X61849999Y-130552001D01*
X56849999Y-124147997D02*
X61849999Y-129147997D01*
X56849999Y-122230001D02*
X56849999Y-124147997D01*
X58000000Y-121080000D02*
X56849999Y-122230001D01*
X50730000Y-45890000D02*
X50000000Y-45160000D01*
X50730000Y-49000000D02*
X50730000Y-45890000D01*
X53270000Y-51770000D02*
X53270000Y-49000000D01*
X55000000Y-53500000D02*
X53270000Y-51770000D01*
X53270000Y-49000000D02*
X53270000Y-49230000D01*
X48100001Y-50100001D02*
X47000000Y-49000000D01*
X52399999Y-50100001D02*
X48100001Y-50100001D01*
X53270000Y-49230000D02*
X52399999Y-50100001D01*
X40849999Y-117147999D02*
X40849999Y-129147997D01*
X40849999Y-129147997D02*
X42500000Y-130797998D01*
X44687997Y-113310001D02*
X40849999Y-117147999D01*
X47689999Y-113310001D02*
X44687997Y-113310001D01*
X49000000Y-112000000D02*
X47689999Y-113310001D01*
X42500000Y-130797998D02*
X42500000Y-139250000D01*
X42500000Y-139250000D02*
X42500000Y-139250000D01*
X42850010Y-146899990D02*
X42250000Y-147500000D01*
X42250000Y-147500000D02*
X42250000Y-147500000D01*
X47000000Y-148000000D02*
X47000000Y-147500000D01*
X47000000Y-147500000D02*
X46250000Y-146750000D01*
X43000000Y-146750000D02*
X42850010Y-146899990D01*
X46250000Y-146750000D02*
X43000000Y-146750000D01*
X43359999Y-149100001D02*
X44460000Y-148000000D01*
X38335001Y-149100001D02*
X43359999Y-149100001D01*
X37460000Y-148225000D02*
X38335001Y-149100001D01*
X37460000Y-148000000D02*
X37460000Y-148225000D01*
X63000000Y-140160000D02*
X54660000Y-148500000D01*
X48405002Y-148500000D02*
X47405002Y-149500000D01*
X54660000Y-148500000D02*
X48405002Y-148500000D01*
X44460000Y-149050000D02*
X44460000Y-148000000D01*
X44910000Y-149500000D02*
X44460000Y-149050000D01*
X47405002Y-149500000D02*
X44910000Y-149500000D01*
X62080000Y-74080000D02*
X46000000Y-74080000D01*
X63000000Y-75000000D02*
X62080000Y-74080000D01*
X58500000Y-70500000D02*
X62080000Y-74080000D01*
X58500000Y-69797998D02*
X58500000Y-70500000D01*
X51769998Y-65000000D02*
X53702002Y-65000000D01*
X48849999Y-62080001D02*
X51769998Y-65000000D01*
X48849999Y-59310001D02*
X48849999Y-62080001D01*
X53702002Y-65000000D02*
X58500000Y-69797998D01*
X52160000Y-56000000D02*
X48849999Y-59310001D01*
X32000000Y-54840000D02*
X32000000Y-52000000D01*
X39702002Y-54202002D02*
X37500000Y-52000000D01*
X39702002Y-55000000D02*
X39702002Y-54202002D01*
X37702002Y-57000000D02*
X39702002Y-55000000D01*
X37000000Y-57000000D02*
X37702002Y-57000000D01*
X34849999Y-59150001D02*
X37000000Y-57000000D01*
X34849999Y-74792001D02*
X34849999Y-59150001D01*
X37500000Y-52000000D02*
X32000000Y-52000000D01*
X37827999Y-77770001D02*
X34849999Y-74792001D01*
X44849999Y-77770001D02*
X37827999Y-77770001D01*
X46000000Y-76620000D02*
X44849999Y-77770001D01*
X46000000Y-81700000D02*
X38380000Y-81700000D01*
X38380000Y-76620000D02*
X37229999Y-75469999D01*
X36000000Y-69867120D02*
X36000000Y-60000000D01*
X37229999Y-71097119D02*
X36000000Y-69867120D01*
X37229999Y-75469999D02*
X37229999Y-71097119D01*
X46000000Y-38000000D02*
X46000000Y-35000000D01*
X39030011Y-111270011D02*
X37380000Y-109620000D01*
X39030011Y-127969989D02*
X39030011Y-111270011D01*
X37000000Y-130000000D02*
X39030011Y-127969989D01*
X40000000Y-133000000D02*
X37000000Y-130000000D01*
X40000000Y-140160000D02*
X40000000Y-133000000D01*
X63160000Y-150000000D02*
X63160000Y-147000000D01*
X38769999Y-110302879D02*
X39530021Y-111062901D01*
X38769999Y-108469999D02*
X38769999Y-110302879D01*
X37380000Y-107080000D02*
X38769999Y-108469999D01*
X41749999Y-139610001D02*
X43639998Y-141500000D01*
X41749999Y-133452001D02*
X41749999Y-139610001D01*
X38849999Y-130552001D02*
X41749999Y-133452001D01*
X38849999Y-129447999D02*
X38849999Y-130552001D01*
X39530021Y-128767977D02*
X38849999Y-129447999D01*
X39530021Y-111062901D02*
X39530021Y-128767977D01*
X43639998Y-141500000D02*
X48000000Y-141500000D01*
X48000000Y-141500000D02*
X49000000Y-140500000D01*
X63160000Y-150000000D02*
X61910000Y-151250000D01*
X61910000Y-151250000D02*
X50250000Y-151250000D01*
X50250000Y-151250000D02*
X50250000Y-151250000D01*
X49000000Y-140500000D02*
X50250000Y-140500000D01*
X50250000Y-140500000D02*
X50250000Y-140500000D01*
X45160000Y-101840000D02*
X45000000Y-102000000D01*
X49000000Y-101840000D02*
X45160000Y-101840000D01*
X45000000Y-102000000D02*
X37380000Y-102000000D01*
X33000000Y-103000000D02*
X33000000Y-106000000D01*
X33000000Y-106000000D02*
X33000000Y-108500000D01*
X36229999Y-118629999D02*
X37380000Y-119780000D01*
X36229999Y-111729999D02*
X36229999Y-118629999D01*
X33000000Y-108500000D02*
X36229999Y-111729999D01*
X45000000Y-137000000D02*
X45000000Y-134000000D01*
M02*
