M48
; DRILL file {KiCad (5.1.9)-1} date 10/01/21 14:40:11
; FORMAT={-:-/ absolute / metric / decimal}
; #@! TF.CreationDate,2021-10-01T14:40:11+02:00
; #@! TF.GenerationSoftware,Kicad,Pcbnew,(5.1.9)-1
; #@! TF.FileFunction,Plated,1,2,PTH
FMAT,2
METRIC
T1C0.400
T2C0.750
T3C0.800
T4C1.000
%
G90
G05
T1
X40.5Y-65.75
X40.5Y-82.5
X42.25Y-147.5
X42.5Y-139.25
X50.25Y-140.5
X50.25Y-151.25
X68.5Y-84.0
T2
X37.46Y-148.0
X38.73Y-148.0
X40.0Y-148.0
X44.46Y-49.0
X44.46Y-148.0
X45.73Y-49.0
X45.73Y-148.0
X47.0Y-49.0
X47.0Y-148.0
X50.73Y-49.0
X52.0Y-49.0
X53.27Y-49.0
T3
X32.0Y-41.84
X32.0Y-52.0
X32.0Y-54.84
X32.0Y-65.0
X32.0Y-123.0
X33.0Y-92.84
X33.0Y-103.0
X33.0Y-106.0
X33.0Y-116.16
X34.0Y-123.0
X35.84Y-35.0
X35.84Y-38.0
X35.84Y-41.0
X35.84Y-44.0
X36.0Y-47.0
X36.0Y-55.0
X36.0Y-60.0
X36.84Y-144.0
X37.0Y-127.0
X37.0Y-130.0
X37.0Y-140.16
X37.38Y-102.0
X37.38Y-104.54
X37.38Y-107.08
X37.38Y-109.62
X37.38Y-112.16
X37.38Y-114.7
X37.38Y-117.24
X37.38Y-119.78
X38.0Y-55.0
X38.38Y-63.92
X38.38Y-66.46
X38.38Y-69.0
X38.38Y-71.54
X38.38Y-74.08
X38.38Y-76.62
X38.38Y-79.16
X38.38Y-81.7
X40.0Y-130.0
X40.0Y-140.16
X41.0Y-47.0
X42.0Y-53.0
X42.0Y-56.0
X42.0Y-127.0
X45.0Y-102.0
X45.0Y-104.54
X45.0Y-107.08
X45.0Y-109.62
X45.0Y-112.16
X45.0Y-114.7
X45.0Y-117.24
X45.0Y-119.78
X45.0Y-131.0
X45.0Y-134.0
X45.0Y-137.0
X45.0Y-140.0
X46.0Y-35.0
X46.0Y-38.0
X46.0Y-41.0
X46.0Y-44.0
X46.0Y-63.92
X46.0Y-66.46
X46.0Y-69.0
X46.0Y-71.54
X46.0Y-74.08
X46.0Y-76.62
X46.0Y-79.16
X46.0Y-81.7
X46.16Y-60.0
X47.0Y-144.0
X48.84Y-76.0
X48.84Y-79.0
X49.0Y-82.0
X49.0Y-101.84
X49.0Y-112.0
X50.0Y-35.0
X50.0Y-45.16
X50.0Y-61.0
X50.0Y-67.0
X51.0Y-115.0
X51.0Y-117.0
X51.0Y-121.0
X51.0Y-123.0
X52.0Y-61.0
X52.0Y-67.0
X52.16Y-53.0
X52.16Y-56.0
X53.0Y-33.0
X53.0Y-43.16
X53.0Y-106.0
X53.0Y-111.0
X53.0Y-144.0
X53.0Y-147.0
X53.0Y-150.0
X54.0Y-82.0
X54.75Y-121.0
X54.75Y-128.5
X55.0Y-53.5
X55.0Y-70.0
X55.16Y-131.0
X55.16Y-134.0
X55.16Y-137.0
X55.16Y-140.0
X56.0Y-33.0
X56.0Y-40.62
X56.0Y-43.0
X56.0Y-50.62
X56.0Y-57.0
X56.0Y-59.54
X56.0Y-62.08
X56.0Y-64.62
X56.0Y-92.38
X56.0Y-100.0
X56.0Y-103.38
X56.0Y-111.0
X57.0Y-70.0
X58.0Y-116.0
X58.0Y-118.54
X58.0Y-121.08
X58.0Y-123.62
X58.0Y-127.0
X58.9Y-33.0
X58.9Y-40.62
X59.0Y-43.0
X59.0Y-50.62
X59.0Y-76.0
X59.0Y-79.0
X59.0Y-92.38
X59.0Y-100.0
X59.0Y-103.38
X59.0Y-111.0
X60.0Y-130.0
X60.0Y-140.16
X61.0Y-70.0
X62.0Y-33.0
X62.0Y-40.62
X62.0Y-43.0
X62.0Y-50.62
X62.0Y-92.38
X62.0Y-100.0
X62.0Y-103.38
X62.0Y-111.0
X63.0Y-70.0
X63.0Y-75.0
X63.0Y-85.16
X63.0Y-127.0
X63.0Y-130.0
X63.0Y-140.16
X63.16Y-144.0
X63.16Y-147.0
X63.16Y-150.0
X63.62Y-57.0
X63.62Y-59.54
X63.62Y-62.08
X63.62Y-64.62
X65.16Y-53.5
X65.62Y-116.0
X65.62Y-118.54
X65.62Y-121.08
X65.62Y-123.62
X67.0Y-34.0
X67.0Y-36.54
X67.0Y-39.08
X67.0Y-43.92
X67.0Y-46.46
X67.0Y-49.0
X67.0Y-94.0
X67.0Y-96.54
X67.0Y-99.08
X67.0Y-105.0
X67.0Y-107.54
X67.0Y-110.08
X68.0Y-53.0
X68.0Y-58.0
T4
X33.0Y-69.0
X33.0Y-71.54
X33.0Y-74.08
X33.0Y-76.62
X33.0Y-79.16
X33.0Y-81.7
X33.0Y-130.0
X33.0Y-132.54
X33.0Y-135.08
X33.0Y-137.62
X33.0Y-140.16
X33.0Y-142.7
X39.0Y-86.0
X39.0Y-97.0
X40.0Y-90.0
X40.0Y-92.54
X42.54Y-90.0
X42.54Y-92.54
X45.08Y-90.0
X45.08Y-92.54
X47.62Y-90.0
X47.62Y-92.54
X50.16Y-90.0
X50.16Y-92.54
X51.7Y-86.0
X51.7Y-97.0
X67.0Y-69.0
X67.0Y-71.54
X67.0Y-74.08
X67.0Y-76.62
X67.0Y-79.16
X67.0Y-81.7
X67.0Y-130.0
X67.0Y-132.54
X67.0Y-135.08
X67.0Y-137.62
X67.0Y-140.16
X67.0Y-142.7
T0
M30
