M48
; DRILL file {KiCad (6.0.0)} date Mon Jan 31 13:13:26 2022
; FORMAT={-:-/ absolute / metric / decimal}
; #@! TF.CreationDate,2022-01-31T13:13:26+01:00
; #@! TF.GenerationSoftware,Kicad,Pcbnew,(6.0.0)
; #@! TF.FileFunction,Plated,1,2,PTH
FMAT,2
METRIC
; #@! TA.AperFunction,Plated,PTH,ViaDrill
T1C0.400
; #@! TA.AperFunction,Plated,PTH,ComponentDrill
T2C0.750
; #@! TA.AperFunction,Plated,PTH,ComponentDrill
T3C0.800
; #@! TA.AperFunction,Plated,PTH,ComponentDrill
T4C1.000
%
G90
G05
T1
X40.0Y-71.25
X40.0Y-88.0
X48.2Y-117.3
X60.5Y-120.5
X60.5Y-131.0
T2
X44.5Y-53.73
X44.5Y-55.0
X44.5Y-56.27
X44.5Y-60.0
X44.5Y-61.27
X44.5Y-62.54
X51.5Y-137.0
X52.77Y-137.0
X54.04Y-137.0
X57.0Y-137.0
X58.27Y-137.0
X59.54Y-137.0
T3
X32.0Y-41.84
X32.0Y-52.0
X32.0Y-54.84
X32.0Y-65.0
X32.0Y-123.0
X33.0Y-92.84
X33.0Y-103.0
X33.0Y-106.0
X33.0Y-116.16
X34.0Y-123.0
X34.74Y-41.5
X35.0Y-57.5
X35.84Y-44.5
X35.84Y-47.5
X35.84Y-50.5
X36.0Y-66.0
X36.5Y-62.0
X36.84Y-138.5
X37.38Y-102.0
X37.38Y-104.54
X37.38Y-107.08
X37.38Y-109.62
X37.38Y-112.16
X37.38Y-114.7
X37.38Y-117.24
X37.38Y-119.78
X37.5Y-125.5
X37.5Y-135.66
X37.88Y-69.42
X37.88Y-71.96
X37.88Y-74.5
X37.88Y-77.04
X37.88Y-79.58
X37.88Y-82.12
X37.88Y-84.66
X37.88Y-87.2
X38.38Y-38.5
X38.5Y-62.0
X38.5Y-123.0
X40.0Y-57.5
X40.5Y-125.5
X40.5Y-135.66
X43.5Y-123.0
X43.5Y-125.5
X43.5Y-135.66
X44.9Y-41.5
X45.0Y-102.0
X45.0Y-104.54
X45.0Y-107.08
X45.0Y-109.62
X45.0Y-112.16
X45.0Y-114.7
X45.0Y-117.24
X45.0Y-119.78
X45.5Y-69.42
X45.5Y-71.96
X45.5Y-74.5
X45.5Y-77.04
X45.5Y-79.58
X45.5Y-82.12
X45.5Y-84.66
X45.5Y-87.2
X46.0Y-38.5
X46.0Y-44.5
X46.0Y-47.5
X46.0Y-50.5
X46.16Y-66.0
X46.5Y-125.5
X46.5Y-135.66
X47.0Y-138.5
X48.2Y-101.84
X48.2Y-112.0
X48.34Y-81.5
X48.34Y-84.5
X48.38Y-38.5
X48.38Y-41.0
X48.5Y-73.5
X48.5Y-77.5
X48.5Y-87.5
X49.5Y-44.84
X49.5Y-55.0
X49.5Y-59.0
X49.5Y-69.16
X49.5Y-123.0
X49.5Y-133.16
X50.5Y-73.5
X50.5Y-77.5
X50.5Y-140.5
X52.0Y-114.5
X52.0Y-116.5
X52.5Y-44.84
X52.5Y-55.0
X52.5Y-59.0
X52.5Y-69.16
X52.5Y-123.0
X52.5Y-133.16
X53.0Y-106.0
X53.0Y-111.0
X53.5Y-87.5
X55.5Y-123.0
X55.5Y-133.16
X56.0Y-38.5
X56.0Y-41.0
X56.0Y-45.0
X56.0Y-52.62
X56.0Y-60.88
X56.0Y-63.42
X56.0Y-65.96
X56.0Y-68.5
X56.0Y-87.88
X56.0Y-95.5
X56.0Y-98.88
X56.0Y-106.5
X56.0Y-113.0
X56.0Y-115.0
X57.84Y-57.5
X58.0Y-73.0
X58.0Y-77.5
X58.04Y-123.5
X58.04Y-126.5
X58.5Y-81.5
X58.5Y-84.5
X59.0Y-45.0
X59.0Y-52.62
X59.0Y-87.88
X59.0Y-95.5
X59.0Y-98.88
X59.0Y-106.5
X59.88Y-109.88
X59.88Y-112.42
X59.88Y-114.96
X59.88Y-117.5
X60.0Y-73.0
X60.0Y-77.5
X60.66Y-140.5
X61.0Y-39.5
X62.0Y-45.0
X62.0Y-52.62
X62.0Y-87.88
X62.0Y-95.5
X62.0Y-98.88
X62.0Y-106.5
X63.0Y-120.5
X63.5Y-75.0
X63.5Y-85.16
X63.5Y-129.34
X63.5Y-139.5
X63.54Y-39.5
X63.62Y-60.88
X63.62Y-63.42
X63.62Y-65.96
X63.62Y-68.5
X66.08Y-39.5
X66.5Y-46.0
X66.5Y-48.54
X66.5Y-51.08
X67.0Y-89.5
X67.0Y-92.04
X67.0Y-94.58
X67.0Y-100.5
X67.0Y-103.04
X67.0Y-105.58
X67.5Y-109.88
X67.5Y-112.42
X67.5Y-114.96
X67.5Y-117.5
X68.0Y-57.5
X68.0Y-60.5
X68.0Y-65.5
X68.0Y-120.5
X68.2Y-123.5
X68.2Y-126.5
T4
X33.0Y-69.0
X33.0Y-71.54
X33.0Y-74.08
X33.0Y-76.62
X33.0Y-79.16
X33.0Y-81.7
X33.0Y-130.0
X33.0Y-132.54
X33.0Y-135.08
X33.0Y-137.62
X33.0Y-140.16
X33.0Y-142.7
X36.3Y-91.5
X37.0Y-95.5
X37.0Y-98.04
X39.54Y-95.5
X39.54Y-98.04
X42.08Y-95.5
X42.08Y-98.04
X44.62Y-95.5
X44.62Y-98.04
X47.16Y-95.5
X47.16Y-98.04
X49.0Y-91.5
X52.5Y-90.5
X52.5Y-103.2
X67.0Y-69.0
X67.0Y-71.54
X67.0Y-74.08
X67.0Y-76.62
X67.0Y-79.16
X67.0Y-81.7
X67.0Y-130.0
X67.0Y-132.54
X67.0Y-135.08
X67.0Y-137.62
X67.0Y-140.16
X67.0Y-142.7
T0
M30
