G04 #@! TF.GenerationSoftware,KiCad,Pcbnew,(6.0.1)*
G04 #@! TF.CreationDate,2022-02-08T11:35:52+01:00*
G04 #@! TF.ProjectId,MS20-VCF,4d533230-2d56-4434-962e-6b696361645f,rev?*
G04 #@! TF.SameCoordinates,Original*
G04 #@! TF.FileFunction,Legend,Top*
G04 #@! TF.FilePolarity,Positive*
%FSLAX46Y46*%
G04 Gerber Fmt 4.6, Leading zero omitted, Abs format (unit mm)*
G04 Created by KiCad (PCBNEW (6.0.1)) date 2022-02-08 11:35:52*
%MOMM*%
%LPD*%
G01*
G04 APERTURE LIST*
%ADD10C,0.150000*%
%ADD11C,0.120000*%
%ADD12R,1.600000X1.600000*%
%ADD13C,1.600000*%
%ADD14O,1.600000X1.600000*%
%ADD15R,1.700000X1.700000*%
%ADD16O,1.700000X1.700000*%
%ADD17R,1.500000X1.050000*%
%ADD18O,1.500000X1.050000*%
%ADD19C,2.000000*%
%ADD20O,2.000000X2.000000*%
%ADD21C,1.440000*%
G04 APERTURE END LIST*
D10*
X53952380Y-45342380D02*
X53952380Y-44342380D01*
X54190476Y-44342380D01*
X54333333Y-44390000D01*
X54428571Y-44485238D01*
X54476190Y-44580476D01*
X54523809Y-44770952D01*
X54523809Y-44913809D01*
X54476190Y-45104285D01*
X54428571Y-45199523D01*
X54333333Y-45294761D01*
X54190476Y-45342380D01*
X53952380Y-45342380D01*
X55095238Y-45342380D02*
X55000000Y-45294761D01*
X54952380Y-45247142D01*
X54904761Y-45151904D01*
X54904761Y-44866190D01*
X54952380Y-44770952D01*
X55000000Y-44723333D01*
X55095238Y-44675714D01*
X55238095Y-44675714D01*
X55333333Y-44723333D01*
X55380952Y-44770952D01*
X55428571Y-44866190D01*
X55428571Y-45151904D01*
X55380952Y-45247142D01*
X55333333Y-45294761D01*
X55238095Y-45342380D01*
X55095238Y-45342380D01*
X56285714Y-44675714D02*
X56285714Y-45342380D01*
X55857142Y-44675714D02*
X55857142Y-45199523D01*
X55904761Y-45294761D01*
X56000000Y-45342380D01*
X56142857Y-45342380D01*
X56238095Y-45294761D01*
X56285714Y-45247142D01*
X56761904Y-45342380D02*
X56761904Y-44342380D01*
X56761904Y-44723333D02*
X56857142Y-44675714D01*
X57047619Y-44675714D01*
X57142857Y-44723333D01*
X57190476Y-44770952D01*
X57238095Y-44866190D01*
X57238095Y-45151904D01*
X57190476Y-45247142D01*
X57142857Y-45294761D01*
X57047619Y-45342380D01*
X56857142Y-45342380D01*
X56761904Y-45294761D01*
X57809523Y-45342380D02*
X57714285Y-45294761D01*
X57666666Y-45199523D01*
X57666666Y-44342380D01*
X58571428Y-45294761D02*
X58476190Y-45342380D01*
X58285714Y-45342380D01*
X58190476Y-45294761D01*
X58142857Y-45199523D01*
X58142857Y-44818571D01*
X58190476Y-44723333D01*
X58285714Y-44675714D01*
X58476190Y-44675714D01*
X58571428Y-44723333D01*
X58619047Y-44818571D01*
X58619047Y-44913809D01*
X58142857Y-45009047D01*
X59809523Y-45342380D02*
X59809523Y-44342380D01*
X60142857Y-45056666D01*
X60476190Y-44342380D01*
X60476190Y-45342380D01*
X60904761Y-45294761D02*
X61047619Y-45342380D01*
X61285714Y-45342380D01*
X61380952Y-45294761D01*
X61428571Y-45247142D01*
X61476190Y-45151904D01*
X61476190Y-45056666D01*
X61428571Y-44961428D01*
X61380952Y-44913809D01*
X61285714Y-44866190D01*
X61095238Y-44818571D01*
X61000000Y-44770952D01*
X60952380Y-44723333D01*
X60904761Y-44628095D01*
X60904761Y-44532857D01*
X60952380Y-44437619D01*
X61000000Y-44390000D01*
X61095238Y-44342380D01*
X61333333Y-44342380D01*
X61476190Y-44390000D01*
X61904761Y-44961428D02*
X62666666Y-44961428D01*
X63095238Y-44437619D02*
X63142857Y-44390000D01*
X63238095Y-44342380D01*
X63476190Y-44342380D01*
X63571428Y-44390000D01*
X63619047Y-44437619D01*
X63666666Y-44532857D01*
X63666666Y-44628095D01*
X63619047Y-44770952D01*
X63047619Y-45342380D01*
X63666666Y-45342380D01*
X64285714Y-44342380D02*
X64380952Y-44342380D01*
X64476190Y-44390000D01*
X64523809Y-44437619D01*
X64571428Y-44532857D01*
X64619047Y-44723333D01*
X64619047Y-44961428D01*
X64571428Y-45151904D01*
X64523809Y-45247142D01*
X64476190Y-45294761D01*
X64380952Y-45342380D01*
X64285714Y-45342380D01*
X64190476Y-45294761D01*
X64142857Y-45247142D01*
X64095238Y-45151904D01*
X64047619Y-44961428D01*
X64047619Y-44723333D01*
X64095238Y-44532857D01*
X64142857Y-44437619D01*
X64190476Y-44390000D01*
X64285714Y-44342380D01*
X65666666Y-44342380D02*
X66000000Y-45342380D01*
X66333333Y-44342380D01*
X67238095Y-45247142D02*
X67190476Y-45294761D01*
X67047619Y-45342380D01*
X66952380Y-45342380D01*
X66809523Y-45294761D01*
X66714285Y-45199523D01*
X66666666Y-45104285D01*
X66619047Y-44913809D01*
X66619047Y-44770952D01*
X66666666Y-44580476D01*
X66714285Y-44485238D01*
X66809523Y-44390000D01*
X66952380Y-44342380D01*
X67047619Y-44342380D01*
X67190476Y-44390000D01*
X67238095Y-44437619D01*
X68000000Y-44818571D02*
X67666666Y-44818571D01*
X67666666Y-45342380D02*
X67666666Y-44342380D01*
X68142857Y-44342380D01*
X54738095Y-45952380D02*
X55071428Y-46952380D01*
X55404761Y-45952380D01*
X56261904Y-46952380D02*
X55690476Y-46952380D01*
X55976190Y-46952380D02*
X55976190Y-45952380D01*
X55880952Y-46095238D01*
X55785714Y-46190476D01*
X55690476Y-46238095D01*
X56690476Y-46857142D02*
X56738095Y-46904761D01*
X56690476Y-46952380D01*
X56642857Y-46904761D01*
X56690476Y-46857142D01*
X56690476Y-46952380D01*
X57357142Y-45952380D02*
X57452380Y-45952380D01*
X57547619Y-46000000D01*
X57595238Y-46047619D01*
X57642857Y-46142857D01*
X57690476Y-46333333D01*
X57690476Y-46571428D01*
X57642857Y-46761904D01*
X57595238Y-46857142D01*
X57547619Y-46904761D01*
X57452380Y-46952380D01*
X57357142Y-46952380D01*
X57261904Y-46904761D01*
X57214285Y-46857142D01*
X57166666Y-46761904D01*
X57119047Y-46571428D01*
X57119047Y-46333333D01*
X57166666Y-46142857D01*
X57214285Y-46047619D01*
X57261904Y-46000000D01*
X57357142Y-45952380D01*
X59214285Y-46428571D02*
X59357142Y-46476190D01*
X59404761Y-46523809D01*
X59452380Y-46619047D01*
X59452380Y-46761904D01*
X59404761Y-46857142D01*
X59357142Y-46904761D01*
X59261904Y-46952380D01*
X58880952Y-46952380D01*
X58880952Y-45952380D01*
X59214285Y-45952380D01*
X59309523Y-46000000D01*
X59357142Y-46047619D01*
X59404761Y-46142857D01*
X59404761Y-46238095D01*
X59357142Y-46333333D01*
X59309523Y-46380952D01*
X59214285Y-46428571D01*
X58880952Y-46428571D01*
X60023809Y-46952380D02*
X59928571Y-46904761D01*
X59880952Y-46809523D01*
X59880952Y-45952380D01*
X60785714Y-46904761D02*
X60690476Y-46952380D01*
X60500000Y-46952380D01*
X60404761Y-46904761D01*
X60357142Y-46809523D01*
X60357142Y-46428571D01*
X60404761Y-46333333D01*
X60500000Y-46285714D01*
X60690476Y-46285714D01*
X60785714Y-46333333D01*
X60833333Y-46428571D01*
X60833333Y-46523809D01*
X60357142Y-46619047D01*
X61642857Y-46904761D02*
X61547619Y-46952380D01*
X61357142Y-46952380D01*
X61261904Y-46904761D01*
X61214285Y-46809523D01*
X61214285Y-46428571D01*
X61261904Y-46333333D01*
X61357142Y-46285714D01*
X61547619Y-46285714D01*
X61642857Y-46333333D01*
X61690476Y-46428571D01*
X61690476Y-46523809D01*
X61214285Y-46619047D01*
X62119047Y-46285714D02*
X62119047Y-47285714D01*
X62119047Y-46333333D02*
X62214285Y-46285714D01*
X62404761Y-46285714D01*
X62500000Y-46333333D01*
X62547619Y-46380952D01*
X62595238Y-46476190D01*
X62595238Y-46761904D01*
X62547619Y-46857142D01*
X62500000Y-46904761D01*
X62404761Y-46952380D01*
X62214285Y-46952380D01*
X62119047Y-46904761D01*
X62976190Y-46904761D02*
X63119047Y-46952380D01*
X63357142Y-46952380D01*
X63452380Y-46904761D01*
X63500000Y-46857142D01*
X63547619Y-46761904D01*
X63547619Y-46666666D01*
X63500000Y-46571428D01*
X63452380Y-46523809D01*
X63357142Y-46476190D01*
X63166666Y-46428571D01*
X63071428Y-46380952D01*
X63023809Y-46333333D01*
X62976190Y-46238095D01*
X62976190Y-46142857D01*
X63023809Y-46047619D01*
X63071428Y-46000000D01*
X63166666Y-45952380D01*
X63404761Y-45952380D01*
X63547619Y-46000000D01*
X64119047Y-46952380D02*
X64023809Y-46904761D01*
X63976190Y-46857142D01*
X63928571Y-46761904D01*
X63928571Y-46476190D01*
X63976190Y-46380952D01*
X64023809Y-46333333D01*
X64119047Y-46285714D01*
X64261904Y-46285714D01*
X64357142Y-46333333D01*
X64404761Y-46380952D01*
X64452380Y-46476190D01*
X64452380Y-46761904D01*
X64404761Y-46857142D01*
X64357142Y-46904761D01*
X64261904Y-46952380D01*
X64119047Y-46952380D01*
X65309523Y-46285714D02*
X65309523Y-46952380D01*
X64880952Y-46285714D02*
X64880952Y-46809523D01*
X64928571Y-46904761D01*
X65023809Y-46952380D01*
X65166666Y-46952380D01*
X65261904Y-46904761D01*
X65309523Y-46857142D01*
X65785714Y-46285714D02*
X65785714Y-46952380D01*
X65785714Y-46380952D02*
X65833333Y-46333333D01*
X65928571Y-46285714D01*
X66071428Y-46285714D01*
X66166666Y-46333333D01*
X66214285Y-46428571D01*
X66214285Y-46952380D01*
X67119047Y-46952380D02*
X67119047Y-45952380D01*
X67119047Y-46904761D02*
X67023809Y-46952380D01*
X66833333Y-46952380D01*
X66738095Y-46904761D01*
X66690476Y-46857142D01*
X66642857Y-46761904D01*
X66642857Y-46476190D01*
X66690476Y-46380952D01*
X66738095Y-46333333D01*
X66833333Y-46285714D01*
X67023809Y-46285714D01*
X67119047Y-46333333D01*
X59285714Y-47657619D02*
X59333333Y-47610000D01*
X59428571Y-47562380D01*
X59666666Y-47562380D01*
X59761904Y-47610000D01*
X59809523Y-47657619D01*
X59857142Y-47752857D01*
X59857142Y-47848095D01*
X59809523Y-47990952D01*
X59238095Y-48562380D01*
X59857142Y-48562380D01*
X60476190Y-47562380D02*
X60571428Y-47562380D01*
X60666666Y-47610000D01*
X60714285Y-47657619D01*
X60761904Y-47752857D01*
X60809523Y-47943333D01*
X60809523Y-48181428D01*
X60761904Y-48371904D01*
X60714285Y-48467142D01*
X60666666Y-48514761D01*
X60571428Y-48562380D01*
X60476190Y-48562380D01*
X60380952Y-48514761D01*
X60333333Y-48467142D01*
X60285714Y-48371904D01*
X60238095Y-48181428D01*
X60238095Y-47943333D01*
X60285714Y-47752857D01*
X60333333Y-47657619D01*
X60380952Y-47610000D01*
X60476190Y-47562380D01*
X61190476Y-47657619D02*
X61238095Y-47610000D01*
X61333333Y-47562380D01*
X61571428Y-47562380D01*
X61666666Y-47610000D01*
X61714285Y-47657619D01*
X61761904Y-47752857D01*
X61761904Y-47848095D01*
X61714285Y-47990952D01*
X61142857Y-48562380D01*
X61761904Y-48562380D01*
X62142857Y-47657619D02*
X62190476Y-47610000D01*
X62285714Y-47562380D01*
X62523809Y-47562380D01*
X62619047Y-47610000D01*
X62666666Y-47657619D01*
X62714285Y-47752857D01*
X62714285Y-47848095D01*
X62666666Y-47990952D01*
X62095238Y-48562380D01*
X62714285Y-48562380D01*
X57261904Y-53952380D02*
X57261904Y-52952380D01*
X57261904Y-53333333D02*
X57357142Y-53285714D01*
X57547619Y-53285714D01*
X57642857Y-53333333D01*
X57690476Y-53380952D01*
X57738095Y-53476190D01*
X57738095Y-53761904D01*
X57690476Y-53857142D01*
X57642857Y-53904761D01*
X57547619Y-53952380D01*
X57357142Y-53952380D01*
X57261904Y-53904761D01*
X58309523Y-53952380D02*
X58214285Y-53904761D01*
X58166666Y-53857142D01*
X58119047Y-53761904D01*
X58119047Y-53476190D01*
X58166666Y-53380952D01*
X58214285Y-53333333D01*
X58309523Y-53285714D01*
X58452380Y-53285714D01*
X58547619Y-53333333D01*
X58595238Y-53380952D01*
X58642857Y-53476190D01*
X58642857Y-53761904D01*
X58595238Y-53857142D01*
X58547619Y-53904761D01*
X58452380Y-53952380D01*
X58309523Y-53952380D01*
X59500000Y-53952380D02*
X59500000Y-53428571D01*
X59452380Y-53333333D01*
X59357142Y-53285714D01*
X59166666Y-53285714D01*
X59071428Y-53333333D01*
X59500000Y-53904761D02*
X59404761Y-53952380D01*
X59166666Y-53952380D01*
X59071428Y-53904761D01*
X59023809Y-53809523D01*
X59023809Y-53714285D01*
X59071428Y-53619047D01*
X59166666Y-53571428D01*
X59404761Y-53571428D01*
X59500000Y-53523809D01*
X59976190Y-53952380D02*
X59976190Y-53285714D01*
X59976190Y-53476190D02*
X60023809Y-53380952D01*
X60071428Y-53333333D01*
X60166666Y-53285714D01*
X60261904Y-53285714D01*
X61023809Y-53952380D02*
X61023809Y-52952380D01*
X61023809Y-53904761D02*
X60928571Y-53952380D01*
X60738095Y-53952380D01*
X60642857Y-53904761D01*
X60595238Y-53857142D01*
X60547619Y-53761904D01*
X60547619Y-53476190D01*
X60595238Y-53380952D01*
X60642857Y-53333333D01*
X60738095Y-53285714D01*
X60928571Y-53285714D01*
X61023809Y-53333333D01*
X62785714Y-53952380D02*
X62214285Y-53952380D01*
X62500000Y-53952380D02*
X62500000Y-52952380D01*
X62404761Y-53095238D01*
X62309523Y-53190476D01*
X62214285Y-53238095D01*
X63928571Y-52904761D02*
X63071428Y-54190476D01*
X64214285Y-53047619D02*
X64261904Y-53000000D01*
X64357142Y-52952380D01*
X64595238Y-52952380D01*
X64690476Y-53000000D01*
X64738095Y-53047619D01*
X64785714Y-53142857D01*
X64785714Y-53238095D01*
X64738095Y-53380952D01*
X64166666Y-53952380D01*
X64785714Y-53952380D01*
X63833333Y-90857142D02*
X63785714Y-90904761D01*
X63642857Y-90952380D01*
X63547619Y-90952380D01*
X63404761Y-90904761D01*
X63309523Y-90809523D01*
X63261904Y-90714285D01*
X63214285Y-90523809D01*
X63214285Y-90380952D01*
X63261904Y-90190476D01*
X63309523Y-90095238D01*
X63404761Y-90000000D01*
X63547619Y-89952380D01*
X63642857Y-89952380D01*
X63785714Y-90000000D01*
X63833333Y-90047619D01*
X64214285Y-90047619D02*
X64261904Y-90000000D01*
X64357142Y-89952380D01*
X64595238Y-89952380D01*
X64690476Y-90000000D01*
X64738095Y-90047619D01*
X64785714Y-90142857D01*
X64785714Y-90238095D01*
X64738095Y-90380952D01*
X64166666Y-90952380D01*
X64785714Y-90952380D01*
X63788446Y-93857142D02*
X63740827Y-93904761D01*
X63597970Y-93952380D01*
X63502732Y-93952380D01*
X63359874Y-93904761D01*
X63264636Y-93809523D01*
X63217017Y-93714285D01*
X63169398Y-93523809D01*
X63169398Y-93380952D01*
X63217017Y-93190476D01*
X63264636Y-93095238D01*
X63359874Y-93000000D01*
X63502732Y-92952380D01*
X63597970Y-92952380D01*
X63740827Y-93000000D01*
X63788446Y-93047619D01*
X64121779Y-92952380D02*
X64740827Y-92952380D01*
X64407493Y-93333333D01*
X64550351Y-93333333D01*
X64645589Y-93380952D01*
X64693208Y-93428571D01*
X64740827Y-93523809D01*
X64740827Y-93761904D01*
X64693208Y-93857142D01*
X64645589Y-93904761D01*
X64550351Y-93952380D01*
X64264636Y-93952380D01*
X64169398Y-93904761D01*
X64121779Y-93857142D01*
X87357142Y-63166666D02*
X87404761Y-63214285D01*
X87452380Y-63357142D01*
X87452380Y-63452380D01*
X87404761Y-63595238D01*
X87309523Y-63690476D01*
X87214285Y-63738095D01*
X87023809Y-63785714D01*
X86880952Y-63785714D01*
X86690476Y-63738095D01*
X86595238Y-63690476D01*
X86500000Y-63595238D01*
X86452380Y-63452380D01*
X86452380Y-63357142D01*
X86500000Y-63214285D01*
X86547619Y-63166666D01*
X86785714Y-62309523D02*
X87452380Y-62309523D01*
X86404761Y-62547619D02*
X87119047Y-62785714D01*
X87119047Y-62166666D01*
X41788445Y-61857142D02*
X41740826Y-61904761D01*
X41597969Y-61952380D01*
X41502731Y-61952380D01*
X41359873Y-61904761D01*
X41264635Y-61809523D01*
X41217016Y-61714285D01*
X41169397Y-61523809D01*
X41169397Y-61380952D01*
X41217016Y-61190476D01*
X41264635Y-61095238D01*
X41359873Y-61000000D01*
X41502731Y-60952380D01*
X41597969Y-60952380D01*
X41740826Y-61000000D01*
X41788445Y-61047619D01*
X42645588Y-60952380D02*
X42455112Y-60952380D01*
X42359873Y-61000000D01*
X42312254Y-61047619D01*
X42217016Y-61190476D01*
X42169397Y-61380952D01*
X42169397Y-61761904D01*
X42217016Y-61857142D01*
X42264635Y-61904761D01*
X42359873Y-61952380D01*
X42550350Y-61952380D01*
X42645588Y-61904761D01*
X42693207Y-61857142D01*
X42740826Y-61761904D01*
X42740826Y-61523809D01*
X42693207Y-61428571D01*
X42645588Y-61380952D01*
X42550350Y-61333333D01*
X42359873Y-61333333D01*
X42264635Y-61380952D01*
X42217016Y-61428571D01*
X42169397Y-61523809D01*
X66357142Y-107857142D02*
X66309523Y-107904761D01*
X66166666Y-107952380D01*
X66071428Y-107952380D01*
X65928571Y-107904761D01*
X65833333Y-107809523D01*
X65785714Y-107714285D01*
X65738095Y-107523809D01*
X65738095Y-107380952D01*
X65785714Y-107190476D01*
X65833333Y-107095238D01*
X65928571Y-107000000D01*
X66071428Y-106952380D01*
X66166666Y-106952380D01*
X66309523Y-107000000D01*
X66357142Y-107047619D01*
X67309523Y-107952380D02*
X66738095Y-107952380D01*
X67023809Y-107952380D02*
X67023809Y-106952380D01*
X66928571Y-107095238D01*
X66833333Y-107190476D01*
X66738095Y-107238095D01*
X67690476Y-107047619D02*
X67738095Y-107000000D01*
X67833333Y-106952380D01*
X68071428Y-106952380D01*
X68166666Y-107000000D01*
X68214285Y-107047619D01*
X68261904Y-107142857D01*
X68261904Y-107238095D01*
X68214285Y-107380952D01*
X67642857Y-107952380D01*
X68261904Y-107952380D01*
X34357142Y-116142857D02*
X34404761Y-116190476D01*
X34452380Y-116333333D01*
X34452380Y-116428571D01*
X34404761Y-116571428D01*
X34309523Y-116666666D01*
X34214285Y-116714285D01*
X34023809Y-116761904D01*
X33880952Y-116761904D01*
X33690476Y-116714285D01*
X33595238Y-116666666D01*
X33500000Y-116571428D01*
X33452380Y-116428571D01*
X33452380Y-116333333D01*
X33500000Y-116190476D01*
X33547619Y-116142857D01*
X34452380Y-115190476D02*
X34452380Y-115761904D01*
X34452380Y-115476190D02*
X33452380Y-115476190D01*
X33595238Y-115571428D01*
X33690476Y-115666666D01*
X33738095Y-115761904D01*
X33452380Y-114857142D02*
X33452380Y-114238095D01*
X33833333Y-114571428D01*
X33833333Y-114428571D01*
X33880952Y-114333333D01*
X33928571Y-114285714D01*
X34023809Y-114238095D01*
X34261904Y-114238095D01*
X34357142Y-114285714D01*
X34404761Y-114333333D01*
X34452380Y-114428571D01*
X34452380Y-114714285D01*
X34404761Y-114809523D01*
X34357142Y-114857142D01*
X81952380Y-43428095D02*
X80952380Y-43428095D01*
X80952380Y-43190000D01*
X81000000Y-43047142D01*
X81095238Y-42951904D01*
X81190476Y-42904285D01*
X81380952Y-42856666D01*
X81523809Y-42856666D01*
X81714285Y-42904285D01*
X81809523Y-42951904D01*
X81904761Y-43047142D01*
X81952380Y-43190000D01*
X81952380Y-43428095D01*
X81047619Y-42475714D02*
X81000000Y-42428095D01*
X80952380Y-42332857D01*
X80952380Y-42094761D01*
X81000000Y-41999523D01*
X81047619Y-41951904D01*
X81142857Y-41904285D01*
X81238095Y-41904285D01*
X81380952Y-41951904D01*
X81952380Y-42523333D01*
X81952380Y-41904285D01*
X83752380Y-39141904D02*
X82752380Y-39141904D01*
X83752380Y-38570476D02*
X83180952Y-38999047D01*
X82752380Y-38570476D02*
X83323809Y-39141904D01*
X81952380Y-54928095D02*
X80952380Y-54928095D01*
X80952380Y-54690000D01*
X81000000Y-54547142D01*
X81095238Y-54451904D01*
X81190476Y-54404285D01*
X81380952Y-54356666D01*
X81523809Y-54356666D01*
X81714285Y-54404285D01*
X81809523Y-54451904D01*
X81904761Y-54547142D01*
X81952380Y-54690000D01*
X81952380Y-54928095D01*
X80952380Y-54023333D02*
X80952380Y-53404285D01*
X81333333Y-53737619D01*
X81333333Y-53594761D01*
X81380952Y-53499523D01*
X81428571Y-53451904D01*
X81523809Y-53404285D01*
X81761904Y-53404285D01*
X81857142Y-53451904D01*
X81904761Y-53499523D01*
X81952380Y-53594761D01*
X81952380Y-53880476D01*
X81904761Y-53975714D01*
X81857142Y-54023333D01*
X83952380Y-58261904D02*
X82952380Y-58261904D01*
X83952380Y-57690476D02*
X83380952Y-58119047D01*
X82952380Y-57690476D02*
X83523809Y-58261904D01*
X78452380Y-43428095D02*
X77452380Y-43428095D01*
X77452380Y-43190000D01*
X77500000Y-43047142D01*
X77595238Y-42951904D01*
X77690476Y-42904285D01*
X77880952Y-42856666D01*
X78023809Y-42856666D01*
X78214285Y-42904285D01*
X78309523Y-42951904D01*
X78404761Y-43047142D01*
X78452380Y-43190000D01*
X78452380Y-43428095D01*
X77785714Y-41999523D02*
X78452380Y-41999523D01*
X77404761Y-42237619D02*
X78119047Y-42475714D01*
X78119047Y-41856666D01*
X76652380Y-46761904D02*
X75652380Y-46761904D01*
X76652380Y-46190476D02*
X76080952Y-46619047D01*
X75652380Y-46190476D02*
X76223809Y-46761904D01*
X78452380Y-55118095D02*
X77452380Y-55118095D01*
X77452380Y-54880000D01*
X77500000Y-54737142D01*
X77595238Y-54641904D01*
X77690476Y-54594285D01*
X77880952Y-54546666D01*
X78023809Y-54546666D01*
X78214285Y-54594285D01*
X78309523Y-54641904D01*
X78404761Y-54737142D01*
X78452380Y-54880000D01*
X78452380Y-55118095D01*
X77452380Y-53641904D02*
X77452380Y-54118095D01*
X77928571Y-54165714D01*
X77880952Y-54118095D01*
X77833333Y-54022857D01*
X77833333Y-53784761D01*
X77880952Y-53689523D01*
X77928571Y-53641904D01*
X78023809Y-53594285D01*
X78261904Y-53594285D01*
X78357142Y-53641904D01*
X78404761Y-53689523D01*
X78452380Y-53784761D01*
X78452380Y-54022857D01*
X78404761Y-54118095D01*
X78357142Y-54165714D01*
X80252380Y-50641904D02*
X79252380Y-50641904D01*
X80252380Y-50070476D02*
X79680952Y-50499047D01*
X79252380Y-50070476D02*
X79823809Y-50641904D01*
X75052380Y-43428095D02*
X74052380Y-43428095D01*
X74052380Y-43190000D01*
X74100000Y-43047142D01*
X74195238Y-42951904D01*
X74290476Y-42904285D01*
X74480952Y-42856666D01*
X74623809Y-42856666D01*
X74814285Y-42904285D01*
X74909523Y-42951904D01*
X75004761Y-43047142D01*
X75052380Y-43190000D01*
X75052380Y-43428095D01*
X74052380Y-41999523D02*
X74052380Y-42190000D01*
X74100000Y-42285238D01*
X74147619Y-42332857D01*
X74290476Y-42428095D01*
X74480952Y-42475714D01*
X74861904Y-42475714D01*
X74957142Y-42428095D01*
X75004761Y-42380476D01*
X75052380Y-42285238D01*
X75052380Y-42094761D01*
X75004761Y-41999523D01*
X74957142Y-41951904D01*
X74861904Y-41904285D01*
X74623809Y-41904285D01*
X74528571Y-41951904D01*
X74480952Y-41999523D01*
X74433333Y-42094761D01*
X74433333Y-42285238D01*
X74480952Y-42380476D01*
X74528571Y-42428095D01*
X74623809Y-42475714D01*
X73152380Y-46761904D02*
X72152380Y-46761904D01*
X73152380Y-46190476D02*
X72580952Y-46619047D01*
X72152380Y-46190476D02*
X72723809Y-46761904D01*
X74952380Y-54928095D02*
X73952380Y-54928095D01*
X73952380Y-54690000D01*
X74000000Y-54547142D01*
X74095238Y-54451904D01*
X74190476Y-54404285D01*
X74380952Y-54356666D01*
X74523809Y-54356666D01*
X74714285Y-54404285D01*
X74809523Y-54451904D01*
X74904761Y-54547142D01*
X74952380Y-54690000D01*
X74952380Y-54928095D01*
X73952380Y-54023333D02*
X73952380Y-53356666D01*
X74952380Y-53785238D01*
X73152380Y-58261904D02*
X72152380Y-58261904D01*
X73152380Y-57690476D02*
X72580952Y-58119047D01*
X72152380Y-57690476D02*
X72723809Y-58261904D01*
X86666666Y-84452380D02*
X86666666Y-85166666D01*
X86619047Y-85309523D01*
X86523809Y-85404761D01*
X86380952Y-85452380D01*
X86285714Y-85452380D01*
X87095238Y-84547619D02*
X87142857Y-84500000D01*
X87238095Y-84452380D01*
X87476190Y-84452380D01*
X87571428Y-84500000D01*
X87619047Y-84547619D01*
X87666666Y-84642857D01*
X87666666Y-84738095D01*
X87619047Y-84880952D01*
X87047619Y-85452380D01*
X87666666Y-85452380D01*
X32666666Y-144952380D02*
X32666666Y-145666666D01*
X32619047Y-145809523D01*
X32523809Y-145904761D01*
X32380952Y-145952380D01*
X32285714Y-145952380D01*
X33190476Y-145952380D02*
X33380952Y-145952380D01*
X33476190Y-145904761D01*
X33523809Y-145857142D01*
X33619047Y-145714285D01*
X33666666Y-145523809D01*
X33666666Y-145142857D01*
X33619047Y-145047619D01*
X33571428Y-145000000D01*
X33476190Y-144952380D01*
X33285714Y-144952380D01*
X33190476Y-145000000D01*
X33142857Y-145047619D01*
X33095238Y-145142857D01*
X33095238Y-145380952D01*
X33142857Y-145476190D01*
X33190476Y-145523809D01*
X33285714Y-145571428D01*
X33476190Y-145571428D01*
X33571428Y-145523809D01*
X33619047Y-145476190D01*
X33666666Y-145380952D01*
X70904761Y-78047619D02*
X70809523Y-78000000D01*
X70714285Y-77904761D01*
X70571428Y-77761904D01*
X70476190Y-77714285D01*
X70380952Y-77714285D01*
X70428571Y-77952380D02*
X70333333Y-77904761D01*
X70238095Y-77809523D01*
X70190476Y-77619047D01*
X70190476Y-77285714D01*
X70238095Y-77095238D01*
X70333333Y-77000000D01*
X70428571Y-76952380D01*
X70619047Y-76952380D01*
X70714285Y-77000000D01*
X70809523Y-77095238D01*
X70857142Y-77285714D01*
X70857142Y-77619047D01*
X70809523Y-77809523D01*
X70714285Y-77904761D01*
X70619047Y-77952380D01*
X70428571Y-77952380D01*
X71809523Y-77952380D02*
X71238095Y-77952380D01*
X71523809Y-77952380D02*
X71523809Y-76952380D01*
X71428571Y-77095238D01*
X71333333Y-77190476D01*
X71238095Y-77238095D01*
X65044761Y-78047619D02*
X64949523Y-78000000D01*
X64854285Y-77904761D01*
X64711428Y-77761904D01*
X64616190Y-77714285D01*
X64520952Y-77714285D01*
X64568571Y-77952380D02*
X64473333Y-77904761D01*
X64378095Y-77809523D01*
X64330476Y-77619047D01*
X64330476Y-77285714D01*
X64378095Y-77095238D01*
X64473333Y-77000000D01*
X64568571Y-76952380D01*
X64759047Y-76952380D01*
X64854285Y-77000000D01*
X64949523Y-77095238D01*
X64997142Y-77285714D01*
X64997142Y-77619047D01*
X64949523Y-77809523D01*
X64854285Y-77904761D01*
X64759047Y-77952380D01*
X64568571Y-77952380D01*
X65378095Y-77047619D02*
X65425714Y-77000000D01*
X65520952Y-76952380D01*
X65759047Y-76952380D01*
X65854285Y-77000000D01*
X65901904Y-77047619D01*
X65949523Y-77142857D01*
X65949523Y-77238095D01*
X65901904Y-77380952D01*
X65330476Y-77952380D01*
X65949523Y-77952380D01*
X55907619Y-124365238D02*
X55860000Y-124460476D01*
X55764761Y-124555714D01*
X55621904Y-124698571D01*
X55574285Y-124793809D01*
X55574285Y-124889047D01*
X55812380Y-124841428D02*
X55764761Y-124936666D01*
X55669523Y-125031904D01*
X55479047Y-125079523D01*
X55145714Y-125079523D01*
X54955238Y-125031904D01*
X54860000Y-124936666D01*
X54812380Y-124841428D01*
X54812380Y-124650952D01*
X54860000Y-124555714D01*
X54955238Y-124460476D01*
X55145714Y-124412857D01*
X55479047Y-124412857D01*
X55669523Y-124460476D01*
X55764761Y-124555714D01*
X55812380Y-124650952D01*
X55812380Y-124841428D01*
X54812380Y-124079523D02*
X54812380Y-123460476D01*
X55193333Y-123793809D01*
X55193333Y-123650952D01*
X55240952Y-123555714D01*
X55288571Y-123508095D01*
X55383809Y-123460476D01*
X55621904Y-123460476D01*
X55717142Y-123508095D01*
X55764761Y-123555714D01*
X55812380Y-123650952D01*
X55812380Y-123936666D01*
X55764761Y-124031904D01*
X55717142Y-124079523D01*
X57952380Y-65086666D02*
X57476190Y-65420000D01*
X57952380Y-65658095D02*
X56952380Y-65658095D01*
X56952380Y-65277142D01*
X57000000Y-65181904D01*
X57047619Y-65134285D01*
X57142857Y-65086666D01*
X57285714Y-65086666D01*
X57380952Y-65134285D01*
X57428571Y-65181904D01*
X57476190Y-65277142D01*
X57476190Y-65658095D01*
X57952380Y-64134285D02*
X57952380Y-64705714D01*
X57952380Y-64420000D02*
X56952380Y-64420000D01*
X57095238Y-64515238D01*
X57190476Y-64610476D01*
X57238095Y-64705714D01*
X36852380Y-82666666D02*
X36376190Y-83000000D01*
X36852380Y-83238095D02*
X35852380Y-83238095D01*
X35852380Y-82857142D01*
X35900000Y-82761904D01*
X35947619Y-82714285D01*
X36042857Y-82666666D01*
X36185714Y-82666666D01*
X36280952Y-82714285D01*
X36328571Y-82761904D01*
X36376190Y-82857142D01*
X36376190Y-83238095D01*
X35852380Y-82333333D02*
X35852380Y-81714285D01*
X36233333Y-82047619D01*
X36233333Y-81904761D01*
X36280952Y-81809523D01*
X36328571Y-81761904D01*
X36423809Y-81714285D01*
X36661904Y-81714285D01*
X36757142Y-81761904D01*
X36804761Y-81809523D01*
X36852380Y-81904761D01*
X36852380Y-82190476D01*
X36804761Y-82285714D01*
X36757142Y-82333333D01*
X54452380Y-78086666D02*
X53976190Y-78420000D01*
X54452380Y-78658095D02*
X53452380Y-78658095D01*
X53452380Y-78277142D01*
X53500000Y-78181904D01*
X53547619Y-78134285D01*
X53642857Y-78086666D01*
X53785714Y-78086666D01*
X53880952Y-78134285D01*
X53928571Y-78181904D01*
X53976190Y-78277142D01*
X53976190Y-78658095D01*
X53452380Y-77181904D02*
X53452380Y-77658095D01*
X53928571Y-77705714D01*
X53880952Y-77658095D01*
X53833333Y-77562857D01*
X53833333Y-77324761D01*
X53880952Y-77229523D01*
X53928571Y-77181904D01*
X54023809Y-77134285D01*
X54261904Y-77134285D01*
X54357142Y-77181904D01*
X54404761Y-77229523D01*
X54452380Y-77324761D01*
X54452380Y-77562857D01*
X54404761Y-77658095D01*
X54357142Y-77705714D01*
X54452380Y-65086666D02*
X53976190Y-65420000D01*
X54452380Y-65658095D02*
X53452380Y-65658095D01*
X53452380Y-65277142D01*
X53500000Y-65181904D01*
X53547619Y-65134285D01*
X53642857Y-65086666D01*
X53785714Y-65086666D01*
X53880952Y-65134285D01*
X53928571Y-65181904D01*
X53976190Y-65277142D01*
X53976190Y-65658095D01*
X53452380Y-64229523D02*
X53452380Y-64420000D01*
X53500000Y-64515238D01*
X53547619Y-64562857D01*
X53690476Y-64658095D01*
X53880952Y-64705714D01*
X54261904Y-64705714D01*
X54357142Y-64658095D01*
X54404761Y-64610476D01*
X54452380Y-64515238D01*
X54452380Y-64324761D01*
X54404761Y-64229523D01*
X54357142Y-64181904D01*
X54261904Y-64134285D01*
X54023809Y-64134285D01*
X53928571Y-64181904D01*
X53880952Y-64229523D01*
X53833333Y-64324761D01*
X53833333Y-64515238D01*
X53880952Y-64610476D01*
X53928571Y-64658095D01*
X54023809Y-64705714D01*
X61452380Y-65086666D02*
X60976190Y-65420000D01*
X61452380Y-65658095D02*
X60452380Y-65658095D01*
X60452380Y-65277142D01*
X60500000Y-65181904D01*
X60547619Y-65134285D01*
X60642857Y-65086666D01*
X60785714Y-65086666D01*
X60880952Y-65134285D01*
X60928571Y-65181904D01*
X60976190Y-65277142D01*
X60976190Y-65658095D01*
X60452380Y-64753333D02*
X60452380Y-64086666D01*
X61452380Y-64515238D01*
X68913333Y-80452380D02*
X68580000Y-79976190D01*
X68341904Y-80452380D02*
X68341904Y-79452380D01*
X68722857Y-79452380D01*
X68818095Y-79500000D01*
X68865714Y-79547619D01*
X68913333Y-79642857D01*
X68913333Y-79785714D01*
X68865714Y-79880952D01*
X68818095Y-79928571D01*
X68722857Y-79976190D01*
X68341904Y-79976190D01*
X69389523Y-80452380D02*
X69580000Y-80452380D01*
X69675238Y-80404761D01*
X69722857Y-80357142D01*
X69818095Y-80214285D01*
X69865714Y-80023809D01*
X69865714Y-79642857D01*
X69818095Y-79547619D01*
X69770476Y-79500000D01*
X69675238Y-79452380D01*
X69484761Y-79452380D01*
X69389523Y-79500000D01*
X69341904Y-79547619D01*
X69294285Y-79642857D01*
X69294285Y-79880952D01*
X69341904Y-79976190D01*
X69389523Y-80023809D01*
X69484761Y-80071428D01*
X69675238Y-80071428D01*
X69770476Y-80023809D01*
X69818095Y-79976190D01*
X69865714Y-79880952D01*
X45357142Y-66452380D02*
X45023809Y-65976190D01*
X44785714Y-66452380D02*
X44785714Y-65452380D01*
X45166666Y-65452380D01*
X45261904Y-65500000D01*
X45309523Y-65547619D01*
X45357142Y-65642857D01*
X45357142Y-65785714D01*
X45309523Y-65880952D01*
X45261904Y-65928571D01*
X45166666Y-65976190D01*
X44785714Y-65976190D01*
X46309523Y-66452380D02*
X45738095Y-66452380D01*
X46023809Y-66452380D02*
X46023809Y-65452380D01*
X45928571Y-65595238D01*
X45833333Y-65690476D01*
X45738095Y-65738095D01*
X47261904Y-66452380D02*
X46690476Y-66452380D01*
X46976190Y-66452380D02*
X46976190Y-65452380D01*
X46880952Y-65595238D01*
X46785714Y-65690476D01*
X46690476Y-65738095D01*
X45277142Y-49952380D02*
X44943809Y-49476190D01*
X44705714Y-49952380D02*
X44705714Y-48952380D01*
X45086666Y-48952380D01*
X45181904Y-49000000D01*
X45229523Y-49047619D01*
X45277142Y-49142857D01*
X45277142Y-49285714D01*
X45229523Y-49380952D01*
X45181904Y-49428571D01*
X45086666Y-49476190D01*
X44705714Y-49476190D01*
X46229523Y-49952380D02*
X45658095Y-49952380D01*
X45943809Y-49952380D02*
X45943809Y-48952380D01*
X45848571Y-49095238D01*
X45753333Y-49190476D01*
X45658095Y-49238095D01*
X46610476Y-49047619D02*
X46658095Y-49000000D01*
X46753333Y-48952380D01*
X46991428Y-48952380D01*
X47086666Y-49000000D01*
X47134285Y-49047619D01*
X47181904Y-49142857D01*
X47181904Y-49238095D01*
X47134285Y-49380952D01*
X46562857Y-49952380D01*
X47181904Y-49952380D01*
X45357142Y-56952380D02*
X45023809Y-56476190D01*
X44785714Y-56952380D02*
X44785714Y-55952380D01*
X45166666Y-55952380D01*
X45261904Y-56000000D01*
X45309523Y-56047619D01*
X45357142Y-56142857D01*
X45357142Y-56285714D01*
X45309523Y-56380952D01*
X45261904Y-56428571D01*
X45166666Y-56476190D01*
X44785714Y-56476190D01*
X46309523Y-56952380D02*
X45738095Y-56952380D01*
X46023809Y-56952380D02*
X46023809Y-55952380D01*
X45928571Y-56095238D01*
X45833333Y-56190476D01*
X45738095Y-56238095D01*
X46642857Y-55952380D02*
X47261904Y-55952380D01*
X46928571Y-56333333D01*
X47071428Y-56333333D01*
X47166666Y-56380952D01*
X47214285Y-56428571D01*
X47261904Y-56523809D01*
X47261904Y-56761904D01*
X47214285Y-56857142D01*
X47166666Y-56904761D01*
X47071428Y-56952380D01*
X46785714Y-56952380D01*
X46690476Y-56904761D01*
X46642857Y-56857142D01*
X45357142Y-53452380D02*
X45023809Y-52976190D01*
X44785714Y-53452380D02*
X44785714Y-52452380D01*
X45166666Y-52452380D01*
X45261904Y-52500000D01*
X45309523Y-52547619D01*
X45357142Y-52642857D01*
X45357142Y-52785714D01*
X45309523Y-52880952D01*
X45261904Y-52928571D01*
X45166666Y-52976190D01*
X44785714Y-52976190D01*
X46309523Y-53452380D02*
X45738095Y-53452380D01*
X46023809Y-53452380D02*
X46023809Y-52452380D01*
X45928571Y-52595238D01*
X45833333Y-52690476D01*
X45738095Y-52738095D01*
X47166666Y-52452380D02*
X46976190Y-52452380D01*
X46880952Y-52500000D01*
X46833333Y-52547619D01*
X46738095Y-52690476D01*
X46690476Y-52880952D01*
X46690476Y-53261904D01*
X46738095Y-53357142D01*
X46785714Y-53404761D01*
X46880952Y-53452380D01*
X47071428Y-53452380D01*
X47166666Y-53404761D01*
X47214285Y-53357142D01*
X47261904Y-53261904D01*
X47261904Y-53023809D01*
X47214285Y-52928571D01*
X47166666Y-52880952D01*
X47071428Y-52833333D01*
X46880952Y-52833333D01*
X46785714Y-52880952D01*
X46738095Y-52928571D01*
X46690476Y-53023809D01*
X70452380Y-44642857D02*
X69976190Y-44976190D01*
X70452380Y-45214285D02*
X69452380Y-45214285D01*
X69452380Y-44833333D01*
X69500000Y-44738095D01*
X69547619Y-44690476D01*
X69642857Y-44642857D01*
X69785714Y-44642857D01*
X69880952Y-44690476D01*
X69928571Y-44738095D01*
X69976190Y-44833333D01*
X69976190Y-45214285D01*
X69547619Y-44261904D02*
X69500000Y-44214285D01*
X69452380Y-44119047D01*
X69452380Y-43880952D01*
X69500000Y-43785714D01*
X69547619Y-43738095D01*
X69642857Y-43690476D01*
X69738095Y-43690476D01*
X69880952Y-43738095D01*
X70452380Y-44309523D01*
X70452380Y-43690476D01*
X69452380Y-43071428D02*
X69452380Y-42976190D01*
X69500000Y-42880952D01*
X69547619Y-42833333D01*
X69642857Y-42785714D01*
X69833333Y-42738095D01*
X70071428Y-42738095D01*
X70261904Y-42785714D01*
X70357142Y-42833333D01*
X70404761Y-42880952D01*
X70452380Y-42976190D01*
X70452380Y-43071428D01*
X70404761Y-43166666D01*
X70357142Y-43214285D01*
X70261904Y-43261904D01*
X70071428Y-43309523D01*
X69833333Y-43309523D01*
X69642857Y-43261904D01*
X69547619Y-43214285D01*
X69500000Y-43166666D01*
X69452380Y-43071428D01*
X60952380Y-132562857D02*
X60476190Y-132896190D01*
X60952380Y-133134285D02*
X59952380Y-133134285D01*
X59952380Y-132753333D01*
X60000000Y-132658095D01*
X60047619Y-132610476D01*
X60142857Y-132562857D01*
X60285714Y-132562857D01*
X60380952Y-132610476D01*
X60428571Y-132658095D01*
X60476190Y-132753333D01*
X60476190Y-133134285D01*
X60047619Y-132181904D02*
X60000000Y-132134285D01*
X59952380Y-132039047D01*
X59952380Y-131800952D01*
X60000000Y-131705714D01*
X60047619Y-131658095D01*
X60142857Y-131610476D01*
X60238095Y-131610476D01*
X60380952Y-131658095D01*
X60952380Y-132229523D01*
X60952380Y-131610476D01*
X59952380Y-131277142D02*
X59952380Y-130658095D01*
X60333333Y-130991428D01*
X60333333Y-130848571D01*
X60380952Y-130753333D01*
X60428571Y-130705714D01*
X60523809Y-130658095D01*
X60761904Y-130658095D01*
X60857142Y-130705714D01*
X60904761Y-130753333D01*
X60952380Y-130848571D01*
X60952380Y-131134285D01*
X60904761Y-131229523D01*
X60857142Y-131277142D01*
X51452380Y-104722857D02*
X50976190Y-105056190D01*
X51452380Y-105294285D02*
X50452380Y-105294285D01*
X50452380Y-104913333D01*
X50500000Y-104818095D01*
X50547619Y-104770476D01*
X50642857Y-104722857D01*
X50785714Y-104722857D01*
X50880952Y-104770476D01*
X50928571Y-104818095D01*
X50976190Y-104913333D01*
X50976190Y-105294285D01*
X50547619Y-104341904D02*
X50500000Y-104294285D01*
X50452380Y-104199047D01*
X50452380Y-103960952D01*
X50500000Y-103865714D01*
X50547619Y-103818095D01*
X50642857Y-103770476D01*
X50738095Y-103770476D01*
X50880952Y-103818095D01*
X51452380Y-104389523D01*
X51452380Y-103770476D01*
X50452380Y-102913333D02*
X50452380Y-103103809D01*
X50500000Y-103199047D01*
X50547619Y-103246666D01*
X50690476Y-103341904D01*
X50880952Y-103389523D01*
X51261904Y-103389523D01*
X51357142Y-103341904D01*
X51404761Y-103294285D01*
X51452380Y-103199047D01*
X51452380Y-103008571D01*
X51404761Y-102913333D01*
X51357142Y-102865714D01*
X51261904Y-102818095D01*
X51023809Y-102818095D01*
X50928571Y-102865714D01*
X50880952Y-102913333D01*
X50833333Y-103008571D01*
X50833333Y-103199047D01*
X50880952Y-103294285D01*
X50928571Y-103341904D01*
X51023809Y-103389523D01*
X57452380Y-132642857D02*
X56976190Y-132976190D01*
X57452380Y-133214285D02*
X56452380Y-133214285D01*
X56452380Y-132833333D01*
X56500000Y-132738095D01*
X56547619Y-132690476D01*
X56642857Y-132642857D01*
X56785714Y-132642857D01*
X56880952Y-132690476D01*
X56928571Y-132738095D01*
X56976190Y-132833333D01*
X56976190Y-133214285D01*
X56547619Y-132261904D02*
X56500000Y-132214285D01*
X56452380Y-132119047D01*
X56452380Y-131880952D01*
X56500000Y-131785714D01*
X56547619Y-131738095D01*
X56642857Y-131690476D01*
X56738095Y-131690476D01*
X56880952Y-131738095D01*
X57452380Y-132309523D01*
X57452380Y-131690476D01*
X56452380Y-131357142D02*
X56452380Y-130690476D01*
X57452380Y-131119047D01*
X58452380Y-108062857D02*
X57976190Y-108396190D01*
X58452380Y-108634285D02*
X57452380Y-108634285D01*
X57452380Y-108253333D01*
X57500000Y-108158095D01*
X57547619Y-108110476D01*
X57642857Y-108062857D01*
X57785714Y-108062857D01*
X57880952Y-108110476D01*
X57928571Y-108158095D01*
X57976190Y-108253333D01*
X57976190Y-108634285D01*
X57547619Y-107681904D02*
X57500000Y-107634285D01*
X57452380Y-107539047D01*
X57452380Y-107300952D01*
X57500000Y-107205714D01*
X57547619Y-107158095D01*
X57642857Y-107110476D01*
X57738095Y-107110476D01*
X57880952Y-107158095D01*
X58452380Y-107729523D01*
X58452380Y-107110476D01*
X57880952Y-106539047D02*
X57833333Y-106634285D01*
X57785714Y-106681904D01*
X57690476Y-106729523D01*
X57642857Y-106729523D01*
X57547619Y-106681904D01*
X57500000Y-106634285D01*
X57452380Y-106539047D01*
X57452380Y-106348571D01*
X57500000Y-106253333D01*
X57547619Y-106205714D01*
X57642857Y-106158095D01*
X57690476Y-106158095D01*
X57785714Y-106205714D01*
X57833333Y-106253333D01*
X57880952Y-106348571D01*
X57880952Y-106539047D01*
X57928571Y-106634285D01*
X57976190Y-106681904D01*
X58071428Y-106729523D01*
X58261904Y-106729523D01*
X58357142Y-106681904D01*
X58404761Y-106634285D01*
X58452380Y-106539047D01*
X58452380Y-106348571D01*
X58404761Y-106253333D01*
X58357142Y-106205714D01*
X58261904Y-106158095D01*
X58071428Y-106158095D01*
X57976190Y-106205714D01*
X57928571Y-106253333D01*
X57880952Y-106348571D01*
X82277142Y-122952380D02*
X81943809Y-122476190D01*
X81705714Y-122952380D02*
X81705714Y-121952380D01*
X82086666Y-121952380D01*
X82181904Y-122000000D01*
X82229523Y-122047619D01*
X82277142Y-122142857D01*
X82277142Y-122285714D01*
X82229523Y-122380952D01*
X82181904Y-122428571D01*
X82086666Y-122476190D01*
X81705714Y-122476190D01*
X82658095Y-122047619D02*
X82705714Y-122000000D01*
X82800952Y-121952380D01*
X83039047Y-121952380D01*
X83134285Y-122000000D01*
X83181904Y-122047619D01*
X83229523Y-122142857D01*
X83229523Y-122238095D01*
X83181904Y-122380952D01*
X82610476Y-122952380D01*
X83229523Y-122952380D01*
X83705714Y-122952380D02*
X83896190Y-122952380D01*
X83991428Y-122904761D01*
X84039047Y-122857142D01*
X84134285Y-122714285D01*
X84181904Y-122523809D01*
X84181904Y-122142857D01*
X84134285Y-122047619D01*
X84086666Y-122000000D01*
X83991428Y-121952380D01*
X83800952Y-121952380D01*
X83705714Y-122000000D01*
X83658095Y-122047619D01*
X83610476Y-122142857D01*
X83610476Y-122380952D01*
X83658095Y-122476190D01*
X83705714Y-122523809D01*
X83800952Y-122571428D01*
X83991428Y-122571428D01*
X84086666Y-122523809D01*
X84134285Y-122476190D01*
X84181904Y-122380952D01*
X64452380Y-132642857D02*
X63976190Y-132976190D01*
X64452380Y-133214285D02*
X63452380Y-133214285D01*
X63452380Y-132833333D01*
X63500000Y-132738095D01*
X63547619Y-132690476D01*
X63642857Y-132642857D01*
X63785714Y-132642857D01*
X63880952Y-132690476D01*
X63928571Y-132738095D01*
X63976190Y-132833333D01*
X63976190Y-133214285D01*
X63452380Y-132309523D02*
X63452380Y-131690476D01*
X63833333Y-132023809D01*
X63833333Y-131880952D01*
X63880952Y-131785714D01*
X63928571Y-131738095D01*
X64023809Y-131690476D01*
X64261904Y-131690476D01*
X64357142Y-131738095D01*
X64404761Y-131785714D01*
X64452380Y-131880952D01*
X64452380Y-132166666D01*
X64404761Y-132261904D01*
X64357142Y-132309523D01*
X63452380Y-131071428D02*
X63452380Y-130976190D01*
X63500000Y-130880952D01*
X63547619Y-130833333D01*
X63642857Y-130785714D01*
X63833333Y-130738095D01*
X64071428Y-130738095D01*
X64261904Y-130785714D01*
X64357142Y-130833333D01*
X64404761Y-130880952D01*
X64452380Y-130976190D01*
X64452380Y-131071428D01*
X64404761Y-131166666D01*
X64357142Y-131214285D01*
X64261904Y-131261904D01*
X64071428Y-131309523D01*
X63833333Y-131309523D01*
X63642857Y-131261904D01*
X63547619Y-131214285D01*
X63500000Y-131166666D01*
X63452380Y-131071428D01*
X54952380Y-108142857D02*
X54476190Y-108476190D01*
X54952380Y-108714285D02*
X53952380Y-108714285D01*
X53952380Y-108333333D01*
X54000000Y-108238095D01*
X54047619Y-108190476D01*
X54142857Y-108142857D01*
X54285714Y-108142857D01*
X54380952Y-108190476D01*
X54428571Y-108238095D01*
X54476190Y-108333333D01*
X54476190Y-108714285D01*
X53952380Y-107809523D02*
X53952380Y-107190476D01*
X54333333Y-107523809D01*
X54333333Y-107380952D01*
X54380952Y-107285714D01*
X54428571Y-107238095D01*
X54523809Y-107190476D01*
X54761904Y-107190476D01*
X54857142Y-107238095D01*
X54904761Y-107285714D01*
X54952380Y-107380952D01*
X54952380Y-107666666D01*
X54904761Y-107761904D01*
X54857142Y-107809523D01*
X54952380Y-106238095D02*
X54952380Y-106809523D01*
X54952380Y-106523809D02*
X53952380Y-106523809D01*
X54095238Y-106619047D01*
X54190476Y-106714285D01*
X54238095Y-106809523D01*
X53952380Y-132722857D02*
X53476190Y-133056190D01*
X53952380Y-133294285D02*
X52952380Y-133294285D01*
X52952380Y-132913333D01*
X53000000Y-132818095D01*
X53047619Y-132770476D01*
X53142857Y-132722857D01*
X53285714Y-132722857D01*
X53380952Y-132770476D01*
X53428571Y-132818095D01*
X53476190Y-132913333D01*
X53476190Y-133294285D01*
X52952380Y-132389523D02*
X52952380Y-131770476D01*
X53333333Y-132103809D01*
X53333333Y-131960952D01*
X53380952Y-131865714D01*
X53428571Y-131818095D01*
X53523809Y-131770476D01*
X53761904Y-131770476D01*
X53857142Y-131818095D01*
X53904761Y-131865714D01*
X53952380Y-131960952D01*
X53952380Y-132246666D01*
X53904761Y-132341904D01*
X53857142Y-132389523D01*
X53047619Y-131389523D02*
X53000000Y-131341904D01*
X52952380Y-131246666D01*
X52952380Y-131008571D01*
X53000000Y-130913333D01*
X53047619Y-130865714D01*
X53142857Y-130818095D01*
X53238095Y-130818095D01*
X53380952Y-130865714D01*
X53952380Y-131437142D01*
X53952380Y-130818095D01*
X46952380Y-132642857D02*
X46476190Y-132976190D01*
X46952380Y-133214285D02*
X45952380Y-133214285D01*
X45952380Y-132833333D01*
X46000000Y-132738095D01*
X46047619Y-132690476D01*
X46142857Y-132642857D01*
X46285714Y-132642857D01*
X46380952Y-132690476D01*
X46428571Y-132738095D01*
X46476190Y-132833333D01*
X46476190Y-133214285D01*
X45952380Y-132309523D02*
X45952380Y-131690476D01*
X46333333Y-132023809D01*
X46333333Y-131880952D01*
X46380952Y-131785714D01*
X46428571Y-131738095D01*
X46523809Y-131690476D01*
X46761904Y-131690476D01*
X46857142Y-131738095D01*
X46904761Y-131785714D01*
X46952380Y-131880952D01*
X46952380Y-132166666D01*
X46904761Y-132261904D01*
X46857142Y-132309523D01*
X45952380Y-131357142D02*
X45952380Y-130738095D01*
X46333333Y-131071428D01*
X46333333Y-130928571D01*
X46380952Y-130833333D01*
X46428571Y-130785714D01*
X46523809Y-130738095D01*
X46761904Y-130738095D01*
X46857142Y-130785714D01*
X46904761Y-130833333D01*
X46952380Y-130928571D01*
X46952380Y-131214285D01*
X46904761Y-131309523D01*
X46857142Y-131357142D01*
X50452380Y-132642857D02*
X49976190Y-132976190D01*
X50452380Y-133214285D02*
X49452380Y-133214285D01*
X49452380Y-132833333D01*
X49500000Y-132738095D01*
X49547619Y-132690476D01*
X49642857Y-132642857D01*
X49785714Y-132642857D01*
X49880952Y-132690476D01*
X49928571Y-132738095D01*
X49976190Y-132833333D01*
X49976190Y-133214285D01*
X49452380Y-132309523D02*
X49452380Y-131690476D01*
X49833333Y-132023809D01*
X49833333Y-131880952D01*
X49880952Y-131785714D01*
X49928571Y-131738095D01*
X50023809Y-131690476D01*
X50261904Y-131690476D01*
X50357142Y-131738095D01*
X50404761Y-131785714D01*
X50452380Y-131880952D01*
X50452380Y-132166666D01*
X50404761Y-132261904D01*
X50357142Y-132309523D01*
X49785714Y-130833333D02*
X50452380Y-130833333D01*
X49404761Y-131071428D02*
X50119047Y-131309523D01*
X50119047Y-130690476D01*
X50452380Y-120142857D02*
X49976190Y-120476190D01*
X50452380Y-120714285D02*
X49452380Y-120714285D01*
X49452380Y-120333333D01*
X49500000Y-120238095D01*
X49547619Y-120190476D01*
X49642857Y-120142857D01*
X49785714Y-120142857D01*
X49880952Y-120190476D01*
X49928571Y-120238095D01*
X49976190Y-120333333D01*
X49976190Y-120714285D01*
X49452380Y-119809523D02*
X49452380Y-119190476D01*
X49833333Y-119523809D01*
X49833333Y-119380952D01*
X49880952Y-119285714D01*
X49928571Y-119238095D01*
X50023809Y-119190476D01*
X50261904Y-119190476D01*
X50357142Y-119238095D01*
X50404761Y-119285714D01*
X50452380Y-119380952D01*
X50452380Y-119666666D01*
X50404761Y-119761904D01*
X50357142Y-119809523D01*
X49452380Y-118857142D02*
X49452380Y-118190476D01*
X50452380Y-118619047D01*
X61952380Y-108222857D02*
X61476190Y-108556190D01*
X61952380Y-108794285D02*
X60952380Y-108794285D01*
X60952380Y-108413333D01*
X61000000Y-108318095D01*
X61047619Y-108270476D01*
X61142857Y-108222857D01*
X61285714Y-108222857D01*
X61380952Y-108270476D01*
X61428571Y-108318095D01*
X61476190Y-108413333D01*
X61476190Y-108794285D01*
X61285714Y-107365714D02*
X61952380Y-107365714D01*
X60904761Y-107603809D02*
X61619047Y-107841904D01*
X61619047Y-107222857D01*
X60952380Y-106651428D02*
X60952380Y-106556190D01*
X61000000Y-106460952D01*
X61047619Y-106413333D01*
X61142857Y-106365714D01*
X61333333Y-106318095D01*
X61571428Y-106318095D01*
X61761904Y-106365714D01*
X61857142Y-106413333D01*
X61904761Y-106460952D01*
X61952380Y-106556190D01*
X61952380Y-106651428D01*
X61904761Y-106746666D01*
X61857142Y-106794285D01*
X61761904Y-106841904D01*
X61571428Y-106889523D01*
X61333333Y-106889523D01*
X61142857Y-106841904D01*
X61047619Y-106794285D01*
X61000000Y-106746666D01*
X60952380Y-106651428D01*
X73452380Y-115142857D02*
X72976190Y-115476190D01*
X73452380Y-115714285D02*
X72452380Y-115714285D01*
X72452380Y-115333333D01*
X72500000Y-115238095D01*
X72547619Y-115190476D01*
X72642857Y-115142857D01*
X72785714Y-115142857D01*
X72880952Y-115190476D01*
X72928571Y-115238095D01*
X72976190Y-115333333D01*
X72976190Y-115714285D01*
X72785714Y-114285714D02*
X73452380Y-114285714D01*
X72404761Y-114523809D02*
X73119047Y-114761904D01*
X73119047Y-114142857D01*
X73452380Y-113238095D02*
X73452380Y-113809523D01*
X73452380Y-113523809D02*
X72452380Y-113523809D01*
X72595238Y-113619047D01*
X72690476Y-113714285D01*
X72738095Y-113809523D01*
X42248095Y-102052380D02*
X42248095Y-102861904D01*
X42295714Y-102957142D01*
X42343333Y-103004761D01*
X42438571Y-103052380D01*
X42629047Y-103052380D01*
X42724285Y-103004761D01*
X42771904Y-102957142D01*
X42819523Y-102861904D01*
X42819523Y-102052380D01*
X43200476Y-102052380D02*
X43819523Y-102052380D01*
X43486190Y-102433333D01*
X43629047Y-102433333D01*
X43724285Y-102480952D01*
X43771904Y-102528571D01*
X43819523Y-102623809D01*
X43819523Y-102861904D01*
X43771904Y-102957142D01*
X43724285Y-103004761D01*
X43629047Y-103052380D01*
X43343333Y-103052380D01*
X43248095Y-103004761D01*
X43200476Y-102957142D01*
X81248095Y-108322380D02*
X81248095Y-109131904D01*
X81295714Y-109227142D01*
X81343333Y-109274761D01*
X81438571Y-109322380D01*
X81629047Y-109322380D01*
X81724285Y-109274761D01*
X81771904Y-109227142D01*
X81819523Y-109131904D01*
X81819523Y-108322380D01*
X82724285Y-108655714D02*
X82724285Y-109322380D01*
X82486190Y-108274761D02*
X82248095Y-108989047D01*
X82867142Y-108989047D01*
X86190476Y-144952380D02*
X86190476Y-145666666D01*
X86142857Y-145809523D01*
X86047619Y-145904761D01*
X85904761Y-145952380D01*
X85809523Y-145952380D01*
X87190476Y-145952380D02*
X86619047Y-145952380D01*
X86904761Y-145952380D02*
X86904761Y-144952380D01*
X86809523Y-145095238D01*
X86714285Y-145190476D01*
X86619047Y-145238095D01*
X87809523Y-144952380D02*
X87904761Y-144952380D01*
X88000000Y-145000000D01*
X88047619Y-145047619D01*
X88095238Y-145142857D01*
X88142857Y-145333333D01*
X88142857Y-145571428D01*
X88095238Y-145761904D01*
X88047619Y-145857142D01*
X88000000Y-145904761D01*
X87904761Y-145952380D01*
X87809523Y-145952380D01*
X87714285Y-145904761D01*
X87666666Y-145857142D01*
X87619047Y-145761904D01*
X87571428Y-145571428D01*
X87571428Y-145333333D01*
X87619047Y-145142857D01*
X87666666Y-145047619D01*
X87714285Y-145000000D01*
X87809523Y-144952380D01*
X70952380Y-65166666D02*
X70476190Y-65500000D01*
X70952380Y-65738095D02*
X69952380Y-65738095D01*
X69952380Y-65357142D01*
X70000000Y-65261904D01*
X70047619Y-65214285D01*
X70142857Y-65166666D01*
X70285714Y-65166666D01*
X70380952Y-65214285D01*
X70428571Y-65261904D01*
X70476190Y-65357142D01*
X70476190Y-65738095D01*
X70380952Y-64595238D02*
X70333333Y-64690476D01*
X70285714Y-64738095D01*
X70190476Y-64785714D01*
X70142857Y-64785714D01*
X70047619Y-64738095D01*
X70000000Y-64690476D01*
X69952380Y-64595238D01*
X69952380Y-64404761D01*
X70000000Y-64309523D01*
X70047619Y-64261904D01*
X70142857Y-64214285D01*
X70190476Y-64214285D01*
X70285714Y-64261904D01*
X70333333Y-64309523D01*
X70380952Y-64404761D01*
X70380952Y-64595238D01*
X70428571Y-64690476D01*
X70476190Y-64738095D01*
X70571428Y-64785714D01*
X70761904Y-64785714D01*
X70857142Y-64738095D01*
X70904761Y-64690476D01*
X70952380Y-64595238D01*
X70952380Y-64404761D01*
X70904761Y-64309523D01*
X70857142Y-64261904D01*
X70761904Y-64214285D01*
X70571428Y-64214285D01*
X70476190Y-64261904D01*
X70428571Y-64309523D01*
X70380952Y-64404761D01*
X31357142Y-126857142D02*
X31309523Y-126904761D01*
X31166666Y-126952380D01*
X31071428Y-126952380D01*
X30928571Y-126904761D01*
X30833333Y-126809523D01*
X30785714Y-126714285D01*
X30738095Y-126523809D01*
X30738095Y-126380952D01*
X30785714Y-126190476D01*
X30833333Y-126095238D01*
X30928571Y-126000000D01*
X31071428Y-125952380D01*
X31166666Y-125952380D01*
X31309523Y-126000000D01*
X31357142Y-126047619D01*
X32309523Y-126952380D02*
X31738095Y-126952380D01*
X32023809Y-126952380D02*
X32023809Y-125952380D01*
X31928571Y-126095238D01*
X31833333Y-126190476D01*
X31738095Y-126238095D01*
X33166666Y-126285714D02*
X33166666Y-126952380D01*
X32928571Y-125904761D02*
X32690476Y-126619047D01*
X33309523Y-126619047D01*
X77438095Y-64652380D02*
X77438095Y-65461904D01*
X77485714Y-65557142D01*
X77533333Y-65604761D01*
X77628571Y-65652380D01*
X77819047Y-65652380D01*
X77914285Y-65604761D01*
X77961904Y-65557142D01*
X78009523Y-65461904D01*
X78009523Y-64652380D01*
X78438095Y-64747619D02*
X78485714Y-64700000D01*
X78580952Y-64652380D01*
X78819047Y-64652380D01*
X78914285Y-64700000D01*
X78961904Y-64747619D01*
X79009523Y-64842857D01*
X79009523Y-64938095D01*
X78961904Y-65080952D01*
X78390476Y-65652380D01*
X79009523Y-65652380D01*
X60047619Y-120865238D02*
X60000000Y-120960476D01*
X59904761Y-121055714D01*
X59761904Y-121198571D01*
X59714285Y-121293809D01*
X59714285Y-121389047D01*
X59952380Y-121341428D02*
X59904761Y-121436666D01*
X59809523Y-121531904D01*
X59619047Y-121579523D01*
X59285714Y-121579523D01*
X59095238Y-121531904D01*
X59000000Y-121436666D01*
X58952380Y-121341428D01*
X58952380Y-121150952D01*
X59000000Y-121055714D01*
X59095238Y-120960476D01*
X59285714Y-120912857D01*
X59619047Y-120912857D01*
X59809523Y-120960476D01*
X59904761Y-121055714D01*
X59952380Y-121150952D01*
X59952380Y-121341428D01*
X59285714Y-120055714D02*
X59952380Y-120055714D01*
X58904761Y-120293809D02*
X59619047Y-120531904D01*
X59619047Y-119912857D01*
X66357142Y-103357142D02*
X66309523Y-103404761D01*
X66166666Y-103452380D01*
X66071428Y-103452380D01*
X65928571Y-103404761D01*
X65833333Y-103309523D01*
X65785714Y-103214285D01*
X65738095Y-103023809D01*
X65738095Y-102880952D01*
X65785714Y-102690476D01*
X65833333Y-102595238D01*
X65928571Y-102500000D01*
X66071428Y-102452380D01*
X66166666Y-102452380D01*
X66309523Y-102500000D01*
X66357142Y-102547619D01*
X67309523Y-103452380D02*
X66738095Y-103452380D01*
X67023809Y-103452380D02*
X67023809Y-102452380D01*
X66928571Y-102595238D01*
X66833333Y-102690476D01*
X66738095Y-102738095D01*
X68261904Y-103452380D02*
X67690476Y-103452380D01*
X67976190Y-103452380D02*
X67976190Y-102452380D01*
X67880952Y-102595238D01*
X67785714Y-102690476D01*
X67690476Y-102738095D01*
X73452380Y-92714285D02*
X72452380Y-92714285D01*
X72452380Y-92476190D01*
X72500000Y-92333333D01*
X72595238Y-92238095D01*
X72690476Y-92190476D01*
X72880952Y-92142857D01*
X73023809Y-92142857D01*
X73214285Y-92190476D01*
X73309523Y-92238095D01*
X73404761Y-92333333D01*
X73452380Y-92476190D01*
X73452380Y-92714285D01*
X73452380Y-91190476D02*
X73452380Y-91761904D01*
X73452380Y-91476190D02*
X72452380Y-91476190D01*
X72595238Y-91571428D01*
X72690476Y-91666666D01*
X72738095Y-91761904D01*
X72452380Y-90571428D02*
X72452380Y-90476190D01*
X72500000Y-90380952D01*
X72547619Y-90333333D01*
X72642857Y-90285714D01*
X72833333Y-90238095D01*
X73071428Y-90238095D01*
X73261904Y-90285714D01*
X73357142Y-90333333D01*
X73404761Y-90380952D01*
X73452380Y-90476190D01*
X73452380Y-90571428D01*
X73404761Y-90666666D01*
X73357142Y-90714285D01*
X73261904Y-90761904D01*
X73071428Y-90809523D01*
X72833333Y-90809523D01*
X72642857Y-90761904D01*
X72547619Y-90714285D01*
X72500000Y-90666666D01*
X72452380Y-90571428D01*
X71652380Y-95761904D02*
X70652380Y-95761904D01*
X71652380Y-95190476D02*
X71080952Y-95619047D01*
X70652380Y-95190476D02*
X71223809Y-95761904D01*
X76952380Y-92618095D02*
X75952380Y-92618095D01*
X75952380Y-92380000D01*
X76000000Y-92237142D01*
X76095238Y-92141904D01*
X76190476Y-92094285D01*
X76380952Y-92046666D01*
X76523809Y-92046666D01*
X76714285Y-92094285D01*
X76809523Y-92141904D01*
X76904761Y-92237142D01*
X76952380Y-92380000D01*
X76952380Y-92618095D01*
X76380952Y-91475238D02*
X76333333Y-91570476D01*
X76285714Y-91618095D01*
X76190476Y-91665714D01*
X76142857Y-91665714D01*
X76047619Y-91618095D01*
X76000000Y-91570476D01*
X75952380Y-91475238D01*
X75952380Y-91284761D01*
X76000000Y-91189523D01*
X76047619Y-91141904D01*
X76142857Y-91094285D01*
X76190476Y-91094285D01*
X76285714Y-91141904D01*
X76333333Y-91189523D01*
X76380952Y-91284761D01*
X76380952Y-91475238D01*
X76428571Y-91570476D01*
X76476190Y-91618095D01*
X76571428Y-91665714D01*
X76761904Y-91665714D01*
X76857142Y-91618095D01*
X76904761Y-91570476D01*
X76952380Y-91475238D01*
X76952380Y-91284761D01*
X76904761Y-91189523D01*
X76857142Y-91141904D01*
X76761904Y-91094285D01*
X76571428Y-91094285D01*
X76476190Y-91141904D01*
X76428571Y-91189523D01*
X76380952Y-91284761D01*
X78752380Y-88141904D02*
X77752380Y-88141904D01*
X78752380Y-87570476D02*
X78180952Y-87999047D01*
X77752380Y-87570476D02*
X78323809Y-88141904D01*
X80452380Y-92428095D02*
X79452380Y-92428095D01*
X79452380Y-92190000D01*
X79500000Y-92047142D01*
X79595238Y-91951904D01*
X79690476Y-91904285D01*
X79880952Y-91856666D01*
X80023809Y-91856666D01*
X80214285Y-91904285D01*
X80309523Y-91951904D01*
X80404761Y-92047142D01*
X80452380Y-92190000D01*
X80452380Y-92428095D01*
X80452380Y-91380476D02*
X80452380Y-91190000D01*
X80404761Y-91094761D01*
X80357142Y-91047142D01*
X80214285Y-90951904D01*
X80023809Y-90904285D01*
X79642857Y-90904285D01*
X79547619Y-90951904D01*
X79500000Y-90999523D01*
X79452380Y-91094761D01*
X79452380Y-91285238D01*
X79500000Y-91380476D01*
X79547619Y-91428095D01*
X79642857Y-91475714D01*
X79880952Y-91475714D01*
X79976190Y-91428095D01*
X80023809Y-91380476D01*
X80071428Y-91285238D01*
X80071428Y-91094761D01*
X80023809Y-90999523D01*
X79976190Y-90951904D01*
X79880952Y-90904285D01*
X82252380Y-88141904D02*
X81252380Y-88141904D01*
X82252380Y-87570476D02*
X81680952Y-87999047D01*
X81252380Y-87570476D02*
X81823809Y-88141904D01*
X76952380Y-104214285D02*
X75952380Y-104214285D01*
X75952380Y-103976190D01*
X76000000Y-103833333D01*
X76095238Y-103738095D01*
X76190476Y-103690476D01*
X76380952Y-103642857D01*
X76523809Y-103642857D01*
X76714285Y-103690476D01*
X76809523Y-103738095D01*
X76904761Y-103833333D01*
X76952380Y-103976190D01*
X76952380Y-104214285D01*
X76952380Y-102690476D02*
X76952380Y-103261904D01*
X76952380Y-102976190D02*
X75952380Y-102976190D01*
X76095238Y-103071428D01*
X76190476Y-103166666D01*
X76238095Y-103261904D01*
X75952380Y-102357142D02*
X75952380Y-101738095D01*
X76333333Y-102071428D01*
X76333333Y-101928571D01*
X76380952Y-101833333D01*
X76428571Y-101785714D01*
X76523809Y-101738095D01*
X76761904Y-101738095D01*
X76857142Y-101785714D01*
X76904761Y-101833333D01*
X76952380Y-101928571D01*
X76952380Y-102214285D01*
X76904761Y-102309523D01*
X76857142Y-102357142D01*
X78752380Y-99141904D02*
X77752380Y-99141904D01*
X78752380Y-98570476D02*
X78180952Y-98999047D01*
X77752380Y-98570476D02*
X78323809Y-99141904D01*
X73452380Y-103714285D02*
X72452380Y-103714285D01*
X72452380Y-103476190D01*
X72500000Y-103333333D01*
X72595238Y-103238095D01*
X72690476Y-103190476D01*
X72880952Y-103142857D01*
X73023809Y-103142857D01*
X73214285Y-103190476D01*
X73309523Y-103238095D01*
X73404761Y-103333333D01*
X73452380Y-103476190D01*
X73452380Y-103714285D01*
X73452380Y-102190476D02*
X73452380Y-102761904D01*
X73452380Y-102476190D02*
X72452380Y-102476190D01*
X72595238Y-102571428D01*
X72690476Y-102666666D01*
X72738095Y-102761904D01*
X72547619Y-101809523D02*
X72500000Y-101761904D01*
X72452380Y-101666666D01*
X72452380Y-101428571D01*
X72500000Y-101333333D01*
X72547619Y-101285714D01*
X72642857Y-101238095D01*
X72738095Y-101238095D01*
X72880952Y-101285714D01*
X73452380Y-101857142D01*
X73452380Y-101238095D01*
X71952380Y-106761904D02*
X70952380Y-106761904D01*
X71952380Y-106190476D02*
X71380952Y-106619047D01*
X70952380Y-106190476D02*
X71523809Y-106761904D01*
X80452380Y-104214285D02*
X79452380Y-104214285D01*
X79452380Y-103976190D01*
X79500000Y-103833333D01*
X79595238Y-103738095D01*
X79690476Y-103690476D01*
X79880952Y-103642857D01*
X80023809Y-103642857D01*
X80214285Y-103690476D01*
X80309523Y-103738095D01*
X80404761Y-103833333D01*
X80452380Y-103976190D01*
X80452380Y-104214285D01*
X80452380Y-102690476D02*
X80452380Y-103261904D01*
X80452380Y-102976190D02*
X79452380Y-102976190D01*
X79595238Y-103071428D01*
X79690476Y-103166666D01*
X79738095Y-103261904D01*
X80452380Y-101738095D02*
X80452380Y-102309523D01*
X80452380Y-102023809D02*
X79452380Y-102023809D01*
X79595238Y-102119047D01*
X79690476Y-102214285D01*
X79738095Y-102309523D01*
X82252380Y-99141904D02*
X81252380Y-99141904D01*
X82252380Y-98570476D02*
X81680952Y-98999047D01*
X81252380Y-98570476D02*
X81823809Y-99141904D01*
X68833333Y-83857142D02*
X68785714Y-83904761D01*
X68642857Y-83952380D01*
X68547619Y-83952380D01*
X68404761Y-83904761D01*
X68309523Y-83809523D01*
X68261904Y-83714285D01*
X68214285Y-83523809D01*
X68214285Y-83380952D01*
X68261904Y-83190476D01*
X68309523Y-83095238D01*
X68404761Y-83000000D01*
X68547619Y-82952380D01*
X68642857Y-82952380D01*
X68785714Y-83000000D01*
X68833333Y-83047619D01*
X69785714Y-83952380D02*
X69214285Y-83952380D01*
X69500000Y-83952380D02*
X69500000Y-82952380D01*
X69404761Y-83095238D01*
X69309523Y-83190476D01*
X69214285Y-83238095D01*
X39952380Y-82666666D02*
X39476190Y-83000000D01*
X39952380Y-83238095D02*
X38952380Y-83238095D01*
X38952380Y-82857142D01*
X39000000Y-82761904D01*
X39047619Y-82714285D01*
X39142857Y-82666666D01*
X39285714Y-82666666D01*
X39380952Y-82714285D01*
X39428571Y-82761904D01*
X39476190Y-82857142D01*
X39476190Y-83238095D01*
X39047619Y-82285714D02*
X39000000Y-82238095D01*
X38952380Y-82142857D01*
X38952380Y-81904761D01*
X39000000Y-81809523D01*
X39047619Y-81761904D01*
X39142857Y-81714285D01*
X39238095Y-81714285D01*
X39380952Y-81761904D01*
X39952380Y-82333333D01*
X39952380Y-81714285D01*
X57952380Y-78562857D02*
X57476190Y-78896190D01*
X57952380Y-79134285D02*
X56952380Y-79134285D01*
X56952380Y-78753333D01*
X57000000Y-78658095D01*
X57047619Y-78610476D01*
X57142857Y-78562857D01*
X57285714Y-78562857D01*
X57380952Y-78610476D01*
X57428571Y-78658095D01*
X57476190Y-78753333D01*
X57476190Y-79134285D01*
X57952380Y-77610476D02*
X57952380Y-78181904D01*
X57952380Y-77896190D02*
X56952380Y-77896190D01*
X57095238Y-77991428D01*
X57190476Y-78086666D01*
X57238095Y-78181904D01*
X56952380Y-76991428D02*
X56952380Y-76896190D01*
X57000000Y-76800952D01*
X57047619Y-76753333D01*
X57142857Y-76705714D01*
X57333333Y-76658095D01*
X57571428Y-76658095D01*
X57761904Y-76705714D01*
X57857142Y-76753333D01*
X57904761Y-76800952D01*
X57952380Y-76896190D01*
X57952380Y-76991428D01*
X57904761Y-77086666D01*
X57857142Y-77134285D01*
X57761904Y-77181904D01*
X57571428Y-77229523D01*
X57333333Y-77229523D01*
X57142857Y-77181904D01*
X57047619Y-77134285D01*
X57000000Y-77086666D01*
X56952380Y-76991428D01*
X61452380Y-78642857D02*
X60976190Y-78976190D01*
X61452380Y-79214285D02*
X60452380Y-79214285D01*
X60452380Y-78833333D01*
X60500000Y-78738095D01*
X60547619Y-78690476D01*
X60642857Y-78642857D01*
X60785714Y-78642857D01*
X60880952Y-78690476D01*
X60928571Y-78738095D01*
X60976190Y-78833333D01*
X60976190Y-79214285D01*
X61452380Y-77690476D02*
X61452380Y-78261904D01*
X61452380Y-77976190D02*
X60452380Y-77976190D01*
X60595238Y-78071428D01*
X60690476Y-78166666D01*
X60738095Y-78261904D01*
X61452380Y-77214285D02*
X61452380Y-77023809D01*
X61404761Y-76928571D01*
X61357142Y-76880952D01*
X61214285Y-76785714D01*
X61023809Y-76738095D01*
X60642857Y-76738095D01*
X60547619Y-76785714D01*
X60500000Y-76833333D01*
X60452380Y-76928571D01*
X60452380Y-77119047D01*
X60500000Y-77214285D01*
X60547619Y-77261904D01*
X60642857Y-77309523D01*
X60880952Y-77309523D01*
X60976190Y-77261904D01*
X61023809Y-77214285D01*
X61071428Y-77119047D01*
X61071428Y-76928571D01*
X61023809Y-76833333D01*
X60976190Y-76785714D01*
X60880952Y-76738095D01*
X45728095Y-77952380D02*
X45728095Y-78761904D01*
X45775714Y-78857142D01*
X45823333Y-78904761D01*
X45918571Y-78952380D01*
X46109047Y-78952380D01*
X46204285Y-78904761D01*
X46251904Y-78857142D01*
X46299523Y-78761904D01*
X46299523Y-77952380D01*
X47299523Y-78952380D02*
X46728095Y-78952380D01*
X47013809Y-78952380D02*
X47013809Y-77952380D01*
X46918571Y-78095238D01*
X46823333Y-78190476D01*
X46728095Y-78238095D01*
X32666666Y-83952380D02*
X32666666Y-84666666D01*
X32619047Y-84809523D01*
X32523809Y-84904761D01*
X32380952Y-84952380D01*
X32285714Y-84952380D01*
X33666666Y-84952380D02*
X33095238Y-84952380D01*
X33380952Y-84952380D02*
X33380952Y-83952380D01*
X33285714Y-84095238D01*
X33190476Y-84190476D01*
X33095238Y-84238095D01*
X38357142Y-72666666D02*
X38404761Y-72714285D01*
X38452380Y-72857142D01*
X38452380Y-72952380D01*
X38404761Y-73095238D01*
X38309523Y-73190476D01*
X38214285Y-73238095D01*
X38023809Y-73285714D01*
X37880952Y-73285714D01*
X37690476Y-73238095D01*
X37595238Y-73190476D01*
X37500000Y-73095238D01*
X37452380Y-72952380D01*
X37452380Y-72857142D01*
X37500000Y-72714285D01*
X37547619Y-72666666D01*
X37452380Y-71761904D02*
X37452380Y-72238095D01*
X37928571Y-72285714D01*
X37880952Y-72238095D01*
X37833333Y-72142857D01*
X37833333Y-71904761D01*
X37880952Y-71809523D01*
X37928571Y-71761904D01*
X38023809Y-71714285D01*
X38261904Y-71714285D01*
X38357142Y-71761904D01*
X38404761Y-71809523D01*
X38452380Y-71904761D01*
X38452380Y-72142857D01*
X38404761Y-72238095D01*
X38357142Y-72285714D01*
X38452380Y-136562857D02*
X37976190Y-136896190D01*
X38452380Y-137134285D02*
X37452380Y-137134285D01*
X37452380Y-136753333D01*
X37500000Y-136658095D01*
X37547619Y-136610476D01*
X37642857Y-136562857D01*
X37785714Y-136562857D01*
X37880952Y-136610476D01*
X37928571Y-136658095D01*
X37976190Y-136753333D01*
X37976190Y-137134285D01*
X37547619Y-136181904D02*
X37500000Y-136134285D01*
X37452380Y-136039047D01*
X37452380Y-135800952D01*
X37500000Y-135705714D01*
X37547619Y-135658095D01*
X37642857Y-135610476D01*
X37738095Y-135610476D01*
X37880952Y-135658095D01*
X38452380Y-136229523D01*
X38452380Y-135610476D01*
X37452380Y-134705714D02*
X37452380Y-135181904D01*
X37928571Y-135229523D01*
X37880952Y-135181904D01*
X37833333Y-135086666D01*
X37833333Y-134848571D01*
X37880952Y-134753333D01*
X37928571Y-134705714D01*
X38023809Y-134658095D01*
X38261904Y-134658095D01*
X38357142Y-134705714D01*
X38404761Y-134753333D01*
X38452380Y-134848571D01*
X38452380Y-135086666D01*
X38404761Y-135181904D01*
X38357142Y-135229523D01*
X41952380Y-136562857D02*
X41476190Y-136896190D01*
X41952380Y-137134285D02*
X40952380Y-137134285D01*
X40952380Y-136753333D01*
X41000000Y-136658095D01*
X41047619Y-136610476D01*
X41142857Y-136562857D01*
X41285714Y-136562857D01*
X41380952Y-136610476D01*
X41428571Y-136658095D01*
X41476190Y-136753333D01*
X41476190Y-137134285D01*
X41047619Y-136181904D02*
X41000000Y-136134285D01*
X40952380Y-136039047D01*
X40952380Y-135800952D01*
X41000000Y-135705714D01*
X41047619Y-135658095D01*
X41142857Y-135610476D01*
X41238095Y-135610476D01*
X41380952Y-135658095D01*
X41952380Y-136229523D01*
X41952380Y-135610476D01*
X41285714Y-134753333D02*
X41952380Y-134753333D01*
X40904761Y-134991428D02*
X41619047Y-135229523D01*
X41619047Y-134610476D01*
X31833333Y-96357142D02*
X31785714Y-96404761D01*
X31642857Y-96452380D01*
X31547619Y-96452380D01*
X31404761Y-96404761D01*
X31309523Y-96309523D01*
X31261904Y-96214285D01*
X31214285Y-96023809D01*
X31214285Y-95880952D01*
X31261904Y-95690476D01*
X31309523Y-95595238D01*
X31404761Y-95500000D01*
X31547619Y-95452380D01*
X31642857Y-95452380D01*
X31785714Y-95500000D01*
X31833333Y-95547619D01*
X32404761Y-95880952D02*
X32309523Y-95833333D01*
X32261904Y-95785714D01*
X32214285Y-95690476D01*
X32214285Y-95642857D01*
X32261904Y-95547619D01*
X32309523Y-95500000D01*
X32404761Y-95452380D01*
X32595238Y-95452380D01*
X32690476Y-95500000D01*
X32738095Y-95547619D01*
X32785714Y-95642857D01*
X32785714Y-95690476D01*
X32738095Y-95785714D01*
X32690476Y-95833333D01*
X32595238Y-95880952D01*
X32404761Y-95880952D01*
X32309523Y-95928571D01*
X32261904Y-95976190D01*
X32214285Y-96071428D01*
X32214285Y-96261904D01*
X32261904Y-96357142D01*
X32309523Y-96404761D01*
X32404761Y-96452380D01*
X32595238Y-96452380D01*
X32690476Y-96404761D01*
X32738095Y-96357142D01*
X32785714Y-96261904D01*
X32785714Y-96071428D01*
X32738095Y-95976190D01*
X32690476Y-95928571D01*
X32595238Y-95880952D01*
X35878221Y-89857142D02*
X35830602Y-89904761D01*
X35687745Y-89952380D01*
X35592507Y-89952380D01*
X35449649Y-89904761D01*
X35354411Y-89809523D01*
X35306792Y-89714285D01*
X35259173Y-89523809D01*
X35259173Y-89380952D01*
X35306792Y-89190476D01*
X35354411Y-89095238D01*
X35449649Y-89000000D01*
X35592507Y-88952380D01*
X35687745Y-88952380D01*
X35830602Y-89000000D01*
X35878221Y-89047619D01*
X36211554Y-88952380D02*
X36878221Y-88952380D01*
X36449649Y-89952380D01*
D11*
X68661000Y-86690000D02*
X68661000Y-87960000D01*
X68621000Y-86671000D02*
X68621000Y-87960000D01*
X67580000Y-90040000D02*
X67580000Y-91579000D01*
X68221000Y-90040000D02*
X68221000Y-91480000D01*
X70021000Y-88323000D02*
X70021000Y-89677000D01*
X69061000Y-86935000D02*
X69061000Y-87960000D01*
X69021000Y-86905000D02*
X69021000Y-87960000D01*
X68661000Y-90040000D02*
X68661000Y-91310000D01*
X68100000Y-90040000D02*
X68100000Y-91511000D01*
X69981000Y-88195000D02*
X69981000Y-89805000D01*
X69861000Y-87902000D02*
X69861000Y-90098000D01*
X69941000Y-88085000D02*
X69941000Y-89915000D01*
X67820000Y-90040000D02*
X67820000Y-91561000D01*
X67500000Y-86420000D02*
X67500000Y-87960000D01*
X69341000Y-87174000D02*
X69341000Y-87960000D01*
X69101000Y-90040000D02*
X69101000Y-91035000D01*
X64945225Y-87275000D02*
X64945225Y-87775000D01*
X68381000Y-86572000D02*
X68381000Y-87960000D01*
X68941000Y-90040000D02*
X68941000Y-91149000D01*
X67620000Y-86422000D02*
X67620000Y-87960000D01*
X67740000Y-90040000D02*
X67740000Y-91569000D01*
X69701000Y-87617000D02*
X69701000Y-90383000D01*
X68461000Y-90040000D02*
X68461000Y-91398000D01*
X68741000Y-90040000D02*
X68741000Y-91268000D01*
X68901000Y-86825000D02*
X68901000Y-87960000D01*
X68100000Y-86489000D02*
X68100000Y-87960000D01*
X67820000Y-86439000D02*
X67820000Y-87960000D01*
X68020000Y-86472000D02*
X68020000Y-87960000D01*
X68301000Y-90040000D02*
X68301000Y-91455000D01*
X68501000Y-86618000D02*
X68501000Y-87960000D01*
X68541000Y-86635000D02*
X68541000Y-87960000D01*
X68701000Y-86710000D02*
X68701000Y-87960000D01*
X68140000Y-86499000D02*
X68140000Y-87960000D01*
X68621000Y-90040000D02*
X68621000Y-91329000D01*
X69501000Y-87347000D02*
X69501000Y-87960000D01*
X68341000Y-86558000D02*
X68341000Y-87960000D01*
X69461000Y-87301000D02*
X69461000Y-87960000D01*
X68981000Y-90040000D02*
X68981000Y-91122000D01*
X68301000Y-86545000D02*
X68301000Y-87960000D01*
X67700000Y-90040000D02*
X67700000Y-91573000D01*
X69101000Y-86965000D02*
X69101000Y-87960000D01*
X69261000Y-90040000D02*
X69261000Y-90901000D01*
X69461000Y-90040000D02*
X69461000Y-90699000D01*
X68861000Y-90040000D02*
X68861000Y-91200000D01*
X67940000Y-90040000D02*
X67940000Y-91543000D01*
X67580000Y-86421000D02*
X67580000Y-87960000D01*
X67620000Y-90040000D02*
X67620000Y-91578000D01*
X68581000Y-90040000D02*
X68581000Y-91348000D01*
X67740000Y-86431000D02*
X67740000Y-87960000D01*
X68461000Y-86602000D02*
X68461000Y-87960000D01*
X69741000Y-87681000D02*
X69741000Y-90319000D01*
X68541000Y-90040000D02*
X68541000Y-91365000D01*
X69421000Y-87257000D02*
X69421000Y-87960000D01*
X68060000Y-86480000D02*
X68060000Y-87960000D01*
X69021000Y-90040000D02*
X69021000Y-91095000D01*
X69141000Y-86996000D02*
X69141000Y-87960000D01*
X64695225Y-87525000D02*
X65195225Y-87525000D01*
X67780000Y-90040000D02*
X67780000Y-91565000D01*
X67660000Y-90040000D02*
X67660000Y-91576000D01*
X67860000Y-86444000D02*
X67860000Y-87960000D01*
X68381000Y-90040000D02*
X68381000Y-91428000D01*
X69181000Y-90040000D02*
X69181000Y-90971000D01*
X67940000Y-86457000D02*
X67940000Y-87960000D01*
X69181000Y-87029000D02*
X69181000Y-87960000D01*
X68501000Y-90040000D02*
X68501000Y-91382000D01*
X67540000Y-86420000D02*
X67540000Y-87960000D01*
X69341000Y-90040000D02*
X69341000Y-90826000D01*
X68180000Y-86509000D02*
X68180000Y-87960000D01*
X67780000Y-86435000D02*
X67780000Y-87960000D01*
X68981000Y-86878000D02*
X68981000Y-87960000D01*
X68861000Y-86800000D02*
X68861000Y-87960000D01*
X70061000Y-88482000D02*
X70061000Y-89518000D01*
X68140000Y-90040000D02*
X68140000Y-91501000D01*
X68261000Y-90040000D02*
X68261000Y-91468000D01*
X68421000Y-86586000D02*
X68421000Y-87960000D01*
X67980000Y-90040000D02*
X67980000Y-91536000D01*
X67900000Y-90040000D02*
X67900000Y-91550000D01*
X68901000Y-90040000D02*
X68901000Y-91175000D01*
X70101000Y-88716000D02*
X70101000Y-89284000D01*
X68821000Y-86776000D02*
X68821000Y-87960000D01*
X67980000Y-86464000D02*
X67980000Y-87960000D01*
X69821000Y-87822000D02*
X69821000Y-90178000D01*
X69381000Y-90040000D02*
X69381000Y-90785000D01*
X68421000Y-90040000D02*
X68421000Y-91414000D01*
X69261000Y-87099000D02*
X69261000Y-87960000D01*
X68020000Y-90040000D02*
X68020000Y-91528000D01*
X68821000Y-90040000D02*
X68821000Y-91224000D01*
X69141000Y-90040000D02*
X69141000Y-91004000D01*
X68261000Y-86532000D02*
X68261000Y-87960000D01*
X69541000Y-87395000D02*
X69541000Y-90605000D01*
X67900000Y-86450000D02*
X67900000Y-87960000D01*
X68180000Y-90040000D02*
X68180000Y-91491000D01*
X68781000Y-90040000D02*
X68781000Y-91247000D01*
X68221000Y-86520000D02*
X68221000Y-87960000D01*
X69661000Y-87557000D02*
X69661000Y-90443000D01*
X69301000Y-87136000D02*
X69301000Y-87960000D01*
X69221000Y-90040000D02*
X69221000Y-90937000D01*
X68060000Y-90040000D02*
X68060000Y-91520000D01*
X68781000Y-86753000D02*
X68781000Y-87960000D01*
X69781000Y-87749000D02*
X69781000Y-90251000D01*
X67540000Y-90040000D02*
X67540000Y-91580000D01*
X69421000Y-90040000D02*
X69421000Y-90743000D01*
X69381000Y-87215000D02*
X69381000Y-87960000D01*
X69301000Y-90040000D02*
X69301000Y-90864000D01*
X68741000Y-86732000D02*
X68741000Y-87960000D01*
X68341000Y-90040000D02*
X68341000Y-91442000D01*
X69501000Y-90040000D02*
X69501000Y-90653000D01*
X69621000Y-87500000D02*
X69621000Y-90500000D01*
X69901000Y-87989000D02*
X69901000Y-90011000D01*
X67500000Y-90040000D02*
X67500000Y-91580000D01*
X69061000Y-90040000D02*
X69061000Y-91065000D01*
X69221000Y-87063000D02*
X69221000Y-87960000D01*
X67660000Y-86424000D02*
X67660000Y-87960000D01*
X68701000Y-90040000D02*
X68701000Y-91290000D01*
X67860000Y-90040000D02*
X67860000Y-91556000D01*
X68941000Y-86851000D02*
X68941000Y-87960000D01*
X68581000Y-86652000D02*
X68581000Y-87960000D01*
X67700000Y-86427000D02*
X67700000Y-87960000D01*
X69581000Y-87446000D02*
X69581000Y-90554000D01*
X70120000Y-89000000D02*
G75*
G03*
X70120000Y-89000000I-2620000J0D01*
G01*
X65414113Y-97105000D02*
X65414113Y-93895000D01*
X64934113Y-96177000D02*
X64934113Y-94823000D01*
X65534113Y-94460000D02*
X65534113Y-93757000D01*
X65534113Y-97243000D02*
X65534113Y-96540000D01*
X66815113Y-98001000D02*
X66815113Y-96540000D01*
X66855113Y-98011000D02*
X66855113Y-96540000D01*
X65494113Y-97199000D02*
X65494113Y-96540000D01*
X66614113Y-97942000D02*
X66614113Y-96540000D01*
X66694113Y-94460000D02*
X66694113Y-93032000D01*
X67215113Y-98069000D02*
X67215113Y-96540000D01*
X65014113Y-96415000D02*
X65014113Y-94585000D01*
X66935113Y-98028000D02*
X66935113Y-96540000D01*
X65574113Y-94460000D02*
X65574113Y-93715000D01*
X66574113Y-97928000D02*
X66574113Y-96540000D01*
X67255113Y-98073000D02*
X67255113Y-96540000D01*
X67295113Y-98076000D02*
X67295113Y-96540000D01*
X67455113Y-98080000D02*
X67455113Y-96540000D01*
X66775113Y-97991000D02*
X66775113Y-96540000D01*
X64974113Y-96305000D02*
X64974113Y-94695000D01*
X66254113Y-97790000D02*
X66254113Y-96540000D01*
X66414113Y-94460000D02*
X66414113Y-93135000D01*
X67095113Y-98056000D02*
X67095113Y-96540000D01*
X67215113Y-94460000D02*
X67215113Y-92931000D01*
X66374113Y-94460000D02*
X66374113Y-93152000D01*
X66534113Y-97914000D02*
X66534113Y-96540000D01*
X67135113Y-98061000D02*
X67135113Y-96540000D01*
X65934113Y-94460000D02*
X65934113Y-93405000D01*
X66294113Y-97810000D02*
X66294113Y-96540000D01*
X66254113Y-94460000D02*
X66254113Y-93210000D01*
X66734113Y-94460000D02*
X66734113Y-93020000D01*
X66054113Y-97675000D02*
X66054113Y-96540000D01*
X66414113Y-97865000D02*
X66414113Y-96540000D01*
X66334113Y-94460000D02*
X66334113Y-93171000D01*
X65854113Y-94460000D02*
X65854113Y-93465000D01*
X64894113Y-96018000D02*
X64894113Y-94982000D01*
X65974113Y-94460000D02*
X65974113Y-93378000D01*
X65174113Y-96751000D02*
X65174113Y-94249000D01*
X65854113Y-97535000D02*
X65854113Y-96540000D01*
X66654113Y-94460000D02*
X66654113Y-93045000D01*
X66374113Y-97848000D02*
X66374113Y-96540000D01*
X66815113Y-94460000D02*
X66815113Y-92999000D01*
X66935113Y-94460000D02*
X66935113Y-92972000D01*
X67415113Y-94460000D02*
X67415113Y-92920000D01*
X66294113Y-94460000D02*
X66294113Y-93190000D01*
X66094113Y-94460000D02*
X66094113Y-93300000D01*
X67335113Y-94460000D02*
X67335113Y-92922000D01*
X67175113Y-98065000D02*
X67175113Y-96540000D01*
X66174113Y-97747000D02*
X66174113Y-96540000D01*
X66014113Y-97649000D02*
X66014113Y-96540000D01*
X67095113Y-94460000D02*
X67095113Y-92944000D01*
X66975113Y-98036000D02*
X66975113Y-96540000D01*
X66654113Y-97955000D02*
X66654113Y-96540000D01*
X65094113Y-96598000D02*
X65094113Y-94402000D01*
X65334113Y-97000000D02*
X65334113Y-94000000D01*
X65574113Y-97285000D02*
X65574113Y-96540000D01*
X67135113Y-94460000D02*
X67135113Y-92939000D01*
X65694113Y-97401000D02*
X65694113Y-96540000D01*
X65214113Y-96819000D02*
X65214113Y-94181000D01*
X66134113Y-94460000D02*
X66134113Y-93276000D01*
X66454113Y-97882000D02*
X66454113Y-96540000D01*
X67055113Y-98050000D02*
X67055113Y-96540000D01*
X67255113Y-94460000D02*
X67255113Y-92927000D01*
X66334113Y-97829000D02*
X66334113Y-96540000D01*
X66454113Y-94460000D02*
X66454113Y-93118000D01*
X65254113Y-96883000D02*
X65254113Y-94117000D01*
X67295113Y-94460000D02*
X67295113Y-92924000D01*
X67455113Y-94460000D02*
X67455113Y-92920000D01*
X66494113Y-97898000D02*
X66494113Y-96540000D01*
X66734113Y-97980000D02*
X66734113Y-96540000D01*
X66494113Y-94460000D02*
X66494113Y-93102000D01*
X66694113Y-97968000D02*
X66694113Y-96540000D01*
X65774113Y-97471000D02*
X65774113Y-96540000D01*
X66214113Y-94460000D02*
X66214113Y-93232000D01*
X67055113Y-94460000D02*
X67055113Y-92950000D01*
X65894113Y-94460000D02*
X65894113Y-93435000D01*
X65814113Y-94460000D02*
X65814113Y-93496000D01*
X70259888Y-96975000D02*
X69759888Y-96975000D01*
X65294113Y-96943000D02*
X65294113Y-94057000D01*
X67375113Y-94460000D02*
X67375113Y-92921000D01*
X64854113Y-95784000D02*
X64854113Y-95216000D01*
X65654113Y-94460000D02*
X65654113Y-93636000D01*
X66014113Y-94460000D02*
X66014113Y-93351000D01*
X65494113Y-94460000D02*
X65494113Y-93801000D01*
X66855113Y-94460000D02*
X66855113Y-92989000D01*
X65734113Y-94460000D02*
X65734113Y-93563000D01*
X65454113Y-94460000D02*
X65454113Y-93847000D01*
X65814113Y-97504000D02*
X65814113Y-96540000D01*
X65134113Y-96678000D02*
X65134113Y-94322000D01*
X67415113Y-98080000D02*
X67415113Y-96540000D01*
X65614113Y-97326000D02*
X65614113Y-96540000D01*
X65374113Y-97054000D02*
X65374113Y-93946000D01*
X65654113Y-97364000D02*
X65654113Y-96540000D01*
X65454113Y-97153000D02*
X65454113Y-96540000D01*
X65054113Y-96511000D02*
X65054113Y-94489000D01*
X67015113Y-98043000D02*
X67015113Y-96540000D01*
X66614113Y-94460000D02*
X66614113Y-93058000D01*
X66574113Y-94460000D02*
X66574113Y-93072000D01*
X67015113Y-94460000D02*
X67015113Y-92957000D01*
X70009888Y-97225000D02*
X70009888Y-96725000D01*
X66174113Y-94460000D02*
X66174113Y-93253000D01*
X67175113Y-94460000D02*
X67175113Y-92935000D01*
X65894113Y-97565000D02*
X65894113Y-96540000D01*
X66895113Y-98020000D02*
X66895113Y-96540000D01*
X67335113Y-98078000D02*
X67335113Y-96540000D01*
X66775113Y-94460000D02*
X66775113Y-93009000D01*
X66054113Y-94460000D02*
X66054113Y-93325000D01*
X66975113Y-94460000D02*
X66975113Y-92964000D01*
X67375113Y-98079000D02*
X67375113Y-96540000D01*
X65614113Y-94460000D02*
X65614113Y-93674000D01*
X66895113Y-94460000D02*
X66895113Y-92980000D01*
X66214113Y-97768000D02*
X66214113Y-96540000D01*
X66094113Y-97700000D02*
X66094113Y-96540000D01*
X65974113Y-97622000D02*
X65974113Y-96540000D01*
X65734113Y-97437000D02*
X65734113Y-96540000D01*
X66134113Y-97724000D02*
X66134113Y-96540000D01*
X65694113Y-94460000D02*
X65694113Y-93599000D01*
X65774113Y-94460000D02*
X65774113Y-93529000D01*
X66534113Y-94460000D02*
X66534113Y-93086000D01*
X65934113Y-97595000D02*
X65934113Y-96540000D01*
X70075113Y-95500000D02*
G75*
G03*
X70075113Y-95500000I-2620000J0D01*
G01*
X88370000Y-59380000D02*
X85630000Y-59380000D01*
X88370000Y-59380000D02*
X88370000Y-66620000D01*
X85630000Y-59380000D02*
X85630000Y-66620000D01*
X88370000Y-66620000D02*
X85630000Y-66620000D01*
X46680000Y-59009000D02*
X46680000Y-60460000D01*
X47841000Y-62540000D02*
X47841000Y-63326000D01*
X46120000Y-58922000D02*
X46120000Y-60460000D01*
X46440000Y-62540000D02*
X46440000Y-64043000D01*
X46000000Y-62540000D02*
X46000000Y-64080000D01*
X48201000Y-60117000D02*
X48201000Y-62883000D01*
X43195225Y-60025000D02*
X43695225Y-60025000D01*
X48081000Y-59946000D02*
X48081000Y-63054000D01*
X47881000Y-62540000D02*
X47881000Y-63285000D01*
X47281000Y-59253000D02*
X47281000Y-60460000D01*
X47521000Y-59405000D02*
X47521000Y-60460000D01*
X47321000Y-62540000D02*
X47321000Y-63724000D01*
X46600000Y-58989000D02*
X46600000Y-60460000D01*
X43445225Y-59775000D02*
X43445225Y-60275000D01*
X48041000Y-59895000D02*
X48041000Y-63105000D01*
X47521000Y-62540000D02*
X47521000Y-63595000D01*
X47361000Y-59300000D02*
X47361000Y-60460000D01*
X46801000Y-59045000D02*
X46801000Y-60460000D01*
X47961000Y-59801000D02*
X47961000Y-60460000D01*
X46600000Y-62540000D02*
X46600000Y-64011000D01*
X47721000Y-59563000D02*
X47721000Y-60460000D01*
X47601000Y-62540000D02*
X47601000Y-63535000D01*
X47201000Y-59210000D02*
X47201000Y-60460000D01*
X48561000Y-60982000D02*
X48561000Y-62018000D01*
X47201000Y-62540000D02*
X47201000Y-63790000D01*
X47041000Y-59135000D02*
X47041000Y-60460000D01*
X47641000Y-62540000D02*
X47641000Y-63504000D01*
X48001000Y-59847000D02*
X48001000Y-60460000D01*
X46160000Y-62540000D02*
X46160000Y-64076000D01*
X46841000Y-62540000D02*
X46841000Y-63942000D01*
X47121000Y-59171000D02*
X47121000Y-60460000D01*
X47481000Y-62540000D02*
X47481000Y-63622000D01*
X47921000Y-59757000D02*
X47921000Y-60460000D01*
X46721000Y-59020000D02*
X46721000Y-60460000D01*
X46480000Y-62540000D02*
X46480000Y-64036000D01*
X46761000Y-62540000D02*
X46761000Y-63968000D01*
X47601000Y-59465000D02*
X47601000Y-60460000D01*
X48281000Y-60249000D02*
X48281000Y-62751000D01*
X46360000Y-62540000D02*
X46360000Y-64056000D01*
X46881000Y-59072000D02*
X46881000Y-60460000D01*
X46360000Y-58944000D02*
X46360000Y-60460000D01*
X46320000Y-58939000D02*
X46320000Y-60460000D01*
X47561000Y-62540000D02*
X47561000Y-63565000D01*
X47281000Y-62540000D02*
X47281000Y-63747000D01*
X46640000Y-58999000D02*
X46640000Y-60460000D01*
X46480000Y-58964000D02*
X46480000Y-60460000D01*
X46400000Y-62540000D02*
X46400000Y-64050000D01*
X47001000Y-59118000D02*
X47001000Y-60460000D01*
X48441000Y-60585000D02*
X48441000Y-62415000D01*
X46520000Y-62540000D02*
X46520000Y-64028000D01*
X47441000Y-59351000D02*
X47441000Y-60460000D01*
X46000000Y-58920000D02*
X46000000Y-60460000D01*
X47401000Y-62540000D02*
X47401000Y-63675000D01*
X48001000Y-62540000D02*
X48001000Y-63153000D01*
X46280000Y-58935000D02*
X46280000Y-60460000D01*
X46520000Y-58972000D02*
X46520000Y-60460000D01*
X46841000Y-59058000D02*
X46841000Y-60460000D01*
X47041000Y-62540000D02*
X47041000Y-63865000D01*
X46961000Y-62540000D02*
X46961000Y-63898000D01*
X46801000Y-62540000D02*
X46801000Y-63955000D01*
X46400000Y-58950000D02*
X46400000Y-60460000D01*
X46080000Y-58921000D02*
X46080000Y-60460000D01*
X46320000Y-62540000D02*
X46320000Y-64061000D01*
X48361000Y-60402000D02*
X48361000Y-62598000D01*
X48401000Y-60489000D02*
X48401000Y-62511000D01*
X47881000Y-59715000D02*
X47881000Y-60460000D01*
X47721000Y-62540000D02*
X47721000Y-63437000D01*
X47121000Y-62540000D02*
X47121000Y-63829000D01*
X47641000Y-59496000D02*
X47641000Y-60460000D01*
X46200000Y-62540000D02*
X46200000Y-64073000D01*
X47761000Y-59599000D02*
X47761000Y-60460000D01*
X47241000Y-62540000D02*
X47241000Y-63768000D01*
X46881000Y-62540000D02*
X46881000Y-63928000D01*
X47681000Y-62540000D02*
X47681000Y-63471000D01*
X47161000Y-59190000D02*
X47161000Y-60460000D01*
X47081000Y-62540000D02*
X47081000Y-63848000D01*
X46280000Y-62540000D02*
X46280000Y-64065000D01*
X46240000Y-62540000D02*
X46240000Y-64069000D01*
X47921000Y-62540000D02*
X47921000Y-63243000D01*
X46080000Y-62540000D02*
X46080000Y-64079000D01*
X46240000Y-58931000D02*
X46240000Y-60460000D01*
X46680000Y-62540000D02*
X46680000Y-63991000D01*
X47761000Y-62540000D02*
X47761000Y-63401000D01*
X48601000Y-61216000D02*
X48601000Y-61784000D01*
X46040000Y-62540000D02*
X46040000Y-64080000D01*
X46721000Y-62540000D02*
X46721000Y-63980000D01*
X47001000Y-62540000D02*
X47001000Y-63882000D01*
X48321000Y-60322000D02*
X48321000Y-62678000D01*
X46440000Y-58957000D02*
X46440000Y-60460000D01*
X47241000Y-59232000D02*
X47241000Y-60460000D01*
X47161000Y-62540000D02*
X47161000Y-63810000D01*
X46961000Y-59102000D02*
X46961000Y-60460000D01*
X47361000Y-62540000D02*
X47361000Y-63700000D01*
X48241000Y-60181000D02*
X48241000Y-62819000D01*
X47841000Y-59674000D02*
X47841000Y-60460000D01*
X48481000Y-60695000D02*
X48481000Y-62305000D01*
X46761000Y-59032000D02*
X46761000Y-60460000D01*
X46120000Y-62540000D02*
X46120000Y-64078000D01*
X47441000Y-62540000D02*
X47441000Y-63649000D01*
X47321000Y-59276000D02*
X47321000Y-60460000D01*
X48161000Y-60057000D02*
X48161000Y-62943000D01*
X47081000Y-59152000D02*
X47081000Y-60460000D01*
X47801000Y-59636000D02*
X47801000Y-60460000D01*
X47481000Y-59378000D02*
X47481000Y-60460000D01*
X47961000Y-62540000D02*
X47961000Y-63199000D01*
X46640000Y-62540000D02*
X46640000Y-64001000D01*
X46921000Y-59086000D02*
X46921000Y-60460000D01*
X46560000Y-62540000D02*
X46560000Y-64020000D01*
X46200000Y-58927000D02*
X46200000Y-60460000D01*
X46160000Y-58924000D02*
X46160000Y-60460000D01*
X48121000Y-60000000D02*
X48121000Y-63000000D01*
X46040000Y-58920000D02*
X46040000Y-60460000D01*
X47401000Y-59325000D02*
X47401000Y-60460000D01*
X46921000Y-62540000D02*
X46921000Y-63914000D01*
X47681000Y-59529000D02*
X47681000Y-60460000D01*
X47801000Y-62540000D02*
X47801000Y-63364000D01*
X46560000Y-58980000D02*
X46560000Y-60460000D01*
X48521000Y-60823000D02*
X48521000Y-62177000D01*
X47561000Y-59435000D02*
X47561000Y-60460000D01*
X48620000Y-61500000D02*
G75*
G03*
X48620000Y-61500000I-2620000J0D01*
G01*
X70620000Y-106130000D02*
X63380000Y-106130000D01*
X70620000Y-108870000D02*
X63380000Y-108870000D01*
X63380000Y-108870000D02*
X63380000Y-106130000D01*
X70620000Y-108870000D02*
X70620000Y-106130000D01*
X35370000Y-119120000D02*
X32630000Y-119120000D01*
X35370000Y-111880000D02*
X35370000Y-119120000D01*
X35370000Y-111880000D02*
X32630000Y-111880000D01*
X32630000Y-111880000D02*
X32630000Y-119120000D01*
X82620000Y-41290000D02*
X80380000Y-41290000D01*
X82620000Y-44810000D02*
X82620000Y-40570000D01*
X82620000Y-40570000D02*
X80380000Y-40570000D01*
X82620000Y-41410000D02*
X80380000Y-41410000D01*
X81500000Y-45460000D02*
X81500000Y-44810000D01*
X80380000Y-44810000D02*
X82620000Y-44810000D01*
X81500000Y-39920000D02*
X81500000Y-40570000D01*
X80380000Y-40570000D02*
X80380000Y-44810000D01*
X82620000Y-41170000D02*
X80380000Y-41170000D01*
X80380000Y-56310000D02*
X82620000Y-56310000D01*
X80380000Y-52070000D02*
X80380000Y-56310000D01*
X80380000Y-55590000D02*
X82620000Y-55590000D01*
X81500000Y-51420000D02*
X81500000Y-52070000D01*
X80380000Y-55710000D02*
X82620000Y-55710000D01*
X82620000Y-56310000D02*
X82620000Y-52070000D01*
X81500000Y-56960000D02*
X81500000Y-56310000D01*
X82620000Y-52070000D02*
X80380000Y-52070000D01*
X80380000Y-55470000D02*
X82620000Y-55470000D01*
X76880000Y-44090000D02*
X79120000Y-44090000D01*
X76880000Y-44810000D02*
X79120000Y-44810000D01*
X78000000Y-39920000D02*
X78000000Y-40570000D01*
X79120000Y-44810000D02*
X79120000Y-40570000D01*
X76880000Y-40570000D02*
X76880000Y-44810000D01*
X78000000Y-45460000D02*
X78000000Y-44810000D01*
X76880000Y-43970000D02*
X79120000Y-43970000D01*
X76880000Y-44210000D02*
X79120000Y-44210000D01*
X79120000Y-40570000D02*
X76880000Y-40570000D01*
X79120000Y-52670000D02*
X76880000Y-52670000D01*
X78000000Y-56960000D02*
X78000000Y-56310000D01*
X78000000Y-51420000D02*
X78000000Y-52070000D01*
X79120000Y-52910000D02*
X76880000Y-52910000D01*
X79120000Y-56310000D02*
X79120000Y-52070000D01*
X79120000Y-52790000D02*
X76880000Y-52790000D01*
X76880000Y-56310000D02*
X79120000Y-56310000D01*
X79120000Y-52070000D02*
X76880000Y-52070000D01*
X76880000Y-52070000D02*
X76880000Y-56310000D01*
X73380000Y-44210000D02*
X75620000Y-44210000D01*
X74500000Y-39920000D02*
X74500000Y-40570000D01*
X74500000Y-45460000D02*
X74500000Y-44810000D01*
X75620000Y-40570000D02*
X73380000Y-40570000D01*
X73380000Y-43970000D02*
X75620000Y-43970000D01*
X75620000Y-44810000D02*
X75620000Y-40570000D01*
X73380000Y-44810000D02*
X75620000Y-44810000D01*
X73380000Y-40570000D02*
X73380000Y-44810000D01*
X73380000Y-44090000D02*
X75620000Y-44090000D01*
X73380000Y-56310000D02*
X75620000Y-56310000D01*
X73380000Y-55710000D02*
X75620000Y-55710000D01*
X75620000Y-52070000D02*
X73380000Y-52070000D01*
X73380000Y-52070000D02*
X73380000Y-56310000D01*
X73380000Y-55470000D02*
X75620000Y-55470000D01*
X73380000Y-55590000D02*
X75620000Y-55590000D01*
X75620000Y-56310000D02*
X75620000Y-52070000D01*
X74500000Y-56960000D02*
X74500000Y-56310000D01*
X74500000Y-51420000D02*
X74500000Y-52070000D01*
X85670000Y-70270000D02*
X88330000Y-70270000D01*
X88330000Y-67670000D02*
X88330000Y-69000000D01*
X87000000Y-67670000D02*
X88330000Y-67670000D01*
X88330000Y-70270000D02*
X88330000Y-83030000D01*
X85670000Y-70270000D02*
X85670000Y-83030000D01*
X85670000Y-83030000D02*
X88330000Y-83030000D01*
X34330000Y-128670000D02*
X34330000Y-130000000D01*
X31670000Y-131270000D02*
X31670000Y-144030000D01*
X31670000Y-144030000D02*
X34330000Y-144030000D01*
X33000000Y-128670000D02*
X34330000Y-128670000D01*
X34330000Y-131270000D02*
X34330000Y-144030000D01*
X31670000Y-131270000D02*
X34330000Y-131270000D01*
X72850000Y-75800000D02*
X72850000Y-72200000D01*
X72838478Y-72161522D02*
G75*
G03*
X68400000Y-74000000I-1838478J-1838478D01*
G01*
X68399999Y-74000000D02*
G75*
G03*
X72838478Y-75838478I2600001J0D01*
G01*
X63290000Y-72200000D02*
X63290000Y-75800000D01*
X67740001Y-74000000D02*
G75*
G03*
X63301522Y-72161522I-2600001J0D01*
G01*
X63301522Y-75838478D02*
G75*
G03*
X67740000Y-74000000I1838478J1838478D01*
G01*
X59210000Y-122300000D02*
X59210000Y-118700000D01*
X59198478Y-118661522D02*
G75*
G03*
X54760000Y-120500000I-1838478J-1838478D01*
G01*
X54759999Y-120500000D02*
G75*
G03*
X59198478Y-122338478I2600001J0D01*
G01*
X57500000Y-60880000D02*
X57500000Y-61650000D01*
X58870000Y-68190000D02*
X58870000Y-61650000D01*
X56130000Y-68190000D02*
X58870000Y-68190000D01*
X58870000Y-61650000D02*
X56130000Y-61650000D01*
X56130000Y-61650000D02*
X56130000Y-68190000D01*
X57500000Y-68960000D02*
X57500000Y-68190000D01*
X35030000Y-85770000D02*
X37770000Y-85770000D01*
X37770000Y-79230000D02*
X35030000Y-79230000D01*
X35030000Y-79230000D02*
X35030000Y-85770000D01*
X37770000Y-85770000D02*
X37770000Y-79230000D01*
X36400000Y-86540000D02*
X36400000Y-85770000D01*
X36400000Y-78460000D02*
X36400000Y-79230000D01*
X55370000Y-81190000D02*
X55370000Y-74650000D01*
X55370000Y-74650000D02*
X52630000Y-74650000D01*
X54000000Y-73880000D02*
X54000000Y-74650000D01*
X52630000Y-81190000D02*
X55370000Y-81190000D01*
X52630000Y-74650000D02*
X52630000Y-81190000D01*
X54000000Y-81960000D02*
X54000000Y-81190000D01*
X54000000Y-60880000D02*
X54000000Y-61650000D01*
X55370000Y-61650000D02*
X52630000Y-61650000D01*
X52630000Y-68190000D02*
X55370000Y-68190000D01*
X54000000Y-68960000D02*
X54000000Y-68190000D01*
X52630000Y-61650000D02*
X52630000Y-68190000D01*
X55370000Y-68190000D02*
X55370000Y-61650000D01*
X61000000Y-60880000D02*
X61000000Y-61650000D01*
X62370000Y-61650000D02*
X59630000Y-61650000D01*
X59630000Y-68190000D02*
X62370000Y-68190000D01*
X62370000Y-68190000D02*
X62370000Y-61650000D01*
X59630000Y-61650000D02*
X59630000Y-68190000D01*
X61000000Y-68960000D02*
X61000000Y-68190000D01*
X64960000Y-80000000D02*
X65730000Y-80000000D01*
X72270000Y-81370000D02*
X72270000Y-78630000D01*
X72270000Y-78630000D02*
X65730000Y-78630000D01*
X65730000Y-78630000D02*
X65730000Y-81370000D01*
X65730000Y-81370000D02*
X72270000Y-81370000D01*
X73040000Y-80000000D02*
X72270000Y-80000000D01*
X42730000Y-64630000D02*
X42730000Y-67370000D01*
X49270000Y-67370000D02*
X49270000Y-64630000D01*
X41960000Y-66000000D02*
X42730000Y-66000000D01*
X49270000Y-64630000D02*
X42730000Y-64630000D01*
X42730000Y-67370000D02*
X49270000Y-67370000D01*
X50040000Y-66000000D02*
X49270000Y-66000000D01*
X50040000Y-49500000D02*
X49270000Y-49500000D01*
X49270000Y-48130000D02*
X42730000Y-48130000D01*
X42730000Y-48130000D02*
X42730000Y-50870000D01*
X42730000Y-50870000D02*
X49270000Y-50870000D01*
X41960000Y-49500000D02*
X42730000Y-49500000D01*
X49270000Y-50870000D02*
X49270000Y-48130000D01*
X50040000Y-56500000D02*
X49270000Y-56500000D01*
X49270000Y-57870000D02*
X49270000Y-55130000D01*
X49270000Y-55130000D02*
X42730000Y-55130000D01*
X41960000Y-56500000D02*
X42730000Y-56500000D01*
X42730000Y-57870000D02*
X49270000Y-57870000D01*
X42730000Y-55130000D02*
X42730000Y-57870000D01*
X49270000Y-51630000D02*
X42730000Y-51630000D01*
X42730000Y-54370000D02*
X49270000Y-54370000D01*
X41960000Y-53000000D02*
X42730000Y-53000000D01*
X42730000Y-51630000D02*
X42730000Y-54370000D01*
X50040000Y-53000000D02*
X49270000Y-53000000D01*
X49270000Y-54370000D02*
X49270000Y-51630000D01*
X71370000Y-47270000D02*
X71370000Y-40730000D01*
X70000000Y-48040000D02*
X70000000Y-47270000D01*
X70000000Y-39960000D02*
X70000000Y-40730000D01*
X68630000Y-47270000D02*
X71370000Y-47270000D01*
X71370000Y-40730000D02*
X68630000Y-40730000D01*
X68630000Y-40730000D02*
X68630000Y-47270000D01*
X59130000Y-128730000D02*
X59130000Y-135270000D01*
X61870000Y-128730000D02*
X59130000Y-128730000D01*
X60500000Y-136040000D02*
X60500000Y-135270000D01*
X61870000Y-135270000D02*
X61870000Y-128730000D01*
X59130000Y-135270000D02*
X61870000Y-135270000D01*
X60500000Y-127960000D02*
X60500000Y-128730000D01*
X52370000Y-100730000D02*
X49630000Y-100730000D01*
X51000000Y-99960000D02*
X51000000Y-100730000D01*
X49630000Y-100730000D02*
X49630000Y-107270000D01*
X49630000Y-107270000D02*
X52370000Y-107270000D01*
X52370000Y-107270000D02*
X52370000Y-100730000D01*
X51000000Y-108040000D02*
X51000000Y-107270000D01*
X58370000Y-135270000D02*
X58370000Y-128730000D01*
X57000000Y-136040000D02*
X57000000Y-135270000D01*
X58370000Y-128730000D02*
X55630000Y-128730000D01*
X55630000Y-135270000D02*
X58370000Y-135270000D01*
X55630000Y-128730000D02*
X55630000Y-135270000D01*
X57000000Y-127960000D02*
X57000000Y-128730000D01*
X56630000Y-110770000D02*
X59370000Y-110770000D01*
X58000000Y-111540000D02*
X58000000Y-110770000D01*
X56630000Y-104230000D02*
X56630000Y-110770000D01*
X59370000Y-110770000D02*
X59370000Y-104230000D01*
X58000000Y-103460000D02*
X58000000Y-104230000D01*
X59370000Y-104230000D02*
X56630000Y-104230000D01*
X78960000Y-122500000D02*
X79730000Y-122500000D01*
X79730000Y-121130000D02*
X79730000Y-123870000D01*
X79730000Y-123870000D02*
X86270000Y-123870000D01*
X86270000Y-121130000D02*
X79730000Y-121130000D01*
X87040000Y-122500000D02*
X86270000Y-122500000D01*
X86270000Y-123870000D02*
X86270000Y-121130000D01*
X64000000Y-127960000D02*
X64000000Y-128730000D01*
X62630000Y-135270000D02*
X65370000Y-135270000D01*
X64000000Y-136040000D02*
X64000000Y-135270000D01*
X65370000Y-135270000D02*
X65370000Y-128730000D01*
X62630000Y-128730000D02*
X62630000Y-135270000D01*
X65370000Y-128730000D02*
X62630000Y-128730000D01*
X53130000Y-104230000D02*
X53130000Y-110770000D01*
X54500000Y-103460000D02*
X54500000Y-104230000D01*
X55870000Y-104230000D02*
X53130000Y-104230000D01*
X53130000Y-110770000D02*
X55870000Y-110770000D01*
X54500000Y-111540000D02*
X54500000Y-110770000D01*
X55870000Y-110770000D02*
X55870000Y-104230000D01*
X52130000Y-135270000D02*
X54870000Y-135270000D01*
X54870000Y-128730000D02*
X52130000Y-128730000D01*
X54870000Y-135270000D02*
X54870000Y-128730000D01*
X53500000Y-127960000D02*
X53500000Y-128730000D01*
X52130000Y-128730000D02*
X52130000Y-135270000D01*
X53500000Y-136040000D02*
X53500000Y-135270000D01*
X47870000Y-135270000D02*
X47870000Y-128730000D01*
X46500000Y-127960000D02*
X46500000Y-128730000D01*
X45130000Y-128730000D02*
X45130000Y-135270000D01*
X46500000Y-136040000D02*
X46500000Y-135270000D01*
X47870000Y-128730000D02*
X45130000Y-128730000D01*
X45130000Y-135270000D02*
X47870000Y-135270000D01*
X48630000Y-128730000D02*
X48630000Y-135270000D01*
X50000000Y-136040000D02*
X50000000Y-135270000D01*
X48630000Y-135270000D02*
X51370000Y-135270000D01*
X51370000Y-135270000D02*
X51370000Y-128730000D01*
X50000000Y-127960000D02*
X50000000Y-128730000D01*
X51370000Y-128730000D02*
X48630000Y-128730000D01*
X48630000Y-116230000D02*
X48630000Y-122770000D01*
X50000000Y-123540000D02*
X50000000Y-122770000D01*
X50000000Y-115460000D02*
X50000000Y-116230000D01*
X51370000Y-116230000D02*
X48630000Y-116230000D01*
X48630000Y-122770000D02*
X51370000Y-122770000D01*
X51370000Y-122770000D02*
X51370000Y-116230000D01*
X62870000Y-110770000D02*
X62870000Y-104230000D01*
X61500000Y-111540000D02*
X61500000Y-110770000D01*
X60130000Y-110770000D02*
X62870000Y-110770000D01*
X60130000Y-104230000D02*
X60130000Y-110770000D01*
X61500000Y-103460000D02*
X61500000Y-104230000D01*
X62870000Y-104230000D02*
X60130000Y-104230000D01*
X73000000Y-110460000D02*
X73000000Y-111230000D01*
X74370000Y-111230000D02*
X71630000Y-111230000D01*
X74370000Y-117770000D02*
X74370000Y-111230000D01*
X73000000Y-118540000D02*
X73000000Y-117770000D01*
X71630000Y-111230000D02*
X71630000Y-117770000D01*
X71630000Y-117770000D02*
X74370000Y-117770000D01*
X42010000Y-100270000D02*
X40360000Y-100270000D01*
X37870000Y-100210000D02*
X37870000Y-120770000D01*
X37870000Y-120770000D02*
X48150000Y-120770000D01*
X48150000Y-120770000D02*
X48150000Y-100210000D01*
X48150000Y-100210000D02*
X37870000Y-100210000D01*
X45660000Y-120710000D02*
X45660000Y-100270000D01*
X40360000Y-120710000D02*
X45660000Y-120710000D01*
X40360000Y-100270000D02*
X40360000Y-120710000D01*
X45660000Y-100270000D02*
X44010000Y-100270000D01*
X42010000Y-100270000D02*
G75*
G03*
X44010000Y-100270000I1000000J0D01*
G01*
X81010000Y-109870000D02*
X79360000Y-109870000D01*
X87150000Y-109810000D02*
X76870000Y-109810000D01*
X84660000Y-120150000D02*
X84660000Y-109870000D01*
X76870000Y-109810000D02*
X76870000Y-120210000D01*
X79360000Y-109870000D02*
X79360000Y-120150000D01*
X79360000Y-120150000D02*
X84660000Y-120150000D01*
X87150000Y-120210000D02*
X87150000Y-109810000D01*
X84660000Y-109870000D02*
X83010000Y-109870000D01*
X76870000Y-120210000D02*
X87150000Y-120210000D01*
X81010000Y-109870000D02*
G75*
G03*
X83010000Y-109870000I1000000J0D01*
G01*
X88330000Y-128670000D02*
X88330000Y-130000000D01*
X87000000Y-128670000D02*
X88330000Y-128670000D01*
X88330000Y-131270000D02*
X88330000Y-144030000D01*
X85670000Y-144030000D02*
X88330000Y-144030000D01*
X85670000Y-131270000D02*
X88330000Y-131270000D01*
X85670000Y-131270000D02*
X85670000Y-144030000D01*
X70500000Y-60960000D02*
X70500000Y-61730000D01*
X71870000Y-61730000D02*
X69130000Y-61730000D01*
X71870000Y-68270000D02*
X71870000Y-61730000D01*
X69130000Y-61730000D02*
X69130000Y-68270000D01*
X69130000Y-68270000D02*
X71870000Y-68270000D01*
X70500000Y-69040000D02*
X70500000Y-68270000D01*
X36745888Y-121617000D02*
X36745888Y-124383000D01*
X35224888Y-124040000D02*
X35224888Y-125491000D01*
X36505888Y-124040000D02*
X36505888Y-124699000D01*
X36105888Y-124040000D02*
X36105888Y-125065000D01*
X35785888Y-124040000D02*
X35785888Y-125268000D01*
X34664888Y-120422000D02*
X34664888Y-121960000D01*
X35305888Y-120532000D02*
X35305888Y-121960000D01*
X35785888Y-120732000D02*
X35785888Y-121960000D01*
X35585888Y-124040000D02*
X35585888Y-125365000D01*
X35184888Y-120499000D02*
X35184888Y-121960000D01*
X35465888Y-124040000D02*
X35465888Y-125414000D01*
X34824888Y-120435000D02*
X34824888Y-121960000D01*
X35465888Y-120586000D02*
X35465888Y-121960000D01*
X36825888Y-121749000D02*
X36825888Y-124251000D01*
X34544888Y-124040000D02*
X34544888Y-125580000D01*
X36265888Y-121063000D02*
X36265888Y-121960000D01*
X35905888Y-120800000D02*
X35905888Y-121960000D01*
X35625888Y-124040000D02*
X35625888Y-125348000D01*
X37065888Y-122323000D02*
X37065888Y-123677000D01*
X34544888Y-120420000D02*
X34544888Y-121960000D01*
X34704888Y-120424000D02*
X34704888Y-121960000D01*
X36585888Y-121395000D02*
X36585888Y-124605000D01*
X35144888Y-124040000D02*
X35144888Y-125511000D01*
X35265888Y-124040000D02*
X35265888Y-125480000D01*
X35745888Y-124040000D02*
X35745888Y-125290000D01*
X35385888Y-124040000D02*
X35385888Y-125442000D01*
X35425888Y-124040000D02*
X35425888Y-125428000D01*
X34904888Y-124040000D02*
X34904888Y-125556000D01*
X35425888Y-120572000D02*
X35425888Y-121960000D01*
X35665888Y-124040000D02*
X35665888Y-125329000D01*
X34944888Y-124040000D02*
X34944888Y-125550000D01*
X35745888Y-120710000D02*
X35745888Y-121960000D01*
X36665888Y-121500000D02*
X36665888Y-124500000D01*
X35665888Y-120671000D02*
X35665888Y-121960000D01*
X35305888Y-124040000D02*
X35305888Y-125468000D01*
X35345888Y-124040000D02*
X35345888Y-125455000D01*
X34624888Y-120421000D02*
X34624888Y-121960000D01*
X34624888Y-124040000D02*
X34624888Y-125579000D01*
X34984888Y-124040000D02*
X34984888Y-125543000D01*
X35865888Y-120776000D02*
X35865888Y-121960000D01*
X35505888Y-124040000D02*
X35505888Y-125398000D01*
X36185888Y-120996000D02*
X36185888Y-121960000D01*
X35024888Y-124040000D02*
X35024888Y-125536000D01*
X34584888Y-124040000D02*
X34584888Y-125580000D01*
X36385888Y-124040000D02*
X36385888Y-124826000D01*
X35064888Y-120472000D02*
X35064888Y-121960000D01*
X34944888Y-120450000D02*
X34944888Y-121960000D01*
X35705888Y-124040000D02*
X35705888Y-125310000D01*
X35144888Y-120489000D02*
X35144888Y-121960000D01*
X35545888Y-124040000D02*
X35545888Y-125382000D01*
X35345888Y-120545000D02*
X35345888Y-121960000D01*
X36345888Y-124040000D02*
X36345888Y-124864000D01*
X34704888Y-124040000D02*
X34704888Y-125576000D01*
X35545888Y-120618000D02*
X35545888Y-121960000D01*
X36545888Y-121347000D02*
X36545888Y-121960000D01*
X35385888Y-120558000D02*
X35385888Y-121960000D01*
X37105888Y-122482000D02*
X37105888Y-123518000D01*
X35985888Y-124040000D02*
X35985888Y-125149000D01*
X31740113Y-121525000D02*
X32240113Y-121525000D01*
X36065888Y-124040000D02*
X36065888Y-125095000D01*
X35905888Y-124040000D02*
X35905888Y-125200000D01*
X36505888Y-121301000D02*
X36505888Y-121960000D01*
X36025888Y-120878000D02*
X36025888Y-121960000D01*
X35104888Y-124040000D02*
X35104888Y-125520000D01*
X35825888Y-124040000D02*
X35825888Y-125247000D01*
X36145888Y-120965000D02*
X36145888Y-121960000D01*
X36465888Y-124040000D02*
X36465888Y-124743000D01*
X34984888Y-120457000D02*
X34984888Y-121960000D01*
X36025888Y-124040000D02*
X36025888Y-125122000D01*
X35945888Y-120825000D02*
X35945888Y-121960000D01*
X36385888Y-121174000D02*
X36385888Y-121960000D01*
X34744888Y-120427000D02*
X34744888Y-121960000D01*
X36145888Y-124040000D02*
X36145888Y-125035000D01*
X34904888Y-120444000D02*
X34904888Y-121960000D01*
X36225888Y-124040000D02*
X36225888Y-124971000D01*
X35865888Y-124040000D02*
X35865888Y-125224000D01*
X36985888Y-122085000D02*
X36985888Y-123915000D01*
X35585888Y-120635000D02*
X35585888Y-121960000D01*
X36625888Y-121446000D02*
X36625888Y-124554000D01*
X35505888Y-120602000D02*
X35505888Y-121960000D01*
X36345888Y-121136000D02*
X36345888Y-121960000D01*
X35024888Y-120464000D02*
X35024888Y-121960000D01*
X35625888Y-120652000D02*
X35625888Y-121960000D01*
X35224888Y-120509000D02*
X35224888Y-121960000D01*
X34784888Y-120431000D02*
X34784888Y-121960000D01*
X36545888Y-124040000D02*
X36545888Y-124653000D01*
X34664888Y-124040000D02*
X34664888Y-125578000D01*
X34864888Y-124040000D02*
X34864888Y-125561000D01*
X36265888Y-124040000D02*
X36265888Y-124937000D01*
X35705888Y-120690000D02*
X35705888Y-121960000D01*
X34584888Y-120420000D02*
X34584888Y-121960000D01*
X36865888Y-121822000D02*
X36865888Y-124178000D01*
X34824888Y-124040000D02*
X34824888Y-125565000D01*
X36785888Y-121681000D02*
X36785888Y-124319000D01*
X35064888Y-124040000D02*
X35064888Y-125528000D01*
X36465888Y-121257000D02*
X36465888Y-121960000D01*
X35985888Y-120851000D02*
X35985888Y-121960000D01*
X36425888Y-124040000D02*
X36425888Y-124785000D01*
X35825888Y-120753000D02*
X35825888Y-121960000D01*
X36225888Y-121029000D02*
X36225888Y-121960000D01*
X36105888Y-120935000D02*
X36105888Y-121960000D01*
X36305888Y-121099000D02*
X36305888Y-121960000D01*
X37025888Y-122195000D02*
X37025888Y-123805000D01*
X36425888Y-121215000D02*
X36425888Y-121960000D01*
X36065888Y-120905000D02*
X36065888Y-121960000D01*
X34784888Y-124040000D02*
X34784888Y-125569000D01*
X36185888Y-124040000D02*
X36185888Y-125004000D01*
X36905888Y-121902000D02*
X36905888Y-124098000D01*
X37145888Y-122716000D02*
X37145888Y-123284000D01*
X35104888Y-120480000D02*
X35104888Y-121960000D01*
X36705888Y-121557000D02*
X36705888Y-124443000D01*
X36945888Y-121989000D02*
X36945888Y-124011000D01*
X36305888Y-124040000D02*
X36305888Y-124901000D01*
X34744888Y-124040000D02*
X34744888Y-125573000D01*
X34864888Y-120439000D02*
X34864888Y-121960000D01*
X35945888Y-124040000D02*
X35945888Y-125175000D01*
X35265888Y-120520000D02*
X35265888Y-121960000D01*
X31990113Y-121275000D02*
X31990113Y-121775000D01*
X35184888Y-124040000D02*
X35184888Y-125501000D01*
X37164888Y-123000000D02*
G75*
G03*
X37164888Y-123000000I-2620000J0D01*
G01*
X80660000Y-70150000D02*
X80660000Y-59870000D01*
X77010000Y-59870000D02*
X75360000Y-59870000D01*
X83150000Y-59810000D02*
X72870000Y-59810000D01*
X72870000Y-59810000D02*
X72870000Y-70210000D01*
X72870000Y-70210000D02*
X83150000Y-70210000D01*
X80660000Y-59870000D02*
X79010000Y-59870000D01*
X75360000Y-59870000D02*
X75360000Y-70150000D01*
X75360000Y-70150000D02*
X80660000Y-70150000D01*
X83150000Y-70210000D02*
X83150000Y-59810000D01*
X77010000Y-59870000D02*
G75*
G03*
X79010000Y-59870000I1000000J0D01*
G01*
X64850000Y-122300000D02*
X64850000Y-118700000D01*
X60399999Y-120500000D02*
G75*
G03*
X64838478Y-122338478I2600001J0D01*
G01*
X64838478Y-118661522D02*
G75*
G03*
X60400000Y-120500000I-1838478J-1838478D01*
G01*
X70620000Y-101630000D02*
X70620000Y-104370000D01*
X63380000Y-101630000D02*
X63380000Y-104370000D01*
X63380000Y-101630000D02*
X70620000Y-101630000D01*
X63380000Y-104370000D02*
X70620000Y-104370000D01*
X71880000Y-93210000D02*
X74120000Y-93210000D01*
X71880000Y-89570000D02*
X71880000Y-93810000D01*
X73000000Y-88920000D02*
X73000000Y-89570000D01*
X71880000Y-93090000D02*
X74120000Y-93090000D01*
X73000000Y-94460000D02*
X73000000Y-93810000D01*
X74120000Y-89570000D02*
X71880000Y-89570000D01*
X71880000Y-93810000D02*
X74120000Y-93810000D01*
X71880000Y-92970000D02*
X74120000Y-92970000D01*
X74120000Y-93810000D02*
X74120000Y-89570000D01*
X77620000Y-90290000D02*
X75380000Y-90290000D01*
X77620000Y-93810000D02*
X77620000Y-89570000D01*
X75380000Y-93810000D02*
X77620000Y-93810000D01*
X76500000Y-88920000D02*
X76500000Y-89570000D01*
X77620000Y-90170000D02*
X75380000Y-90170000D01*
X76500000Y-94460000D02*
X76500000Y-93810000D01*
X77620000Y-90410000D02*
X75380000Y-90410000D01*
X77620000Y-89570000D02*
X75380000Y-89570000D01*
X75380000Y-89570000D02*
X75380000Y-93810000D01*
X81120000Y-89570000D02*
X78880000Y-89570000D01*
X81120000Y-90410000D02*
X78880000Y-90410000D01*
X78880000Y-89570000D02*
X78880000Y-93810000D01*
X80000000Y-88920000D02*
X80000000Y-89570000D01*
X81120000Y-93810000D02*
X81120000Y-89570000D01*
X80000000Y-94460000D02*
X80000000Y-93810000D01*
X78880000Y-93810000D02*
X81120000Y-93810000D01*
X81120000Y-90290000D02*
X78880000Y-90290000D01*
X81120000Y-90170000D02*
X78880000Y-90170000D01*
X77620000Y-101290000D02*
X75380000Y-101290000D01*
X76500000Y-105460000D02*
X76500000Y-104810000D01*
X75380000Y-100570000D02*
X75380000Y-104810000D01*
X76500000Y-99920000D02*
X76500000Y-100570000D01*
X77620000Y-104810000D02*
X77620000Y-100570000D01*
X77620000Y-101410000D02*
X75380000Y-101410000D01*
X77620000Y-100570000D02*
X75380000Y-100570000D01*
X77620000Y-101170000D02*
X75380000Y-101170000D01*
X75380000Y-104810000D02*
X77620000Y-104810000D01*
X71880000Y-104210000D02*
X74120000Y-104210000D01*
X71880000Y-104090000D02*
X74120000Y-104090000D01*
X74120000Y-104810000D02*
X74120000Y-100570000D01*
X73000000Y-105460000D02*
X73000000Y-104810000D01*
X74120000Y-100570000D02*
X71880000Y-100570000D01*
X71880000Y-104810000D02*
X74120000Y-104810000D01*
X71880000Y-100570000D02*
X71880000Y-104810000D01*
X73000000Y-99920000D02*
X73000000Y-100570000D01*
X71880000Y-103970000D02*
X74120000Y-103970000D01*
X80000000Y-99920000D02*
X80000000Y-100570000D01*
X81120000Y-104810000D02*
X81120000Y-100570000D01*
X81120000Y-100570000D02*
X78880000Y-100570000D01*
X78880000Y-104810000D02*
X81120000Y-104810000D01*
X81120000Y-101410000D02*
X78880000Y-101410000D01*
X80000000Y-105460000D02*
X80000000Y-104810000D01*
X81120000Y-101170000D02*
X78880000Y-101170000D01*
X81120000Y-101290000D02*
X78880000Y-101290000D01*
X78880000Y-100570000D02*
X78880000Y-104810000D01*
X72620000Y-82130000D02*
X72620000Y-84870000D01*
X65380000Y-82130000D02*
X72620000Y-82130000D01*
X65380000Y-84870000D02*
X72620000Y-84870000D01*
X65380000Y-82130000D02*
X65380000Y-84870000D01*
X40870000Y-85770000D02*
X40870000Y-79230000D01*
X40870000Y-79230000D02*
X38130000Y-79230000D01*
X39500000Y-86540000D02*
X39500000Y-85770000D01*
X39500000Y-78460000D02*
X39500000Y-79230000D01*
X38130000Y-85770000D02*
X40870000Y-85770000D01*
X38130000Y-79230000D02*
X38130000Y-85770000D01*
X56130000Y-74650000D02*
X56130000Y-81190000D01*
X58870000Y-74650000D02*
X56130000Y-74650000D01*
X58870000Y-81190000D02*
X58870000Y-74650000D01*
X56130000Y-81190000D02*
X58870000Y-81190000D01*
X57500000Y-73880000D02*
X57500000Y-74650000D01*
X57500000Y-81960000D02*
X57500000Y-81190000D01*
X62370000Y-74730000D02*
X59630000Y-74730000D01*
X61000000Y-73960000D02*
X61000000Y-74730000D01*
X61000000Y-82040000D02*
X61000000Y-81270000D01*
X59630000Y-74730000D02*
X59630000Y-81270000D01*
X62370000Y-81270000D02*
X62370000Y-74730000D01*
X59630000Y-81270000D02*
X62370000Y-81270000D01*
X47490000Y-88530000D02*
X49140000Y-88530000D01*
X51630000Y-88590000D02*
X51630000Y-68030000D01*
X41350000Y-68030000D02*
X41350000Y-88590000D01*
X41350000Y-88590000D02*
X51630000Y-88590000D01*
X43840000Y-68090000D02*
X43840000Y-88530000D01*
X49140000Y-88530000D02*
X49140000Y-68090000D01*
X43840000Y-88530000D02*
X45490000Y-88530000D01*
X49140000Y-68090000D02*
X43840000Y-68090000D01*
X51630000Y-68030000D02*
X41350000Y-68030000D01*
X47490000Y-88530000D02*
G75*
G03*
X45490000Y-88530000I-1000000J0D01*
G01*
X34330000Y-70270000D02*
X34330000Y-83030000D01*
X34330000Y-67670000D02*
X34330000Y-69000000D01*
X33000000Y-67670000D02*
X34330000Y-67670000D01*
X31670000Y-70270000D02*
X34330000Y-70270000D01*
X31670000Y-70270000D02*
X31670000Y-83030000D01*
X31670000Y-83030000D02*
X34330000Y-83030000D01*
X39370000Y-68880000D02*
X36630000Y-68880000D01*
X39370000Y-68880000D02*
X39370000Y-76120000D01*
X39370000Y-76120000D02*
X36630000Y-76120000D01*
X36630000Y-68880000D02*
X36630000Y-76120000D01*
X36630000Y-132730000D02*
X36630000Y-139270000D01*
X36630000Y-139270000D02*
X39370000Y-139270000D01*
X38000000Y-131960000D02*
X38000000Y-132730000D01*
X39370000Y-139270000D02*
X39370000Y-132730000D01*
X38000000Y-140040000D02*
X38000000Y-139270000D01*
X39370000Y-132730000D02*
X36630000Y-132730000D01*
X42870000Y-139270000D02*
X42870000Y-132730000D01*
X41500000Y-131960000D02*
X41500000Y-132730000D01*
X41500000Y-140040000D02*
X41500000Y-139270000D01*
X40130000Y-139270000D02*
X42870000Y-139270000D01*
X40130000Y-132730000D02*
X40130000Y-139270000D01*
X42870000Y-132730000D02*
X40130000Y-132730000D01*
X36785888Y-98181000D02*
X36785888Y-100819000D01*
X35545888Y-100540000D02*
X35545888Y-101882000D01*
X35905888Y-100540000D02*
X35905888Y-101700000D01*
X36265888Y-97563000D02*
X36265888Y-98460000D01*
X35505888Y-100540000D02*
X35505888Y-101898000D01*
X35665888Y-100540000D02*
X35665888Y-101829000D01*
X36585888Y-97895000D02*
X36585888Y-101105000D01*
X36545888Y-100540000D02*
X36545888Y-101153000D01*
X35905888Y-97300000D02*
X35905888Y-98460000D01*
X34824888Y-96935000D02*
X34824888Y-98460000D01*
X34544888Y-100540000D02*
X34544888Y-102080000D01*
X35825888Y-100540000D02*
X35825888Y-101747000D01*
X36145888Y-100540000D02*
X36145888Y-101535000D01*
X36825888Y-98249000D02*
X36825888Y-100751000D01*
X31990113Y-97775000D02*
X31990113Y-98275000D01*
X36905888Y-98402000D02*
X36905888Y-100598000D01*
X36105888Y-100540000D02*
X36105888Y-101565000D01*
X34944888Y-100540000D02*
X34944888Y-102050000D01*
X36225888Y-100540000D02*
X36225888Y-101471000D01*
X36985888Y-98585000D02*
X36985888Y-100415000D01*
X35985888Y-100540000D02*
X35985888Y-101649000D01*
X34624888Y-96921000D02*
X34624888Y-98460000D01*
X36465888Y-100540000D02*
X36465888Y-101243000D01*
X36945888Y-98489000D02*
X36945888Y-100511000D01*
X36545888Y-97847000D02*
X36545888Y-98460000D01*
X36065888Y-97405000D02*
X36065888Y-98460000D01*
X36705888Y-98057000D02*
X36705888Y-100943000D01*
X36065888Y-100540000D02*
X36065888Y-101595000D01*
X35745888Y-100540000D02*
X35745888Y-101790000D01*
X35425888Y-97072000D02*
X35425888Y-98460000D01*
X34864888Y-100540000D02*
X34864888Y-102061000D01*
X35184888Y-100540000D02*
X35184888Y-102001000D01*
X37105888Y-98982000D02*
X37105888Y-100018000D01*
X34664888Y-96922000D02*
X34664888Y-98460000D01*
X35104888Y-100540000D02*
X35104888Y-102020000D01*
X36265888Y-100540000D02*
X36265888Y-101437000D01*
X34904888Y-96944000D02*
X34904888Y-98460000D01*
X35144888Y-96989000D02*
X35144888Y-98460000D01*
X35665888Y-97171000D02*
X35665888Y-98460000D01*
X35144888Y-100540000D02*
X35144888Y-102011000D01*
X35345888Y-100540000D02*
X35345888Y-101955000D01*
X35705888Y-100540000D02*
X35705888Y-101810000D01*
X35345888Y-97045000D02*
X35345888Y-98460000D01*
X35505888Y-97102000D02*
X35505888Y-98460000D01*
X36105888Y-97435000D02*
X36105888Y-98460000D01*
X36505888Y-97801000D02*
X36505888Y-98460000D01*
X36145888Y-97465000D02*
X36145888Y-98460000D01*
X34744888Y-100540000D02*
X34744888Y-102073000D01*
X35224888Y-100540000D02*
X35224888Y-101991000D01*
X35865888Y-100540000D02*
X35865888Y-101724000D01*
X35465888Y-100540000D02*
X35465888Y-101914000D01*
X36345888Y-97636000D02*
X36345888Y-98460000D01*
X37065888Y-98823000D02*
X37065888Y-100177000D01*
X35385888Y-100540000D02*
X35385888Y-101942000D01*
X35024888Y-96964000D02*
X35024888Y-98460000D01*
X35305888Y-100540000D02*
X35305888Y-101968000D01*
X34544888Y-96920000D02*
X34544888Y-98460000D01*
X35585888Y-97135000D02*
X35585888Y-98460000D01*
X36185888Y-97496000D02*
X36185888Y-98460000D01*
X35224888Y-97009000D02*
X35224888Y-98460000D01*
X35585888Y-100540000D02*
X35585888Y-101865000D01*
X36465888Y-97757000D02*
X36465888Y-98460000D01*
X36025888Y-97378000D02*
X36025888Y-98460000D01*
X35865888Y-97276000D02*
X35865888Y-98460000D01*
X34584888Y-100540000D02*
X34584888Y-102080000D01*
X35825888Y-97253000D02*
X35825888Y-98460000D01*
X35545888Y-97118000D02*
X35545888Y-98460000D01*
X36025888Y-100540000D02*
X36025888Y-101622000D01*
X35265888Y-100540000D02*
X35265888Y-101980000D01*
X35305888Y-97032000D02*
X35305888Y-98460000D01*
X34664888Y-100540000D02*
X34664888Y-102078000D01*
X36745888Y-98117000D02*
X36745888Y-100883000D01*
X34624888Y-100540000D02*
X34624888Y-102079000D01*
X35625888Y-97152000D02*
X35625888Y-98460000D01*
X36625888Y-97946000D02*
X36625888Y-101054000D01*
X36185888Y-100540000D02*
X36185888Y-101504000D01*
X35465888Y-97086000D02*
X35465888Y-98460000D01*
X34704888Y-100540000D02*
X34704888Y-102076000D01*
X36225888Y-97529000D02*
X36225888Y-98460000D01*
X34864888Y-96939000D02*
X34864888Y-98460000D01*
X35945888Y-100540000D02*
X35945888Y-101675000D01*
X37145888Y-99216000D02*
X37145888Y-99784000D01*
X35705888Y-97190000D02*
X35705888Y-98460000D01*
X35265888Y-97020000D02*
X35265888Y-98460000D01*
X34824888Y-100540000D02*
X34824888Y-102065000D01*
X35745888Y-97210000D02*
X35745888Y-98460000D01*
X35785888Y-100540000D02*
X35785888Y-101768000D01*
X34744888Y-96927000D02*
X34744888Y-98460000D01*
X36305888Y-100540000D02*
X36305888Y-101401000D01*
X35064888Y-100540000D02*
X35064888Y-102028000D01*
X35945888Y-97325000D02*
X35945888Y-98460000D01*
X35625888Y-100540000D02*
X35625888Y-101848000D01*
X34944888Y-96950000D02*
X34944888Y-98460000D01*
X35425888Y-100540000D02*
X35425888Y-101928000D01*
X34904888Y-100540000D02*
X34904888Y-102056000D01*
X36425888Y-100540000D02*
X36425888Y-101285000D01*
X36305888Y-97599000D02*
X36305888Y-98460000D01*
X31740113Y-98025000D02*
X32240113Y-98025000D01*
X34784888Y-96931000D02*
X34784888Y-98460000D01*
X35024888Y-100540000D02*
X35024888Y-102036000D01*
X36345888Y-100540000D02*
X36345888Y-101364000D01*
X35985888Y-97351000D02*
X35985888Y-98460000D01*
X34784888Y-100540000D02*
X34784888Y-102069000D01*
X34984888Y-100540000D02*
X34984888Y-102043000D01*
X35184888Y-96999000D02*
X35184888Y-98460000D01*
X34984888Y-96957000D02*
X34984888Y-98460000D01*
X36665888Y-98000000D02*
X36665888Y-101000000D01*
X35385888Y-97058000D02*
X35385888Y-98460000D01*
X34584888Y-96920000D02*
X34584888Y-98460000D01*
X36385888Y-100540000D02*
X36385888Y-101326000D01*
X35785888Y-97232000D02*
X35785888Y-98460000D01*
X35064888Y-96972000D02*
X35064888Y-98460000D01*
X36505888Y-100540000D02*
X36505888Y-101199000D01*
X36385888Y-97674000D02*
X36385888Y-98460000D01*
X35104888Y-96980000D02*
X35104888Y-98460000D01*
X36425888Y-97715000D02*
X36425888Y-98460000D01*
X34704888Y-96924000D02*
X34704888Y-98460000D01*
X36865888Y-98322000D02*
X36865888Y-100678000D01*
X37025888Y-98695000D02*
X37025888Y-100305000D01*
X37164888Y-99500000D02*
G75*
G03*
X37164888Y-99500000I-2620000J0D01*
G01*
X36044888Y-94040000D02*
X36044888Y-95580000D01*
X37045888Y-94040000D02*
X37045888Y-95382000D01*
X37285888Y-94040000D02*
X37285888Y-95268000D01*
X36925888Y-94040000D02*
X36925888Y-95428000D01*
X36364888Y-90439000D02*
X36364888Y-91960000D01*
X33240113Y-91525000D02*
X33740113Y-91525000D01*
X36965888Y-90586000D02*
X36965888Y-91960000D01*
X36604888Y-94040000D02*
X36604888Y-95520000D01*
X37085888Y-90635000D02*
X37085888Y-91960000D01*
X36404888Y-90444000D02*
X36404888Y-91960000D01*
X37765888Y-94040000D02*
X37765888Y-94937000D01*
X37645888Y-94040000D02*
X37645888Y-95035000D01*
X36444888Y-90450000D02*
X36444888Y-91960000D01*
X37565888Y-94040000D02*
X37565888Y-95095000D01*
X37365888Y-90776000D02*
X37365888Y-91960000D01*
X37245888Y-90710000D02*
X37245888Y-91960000D01*
X38405888Y-91902000D02*
X38405888Y-94098000D01*
X37685888Y-94040000D02*
X37685888Y-95004000D01*
X33490113Y-91275000D02*
X33490113Y-91775000D01*
X36644888Y-94040000D02*
X36644888Y-95511000D01*
X37485888Y-90851000D02*
X37485888Y-91960000D01*
X37925888Y-91215000D02*
X37925888Y-91960000D01*
X36564888Y-90472000D02*
X36564888Y-91960000D01*
X36284888Y-94040000D02*
X36284888Y-95569000D01*
X36965888Y-94040000D02*
X36965888Y-95414000D01*
X36404888Y-94040000D02*
X36404888Y-95556000D01*
X38045888Y-91347000D02*
X38045888Y-91960000D01*
X36524888Y-94040000D02*
X36524888Y-95536000D01*
X37605888Y-94040000D02*
X37605888Y-95065000D01*
X37005888Y-90602000D02*
X37005888Y-91960000D01*
X37485888Y-94040000D02*
X37485888Y-95149000D01*
X36124888Y-90421000D02*
X36124888Y-91960000D01*
X37005888Y-94040000D02*
X37005888Y-95398000D01*
X37805888Y-94040000D02*
X37805888Y-94901000D01*
X38365888Y-91822000D02*
X38365888Y-94178000D01*
X37445888Y-94040000D02*
X37445888Y-95175000D01*
X36765888Y-94040000D02*
X36765888Y-95480000D01*
X36244888Y-94040000D02*
X36244888Y-95573000D01*
X38325888Y-91749000D02*
X38325888Y-94251000D01*
X37365888Y-94040000D02*
X37365888Y-95224000D01*
X36364888Y-94040000D02*
X36364888Y-95561000D01*
X36684888Y-90499000D02*
X36684888Y-91960000D01*
X37165888Y-90671000D02*
X37165888Y-91960000D01*
X36484888Y-94040000D02*
X36484888Y-95543000D01*
X36164888Y-94040000D02*
X36164888Y-95578000D01*
X36724888Y-94040000D02*
X36724888Y-95491000D01*
X38045888Y-94040000D02*
X38045888Y-94653000D01*
X38525888Y-92195000D02*
X38525888Y-93805000D01*
X36124888Y-94040000D02*
X36124888Y-95579000D01*
X38005888Y-91301000D02*
X38005888Y-91960000D01*
X36885888Y-90558000D02*
X36885888Y-91960000D01*
X37725888Y-91029000D02*
X37725888Y-91960000D01*
X36805888Y-94040000D02*
X36805888Y-95468000D01*
X37205888Y-94040000D02*
X37205888Y-95310000D01*
X36644888Y-90489000D02*
X36644888Y-91960000D01*
X38565888Y-92323000D02*
X38565888Y-93677000D01*
X36724888Y-90509000D02*
X36724888Y-91960000D01*
X38245888Y-91617000D02*
X38245888Y-94383000D01*
X38165888Y-91500000D02*
X38165888Y-94500000D01*
X37045888Y-90618000D02*
X37045888Y-91960000D01*
X37125888Y-94040000D02*
X37125888Y-95348000D01*
X38125888Y-91446000D02*
X38125888Y-94554000D01*
X37965888Y-94040000D02*
X37965888Y-94743000D01*
X36084888Y-94040000D02*
X36084888Y-95580000D01*
X37085888Y-94040000D02*
X37085888Y-95365000D01*
X38005888Y-94040000D02*
X38005888Y-94699000D01*
X37925888Y-94040000D02*
X37925888Y-94785000D01*
X37325888Y-90753000D02*
X37325888Y-91960000D01*
X38205888Y-91557000D02*
X38205888Y-94443000D01*
X37445888Y-90825000D02*
X37445888Y-91960000D01*
X36044888Y-90420000D02*
X36044888Y-91960000D01*
X37525888Y-94040000D02*
X37525888Y-95122000D01*
X36765888Y-90520000D02*
X36765888Y-91960000D01*
X37885888Y-94040000D02*
X37885888Y-94826000D01*
X37325888Y-94040000D02*
X37325888Y-95247000D01*
X36564888Y-94040000D02*
X36564888Y-95528000D01*
X37285888Y-90732000D02*
X37285888Y-91960000D01*
X36684888Y-94040000D02*
X36684888Y-95501000D01*
X36284888Y-90431000D02*
X36284888Y-91960000D01*
X38285888Y-91681000D02*
X38285888Y-94319000D01*
X36484888Y-90457000D02*
X36484888Y-91960000D01*
X36524888Y-90464000D02*
X36524888Y-91960000D01*
X38645888Y-92716000D02*
X38645888Y-93284000D01*
X36885888Y-94040000D02*
X36885888Y-95442000D01*
X36324888Y-94040000D02*
X36324888Y-95565000D01*
X37805888Y-91099000D02*
X37805888Y-91960000D01*
X36925888Y-90572000D02*
X36925888Y-91960000D01*
X38445888Y-91989000D02*
X38445888Y-94011000D01*
X37565888Y-90905000D02*
X37565888Y-91960000D01*
X36084888Y-90420000D02*
X36084888Y-91960000D01*
X37885888Y-91174000D02*
X37885888Y-91960000D01*
X36444888Y-94040000D02*
X36444888Y-95550000D01*
X36845888Y-90545000D02*
X36845888Y-91960000D01*
X36164888Y-90422000D02*
X36164888Y-91960000D01*
X37965888Y-91257000D02*
X37965888Y-91960000D01*
X37525888Y-90878000D02*
X37525888Y-91960000D01*
X37645888Y-90965000D02*
X37645888Y-91960000D01*
X37405888Y-90800000D02*
X37405888Y-91960000D01*
X38605888Y-92482000D02*
X38605888Y-93518000D01*
X36204888Y-90424000D02*
X36204888Y-91960000D01*
X37165888Y-94040000D02*
X37165888Y-95329000D01*
X36845888Y-94040000D02*
X36845888Y-95455000D01*
X36805888Y-90532000D02*
X36805888Y-91960000D01*
X36244888Y-90427000D02*
X36244888Y-91960000D01*
X37685888Y-90996000D02*
X37685888Y-91960000D01*
X37605888Y-90935000D02*
X37605888Y-91960000D01*
X36204888Y-94040000D02*
X36204888Y-95576000D01*
X37205888Y-90690000D02*
X37205888Y-91960000D01*
X37845888Y-91136000D02*
X37845888Y-91960000D01*
X37725888Y-94040000D02*
X37725888Y-94971000D01*
X36604888Y-90480000D02*
X36604888Y-91960000D01*
X36324888Y-90435000D02*
X36324888Y-91960000D01*
X38085888Y-91395000D02*
X38085888Y-94605000D01*
X37765888Y-91063000D02*
X37765888Y-91960000D01*
X37125888Y-90652000D02*
X37125888Y-91960000D01*
X37245888Y-94040000D02*
X37245888Y-95290000D01*
X38485888Y-92085000D02*
X38485888Y-93915000D01*
X37405888Y-94040000D02*
X37405888Y-95200000D01*
X37845888Y-94040000D02*
X37845888Y-94864000D01*
X38664888Y-93000000D02*
G75*
G03*
X38664888Y-93000000I-2620000J0D01*
G01*
%LPC*%
D12*
X66500000Y-89000000D03*
D13*
X68500000Y-89000000D03*
D12*
X68455113Y-95500000D03*
D13*
X66455113Y-95500000D03*
X87000000Y-60500000D03*
X87000000Y-65500000D03*
D12*
X45000000Y-61500000D03*
D13*
X47000000Y-61500000D03*
X69500000Y-107500000D03*
X64500000Y-107500000D03*
X34000000Y-113000000D03*
X34000000Y-118000000D03*
D12*
X81500000Y-38880000D03*
D14*
X81500000Y-46500000D03*
D12*
X81500000Y-58000000D03*
D14*
X81500000Y-50380000D03*
D12*
X78000000Y-46500000D03*
D14*
X78000000Y-38880000D03*
D12*
X78000000Y-50380000D03*
D14*
X78000000Y-58000000D03*
D12*
X74500000Y-46500000D03*
D14*
X74500000Y-38880000D03*
D12*
X74500000Y-58000000D03*
D14*
X74500000Y-50380000D03*
D15*
X87000000Y-69000000D03*
D16*
X87000000Y-71540000D03*
X87000000Y-74080000D03*
X87000000Y-76620000D03*
X87000000Y-79160000D03*
X87000000Y-81700000D03*
D15*
X33000000Y-130000000D03*
D16*
X33000000Y-132540000D03*
X33000000Y-135080000D03*
X33000000Y-137620000D03*
X33000000Y-140160000D03*
X33000000Y-142700000D03*
D17*
X71000000Y-75270000D03*
D18*
X71000000Y-74000000D03*
X71000000Y-72730000D03*
D17*
X65140000Y-72730000D03*
D18*
X65140000Y-74000000D03*
X65140000Y-75270000D03*
D17*
X57360000Y-121770000D03*
D18*
X57360000Y-120500000D03*
X57360000Y-119230000D03*
D13*
X57500000Y-59840000D03*
D14*
X57500000Y-70000000D03*
D13*
X36400000Y-77420000D03*
D14*
X36400000Y-87580000D03*
D13*
X54000000Y-72840000D03*
D14*
X54000000Y-83000000D03*
D13*
X54000000Y-70000000D03*
D14*
X54000000Y-59840000D03*
D13*
X61000000Y-70000000D03*
D14*
X61000000Y-59840000D03*
D13*
X74080000Y-80000000D03*
D14*
X63920000Y-80000000D03*
D13*
X51080000Y-66000000D03*
D14*
X40920000Y-66000000D03*
D13*
X51080000Y-49500000D03*
D14*
X40920000Y-49500000D03*
D13*
X51080000Y-56500000D03*
D14*
X40920000Y-56500000D03*
D13*
X40920000Y-53000000D03*
D14*
X51080000Y-53000000D03*
D13*
X70000000Y-38920000D03*
D14*
X70000000Y-49080000D03*
D13*
X60500000Y-137080000D03*
D14*
X60500000Y-126920000D03*
D13*
X51000000Y-109080000D03*
D14*
X51000000Y-98920000D03*
D13*
X57000000Y-126920000D03*
D14*
X57000000Y-137080000D03*
D13*
X58000000Y-102420000D03*
D14*
X58000000Y-112580000D03*
D13*
X77920000Y-122500000D03*
D14*
X88080000Y-122500000D03*
D13*
X64000000Y-137080000D03*
D14*
X64000000Y-126920000D03*
D13*
X54500000Y-102420000D03*
D14*
X54500000Y-112580000D03*
D13*
X53500000Y-137080000D03*
D14*
X53500000Y-126920000D03*
D13*
X46500000Y-137080000D03*
D14*
X46500000Y-126920000D03*
D13*
X50000000Y-137080000D03*
D14*
X50000000Y-126920000D03*
D13*
X50000000Y-124580000D03*
D14*
X50000000Y-114420000D03*
D13*
X61500000Y-102420000D03*
D14*
X61500000Y-112580000D03*
D13*
X73000000Y-119580000D03*
D14*
X73000000Y-109420000D03*
D12*
X39200000Y-101600000D03*
D14*
X39200000Y-104140000D03*
X39200000Y-106680000D03*
X39200000Y-109220000D03*
X39200000Y-111760000D03*
X39200000Y-114300000D03*
X39200000Y-116840000D03*
X39200000Y-119380000D03*
X46820000Y-119380000D03*
X46820000Y-116840000D03*
X46820000Y-114300000D03*
X46820000Y-111760000D03*
X46820000Y-109220000D03*
X46820000Y-106680000D03*
X46820000Y-104140000D03*
X46820000Y-101600000D03*
D12*
X78200000Y-111200000D03*
D14*
X78200000Y-113740000D03*
X78200000Y-116280000D03*
X78200000Y-118820000D03*
X85820000Y-118820000D03*
X85820000Y-116280000D03*
X85820000Y-113740000D03*
X85820000Y-111200000D03*
D15*
X87000000Y-130000000D03*
D16*
X87000000Y-132540000D03*
X87000000Y-135080000D03*
X87000000Y-137620000D03*
X87000000Y-140160000D03*
X87000000Y-142700000D03*
D13*
X70500000Y-70080000D03*
D14*
X70500000Y-59920000D03*
D12*
X33544888Y-123000000D03*
D13*
X35544888Y-123000000D03*
D12*
X74200000Y-61200000D03*
D14*
X74200000Y-63740000D03*
X74200000Y-66280000D03*
X74200000Y-68820000D03*
X81820000Y-68820000D03*
X81820000Y-66280000D03*
X81820000Y-63740000D03*
X81820000Y-61200000D03*
D17*
X63000000Y-121770000D03*
D18*
X63000000Y-120500000D03*
X63000000Y-119230000D03*
D13*
X64500000Y-103000000D03*
X69500000Y-103000000D03*
D12*
X73000000Y-95500000D03*
D14*
X73000000Y-87880000D03*
D12*
X76500000Y-87880000D03*
D14*
X76500000Y-95500000D03*
D12*
X80000000Y-87880000D03*
D14*
X80000000Y-95500000D03*
D12*
X76500000Y-98880000D03*
D14*
X76500000Y-106500000D03*
D12*
X73000000Y-106500000D03*
D14*
X73000000Y-98880000D03*
D12*
X80000000Y-98880000D03*
D14*
X80000000Y-106500000D03*
D13*
X66500000Y-83500000D03*
X71500000Y-83500000D03*
X39500000Y-77420000D03*
D14*
X39500000Y-87580000D03*
D13*
X57500000Y-83000000D03*
D14*
X57500000Y-72840000D03*
D13*
X61000000Y-72920000D03*
D14*
X61000000Y-83080000D03*
D12*
X50300000Y-87200000D03*
D14*
X50300000Y-84660000D03*
X50300000Y-82120000D03*
X50300000Y-79580000D03*
X50300000Y-77040000D03*
X50300000Y-74500000D03*
X50300000Y-71960000D03*
X50300000Y-69420000D03*
X42680000Y-69420000D03*
X42680000Y-71960000D03*
X42680000Y-74500000D03*
X42680000Y-77040000D03*
X42680000Y-79580000D03*
X42680000Y-82120000D03*
X42680000Y-84660000D03*
X42680000Y-87200000D03*
D15*
X33000000Y-69000000D03*
D16*
X33000000Y-71540000D03*
X33000000Y-74080000D03*
X33000000Y-76620000D03*
X33000000Y-79160000D03*
X33000000Y-81700000D03*
D13*
X38000000Y-70000000D03*
X38000000Y-75000000D03*
X38000000Y-141080000D03*
D14*
X38000000Y-130920000D03*
D13*
X41500000Y-141080000D03*
D14*
X41500000Y-130920000D03*
D12*
X33544888Y-99500000D03*
D13*
X35544888Y-99500000D03*
D12*
X35044888Y-93000000D03*
D13*
X37044888Y-93000000D03*
D19*
X57000000Y-99850000D03*
D20*
X57000000Y-87150000D03*
D15*
X41925000Y-93225000D03*
D16*
X41925000Y-95765000D03*
X44465000Y-93225000D03*
X44465000Y-95765000D03*
X47005000Y-93225000D03*
X47005000Y-95765000D03*
X49545000Y-93225000D03*
X49545000Y-95765000D03*
X52085000Y-93225000D03*
X52085000Y-95765000D03*
D21*
X86080000Y-45080000D03*
X86080000Y-42540000D03*
X86080000Y-40000000D03*
X86000000Y-56580000D03*
X86000000Y-54040000D03*
X86000000Y-51500000D03*
D19*
X62000000Y-87150000D03*
D20*
X62000000Y-99850000D03*
D21*
X86000000Y-100500000D03*
X86000000Y-103040000D03*
X86000000Y-105580000D03*
X86000000Y-89500000D03*
X86000000Y-92040000D03*
X86000000Y-94580000D03*
M02*
