%FSLAX45Y45*%
G04 Gerber Fmt 4.5, Leading zero omitted, Abs format (unit mm)*
G04 Created by KiCad (PCBNEW (5.1.9)-1) date 2021-10-01 14:40:11*
%MOMM*%
%LPD*%
G01*
G04 APERTURE LIST*
%TA.AperFunction,Profile*%
%ADD10C,0.050000*%
%TD*%
%ADD11C,0.200000*%
%ADD12C,0.300000*%
G04 APERTURE END LIST*
D10*
X7000000Y-3100000D02*
X7000000Y-15200000D01*
X3000000Y-15200000D02*
X7000000Y-15200000D01*
X3000000Y-3100000D02*
X7000000Y-3100000D01*
X3000000Y-3100000D02*
X3000000Y-15200000D01*
D11*
D12*
X3283928Y-15668214D02*
X3283928Y-15368214D01*
X3355357Y-15368214D01*
X3398214Y-15382500D01*
X3426786Y-15411071D01*
X3441071Y-15439643D01*
X3455357Y-15496786D01*
X3455357Y-15539643D01*
X3441071Y-15596786D01*
X3426786Y-15625357D01*
X3398214Y-15653929D01*
X3355357Y-15668214D01*
X3283928Y-15668214D01*
X3583928Y-15668214D02*
X3583928Y-15468214D01*
X3583928Y-15525357D02*
X3598214Y-15496786D01*
X3612500Y-15482500D01*
X3641071Y-15468214D01*
X3669643Y-15468214D01*
X3769643Y-15668214D02*
X3769643Y-15468214D01*
X3769643Y-15368214D02*
X3755357Y-15382500D01*
X3769643Y-15396786D01*
X3783928Y-15382500D01*
X3769643Y-15368214D01*
X3769643Y-15396786D01*
X3955357Y-15668214D02*
X3926786Y-15653929D01*
X3912500Y-15625357D01*
X3912500Y-15368214D01*
X4112500Y-15668214D02*
X4083928Y-15653929D01*
X4069643Y-15625357D01*
X4069643Y-15368214D01*
X4455357Y-15668214D02*
X4455357Y-15368214D01*
X4555357Y-15582500D01*
X4655357Y-15368214D01*
X4655357Y-15668214D01*
X4926786Y-15668214D02*
X4926786Y-15511071D01*
X4912500Y-15482500D01*
X4883928Y-15468214D01*
X4826786Y-15468214D01*
X4798214Y-15482500D01*
X4926786Y-15653929D02*
X4898214Y-15668214D01*
X4826786Y-15668214D01*
X4798214Y-15653929D01*
X4783928Y-15625357D01*
X4783928Y-15596786D01*
X4798214Y-15568214D01*
X4826786Y-15553929D01*
X4898214Y-15553929D01*
X4926786Y-15539643D01*
X5069643Y-15468214D02*
X5069643Y-15768214D01*
X5069643Y-15482500D02*
X5098214Y-15468214D01*
X5155357Y-15468214D01*
X5183928Y-15482500D01*
X5198214Y-15496786D01*
X5212500Y-15525357D01*
X5212500Y-15611071D01*
X5198214Y-15639643D01*
X5183928Y-15653929D01*
X5155357Y-15668214D01*
X5098214Y-15668214D01*
X5069643Y-15653929D01*
X5341071Y-15639643D02*
X5355357Y-15653929D01*
X5341071Y-15668214D01*
X5326786Y-15653929D01*
X5341071Y-15639643D01*
X5341071Y-15668214D01*
X5341071Y-15482500D02*
X5355357Y-15496786D01*
X5341071Y-15511071D01*
X5326786Y-15496786D01*
X5341071Y-15482500D01*
X5341071Y-15511071D01*
M02*
