G04 #@! TF.GenerationSoftware,KiCad,Pcbnew,(6.0.0)*
G04 #@! TF.CreationDate,2022-07-06T19:49:16+01:00*
G04 #@! TF.ProjectId,Basic-mixer,42617369-632d-46d6-9978-65722e6b6963,rev?*
G04 #@! TF.SameCoordinates,Original*
G04 #@! TF.FileFunction,Soldermask,Bot*
G04 #@! TF.FilePolarity,Negative*
%FSLAX46Y46*%
G04 Gerber Fmt 4.6, Leading zero omitted, Abs format (unit mm)*
G04 Created by KiCad (PCBNEW (6.0.0)) date 2022-07-06 19:49:16*
%MOMM*%
%LPD*%
G01*
G04 APERTURE LIST*
G04 #@! TA.AperFunction,Profile*
%ADD10C,0.050000*%
G04 #@! TD*
%ADD11C,1.600000*%
%ADD12O,1.600000X1.600000*%
%ADD13R,1.800000X1.800000*%
%ADD14C,1.800000*%
%ADD15O,3.700000X2.400000*%
%ADD16R,1.600000X1.600000*%
%ADD17C,4.000000*%
%ADD18R,1.700000X1.700000*%
%ADD19O,1.700000X1.700000*%
%ADD20R,1.930000X1.830000*%
%ADD21C,2.130000*%
G04 APERTURE END LIST*
D10*
X104999998Y-51000000D02*
X104999999Y-161000000D01*
X64999999Y-161000000D02*
X104999999Y-161000000D01*
X64999999Y-51000000D02*
X104999998Y-51000000D01*
X64999999Y-51000000D02*
X64999999Y-161000000D01*
D11*
X103079999Y-138500000D03*
D12*
X92919999Y-138500000D03*
D13*
X80224999Y-92500000D03*
D14*
X82764999Y-92500000D03*
D11*
X79419999Y-143000000D03*
D12*
X89579999Y-143000000D03*
D15*
X79099999Y-122800000D03*
X79099999Y-127500000D03*
X79099999Y-132200000D03*
X83899999Y-122800000D03*
X83899999Y-127500000D03*
X83899999Y-132200000D03*
D16*
X67044887Y-140500000D03*
D11*
X69044887Y-140500000D03*
D17*
X100399999Y-128050000D03*
X91599999Y-128050000D03*
D14*
X98499999Y-135050000D03*
X95999999Y-135050000D03*
X93499999Y-135050000D03*
D17*
X100399999Y-105550000D03*
X91599999Y-105550000D03*
D14*
X98499999Y-112550000D03*
X95999999Y-112550000D03*
X93499999Y-112550000D03*
D11*
X66919999Y-68500000D03*
D12*
X77079999Y-68500000D03*
D17*
X100399999Y-83050000D03*
X91599999Y-83050000D03*
D14*
X98499999Y-90050000D03*
X95999999Y-90050000D03*
X93499999Y-90050000D03*
D18*
X78924999Y-155725000D03*
D19*
X78924999Y-158265000D03*
X81464999Y-155725000D03*
X81464999Y-158265000D03*
X84004999Y-155725000D03*
X84004999Y-158265000D03*
X86544999Y-155725000D03*
X86544999Y-158265000D03*
X89084999Y-155725000D03*
X89084999Y-158265000D03*
D20*
X95999999Y-142000000D03*
D21*
X95999999Y-153400000D03*
X95999999Y-145100000D03*
D16*
X67699999Y-152800000D03*
D12*
X70239999Y-152800000D03*
X72779999Y-152800000D03*
X75319999Y-152800000D03*
X75319999Y-145180000D03*
X72779999Y-145180000D03*
X70239999Y-145180000D03*
X67699999Y-145180000D03*
D20*
X70499999Y-98500000D03*
D21*
X70499999Y-109900000D03*
X70499999Y-101600000D03*
D13*
X80224999Y-70000000D03*
D14*
X82764999Y-70000000D03*
D20*
X70499999Y-53500000D03*
D21*
X70499999Y-64900000D03*
X70499999Y-56600000D03*
D16*
X88455111Y-138500000D03*
D11*
X86455111Y-138500000D03*
D13*
X80224999Y-115000000D03*
D14*
X82764999Y-115000000D03*
D11*
X66919999Y-136000000D03*
D12*
X77079999Y-136000000D03*
D11*
X89579999Y-146500000D03*
D12*
X79419999Y-146500000D03*
D11*
X66919999Y-113500000D03*
D12*
X77079999Y-113500000D03*
D15*
X79099999Y-100300000D03*
X79099999Y-105000000D03*
X79099999Y-109700000D03*
X83899999Y-100300000D03*
X83899999Y-105000000D03*
X83899999Y-109700000D03*
X79099999Y-77800000D03*
X79099999Y-82500000D03*
X79099999Y-87200000D03*
X83899999Y-77800000D03*
X83899999Y-82500000D03*
X83899999Y-87200000D03*
D20*
X70499999Y-76000000D03*
D21*
X70499999Y-87400000D03*
X70499999Y-79100000D03*
D11*
X103079999Y-71000000D03*
D12*
X92919999Y-71000000D03*
D11*
X79419999Y-150000000D03*
D12*
X89579999Y-150000000D03*
D11*
X103079999Y-93500000D03*
D12*
X92919999Y-93500000D03*
D13*
X80224999Y-137500000D03*
D14*
X82764999Y-137500000D03*
D17*
X91599999Y-60550000D03*
X100399999Y-60550000D03*
D14*
X98499999Y-67550000D03*
X95999999Y-67550000D03*
X93499999Y-67550000D03*
D16*
X101999999Y-157044887D03*
D11*
X101999999Y-159044887D03*
D15*
X79099999Y-55300000D03*
X79099999Y-60000000D03*
X79099999Y-64700000D03*
X83899999Y-55300000D03*
X83899999Y-60000000D03*
X83899999Y-64700000D03*
D11*
X66919999Y-91000000D03*
D12*
X77079999Y-91000000D03*
D16*
X71499999Y-157500000D03*
D11*
X73499999Y-157500000D03*
D16*
X88455111Y-93500000D03*
D11*
X86455111Y-93500000D03*
D16*
X88455112Y-71000000D03*
D11*
X86455112Y-71000000D03*
D20*
X70499999Y-121000000D03*
D21*
X70499999Y-132400000D03*
X70499999Y-124100000D03*
D11*
X103079999Y-116000000D03*
D12*
X92919999Y-116000000D03*
D16*
X88499999Y-116000000D03*
D11*
X86499999Y-116000000D03*
M02*
