%FSLAX45Y45*%
G04 Gerber Fmt 4.5, Leading zero omitted, Abs format (unit mm)*
G04 Created by KiCad (PCBNEW (6.0.0)) date 2022-07-06 19:49:20*
%MOMM*%
%LPD*%
G01*
G04 APERTURE LIST*
%TA.AperFunction,Profile*%
%ADD10C,0.050000*%
%TD*%
%ADD11C,0.200000*%
%ADD12C,0.080000*%
%ADD13C,0.090000*%
%ADD14C,0.100000*%
%ADD15C,0.122000*%
%ADD16C,0.142000*%
%ADD17C,0.143000*%
G04 APERTURE END LIST*
D10*
X10500000Y-5100000D02*
X10500000Y-16100000D01*
X6500000Y-16100000D02*
X10500000Y-16100000D01*
X6500000Y-5100000D02*
X10500000Y-5100000D01*
X6500000Y-5100000D02*
X6500000Y-16100000D01*
D11*
D12*
X6652000Y-6810000D02*
X6732000Y-6890000D01*
X6732000Y-6810000D02*
X6652000Y-6890000D01*
X6652000Y-9060000D02*
X6732000Y-9140000D01*
X6732000Y-9060000D02*
X6652000Y-9140000D01*
X6652000Y-11310000D02*
X6732000Y-11390000D01*
X6732000Y-11310000D02*
X6652000Y-11390000D01*
X6652000Y-13560000D02*
X6732000Y-13640000D01*
X6732000Y-13560000D02*
X6652000Y-13640000D01*
X6664489Y-14010000D02*
X6744489Y-14090000D01*
X6744489Y-14010000D02*
X6664489Y-14090000D01*
X6730000Y-14478000D02*
X6810000Y-14558000D01*
X6810000Y-14478000D02*
X6730000Y-14558000D01*
X6730000Y-15240000D02*
X6810000Y-15320000D01*
X6810000Y-15240000D02*
X6730000Y-15320000D01*
X6864489Y-14010000D02*
X6944489Y-14090000D01*
X6944489Y-14010000D02*
X6864489Y-14090000D01*
X6984000Y-14478000D02*
X7064000Y-14558000D01*
X7064000Y-14478000D02*
X6984000Y-14558000D01*
X6984000Y-15240000D02*
X7064000Y-15320000D01*
X7064000Y-15240000D02*
X6984000Y-15320000D01*
X7110000Y-15710000D02*
X7190000Y-15790000D01*
X7190000Y-15710000D02*
X7110000Y-15790000D01*
X7238000Y-14478000D02*
X7318000Y-14558000D01*
X7318000Y-14478000D02*
X7238000Y-14558000D01*
X7238000Y-15240000D02*
X7318000Y-15320000D01*
X7318000Y-15240000D02*
X7238000Y-15320000D01*
X7310000Y-15710000D02*
X7390000Y-15790000D01*
X7390000Y-15710000D02*
X7310000Y-15790000D01*
X7492000Y-14478000D02*
X7572000Y-14558000D01*
X7572000Y-14478000D02*
X7492000Y-14558000D01*
X7492000Y-15240000D02*
X7572000Y-15320000D01*
X7572000Y-15240000D02*
X7492000Y-15320000D01*
X7668000Y-6810000D02*
X7748000Y-6890000D01*
X7748000Y-6810000D02*
X7668000Y-6890000D01*
X7668000Y-9060000D02*
X7748000Y-9140000D01*
X7748000Y-9060000D02*
X7668000Y-9140000D01*
X7668000Y-11310000D02*
X7748000Y-11390000D01*
X7748000Y-11310000D02*
X7668000Y-11390000D01*
X7668000Y-13560000D02*
X7748000Y-13640000D01*
X7748000Y-13560000D02*
X7668000Y-13640000D01*
X7902000Y-14260000D02*
X7982000Y-14340000D01*
X7982000Y-14260000D02*
X7902000Y-14340000D01*
X7902000Y-14610000D02*
X7982000Y-14690000D01*
X7982000Y-14610000D02*
X7902000Y-14690000D01*
X7902000Y-14960000D02*
X7982000Y-15040000D01*
X7982000Y-14960000D02*
X7902000Y-15040000D01*
X8605511Y-9310000D02*
X8685511Y-9390000D01*
X8685511Y-9310000D02*
X8605511Y-9390000D01*
X8605511Y-13810000D02*
X8685511Y-13890000D01*
X8685511Y-13810000D02*
X8605511Y-13890000D01*
X8605511Y-7060000D02*
X8685511Y-7140000D01*
X8685511Y-7060000D02*
X8605511Y-7140000D01*
X8610000Y-11560000D02*
X8690000Y-11640000D01*
X8690000Y-11560000D02*
X8610000Y-11640000D01*
X8805511Y-9310000D02*
X8885511Y-9390000D01*
X8885511Y-9310000D02*
X8805511Y-9390000D01*
X8805511Y-13810000D02*
X8885511Y-13890000D01*
X8885511Y-13810000D02*
X8805511Y-13890000D01*
X8805511Y-7060000D02*
X8885511Y-7140000D01*
X8885511Y-7060000D02*
X8805511Y-7140000D01*
X8810000Y-11560000D02*
X8890000Y-11640000D01*
X8890000Y-11560000D02*
X8810000Y-11640000D01*
X8918000Y-14260000D02*
X8998000Y-14340000D01*
X8998000Y-14260000D02*
X8918000Y-14340000D01*
X8918000Y-14610000D02*
X8998000Y-14690000D01*
X8998000Y-14610000D02*
X8918000Y-14690000D01*
X8918000Y-14960000D02*
X8998000Y-15040000D01*
X8998000Y-14960000D02*
X8918000Y-15040000D01*
X9252000Y-7060000D02*
X9332000Y-7140000D01*
X9332000Y-7060000D02*
X9252000Y-7140000D01*
X9252000Y-9310000D02*
X9332000Y-9390000D01*
X9332000Y-9310000D02*
X9252000Y-9390000D01*
X9252000Y-11560000D02*
X9332000Y-11640000D01*
X9332000Y-11560000D02*
X9252000Y-11640000D01*
X9252000Y-13810000D02*
X9332000Y-13890000D01*
X9332000Y-13810000D02*
X9252000Y-13890000D01*
X10160000Y-15664489D02*
X10240000Y-15744489D01*
X10240000Y-15664489D02*
X10160000Y-15744489D01*
X10160000Y-15864489D02*
X10240000Y-15944489D01*
X10240000Y-15864489D02*
X10160000Y-15944489D01*
X10268000Y-7060000D02*
X10348000Y-7140000D01*
X10348000Y-7060000D02*
X10268000Y-7140000D01*
X10268000Y-9310000D02*
X10348000Y-9390000D01*
X10348000Y-9310000D02*
X10268000Y-9390000D01*
X10268000Y-11560000D02*
X10348000Y-11640000D01*
X10348000Y-11560000D02*
X10268000Y-11640000D01*
X10268000Y-13810000D02*
X10348000Y-13890000D01*
X10348000Y-13810000D02*
X10268000Y-13890000D01*
D13*
X8067500Y-7000000D02*
G75*
G03*
X8067500Y-7000000I-45000J0D01*
G01*
X8067500Y-9250000D02*
G75*
G03*
X8067500Y-9250000I-45000J0D01*
G01*
X8067500Y-11500000D02*
G75*
G03*
X8067500Y-11500000I-45000J0D01*
G01*
X8067500Y-13750000D02*
G75*
G03*
X8067500Y-13750000I-45000J0D01*
G01*
X8321500Y-7000000D02*
G75*
G03*
X8321500Y-7000000I-45000J0D01*
G01*
X8321500Y-9250000D02*
G75*
G03*
X8321500Y-9250000I-45000J0D01*
G01*
X8321500Y-11500000D02*
G75*
G03*
X8321500Y-11500000I-45000J0D01*
G01*
X8321500Y-13750000D02*
G75*
G03*
X8321500Y-13750000I-45000J0D01*
G01*
D14*
X7892500Y-15522500D02*
X7892500Y-15622500D01*
X7842500Y-15572500D02*
X7942500Y-15572500D01*
X7892500Y-15776500D02*
X7892500Y-15876500D01*
X7842500Y-15826500D02*
X7942500Y-15826500D01*
X7910000Y-5480000D02*
X7910000Y-5580000D01*
X7860000Y-5530000D02*
X7960000Y-5530000D01*
D11*
X7970000Y-5490000D02*
X7850000Y-5490000D01*
X7970000Y-5570000D02*
X7850000Y-5570000D01*
X7850000Y-5490000D02*
G75*
G03*
X7850000Y-5570000I0J-40000D01*
G01*
X7970000Y-5570000D02*
G75*
G03*
X7970000Y-5490000I0J40000D01*
G01*
D14*
X7910000Y-5950000D02*
X7910000Y-6050000D01*
X7860000Y-6000000D02*
X7960000Y-6000000D01*
D11*
X7970000Y-5960000D02*
X7850000Y-5960000D01*
X7970000Y-6040000D02*
X7850000Y-6040000D01*
X7850000Y-5960000D02*
G75*
G03*
X7850000Y-6040000I0J-40000D01*
G01*
X7970000Y-6040000D02*
G75*
G03*
X7970000Y-5960000I0J40000D01*
G01*
D14*
X7910000Y-6420000D02*
X7910000Y-6520000D01*
X7860000Y-6470000D02*
X7960000Y-6470000D01*
D11*
X7970000Y-6430000D02*
X7850000Y-6430000D01*
X7970000Y-6510000D02*
X7850000Y-6510000D01*
X7850000Y-6430000D02*
G75*
G03*
X7850000Y-6510000I0J-40000D01*
G01*
X7970000Y-6510000D02*
G75*
G03*
X7970000Y-6430000I0J40000D01*
G01*
D14*
X7910000Y-7730000D02*
X7910000Y-7830000D01*
X7860000Y-7780000D02*
X7960000Y-7780000D01*
D11*
X7970000Y-7740000D02*
X7850000Y-7740000D01*
X7970000Y-7820000D02*
X7850000Y-7820000D01*
X7850000Y-7740000D02*
G75*
G03*
X7850000Y-7820000I0J-40000D01*
G01*
X7970000Y-7820000D02*
G75*
G03*
X7970000Y-7740000I0J40000D01*
G01*
D14*
X7910000Y-8200000D02*
X7910000Y-8300000D01*
X7860000Y-8250000D02*
X7960000Y-8250000D01*
D11*
X7970000Y-8210000D02*
X7850000Y-8210000D01*
X7970000Y-8290000D02*
X7850000Y-8290000D01*
X7850000Y-8210000D02*
G75*
G03*
X7850000Y-8290000I0J-40000D01*
G01*
X7970000Y-8290000D02*
G75*
G03*
X7970000Y-8210000I0J40000D01*
G01*
D14*
X7910000Y-8670000D02*
X7910000Y-8770000D01*
X7860000Y-8720000D02*
X7960000Y-8720000D01*
D11*
X7970000Y-8680000D02*
X7850000Y-8680000D01*
X7970000Y-8760000D02*
X7850000Y-8760000D01*
X7850000Y-8680000D02*
G75*
G03*
X7850000Y-8760000I0J-40000D01*
G01*
X7970000Y-8760000D02*
G75*
G03*
X7970000Y-8680000I0J40000D01*
G01*
D14*
X7910000Y-9980000D02*
X7910000Y-10080000D01*
X7860000Y-10030000D02*
X7960000Y-10030000D01*
D11*
X7970000Y-9990000D02*
X7850000Y-9990000D01*
X7970000Y-10070000D02*
X7850000Y-10070000D01*
X7850000Y-9990000D02*
G75*
G03*
X7850000Y-10070000I0J-40000D01*
G01*
X7970000Y-10070000D02*
G75*
G03*
X7970000Y-9990000I0J40000D01*
G01*
D14*
X7910000Y-10450000D02*
X7910000Y-10550000D01*
X7860000Y-10500000D02*
X7960000Y-10500000D01*
D11*
X7970000Y-10460000D02*
X7850000Y-10460000D01*
X7970000Y-10540000D02*
X7850000Y-10540000D01*
X7850000Y-10460000D02*
G75*
G03*
X7850000Y-10540000I0J-40000D01*
G01*
X7970000Y-10540000D02*
G75*
G03*
X7970000Y-10460000I0J40000D01*
G01*
D14*
X7910000Y-10920000D02*
X7910000Y-11020000D01*
X7860000Y-10970000D02*
X7960000Y-10970000D01*
D11*
X7970000Y-10930000D02*
X7850000Y-10930000D01*
X7970000Y-11010000D02*
X7850000Y-11010000D01*
X7850000Y-10930000D02*
G75*
G03*
X7850000Y-11010000I0J-40000D01*
G01*
X7970000Y-11010000D02*
G75*
G03*
X7970000Y-10930000I0J40000D01*
G01*
D14*
X7910000Y-12230000D02*
X7910000Y-12330000D01*
X7860000Y-12280000D02*
X7960000Y-12280000D01*
D11*
X7970000Y-12240000D02*
X7850000Y-12240000D01*
X7970000Y-12320000D02*
X7850000Y-12320000D01*
X7850000Y-12240000D02*
G75*
G03*
X7850000Y-12320000I0J-40000D01*
G01*
X7970000Y-12320000D02*
G75*
G03*
X7970000Y-12240000I0J40000D01*
G01*
D14*
X7910000Y-12700000D02*
X7910000Y-12800000D01*
X7860000Y-12750000D02*
X7960000Y-12750000D01*
D11*
X7970000Y-12710000D02*
X7850000Y-12710000D01*
X7970000Y-12790000D02*
X7850000Y-12790000D01*
X7850000Y-12710000D02*
G75*
G03*
X7850000Y-12790000I0J-40000D01*
G01*
X7970000Y-12790000D02*
G75*
G03*
X7970000Y-12710000I0J40000D01*
G01*
D14*
X7910000Y-13170000D02*
X7910000Y-13270000D01*
X7860000Y-13220000D02*
X7960000Y-13220000D01*
D11*
X7970000Y-13180000D02*
X7850000Y-13180000D01*
X7970000Y-13260000D02*
X7850000Y-13260000D01*
X7850000Y-13180000D02*
G75*
G03*
X7850000Y-13260000I0J-40000D01*
G01*
X7970000Y-13260000D02*
G75*
G03*
X7970000Y-13180000I0J40000D01*
G01*
D14*
X8146500Y-15522500D02*
X8146500Y-15622500D01*
X8096500Y-15572500D02*
X8196500Y-15572500D01*
X8146500Y-15776500D02*
X8146500Y-15876500D01*
X8096500Y-15826500D02*
X8196500Y-15826500D01*
X8390000Y-5480000D02*
X8390000Y-5580000D01*
X8340000Y-5530000D02*
X8440000Y-5530000D01*
D11*
X8450000Y-5490000D02*
X8330000Y-5490000D01*
X8450000Y-5570000D02*
X8330000Y-5570000D01*
X8330000Y-5490000D02*
G75*
G03*
X8330000Y-5570000I0J-40000D01*
G01*
X8450000Y-5570000D02*
G75*
G03*
X8450000Y-5490000I0J40000D01*
G01*
D14*
X8390000Y-5950000D02*
X8390000Y-6050000D01*
X8340000Y-6000000D02*
X8440000Y-6000000D01*
D11*
X8450000Y-5960000D02*
X8330000Y-5960000D01*
X8450000Y-6040000D02*
X8330000Y-6040000D01*
X8330000Y-5960000D02*
G75*
G03*
X8330000Y-6040000I0J-40000D01*
G01*
X8450000Y-6040000D02*
G75*
G03*
X8450000Y-5960000I0J40000D01*
G01*
D14*
X8390000Y-6420000D02*
X8390000Y-6520000D01*
X8340000Y-6470000D02*
X8440000Y-6470000D01*
D11*
X8450000Y-6430000D02*
X8330000Y-6430000D01*
X8450000Y-6510000D02*
X8330000Y-6510000D01*
X8330000Y-6430000D02*
G75*
G03*
X8330000Y-6510000I0J-40000D01*
G01*
X8450000Y-6510000D02*
G75*
G03*
X8450000Y-6430000I0J40000D01*
G01*
D14*
X8390000Y-7730000D02*
X8390000Y-7830000D01*
X8340000Y-7780000D02*
X8440000Y-7780000D01*
D11*
X8450000Y-7740000D02*
X8330000Y-7740000D01*
X8450000Y-7820000D02*
X8330000Y-7820000D01*
X8330000Y-7740000D02*
G75*
G03*
X8330000Y-7820000I0J-40000D01*
G01*
X8450000Y-7820000D02*
G75*
G03*
X8450000Y-7740000I0J40000D01*
G01*
D14*
X8390000Y-8200000D02*
X8390000Y-8300000D01*
X8340000Y-8250000D02*
X8440000Y-8250000D01*
D11*
X8450000Y-8210000D02*
X8330000Y-8210000D01*
X8450000Y-8290000D02*
X8330000Y-8290000D01*
X8330000Y-8210000D02*
G75*
G03*
X8330000Y-8290000I0J-40000D01*
G01*
X8450000Y-8290000D02*
G75*
G03*
X8450000Y-8210000I0J40000D01*
G01*
D14*
X8390000Y-8670000D02*
X8390000Y-8770000D01*
X8340000Y-8720000D02*
X8440000Y-8720000D01*
D11*
X8450000Y-8680000D02*
X8330000Y-8680000D01*
X8450000Y-8760000D02*
X8330000Y-8760000D01*
X8330000Y-8680000D02*
G75*
G03*
X8330000Y-8760000I0J-40000D01*
G01*
X8450000Y-8760000D02*
G75*
G03*
X8450000Y-8680000I0J40000D01*
G01*
D14*
X8390000Y-9980000D02*
X8390000Y-10080000D01*
X8340000Y-10030000D02*
X8440000Y-10030000D01*
D11*
X8450000Y-9990000D02*
X8330000Y-9990000D01*
X8450000Y-10070000D02*
X8330000Y-10070000D01*
X8330000Y-9990000D02*
G75*
G03*
X8330000Y-10070000I0J-40000D01*
G01*
X8450000Y-10070000D02*
G75*
G03*
X8450000Y-9990000I0J40000D01*
G01*
D14*
X8390000Y-10450000D02*
X8390000Y-10550000D01*
X8340000Y-10500000D02*
X8440000Y-10500000D01*
D11*
X8450000Y-10460000D02*
X8330000Y-10460000D01*
X8450000Y-10540000D02*
X8330000Y-10540000D01*
X8330000Y-10460000D02*
G75*
G03*
X8330000Y-10540000I0J-40000D01*
G01*
X8450000Y-10540000D02*
G75*
G03*
X8450000Y-10460000I0J40000D01*
G01*
D14*
X8390000Y-10920000D02*
X8390000Y-11020000D01*
X8340000Y-10970000D02*
X8440000Y-10970000D01*
D11*
X8450000Y-10930000D02*
X8330000Y-10930000D01*
X8450000Y-11010000D02*
X8330000Y-11010000D01*
X8330000Y-10930000D02*
G75*
G03*
X8330000Y-11010000I0J-40000D01*
G01*
X8450000Y-11010000D02*
G75*
G03*
X8450000Y-10930000I0J40000D01*
G01*
D14*
X8390000Y-12230000D02*
X8390000Y-12330000D01*
X8340000Y-12280000D02*
X8440000Y-12280000D01*
D11*
X8450000Y-12240000D02*
X8330000Y-12240000D01*
X8450000Y-12320000D02*
X8330000Y-12320000D01*
X8330000Y-12240000D02*
G75*
G03*
X8330000Y-12320000I0J-40000D01*
G01*
X8450000Y-12320000D02*
G75*
G03*
X8450000Y-12240000I0J40000D01*
G01*
D14*
X8390000Y-12700000D02*
X8390000Y-12800000D01*
X8340000Y-12750000D02*
X8440000Y-12750000D01*
D11*
X8450000Y-12710000D02*
X8330000Y-12710000D01*
X8450000Y-12790000D02*
X8330000Y-12790000D01*
X8330000Y-12710000D02*
G75*
G03*
X8330000Y-12790000I0J-40000D01*
G01*
X8450000Y-12790000D02*
G75*
G03*
X8450000Y-12710000I0J40000D01*
G01*
D14*
X8390000Y-13170000D02*
X8390000Y-13270000D01*
X8340000Y-13220000D02*
X8440000Y-13220000D01*
D11*
X8450000Y-13180000D02*
X8330000Y-13180000D01*
X8450000Y-13260000D02*
X8330000Y-13260000D01*
X8330000Y-13180000D02*
G75*
G03*
X8330000Y-13260000I0J-40000D01*
G01*
X8450000Y-13260000D02*
G75*
G03*
X8450000Y-13180000I0J40000D01*
G01*
D14*
X8400500Y-15522500D02*
X8400500Y-15622500D01*
X8350500Y-15572500D02*
X8450500Y-15572500D01*
X8400500Y-15776500D02*
X8400500Y-15876500D01*
X8350500Y-15826500D02*
X8450500Y-15826500D01*
X8654500Y-15522500D02*
X8654500Y-15622500D01*
X8604500Y-15572500D02*
X8704500Y-15572500D01*
X8654500Y-15776500D02*
X8654500Y-15876500D01*
X8604500Y-15826500D02*
X8704500Y-15826500D01*
X8908500Y-15522500D02*
X8908500Y-15622500D01*
X8858500Y-15572500D02*
X8958500Y-15572500D01*
X8908500Y-15776500D02*
X8908500Y-15876500D01*
X8858500Y-15826500D02*
X8958500Y-15826500D01*
X9350000Y-6705000D02*
X9350000Y-6805000D01*
X9300000Y-6755000D02*
X9400000Y-6755000D01*
X9350000Y-8955000D02*
X9350000Y-9055000D01*
X9300000Y-9005000D02*
X9400000Y-9005000D01*
X9350000Y-11205000D02*
X9350000Y-11305000D01*
X9300000Y-11255000D02*
X9400000Y-11255000D01*
X9350000Y-13455000D02*
X9350000Y-13555000D01*
X9300000Y-13505000D02*
X9400000Y-13505000D01*
X9600000Y-6705000D02*
X9600000Y-6805000D01*
X9550000Y-6755000D02*
X9650000Y-6755000D01*
X9600000Y-8955000D02*
X9600000Y-9055000D01*
X9550000Y-9005000D02*
X9650000Y-9005000D01*
X9600000Y-11205000D02*
X9600000Y-11305000D01*
X9550000Y-11255000D02*
X9650000Y-11255000D01*
X9600000Y-13455000D02*
X9600000Y-13555000D01*
X9550000Y-13505000D02*
X9650000Y-13505000D01*
X9850000Y-6705000D02*
X9850000Y-6805000D01*
X9800000Y-6755000D02*
X9900000Y-6755000D01*
X9850000Y-8955000D02*
X9850000Y-9055000D01*
X9800000Y-9005000D02*
X9900000Y-9005000D01*
X9850000Y-11205000D02*
X9850000Y-11305000D01*
X9800000Y-11255000D02*
X9900000Y-11255000D01*
X9850000Y-13455000D02*
X9850000Y-13555000D01*
X9800000Y-13505000D02*
X9900000Y-13505000D01*
D15*
X7093134Y-5393134D02*
X7093134Y-5306866D01*
X7006866Y-5306866D01*
X7006866Y-5393134D01*
X7093134Y-5393134D01*
X7093134Y-7643134D02*
X7093134Y-7556866D01*
X7006866Y-7556866D01*
X7006866Y-7643134D01*
X7093134Y-7643134D01*
X7093134Y-9893134D02*
X7093134Y-9806866D01*
X7006866Y-9806866D01*
X7006866Y-9893134D01*
X7093134Y-9893134D01*
X7093134Y-12143134D02*
X7093134Y-12056866D01*
X7006866Y-12056866D01*
X7006866Y-12143134D01*
X7093134Y-12143134D01*
X9643134Y-14243134D02*
X9643134Y-14156866D01*
X9556866Y-14156866D01*
X9556866Y-14243134D01*
X9643134Y-14243134D01*
D16*
X7050000Y-5731000D02*
X7121000Y-5660000D01*
X7050000Y-5589000D01*
X6979000Y-5660000D01*
X7050000Y-5731000D01*
X7050000Y-7981000D02*
X7121000Y-7910000D01*
X7050000Y-7839000D01*
X6979000Y-7910000D01*
X7050000Y-7981000D01*
X7050000Y-10231000D02*
X7121000Y-10160000D01*
X7050000Y-10089000D01*
X6979000Y-10160000D01*
X7050000Y-10231000D01*
X7050000Y-12481000D02*
X7121000Y-12410000D01*
X7050000Y-12339000D01*
X6979000Y-12410000D01*
X7050000Y-12481000D01*
X9600000Y-14581000D02*
X9671000Y-14510000D01*
X9600000Y-14439000D01*
X9529000Y-14510000D01*
X9600000Y-14581000D01*
D17*
X6978500Y-6418500D02*
X7121500Y-6561500D01*
X7121500Y-6418500D02*
X6978500Y-6561500D01*
X7121500Y-6490000D02*
G75*
G03*
X7121500Y-6490000I-71500J0D01*
G01*
X6978500Y-8668500D02*
X7121500Y-8811500D01*
X7121500Y-8668500D02*
X6978500Y-8811500D01*
X7121500Y-8740000D02*
G75*
G03*
X7121500Y-8740000I-71500J0D01*
G01*
X6978500Y-10918500D02*
X7121500Y-11061500D01*
X7121500Y-10918500D02*
X6978500Y-11061500D01*
X7121500Y-10990000D02*
G75*
G03*
X7121500Y-10990000I-71500J0D01*
G01*
X6978500Y-13168500D02*
X7121500Y-13311500D01*
X7121500Y-13168500D02*
X6978500Y-13311500D01*
X7121500Y-13240000D02*
G75*
G03*
X7121500Y-13240000I-71500J0D01*
G01*
X9528500Y-15268500D02*
X9671500Y-15411500D01*
X9671500Y-15268500D02*
X9528500Y-15411500D01*
X9671500Y-15340000D02*
G75*
G03*
X9671500Y-15340000I-71500J0D01*
G01*
D11*
X6755119Y-16412976D02*
X6755119Y-16212976D01*
X6802738Y-16212976D01*
X6831309Y-16222500D01*
X6850357Y-16241548D01*
X6859881Y-16260595D01*
X6869405Y-16298690D01*
X6869405Y-16327262D01*
X6859881Y-16365357D01*
X6850357Y-16384405D01*
X6831309Y-16403452D01*
X6802738Y-16412976D01*
X6755119Y-16412976D01*
X6955119Y-16412976D02*
X6955119Y-16279643D01*
X6955119Y-16317738D02*
X6964643Y-16298690D01*
X6974166Y-16289167D01*
X6993214Y-16279643D01*
X7012262Y-16279643D01*
X7078928Y-16412976D02*
X7078928Y-16279643D01*
X7078928Y-16212976D02*
X7069405Y-16222500D01*
X7078928Y-16232024D01*
X7088452Y-16222500D01*
X7078928Y-16212976D01*
X7078928Y-16232024D01*
X7202738Y-16412976D02*
X7183690Y-16403452D01*
X7174166Y-16384405D01*
X7174166Y-16212976D01*
X7307500Y-16412976D02*
X7288452Y-16403452D01*
X7278928Y-16384405D01*
X7278928Y-16212976D01*
X7536071Y-16412976D02*
X7536071Y-16212976D01*
X7602738Y-16355833D01*
X7669405Y-16212976D01*
X7669405Y-16412976D01*
X7850357Y-16412976D02*
X7850357Y-16308214D01*
X7840833Y-16289167D01*
X7821786Y-16279643D01*
X7783690Y-16279643D01*
X7764643Y-16289167D01*
X7850357Y-16403452D02*
X7831309Y-16412976D01*
X7783690Y-16412976D01*
X7764643Y-16403452D01*
X7755119Y-16384405D01*
X7755119Y-16365357D01*
X7764643Y-16346309D01*
X7783690Y-16336786D01*
X7831309Y-16336786D01*
X7850357Y-16327262D01*
X7945595Y-16279643D02*
X7945595Y-16479643D01*
X7945595Y-16289167D02*
X7964643Y-16279643D01*
X8002738Y-16279643D01*
X8021786Y-16289167D01*
X8031309Y-16298690D01*
X8040833Y-16317738D01*
X8040833Y-16374881D01*
X8031309Y-16393928D01*
X8021786Y-16403452D01*
X8002738Y-16412976D01*
X7964643Y-16412976D01*
X7945595Y-16403452D01*
X8126547Y-16393928D02*
X8136071Y-16403452D01*
X8126547Y-16412976D01*
X8117024Y-16403452D01*
X8126547Y-16393928D01*
X8126547Y-16412976D01*
X8126547Y-16289167D02*
X8136071Y-16298690D01*
X8126547Y-16308214D01*
X8117024Y-16298690D01*
X8126547Y-16289167D01*
X8126547Y-16308214D01*
D12*
X6417500Y-16702500D02*
X6497500Y-16782500D01*
X6497500Y-16702500D02*
X6417500Y-16782500D01*
D11*
X6793214Y-16632976D02*
X6812262Y-16632976D01*
X6831309Y-16642500D01*
X6840833Y-16652024D01*
X6850357Y-16671071D01*
X6859881Y-16709167D01*
X6859881Y-16756786D01*
X6850357Y-16794881D01*
X6840833Y-16813929D01*
X6831309Y-16823452D01*
X6812262Y-16832976D01*
X6793214Y-16832976D01*
X6774166Y-16823452D01*
X6764643Y-16813929D01*
X6755119Y-16794881D01*
X6745595Y-16756786D01*
X6745595Y-16709167D01*
X6755119Y-16671071D01*
X6764643Y-16652024D01*
X6774166Y-16642500D01*
X6793214Y-16632976D01*
X6945595Y-16813929D02*
X6955119Y-16823452D01*
X6945595Y-16832976D01*
X6936071Y-16823452D01*
X6945595Y-16813929D01*
X6945595Y-16832976D01*
X7069405Y-16718690D02*
X7050357Y-16709167D01*
X7040833Y-16699643D01*
X7031309Y-16680595D01*
X7031309Y-16671071D01*
X7040833Y-16652024D01*
X7050357Y-16642500D01*
X7069405Y-16632976D01*
X7107500Y-16632976D01*
X7126547Y-16642500D01*
X7136071Y-16652024D01*
X7145595Y-16671071D01*
X7145595Y-16680595D01*
X7136071Y-16699643D01*
X7126547Y-16709167D01*
X7107500Y-16718690D01*
X7069405Y-16718690D01*
X7050357Y-16728214D01*
X7040833Y-16737738D01*
X7031309Y-16756786D01*
X7031309Y-16794881D01*
X7040833Y-16813929D01*
X7050357Y-16823452D01*
X7069405Y-16832976D01*
X7107500Y-16832976D01*
X7126547Y-16823452D01*
X7136071Y-16813929D01*
X7145595Y-16794881D01*
X7145595Y-16756786D01*
X7136071Y-16737738D01*
X7126547Y-16728214D01*
X7107500Y-16718690D01*
X7269405Y-16632976D02*
X7288452Y-16632976D01*
X7307500Y-16642500D01*
X7317024Y-16652024D01*
X7326547Y-16671071D01*
X7336071Y-16709167D01*
X7336071Y-16756786D01*
X7326547Y-16794881D01*
X7317024Y-16813929D01*
X7307500Y-16823452D01*
X7288452Y-16832976D01*
X7269405Y-16832976D01*
X7250357Y-16823452D01*
X7240833Y-16813929D01*
X7231309Y-16794881D01*
X7221786Y-16756786D01*
X7221786Y-16709167D01*
X7231309Y-16671071D01*
X7240833Y-16652024D01*
X7250357Y-16642500D01*
X7269405Y-16632976D01*
X7459881Y-16632976D02*
X7478928Y-16632976D01*
X7497976Y-16642500D01*
X7507500Y-16652024D01*
X7517024Y-16671071D01*
X7526547Y-16709167D01*
X7526547Y-16756786D01*
X7517024Y-16794881D01*
X7507500Y-16813929D01*
X7497976Y-16823452D01*
X7478928Y-16832976D01*
X7459881Y-16832976D01*
X7440833Y-16823452D01*
X7431309Y-16813929D01*
X7421786Y-16794881D01*
X7412262Y-16756786D01*
X7412262Y-16709167D01*
X7421786Y-16671071D01*
X7431309Y-16652024D01*
X7440833Y-16642500D01*
X7459881Y-16632976D01*
X7612262Y-16832976D02*
X7612262Y-16699643D01*
X7612262Y-16718690D02*
X7621786Y-16709167D01*
X7640833Y-16699643D01*
X7669405Y-16699643D01*
X7688452Y-16709167D01*
X7697976Y-16728214D01*
X7697976Y-16832976D01*
X7697976Y-16728214D02*
X7707500Y-16709167D01*
X7726547Y-16699643D01*
X7755119Y-16699643D01*
X7774166Y-16709167D01*
X7783690Y-16728214D01*
X7783690Y-16832976D01*
X7878928Y-16832976D02*
X7878928Y-16699643D01*
X7878928Y-16718690D02*
X7888452Y-16709167D01*
X7907500Y-16699643D01*
X7936071Y-16699643D01*
X7955119Y-16709167D01*
X7964643Y-16728214D01*
X7964643Y-16832976D01*
X7964643Y-16728214D02*
X7974166Y-16709167D01*
X7993214Y-16699643D01*
X8021786Y-16699643D01*
X8040833Y-16709167D01*
X8050357Y-16728214D01*
X8050357Y-16832976D01*
X8440833Y-16623452D02*
X8269405Y-16880595D01*
X8697976Y-16632976D02*
X8717024Y-16632976D01*
X8736071Y-16642500D01*
X8745595Y-16652024D01*
X8755119Y-16671071D01*
X8764643Y-16709167D01*
X8764643Y-16756786D01*
X8755119Y-16794881D01*
X8745595Y-16813929D01*
X8736071Y-16823452D01*
X8717024Y-16832976D01*
X8697976Y-16832976D01*
X8678928Y-16823452D01*
X8669405Y-16813929D01*
X8659881Y-16794881D01*
X8650357Y-16756786D01*
X8650357Y-16709167D01*
X8659881Y-16671071D01*
X8669405Y-16652024D01*
X8678928Y-16642500D01*
X8697976Y-16632976D01*
X8850357Y-16813929D02*
X8859881Y-16823452D01*
X8850357Y-16832976D01*
X8840833Y-16823452D01*
X8850357Y-16813929D01*
X8850357Y-16832976D01*
X8983690Y-16632976D02*
X9002738Y-16632976D01*
X9021786Y-16642500D01*
X9031309Y-16652024D01*
X9040833Y-16671071D01*
X9050357Y-16709167D01*
X9050357Y-16756786D01*
X9040833Y-16794881D01*
X9031309Y-16813929D01*
X9021786Y-16823452D01*
X9002738Y-16832976D01*
X8983690Y-16832976D01*
X8964643Y-16823452D01*
X8955119Y-16813929D01*
X8945595Y-16794881D01*
X8936071Y-16756786D01*
X8936071Y-16709167D01*
X8945595Y-16671071D01*
X8955119Y-16652024D01*
X8964643Y-16642500D01*
X8983690Y-16632976D01*
X9117024Y-16632976D02*
X9240833Y-16632976D01*
X9174167Y-16709167D01*
X9202738Y-16709167D01*
X9221786Y-16718690D01*
X9231309Y-16728214D01*
X9240833Y-16747262D01*
X9240833Y-16794881D01*
X9231309Y-16813929D01*
X9221786Y-16823452D01*
X9202738Y-16832976D01*
X9145595Y-16832976D01*
X9126548Y-16823452D01*
X9117024Y-16813929D01*
X9431309Y-16832976D02*
X9317024Y-16832976D01*
X9374167Y-16832976D02*
X9374167Y-16632976D01*
X9355119Y-16661548D01*
X9336071Y-16680595D01*
X9317024Y-16690119D01*
X9612262Y-16632976D02*
X9517024Y-16632976D01*
X9507500Y-16728214D01*
X9517024Y-16718690D01*
X9536071Y-16709167D01*
X9583690Y-16709167D01*
X9602738Y-16718690D01*
X9612262Y-16728214D01*
X9621786Y-16747262D01*
X9621786Y-16794881D01*
X9612262Y-16813929D01*
X9602738Y-16823452D01*
X9583690Y-16832976D01*
X9536071Y-16832976D01*
X9517024Y-16823452D01*
X9507500Y-16813929D01*
X9697976Y-16632976D02*
X9697976Y-16671071D01*
X9774167Y-16632976D02*
X9774167Y-16671071D01*
X10069405Y-16909167D02*
X10059881Y-16899643D01*
X10040833Y-16871071D01*
X10031309Y-16852024D01*
X10021786Y-16823452D01*
X10012262Y-16775833D01*
X10012262Y-16737738D01*
X10021786Y-16690119D01*
X10031309Y-16661548D01*
X10040833Y-16642500D01*
X10059881Y-16613928D01*
X10069405Y-16604405D01*
X10231309Y-16699643D02*
X10231309Y-16832976D01*
X10183690Y-16623452D02*
X10136071Y-16766309D01*
X10259881Y-16766309D01*
X10421786Y-16699643D02*
X10421786Y-16832976D01*
X10374167Y-16623452D02*
X10326548Y-16766309D01*
X10450357Y-16766309D01*
X10678928Y-16832976D02*
X10678928Y-16632976D01*
X10764643Y-16832976D02*
X10764643Y-16728214D01*
X10755119Y-16709167D01*
X10736071Y-16699643D01*
X10707500Y-16699643D01*
X10688452Y-16709167D01*
X10678928Y-16718690D01*
X10888452Y-16832976D02*
X10869405Y-16823452D01*
X10859881Y-16813929D01*
X10850357Y-16794881D01*
X10850357Y-16737738D01*
X10859881Y-16718690D01*
X10869405Y-16709167D01*
X10888452Y-16699643D01*
X10917024Y-16699643D01*
X10936071Y-16709167D01*
X10945595Y-16718690D01*
X10955119Y-16737738D01*
X10955119Y-16794881D01*
X10945595Y-16813929D01*
X10936071Y-16823452D01*
X10917024Y-16832976D01*
X10888452Y-16832976D01*
X11069405Y-16832976D02*
X11050357Y-16823452D01*
X11040833Y-16804405D01*
X11040833Y-16632976D01*
X11221786Y-16823452D02*
X11202738Y-16832976D01*
X11164643Y-16832976D01*
X11145595Y-16823452D01*
X11136071Y-16804405D01*
X11136071Y-16728214D01*
X11145595Y-16709167D01*
X11164643Y-16699643D01*
X11202738Y-16699643D01*
X11221786Y-16709167D01*
X11231309Y-16728214D01*
X11231309Y-16747262D01*
X11136071Y-16766309D01*
X11307500Y-16823452D02*
X11326547Y-16832976D01*
X11364643Y-16832976D01*
X11383690Y-16823452D01*
X11393214Y-16804405D01*
X11393214Y-16794881D01*
X11383690Y-16775833D01*
X11364643Y-16766309D01*
X11336071Y-16766309D01*
X11317024Y-16756786D01*
X11307500Y-16737738D01*
X11307500Y-16728214D01*
X11317024Y-16709167D01*
X11336071Y-16699643D01*
X11364643Y-16699643D01*
X11383690Y-16709167D01*
X11459881Y-16909167D02*
X11469405Y-16899643D01*
X11488452Y-16871071D01*
X11497976Y-16852024D01*
X11507500Y-16823452D01*
X11517024Y-16775833D01*
X11517024Y-16737738D01*
X11507500Y-16690119D01*
X11497976Y-16661548D01*
X11488452Y-16642500D01*
X11469405Y-16613928D01*
X11459881Y-16604405D01*
D13*
X6497500Y-17006500D02*
G75*
G03*
X6497500Y-17006500I-45000J0D01*
G01*
D11*
X6793214Y-16896976D02*
X6812262Y-16896976D01*
X6831309Y-16906500D01*
X6840833Y-16916024D01*
X6850357Y-16935071D01*
X6859881Y-16973167D01*
X6859881Y-17020786D01*
X6850357Y-17058881D01*
X6840833Y-17077929D01*
X6831309Y-17087452D01*
X6812262Y-17096976D01*
X6793214Y-17096976D01*
X6774166Y-17087452D01*
X6764643Y-17077929D01*
X6755119Y-17058881D01*
X6745595Y-17020786D01*
X6745595Y-16973167D01*
X6755119Y-16935071D01*
X6764643Y-16916024D01*
X6774166Y-16906500D01*
X6793214Y-16896976D01*
X6945595Y-17077929D02*
X6955119Y-17087452D01*
X6945595Y-17096976D01*
X6936071Y-17087452D01*
X6945595Y-17077929D01*
X6945595Y-17096976D01*
X7050357Y-17096976D02*
X7088452Y-17096976D01*
X7107500Y-17087452D01*
X7117024Y-17077929D01*
X7136071Y-17049357D01*
X7145595Y-17011262D01*
X7145595Y-16935071D01*
X7136071Y-16916024D01*
X7126547Y-16906500D01*
X7107500Y-16896976D01*
X7069405Y-16896976D01*
X7050357Y-16906500D01*
X7040833Y-16916024D01*
X7031309Y-16935071D01*
X7031309Y-16982690D01*
X7040833Y-17001738D01*
X7050357Y-17011262D01*
X7069405Y-17020786D01*
X7107500Y-17020786D01*
X7126547Y-17011262D01*
X7136071Y-17001738D01*
X7145595Y-16982690D01*
X7269405Y-16896976D02*
X7288452Y-16896976D01*
X7307500Y-16906500D01*
X7317024Y-16916024D01*
X7326547Y-16935071D01*
X7336071Y-16973167D01*
X7336071Y-17020786D01*
X7326547Y-17058881D01*
X7317024Y-17077929D01*
X7307500Y-17087452D01*
X7288452Y-17096976D01*
X7269405Y-17096976D01*
X7250357Y-17087452D01*
X7240833Y-17077929D01*
X7231309Y-17058881D01*
X7221786Y-17020786D01*
X7221786Y-16973167D01*
X7231309Y-16935071D01*
X7240833Y-16916024D01*
X7250357Y-16906500D01*
X7269405Y-16896976D01*
X7459881Y-16896976D02*
X7478928Y-16896976D01*
X7497976Y-16906500D01*
X7507500Y-16916024D01*
X7517024Y-16935071D01*
X7526547Y-16973167D01*
X7526547Y-17020786D01*
X7517024Y-17058881D01*
X7507500Y-17077929D01*
X7497976Y-17087452D01*
X7478928Y-17096976D01*
X7459881Y-17096976D01*
X7440833Y-17087452D01*
X7431309Y-17077929D01*
X7421786Y-17058881D01*
X7412262Y-17020786D01*
X7412262Y-16973167D01*
X7421786Y-16935071D01*
X7431309Y-16916024D01*
X7440833Y-16906500D01*
X7459881Y-16896976D01*
X7612262Y-17096976D02*
X7612262Y-16963643D01*
X7612262Y-16982690D02*
X7621786Y-16973167D01*
X7640833Y-16963643D01*
X7669405Y-16963643D01*
X7688452Y-16973167D01*
X7697976Y-16992214D01*
X7697976Y-17096976D01*
X7697976Y-16992214D02*
X7707500Y-16973167D01*
X7726547Y-16963643D01*
X7755119Y-16963643D01*
X7774166Y-16973167D01*
X7783690Y-16992214D01*
X7783690Y-17096976D01*
X7878928Y-17096976D02*
X7878928Y-16963643D01*
X7878928Y-16982690D02*
X7888452Y-16973167D01*
X7907500Y-16963643D01*
X7936071Y-16963643D01*
X7955119Y-16973167D01*
X7964643Y-16992214D01*
X7964643Y-17096976D01*
X7964643Y-16992214D02*
X7974166Y-16973167D01*
X7993214Y-16963643D01*
X8021786Y-16963643D01*
X8040833Y-16973167D01*
X8050357Y-16992214D01*
X8050357Y-17096976D01*
X8440833Y-16887452D02*
X8269405Y-17144595D01*
X8697976Y-16896976D02*
X8717024Y-16896976D01*
X8736071Y-16906500D01*
X8745595Y-16916024D01*
X8755119Y-16935071D01*
X8764643Y-16973167D01*
X8764643Y-17020786D01*
X8755119Y-17058881D01*
X8745595Y-17077929D01*
X8736071Y-17087452D01*
X8717024Y-17096976D01*
X8697976Y-17096976D01*
X8678928Y-17087452D01*
X8669405Y-17077929D01*
X8659881Y-17058881D01*
X8650357Y-17020786D01*
X8650357Y-16973167D01*
X8659881Y-16935071D01*
X8669405Y-16916024D01*
X8678928Y-16906500D01*
X8697976Y-16896976D01*
X8850357Y-17077929D02*
X8859881Y-17087452D01*
X8850357Y-17096976D01*
X8840833Y-17087452D01*
X8850357Y-17077929D01*
X8850357Y-17096976D01*
X8983690Y-16896976D02*
X9002738Y-16896976D01*
X9021786Y-16906500D01*
X9031309Y-16916024D01*
X9040833Y-16935071D01*
X9050357Y-16973167D01*
X9050357Y-17020786D01*
X9040833Y-17058881D01*
X9031309Y-17077929D01*
X9021786Y-17087452D01*
X9002738Y-17096976D01*
X8983690Y-17096976D01*
X8964643Y-17087452D01*
X8955119Y-17077929D01*
X8945595Y-17058881D01*
X8936071Y-17020786D01*
X8936071Y-16973167D01*
X8945595Y-16935071D01*
X8955119Y-16916024D01*
X8964643Y-16906500D01*
X8983690Y-16896976D01*
X9117024Y-16896976D02*
X9240833Y-16896976D01*
X9174167Y-16973167D01*
X9202738Y-16973167D01*
X9221786Y-16982690D01*
X9231309Y-16992214D01*
X9240833Y-17011262D01*
X9240833Y-17058881D01*
X9231309Y-17077929D01*
X9221786Y-17087452D01*
X9202738Y-17096976D01*
X9145595Y-17096976D01*
X9126548Y-17087452D01*
X9117024Y-17077929D01*
X9421786Y-16896976D02*
X9326548Y-16896976D01*
X9317024Y-16992214D01*
X9326548Y-16982690D01*
X9345595Y-16973167D01*
X9393214Y-16973167D01*
X9412262Y-16982690D01*
X9421786Y-16992214D01*
X9431309Y-17011262D01*
X9431309Y-17058881D01*
X9421786Y-17077929D01*
X9412262Y-17087452D01*
X9393214Y-17096976D01*
X9345595Y-17096976D01*
X9326548Y-17087452D01*
X9317024Y-17077929D01*
X9602738Y-16963643D02*
X9602738Y-17096976D01*
X9555119Y-16887452D02*
X9507500Y-17030310D01*
X9631309Y-17030310D01*
X9697976Y-16896976D02*
X9697976Y-16935071D01*
X9774167Y-16896976D02*
X9774167Y-16935071D01*
X10069405Y-17173167D02*
X10059881Y-17163643D01*
X10040833Y-17135071D01*
X10031309Y-17116024D01*
X10021786Y-17087452D01*
X10012262Y-17039833D01*
X10012262Y-17001738D01*
X10021786Y-16954119D01*
X10031309Y-16925548D01*
X10040833Y-16906500D01*
X10059881Y-16877929D01*
X10069405Y-16868405D01*
X10174167Y-16982690D02*
X10155119Y-16973167D01*
X10145595Y-16963643D01*
X10136071Y-16944595D01*
X10136071Y-16935071D01*
X10145595Y-16916024D01*
X10155119Y-16906500D01*
X10174167Y-16896976D01*
X10212262Y-16896976D01*
X10231309Y-16906500D01*
X10240833Y-16916024D01*
X10250357Y-16935071D01*
X10250357Y-16944595D01*
X10240833Y-16963643D01*
X10231309Y-16973167D01*
X10212262Y-16982690D01*
X10174167Y-16982690D01*
X10155119Y-16992214D01*
X10145595Y-17001738D01*
X10136071Y-17020786D01*
X10136071Y-17058881D01*
X10145595Y-17077929D01*
X10155119Y-17087452D01*
X10174167Y-17096976D01*
X10212262Y-17096976D01*
X10231309Y-17087452D01*
X10240833Y-17077929D01*
X10250357Y-17058881D01*
X10250357Y-17020786D01*
X10240833Y-17001738D01*
X10231309Y-16992214D01*
X10212262Y-16982690D01*
X10488452Y-17096976D02*
X10488452Y-16896976D01*
X10574167Y-17096976D02*
X10574167Y-16992214D01*
X10564643Y-16973167D01*
X10545595Y-16963643D01*
X10517024Y-16963643D01*
X10497976Y-16973167D01*
X10488452Y-16982690D01*
X10697976Y-17096976D02*
X10678928Y-17087452D01*
X10669405Y-17077929D01*
X10659881Y-17058881D01*
X10659881Y-17001738D01*
X10669405Y-16982690D01*
X10678928Y-16973167D01*
X10697976Y-16963643D01*
X10726548Y-16963643D01*
X10745595Y-16973167D01*
X10755119Y-16982690D01*
X10764643Y-17001738D01*
X10764643Y-17058881D01*
X10755119Y-17077929D01*
X10745595Y-17087452D01*
X10726548Y-17096976D01*
X10697976Y-17096976D01*
X10878928Y-17096976D02*
X10859881Y-17087452D01*
X10850357Y-17068405D01*
X10850357Y-16896976D01*
X11031309Y-17087452D02*
X11012262Y-17096976D01*
X10974167Y-17096976D01*
X10955119Y-17087452D01*
X10945595Y-17068405D01*
X10945595Y-16992214D01*
X10955119Y-16973167D01*
X10974167Y-16963643D01*
X11012262Y-16963643D01*
X11031309Y-16973167D01*
X11040833Y-16992214D01*
X11040833Y-17011262D01*
X10945595Y-17030310D01*
X11117024Y-17087452D02*
X11136071Y-17096976D01*
X11174167Y-17096976D01*
X11193214Y-17087452D01*
X11202738Y-17068405D01*
X11202738Y-17058881D01*
X11193214Y-17039833D01*
X11174167Y-17030310D01*
X11145595Y-17030310D01*
X11126548Y-17020786D01*
X11117024Y-17001738D01*
X11117024Y-16992214D01*
X11126548Y-16973167D01*
X11145595Y-16963643D01*
X11174167Y-16963643D01*
X11193214Y-16973167D01*
X11269405Y-17173167D02*
X11278928Y-17163643D01*
X11297976Y-17135071D01*
X11307500Y-17116024D01*
X11317024Y-17087452D01*
X11326547Y-17039833D01*
X11326547Y-17001738D01*
X11317024Y-16954119D01*
X11307500Y-16925548D01*
X11297976Y-16906500D01*
X11278928Y-16877929D01*
X11269405Y-16868405D01*
D14*
X6447500Y-17220500D02*
X6447500Y-17320500D01*
X6397500Y-17270500D02*
X6497500Y-17270500D01*
D11*
X6859881Y-17360976D02*
X6745595Y-17360976D01*
X6802738Y-17360976D02*
X6802738Y-17160976D01*
X6783690Y-17189548D01*
X6764643Y-17208595D01*
X6745595Y-17218119D01*
X6945595Y-17341929D02*
X6955119Y-17351452D01*
X6945595Y-17360976D01*
X6936071Y-17351452D01*
X6945595Y-17341929D01*
X6945595Y-17360976D01*
X7078928Y-17160976D02*
X7097976Y-17160976D01*
X7117024Y-17170500D01*
X7126547Y-17180024D01*
X7136071Y-17199071D01*
X7145595Y-17237167D01*
X7145595Y-17284786D01*
X7136071Y-17322881D01*
X7126547Y-17341929D01*
X7117024Y-17351452D01*
X7097976Y-17360976D01*
X7078928Y-17360976D01*
X7059881Y-17351452D01*
X7050357Y-17341929D01*
X7040833Y-17322881D01*
X7031309Y-17284786D01*
X7031309Y-17237167D01*
X7040833Y-17199071D01*
X7050357Y-17180024D01*
X7059881Y-17170500D01*
X7078928Y-17160976D01*
X7269405Y-17160976D02*
X7288452Y-17160976D01*
X7307500Y-17170500D01*
X7317024Y-17180024D01*
X7326547Y-17199071D01*
X7336071Y-17237167D01*
X7336071Y-17284786D01*
X7326547Y-17322881D01*
X7317024Y-17341929D01*
X7307500Y-17351452D01*
X7288452Y-17360976D01*
X7269405Y-17360976D01*
X7250357Y-17351452D01*
X7240833Y-17341929D01*
X7231309Y-17322881D01*
X7221786Y-17284786D01*
X7221786Y-17237167D01*
X7231309Y-17199071D01*
X7240833Y-17180024D01*
X7250357Y-17170500D01*
X7269405Y-17160976D01*
X7459881Y-17160976D02*
X7478928Y-17160976D01*
X7497976Y-17170500D01*
X7507500Y-17180024D01*
X7517024Y-17199071D01*
X7526547Y-17237167D01*
X7526547Y-17284786D01*
X7517024Y-17322881D01*
X7507500Y-17341929D01*
X7497976Y-17351452D01*
X7478928Y-17360976D01*
X7459881Y-17360976D01*
X7440833Y-17351452D01*
X7431309Y-17341929D01*
X7421786Y-17322881D01*
X7412262Y-17284786D01*
X7412262Y-17237167D01*
X7421786Y-17199071D01*
X7431309Y-17180024D01*
X7440833Y-17170500D01*
X7459881Y-17160976D01*
X7612262Y-17360976D02*
X7612262Y-17227643D01*
X7612262Y-17246690D02*
X7621786Y-17237167D01*
X7640833Y-17227643D01*
X7669405Y-17227643D01*
X7688452Y-17237167D01*
X7697976Y-17256214D01*
X7697976Y-17360976D01*
X7697976Y-17256214D02*
X7707500Y-17237167D01*
X7726547Y-17227643D01*
X7755119Y-17227643D01*
X7774166Y-17237167D01*
X7783690Y-17256214D01*
X7783690Y-17360976D01*
X7878928Y-17360976D02*
X7878928Y-17227643D01*
X7878928Y-17246690D02*
X7888452Y-17237167D01*
X7907500Y-17227643D01*
X7936071Y-17227643D01*
X7955119Y-17237167D01*
X7964643Y-17256214D01*
X7964643Y-17360976D01*
X7964643Y-17256214D02*
X7974166Y-17237167D01*
X7993214Y-17227643D01*
X8021786Y-17227643D01*
X8040833Y-17237167D01*
X8050357Y-17256214D01*
X8050357Y-17360976D01*
X8440833Y-17151452D02*
X8269405Y-17408595D01*
X8697976Y-17160976D02*
X8717024Y-17160976D01*
X8736071Y-17170500D01*
X8745595Y-17180024D01*
X8755119Y-17199071D01*
X8764643Y-17237167D01*
X8764643Y-17284786D01*
X8755119Y-17322881D01*
X8745595Y-17341929D01*
X8736071Y-17351452D01*
X8717024Y-17360976D01*
X8697976Y-17360976D01*
X8678928Y-17351452D01*
X8669405Y-17341929D01*
X8659881Y-17322881D01*
X8650357Y-17284786D01*
X8650357Y-17237167D01*
X8659881Y-17199071D01*
X8669405Y-17180024D01*
X8678928Y-17170500D01*
X8697976Y-17160976D01*
X8850357Y-17341929D02*
X8859881Y-17351452D01*
X8850357Y-17360976D01*
X8840833Y-17351452D01*
X8850357Y-17341929D01*
X8850357Y-17360976D01*
X8983690Y-17160976D02*
X9002738Y-17160976D01*
X9021786Y-17170500D01*
X9031309Y-17180024D01*
X9040833Y-17199071D01*
X9050357Y-17237167D01*
X9050357Y-17284786D01*
X9040833Y-17322881D01*
X9031309Y-17341929D01*
X9021786Y-17351452D01*
X9002738Y-17360976D01*
X8983690Y-17360976D01*
X8964643Y-17351452D01*
X8955119Y-17341929D01*
X8945595Y-17322881D01*
X8936071Y-17284786D01*
X8936071Y-17237167D01*
X8945595Y-17199071D01*
X8955119Y-17180024D01*
X8964643Y-17170500D01*
X8983690Y-17160976D01*
X9117024Y-17160976D02*
X9240833Y-17160976D01*
X9174167Y-17237167D01*
X9202738Y-17237167D01*
X9221786Y-17246690D01*
X9231309Y-17256214D01*
X9240833Y-17275262D01*
X9240833Y-17322881D01*
X9231309Y-17341929D01*
X9221786Y-17351452D01*
X9202738Y-17360976D01*
X9145595Y-17360976D01*
X9126548Y-17351452D01*
X9117024Y-17341929D01*
X9336071Y-17360976D02*
X9374167Y-17360976D01*
X9393214Y-17351452D01*
X9402738Y-17341929D01*
X9421786Y-17313357D01*
X9431309Y-17275262D01*
X9431309Y-17199071D01*
X9421786Y-17180024D01*
X9412262Y-17170500D01*
X9393214Y-17160976D01*
X9355119Y-17160976D01*
X9336071Y-17170500D01*
X9326548Y-17180024D01*
X9317024Y-17199071D01*
X9317024Y-17246690D01*
X9326548Y-17265738D01*
X9336071Y-17275262D01*
X9355119Y-17284786D01*
X9393214Y-17284786D01*
X9412262Y-17275262D01*
X9421786Y-17265738D01*
X9431309Y-17246690D01*
X9602738Y-17227643D02*
X9602738Y-17360976D01*
X9555119Y-17151452D02*
X9507500Y-17294310D01*
X9631309Y-17294310D01*
X9697976Y-17160976D02*
X9697976Y-17199071D01*
X9774167Y-17160976D02*
X9774167Y-17199071D01*
X10069405Y-17437167D02*
X10059881Y-17427643D01*
X10040833Y-17399071D01*
X10031309Y-17380024D01*
X10021786Y-17351452D01*
X10012262Y-17303833D01*
X10012262Y-17265738D01*
X10021786Y-17218119D01*
X10031309Y-17189548D01*
X10040833Y-17170500D01*
X10059881Y-17141929D01*
X10069405Y-17132405D01*
X10136071Y-17180024D02*
X10145595Y-17170500D01*
X10164643Y-17160976D01*
X10212262Y-17160976D01*
X10231309Y-17170500D01*
X10240833Y-17180024D01*
X10250357Y-17199071D01*
X10250357Y-17218119D01*
X10240833Y-17246690D01*
X10126548Y-17360976D01*
X10250357Y-17360976D01*
X10326548Y-17180024D02*
X10336071Y-17170500D01*
X10355119Y-17160976D01*
X10402738Y-17160976D01*
X10421786Y-17170500D01*
X10431309Y-17180024D01*
X10440833Y-17199071D01*
X10440833Y-17218119D01*
X10431309Y-17246690D01*
X10317024Y-17360976D01*
X10440833Y-17360976D01*
X10678928Y-17360976D02*
X10678928Y-17160976D01*
X10764643Y-17360976D02*
X10764643Y-17256214D01*
X10755119Y-17237167D01*
X10736071Y-17227643D01*
X10707500Y-17227643D01*
X10688452Y-17237167D01*
X10678928Y-17246690D01*
X10888452Y-17360976D02*
X10869405Y-17351452D01*
X10859881Y-17341929D01*
X10850357Y-17322881D01*
X10850357Y-17265738D01*
X10859881Y-17246690D01*
X10869405Y-17237167D01*
X10888452Y-17227643D01*
X10917024Y-17227643D01*
X10936071Y-17237167D01*
X10945595Y-17246690D01*
X10955119Y-17265738D01*
X10955119Y-17322881D01*
X10945595Y-17341929D01*
X10936071Y-17351452D01*
X10917024Y-17360976D01*
X10888452Y-17360976D01*
X11069405Y-17360976D02*
X11050357Y-17351452D01*
X11040833Y-17332405D01*
X11040833Y-17160976D01*
X11221786Y-17351452D02*
X11202738Y-17360976D01*
X11164643Y-17360976D01*
X11145595Y-17351452D01*
X11136071Y-17332405D01*
X11136071Y-17256214D01*
X11145595Y-17237167D01*
X11164643Y-17227643D01*
X11202738Y-17227643D01*
X11221786Y-17237167D01*
X11231309Y-17256214D01*
X11231309Y-17275262D01*
X11136071Y-17294310D01*
X11307500Y-17351452D02*
X11326547Y-17360976D01*
X11364643Y-17360976D01*
X11383690Y-17351452D01*
X11393214Y-17332405D01*
X11393214Y-17322881D01*
X11383690Y-17303833D01*
X11364643Y-17294310D01*
X11336071Y-17294310D01*
X11317024Y-17284786D01*
X11307500Y-17265738D01*
X11307500Y-17256214D01*
X11317024Y-17237167D01*
X11336071Y-17227643D01*
X11364643Y-17227643D01*
X11383690Y-17237167D01*
X11631309Y-17284786D02*
X11783690Y-17284786D01*
X11707500Y-17360976D02*
X11707500Y-17208595D01*
X12021786Y-17180024D02*
X12031309Y-17170500D01*
X12050357Y-17160976D01*
X12097976Y-17160976D01*
X12117024Y-17170500D01*
X12126547Y-17180024D01*
X12136071Y-17199071D01*
X12136071Y-17218119D01*
X12126547Y-17246690D01*
X12012262Y-17360976D01*
X12136071Y-17360976D01*
X12307500Y-17227643D02*
X12307500Y-17360976D01*
X12259881Y-17151452D02*
X12212262Y-17294310D01*
X12336071Y-17294310D01*
X12555119Y-17351452D02*
X12574166Y-17360976D01*
X12612262Y-17360976D01*
X12631309Y-17351452D01*
X12640833Y-17332405D01*
X12640833Y-17322881D01*
X12631309Y-17303833D01*
X12612262Y-17294310D01*
X12583690Y-17294310D01*
X12564643Y-17284786D01*
X12555119Y-17265738D01*
X12555119Y-17256214D01*
X12564643Y-17237167D01*
X12583690Y-17227643D01*
X12612262Y-17227643D01*
X12631309Y-17237167D01*
X12755119Y-17360976D02*
X12736071Y-17351452D01*
X12726547Y-17332405D01*
X12726547Y-17160976D01*
X12859881Y-17360976D02*
X12840833Y-17351452D01*
X12831309Y-17341929D01*
X12821786Y-17322881D01*
X12821786Y-17265738D01*
X12831309Y-17246690D01*
X12840833Y-17237167D01*
X12859881Y-17227643D01*
X12888452Y-17227643D01*
X12907500Y-17237167D01*
X12917024Y-17246690D01*
X12926547Y-17265738D01*
X12926547Y-17322881D01*
X12917024Y-17341929D01*
X12907500Y-17351452D01*
X12888452Y-17360976D01*
X12859881Y-17360976D01*
X12983690Y-17227643D02*
X13059881Y-17227643D01*
X13012262Y-17160976D02*
X13012262Y-17332405D01*
X13021786Y-17351452D01*
X13040833Y-17360976D01*
X13059881Y-17360976D01*
X13117024Y-17351452D02*
X13136071Y-17360976D01*
X13174166Y-17360976D01*
X13193214Y-17351452D01*
X13202738Y-17332405D01*
X13202738Y-17322881D01*
X13193214Y-17303833D01*
X13174166Y-17294310D01*
X13145595Y-17294310D01*
X13126547Y-17284786D01*
X13117024Y-17265738D01*
X13117024Y-17256214D01*
X13126547Y-17237167D01*
X13145595Y-17227643D01*
X13174166Y-17227643D01*
X13193214Y-17237167D01*
X13269405Y-17437167D02*
X13278928Y-17427643D01*
X13297976Y-17399071D01*
X13307500Y-17380024D01*
X13317024Y-17351452D01*
X13326547Y-17303833D01*
X13326547Y-17265738D01*
X13317024Y-17218119D01*
X13307500Y-17189548D01*
X13297976Y-17170500D01*
X13278928Y-17141929D01*
X13269405Y-17132405D01*
D15*
X6479634Y-17577634D02*
X6479634Y-17491366D01*
X6393366Y-17491366D01*
X6393366Y-17577634D01*
X6479634Y-17577634D01*
D11*
X6859881Y-17624976D02*
X6745595Y-17624976D01*
X6802738Y-17624976D02*
X6802738Y-17424976D01*
X6783690Y-17453548D01*
X6764643Y-17472595D01*
X6745595Y-17482119D01*
X6945595Y-17605929D02*
X6955119Y-17615452D01*
X6945595Y-17624976D01*
X6936071Y-17615452D01*
X6945595Y-17605929D01*
X6945595Y-17624976D01*
X7031309Y-17444024D02*
X7040833Y-17434500D01*
X7059881Y-17424976D01*
X7107500Y-17424976D01*
X7126547Y-17434500D01*
X7136071Y-17444024D01*
X7145595Y-17463071D01*
X7145595Y-17482119D01*
X7136071Y-17510690D01*
X7021786Y-17624976D01*
X7145595Y-17624976D01*
X7221786Y-17444024D02*
X7231309Y-17434500D01*
X7250357Y-17424976D01*
X7297976Y-17424976D01*
X7317024Y-17434500D01*
X7326547Y-17444024D01*
X7336071Y-17463071D01*
X7336071Y-17482119D01*
X7326547Y-17510690D01*
X7212262Y-17624976D01*
X7336071Y-17624976D01*
X7459881Y-17424976D02*
X7478928Y-17424976D01*
X7497976Y-17434500D01*
X7507500Y-17444024D01*
X7517024Y-17463071D01*
X7526547Y-17501167D01*
X7526547Y-17548786D01*
X7517024Y-17586881D01*
X7507500Y-17605929D01*
X7497976Y-17615452D01*
X7478928Y-17624976D01*
X7459881Y-17624976D01*
X7440833Y-17615452D01*
X7431309Y-17605929D01*
X7421786Y-17586881D01*
X7412262Y-17548786D01*
X7412262Y-17501167D01*
X7421786Y-17463071D01*
X7431309Y-17444024D01*
X7440833Y-17434500D01*
X7459881Y-17424976D01*
X7612262Y-17624976D02*
X7612262Y-17491643D01*
X7612262Y-17510690D02*
X7621786Y-17501167D01*
X7640833Y-17491643D01*
X7669405Y-17491643D01*
X7688452Y-17501167D01*
X7697976Y-17520214D01*
X7697976Y-17624976D01*
X7697976Y-17520214D02*
X7707500Y-17501167D01*
X7726547Y-17491643D01*
X7755119Y-17491643D01*
X7774166Y-17501167D01*
X7783690Y-17520214D01*
X7783690Y-17624976D01*
X7878928Y-17624976D02*
X7878928Y-17491643D01*
X7878928Y-17510690D02*
X7888452Y-17501167D01*
X7907500Y-17491643D01*
X7936071Y-17491643D01*
X7955119Y-17501167D01*
X7964643Y-17520214D01*
X7964643Y-17624976D01*
X7964643Y-17520214D02*
X7974166Y-17501167D01*
X7993214Y-17491643D01*
X8021786Y-17491643D01*
X8040833Y-17501167D01*
X8050357Y-17520214D01*
X8050357Y-17624976D01*
X8440833Y-17415452D02*
X8269405Y-17672595D01*
X8697976Y-17424976D02*
X8717024Y-17424976D01*
X8736071Y-17434500D01*
X8745595Y-17444024D01*
X8755119Y-17463071D01*
X8764643Y-17501167D01*
X8764643Y-17548786D01*
X8755119Y-17586881D01*
X8745595Y-17605929D01*
X8736071Y-17615452D01*
X8717024Y-17624976D01*
X8697976Y-17624976D01*
X8678928Y-17615452D01*
X8669405Y-17605929D01*
X8659881Y-17586881D01*
X8650357Y-17548786D01*
X8650357Y-17501167D01*
X8659881Y-17463071D01*
X8669405Y-17444024D01*
X8678928Y-17434500D01*
X8697976Y-17424976D01*
X8850357Y-17605929D02*
X8859881Y-17615452D01*
X8850357Y-17624976D01*
X8840833Y-17615452D01*
X8850357Y-17605929D01*
X8850357Y-17624976D01*
X8983690Y-17424976D02*
X9002738Y-17424976D01*
X9021786Y-17434500D01*
X9031309Y-17444024D01*
X9040833Y-17463071D01*
X9050357Y-17501167D01*
X9050357Y-17548786D01*
X9040833Y-17586881D01*
X9031309Y-17605929D01*
X9021786Y-17615452D01*
X9002738Y-17624976D01*
X8983690Y-17624976D01*
X8964643Y-17615452D01*
X8955119Y-17605929D01*
X8945595Y-17586881D01*
X8936071Y-17548786D01*
X8936071Y-17501167D01*
X8945595Y-17463071D01*
X8955119Y-17444024D01*
X8964643Y-17434500D01*
X8983690Y-17424976D01*
X9221786Y-17491643D02*
X9221786Y-17624976D01*
X9174167Y-17415452D02*
X9126548Y-17558310D01*
X9250357Y-17558310D01*
X9355119Y-17510690D02*
X9336071Y-17501167D01*
X9326548Y-17491643D01*
X9317024Y-17472595D01*
X9317024Y-17463071D01*
X9326548Y-17444024D01*
X9336071Y-17434500D01*
X9355119Y-17424976D01*
X9393214Y-17424976D01*
X9412262Y-17434500D01*
X9421786Y-17444024D01*
X9431309Y-17463071D01*
X9431309Y-17472595D01*
X9421786Y-17491643D01*
X9412262Y-17501167D01*
X9393214Y-17510690D01*
X9355119Y-17510690D01*
X9336071Y-17520214D01*
X9326548Y-17529738D01*
X9317024Y-17548786D01*
X9317024Y-17586881D01*
X9326548Y-17605929D01*
X9336071Y-17615452D01*
X9355119Y-17624976D01*
X9393214Y-17624976D01*
X9412262Y-17615452D01*
X9421786Y-17605929D01*
X9431309Y-17586881D01*
X9431309Y-17548786D01*
X9421786Y-17529738D01*
X9412262Y-17520214D01*
X9393214Y-17510690D01*
X9555119Y-17424976D02*
X9574167Y-17424976D01*
X9593214Y-17434500D01*
X9602738Y-17444024D01*
X9612262Y-17463071D01*
X9621786Y-17501167D01*
X9621786Y-17548786D01*
X9612262Y-17586881D01*
X9602738Y-17605929D01*
X9593214Y-17615452D01*
X9574167Y-17624976D01*
X9555119Y-17624976D01*
X9536071Y-17615452D01*
X9526548Y-17605929D01*
X9517024Y-17586881D01*
X9507500Y-17548786D01*
X9507500Y-17501167D01*
X9517024Y-17463071D01*
X9526548Y-17444024D01*
X9536071Y-17434500D01*
X9555119Y-17424976D01*
X9697976Y-17424976D02*
X9697976Y-17463071D01*
X9774167Y-17424976D02*
X9774167Y-17463071D01*
X10069405Y-17701167D02*
X10059881Y-17691643D01*
X10040833Y-17663071D01*
X10031309Y-17644024D01*
X10021786Y-17615452D01*
X10012262Y-17567833D01*
X10012262Y-17529738D01*
X10021786Y-17482119D01*
X10031309Y-17453548D01*
X10040833Y-17434500D01*
X10059881Y-17405929D01*
X10069405Y-17396405D01*
X10240833Y-17424976D02*
X10145595Y-17424976D01*
X10136071Y-17520214D01*
X10145595Y-17510690D01*
X10164643Y-17501167D01*
X10212262Y-17501167D01*
X10231309Y-17510690D01*
X10240833Y-17520214D01*
X10250357Y-17539262D01*
X10250357Y-17586881D01*
X10240833Y-17605929D01*
X10231309Y-17615452D01*
X10212262Y-17624976D01*
X10164643Y-17624976D01*
X10145595Y-17615452D01*
X10136071Y-17605929D01*
X10488452Y-17624976D02*
X10488452Y-17424976D01*
X10574167Y-17624976D02*
X10574167Y-17520214D01*
X10564643Y-17501167D01*
X10545595Y-17491643D01*
X10517024Y-17491643D01*
X10497976Y-17501167D01*
X10488452Y-17510690D01*
X10697976Y-17624976D02*
X10678928Y-17615452D01*
X10669405Y-17605929D01*
X10659881Y-17586881D01*
X10659881Y-17529738D01*
X10669405Y-17510690D01*
X10678928Y-17501167D01*
X10697976Y-17491643D01*
X10726548Y-17491643D01*
X10745595Y-17501167D01*
X10755119Y-17510690D01*
X10764643Y-17529738D01*
X10764643Y-17586881D01*
X10755119Y-17605929D01*
X10745595Y-17615452D01*
X10726548Y-17624976D01*
X10697976Y-17624976D01*
X10878928Y-17624976D02*
X10859881Y-17615452D01*
X10850357Y-17596405D01*
X10850357Y-17424976D01*
X11031309Y-17615452D02*
X11012262Y-17624976D01*
X10974167Y-17624976D01*
X10955119Y-17615452D01*
X10945595Y-17596405D01*
X10945595Y-17520214D01*
X10955119Y-17501167D01*
X10974167Y-17491643D01*
X11012262Y-17491643D01*
X11031309Y-17501167D01*
X11040833Y-17520214D01*
X11040833Y-17539262D01*
X10945595Y-17558310D01*
X11117024Y-17615452D02*
X11136071Y-17624976D01*
X11174167Y-17624976D01*
X11193214Y-17615452D01*
X11202738Y-17596405D01*
X11202738Y-17586881D01*
X11193214Y-17567833D01*
X11174167Y-17558310D01*
X11145595Y-17558310D01*
X11126548Y-17548786D01*
X11117024Y-17529738D01*
X11117024Y-17520214D01*
X11126548Y-17501167D01*
X11145595Y-17491643D01*
X11174167Y-17491643D01*
X11193214Y-17501167D01*
X11269405Y-17701167D02*
X11278928Y-17691643D01*
X11297976Y-17663071D01*
X11307500Y-17644024D01*
X11317024Y-17615452D01*
X11326547Y-17567833D01*
X11326547Y-17529738D01*
X11317024Y-17482119D01*
X11307500Y-17453548D01*
X11297976Y-17434500D01*
X11278928Y-17405929D01*
X11269405Y-17396405D01*
D16*
X6426500Y-17869500D02*
X6497500Y-17798500D01*
X6426500Y-17727500D01*
X6355500Y-17798500D01*
X6426500Y-17869500D01*
D11*
X6859881Y-17888976D02*
X6745595Y-17888976D01*
X6802738Y-17888976D02*
X6802738Y-17688976D01*
X6783690Y-17717548D01*
X6764643Y-17736595D01*
X6745595Y-17746119D01*
X6945595Y-17869929D02*
X6955119Y-17879452D01*
X6945595Y-17888976D01*
X6936071Y-17879452D01*
X6945595Y-17869929D01*
X6945595Y-17888976D01*
X7126547Y-17755643D02*
X7126547Y-17888976D01*
X7078928Y-17679452D02*
X7031309Y-17822310D01*
X7155119Y-17822310D01*
X7221786Y-17708024D02*
X7231309Y-17698500D01*
X7250357Y-17688976D01*
X7297976Y-17688976D01*
X7317024Y-17698500D01*
X7326547Y-17708024D01*
X7336071Y-17727071D01*
X7336071Y-17746119D01*
X7326547Y-17774690D01*
X7212262Y-17888976D01*
X7336071Y-17888976D01*
X7459881Y-17688976D02*
X7478928Y-17688976D01*
X7497976Y-17698500D01*
X7507500Y-17708024D01*
X7517024Y-17727071D01*
X7526547Y-17765167D01*
X7526547Y-17812786D01*
X7517024Y-17850881D01*
X7507500Y-17869929D01*
X7497976Y-17879452D01*
X7478928Y-17888976D01*
X7459881Y-17888976D01*
X7440833Y-17879452D01*
X7431309Y-17869929D01*
X7421786Y-17850881D01*
X7412262Y-17812786D01*
X7412262Y-17765167D01*
X7421786Y-17727071D01*
X7431309Y-17708024D01*
X7440833Y-17698500D01*
X7459881Y-17688976D01*
X7612262Y-17888976D02*
X7612262Y-17755643D01*
X7612262Y-17774690D02*
X7621786Y-17765167D01*
X7640833Y-17755643D01*
X7669405Y-17755643D01*
X7688452Y-17765167D01*
X7697976Y-17784214D01*
X7697976Y-17888976D01*
X7697976Y-17784214D02*
X7707500Y-17765167D01*
X7726547Y-17755643D01*
X7755119Y-17755643D01*
X7774166Y-17765167D01*
X7783690Y-17784214D01*
X7783690Y-17888976D01*
X7878928Y-17888976D02*
X7878928Y-17755643D01*
X7878928Y-17774690D02*
X7888452Y-17765167D01*
X7907500Y-17755643D01*
X7936071Y-17755643D01*
X7955119Y-17765167D01*
X7964643Y-17784214D01*
X7964643Y-17888976D01*
X7964643Y-17784214D02*
X7974166Y-17765167D01*
X7993214Y-17755643D01*
X8021786Y-17755643D01*
X8040833Y-17765167D01*
X8050357Y-17784214D01*
X8050357Y-17888976D01*
X8440833Y-17679452D02*
X8269405Y-17936595D01*
X8697976Y-17688976D02*
X8717024Y-17688976D01*
X8736071Y-17698500D01*
X8745595Y-17708024D01*
X8755119Y-17727071D01*
X8764643Y-17765167D01*
X8764643Y-17812786D01*
X8755119Y-17850881D01*
X8745595Y-17869929D01*
X8736071Y-17879452D01*
X8717024Y-17888976D01*
X8697976Y-17888976D01*
X8678928Y-17879452D01*
X8669405Y-17869929D01*
X8659881Y-17850881D01*
X8650357Y-17812786D01*
X8650357Y-17765167D01*
X8659881Y-17727071D01*
X8669405Y-17708024D01*
X8678928Y-17698500D01*
X8697976Y-17688976D01*
X8850357Y-17869929D02*
X8859881Y-17879452D01*
X8850357Y-17888976D01*
X8840833Y-17879452D01*
X8850357Y-17869929D01*
X8850357Y-17888976D01*
X8983690Y-17688976D02*
X9002738Y-17688976D01*
X9021786Y-17698500D01*
X9031309Y-17708024D01*
X9040833Y-17727071D01*
X9050357Y-17765167D01*
X9050357Y-17812786D01*
X9040833Y-17850881D01*
X9031309Y-17869929D01*
X9021786Y-17879452D01*
X9002738Y-17888976D01*
X8983690Y-17888976D01*
X8964643Y-17879452D01*
X8955119Y-17869929D01*
X8945595Y-17850881D01*
X8936071Y-17812786D01*
X8936071Y-17765167D01*
X8945595Y-17727071D01*
X8955119Y-17708024D01*
X8964643Y-17698500D01*
X8983690Y-17688976D01*
X9231309Y-17688976D02*
X9136071Y-17688976D01*
X9126548Y-17784214D01*
X9136071Y-17774690D01*
X9155119Y-17765167D01*
X9202738Y-17765167D01*
X9221786Y-17774690D01*
X9231309Y-17784214D01*
X9240833Y-17803262D01*
X9240833Y-17850881D01*
X9231309Y-17869929D01*
X9221786Y-17879452D01*
X9202738Y-17888976D01*
X9155119Y-17888976D01*
X9136071Y-17879452D01*
X9126548Y-17869929D01*
X9421786Y-17688976D02*
X9326548Y-17688976D01*
X9317024Y-17784214D01*
X9326548Y-17774690D01*
X9345595Y-17765167D01*
X9393214Y-17765167D01*
X9412262Y-17774690D01*
X9421786Y-17784214D01*
X9431309Y-17803262D01*
X9431309Y-17850881D01*
X9421786Y-17869929D01*
X9412262Y-17879452D01*
X9393214Y-17888976D01*
X9345595Y-17888976D01*
X9326548Y-17879452D01*
X9317024Y-17869929D01*
X9526548Y-17888976D02*
X9564643Y-17888976D01*
X9583690Y-17879452D01*
X9593214Y-17869929D01*
X9612262Y-17841357D01*
X9621786Y-17803262D01*
X9621786Y-17727071D01*
X9612262Y-17708024D01*
X9602738Y-17698500D01*
X9583690Y-17688976D01*
X9545595Y-17688976D01*
X9526548Y-17698500D01*
X9517024Y-17708024D01*
X9507500Y-17727071D01*
X9507500Y-17774690D01*
X9517024Y-17793738D01*
X9526548Y-17803262D01*
X9545595Y-17812786D01*
X9583690Y-17812786D01*
X9602738Y-17803262D01*
X9612262Y-17793738D01*
X9621786Y-17774690D01*
X9697976Y-17688976D02*
X9697976Y-17727071D01*
X9774167Y-17688976D02*
X9774167Y-17727071D01*
X10069405Y-17965167D02*
X10059881Y-17955643D01*
X10040833Y-17927071D01*
X10031309Y-17908024D01*
X10021786Y-17879452D01*
X10012262Y-17831833D01*
X10012262Y-17793738D01*
X10021786Y-17746119D01*
X10031309Y-17717548D01*
X10040833Y-17698500D01*
X10059881Y-17669929D01*
X10069405Y-17660405D01*
X10240833Y-17688976D02*
X10145595Y-17688976D01*
X10136071Y-17784214D01*
X10145595Y-17774690D01*
X10164643Y-17765167D01*
X10212262Y-17765167D01*
X10231309Y-17774690D01*
X10240833Y-17784214D01*
X10250357Y-17803262D01*
X10250357Y-17850881D01*
X10240833Y-17869929D01*
X10231309Y-17879452D01*
X10212262Y-17888976D01*
X10164643Y-17888976D01*
X10145595Y-17879452D01*
X10136071Y-17869929D01*
X10488452Y-17888976D02*
X10488452Y-17688976D01*
X10574167Y-17888976D02*
X10574167Y-17784214D01*
X10564643Y-17765167D01*
X10545595Y-17755643D01*
X10517024Y-17755643D01*
X10497976Y-17765167D01*
X10488452Y-17774690D01*
X10697976Y-17888976D02*
X10678928Y-17879452D01*
X10669405Y-17869929D01*
X10659881Y-17850881D01*
X10659881Y-17793738D01*
X10669405Y-17774690D01*
X10678928Y-17765167D01*
X10697976Y-17755643D01*
X10726548Y-17755643D01*
X10745595Y-17765167D01*
X10755119Y-17774690D01*
X10764643Y-17793738D01*
X10764643Y-17850881D01*
X10755119Y-17869929D01*
X10745595Y-17879452D01*
X10726548Y-17888976D01*
X10697976Y-17888976D01*
X10878928Y-17888976D02*
X10859881Y-17879452D01*
X10850357Y-17860405D01*
X10850357Y-17688976D01*
X11031309Y-17879452D02*
X11012262Y-17888976D01*
X10974167Y-17888976D01*
X10955119Y-17879452D01*
X10945595Y-17860405D01*
X10945595Y-17784214D01*
X10955119Y-17765167D01*
X10974167Y-17755643D01*
X11012262Y-17755643D01*
X11031309Y-17765167D01*
X11040833Y-17784214D01*
X11040833Y-17803262D01*
X10945595Y-17822310D01*
X11117024Y-17879452D02*
X11136071Y-17888976D01*
X11174167Y-17888976D01*
X11193214Y-17879452D01*
X11202738Y-17860405D01*
X11202738Y-17850881D01*
X11193214Y-17831833D01*
X11174167Y-17822310D01*
X11145595Y-17822310D01*
X11126548Y-17812786D01*
X11117024Y-17793738D01*
X11117024Y-17784214D01*
X11126548Y-17765167D01*
X11145595Y-17755643D01*
X11174167Y-17755643D01*
X11193214Y-17765167D01*
X11269405Y-17965167D02*
X11278928Y-17955643D01*
X11297976Y-17927071D01*
X11307500Y-17908024D01*
X11317024Y-17879452D01*
X11326547Y-17831833D01*
X11326547Y-17793738D01*
X11317024Y-17746119D01*
X11307500Y-17717548D01*
X11297976Y-17698500D01*
X11278928Y-17669929D01*
X11269405Y-17660405D01*
D17*
X6354500Y-17991000D02*
X6497500Y-18134000D01*
X6497500Y-17991000D02*
X6354500Y-18134000D01*
X6497500Y-18062500D02*
G75*
G03*
X6497500Y-18062500I-71500J0D01*
G01*
D11*
X6859881Y-18152976D02*
X6745595Y-18152976D01*
X6802738Y-18152976D02*
X6802738Y-17952976D01*
X6783690Y-17981548D01*
X6764643Y-18000595D01*
X6745595Y-18010119D01*
X6945595Y-18133929D02*
X6955119Y-18143452D01*
X6945595Y-18152976D01*
X6936071Y-18143452D01*
X6945595Y-18133929D01*
X6945595Y-18152976D01*
X7126547Y-18019643D02*
X7126547Y-18152976D01*
X7078928Y-17943452D02*
X7031309Y-18086310D01*
X7155119Y-18086310D01*
X7212262Y-17952976D02*
X7336071Y-17952976D01*
X7269405Y-18029167D01*
X7297976Y-18029167D01*
X7317024Y-18038690D01*
X7326547Y-18048214D01*
X7336071Y-18067262D01*
X7336071Y-18114881D01*
X7326547Y-18133929D01*
X7317024Y-18143452D01*
X7297976Y-18152976D01*
X7240833Y-18152976D01*
X7221786Y-18143452D01*
X7212262Y-18133929D01*
X7459881Y-17952976D02*
X7478928Y-17952976D01*
X7497976Y-17962500D01*
X7507500Y-17972024D01*
X7517024Y-17991071D01*
X7526547Y-18029167D01*
X7526547Y-18076786D01*
X7517024Y-18114881D01*
X7507500Y-18133929D01*
X7497976Y-18143452D01*
X7478928Y-18152976D01*
X7459881Y-18152976D01*
X7440833Y-18143452D01*
X7431309Y-18133929D01*
X7421786Y-18114881D01*
X7412262Y-18076786D01*
X7412262Y-18029167D01*
X7421786Y-17991071D01*
X7431309Y-17972024D01*
X7440833Y-17962500D01*
X7459881Y-17952976D01*
X7612262Y-18152976D02*
X7612262Y-18019643D01*
X7612262Y-18038690D02*
X7621786Y-18029167D01*
X7640833Y-18019643D01*
X7669405Y-18019643D01*
X7688452Y-18029167D01*
X7697976Y-18048214D01*
X7697976Y-18152976D01*
X7697976Y-18048214D02*
X7707500Y-18029167D01*
X7726547Y-18019643D01*
X7755119Y-18019643D01*
X7774166Y-18029167D01*
X7783690Y-18048214D01*
X7783690Y-18152976D01*
X7878928Y-18152976D02*
X7878928Y-18019643D01*
X7878928Y-18038690D02*
X7888452Y-18029167D01*
X7907500Y-18019643D01*
X7936071Y-18019643D01*
X7955119Y-18029167D01*
X7964643Y-18048214D01*
X7964643Y-18152976D01*
X7964643Y-18048214D02*
X7974166Y-18029167D01*
X7993214Y-18019643D01*
X8021786Y-18019643D01*
X8040833Y-18029167D01*
X8050357Y-18048214D01*
X8050357Y-18152976D01*
X8440833Y-17943452D02*
X8269405Y-18200595D01*
X8697976Y-17952976D02*
X8717024Y-17952976D01*
X8736071Y-17962500D01*
X8745595Y-17972024D01*
X8755119Y-17991071D01*
X8764643Y-18029167D01*
X8764643Y-18076786D01*
X8755119Y-18114881D01*
X8745595Y-18133929D01*
X8736071Y-18143452D01*
X8717024Y-18152976D01*
X8697976Y-18152976D01*
X8678928Y-18143452D01*
X8669405Y-18133929D01*
X8659881Y-18114881D01*
X8650357Y-18076786D01*
X8650357Y-18029167D01*
X8659881Y-17991071D01*
X8669405Y-17972024D01*
X8678928Y-17962500D01*
X8697976Y-17952976D01*
X8850357Y-18133929D02*
X8859881Y-18143452D01*
X8850357Y-18152976D01*
X8840833Y-18143452D01*
X8850357Y-18133929D01*
X8850357Y-18152976D01*
X8983690Y-17952976D02*
X9002738Y-17952976D01*
X9021786Y-17962500D01*
X9031309Y-17972024D01*
X9040833Y-17991071D01*
X9050357Y-18029167D01*
X9050357Y-18076786D01*
X9040833Y-18114881D01*
X9031309Y-18133929D01*
X9021786Y-18143452D01*
X9002738Y-18152976D01*
X8983690Y-18152976D01*
X8964643Y-18143452D01*
X8955119Y-18133929D01*
X8945595Y-18114881D01*
X8936071Y-18076786D01*
X8936071Y-18029167D01*
X8945595Y-17991071D01*
X8955119Y-17972024D01*
X8964643Y-17962500D01*
X8983690Y-17952976D01*
X9231309Y-17952976D02*
X9136071Y-17952976D01*
X9126548Y-18048214D01*
X9136071Y-18038690D01*
X9155119Y-18029167D01*
X9202738Y-18029167D01*
X9221786Y-18038690D01*
X9231309Y-18048214D01*
X9240833Y-18067262D01*
X9240833Y-18114881D01*
X9231309Y-18133929D01*
X9221786Y-18143452D01*
X9202738Y-18152976D01*
X9155119Y-18152976D01*
X9136071Y-18143452D01*
X9126548Y-18133929D01*
X9412262Y-17952976D02*
X9374167Y-17952976D01*
X9355119Y-17962500D01*
X9345595Y-17972024D01*
X9326548Y-18000595D01*
X9317024Y-18038690D01*
X9317024Y-18114881D01*
X9326548Y-18133929D01*
X9336071Y-18143452D01*
X9355119Y-18152976D01*
X9393214Y-18152976D01*
X9412262Y-18143452D01*
X9421786Y-18133929D01*
X9431309Y-18114881D01*
X9431309Y-18067262D01*
X9421786Y-18048214D01*
X9412262Y-18038690D01*
X9393214Y-18029167D01*
X9355119Y-18029167D01*
X9336071Y-18038690D01*
X9326548Y-18048214D01*
X9317024Y-18067262D01*
X9497976Y-17952976D02*
X9621786Y-17952976D01*
X9555119Y-18029167D01*
X9583690Y-18029167D01*
X9602738Y-18038690D01*
X9612262Y-18048214D01*
X9621786Y-18067262D01*
X9621786Y-18114881D01*
X9612262Y-18133929D01*
X9602738Y-18143452D01*
X9583690Y-18152976D01*
X9526548Y-18152976D01*
X9507500Y-18143452D01*
X9497976Y-18133929D01*
X9697976Y-17952976D02*
X9697976Y-17991071D01*
X9774167Y-17952976D02*
X9774167Y-17991071D01*
X10069405Y-18229167D02*
X10059881Y-18219643D01*
X10040833Y-18191071D01*
X10031309Y-18172024D01*
X10021786Y-18143452D01*
X10012262Y-18095833D01*
X10012262Y-18057738D01*
X10021786Y-18010119D01*
X10031309Y-17981548D01*
X10040833Y-17962500D01*
X10059881Y-17933929D01*
X10069405Y-17924405D01*
X10240833Y-17952976D02*
X10145595Y-17952976D01*
X10136071Y-18048214D01*
X10145595Y-18038690D01*
X10164643Y-18029167D01*
X10212262Y-18029167D01*
X10231309Y-18038690D01*
X10240833Y-18048214D01*
X10250357Y-18067262D01*
X10250357Y-18114881D01*
X10240833Y-18133929D01*
X10231309Y-18143452D01*
X10212262Y-18152976D01*
X10164643Y-18152976D01*
X10145595Y-18143452D01*
X10136071Y-18133929D01*
X10488452Y-18152976D02*
X10488452Y-17952976D01*
X10574167Y-18152976D02*
X10574167Y-18048214D01*
X10564643Y-18029167D01*
X10545595Y-18019643D01*
X10517024Y-18019643D01*
X10497976Y-18029167D01*
X10488452Y-18038690D01*
X10697976Y-18152976D02*
X10678928Y-18143452D01*
X10669405Y-18133929D01*
X10659881Y-18114881D01*
X10659881Y-18057738D01*
X10669405Y-18038690D01*
X10678928Y-18029167D01*
X10697976Y-18019643D01*
X10726548Y-18019643D01*
X10745595Y-18029167D01*
X10755119Y-18038690D01*
X10764643Y-18057738D01*
X10764643Y-18114881D01*
X10755119Y-18133929D01*
X10745595Y-18143452D01*
X10726548Y-18152976D01*
X10697976Y-18152976D01*
X10878928Y-18152976D02*
X10859881Y-18143452D01*
X10850357Y-18124405D01*
X10850357Y-17952976D01*
X11031309Y-18143452D02*
X11012262Y-18152976D01*
X10974167Y-18152976D01*
X10955119Y-18143452D01*
X10945595Y-18124405D01*
X10945595Y-18048214D01*
X10955119Y-18029167D01*
X10974167Y-18019643D01*
X11012262Y-18019643D01*
X11031309Y-18029167D01*
X11040833Y-18048214D01*
X11040833Y-18067262D01*
X10945595Y-18086310D01*
X11117024Y-18143452D02*
X11136071Y-18152976D01*
X11174167Y-18152976D01*
X11193214Y-18143452D01*
X11202738Y-18124405D01*
X11202738Y-18114881D01*
X11193214Y-18095833D01*
X11174167Y-18086310D01*
X11145595Y-18086310D01*
X11126548Y-18076786D01*
X11117024Y-18057738D01*
X11117024Y-18048214D01*
X11126548Y-18029167D01*
X11145595Y-18019643D01*
X11174167Y-18019643D01*
X11193214Y-18029167D01*
X11269405Y-18229167D02*
X11278928Y-18219643D01*
X11297976Y-18191071D01*
X11307500Y-18172024D01*
X11317024Y-18143452D01*
X11326547Y-18095833D01*
X11326547Y-18057738D01*
X11317024Y-18010119D01*
X11307500Y-17981548D01*
X11297976Y-17962500D01*
X11278928Y-17933929D01*
X11269405Y-17924405D01*
M02*
