M48
; DRILL file {KiCad (6.0.0)} date Wed Jul  6 19:49:19 2022
; FORMAT={-:-/ absolute / metric / decimal}
; #@! TF.CreationDate,2022-07-06T19:49:19+01:00
; #@! TF.GenerationSoftware,Kicad,Pcbnew,(6.0.0)
; #@! TF.FileFunction,Plated,1,2,PTH
FMAT,2
METRIC
; #@! TA.AperFunction,Plated,PTH,ComponentDrill
T1C0.800
; #@! TA.AperFunction,Plated,PTH,ComponentDrill
T2C0.900
; #@! TA.AperFunction,Plated,PTH,ComponentDrill
T3C1.000
; #@! TA.AperFunction,Plated,PTH,ComponentDrill
T4C1.220
; #@! TA.AperFunction,Plated,PTH,ComponentDrill
T5C1.420
; #@! TA.AperFunction,Plated,PTH,ComponentDrill
T6C1.430
%
G90
G05
T1
X66.92Y-68.5
X66.92Y-91.0
X66.92Y-113.5
X66.92Y-136.0
X67.045Y-140.5
X67.7Y-145.18
X67.7Y-152.8
X69.045Y-140.5
X70.24Y-145.18
X70.24Y-152.8
X71.5Y-157.5
X72.78Y-145.18
X72.78Y-152.8
X73.5Y-157.5
X75.32Y-145.18
X75.32Y-152.8
X77.08Y-68.5
X77.08Y-91.0
X77.08Y-113.5
X77.08Y-136.0
X79.42Y-143.0
X79.42Y-146.5
X79.42Y-150.0
X86.455Y-93.5
X86.455Y-138.5
X86.455Y-71.0
X86.5Y-116.0
X88.455Y-93.5
X88.455Y-138.5
X88.455Y-71.0
X88.5Y-116.0
X89.58Y-143.0
X89.58Y-146.5
X89.58Y-150.0
X92.92Y-71.0
X92.92Y-93.5
X92.92Y-116.0
X92.92Y-138.5
X102.0Y-157.045
X102.0Y-159.045
X103.08Y-71.0
X103.08Y-93.5
X103.08Y-116.0
X103.08Y-138.5
T2
X80.225Y-70.0
X80.225Y-92.5
X80.225Y-115.0
X80.225Y-137.5
X82.765Y-70.0
X82.765Y-92.5
X82.765Y-115.0
X82.765Y-137.5
T3
X78.925Y-155.725
X78.925Y-158.265
X81.465Y-155.725
X81.465Y-158.265
X84.005Y-155.725
X84.005Y-158.265
X86.545Y-155.725
X86.545Y-158.265
X89.085Y-155.725
X89.085Y-158.265
X93.5Y-67.55
X93.5Y-90.05
X93.5Y-112.55
X93.5Y-135.05
X96.0Y-67.55
X96.0Y-90.05
X96.0Y-112.55
X96.0Y-135.05
X98.5Y-67.55
X98.5Y-90.05
X98.5Y-112.55
X98.5Y-135.05
T4
X70.5Y-53.5
X70.5Y-76.0
X70.5Y-98.5
X70.5Y-121.0
X96.0Y-142.0
T5
X70.5Y-56.6
X70.5Y-79.1
X70.5Y-101.6
X70.5Y-124.1
X96.0Y-145.1
T6
X70.5Y-64.9
X70.5Y-87.4
X70.5Y-109.9
X70.5Y-132.4
X96.0Y-153.4
T3
X79.7Y-55.3G85X78.5Y-55.3
G05
X79.7Y-60.0G85X78.5Y-60.0
G05
X79.7Y-64.7G85X78.5Y-64.7
G05
X79.7Y-77.8G85X78.5Y-77.8
G05
X79.7Y-82.5G85X78.5Y-82.5
G05
X79.7Y-87.2G85X78.5Y-87.2
G05
X79.7Y-100.3G85X78.5Y-100.3
G05
X79.7Y-105.0G85X78.5Y-105.0
G05
X79.7Y-109.7G85X78.5Y-109.7
G05
X79.7Y-122.8G85X78.5Y-122.8
G05
X79.7Y-127.5G85X78.5Y-127.5
G05
X79.7Y-132.2G85X78.5Y-132.2
G05
X84.5Y-55.3G85X83.3Y-55.3
G05
X84.5Y-60.0G85X83.3Y-60.0
G05
X84.5Y-64.7G85X83.3Y-64.7
G05
X84.5Y-77.8G85X83.3Y-77.8
G05
X84.5Y-82.5G85X83.3Y-82.5
G05
X84.5Y-87.2G85X83.3Y-87.2
G05
X84.5Y-100.3G85X83.3Y-100.3
G05
X84.5Y-105.0G85X83.3Y-105.0
G05
X84.5Y-109.7G85X83.3Y-109.7
G05
X84.5Y-122.8G85X83.3Y-122.8
G05
X84.5Y-127.5G85X83.3Y-127.5
G05
X84.5Y-132.2G85X83.3Y-132.2
G05
T0
M30
