G04 #@! TF.GenerationSoftware,KiCad,Pcbnew,(6.0.0)*
G04 #@! TF.CreationDate,2022-07-07T12:02:20+01:00*
G04 #@! TF.ProjectId,PSU,5053552e-6b69-4636-9164-5f7063625858,rev?*
G04 #@! TF.SameCoordinates,Original*
G04 #@! TF.FileFunction,Legend,Top*
G04 #@! TF.FilePolarity,Positive*
%FSLAX46Y46*%
G04 Gerber Fmt 4.6, Leading zero omitted, Abs format (unit mm)*
G04 Created by KiCad (PCBNEW (6.0.0)) date 2022-07-07 12:02:20*
%MOMM*%
%LPD*%
G01*
G04 APERTURE LIST*
%ADD10C,0.150000*%
G04 #@! TA.AperFunction,Profile*
%ADD11C,0.150000*%
G04 #@! TD*
%ADD12C,0.300000*%
%ADD13C,0.120000*%
%ADD14R,3.000000X3.000000*%
%ADD15C,3.000000*%
%ADD16R,1.600000X1.600000*%
%ADD17C,1.600000*%
%ADD18R,2.400000X2.400000*%
%ADD19C,2.400000*%
%ADD20R,1.800000X1.800000*%
%ADD21C,1.800000*%
%ADD22R,2.000000X1.905000*%
%ADD23O,2.000000X1.905000*%
%ADD24O,1.600000X1.600000*%
%ADD25R,2.200000X2.200000*%
%ADD26O,2.200000X2.200000*%
%ADD27C,2.000000*%
G04 APERTURE END LIST*
D10*
X148785714Y-65571428D02*
X149547619Y-65571428D01*
X149166666Y-65952380D02*
X149166666Y-65190476D01*
X150547619Y-65952380D02*
X149976190Y-65952380D01*
X150261904Y-65952380D02*
X150261904Y-64952380D01*
X150166666Y-65095238D01*
X150071428Y-65190476D01*
X149976190Y-65238095D01*
X150928571Y-65047619D02*
X150976190Y-65000000D01*
X151071428Y-64952380D01*
X151309523Y-64952380D01*
X151404761Y-65000000D01*
X151452380Y-65047619D01*
X151500000Y-65142857D01*
X151500000Y-65238095D01*
X151452380Y-65380952D01*
X150880952Y-65952380D01*
X151500000Y-65952380D01*
X151833333Y-65285714D02*
X152071428Y-65952380D01*
X152309523Y-65285714D01*
X149285714Y-83571428D02*
X150047619Y-83571428D01*
X151047619Y-83952380D02*
X150476190Y-83952380D01*
X150761904Y-83952380D02*
X150761904Y-82952380D01*
X150666666Y-83095238D01*
X150571428Y-83190476D01*
X150476190Y-83238095D01*
X151428571Y-83047619D02*
X151476190Y-83000000D01*
X151571428Y-82952380D01*
X151809523Y-82952380D01*
X151904761Y-83000000D01*
X151952380Y-83047619D01*
X152000000Y-83142857D01*
X152000000Y-83238095D01*
X151952380Y-83380952D01*
X151380952Y-83952380D01*
X152000000Y-83952380D01*
X152333333Y-83285714D02*
X152571428Y-83952380D01*
X152809523Y-83285714D01*
D11*
X43000000Y-53000000D02*
X153490000Y-53000000D01*
X153490000Y-96000000D02*
X43000000Y-96000000D01*
X153490000Y-96000000D02*
X153490000Y-53000000D01*
X43000000Y-96000000D02*
X43000000Y-53000000D01*
D12*
X124754761Y-77592619D02*
X126754761Y-76925952D01*
X124754761Y-76259285D01*
X126754761Y-74545000D02*
X126754761Y-75687857D01*
X126754761Y-75116428D02*
X124754761Y-75116428D01*
X125040476Y-75306904D01*
X125230952Y-75497380D01*
X125326190Y-75687857D01*
X126564285Y-73687857D02*
X126659523Y-73592619D01*
X126754761Y-73687857D01*
X126659523Y-73783095D01*
X126564285Y-73687857D01*
X126754761Y-73687857D01*
X124754761Y-72354523D02*
X124754761Y-72164047D01*
X124850000Y-71973571D01*
X124945238Y-71878333D01*
X125135714Y-71783095D01*
X125516666Y-71687857D01*
X125992857Y-71687857D01*
X126373809Y-71783095D01*
X126564285Y-71878333D01*
X126659523Y-71973571D01*
X126754761Y-72164047D01*
X126754761Y-72354523D01*
X126659523Y-72545000D01*
X126564285Y-72640238D01*
X126373809Y-72735476D01*
X125992857Y-72830714D01*
X125516666Y-72830714D01*
X125135714Y-72735476D01*
X124945238Y-72640238D01*
X124850000Y-72545000D01*
X124754761Y-72354523D01*
D10*
X118690952Y-94317380D02*
X118690952Y-95031666D01*
X118643333Y-95174523D01*
X118548095Y-95269761D01*
X118405238Y-95317380D01*
X118310000Y-95317380D01*
X119643333Y-95317380D02*
X119167142Y-95317380D01*
X119167142Y-94317380D01*
X120548095Y-95222142D02*
X120500476Y-95269761D01*
X120357619Y-95317380D01*
X120262380Y-95317380D01*
X120119523Y-95269761D01*
X120024285Y-95174523D01*
X119976666Y-95079285D01*
X119929047Y-94888809D01*
X119929047Y-94745952D01*
X119976666Y-94555476D01*
X120024285Y-94460238D01*
X120119523Y-94365000D01*
X120262380Y-94317380D01*
X120357619Y-94317380D01*
X120500476Y-94365000D01*
X120548095Y-94412619D01*
X121262380Y-94317380D02*
X121262380Y-95031666D01*
X121214761Y-95174523D01*
X121119523Y-95269761D01*
X120976666Y-95317380D01*
X120881428Y-95317380D01*
X122214761Y-95317380D02*
X121738571Y-95317380D01*
X121738571Y-94317380D01*
X123119523Y-95222142D02*
X123071904Y-95269761D01*
X122929047Y-95317380D01*
X122833809Y-95317380D01*
X122690952Y-95269761D01*
X122595714Y-95174523D01*
X122548095Y-95079285D01*
X122500476Y-94888809D01*
X122500476Y-94745952D01*
X122548095Y-94555476D01*
X122595714Y-94460238D01*
X122690952Y-94365000D01*
X122833809Y-94317380D01*
X122929047Y-94317380D01*
X123071904Y-94365000D01*
X123119523Y-94412619D01*
X123833809Y-94317380D02*
X123833809Y-95031666D01*
X123786190Y-95174523D01*
X123690952Y-95269761D01*
X123548095Y-95317380D01*
X123452857Y-95317380D01*
X124786190Y-95317380D02*
X124310000Y-95317380D01*
X124310000Y-94317380D01*
X125690952Y-95222142D02*
X125643333Y-95269761D01*
X125500476Y-95317380D01*
X125405238Y-95317380D01*
X125262380Y-95269761D01*
X125167142Y-95174523D01*
X125119523Y-95079285D01*
X125071904Y-94888809D01*
X125071904Y-94745952D01*
X125119523Y-94555476D01*
X125167142Y-94460238D01*
X125262380Y-94365000D01*
X125405238Y-94317380D01*
X125500476Y-94317380D01*
X125643333Y-94365000D01*
X125690952Y-94412619D01*
X126405238Y-94317380D02*
X126405238Y-95031666D01*
X126357619Y-95174523D01*
X126262380Y-95269761D01*
X126119523Y-95317380D01*
X126024285Y-95317380D01*
X127357619Y-95317380D02*
X126881428Y-95317380D01*
X126881428Y-94317380D01*
X128262380Y-95222142D02*
X128214761Y-95269761D01*
X128071904Y-95317380D01*
X127976666Y-95317380D01*
X127833809Y-95269761D01*
X127738571Y-95174523D01*
X127690952Y-95079285D01*
X127643333Y-94888809D01*
X127643333Y-94745952D01*
X127690952Y-94555476D01*
X127738571Y-94460238D01*
X127833809Y-94365000D01*
X127976666Y-94317380D01*
X128071904Y-94317380D01*
X128214761Y-94365000D01*
X128262380Y-94412619D01*
D12*
X123579761Y-83735476D02*
X121579761Y-83735476D01*
X123008333Y-83068809D01*
X121579761Y-82402142D01*
X123579761Y-82402142D01*
X123579761Y-81164047D02*
X123484523Y-81354523D01*
X123389285Y-81449761D01*
X123198809Y-81544999D01*
X122627380Y-81544999D01*
X122436904Y-81449761D01*
X122341666Y-81354523D01*
X122246428Y-81164047D01*
X122246428Y-80878333D01*
X122341666Y-80687857D01*
X122436904Y-80592619D01*
X122627380Y-80497380D01*
X123198809Y-80497380D01*
X123389285Y-80592619D01*
X123484523Y-80687857D01*
X123579761Y-80878333D01*
X123579761Y-81164047D01*
X123579761Y-78783095D02*
X121579761Y-78783095D01*
X123484523Y-78783095D02*
X123579761Y-78973571D01*
X123579761Y-79354523D01*
X123484523Y-79544999D01*
X123389285Y-79640238D01*
X123198809Y-79735476D01*
X122627380Y-79735476D01*
X122436904Y-79640238D01*
X122341666Y-79544999D01*
X122246428Y-79354523D01*
X122246428Y-78973571D01*
X122341666Y-78783095D01*
X122246428Y-76973571D02*
X123579761Y-76973571D01*
X122246428Y-77830714D02*
X123294047Y-77830714D01*
X123484523Y-77735476D01*
X123579761Y-77544999D01*
X123579761Y-77259285D01*
X123484523Y-77068809D01*
X123389285Y-76973571D01*
X123579761Y-75735476D02*
X123484523Y-75925952D01*
X123294047Y-76021190D01*
X121579761Y-76021190D01*
X123579761Y-74116428D02*
X122532142Y-74116428D01*
X122341666Y-74211666D01*
X122246428Y-74402142D01*
X122246428Y-74783095D01*
X122341666Y-74973571D01*
X123484523Y-74116428D02*
X123579761Y-74306904D01*
X123579761Y-74783095D01*
X123484523Y-74973571D01*
X123294047Y-75068809D01*
X123103571Y-75068809D01*
X122913095Y-74973571D01*
X122817857Y-74783095D01*
X122817857Y-74306904D01*
X122722619Y-74116428D01*
X123579761Y-73164047D02*
X122246428Y-73164047D01*
X122627380Y-73164047D02*
X122436904Y-73068809D01*
X122341666Y-72973571D01*
X122246428Y-72783095D01*
X122246428Y-72592619D01*
X123579761Y-70402142D02*
X121579761Y-70402142D01*
X121579761Y-69640238D01*
X121675000Y-69449761D01*
X121770238Y-69354523D01*
X121960714Y-69259285D01*
X122246428Y-69259285D01*
X122436904Y-69354523D01*
X122532142Y-69449761D01*
X122627380Y-69640238D01*
X122627380Y-70402142D01*
X123484523Y-68497380D02*
X123579761Y-68211666D01*
X123579761Y-67735476D01*
X123484523Y-67544999D01*
X123389285Y-67449761D01*
X123198809Y-67354523D01*
X123008333Y-67354523D01*
X122817857Y-67449761D01*
X122722619Y-67544999D01*
X122627380Y-67735476D01*
X122532142Y-68116428D01*
X122436904Y-68306904D01*
X122341666Y-68402142D01*
X122151190Y-68497380D01*
X121960714Y-68497380D01*
X121770238Y-68402142D01*
X121675000Y-68306904D01*
X121579761Y-68116428D01*
X121579761Y-67640238D01*
X121675000Y-67354523D01*
X121579761Y-66497380D02*
X123198809Y-66497380D01*
X123389285Y-66402142D01*
X123484523Y-66306904D01*
X123579761Y-66116428D01*
X123579761Y-65735476D01*
X123484523Y-65545000D01*
X123389285Y-65449761D01*
X123198809Y-65354523D01*
X121579761Y-65354523D01*
D10*
X151452380Y-74833333D02*
X152166666Y-74833333D01*
X152309523Y-74880952D01*
X152404761Y-74976190D01*
X152452380Y-75119047D01*
X152452380Y-75214285D01*
X151547619Y-74404761D02*
X151500000Y-74357142D01*
X151452380Y-74261904D01*
X151452380Y-74023809D01*
X151500000Y-73928571D01*
X151547619Y-73880952D01*
X151642857Y-73833333D01*
X151738095Y-73833333D01*
X151880952Y-73880952D01*
X152452380Y-74452380D01*
X152452380Y-73833333D01*
X75982142Y-74441666D02*
X76029761Y-74489285D01*
X76077380Y-74632142D01*
X76077380Y-74727380D01*
X76029761Y-74870238D01*
X75934523Y-74965476D01*
X75839285Y-75013095D01*
X75648809Y-75060714D01*
X75505952Y-75060714D01*
X75315476Y-75013095D01*
X75220238Y-74965476D01*
X75125000Y-74870238D01*
X75077380Y-74727380D01*
X75077380Y-74632142D01*
X75125000Y-74489285D01*
X75172619Y-74441666D01*
X76077380Y-73489285D02*
X76077380Y-74060714D01*
X76077380Y-73775000D02*
X75077380Y-73775000D01*
X75220238Y-73870238D01*
X75315476Y-73965476D01*
X75363095Y-74060714D01*
X108427142Y-55661666D02*
X108474761Y-55709285D01*
X108522380Y-55852142D01*
X108522380Y-55947380D01*
X108474761Y-56090238D01*
X108379523Y-56185476D01*
X108284285Y-56233095D01*
X108093809Y-56280714D01*
X107950952Y-56280714D01*
X107760476Y-56233095D01*
X107665238Y-56185476D01*
X107570000Y-56090238D01*
X107522380Y-55947380D01*
X107522380Y-55852142D01*
X107570000Y-55709285D01*
X107617619Y-55661666D01*
X107522380Y-55328333D02*
X107522380Y-54661666D01*
X108522380Y-55090238D01*
X95032142Y-74441666D02*
X95079761Y-74489285D01*
X95127380Y-74632142D01*
X95127380Y-74727380D01*
X95079761Y-74870238D01*
X94984523Y-74965476D01*
X94889285Y-75013095D01*
X94698809Y-75060714D01*
X94555952Y-75060714D01*
X94365476Y-75013095D01*
X94270238Y-74965476D01*
X94175000Y-74870238D01*
X94127380Y-74727380D01*
X94127380Y-74632142D01*
X94175000Y-74489285D01*
X94222619Y-74441666D01*
X94222619Y-74060714D02*
X94175000Y-74013095D01*
X94127380Y-73917857D01*
X94127380Y-73679761D01*
X94175000Y-73584523D01*
X94222619Y-73536904D01*
X94317857Y-73489285D01*
X94413095Y-73489285D01*
X94555952Y-73536904D01*
X95127380Y-74108333D01*
X95127380Y-73489285D01*
X91007142Y-87351666D02*
X91054761Y-87399285D01*
X91102380Y-87542142D01*
X91102380Y-87637380D01*
X91054761Y-87780238D01*
X90959523Y-87875476D01*
X90864285Y-87923095D01*
X90673809Y-87970714D01*
X90530952Y-87970714D01*
X90340476Y-87923095D01*
X90245238Y-87875476D01*
X90150000Y-87780238D01*
X90102380Y-87637380D01*
X90102380Y-87542142D01*
X90150000Y-87399285D01*
X90197619Y-87351666D01*
X90102380Y-86494523D02*
X90102380Y-86685000D01*
X90150000Y-86780238D01*
X90197619Y-86827857D01*
X90340476Y-86923095D01*
X90530952Y-86970714D01*
X90911904Y-86970714D01*
X91007142Y-86923095D01*
X91054761Y-86875476D01*
X91102380Y-86780238D01*
X91102380Y-86589761D01*
X91054761Y-86494523D01*
X91007142Y-86446904D01*
X90911904Y-86399285D01*
X90673809Y-86399285D01*
X90578571Y-86446904D01*
X90530952Y-86494523D01*
X90483333Y-86589761D01*
X90483333Y-86780238D01*
X90530952Y-86875476D01*
X90578571Y-86923095D01*
X90673809Y-86970714D01*
X107792142Y-94396666D02*
X107839761Y-94444285D01*
X107887380Y-94587142D01*
X107887380Y-94682380D01*
X107839761Y-94825238D01*
X107744523Y-94920476D01*
X107649285Y-94968095D01*
X107458809Y-95015714D01*
X107315952Y-95015714D01*
X107125476Y-94968095D01*
X107030238Y-94920476D01*
X106935000Y-94825238D01*
X106887380Y-94682380D01*
X106887380Y-94587142D01*
X106935000Y-94444285D01*
X106982619Y-94396666D01*
X107315952Y-93825238D02*
X107268333Y-93920476D01*
X107220714Y-93968095D01*
X107125476Y-94015714D01*
X107077857Y-94015714D01*
X106982619Y-93968095D01*
X106935000Y-93920476D01*
X106887380Y-93825238D01*
X106887380Y-93634761D01*
X106935000Y-93539523D01*
X106982619Y-93491904D01*
X107077857Y-93444285D01*
X107125476Y-93444285D01*
X107220714Y-93491904D01*
X107268333Y-93539523D01*
X107315952Y-93634761D01*
X107315952Y-93825238D01*
X107363571Y-93920476D01*
X107411190Y-93968095D01*
X107506428Y-94015714D01*
X107696904Y-94015714D01*
X107792142Y-93968095D01*
X107839761Y-93920476D01*
X107887380Y-93825238D01*
X107887380Y-93634761D01*
X107839761Y-93539523D01*
X107792142Y-93491904D01*
X107696904Y-93444285D01*
X107506428Y-93444285D01*
X107411190Y-93491904D01*
X107363571Y-93539523D01*
X107315952Y-93634761D01*
X143987142Y-56931666D02*
X144034761Y-56979285D01*
X144082380Y-57122142D01*
X144082380Y-57217380D01*
X144034761Y-57360238D01*
X143939523Y-57455476D01*
X143844285Y-57503095D01*
X143653809Y-57550714D01*
X143510952Y-57550714D01*
X143320476Y-57503095D01*
X143225238Y-57455476D01*
X143130000Y-57360238D01*
X143082380Y-57217380D01*
X143082380Y-57122142D01*
X143130000Y-56979285D01*
X143177619Y-56931666D01*
X144082380Y-56455476D02*
X144082380Y-56265000D01*
X144034761Y-56169761D01*
X143987142Y-56122142D01*
X143844285Y-56026904D01*
X143653809Y-55979285D01*
X143272857Y-55979285D01*
X143177619Y-56026904D01*
X143130000Y-56074523D01*
X143082380Y-56169761D01*
X143082380Y-56360238D01*
X143130000Y-56455476D01*
X143177619Y-56503095D01*
X143272857Y-56550714D01*
X143510952Y-56550714D01*
X143606190Y-56503095D01*
X143653809Y-56455476D01*
X143701428Y-56360238D01*
X143701428Y-56169761D01*
X143653809Y-56074523D01*
X143606190Y-56026904D01*
X143510952Y-55979285D01*
X130077142Y-93237857D02*
X130124761Y-93285476D01*
X130172380Y-93428333D01*
X130172380Y-93523571D01*
X130124761Y-93666428D01*
X130029523Y-93761666D01*
X129934285Y-93809285D01*
X129743809Y-93856904D01*
X129600952Y-93856904D01*
X129410476Y-93809285D01*
X129315238Y-93761666D01*
X129220000Y-93666428D01*
X129172380Y-93523571D01*
X129172380Y-93428333D01*
X129220000Y-93285476D01*
X129267619Y-93237857D01*
X130172380Y-92285476D02*
X130172380Y-92856904D01*
X130172380Y-92571190D02*
X129172380Y-92571190D01*
X129315238Y-92666428D01*
X129410476Y-92761666D01*
X129458095Y-92856904D01*
X129172380Y-91666428D02*
X129172380Y-91571190D01*
X129220000Y-91475952D01*
X129267619Y-91428333D01*
X129362857Y-91380714D01*
X129553333Y-91333095D01*
X129791428Y-91333095D01*
X129981904Y-91380714D01*
X130077142Y-91428333D01*
X130124761Y-91475952D01*
X130172380Y-91571190D01*
X130172380Y-91666428D01*
X130124761Y-91761666D01*
X130077142Y-91809285D01*
X129981904Y-91856904D01*
X129791428Y-91904523D01*
X129553333Y-91904523D01*
X129362857Y-91856904D01*
X129267619Y-91809285D01*
X129220000Y-91761666D01*
X129172380Y-91666428D01*
X144717380Y-93063095D02*
X143717380Y-93063095D01*
X143717380Y-92825000D01*
X143765000Y-92682142D01*
X143860238Y-92586904D01*
X143955476Y-92539285D01*
X144145952Y-92491666D01*
X144288809Y-92491666D01*
X144479285Y-92539285D01*
X144574523Y-92586904D01*
X144669761Y-92682142D01*
X144717380Y-92825000D01*
X144717380Y-93063095D01*
X143717380Y-92158333D02*
X143717380Y-91491666D01*
X144717380Y-91920238D01*
X137732380Y-73378095D02*
X136732380Y-73378095D01*
X136732380Y-73140000D01*
X136780000Y-72997142D01*
X136875238Y-72901904D01*
X136970476Y-72854285D01*
X137160952Y-72806666D01*
X137303809Y-72806666D01*
X137494285Y-72854285D01*
X137589523Y-72901904D01*
X137684761Y-72997142D01*
X137732380Y-73140000D01*
X137732380Y-73378095D01*
X137160952Y-72235238D02*
X137113333Y-72330476D01*
X137065714Y-72378095D01*
X136970476Y-72425714D01*
X136922857Y-72425714D01*
X136827619Y-72378095D01*
X136780000Y-72330476D01*
X136732380Y-72235238D01*
X136732380Y-72044761D01*
X136780000Y-71949523D01*
X136827619Y-71901904D01*
X136922857Y-71854285D01*
X136970476Y-71854285D01*
X137065714Y-71901904D01*
X137113333Y-71949523D01*
X137160952Y-72044761D01*
X137160952Y-72235238D01*
X137208571Y-72330476D01*
X137256190Y-72378095D01*
X137351428Y-72425714D01*
X137541904Y-72425714D01*
X137637142Y-72378095D01*
X137684761Y-72330476D01*
X137732380Y-72235238D01*
X137732380Y-72044761D01*
X137684761Y-71949523D01*
X137637142Y-71901904D01*
X137541904Y-71854285D01*
X137351428Y-71854285D01*
X137256190Y-71901904D01*
X137208571Y-71949523D01*
X137160952Y-72044761D01*
X118142380Y-88006904D02*
X118951904Y-88006904D01*
X119047142Y-87959285D01*
X119094761Y-87911666D01*
X119142380Y-87816428D01*
X119142380Y-87625952D01*
X119094761Y-87530714D01*
X119047142Y-87483095D01*
X118951904Y-87435476D01*
X118142380Y-87435476D01*
X118237619Y-87006904D02*
X118190000Y-86959285D01*
X118142380Y-86864047D01*
X118142380Y-86625952D01*
X118190000Y-86530714D01*
X118237619Y-86483095D01*
X118332857Y-86435476D01*
X118428095Y-86435476D01*
X118570952Y-86483095D01*
X119142380Y-87054523D01*
X119142380Y-86435476D01*
X91007142Y-61951666D02*
X91054761Y-61999285D01*
X91102380Y-62142142D01*
X91102380Y-62237380D01*
X91054761Y-62380238D01*
X90959523Y-62475476D01*
X90864285Y-62523095D01*
X90673809Y-62570714D01*
X90530952Y-62570714D01*
X90340476Y-62523095D01*
X90245238Y-62475476D01*
X90150000Y-62380238D01*
X90102380Y-62237380D01*
X90102380Y-62142142D01*
X90150000Y-61999285D01*
X90197619Y-61951666D01*
X90102380Y-61046904D02*
X90102380Y-61523095D01*
X90578571Y-61570714D01*
X90530952Y-61523095D01*
X90483333Y-61427857D01*
X90483333Y-61189761D01*
X90530952Y-61094523D01*
X90578571Y-61046904D01*
X90673809Y-60999285D01*
X90911904Y-60999285D01*
X91007142Y-61046904D01*
X91054761Y-61094523D01*
X91102380Y-61189761D01*
X91102380Y-61427857D01*
X91054761Y-61523095D01*
X91007142Y-61570714D01*
X53182142Y-62011666D02*
X53229761Y-62059285D01*
X53277380Y-62202142D01*
X53277380Y-62297380D01*
X53229761Y-62440238D01*
X53134523Y-62535476D01*
X53039285Y-62583095D01*
X52848809Y-62630714D01*
X52705952Y-62630714D01*
X52515476Y-62583095D01*
X52420238Y-62535476D01*
X52325000Y-62440238D01*
X52277380Y-62297380D01*
X52277380Y-62202142D01*
X52325000Y-62059285D01*
X52372619Y-62011666D01*
X52277380Y-61678333D02*
X52277380Y-61059285D01*
X52658333Y-61392619D01*
X52658333Y-61249761D01*
X52705952Y-61154523D01*
X52753571Y-61106904D01*
X52848809Y-61059285D01*
X53086904Y-61059285D01*
X53182142Y-61106904D01*
X53229761Y-61154523D01*
X53277380Y-61249761D01*
X53277380Y-61535476D01*
X53229761Y-61630714D01*
X53182142Y-61678333D01*
X71957142Y-87351666D02*
X72004761Y-87399285D01*
X72052380Y-87542142D01*
X72052380Y-87637380D01*
X72004761Y-87780238D01*
X71909523Y-87875476D01*
X71814285Y-87923095D01*
X71623809Y-87970714D01*
X71480952Y-87970714D01*
X71290476Y-87923095D01*
X71195238Y-87875476D01*
X71100000Y-87780238D01*
X71052380Y-87637380D01*
X71052380Y-87542142D01*
X71100000Y-87399285D01*
X71147619Y-87351666D01*
X71385714Y-86494523D02*
X72052380Y-86494523D01*
X71004761Y-86732619D02*
X71719047Y-86970714D01*
X71719047Y-86351666D01*
X136642380Y-61376666D02*
X136166190Y-61710000D01*
X136642380Y-61948095D02*
X135642380Y-61948095D01*
X135642380Y-61567142D01*
X135690000Y-61471904D01*
X135737619Y-61424285D01*
X135832857Y-61376666D01*
X135975714Y-61376666D01*
X136070952Y-61424285D01*
X136118571Y-61471904D01*
X136166190Y-61567142D01*
X136166190Y-61948095D01*
X135737619Y-60995714D02*
X135690000Y-60948095D01*
X135642380Y-60852857D01*
X135642380Y-60614761D01*
X135690000Y-60519523D01*
X135737619Y-60471904D01*
X135832857Y-60424285D01*
X135928095Y-60424285D01*
X136070952Y-60471904D01*
X136642380Y-61043333D01*
X136642380Y-60424285D01*
X140452380Y-81061666D02*
X139976190Y-81395000D01*
X140452380Y-81633095D02*
X139452380Y-81633095D01*
X139452380Y-81252142D01*
X139500000Y-81156904D01*
X139547619Y-81109285D01*
X139642857Y-81061666D01*
X139785714Y-81061666D01*
X139880952Y-81109285D01*
X139928571Y-81156904D01*
X139976190Y-81252142D01*
X139976190Y-81633095D01*
X140452380Y-80109285D02*
X140452380Y-80680714D01*
X140452380Y-80395000D02*
X139452380Y-80395000D01*
X139595238Y-80490238D01*
X139690476Y-80585476D01*
X139738095Y-80680714D01*
X55261904Y-79442380D02*
X55261904Y-78442380D01*
X55500000Y-78442380D01*
X55642857Y-78490000D01*
X55738095Y-78585238D01*
X55785714Y-78680476D01*
X55833333Y-78870952D01*
X55833333Y-79013809D01*
X55785714Y-79204285D01*
X55738095Y-79299523D01*
X55642857Y-79394761D01*
X55500000Y-79442380D01*
X55261904Y-79442380D01*
X56214285Y-78537619D02*
X56261904Y-78490000D01*
X56357142Y-78442380D01*
X56595238Y-78442380D01*
X56690476Y-78490000D01*
X56738095Y-78537619D01*
X56785714Y-78632857D01*
X56785714Y-78728095D01*
X56738095Y-78870952D01*
X56166666Y-79442380D01*
X56785714Y-79442380D01*
X55738095Y-74802380D02*
X55738095Y-73802380D01*
X56309523Y-74802380D02*
X55880952Y-74230952D01*
X56309523Y-73802380D02*
X55738095Y-74373809D01*
X66056904Y-70552380D02*
X66056904Y-69552380D01*
X66295000Y-69552380D01*
X66437857Y-69600000D01*
X66533095Y-69695238D01*
X66580714Y-69790476D01*
X66628333Y-69980952D01*
X66628333Y-70123809D01*
X66580714Y-70314285D01*
X66533095Y-70409523D01*
X66437857Y-70504761D01*
X66295000Y-70552380D01*
X66056904Y-70552380D01*
X67580714Y-70552380D02*
X67009285Y-70552380D01*
X67295000Y-70552380D02*
X67295000Y-69552380D01*
X67199761Y-69695238D01*
X67104523Y-69790476D01*
X67009285Y-69838095D01*
X65898095Y-75192380D02*
X65898095Y-74192380D01*
X66469523Y-75192380D02*
X66040952Y-74620952D01*
X66469523Y-74192380D02*
X65898095Y-74763809D01*
X111062380Y-70203095D02*
X110062380Y-70203095D01*
X110062380Y-69965000D01*
X110110000Y-69822142D01*
X110205238Y-69726904D01*
X110300476Y-69679285D01*
X110490952Y-69631666D01*
X110633809Y-69631666D01*
X110824285Y-69679285D01*
X110919523Y-69726904D01*
X111014761Y-69822142D01*
X111062380Y-69965000D01*
X111062380Y-70203095D01*
X110062380Y-69298333D02*
X110062380Y-68679285D01*
X110443333Y-69012619D01*
X110443333Y-68869761D01*
X110490952Y-68774523D01*
X110538571Y-68726904D01*
X110633809Y-68679285D01*
X110871904Y-68679285D01*
X110967142Y-68726904D01*
X111014761Y-68774523D01*
X111062380Y-68869761D01*
X111062380Y-69155476D01*
X111014761Y-69250714D01*
X110967142Y-69298333D01*
X113162380Y-57026904D02*
X112162380Y-57026904D01*
X113162380Y-56455476D02*
X112590952Y-56884047D01*
X112162380Y-56455476D02*
X112733809Y-57026904D01*
X111062380Y-80363095D02*
X110062380Y-80363095D01*
X110062380Y-80125000D01*
X110110000Y-79982142D01*
X110205238Y-79886904D01*
X110300476Y-79839285D01*
X110490952Y-79791666D01*
X110633809Y-79791666D01*
X110824285Y-79839285D01*
X110919523Y-79886904D01*
X111014761Y-79982142D01*
X111062380Y-80125000D01*
X111062380Y-80363095D01*
X110395714Y-78934523D02*
X111062380Y-78934523D01*
X110014761Y-79172619D02*
X110729047Y-79410714D01*
X110729047Y-78791666D01*
X108962380Y-92586904D02*
X107962380Y-92586904D01*
X108962380Y-92015476D02*
X108390952Y-92444047D01*
X107962380Y-92015476D02*
X108533809Y-92586904D01*
X130112380Y-83538095D02*
X129112380Y-83538095D01*
X129112380Y-83300000D01*
X129160000Y-83157142D01*
X129255238Y-83061904D01*
X129350476Y-83014285D01*
X129540952Y-82966666D01*
X129683809Y-82966666D01*
X129874285Y-83014285D01*
X129969523Y-83061904D01*
X130064761Y-83157142D01*
X130112380Y-83300000D01*
X130112380Y-83538095D01*
X129112380Y-82109523D02*
X129112380Y-82300000D01*
X129160000Y-82395238D01*
X129207619Y-82442857D01*
X129350476Y-82538095D01*
X129540952Y-82585714D01*
X129921904Y-82585714D01*
X130017142Y-82538095D01*
X130064761Y-82490476D01*
X130112380Y-82395238D01*
X130112380Y-82204761D01*
X130064761Y-82109523D01*
X130017142Y-82061904D01*
X129921904Y-82014285D01*
X129683809Y-82014285D01*
X129588571Y-82061904D01*
X129540952Y-82109523D01*
X129493333Y-82204761D01*
X129493333Y-82395238D01*
X129540952Y-82490476D01*
X129588571Y-82538095D01*
X129683809Y-82585714D01*
X136022380Y-77981904D02*
X135022380Y-77981904D01*
X136022380Y-77410476D02*
X135450952Y-77839047D01*
X135022380Y-77410476D02*
X135593809Y-77981904D01*
X140452380Y-67238095D02*
X139452380Y-67238095D01*
X139452380Y-67000000D01*
X139500000Y-66857142D01*
X139595238Y-66761904D01*
X139690476Y-66714285D01*
X139880952Y-66666666D01*
X140023809Y-66666666D01*
X140214285Y-66714285D01*
X140309523Y-66761904D01*
X140404761Y-66857142D01*
X140452380Y-67000000D01*
X140452380Y-67238095D01*
X139452380Y-65761904D02*
X139452380Y-66238095D01*
X139928571Y-66285714D01*
X139880952Y-66238095D01*
X139833333Y-66142857D01*
X139833333Y-65904761D01*
X139880952Y-65809523D01*
X139928571Y-65761904D01*
X140023809Y-65714285D01*
X140261904Y-65714285D01*
X140357142Y-65761904D01*
X140404761Y-65809523D01*
X140452380Y-65904761D01*
X140452380Y-66142857D01*
X140404761Y-66238095D01*
X140357142Y-66285714D01*
X142372380Y-61471904D02*
X141372380Y-61471904D01*
X142372380Y-60900476D02*
X141800952Y-61329047D01*
X141372380Y-60900476D02*
X141943809Y-61471904D01*
X118142380Y-62606904D02*
X118951904Y-62606904D01*
X119047142Y-62559285D01*
X119094761Y-62511666D01*
X119142380Y-62416428D01*
X119142380Y-62225952D01*
X119094761Y-62130714D01*
X119047142Y-62083095D01*
X118951904Y-62035476D01*
X118142380Y-62035476D01*
X119142380Y-61035476D02*
X119142380Y-61606904D01*
X119142380Y-61321190D02*
X118142380Y-61321190D01*
X118285238Y-61416428D01*
X118380476Y-61511666D01*
X118428095Y-61606904D01*
X146190476Y-61031428D02*
X146952380Y-61031428D01*
X146571428Y-61412380D02*
X146571428Y-60650476D01*
X147285714Y-60412380D02*
X147619047Y-61412380D01*
X147952380Y-60412380D01*
X146238095Y-92040000D02*
X146142857Y-91992380D01*
X146000000Y-91992380D01*
X145857142Y-92040000D01*
X145761904Y-92135238D01*
X145714285Y-92230476D01*
X145666666Y-92420952D01*
X145666666Y-92563809D01*
X145714285Y-92754285D01*
X145761904Y-92849523D01*
X145857142Y-92944761D01*
X146000000Y-92992380D01*
X146095238Y-92992380D01*
X146238095Y-92944761D01*
X146285714Y-92897142D01*
X146285714Y-92563809D01*
X146095238Y-92563809D01*
X146714285Y-92992380D02*
X146714285Y-91992380D01*
X147285714Y-92992380D01*
X147285714Y-91992380D01*
X147761904Y-92992380D02*
X147761904Y-91992380D01*
X148000000Y-91992380D01*
X148142857Y-92040000D01*
X148238095Y-92135238D01*
X148285714Y-92230476D01*
X148333333Y-92420952D01*
X148333333Y-92563809D01*
X148285714Y-92754285D01*
X148238095Y-92849523D01*
X148142857Y-92944761D01*
X148000000Y-92992380D01*
X147761904Y-92992380D01*
X146190476Y-87611428D02*
X146952380Y-87611428D01*
X147285714Y-86992380D02*
X147619047Y-87992380D01*
X147952380Y-86992380D01*
X48046666Y-67647380D02*
X48046666Y-68361666D01*
X47999047Y-68504523D01*
X47903809Y-68599761D01*
X47760952Y-68647380D01*
X47665714Y-68647380D01*
X49046666Y-68647380D02*
X48475238Y-68647380D01*
X48760952Y-68647380D02*
X48760952Y-67647380D01*
X48665714Y-67790238D01*
X48570476Y-67885476D01*
X48475238Y-67933095D01*
D13*
X143190000Y-66880000D02*
X150810000Y-66880000D01*
X143190000Y-82120000D02*
X150810000Y-82120000D01*
X144460000Y-66880000D02*
X144460000Y-82120000D01*
X150810000Y-66880000D02*
X150810000Y-82120000D01*
X143190000Y-66880000D02*
X143190000Y-82120000D01*
X74418000Y-74715000D02*
X72915000Y-74715000D01*
X72790000Y-76716000D02*
X70960000Y-76716000D01*
X70835000Y-74275000D02*
X69295000Y-74275000D01*
X74386000Y-74875000D02*
X72915000Y-74875000D01*
X73053000Y-76596000D02*
X70697000Y-76596000D01*
X70835000Y-74755000D02*
X69339000Y-74755000D01*
X70835000Y-74315000D02*
X69295000Y-74315000D01*
X70835000Y-76276000D02*
X70222000Y-76276000D01*
X73194000Y-76516000D02*
X70556000Y-76516000D01*
X70835000Y-75516000D02*
X69607000Y-75516000D01*
X74448000Y-74475000D02*
X72915000Y-74475000D01*
X70835000Y-76156000D02*
X70090000Y-76156000D01*
X70835000Y-74395000D02*
X69297000Y-74395000D01*
X70835000Y-75036000D02*
X69407000Y-75036000D01*
X74395000Y-74835000D02*
X72915000Y-74835000D01*
X73480000Y-76316000D02*
X70270000Y-76316000D01*
X73258000Y-76476000D02*
X70492000Y-76476000D01*
X74366000Y-74955000D02*
X72915000Y-74955000D01*
X74455000Y-74275000D02*
X72915000Y-74275000D01*
X73940000Y-75836000D02*
X72915000Y-75836000D01*
X70835000Y-75156000D02*
X69447000Y-75156000D01*
X74451000Y-74435000D02*
X72915000Y-74435000D01*
X72552000Y-76796000D02*
X71198000Y-76796000D01*
X73879000Y-75916000D02*
X72915000Y-75916000D01*
X73910000Y-75876000D02*
X72915000Y-75876000D01*
X70835000Y-74996000D02*
X69395000Y-74996000D01*
X73970000Y-75796000D02*
X72915000Y-75796000D01*
X72973000Y-76636000D02*
X70777000Y-76636000D01*
X70835000Y-74955000D02*
X69384000Y-74955000D01*
X70835000Y-75356000D02*
X69527000Y-75356000D01*
X74024000Y-75716000D02*
X72915000Y-75716000D01*
X74317000Y-75116000D02*
X72915000Y-75116000D01*
X70835000Y-75596000D02*
X69651000Y-75596000D01*
X73618000Y-76196000D02*
X72915000Y-76196000D01*
X74444000Y-74515000D02*
X72915000Y-74515000D01*
X72159000Y-76876000D02*
X71591000Y-76876000D01*
X70835000Y-74635000D02*
X69319000Y-74635000D01*
X74050000Y-75676000D02*
X72915000Y-75676000D01*
X70835000Y-75916000D02*
X69871000Y-75916000D01*
X70835000Y-75956000D02*
X69904000Y-75956000D01*
X74122000Y-75556000D02*
X72915000Y-75556000D01*
X74454000Y-74355000D02*
X72915000Y-74355000D01*
X70835000Y-74595000D02*
X69314000Y-74595000D01*
X74223000Y-75356000D02*
X72915000Y-75356000D01*
X73739000Y-76076000D02*
X72915000Y-76076000D01*
X70835000Y-75276000D02*
X69493000Y-75276000D01*
X73997000Y-75756000D02*
X72915000Y-75756000D01*
X74355000Y-74996000D02*
X72915000Y-74996000D01*
X70835000Y-74675000D02*
X69325000Y-74675000D01*
X73701000Y-76116000D02*
X72915000Y-76116000D01*
X74185000Y-75436000D02*
X72915000Y-75436000D01*
X70835000Y-76076000D02*
X70011000Y-76076000D01*
X70835000Y-75196000D02*
X69461000Y-75196000D01*
X73528000Y-76276000D02*
X72915000Y-76276000D01*
X73660000Y-76156000D02*
X72915000Y-76156000D01*
X74143000Y-75516000D02*
X72915000Y-75516000D01*
X70835000Y-75476000D02*
X69585000Y-75476000D01*
X70835000Y-75756000D02*
X69753000Y-75756000D01*
X74075000Y-75636000D02*
X72915000Y-75636000D01*
X74289000Y-75196000D02*
X72915000Y-75196000D01*
X70835000Y-76236000D02*
X70176000Y-76236000D01*
X70835000Y-74795000D02*
X69347000Y-74795000D01*
X70835000Y-74875000D02*
X69364000Y-74875000D01*
X70835000Y-74435000D02*
X69299000Y-74435000D01*
X70835000Y-75876000D02*
X69840000Y-75876000D01*
X70835000Y-74475000D02*
X69302000Y-74475000D01*
X73318000Y-76436000D02*
X70432000Y-76436000D01*
X72393000Y-76836000D02*
X71357000Y-76836000D01*
X74303000Y-75156000D02*
X72915000Y-75156000D01*
X74273000Y-75236000D02*
X72915000Y-75236000D01*
X73600000Y-71720225D02*
X73100000Y-71720225D01*
X70835000Y-74555000D02*
X69310000Y-74555000D01*
X70835000Y-75116000D02*
X69433000Y-75116000D01*
X74436000Y-74595000D02*
X72915000Y-74595000D01*
X74343000Y-75036000D02*
X72915000Y-75036000D01*
X72680000Y-76756000D02*
X71070000Y-76756000D01*
X73812000Y-75996000D02*
X72915000Y-75996000D01*
X70835000Y-75996000D02*
X69938000Y-75996000D01*
X74330000Y-75076000D02*
X72915000Y-75076000D01*
X70835000Y-75076000D02*
X69420000Y-75076000D01*
X74425000Y-74675000D02*
X72915000Y-74675000D01*
X73350000Y-71470225D02*
X73350000Y-71970225D01*
X73846000Y-75956000D02*
X72915000Y-75956000D01*
X70835000Y-75316000D02*
X69510000Y-75316000D01*
X70835000Y-76116000D02*
X70049000Y-76116000D01*
X74403000Y-74795000D02*
X72915000Y-74795000D01*
X74376000Y-74915000D02*
X72915000Y-74915000D01*
X74453000Y-74395000D02*
X72915000Y-74395000D01*
X74204000Y-75396000D02*
X72915000Y-75396000D01*
X74099000Y-75596000D02*
X72915000Y-75596000D01*
X73776000Y-76036000D02*
X72915000Y-76036000D01*
X70835000Y-75236000D02*
X69477000Y-75236000D01*
X73375000Y-76396000D02*
X70375000Y-76396000D01*
X74431000Y-74635000D02*
X72915000Y-74635000D01*
X70835000Y-75796000D02*
X69780000Y-75796000D01*
X73429000Y-76356000D02*
X70321000Y-76356000D01*
X74440000Y-74555000D02*
X72915000Y-74555000D01*
X70835000Y-74715000D02*
X69332000Y-74715000D01*
X74411000Y-74755000D02*
X72915000Y-74755000D01*
X72886000Y-76676000D02*
X70864000Y-76676000D01*
X70835000Y-75836000D02*
X69810000Y-75836000D01*
X74240000Y-75316000D02*
X72915000Y-75316000D01*
X70835000Y-74835000D02*
X69355000Y-74835000D01*
X74455000Y-74315000D02*
X72915000Y-74315000D01*
X74165000Y-75476000D02*
X72915000Y-75476000D01*
X70835000Y-75636000D02*
X69675000Y-75636000D01*
X70835000Y-75436000D02*
X69565000Y-75436000D01*
X70835000Y-74515000D02*
X69306000Y-74515000D01*
X74257000Y-75276000D02*
X72915000Y-75276000D01*
X70835000Y-75716000D02*
X69726000Y-75716000D01*
X70835000Y-75676000D02*
X69700000Y-75676000D01*
X70835000Y-76036000D02*
X69974000Y-76036000D01*
X70835000Y-75396000D02*
X69546000Y-75396000D01*
X70835000Y-74915000D02*
X69374000Y-74915000D01*
X70835000Y-75556000D02*
X69628000Y-75556000D01*
X70835000Y-76196000D02*
X70132000Y-76196000D01*
X70835000Y-74355000D02*
X69296000Y-74355000D01*
X73574000Y-76236000D02*
X72915000Y-76236000D01*
X73126000Y-76556000D02*
X70624000Y-76556000D01*
X74495000Y-74275000D02*
G75*
G03*
X74495000Y-74275000I-2620000J0D01*
G01*
X99010000Y-65466000D02*
X93251000Y-65466000D01*
X99010000Y-65986000D02*
X93540000Y-65986000D01*
X108530000Y-61905000D02*
X92370000Y-61905000D01*
X104007000Y-69066000D02*
X96893000Y-69066000D01*
X108499000Y-62506000D02*
X92401000Y-62506000D01*
X105196000Y-68346000D02*
X95704000Y-68346000D01*
X104593000Y-68746000D02*
X96307000Y-68746000D01*
X108453000Y-62906000D02*
X92447000Y-62906000D01*
X108337000Y-63546000D02*
X92563000Y-63546000D01*
X107544000Y-65666000D02*
X101890000Y-65666000D01*
X108061000Y-64506000D02*
X101890000Y-64506000D01*
X108519000Y-62225000D02*
X92381000Y-62225000D01*
X106870000Y-66706000D02*
X101890000Y-66706000D01*
X107360000Y-65986000D02*
X101890000Y-65986000D01*
X108530000Y-61825000D02*
X92370000Y-61825000D01*
X107074000Y-66426000D02*
X101890000Y-66426000D01*
X108402000Y-63226000D02*
X92498000Y-63226000D01*
X106989000Y-66546000D02*
X101890000Y-66546000D01*
X108435000Y-63026000D02*
X92465000Y-63026000D01*
X107311000Y-66066000D02*
X101890000Y-66066000D01*
X107766000Y-65226000D02*
X101890000Y-65226000D01*
X99010000Y-65266000D02*
X93153000Y-65266000D01*
X107046000Y-66466000D02*
X101890000Y-66466000D01*
X99010000Y-66426000D02*
X93826000Y-66426000D01*
X108530000Y-61865000D02*
X92370000Y-61865000D01*
X103840000Y-69146000D02*
X97060000Y-69146000D01*
X102370000Y-69666000D02*
X98530000Y-69666000D01*
X99010000Y-66106000D02*
X93614000Y-66106000D01*
X108290000Y-63746000D02*
X92610000Y-63746000D01*
X108526000Y-62065000D02*
X92374000Y-62065000D01*
X99010000Y-65026000D02*
X93044000Y-65026000D01*
X106545000Y-67106000D02*
X94355000Y-67106000D01*
X104526000Y-68786000D02*
X96374000Y-68786000D01*
X108514000Y-62305000D02*
X92386000Y-62305000D01*
X107156000Y-66306000D02*
X101890000Y-66306000D01*
X99010000Y-64266000D02*
X92757000Y-64266000D01*
X99010000Y-64786000D02*
X92944000Y-64786000D01*
X99010000Y-64986000D02*
X93027000Y-64986000D01*
X99010000Y-64466000D02*
X92825000Y-64466000D01*
X104314000Y-68906000D02*
X96586000Y-68906000D01*
X99010000Y-66586000D02*
X93940000Y-66586000D01*
X105925000Y-67746000D02*
X94975000Y-67746000D01*
X106290000Y-67386000D02*
X94610000Y-67386000D01*
X106052000Y-67626000D02*
X94848000Y-67626000D01*
X105084000Y-68426000D02*
X95816000Y-68426000D01*
X108409000Y-63186000D02*
X92491000Y-63186000D01*
X105606000Y-68026000D02*
X95294000Y-68026000D01*
X108355000Y-63466000D02*
X92545000Y-63466000D01*
X107972000Y-64746000D02*
X101890000Y-64746000D01*
X106475000Y-67186000D02*
X94425000Y-67186000D01*
X99010000Y-66266000D02*
X93717000Y-66266000D01*
X99010000Y-66186000D02*
X93665000Y-66186000D01*
X107873000Y-64986000D02*
X101890000Y-64986000D01*
X108249000Y-63906000D02*
X92651000Y-63906000D01*
X106613000Y-67026000D02*
X94287000Y-67026000D01*
X108215000Y-64026000D02*
X92685000Y-64026000D01*
X99010000Y-64626000D02*
X92882000Y-64626000D01*
X108502000Y-62465000D02*
X92398000Y-62465000D01*
X99010000Y-64506000D02*
X92839000Y-64506000D01*
X108075000Y-64466000D02*
X101890000Y-64466000D01*
X106252000Y-67426000D02*
X94648000Y-67426000D01*
X99010000Y-66706000D02*
X94030000Y-66706000D01*
X107209000Y-66226000D02*
X101890000Y-66226000D01*
X99010000Y-66466000D02*
X93854000Y-66466000D01*
X99010000Y-64866000D02*
X92976000Y-64866000D01*
X99010000Y-66386000D02*
X93798000Y-66386000D01*
X108441000Y-62986000D02*
X92459000Y-62986000D01*
X107924000Y-64866000D02*
X101890000Y-64866000D01*
X99010000Y-64106000D02*
X92708000Y-64106000D01*
X108511000Y-62345000D02*
X92389000Y-62345000D01*
X108180000Y-64146000D02*
X101890000Y-64146000D01*
X108143000Y-64266000D02*
X101890000Y-64266000D01*
X104240000Y-68946000D02*
X96660000Y-68946000D01*
X99010000Y-65546000D02*
X93293000Y-65546000D01*
X108387000Y-63306000D02*
X92513000Y-63306000D01*
X106093000Y-67586000D02*
X94807000Y-67586000D01*
X105838000Y-67826000D02*
X95062000Y-67826000D01*
X108474000Y-62746000D02*
X92426000Y-62746000D01*
X105882000Y-67786000D02*
X95018000Y-67786000D01*
X105701000Y-67946000D02*
X95199000Y-67946000D01*
X106134000Y-67546000D02*
X94766000Y-67546000D01*
X103374000Y-69346000D02*
X97526000Y-69346000D01*
X103663000Y-69226000D02*
X97237000Y-69226000D01*
X99010000Y-65826000D02*
X93446000Y-65826000D01*
X101548000Y-69826000D02*
X99352000Y-69826000D01*
X105356000Y-68226000D02*
X95544000Y-68226000D01*
X106510000Y-67146000D02*
X94390000Y-67146000D01*
X106213000Y-67466000D02*
X94687000Y-67466000D01*
X99010000Y-65226000D02*
X93134000Y-65226000D01*
X107747000Y-65266000D02*
X101890000Y-65266000D01*
X99010000Y-66906000D02*
X94187000Y-66906000D01*
X105805000Y-53895509D02*
X104205000Y-53895509D01*
X99010000Y-66786000D02*
X94092000Y-66786000D01*
X99010000Y-64386000D02*
X92797000Y-64386000D01*
X99010000Y-64906000D02*
X92993000Y-64906000D01*
X108422000Y-63106000D02*
X92478000Y-63106000D01*
X107907000Y-64906000D02*
X101890000Y-64906000D01*
X108531000Y-61785000D02*
X92369000Y-61785000D01*
X107803000Y-65146000D02*
X101890000Y-65146000D01*
X107821000Y-65106000D02*
X101890000Y-65106000D01*
X99010000Y-66226000D02*
X93691000Y-66226000D01*
X106930000Y-66626000D02*
X101890000Y-66626000D01*
X102202000Y-69706000D02*
X98698000Y-69706000D01*
X99010000Y-65426000D02*
X93231000Y-65426000D01*
X99010000Y-65946000D02*
X93516000Y-65946000D01*
X99010000Y-65146000D02*
X93097000Y-65146000D01*
X99010000Y-64186000D02*
X92732000Y-64186000D01*
X104969000Y-68506000D02*
X95931000Y-68506000D01*
X102801000Y-69546000D02*
X98099000Y-69546000D01*
X106960000Y-66586000D02*
X101890000Y-66586000D01*
X108018000Y-64626000D02*
X101890000Y-64626000D01*
X99010000Y-64666000D02*
X92897000Y-64666000D01*
X99010000Y-65706000D02*
X93378000Y-65706000D01*
X99010000Y-66826000D02*
X94123000Y-66826000D01*
X107856000Y-65026000D02*
X101890000Y-65026000D01*
X108192000Y-64106000D02*
X101890000Y-64106000D01*
X105304000Y-68266000D02*
X95596000Y-68266000D01*
X108260000Y-63866000D02*
X92640000Y-63866000D01*
X99010000Y-66026000D02*
X93564000Y-66026000D01*
X108447000Y-62946000D02*
X92453000Y-62946000D01*
X108528000Y-61985000D02*
X92372000Y-61985000D01*
X99010000Y-66506000D02*
X93882000Y-66506000D01*
X99010000Y-66306000D02*
X93744000Y-66306000D01*
X107940000Y-64826000D02*
X101890000Y-64826000D01*
X108319000Y-63626000D02*
X92581000Y-63626000D01*
X107649000Y-65466000D02*
X101890000Y-65466000D01*
X108168000Y-64186000D02*
X101890000Y-64186000D01*
X105968000Y-67706000D02*
X94932000Y-67706000D01*
X107728000Y-65306000D02*
X101890000Y-65306000D01*
X108469000Y-62786000D02*
X92431000Y-62786000D01*
X103570000Y-69266000D02*
X97330000Y-69266000D01*
X108458000Y-62866000D02*
X92442000Y-62866000D01*
X108371000Y-63386000D02*
X92529000Y-63386000D01*
X107336000Y-66026000D02*
X101890000Y-66026000D01*
X107477000Y-65786000D02*
X101890000Y-65786000D01*
X107499000Y-65746000D02*
X101890000Y-65746000D01*
X108032000Y-64586000D02*
X101890000Y-64586000D01*
X107408000Y-65906000D02*
X101890000Y-65906000D01*
X107987000Y-64706000D02*
X101890000Y-64706000D01*
X108116000Y-64346000D02*
X101890000Y-64346000D01*
X107565000Y-65626000D02*
X101890000Y-65626000D01*
X99010000Y-65506000D02*
X93272000Y-65506000D01*
X104723000Y-68666000D02*
X96177000Y-68666000D01*
X108346000Y-63506000D02*
X92554000Y-63506000D01*
X102668000Y-69586000D02*
X98232000Y-69586000D01*
X107956000Y-64786000D02*
X101890000Y-64786000D01*
X105747000Y-67906000D02*
X95153000Y-67906000D01*
X108527000Y-62025000D02*
X92373000Y-62025000D01*
X108089000Y-64426000D02*
X101890000Y-64426000D01*
X105005000Y-53095509D02*
X105005000Y-54695509D01*
X108478000Y-62706000D02*
X92422000Y-62706000D01*
X106713000Y-66906000D02*
X101890000Y-66906000D01*
X107708000Y-65346000D02*
X101890000Y-65346000D01*
X99010000Y-64546000D02*
X92853000Y-64546000D01*
X99010000Y-65306000D02*
X93172000Y-65306000D01*
X107839000Y-65066000D02*
X101890000Y-65066000D01*
X99010000Y-64426000D02*
X92811000Y-64426000D01*
X101215000Y-69866000D02*
X99685000Y-69866000D01*
X108464000Y-62826000D02*
X92436000Y-62826000D01*
X99010000Y-65866000D02*
X93469000Y-65866000D01*
X105558000Y-68066000D02*
X95342000Y-68066000D01*
X104165000Y-68986000D02*
X96735000Y-68986000D01*
X108280000Y-63786000D02*
X92620000Y-63786000D01*
X103270000Y-69386000D02*
X97630000Y-69386000D01*
X101801000Y-69786000D02*
X99099000Y-69786000D01*
X108310000Y-63666000D02*
X92590000Y-63666000D01*
X99010000Y-66866000D02*
X94155000Y-66866000D01*
X106680000Y-66946000D02*
X101890000Y-66946000D01*
X108495000Y-62546000D02*
X92405000Y-62546000D01*
X99010000Y-66066000D02*
X93589000Y-66066000D01*
X108047000Y-64546000D02*
X101890000Y-64546000D01*
X107890000Y-64946000D02*
X101890000Y-64946000D01*
X106900000Y-66666000D02*
X101890000Y-66666000D01*
X108416000Y-63146000D02*
X92484000Y-63146000D01*
X106439000Y-67226000D02*
X94461000Y-67226000D01*
X107522000Y-65706000D02*
X101890000Y-65706000D01*
X108270000Y-63826000D02*
X92630000Y-63826000D01*
X102014000Y-69746000D02*
X98886000Y-69746000D01*
X104848000Y-68586000D02*
X96052000Y-68586000D01*
X105459000Y-68146000D02*
X95441000Y-68146000D01*
X99010000Y-64146000D02*
X92720000Y-64146000D01*
X107628000Y-65506000D02*
X101890000Y-65506000D01*
X99010000Y-65066000D02*
X93061000Y-65066000D01*
X99010000Y-66146000D02*
X93639000Y-66146000D01*
X104659000Y-68706000D02*
X96241000Y-68706000D01*
X108300000Y-63706000D02*
X92600000Y-63706000D01*
X104386000Y-68866000D02*
X96514000Y-68866000D01*
X108328000Y-63586000D02*
X92572000Y-63586000D01*
X99010000Y-64706000D02*
X92913000Y-64706000D01*
X105027000Y-68466000D02*
X95873000Y-68466000D01*
X105250000Y-68306000D02*
X95650000Y-68306000D01*
X102524000Y-69626000D02*
X98376000Y-69626000D01*
X108483000Y-62666000D02*
X92417000Y-62666000D01*
X108487000Y-62626000D02*
X92413000Y-62626000D01*
X108363000Y-63426000D02*
X92537000Y-63426000D01*
X99010000Y-64346000D02*
X92784000Y-64346000D01*
X108521000Y-62185000D02*
X92379000Y-62185000D01*
X106777000Y-66826000D02*
X101890000Y-66826000D01*
X104087000Y-69026000D02*
X96813000Y-69026000D01*
X107689000Y-65386000D02*
X101890000Y-65386000D01*
X99010000Y-64826000D02*
X92960000Y-64826000D01*
X107102000Y-66386000D02*
X101890000Y-66386000D01*
X99010000Y-66546000D02*
X93911000Y-66546000D01*
X108130000Y-64306000D02*
X101890000Y-64306000D01*
X99010000Y-64946000D02*
X93010000Y-64946000D01*
X106174000Y-67506000D02*
X94726000Y-67506000D01*
X108523000Y-62145000D02*
X92377000Y-62145000D01*
X106010000Y-67666000D02*
X94890000Y-67666000D01*
X103474000Y-69306000D02*
X97426000Y-69306000D01*
X107261000Y-66146000D02*
X101890000Y-66146000D01*
X99010000Y-66746000D02*
X94060000Y-66746000D01*
X108155000Y-64226000D02*
X101890000Y-64226000D01*
X103161000Y-69426000D02*
X97739000Y-69426000D01*
X108103000Y-64386000D02*
X101890000Y-64386000D01*
X108204000Y-64066000D02*
X92696000Y-64066000D01*
X108238000Y-63946000D02*
X92662000Y-63946000D01*
X99010000Y-65186000D02*
X93116000Y-65186000D01*
X107607000Y-65546000D02*
X101890000Y-65546000D01*
X99010000Y-65906000D02*
X93492000Y-65906000D01*
X99010000Y-64226000D02*
X92745000Y-64226000D01*
X108516000Y-62265000D02*
X92384000Y-62265000D01*
X103047000Y-69466000D02*
X97853000Y-69466000D01*
X99010000Y-65386000D02*
X93211000Y-65386000D01*
X99010000Y-65786000D02*
X93423000Y-65786000D01*
X104909000Y-68546000D02*
X95991000Y-68546000D01*
X106840000Y-66746000D02*
X101890000Y-66746000D01*
X106402000Y-67266000D02*
X94498000Y-67266000D01*
X105654000Y-67986000D02*
X95246000Y-67986000D01*
X106745000Y-66866000D02*
X101890000Y-66866000D01*
X104457000Y-68826000D02*
X96443000Y-68826000D01*
X105509000Y-68106000D02*
X95391000Y-68106000D01*
X106328000Y-67346000D02*
X94572000Y-67346000D01*
X107286000Y-66106000D02*
X101890000Y-66106000D01*
X99010000Y-64306000D02*
X92770000Y-64306000D01*
X108529000Y-61945000D02*
X92371000Y-61945000D01*
X107669000Y-65426000D02*
X101890000Y-65426000D01*
X106808000Y-66786000D02*
X101890000Y-66786000D01*
X108379000Y-63346000D02*
X92521000Y-63346000D01*
X108003000Y-64666000D02*
X101890000Y-64666000D01*
X106579000Y-67066000D02*
X94321000Y-67066000D01*
X105793000Y-67866000D02*
X95107000Y-67866000D01*
X108505000Y-62425000D02*
X92395000Y-62425000D01*
X107431000Y-65866000D02*
X101890000Y-65866000D01*
X107454000Y-65826000D02*
X101890000Y-65826000D01*
X103753000Y-69186000D02*
X97147000Y-69186000D01*
X99010000Y-65666000D02*
X93356000Y-65666000D01*
X107384000Y-65946000D02*
X101890000Y-65946000D01*
X107018000Y-66506000D02*
X101890000Y-66506000D01*
X99010000Y-66666000D02*
X94000000Y-66666000D01*
X99010000Y-64746000D02*
X92928000Y-64746000D01*
X107586000Y-65586000D02*
X101890000Y-65586000D01*
X104786000Y-68626000D02*
X96114000Y-68626000D01*
X108429000Y-63066000D02*
X92471000Y-63066000D01*
X99010000Y-66946000D02*
X94220000Y-66946000D01*
X105408000Y-68186000D02*
X95492000Y-68186000D01*
X99010000Y-65586000D02*
X93314000Y-65586000D01*
X108491000Y-62586000D02*
X92409000Y-62586000D01*
X105141000Y-68386000D02*
X95759000Y-68386000D01*
X99010000Y-65626000D02*
X93335000Y-65626000D01*
X107183000Y-66266000D02*
X101890000Y-66266000D01*
X107129000Y-66346000D02*
X101890000Y-66346000D01*
X99010000Y-65746000D02*
X93401000Y-65746000D01*
X108227000Y-63986000D02*
X92673000Y-63986000D01*
X108524000Y-62105000D02*
X92376000Y-62105000D01*
X99010000Y-65346000D02*
X93192000Y-65346000D01*
X99010000Y-64586000D02*
X92868000Y-64586000D01*
X99010000Y-66346000D02*
X93771000Y-66346000D01*
X107784000Y-65186000D02*
X101890000Y-65186000D01*
X106366000Y-67306000D02*
X94534000Y-67306000D01*
X103925000Y-69106000D02*
X96975000Y-69106000D01*
X99010000Y-65106000D02*
X93079000Y-65106000D01*
X108508000Y-62385000D02*
X92392000Y-62385000D01*
X99010000Y-66626000D02*
X93970000Y-66626000D01*
X107235000Y-66186000D02*
X101890000Y-66186000D01*
X108394000Y-63266000D02*
X92506000Y-63266000D01*
X106647000Y-66986000D02*
X94253000Y-66986000D01*
X102928000Y-69506000D02*
X97972000Y-69506000D01*
X108570000Y-61785000D02*
G75*
G03*
X108570000Y-61785000I-8120000J0D01*
G01*
X93020000Y-75796000D02*
X91965000Y-75796000D01*
X92710000Y-76156000D02*
X91965000Y-76156000D01*
X93498000Y-74475000D02*
X91965000Y-74475000D01*
X91209000Y-76876000D02*
X90641000Y-76876000D01*
X89885000Y-74996000D02*
X88445000Y-74996000D01*
X93235000Y-75436000D02*
X91965000Y-75436000D01*
X89885000Y-75156000D02*
X88497000Y-75156000D01*
X93339000Y-75196000D02*
X91965000Y-75196000D01*
X89885000Y-75316000D02*
X88560000Y-75316000D01*
X92789000Y-76076000D02*
X91965000Y-76076000D01*
X91730000Y-76756000D02*
X90120000Y-76756000D01*
X93172000Y-75556000D02*
X91965000Y-75556000D01*
X89885000Y-75836000D02*
X88860000Y-75836000D01*
X89885000Y-74515000D02*
X88356000Y-74515000D01*
X92578000Y-76276000D02*
X91965000Y-76276000D01*
X93323000Y-75236000D02*
X91965000Y-75236000D01*
X93481000Y-74635000D02*
X91965000Y-74635000D01*
X89885000Y-74395000D02*
X88347000Y-74395000D01*
X93445000Y-74835000D02*
X91965000Y-74835000D01*
X89885000Y-74355000D02*
X88346000Y-74355000D01*
X89885000Y-75716000D02*
X88776000Y-75716000D01*
X93453000Y-74795000D02*
X91965000Y-74795000D01*
X93273000Y-75356000D02*
X91965000Y-75356000D01*
X89885000Y-75676000D02*
X88750000Y-75676000D01*
X89885000Y-74595000D02*
X88364000Y-74595000D01*
X92862000Y-75996000D02*
X91965000Y-75996000D01*
X89885000Y-74875000D02*
X88414000Y-74875000D01*
X89885000Y-74675000D02*
X88375000Y-74675000D01*
X93074000Y-75716000D02*
X91965000Y-75716000D01*
X89885000Y-75596000D02*
X88701000Y-75596000D01*
X89885000Y-74315000D02*
X88345000Y-74315000D01*
X89885000Y-74715000D02*
X88382000Y-74715000D01*
X89885000Y-75796000D02*
X88830000Y-75796000D01*
X93505000Y-74275000D02*
X91965000Y-74275000D01*
X92668000Y-76196000D02*
X91965000Y-76196000D01*
X89885000Y-75756000D02*
X88803000Y-75756000D01*
X89885000Y-75076000D02*
X88470000Y-75076000D01*
X93426000Y-74915000D02*
X91965000Y-74915000D01*
X93436000Y-74875000D02*
X91965000Y-74875000D01*
X91443000Y-76836000D02*
X90407000Y-76836000D01*
X89885000Y-76196000D02*
X89182000Y-76196000D01*
X93416000Y-74955000D02*
X91965000Y-74955000D01*
X93405000Y-74996000D02*
X91965000Y-74996000D01*
X89885000Y-75356000D02*
X88577000Y-75356000D01*
X92624000Y-76236000D02*
X91965000Y-76236000D01*
X93149000Y-75596000D02*
X91965000Y-75596000D01*
X93193000Y-75516000D02*
X91965000Y-75516000D01*
X89885000Y-76156000D02*
X89140000Y-76156000D01*
X89885000Y-74475000D02*
X88352000Y-74475000D01*
X93307000Y-75276000D02*
X91965000Y-75276000D01*
X89885000Y-75916000D02*
X88921000Y-75916000D01*
X93367000Y-75116000D02*
X91965000Y-75116000D01*
X92751000Y-76116000D02*
X91965000Y-76116000D01*
X89885000Y-74435000D02*
X88349000Y-74435000D01*
X93490000Y-74555000D02*
X91965000Y-74555000D01*
X89885000Y-74635000D02*
X88369000Y-74635000D01*
X92826000Y-76036000D02*
X91965000Y-76036000D01*
X89885000Y-75036000D02*
X88457000Y-75036000D01*
X92990000Y-75836000D02*
X91965000Y-75836000D01*
X89885000Y-74275000D02*
X88345000Y-74275000D01*
X89885000Y-76076000D02*
X89061000Y-76076000D01*
X92530000Y-76316000D02*
X89320000Y-76316000D01*
X89885000Y-75516000D02*
X88657000Y-75516000D01*
X93503000Y-74395000D02*
X91965000Y-74395000D01*
X91840000Y-76716000D02*
X90010000Y-76716000D01*
X89885000Y-75556000D02*
X88678000Y-75556000D01*
X93380000Y-75076000D02*
X91965000Y-75076000D01*
X89885000Y-75276000D02*
X88543000Y-75276000D01*
X92176000Y-76556000D02*
X89674000Y-76556000D01*
X92023000Y-76636000D02*
X89827000Y-76636000D01*
X93501000Y-74435000D02*
X91965000Y-74435000D01*
X92368000Y-76436000D02*
X89482000Y-76436000D01*
X89885000Y-75236000D02*
X88527000Y-75236000D01*
X92425000Y-76396000D02*
X89425000Y-76396000D01*
X89885000Y-75636000D02*
X88725000Y-75636000D01*
X91936000Y-76676000D02*
X89914000Y-76676000D01*
X93475000Y-74675000D02*
X91965000Y-74675000D01*
X92896000Y-75956000D02*
X91965000Y-75956000D01*
X93486000Y-74595000D02*
X91965000Y-74595000D01*
X93100000Y-75676000D02*
X91965000Y-75676000D01*
X91602000Y-76796000D02*
X90248000Y-76796000D01*
X89885000Y-75996000D02*
X88988000Y-75996000D01*
X89885000Y-74755000D02*
X88389000Y-74755000D01*
X89885000Y-74795000D02*
X88397000Y-74795000D01*
X89885000Y-74555000D02*
X88360000Y-74555000D01*
X89885000Y-75476000D02*
X88635000Y-75476000D01*
X93494000Y-74515000D02*
X91965000Y-74515000D01*
X93047000Y-75756000D02*
X91965000Y-75756000D01*
X93290000Y-75316000D02*
X91965000Y-75316000D01*
X93215000Y-75476000D02*
X91965000Y-75476000D01*
X89885000Y-74835000D02*
X88405000Y-74835000D01*
X93468000Y-74715000D02*
X91965000Y-74715000D01*
X93461000Y-74755000D02*
X91965000Y-74755000D01*
X89885000Y-75436000D02*
X88615000Y-75436000D01*
X93505000Y-74315000D02*
X91965000Y-74315000D01*
X89885000Y-76036000D02*
X89024000Y-76036000D01*
X89885000Y-76276000D02*
X89272000Y-76276000D01*
X93125000Y-75636000D02*
X91965000Y-75636000D01*
X92479000Y-76356000D02*
X89371000Y-76356000D01*
X92244000Y-76516000D02*
X89606000Y-76516000D01*
X89885000Y-74915000D02*
X88424000Y-74915000D01*
X93504000Y-74355000D02*
X91965000Y-74355000D01*
X89885000Y-74955000D02*
X88434000Y-74955000D01*
X89885000Y-75956000D02*
X88954000Y-75956000D01*
X89885000Y-76236000D02*
X89226000Y-76236000D01*
X89885000Y-76116000D02*
X89099000Y-76116000D01*
X93254000Y-75396000D02*
X91965000Y-75396000D01*
X92103000Y-76596000D02*
X89747000Y-76596000D01*
X92308000Y-76476000D02*
X89542000Y-76476000D01*
X92650000Y-71720225D02*
X92150000Y-71720225D01*
X92929000Y-75916000D02*
X91965000Y-75916000D01*
X93353000Y-75156000D02*
X91965000Y-75156000D01*
X93393000Y-75036000D02*
X91965000Y-75036000D01*
X89885000Y-75396000D02*
X88596000Y-75396000D01*
X89885000Y-75116000D02*
X88483000Y-75116000D01*
X92400000Y-71470225D02*
X92400000Y-71970225D01*
X92960000Y-75876000D02*
X91965000Y-75876000D01*
X89885000Y-75876000D02*
X88890000Y-75876000D01*
X89885000Y-75196000D02*
X88511000Y-75196000D01*
X93545000Y-74275000D02*
G75*
G03*
X93545000Y-74275000I-2620000J0D01*
G01*
X88404000Y-91226000D02*
X82840000Y-91226000D01*
X79960000Y-91626000D02*
X74641000Y-91626000D01*
X82751000Y-95186000D02*
X80049000Y-95186000D01*
X89154000Y-89466000D02*
X73646000Y-89466000D01*
X89466000Y-87665000D02*
X73334000Y-87665000D01*
X89474000Y-87505000D02*
X73326000Y-87505000D01*
X89093000Y-89666000D02*
X82840000Y-89666000D01*
X89066000Y-89746000D02*
X82840000Y-89746000D01*
X86788000Y-93226000D02*
X76012000Y-93226000D01*
X79960000Y-90906000D02*
X74222000Y-90906000D01*
X88716000Y-90626000D02*
X82840000Y-90626000D01*
X79960000Y-92266000D02*
X75105000Y-92266000D01*
X87820000Y-92106000D02*
X82840000Y-92106000D01*
X89414000Y-88226000D02*
X73386000Y-88226000D01*
X89165000Y-89426000D02*
X73635000Y-89426000D01*
X87597000Y-92386000D02*
X75203000Y-92386000D01*
X89352000Y-88626000D02*
X73448000Y-88626000D01*
X79960000Y-92306000D02*
X75137000Y-92306000D01*
X88381000Y-91266000D02*
X82840000Y-91266000D01*
X79960000Y-90146000D02*
X73878000Y-90146000D01*
X89372000Y-88506000D02*
X73428000Y-88506000D01*
X79960000Y-90186000D02*
X73894000Y-90186000D01*
X79960000Y-89506000D02*
X73658000Y-89506000D01*
X89210000Y-89266000D02*
X73590000Y-89266000D01*
X79960000Y-90626000D02*
X74084000Y-90626000D01*
X83474000Y-95026000D02*
X79326000Y-95026000D01*
X79960000Y-89866000D02*
X73775000Y-89866000D01*
X87939000Y-91946000D02*
X82840000Y-91946000D01*
X87495000Y-92506000D02*
X75305000Y-92506000D01*
X84957000Y-94466000D02*
X77843000Y-94466000D01*
X79960000Y-91106000D02*
X74328000Y-91106000D01*
X87695000Y-92266000D02*
X82840000Y-92266000D01*
X89480000Y-87225000D02*
X73320000Y-87225000D01*
X89337000Y-88706000D02*
X73463000Y-88706000D01*
X88753000Y-90546000D02*
X82840000Y-90546000D01*
X87996000Y-91866000D02*
X82840000Y-91866000D01*
X79960000Y-90346000D02*
X73960000Y-90346000D01*
X88937000Y-90106000D02*
X82840000Y-90106000D01*
X79960000Y-90026000D02*
X73832000Y-90026000D01*
X88261000Y-91466000D02*
X82840000Y-91466000D01*
X79960000Y-91466000D02*
X74539000Y-91466000D01*
X89469000Y-87625000D02*
X73331000Y-87625000D01*
X89437000Y-88026000D02*
X73363000Y-88026000D01*
X79960000Y-89746000D02*
X73734000Y-89746000D01*
X87630000Y-92346000D02*
X82840000Y-92346000D01*
X85115000Y-94386000D02*
X77685000Y-94386000D01*
X85037000Y-94426000D02*
X77763000Y-94426000D01*
X89397000Y-88346000D02*
X73403000Y-88346000D01*
X86200000Y-93706000D02*
X76600000Y-93706000D01*
X86755000Y-79295509D02*
X85155000Y-79295509D01*
X87663000Y-92306000D02*
X82840000Y-92306000D01*
X89441000Y-87986000D02*
X73359000Y-87986000D01*
X84520000Y-94666000D02*
X78280000Y-94666000D01*
X89471000Y-87585000D02*
X73329000Y-87585000D01*
X79960000Y-90746000D02*
X74142000Y-90746000D01*
X86743000Y-93266000D02*
X76057000Y-93266000D01*
X88449000Y-91146000D02*
X82840000Y-91146000D01*
X79960000Y-91706000D02*
X74694000Y-91706000D01*
X85798000Y-93986000D02*
X77002000Y-93986000D01*
X85190000Y-94346000D02*
X77610000Y-94346000D01*
X84790000Y-94546000D02*
X78010000Y-94546000D01*
X89305000Y-88866000D02*
X73495000Y-88866000D01*
X85609000Y-94106000D02*
X77191000Y-94106000D01*
X86459000Y-93506000D02*
X76341000Y-93506000D01*
X79960000Y-89706000D02*
X73720000Y-89706000D01*
X89240000Y-89146000D02*
X73560000Y-89146000D01*
X88789000Y-90466000D02*
X82840000Y-90466000D01*
X88106000Y-91706000D02*
X82840000Y-91706000D01*
X88599000Y-90866000D02*
X82840000Y-90866000D01*
X89473000Y-87545000D02*
X73327000Y-87545000D01*
X87425000Y-92586000D02*
X75375000Y-92586000D01*
X79960000Y-91426000D02*
X74514000Y-91426000D01*
X79960000Y-90826000D02*
X74181000Y-90826000D01*
X85955000Y-78495509D02*
X85955000Y-80095509D01*
X89230000Y-89186000D02*
X73570000Y-89186000D01*
X84324000Y-94746000D02*
X78476000Y-94746000D01*
X87084000Y-92946000D02*
X75716000Y-92946000D01*
X89445000Y-87946000D02*
X73355000Y-87946000D01*
X79960000Y-89826000D02*
X73761000Y-89826000D01*
X88236000Y-91506000D02*
X82840000Y-91506000D01*
X85476000Y-94186000D02*
X77324000Y-94186000D01*
X86651000Y-93346000D02*
X76149000Y-93346000D01*
X79960000Y-91266000D02*
X74419000Y-91266000D01*
X79960000Y-91906000D02*
X74832000Y-91906000D01*
X82498000Y-95226000D02*
X80302000Y-95226000D01*
X89344000Y-88666000D02*
X73456000Y-88666000D01*
X79960000Y-90666000D02*
X74103000Y-90666000D01*
X79960000Y-90426000D02*
X73994000Y-90426000D01*
X83997000Y-94866000D02*
X78803000Y-94866000D01*
X79960000Y-92106000D02*
X74980000Y-92106000D01*
X89188000Y-89346000D02*
X73612000Y-89346000D01*
X79960000Y-91346000D02*
X74466000Y-91346000D01*
X79960000Y-92346000D02*
X75170000Y-92346000D01*
X87790000Y-92146000D02*
X82840000Y-92146000D01*
X89464000Y-87705000D02*
X73336000Y-87705000D01*
X85264000Y-94306000D02*
X77536000Y-94306000D01*
X79960000Y-90066000D02*
X73847000Y-90066000D01*
X79960000Y-89586000D02*
X73682000Y-89586000D01*
X79960000Y-90386000D02*
X73977000Y-90386000D01*
X79960000Y-91506000D02*
X74564000Y-91506000D01*
X86875000Y-93146000D02*
X75925000Y-93146000D01*
X79960000Y-89946000D02*
X73803000Y-89946000D01*
X87758000Y-92186000D02*
X82840000Y-92186000D01*
X79960000Y-90946000D02*
X74243000Y-90946000D01*
X89039000Y-89826000D02*
X82840000Y-89826000D01*
X79960000Y-91746000D02*
X74721000Y-91746000D01*
X89408000Y-88266000D02*
X73392000Y-88266000D01*
X86556000Y-93426000D02*
X76244000Y-93426000D01*
X89011000Y-89906000D02*
X82840000Y-89906000D01*
X89321000Y-88786000D02*
X73479000Y-88786000D01*
X85673000Y-94066000D02*
X77127000Y-94066000D01*
X79960000Y-91386000D02*
X74490000Y-91386000D01*
X89452000Y-87865000D02*
X73348000Y-87865000D01*
X88185000Y-91586000D02*
X82840000Y-91586000D01*
X87316000Y-92706000D02*
X75484000Y-92706000D01*
X79960000Y-89666000D02*
X73707000Y-89666000D01*
X86306000Y-93626000D02*
X76494000Y-93626000D01*
X79960000Y-91826000D02*
X74776000Y-91826000D01*
X79960000Y-92186000D02*
X75042000Y-92186000D01*
X87278000Y-92746000D02*
X75522000Y-92746000D01*
X88578000Y-90906000D02*
X82840000Y-90906000D01*
X89105000Y-89626000D02*
X82840000Y-89626000D01*
X79960000Y-90586000D02*
X74066000Y-90586000D01*
X83320000Y-95066000D02*
X79480000Y-95066000D01*
X79960000Y-90106000D02*
X73863000Y-90106000D01*
X83878000Y-94906000D02*
X78922000Y-94906000D01*
X89433000Y-88066000D02*
X73367000Y-88066000D01*
X79960000Y-91186000D02*
X74373000Y-91186000D01*
X88840000Y-90346000D02*
X82840000Y-90346000D01*
X86254000Y-93666000D02*
X76546000Y-93666000D01*
X88024000Y-91826000D02*
X82840000Y-91826000D01*
X79960000Y-89906000D02*
X73789000Y-89906000D01*
X85543000Y-94146000D02*
X77257000Y-94146000D01*
X87202000Y-92826000D02*
X75598000Y-92826000D01*
X88515000Y-91026000D02*
X82840000Y-91026000D01*
X79960000Y-90706000D02*
X74122000Y-90706000D01*
X79960000Y-91586000D02*
X74615000Y-91586000D01*
X89053000Y-89786000D02*
X82840000Y-89786000D01*
X79960000Y-91026000D02*
X74285000Y-91026000D01*
X88310000Y-91386000D02*
X82840000Y-91386000D01*
X79960000Y-90786000D02*
X74161000Y-90786000D01*
X89220000Y-89226000D02*
X73580000Y-89226000D01*
X87910000Y-91986000D02*
X82840000Y-91986000D01*
X79960000Y-91306000D02*
X74442000Y-91306000D01*
X89478000Y-87385000D02*
X73322000Y-87385000D01*
X87124000Y-92906000D02*
X75676000Y-92906000D01*
X83152000Y-95106000D02*
X79648000Y-95106000D01*
X89480000Y-87265000D02*
X73320000Y-87265000D01*
X79960000Y-90546000D02*
X74047000Y-90546000D01*
X89379000Y-88466000D02*
X73421000Y-88466000D01*
X84875000Y-94506000D02*
X77925000Y-94506000D01*
X89480000Y-87305000D02*
X73320000Y-87305000D01*
X88771000Y-90506000D02*
X82840000Y-90506000D01*
X88536000Y-90986000D02*
X82840000Y-90986000D01*
X88922000Y-90146000D02*
X82840000Y-90146000D01*
X85407000Y-94226000D02*
X77393000Y-94226000D01*
X79960000Y-91986000D02*
X74890000Y-91986000D01*
X89481000Y-87185000D02*
X73319000Y-87185000D01*
X88286000Y-91426000D02*
X82840000Y-91426000D01*
X86034000Y-93826000D02*
X76766000Y-93826000D01*
X84220000Y-94786000D02*
X78580000Y-94786000D01*
X84424000Y-94706000D02*
X78376000Y-94706000D01*
X89455000Y-87825000D02*
X73345000Y-87825000D01*
X79960000Y-90866000D02*
X74201000Y-90866000D01*
X87880000Y-92026000D02*
X82840000Y-92026000D01*
X83618000Y-94986000D02*
X79182000Y-94986000D01*
X85977000Y-93866000D02*
X76823000Y-93866000D01*
X85859000Y-93946000D02*
X76941000Y-93946000D01*
X79960000Y-90466000D02*
X74011000Y-90466000D01*
X89424000Y-88146000D02*
X73376000Y-88146000D01*
X88806000Y-90426000D02*
X82840000Y-90426000D01*
X89313000Y-88826000D02*
X73487000Y-88826000D01*
X88968000Y-90026000D02*
X82840000Y-90026000D01*
X87563000Y-92426000D02*
X75237000Y-92426000D01*
X85919000Y-93906000D02*
X76881000Y-93906000D01*
X87727000Y-92226000D02*
X82840000Y-92226000D01*
X89250000Y-89106000D02*
X73550000Y-89106000D01*
X89476000Y-87465000D02*
X73324000Y-87465000D01*
X79960000Y-92226000D02*
X75073000Y-92226000D01*
X79960000Y-90506000D02*
X74029000Y-90506000D01*
X88472000Y-91106000D02*
X82840000Y-91106000D01*
X86604000Y-93386000D02*
X76196000Y-93386000D01*
X89278000Y-88986000D02*
X73522000Y-88986000D01*
X88953000Y-90066000D02*
X82840000Y-90066000D01*
X88906000Y-90186000D02*
X82840000Y-90186000D01*
X89025000Y-89866000D02*
X82840000Y-89866000D01*
X86508000Y-93466000D02*
X76292000Y-93466000D01*
X87352000Y-92666000D02*
X75448000Y-92666000D01*
X82964000Y-95146000D02*
X79836000Y-95146000D01*
X87043000Y-92986000D02*
X75757000Y-92986000D01*
X88079000Y-91746000D02*
X82840000Y-91746000D01*
X89118000Y-89586000D02*
X82840000Y-89586000D01*
X88982000Y-89986000D02*
X82840000Y-89986000D01*
X79960000Y-90986000D02*
X74264000Y-90986000D01*
X89080000Y-89706000D02*
X82840000Y-89706000D01*
X79960000Y-90266000D02*
X73926000Y-90266000D01*
X79960000Y-91946000D02*
X74861000Y-91946000D01*
X88133000Y-91666000D02*
X82840000Y-91666000D01*
X89428000Y-88106000D02*
X73372000Y-88106000D01*
X79960000Y-91546000D02*
X74589000Y-91546000D01*
X89142000Y-89506000D02*
X82840000Y-89506000D01*
X89461000Y-87745000D02*
X73339000Y-87745000D01*
X88159000Y-91626000D02*
X82840000Y-91626000D01*
X86832000Y-93186000D02*
X75968000Y-93186000D01*
X89477000Y-87425000D02*
X73323000Y-87425000D01*
X89269000Y-89026000D02*
X73531000Y-89026000D01*
X86358000Y-93586000D02*
X76442000Y-93586000D01*
X89419000Y-88186000D02*
X73381000Y-88186000D01*
X87240000Y-92786000D02*
X75560000Y-92786000D01*
X79960000Y-92146000D02*
X75010000Y-92146000D01*
X89458000Y-87785000D02*
X73342000Y-87785000D01*
X79960000Y-92026000D02*
X74920000Y-92026000D01*
X89260000Y-89066000D02*
X73540000Y-89066000D01*
X87968000Y-91906000D02*
X82840000Y-91906000D01*
X88211000Y-91546000D02*
X82840000Y-91546000D01*
X89479000Y-87345000D02*
X73321000Y-87345000D01*
X87002000Y-93026000D02*
X75798000Y-93026000D01*
X85736000Y-94026000D02*
X77064000Y-94026000D01*
X79960000Y-90226000D02*
X73910000Y-90226000D01*
X79960000Y-91146000D02*
X74351000Y-91146000D01*
X87850000Y-92066000D02*
X82840000Y-92066000D01*
X87389000Y-92626000D02*
X75411000Y-92626000D01*
X88427000Y-91186000D02*
X82840000Y-91186000D01*
X86409000Y-93546000D02*
X76391000Y-93546000D01*
X89385000Y-88426000D02*
X73415000Y-88426000D01*
X88639000Y-90786000D02*
X82840000Y-90786000D01*
X79960000Y-90306000D02*
X73943000Y-90306000D01*
X86146000Y-93746000D02*
X76654000Y-93746000D01*
X84703000Y-94586000D02*
X78097000Y-94586000D01*
X89296000Y-88906000D02*
X73504000Y-88906000D01*
X88619000Y-90826000D02*
X82840000Y-90826000D01*
X88334000Y-91346000D02*
X82840000Y-91346000D01*
X79960000Y-89986000D02*
X73818000Y-89986000D01*
X88734000Y-90586000D02*
X82840000Y-90586000D01*
X89177000Y-89386000D02*
X73623000Y-89386000D01*
X86697000Y-93306000D02*
X76103000Y-93306000D01*
X88697000Y-90666000D02*
X82840000Y-90666000D01*
X88997000Y-89946000D02*
X82840000Y-89946000D01*
X88823000Y-90386000D02*
X82840000Y-90386000D01*
X79960000Y-91786000D02*
X74748000Y-91786000D01*
X88494000Y-91066000D02*
X82840000Y-91066000D01*
X89403000Y-88306000D02*
X73397000Y-88306000D01*
X89359000Y-88586000D02*
X73441000Y-88586000D01*
X79960000Y-89786000D02*
X73747000Y-89786000D01*
X86918000Y-93106000D02*
X75882000Y-93106000D01*
X79960000Y-91226000D02*
X74396000Y-91226000D01*
X89449000Y-87906000D02*
X73351000Y-87906000D01*
X87529000Y-92466000D02*
X75271000Y-92466000D01*
X89391000Y-88386000D02*
X73409000Y-88386000D01*
X87460000Y-92546000D02*
X75340000Y-92546000D01*
X86091000Y-93786000D02*
X76709000Y-93786000D01*
X84111000Y-94826000D02*
X78689000Y-94826000D01*
X86960000Y-93066000D02*
X75840000Y-93066000D01*
X79960000Y-91666000D02*
X74667000Y-91666000D01*
X89287000Y-88946000D02*
X73513000Y-88946000D01*
X84613000Y-94626000D02*
X78187000Y-94626000D01*
X89199000Y-89306000D02*
X73601000Y-89306000D01*
X88557000Y-90946000D02*
X82840000Y-90946000D01*
X88358000Y-91306000D02*
X82840000Y-91306000D01*
X88857000Y-90306000D02*
X82840000Y-90306000D01*
X89329000Y-88746000D02*
X73471000Y-88746000D01*
X89366000Y-88546000D02*
X73434000Y-88546000D01*
X88052000Y-91786000D02*
X82840000Y-91786000D01*
X79960000Y-89626000D02*
X73695000Y-89626000D01*
X87163000Y-92866000D02*
X75637000Y-92866000D01*
X89130000Y-89546000D02*
X82840000Y-89546000D01*
X79960000Y-89546000D02*
X73670000Y-89546000D01*
X79960000Y-92066000D02*
X74950000Y-92066000D01*
X82165000Y-95266000D02*
X80635000Y-95266000D01*
X88658000Y-90746000D02*
X82840000Y-90746000D01*
X85336000Y-94266000D02*
X77464000Y-94266000D01*
X79960000Y-91066000D02*
X74306000Y-91066000D01*
X88678000Y-90706000D02*
X82840000Y-90706000D01*
X79960000Y-91866000D02*
X74804000Y-91866000D01*
X83751000Y-94946000D02*
X79049000Y-94946000D01*
X88890000Y-90226000D02*
X82840000Y-90226000D01*
X88874000Y-90266000D02*
X82840000Y-90266000D01*
X89520000Y-87185000D02*
G75*
G03*
X89520000Y-87185000I-8120000J0D01*
G01*
X99010000Y-91626000D02*
X93691000Y-91626000D01*
X99010000Y-91346000D02*
X93516000Y-91346000D01*
X108130000Y-89706000D02*
X101890000Y-89706000D01*
X105968000Y-93106000D02*
X94932000Y-93106000D01*
X102202000Y-95106000D02*
X98698000Y-95106000D01*
X105196000Y-93746000D02*
X95704000Y-93746000D01*
X99010000Y-91066000D02*
X93356000Y-91066000D01*
X107102000Y-91786000D02*
X101890000Y-91786000D01*
X108387000Y-88706000D02*
X92513000Y-88706000D01*
X108524000Y-87505000D02*
X92376000Y-87505000D01*
X107956000Y-90186000D02*
X101890000Y-90186000D01*
X106093000Y-92986000D02*
X94807000Y-92986000D01*
X107607000Y-90946000D02*
X101890000Y-90946000D01*
X107649000Y-90866000D02*
X101890000Y-90866000D01*
X108495000Y-87946000D02*
X92405000Y-87946000D01*
X99010000Y-89786000D02*
X92797000Y-89786000D01*
X99010000Y-90466000D02*
X93061000Y-90466000D01*
X99010000Y-91746000D02*
X93771000Y-91746000D01*
X108402000Y-88626000D02*
X92498000Y-88626000D01*
X108511000Y-87745000D02*
X92389000Y-87745000D01*
X104007000Y-94466000D02*
X96893000Y-94466000D01*
X107839000Y-90466000D02*
X101890000Y-90466000D01*
X107408000Y-91306000D02*
X101890000Y-91306000D01*
X106900000Y-92066000D02*
X101890000Y-92066000D01*
X107454000Y-91226000D02*
X101890000Y-91226000D01*
X99010000Y-91026000D02*
X93335000Y-91026000D01*
X108531000Y-87185000D02*
X92369000Y-87185000D01*
X108526000Y-87465000D02*
X92374000Y-87465000D01*
X108075000Y-89866000D02*
X101890000Y-89866000D01*
X107987000Y-90106000D02*
X101890000Y-90106000D01*
X106213000Y-92866000D02*
X94687000Y-92866000D01*
X99010000Y-90426000D02*
X93044000Y-90426000D01*
X99010000Y-90266000D02*
X92976000Y-90266000D01*
X104848000Y-93986000D02*
X96052000Y-93986000D01*
X104457000Y-94226000D02*
X96443000Y-94226000D01*
X107074000Y-91826000D02*
X101890000Y-91826000D01*
X108530000Y-87225000D02*
X92370000Y-87225000D01*
X108474000Y-88146000D02*
X92426000Y-88146000D01*
X99010000Y-91146000D02*
X93401000Y-91146000D01*
X108227000Y-89386000D02*
X92673000Y-89386000D01*
X103374000Y-94746000D02*
X97526000Y-94746000D01*
X99010000Y-90706000D02*
X93172000Y-90706000D01*
X107499000Y-91146000D02*
X101890000Y-91146000D01*
X105005000Y-78495509D02*
X105005000Y-80095509D01*
X108469000Y-88186000D02*
X92431000Y-88186000D01*
X106134000Y-92946000D02*
X94766000Y-92946000D01*
X108447000Y-88346000D02*
X92453000Y-88346000D01*
X108441000Y-88386000D02*
X92459000Y-88386000D01*
X104659000Y-94106000D02*
X96241000Y-94106000D01*
X99010000Y-92346000D02*
X94220000Y-92346000D01*
X108379000Y-88746000D02*
X92521000Y-88746000D01*
X107235000Y-91586000D02*
X101890000Y-91586000D01*
X99010000Y-91386000D02*
X93540000Y-91386000D01*
X102928000Y-94906000D02*
X97972000Y-94906000D01*
X99010000Y-90866000D02*
X93251000Y-90866000D01*
X108032000Y-89986000D02*
X101890000Y-89986000D01*
X106989000Y-91946000D02*
X101890000Y-91946000D01*
X99010000Y-92026000D02*
X93970000Y-92026000D01*
X103753000Y-94586000D02*
X97147000Y-94586000D01*
X105654000Y-93386000D02*
X95246000Y-93386000D01*
X108116000Y-89746000D02*
X101890000Y-89746000D01*
X108429000Y-88466000D02*
X92471000Y-88466000D01*
X105606000Y-93426000D02*
X95294000Y-93426000D01*
X107669000Y-90826000D02*
X101890000Y-90826000D01*
X108508000Y-87785000D02*
X92392000Y-87785000D01*
X106328000Y-92746000D02*
X94572000Y-92746000D01*
X99010000Y-89946000D02*
X92853000Y-89946000D01*
X107183000Y-91666000D02*
X101890000Y-91666000D01*
X108270000Y-89226000D02*
X92630000Y-89226000D01*
X108458000Y-88266000D02*
X92442000Y-88266000D01*
X103161000Y-94826000D02*
X97739000Y-94826000D01*
X108300000Y-89106000D02*
X92600000Y-89106000D01*
X105304000Y-93666000D02*
X95596000Y-93666000D01*
X103663000Y-94626000D02*
X97237000Y-94626000D01*
X104314000Y-94306000D02*
X96586000Y-94306000D01*
X107384000Y-91346000D02*
X101890000Y-91346000D01*
X105925000Y-93146000D02*
X94975000Y-93146000D01*
X108505000Y-87825000D02*
X92395000Y-87825000D01*
X107728000Y-90706000D02*
X101890000Y-90706000D01*
X99010000Y-90026000D02*
X92882000Y-90026000D01*
X99010000Y-91546000D02*
X93639000Y-91546000D01*
X108519000Y-87625000D02*
X92381000Y-87625000D01*
X107940000Y-90226000D02*
X101890000Y-90226000D01*
X101801000Y-95186000D02*
X99099000Y-95186000D01*
X107708000Y-90746000D02*
X101890000Y-90746000D01*
X108453000Y-88306000D02*
X92447000Y-88306000D01*
X99010000Y-89586000D02*
X92732000Y-89586000D01*
X105408000Y-93586000D02*
X95492000Y-93586000D01*
X106840000Y-92146000D02*
X101890000Y-92146000D01*
X106366000Y-92706000D02*
X94534000Y-92706000D01*
X108260000Y-89266000D02*
X92640000Y-89266000D01*
X99010000Y-90346000D02*
X93010000Y-90346000D01*
X99010000Y-91786000D02*
X93798000Y-91786000D01*
X105558000Y-93466000D02*
X95342000Y-93466000D01*
X99010000Y-90106000D02*
X92913000Y-90106000D01*
X99010000Y-92226000D02*
X94123000Y-92226000D01*
X108371000Y-88786000D02*
X92529000Y-88786000D01*
X99010000Y-90306000D02*
X92993000Y-90306000D01*
X107747000Y-90666000D02*
X101890000Y-90666000D01*
X107803000Y-90546000D02*
X101890000Y-90546000D01*
X103840000Y-94546000D02*
X97060000Y-94546000D01*
X103474000Y-94706000D02*
X97426000Y-94706000D01*
X106579000Y-92466000D02*
X94321000Y-92466000D01*
X107209000Y-91626000D02*
X101890000Y-91626000D01*
X106010000Y-93066000D02*
X94890000Y-93066000D01*
X108516000Y-87665000D02*
X92384000Y-87665000D01*
X108061000Y-89906000D02*
X101890000Y-89906000D01*
X99010000Y-90626000D02*
X93134000Y-90626000D01*
X99010000Y-90546000D02*
X93097000Y-90546000D01*
X108530000Y-87265000D02*
X92370000Y-87265000D01*
X107046000Y-91866000D02*
X101890000Y-91866000D01*
X102801000Y-94946000D02*
X98099000Y-94946000D01*
X104593000Y-94146000D02*
X96307000Y-94146000D01*
X107628000Y-90906000D02*
X101890000Y-90906000D01*
X108478000Y-88106000D02*
X92422000Y-88106000D01*
X106545000Y-92506000D02*
X94355000Y-92506000D01*
X99010000Y-90186000D02*
X92944000Y-90186000D01*
X108435000Y-88426000D02*
X92465000Y-88426000D01*
X106870000Y-92106000D02*
X101890000Y-92106000D01*
X99010000Y-92306000D02*
X94187000Y-92306000D01*
X103047000Y-94866000D02*
X97853000Y-94866000D01*
X108487000Y-88026000D02*
X92413000Y-88026000D01*
X107129000Y-91746000D02*
X101890000Y-91746000D01*
X106402000Y-92666000D02*
X94498000Y-92666000D01*
X99010000Y-92186000D02*
X94092000Y-92186000D01*
X107286000Y-91506000D02*
X101890000Y-91506000D01*
X107565000Y-91026000D02*
X101890000Y-91026000D01*
X99010000Y-90226000D02*
X92960000Y-90226000D01*
X105027000Y-93866000D02*
X95873000Y-93866000D01*
X108528000Y-87385000D02*
X92372000Y-87385000D01*
X107856000Y-90426000D02*
X101890000Y-90426000D01*
X99010000Y-90066000D02*
X92897000Y-90066000D01*
X99010000Y-91306000D02*
X93492000Y-91306000D01*
X108319000Y-89026000D02*
X92581000Y-89026000D01*
X108363000Y-88826000D02*
X92537000Y-88826000D01*
X107431000Y-91266000D02*
X101890000Y-91266000D01*
X106745000Y-92266000D02*
X101890000Y-92266000D01*
X105805000Y-79295509D02*
X104205000Y-79295509D01*
X108355000Y-88866000D02*
X92545000Y-88866000D01*
X99010000Y-92146000D02*
X94060000Y-92146000D01*
X99010000Y-89546000D02*
X92720000Y-89546000D01*
X105459000Y-93546000D02*
X95441000Y-93546000D01*
X102668000Y-94986000D02*
X98232000Y-94986000D01*
X99010000Y-91946000D02*
X93911000Y-91946000D01*
X108238000Y-89346000D02*
X92662000Y-89346000D01*
X99010000Y-91906000D02*
X93882000Y-91906000D01*
X99010000Y-91226000D02*
X93446000Y-91226000D01*
X108018000Y-90026000D02*
X101890000Y-90026000D01*
X103270000Y-94786000D02*
X97630000Y-94786000D01*
X108089000Y-89826000D02*
X101890000Y-89826000D01*
X106777000Y-92226000D02*
X101890000Y-92226000D01*
X99010000Y-90666000D02*
X93153000Y-90666000D01*
X104165000Y-94386000D02*
X96735000Y-94386000D01*
X108155000Y-89626000D02*
X101890000Y-89626000D01*
X104969000Y-93906000D02*
X95931000Y-93906000D01*
X99010000Y-91466000D02*
X93589000Y-91466000D01*
X105882000Y-93186000D02*
X95018000Y-93186000D01*
X108249000Y-89306000D02*
X92651000Y-89306000D01*
X105250000Y-93706000D02*
X95650000Y-93706000D01*
X107689000Y-90786000D02*
X101890000Y-90786000D01*
X106960000Y-91986000D02*
X101890000Y-91986000D01*
X107156000Y-91706000D02*
X101890000Y-91706000D01*
X99010000Y-91426000D02*
X93564000Y-91426000D01*
X108328000Y-88986000D02*
X92572000Y-88986000D01*
X106510000Y-92546000D02*
X94390000Y-92546000D01*
X99010000Y-90146000D02*
X92928000Y-90146000D01*
X107821000Y-90506000D02*
X101890000Y-90506000D01*
X106647000Y-92386000D02*
X94253000Y-92386000D01*
X108047000Y-89946000D02*
X101890000Y-89946000D01*
X103925000Y-94506000D02*
X96975000Y-94506000D01*
X108499000Y-87906000D02*
X92401000Y-87906000D01*
X105141000Y-93786000D02*
X95759000Y-93786000D01*
X108530000Y-87305000D02*
X92370000Y-87305000D01*
X99010000Y-90986000D02*
X93314000Y-90986000D01*
X107766000Y-90626000D02*
X101890000Y-90626000D01*
X108337000Y-88946000D02*
X92563000Y-88946000D01*
X108521000Y-87585000D02*
X92379000Y-87585000D01*
X99010000Y-90946000D02*
X93293000Y-90946000D01*
X104087000Y-94426000D02*
X96813000Y-94426000D01*
X108416000Y-88546000D02*
X92484000Y-88546000D01*
X106052000Y-93026000D02*
X94848000Y-93026000D01*
X105838000Y-93226000D02*
X95062000Y-93226000D01*
X99010000Y-89666000D02*
X92757000Y-89666000D01*
X106613000Y-92426000D02*
X94287000Y-92426000D01*
X107522000Y-91106000D02*
X101890000Y-91106000D01*
X107873000Y-90386000D02*
X101890000Y-90386000D01*
X105084000Y-93826000D02*
X95816000Y-93826000D01*
X108529000Y-87345000D02*
X92371000Y-87345000D01*
X108346000Y-88906000D02*
X92554000Y-88906000D01*
X101215000Y-95266000D02*
X99685000Y-95266000D01*
X107972000Y-90146000D02*
X101890000Y-90146000D01*
X102014000Y-95146000D02*
X98886000Y-95146000D01*
X105701000Y-93346000D02*
X95199000Y-93346000D01*
X107544000Y-91066000D02*
X101890000Y-91066000D01*
X104723000Y-94066000D02*
X96177000Y-94066000D01*
X104909000Y-93946000D02*
X95991000Y-93946000D01*
X108168000Y-89586000D02*
X101890000Y-89586000D01*
X105747000Y-93306000D02*
X95153000Y-93306000D01*
X99010000Y-92066000D02*
X94000000Y-92066000D01*
X99010000Y-90786000D02*
X93211000Y-90786000D01*
X106713000Y-92306000D02*
X101890000Y-92306000D01*
X107924000Y-90266000D02*
X101890000Y-90266000D01*
X99010000Y-90506000D02*
X93079000Y-90506000D01*
X108192000Y-89506000D02*
X101890000Y-89506000D01*
X104786000Y-94026000D02*
X96114000Y-94026000D01*
X107360000Y-91386000D02*
X101890000Y-91386000D01*
X108422000Y-88506000D02*
X92478000Y-88506000D01*
X106290000Y-92786000D02*
X94610000Y-92786000D01*
X108290000Y-89146000D02*
X92610000Y-89146000D01*
X105356000Y-93626000D02*
X95544000Y-93626000D01*
X105509000Y-93506000D02*
X95391000Y-93506000D01*
X108527000Y-87425000D02*
X92373000Y-87425000D01*
X99010000Y-91586000D02*
X93665000Y-91586000D01*
X108409000Y-88586000D02*
X92491000Y-88586000D01*
X108103000Y-89786000D02*
X101890000Y-89786000D01*
X99010000Y-91106000D02*
X93378000Y-91106000D01*
X99010000Y-89826000D02*
X92811000Y-89826000D01*
X108215000Y-89426000D02*
X92685000Y-89426000D01*
X108502000Y-87865000D02*
X92398000Y-87865000D01*
X104240000Y-94346000D02*
X96660000Y-94346000D01*
X106680000Y-92346000D02*
X101890000Y-92346000D01*
X101548000Y-95226000D02*
X99352000Y-95226000D01*
X107336000Y-91426000D02*
X101890000Y-91426000D01*
X106174000Y-92906000D02*
X94726000Y-92906000D01*
X108204000Y-89466000D02*
X92696000Y-89466000D01*
X103570000Y-94666000D02*
X97330000Y-94666000D01*
X99010000Y-89986000D02*
X92868000Y-89986000D01*
X108394000Y-88666000D02*
X92506000Y-88666000D01*
X107907000Y-90306000D02*
X101890000Y-90306000D01*
X99010000Y-89866000D02*
X92825000Y-89866000D01*
X99010000Y-90826000D02*
X93231000Y-90826000D01*
X107784000Y-90586000D02*
X101890000Y-90586000D01*
X99010000Y-92266000D02*
X94155000Y-92266000D01*
X108310000Y-89066000D02*
X92590000Y-89066000D01*
X108464000Y-88226000D02*
X92436000Y-88226000D01*
X99010000Y-90906000D02*
X93272000Y-90906000D01*
X104526000Y-94186000D02*
X96374000Y-94186000D01*
X99010000Y-91506000D02*
X93614000Y-91506000D01*
X108180000Y-89546000D02*
X101890000Y-89546000D01*
X99010000Y-89746000D02*
X92784000Y-89746000D01*
X99010000Y-90386000D02*
X93027000Y-90386000D01*
X99010000Y-91186000D02*
X93423000Y-91186000D01*
X99010000Y-89906000D02*
X92839000Y-89906000D01*
X108491000Y-87986000D02*
X92409000Y-87986000D01*
X108280000Y-89186000D02*
X92620000Y-89186000D01*
X102524000Y-95026000D02*
X98376000Y-95026000D01*
X108523000Y-87545000D02*
X92377000Y-87545000D01*
X106930000Y-92026000D02*
X101890000Y-92026000D01*
X99010000Y-91266000D02*
X93469000Y-91266000D01*
X106808000Y-92186000D02*
X101890000Y-92186000D01*
X99010000Y-89706000D02*
X92770000Y-89706000D01*
X99010000Y-91666000D02*
X93717000Y-91666000D01*
X107477000Y-91186000D02*
X101890000Y-91186000D01*
X99010000Y-91866000D02*
X93854000Y-91866000D01*
X108143000Y-89666000D02*
X101890000Y-89666000D01*
X106475000Y-92586000D02*
X94425000Y-92586000D01*
X99010000Y-92106000D02*
X94030000Y-92106000D01*
X108514000Y-87705000D02*
X92386000Y-87705000D01*
X107261000Y-91546000D02*
X101890000Y-91546000D01*
X99010000Y-91986000D02*
X93940000Y-91986000D01*
X107890000Y-90346000D02*
X101890000Y-90346000D01*
X107018000Y-91906000D02*
X101890000Y-91906000D01*
X108483000Y-88066000D02*
X92417000Y-88066000D01*
X106439000Y-92626000D02*
X94461000Y-92626000D01*
X107586000Y-90986000D02*
X101890000Y-90986000D01*
X104386000Y-94266000D02*
X96514000Y-94266000D01*
X106252000Y-92826000D02*
X94648000Y-92826000D01*
X107311000Y-91466000D02*
X101890000Y-91466000D01*
X102370000Y-95066000D02*
X98530000Y-95066000D01*
X99010000Y-91706000D02*
X93744000Y-91706000D01*
X99010000Y-89626000D02*
X92745000Y-89626000D01*
X99010000Y-90586000D02*
X93116000Y-90586000D01*
X99010000Y-89506000D02*
X92708000Y-89506000D01*
X108003000Y-90066000D02*
X101890000Y-90066000D01*
X99010000Y-90746000D02*
X93192000Y-90746000D01*
X105793000Y-93266000D02*
X95107000Y-93266000D01*
X99010000Y-91826000D02*
X93826000Y-91826000D01*
X108570000Y-87185000D02*
G75*
G03*
X108570000Y-87185000I-8120000J0D01*
G01*
X140860000Y-55760000D02*
X142321000Y-55760000D01*
X138642000Y-54079000D02*
X140998000Y-54079000D01*
X140860000Y-55960000D02*
X142363000Y-55960000D01*
X137491000Y-55279000D02*
X138780000Y-55279000D01*
X140860000Y-54999000D02*
X141995000Y-54999000D01*
X140860000Y-55039000D02*
X142020000Y-55039000D01*
X137365000Y-55599000D02*
X138780000Y-55599000D01*
X140860000Y-56360000D02*
X142400000Y-56360000D01*
X140860000Y-55840000D02*
X142340000Y-55840000D01*
X137785000Y-54799000D02*
X138780000Y-54799000D01*
X140860000Y-55359000D02*
X142185000Y-55359000D01*
X137242000Y-56280000D02*
X138780000Y-56280000D01*
X137698000Y-54919000D02*
X138780000Y-54919000D01*
X137725000Y-54879000D02*
X138780000Y-54879000D01*
X137406000Y-55479000D02*
X138780000Y-55479000D01*
X140860000Y-56000000D02*
X142370000Y-56000000D01*
X140860000Y-55279000D02*
X142149000Y-55279000D01*
X140860000Y-55199000D02*
X142110000Y-55199000D01*
X140860000Y-54879000D02*
X141915000Y-54879000D01*
X140860000Y-56240000D02*
X142396000Y-56240000D01*
X137309000Y-55800000D02*
X138780000Y-55800000D01*
X137552000Y-55159000D02*
X138780000Y-55159000D01*
X138215000Y-54359000D02*
X141425000Y-54359000D01*
X137329000Y-55720000D02*
X138780000Y-55720000D01*
X137596000Y-55079000D02*
X138780000Y-55079000D01*
X140860000Y-55519000D02*
X142248000Y-55519000D01*
X137620000Y-55039000D02*
X138780000Y-55039000D01*
X140860000Y-56200000D02*
X142393000Y-56200000D01*
X140860000Y-54519000D02*
X141605000Y-54519000D01*
X140860000Y-55479000D02*
X142234000Y-55479000D01*
X140860000Y-54679000D02*
X141757000Y-54679000D01*
X137422000Y-55439000D02*
X138780000Y-55439000D01*
X140860000Y-55399000D02*
X142202000Y-55399000D01*
X137244000Y-56240000D02*
X138780000Y-56240000D01*
X140860000Y-54639000D02*
X141721000Y-54639000D01*
X137300000Y-55840000D02*
X138780000Y-55840000D01*
X137292000Y-55880000D02*
X138780000Y-55880000D01*
X140860000Y-56120000D02*
X142385000Y-56120000D01*
X138377000Y-54239000D02*
X141263000Y-54239000D01*
X140860000Y-55920000D02*
X142356000Y-55920000D01*
X140860000Y-55119000D02*
X142067000Y-55119000D01*
X139143000Y-53879000D02*
X140497000Y-53879000D01*
X140860000Y-55239000D02*
X142130000Y-55239000D01*
X137671000Y-54959000D02*
X138780000Y-54959000D01*
X139536000Y-53799000D02*
X140104000Y-53799000D01*
X137319000Y-55760000D02*
X138780000Y-55760000D01*
X140860000Y-55720000D02*
X142311000Y-55720000D01*
X140860000Y-54399000D02*
X141473000Y-54399000D01*
X140860000Y-54439000D02*
X141519000Y-54439000D01*
X140860000Y-56280000D02*
X142398000Y-56280000D01*
X140860000Y-55800000D02*
X142331000Y-55800000D01*
X138320000Y-54279000D02*
X141320000Y-54279000D01*
X138569000Y-54119000D02*
X141071000Y-54119000D01*
X140860000Y-55880000D02*
X142348000Y-55880000D01*
X138095000Y-58954775D02*
X138595000Y-58954775D01*
X138809000Y-53999000D02*
X140831000Y-53999000D01*
X137247000Y-56200000D02*
X138780000Y-56200000D01*
X138722000Y-54039000D02*
X140918000Y-54039000D01*
X140860000Y-54599000D02*
X141684000Y-54599000D01*
X137240000Y-56360000D02*
X138780000Y-56360000D01*
X137755000Y-54839000D02*
X138780000Y-54839000D01*
X140860000Y-55079000D02*
X142044000Y-55079000D01*
X137455000Y-55359000D02*
X138780000Y-55359000D01*
X137849000Y-54719000D02*
X138780000Y-54719000D01*
X137264000Y-56040000D02*
X138780000Y-56040000D01*
X137510000Y-55239000D02*
X138780000Y-55239000D01*
X138437000Y-54199000D02*
X141203000Y-54199000D01*
X137284000Y-55920000D02*
X138780000Y-55920000D01*
X137352000Y-55639000D02*
X138780000Y-55639000D01*
X137573000Y-55119000D02*
X138780000Y-55119000D01*
X137919000Y-54639000D02*
X138780000Y-54639000D01*
X138167000Y-54399000D02*
X138780000Y-54399000D01*
X138077000Y-54479000D02*
X138780000Y-54479000D01*
X140860000Y-55599000D02*
X142275000Y-55599000D01*
X140860000Y-54959000D02*
X141969000Y-54959000D01*
X137277000Y-55960000D02*
X138780000Y-55960000D01*
X140860000Y-55559000D02*
X142262000Y-55559000D01*
X137340000Y-55679000D02*
X138780000Y-55679000D01*
X137438000Y-55399000D02*
X138780000Y-55399000D01*
X137378000Y-55559000D02*
X138780000Y-55559000D01*
X137255000Y-56120000D02*
X138780000Y-56120000D01*
X137240000Y-56400000D02*
X138780000Y-56400000D01*
X137883000Y-54679000D02*
X138780000Y-54679000D01*
X140860000Y-54719000D02*
X141791000Y-54719000D01*
X137956000Y-54599000D02*
X138780000Y-54599000D01*
X139015000Y-53919000D02*
X140625000Y-53919000D01*
X137259000Y-56080000D02*
X138780000Y-56080000D01*
X138266000Y-54319000D02*
X141374000Y-54319000D01*
X137994000Y-54559000D02*
X138780000Y-54559000D01*
X140860000Y-56080000D02*
X142381000Y-56080000D01*
X140860000Y-55679000D02*
X142300000Y-55679000D01*
X138121000Y-54439000D02*
X138780000Y-54439000D01*
X140860000Y-54559000D02*
X141646000Y-54559000D01*
X138905000Y-53959000D02*
X140735000Y-53959000D01*
X140860000Y-54839000D02*
X141885000Y-54839000D01*
X137530000Y-55199000D02*
X138780000Y-55199000D01*
X140860000Y-55439000D02*
X142218000Y-55439000D01*
X137251000Y-56160000D02*
X138780000Y-56160000D01*
X140860000Y-56040000D02*
X142376000Y-56040000D01*
X140860000Y-55319000D02*
X142168000Y-55319000D01*
X138501000Y-54159000D02*
X141139000Y-54159000D01*
X137241000Y-56320000D02*
X138780000Y-56320000D01*
X138345000Y-59204775D02*
X138345000Y-58704775D01*
X140860000Y-54799000D02*
X141855000Y-54799000D01*
X137270000Y-56000000D02*
X138780000Y-56000000D01*
X139302000Y-53839000D02*
X140338000Y-53839000D01*
X140860000Y-54759000D02*
X141824000Y-54759000D01*
X140860000Y-55639000D02*
X142288000Y-55639000D01*
X140860000Y-54919000D02*
X141942000Y-54919000D01*
X137645000Y-54999000D02*
X138780000Y-54999000D01*
X137472000Y-55319000D02*
X138780000Y-55319000D01*
X137392000Y-55519000D02*
X138780000Y-55519000D01*
X137816000Y-54759000D02*
X138780000Y-54759000D01*
X140860000Y-56160000D02*
X142389000Y-56160000D01*
X140860000Y-55159000D02*
X142088000Y-55159000D01*
X140860000Y-54479000D02*
X141563000Y-54479000D01*
X138035000Y-54519000D02*
X138780000Y-54519000D01*
X140860000Y-56320000D02*
X142399000Y-56320000D01*
X140860000Y-56400000D02*
X142400000Y-56400000D01*
X142440000Y-56400000D02*
G75*
G03*
X142440000Y-56400000I-2620000J0D01*
G01*
X134510000Y-91915000D02*
X135961000Y-91915000D01*
X132372000Y-90234000D02*
X134568000Y-90234000D01*
X131375000Y-91074000D02*
X132430000Y-91074000D01*
X131105000Y-91554000D02*
X132430000Y-91554000D01*
X131321000Y-91154000D02*
X132430000Y-91154000D01*
X130897000Y-92395000D02*
X132430000Y-92395000D01*
X130934000Y-92115000D02*
X132430000Y-92115000D01*
X134510000Y-91794000D02*
X135925000Y-91794000D01*
X134510000Y-90874000D02*
X135407000Y-90874000D01*
X131533000Y-90874000D02*
X132430000Y-90874000D01*
X130979000Y-91915000D02*
X132430000Y-91915000D01*
X132219000Y-90314000D02*
X134721000Y-90314000D01*
X134510000Y-91114000D02*
X135592000Y-91114000D01*
X134510000Y-91354000D02*
X135738000Y-91354000D01*
X134510000Y-92395000D02*
X136043000Y-92395000D01*
X131348000Y-91114000D02*
X132430000Y-91114000D01*
X131056000Y-91674000D02*
X132430000Y-91674000D01*
X134510000Y-92595000D02*
X136050000Y-92595000D01*
X134510000Y-91274000D02*
X135694000Y-91274000D01*
X131042000Y-91714000D02*
X132430000Y-91714000D01*
X134510000Y-91634000D02*
X135868000Y-91634000D01*
X134510000Y-91714000D02*
X135898000Y-91714000D01*
X134510000Y-90754000D02*
X135296000Y-90754000D01*
X131072000Y-91634000D02*
X132430000Y-91634000D01*
X134510000Y-92475000D02*
X136048000Y-92475000D01*
X134510000Y-91594000D02*
X135852000Y-91594000D01*
X134510000Y-92555000D02*
X136050000Y-92555000D01*
X134510000Y-90794000D02*
X135334000Y-90794000D01*
X132555000Y-90154000D02*
X134385000Y-90154000D01*
X134510000Y-90994000D02*
X135505000Y-90994000D01*
X132665000Y-90114000D02*
X134275000Y-90114000D01*
X134510000Y-90594000D02*
X135123000Y-90594000D01*
X131015000Y-91794000D02*
X132430000Y-91794000D01*
X132027000Y-90434000D02*
X134913000Y-90434000D01*
X134510000Y-91234000D02*
X135670000Y-91234000D01*
X134510000Y-92235000D02*
X136026000Y-92235000D01*
X131160000Y-91434000D02*
X132430000Y-91434000D01*
X134510000Y-90834000D02*
X135371000Y-90834000D01*
X131745000Y-95149775D02*
X132245000Y-95149775D01*
X131295000Y-91194000D02*
X132430000Y-91194000D01*
X134510000Y-92035000D02*
X135990000Y-92035000D01*
X130914000Y-92235000D02*
X132430000Y-92235000D01*
X134510000Y-92115000D02*
X136006000Y-92115000D01*
X130891000Y-92515000D02*
X132430000Y-92515000D01*
X130894000Y-92435000D02*
X132430000Y-92435000D01*
X130905000Y-92315000D02*
X132430000Y-92315000D01*
X130909000Y-92275000D02*
X132430000Y-92275000D01*
X134510000Y-91554000D02*
X135835000Y-91554000D01*
X131727000Y-90674000D02*
X132430000Y-90674000D01*
X131122000Y-91514000D02*
X132430000Y-91514000D01*
X132087000Y-90394000D02*
X134853000Y-90394000D01*
X134510000Y-91394000D02*
X135760000Y-91394000D01*
X134510000Y-91674000D02*
X135884000Y-91674000D01*
X131270000Y-91234000D02*
X132430000Y-91234000D01*
X132952000Y-90034000D02*
X133988000Y-90034000D01*
X132459000Y-90194000D02*
X134481000Y-90194000D01*
X134510000Y-91834000D02*
X135938000Y-91834000D01*
X134510000Y-91074000D02*
X135565000Y-91074000D01*
X131223000Y-91314000D02*
X132430000Y-91314000D01*
X131088000Y-91594000D02*
X132430000Y-91594000D01*
X130927000Y-92155000D02*
X132430000Y-92155000D01*
X130969000Y-91955000D02*
X132430000Y-91955000D01*
X131180000Y-91394000D02*
X132430000Y-91394000D01*
X134510000Y-92435000D02*
X136046000Y-92435000D01*
X131002000Y-91834000D02*
X132430000Y-91834000D01*
X134510000Y-92155000D02*
X136013000Y-92155000D01*
X134510000Y-91995000D02*
X135981000Y-91995000D01*
X131995000Y-95399775D02*
X131995000Y-94899775D01*
X134510000Y-90634000D02*
X135169000Y-90634000D01*
X131644000Y-90754000D02*
X132430000Y-90754000D01*
X131246000Y-91274000D02*
X132430000Y-91274000D01*
X134510000Y-90914000D02*
X135441000Y-90914000D01*
X130920000Y-92195000D02*
X132430000Y-92195000D01*
X131028000Y-91754000D02*
X132430000Y-91754000D01*
X131405000Y-91034000D02*
X132430000Y-91034000D01*
X134510000Y-91514000D02*
X135818000Y-91514000D01*
X132151000Y-90354000D02*
X134789000Y-90354000D01*
X131606000Y-90794000D02*
X132430000Y-90794000D01*
X132793000Y-90074000D02*
X134147000Y-90074000D01*
X130892000Y-92475000D02*
X132430000Y-92475000D01*
X134510000Y-92315000D02*
X136035000Y-92315000D01*
X134510000Y-91874000D02*
X135950000Y-91874000D01*
X134510000Y-91434000D02*
X135780000Y-91434000D01*
X131435000Y-90994000D02*
X132430000Y-90994000D01*
X130890000Y-92595000D02*
X132430000Y-92595000D01*
X134510000Y-91314000D02*
X135717000Y-91314000D01*
X134510000Y-90714000D02*
X135255000Y-90714000D01*
X134510000Y-91754000D02*
X135912000Y-91754000D01*
X131466000Y-90954000D02*
X132430000Y-90954000D01*
X134510000Y-92195000D02*
X136020000Y-92195000D01*
X130901000Y-92355000D02*
X132430000Y-92355000D01*
X130950000Y-92035000D02*
X132430000Y-92035000D01*
X134510000Y-91034000D02*
X135535000Y-91034000D01*
X130890000Y-92555000D02*
X132430000Y-92555000D01*
X134510000Y-91955000D02*
X135971000Y-91955000D01*
X131685000Y-90714000D02*
X132430000Y-90714000D01*
X131499000Y-90914000D02*
X132430000Y-90914000D01*
X134510000Y-91474000D02*
X135799000Y-91474000D01*
X134510000Y-91194000D02*
X135645000Y-91194000D01*
X134510000Y-91154000D02*
X135619000Y-91154000D01*
X134510000Y-92515000D02*
X136049000Y-92515000D01*
X131141000Y-91474000D02*
X132430000Y-91474000D01*
X134510000Y-90674000D02*
X135213000Y-90674000D01*
X131569000Y-90834000D02*
X132430000Y-90834000D01*
X131865000Y-90554000D02*
X135075000Y-90554000D01*
X134510000Y-92275000D02*
X136031000Y-92275000D01*
X130959000Y-91995000D02*
X132430000Y-91995000D01*
X131970000Y-90474000D02*
X134970000Y-90474000D01*
X132292000Y-90274000D02*
X134648000Y-90274000D01*
X131916000Y-90514000D02*
X135024000Y-90514000D01*
X134510000Y-90954000D02*
X135474000Y-90954000D01*
X133186000Y-89994000D02*
X133754000Y-89994000D01*
X131817000Y-90594000D02*
X132430000Y-90594000D01*
X130990000Y-91874000D02*
X132430000Y-91874000D01*
X134510000Y-92075000D02*
X135998000Y-92075000D01*
X131771000Y-90634000D02*
X132430000Y-90634000D01*
X131202000Y-91354000D02*
X132430000Y-91354000D01*
X134510000Y-92355000D02*
X136039000Y-92355000D01*
X130942000Y-92075000D02*
X132430000Y-92075000D01*
X136090000Y-92595000D02*
G75*
G03*
X136090000Y-92595000I-2620000J0D01*
G01*
X138275000Y-94885000D02*
X141365000Y-94885000D01*
X141364830Y-94885000D02*
G75*
G03*
X139819538Y-89335000I-1544830J2560000D01*
G01*
X139820462Y-89335000D02*
G75*
G03*
X138275170Y-94885000I-462J-2990000D01*
G01*
X142320000Y-92325000D02*
G75*
G03*
X142320000Y-92325000I-2500000J0D01*
G01*
X131925000Y-75200000D02*
X135015000Y-75200000D01*
X133470462Y-69650000D02*
G75*
G03*
X131925170Y-75200000I-462J-2990000D01*
G01*
X135014830Y-75200000D02*
G75*
G03*
X133469538Y-69650000I-1544830J2560000D01*
G01*
X135970000Y-72640000D02*
G75*
G03*
X135970000Y-72640000I-2500000J0D01*
G01*
X117690000Y-85395000D02*
X116180000Y-85395000D01*
X117690000Y-82125000D02*
X113049000Y-82125000D01*
X117690000Y-92365000D02*
X113049000Y-92365000D01*
X116180000Y-82125000D02*
X116180000Y-92365000D01*
X113049000Y-82125000D02*
X113049000Y-92365000D01*
X117690000Y-82125000D02*
X117690000Y-92365000D01*
X117690000Y-89096000D02*
X116180000Y-89096000D01*
X84790000Y-69146000D02*
X78010000Y-69146000D01*
X79960000Y-64946000D02*
X73960000Y-64946000D01*
X79960000Y-64466000D02*
X73775000Y-64466000D01*
X88840000Y-64946000D02*
X82840000Y-64946000D01*
X86918000Y-67706000D02*
X75882000Y-67706000D01*
X89199000Y-63906000D02*
X73601000Y-63906000D01*
X89433000Y-62666000D02*
X73367000Y-62666000D01*
X85037000Y-69026000D02*
X77763000Y-69026000D01*
X79960000Y-64866000D02*
X73926000Y-64866000D01*
X88427000Y-65786000D02*
X82840000Y-65786000D01*
X79960000Y-64186000D02*
X73682000Y-64186000D01*
X87597000Y-66986000D02*
X75203000Y-66986000D01*
X89408000Y-62866000D02*
X73392000Y-62866000D01*
X89210000Y-63866000D02*
X73590000Y-63866000D01*
X89469000Y-62225000D02*
X73331000Y-62225000D01*
X82751000Y-69786000D02*
X80049000Y-69786000D01*
X89379000Y-63066000D02*
X73421000Y-63066000D01*
X84324000Y-69346000D02*
X78476000Y-69346000D01*
X79960000Y-66466000D02*
X74804000Y-66466000D01*
X89414000Y-62826000D02*
X73386000Y-62826000D01*
X89477000Y-62025000D02*
X73323000Y-62025000D01*
X79960000Y-65786000D02*
X74373000Y-65786000D01*
X88716000Y-65226000D02*
X82840000Y-65226000D01*
X82498000Y-69826000D02*
X80302000Y-69826000D01*
X83618000Y-69586000D02*
X79182000Y-69586000D01*
X79960000Y-64786000D02*
X73894000Y-64786000D01*
X89039000Y-64426000D02*
X82840000Y-64426000D01*
X79960000Y-65506000D02*
X74222000Y-65506000D01*
X88286000Y-66026000D02*
X82840000Y-66026000D01*
X86459000Y-68106000D02*
X76341000Y-68106000D01*
X88449000Y-65746000D02*
X82840000Y-65746000D01*
X89478000Y-61985000D02*
X73322000Y-61985000D01*
X84957000Y-69066000D02*
X77843000Y-69066000D01*
X89372000Y-63106000D02*
X73428000Y-63106000D01*
X89458000Y-62385000D02*
X73342000Y-62385000D01*
X79960000Y-66746000D02*
X75010000Y-66746000D01*
X79960000Y-64386000D02*
X73747000Y-64386000D01*
X88334000Y-65946000D02*
X82840000Y-65946000D01*
X86200000Y-68306000D02*
X76600000Y-68306000D01*
X88823000Y-64986000D02*
X82840000Y-64986000D01*
X89329000Y-63346000D02*
X73471000Y-63346000D01*
X87084000Y-67546000D02*
X75716000Y-67546000D01*
X79960000Y-65666000D02*
X74306000Y-65666000D01*
X79960000Y-64106000D02*
X73658000Y-64106000D01*
X84424000Y-69306000D02*
X78376000Y-69306000D01*
X85190000Y-68946000D02*
X77610000Y-68946000D01*
X88922000Y-64746000D02*
X82840000Y-64746000D01*
X88261000Y-66066000D02*
X82840000Y-66066000D01*
X79960000Y-66906000D02*
X75137000Y-66906000D01*
X87163000Y-67466000D02*
X75637000Y-67466000D01*
X86306000Y-68226000D02*
X76494000Y-68226000D01*
X87880000Y-66626000D02*
X82840000Y-66626000D01*
X87389000Y-67226000D02*
X75411000Y-67226000D01*
X89476000Y-62065000D02*
X73324000Y-62065000D01*
X88133000Y-66266000D02*
X82840000Y-66266000D01*
X89177000Y-63986000D02*
X73623000Y-63986000D01*
X89260000Y-63666000D02*
X73540000Y-63666000D01*
X83320000Y-69666000D02*
X79480000Y-69666000D01*
X79960000Y-66946000D02*
X75170000Y-66946000D01*
X89240000Y-63746000D02*
X73560000Y-63746000D01*
X79960000Y-64506000D02*
X73789000Y-64506000D01*
X79960000Y-64426000D02*
X73761000Y-64426000D01*
X85798000Y-68586000D02*
X77002000Y-68586000D01*
X79960000Y-66106000D02*
X74564000Y-66106000D01*
X83878000Y-69506000D02*
X78922000Y-69506000D01*
X79960000Y-66586000D02*
X74890000Y-66586000D01*
X88658000Y-65346000D02*
X82840000Y-65346000D01*
X87240000Y-67386000D02*
X75560000Y-67386000D01*
X89419000Y-62786000D02*
X73381000Y-62786000D01*
X88874000Y-64866000D02*
X82840000Y-64866000D01*
X79960000Y-66426000D02*
X74776000Y-66426000D01*
X87278000Y-67346000D02*
X75522000Y-67346000D01*
X79960000Y-65826000D02*
X74396000Y-65826000D01*
X85264000Y-68906000D02*
X77536000Y-68906000D01*
X88472000Y-65706000D02*
X82840000Y-65706000D01*
X88753000Y-65146000D02*
X82840000Y-65146000D01*
X88734000Y-65186000D02*
X82840000Y-65186000D01*
X89464000Y-62305000D02*
X73336000Y-62305000D01*
X89366000Y-63146000D02*
X73434000Y-63146000D01*
X88806000Y-65026000D02*
X82840000Y-65026000D01*
X87695000Y-66866000D02*
X82840000Y-66866000D01*
X79960000Y-66266000D02*
X74667000Y-66266000D01*
X79960000Y-65106000D02*
X74029000Y-65106000D01*
X79960000Y-65466000D02*
X74201000Y-65466000D01*
X86508000Y-68066000D02*
X76292000Y-68066000D01*
X79960000Y-66226000D02*
X74641000Y-66226000D01*
X89053000Y-64386000D02*
X82840000Y-64386000D01*
X79960000Y-65986000D02*
X74490000Y-65986000D01*
X85543000Y-68746000D02*
X77257000Y-68746000D01*
X87495000Y-67106000D02*
X75305000Y-67106000D01*
X86697000Y-67906000D02*
X76103000Y-67906000D01*
X87425000Y-67186000D02*
X75375000Y-67186000D01*
X87758000Y-66786000D02*
X82840000Y-66786000D01*
X84703000Y-69186000D02*
X78097000Y-69186000D01*
X88185000Y-66186000D02*
X82840000Y-66186000D01*
X86651000Y-67946000D02*
X76149000Y-67946000D01*
X79960000Y-65026000D02*
X73994000Y-65026000D01*
X88982000Y-64586000D02*
X82840000Y-64586000D01*
X85955000Y-53095509D02*
X85955000Y-54695509D01*
X85476000Y-68786000D02*
X77324000Y-68786000D01*
X83751000Y-69546000D02*
X79049000Y-69546000D01*
X84220000Y-69386000D02*
X78580000Y-69386000D01*
X85673000Y-68666000D02*
X77127000Y-68666000D01*
X88968000Y-64626000D02*
X82840000Y-64626000D01*
X89466000Y-62265000D02*
X73334000Y-62265000D01*
X79960000Y-65546000D02*
X74243000Y-65546000D01*
X79960000Y-64266000D02*
X73707000Y-64266000D01*
X89080000Y-64306000D02*
X82840000Y-64306000D01*
X79960000Y-64146000D02*
X73670000Y-64146000D01*
X79960000Y-66826000D02*
X75073000Y-66826000D01*
X89455000Y-62425000D02*
X73345000Y-62425000D01*
X89011000Y-64506000D02*
X82840000Y-64506000D01*
X89105000Y-64226000D02*
X82840000Y-64226000D01*
X88052000Y-66386000D02*
X82840000Y-66386000D01*
X88906000Y-64786000D02*
X82840000Y-64786000D01*
X86960000Y-67666000D02*
X75840000Y-67666000D01*
X79960000Y-66866000D02*
X75105000Y-66866000D01*
X89344000Y-63266000D02*
X73456000Y-63266000D01*
X84613000Y-69226000D02*
X78187000Y-69226000D01*
X88890000Y-64826000D02*
X82840000Y-64826000D01*
X88358000Y-65906000D02*
X82840000Y-65906000D01*
X89449000Y-62506000D02*
X73351000Y-62506000D01*
X86146000Y-68346000D02*
X76654000Y-68346000D01*
X86788000Y-67826000D02*
X76012000Y-67826000D01*
X79960000Y-65946000D02*
X74466000Y-65946000D01*
X89480000Y-61905000D02*
X73320000Y-61905000D01*
X82165000Y-69866000D02*
X80635000Y-69866000D01*
X86875000Y-67746000D02*
X75925000Y-67746000D01*
X86358000Y-68186000D02*
X76442000Y-68186000D01*
X87043000Y-67586000D02*
X75757000Y-67586000D01*
X89397000Y-62946000D02*
X73403000Y-62946000D01*
X88106000Y-66306000D02*
X82840000Y-66306000D01*
X89230000Y-63786000D02*
X73570000Y-63786000D01*
X79960000Y-66066000D02*
X74539000Y-66066000D01*
X79960000Y-66706000D02*
X74980000Y-66706000D01*
X89287000Y-63546000D02*
X73513000Y-63546000D01*
X89305000Y-63466000D02*
X73495000Y-63466000D01*
X84520000Y-69266000D02*
X78280000Y-69266000D01*
X89474000Y-62105000D02*
X73326000Y-62105000D01*
X86556000Y-68026000D02*
X76244000Y-68026000D01*
X79960000Y-66306000D02*
X74694000Y-66306000D01*
X79960000Y-64346000D02*
X73734000Y-64346000D01*
X79960000Y-64826000D02*
X73910000Y-64826000D01*
X88619000Y-65426000D02*
X82840000Y-65426000D01*
X89066000Y-64346000D02*
X82840000Y-64346000D01*
X79960000Y-65346000D02*
X74142000Y-65346000D01*
X88771000Y-65106000D02*
X82840000Y-65106000D01*
X88159000Y-66226000D02*
X82840000Y-66226000D01*
X85736000Y-68626000D02*
X77064000Y-68626000D01*
X88079000Y-66346000D02*
X82840000Y-66346000D01*
X85115000Y-68986000D02*
X77685000Y-68986000D01*
X86034000Y-68426000D02*
X76766000Y-68426000D01*
X87202000Y-67426000D02*
X75598000Y-67426000D01*
X88536000Y-65586000D02*
X82840000Y-65586000D01*
X88236000Y-66106000D02*
X82840000Y-66106000D01*
X88678000Y-65306000D02*
X82840000Y-65306000D01*
X79960000Y-65906000D02*
X74442000Y-65906000D01*
X79960000Y-65226000D02*
X74084000Y-65226000D01*
X89481000Y-61785000D02*
X73319000Y-61785000D01*
X88310000Y-65986000D02*
X82840000Y-65986000D01*
X79960000Y-64226000D02*
X73695000Y-64226000D01*
X79960000Y-66786000D02*
X75042000Y-66786000D01*
X88599000Y-65466000D02*
X82840000Y-65466000D01*
X85609000Y-68706000D02*
X77191000Y-68706000D01*
X79960000Y-64706000D02*
X73863000Y-64706000D01*
X88211000Y-66146000D02*
X82840000Y-66146000D01*
X89337000Y-63306000D02*
X73463000Y-63306000D01*
X79960000Y-65306000D02*
X74122000Y-65306000D01*
X86409000Y-68146000D02*
X76391000Y-68146000D01*
X89278000Y-63586000D02*
X73522000Y-63586000D01*
X82964000Y-69746000D02*
X79836000Y-69746000D01*
X87996000Y-66466000D02*
X82840000Y-66466000D01*
X79960000Y-65066000D02*
X74011000Y-65066000D01*
X89142000Y-64106000D02*
X82840000Y-64106000D01*
X86091000Y-68386000D02*
X76709000Y-68386000D01*
X88494000Y-65666000D02*
X82840000Y-65666000D01*
X84875000Y-69106000D02*
X77925000Y-69106000D01*
X79960000Y-64666000D02*
X73847000Y-64666000D01*
X88697000Y-65266000D02*
X82840000Y-65266000D01*
X79960000Y-65746000D02*
X74351000Y-65746000D01*
X79960000Y-65146000D02*
X74047000Y-65146000D01*
X85977000Y-68466000D02*
X76823000Y-68466000D01*
X89452000Y-62465000D02*
X73348000Y-62465000D01*
X79960000Y-66386000D02*
X74748000Y-66386000D01*
X89359000Y-63186000D02*
X73441000Y-63186000D01*
X79960000Y-64986000D02*
X73977000Y-64986000D01*
X88953000Y-64666000D02*
X82840000Y-64666000D01*
X89437000Y-62626000D02*
X73363000Y-62626000D01*
X83152000Y-69706000D02*
X79648000Y-69706000D01*
X89424000Y-62746000D02*
X73376000Y-62746000D01*
X86254000Y-68266000D02*
X76546000Y-68266000D01*
X89250000Y-63706000D02*
X73550000Y-63706000D01*
X79960000Y-64906000D02*
X73943000Y-64906000D01*
X86604000Y-67986000D02*
X76196000Y-67986000D01*
X87529000Y-67066000D02*
X75271000Y-67066000D01*
X89428000Y-62706000D02*
X73372000Y-62706000D01*
X87968000Y-66506000D02*
X82840000Y-66506000D01*
X88997000Y-64546000D02*
X82840000Y-64546000D01*
X85407000Y-68826000D02*
X77393000Y-68826000D01*
X87352000Y-67266000D02*
X75448000Y-67266000D01*
X79960000Y-65626000D02*
X74285000Y-65626000D01*
X89165000Y-64026000D02*
X73635000Y-64026000D01*
X87727000Y-66826000D02*
X82840000Y-66826000D01*
X79960000Y-65706000D02*
X74328000Y-65706000D01*
X89445000Y-62546000D02*
X73355000Y-62546000D01*
X89154000Y-64066000D02*
X73646000Y-64066000D01*
X86755000Y-53895509D02*
X85155000Y-53895509D01*
X79960000Y-66186000D02*
X74615000Y-66186000D01*
X88857000Y-64906000D02*
X82840000Y-64906000D01*
X79960000Y-65266000D02*
X74103000Y-65266000D01*
X87563000Y-67026000D02*
X75237000Y-67026000D01*
X89352000Y-63226000D02*
X73448000Y-63226000D01*
X87630000Y-66946000D02*
X82840000Y-66946000D01*
X87850000Y-66666000D02*
X82840000Y-66666000D01*
X79960000Y-65186000D02*
X74066000Y-65186000D01*
X88024000Y-66426000D02*
X82840000Y-66426000D01*
X79960000Y-65586000D02*
X74264000Y-65586000D01*
X85859000Y-68546000D02*
X76941000Y-68546000D01*
X83997000Y-69466000D02*
X78803000Y-69466000D01*
X88557000Y-65546000D02*
X82840000Y-65546000D01*
X85919000Y-68506000D02*
X76881000Y-68506000D01*
X89313000Y-63426000D02*
X73487000Y-63426000D01*
X89385000Y-63026000D02*
X73415000Y-63026000D01*
X79960000Y-66546000D02*
X74861000Y-66546000D01*
X88404000Y-65826000D02*
X82840000Y-65826000D01*
X79960000Y-66666000D02*
X74950000Y-66666000D01*
X79960000Y-64306000D02*
X73720000Y-64306000D01*
X85336000Y-68866000D02*
X77464000Y-68866000D01*
X79960000Y-64626000D02*
X73832000Y-64626000D01*
X89188000Y-63946000D02*
X73612000Y-63946000D01*
X79960000Y-66146000D02*
X74589000Y-66146000D01*
X84111000Y-69426000D02*
X78689000Y-69426000D01*
X79960000Y-66346000D02*
X74721000Y-66346000D01*
X89403000Y-62906000D02*
X73397000Y-62906000D01*
X88381000Y-65866000D02*
X82840000Y-65866000D01*
X89296000Y-63506000D02*
X73504000Y-63506000D01*
X89220000Y-63826000D02*
X73580000Y-63826000D01*
X89480000Y-61825000D02*
X73320000Y-61825000D01*
X79960000Y-65866000D02*
X74419000Y-65866000D01*
X89480000Y-61865000D02*
X73320000Y-61865000D01*
X89461000Y-62345000D02*
X73339000Y-62345000D01*
X87460000Y-67146000D02*
X75340000Y-67146000D01*
X79960000Y-64586000D02*
X73818000Y-64586000D01*
X87790000Y-66746000D02*
X82840000Y-66746000D01*
X89479000Y-61945000D02*
X73321000Y-61945000D01*
X88789000Y-65066000D02*
X82840000Y-65066000D01*
X89391000Y-62986000D02*
X73409000Y-62986000D01*
X88937000Y-64706000D02*
X82840000Y-64706000D01*
X88578000Y-65506000D02*
X82840000Y-65506000D01*
X79960000Y-66506000D02*
X74832000Y-66506000D01*
X87910000Y-66586000D02*
X82840000Y-66586000D01*
X89093000Y-64266000D02*
X82840000Y-64266000D01*
X87663000Y-66906000D02*
X82840000Y-66906000D01*
X86743000Y-67866000D02*
X76057000Y-67866000D01*
X87002000Y-67626000D02*
X75798000Y-67626000D01*
X89473000Y-62145000D02*
X73327000Y-62145000D01*
X88639000Y-65386000D02*
X82840000Y-65386000D01*
X86832000Y-67786000D02*
X75968000Y-67786000D01*
X83474000Y-69626000D02*
X79326000Y-69626000D01*
X87316000Y-67306000D02*
X75484000Y-67306000D01*
X89118000Y-64186000D02*
X82840000Y-64186000D01*
X89471000Y-62185000D02*
X73329000Y-62185000D01*
X87939000Y-66546000D02*
X82840000Y-66546000D01*
X89441000Y-62586000D02*
X73359000Y-62586000D01*
X89130000Y-64146000D02*
X82840000Y-64146000D01*
X87124000Y-67506000D02*
X75676000Y-67506000D01*
X79960000Y-66026000D02*
X74514000Y-66026000D01*
X89269000Y-63626000D02*
X73531000Y-63626000D01*
X79960000Y-66626000D02*
X74920000Y-66626000D01*
X79960000Y-64546000D02*
X73803000Y-64546000D01*
X79960000Y-65426000D02*
X74181000Y-65426000D01*
X87820000Y-66706000D02*
X82840000Y-66706000D01*
X88515000Y-65626000D02*
X82840000Y-65626000D01*
X89025000Y-64466000D02*
X82840000Y-64466000D01*
X79960000Y-64746000D02*
X73878000Y-64746000D01*
X79960000Y-65386000D02*
X74161000Y-65386000D01*
X89321000Y-63386000D02*
X73479000Y-63386000D01*
X89520000Y-61785000D02*
G75*
G03*
X89520000Y-61785000I-8120000J0D01*
G01*
X70399000Y-62506000D02*
X54301000Y-62506000D01*
X64424000Y-69626000D02*
X60276000Y-69626000D01*
X69824000Y-64866000D02*
X63790000Y-64866000D01*
X70347000Y-62946000D02*
X54353000Y-62946000D01*
X67738000Y-67826000D02*
X56962000Y-67826000D01*
X60910000Y-65786000D02*
X55323000Y-65786000D01*
X60910000Y-64266000D02*
X54657000Y-64266000D01*
X67825000Y-67746000D02*
X56875000Y-67746000D01*
X65825000Y-69106000D02*
X58875000Y-69106000D01*
X60910000Y-64666000D02*
X54797000Y-64666000D01*
X70414000Y-62305000D02*
X54286000Y-62305000D01*
X69260000Y-65986000D02*
X63790000Y-65986000D01*
X69186000Y-66106000D02*
X63790000Y-66106000D01*
X69773000Y-64986000D02*
X63790000Y-64986000D01*
X68410000Y-67146000D02*
X56290000Y-67146000D01*
X60910000Y-65866000D02*
X55369000Y-65866000D01*
X68479000Y-67066000D02*
X56221000Y-67066000D01*
X70431000Y-61785000D02*
X54269000Y-61785000D01*
X60910000Y-64306000D02*
X54670000Y-64306000D01*
X68974000Y-66426000D02*
X63790000Y-66426000D01*
X70246000Y-63506000D02*
X54454000Y-63506000D01*
X70003000Y-64386000D02*
X63790000Y-64386000D01*
X69549000Y-65466000D02*
X63790000Y-65466000D01*
X69308000Y-65906000D02*
X63790000Y-65906000D01*
X60910000Y-66586000D02*
X55840000Y-66586000D01*
X60910000Y-65106000D02*
X54979000Y-65106000D01*
X60910000Y-64786000D02*
X54844000Y-64786000D01*
X67952000Y-67626000D02*
X56748000Y-67626000D01*
X60910000Y-65266000D02*
X55053000Y-65266000D01*
X60910000Y-65466000D02*
X55151000Y-65466000D01*
X70263000Y-63426000D02*
X54437000Y-63426000D01*
X70329000Y-63066000D02*
X54371000Y-63066000D01*
X60910000Y-66186000D02*
X55565000Y-66186000D01*
X70115000Y-64026000D02*
X54585000Y-64026000D01*
X70030000Y-64306000D02*
X63790000Y-64306000D01*
X68708000Y-66786000D02*
X63790000Y-66786000D01*
X66559000Y-68706000D02*
X58141000Y-68706000D01*
X69528000Y-65506000D02*
X63790000Y-65506000D01*
X67150000Y-68306000D02*
X57550000Y-68306000D01*
X66809000Y-68546000D02*
X57891000Y-68546000D01*
X70402000Y-62465000D02*
X54298000Y-62465000D01*
X69354000Y-65826000D02*
X63790000Y-65826000D01*
X70316000Y-63146000D02*
X54384000Y-63146000D01*
X70127000Y-63986000D02*
X54573000Y-63986000D01*
X67506000Y-68026000D02*
X57194000Y-68026000D01*
X60910000Y-65626000D02*
X55235000Y-65626000D01*
X68645000Y-66866000D02*
X63790000Y-66866000D01*
X65740000Y-69146000D02*
X58960000Y-69146000D01*
X68375000Y-67186000D02*
X56325000Y-67186000D01*
X68580000Y-66946000D02*
X63790000Y-66946000D01*
X60910000Y-65906000D02*
X55392000Y-65906000D01*
X66869000Y-68506000D02*
X57831000Y-68506000D01*
X70423000Y-62145000D02*
X54277000Y-62145000D01*
X60910000Y-65306000D02*
X55072000Y-65306000D01*
X64102000Y-69706000D02*
X60598000Y-69706000D01*
X67993000Y-67586000D02*
X56707000Y-67586000D01*
X70364000Y-62826000D02*
X54336000Y-62826000D01*
X68074000Y-67506000D02*
X56626000Y-67506000D01*
X70428000Y-61985000D02*
X54272000Y-61985000D01*
X69161000Y-66146000D02*
X63790000Y-66146000D01*
X60910000Y-66506000D02*
X55782000Y-66506000D01*
X70016000Y-64346000D02*
X63790000Y-64346000D01*
X60910000Y-65706000D02*
X55278000Y-65706000D01*
X64701000Y-69546000D02*
X59999000Y-69546000D01*
X68513000Y-67026000D02*
X56187000Y-67026000D01*
X69083000Y-66266000D02*
X63790000Y-66266000D01*
X70322000Y-63106000D02*
X54378000Y-63106000D01*
X70309000Y-63186000D02*
X54391000Y-63186000D01*
X60910000Y-66906000D02*
X56087000Y-66906000D01*
X70228000Y-63586000D02*
X54472000Y-63586000D01*
X70080000Y-64146000D02*
X63790000Y-64146000D01*
X66984000Y-68426000D02*
X57716000Y-68426000D01*
X60910000Y-66226000D02*
X55591000Y-66226000D01*
X70279000Y-63346000D02*
X54421000Y-63346000D01*
X67910000Y-67666000D02*
X56790000Y-67666000D01*
X60910000Y-65946000D02*
X55416000Y-65946000D01*
X70210000Y-63666000D02*
X54490000Y-63666000D01*
X69887000Y-64706000D02*
X63790000Y-64706000D01*
X70411000Y-62345000D02*
X54289000Y-62345000D01*
X65907000Y-69066000D02*
X58793000Y-69066000D01*
X60910000Y-64826000D02*
X54860000Y-64826000D01*
X65653000Y-69186000D02*
X59047000Y-69186000D01*
X69903000Y-64666000D02*
X63790000Y-64666000D01*
X66748000Y-68586000D02*
X57952000Y-68586000D01*
X69628000Y-65306000D02*
X63790000Y-65306000D01*
X66493000Y-68746000D02*
X58207000Y-68746000D01*
X70419000Y-62225000D02*
X54281000Y-62225000D01*
X67647000Y-67906000D02*
X57053000Y-67906000D01*
X60910000Y-65586000D02*
X55214000Y-65586000D01*
X66686000Y-68626000D02*
X58014000Y-68626000D01*
X66286000Y-68866000D02*
X58414000Y-68866000D01*
X66140000Y-68946000D02*
X58560000Y-68946000D01*
X68918000Y-66506000D02*
X63790000Y-66506000D01*
X69589000Y-65386000D02*
X63790000Y-65386000D01*
X69465000Y-65626000D02*
X63790000Y-65626000D01*
X60910000Y-66946000D02*
X56120000Y-66946000D01*
X67359000Y-68146000D02*
X57341000Y-68146000D01*
X63115000Y-69866000D02*
X61585000Y-69866000D01*
X69872000Y-64746000D02*
X63790000Y-64746000D01*
X70369000Y-62786000D02*
X54331000Y-62786000D01*
X60910000Y-66026000D02*
X55464000Y-66026000D01*
X60910000Y-64226000D02*
X54645000Y-64226000D01*
X70378000Y-62706000D02*
X54322000Y-62706000D01*
X70429000Y-61945000D02*
X54271000Y-61945000D01*
X69109000Y-66226000D02*
X63790000Y-66226000D01*
X70294000Y-63266000D02*
X54406000Y-63266000D01*
X69029000Y-66346000D02*
X63790000Y-66346000D01*
X67041000Y-68386000D02*
X57659000Y-68386000D01*
X69739000Y-65066000D02*
X63790000Y-65066000D01*
X70424000Y-62105000D02*
X54276000Y-62105000D01*
X69399000Y-65746000D02*
X63790000Y-65746000D01*
X69236000Y-66026000D02*
X63790000Y-66026000D01*
X68946000Y-66466000D02*
X63790000Y-66466000D01*
X60910000Y-64466000D02*
X54725000Y-64466000D01*
X65987000Y-69026000D02*
X58713000Y-69026000D01*
X70335000Y-63026000D02*
X54365000Y-63026000D01*
X69608000Y-65346000D02*
X63790000Y-65346000D01*
X69444000Y-65666000D02*
X63790000Y-65666000D01*
X60910000Y-64546000D02*
X54753000Y-64546000D01*
X67096000Y-68346000D02*
X57604000Y-68346000D01*
X69569000Y-65426000D02*
X63790000Y-65426000D01*
X68613000Y-66906000D02*
X63790000Y-66906000D01*
X60910000Y-64586000D02*
X54768000Y-64586000D01*
X63701000Y-69786000D02*
X60999000Y-69786000D01*
X67409000Y-68106000D02*
X57291000Y-68106000D01*
X69790000Y-64946000D02*
X63790000Y-64946000D01*
X60910000Y-64626000D02*
X54782000Y-64626000D01*
X70302000Y-63226000D02*
X54398000Y-63226000D01*
X69721000Y-65106000D02*
X63790000Y-65106000D01*
X69684000Y-65186000D02*
X63790000Y-65186000D01*
X60910000Y-66746000D02*
X55960000Y-66746000D01*
X63448000Y-69826000D02*
X61252000Y-69826000D01*
X67693000Y-67866000D02*
X57007000Y-67866000D01*
X70421000Y-62185000D02*
X54279000Y-62185000D01*
X60910000Y-65546000D02*
X55193000Y-65546000D01*
X70255000Y-63466000D02*
X54445000Y-63466000D01*
X69807000Y-64906000D02*
X63790000Y-64906000D01*
X70219000Y-63626000D02*
X54481000Y-63626000D01*
X60910000Y-66786000D02*
X55992000Y-66786000D01*
X70416000Y-62265000D02*
X54284000Y-62265000D01*
X60910000Y-66346000D02*
X55671000Y-66346000D01*
X60910000Y-66386000D02*
X55698000Y-66386000D01*
X70430000Y-61825000D02*
X54270000Y-61825000D01*
X69056000Y-66306000D02*
X63790000Y-66306000D01*
X68830000Y-66626000D02*
X63790000Y-66626000D01*
X67256000Y-68226000D02*
X57444000Y-68226000D01*
X68800000Y-66666000D02*
X63790000Y-66666000D01*
X69989000Y-64426000D02*
X63790000Y-64426000D01*
X69284000Y-65946000D02*
X63790000Y-65946000D01*
X70426000Y-62065000D02*
X54274000Y-62065000D01*
X69486000Y-65586000D02*
X63790000Y-65586000D01*
X69856000Y-64786000D02*
X63790000Y-64786000D01*
X60910000Y-66106000D02*
X55514000Y-66106000D01*
X64828000Y-69506000D02*
X59872000Y-69506000D01*
X67601000Y-67946000D02*
X57099000Y-67946000D01*
X60910000Y-64906000D02*
X54893000Y-64906000D01*
X65470000Y-69266000D02*
X59230000Y-69266000D01*
X68034000Y-67546000D02*
X56666000Y-67546000D01*
X60910000Y-64106000D02*
X54608000Y-64106000D01*
X70287000Y-63306000D02*
X54413000Y-63306000D01*
X70043000Y-64266000D02*
X63790000Y-64266000D01*
X60910000Y-66866000D02*
X56055000Y-66866000D01*
X60910000Y-65746000D02*
X55301000Y-65746000D01*
X70358000Y-62866000D02*
X54342000Y-62866000D01*
X70237000Y-63546000D02*
X54463000Y-63546000D01*
X69947000Y-64546000D02*
X63790000Y-64546000D01*
X60910000Y-66826000D02*
X56023000Y-66826000D01*
X64568000Y-69586000D02*
X60132000Y-69586000D01*
X66214000Y-68906000D02*
X58486000Y-68906000D01*
X67782000Y-67786000D02*
X56918000Y-67786000D01*
X60910000Y-64986000D02*
X54927000Y-64986000D01*
X60910000Y-66306000D02*
X55644000Y-66306000D01*
X60910000Y-65986000D02*
X55440000Y-65986000D01*
X70391000Y-62586000D02*
X54309000Y-62586000D01*
X60910000Y-66546000D02*
X55811000Y-66546000D01*
X69507000Y-65546000D02*
X63790000Y-65546000D01*
X65563000Y-69226000D02*
X59137000Y-69226000D01*
X70383000Y-62666000D02*
X54317000Y-62666000D01*
X60910000Y-64506000D02*
X54739000Y-64506000D01*
X60910000Y-66066000D02*
X55489000Y-66066000D01*
X60910000Y-64186000D02*
X54632000Y-64186000D01*
X60910000Y-65226000D02*
X55034000Y-65226000D01*
X60910000Y-64346000D02*
X54684000Y-64346000D01*
X66426000Y-68786000D02*
X58274000Y-68786000D01*
X67204000Y-68266000D02*
X57496000Y-68266000D01*
X70271000Y-63386000D02*
X54429000Y-63386000D01*
X69840000Y-64826000D02*
X63790000Y-64826000D01*
X67554000Y-67986000D02*
X57146000Y-67986000D01*
X60910000Y-66706000D02*
X55930000Y-66706000D01*
X69002000Y-66386000D02*
X63790000Y-66386000D01*
X68740000Y-66746000D02*
X63790000Y-66746000D01*
X60910000Y-65826000D02*
X55346000Y-65826000D01*
X60910000Y-64946000D02*
X54910000Y-64946000D01*
X70160000Y-63866000D02*
X54540000Y-63866000D01*
X68445000Y-67106000D02*
X56255000Y-67106000D01*
X69756000Y-65026000D02*
X63790000Y-65026000D01*
X65374000Y-69306000D02*
X59326000Y-69306000D01*
X60910000Y-65666000D02*
X55256000Y-65666000D01*
X70427000Y-62025000D02*
X54273000Y-62025000D01*
X60910000Y-65066000D02*
X54961000Y-65066000D01*
X67705000Y-53895509D02*
X66105000Y-53895509D01*
X70374000Y-62746000D02*
X54326000Y-62746000D01*
X69961000Y-64506000D02*
X63790000Y-64506000D01*
X70190000Y-63746000D02*
X54510000Y-63746000D01*
X60910000Y-65386000D02*
X55111000Y-65386000D01*
X70353000Y-62906000D02*
X54347000Y-62906000D01*
X68113000Y-67466000D02*
X56587000Y-67466000D01*
X68152000Y-67426000D02*
X56548000Y-67426000D01*
X70430000Y-61905000D02*
X54270000Y-61905000D01*
X70387000Y-62626000D02*
X54313000Y-62626000D01*
X68889000Y-66546000D02*
X63790000Y-66546000D01*
X66927000Y-68466000D02*
X57773000Y-68466000D01*
X70341000Y-62986000D02*
X54359000Y-62986000D01*
X65061000Y-69426000D02*
X59639000Y-69426000D01*
X67458000Y-68066000D02*
X57242000Y-68066000D01*
X64947000Y-69466000D02*
X59753000Y-69466000D01*
X70092000Y-64106000D02*
X63790000Y-64106000D01*
X69975000Y-64466000D02*
X63790000Y-64466000D01*
X70149000Y-63906000D02*
X54551000Y-63906000D01*
X60910000Y-64746000D02*
X54828000Y-64746000D01*
X60910000Y-66466000D02*
X55754000Y-66466000D01*
X60910000Y-65506000D02*
X55172000Y-65506000D01*
X60910000Y-66426000D02*
X55726000Y-66426000D01*
X70138000Y-63946000D02*
X54562000Y-63946000D01*
X70068000Y-64186000D02*
X63790000Y-64186000D01*
X68228000Y-67346000D02*
X56472000Y-67346000D01*
X69211000Y-66066000D02*
X63790000Y-66066000D01*
X60910000Y-64866000D02*
X54876000Y-64866000D01*
X67868000Y-67706000D02*
X56832000Y-67706000D01*
X60910000Y-65346000D02*
X55092000Y-65346000D01*
X66623000Y-68666000D02*
X58077000Y-68666000D01*
X70408000Y-62385000D02*
X54292000Y-62385000D01*
X69666000Y-65226000D02*
X63790000Y-65226000D01*
X64270000Y-69666000D02*
X60430000Y-69666000D01*
X69422000Y-65706000D02*
X63790000Y-65706000D01*
X68302000Y-67266000D02*
X56398000Y-67266000D01*
X60910000Y-66146000D02*
X55539000Y-66146000D01*
X68339000Y-67226000D02*
X56361000Y-67226000D01*
X66065000Y-68986000D02*
X58635000Y-68986000D01*
X70055000Y-64226000D02*
X63790000Y-64226000D01*
X69932000Y-64586000D02*
X63790000Y-64586000D01*
X70430000Y-61865000D02*
X54270000Y-61865000D01*
X70104000Y-64066000D02*
X54596000Y-64066000D01*
X68266000Y-67306000D02*
X56434000Y-67306000D01*
X68677000Y-66826000D02*
X63790000Y-66826000D01*
X70170000Y-63826000D02*
X54530000Y-63826000D01*
X68770000Y-66706000D02*
X63790000Y-66706000D01*
X69703000Y-65146000D02*
X63790000Y-65146000D01*
X69918000Y-64626000D02*
X63790000Y-64626000D01*
X60910000Y-64426000D02*
X54711000Y-64426000D01*
X70200000Y-63706000D02*
X54500000Y-63706000D01*
X60910000Y-66666000D02*
X55900000Y-66666000D01*
X60910000Y-64146000D02*
X54620000Y-64146000D01*
X66357000Y-68826000D02*
X58343000Y-68826000D01*
X68860000Y-66586000D02*
X63790000Y-66586000D01*
X60910000Y-65426000D02*
X55131000Y-65426000D01*
X69377000Y-65786000D02*
X63790000Y-65786000D01*
X60910000Y-65146000D02*
X54997000Y-65146000D01*
X66905000Y-53095509D02*
X66905000Y-54695509D01*
X60910000Y-66626000D02*
X55870000Y-66626000D01*
X60910000Y-65186000D02*
X55016000Y-65186000D01*
X70180000Y-63786000D02*
X54520000Y-63786000D01*
X63914000Y-69746000D02*
X60786000Y-69746000D01*
X68190000Y-67386000D02*
X56510000Y-67386000D01*
X60910000Y-64706000D02*
X54813000Y-64706000D01*
X67308000Y-68186000D02*
X57392000Y-68186000D01*
X70395000Y-62546000D02*
X54305000Y-62546000D01*
X69135000Y-66186000D02*
X63790000Y-66186000D01*
X65274000Y-69346000D02*
X59426000Y-69346000D01*
X69647000Y-65266000D02*
X63790000Y-65266000D01*
X70405000Y-62425000D02*
X54295000Y-62425000D01*
X60910000Y-65026000D02*
X54944000Y-65026000D01*
X69331000Y-65866000D02*
X63790000Y-65866000D01*
X65170000Y-69386000D02*
X59530000Y-69386000D01*
X60910000Y-66266000D02*
X55617000Y-66266000D01*
X68547000Y-66986000D02*
X56153000Y-66986000D01*
X60910000Y-64386000D02*
X54697000Y-64386000D01*
X70470000Y-61785000D02*
G75*
G03*
X70470000Y-61785000I-8120000J0D01*
G01*
X68266000Y-92706000D02*
X56434000Y-92706000D01*
X60910000Y-91906000D02*
X55782000Y-91906000D01*
X70428000Y-87385000D02*
X54272000Y-87385000D01*
X60910000Y-89586000D02*
X54632000Y-89586000D01*
X60910000Y-91586000D02*
X55565000Y-91586000D01*
X60910000Y-90906000D02*
X55172000Y-90906000D01*
X68860000Y-91986000D02*
X63790000Y-91986000D01*
X64701000Y-94946000D02*
X59999000Y-94946000D01*
X60910000Y-92026000D02*
X55870000Y-92026000D01*
X70255000Y-88866000D02*
X54445000Y-88866000D01*
X70302000Y-88626000D02*
X54398000Y-88626000D01*
X70055000Y-89626000D02*
X63790000Y-89626000D01*
X70210000Y-89066000D02*
X54490000Y-89066000D01*
X67041000Y-93786000D02*
X57659000Y-93786000D01*
X66984000Y-93826000D02*
X57716000Y-93826000D01*
X69002000Y-91786000D02*
X63790000Y-91786000D01*
X68740000Y-92146000D02*
X63790000Y-92146000D01*
X60910000Y-91986000D02*
X55840000Y-91986000D01*
X69507000Y-90946000D02*
X63790000Y-90946000D01*
X69807000Y-90306000D02*
X63790000Y-90306000D01*
X68339000Y-92626000D02*
X56361000Y-92626000D01*
X69083000Y-91666000D02*
X63790000Y-91666000D01*
X69029000Y-91746000D02*
X63790000Y-91746000D01*
X65470000Y-94666000D02*
X59230000Y-94666000D01*
X68677000Y-92226000D02*
X63790000Y-92226000D01*
X60910000Y-91066000D02*
X55256000Y-91066000D01*
X60910000Y-90146000D02*
X54828000Y-90146000D01*
X69161000Y-91546000D02*
X63790000Y-91546000D01*
X60910000Y-89986000D02*
X54768000Y-89986000D01*
X67256000Y-93626000D02*
X57444000Y-93626000D01*
X64568000Y-94986000D02*
X60132000Y-94986000D01*
X64947000Y-94866000D02*
X59753000Y-94866000D01*
X69211000Y-91466000D02*
X63790000Y-91466000D01*
X65274000Y-94746000D02*
X59426000Y-94746000D01*
X67554000Y-93386000D02*
X57146000Y-93386000D01*
X67993000Y-92986000D02*
X56707000Y-92986000D01*
X70279000Y-88746000D02*
X54421000Y-88746000D01*
X69840000Y-90226000D02*
X63790000Y-90226000D01*
X68113000Y-92866000D02*
X56587000Y-92866000D01*
X60910000Y-89786000D02*
X54697000Y-89786000D01*
X68410000Y-92546000D02*
X56290000Y-92546000D01*
X70160000Y-89266000D02*
X54540000Y-89266000D01*
X70414000Y-87705000D02*
X54286000Y-87705000D01*
X70080000Y-89546000D02*
X63790000Y-89546000D01*
X67693000Y-93266000D02*
X57007000Y-93266000D01*
X67150000Y-93706000D02*
X57550000Y-93706000D01*
X69260000Y-91386000D02*
X63790000Y-91386000D01*
X70364000Y-88226000D02*
X54336000Y-88226000D01*
X65653000Y-94586000D02*
X59047000Y-94586000D01*
X68479000Y-92466000D02*
X56221000Y-92466000D01*
X69331000Y-91266000D02*
X63790000Y-91266000D01*
X69056000Y-91706000D02*
X63790000Y-91706000D01*
X60910000Y-92266000D02*
X56055000Y-92266000D01*
X70405000Y-87825000D02*
X54295000Y-87825000D01*
X60910000Y-91786000D02*
X55698000Y-91786000D01*
X60910000Y-91946000D02*
X55811000Y-91946000D01*
X69856000Y-90186000D02*
X63790000Y-90186000D01*
X68708000Y-92186000D02*
X63790000Y-92186000D01*
X60910000Y-92186000D02*
X55992000Y-92186000D01*
X60910000Y-90506000D02*
X54979000Y-90506000D01*
X70127000Y-89386000D02*
X54573000Y-89386000D01*
X67308000Y-93586000D02*
X57392000Y-93586000D01*
X60910000Y-91386000D02*
X55440000Y-91386000D01*
X69308000Y-91306000D02*
X63790000Y-91306000D01*
X69739000Y-90466000D02*
X63790000Y-90466000D01*
X60910000Y-90466000D02*
X54961000Y-90466000D01*
X69756000Y-90426000D02*
X63790000Y-90426000D01*
X68152000Y-92826000D02*
X56548000Y-92826000D01*
X65907000Y-94466000D02*
X58793000Y-94466000D01*
X70387000Y-88026000D02*
X54313000Y-88026000D01*
X66559000Y-94106000D02*
X58141000Y-94106000D01*
X60910000Y-90546000D02*
X54997000Y-90546000D01*
X68445000Y-92506000D02*
X56255000Y-92506000D01*
X69947000Y-89946000D02*
X63790000Y-89946000D01*
X65825000Y-94506000D02*
X58875000Y-94506000D01*
X70430000Y-87225000D02*
X54270000Y-87225000D01*
X70429000Y-87345000D02*
X54271000Y-87345000D01*
X68830000Y-92026000D02*
X63790000Y-92026000D01*
X70419000Y-87625000D02*
X54281000Y-87625000D01*
X70316000Y-88546000D02*
X54384000Y-88546000D01*
X68770000Y-92106000D02*
X63790000Y-92106000D01*
X69887000Y-90106000D02*
X63790000Y-90106000D01*
X60910000Y-92226000D02*
X56023000Y-92226000D01*
X69975000Y-89866000D02*
X63790000Y-89866000D01*
X66869000Y-93906000D02*
X57831000Y-93906000D01*
X60910000Y-91226000D02*
X55346000Y-91226000D01*
X68190000Y-92786000D02*
X56510000Y-92786000D01*
X68889000Y-91946000D02*
X63790000Y-91946000D01*
X66623000Y-94066000D02*
X58077000Y-94066000D01*
X63914000Y-95146000D02*
X60786000Y-95146000D01*
X68034000Y-92946000D02*
X56666000Y-92946000D01*
X70149000Y-89306000D02*
X54551000Y-89306000D01*
X60910000Y-91306000D02*
X55392000Y-91306000D01*
X70383000Y-88066000D02*
X54317000Y-88066000D01*
X67910000Y-93066000D02*
X56790000Y-93066000D01*
X67705000Y-79295509D02*
X66105000Y-79295509D01*
X67952000Y-93026000D02*
X56748000Y-93026000D01*
X60910000Y-91706000D02*
X55644000Y-91706000D01*
X68800000Y-92066000D02*
X63790000Y-92066000D01*
X65170000Y-94786000D02*
X59530000Y-94786000D01*
X60910000Y-90106000D02*
X54813000Y-90106000D01*
X67458000Y-93466000D02*
X57242000Y-93466000D01*
X69399000Y-91146000D02*
X63790000Y-91146000D01*
X60910000Y-90986000D02*
X55214000Y-90986000D01*
X70399000Y-87906000D02*
X54301000Y-87906000D01*
X70353000Y-88306000D02*
X54347000Y-88306000D01*
X66286000Y-94266000D02*
X58414000Y-94266000D01*
X60910000Y-90266000D02*
X54876000Y-90266000D01*
X60910000Y-92106000D02*
X55930000Y-92106000D01*
X67409000Y-93506000D02*
X57291000Y-93506000D01*
X60910000Y-89906000D02*
X54739000Y-89906000D01*
X67204000Y-93666000D02*
X57496000Y-93666000D01*
X70263000Y-88826000D02*
X54437000Y-88826000D01*
X70395000Y-87946000D02*
X54305000Y-87946000D01*
X66686000Y-94026000D02*
X58014000Y-94026000D01*
X60910000Y-92346000D02*
X56120000Y-92346000D01*
X60910000Y-91346000D02*
X55416000Y-91346000D01*
X60910000Y-90826000D02*
X55131000Y-90826000D01*
X70426000Y-87465000D02*
X54274000Y-87465000D01*
X60910000Y-91826000D02*
X55726000Y-91826000D01*
X60910000Y-89626000D02*
X54645000Y-89626000D01*
X60910000Y-91186000D02*
X55323000Y-91186000D01*
X70374000Y-88146000D02*
X54326000Y-88146000D01*
X70369000Y-88186000D02*
X54331000Y-88186000D01*
X70416000Y-87665000D02*
X54284000Y-87665000D01*
X60910000Y-90226000D02*
X54860000Y-90226000D01*
X60910000Y-91466000D02*
X55489000Y-91466000D01*
X66357000Y-94226000D02*
X58343000Y-94226000D01*
X70430000Y-87265000D02*
X54270000Y-87265000D01*
X69773000Y-90386000D02*
X63790000Y-90386000D01*
X68547000Y-92386000D02*
X56153000Y-92386000D01*
X60910000Y-90346000D02*
X54910000Y-90346000D01*
X60910000Y-91266000D02*
X55369000Y-91266000D01*
X70180000Y-89186000D02*
X54520000Y-89186000D01*
X60910000Y-91026000D02*
X55235000Y-91026000D01*
X66809000Y-93946000D02*
X57891000Y-93946000D01*
X70430000Y-87305000D02*
X54270000Y-87305000D01*
X70347000Y-88346000D02*
X54353000Y-88346000D01*
X69721000Y-90506000D02*
X63790000Y-90506000D01*
X69824000Y-90266000D02*
X63790000Y-90266000D01*
X69684000Y-90586000D02*
X63790000Y-90586000D01*
X65374000Y-94706000D02*
X59326000Y-94706000D01*
X60910000Y-90706000D02*
X55072000Y-90706000D01*
X67782000Y-93186000D02*
X56918000Y-93186000D01*
X70068000Y-89586000D02*
X63790000Y-89586000D01*
X69354000Y-91226000D02*
X63790000Y-91226000D01*
X66065000Y-94386000D02*
X58635000Y-94386000D01*
X60910000Y-91746000D02*
X55671000Y-91746000D01*
X70427000Y-87425000D02*
X54273000Y-87425000D01*
X69647000Y-90666000D02*
X63790000Y-90666000D01*
X69589000Y-90786000D02*
X63790000Y-90786000D01*
X69444000Y-91066000D02*
X63790000Y-91066000D01*
X64424000Y-95026000D02*
X60276000Y-95026000D01*
X67506000Y-93426000D02*
X57194000Y-93426000D01*
X69422000Y-91106000D02*
X63790000Y-91106000D01*
X66214000Y-94306000D02*
X58486000Y-94306000D01*
X70423000Y-87545000D02*
X54277000Y-87545000D01*
X67647000Y-93306000D02*
X57053000Y-93306000D01*
X70115000Y-89426000D02*
X54585000Y-89426000D01*
X67738000Y-93226000D02*
X56962000Y-93226000D01*
X70424000Y-87505000D02*
X54276000Y-87505000D01*
X65563000Y-94626000D02*
X59137000Y-94626000D01*
X67868000Y-93106000D02*
X56832000Y-93106000D01*
X66748000Y-93986000D02*
X57952000Y-93986000D01*
X69961000Y-89906000D02*
X63790000Y-89906000D01*
X60910000Y-91106000D02*
X55278000Y-91106000D01*
X69872000Y-90146000D02*
X63790000Y-90146000D01*
X60910000Y-89746000D02*
X54684000Y-89746000D01*
X66493000Y-94146000D02*
X58207000Y-94146000D01*
X70287000Y-88706000D02*
X54413000Y-88706000D01*
X60910000Y-91866000D02*
X55754000Y-91866000D01*
X69135000Y-91586000D02*
X63790000Y-91586000D01*
X60910000Y-91546000D02*
X55539000Y-91546000D01*
X65987000Y-94426000D02*
X58713000Y-94426000D01*
X70322000Y-88506000D02*
X54378000Y-88506000D01*
X60910000Y-91626000D02*
X55591000Y-91626000D01*
X60910000Y-90586000D02*
X55016000Y-90586000D01*
X68513000Y-92426000D02*
X56187000Y-92426000D01*
X70003000Y-89786000D02*
X63790000Y-89786000D01*
X60910000Y-91666000D02*
X55617000Y-91666000D01*
X70043000Y-89666000D02*
X63790000Y-89666000D01*
X68074000Y-92906000D02*
X56626000Y-92906000D01*
X60910000Y-91506000D02*
X55514000Y-91506000D01*
X60910000Y-89546000D02*
X54620000Y-89546000D01*
X70402000Y-87865000D02*
X54298000Y-87865000D01*
X66140000Y-94346000D02*
X58560000Y-94346000D01*
X70271000Y-88786000D02*
X54429000Y-88786000D01*
X60910000Y-90666000D02*
X55053000Y-90666000D01*
X63115000Y-95266000D02*
X61585000Y-95266000D01*
X69569000Y-90826000D02*
X63790000Y-90826000D01*
X68580000Y-92346000D02*
X63790000Y-92346000D01*
X70335000Y-88426000D02*
X54365000Y-88426000D01*
X69284000Y-91346000D02*
X63790000Y-91346000D01*
X69790000Y-90346000D02*
X63790000Y-90346000D01*
X70408000Y-87785000D02*
X54292000Y-87785000D01*
X60910000Y-89946000D02*
X54753000Y-89946000D01*
X69666000Y-90626000D02*
X63790000Y-90626000D01*
X69608000Y-90746000D02*
X63790000Y-90746000D01*
X68946000Y-91866000D02*
X63790000Y-91866000D01*
X69703000Y-90546000D02*
X63790000Y-90546000D01*
X70219000Y-89026000D02*
X54481000Y-89026000D01*
X70329000Y-88466000D02*
X54371000Y-88466000D01*
X60910000Y-89866000D02*
X54725000Y-89866000D01*
X60910000Y-90786000D02*
X55111000Y-90786000D01*
X70411000Y-87745000D02*
X54289000Y-87745000D01*
X60910000Y-92306000D02*
X56087000Y-92306000D01*
X65740000Y-94546000D02*
X58960000Y-94546000D01*
X60910000Y-89826000D02*
X54711000Y-89826000D01*
X65061000Y-94826000D02*
X59639000Y-94826000D01*
X70237000Y-88946000D02*
X54463000Y-88946000D01*
X69932000Y-89986000D02*
X63790000Y-89986000D01*
X64270000Y-95066000D02*
X60430000Y-95066000D01*
X60910000Y-92066000D02*
X55900000Y-92066000D01*
X70431000Y-87185000D02*
X54269000Y-87185000D01*
X68375000Y-92586000D02*
X56325000Y-92586000D01*
X70358000Y-88266000D02*
X54342000Y-88266000D01*
X67096000Y-93746000D02*
X57604000Y-93746000D01*
X64828000Y-94906000D02*
X59872000Y-94906000D01*
X60910000Y-92146000D02*
X55960000Y-92146000D01*
X70200000Y-89106000D02*
X54500000Y-89106000D01*
X68302000Y-92666000D02*
X56398000Y-92666000D01*
X70170000Y-89226000D02*
X54530000Y-89226000D01*
X70378000Y-88106000D02*
X54322000Y-88106000D01*
X70190000Y-89146000D02*
X54510000Y-89146000D01*
X69109000Y-91626000D02*
X63790000Y-91626000D01*
X64102000Y-95106000D02*
X60598000Y-95106000D01*
X69377000Y-91186000D02*
X63790000Y-91186000D01*
X70294000Y-88666000D02*
X54406000Y-88666000D01*
X68918000Y-91906000D02*
X63790000Y-91906000D01*
X69465000Y-91026000D02*
X63790000Y-91026000D01*
X69236000Y-91426000D02*
X63790000Y-91426000D01*
X60910000Y-89666000D02*
X54657000Y-89666000D01*
X60910000Y-90746000D02*
X55092000Y-90746000D01*
X60910000Y-90306000D02*
X54893000Y-90306000D01*
X67825000Y-93146000D02*
X56875000Y-93146000D01*
X70341000Y-88386000D02*
X54359000Y-88386000D01*
X68228000Y-92746000D02*
X56472000Y-92746000D01*
X60910000Y-90386000D02*
X54927000Y-90386000D01*
X69628000Y-90706000D02*
X63790000Y-90706000D01*
X70030000Y-89706000D02*
X63790000Y-89706000D01*
X69186000Y-91506000D02*
X63790000Y-91506000D01*
X60910000Y-89706000D02*
X54670000Y-89706000D01*
X70092000Y-89506000D02*
X63790000Y-89506000D01*
X69989000Y-89826000D02*
X63790000Y-89826000D01*
X63448000Y-95226000D02*
X61252000Y-95226000D01*
X70309000Y-88586000D02*
X54391000Y-88586000D01*
X67601000Y-93346000D02*
X57099000Y-93346000D01*
X60910000Y-90066000D02*
X54797000Y-90066000D01*
X67359000Y-93546000D02*
X57341000Y-93546000D01*
X70246000Y-88906000D02*
X54454000Y-88906000D01*
X66426000Y-94186000D02*
X58274000Y-94186000D01*
X60910000Y-90946000D02*
X55193000Y-90946000D01*
X69903000Y-90066000D02*
X63790000Y-90066000D01*
X70391000Y-87986000D02*
X54309000Y-87986000D01*
X60910000Y-91146000D02*
X55301000Y-91146000D01*
X70138000Y-89346000D02*
X54562000Y-89346000D01*
X63701000Y-95186000D02*
X60999000Y-95186000D01*
X70421000Y-87585000D02*
X54279000Y-87585000D01*
X60910000Y-90186000D02*
X54844000Y-90186000D01*
X70016000Y-89746000D02*
X63790000Y-89746000D01*
X69549000Y-90866000D02*
X63790000Y-90866000D01*
X69918000Y-90026000D02*
X63790000Y-90026000D01*
X60910000Y-91426000D02*
X55464000Y-91426000D01*
X60910000Y-90866000D02*
X55151000Y-90866000D01*
X69486000Y-90986000D02*
X63790000Y-90986000D01*
X68613000Y-92306000D02*
X63790000Y-92306000D01*
X60910000Y-90026000D02*
X54782000Y-90026000D01*
X66927000Y-93866000D02*
X57773000Y-93866000D01*
X60910000Y-90426000D02*
X54944000Y-90426000D01*
X70228000Y-88986000D02*
X54472000Y-88986000D01*
X60910000Y-90626000D02*
X55034000Y-90626000D01*
X68974000Y-91826000D02*
X63790000Y-91826000D01*
X60910000Y-89506000D02*
X54608000Y-89506000D01*
X70104000Y-89466000D02*
X54596000Y-89466000D01*
X66905000Y-78495509D02*
X66905000Y-80095509D01*
X69528000Y-90906000D02*
X63790000Y-90906000D01*
X68645000Y-92266000D02*
X63790000Y-92266000D01*
X70470000Y-87185000D02*
G75*
G03*
X70470000Y-87185000I-8120000J0D01*
G01*
X133470000Y-66520000D02*
X133470000Y-65830000D01*
X133470000Y-55900000D02*
X133470000Y-56590000D01*
X135190000Y-65830000D02*
X135190000Y-56590000D01*
X131750000Y-56590000D02*
X131750000Y-65830000D01*
X135190000Y-56590000D02*
X131750000Y-56590000D01*
X131750000Y-65830000D02*
X135190000Y-65830000D01*
X141540000Y-76275000D02*
X138100000Y-76275000D01*
X141540000Y-85515000D02*
X141540000Y-76275000D01*
X139820000Y-75585000D02*
X139820000Y-76275000D01*
X138100000Y-76275000D02*
X138100000Y-85515000D01*
X138100000Y-85515000D02*
X141540000Y-85515000D01*
X139820000Y-86205000D02*
X139820000Y-85515000D01*
X63800000Y-77920000D02*
X63800000Y-74980000D01*
X58360000Y-77920000D02*
X63800000Y-77920000D01*
X64820000Y-76450000D02*
X63800000Y-76450000D01*
X57340000Y-76450000D02*
X58360000Y-76450000D01*
X59260000Y-74980000D02*
X59260000Y-77920000D01*
X59140000Y-74980000D02*
X59140000Y-77920000D01*
X59380000Y-74980000D02*
X59380000Y-77920000D01*
X63800000Y-74980000D02*
X58360000Y-74980000D01*
X58360000Y-74980000D02*
X58360000Y-77920000D01*
X62900000Y-74110000D02*
X62900000Y-71170000D01*
X64820000Y-72640000D02*
X63800000Y-72640000D01*
X62780000Y-74110000D02*
X62780000Y-71170000D01*
X63800000Y-71170000D02*
X58360000Y-71170000D01*
X58360000Y-71170000D02*
X58360000Y-74110000D01*
X58360000Y-74110000D02*
X63800000Y-74110000D01*
X63800000Y-74110000D02*
X63800000Y-71170000D01*
X63020000Y-74110000D02*
X63020000Y-71170000D01*
X57340000Y-72640000D02*
X58360000Y-72640000D01*
X109140000Y-64565000D02*
X112080000Y-64565000D01*
X112080000Y-60025000D02*
X109140000Y-60025000D01*
X112080000Y-64565000D02*
X112080000Y-59125000D01*
X112080000Y-59905000D02*
X109140000Y-59905000D01*
X112080000Y-60145000D02*
X109140000Y-60145000D01*
X112080000Y-59125000D02*
X109140000Y-59125000D01*
X110610000Y-65585000D02*
X110610000Y-64565000D01*
X110610000Y-58105000D02*
X110610000Y-59125000D01*
X109140000Y-59125000D02*
X109140000Y-64565000D01*
X109140000Y-88945000D02*
X112080000Y-88945000D01*
X109140000Y-89185000D02*
X112080000Y-89185000D01*
X109140000Y-84525000D02*
X109140000Y-89965000D01*
X110610000Y-83505000D02*
X110610000Y-84525000D01*
X109140000Y-89965000D02*
X112080000Y-89965000D01*
X110610000Y-90985000D02*
X110610000Y-89965000D01*
X109140000Y-89065000D02*
X112080000Y-89065000D01*
X112080000Y-84525000D02*
X109140000Y-84525000D01*
X112080000Y-89965000D02*
X112080000Y-84525000D01*
X132000000Y-85520000D02*
X134940000Y-85520000D01*
X134940000Y-80980000D02*
X132000000Y-80980000D01*
X134940000Y-85520000D02*
X134940000Y-80080000D01*
X134940000Y-80860000D02*
X132000000Y-80860000D01*
X133470000Y-79060000D02*
X133470000Y-80080000D01*
X134940000Y-80080000D02*
X132000000Y-80080000D01*
X132000000Y-80080000D02*
X132000000Y-85520000D01*
X133470000Y-86540000D02*
X133470000Y-85520000D01*
X134940000Y-81100000D02*
X132000000Y-81100000D01*
X139820000Y-62550000D02*
X139820000Y-63570000D01*
X138350000Y-63570000D02*
X138350000Y-69010000D01*
X141290000Y-64350000D02*
X138350000Y-64350000D01*
X141290000Y-63570000D02*
X138350000Y-63570000D01*
X141290000Y-64590000D02*
X138350000Y-64590000D01*
X141290000Y-69010000D02*
X141290000Y-63570000D01*
X138350000Y-69010000D02*
X141290000Y-69010000D01*
X141290000Y-64470000D02*
X138350000Y-64470000D01*
X139820000Y-70030000D02*
X139820000Y-69010000D01*
X117690000Y-66965000D02*
X113049000Y-66965000D01*
X117690000Y-63696000D02*
X116180000Y-63696000D01*
X117690000Y-56725000D02*
X117690000Y-66965000D01*
X117690000Y-59995000D02*
X116180000Y-59995000D01*
X113049000Y-56725000D02*
X113049000Y-66965000D01*
X116180000Y-56725000D02*
X116180000Y-66965000D01*
X117690000Y-56725000D02*
X113049000Y-56725000D01*
D10*
X148400000Y-63500000D02*
G75*
G03*
X148400000Y-63500000I-1400000J0D01*
G01*
X148400000Y-90000000D02*
G75*
G03*
X148400000Y-90000000I-1400000J0D01*
G01*
X148400000Y-85000000D02*
G75*
G03*
X148400000Y-85000000I-1400000J0D01*
G01*
D13*
X52190000Y-79625000D02*
X52190000Y-69465000D01*
X52190000Y-69465000D02*
X44570000Y-69465000D01*
X44570000Y-69465000D02*
X44570000Y-79625000D01*
X44570000Y-79625000D02*
X52190000Y-79625000D01*
X50920000Y-69465000D02*
X50920000Y-79625000D01*
%LPC*%
D14*
X147000000Y-69420000D03*
D15*
X147000000Y-74500000D03*
X147000000Y-79580000D03*
D16*
X71875000Y-73275000D03*
D17*
X71875000Y-75275000D03*
D18*
X100450000Y-58035000D03*
D19*
X100450000Y-65535000D03*
D16*
X90925000Y-73275000D03*
D17*
X90925000Y-75275000D03*
D18*
X81400000Y-83435000D03*
D19*
X81400000Y-90935000D03*
D18*
X100450000Y-83435000D03*
D19*
X100450000Y-90935000D03*
D16*
X139820000Y-57400000D03*
D17*
X139820000Y-55400000D03*
D16*
X133470000Y-93595000D03*
D17*
X133470000Y-91595000D03*
D20*
X139820000Y-93595000D03*
D21*
X139820000Y-91055000D03*
D20*
X133470000Y-73910000D03*
D21*
X133470000Y-71370000D03*
D22*
X114420000Y-84705000D03*
D23*
X114420000Y-87245000D03*
X114420000Y-89785000D03*
D18*
X81400000Y-58035000D03*
D19*
X81400000Y-65535000D03*
D18*
X62350000Y-58035000D03*
D19*
X62350000Y-65535000D03*
D18*
X62350000Y-83435000D03*
D19*
X62350000Y-90935000D03*
D17*
X133470000Y-54860000D03*
D24*
X133470000Y-67560000D03*
D17*
X139820000Y-87245000D03*
D24*
X139820000Y-74545000D03*
D25*
X56000000Y-76450000D03*
D26*
X66160000Y-76450000D03*
D25*
X66160000Y-72640000D03*
D26*
X56000000Y-72640000D03*
D25*
X110610000Y-56765000D03*
D26*
X110610000Y-66925000D03*
D25*
X110610000Y-92325000D03*
D26*
X110610000Y-82165000D03*
D25*
X133470000Y-77720000D03*
D26*
X133470000Y-87880000D03*
D25*
X139820000Y-61210000D03*
D26*
X139820000Y-71370000D03*
D22*
X114420000Y-59305000D03*
D23*
X114420000Y-61845000D03*
X114420000Y-64385000D03*
D27*
X147000000Y-63500000D03*
X147000000Y-90000000D03*
X147000000Y-85000000D03*
D14*
X48380000Y-77085000D03*
D15*
X48380000Y-72005000D03*
M02*
