M48
; DRILL file {KiCad (5.1.7)-1} date 10/26/20 00:04:43
; FORMAT={-:-/ absolute / inch / decimal}
; #@! TF.CreationDate,2020-10-26T00:04:43+01:00
; #@! TF.GenerationSoftware,Kicad,Pcbnew,(5.1.7)-1
; #@! TF.FileFunction,Plated,1,2,PTH
FMAT,2
INCH
T1C0.0315
T2C0.0354
T3C0.0394
T4C0.0433
T5C0.0472
T6C0.0598
%
G90
G05
T1
X3.1Y-2.8787
X5.775Y-2.0963
X5.775Y-2.175
X5.525Y-2.075
X5.775Y-2.85
X5.775Y-3.35
X3.1Y-2.8
X5.525Y-3.5213
X5.525Y-3.6
X5.525Y-2.575
X3.85Y-2.8
X3.85Y-2.8787
T2
X5.525Y-2.725
X5.525Y-2.825
X5.775Y-3.5
X5.775Y-3.6
T3
X6.225Y-2.85
X6.225Y-2.65
X5.95Y-2.65
X5.95Y-2.75
X5.95Y-2.85
X5.95Y-2.95
X5.95Y-3.05
X6.05Y-2.65
X6.05Y-2.75
X6.05Y-2.85
X6.05Y-2.95
X6.05Y-3.05
X6.225Y-3.05
T4
X4.625Y-2.15
X4.625Y-2.55
X5.525Y-2.975
X5.525Y-3.375
X2.475Y-2.775
X2.875Y-2.775
X5.775Y-2.325
X5.775Y-2.725
X4.775Y-3.25
X4.775Y-3.35
X4.775Y-3.45
X4.775Y-2.25
X4.775Y-2.35
X4.775Y-2.45
X2.475Y-2.925
X2.875Y-2.925
X4.625Y-3.15
X4.625Y-3.55
T5
X2.725Y-3.2
X2.725Y-3.4953
X4.225Y-3.2
X4.225Y-3.4953
X3.475Y-3.2
X3.475Y-3.4953
X4.225Y-2.2
X4.225Y-2.4953
X3.475Y-2.2
X3.475Y-2.4953
X2.725Y-2.2
X2.725Y-2.4953
T6
X2.175Y-2.75
X2.175Y-2.95
T0
M30
