G04 #@! TF.GenerationSoftware,KiCad,Pcbnew,(5.1.9)-1*
G04 #@! TF.CreationDate,2021-10-01T14:54:32+02:00*
G04 #@! TF.ProjectId,PSU,5053552e-6b69-4636-9164-5f7063625858,rev?*
G04 #@! TF.SameCoordinates,Original*
G04 #@! TF.FileFunction,Copper,L1,Top*
G04 #@! TF.FilePolarity,Positive*
%FSLAX46Y46*%
G04 Gerber Fmt 4.6, Leading zero omitted, Abs format (unit mm)*
G04 Created by KiCad (PCBNEW (5.1.9)-1) date 2021-10-01 14:54:32*
%MOMM*%
%LPD*%
G01*
G04 APERTURE LIST*
G04 #@! TA.AperFunction,ComponentPad*
%ADD10C,1.600000*%
G04 #@! TD*
G04 #@! TA.AperFunction,ComponentPad*
%ADD11R,1.600000X1.600000*%
G04 #@! TD*
G04 #@! TA.AperFunction,ComponentPad*
%ADD12C,2.400000*%
G04 #@! TD*
G04 #@! TA.AperFunction,ComponentPad*
%ADD13R,2.400000X2.400000*%
G04 #@! TD*
G04 #@! TA.AperFunction,ComponentPad*
%ADD14C,1.800000*%
G04 #@! TD*
G04 #@! TA.AperFunction,ComponentPad*
%ADD15R,1.800000X1.800000*%
G04 #@! TD*
G04 #@! TA.AperFunction,ComponentPad*
%ADD16R,3.000000X3.000000*%
G04 #@! TD*
G04 #@! TA.AperFunction,ComponentPad*
%ADD17C,3.000000*%
G04 #@! TD*
G04 #@! TA.AperFunction,ComponentPad*
%ADD18R,1.700000X1.700000*%
G04 #@! TD*
G04 #@! TA.AperFunction,ComponentPad*
%ADD19O,1.700000X1.700000*%
G04 #@! TD*
G04 #@! TA.AperFunction,ComponentPad*
%ADD20O,2.000000X1.905000*%
G04 #@! TD*
G04 #@! TA.AperFunction,ComponentPad*
%ADD21R,2.000000X1.905000*%
G04 #@! TD*
G04 #@! TA.AperFunction,ComponentPad*
%ADD22O,1.600000X1.600000*%
G04 #@! TD*
G04 #@! TA.AperFunction,ComponentPad*
%ADD23O,2.200000X2.200000*%
G04 #@! TD*
G04 #@! TA.AperFunction,ComponentPad*
%ADD24R,2.200000X2.200000*%
G04 #@! TD*
G04 #@! TA.AperFunction,ComponentPad*
%ADD25C,2.000000*%
G04 #@! TD*
G04 #@! TA.AperFunction,Conductor*
%ADD26C,0.254000*%
G04 #@! TD*
G04 #@! TA.AperFunction,Conductor*
%ADD27C,0.100000*%
G04 #@! TD*
G04 APERTURE END LIST*
D10*
X78740000Y-73120000D03*
D11*
X78740000Y-71120000D03*
D12*
X69215000Y-63380000D03*
D13*
X69215000Y-55880000D03*
D12*
X88265000Y-63380000D03*
D13*
X88265000Y-55880000D03*
X107315000Y-55880000D03*
D12*
X107315000Y-63380000D03*
D11*
X97790000Y-71120000D03*
D10*
X97790000Y-73120000D03*
D13*
X69215000Y-81280000D03*
D12*
X69215000Y-88780000D03*
D13*
X88265000Y-81280000D03*
D12*
X88265000Y-88780000D03*
X107315000Y-88780000D03*
D13*
X107315000Y-81280000D03*
D10*
X146685000Y-53245000D03*
D11*
X146685000Y-55245000D03*
X140335000Y-91440000D03*
D10*
X140335000Y-89440000D03*
D14*
X146685000Y-88900000D03*
D15*
X146685000Y-91440000D03*
X140335000Y-71755000D03*
D14*
X140335000Y-69215000D03*
D16*
X55245000Y-74930000D03*
D17*
X55245000Y-69850000D03*
D18*
X153670000Y-77470000D03*
D19*
X151130000Y-77470000D03*
X153670000Y-74930000D03*
X151130000Y-74930000D03*
X153670000Y-72390000D03*
X151130000Y-72390000D03*
X153670000Y-69850000D03*
X151130000Y-69850000D03*
X153670000Y-67310000D03*
X151130000Y-67310000D03*
D20*
X121285000Y-62230000D03*
X121285000Y-59690000D03*
D21*
X121285000Y-57150000D03*
X121285000Y-82550000D03*
D20*
X121285000Y-85090000D03*
X121285000Y-87630000D03*
D22*
X140335000Y-65405000D03*
D10*
X140335000Y-52705000D03*
X146685000Y-85090000D03*
D22*
X146685000Y-72390000D03*
D23*
X73025000Y-74295000D03*
D24*
X62865000Y-74295000D03*
X73025000Y-70485000D03*
D23*
X62865000Y-70485000D03*
D24*
X117475000Y-54610000D03*
D23*
X117475000Y-64770000D03*
X117475000Y-80010000D03*
D24*
X117475000Y-90170000D03*
D23*
X140335000Y-85725000D03*
D24*
X140335000Y-75565000D03*
X146685000Y-59055000D03*
D23*
X146685000Y-69215000D03*
D25*
X158115000Y-67310000D03*
X158115000Y-72390000D03*
X158115000Y-77470000D03*
D26*
X139521903Y-51712298D02*
X140335000Y-52525395D01*
X141148097Y-51712298D01*
X141103998Y-51562000D01*
X160528000Y-51562000D01*
X160528000Y-93218000D01*
X51562000Y-93218000D01*
X51562000Y-92240000D01*
X138896928Y-92240000D01*
X138909188Y-92364482D01*
X138945498Y-92484180D01*
X139004463Y-92594494D01*
X139083815Y-92691185D01*
X139180506Y-92770537D01*
X139290820Y-92829502D01*
X139410518Y-92865812D01*
X139535000Y-92878072D01*
X140049250Y-92875000D01*
X140208000Y-92716250D01*
X140208000Y-91567000D01*
X140462000Y-91567000D01*
X140462000Y-92716250D01*
X140620750Y-92875000D01*
X141135000Y-92878072D01*
X141259482Y-92865812D01*
X141379180Y-92829502D01*
X141489494Y-92770537D01*
X141586185Y-92691185D01*
X141665537Y-92594494D01*
X141724502Y-92484180D01*
X141760812Y-92364482D01*
X141763223Y-92340000D01*
X145146928Y-92340000D01*
X145159188Y-92464482D01*
X145195498Y-92584180D01*
X145254463Y-92694494D01*
X145333815Y-92791185D01*
X145430506Y-92870537D01*
X145540820Y-92929502D01*
X145660518Y-92965812D01*
X145785000Y-92978072D01*
X146399250Y-92975000D01*
X146558000Y-92816250D01*
X146558000Y-91567000D01*
X146812000Y-91567000D01*
X146812000Y-92816250D01*
X146970750Y-92975000D01*
X147585000Y-92978072D01*
X147709482Y-92965812D01*
X147829180Y-92929502D01*
X147939494Y-92870537D01*
X148036185Y-92791185D01*
X148115537Y-92694494D01*
X148174502Y-92584180D01*
X148210812Y-92464482D01*
X148223072Y-92340000D01*
X148220000Y-91725750D01*
X148061250Y-91567000D01*
X146812000Y-91567000D01*
X146558000Y-91567000D01*
X145308750Y-91567000D01*
X145150000Y-91725750D01*
X145146928Y-92340000D01*
X141763223Y-92340000D01*
X141773072Y-92240000D01*
X141770000Y-91725750D01*
X141611250Y-91567000D01*
X140462000Y-91567000D01*
X140208000Y-91567000D01*
X139058750Y-91567000D01*
X138900000Y-91725750D01*
X138896928Y-92240000D01*
X51562000Y-92240000D01*
X51562000Y-89314872D01*
X53010000Y-89314872D01*
X53010000Y-89755128D01*
X53095890Y-90186925D01*
X53264369Y-90593669D01*
X53508962Y-90959729D01*
X53820271Y-91271038D01*
X54186331Y-91515631D01*
X54593075Y-91684110D01*
X55024872Y-91770000D01*
X55465128Y-91770000D01*
X55896925Y-91684110D01*
X56303669Y-91515631D01*
X56669729Y-91271038D01*
X56981038Y-90959729D01*
X57225631Y-90593669D01*
X57394110Y-90186925D01*
X57480000Y-89755128D01*
X57480000Y-89314872D01*
X57394110Y-88883075D01*
X57276554Y-88599268D01*
X67380000Y-88599268D01*
X67380000Y-88960732D01*
X67450518Y-89315250D01*
X67588844Y-89649199D01*
X67789662Y-89949744D01*
X68045256Y-90205338D01*
X68345801Y-90406156D01*
X68679750Y-90544482D01*
X69034268Y-90615000D01*
X69395732Y-90615000D01*
X69750250Y-90544482D01*
X70084199Y-90406156D01*
X70384744Y-90205338D01*
X70640338Y-89949744D01*
X70841156Y-89649199D01*
X70979482Y-89315250D01*
X71050000Y-88960732D01*
X71050000Y-88599268D01*
X86430000Y-88599268D01*
X86430000Y-88960732D01*
X86500518Y-89315250D01*
X86638844Y-89649199D01*
X86839662Y-89949744D01*
X87095256Y-90205338D01*
X87395801Y-90406156D01*
X87729750Y-90544482D01*
X88084268Y-90615000D01*
X88445732Y-90615000D01*
X88800250Y-90544482D01*
X89134199Y-90406156D01*
X89434744Y-90205338D01*
X89690338Y-89949744D01*
X89891156Y-89649199D01*
X90029482Y-89315250D01*
X90100000Y-88960732D01*
X90100000Y-88599268D01*
X105480000Y-88599268D01*
X105480000Y-88960732D01*
X105550518Y-89315250D01*
X105688844Y-89649199D01*
X105889662Y-89949744D01*
X106145256Y-90205338D01*
X106445801Y-90406156D01*
X106779750Y-90544482D01*
X107134268Y-90615000D01*
X107495732Y-90615000D01*
X107850250Y-90544482D01*
X108184199Y-90406156D01*
X108484744Y-90205338D01*
X108740338Y-89949744D01*
X108941156Y-89649199D01*
X109079482Y-89315250D01*
X109128265Y-89070000D01*
X115736928Y-89070000D01*
X115736928Y-91270000D01*
X115749188Y-91394482D01*
X115785498Y-91514180D01*
X115844463Y-91624494D01*
X115923815Y-91721185D01*
X116020506Y-91800537D01*
X116130820Y-91859502D01*
X116250518Y-91895812D01*
X116375000Y-91908072D01*
X118575000Y-91908072D01*
X118699482Y-91895812D01*
X118819180Y-91859502D01*
X118929494Y-91800537D01*
X119026185Y-91721185D01*
X119105537Y-91624494D01*
X119164502Y-91514180D01*
X119200812Y-91394482D01*
X119213072Y-91270000D01*
X119213072Y-90640000D01*
X138896928Y-90640000D01*
X138900000Y-91154250D01*
X139058750Y-91313000D01*
X140208000Y-91313000D01*
X140208000Y-91293000D01*
X140462000Y-91293000D01*
X140462000Y-91313000D01*
X141611250Y-91313000D01*
X141770000Y-91154250D01*
X141773072Y-90640000D01*
X141763224Y-90540000D01*
X145146928Y-90540000D01*
X145150000Y-91154250D01*
X145308750Y-91313000D01*
X146558000Y-91313000D01*
X146558000Y-91293000D01*
X146812000Y-91293000D01*
X146812000Y-91313000D01*
X148061250Y-91313000D01*
X148220000Y-91154250D01*
X148223072Y-90540000D01*
X148210812Y-90415518D01*
X148174502Y-90295820D01*
X148115537Y-90185506D01*
X148036185Y-90088815D01*
X147939494Y-90009463D01*
X147829180Y-89950498D01*
X147810873Y-89944944D01*
X147877312Y-89878505D01*
X148045299Y-89627095D01*
X148161011Y-89347743D01*
X148167549Y-89314872D01*
X154610000Y-89314872D01*
X154610000Y-89755128D01*
X154695890Y-90186925D01*
X154864369Y-90593669D01*
X155108962Y-90959729D01*
X155420271Y-91271038D01*
X155786331Y-91515631D01*
X156193075Y-91684110D01*
X156624872Y-91770000D01*
X157065128Y-91770000D01*
X157496925Y-91684110D01*
X157903669Y-91515631D01*
X158269729Y-91271038D01*
X158581038Y-90959729D01*
X158825631Y-90593669D01*
X158994110Y-90186925D01*
X159080000Y-89755128D01*
X159080000Y-89314872D01*
X158994110Y-88883075D01*
X158825631Y-88476331D01*
X158581038Y-88110271D01*
X158269729Y-87798962D01*
X157903669Y-87554369D01*
X157496925Y-87385890D01*
X157065128Y-87300000D01*
X156624872Y-87300000D01*
X156193075Y-87385890D01*
X155786331Y-87554369D01*
X155420271Y-87798962D01*
X155108962Y-88110271D01*
X154864369Y-88476331D01*
X154695890Y-88883075D01*
X154610000Y-89314872D01*
X148167549Y-89314872D01*
X148220000Y-89051184D01*
X148220000Y-88748816D01*
X148161011Y-88452257D01*
X148045299Y-88172905D01*
X147877312Y-87921495D01*
X147663505Y-87707688D01*
X147412095Y-87539701D01*
X147132743Y-87423989D01*
X146836184Y-87365000D01*
X146533816Y-87365000D01*
X146237257Y-87423989D01*
X145957905Y-87539701D01*
X145706495Y-87707688D01*
X145492688Y-87921495D01*
X145324701Y-88172905D01*
X145208989Y-88452257D01*
X145150000Y-88748816D01*
X145150000Y-89051184D01*
X145208989Y-89347743D01*
X145324701Y-89627095D01*
X145492688Y-89878505D01*
X145559127Y-89944944D01*
X145540820Y-89950498D01*
X145430506Y-90009463D01*
X145333815Y-90088815D01*
X145254463Y-90185506D01*
X145195498Y-90295820D01*
X145159188Y-90415518D01*
X145146928Y-90540000D01*
X141763224Y-90540000D01*
X141760812Y-90515518D01*
X141724502Y-90395820D01*
X141665537Y-90285506D01*
X141586185Y-90188815D01*
X141569607Y-90175210D01*
X141606680Y-90119727D01*
X141714853Y-89858574D01*
X141770000Y-89581335D01*
X141770000Y-89298665D01*
X141714853Y-89021426D01*
X141606680Y-88760273D01*
X141449637Y-88525241D01*
X141249759Y-88325363D01*
X141014727Y-88168320D01*
X140753574Y-88060147D01*
X140476335Y-88005000D01*
X140193665Y-88005000D01*
X139916426Y-88060147D01*
X139655273Y-88168320D01*
X139420241Y-88325363D01*
X139220363Y-88525241D01*
X139063320Y-88760273D01*
X138955147Y-89021426D01*
X138900000Y-89298665D01*
X138900000Y-89581335D01*
X138955147Y-89858574D01*
X139063320Y-90119727D01*
X139100393Y-90175210D01*
X139083815Y-90188815D01*
X139004463Y-90285506D01*
X138945498Y-90395820D01*
X138909188Y-90515518D01*
X138896928Y-90640000D01*
X119213072Y-90640000D01*
X119213072Y-89070000D01*
X119200812Y-88945518D01*
X119164502Y-88825820D01*
X119105537Y-88715506D01*
X119026185Y-88618815D01*
X118929494Y-88539463D01*
X118819180Y-88480498D01*
X118699482Y-88444188D01*
X118575000Y-88431928D01*
X116375000Y-88431928D01*
X116250518Y-88444188D01*
X116130820Y-88480498D01*
X116020506Y-88539463D01*
X115923815Y-88618815D01*
X115844463Y-88715506D01*
X115785498Y-88825820D01*
X115749188Y-88945518D01*
X115736928Y-89070000D01*
X109128265Y-89070000D01*
X109150000Y-88960732D01*
X109150000Y-88599268D01*
X109079482Y-88244750D01*
X108941156Y-87910801D01*
X108740338Y-87610256D01*
X108484744Y-87354662D01*
X108184199Y-87153844D01*
X107850250Y-87015518D01*
X107495732Y-86945000D01*
X107134268Y-86945000D01*
X106779750Y-87015518D01*
X106445801Y-87153844D01*
X106145256Y-87354662D01*
X105889662Y-87610256D01*
X105688844Y-87910801D01*
X105550518Y-88244750D01*
X105480000Y-88599268D01*
X90100000Y-88599268D01*
X90029482Y-88244750D01*
X89891156Y-87910801D01*
X89690338Y-87610256D01*
X89434744Y-87354662D01*
X89134199Y-87153844D01*
X88800250Y-87015518D01*
X88445732Y-86945000D01*
X88084268Y-86945000D01*
X87729750Y-87015518D01*
X87395801Y-87153844D01*
X87095256Y-87354662D01*
X86839662Y-87610256D01*
X86638844Y-87910801D01*
X86500518Y-88244750D01*
X86430000Y-88599268D01*
X71050000Y-88599268D01*
X70979482Y-88244750D01*
X70841156Y-87910801D01*
X70640338Y-87610256D01*
X70384744Y-87354662D01*
X70084199Y-87153844D01*
X69750250Y-87015518D01*
X69395732Y-86945000D01*
X69034268Y-86945000D01*
X68679750Y-87015518D01*
X68345801Y-87153844D01*
X68045256Y-87354662D01*
X67789662Y-87610256D01*
X67588844Y-87910801D01*
X67450518Y-88244750D01*
X67380000Y-88599268D01*
X57276554Y-88599268D01*
X57225631Y-88476331D01*
X56981038Y-88110271D01*
X56669729Y-87798962D01*
X56303669Y-87554369D01*
X55896925Y-87385890D01*
X55465128Y-87300000D01*
X55024872Y-87300000D01*
X54593075Y-87385890D01*
X54186331Y-87554369D01*
X53820271Y-87798962D01*
X53508962Y-88110271D01*
X53264369Y-88476331D01*
X53095890Y-88883075D01*
X53010000Y-89314872D01*
X51562000Y-89314872D01*
X51562000Y-85090000D01*
X119642319Y-85090000D01*
X119672970Y-85401204D01*
X119763745Y-85700449D01*
X119911155Y-85976235D01*
X120109537Y-86217963D01*
X120282609Y-86360000D01*
X120109537Y-86502037D01*
X119911155Y-86743765D01*
X119763745Y-87019551D01*
X119672970Y-87318796D01*
X119642319Y-87630000D01*
X119672970Y-87941204D01*
X119763745Y-88240449D01*
X119911155Y-88516235D01*
X120109537Y-88757963D01*
X120351265Y-88956345D01*
X120627051Y-89103755D01*
X120926296Y-89194530D01*
X121159514Y-89217500D01*
X121410486Y-89217500D01*
X121643704Y-89194530D01*
X121942949Y-89103755D01*
X122218735Y-88956345D01*
X122460463Y-88757963D01*
X122658845Y-88516235D01*
X122806255Y-88240449D01*
X122897030Y-87941204D01*
X122927681Y-87630000D01*
X122897030Y-87318796D01*
X122806255Y-87019551D01*
X122658845Y-86743765D01*
X122460463Y-86502037D01*
X122287391Y-86360000D01*
X122460463Y-86217963D01*
X122658845Y-85976235D01*
X122806255Y-85700449D01*
X122850644Y-85554117D01*
X138600000Y-85554117D01*
X138600000Y-85895883D01*
X138666675Y-86231081D01*
X138797463Y-86546831D01*
X138987337Y-86830998D01*
X139229002Y-87072663D01*
X139513169Y-87262537D01*
X139828919Y-87393325D01*
X140164117Y-87460000D01*
X140505883Y-87460000D01*
X140841081Y-87393325D01*
X141156831Y-87262537D01*
X141440998Y-87072663D01*
X141682663Y-86830998D01*
X141872537Y-86546831D01*
X142003325Y-86231081D01*
X142070000Y-85895883D01*
X142070000Y-85554117D01*
X142003325Y-85218919D01*
X141891383Y-84948665D01*
X145250000Y-84948665D01*
X145250000Y-85231335D01*
X145305147Y-85508574D01*
X145413320Y-85769727D01*
X145570363Y-86004759D01*
X145770241Y-86204637D01*
X146005273Y-86361680D01*
X146266426Y-86469853D01*
X146543665Y-86525000D01*
X146826335Y-86525000D01*
X147103574Y-86469853D01*
X147364727Y-86361680D01*
X147599759Y-86204637D01*
X147799637Y-86004759D01*
X147956680Y-85769727D01*
X148064853Y-85508574D01*
X148120000Y-85231335D01*
X148120000Y-84948665D01*
X148064853Y-84671426D01*
X147956680Y-84410273D01*
X147799637Y-84175241D01*
X147599759Y-83975363D01*
X147364727Y-83818320D01*
X147103574Y-83710147D01*
X146826335Y-83655000D01*
X146543665Y-83655000D01*
X146266426Y-83710147D01*
X146005273Y-83818320D01*
X145770241Y-83975363D01*
X145570363Y-84175241D01*
X145413320Y-84410273D01*
X145305147Y-84671426D01*
X145250000Y-84948665D01*
X141891383Y-84948665D01*
X141872537Y-84903169D01*
X141682663Y-84619002D01*
X141440998Y-84377337D01*
X141156831Y-84187463D01*
X140841081Y-84056675D01*
X140505883Y-83990000D01*
X140164117Y-83990000D01*
X139828919Y-84056675D01*
X139513169Y-84187463D01*
X139229002Y-84377337D01*
X138987337Y-84619002D01*
X138797463Y-84903169D01*
X138666675Y-85218919D01*
X138600000Y-85554117D01*
X122850644Y-85554117D01*
X122897030Y-85401204D01*
X122927681Y-85090000D01*
X122897030Y-84778796D01*
X122806255Y-84479551D01*
X122658845Y-84203765D01*
X122555554Y-84077905D01*
X122639494Y-84033037D01*
X122736185Y-83953685D01*
X122815537Y-83856994D01*
X122874502Y-83746680D01*
X122910812Y-83626982D01*
X122923072Y-83502500D01*
X122920000Y-82835750D01*
X122761250Y-82677000D01*
X121412000Y-82677000D01*
X121412000Y-82697000D01*
X121158000Y-82697000D01*
X121158000Y-82677000D01*
X119808750Y-82677000D01*
X119650000Y-82835750D01*
X119646928Y-83502500D01*
X119659188Y-83626982D01*
X119695498Y-83746680D01*
X119754463Y-83856994D01*
X119833815Y-83953685D01*
X119930506Y-84033037D01*
X120014446Y-84077905D01*
X119911155Y-84203765D01*
X119763745Y-84479551D01*
X119672970Y-84778796D01*
X119642319Y-85090000D01*
X51562000Y-85090000D01*
X51562000Y-82480000D01*
X67376928Y-82480000D01*
X67389188Y-82604482D01*
X67425498Y-82724180D01*
X67484463Y-82834494D01*
X67563815Y-82931185D01*
X67660506Y-83010537D01*
X67770820Y-83069502D01*
X67890518Y-83105812D01*
X68015000Y-83118072D01*
X68929250Y-83115000D01*
X69088000Y-82956250D01*
X69088000Y-81407000D01*
X69342000Y-81407000D01*
X69342000Y-82956250D01*
X69500750Y-83115000D01*
X70415000Y-83118072D01*
X70539482Y-83105812D01*
X70659180Y-83069502D01*
X70769494Y-83010537D01*
X70866185Y-82931185D01*
X70945537Y-82834494D01*
X71004502Y-82724180D01*
X71040812Y-82604482D01*
X71053072Y-82480000D01*
X86426928Y-82480000D01*
X86439188Y-82604482D01*
X86475498Y-82724180D01*
X86534463Y-82834494D01*
X86613815Y-82931185D01*
X86710506Y-83010537D01*
X86820820Y-83069502D01*
X86940518Y-83105812D01*
X87065000Y-83118072D01*
X87979250Y-83115000D01*
X88138000Y-82956250D01*
X88138000Y-81407000D01*
X88392000Y-81407000D01*
X88392000Y-82956250D01*
X88550750Y-83115000D01*
X89465000Y-83118072D01*
X89589482Y-83105812D01*
X89709180Y-83069502D01*
X89819494Y-83010537D01*
X89916185Y-82931185D01*
X89995537Y-82834494D01*
X90054502Y-82724180D01*
X90090812Y-82604482D01*
X90103072Y-82480000D01*
X105476928Y-82480000D01*
X105489188Y-82604482D01*
X105525498Y-82724180D01*
X105584463Y-82834494D01*
X105663815Y-82931185D01*
X105760506Y-83010537D01*
X105870820Y-83069502D01*
X105990518Y-83105812D01*
X106115000Y-83118072D01*
X107029250Y-83115000D01*
X107188000Y-82956250D01*
X107188000Y-81407000D01*
X107442000Y-81407000D01*
X107442000Y-82956250D01*
X107600750Y-83115000D01*
X108515000Y-83118072D01*
X108639482Y-83105812D01*
X108759180Y-83069502D01*
X108869494Y-83010537D01*
X108966185Y-82931185D01*
X109045537Y-82834494D01*
X109104502Y-82724180D01*
X109140812Y-82604482D01*
X109153072Y-82480000D01*
X109150000Y-81565750D01*
X108991250Y-81407000D01*
X107442000Y-81407000D01*
X107188000Y-81407000D01*
X105638750Y-81407000D01*
X105480000Y-81565750D01*
X105476928Y-82480000D01*
X90103072Y-82480000D01*
X90100000Y-81565750D01*
X89941250Y-81407000D01*
X88392000Y-81407000D01*
X88138000Y-81407000D01*
X86588750Y-81407000D01*
X86430000Y-81565750D01*
X86426928Y-82480000D01*
X71053072Y-82480000D01*
X71050000Y-81565750D01*
X70891250Y-81407000D01*
X69342000Y-81407000D01*
X69088000Y-81407000D01*
X67538750Y-81407000D01*
X67380000Y-81565750D01*
X67376928Y-82480000D01*
X51562000Y-82480000D01*
X51562000Y-80080000D01*
X67376928Y-80080000D01*
X67380000Y-80994250D01*
X67538750Y-81153000D01*
X69088000Y-81153000D01*
X69088000Y-79603750D01*
X69342000Y-79603750D01*
X69342000Y-81153000D01*
X70891250Y-81153000D01*
X71050000Y-80994250D01*
X71053072Y-80080000D01*
X86426928Y-80080000D01*
X86430000Y-80994250D01*
X86588750Y-81153000D01*
X88138000Y-81153000D01*
X88138000Y-79603750D01*
X88392000Y-79603750D01*
X88392000Y-81153000D01*
X89941250Y-81153000D01*
X90100000Y-80994250D01*
X90103072Y-80080000D01*
X105476928Y-80080000D01*
X105480000Y-80994250D01*
X105638750Y-81153000D01*
X107188000Y-81153000D01*
X107188000Y-79603750D01*
X107442000Y-79603750D01*
X107442000Y-81153000D01*
X108991250Y-81153000D01*
X109150000Y-80994250D01*
X109153072Y-80080000D01*
X109140812Y-79955518D01*
X109105503Y-79839117D01*
X115740000Y-79839117D01*
X115740000Y-80180883D01*
X115806675Y-80516081D01*
X115937463Y-80831831D01*
X116127337Y-81115998D01*
X116369002Y-81357663D01*
X116653169Y-81547537D01*
X116968919Y-81678325D01*
X117304117Y-81745000D01*
X117645883Y-81745000D01*
X117981081Y-81678325D01*
X118176209Y-81597500D01*
X119646928Y-81597500D01*
X119650000Y-82264250D01*
X119808750Y-82423000D01*
X121158000Y-82423000D01*
X121158000Y-81121250D01*
X121412000Y-81121250D01*
X121412000Y-82423000D01*
X122761250Y-82423000D01*
X122920000Y-82264250D01*
X122923072Y-81597500D01*
X122910812Y-81473018D01*
X122874502Y-81353320D01*
X122815537Y-81243006D01*
X122736185Y-81146315D01*
X122639494Y-81066963D01*
X122529180Y-81007998D01*
X122409482Y-80971688D01*
X122285000Y-80959428D01*
X121570750Y-80962500D01*
X121412000Y-81121250D01*
X121158000Y-81121250D01*
X120999250Y-80962500D01*
X120285000Y-80959428D01*
X120160518Y-80971688D01*
X120040820Y-81007998D01*
X119930506Y-81066963D01*
X119833815Y-81146315D01*
X119754463Y-81243006D01*
X119695498Y-81353320D01*
X119659188Y-81473018D01*
X119646928Y-81597500D01*
X118176209Y-81597500D01*
X118296831Y-81547537D01*
X118580998Y-81357663D01*
X118822663Y-81115998D01*
X119012537Y-80831831D01*
X119143325Y-80516081D01*
X119210000Y-80180883D01*
X119210000Y-79839117D01*
X119143325Y-79503919D01*
X119012537Y-79188169D01*
X118822663Y-78904002D01*
X118580998Y-78662337D01*
X118296831Y-78472463D01*
X117981081Y-78341675D01*
X117645883Y-78275000D01*
X117304117Y-78275000D01*
X116968919Y-78341675D01*
X116653169Y-78472463D01*
X116369002Y-78662337D01*
X116127337Y-78904002D01*
X115937463Y-79188169D01*
X115806675Y-79503919D01*
X115740000Y-79839117D01*
X109105503Y-79839117D01*
X109104502Y-79835820D01*
X109045537Y-79725506D01*
X108966185Y-79628815D01*
X108869494Y-79549463D01*
X108759180Y-79490498D01*
X108639482Y-79454188D01*
X108515000Y-79441928D01*
X107600750Y-79445000D01*
X107442000Y-79603750D01*
X107188000Y-79603750D01*
X107029250Y-79445000D01*
X106115000Y-79441928D01*
X105990518Y-79454188D01*
X105870820Y-79490498D01*
X105760506Y-79549463D01*
X105663815Y-79628815D01*
X105584463Y-79725506D01*
X105525498Y-79835820D01*
X105489188Y-79955518D01*
X105476928Y-80080000D01*
X90103072Y-80080000D01*
X90090812Y-79955518D01*
X90054502Y-79835820D01*
X89995537Y-79725506D01*
X89916185Y-79628815D01*
X89819494Y-79549463D01*
X89709180Y-79490498D01*
X89589482Y-79454188D01*
X89465000Y-79441928D01*
X88550750Y-79445000D01*
X88392000Y-79603750D01*
X88138000Y-79603750D01*
X87979250Y-79445000D01*
X87065000Y-79441928D01*
X86940518Y-79454188D01*
X86820820Y-79490498D01*
X86710506Y-79549463D01*
X86613815Y-79628815D01*
X86534463Y-79725506D01*
X86475498Y-79835820D01*
X86439188Y-79955518D01*
X86426928Y-80080000D01*
X71053072Y-80080000D01*
X71040812Y-79955518D01*
X71004502Y-79835820D01*
X70945537Y-79725506D01*
X70866185Y-79628815D01*
X70769494Y-79549463D01*
X70659180Y-79490498D01*
X70539482Y-79454188D01*
X70415000Y-79441928D01*
X69500750Y-79445000D01*
X69342000Y-79603750D01*
X69088000Y-79603750D01*
X68929250Y-79445000D01*
X68015000Y-79441928D01*
X67890518Y-79454188D01*
X67770820Y-79490498D01*
X67660506Y-79549463D01*
X67563815Y-79628815D01*
X67484463Y-79725506D01*
X67425498Y-79835820D01*
X67389188Y-79955518D01*
X67376928Y-80080000D01*
X51562000Y-80080000D01*
X51562000Y-77323740D01*
X149645000Y-77323740D01*
X149645000Y-77616260D01*
X149702068Y-77903158D01*
X149814010Y-78173411D01*
X149976525Y-78416632D01*
X150183368Y-78623475D01*
X150426589Y-78785990D01*
X150696842Y-78897932D01*
X150983740Y-78955000D01*
X151276260Y-78955000D01*
X151563158Y-78897932D01*
X151833411Y-78785990D01*
X152076632Y-78623475D01*
X152208487Y-78491620D01*
X152230498Y-78564180D01*
X152289463Y-78674494D01*
X152368815Y-78771185D01*
X152465506Y-78850537D01*
X152575820Y-78909502D01*
X152695518Y-78945812D01*
X152820000Y-78958072D01*
X154520000Y-78958072D01*
X154644482Y-78945812D01*
X154764180Y-78909502D01*
X154874494Y-78850537D01*
X154971185Y-78771185D01*
X155050537Y-78674494D01*
X155109502Y-78564180D01*
X155145812Y-78444482D01*
X155158072Y-78320000D01*
X155158072Y-77308967D01*
X156480000Y-77308967D01*
X156480000Y-77631033D01*
X156542832Y-77946912D01*
X156666082Y-78244463D01*
X156845013Y-78512252D01*
X157072748Y-78739987D01*
X157340537Y-78918918D01*
X157638088Y-79042168D01*
X157953967Y-79105000D01*
X158276033Y-79105000D01*
X158591912Y-79042168D01*
X158889463Y-78918918D01*
X159157252Y-78739987D01*
X159384987Y-78512252D01*
X159563918Y-78244463D01*
X159687168Y-77946912D01*
X159750000Y-77631033D01*
X159750000Y-77308967D01*
X159687168Y-76993088D01*
X159563918Y-76695537D01*
X159384987Y-76427748D01*
X159157252Y-76200013D01*
X158889463Y-76021082D01*
X158591912Y-75897832D01*
X158276033Y-75835000D01*
X157953967Y-75835000D01*
X157638088Y-75897832D01*
X157340537Y-76021082D01*
X157072748Y-76200013D01*
X156845013Y-76427748D01*
X156666082Y-76695537D01*
X156542832Y-76993088D01*
X156480000Y-77308967D01*
X155158072Y-77308967D01*
X155158072Y-76620000D01*
X155145812Y-76495518D01*
X155109502Y-76375820D01*
X155050537Y-76265506D01*
X154971185Y-76168815D01*
X154874494Y-76089463D01*
X154764180Y-76030498D01*
X154683534Y-76006034D01*
X154767588Y-75930269D01*
X154941641Y-75696920D01*
X155066825Y-75434099D01*
X155111476Y-75286890D01*
X154990155Y-75057000D01*
X153797000Y-75057000D01*
X153797000Y-75077000D01*
X153543000Y-75077000D01*
X153543000Y-75057000D01*
X151257000Y-75057000D01*
X151257000Y-75077000D01*
X151003000Y-75077000D01*
X151003000Y-75057000D01*
X149809845Y-75057000D01*
X149688524Y-75286890D01*
X149733175Y-75434099D01*
X149858359Y-75696920D01*
X150032412Y-75930269D01*
X150248645Y-76125178D01*
X150365534Y-76194805D01*
X150183368Y-76316525D01*
X149976525Y-76523368D01*
X149814010Y-76766589D01*
X149702068Y-77036842D01*
X149645000Y-77323740D01*
X51562000Y-77323740D01*
X51562000Y-76430000D01*
X53106928Y-76430000D01*
X53119188Y-76554482D01*
X53155498Y-76674180D01*
X53214463Y-76784494D01*
X53293815Y-76881185D01*
X53390506Y-76960537D01*
X53500820Y-77019502D01*
X53620518Y-77055812D01*
X53745000Y-77068072D01*
X54959250Y-77065000D01*
X55118000Y-76906250D01*
X55118000Y-75057000D01*
X55372000Y-75057000D01*
X55372000Y-76906250D01*
X55530750Y-77065000D01*
X56745000Y-77068072D01*
X56869482Y-77055812D01*
X56989180Y-77019502D01*
X57099494Y-76960537D01*
X57196185Y-76881185D01*
X57275537Y-76784494D01*
X57334502Y-76674180D01*
X57337286Y-76665000D01*
X138596928Y-76665000D01*
X138609188Y-76789482D01*
X138645498Y-76909180D01*
X138704463Y-77019494D01*
X138783815Y-77116185D01*
X138880506Y-77195537D01*
X138990820Y-77254502D01*
X139110518Y-77290812D01*
X139235000Y-77303072D01*
X140049250Y-77300000D01*
X140208000Y-77141250D01*
X140208000Y-75692000D01*
X140462000Y-75692000D01*
X140462000Y-77141250D01*
X140620750Y-77300000D01*
X141435000Y-77303072D01*
X141559482Y-77290812D01*
X141679180Y-77254502D01*
X141789494Y-77195537D01*
X141886185Y-77116185D01*
X141965537Y-77019494D01*
X142024502Y-76909180D01*
X142060812Y-76789482D01*
X142073072Y-76665000D01*
X142070000Y-75850750D01*
X141911250Y-75692000D01*
X140462000Y-75692000D01*
X140208000Y-75692000D01*
X138758750Y-75692000D01*
X138600000Y-75850750D01*
X138596928Y-76665000D01*
X57337286Y-76665000D01*
X57370812Y-76554482D01*
X57383072Y-76430000D01*
X57380000Y-75215750D01*
X57221250Y-75057000D01*
X55372000Y-75057000D01*
X55118000Y-75057000D01*
X53268750Y-75057000D01*
X53110000Y-75215750D01*
X53106928Y-76430000D01*
X51562000Y-76430000D01*
X51562000Y-73430000D01*
X53106928Y-73430000D01*
X53110000Y-74644250D01*
X53268750Y-74803000D01*
X55118000Y-74803000D01*
X55118000Y-72953750D01*
X55372000Y-72953750D01*
X55372000Y-74803000D01*
X57221250Y-74803000D01*
X57380000Y-74644250D01*
X57383072Y-73430000D01*
X57370812Y-73305518D01*
X57337287Y-73195000D01*
X61126928Y-73195000D01*
X61126928Y-75395000D01*
X61139188Y-75519482D01*
X61175498Y-75639180D01*
X61234463Y-75749494D01*
X61313815Y-75846185D01*
X61410506Y-75925537D01*
X61520820Y-75984502D01*
X61640518Y-76020812D01*
X61765000Y-76033072D01*
X63965000Y-76033072D01*
X64089482Y-76020812D01*
X64209180Y-75984502D01*
X64319494Y-75925537D01*
X64416185Y-75846185D01*
X64495537Y-75749494D01*
X64554502Y-75639180D01*
X64590812Y-75519482D01*
X64603072Y-75395000D01*
X64603072Y-74124117D01*
X71290000Y-74124117D01*
X71290000Y-74465883D01*
X71356675Y-74801081D01*
X71487463Y-75116831D01*
X71677337Y-75400998D01*
X71919002Y-75642663D01*
X72203169Y-75832537D01*
X72518919Y-75963325D01*
X72854117Y-76030000D01*
X73195883Y-76030000D01*
X73531081Y-75963325D01*
X73846831Y-75832537D01*
X74130998Y-75642663D01*
X74372663Y-75400998D01*
X74562537Y-75116831D01*
X74693325Y-74801081D01*
X74760000Y-74465883D01*
X74760000Y-74124117D01*
X74757730Y-74112702D01*
X77926903Y-74112702D01*
X77998486Y-74356671D01*
X78253996Y-74477571D01*
X78528184Y-74546300D01*
X78810512Y-74560217D01*
X79090130Y-74518787D01*
X79356292Y-74423603D01*
X79481514Y-74356671D01*
X79553097Y-74112702D01*
X78740000Y-73299605D01*
X77926903Y-74112702D01*
X74757730Y-74112702D01*
X74693325Y-73788919D01*
X74562537Y-73473169D01*
X74373672Y-73190512D01*
X77299783Y-73190512D01*
X77341213Y-73470130D01*
X77436397Y-73736292D01*
X77503329Y-73861514D01*
X77747298Y-73933097D01*
X78560395Y-73120000D01*
X78546253Y-73105858D01*
X78725858Y-72926253D01*
X78740000Y-72940395D01*
X78754143Y-72926253D01*
X78933748Y-73105858D01*
X78919605Y-73120000D01*
X79732702Y-73933097D01*
X79976671Y-73861514D01*
X80097571Y-73606004D01*
X80166300Y-73331816D01*
X80180217Y-73049488D01*
X80138787Y-72769870D01*
X80043603Y-72503708D01*
X79978384Y-72381691D01*
X79991185Y-72371185D01*
X80070537Y-72274494D01*
X80129502Y-72164180D01*
X80165812Y-72044482D01*
X80178072Y-71920000D01*
X96351928Y-71920000D01*
X96364188Y-72044482D01*
X96400498Y-72164180D01*
X96459463Y-72274494D01*
X96538815Y-72371185D01*
X96555393Y-72384790D01*
X96518320Y-72440273D01*
X96410147Y-72701426D01*
X96355000Y-72978665D01*
X96355000Y-73261335D01*
X96410147Y-73538574D01*
X96518320Y-73799727D01*
X96675363Y-74034759D01*
X96875241Y-74234637D01*
X97110273Y-74391680D01*
X97371426Y-74499853D01*
X97648665Y-74555000D01*
X97931335Y-74555000D01*
X98208574Y-74499853D01*
X98292716Y-74465000D01*
X138596928Y-74465000D01*
X138600000Y-75279250D01*
X138758750Y-75438000D01*
X140208000Y-75438000D01*
X140208000Y-73988750D01*
X140462000Y-73988750D01*
X140462000Y-75438000D01*
X141911250Y-75438000D01*
X142070000Y-75279250D01*
X142073072Y-74465000D01*
X142060812Y-74340518D01*
X142024502Y-74220820D01*
X141965537Y-74110506D01*
X141886185Y-74013815D01*
X141789494Y-73934463D01*
X141679180Y-73875498D01*
X141559482Y-73839188D01*
X141435000Y-73826928D01*
X140620750Y-73830000D01*
X140462000Y-73988750D01*
X140208000Y-73988750D01*
X140049250Y-73830000D01*
X139235000Y-73826928D01*
X139110518Y-73839188D01*
X138990820Y-73875498D01*
X138880506Y-73934463D01*
X138783815Y-74013815D01*
X138704463Y-74110506D01*
X138645498Y-74220820D01*
X138609188Y-74340518D01*
X138596928Y-74465000D01*
X98292716Y-74465000D01*
X98469727Y-74391680D01*
X98704759Y-74234637D01*
X98904637Y-74034759D01*
X99061680Y-73799727D01*
X99169853Y-73538574D01*
X99225000Y-73261335D01*
X99225000Y-72978665D01*
X99169853Y-72701426D01*
X99061680Y-72440273D01*
X99024607Y-72384790D01*
X99041185Y-72371185D01*
X99120537Y-72274494D01*
X99179502Y-72164180D01*
X99215812Y-72044482D01*
X99228072Y-71920000D01*
X99225000Y-71405750D01*
X99066250Y-71247000D01*
X97917000Y-71247000D01*
X97917000Y-71267000D01*
X97663000Y-71267000D01*
X97663000Y-71247000D01*
X96513750Y-71247000D01*
X96355000Y-71405750D01*
X96351928Y-71920000D01*
X80178072Y-71920000D01*
X80178072Y-70320000D01*
X96351928Y-70320000D01*
X96355000Y-70834250D01*
X96513750Y-70993000D01*
X97663000Y-70993000D01*
X97663000Y-69843750D01*
X97917000Y-69843750D01*
X97917000Y-70993000D01*
X99066250Y-70993000D01*
X99204250Y-70855000D01*
X138796928Y-70855000D01*
X138796928Y-72655000D01*
X138809188Y-72779482D01*
X138845498Y-72899180D01*
X138904463Y-73009494D01*
X138983815Y-73106185D01*
X139080506Y-73185537D01*
X139190820Y-73244502D01*
X139310518Y-73280812D01*
X139435000Y-73293072D01*
X141235000Y-73293072D01*
X141359482Y-73280812D01*
X141479180Y-73244502D01*
X141589494Y-73185537D01*
X141686185Y-73106185D01*
X141765537Y-73009494D01*
X141824502Y-72899180D01*
X141860812Y-72779482D01*
X141873072Y-72655000D01*
X141873072Y-72248665D01*
X145250000Y-72248665D01*
X145250000Y-72531335D01*
X145305147Y-72808574D01*
X145413320Y-73069727D01*
X145570363Y-73304759D01*
X145770241Y-73504637D01*
X146005273Y-73661680D01*
X146266426Y-73769853D01*
X146543665Y-73825000D01*
X146826335Y-73825000D01*
X147103574Y-73769853D01*
X147364727Y-73661680D01*
X147599759Y-73504637D01*
X147799637Y-73304759D01*
X147956680Y-73069727D01*
X148064853Y-72808574D01*
X148077122Y-72746890D01*
X149688524Y-72746890D01*
X149733175Y-72894099D01*
X149858359Y-73156920D01*
X150032412Y-73390269D01*
X150248645Y-73585178D01*
X150374255Y-73660000D01*
X150248645Y-73734822D01*
X150032412Y-73929731D01*
X149858359Y-74163080D01*
X149733175Y-74425901D01*
X149688524Y-74573110D01*
X149809845Y-74803000D01*
X151003000Y-74803000D01*
X151003000Y-72517000D01*
X151257000Y-72517000D01*
X151257000Y-74803000D01*
X153543000Y-74803000D01*
X153543000Y-72517000D01*
X153797000Y-72517000D01*
X153797000Y-74803000D01*
X154990155Y-74803000D01*
X155111476Y-74573110D01*
X155066825Y-74425901D01*
X154941641Y-74163080D01*
X154767588Y-73929731D01*
X154551355Y-73734822D01*
X154425745Y-73660000D01*
X154551355Y-73585178D01*
X154617658Y-73525413D01*
X157159192Y-73525413D01*
X157254956Y-73789814D01*
X157544571Y-73930704D01*
X157856108Y-74012384D01*
X158177595Y-74031718D01*
X158496675Y-73987961D01*
X158801088Y-73882795D01*
X158975044Y-73789814D01*
X159070808Y-73525413D01*
X158115000Y-72569605D01*
X157159192Y-73525413D01*
X154617658Y-73525413D01*
X154767588Y-73390269D01*
X154941641Y-73156920D01*
X155066825Y-72894099D01*
X155111476Y-72746890D01*
X154990155Y-72517000D01*
X153797000Y-72517000D01*
X153543000Y-72517000D01*
X151257000Y-72517000D01*
X151003000Y-72517000D01*
X149809845Y-72517000D01*
X149688524Y-72746890D01*
X148077122Y-72746890D01*
X148120000Y-72531335D01*
X148120000Y-72452595D01*
X156473282Y-72452595D01*
X156517039Y-72771675D01*
X156622205Y-73076088D01*
X156715186Y-73250044D01*
X156979587Y-73345808D01*
X157935395Y-72390000D01*
X158294605Y-72390000D01*
X159250413Y-73345808D01*
X159514814Y-73250044D01*
X159655704Y-72960429D01*
X159737384Y-72648892D01*
X159756718Y-72327405D01*
X159712961Y-72008325D01*
X159607795Y-71703912D01*
X159514814Y-71529956D01*
X159250413Y-71434192D01*
X158294605Y-72390000D01*
X157935395Y-72390000D01*
X156979587Y-71434192D01*
X156715186Y-71529956D01*
X156574296Y-71819571D01*
X156492616Y-72131108D01*
X156473282Y-72452595D01*
X148120000Y-72452595D01*
X148120000Y-72248665D01*
X148064853Y-71971426D01*
X147956680Y-71710273D01*
X147799637Y-71475241D01*
X147599759Y-71275363D01*
X147364727Y-71118320D01*
X147103574Y-71010147D01*
X146826335Y-70955000D01*
X146543665Y-70955000D01*
X146266426Y-71010147D01*
X146005273Y-71118320D01*
X145770241Y-71275363D01*
X145570363Y-71475241D01*
X145413320Y-71710273D01*
X145305147Y-71971426D01*
X145250000Y-72248665D01*
X141873072Y-72248665D01*
X141873072Y-70855000D01*
X141860812Y-70730518D01*
X141824502Y-70610820D01*
X141765537Y-70500506D01*
X141686185Y-70403815D01*
X141589494Y-70324463D01*
X141479180Y-70265498D01*
X141460873Y-70259944D01*
X141527312Y-70193505D01*
X141695299Y-69942095D01*
X141811011Y-69662743D01*
X141821278Y-69611123D01*
X144995821Y-69611123D01*
X145105558Y-69933054D01*
X145275992Y-70227391D01*
X145500573Y-70482822D01*
X145770671Y-70689531D01*
X146075906Y-70839575D01*
X146288878Y-70904175D01*
X146558000Y-70786125D01*
X146558000Y-69342000D01*
X146812000Y-69342000D01*
X146812000Y-70786125D01*
X147081122Y-70904175D01*
X147294094Y-70839575D01*
X147599329Y-70689531D01*
X147869427Y-70482822D01*
X148094008Y-70227391D01*
X148105878Y-70206890D01*
X149688524Y-70206890D01*
X149733175Y-70354099D01*
X149858359Y-70616920D01*
X150032412Y-70850269D01*
X150248645Y-71045178D01*
X150374255Y-71120000D01*
X150248645Y-71194822D01*
X150032412Y-71389731D01*
X149858359Y-71623080D01*
X149733175Y-71885901D01*
X149688524Y-72033110D01*
X149809845Y-72263000D01*
X151003000Y-72263000D01*
X151003000Y-69977000D01*
X151257000Y-69977000D01*
X151257000Y-72263000D01*
X153543000Y-72263000D01*
X153543000Y-69977000D01*
X153797000Y-69977000D01*
X153797000Y-72263000D01*
X154990155Y-72263000D01*
X155111476Y-72033110D01*
X155066825Y-71885901D01*
X154941641Y-71623080D01*
X154767588Y-71389731D01*
X154617659Y-71254587D01*
X157159192Y-71254587D01*
X158115000Y-72210395D01*
X159070808Y-71254587D01*
X158975044Y-70990186D01*
X158685429Y-70849296D01*
X158373892Y-70767616D01*
X158052405Y-70748282D01*
X157733325Y-70792039D01*
X157428912Y-70897205D01*
X157254956Y-70990186D01*
X157159192Y-71254587D01*
X154617659Y-71254587D01*
X154551355Y-71194822D01*
X154425745Y-71120000D01*
X154551355Y-71045178D01*
X154767588Y-70850269D01*
X154941641Y-70616920D01*
X155066825Y-70354099D01*
X155111476Y-70206890D01*
X154990155Y-69977000D01*
X153797000Y-69977000D01*
X153543000Y-69977000D01*
X151257000Y-69977000D01*
X151003000Y-69977000D01*
X149809845Y-69977000D01*
X149688524Y-70206890D01*
X148105878Y-70206890D01*
X148264442Y-69933054D01*
X148374179Y-69611123D01*
X148256600Y-69342000D01*
X146812000Y-69342000D01*
X146558000Y-69342000D01*
X145113400Y-69342000D01*
X144995821Y-69611123D01*
X141821278Y-69611123D01*
X141870000Y-69366184D01*
X141870000Y-69063816D01*
X141821279Y-68818877D01*
X144995821Y-68818877D01*
X145113400Y-69088000D01*
X146558000Y-69088000D01*
X146558000Y-67643875D01*
X146812000Y-67643875D01*
X146812000Y-69088000D01*
X148256600Y-69088000D01*
X148374179Y-68818877D01*
X148264442Y-68496946D01*
X148094008Y-68202609D01*
X147869427Y-67947178D01*
X147599329Y-67740469D01*
X147294094Y-67590425D01*
X147081122Y-67525825D01*
X146812000Y-67643875D01*
X146558000Y-67643875D01*
X146288878Y-67525825D01*
X146075906Y-67590425D01*
X145770671Y-67740469D01*
X145500573Y-67947178D01*
X145275992Y-68202609D01*
X145105558Y-68496946D01*
X144995821Y-68818877D01*
X141821279Y-68818877D01*
X141811011Y-68767257D01*
X141695299Y-68487905D01*
X141527312Y-68236495D01*
X141313505Y-68022688D01*
X141062095Y-67854701D01*
X140782743Y-67738989D01*
X140486184Y-67680000D01*
X140183816Y-67680000D01*
X139887257Y-67738989D01*
X139607905Y-67854701D01*
X139356495Y-68022688D01*
X139142688Y-68236495D01*
X138974701Y-68487905D01*
X138858989Y-68767257D01*
X138800000Y-69063816D01*
X138800000Y-69366184D01*
X138858989Y-69662743D01*
X138974701Y-69942095D01*
X139142688Y-70193505D01*
X139209127Y-70259944D01*
X139190820Y-70265498D01*
X139080506Y-70324463D01*
X138983815Y-70403815D01*
X138904463Y-70500506D01*
X138845498Y-70610820D01*
X138809188Y-70730518D01*
X138796928Y-70855000D01*
X99204250Y-70855000D01*
X99225000Y-70834250D01*
X99228072Y-70320000D01*
X99215812Y-70195518D01*
X99179502Y-70075820D01*
X99120537Y-69965506D01*
X99041185Y-69868815D01*
X98944494Y-69789463D01*
X98834180Y-69730498D01*
X98714482Y-69694188D01*
X98590000Y-69681928D01*
X98075750Y-69685000D01*
X97917000Y-69843750D01*
X97663000Y-69843750D01*
X97504250Y-69685000D01*
X96990000Y-69681928D01*
X96865518Y-69694188D01*
X96745820Y-69730498D01*
X96635506Y-69789463D01*
X96538815Y-69868815D01*
X96459463Y-69965506D01*
X96400498Y-70075820D01*
X96364188Y-70195518D01*
X96351928Y-70320000D01*
X80178072Y-70320000D01*
X80165812Y-70195518D01*
X80129502Y-70075820D01*
X80070537Y-69965506D01*
X79991185Y-69868815D01*
X79894494Y-69789463D01*
X79784180Y-69730498D01*
X79664482Y-69694188D01*
X79540000Y-69681928D01*
X77940000Y-69681928D01*
X77815518Y-69694188D01*
X77695820Y-69730498D01*
X77585506Y-69789463D01*
X77488815Y-69868815D01*
X77409463Y-69965506D01*
X77350498Y-70075820D01*
X77314188Y-70195518D01*
X77301928Y-70320000D01*
X77301928Y-71920000D01*
X77314188Y-72044482D01*
X77350498Y-72164180D01*
X77409463Y-72274494D01*
X77488815Y-72371185D01*
X77501758Y-72381807D01*
X77382429Y-72633996D01*
X77313700Y-72908184D01*
X77299783Y-73190512D01*
X74373672Y-73190512D01*
X74372663Y-73189002D01*
X74130998Y-72947337D01*
X73846831Y-72757463D01*
X73531081Y-72626675D01*
X73195883Y-72560000D01*
X72854117Y-72560000D01*
X72518919Y-72626675D01*
X72203169Y-72757463D01*
X71919002Y-72947337D01*
X71677337Y-73189002D01*
X71487463Y-73473169D01*
X71356675Y-73788919D01*
X71290000Y-74124117D01*
X64603072Y-74124117D01*
X64603072Y-73195000D01*
X64590812Y-73070518D01*
X64554502Y-72950820D01*
X64495537Y-72840506D01*
X64416185Y-72743815D01*
X64319494Y-72664463D01*
X64209180Y-72605498D01*
X64089482Y-72569188D01*
X63965000Y-72556928D01*
X61765000Y-72556928D01*
X61640518Y-72569188D01*
X61520820Y-72605498D01*
X61410506Y-72664463D01*
X61313815Y-72743815D01*
X61234463Y-72840506D01*
X61175498Y-72950820D01*
X61139188Y-73070518D01*
X61126928Y-73195000D01*
X57337287Y-73195000D01*
X57334502Y-73185820D01*
X57275537Y-73075506D01*
X57196185Y-72978815D01*
X57099494Y-72899463D01*
X56989180Y-72840498D01*
X56869482Y-72804188D01*
X56745000Y-72791928D01*
X55530750Y-72795000D01*
X55372000Y-72953750D01*
X55118000Y-72953750D01*
X54959250Y-72795000D01*
X53745000Y-72791928D01*
X53620518Y-72804188D01*
X53500820Y-72840498D01*
X53390506Y-72899463D01*
X53293815Y-72978815D01*
X53214463Y-73075506D01*
X53155498Y-73185820D01*
X53119188Y-73305518D01*
X53106928Y-73430000D01*
X51562000Y-73430000D01*
X51562000Y-69639721D01*
X53110000Y-69639721D01*
X53110000Y-70060279D01*
X53192047Y-70472756D01*
X53352988Y-70861302D01*
X53586637Y-71210983D01*
X53884017Y-71508363D01*
X54233698Y-71742012D01*
X54622244Y-71902953D01*
X55034721Y-71985000D01*
X55455279Y-71985000D01*
X55867756Y-71902953D01*
X56256302Y-71742012D01*
X56605983Y-71508363D01*
X56903363Y-71210983D01*
X57137012Y-70861302D01*
X57297953Y-70472756D01*
X57329508Y-70314117D01*
X61130000Y-70314117D01*
X61130000Y-70655883D01*
X61196675Y-70991081D01*
X61327463Y-71306831D01*
X61517337Y-71590998D01*
X61759002Y-71832663D01*
X62043169Y-72022537D01*
X62358919Y-72153325D01*
X62694117Y-72220000D01*
X63035883Y-72220000D01*
X63371081Y-72153325D01*
X63686831Y-72022537D01*
X63970998Y-71832663D01*
X64212663Y-71590998D01*
X64402537Y-71306831D01*
X64533325Y-70991081D01*
X64600000Y-70655883D01*
X64600000Y-70314117D01*
X64533325Y-69978919D01*
X64402537Y-69663169D01*
X64216671Y-69385000D01*
X71286928Y-69385000D01*
X71286928Y-71585000D01*
X71299188Y-71709482D01*
X71335498Y-71829180D01*
X71394463Y-71939494D01*
X71473815Y-72036185D01*
X71570506Y-72115537D01*
X71680820Y-72174502D01*
X71800518Y-72210812D01*
X71925000Y-72223072D01*
X74125000Y-72223072D01*
X74249482Y-72210812D01*
X74369180Y-72174502D01*
X74479494Y-72115537D01*
X74576185Y-72036185D01*
X74655537Y-71939494D01*
X74714502Y-71829180D01*
X74750812Y-71709482D01*
X74763072Y-71585000D01*
X74763072Y-69385000D01*
X74750812Y-69260518D01*
X74714502Y-69140820D01*
X74655537Y-69030506D01*
X74576185Y-68933815D01*
X74479494Y-68854463D01*
X74369180Y-68795498D01*
X74249482Y-68759188D01*
X74125000Y-68746928D01*
X71925000Y-68746928D01*
X71800518Y-68759188D01*
X71680820Y-68795498D01*
X71570506Y-68854463D01*
X71473815Y-68933815D01*
X71394463Y-69030506D01*
X71335498Y-69140820D01*
X71299188Y-69260518D01*
X71286928Y-69385000D01*
X64216671Y-69385000D01*
X64212663Y-69379002D01*
X63970998Y-69137337D01*
X63686831Y-68947463D01*
X63371081Y-68816675D01*
X63035883Y-68750000D01*
X62694117Y-68750000D01*
X62358919Y-68816675D01*
X62043169Y-68947463D01*
X61759002Y-69137337D01*
X61517337Y-69379002D01*
X61327463Y-69663169D01*
X61196675Y-69978919D01*
X61130000Y-70314117D01*
X57329508Y-70314117D01*
X57380000Y-70060279D01*
X57380000Y-69639721D01*
X57297953Y-69227244D01*
X57137012Y-68838698D01*
X56903363Y-68489017D01*
X56605983Y-68191637D01*
X56256302Y-67957988D01*
X55867756Y-67797047D01*
X55455279Y-67715000D01*
X55034721Y-67715000D01*
X54622244Y-67797047D01*
X54233698Y-67957988D01*
X53884017Y-68191637D01*
X53586637Y-68489017D01*
X53352988Y-68838698D01*
X53192047Y-69227244D01*
X53110000Y-69639721D01*
X51562000Y-69639721D01*
X51562000Y-67163740D01*
X149645000Y-67163740D01*
X149645000Y-67456260D01*
X149702068Y-67743158D01*
X149814010Y-68013411D01*
X149976525Y-68256632D01*
X150183368Y-68463475D01*
X150365534Y-68585195D01*
X150248645Y-68654822D01*
X150032412Y-68849731D01*
X149858359Y-69083080D01*
X149733175Y-69345901D01*
X149688524Y-69493110D01*
X149809845Y-69723000D01*
X151003000Y-69723000D01*
X151003000Y-69703000D01*
X151257000Y-69703000D01*
X151257000Y-69723000D01*
X153543000Y-69723000D01*
X153543000Y-69703000D01*
X153797000Y-69703000D01*
X153797000Y-69723000D01*
X154990155Y-69723000D01*
X155111476Y-69493110D01*
X155066825Y-69345901D01*
X154941641Y-69083080D01*
X154767588Y-68849731D01*
X154551355Y-68654822D01*
X154434466Y-68585195D01*
X154616632Y-68463475D01*
X154823475Y-68256632D01*
X154985990Y-68013411D01*
X155097932Y-67743158D01*
X155155000Y-67456260D01*
X155155000Y-67163740D01*
X155152062Y-67148967D01*
X156480000Y-67148967D01*
X156480000Y-67471033D01*
X156542832Y-67786912D01*
X156666082Y-68084463D01*
X156845013Y-68352252D01*
X157072748Y-68579987D01*
X157340537Y-68758918D01*
X157638088Y-68882168D01*
X157953967Y-68945000D01*
X158276033Y-68945000D01*
X158591912Y-68882168D01*
X158889463Y-68758918D01*
X159157252Y-68579987D01*
X159384987Y-68352252D01*
X159563918Y-68084463D01*
X159687168Y-67786912D01*
X159750000Y-67471033D01*
X159750000Y-67148967D01*
X159687168Y-66833088D01*
X159563918Y-66535537D01*
X159384987Y-66267748D01*
X159157252Y-66040013D01*
X158889463Y-65861082D01*
X158591912Y-65737832D01*
X158276033Y-65675000D01*
X157953967Y-65675000D01*
X157638088Y-65737832D01*
X157340537Y-65861082D01*
X157072748Y-66040013D01*
X156845013Y-66267748D01*
X156666082Y-66535537D01*
X156542832Y-66833088D01*
X156480000Y-67148967D01*
X155152062Y-67148967D01*
X155097932Y-66876842D01*
X154985990Y-66606589D01*
X154823475Y-66363368D01*
X154616632Y-66156525D01*
X154373411Y-65994010D01*
X154103158Y-65882068D01*
X153816260Y-65825000D01*
X153523740Y-65825000D01*
X153236842Y-65882068D01*
X152966589Y-65994010D01*
X152723368Y-66156525D01*
X152516525Y-66363368D01*
X152400000Y-66537760D01*
X152283475Y-66363368D01*
X152076632Y-66156525D01*
X151833411Y-65994010D01*
X151563158Y-65882068D01*
X151276260Y-65825000D01*
X150983740Y-65825000D01*
X150696842Y-65882068D01*
X150426589Y-65994010D01*
X150183368Y-66156525D01*
X149976525Y-66363368D01*
X149814010Y-66606589D01*
X149702068Y-66876842D01*
X149645000Y-67163740D01*
X51562000Y-67163740D01*
X51562000Y-64657980D01*
X68116626Y-64657980D01*
X68236514Y-64942836D01*
X68560210Y-65103699D01*
X68909069Y-65198322D01*
X69269684Y-65223067D01*
X69628198Y-65176985D01*
X69970833Y-65061846D01*
X70193486Y-64942836D01*
X70313374Y-64657980D01*
X87166626Y-64657980D01*
X87286514Y-64942836D01*
X87610210Y-65103699D01*
X87959069Y-65198322D01*
X88319684Y-65223067D01*
X88678198Y-65176985D01*
X89020833Y-65061846D01*
X89243486Y-64942836D01*
X89363374Y-64657980D01*
X106216626Y-64657980D01*
X106336514Y-64942836D01*
X106660210Y-65103699D01*
X107009069Y-65198322D01*
X107369684Y-65223067D01*
X107728198Y-65176985D01*
X108070833Y-65061846D01*
X108293486Y-64942836D01*
X108413374Y-64657980D01*
X108354512Y-64599117D01*
X115740000Y-64599117D01*
X115740000Y-64940883D01*
X115806675Y-65276081D01*
X115937463Y-65591831D01*
X116127337Y-65875998D01*
X116369002Y-66117663D01*
X116653169Y-66307537D01*
X116968919Y-66438325D01*
X117304117Y-66505000D01*
X117645883Y-66505000D01*
X117981081Y-66438325D01*
X118296831Y-66307537D01*
X118580998Y-66117663D01*
X118822663Y-65875998D01*
X119012537Y-65591831D01*
X119143325Y-65276081D01*
X119145794Y-65263665D01*
X138900000Y-65263665D01*
X138900000Y-65546335D01*
X138955147Y-65823574D01*
X139063320Y-66084727D01*
X139220363Y-66319759D01*
X139420241Y-66519637D01*
X139655273Y-66676680D01*
X139916426Y-66784853D01*
X140193665Y-66840000D01*
X140476335Y-66840000D01*
X140753574Y-66784853D01*
X141014727Y-66676680D01*
X141249759Y-66519637D01*
X141449637Y-66319759D01*
X141606680Y-66084727D01*
X141714853Y-65823574D01*
X141770000Y-65546335D01*
X141770000Y-65263665D01*
X141714853Y-64986426D01*
X141606680Y-64725273D01*
X141449637Y-64490241D01*
X141249759Y-64290363D01*
X141014727Y-64133320D01*
X140753574Y-64025147D01*
X140476335Y-63970000D01*
X140193665Y-63970000D01*
X139916426Y-64025147D01*
X139655273Y-64133320D01*
X139420241Y-64290363D01*
X139220363Y-64490241D01*
X139063320Y-64725273D01*
X138955147Y-64986426D01*
X138900000Y-65263665D01*
X119145794Y-65263665D01*
X119210000Y-64940883D01*
X119210000Y-64599117D01*
X119143325Y-64263919D01*
X119012537Y-63948169D01*
X118822663Y-63664002D01*
X118580998Y-63422337D01*
X118296831Y-63232463D01*
X117981081Y-63101675D01*
X117645883Y-63035000D01*
X117304117Y-63035000D01*
X116968919Y-63101675D01*
X116653169Y-63232463D01*
X116369002Y-63422337D01*
X116127337Y-63664002D01*
X115937463Y-63948169D01*
X115806675Y-64263919D01*
X115740000Y-64599117D01*
X108354512Y-64599117D01*
X107315000Y-63559605D01*
X106216626Y-64657980D01*
X89363374Y-64657980D01*
X88265000Y-63559605D01*
X87166626Y-64657980D01*
X70313374Y-64657980D01*
X69215000Y-63559605D01*
X68116626Y-64657980D01*
X51562000Y-64657980D01*
X51562000Y-63434684D01*
X67371933Y-63434684D01*
X67418015Y-63793198D01*
X67533154Y-64135833D01*
X67652164Y-64358486D01*
X67937020Y-64478374D01*
X69035395Y-63380000D01*
X69394605Y-63380000D01*
X70492980Y-64478374D01*
X70777836Y-64358486D01*
X70938699Y-64034790D01*
X71033322Y-63685931D01*
X71050562Y-63434684D01*
X86421933Y-63434684D01*
X86468015Y-63793198D01*
X86583154Y-64135833D01*
X86702164Y-64358486D01*
X86987020Y-64478374D01*
X88085395Y-63380000D01*
X88444605Y-63380000D01*
X89542980Y-64478374D01*
X89827836Y-64358486D01*
X89988699Y-64034790D01*
X90083322Y-63685931D01*
X90100562Y-63434684D01*
X105471933Y-63434684D01*
X105518015Y-63793198D01*
X105633154Y-64135833D01*
X105752164Y-64358486D01*
X106037020Y-64478374D01*
X107135395Y-63380000D01*
X107494605Y-63380000D01*
X108592980Y-64478374D01*
X108877836Y-64358486D01*
X109038699Y-64034790D01*
X109133322Y-63685931D01*
X109158067Y-63325316D01*
X109111985Y-62966802D01*
X108996846Y-62624167D01*
X108877836Y-62401514D01*
X108592980Y-62281626D01*
X107494605Y-63380000D01*
X107135395Y-63380000D01*
X106037020Y-62281626D01*
X105752164Y-62401514D01*
X105591301Y-62725210D01*
X105496678Y-63074069D01*
X105471933Y-63434684D01*
X90100562Y-63434684D01*
X90108067Y-63325316D01*
X90061985Y-62966802D01*
X89946846Y-62624167D01*
X89827836Y-62401514D01*
X89542980Y-62281626D01*
X88444605Y-63380000D01*
X88085395Y-63380000D01*
X86987020Y-62281626D01*
X86702164Y-62401514D01*
X86541301Y-62725210D01*
X86446678Y-63074069D01*
X86421933Y-63434684D01*
X71050562Y-63434684D01*
X71058067Y-63325316D01*
X71011985Y-62966802D01*
X70896846Y-62624167D01*
X70777836Y-62401514D01*
X70492980Y-62281626D01*
X69394605Y-63380000D01*
X69035395Y-63380000D01*
X67937020Y-62281626D01*
X67652164Y-62401514D01*
X67491301Y-62725210D01*
X67396678Y-63074069D01*
X67371933Y-63434684D01*
X51562000Y-63434684D01*
X51562000Y-62102020D01*
X68116626Y-62102020D01*
X69215000Y-63200395D01*
X70313374Y-62102020D01*
X87166626Y-62102020D01*
X88265000Y-63200395D01*
X89363374Y-62102020D01*
X106216626Y-62102020D01*
X107315000Y-63200395D01*
X108285394Y-62230000D01*
X119642319Y-62230000D01*
X119672970Y-62541204D01*
X119763745Y-62840449D01*
X119911155Y-63116235D01*
X120109537Y-63357963D01*
X120351265Y-63556345D01*
X120627051Y-63703755D01*
X120926296Y-63794530D01*
X121159514Y-63817500D01*
X121410486Y-63817500D01*
X121643704Y-63794530D01*
X121942949Y-63703755D01*
X122218735Y-63556345D01*
X122460463Y-63357963D01*
X122658845Y-63116235D01*
X122806255Y-62840449D01*
X122897030Y-62541204D01*
X122927681Y-62230000D01*
X122897030Y-61918796D01*
X122806255Y-61619551D01*
X122658845Y-61343765D01*
X122460463Y-61102037D01*
X122281101Y-60954837D01*
X122466315Y-60799437D01*
X122660969Y-60556923D01*
X122804571Y-60281094D01*
X122875563Y-60062980D01*
X122755594Y-59817000D01*
X121412000Y-59817000D01*
X121412000Y-59837000D01*
X121158000Y-59837000D01*
X121158000Y-59817000D01*
X119814406Y-59817000D01*
X119694437Y-60062980D01*
X119765429Y-60281094D01*
X119909031Y-60556923D01*
X120103685Y-60799437D01*
X120288899Y-60954837D01*
X120109537Y-61102037D01*
X119911155Y-61343765D01*
X119763745Y-61619551D01*
X119672970Y-61918796D01*
X119642319Y-62230000D01*
X108285394Y-62230000D01*
X108413374Y-62102020D01*
X108293486Y-61817164D01*
X107969790Y-61656301D01*
X107620931Y-61561678D01*
X107260316Y-61536933D01*
X106901802Y-61583015D01*
X106559167Y-61698154D01*
X106336514Y-61817164D01*
X106216626Y-62102020D01*
X89363374Y-62102020D01*
X89243486Y-61817164D01*
X88919790Y-61656301D01*
X88570931Y-61561678D01*
X88210316Y-61536933D01*
X87851802Y-61583015D01*
X87509167Y-61698154D01*
X87286514Y-61817164D01*
X87166626Y-62102020D01*
X70313374Y-62102020D01*
X70193486Y-61817164D01*
X69869790Y-61656301D01*
X69520931Y-61561678D01*
X69160316Y-61536933D01*
X68801802Y-61583015D01*
X68459167Y-61698154D01*
X68236514Y-61817164D01*
X68116626Y-62102020D01*
X51562000Y-62102020D01*
X51562000Y-55024872D01*
X53010000Y-55024872D01*
X53010000Y-55465128D01*
X53095890Y-55896925D01*
X53264369Y-56303669D01*
X53508962Y-56669729D01*
X53820271Y-56981038D01*
X54186331Y-57225631D01*
X54593075Y-57394110D01*
X55024872Y-57480000D01*
X55465128Y-57480000D01*
X55896925Y-57394110D01*
X56303669Y-57225631D01*
X56669729Y-56981038D01*
X56981038Y-56669729D01*
X57225631Y-56303669D01*
X57394110Y-55896925D01*
X57480000Y-55465128D01*
X57480000Y-55024872D01*
X57411401Y-54680000D01*
X67376928Y-54680000D01*
X67376928Y-57080000D01*
X67389188Y-57204482D01*
X67425498Y-57324180D01*
X67484463Y-57434494D01*
X67563815Y-57531185D01*
X67660506Y-57610537D01*
X67770820Y-57669502D01*
X67890518Y-57705812D01*
X68015000Y-57718072D01*
X70415000Y-57718072D01*
X70539482Y-57705812D01*
X70659180Y-57669502D01*
X70769494Y-57610537D01*
X70866185Y-57531185D01*
X70945537Y-57434494D01*
X71004502Y-57324180D01*
X71040812Y-57204482D01*
X71053072Y-57080000D01*
X71053072Y-54680000D01*
X86426928Y-54680000D01*
X86426928Y-57080000D01*
X86439188Y-57204482D01*
X86475498Y-57324180D01*
X86534463Y-57434494D01*
X86613815Y-57531185D01*
X86710506Y-57610537D01*
X86820820Y-57669502D01*
X86940518Y-57705812D01*
X87065000Y-57718072D01*
X89465000Y-57718072D01*
X89589482Y-57705812D01*
X89709180Y-57669502D01*
X89819494Y-57610537D01*
X89916185Y-57531185D01*
X89995537Y-57434494D01*
X90054502Y-57324180D01*
X90090812Y-57204482D01*
X90103072Y-57080000D01*
X90103072Y-54680000D01*
X105476928Y-54680000D01*
X105476928Y-57080000D01*
X105489188Y-57204482D01*
X105525498Y-57324180D01*
X105584463Y-57434494D01*
X105663815Y-57531185D01*
X105760506Y-57610537D01*
X105870820Y-57669502D01*
X105990518Y-57705812D01*
X106115000Y-57718072D01*
X108515000Y-57718072D01*
X108639482Y-57705812D01*
X108759180Y-57669502D01*
X108869494Y-57610537D01*
X108966185Y-57531185D01*
X109045537Y-57434494D01*
X109104502Y-57324180D01*
X109140812Y-57204482D01*
X109153072Y-57080000D01*
X109153072Y-54680000D01*
X109140812Y-54555518D01*
X109104502Y-54435820D01*
X109045537Y-54325506D01*
X108966185Y-54228815D01*
X108869494Y-54149463D01*
X108759180Y-54090498D01*
X108639482Y-54054188D01*
X108515000Y-54041928D01*
X106115000Y-54041928D01*
X105990518Y-54054188D01*
X105870820Y-54090498D01*
X105760506Y-54149463D01*
X105663815Y-54228815D01*
X105584463Y-54325506D01*
X105525498Y-54435820D01*
X105489188Y-54555518D01*
X105476928Y-54680000D01*
X90103072Y-54680000D01*
X90090812Y-54555518D01*
X90054502Y-54435820D01*
X89995537Y-54325506D01*
X89916185Y-54228815D01*
X89819494Y-54149463D01*
X89709180Y-54090498D01*
X89589482Y-54054188D01*
X89465000Y-54041928D01*
X87065000Y-54041928D01*
X86940518Y-54054188D01*
X86820820Y-54090498D01*
X86710506Y-54149463D01*
X86613815Y-54228815D01*
X86534463Y-54325506D01*
X86475498Y-54435820D01*
X86439188Y-54555518D01*
X86426928Y-54680000D01*
X71053072Y-54680000D01*
X71040812Y-54555518D01*
X71004502Y-54435820D01*
X70945537Y-54325506D01*
X70866185Y-54228815D01*
X70769494Y-54149463D01*
X70659180Y-54090498D01*
X70539482Y-54054188D01*
X70415000Y-54041928D01*
X68015000Y-54041928D01*
X67890518Y-54054188D01*
X67770820Y-54090498D01*
X67660506Y-54149463D01*
X67563815Y-54228815D01*
X67484463Y-54325506D01*
X67425498Y-54435820D01*
X67389188Y-54555518D01*
X67376928Y-54680000D01*
X57411401Y-54680000D01*
X57394110Y-54593075D01*
X57225631Y-54186331D01*
X56981038Y-53820271D01*
X56670767Y-53510000D01*
X115736928Y-53510000D01*
X115736928Y-55710000D01*
X115749188Y-55834482D01*
X115785498Y-55954180D01*
X115844463Y-56064494D01*
X115923815Y-56161185D01*
X116020506Y-56240537D01*
X116130820Y-56299502D01*
X116250518Y-56335812D01*
X116375000Y-56348072D01*
X118575000Y-56348072D01*
X118699482Y-56335812D01*
X118819180Y-56299502D01*
X118929494Y-56240537D01*
X118981934Y-56197500D01*
X119646928Y-56197500D01*
X119646928Y-58102500D01*
X119659188Y-58226982D01*
X119695498Y-58346680D01*
X119754463Y-58456994D01*
X119833815Y-58553685D01*
X119930506Y-58633037D01*
X120022219Y-58682059D01*
X119909031Y-58823077D01*
X119765429Y-59098906D01*
X119694437Y-59317020D01*
X119814406Y-59563000D01*
X121158000Y-59563000D01*
X121158000Y-59543000D01*
X121412000Y-59543000D01*
X121412000Y-59563000D01*
X122755594Y-59563000D01*
X122875563Y-59317020D01*
X122804571Y-59098906D01*
X122660969Y-58823077D01*
X122547781Y-58682059D01*
X122639494Y-58633037D01*
X122736185Y-58553685D01*
X122815537Y-58456994D01*
X122874502Y-58346680D01*
X122910812Y-58226982D01*
X122923072Y-58102500D01*
X122923072Y-57955000D01*
X144946928Y-57955000D01*
X144946928Y-60155000D01*
X144959188Y-60279482D01*
X144995498Y-60399180D01*
X145054463Y-60509494D01*
X145133815Y-60606185D01*
X145230506Y-60685537D01*
X145340820Y-60744502D01*
X145460518Y-60780812D01*
X145585000Y-60793072D01*
X147785000Y-60793072D01*
X147909482Y-60780812D01*
X148029180Y-60744502D01*
X148139494Y-60685537D01*
X148236185Y-60606185D01*
X148315537Y-60509494D01*
X148374502Y-60399180D01*
X148410812Y-60279482D01*
X148423072Y-60155000D01*
X148423072Y-57955000D01*
X148410812Y-57830518D01*
X148374502Y-57710820D01*
X148315537Y-57600506D01*
X148236185Y-57503815D01*
X148139494Y-57424463D01*
X148029180Y-57365498D01*
X147909482Y-57329188D01*
X147785000Y-57316928D01*
X145585000Y-57316928D01*
X145460518Y-57329188D01*
X145340820Y-57365498D01*
X145230506Y-57424463D01*
X145133815Y-57503815D01*
X145054463Y-57600506D01*
X144995498Y-57710820D01*
X144959188Y-57830518D01*
X144946928Y-57955000D01*
X122923072Y-57955000D01*
X122923072Y-56197500D01*
X122910812Y-56073018D01*
X122874502Y-55953320D01*
X122815537Y-55843006D01*
X122736185Y-55746315D01*
X122639494Y-55666963D01*
X122529180Y-55607998D01*
X122409482Y-55571688D01*
X122285000Y-55559428D01*
X120285000Y-55559428D01*
X120160518Y-55571688D01*
X120040820Y-55607998D01*
X119930506Y-55666963D01*
X119833815Y-55746315D01*
X119754463Y-55843006D01*
X119695498Y-55953320D01*
X119659188Y-56073018D01*
X119646928Y-56197500D01*
X118981934Y-56197500D01*
X119026185Y-56161185D01*
X119105537Y-56064494D01*
X119164502Y-55954180D01*
X119200812Y-55834482D01*
X119213072Y-55710000D01*
X119213072Y-53697702D01*
X139521903Y-53697702D01*
X139593486Y-53941671D01*
X139848996Y-54062571D01*
X140123184Y-54131300D01*
X140405512Y-54145217D01*
X140685130Y-54103787D01*
X140951292Y-54008603D01*
X141076514Y-53941671D01*
X141148097Y-53697702D01*
X140335000Y-52884605D01*
X139521903Y-53697702D01*
X119213072Y-53697702D01*
X119213072Y-53510000D01*
X119200812Y-53385518D01*
X119164502Y-53265820D01*
X119105537Y-53155506D01*
X119026185Y-53058815D01*
X118929494Y-52979463D01*
X118819180Y-52920498D01*
X118699482Y-52884188D01*
X118575000Y-52871928D01*
X116375000Y-52871928D01*
X116250518Y-52884188D01*
X116130820Y-52920498D01*
X116020506Y-52979463D01*
X115923815Y-53058815D01*
X115844463Y-53155506D01*
X115785498Y-53265820D01*
X115749188Y-53385518D01*
X115736928Y-53510000D01*
X56670767Y-53510000D01*
X56669729Y-53508962D01*
X56303669Y-53264369D01*
X55896925Y-53095890D01*
X55465128Y-53010000D01*
X55024872Y-53010000D01*
X54593075Y-53095890D01*
X54186331Y-53264369D01*
X53820271Y-53508962D01*
X53508962Y-53820271D01*
X53264369Y-54186331D01*
X53095890Y-54593075D01*
X53010000Y-55024872D01*
X51562000Y-55024872D01*
X51562000Y-52775512D01*
X138894783Y-52775512D01*
X138936213Y-53055130D01*
X139031397Y-53321292D01*
X139098329Y-53446514D01*
X139342298Y-53518097D01*
X140155395Y-52705000D01*
X140514605Y-52705000D01*
X141327702Y-53518097D01*
X141571671Y-53446514D01*
X141633657Y-53315512D01*
X145244783Y-53315512D01*
X145286213Y-53595130D01*
X145381397Y-53861292D01*
X145446616Y-53983309D01*
X145433815Y-53993815D01*
X145354463Y-54090506D01*
X145295498Y-54200820D01*
X145259188Y-54320518D01*
X145246928Y-54445000D01*
X145246928Y-56045000D01*
X145259188Y-56169482D01*
X145295498Y-56289180D01*
X145354463Y-56399494D01*
X145433815Y-56496185D01*
X145530506Y-56575537D01*
X145640820Y-56634502D01*
X145760518Y-56670812D01*
X145885000Y-56683072D01*
X147485000Y-56683072D01*
X147609482Y-56670812D01*
X147729180Y-56634502D01*
X147839494Y-56575537D01*
X147936185Y-56496185D01*
X148015537Y-56399494D01*
X148074502Y-56289180D01*
X148110812Y-56169482D01*
X148123072Y-56045000D01*
X148123072Y-55024872D01*
X154610000Y-55024872D01*
X154610000Y-55465128D01*
X154695890Y-55896925D01*
X154864369Y-56303669D01*
X155108962Y-56669729D01*
X155420271Y-56981038D01*
X155786331Y-57225631D01*
X156193075Y-57394110D01*
X156624872Y-57480000D01*
X157065128Y-57480000D01*
X157496925Y-57394110D01*
X157903669Y-57225631D01*
X158269729Y-56981038D01*
X158581038Y-56669729D01*
X158825631Y-56303669D01*
X158994110Y-55896925D01*
X159080000Y-55465128D01*
X159080000Y-55024872D01*
X158994110Y-54593075D01*
X158825631Y-54186331D01*
X158581038Y-53820271D01*
X158269729Y-53508962D01*
X157903669Y-53264369D01*
X157496925Y-53095890D01*
X157065128Y-53010000D01*
X156624872Y-53010000D01*
X156193075Y-53095890D01*
X155786331Y-53264369D01*
X155420271Y-53508962D01*
X155108962Y-53820271D01*
X154864369Y-54186331D01*
X154695890Y-54593075D01*
X154610000Y-55024872D01*
X148123072Y-55024872D01*
X148123072Y-54445000D01*
X148110812Y-54320518D01*
X148074502Y-54200820D01*
X148015537Y-54090506D01*
X147936185Y-53993815D01*
X147923242Y-53983193D01*
X148042571Y-53731004D01*
X148111300Y-53456816D01*
X148125217Y-53174488D01*
X148083787Y-52894870D01*
X147988603Y-52628708D01*
X147921671Y-52503486D01*
X147677702Y-52431903D01*
X146864605Y-53245000D01*
X146878748Y-53259143D01*
X146699143Y-53438748D01*
X146685000Y-53424605D01*
X146670858Y-53438748D01*
X146491253Y-53259143D01*
X146505395Y-53245000D01*
X145692298Y-52431903D01*
X145448329Y-52503486D01*
X145327429Y-52758996D01*
X145258700Y-53033184D01*
X145244783Y-53315512D01*
X141633657Y-53315512D01*
X141692571Y-53191004D01*
X141761300Y-52916816D01*
X141775217Y-52634488D01*
X141733787Y-52354870D01*
X141697106Y-52252298D01*
X145871903Y-52252298D01*
X146685000Y-53065395D01*
X147498097Y-52252298D01*
X147426514Y-52008329D01*
X147171004Y-51887429D01*
X146896816Y-51818700D01*
X146614488Y-51804783D01*
X146334870Y-51846213D01*
X146068708Y-51941397D01*
X145943486Y-52008329D01*
X145871903Y-52252298D01*
X141697106Y-52252298D01*
X141638603Y-52088708D01*
X141571671Y-51963486D01*
X141327702Y-51891903D01*
X140514605Y-52705000D01*
X140155395Y-52705000D01*
X139342298Y-51891903D01*
X139098329Y-51963486D01*
X138977429Y-52218996D01*
X138908700Y-52493184D01*
X138894783Y-52775512D01*
X51562000Y-52775512D01*
X51562000Y-51562000D01*
X139566002Y-51562000D01*
X139521903Y-51712298D01*
G04 #@! TA.AperFunction,Conductor*
D27*
G36*
X139521903Y-51712298D02*
G01*
X140335000Y-52525395D01*
X141148097Y-51712298D01*
X141103998Y-51562000D01*
X160528000Y-51562000D01*
X160528000Y-93218000D01*
X51562000Y-93218000D01*
X51562000Y-92240000D01*
X138896928Y-92240000D01*
X138909188Y-92364482D01*
X138945498Y-92484180D01*
X139004463Y-92594494D01*
X139083815Y-92691185D01*
X139180506Y-92770537D01*
X139290820Y-92829502D01*
X139410518Y-92865812D01*
X139535000Y-92878072D01*
X140049250Y-92875000D01*
X140208000Y-92716250D01*
X140208000Y-91567000D01*
X140462000Y-91567000D01*
X140462000Y-92716250D01*
X140620750Y-92875000D01*
X141135000Y-92878072D01*
X141259482Y-92865812D01*
X141379180Y-92829502D01*
X141489494Y-92770537D01*
X141586185Y-92691185D01*
X141665537Y-92594494D01*
X141724502Y-92484180D01*
X141760812Y-92364482D01*
X141763223Y-92340000D01*
X145146928Y-92340000D01*
X145159188Y-92464482D01*
X145195498Y-92584180D01*
X145254463Y-92694494D01*
X145333815Y-92791185D01*
X145430506Y-92870537D01*
X145540820Y-92929502D01*
X145660518Y-92965812D01*
X145785000Y-92978072D01*
X146399250Y-92975000D01*
X146558000Y-92816250D01*
X146558000Y-91567000D01*
X146812000Y-91567000D01*
X146812000Y-92816250D01*
X146970750Y-92975000D01*
X147585000Y-92978072D01*
X147709482Y-92965812D01*
X147829180Y-92929502D01*
X147939494Y-92870537D01*
X148036185Y-92791185D01*
X148115537Y-92694494D01*
X148174502Y-92584180D01*
X148210812Y-92464482D01*
X148223072Y-92340000D01*
X148220000Y-91725750D01*
X148061250Y-91567000D01*
X146812000Y-91567000D01*
X146558000Y-91567000D01*
X145308750Y-91567000D01*
X145150000Y-91725750D01*
X145146928Y-92340000D01*
X141763223Y-92340000D01*
X141773072Y-92240000D01*
X141770000Y-91725750D01*
X141611250Y-91567000D01*
X140462000Y-91567000D01*
X140208000Y-91567000D01*
X139058750Y-91567000D01*
X138900000Y-91725750D01*
X138896928Y-92240000D01*
X51562000Y-92240000D01*
X51562000Y-89314872D01*
X53010000Y-89314872D01*
X53010000Y-89755128D01*
X53095890Y-90186925D01*
X53264369Y-90593669D01*
X53508962Y-90959729D01*
X53820271Y-91271038D01*
X54186331Y-91515631D01*
X54593075Y-91684110D01*
X55024872Y-91770000D01*
X55465128Y-91770000D01*
X55896925Y-91684110D01*
X56303669Y-91515631D01*
X56669729Y-91271038D01*
X56981038Y-90959729D01*
X57225631Y-90593669D01*
X57394110Y-90186925D01*
X57480000Y-89755128D01*
X57480000Y-89314872D01*
X57394110Y-88883075D01*
X57276554Y-88599268D01*
X67380000Y-88599268D01*
X67380000Y-88960732D01*
X67450518Y-89315250D01*
X67588844Y-89649199D01*
X67789662Y-89949744D01*
X68045256Y-90205338D01*
X68345801Y-90406156D01*
X68679750Y-90544482D01*
X69034268Y-90615000D01*
X69395732Y-90615000D01*
X69750250Y-90544482D01*
X70084199Y-90406156D01*
X70384744Y-90205338D01*
X70640338Y-89949744D01*
X70841156Y-89649199D01*
X70979482Y-89315250D01*
X71050000Y-88960732D01*
X71050000Y-88599268D01*
X86430000Y-88599268D01*
X86430000Y-88960732D01*
X86500518Y-89315250D01*
X86638844Y-89649199D01*
X86839662Y-89949744D01*
X87095256Y-90205338D01*
X87395801Y-90406156D01*
X87729750Y-90544482D01*
X88084268Y-90615000D01*
X88445732Y-90615000D01*
X88800250Y-90544482D01*
X89134199Y-90406156D01*
X89434744Y-90205338D01*
X89690338Y-89949744D01*
X89891156Y-89649199D01*
X90029482Y-89315250D01*
X90100000Y-88960732D01*
X90100000Y-88599268D01*
X105480000Y-88599268D01*
X105480000Y-88960732D01*
X105550518Y-89315250D01*
X105688844Y-89649199D01*
X105889662Y-89949744D01*
X106145256Y-90205338D01*
X106445801Y-90406156D01*
X106779750Y-90544482D01*
X107134268Y-90615000D01*
X107495732Y-90615000D01*
X107850250Y-90544482D01*
X108184199Y-90406156D01*
X108484744Y-90205338D01*
X108740338Y-89949744D01*
X108941156Y-89649199D01*
X109079482Y-89315250D01*
X109128265Y-89070000D01*
X115736928Y-89070000D01*
X115736928Y-91270000D01*
X115749188Y-91394482D01*
X115785498Y-91514180D01*
X115844463Y-91624494D01*
X115923815Y-91721185D01*
X116020506Y-91800537D01*
X116130820Y-91859502D01*
X116250518Y-91895812D01*
X116375000Y-91908072D01*
X118575000Y-91908072D01*
X118699482Y-91895812D01*
X118819180Y-91859502D01*
X118929494Y-91800537D01*
X119026185Y-91721185D01*
X119105537Y-91624494D01*
X119164502Y-91514180D01*
X119200812Y-91394482D01*
X119213072Y-91270000D01*
X119213072Y-90640000D01*
X138896928Y-90640000D01*
X138900000Y-91154250D01*
X139058750Y-91313000D01*
X140208000Y-91313000D01*
X140208000Y-91293000D01*
X140462000Y-91293000D01*
X140462000Y-91313000D01*
X141611250Y-91313000D01*
X141770000Y-91154250D01*
X141773072Y-90640000D01*
X141763224Y-90540000D01*
X145146928Y-90540000D01*
X145150000Y-91154250D01*
X145308750Y-91313000D01*
X146558000Y-91313000D01*
X146558000Y-91293000D01*
X146812000Y-91293000D01*
X146812000Y-91313000D01*
X148061250Y-91313000D01*
X148220000Y-91154250D01*
X148223072Y-90540000D01*
X148210812Y-90415518D01*
X148174502Y-90295820D01*
X148115537Y-90185506D01*
X148036185Y-90088815D01*
X147939494Y-90009463D01*
X147829180Y-89950498D01*
X147810873Y-89944944D01*
X147877312Y-89878505D01*
X148045299Y-89627095D01*
X148161011Y-89347743D01*
X148167549Y-89314872D01*
X154610000Y-89314872D01*
X154610000Y-89755128D01*
X154695890Y-90186925D01*
X154864369Y-90593669D01*
X155108962Y-90959729D01*
X155420271Y-91271038D01*
X155786331Y-91515631D01*
X156193075Y-91684110D01*
X156624872Y-91770000D01*
X157065128Y-91770000D01*
X157496925Y-91684110D01*
X157903669Y-91515631D01*
X158269729Y-91271038D01*
X158581038Y-90959729D01*
X158825631Y-90593669D01*
X158994110Y-90186925D01*
X159080000Y-89755128D01*
X159080000Y-89314872D01*
X158994110Y-88883075D01*
X158825631Y-88476331D01*
X158581038Y-88110271D01*
X158269729Y-87798962D01*
X157903669Y-87554369D01*
X157496925Y-87385890D01*
X157065128Y-87300000D01*
X156624872Y-87300000D01*
X156193075Y-87385890D01*
X155786331Y-87554369D01*
X155420271Y-87798962D01*
X155108962Y-88110271D01*
X154864369Y-88476331D01*
X154695890Y-88883075D01*
X154610000Y-89314872D01*
X148167549Y-89314872D01*
X148220000Y-89051184D01*
X148220000Y-88748816D01*
X148161011Y-88452257D01*
X148045299Y-88172905D01*
X147877312Y-87921495D01*
X147663505Y-87707688D01*
X147412095Y-87539701D01*
X147132743Y-87423989D01*
X146836184Y-87365000D01*
X146533816Y-87365000D01*
X146237257Y-87423989D01*
X145957905Y-87539701D01*
X145706495Y-87707688D01*
X145492688Y-87921495D01*
X145324701Y-88172905D01*
X145208989Y-88452257D01*
X145150000Y-88748816D01*
X145150000Y-89051184D01*
X145208989Y-89347743D01*
X145324701Y-89627095D01*
X145492688Y-89878505D01*
X145559127Y-89944944D01*
X145540820Y-89950498D01*
X145430506Y-90009463D01*
X145333815Y-90088815D01*
X145254463Y-90185506D01*
X145195498Y-90295820D01*
X145159188Y-90415518D01*
X145146928Y-90540000D01*
X141763224Y-90540000D01*
X141760812Y-90515518D01*
X141724502Y-90395820D01*
X141665537Y-90285506D01*
X141586185Y-90188815D01*
X141569607Y-90175210D01*
X141606680Y-90119727D01*
X141714853Y-89858574D01*
X141770000Y-89581335D01*
X141770000Y-89298665D01*
X141714853Y-89021426D01*
X141606680Y-88760273D01*
X141449637Y-88525241D01*
X141249759Y-88325363D01*
X141014727Y-88168320D01*
X140753574Y-88060147D01*
X140476335Y-88005000D01*
X140193665Y-88005000D01*
X139916426Y-88060147D01*
X139655273Y-88168320D01*
X139420241Y-88325363D01*
X139220363Y-88525241D01*
X139063320Y-88760273D01*
X138955147Y-89021426D01*
X138900000Y-89298665D01*
X138900000Y-89581335D01*
X138955147Y-89858574D01*
X139063320Y-90119727D01*
X139100393Y-90175210D01*
X139083815Y-90188815D01*
X139004463Y-90285506D01*
X138945498Y-90395820D01*
X138909188Y-90515518D01*
X138896928Y-90640000D01*
X119213072Y-90640000D01*
X119213072Y-89070000D01*
X119200812Y-88945518D01*
X119164502Y-88825820D01*
X119105537Y-88715506D01*
X119026185Y-88618815D01*
X118929494Y-88539463D01*
X118819180Y-88480498D01*
X118699482Y-88444188D01*
X118575000Y-88431928D01*
X116375000Y-88431928D01*
X116250518Y-88444188D01*
X116130820Y-88480498D01*
X116020506Y-88539463D01*
X115923815Y-88618815D01*
X115844463Y-88715506D01*
X115785498Y-88825820D01*
X115749188Y-88945518D01*
X115736928Y-89070000D01*
X109128265Y-89070000D01*
X109150000Y-88960732D01*
X109150000Y-88599268D01*
X109079482Y-88244750D01*
X108941156Y-87910801D01*
X108740338Y-87610256D01*
X108484744Y-87354662D01*
X108184199Y-87153844D01*
X107850250Y-87015518D01*
X107495732Y-86945000D01*
X107134268Y-86945000D01*
X106779750Y-87015518D01*
X106445801Y-87153844D01*
X106145256Y-87354662D01*
X105889662Y-87610256D01*
X105688844Y-87910801D01*
X105550518Y-88244750D01*
X105480000Y-88599268D01*
X90100000Y-88599268D01*
X90029482Y-88244750D01*
X89891156Y-87910801D01*
X89690338Y-87610256D01*
X89434744Y-87354662D01*
X89134199Y-87153844D01*
X88800250Y-87015518D01*
X88445732Y-86945000D01*
X88084268Y-86945000D01*
X87729750Y-87015518D01*
X87395801Y-87153844D01*
X87095256Y-87354662D01*
X86839662Y-87610256D01*
X86638844Y-87910801D01*
X86500518Y-88244750D01*
X86430000Y-88599268D01*
X71050000Y-88599268D01*
X70979482Y-88244750D01*
X70841156Y-87910801D01*
X70640338Y-87610256D01*
X70384744Y-87354662D01*
X70084199Y-87153844D01*
X69750250Y-87015518D01*
X69395732Y-86945000D01*
X69034268Y-86945000D01*
X68679750Y-87015518D01*
X68345801Y-87153844D01*
X68045256Y-87354662D01*
X67789662Y-87610256D01*
X67588844Y-87910801D01*
X67450518Y-88244750D01*
X67380000Y-88599268D01*
X57276554Y-88599268D01*
X57225631Y-88476331D01*
X56981038Y-88110271D01*
X56669729Y-87798962D01*
X56303669Y-87554369D01*
X55896925Y-87385890D01*
X55465128Y-87300000D01*
X55024872Y-87300000D01*
X54593075Y-87385890D01*
X54186331Y-87554369D01*
X53820271Y-87798962D01*
X53508962Y-88110271D01*
X53264369Y-88476331D01*
X53095890Y-88883075D01*
X53010000Y-89314872D01*
X51562000Y-89314872D01*
X51562000Y-85090000D01*
X119642319Y-85090000D01*
X119672970Y-85401204D01*
X119763745Y-85700449D01*
X119911155Y-85976235D01*
X120109537Y-86217963D01*
X120282609Y-86360000D01*
X120109537Y-86502037D01*
X119911155Y-86743765D01*
X119763745Y-87019551D01*
X119672970Y-87318796D01*
X119642319Y-87630000D01*
X119672970Y-87941204D01*
X119763745Y-88240449D01*
X119911155Y-88516235D01*
X120109537Y-88757963D01*
X120351265Y-88956345D01*
X120627051Y-89103755D01*
X120926296Y-89194530D01*
X121159514Y-89217500D01*
X121410486Y-89217500D01*
X121643704Y-89194530D01*
X121942949Y-89103755D01*
X122218735Y-88956345D01*
X122460463Y-88757963D01*
X122658845Y-88516235D01*
X122806255Y-88240449D01*
X122897030Y-87941204D01*
X122927681Y-87630000D01*
X122897030Y-87318796D01*
X122806255Y-87019551D01*
X122658845Y-86743765D01*
X122460463Y-86502037D01*
X122287391Y-86360000D01*
X122460463Y-86217963D01*
X122658845Y-85976235D01*
X122806255Y-85700449D01*
X122850644Y-85554117D01*
X138600000Y-85554117D01*
X138600000Y-85895883D01*
X138666675Y-86231081D01*
X138797463Y-86546831D01*
X138987337Y-86830998D01*
X139229002Y-87072663D01*
X139513169Y-87262537D01*
X139828919Y-87393325D01*
X140164117Y-87460000D01*
X140505883Y-87460000D01*
X140841081Y-87393325D01*
X141156831Y-87262537D01*
X141440998Y-87072663D01*
X141682663Y-86830998D01*
X141872537Y-86546831D01*
X142003325Y-86231081D01*
X142070000Y-85895883D01*
X142070000Y-85554117D01*
X142003325Y-85218919D01*
X141891383Y-84948665D01*
X145250000Y-84948665D01*
X145250000Y-85231335D01*
X145305147Y-85508574D01*
X145413320Y-85769727D01*
X145570363Y-86004759D01*
X145770241Y-86204637D01*
X146005273Y-86361680D01*
X146266426Y-86469853D01*
X146543665Y-86525000D01*
X146826335Y-86525000D01*
X147103574Y-86469853D01*
X147364727Y-86361680D01*
X147599759Y-86204637D01*
X147799637Y-86004759D01*
X147956680Y-85769727D01*
X148064853Y-85508574D01*
X148120000Y-85231335D01*
X148120000Y-84948665D01*
X148064853Y-84671426D01*
X147956680Y-84410273D01*
X147799637Y-84175241D01*
X147599759Y-83975363D01*
X147364727Y-83818320D01*
X147103574Y-83710147D01*
X146826335Y-83655000D01*
X146543665Y-83655000D01*
X146266426Y-83710147D01*
X146005273Y-83818320D01*
X145770241Y-83975363D01*
X145570363Y-84175241D01*
X145413320Y-84410273D01*
X145305147Y-84671426D01*
X145250000Y-84948665D01*
X141891383Y-84948665D01*
X141872537Y-84903169D01*
X141682663Y-84619002D01*
X141440998Y-84377337D01*
X141156831Y-84187463D01*
X140841081Y-84056675D01*
X140505883Y-83990000D01*
X140164117Y-83990000D01*
X139828919Y-84056675D01*
X139513169Y-84187463D01*
X139229002Y-84377337D01*
X138987337Y-84619002D01*
X138797463Y-84903169D01*
X138666675Y-85218919D01*
X138600000Y-85554117D01*
X122850644Y-85554117D01*
X122897030Y-85401204D01*
X122927681Y-85090000D01*
X122897030Y-84778796D01*
X122806255Y-84479551D01*
X122658845Y-84203765D01*
X122555554Y-84077905D01*
X122639494Y-84033037D01*
X122736185Y-83953685D01*
X122815537Y-83856994D01*
X122874502Y-83746680D01*
X122910812Y-83626982D01*
X122923072Y-83502500D01*
X122920000Y-82835750D01*
X122761250Y-82677000D01*
X121412000Y-82677000D01*
X121412000Y-82697000D01*
X121158000Y-82697000D01*
X121158000Y-82677000D01*
X119808750Y-82677000D01*
X119650000Y-82835750D01*
X119646928Y-83502500D01*
X119659188Y-83626982D01*
X119695498Y-83746680D01*
X119754463Y-83856994D01*
X119833815Y-83953685D01*
X119930506Y-84033037D01*
X120014446Y-84077905D01*
X119911155Y-84203765D01*
X119763745Y-84479551D01*
X119672970Y-84778796D01*
X119642319Y-85090000D01*
X51562000Y-85090000D01*
X51562000Y-82480000D01*
X67376928Y-82480000D01*
X67389188Y-82604482D01*
X67425498Y-82724180D01*
X67484463Y-82834494D01*
X67563815Y-82931185D01*
X67660506Y-83010537D01*
X67770820Y-83069502D01*
X67890518Y-83105812D01*
X68015000Y-83118072D01*
X68929250Y-83115000D01*
X69088000Y-82956250D01*
X69088000Y-81407000D01*
X69342000Y-81407000D01*
X69342000Y-82956250D01*
X69500750Y-83115000D01*
X70415000Y-83118072D01*
X70539482Y-83105812D01*
X70659180Y-83069502D01*
X70769494Y-83010537D01*
X70866185Y-82931185D01*
X70945537Y-82834494D01*
X71004502Y-82724180D01*
X71040812Y-82604482D01*
X71053072Y-82480000D01*
X86426928Y-82480000D01*
X86439188Y-82604482D01*
X86475498Y-82724180D01*
X86534463Y-82834494D01*
X86613815Y-82931185D01*
X86710506Y-83010537D01*
X86820820Y-83069502D01*
X86940518Y-83105812D01*
X87065000Y-83118072D01*
X87979250Y-83115000D01*
X88138000Y-82956250D01*
X88138000Y-81407000D01*
X88392000Y-81407000D01*
X88392000Y-82956250D01*
X88550750Y-83115000D01*
X89465000Y-83118072D01*
X89589482Y-83105812D01*
X89709180Y-83069502D01*
X89819494Y-83010537D01*
X89916185Y-82931185D01*
X89995537Y-82834494D01*
X90054502Y-82724180D01*
X90090812Y-82604482D01*
X90103072Y-82480000D01*
X105476928Y-82480000D01*
X105489188Y-82604482D01*
X105525498Y-82724180D01*
X105584463Y-82834494D01*
X105663815Y-82931185D01*
X105760506Y-83010537D01*
X105870820Y-83069502D01*
X105990518Y-83105812D01*
X106115000Y-83118072D01*
X107029250Y-83115000D01*
X107188000Y-82956250D01*
X107188000Y-81407000D01*
X107442000Y-81407000D01*
X107442000Y-82956250D01*
X107600750Y-83115000D01*
X108515000Y-83118072D01*
X108639482Y-83105812D01*
X108759180Y-83069502D01*
X108869494Y-83010537D01*
X108966185Y-82931185D01*
X109045537Y-82834494D01*
X109104502Y-82724180D01*
X109140812Y-82604482D01*
X109153072Y-82480000D01*
X109150000Y-81565750D01*
X108991250Y-81407000D01*
X107442000Y-81407000D01*
X107188000Y-81407000D01*
X105638750Y-81407000D01*
X105480000Y-81565750D01*
X105476928Y-82480000D01*
X90103072Y-82480000D01*
X90100000Y-81565750D01*
X89941250Y-81407000D01*
X88392000Y-81407000D01*
X88138000Y-81407000D01*
X86588750Y-81407000D01*
X86430000Y-81565750D01*
X86426928Y-82480000D01*
X71053072Y-82480000D01*
X71050000Y-81565750D01*
X70891250Y-81407000D01*
X69342000Y-81407000D01*
X69088000Y-81407000D01*
X67538750Y-81407000D01*
X67380000Y-81565750D01*
X67376928Y-82480000D01*
X51562000Y-82480000D01*
X51562000Y-80080000D01*
X67376928Y-80080000D01*
X67380000Y-80994250D01*
X67538750Y-81153000D01*
X69088000Y-81153000D01*
X69088000Y-79603750D01*
X69342000Y-79603750D01*
X69342000Y-81153000D01*
X70891250Y-81153000D01*
X71050000Y-80994250D01*
X71053072Y-80080000D01*
X86426928Y-80080000D01*
X86430000Y-80994250D01*
X86588750Y-81153000D01*
X88138000Y-81153000D01*
X88138000Y-79603750D01*
X88392000Y-79603750D01*
X88392000Y-81153000D01*
X89941250Y-81153000D01*
X90100000Y-80994250D01*
X90103072Y-80080000D01*
X105476928Y-80080000D01*
X105480000Y-80994250D01*
X105638750Y-81153000D01*
X107188000Y-81153000D01*
X107188000Y-79603750D01*
X107442000Y-79603750D01*
X107442000Y-81153000D01*
X108991250Y-81153000D01*
X109150000Y-80994250D01*
X109153072Y-80080000D01*
X109140812Y-79955518D01*
X109105503Y-79839117D01*
X115740000Y-79839117D01*
X115740000Y-80180883D01*
X115806675Y-80516081D01*
X115937463Y-80831831D01*
X116127337Y-81115998D01*
X116369002Y-81357663D01*
X116653169Y-81547537D01*
X116968919Y-81678325D01*
X117304117Y-81745000D01*
X117645883Y-81745000D01*
X117981081Y-81678325D01*
X118176209Y-81597500D01*
X119646928Y-81597500D01*
X119650000Y-82264250D01*
X119808750Y-82423000D01*
X121158000Y-82423000D01*
X121158000Y-81121250D01*
X121412000Y-81121250D01*
X121412000Y-82423000D01*
X122761250Y-82423000D01*
X122920000Y-82264250D01*
X122923072Y-81597500D01*
X122910812Y-81473018D01*
X122874502Y-81353320D01*
X122815537Y-81243006D01*
X122736185Y-81146315D01*
X122639494Y-81066963D01*
X122529180Y-81007998D01*
X122409482Y-80971688D01*
X122285000Y-80959428D01*
X121570750Y-80962500D01*
X121412000Y-81121250D01*
X121158000Y-81121250D01*
X120999250Y-80962500D01*
X120285000Y-80959428D01*
X120160518Y-80971688D01*
X120040820Y-81007998D01*
X119930506Y-81066963D01*
X119833815Y-81146315D01*
X119754463Y-81243006D01*
X119695498Y-81353320D01*
X119659188Y-81473018D01*
X119646928Y-81597500D01*
X118176209Y-81597500D01*
X118296831Y-81547537D01*
X118580998Y-81357663D01*
X118822663Y-81115998D01*
X119012537Y-80831831D01*
X119143325Y-80516081D01*
X119210000Y-80180883D01*
X119210000Y-79839117D01*
X119143325Y-79503919D01*
X119012537Y-79188169D01*
X118822663Y-78904002D01*
X118580998Y-78662337D01*
X118296831Y-78472463D01*
X117981081Y-78341675D01*
X117645883Y-78275000D01*
X117304117Y-78275000D01*
X116968919Y-78341675D01*
X116653169Y-78472463D01*
X116369002Y-78662337D01*
X116127337Y-78904002D01*
X115937463Y-79188169D01*
X115806675Y-79503919D01*
X115740000Y-79839117D01*
X109105503Y-79839117D01*
X109104502Y-79835820D01*
X109045537Y-79725506D01*
X108966185Y-79628815D01*
X108869494Y-79549463D01*
X108759180Y-79490498D01*
X108639482Y-79454188D01*
X108515000Y-79441928D01*
X107600750Y-79445000D01*
X107442000Y-79603750D01*
X107188000Y-79603750D01*
X107029250Y-79445000D01*
X106115000Y-79441928D01*
X105990518Y-79454188D01*
X105870820Y-79490498D01*
X105760506Y-79549463D01*
X105663815Y-79628815D01*
X105584463Y-79725506D01*
X105525498Y-79835820D01*
X105489188Y-79955518D01*
X105476928Y-80080000D01*
X90103072Y-80080000D01*
X90090812Y-79955518D01*
X90054502Y-79835820D01*
X89995537Y-79725506D01*
X89916185Y-79628815D01*
X89819494Y-79549463D01*
X89709180Y-79490498D01*
X89589482Y-79454188D01*
X89465000Y-79441928D01*
X88550750Y-79445000D01*
X88392000Y-79603750D01*
X88138000Y-79603750D01*
X87979250Y-79445000D01*
X87065000Y-79441928D01*
X86940518Y-79454188D01*
X86820820Y-79490498D01*
X86710506Y-79549463D01*
X86613815Y-79628815D01*
X86534463Y-79725506D01*
X86475498Y-79835820D01*
X86439188Y-79955518D01*
X86426928Y-80080000D01*
X71053072Y-80080000D01*
X71040812Y-79955518D01*
X71004502Y-79835820D01*
X70945537Y-79725506D01*
X70866185Y-79628815D01*
X70769494Y-79549463D01*
X70659180Y-79490498D01*
X70539482Y-79454188D01*
X70415000Y-79441928D01*
X69500750Y-79445000D01*
X69342000Y-79603750D01*
X69088000Y-79603750D01*
X68929250Y-79445000D01*
X68015000Y-79441928D01*
X67890518Y-79454188D01*
X67770820Y-79490498D01*
X67660506Y-79549463D01*
X67563815Y-79628815D01*
X67484463Y-79725506D01*
X67425498Y-79835820D01*
X67389188Y-79955518D01*
X67376928Y-80080000D01*
X51562000Y-80080000D01*
X51562000Y-77323740D01*
X149645000Y-77323740D01*
X149645000Y-77616260D01*
X149702068Y-77903158D01*
X149814010Y-78173411D01*
X149976525Y-78416632D01*
X150183368Y-78623475D01*
X150426589Y-78785990D01*
X150696842Y-78897932D01*
X150983740Y-78955000D01*
X151276260Y-78955000D01*
X151563158Y-78897932D01*
X151833411Y-78785990D01*
X152076632Y-78623475D01*
X152208487Y-78491620D01*
X152230498Y-78564180D01*
X152289463Y-78674494D01*
X152368815Y-78771185D01*
X152465506Y-78850537D01*
X152575820Y-78909502D01*
X152695518Y-78945812D01*
X152820000Y-78958072D01*
X154520000Y-78958072D01*
X154644482Y-78945812D01*
X154764180Y-78909502D01*
X154874494Y-78850537D01*
X154971185Y-78771185D01*
X155050537Y-78674494D01*
X155109502Y-78564180D01*
X155145812Y-78444482D01*
X155158072Y-78320000D01*
X155158072Y-77308967D01*
X156480000Y-77308967D01*
X156480000Y-77631033D01*
X156542832Y-77946912D01*
X156666082Y-78244463D01*
X156845013Y-78512252D01*
X157072748Y-78739987D01*
X157340537Y-78918918D01*
X157638088Y-79042168D01*
X157953967Y-79105000D01*
X158276033Y-79105000D01*
X158591912Y-79042168D01*
X158889463Y-78918918D01*
X159157252Y-78739987D01*
X159384987Y-78512252D01*
X159563918Y-78244463D01*
X159687168Y-77946912D01*
X159750000Y-77631033D01*
X159750000Y-77308967D01*
X159687168Y-76993088D01*
X159563918Y-76695537D01*
X159384987Y-76427748D01*
X159157252Y-76200013D01*
X158889463Y-76021082D01*
X158591912Y-75897832D01*
X158276033Y-75835000D01*
X157953967Y-75835000D01*
X157638088Y-75897832D01*
X157340537Y-76021082D01*
X157072748Y-76200013D01*
X156845013Y-76427748D01*
X156666082Y-76695537D01*
X156542832Y-76993088D01*
X156480000Y-77308967D01*
X155158072Y-77308967D01*
X155158072Y-76620000D01*
X155145812Y-76495518D01*
X155109502Y-76375820D01*
X155050537Y-76265506D01*
X154971185Y-76168815D01*
X154874494Y-76089463D01*
X154764180Y-76030498D01*
X154683534Y-76006034D01*
X154767588Y-75930269D01*
X154941641Y-75696920D01*
X155066825Y-75434099D01*
X155111476Y-75286890D01*
X154990155Y-75057000D01*
X153797000Y-75057000D01*
X153797000Y-75077000D01*
X153543000Y-75077000D01*
X153543000Y-75057000D01*
X151257000Y-75057000D01*
X151257000Y-75077000D01*
X151003000Y-75077000D01*
X151003000Y-75057000D01*
X149809845Y-75057000D01*
X149688524Y-75286890D01*
X149733175Y-75434099D01*
X149858359Y-75696920D01*
X150032412Y-75930269D01*
X150248645Y-76125178D01*
X150365534Y-76194805D01*
X150183368Y-76316525D01*
X149976525Y-76523368D01*
X149814010Y-76766589D01*
X149702068Y-77036842D01*
X149645000Y-77323740D01*
X51562000Y-77323740D01*
X51562000Y-76430000D01*
X53106928Y-76430000D01*
X53119188Y-76554482D01*
X53155498Y-76674180D01*
X53214463Y-76784494D01*
X53293815Y-76881185D01*
X53390506Y-76960537D01*
X53500820Y-77019502D01*
X53620518Y-77055812D01*
X53745000Y-77068072D01*
X54959250Y-77065000D01*
X55118000Y-76906250D01*
X55118000Y-75057000D01*
X55372000Y-75057000D01*
X55372000Y-76906250D01*
X55530750Y-77065000D01*
X56745000Y-77068072D01*
X56869482Y-77055812D01*
X56989180Y-77019502D01*
X57099494Y-76960537D01*
X57196185Y-76881185D01*
X57275537Y-76784494D01*
X57334502Y-76674180D01*
X57337286Y-76665000D01*
X138596928Y-76665000D01*
X138609188Y-76789482D01*
X138645498Y-76909180D01*
X138704463Y-77019494D01*
X138783815Y-77116185D01*
X138880506Y-77195537D01*
X138990820Y-77254502D01*
X139110518Y-77290812D01*
X139235000Y-77303072D01*
X140049250Y-77300000D01*
X140208000Y-77141250D01*
X140208000Y-75692000D01*
X140462000Y-75692000D01*
X140462000Y-77141250D01*
X140620750Y-77300000D01*
X141435000Y-77303072D01*
X141559482Y-77290812D01*
X141679180Y-77254502D01*
X141789494Y-77195537D01*
X141886185Y-77116185D01*
X141965537Y-77019494D01*
X142024502Y-76909180D01*
X142060812Y-76789482D01*
X142073072Y-76665000D01*
X142070000Y-75850750D01*
X141911250Y-75692000D01*
X140462000Y-75692000D01*
X140208000Y-75692000D01*
X138758750Y-75692000D01*
X138600000Y-75850750D01*
X138596928Y-76665000D01*
X57337286Y-76665000D01*
X57370812Y-76554482D01*
X57383072Y-76430000D01*
X57380000Y-75215750D01*
X57221250Y-75057000D01*
X55372000Y-75057000D01*
X55118000Y-75057000D01*
X53268750Y-75057000D01*
X53110000Y-75215750D01*
X53106928Y-76430000D01*
X51562000Y-76430000D01*
X51562000Y-73430000D01*
X53106928Y-73430000D01*
X53110000Y-74644250D01*
X53268750Y-74803000D01*
X55118000Y-74803000D01*
X55118000Y-72953750D01*
X55372000Y-72953750D01*
X55372000Y-74803000D01*
X57221250Y-74803000D01*
X57380000Y-74644250D01*
X57383072Y-73430000D01*
X57370812Y-73305518D01*
X57337287Y-73195000D01*
X61126928Y-73195000D01*
X61126928Y-75395000D01*
X61139188Y-75519482D01*
X61175498Y-75639180D01*
X61234463Y-75749494D01*
X61313815Y-75846185D01*
X61410506Y-75925537D01*
X61520820Y-75984502D01*
X61640518Y-76020812D01*
X61765000Y-76033072D01*
X63965000Y-76033072D01*
X64089482Y-76020812D01*
X64209180Y-75984502D01*
X64319494Y-75925537D01*
X64416185Y-75846185D01*
X64495537Y-75749494D01*
X64554502Y-75639180D01*
X64590812Y-75519482D01*
X64603072Y-75395000D01*
X64603072Y-74124117D01*
X71290000Y-74124117D01*
X71290000Y-74465883D01*
X71356675Y-74801081D01*
X71487463Y-75116831D01*
X71677337Y-75400998D01*
X71919002Y-75642663D01*
X72203169Y-75832537D01*
X72518919Y-75963325D01*
X72854117Y-76030000D01*
X73195883Y-76030000D01*
X73531081Y-75963325D01*
X73846831Y-75832537D01*
X74130998Y-75642663D01*
X74372663Y-75400998D01*
X74562537Y-75116831D01*
X74693325Y-74801081D01*
X74760000Y-74465883D01*
X74760000Y-74124117D01*
X74757730Y-74112702D01*
X77926903Y-74112702D01*
X77998486Y-74356671D01*
X78253996Y-74477571D01*
X78528184Y-74546300D01*
X78810512Y-74560217D01*
X79090130Y-74518787D01*
X79356292Y-74423603D01*
X79481514Y-74356671D01*
X79553097Y-74112702D01*
X78740000Y-73299605D01*
X77926903Y-74112702D01*
X74757730Y-74112702D01*
X74693325Y-73788919D01*
X74562537Y-73473169D01*
X74373672Y-73190512D01*
X77299783Y-73190512D01*
X77341213Y-73470130D01*
X77436397Y-73736292D01*
X77503329Y-73861514D01*
X77747298Y-73933097D01*
X78560395Y-73120000D01*
X78546253Y-73105858D01*
X78725858Y-72926253D01*
X78740000Y-72940395D01*
X78754143Y-72926253D01*
X78933748Y-73105858D01*
X78919605Y-73120000D01*
X79732702Y-73933097D01*
X79976671Y-73861514D01*
X80097571Y-73606004D01*
X80166300Y-73331816D01*
X80180217Y-73049488D01*
X80138787Y-72769870D01*
X80043603Y-72503708D01*
X79978384Y-72381691D01*
X79991185Y-72371185D01*
X80070537Y-72274494D01*
X80129502Y-72164180D01*
X80165812Y-72044482D01*
X80178072Y-71920000D01*
X96351928Y-71920000D01*
X96364188Y-72044482D01*
X96400498Y-72164180D01*
X96459463Y-72274494D01*
X96538815Y-72371185D01*
X96555393Y-72384790D01*
X96518320Y-72440273D01*
X96410147Y-72701426D01*
X96355000Y-72978665D01*
X96355000Y-73261335D01*
X96410147Y-73538574D01*
X96518320Y-73799727D01*
X96675363Y-74034759D01*
X96875241Y-74234637D01*
X97110273Y-74391680D01*
X97371426Y-74499853D01*
X97648665Y-74555000D01*
X97931335Y-74555000D01*
X98208574Y-74499853D01*
X98292716Y-74465000D01*
X138596928Y-74465000D01*
X138600000Y-75279250D01*
X138758750Y-75438000D01*
X140208000Y-75438000D01*
X140208000Y-73988750D01*
X140462000Y-73988750D01*
X140462000Y-75438000D01*
X141911250Y-75438000D01*
X142070000Y-75279250D01*
X142073072Y-74465000D01*
X142060812Y-74340518D01*
X142024502Y-74220820D01*
X141965537Y-74110506D01*
X141886185Y-74013815D01*
X141789494Y-73934463D01*
X141679180Y-73875498D01*
X141559482Y-73839188D01*
X141435000Y-73826928D01*
X140620750Y-73830000D01*
X140462000Y-73988750D01*
X140208000Y-73988750D01*
X140049250Y-73830000D01*
X139235000Y-73826928D01*
X139110518Y-73839188D01*
X138990820Y-73875498D01*
X138880506Y-73934463D01*
X138783815Y-74013815D01*
X138704463Y-74110506D01*
X138645498Y-74220820D01*
X138609188Y-74340518D01*
X138596928Y-74465000D01*
X98292716Y-74465000D01*
X98469727Y-74391680D01*
X98704759Y-74234637D01*
X98904637Y-74034759D01*
X99061680Y-73799727D01*
X99169853Y-73538574D01*
X99225000Y-73261335D01*
X99225000Y-72978665D01*
X99169853Y-72701426D01*
X99061680Y-72440273D01*
X99024607Y-72384790D01*
X99041185Y-72371185D01*
X99120537Y-72274494D01*
X99179502Y-72164180D01*
X99215812Y-72044482D01*
X99228072Y-71920000D01*
X99225000Y-71405750D01*
X99066250Y-71247000D01*
X97917000Y-71247000D01*
X97917000Y-71267000D01*
X97663000Y-71267000D01*
X97663000Y-71247000D01*
X96513750Y-71247000D01*
X96355000Y-71405750D01*
X96351928Y-71920000D01*
X80178072Y-71920000D01*
X80178072Y-70320000D01*
X96351928Y-70320000D01*
X96355000Y-70834250D01*
X96513750Y-70993000D01*
X97663000Y-70993000D01*
X97663000Y-69843750D01*
X97917000Y-69843750D01*
X97917000Y-70993000D01*
X99066250Y-70993000D01*
X99204250Y-70855000D01*
X138796928Y-70855000D01*
X138796928Y-72655000D01*
X138809188Y-72779482D01*
X138845498Y-72899180D01*
X138904463Y-73009494D01*
X138983815Y-73106185D01*
X139080506Y-73185537D01*
X139190820Y-73244502D01*
X139310518Y-73280812D01*
X139435000Y-73293072D01*
X141235000Y-73293072D01*
X141359482Y-73280812D01*
X141479180Y-73244502D01*
X141589494Y-73185537D01*
X141686185Y-73106185D01*
X141765537Y-73009494D01*
X141824502Y-72899180D01*
X141860812Y-72779482D01*
X141873072Y-72655000D01*
X141873072Y-72248665D01*
X145250000Y-72248665D01*
X145250000Y-72531335D01*
X145305147Y-72808574D01*
X145413320Y-73069727D01*
X145570363Y-73304759D01*
X145770241Y-73504637D01*
X146005273Y-73661680D01*
X146266426Y-73769853D01*
X146543665Y-73825000D01*
X146826335Y-73825000D01*
X147103574Y-73769853D01*
X147364727Y-73661680D01*
X147599759Y-73504637D01*
X147799637Y-73304759D01*
X147956680Y-73069727D01*
X148064853Y-72808574D01*
X148077122Y-72746890D01*
X149688524Y-72746890D01*
X149733175Y-72894099D01*
X149858359Y-73156920D01*
X150032412Y-73390269D01*
X150248645Y-73585178D01*
X150374255Y-73660000D01*
X150248645Y-73734822D01*
X150032412Y-73929731D01*
X149858359Y-74163080D01*
X149733175Y-74425901D01*
X149688524Y-74573110D01*
X149809845Y-74803000D01*
X151003000Y-74803000D01*
X151003000Y-72517000D01*
X151257000Y-72517000D01*
X151257000Y-74803000D01*
X153543000Y-74803000D01*
X153543000Y-72517000D01*
X153797000Y-72517000D01*
X153797000Y-74803000D01*
X154990155Y-74803000D01*
X155111476Y-74573110D01*
X155066825Y-74425901D01*
X154941641Y-74163080D01*
X154767588Y-73929731D01*
X154551355Y-73734822D01*
X154425745Y-73660000D01*
X154551355Y-73585178D01*
X154617658Y-73525413D01*
X157159192Y-73525413D01*
X157254956Y-73789814D01*
X157544571Y-73930704D01*
X157856108Y-74012384D01*
X158177595Y-74031718D01*
X158496675Y-73987961D01*
X158801088Y-73882795D01*
X158975044Y-73789814D01*
X159070808Y-73525413D01*
X158115000Y-72569605D01*
X157159192Y-73525413D01*
X154617658Y-73525413D01*
X154767588Y-73390269D01*
X154941641Y-73156920D01*
X155066825Y-72894099D01*
X155111476Y-72746890D01*
X154990155Y-72517000D01*
X153797000Y-72517000D01*
X153543000Y-72517000D01*
X151257000Y-72517000D01*
X151003000Y-72517000D01*
X149809845Y-72517000D01*
X149688524Y-72746890D01*
X148077122Y-72746890D01*
X148120000Y-72531335D01*
X148120000Y-72452595D01*
X156473282Y-72452595D01*
X156517039Y-72771675D01*
X156622205Y-73076088D01*
X156715186Y-73250044D01*
X156979587Y-73345808D01*
X157935395Y-72390000D01*
X158294605Y-72390000D01*
X159250413Y-73345808D01*
X159514814Y-73250044D01*
X159655704Y-72960429D01*
X159737384Y-72648892D01*
X159756718Y-72327405D01*
X159712961Y-72008325D01*
X159607795Y-71703912D01*
X159514814Y-71529956D01*
X159250413Y-71434192D01*
X158294605Y-72390000D01*
X157935395Y-72390000D01*
X156979587Y-71434192D01*
X156715186Y-71529956D01*
X156574296Y-71819571D01*
X156492616Y-72131108D01*
X156473282Y-72452595D01*
X148120000Y-72452595D01*
X148120000Y-72248665D01*
X148064853Y-71971426D01*
X147956680Y-71710273D01*
X147799637Y-71475241D01*
X147599759Y-71275363D01*
X147364727Y-71118320D01*
X147103574Y-71010147D01*
X146826335Y-70955000D01*
X146543665Y-70955000D01*
X146266426Y-71010147D01*
X146005273Y-71118320D01*
X145770241Y-71275363D01*
X145570363Y-71475241D01*
X145413320Y-71710273D01*
X145305147Y-71971426D01*
X145250000Y-72248665D01*
X141873072Y-72248665D01*
X141873072Y-70855000D01*
X141860812Y-70730518D01*
X141824502Y-70610820D01*
X141765537Y-70500506D01*
X141686185Y-70403815D01*
X141589494Y-70324463D01*
X141479180Y-70265498D01*
X141460873Y-70259944D01*
X141527312Y-70193505D01*
X141695299Y-69942095D01*
X141811011Y-69662743D01*
X141821278Y-69611123D01*
X144995821Y-69611123D01*
X145105558Y-69933054D01*
X145275992Y-70227391D01*
X145500573Y-70482822D01*
X145770671Y-70689531D01*
X146075906Y-70839575D01*
X146288878Y-70904175D01*
X146558000Y-70786125D01*
X146558000Y-69342000D01*
X146812000Y-69342000D01*
X146812000Y-70786125D01*
X147081122Y-70904175D01*
X147294094Y-70839575D01*
X147599329Y-70689531D01*
X147869427Y-70482822D01*
X148094008Y-70227391D01*
X148105878Y-70206890D01*
X149688524Y-70206890D01*
X149733175Y-70354099D01*
X149858359Y-70616920D01*
X150032412Y-70850269D01*
X150248645Y-71045178D01*
X150374255Y-71120000D01*
X150248645Y-71194822D01*
X150032412Y-71389731D01*
X149858359Y-71623080D01*
X149733175Y-71885901D01*
X149688524Y-72033110D01*
X149809845Y-72263000D01*
X151003000Y-72263000D01*
X151003000Y-69977000D01*
X151257000Y-69977000D01*
X151257000Y-72263000D01*
X153543000Y-72263000D01*
X153543000Y-69977000D01*
X153797000Y-69977000D01*
X153797000Y-72263000D01*
X154990155Y-72263000D01*
X155111476Y-72033110D01*
X155066825Y-71885901D01*
X154941641Y-71623080D01*
X154767588Y-71389731D01*
X154617659Y-71254587D01*
X157159192Y-71254587D01*
X158115000Y-72210395D01*
X159070808Y-71254587D01*
X158975044Y-70990186D01*
X158685429Y-70849296D01*
X158373892Y-70767616D01*
X158052405Y-70748282D01*
X157733325Y-70792039D01*
X157428912Y-70897205D01*
X157254956Y-70990186D01*
X157159192Y-71254587D01*
X154617659Y-71254587D01*
X154551355Y-71194822D01*
X154425745Y-71120000D01*
X154551355Y-71045178D01*
X154767588Y-70850269D01*
X154941641Y-70616920D01*
X155066825Y-70354099D01*
X155111476Y-70206890D01*
X154990155Y-69977000D01*
X153797000Y-69977000D01*
X153543000Y-69977000D01*
X151257000Y-69977000D01*
X151003000Y-69977000D01*
X149809845Y-69977000D01*
X149688524Y-70206890D01*
X148105878Y-70206890D01*
X148264442Y-69933054D01*
X148374179Y-69611123D01*
X148256600Y-69342000D01*
X146812000Y-69342000D01*
X146558000Y-69342000D01*
X145113400Y-69342000D01*
X144995821Y-69611123D01*
X141821278Y-69611123D01*
X141870000Y-69366184D01*
X141870000Y-69063816D01*
X141821279Y-68818877D01*
X144995821Y-68818877D01*
X145113400Y-69088000D01*
X146558000Y-69088000D01*
X146558000Y-67643875D01*
X146812000Y-67643875D01*
X146812000Y-69088000D01*
X148256600Y-69088000D01*
X148374179Y-68818877D01*
X148264442Y-68496946D01*
X148094008Y-68202609D01*
X147869427Y-67947178D01*
X147599329Y-67740469D01*
X147294094Y-67590425D01*
X147081122Y-67525825D01*
X146812000Y-67643875D01*
X146558000Y-67643875D01*
X146288878Y-67525825D01*
X146075906Y-67590425D01*
X145770671Y-67740469D01*
X145500573Y-67947178D01*
X145275992Y-68202609D01*
X145105558Y-68496946D01*
X144995821Y-68818877D01*
X141821279Y-68818877D01*
X141811011Y-68767257D01*
X141695299Y-68487905D01*
X141527312Y-68236495D01*
X141313505Y-68022688D01*
X141062095Y-67854701D01*
X140782743Y-67738989D01*
X140486184Y-67680000D01*
X140183816Y-67680000D01*
X139887257Y-67738989D01*
X139607905Y-67854701D01*
X139356495Y-68022688D01*
X139142688Y-68236495D01*
X138974701Y-68487905D01*
X138858989Y-68767257D01*
X138800000Y-69063816D01*
X138800000Y-69366184D01*
X138858989Y-69662743D01*
X138974701Y-69942095D01*
X139142688Y-70193505D01*
X139209127Y-70259944D01*
X139190820Y-70265498D01*
X139080506Y-70324463D01*
X138983815Y-70403815D01*
X138904463Y-70500506D01*
X138845498Y-70610820D01*
X138809188Y-70730518D01*
X138796928Y-70855000D01*
X99204250Y-70855000D01*
X99225000Y-70834250D01*
X99228072Y-70320000D01*
X99215812Y-70195518D01*
X99179502Y-70075820D01*
X99120537Y-69965506D01*
X99041185Y-69868815D01*
X98944494Y-69789463D01*
X98834180Y-69730498D01*
X98714482Y-69694188D01*
X98590000Y-69681928D01*
X98075750Y-69685000D01*
X97917000Y-69843750D01*
X97663000Y-69843750D01*
X97504250Y-69685000D01*
X96990000Y-69681928D01*
X96865518Y-69694188D01*
X96745820Y-69730498D01*
X96635506Y-69789463D01*
X96538815Y-69868815D01*
X96459463Y-69965506D01*
X96400498Y-70075820D01*
X96364188Y-70195518D01*
X96351928Y-70320000D01*
X80178072Y-70320000D01*
X80165812Y-70195518D01*
X80129502Y-70075820D01*
X80070537Y-69965506D01*
X79991185Y-69868815D01*
X79894494Y-69789463D01*
X79784180Y-69730498D01*
X79664482Y-69694188D01*
X79540000Y-69681928D01*
X77940000Y-69681928D01*
X77815518Y-69694188D01*
X77695820Y-69730498D01*
X77585506Y-69789463D01*
X77488815Y-69868815D01*
X77409463Y-69965506D01*
X77350498Y-70075820D01*
X77314188Y-70195518D01*
X77301928Y-70320000D01*
X77301928Y-71920000D01*
X77314188Y-72044482D01*
X77350498Y-72164180D01*
X77409463Y-72274494D01*
X77488815Y-72371185D01*
X77501758Y-72381807D01*
X77382429Y-72633996D01*
X77313700Y-72908184D01*
X77299783Y-73190512D01*
X74373672Y-73190512D01*
X74372663Y-73189002D01*
X74130998Y-72947337D01*
X73846831Y-72757463D01*
X73531081Y-72626675D01*
X73195883Y-72560000D01*
X72854117Y-72560000D01*
X72518919Y-72626675D01*
X72203169Y-72757463D01*
X71919002Y-72947337D01*
X71677337Y-73189002D01*
X71487463Y-73473169D01*
X71356675Y-73788919D01*
X71290000Y-74124117D01*
X64603072Y-74124117D01*
X64603072Y-73195000D01*
X64590812Y-73070518D01*
X64554502Y-72950820D01*
X64495537Y-72840506D01*
X64416185Y-72743815D01*
X64319494Y-72664463D01*
X64209180Y-72605498D01*
X64089482Y-72569188D01*
X63965000Y-72556928D01*
X61765000Y-72556928D01*
X61640518Y-72569188D01*
X61520820Y-72605498D01*
X61410506Y-72664463D01*
X61313815Y-72743815D01*
X61234463Y-72840506D01*
X61175498Y-72950820D01*
X61139188Y-73070518D01*
X61126928Y-73195000D01*
X57337287Y-73195000D01*
X57334502Y-73185820D01*
X57275537Y-73075506D01*
X57196185Y-72978815D01*
X57099494Y-72899463D01*
X56989180Y-72840498D01*
X56869482Y-72804188D01*
X56745000Y-72791928D01*
X55530750Y-72795000D01*
X55372000Y-72953750D01*
X55118000Y-72953750D01*
X54959250Y-72795000D01*
X53745000Y-72791928D01*
X53620518Y-72804188D01*
X53500820Y-72840498D01*
X53390506Y-72899463D01*
X53293815Y-72978815D01*
X53214463Y-73075506D01*
X53155498Y-73185820D01*
X53119188Y-73305518D01*
X53106928Y-73430000D01*
X51562000Y-73430000D01*
X51562000Y-69639721D01*
X53110000Y-69639721D01*
X53110000Y-70060279D01*
X53192047Y-70472756D01*
X53352988Y-70861302D01*
X53586637Y-71210983D01*
X53884017Y-71508363D01*
X54233698Y-71742012D01*
X54622244Y-71902953D01*
X55034721Y-71985000D01*
X55455279Y-71985000D01*
X55867756Y-71902953D01*
X56256302Y-71742012D01*
X56605983Y-71508363D01*
X56903363Y-71210983D01*
X57137012Y-70861302D01*
X57297953Y-70472756D01*
X57329508Y-70314117D01*
X61130000Y-70314117D01*
X61130000Y-70655883D01*
X61196675Y-70991081D01*
X61327463Y-71306831D01*
X61517337Y-71590998D01*
X61759002Y-71832663D01*
X62043169Y-72022537D01*
X62358919Y-72153325D01*
X62694117Y-72220000D01*
X63035883Y-72220000D01*
X63371081Y-72153325D01*
X63686831Y-72022537D01*
X63970998Y-71832663D01*
X64212663Y-71590998D01*
X64402537Y-71306831D01*
X64533325Y-70991081D01*
X64600000Y-70655883D01*
X64600000Y-70314117D01*
X64533325Y-69978919D01*
X64402537Y-69663169D01*
X64216671Y-69385000D01*
X71286928Y-69385000D01*
X71286928Y-71585000D01*
X71299188Y-71709482D01*
X71335498Y-71829180D01*
X71394463Y-71939494D01*
X71473815Y-72036185D01*
X71570506Y-72115537D01*
X71680820Y-72174502D01*
X71800518Y-72210812D01*
X71925000Y-72223072D01*
X74125000Y-72223072D01*
X74249482Y-72210812D01*
X74369180Y-72174502D01*
X74479494Y-72115537D01*
X74576185Y-72036185D01*
X74655537Y-71939494D01*
X74714502Y-71829180D01*
X74750812Y-71709482D01*
X74763072Y-71585000D01*
X74763072Y-69385000D01*
X74750812Y-69260518D01*
X74714502Y-69140820D01*
X74655537Y-69030506D01*
X74576185Y-68933815D01*
X74479494Y-68854463D01*
X74369180Y-68795498D01*
X74249482Y-68759188D01*
X74125000Y-68746928D01*
X71925000Y-68746928D01*
X71800518Y-68759188D01*
X71680820Y-68795498D01*
X71570506Y-68854463D01*
X71473815Y-68933815D01*
X71394463Y-69030506D01*
X71335498Y-69140820D01*
X71299188Y-69260518D01*
X71286928Y-69385000D01*
X64216671Y-69385000D01*
X64212663Y-69379002D01*
X63970998Y-69137337D01*
X63686831Y-68947463D01*
X63371081Y-68816675D01*
X63035883Y-68750000D01*
X62694117Y-68750000D01*
X62358919Y-68816675D01*
X62043169Y-68947463D01*
X61759002Y-69137337D01*
X61517337Y-69379002D01*
X61327463Y-69663169D01*
X61196675Y-69978919D01*
X61130000Y-70314117D01*
X57329508Y-70314117D01*
X57380000Y-70060279D01*
X57380000Y-69639721D01*
X57297953Y-69227244D01*
X57137012Y-68838698D01*
X56903363Y-68489017D01*
X56605983Y-68191637D01*
X56256302Y-67957988D01*
X55867756Y-67797047D01*
X55455279Y-67715000D01*
X55034721Y-67715000D01*
X54622244Y-67797047D01*
X54233698Y-67957988D01*
X53884017Y-68191637D01*
X53586637Y-68489017D01*
X53352988Y-68838698D01*
X53192047Y-69227244D01*
X53110000Y-69639721D01*
X51562000Y-69639721D01*
X51562000Y-67163740D01*
X149645000Y-67163740D01*
X149645000Y-67456260D01*
X149702068Y-67743158D01*
X149814010Y-68013411D01*
X149976525Y-68256632D01*
X150183368Y-68463475D01*
X150365534Y-68585195D01*
X150248645Y-68654822D01*
X150032412Y-68849731D01*
X149858359Y-69083080D01*
X149733175Y-69345901D01*
X149688524Y-69493110D01*
X149809845Y-69723000D01*
X151003000Y-69723000D01*
X151003000Y-69703000D01*
X151257000Y-69703000D01*
X151257000Y-69723000D01*
X153543000Y-69723000D01*
X153543000Y-69703000D01*
X153797000Y-69703000D01*
X153797000Y-69723000D01*
X154990155Y-69723000D01*
X155111476Y-69493110D01*
X155066825Y-69345901D01*
X154941641Y-69083080D01*
X154767588Y-68849731D01*
X154551355Y-68654822D01*
X154434466Y-68585195D01*
X154616632Y-68463475D01*
X154823475Y-68256632D01*
X154985990Y-68013411D01*
X155097932Y-67743158D01*
X155155000Y-67456260D01*
X155155000Y-67163740D01*
X155152062Y-67148967D01*
X156480000Y-67148967D01*
X156480000Y-67471033D01*
X156542832Y-67786912D01*
X156666082Y-68084463D01*
X156845013Y-68352252D01*
X157072748Y-68579987D01*
X157340537Y-68758918D01*
X157638088Y-68882168D01*
X157953967Y-68945000D01*
X158276033Y-68945000D01*
X158591912Y-68882168D01*
X158889463Y-68758918D01*
X159157252Y-68579987D01*
X159384987Y-68352252D01*
X159563918Y-68084463D01*
X159687168Y-67786912D01*
X159750000Y-67471033D01*
X159750000Y-67148967D01*
X159687168Y-66833088D01*
X159563918Y-66535537D01*
X159384987Y-66267748D01*
X159157252Y-66040013D01*
X158889463Y-65861082D01*
X158591912Y-65737832D01*
X158276033Y-65675000D01*
X157953967Y-65675000D01*
X157638088Y-65737832D01*
X157340537Y-65861082D01*
X157072748Y-66040013D01*
X156845013Y-66267748D01*
X156666082Y-66535537D01*
X156542832Y-66833088D01*
X156480000Y-67148967D01*
X155152062Y-67148967D01*
X155097932Y-66876842D01*
X154985990Y-66606589D01*
X154823475Y-66363368D01*
X154616632Y-66156525D01*
X154373411Y-65994010D01*
X154103158Y-65882068D01*
X153816260Y-65825000D01*
X153523740Y-65825000D01*
X153236842Y-65882068D01*
X152966589Y-65994010D01*
X152723368Y-66156525D01*
X152516525Y-66363368D01*
X152400000Y-66537760D01*
X152283475Y-66363368D01*
X152076632Y-66156525D01*
X151833411Y-65994010D01*
X151563158Y-65882068D01*
X151276260Y-65825000D01*
X150983740Y-65825000D01*
X150696842Y-65882068D01*
X150426589Y-65994010D01*
X150183368Y-66156525D01*
X149976525Y-66363368D01*
X149814010Y-66606589D01*
X149702068Y-66876842D01*
X149645000Y-67163740D01*
X51562000Y-67163740D01*
X51562000Y-64657980D01*
X68116626Y-64657980D01*
X68236514Y-64942836D01*
X68560210Y-65103699D01*
X68909069Y-65198322D01*
X69269684Y-65223067D01*
X69628198Y-65176985D01*
X69970833Y-65061846D01*
X70193486Y-64942836D01*
X70313374Y-64657980D01*
X87166626Y-64657980D01*
X87286514Y-64942836D01*
X87610210Y-65103699D01*
X87959069Y-65198322D01*
X88319684Y-65223067D01*
X88678198Y-65176985D01*
X89020833Y-65061846D01*
X89243486Y-64942836D01*
X89363374Y-64657980D01*
X106216626Y-64657980D01*
X106336514Y-64942836D01*
X106660210Y-65103699D01*
X107009069Y-65198322D01*
X107369684Y-65223067D01*
X107728198Y-65176985D01*
X108070833Y-65061846D01*
X108293486Y-64942836D01*
X108413374Y-64657980D01*
X108354512Y-64599117D01*
X115740000Y-64599117D01*
X115740000Y-64940883D01*
X115806675Y-65276081D01*
X115937463Y-65591831D01*
X116127337Y-65875998D01*
X116369002Y-66117663D01*
X116653169Y-66307537D01*
X116968919Y-66438325D01*
X117304117Y-66505000D01*
X117645883Y-66505000D01*
X117981081Y-66438325D01*
X118296831Y-66307537D01*
X118580998Y-66117663D01*
X118822663Y-65875998D01*
X119012537Y-65591831D01*
X119143325Y-65276081D01*
X119145794Y-65263665D01*
X138900000Y-65263665D01*
X138900000Y-65546335D01*
X138955147Y-65823574D01*
X139063320Y-66084727D01*
X139220363Y-66319759D01*
X139420241Y-66519637D01*
X139655273Y-66676680D01*
X139916426Y-66784853D01*
X140193665Y-66840000D01*
X140476335Y-66840000D01*
X140753574Y-66784853D01*
X141014727Y-66676680D01*
X141249759Y-66519637D01*
X141449637Y-66319759D01*
X141606680Y-66084727D01*
X141714853Y-65823574D01*
X141770000Y-65546335D01*
X141770000Y-65263665D01*
X141714853Y-64986426D01*
X141606680Y-64725273D01*
X141449637Y-64490241D01*
X141249759Y-64290363D01*
X141014727Y-64133320D01*
X140753574Y-64025147D01*
X140476335Y-63970000D01*
X140193665Y-63970000D01*
X139916426Y-64025147D01*
X139655273Y-64133320D01*
X139420241Y-64290363D01*
X139220363Y-64490241D01*
X139063320Y-64725273D01*
X138955147Y-64986426D01*
X138900000Y-65263665D01*
X119145794Y-65263665D01*
X119210000Y-64940883D01*
X119210000Y-64599117D01*
X119143325Y-64263919D01*
X119012537Y-63948169D01*
X118822663Y-63664002D01*
X118580998Y-63422337D01*
X118296831Y-63232463D01*
X117981081Y-63101675D01*
X117645883Y-63035000D01*
X117304117Y-63035000D01*
X116968919Y-63101675D01*
X116653169Y-63232463D01*
X116369002Y-63422337D01*
X116127337Y-63664002D01*
X115937463Y-63948169D01*
X115806675Y-64263919D01*
X115740000Y-64599117D01*
X108354512Y-64599117D01*
X107315000Y-63559605D01*
X106216626Y-64657980D01*
X89363374Y-64657980D01*
X88265000Y-63559605D01*
X87166626Y-64657980D01*
X70313374Y-64657980D01*
X69215000Y-63559605D01*
X68116626Y-64657980D01*
X51562000Y-64657980D01*
X51562000Y-63434684D01*
X67371933Y-63434684D01*
X67418015Y-63793198D01*
X67533154Y-64135833D01*
X67652164Y-64358486D01*
X67937020Y-64478374D01*
X69035395Y-63380000D01*
X69394605Y-63380000D01*
X70492980Y-64478374D01*
X70777836Y-64358486D01*
X70938699Y-64034790D01*
X71033322Y-63685931D01*
X71050562Y-63434684D01*
X86421933Y-63434684D01*
X86468015Y-63793198D01*
X86583154Y-64135833D01*
X86702164Y-64358486D01*
X86987020Y-64478374D01*
X88085395Y-63380000D01*
X88444605Y-63380000D01*
X89542980Y-64478374D01*
X89827836Y-64358486D01*
X89988699Y-64034790D01*
X90083322Y-63685931D01*
X90100562Y-63434684D01*
X105471933Y-63434684D01*
X105518015Y-63793198D01*
X105633154Y-64135833D01*
X105752164Y-64358486D01*
X106037020Y-64478374D01*
X107135395Y-63380000D01*
X107494605Y-63380000D01*
X108592980Y-64478374D01*
X108877836Y-64358486D01*
X109038699Y-64034790D01*
X109133322Y-63685931D01*
X109158067Y-63325316D01*
X109111985Y-62966802D01*
X108996846Y-62624167D01*
X108877836Y-62401514D01*
X108592980Y-62281626D01*
X107494605Y-63380000D01*
X107135395Y-63380000D01*
X106037020Y-62281626D01*
X105752164Y-62401514D01*
X105591301Y-62725210D01*
X105496678Y-63074069D01*
X105471933Y-63434684D01*
X90100562Y-63434684D01*
X90108067Y-63325316D01*
X90061985Y-62966802D01*
X89946846Y-62624167D01*
X89827836Y-62401514D01*
X89542980Y-62281626D01*
X88444605Y-63380000D01*
X88085395Y-63380000D01*
X86987020Y-62281626D01*
X86702164Y-62401514D01*
X86541301Y-62725210D01*
X86446678Y-63074069D01*
X86421933Y-63434684D01*
X71050562Y-63434684D01*
X71058067Y-63325316D01*
X71011985Y-62966802D01*
X70896846Y-62624167D01*
X70777836Y-62401514D01*
X70492980Y-62281626D01*
X69394605Y-63380000D01*
X69035395Y-63380000D01*
X67937020Y-62281626D01*
X67652164Y-62401514D01*
X67491301Y-62725210D01*
X67396678Y-63074069D01*
X67371933Y-63434684D01*
X51562000Y-63434684D01*
X51562000Y-62102020D01*
X68116626Y-62102020D01*
X69215000Y-63200395D01*
X70313374Y-62102020D01*
X87166626Y-62102020D01*
X88265000Y-63200395D01*
X89363374Y-62102020D01*
X106216626Y-62102020D01*
X107315000Y-63200395D01*
X108285394Y-62230000D01*
X119642319Y-62230000D01*
X119672970Y-62541204D01*
X119763745Y-62840449D01*
X119911155Y-63116235D01*
X120109537Y-63357963D01*
X120351265Y-63556345D01*
X120627051Y-63703755D01*
X120926296Y-63794530D01*
X121159514Y-63817500D01*
X121410486Y-63817500D01*
X121643704Y-63794530D01*
X121942949Y-63703755D01*
X122218735Y-63556345D01*
X122460463Y-63357963D01*
X122658845Y-63116235D01*
X122806255Y-62840449D01*
X122897030Y-62541204D01*
X122927681Y-62230000D01*
X122897030Y-61918796D01*
X122806255Y-61619551D01*
X122658845Y-61343765D01*
X122460463Y-61102037D01*
X122281101Y-60954837D01*
X122466315Y-60799437D01*
X122660969Y-60556923D01*
X122804571Y-60281094D01*
X122875563Y-60062980D01*
X122755594Y-59817000D01*
X121412000Y-59817000D01*
X121412000Y-59837000D01*
X121158000Y-59837000D01*
X121158000Y-59817000D01*
X119814406Y-59817000D01*
X119694437Y-60062980D01*
X119765429Y-60281094D01*
X119909031Y-60556923D01*
X120103685Y-60799437D01*
X120288899Y-60954837D01*
X120109537Y-61102037D01*
X119911155Y-61343765D01*
X119763745Y-61619551D01*
X119672970Y-61918796D01*
X119642319Y-62230000D01*
X108285394Y-62230000D01*
X108413374Y-62102020D01*
X108293486Y-61817164D01*
X107969790Y-61656301D01*
X107620931Y-61561678D01*
X107260316Y-61536933D01*
X106901802Y-61583015D01*
X106559167Y-61698154D01*
X106336514Y-61817164D01*
X106216626Y-62102020D01*
X89363374Y-62102020D01*
X89243486Y-61817164D01*
X88919790Y-61656301D01*
X88570931Y-61561678D01*
X88210316Y-61536933D01*
X87851802Y-61583015D01*
X87509167Y-61698154D01*
X87286514Y-61817164D01*
X87166626Y-62102020D01*
X70313374Y-62102020D01*
X70193486Y-61817164D01*
X69869790Y-61656301D01*
X69520931Y-61561678D01*
X69160316Y-61536933D01*
X68801802Y-61583015D01*
X68459167Y-61698154D01*
X68236514Y-61817164D01*
X68116626Y-62102020D01*
X51562000Y-62102020D01*
X51562000Y-55024872D01*
X53010000Y-55024872D01*
X53010000Y-55465128D01*
X53095890Y-55896925D01*
X53264369Y-56303669D01*
X53508962Y-56669729D01*
X53820271Y-56981038D01*
X54186331Y-57225631D01*
X54593075Y-57394110D01*
X55024872Y-57480000D01*
X55465128Y-57480000D01*
X55896925Y-57394110D01*
X56303669Y-57225631D01*
X56669729Y-56981038D01*
X56981038Y-56669729D01*
X57225631Y-56303669D01*
X57394110Y-55896925D01*
X57480000Y-55465128D01*
X57480000Y-55024872D01*
X57411401Y-54680000D01*
X67376928Y-54680000D01*
X67376928Y-57080000D01*
X67389188Y-57204482D01*
X67425498Y-57324180D01*
X67484463Y-57434494D01*
X67563815Y-57531185D01*
X67660506Y-57610537D01*
X67770820Y-57669502D01*
X67890518Y-57705812D01*
X68015000Y-57718072D01*
X70415000Y-57718072D01*
X70539482Y-57705812D01*
X70659180Y-57669502D01*
X70769494Y-57610537D01*
X70866185Y-57531185D01*
X70945537Y-57434494D01*
X71004502Y-57324180D01*
X71040812Y-57204482D01*
X71053072Y-57080000D01*
X71053072Y-54680000D01*
X86426928Y-54680000D01*
X86426928Y-57080000D01*
X86439188Y-57204482D01*
X86475498Y-57324180D01*
X86534463Y-57434494D01*
X86613815Y-57531185D01*
X86710506Y-57610537D01*
X86820820Y-57669502D01*
X86940518Y-57705812D01*
X87065000Y-57718072D01*
X89465000Y-57718072D01*
X89589482Y-57705812D01*
X89709180Y-57669502D01*
X89819494Y-57610537D01*
X89916185Y-57531185D01*
X89995537Y-57434494D01*
X90054502Y-57324180D01*
X90090812Y-57204482D01*
X90103072Y-57080000D01*
X90103072Y-54680000D01*
X105476928Y-54680000D01*
X105476928Y-57080000D01*
X105489188Y-57204482D01*
X105525498Y-57324180D01*
X105584463Y-57434494D01*
X105663815Y-57531185D01*
X105760506Y-57610537D01*
X105870820Y-57669502D01*
X105990518Y-57705812D01*
X106115000Y-57718072D01*
X108515000Y-57718072D01*
X108639482Y-57705812D01*
X108759180Y-57669502D01*
X108869494Y-57610537D01*
X108966185Y-57531185D01*
X109045537Y-57434494D01*
X109104502Y-57324180D01*
X109140812Y-57204482D01*
X109153072Y-57080000D01*
X109153072Y-54680000D01*
X109140812Y-54555518D01*
X109104502Y-54435820D01*
X109045537Y-54325506D01*
X108966185Y-54228815D01*
X108869494Y-54149463D01*
X108759180Y-54090498D01*
X108639482Y-54054188D01*
X108515000Y-54041928D01*
X106115000Y-54041928D01*
X105990518Y-54054188D01*
X105870820Y-54090498D01*
X105760506Y-54149463D01*
X105663815Y-54228815D01*
X105584463Y-54325506D01*
X105525498Y-54435820D01*
X105489188Y-54555518D01*
X105476928Y-54680000D01*
X90103072Y-54680000D01*
X90090812Y-54555518D01*
X90054502Y-54435820D01*
X89995537Y-54325506D01*
X89916185Y-54228815D01*
X89819494Y-54149463D01*
X89709180Y-54090498D01*
X89589482Y-54054188D01*
X89465000Y-54041928D01*
X87065000Y-54041928D01*
X86940518Y-54054188D01*
X86820820Y-54090498D01*
X86710506Y-54149463D01*
X86613815Y-54228815D01*
X86534463Y-54325506D01*
X86475498Y-54435820D01*
X86439188Y-54555518D01*
X86426928Y-54680000D01*
X71053072Y-54680000D01*
X71040812Y-54555518D01*
X71004502Y-54435820D01*
X70945537Y-54325506D01*
X70866185Y-54228815D01*
X70769494Y-54149463D01*
X70659180Y-54090498D01*
X70539482Y-54054188D01*
X70415000Y-54041928D01*
X68015000Y-54041928D01*
X67890518Y-54054188D01*
X67770820Y-54090498D01*
X67660506Y-54149463D01*
X67563815Y-54228815D01*
X67484463Y-54325506D01*
X67425498Y-54435820D01*
X67389188Y-54555518D01*
X67376928Y-54680000D01*
X57411401Y-54680000D01*
X57394110Y-54593075D01*
X57225631Y-54186331D01*
X56981038Y-53820271D01*
X56670767Y-53510000D01*
X115736928Y-53510000D01*
X115736928Y-55710000D01*
X115749188Y-55834482D01*
X115785498Y-55954180D01*
X115844463Y-56064494D01*
X115923815Y-56161185D01*
X116020506Y-56240537D01*
X116130820Y-56299502D01*
X116250518Y-56335812D01*
X116375000Y-56348072D01*
X118575000Y-56348072D01*
X118699482Y-56335812D01*
X118819180Y-56299502D01*
X118929494Y-56240537D01*
X118981934Y-56197500D01*
X119646928Y-56197500D01*
X119646928Y-58102500D01*
X119659188Y-58226982D01*
X119695498Y-58346680D01*
X119754463Y-58456994D01*
X119833815Y-58553685D01*
X119930506Y-58633037D01*
X120022219Y-58682059D01*
X119909031Y-58823077D01*
X119765429Y-59098906D01*
X119694437Y-59317020D01*
X119814406Y-59563000D01*
X121158000Y-59563000D01*
X121158000Y-59543000D01*
X121412000Y-59543000D01*
X121412000Y-59563000D01*
X122755594Y-59563000D01*
X122875563Y-59317020D01*
X122804571Y-59098906D01*
X122660969Y-58823077D01*
X122547781Y-58682059D01*
X122639494Y-58633037D01*
X122736185Y-58553685D01*
X122815537Y-58456994D01*
X122874502Y-58346680D01*
X122910812Y-58226982D01*
X122923072Y-58102500D01*
X122923072Y-57955000D01*
X144946928Y-57955000D01*
X144946928Y-60155000D01*
X144959188Y-60279482D01*
X144995498Y-60399180D01*
X145054463Y-60509494D01*
X145133815Y-60606185D01*
X145230506Y-60685537D01*
X145340820Y-60744502D01*
X145460518Y-60780812D01*
X145585000Y-60793072D01*
X147785000Y-60793072D01*
X147909482Y-60780812D01*
X148029180Y-60744502D01*
X148139494Y-60685537D01*
X148236185Y-60606185D01*
X148315537Y-60509494D01*
X148374502Y-60399180D01*
X148410812Y-60279482D01*
X148423072Y-60155000D01*
X148423072Y-57955000D01*
X148410812Y-57830518D01*
X148374502Y-57710820D01*
X148315537Y-57600506D01*
X148236185Y-57503815D01*
X148139494Y-57424463D01*
X148029180Y-57365498D01*
X147909482Y-57329188D01*
X147785000Y-57316928D01*
X145585000Y-57316928D01*
X145460518Y-57329188D01*
X145340820Y-57365498D01*
X145230506Y-57424463D01*
X145133815Y-57503815D01*
X145054463Y-57600506D01*
X144995498Y-57710820D01*
X144959188Y-57830518D01*
X144946928Y-57955000D01*
X122923072Y-57955000D01*
X122923072Y-56197500D01*
X122910812Y-56073018D01*
X122874502Y-55953320D01*
X122815537Y-55843006D01*
X122736185Y-55746315D01*
X122639494Y-55666963D01*
X122529180Y-55607998D01*
X122409482Y-55571688D01*
X122285000Y-55559428D01*
X120285000Y-55559428D01*
X120160518Y-55571688D01*
X120040820Y-55607998D01*
X119930506Y-55666963D01*
X119833815Y-55746315D01*
X119754463Y-55843006D01*
X119695498Y-55953320D01*
X119659188Y-56073018D01*
X119646928Y-56197500D01*
X118981934Y-56197500D01*
X119026185Y-56161185D01*
X119105537Y-56064494D01*
X119164502Y-55954180D01*
X119200812Y-55834482D01*
X119213072Y-55710000D01*
X119213072Y-53697702D01*
X139521903Y-53697702D01*
X139593486Y-53941671D01*
X139848996Y-54062571D01*
X140123184Y-54131300D01*
X140405512Y-54145217D01*
X140685130Y-54103787D01*
X140951292Y-54008603D01*
X141076514Y-53941671D01*
X141148097Y-53697702D01*
X140335000Y-52884605D01*
X139521903Y-53697702D01*
X119213072Y-53697702D01*
X119213072Y-53510000D01*
X119200812Y-53385518D01*
X119164502Y-53265820D01*
X119105537Y-53155506D01*
X119026185Y-53058815D01*
X118929494Y-52979463D01*
X118819180Y-52920498D01*
X118699482Y-52884188D01*
X118575000Y-52871928D01*
X116375000Y-52871928D01*
X116250518Y-52884188D01*
X116130820Y-52920498D01*
X116020506Y-52979463D01*
X115923815Y-53058815D01*
X115844463Y-53155506D01*
X115785498Y-53265820D01*
X115749188Y-53385518D01*
X115736928Y-53510000D01*
X56670767Y-53510000D01*
X56669729Y-53508962D01*
X56303669Y-53264369D01*
X55896925Y-53095890D01*
X55465128Y-53010000D01*
X55024872Y-53010000D01*
X54593075Y-53095890D01*
X54186331Y-53264369D01*
X53820271Y-53508962D01*
X53508962Y-53820271D01*
X53264369Y-54186331D01*
X53095890Y-54593075D01*
X53010000Y-55024872D01*
X51562000Y-55024872D01*
X51562000Y-52775512D01*
X138894783Y-52775512D01*
X138936213Y-53055130D01*
X139031397Y-53321292D01*
X139098329Y-53446514D01*
X139342298Y-53518097D01*
X140155395Y-52705000D01*
X140514605Y-52705000D01*
X141327702Y-53518097D01*
X141571671Y-53446514D01*
X141633657Y-53315512D01*
X145244783Y-53315512D01*
X145286213Y-53595130D01*
X145381397Y-53861292D01*
X145446616Y-53983309D01*
X145433815Y-53993815D01*
X145354463Y-54090506D01*
X145295498Y-54200820D01*
X145259188Y-54320518D01*
X145246928Y-54445000D01*
X145246928Y-56045000D01*
X145259188Y-56169482D01*
X145295498Y-56289180D01*
X145354463Y-56399494D01*
X145433815Y-56496185D01*
X145530506Y-56575537D01*
X145640820Y-56634502D01*
X145760518Y-56670812D01*
X145885000Y-56683072D01*
X147485000Y-56683072D01*
X147609482Y-56670812D01*
X147729180Y-56634502D01*
X147839494Y-56575537D01*
X147936185Y-56496185D01*
X148015537Y-56399494D01*
X148074502Y-56289180D01*
X148110812Y-56169482D01*
X148123072Y-56045000D01*
X148123072Y-55024872D01*
X154610000Y-55024872D01*
X154610000Y-55465128D01*
X154695890Y-55896925D01*
X154864369Y-56303669D01*
X155108962Y-56669729D01*
X155420271Y-56981038D01*
X155786331Y-57225631D01*
X156193075Y-57394110D01*
X156624872Y-57480000D01*
X157065128Y-57480000D01*
X157496925Y-57394110D01*
X157903669Y-57225631D01*
X158269729Y-56981038D01*
X158581038Y-56669729D01*
X158825631Y-56303669D01*
X158994110Y-55896925D01*
X159080000Y-55465128D01*
X159080000Y-55024872D01*
X158994110Y-54593075D01*
X158825631Y-54186331D01*
X158581038Y-53820271D01*
X158269729Y-53508962D01*
X157903669Y-53264369D01*
X157496925Y-53095890D01*
X157065128Y-53010000D01*
X156624872Y-53010000D01*
X156193075Y-53095890D01*
X155786331Y-53264369D01*
X155420271Y-53508962D01*
X155108962Y-53820271D01*
X154864369Y-54186331D01*
X154695890Y-54593075D01*
X154610000Y-55024872D01*
X148123072Y-55024872D01*
X148123072Y-54445000D01*
X148110812Y-54320518D01*
X148074502Y-54200820D01*
X148015537Y-54090506D01*
X147936185Y-53993815D01*
X147923242Y-53983193D01*
X148042571Y-53731004D01*
X148111300Y-53456816D01*
X148125217Y-53174488D01*
X148083787Y-52894870D01*
X147988603Y-52628708D01*
X147921671Y-52503486D01*
X147677702Y-52431903D01*
X146864605Y-53245000D01*
X146878748Y-53259143D01*
X146699143Y-53438748D01*
X146685000Y-53424605D01*
X146670858Y-53438748D01*
X146491253Y-53259143D01*
X146505395Y-53245000D01*
X145692298Y-52431903D01*
X145448329Y-52503486D01*
X145327429Y-52758996D01*
X145258700Y-53033184D01*
X145244783Y-53315512D01*
X141633657Y-53315512D01*
X141692571Y-53191004D01*
X141761300Y-52916816D01*
X141775217Y-52634488D01*
X141733787Y-52354870D01*
X141697106Y-52252298D01*
X145871903Y-52252298D01*
X146685000Y-53065395D01*
X147498097Y-52252298D01*
X147426514Y-52008329D01*
X147171004Y-51887429D01*
X146896816Y-51818700D01*
X146614488Y-51804783D01*
X146334870Y-51846213D01*
X146068708Y-51941397D01*
X145943486Y-52008329D01*
X145871903Y-52252298D01*
X141697106Y-52252298D01*
X141638603Y-52088708D01*
X141571671Y-51963486D01*
X141327702Y-51891903D01*
X140514605Y-52705000D01*
X140155395Y-52705000D01*
X139342298Y-51891903D01*
X139098329Y-51963486D01*
X138977429Y-52218996D01*
X138908700Y-52493184D01*
X138894783Y-52775512D01*
X51562000Y-52775512D01*
X51562000Y-51562000D01*
X139566002Y-51562000D01*
X139521903Y-51712298D01*
G37*
G04 #@! TD.AperFunction*
M02*
