M48
; DRILL file {KiCad (6.0.0)} date Thu Jul  7 12:02:22 2022
; FORMAT={-:-/ absolute / metric / decimal}
; #@! TF.CreationDate,2022-07-07T12:02:22+01:00
; #@! TF.GenerationSoftware,Kicad,Pcbnew,(6.0.0)
; #@! TF.FileFunction,Plated,1,2,PTH
FMAT,2
METRIC
; #@! TA.AperFunction,Plated,PTH,ComponentDrill
T1C0.800
; #@! TA.AperFunction,Plated,PTH,ComponentDrill
T2C0.900
; #@! TA.AperFunction,Plated,PTH,ComponentDrill
T3C1.000
; #@! TA.AperFunction,Plated,PTH,ComponentDrill
T4C1.100
; #@! TA.AperFunction,Plated,PTH,ComponentDrill
T5C1.200
; #@! TA.AperFunction,Plated,PTH,ComponentDrill
T6C1.520
%
G90
G05
T1
X71.875Y-73.275
X71.875Y-75.275
X90.925Y-73.275
X90.925Y-75.275
X133.47Y-54.86
X133.47Y-67.56
X133.47Y-91.595
X133.47Y-93.595
X139.82Y-55.4
X139.82Y-57.4
X139.82Y-74.545
X139.82Y-87.245
T2
X133.47Y-71.37
X133.47Y-73.91
X139.82Y-91.055
X139.82Y-93.595
T3
X147.0Y-63.5
X147.0Y-85.0
X147.0Y-90.0
T4
X56.0Y-72.64
X56.0Y-76.45
X66.16Y-72.64
X66.16Y-76.45
X110.61Y-56.765
X110.61Y-66.925
X110.61Y-82.165
X110.61Y-92.325
X114.42Y-59.305
X114.42Y-61.845
X114.42Y-64.385
X114.42Y-84.705
X114.42Y-87.245
X114.42Y-89.785
X133.47Y-77.72
X133.47Y-87.88
X139.82Y-61.21
X139.82Y-71.37
T5
X62.35Y-58.035
X62.35Y-65.535
X62.35Y-83.435
X62.35Y-90.935
X81.4Y-58.035
X81.4Y-65.535
X81.4Y-83.435
X81.4Y-90.935
X100.45Y-58.035
X100.45Y-65.535
X100.45Y-83.435
X100.45Y-90.935
T6
X48.38Y-72.005
X48.38Y-77.085
X147.0Y-69.42
X147.0Y-74.5
X147.0Y-79.58
T0
M30
