G04 #@! TF.GenerationSoftware,KiCad,Pcbnew,(6.0.6)*
G04 #@! TF.CreationDate,2022-10-26T12:00:59+02:00*
G04 #@! TF.ProjectId,Drumbox,4472756d-626f-4782-9e6b-696361645f70,rev?*
G04 #@! TF.SameCoordinates,Original*
G04 #@! TF.FileFunction,Legend,Top*
G04 #@! TF.FilePolarity,Positive*
%FSLAX46Y46*%
G04 Gerber Fmt 4.6, Leading zero omitted, Abs format (unit mm)*
G04 Created by KiCad (PCBNEW (6.0.6)) date 2022-10-26 12:00:59*
%MOMM*%
%LPD*%
G01*
G04 APERTURE LIST*
%ADD10C,0.120000*%
%ADD11C,0.100000*%
G04 #@! TA.AperFunction,Profile*
%ADD12C,0.050000*%
G04 #@! TD*
%ADD13C,0.150000*%
%ADD14O,6.700000X4.200000*%
%ADD15C,3.200000*%
G04 APERTURE END LIST*
D10*
X107500000Y-92950000D02*
X107500000Y-101700000D01*
X77500000Y-92950000D02*
X77500000Y-101700000D01*
X101500000Y-96450000D02*
G75*
G03*
X101500000Y-96450000I-250000J0D01*
G01*
X101250000Y-96450000D02*
X102750000Y-94550000D01*
X102750000Y-94550000D02*
X102450000Y-94550000D01*
X102750000Y-94550000D02*
X102750000Y-94850000D01*
X119100000Y-155900000D02*
X120300000Y-155900000D01*
X136025000Y-38700000D02*
X136825000Y-38200000D01*
X101000000Y-128072083D02*
X101350000Y-127782083D01*
X94700000Y-48900000D02*
X94900000Y-48800000D01*
G36*
X99500000Y-68700000D02*
G01*
X99100000Y-68300000D01*
X99500000Y-68300000D01*
X99500000Y-68700000D01*
G37*
X99500000Y-68700000D02*
X99100000Y-68300000D01*
X99500000Y-68300000D01*
X99500000Y-68700000D01*
X123400000Y-122000000D02*
X123300000Y-122000000D01*
X136825000Y-37500000D02*
X136025000Y-37100000D01*
G36*
X145500000Y-48200000D02*
G01*
X145500000Y-47800000D01*
X145900000Y-47800000D01*
X145500000Y-48200000D01*
G37*
X145500000Y-48200000D02*
X145500000Y-47800000D01*
X145900000Y-47800000D01*
X145500000Y-48200000D01*
X106000000Y-37900000D02*
X106800000Y-37500000D01*
X85499999Y-68300000D02*
G75*
G03*
X78000000Y-60500000I-7702759J99270D01*
G01*
X93400000Y-122000000D02*
X93300000Y-122000000D01*
X122200000Y-88850000D02*
X122300000Y-89050000D01*
X137000000Y-60300000D02*
X138000000Y-60300000D01*
X77850000Y-38700000D02*
X78050000Y-38700000D01*
X139525000Y-37100000D02*
X139625000Y-37200000D01*
X154500000Y-89700000D02*
X158500000Y-89700000D01*
X153525000Y-69500000D02*
X153625000Y-69400000D01*
X121900000Y-47300000D02*
X122300000Y-47300000D01*
X152200000Y-88850000D02*
X152000000Y-88950000D01*
X124700000Y-155900000D02*
X124700000Y-155700000D01*
X138050000Y-37100000D02*
X137000000Y-38700000D01*
X92060660Y-46139340D02*
X92060660Y-44639340D01*
X94325000Y-68700000D02*
X95125000Y-68700000D01*
X149925000Y-69400000D02*
X149725000Y-69500000D01*
X101000000Y-117172083D02*
X101410000Y-117522083D01*
G36*
X85500000Y-68700000D02*
G01*
X85500000Y-68300000D01*
X85900000Y-68300000D01*
X85500000Y-68700000D01*
G37*
X85500000Y-68700000D02*
X85500000Y-68300000D01*
X85900000Y-68300000D01*
X85500000Y-68700000D01*
X131000000Y-117172083D02*
X131410000Y-117522083D01*
X150100000Y-122700000D02*
X147400000Y-122700000D01*
X139525000Y-37100000D02*
X138825000Y-38000000D01*
X137000000Y-40000000D02*
G75*
G03*
X129500000Y-47800000I150000J-7650000D01*
G01*
X152100000Y-48900000D02*
X151900000Y-49100000D01*
X121500000Y-48100000D02*
X121800000Y-48100000D01*
X106000000Y-37100000D02*
X106000000Y-38700000D01*
X152900000Y-122000000D02*
X152500000Y-123700000D01*
X120425000Y-67900000D02*
X119725000Y-69500000D01*
X92900000Y-88850000D02*
X92900000Y-90550000D01*
X143890000Y-117172083D02*
X143540000Y-117492083D01*
X151400000Y-90550000D02*
X152200000Y-88850000D01*
X165500000Y-38700000D02*
X165600000Y-38600000D01*
X92200000Y-88850000D02*
X92000000Y-88950000D01*
X152000000Y-122000000D02*
X152900000Y-122000000D01*
X93700000Y-88850000D02*
X93600000Y-88850000D01*
X135525000Y-37900000D02*
X135725000Y-37900000D01*
X123225000Y-68800000D02*
X123525000Y-69500000D01*
X169700000Y-37100000D02*
G75*
G03*
X169300000Y-37500000I0J-400000D01*
G01*
X172000000Y-129272083D02*
G75*
G03*
X163000000Y-129272083I-4500000J6572083D01*
G01*
X153400000Y-122000000D02*
X153000000Y-123700000D01*
X167000000Y-60700000D02*
X168000000Y-60700000D01*
X108300000Y-37100000D02*
X107800000Y-38700000D01*
X140425000Y-37900000D02*
X140125000Y-37900000D01*
X117900000Y-154500000D02*
X117700000Y-154700000D01*
X168100000Y-37100000D02*
X168000000Y-38700000D01*
X152000000Y-44700000D02*
G75*
G03*
X153500000Y-46200000I1500000J0D01*
G01*
X108025000Y-37100000D02*
X106975000Y-38700000D01*
X82000000Y-129272083D02*
X82450000Y-129882083D01*
X121925000Y-67900000D02*
X121725000Y-68000000D01*
X124025000Y-67900000D02*
X123225000Y-68800000D01*
X94025000Y-67900000D02*
X93225000Y-68800000D01*
X91925000Y-67900000D02*
X91725000Y-68000000D01*
X124500000Y-89700000D02*
X128500000Y-89700000D01*
G36*
X159500000Y-48200000D02*
G01*
X159100000Y-47800000D01*
X159500000Y-47800000D01*
X159500000Y-48200000D01*
G37*
X159500000Y-48200000D02*
X159100000Y-47800000D01*
X159500000Y-47800000D01*
X159500000Y-48200000D01*
G36*
X129500000Y-68700000D02*
G01*
X129100000Y-68300000D01*
X129500000Y-68300000D01*
X129500000Y-68700000D01*
G37*
X129500000Y-68700000D02*
X129100000Y-68300000D01*
X129500000Y-68300000D01*
X129500000Y-68700000D01*
X154025000Y-67900000D02*
X154125000Y-68000000D01*
X152800000Y-48900000D02*
X152900000Y-48800000D01*
X176885165Y-145150000D02*
G75*
G03*
X176885165Y-145150000I-5385165J0D01*
G01*
X112000000Y-129272083D02*
G75*
G03*
X103000000Y-129272083I-4500000J6572083D01*
G01*
X107800000Y-38700000D02*
X107700000Y-38700000D01*
G36*
X69500000Y-48200000D02*
G01*
X69100000Y-47800000D01*
X69500000Y-47800000D01*
X69500000Y-48200000D01*
G37*
X69500000Y-48200000D02*
X69100000Y-47800000D01*
X69500000Y-47800000D01*
X69500000Y-48200000D01*
X90500000Y-89700000D02*
X86500000Y-89700000D01*
X156000000Y-68700000D02*
X158000000Y-68700000D01*
X117900000Y-155900000D02*
X118500000Y-155900000D01*
X150800000Y-122000000D02*
X151600000Y-123700000D01*
X94200000Y-47300000D02*
X93400000Y-48900000D01*
X120900000Y-48400000D02*
X120200000Y-47300000D01*
X167000000Y-40000000D02*
G75*
G03*
X159500000Y-47800000I150000J-7650000D01*
G01*
X150200000Y-47300000D02*
X149800000Y-48900000D01*
X110800000Y-114972083D02*
X110640000Y-115352083D01*
X116300000Y-154900000D02*
X117300000Y-154500000D01*
X122100000Y-48900000D02*
X121900000Y-49100000D01*
X138825000Y-38000000D02*
X139325000Y-38700000D01*
X125100000Y-48200000D02*
X125100000Y-47300000D01*
X92000000Y-122000000D02*
X92900000Y-122000000D01*
X126900000Y-154700000D02*
X126100000Y-154700000D01*
X119500000Y-153700000D02*
G75*
G03*
X119100000Y-154100000I0J-400000D01*
G01*
X165000000Y-37950000D02*
X165500000Y-38700000D01*
X126100000Y-155900000D02*
X126900000Y-154700000D01*
X83890000Y-117172083D02*
X83540000Y-117492083D01*
X120425000Y-67900000D02*
X121325000Y-68300000D01*
X129500000Y-154700000D02*
X128900000Y-155900000D01*
X89925000Y-69400000D02*
X89725000Y-69500000D01*
X175499930Y-68299999D02*
G75*
G03*
X168000000Y-60500000I-7702730J99299D01*
G01*
X77300000Y-37100000D02*
X77200000Y-38700000D01*
X93300000Y-47300000D02*
X93400000Y-47400000D01*
X108800000Y-37100000D02*
X108300000Y-38700000D01*
X146500000Y-48200000D02*
X149300000Y-48200000D01*
X92975000Y-67900000D02*
X92025000Y-69500000D01*
X110400000Y-37900000D02*
X110100000Y-37900000D01*
X173250000Y-134350000D02*
X173650000Y-134350000D01*
X121125000Y-69500000D02*
X121925000Y-67900000D01*
X169300000Y-37500000D02*
X169100000Y-38700000D01*
X116300000Y-155900000D02*
X117300000Y-155300000D01*
X145600000Y-120272083D02*
X145140000Y-120412083D01*
X168000000Y-37900000D02*
X167700000Y-37900000D01*
X123300000Y-47300000D02*
X122500000Y-48200000D01*
X128100000Y-154700000D02*
X127900000Y-154700000D01*
X133000000Y-129272083D02*
X132540000Y-129862083D01*
X92900000Y-90550000D02*
X93700000Y-88850000D01*
X113890000Y-117172083D02*
X113540000Y-117492083D01*
X145300000Y-125572083D02*
X144990000Y-125462083D01*
X151900000Y-47300000D02*
G75*
G03*
X151500000Y-47700000I0J-400000D01*
G01*
X80800000Y-114972083D02*
X80640000Y-115352083D01*
X92100000Y-48900000D02*
X91900000Y-48700000D01*
X142000000Y-129272083D02*
G75*
G03*
X133000000Y-129272083I-4500000J6572083D01*
G01*
X145502701Y-122772083D02*
X146274313Y-122772083D01*
X104900000Y-37100000D02*
X104000000Y-38700000D01*
X99600000Y-125672083D02*
X100040000Y-125512083D01*
X105400000Y-37100000D02*
X104500000Y-38700000D01*
X103000000Y-129272083D02*
X102540000Y-129862083D01*
X122300000Y-154100000D02*
X122300000Y-155900000D01*
X169700000Y-37100000D02*
X170100000Y-37100000D01*
X173890000Y-117172083D02*
X173540000Y-117492083D01*
X175499930Y-47799999D02*
G75*
G03*
X168000000Y-40000000I-7702730J99299D01*
G01*
X153225000Y-68800000D02*
X153525000Y-69500000D01*
X76450000Y-37500000D02*
X75650000Y-37100000D01*
X124200000Y-47300000D02*
X123400000Y-48900000D01*
X120500000Y-89700000D02*
X116500000Y-89700000D01*
X119925000Y-69400000D02*
X119725000Y-69500000D01*
X77500000Y-114733694D02*
X77500000Y-113772083D01*
X161000000Y-128072083D02*
X161350000Y-127782083D01*
X155425000Y-67900000D02*
X154525000Y-69500000D01*
G36*
X115500000Y-48200000D02*
G01*
X115500000Y-47800000D01*
X115900000Y-47800000D01*
X115500000Y-48200000D01*
G37*
X115500000Y-48200000D02*
X115500000Y-47800000D01*
X115900000Y-47800000D01*
X115500000Y-48200000D01*
X153300000Y-47300000D02*
X153400000Y-47400000D01*
X142000000Y-129272083D02*
X142450000Y-129882083D01*
X94100000Y-48100000D02*
X93800000Y-48100000D01*
X107000000Y-60300000D02*
X108000000Y-60300000D01*
X152500000Y-123700000D02*
X152000000Y-122000000D01*
X77850000Y-38700000D02*
X77850000Y-38500000D01*
X119100000Y-154700000D02*
X119500000Y-154700000D01*
X120900000Y-154700000D02*
X120900000Y-155900000D01*
X149725000Y-69500000D02*
X149625000Y-69300000D01*
X139575000Y-38100000D02*
X139675000Y-38200000D01*
X125700000Y-154700000D02*
X124700000Y-154900000D01*
X95100000Y-48200000D02*
X95600000Y-47300000D01*
X99400000Y-120272083D02*
X99860000Y-120412083D01*
X151600000Y-123700000D02*
X151600000Y-122000000D01*
X90800000Y-122000000D02*
X91600000Y-123700000D01*
X132750000Y-94550000D02*
X132450000Y-94550000D01*
X175300000Y-125572083D02*
X174990000Y-125462083D01*
X165850000Y-37000000D02*
X165950000Y-37100000D01*
X120900000Y-155300000D02*
X121100000Y-155300000D01*
X169900000Y-38700000D02*
X169700000Y-38900000D01*
X151925000Y-67900000D02*
X151725000Y-68000000D01*
X152500000Y-48200000D02*
X152800000Y-48900000D01*
X127300000Y-154700000D02*
X127100000Y-154700000D01*
X128716895Y-122700000D02*
X129488507Y-122700000D01*
X106975000Y-38700000D02*
X107225000Y-37100000D01*
X91600000Y-122000000D02*
X91500000Y-122000000D01*
X92100000Y-90550000D02*
X92000000Y-90550000D01*
X170450000Y-134350000D02*
X171350000Y-134350000D01*
X122500000Y-48200000D02*
X122800000Y-48900000D01*
X151900000Y-47300000D02*
X152300000Y-47300000D01*
X137000000Y-39800000D02*
X138000000Y-39800000D01*
X86500000Y-48200000D02*
X89300000Y-48200000D01*
X121600000Y-122000000D02*
X121500000Y-122000000D01*
X170800000Y-114972083D02*
X170640000Y-115352083D01*
X171350000Y-134350000D02*
X170950000Y-136050000D01*
X168100000Y-37100000D02*
X167300000Y-38700000D01*
X93525000Y-69500000D02*
X93625000Y-69400000D01*
X131250000Y-96450000D02*
X132750000Y-94550000D01*
X122100000Y-155700000D02*
X122300000Y-155900000D01*
X109500000Y-37100000D02*
X109600000Y-37200000D01*
X122300000Y-155900000D02*
X122300000Y-155700000D01*
X122100000Y-90550000D02*
X122000000Y-90550000D01*
G36*
X69500000Y-68700000D02*
G01*
X69100000Y-68300000D01*
X69500000Y-68300000D01*
X69500000Y-68700000D01*
G37*
X69500000Y-68700000D02*
X69100000Y-68300000D01*
X69500000Y-68300000D01*
X69500000Y-68700000D01*
X75650000Y-38700000D02*
X76450000Y-38200000D01*
X77000000Y-39800000D02*
X78000000Y-39800000D01*
X115300000Y-125572083D02*
X114990000Y-125462083D01*
X124100000Y-48100000D02*
X123800000Y-48100000D01*
X106800000Y-38200000D02*
X106000000Y-37900000D01*
X78850000Y-38700000D02*
X79050000Y-38700000D01*
X138325000Y-37100000D02*
X138325000Y-38700000D01*
X154700000Y-48900000D02*
X154700000Y-48700000D01*
X166000000Y-38700000D02*
X166900000Y-38700000D01*
X77000000Y-40200000D02*
X78000000Y-40200000D01*
X153000000Y-123700000D02*
X154100000Y-123700000D01*
X71000000Y-117172083D02*
X71410000Y-117522083D01*
X90100000Y-122700000D02*
X87400000Y-122700000D01*
X95100000Y-48200000D02*
X94700000Y-48900000D01*
X109550000Y-38100000D02*
X109650000Y-38200000D01*
G36*
X115500000Y-68700000D02*
G01*
X115500000Y-68300000D01*
X115900000Y-68300000D01*
X115500000Y-68700000D01*
G37*
X115500000Y-68700000D02*
X115500000Y-68300000D01*
X115900000Y-68300000D01*
X115500000Y-68700000D01*
X92575000Y-67900000D02*
X93275000Y-67900000D01*
X93225000Y-68800000D02*
X93525000Y-69500000D01*
X129100000Y-154700000D02*
X128900000Y-154700000D01*
X169150000Y-37100000D02*
X169050000Y-37100000D01*
X122200000Y-88850000D02*
X122000000Y-88950000D01*
X152575000Y-67900000D02*
X153275000Y-67900000D01*
X116500000Y-48200000D02*
X119300000Y-48200000D01*
X122500000Y-123700000D02*
X122000000Y-122000000D01*
X107225000Y-37100000D02*
X108025000Y-37100000D01*
X137000000Y-60500000D02*
G75*
G03*
X129500000Y-68300000I150000J-7650000D01*
G01*
X131000000Y-128072083D02*
X131350000Y-127782083D01*
X138825000Y-37100000D02*
X138725000Y-37100000D01*
X119800000Y-48900000D02*
X120900000Y-48400000D01*
X175600000Y-120272083D02*
X175140000Y-120412083D01*
X117900000Y-154500000D02*
X117900000Y-155900000D01*
X152900000Y-88850000D02*
X152900000Y-90550000D01*
X175502701Y-122772083D02*
X176274313Y-122772083D01*
X120100000Y-122700000D02*
X117400000Y-122700000D01*
X94025000Y-67900000D02*
X94125000Y-68000000D01*
X147000000Y-68700000D02*
X149000000Y-68700000D01*
X152100000Y-90550000D02*
X152900000Y-88850000D01*
X167500000Y-92950000D02*
X167500000Y-101700000D01*
X78750000Y-37100000D02*
X78550000Y-37000000D01*
X77000000Y-40000000D02*
G75*
G03*
X69500000Y-47800000I150000J-7650000D01*
G01*
X78750000Y-37600000D02*
X79650000Y-38100000D01*
X171650000Y-134350000D02*
X171350000Y-136050000D01*
X83930000Y-127912083D02*
X83690000Y-127712083D01*
X127300000Y-154700000D02*
X126900000Y-155900000D01*
G36*
X175500000Y-48200000D02*
G01*
X175500000Y-47800000D01*
X175900000Y-47800000D01*
X175500000Y-48200000D01*
G37*
X175500000Y-48200000D02*
X175500000Y-47800000D01*
X175900000Y-47800000D01*
X175500000Y-48200000D01*
X138325000Y-37100000D02*
X137825000Y-38700000D01*
X124700000Y-154900000D02*
X125500000Y-155500000D01*
X168450000Y-37100000D02*
X168350000Y-38700000D01*
X158716895Y-122700000D02*
X159488507Y-122700000D01*
X139325000Y-38700000D02*
X139675000Y-38200000D01*
X92100000Y-90550000D02*
X92900000Y-88850000D01*
D11*
G36*
X172000000Y-94200000D02*
G01*
X163000000Y-94200000D01*
X163000000Y-85200000D01*
X172000000Y-85200000D01*
X172000000Y-94200000D01*
G37*
X172000000Y-94200000D02*
X163000000Y-94200000D01*
X163000000Y-85200000D01*
X172000000Y-85200000D01*
X172000000Y-94200000D01*
D10*
X134225000Y-38700000D02*
X135125000Y-38700000D01*
X72750000Y-94550000D02*
X72450000Y-94550000D01*
X79650000Y-38100000D02*
X78850000Y-38700000D01*
X168450000Y-37100000D02*
X168350000Y-37100000D01*
X93000000Y-123700000D02*
X94100000Y-123700000D01*
X85300000Y-125572083D02*
X84990000Y-125462083D01*
X125500000Y-155500000D02*
X124700000Y-155900000D01*
X167000000Y-40200000D02*
X168000000Y-40200000D01*
X92800000Y-48900000D02*
X92900000Y-48800000D01*
X122575000Y-67900000D02*
X123275000Y-67900000D01*
X124700000Y-48900000D02*
X124900000Y-48800000D01*
X77000000Y-60500000D02*
G75*
G03*
X69500000Y-68300000I150000J-7650000D01*
G01*
X85600000Y-120272083D02*
X85140000Y-120412083D01*
X108800000Y-37100000D02*
X108700000Y-37100000D01*
X108300000Y-37100000D02*
X108300000Y-38700000D01*
X170950000Y-136050000D02*
X170450000Y-134350000D01*
X94925000Y-67900000D02*
X94025000Y-69500000D01*
X154925000Y-67900000D02*
X154025000Y-69500000D01*
X90425000Y-67900000D02*
X91325000Y-68300000D01*
X167000000Y-39800000D02*
X168000000Y-39800000D01*
G36*
X129500000Y-48200000D02*
G01*
X129100000Y-47800000D01*
X129500000Y-47800000D01*
X129500000Y-48200000D01*
G37*
X129500000Y-48200000D02*
X129100000Y-47800000D01*
X129500000Y-47800000D01*
X129500000Y-48200000D01*
X77200000Y-37900000D02*
X76900000Y-37900000D01*
X154025000Y-67900000D02*
X153225000Y-68800000D01*
X124200000Y-47300000D02*
X124100000Y-48900000D01*
X77000000Y-60300000D02*
X78000000Y-60300000D01*
X137825000Y-38700000D02*
X137725000Y-38700000D01*
X155100000Y-48200000D02*
X154700000Y-48900000D01*
X117300000Y-154500000D02*
X116300000Y-154100000D01*
X151325000Y-68300000D02*
X150125000Y-68600000D01*
X92500000Y-48200000D02*
X92800000Y-48900000D01*
X98716895Y-122700000D02*
X99488507Y-122700000D01*
X93300000Y-47300000D02*
X92500000Y-48200000D01*
X125100000Y-48200000D02*
X124700000Y-48900000D01*
X126000000Y-68700000D02*
X128000000Y-68700000D01*
X117300000Y-155300000D02*
X116300000Y-154900000D01*
X154200000Y-47300000D02*
X153400000Y-48900000D01*
X149800000Y-48900000D02*
X150900000Y-48400000D01*
X172550000Y-134350000D02*
X173250000Y-134350000D01*
X134925000Y-37100000D02*
X134225000Y-38700000D01*
X127700000Y-155900000D02*
X127900000Y-155900000D01*
D11*
G36*
X142000000Y-94200000D02*
G01*
X133000000Y-94200000D01*
X133000000Y-85200000D01*
X142000000Y-85200000D01*
X142000000Y-94200000D01*
G37*
X142000000Y-94200000D02*
X133000000Y-94200000D01*
X133000000Y-85200000D01*
X142000000Y-85200000D01*
X142000000Y-94200000D01*
D10*
X136825000Y-38200000D02*
X136025000Y-37900000D01*
X122000000Y-122000000D02*
X122900000Y-122000000D01*
X134300000Y-114872083D02*
X134490000Y-115322083D01*
X109300000Y-38700000D02*
X109650000Y-38200000D01*
X73000000Y-129272083D02*
X72540000Y-129862083D01*
X122060660Y-44639340D02*
G75*
G03*
X123560660Y-46139340I1500040J40D01*
G01*
X91925000Y-67900000D02*
X92025000Y-68100000D01*
X137500000Y-92950000D02*
X137500000Y-101700000D01*
X166700000Y-37100000D02*
X166000000Y-38700000D01*
X164300000Y-114872083D02*
X164490000Y-115322083D01*
X145499930Y-47799999D02*
G75*
G03*
X138000000Y-40000000I-7702730J99299D01*
G01*
G36*
X99500000Y-48200000D02*
G01*
X99100000Y-47800000D01*
X99500000Y-47800000D01*
X99500000Y-48200000D01*
G37*
X99500000Y-48200000D02*
X99100000Y-47800000D01*
X99500000Y-47800000D01*
X99500000Y-48200000D01*
X129400000Y-120272083D02*
X129860000Y-120412083D01*
X150500000Y-89700000D02*
X146500000Y-89700000D01*
X92900000Y-122000000D02*
X92500000Y-123700000D01*
X79750000Y-37100000D02*
X79550000Y-37000000D01*
X91400000Y-90550000D02*
X92200000Y-88850000D01*
X161000000Y-117172083D02*
X161410000Y-117522083D01*
X120800000Y-122000000D02*
X121600000Y-123700000D01*
X175719301Y-145150000D02*
G75*
G03*
X175719301Y-145150000I-4219301J0D01*
G01*
X152975000Y-67900000D02*
X152025000Y-69500000D01*
X153300000Y-47300000D02*
X152500000Y-48200000D01*
X125425000Y-67900000D02*
X124525000Y-69500000D01*
X107500000Y-114733694D02*
X107500000Y-113772083D01*
X152900000Y-90550000D02*
X153700000Y-88850000D01*
X122800000Y-48900000D02*
X122900000Y-48800000D01*
X155800000Y-48200000D02*
X158500000Y-48200000D01*
X172950000Y-134350000D02*
X171950000Y-136050000D01*
X151500000Y-48100000D02*
X151800000Y-48100000D01*
X150425000Y-67900000D02*
X151325000Y-68300000D01*
X176180278Y-145700000D02*
G75*
G03*
X176180278Y-145700000I-4680278J0D01*
G01*
X112000000Y-129272083D02*
X112450000Y-129882083D01*
X117000000Y-68700000D02*
X119000000Y-68700000D01*
X122900000Y-122000000D02*
X122500000Y-123700000D01*
X151125000Y-69500000D02*
X151925000Y-67900000D01*
X107000000Y-39800000D02*
X108000000Y-39800000D01*
X94500000Y-89700000D02*
X98500000Y-89700000D01*
X85502701Y-122772083D02*
X86274313Y-122772083D01*
X121325000Y-68300000D02*
X120125000Y-68600000D01*
X91125000Y-69500000D02*
X91925000Y-67900000D01*
X165850000Y-37000000D02*
X165000000Y-37950000D01*
X151600000Y-122000000D02*
X151500000Y-122000000D01*
X129600000Y-125672083D02*
X130040000Y-125512083D01*
X169100000Y-38700000D02*
X169800000Y-38700000D01*
X150800000Y-122000000D02*
X150700000Y-122000000D01*
X134925000Y-37100000D02*
X134825000Y-37100000D01*
X124700000Y-48900000D02*
X124700000Y-48700000D01*
X159400000Y-120272083D02*
X159860000Y-120412083D01*
X176439636Y-145700000D02*
G75*
G03*
X176439636Y-145700000I-4939636J0D01*
G01*
X69400000Y-120272083D02*
X69860000Y-120412083D01*
X132750000Y-94550000D02*
X132750000Y-94850000D01*
X137000000Y-38700000D02*
X137250000Y-37100000D01*
X78850000Y-38700000D02*
X78850000Y-38500000D01*
X104300000Y-37900000D02*
X105100000Y-37900000D01*
X76450000Y-38200000D02*
X75650000Y-37900000D01*
X123400000Y-122000000D02*
X123000000Y-123700000D01*
D11*
G36*
X112000000Y-94200000D02*
G01*
X103000000Y-94200000D01*
X103000000Y-85200000D01*
X112000000Y-85200000D01*
X112000000Y-94200000D01*
G37*
X112000000Y-94200000D02*
X103000000Y-94200000D01*
X103000000Y-85200000D01*
X112000000Y-85200000D01*
X112000000Y-94200000D01*
D10*
X124500000Y-122700000D02*
X127200000Y-122700000D01*
X167000000Y-60500000D02*
G75*
G03*
X159500000Y-68300000I150000J-7650000D01*
G01*
X77000000Y-60700000D02*
X78000000Y-60700000D01*
X171350000Y-136050000D02*
X172350000Y-134350000D01*
X167500000Y-114733694D02*
X167500000Y-113772083D01*
X154200000Y-47300000D02*
X154100000Y-48900000D01*
X125800000Y-48200000D02*
X128500000Y-48200000D01*
X122975000Y-67900000D02*
X122025000Y-69500000D01*
X119500000Y-153700000D02*
X120300000Y-153700000D01*
X137000000Y-40200000D02*
X138000000Y-40200000D01*
X123000000Y-123700000D02*
X124100000Y-123700000D01*
X152100000Y-90550000D02*
X152000000Y-90550000D01*
X122300000Y-155900000D02*
X122500000Y-155700000D01*
X152000000Y-46200000D02*
X152000000Y-44700000D01*
X74300000Y-114872083D02*
X74490000Y-115322083D01*
X116300000Y-154100000D02*
X116300000Y-155900000D01*
X151300000Y-48900000D02*
X152000000Y-48900000D01*
X123525000Y-69500000D02*
X123625000Y-69400000D01*
X72750000Y-94550000D02*
X72750000Y-94850000D01*
X115502701Y-122772083D02*
X116274313Y-122772083D01*
X126900000Y-155900000D02*
X128100000Y-154700000D01*
X136025000Y-37900000D02*
X136825000Y-37500000D01*
X89800000Y-48900000D02*
X90900000Y-48400000D01*
X90200000Y-47300000D02*
X89800000Y-48900000D01*
X151925000Y-67900000D02*
X152025000Y-68100000D01*
X140800000Y-114972083D02*
X140640000Y-115352083D01*
X138825000Y-37100000D02*
X138325000Y-38700000D01*
X79750000Y-37100000D02*
X79750000Y-37300000D01*
X75650000Y-37100000D02*
X75650000Y-38700000D01*
X120300000Y-155900000D02*
X120100000Y-155700000D01*
X71500000Y-96450000D02*
G75*
G03*
X71500000Y-96450000I-250000J0D01*
G01*
X163000000Y-129272083D02*
X162540000Y-129862083D01*
X90425000Y-67900000D02*
X89725000Y-69500000D01*
X89725000Y-69500000D02*
X89625000Y-69300000D01*
X137000000Y-60700000D02*
X138000000Y-60700000D01*
X129500000Y-154700000D02*
X129900000Y-155500000D01*
X95425000Y-67900000D02*
X94525000Y-69500000D01*
X150900000Y-48400000D02*
X150200000Y-47300000D01*
X91500000Y-47700000D02*
X91300000Y-48900000D01*
X169900000Y-38700000D02*
X169700000Y-38500000D01*
X93400000Y-122000000D02*
X93000000Y-123700000D01*
X105500000Y-37900000D02*
X105700000Y-37900000D01*
X68716895Y-122700000D02*
X69488507Y-122700000D01*
X79750000Y-37100000D02*
X78750000Y-37600000D01*
X162750000Y-94550000D02*
X162450000Y-94550000D01*
X173930000Y-127912083D02*
X173690000Y-127712083D01*
X82000000Y-129272083D02*
G75*
G03*
X73000000Y-129272083I-4500000J6572083D01*
G01*
X155100000Y-48200000D02*
X155100000Y-47300000D01*
X113930000Y-127912083D02*
X113690000Y-127712083D01*
X78750000Y-37100000D02*
X78750000Y-37300000D01*
X107000000Y-40000000D02*
G75*
G03*
X99500000Y-47800000I150000J-7650000D01*
G01*
X109500000Y-37100000D02*
X108800000Y-38000000D01*
X153700000Y-88850000D02*
X153600000Y-88850000D01*
X117900000Y-154500000D02*
X118100000Y-154700000D01*
X115499930Y-68299999D02*
G75*
G03*
X108000000Y-60500000I-7702730J99299D01*
G01*
X78650000Y-38100000D02*
X77850000Y-38700000D01*
X123700000Y-88850000D02*
X123600000Y-88850000D01*
G36*
X159500000Y-68700000D02*
G01*
X159100000Y-68300000D01*
X159500000Y-68300000D01*
X159500000Y-68700000D01*
G37*
X159500000Y-68700000D02*
X159100000Y-68300000D01*
X159500000Y-68300000D01*
X159500000Y-68700000D01*
X77300000Y-37100000D02*
X76500000Y-38700000D01*
X122900000Y-88850000D02*
X122900000Y-90550000D01*
X155100000Y-48200000D02*
X155600000Y-47300000D01*
X122060660Y-46139340D02*
X122060660Y-44639340D01*
X154325000Y-68700000D02*
X155125000Y-68700000D01*
X152200000Y-88850000D02*
X152300000Y-89050000D01*
X128500000Y-154700000D02*
X127700000Y-155900000D01*
X131500000Y-96450000D02*
G75*
G03*
X131500000Y-96450000I-250000J0D01*
G01*
X107000000Y-60500000D02*
G75*
G03*
X99500000Y-68300000I150000J-7650000D01*
G01*
X110500000Y-37100000D02*
X110400000Y-38700000D01*
X95100000Y-48200000D02*
X95100000Y-47300000D01*
X120300000Y-155900000D02*
X120100000Y-156100000D01*
X120200000Y-47300000D02*
X119800000Y-48900000D01*
X136025000Y-37100000D02*
X136025000Y-38700000D01*
X94500000Y-122700000D02*
X97200000Y-122700000D01*
X121600000Y-123700000D02*
X121600000Y-122000000D01*
X122300000Y-154100000D02*
X123700000Y-154500000D01*
X121300000Y-48900000D02*
X122000000Y-48900000D01*
X122900000Y-90550000D02*
X123700000Y-88850000D01*
X128300000Y-155900000D02*
X129100000Y-154700000D01*
X128900000Y-155900000D02*
X129900000Y-155500000D01*
X162750000Y-94550000D02*
X162750000Y-94850000D01*
X124925000Y-67900000D02*
X124025000Y-69500000D01*
X123300000Y-47300000D02*
X123400000Y-47400000D01*
X154500000Y-122700000D02*
X157200000Y-122700000D01*
X92060660Y-44639340D02*
G75*
G03*
X93560660Y-46139340I1500040J40D01*
G01*
X120900000Y-155900000D02*
X121700000Y-155900000D01*
X92200000Y-88850000D02*
X92300000Y-89050000D01*
X124325000Y-68700000D02*
X125125000Y-68700000D01*
X166700000Y-37100000D02*
X166600000Y-37100000D01*
X71000000Y-128072083D02*
X71350000Y-127782083D01*
X137500000Y-114733694D02*
X137500000Y-113772083D01*
X96000000Y-68700000D02*
X98000000Y-68700000D01*
X125100000Y-48200000D02*
X125600000Y-47300000D01*
X154100000Y-48100000D02*
X153800000Y-48100000D01*
X69600000Y-125672083D02*
X70040000Y-125512083D01*
X87000000Y-68700000D02*
X89000000Y-68700000D01*
X95800000Y-48200000D02*
X98500000Y-48200000D01*
X123700000Y-154500000D02*
X122300000Y-154900000D01*
X167000000Y-60300000D02*
X168000000Y-60300000D01*
X91900000Y-47300000D02*
G75*
G03*
X91500000Y-47700000I0J-400000D01*
G01*
X75650000Y-37900000D02*
X76450000Y-37500000D01*
X71250000Y-96450000D02*
X72750000Y-94550000D01*
G36*
X145500000Y-68700000D02*
G01*
X145500000Y-68300000D01*
X145900000Y-68300000D01*
X145500000Y-68700000D01*
G37*
X145500000Y-68700000D02*
X145500000Y-68300000D01*
X145900000Y-68300000D01*
X145500000Y-68700000D01*
X77750000Y-37600000D02*
X78650000Y-38100000D01*
X122100000Y-90550000D02*
X122900000Y-88850000D01*
X91900000Y-47300000D02*
X92300000Y-47300000D01*
X115600000Y-120272083D02*
X115140000Y-120412083D01*
X91600000Y-123700000D02*
X91600000Y-122000000D01*
X90800000Y-122000000D02*
X90700000Y-122000000D01*
X177813478Y-144200000D02*
G75*
G03*
X177813478Y-144200000I-6313478J0D01*
G01*
X121400000Y-90550000D02*
X122200000Y-88850000D01*
X122100000Y-48900000D02*
X121900000Y-48700000D01*
X115499930Y-47799999D02*
G75*
G03*
X108000000Y-40000000I-7702730J99299D01*
G01*
X121500000Y-47700000D02*
X121300000Y-48900000D01*
X161500000Y-96450000D02*
G75*
G03*
X161500000Y-96450000I-250000J0D01*
G01*
X94700000Y-48900000D02*
X94700000Y-48700000D01*
X161250000Y-96450000D02*
X162750000Y-94550000D01*
X119100000Y-154100000D02*
X119100000Y-155900000D01*
X106000000Y-38700000D02*
X106800000Y-38200000D01*
X91500000Y-48100000D02*
X91800000Y-48100000D01*
X121900000Y-47300000D02*
G75*
G03*
X121500000Y-47700000I0J-400000D01*
G01*
X159600000Y-125672083D02*
X160040000Y-125512083D01*
D11*
G36*
X82000000Y-94200000D02*
G01*
X73000000Y-94200000D01*
X73000000Y-85200000D01*
X82000000Y-85200000D01*
X82000000Y-94200000D01*
G37*
X82000000Y-94200000D02*
X73000000Y-94200000D01*
X73000000Y-85200000D01*
X82000000Y-85200000D01*
X82000000Y-94200000D01*
D10*
X110500000Y-37100000D02*
X109700000Y-38700000D01*
X172000000Y-129272083D02*
X172450000Y-129882083D01*
X152100000Y-48900000D02*
X151900000Y-48700000D01*
X94200000Y-47300000D02*
X94100000Y-48900000D01*
X104300000Y-114872083D02*
X104490000Y-115322083D01*
X169300000Y-37900000D02*
X169600000Y-37900000D01*
X85499999Y-47800000D02*
G75*
G03*
X78000000Y-40000000I-7702759J99270D01*
G01*
X120800000Y-122000000D02*
X120700000Y-122000000D01*
X143930000Y-127912083D02*
X143690000Y-127712083D01*
X91325000Y-68300000D02*
X90125000Y-68600000D01*
X151500000Y-47700000D02*
X151300000Y-48900000D01*
X92500000Y-123700000D02*
X92000000Y-122000000D01*
X154700000Y-48900000D02*
X154900000Y-48800000D01*
X140525000Y-37100000D02*
X139725000Y-38700000D01*
X153400000Y-122000000D02*
X153300000Y-122000000D01*
X90900000Y-48400000D02*
X90200000Y-47300000D01*
X78750000Y-37100000D02*
X77750000Y-37600000D01*
X169150000Y-37100000D02*
X168350000Y-38700000D01*
X125700000Y-154700000D02*
X125700000Y-154900000D01*
X91300000Y-48900000D02*
X92000000Y-48900000D01*
X119725000Y-69500000D02*
X119625000Y-69300000D01*
X145499930Y-68299999D02*
G75*
G03*
X138000000Y-60500000I-7702730J99299D01*
G01*
X150425000Y-67900000D02*
X149725000Y-69500000D01*
X126100000Y-154700000D02*
X126100000Y-155900000D01*
X108800000Y-38000000D02*
X109300000Y-38700000D01*
X140525000Y-37100000D02*
X140425000Y-38700000D01*
X137250000Y-37100000D02*
X138050000Y-37100000D01*
X107000000Y-40200000D02*
X108000000Y-40200000D01*
X128500000Y-154700000D02*
X128300000Y-155900000D01*
X107000000Y-60700000D02*
X108000000Y-60700000D01*
X92100000Y-48900000D02*
X91900000Y-49100000D01*
X120900000Y-154700000D02*
X121700000Y-154700000D01*
G36*
X85500000Y-48200000D02*
G01*
X85500000Y-47800000D01*
X85900000Y-47800000D01*
X85500000Y-48200000D01*
G37*
X85500000Y-48200000D02*
X85500000Y-47800000D01*
X85900000Y-47800000D01*
X85500000Y-48200000D01*
X124025000Y-67900000D02*
X124125000Y-68000000D01*
G36*
X175500000Y-68700000D02*
G01*
X175500000Y-68300000D01*
X175900000Y-68300000D01*
X175500000Y-68700000D01*
G37*
X175500000Y-68700000D02*
X175500000Y-68300000D01*
X175900000Y-68300000D01*
X175500000Y-68700000D01*
X106800000Y-37500000D02*
X106000000Y-37100000D01*
X121925000Y-67900000D02*
X122025000Y-68100000D01*
D12*
X62500000Y-32200000D02*
X62500000Y-160200000D01*
X62500000Y-32200000D02*
X182500000Y-32200000D01*
X182500000Y-32200000D02*
X182500000Y-160200000D01*
X182500000Y-160200000D02*
X62500000Y-160200000D01*
D13*
X72738095Y-141452380D02*
X72738095Y-140452380D01*
X72738095Y-140928571D02*
X73309523Y-140928571D01*
X73309523Y-141452380D02*
X73309523Y-140452380D01*
X74261904Y-140452380D02*
X73785714Y-140452380D01*
X73738095Y-140928571D01*
X73785714Y-140880952D01*
X73880952Y-140833333D01*
X74119047Y-140833333D01*
X74214285Y-140880952D01*
X74261904Y-140928571D01*
X74309523Y-141023809D01*
X74309523Y-141261904D01*
X74261904Y-141357142D01*
X74214285Y-141404761D01*
X74119047Y-141452380D01*
X73880952Y-141452380D01*
X73785714Y-141404761D01*
X73738095Y-141357142D01*
X121738095Y-50952380D02*
X121738095Y-49952380D01*
X121738095Y-50428571D02*
X122309523Y-50428571D01*
X122309523Y-50952380D02*
X122309523Y-49952380D01*
X122928571Y-50380952D02*
X122833333Y-50333333D01*
X122785714Y-50285714D01*
X122738095Y-50190476D01*
X122738095Y-50142857D01*
X122785714Y-50047619D01*
X122833333Y-50000000D01*
X122928571Y-49952380D01*
X123119047Y-49952380D01*
X123214285Y-50000000D01*
X123261904Y-50047619D01*
X123309523Y-50142857D01*
X123309523Y-50190476D01*
X123261904Y-50285714D01*
X123214285Y-50333333D01*
X123119047Y-50380952D01*
X122928571Y-50380952D01*
X122833333Y-50428571D01*
X122785714Y-50476190D01*
X122738095Y-50571428D01*
X122738095Y-50761904D01*
X122785714Y-50857142D01*
X122833333Y-50904761D01*
X122928571Y-50952380D01*
X123119047Y-50952380D01*
X123214285Y-50904761D01*
X123261904Y-50857142D01*
X123309523Y-50761904D01*
X123309523Y-50571428D01*
X123261904Y-50476190D01*
X123214285Y-50428571D01*
X123119047Y-50380952D01*
%LPC*%
D14*
X70000000Y-35200000D03*
X175000000Y-35200000D03*
X70000000Y-157200000D03*
D15*
X73500000Y-145200000D03*
D14*
X175000000Y-157200000D03*
D15*
X122500000Y-54700000D03*
M02*
