G04 #@! TF.GenerationSoftware,KiCad,Pcbnew,(6.0.6)*
G04 #@! TF.CreationDate,2022-11-24T12:55:08+00:00*
G04 #@! TF.ProjectId,Drumbox,4472756d-626f-4782-9e6b-696361645f70,rev?*
G04 #@! TF.SameCoordinates,Original*
G04 #@! TF.FileFunction,Legend,Bot*
G04 #@! TF.FilePolarity,Positive*
%FSLAX46Y46*%
G04 Gerber Fmt 4.6, Leading zero omitted, Abs format (unit mm)*
G04 Created by KiCad (PCBNEW (6.0.6)) date 2022-11-24 12:55:08*
%MOMM*%
%LPD*%
G01*
G04 APERTURE LIST*
%ADD10C,0.150000*%
G04 APERTURE END LIST*
D10*
X100785714Y-45228571D02*
X101119047Y-45228571D01*
X101119047Y-45752380D02*
X101119047Y-44752380D01*
X100642857Y-44752380D01*
X100261904Y-45752380D02*
X100261904Y-45085714D01*
X100261904Y-45276190D02*
X100214285Y-45180952D01*
X100166666Y-45133333D01*
X100071428Y-45085714D01*
X99976190Y-45085714D01*
X99500000Y-45752380D02*
X99595238Y-45704761D01*
X99642857Y-45657142D01*
X99690476Y-45561904D01*
X99690476Y-45276190D01*
X99642857Y-45180952D01*
X99595238Y-45133333D01*
X99500000Y-45085714D01*
X99357142Y-45085714D01*
X99261904Y-45133333D01*
X99214285Y-45180952D01*
X99166666Y-45276190D01*
X99166666Y-45561904D01*
X99214285Y-45657142D01*
X99261904Y-45704761D01*
X99357142Y-45752380D01*
X99500000Y-45752380D01*
X98738095Y-45085714D02*
X98738095Y-45752380D01*
X98738095Y-45180952D02*
X98690476Y-45133333D01*
X98595238Y-45085714D01*
X98452380Y-45085714D01*
X98357142Y-45133333D01*
X98309523Y-45228571D01*
X98309523Y-45752380D01*
X97976190Y-45085714D02*
X97595238Y-45085714D01*
X97833333Y-44752380D02*
X97833333Y-45609523D01*
X97785714Y-45704761D01*
X97690476Y-45752380D01*
X97595238Y-45752380D01*
X96500000Y-45085714D02*
X96500000Y-46085714D01*
X96500000Y-45133333D02*
X96404761Y-45085714D01*
X96214285Y-45085714D01*
X96119047Y-45133333D01*
X96071428Y-45180952D01*
X96023809Y-45276190D01*
X96023809Y-45561904D01*
X96071428Y-45657142D01*
X96119047Y-45704761D01*
X96214285Y-45752380D01*
X96404761Y-45752380D01*
X96500000Y-45704761D01*
X95166666Y-45752380D02*
X95166666Y-45228571D01*
X95214285Y-45133333D01*
X95309523Y-45085714D01*
X95500000Y-45085714D01*
X95595238Y-45133333D01*
X95166666Y-45704761D02*
X95261904Y-45752380D01*
X95500000Y-45752380D01*
X95595238Y-45704761D01*
X95642857Y-45609523D01*
X95642857Y-45514285D01*
X95595238Y-45419047D01*
X95500000Y-45371428D01*
X95261904Y-45371428D01*
X95166666Y-45323809D01*
X94690476Y-45085714D02*
X94690476Y-45752380D01*
X94690476Y-45180952D02*
X94642857Y-45133333D01*
X94547619Y-45085714D01*
X94404761Y-45085714D01*
X94309523Y-45133333D01*
X94261904Y-45228571D01*
X94261904Y-45752380D01*
X93404761Y-45704761D02*
X93500000Y-45752380D01*
X93690476Y-45752380D01*
X93785714Y-45704761D01*
X93833333Y-45609523D01*
X93833333Y-45228571D01*
X93785714Y-45133333D01*
X93690476Y-45085714D01*
X93500000Y-45085714D01*
X93404761Y-45133333D01*
X93357142Y-45228571D01*
X93357142Y-45323809D01*
X93833333Y-45419047D01*
X92785714Y-45752380D02*
X92880952Y-45704761D01*
X92928571Y-45609523D01*
X92928571Y-44752380D01*
X38147619Y-100619047D02*
X37433333Y-100619047D01*
X37290476Y-100666666D01*
X37195238Y-100761904D01*
X37147619Y-100904761D01*
X37147619Y-101000000D01*
X37147619Y-99666666D02*
X37147619Y-100142857D01*
X38147619Y-100142857D01*
X37242857Y-98761904D02*
X37195238Y-98809523D01*
X37147619Y-98952380D01*
X37147619Y-99047619D01*
X37195238Y-99190476D01*
X37290476Y-99285714D01*
X37385714Y-99333333D01*
X37576190Y-99380952D01*
X37719047Y-99380952D01*
X37909523Y-99333333D01*
X38004761Y-99285714D01*
X38100000Y-99190476D01*
X38147619Y-99047619D01*
X38147619Y-98952380D01*
X38100000Y-98809523D01*
X38052380Y-98761904D01*
X38147619Y-98047619D02*
X37433333Y-98047619D01*
X37290476Y-98095238D01*
X37195238Y-98190476D01*
X37147619Y-98333333D01*
X37147619Y-98428571D01*
X37147619Y-97095238D02*
X37147619Y-97571428D01*
X38147619Y-97571428D01*
X37242857Y-96190476D02*
X37195238Y-96238095D01*
X37147619Y-96380952D01*
X37147619Y-96476190D01*
X37195238Y-96619047D01*
X37290476Y-96714285D01*
X37385714Y-96761904D01*
X37576190Y-96809523D01*
X37719047Y-96809523D01*
X37909523Y-96761904D01*
X38004761Y-96714285D01*
X38100000Y-96619047D01*
X38147619Y-96476190D01*
X38147619Y-96380952D01*
X38100000Y-96238095D01*
X38052380Y-96190476D01*
X38147619Y-95476190D02*
X37433333Y-95476190D01*
X37290476Y-95523809D01*
X37195238Y-95619047D01*
X37147619Y-95761904D01*
X37147619Y-95857142D01*
X37147619Y-94523809D02*
X37147619Y-95000000D01*
X38147619Y-95000000D01*
X37242857Y-93619047D02*
X37195238Y-93666666D01*
X37147619Y-93809523D01*
X37147619Y-93904761D01*
X37195238Y-94047619D01*
X37290476Y-94142857D01*
X37385714Y-94190476D01*
X37576190Y-94238095D01*
X37719047Y-94238095D01*
X37909523Y-94190476D01*
X38004761Y-94142857D01*
X38100000Y-94047619D01*
X38147619Y-93904761D01*
X38147619Y-93809523D01*
X38100000Y-93666666D01*
X38052380Y-93619047D01*
X38147619Y-92904761D02*
X37433333Y-92904761D01*
X37290476Y-92952380D01*
X37195238Y-93047619D01*
X37147619Y-93190476D01*
X37147619Y-93285714D01*
X37147619Y-91952380D02*
X37147619Y-92428571D01*
X38147619Y-92428571D01*
X37242857Y-91047619D02*
X37195238Y-91095238D01*
X37147619Y-91238095D01*
X37147619Y-91333333D01*
X37195238Y-91476190D01*
X37290476Y-91571428D01*
X37385714Y-91619047D01*
X37576190Y-91666666D01*
X37719047Y-91666666D01*
X37909523Y-91619047D01*
X38004761Y-91571428D01*
X38100000Y-91476190D01*
X38147619Y-91333333D01*
X38147619Y-91238095D01*
X38100000Y-91095238D01*
X38052380Y-91047619D01*
X100000000Y-39942380D02*
X100000000Y-38942380D01*
X99761904Y-38942380D01*
X99619047Y-38990000D01*
X99523809Y-39085238D01*
X99476190Y-39180476D01*
X99428571Y-39370952D01*
X99428571Y-39513809D01*
X99476190Y-39704285D01*
X99523809Y-39799523D01*
X99619047Y-39894761D01*
X99761904Y-39942380D01*
X100000000Y-39942380D01*
X99000000Y-39942380D02*
X99000000Y-39275714D01*
X99000000Y-39466190D02*
X98952380Y-39370952D01*
X98904761Y-39323333D01*
X98809523Y-39275714D01*
X98714285Y-39275714D01*
X97952380Y-39275714D02*
X97952380Y-39942380D01*
X98380952Y-39275714D02*
X98380952Y-39799523D01*
X98333333Y-39894761D01*
X98238095Y-39942380D01*
X98095238Y-39942380D01*
X98000000Y-39894761D01*
X97952380Y-39847142D01*
X97476190Y-39942380D02*
X97476190Y-39275714D01*
X97476190Y-39370952D02*
X97428571Y-39323333D01*
X97333333Y-39275714D01*
X97190476Y-39275714D01*
X97095238Y-39323333D01*
X97047619Y-39418571D01*
X97047619Y-39942380D01*
X97047619Y-39418571D02*
X97000000Y-39323333D01*
X96904761Y-39275714D01*
X96761904Y-39275714D01*
X96666666Y-39323333D01*
X96619047Y-39418571D01*
X96619047Y-39942380D01*
X96142857Y-39942380D02*
X96142857Y-38942380D01*
X96142857Y-39323333D02*
X96047619Y-39275714D01*
X95857142Y-39275714D01*
X95761904Y-39323333D01*
X95714285Y-39370952D01*
X95666666Y-39466190D01*
X95666666Y-39751904D01*
X95714285Y-39847142D01*
X95761904Y-39894761D01*
X95857142Y-39942380D01*
X96047619Y-39942380D01*
X96142857Y-39894761D01*
X95095238Y-39942380D02*
X95190476Y-39894761D01*
X95238095Y-39847142D01*
X95285714Y-39751904D01*
X95285714Y-39466190D01*
X95238095Y-39370952D01*
X95190476Y-39323333D01*
X95095238Y-39275714D01*
X94952380Y-39275714D01*
X94857142Y-39323333D01*
X94809523Y-39370952D01*
X94761904Y-39466190D01*
X94761904Y-39751904D01*
X94809523Y-39847142D01*
X94857142Y-39894761D01*
X94952380Y-39942380D01*
X95095238Y-39942380D01*
X94428571Y-39942380D02*
X93904761Y-39275714D01*
X94428571Y-39275714D02*
X93904761Y-39942380D01*
X103261904Y-40552380D02*
X102928571Y-41552380D01*
X102595238Y-40552380D01*
X101738095Y-41552380D02*
X102309523Y-41552380D01*
X102023809Y-41552380D02*
X102023809Y-40552380D01*
X102119047Y-40695238D01*
X102214285Y-40790476D01*
X102309523Y-40838095D01*
X101309523Y-41457142D02*
X101261904Y-41504761D01*
X101309523Y-41552380D01*
X101357142Y-41504761D01*
X101309523Y-41457142D01*
X101309523Y-41552380D01*
X100880952Y-40647619D02*
X100833333Y-40600000D01*
X100738095Y-40552380D01*
X100500000Y-40552380D01*
X100404761Y-40600000D01*
X100357142Y-40647619D01*
X100309523Y-40742857D01*
X100309523Y-40838095D01*
X100357142Y-40980952D01*
X100928571Y-41552380D01*
X100309523Y-41552380D01*
X98785714Y-41028571D02*
X98642857Y-41076190D01*
X98595238Y-41123809D01*
X98547619Y-41219047D01*
X98547619Y-41361904D01*
X98595238Y-41457142D01*
X98642857Y-41504761D01*
X98738095Y-41552380D01*
X99119047Y-41552380D01*
X99119047Y-40552380D01*
X98785714Y-40552380D01*
X98690476Y-40600000D01*
X98642857Y-40647619D01*
X98595238Y-40742857D01*
X98595238Y-40838095D01*
X98642857Y-40933333D01*
X98690476Y-40980952D01*
X98785714Y-41028571D01*
X99119047Y-41028571D01*
X97976190Y-41552380D02*
X98071428Y-41504761D01*
X98119047Y-41409523D01*
X98119047Y-40552380D01*
X97214285Y-41504761D02*
X97309523Y-41552380D01*
X97500000Y-41552380D01*
X97595238Y-41504761D01*
X97642857Y-41409523D01*
X97642857Y-41028571D01*
X97595238Y-40933333D01*
X97500000Y-40885714D01*
X97309523Y-40885714D01*
X97214285Y-40933333D01*
X97166666Y-41028571D01*
X97166666Y-41123809D01*
X97642857Y-41219047D01*
X96357142Y-41504761D02*
X96452380Y-41552380D01*
X96642857Y-41552380D01*
X96738095Y-41504761D01*
X96785714Y-41409523D01*
X96785714Y-41028571D01*
X96738095Y-40933333D01*
X96642857Y-40885714D01*
X96452380Y-40885714D01*
X96357142Y-40933333D01*
X96309523Y-41028571D01*
X96309523Y-41123809D01*
X96785714Y-41219047D01*
X95880952Y-40885714D02*
X95880952Y-41885714D01*
X95880952Y-40933333D02*
X95785714Y-40885714D01*
X95595238Y-40885714D01*
X95500000Y-40933333D01*
X95452380Y-40980952D01*
X95404761Y-41076190D01*
X95404761Y-41361904D01*
X95452380Y-41457142D01*
X95500000Y-41504761D01*
X95595238Y-41552380D01*
X95785714Y-41552380D01*
X95880952Y-41504761D01*
X95023809Y-41504761D02*
X94880952Y-41552380D01*
X94642857Y-41552380D01*
X94547619Y-41504761D01*
X94500000Y-41457142D01*
X94452380Y-41361904D01*
X94452380Y-41266666D01*
X94500000Y-41171428D01*
X94547619Y-41123809D01*
X94642857Y-41076190D01*
X94833333Y-41028571D01*
X94928571Y-40980952D01*
X94976190Y-40933333D01*
X95023809Y-40838095D01*
X95023809Y-40742857D01*
X94976190Y-40647619D01*
X94928571Y-40600000D01*
X94833333Y-40552380D01*
X94595238Y-40552380D01*
X94452380Y-40600000D01*
X93880952Y-41552380D02*
X93976190Y-41504761D01*
X94023809Y-41457142D01*
X94071428Y-41361904D01*
X94071428Y-41076190D01*
X94023809Y-40980952D01*
X93976190Y-40933333D01*
X93880952Y-40885714D01*
X93738095Y-40885714D01*
X93642857Y-40933333D01*
X93595238Y-40980952D01*
X93547619Y-41076190D01*
X93547619Y-41361904D01*
X93595238Y-41457142D01*
X93642857Y-41504761D01*
X93738095Y-41552380D01*
X93880952Y-41552380D01*
X92690476Y-40885714D02*
X92690476Y-41552380D01*
X93119047Y-40885714D02*
X93119047Y-41409523D01*
X93071428Y-41504761D01*
X92976190Y-41552380D01*
X92833333Y-41552380D01*
X92738095Y-41504761D01*
X92690476Y-41457142D01*
X92214285Y-40885714D02*
X92214285Y-41552380D01*
X92214285Y-40980952D02*
X92166666Y-40933333D01*
X92071428Y-40885714D01*
X91928571Y-40885714D01*
X91833333Y-40933333D01*
X91785714Y-41028571D01*
X91785714Y-41552380D01*
X90880952Y-41552380D02*
X90880952Y-40552380D01*
X90880952Y-41504761D02*
X90976190Y-41552380D01*
X91166666Y-41552380D01*
X91261904Y-41504761D01*
X91309523Y-41457142D01*
X91357142Y-41361904D01*
X91357142Y-41076190D01*
X91309523Y-40980952D01*
X91261904Y-40933333D01*
X91166666Y-40885714D01*
X90976190Y-40885714D01*
X90880952Y-40933333D01*
X98714285Y-42257619D02*
X98666666Y-42210000D01*
X98571428Y-42162380D01*
X98333333Y-42162380D01*
X98238095Y-42210000D01*
X98190476Y-42257619D01*
X98142857Y-42352857D01*
X98142857Y-42448095D01*
X98190476Y-42590952D01*
X98761904Y-43162380D01*
X98142857Y-43162380D01*
X97523809Y-42162380D02*
X97428571Y-42162380D01*
X97333333Y-42210000D01*
X97285714Y-42257619D01*
X97238095Y-42352857D01*
X97190476Y-42543333D01*
X97190476Y-42781428D01*
X97238095Y-42971904D01*
X97285714Y-43067142D01*
X97333333Y-43114761D01*
X97428571Y-43162380D01*
X97523809Y-43162380D01*
X97619047Y-43114761D01*
X97666666Y-43067142D01*
X97714285Y-42971904D01*
X97761904Y-42781428D01*
X97761904Y-42543333D01*
X97714285Y-42352857D01*
X97666666Y-42257619D01*
X97619047Y-42210000D01*
X97523809Y-42162380D01*
X96809523Y-42257619D02*
X96761904Y-42210000D01*
X96666666Y-42162380D01*
X96428571Y-42162380D01*
X96333333Y-42210000D01*
X96285714Y-42257619D01*
X96238095Y-42352857D01*
X96238095Y-42448095D01*
X96285714Y-42590952D01*
X96857142Y-43162380D01*
X96238095Y-43162380D01*
X95857142Y-42257619D02*
X95809523Y-42210000D01*
X95714285Y-42162380D01*
X95476190Y-42162380D01*
X95380952Y-42210000D01*
X95333333Y-42257619D01*
X95285714Y-42352857D01*
X95285714Y-42448095D01*
X95333333Y-42590952D01*
X95904761Y-43162380D01*
X95285714Y-43162380D01*
M02*
