M48
; DRILL file {KiCad (6.0.6)} date Thu Nov 24 10:30:42 2022
; FORMAT={-:-/ absolute / metric / decimal}
; #@! TF.CreationDate,2022-11-24T10:30:42+00:00
; #@! TF.GenerationSoftware,Kicad,Pcbnew,(6.0.6)
; #@! TF.FileFunction,Plated,1,2,PTH
FMAT,2
METRIC
; #@! TA.AperFunction,Plated,PTH,ComponentDrill
T1C3.000
; #@! TA.AperFunction,Plated,PTH,ViaDrill
T2C5.700
; #@! TA.AperFunction,Plated,PTH,ViaDrill
T3C6.200
; #@! TA.AperFunction,Plated,PTH,ViaDrill
T4C6.800
%
G90
G05
T2
X51.0Y-109.5
X81.0Y-109.5
X111.0Y-109.5
X141.0Y-109.5
T3
X50.992Y-93.989
X80.989Y-93.993
X111.0Y-94.0
X141.0Y-94.0
X145.0Y-149.498
T4
X50.978Y-72.972
X50.985Y-52.498
X51.0Y-127.0
X80.995Y-72.999
X80.995Y-126.996
X80.999Y-52.491
X110.99Y-126.997
X110.993Y-52.499
X110.998Y-72.996
X140.985Y-126.999
X140.987Y-52.498
X140.999Y-72.998
T1
X42.25Y-39.0G85X44.75Y-39.0
G05
X42.25Y-161.5G85X44.75Y-161.5
G05
X147.25Y-39.0G85X149.75Y-39.0
G05
X147.25Y-161.5G85X149.75Y-161.5
G05
T0
M30
