M48
; DRILL file {KiCad (6.0.6)} date Wed Oct 26 13:20:42 2022
; FORMAT={-:-/ absolute / metric / decimal}
; #@! TF.CreationDate,2022-10-26T13:20:42+02:00
; #@! TF.GenerationSoftware,Kicad,Pcbnew,(6.0.6)
; #@! TF.FileFunction,Plated,1,2,PTH
FMAT,2
METRIC
; #@! TA.AperFunction,Plated,PTH,ViaDrill
T1C0.400
; #@! TA.AperFunction,Plated,PTH,ComponentDrill
T2C0.750
; #@! TA.AperFunction,Plated,PTH,ComponentDrill
T3C0.800
; #@! TA.AperFunction,Plated,PTH,ComponentDrill
T4C0.900
; #@! TA.AperFunction,Plated,PTH,ComponentDrill
T5C1.000
; #@! TA.AperFunction,Plated,PTH,ComponentDrill
T6C1.220
; #@! TA.AperFunction,Plated,PTH,ComponentDrill
T7C1.420
; #@! TA.AperFunction,Plated,PTH,ComponentDrill
T8C1.430
; #@! TA.AperFunction,Plated,PTH,ViaDrill
T9C3.100
%
G90
G05
T1
X78.5Y-67.5
X78.5Y-107.5
X79.5Y-67.5
X84.0Y-67.5
X85.0Y-67.5
X107.5Y-102.0
X107.5Y-104.3
X107.5Y-110.5
X107.5Y-111.5
X108.0Y-107.5
X111.0Y-88.0
X111.0Y-89.0
X111.0Y-90.0
X111.0Y-91.0
T2
X80.73Y-103.86
X82.0Y-103.86
X83.27Y-103.86
X102.73Y-103.14
X104.0Y-103.14
X105.27Y-103.14
T3
X75.0Y-121.0
X75.0Y-126.0
X75.0Y-128.42
X75.0Y-138.58
X75.5Y-70.0
X80.5Y-70.0
X83.5Y-70.0
X85.86Y-102.8
X86.1Y-107.1
X86.305Y-110.3
X88.4Y-102.8
X88.5Y-70.0
X88.6Y-112.96
X88.6Y-115.5
X88.845Y-110.3
X89.0Y-132.5
X89.18Y-118.68
X89.18Y-121.22
X89.18Y-123.76
X89.18Y-126.3
X90.0Y-97.06
X90.0Y-99.6
X91.0Y-132.5
X91.1Y-88.9
X91.1Y-93.9
X91.1Y-107.1
X94.9Y-107.1
X95.045Y-132.5
X95.1Y-88.9
X95.1Y-93.9
X95.95Y-97.1
X95.95Y-99.64
X96.8Y-118.68
X96.8Y-121.22
X96.8Y-123.76
X96.8Y-126.3
X97.045Y-132.5
X97.055Y-110.3
X97.4Y-112.96
X97.4Y-115.5
X97.5Y-70.0
X97.6Y-102.8
X99.595Y-110.3
X99.9Y-107.1
X100.14Y-102.8
X102.5Y-70.0
X105.0Y-70.0
X110.0Y-70.0
X111.0Y-121.0
X111.0Y-126.0
X111.0Y-128.34
X111.0Y-138.5
T4
X80.725Y-109.0
X83.265Y-109.0
X102.725Y-109.0
X105.265Y-109.0
T5
X75.0Y-98.46
X75.0Y-101.0
X75.0Y-103.54
X75.0Y-106.08
X75.0Y-108.62
X75.0Y-111.16
X75.0Y-113.7
X75.0Y-116.24
X79.5Y-44.5
X79.5Y-65.05
X79.5Y-85.0
X82.0Y-44.5
X82.0Y-65.05
X82.0Y-85.0
X84.5Y-44.5
X84.5Y-65.05
X84.5Y-85.0
X90.445Y-137.475
X92.985Y-137.475
X95.525Y-137.475
X101.5Y-44.5
X101.5Y-65.05
X101.5Y-85.0
X104.0Y-44.5
X104.0Y-65.05
X104.0Y-85.0
X106.5Y-44.5
X106.5Y-65.05
X106.5Y-85.0
X111.0Y-98.46
X111.0Y-101.0
X111.0Y-103.54
X111.0Y-106.08
X111.0Y-108.62
X111.0Y-111.16
X111.0Y-113.7
X111.0Y-116.24
T6
X82.0Y-113.5
X82.0Y-128.0
X104.0Y-113.5
X104.0Y-128.0
T7
X82.0Y-116.6
X82.0Y-131.1
X104.0Y-116.6
X104.0Y-131.1
T8
X82.0Y-124.9
X82.0Y-139.4
X104.0Y-124.9
X104.0Y-139.4
T9
X93.0Y-45.5
T5
X80.2Y-89.8G85X79.0Y-89.8
G05
X80.2Y-94.5G85X79.0Y-94.5
G05
X80.2Y-99.2G85X79.0Y-99.2
G05
X85.0Y-89.8G85X83.8Y-89.8
G05
X85.0Y-94.5G85X83.8Y-94.5
G05
X85.0Y-99.2G85X83.8Y-99.2
G05
X102.2Y-89.8G85X101.0Y-89.8
G05
X102.2Y-94.5G85X101.0Y-94.5
G05
X102.2Y-99.2G85X101.0Y-99.2
G05
X107.0Y-89.8G85X105.8Y-89.8
G05
X107.0Y-94.5G85X105.8Y-94.5
G05
X107.0Y-99.2G85X105.8Y-99.2
G05
T0
M30
