M48
; DRILL file {KiCad (6.0.0)} date Thu Jul  7 19:59:43 2022
; FORMAT={-:-/ absolute / metric / decimal}
; #@! TF.CreationDate,2022-07-07T19:59:43+01:00
; #@! TF.GenerationSoftware,Kicad,Pcbnew,(6.0.0)
; #@! TF.FileFunction,Plated,1,2,PTH
FMAT,2
METRIC
; #@! TA.AperFunction,Plated,PTH,ViaDrill
T1C0.400
; #@! TA.AperFunction,Plated,PTH,ComponentDrill
T2C0.750
; #@! TA.AperFunction,Plated,PTH,ComponentDrill
T3C0.800
; #@! TA.AperFunction,Plated,PTH,ComponentDrill
T4C0.900
; #@! TA.AperFunction,Plated,PTH,ComponentDrill
T5C1.000
; #@! TA.AperFunction,Plated,PTH,ComponentDrill
T6C1.220
; #@! TA.AperFunction,Plated,PTH,ComponentDrill
T7C1.420
; #@! TA.AperFunction,Plated,PTH,ComponentDrill
T8C1.430
; #@! TA.AperFunction,Plated,PTH,ViaDrill
T9C3.100
%
G90
G05
T1
X56.5Y-66.0
X56.5Y-106.0
X57.5Y-66.0
X62.0Y-66.0
X63.0Y-66.0
X86.0Y-106.0
T2
X58.73Y-102.36
X60.0Y-102.36
X61.27Y-102.36
X80.73Y-101.64
X82.0Y-101.64
X83.27Y-101.64
T3
X53.0Y-119.5
X53.0Y-124.5
X53.0Y-126.92
X53.0Y-137.08
X53.5Y-68.5
X58.5Y-68.5
X61.5Y-68.5
X66.5Y-68.5
X66.5Y-104.34
X66.5Y-114.5
X67.0Y-131.0
X67.18Y-117.18
X67.18Y-119.72
X67.18Y-122.26
X67.18Y-124.8
X68.0Y-87.5
X68.0Y-92.5
X69.0Y-131.0
X69.5Y-104.34
X69.5Y-114.5
X72.5Y-104.34
X72.5Y-114.5
X73.045Y-131.0
X74.0Y-87.5
X74.0Y-92.5
X74.8Y-117.18
X74.8Y-119.72
X74.8Y-122.26
X74.8Y-124.8
X75.045Y-131.0
X75.5Y-68.5
X75.5Y-104.34
X75.5Y-114.5
X80.5Y-68.5
X83.0Y-68.5
X88.0Y-68.5
X89.0Y-119.5
X89.0Y-124.5
X89.0Y-126.84
X89.0Y-137.0
T4
X58.725Y-107.5
X61.265Y-107.5
X80.725Y-107.5
X83.265Y-107.5
T5
X53.0Y-96.96
X53.0Y-99.5
X53.0Y-102.04
X53.0Y-104.58
X53.0Y-107.12
X53.0Y-109.66
X53.0Y-112.2
X53.0Y-114.74
X57.5Y-43.0
X57.5Y-63.55
X57.5Y-83.5
X60.0Y-43.0
X60.0Y-63.55
X60.0Y-83.5
X62.5Y-43.0
X62.5Y-63.55
X62.5Y-83.5
X68.445Y-135.975
X70.985Y-135.975
X73.525Y-135.975
X79.5Y-43.0
X79.5Y-63.55
X79.5Y-83.5
X82.0Y-43.0
X82.0Y-63.55
X82.0Y-83.5
X84.5Y-43.0
X84.5Y-63.55
X84.5Y-83.5
X89.0Y-96.96
X89.0Y-99.5
X89.0Y-102.04
X89.0Y-104.58
X89.0Y-107.12
X89.0Y-109.66
X89.0Y-112.2
X89.0Y-114.74
T6
X60.0Y-112.0
X60.0Y-126.5
X82.0Y-112.0
X82.0Y-126.5
T7
X60.0Y-115.1
X60.0Y-129.6
X82.0Y-115.1
X82.0Y-129.6
T8
X60.0Y-123.4
X60.0Y-137.9
X82.0Y-123.4
X82.0Y-137.9
T9
X71.0Y-44.0
T5
X58.2Y-88.3G85X57.0Y-88.3
G05
X58.2Y-93.0G85X57.0Y-93.0
G05
X58.2Y-97.7G85X57.0Y-97.7
G05
X63.0Y-88.3G85X61.8Y-88.3
G05
X63.0Y-93.0G85X61.8Y-93.0
G05
X63.0Y-97.7G85X61.8Y-97.7
G05
X80.2Y-88.3G85X79.0Y-88.3
G05
X80.2Y-93.0G85X79.0Y-93.0
G05
X80.2Y-97.7G85X79.0Y-97.7
G05
X85.0Y-88.3G85X83.8Y-88.3
G05
X85.0Y-93.0G85X83.8Y-93.0
G05
X85.0Y-97.7G85X83.8Y-97.7
G05
T0
M30
