G04 #@! TF.GenerationSoftware,KiCad,Pcbnew,(6.0.0)*
G04 #@! TF.CreationDate,2022-07-07T20:03:20+01:00*
G04 #@! TF.ProjectId,Snare+Hihat,536e6172-652b-4486-9968-61742e6b6963,rev?*
G04 #@! TF.SameCoordinates,Original*
G04 #@! TF.FileFunction,Legend,Top*
G04 #@! TF.FilePolarity,Positive*
%FSLAX46Y46*%
G04 Gerber Fmt 4.6, Leading zero omitted, Abs format (unit mm)*
G04 Created by KiCad (PCBNEW (6.0.0)) date 2022-07-07 20:03:20*
%MOMM*%
%LPD*%
G01*
G04 APERTURE LIST*
%ADD10C,0.120000*%
%ADD11C,0.100000*%
%ADD12C,0.150000*%
G04 #@! TA.AperFunction,Profile*
%ADD13C,0.050000*%
G04 #@! TD*
%ADD14O,6.700000X4.200000*%
G04 APERTURE END LIST*
D10*
X85513118Y-41000000D02*
X84741506Y-41000000D01*
X120000000Y-47572083D02*
X120450000Y-48182083D01*
X101600000Y-38572083D02*
X101140000Y-38712083D01*
X93500000Y-33033694D02*
X93500000Y-32072083D01*
X96800000Y-33272083D02*
X96640000Y-33652083D01*
X109000000Y-35472083D02*
X109410000Y-35822083D01*
X101300000Y-43872083D02*
X100990000Y-43762083D01*
X98000000Y-47572083D02*
G75*
G03*
X89000000Y-47572083I-4500000J6572083D01*
G01*
X107400000Y-38572083D02*
X107860000Y-38712083D01*
X87000000Y-46372083D02*
X87350000Y-46082083D01*
X87000000Y-35472083D02*
X87410000Y-35822083D01*
X123600000Y-38572083D02*
X123140000Y-38712083D01*
X107500000Y-41000000D02*
X106728388Y-41000000D01*
X123500000Y-41000000D02*
X124271612Y-41000000D01*
X109000000Y-46372083D02*
X109350000Y-46082083D01*
X111000000Y-47572083D02*
X110540000Y-48162083D01*
X120000000Y-47572083D02*
G75*
G03*
X111000000Y-47572083I-4500000J6572083D01*
G01*
X121930000Y-46212083D02*
X121690000Y-46012083D01*
X99890000Y-35472083D02*
X99540000Y-35792083D01*
X85600000Y-43972083D02*
X86040000Y-43812083D01*
X85400000Y-38572083D02*
X85860000Y-38712083D01*
X118800000Y-33272083D02*
X118640000Y-33652083D01*
X90300000Y-33172083D02*
X90490000Y-33622083D01*
X107600000Y-43972083D02*
X108040000Y-43812083D01*
X98000000Y-47572083D02*
X98450000Y-48182083D01*
X121890000Y-35472083D02*
X121540000Y-35792083D01*
X99930000Y-46212083D02*
X99690000Y-46012083D01*
X112300000Y-33172083D02*
X112490000Y-33622083D01*
X115500000Y-33033694D02*
X115500000Y-32072083D01*
X89000000Y-47572083D02*
X88540000Y-48162083D01*
X101500000Y-41000000D02*
X102271612Y-41000000D01*
X123300000Y-43872083D02*
X122990000Y-43762083D01*
X124000000Y-131300000D02*
X122000000Y-131200000D01*
X87000000Y-127900000D02*
X86800000Y-128000000D01*
X123200000Y-133200000D02*
X123200000Y-133600000D01*
X85000000Y-127000000D02*
X85000000Y-127600000D01*
X85000000Y-130700000D02*
X87000000Y-131600000D01*
X86000000Y-132900000D02*
X86000000Y-131800000D01*
X123000000Y-131250000D02*
X123000000Y-130850000D01*
X86000000Y-129300000D02*
X85000000Y-128800000D01*
X85000000Y-132400000D02*
X85000000Y-132500000D01*
X123200000Y-131800000D02*
X122700000Y-132500000D01*
X123400000Y-128000000D02*
X122800000Y-128900000D01*
X85000000Y-127000000D02*
X85000000Y-126500000D01*
X85000000Y-129900000D02*
X87000000Y-130900000D01*
X85000000Y-132400000D02*
X87000000Y-133400000D01*
X87000000Y-129700000D02*
X87000000Y-129800000D01*
X85000000Y-131300000D02*
X85000000Y-131400000D01*
X85000000Y-129900000D02*
X85000000Y-130000000D01*
X122700000Y-132500000D02*
X122000000Y-132400000D01*
X85000000Y-128800000D02*
X85000000Y-128900000D01*
X86000000Y-130400000D02*
X86000000Y-129300000D01*
X124000000Y-133300000D02*
X124000000Y-134100000D01*
X124000000Y-131900000D02*
X123300000Y-132600000D01*
X122000000Y-129100000D02*
X122000000Y-129000000D01*
X86000000Y-129300000D02*
X87000000Y-129700000D01*
X124000000Y-129100000D02*
X123800000Y-129100000D01*
X124000000Y-130000000D02*
X122000000Y-129100000D01*
X122000000Y-127900000D02*
X122200000Y-127900000D01*
X87000000Y-130900000D02*
X87000000Y-131000000D01*
X86000000Y-131800000D02*
X87000000Y-132200000D01*
X124000000Y-129100000D02*
X124100000Y-128900000D01*
X86000000Y-131800000D02*
X85000000Y-131300000D01*
X87000000Y-133400000D02*
X87000000Y-133500000D01*
X123300000Y-132600000D02*
X123200000Y-131800000D01*
X87000000Y-132200000D02*
X87000000Y-132300000D01*
X85000000Y-128200000D02*
X87000000Y-128300000D01*
X87000000Y-127900000D02*
X86900000Y-127700000D01*
X122000000Y-133000000D02*
X124000000Y-133300000D01*
X85000000Y-127000000D02*
X87000000Y-127900000D01*
X124000000Y-129100000D02*
X123400000Y-128000000D01*
X124000000Y-130000000D02*
X122000000Y-130000000D01*
X124000000Y-130900000D02*
X122000000Y-130000000D01*
X86000000Y-128300000D02*
X86000000Y-128600000D01*
X122800000Y-128900000D02*
X122000000Y-127900000D01*
X124000000Y-130900000D02*
X124000000Y-130800000D01*
X124000000Y-131300000D02*
X122000000Y-130400000D01*
X122000000Y-133000000D02*
X122000000Y-133900000D01*
X85000000Y-128200000D02*
X87000000Y-129100000D01*
X124000000Y-131900000D02*
X122000000Y-131600000D01*
X122000000Y-127900000D02*
X122000000Y-128100000D01*
X124000000Y-70600000D02*
X122000000Y-70600000D01*
X122000000Y-68500000D02*
X122000000Y-68700000D01*
X124000000Y-72500000D02*
X122000000Y-72200000D01*
X124000000Y-71900000D02*
X122000000Y-71000000D01*
X86000000Y-68900000D02*
X86000000Y-69200000D01*
X122000000Y-73600000D02*
X122000000Y-74500000D01*
X124000000Y-71500000D02*
X122000000Y-70600000D01*
X85000000Y-68800000D02*
X87000000Y-69700000D01*
X122800000Y-69500000D02*
X122000000Y-68500000D01*
X124000000Y-71500000D02*
X124000000Y-71400000D01*
X124000000Y-69700000D02*
X123800000Y-69700000D01*
X122000000Y-68500000D02*
X122200000Y-68500000D01*
X87000000Y-68500000D02*
X86900000Y-68300000D01*
X122000000Y-73600000D02*
X124000000Y-73900000D01*
X124000000Y-69700000D02*
X123400000Y-68600000D01*
X124000000Y-71900000D02*
X122000000Y-71800000D01*
X87000000Y-68500000D02*
X86800000Y-68600000D01*
X85000000Y-67600000D02*
X85000000Y-68200000D01*
X85000000Y-71300000D02*
X87000000Y-72200000D01*
X123000000Y-71850000D02*
X123000000Y-71450000D01*
X123400000Y-68600000D02*
X122800000Y-69500000D01*
X123200000Y-72400000D02*
X122700000Y-73100000D01*
X107000000Y-150000000D02*
X106000000Y-150200000D01*
X87000000Y-71500000D02*
X87000000Y-71600000D01*
X85000000Y-67600000D02*
X85000000Y-67100000D01*
X85000000Y-73000000D02*
X87000000Y-74000000D01*
X87000000Y-70300000D02*
X87000000Y-70400000D01*
X86000000Y-72400000D02*
X87000000Y-72800000D01*
X85000000Y-71900000D02*
X85000000Y-72000000D01*
X86000000Y-69900000D02*
X85000000Y-69400000D01*
X86000000Y-72400000D02*
X85000000Y-71900000D01*
X87000000Y-74000000D02*
X87000000Y-74100000D01*
X85000000Y-70500000D02*
X85000000Y-70600000D01*
X85000000Y-69400000D02*
X85000000Y-69500000D01*
X85000000Y-73000000D02*
X85000000Y-73100000D01*
X86000000Y-73500000D02*
X86000000Y-72400000D01*
X87000000Y-72800000D02*
X87000000Y-72900000D01*
X85000000Y-68800000D02*
X87000000Y-68900000D01*
X85000000Y-67600000D02*
X87000000Y-68500000D01*
X115500000Y-121750000D02*
X115500000Y-115500000D01*
X85000000Y-70500000D02*
X87000000Y-71500000D01*
X93500000Y-121750000D02*
X93500000Y-115500000D01*
X86000000Y-71000000D02*
X86000000Y-69900000D01*
X86000000Y-69900000D02*
X87000000Y-70300000D01*
X102200000Y-150600000D02*
X102400000Y-150600000D01*
X98600000Y-150600000D02*
X97600000Y-150200000D01*
X103400000Y-151000000D02*
X103600000Y-151200000D01*
X100400000Y-151200000D02*
X101600000Y-151200000D01*
X103600000Y-151200000D02*
X103600000Y-151000000D01*
X106000000Y-151200000D02*
X106000000Y-151000000D01*
X102200000Y-150000000D02*
X102200000Y-151200000D01*
X105000000Y-149800000D02*
X103600000Y-150200000D01*
X99200000Y-151200000D02*
X99800000Y-151200000D01*
X110400000Y-150000000D02*
X110200000Y-150000000D01*
X100400000Y-150000000D02*
X100800000Y-150000000D01*
X100800000Y-149000000D02*
X101600000Y-149000000D01*
X97600000Y-149400000D02*
X97600000Y-151200000D01*
X103600000Y-149400000D02*
X105000000Y-149800000D01*
X98600000Y-149800000D02*
X97600000Y-149400000D01*
X102200000Y-150000000D02*
X103000000Y-150000000D01*
X97600000Y-150200000D02*
X98600000Y-149800000D01*
X97600000Y-151200000D02*
X98600000Y-150600000D01*
X100400000Y-149400000D02*
X100400000Y-151200000D01*
X103600000Y-151200000D02*
X103800000Y-151000000D01*
X103600000Y-149400000D02*
X103600000Y-151200000D01*
X102200000Y-151200000D02*
X103000000Y-151200000D01*
X101600000Y-97600000D02*
X101200000Y-99200000D01*
X105500000Y-99200000D02*
X105700000Y-99100000D01*
X102700000Y-99200000D02*
X103400000Y-99200000D01*
X101200000Y-99200000D02*
X102300000Y-98700000D01*
X105200000Y-98200000D02*
X104400000Y-98200000D01*
X102300000Y-98700000D02*
X101600000Y-97600000D01*
X107900000Y-97600000D02*
X107000000Y-99200000D01*
X106400000Y-97600000D02*
X105500000Y-99200000D01*
X104800000Y-97600000D02*
X104100000Y-99200000D01*
X105900000Y-97600000D02*
X106800000Y-97600000D01*
X103300000Y-97600000D02*
G75*
G03*
X102900000Y-98000000I-1J-399999D01*
G01*
X105500000Y-97600000D02*
X105200000Y-98200000D01*
X103500000Y-99200000D02*
X103300000Y-99400000D01*
X103500000Y-99200000D02*
X103300000Y-99000000D01*
X87000000Y-98000000D02*
X87000000Y-95000000D01*
X103300000Y-97600000D02*
X103700000Y-97600000D01*
X102900000Y-98400000D02*
X103200000Y-98400000D01*
X107400000Y-97600000D02*
X106500000Y-99200000D01*
X102900000Y-98000000D02*
X102700000Y-99200000D01*
X105500000Y-99200000D02*
X105500000Y-99000000D01*
X106800000Y-98400000D02*
X107600000Y-98400000D01*
D11*
X87500000Y-95000000D02*
X86500000Y-95000000D01*
X86500000Y-95000000D02*
X87000000Y-94500000D01*
X87000000Y-94500000D02*
X87500000Y-95000000D01*
G36*
X87500000Y-95000000D02*
G01*
X86500000Y-95000000D01*
X87000000Y-94500000D01*
X87500000Y-95000000D01*
G37*
X87500000Y-95000000D02*
X86500000Y-95000000D01*
X87000000Y-94500000D01*
X87500000Y-95000000D01*
D10*
X102300000Y-124000000D02*
X99600000Y-124000000D01*
X121750000Y-117500000D02*
G75*
G03*
X121750000Y-117500000I-250000J0D01*
G01*
X93000000Y-53450000D02*
X94000000Y-53450000D01*
X120236150Y-137950000D02*
G75*
G03*
X120236150Y-137950000I-4686150J0D01*
G01*
X104800000Y-123000000D02*
X104800000Y-124700000D01*
X93000000Y-53850000D02*
X94000000Y-53850000D01*
X104000000Y-124700000D02*
X103900000Y-124700000D01*
X104800000Y-124700000D02*
X105600000Y-123000000D01*
D11*
X87000000Y-102500000D02*
X86500000Y-102000000D01*
X86500000Y-102000000D02*
X87500000Y-102000000D01*
X87500000Y-102000000D02*
X87000000Y-102500000D01*
G36*
X87000000Y-102500000D02*
G01*
X86500000Y-102000000D01*
X87500000Y-102000000D01*
X87000000Y-102500000D01*
G37*
X87000000Y-102500000D02*
X86500000Y-102000000D01*
X87500000Y-102000000D01*
X87000000Y-102500000D01*
D10*
X103300000Y-124700000D02*
X104100000Y-123000000D01*
X87000000Y-99000000D02*
X87000000Y-102000000D01*
D12*
X87500000Y-98500000D02*
G75*
G03*
X87500000Y-98500000I-500000J0D01*
G01*
D10*
X122000000Y-99000000D02*
X122000000Y-102000000D01*
X105600000Y-123000000D02*
X105500000Y-123000000D01*
X119469887Y-138350000D02*
G75*
G03*
X119469887Y-138350000I-3969887J0D01*
G01*
X104100000Y-123000000D02*
X104200000Y-123200000D01*
X104000000Y-124700000D02*
X104800000Y-123000000D01*
X104100000Y-123000000D02*
X103900000Y-123100000D01*
X120000000Y-119400000D02*
X120300000Y-119400000D01*
X120000000Y-119400000D02*
X120000000Y-119100000D01*
X121500000Y-117500000D02*
X120000000Y-119400000D01*
X93000000Y-53650000D02*
G75*
G03*
X85500000Y-61450000I150000J-7650000D01*
G01*
X104300000Y-137600000D02*
X103900000Y-139300000D01*
X97939636Y-139050000D02*
G75*
G03*
X97939636Y-139050000I-4939636J0D01*
G01*
X122700000Y-73100000D02*
X122000000Y-73000000D01*
X121335165Y-137350000D02*
G75*
G03*
X121335165Y-137350000I-5385165J0D01*
G01*
X124000000Y-73900000D02*
X124000000Y-74700000D01*
X120689636Y-137750000D02*
G75*
G03*
X120689636Y-137750000I-4939636J0D01*
G01*
X98185165Y-139450000D02*
G75*
G03*
X98185165Y-139450000I-5385165J0D01*
G01*
X97369887Y-138450000D02*
G75*
G03*
X97369887Y-138450000I-3969887J0D01*
G01*
X103900000Y-139300000D02*
X103400000Y-137600000D01*
D11*
X119500000Y-128000000D02*
X111500000Y-128000000D01*
X111500000Y-128000000D02*
X111500000Y-120000000D01*
X111500000Y-120000000D02*
X119500000Y-120000000D01*
X119500000Y-120000000D02*
X119500000Y-128000000D01*
G36*
X119500000Y-128000000D02*
G01*
X111500000Y-128000000D01*
X111500000Y-120000000D01*
X119500000Y-120000000D01*
X119500000Y-128000000D01*
G37*
X119500000Y-128000000D02*
X111500000Y-128000000D01*
X111500000Y-120000000D01*
X119500000Y-120000000D01*
X119500000Y-128000000D01*
D10*
X123300000Y-73200000D02*
X123200000Y-72400000D01*
X123200000Y-73800000D02*
X123200000Y-74200000D01*
X124000000Y-72500000D02*
X123300000Y-73200000D01*
X124000000Y-69700000D02*
X124100000Y-69500000D01*
X105900000Y-137600000D02*
X104900000Y-139300000D01*
X104300000Y-139300000D02*
X105300000Y-137600000D01*
X124000000Y-70600000D02*
X122000000Y-69700000D01*
X97886150Y-138850000D02*
G75*
G03*
X97886150Y-138850000I-4686150J0D01*
G01*
X104600000Y-137600000D02*
X104300000Y-139300000D01*
X103400000Y-137600000D02*
X104300000Y-137600000D01*
X122000000Y-69700000D02*
X122000000Y-69600000D01*
X105500000Y-137600000D02*
X106200000Y-137600000D01*
D13*
X84500000Y-26000000D02*
X84499999Y-149500001D01*
X84500000Y-26000000D02*
X124500000Y-26000000D01*
X124500000Y-154000000D02*
X84500000Y-154000000D01*
X84500000Y-154000000D02*
X84499999Y-149500001D01*
X124500000Y-26000000D02*
X124500000Y-154000000D01*
D10*
X107300000Y-54600000D02*
X108000000Y-54600000D01*
X106200000Y-137600000D02*
X106600000Y-137600000D01*
X108100000Y-54600000D02*
X107900000Y-54400000D01*
X106400000Y-34250000D02*
X106400000Y-34050000D01*
X97900000Y-119400000D02*
X98200000Y-119400000D01*
X106950000Y-81500000D02*
X108000000Y-81500000D01*
X101600000Y-54600000D02*
X101800000Y-54600000D01*
X106100000Y-53900000D02*
X107000000Y-53000000D01*
X104100000Y-53600000D02*
X104700000Y-54100000D01*
X102050000Y-81500000D02*
X101000000Y-81500000D01*
X102600000Y-52900000D02*
X102600000Y-53100000D01*
X101500000Y-61450000D02*
G75*
G03*
X94000000Y-53650000I-7702650J99375D01*
G01*
X108100000Y-54600000D02*
X107900000Y-54800000D01*
X102850000Y-80650000D02*
X102750000Y-80650000D01*
X107500000Y-53400000D02*
X107300000Y-54600000D01*
X122000000Y-98000000D02*
X122000000Y-95000000D01*
X104950000Y-80650000D02*
X104550000Y-82350000D01*
X102600000Y-52900000D02*
X102400000Y-52900000D01*
X99650000Y-117500000D02*
G75*
G03*
X99650000Y-117500000I-250000J0D01*
G01*
X103600000Y-32650000D02*
G75*
G03*
X103200000Y-33050000I-1J-399999D01*
G01*
X104700000Y-54100000D02*
X104500000Y-54600000D01*
X103300000Y-52900000D02*
X104000000Y-52900000D01*
X108600000Y-53800000D02*
X109700000Y-53800000D01*
X105900000Y-32650000D02*
X105800000Y-34250000D01*
X102300000Y-138400000D02*
X99600000Y-138400000D01*
X103200000Y-33050000D02*
X103000000Y-34250000D01*
D12*
X122500000Y-98500000D02*
G75*
G03*
X122500000Y-98500000I-500000J0D01*
G01*
D10*
X102850000Y-80650000D02*
X103650000Y-82350000D01*
X104500000Y-34250000D02*
X104600000Y-34150000D01*
X105450000Y-80650000D02*
X105050000Y-82350000D01*
X101500000Y-61850000D02*
X101500000Y-61450000D01*
X101500000Y-61450000D02*
X101900000Y-61450000D01*
X101900000Y-61450000D02*
X101500000Y-61850000D01*
G36*
X101500000Y-61850000D02*
G01*
X101500000Y-61450000D01*
X101900000Y-61450000D01*
X101500000Y-61850000D01*
G37*
X101500000Y-61850000D02*
X101500000Y-61450000D01*
X101900000Y-61450000D01*
X101500000Y-61850000D01*
X106600000Y-137600000D02*
X106500000Y-137400000D01*
X106800000Y-33550000D02*
X106800000Y-32650000D01*
X101500000Y-34250000D02*
X102600000Y-33750000D01*
X85100000Y-61500000D02*
X85500000Y-61500000D01*
X85500000Y-61500000D02*
X85500000Y-61900000D01*
X85500000Y-61900000D02*
X85100000Y-61500000D01*
G36*
X85500000Y-61900000D02*
G01*
X85100000Y-61500000D01*
X85500000Y-61500000D01*
X85500000Y-61900000D01*
G37*
X85500000Y-61900000D02*
X85100000Y-61500000D01*
X85500000Y-61500000D01*
X85500000Y-61900000D01*
X106700000Y-138400000D02*
X109400000Y-138400000D01*
X115000000Y-53650000D02*
G75*
G03*
X107500000Y-61450000I150000J-7650000D01*
G01*
X103800000Y-34250000D02*
X103600000Y-34050000D01*
X103650000Y-82350000D02*
X103650000Y-80650000D01*
X106400000Y-34250000D02*
X106600000Y-34150000D01*
X101000000Y-53800000D02*
X99900000Y-53800000D01*
X105000000Y-32650000D02*
X105100000Y-32750000D01*
X105800000Y-52900000D02*
X105900000Y-53100000D01*
X103000000Y-34250000D02*
X103700000Y-34250000D01*
X104800000Y-53500000D02*
X104100000Y-53600000D01*
X106800000Y-33550000D02*
X107300000Y-32650000D01*
X107700000Y-33550000D02*
X109300000Y-33550000D01*
X103700000Y-52900000D02*
X102700000Y-54600000D01*
X104400000Y-52900000D02*
X103600000Y-54600000D01*
X99400000Y-117500000D02*
X97900000Y-119400000D01*
X103800000Y-34250000D02*
X103600000Y-34450000D01*
X104200000Y-33550000D02*
X104500000Y-34250000D01*
X106100000Y-53900000D02*
X106600000Y-54200000D01*
X105450000Y-80650000D02*
X105350000Y-80650000D01*
X104550000Y-82350000D02*
X104050000Y-80650000D01*
X123500000Y-61450000D02*
G75*
G03*
X116000000Y-53650000I-7702650J99375D01*
G01*
X107500000Y-53800000D02*
X107800000Y-53800000D01*
X105800000Y-52900000D02*
X105600000Y-53000000D01*
X107400000Y-151200000D02*
X108200000Y-150000000D01*
X110200000Y-151200000D02*
X111200000Y-150800000D01*
X109400000Y-150000000D02*
X109200000Y-150000000D01*
X109000000Y-151200000D02*
X109200000Y-151200000D01*
X108600000Y-150000000D02*
X108400000Y-150000000D01*
X106800000Y-150800000D02*
X106000000Y-151200000D01*
X109800000Y-150000000D02*
X109000000Y-151200000D01*
X100800000Y-149000000D02*
G75*
G03*
X100400000Y-149400000I-1J-399999D01*
G01*
X99200000Y-149800000D02*
X99400000Y-150000000D01*
X110800000Y-150000000D02*
X110200000Y-151200000D01*
X109600000Y-151200000D02*
X110400000Y-150000000D01*
X108200000Y-150000000D02*
X107400000Y-150000000D01*
X107000000Y-150000000D02*
X107000000Y-150200000D01*
X108200000Y-151200000D02*
X109400000Y-150000000D01*
X109800000Y-150000000D02*
X109600000Y-151200000D01*
X106000000Y-150200000D02*
X106800000Y-150800000D01*
X101600000Y-151200000D02*
X101400000Y-151400000D01*
X99200000Y-149800000D02*
X99000000Y-150000000D01*
X107400000Y-150000000D02*
X107400000Y-151200000D01*
X108600000Y-150000000D02*
X108200000Y-151200000D01*
X101600000Y-151200000D02*
X101400000Y-151000000D01*
X110800000Y-150000000D02*
X111200000Y-150800000D01*
X106600000Y-54200000D02*
X106600000Y-54600000D01*
X107900000Y-53000000D02*
G75*
G03*
X107500000Y-53400000I-1J-399999D01*
G01*
D11*
X97500000Y-128000000D02*
X89500000Y-128000000D01*
X89500000Y-128000000D02*
X89500000Y-120000000D01*
X89500000Y-120000000D02*
X97500000Y-120000000D01*
X97500000Y-120000000D02*
X97500000Y-128000000D01*
G36*
X97500000Y-128000000D02*
G01*
X89500000Y-128000000D01*
X89500000Y-120000000D01*
X97500000Y-120000000D01*
X97500000Y-128000000D01*
G37*
X97500000Y-128000000D02*
X89500000Y-128000000D01*
X89500000Y-120000000D01*
X97500000Y-120000000D01*
X97500000Y-128000000D01*
D10*
X108400000Y-98500000D02*
X109400000Y-98500000D01*
X105700000Y-54600000D02*
X106500000Y-52900000D01*
X103650000Y-80650000D02*
X103550000Y-80650000D01*
X102600000Y-53900000D02*
X101600000Y-54600000D01*
X106600000Y-137600000D02*
X106500000Y-137800000D01*
X102600000Y-52900000D02*
X101600000Y-53500000D01*
X102600000Y-33750000D02*
X101900000Y-32650000D01*
X105000000Y-54600000D02*
X105800000Y-52900000D01*
D11*
X122500000Y-95000000D02*
X121500000Y-95000000D01*
X121500000Y-95000000D02*
X122000000Y-94500000D01*
X122000000Y-94500000D02*
X122500000Y-95000000D01*
G36*
X122500000Y-95000000D02*
G01*
X121500000Y-95000000D01*
X122000000Y-94500000D01*
X122500000Y-95000000D01*
G37*
X122500000Y-95000000D02*
X121500000Y-95000000D01*
X122000000Y-94500000D01*
X122500000Y-95000000D01*
D10*
X105900000Y-32650000D02*
X105100000Y-34250000D01*
X123500000Y-61850000D02*
X123500000Y-61450000D01*
X123500000Y-61450000D02*
X123900000Y-61450000D01*
X123900000Y-61450000D02*
X123500000Y-61850000D01*
G36*
X123500000Y-61850000D02*
G01*
X123500000Y-61450000D01*
X123900000Y-61450000D01*
X123500000Y-61850000D01*
G37*
X123500000Y-61850000D02*
X123500000Y-61450000D01*
X123900000Y-61450000D01*
X123500000Y-61850000D01*
X101100000Y-33550000D02*
X99500000Y-33550000D01*
D11*
X122000000Y-102500000D02*
X121500000Y-102000000D01*
X121500000Y-102000000D02*
X122500000Y-102000000D01*
X122500000Y-102000000D02*
X122000000Y-102500000D01*
G36*
X122000000Y-102500000D02*
G01*
X121500000Y-102000000D01*
X122500000Y-102000000D01*
X122000000Y-102500000D01*
G37*
X122000000Y-102500000D02*
X121500000Y-102000000D01*
X122500000Y-102000000D01*
X122000000Y-102500000D01*
D10*
X106800000Y-33550000D02*
X106400000Y-34250000D01*
X115000000Y-53450000D02*
X116000000Y-53450000D01*
X106700000Y-124000000D02*
X109400000Y-124000000D01*
X104600000Y-97600000D02*
X105500000Y-97600000D01*
X103200000Y-33450000D02*
X103500000Y-33450000D01*
X101600000Y-53500000D02*
X102600000Y-53900000D01*
X105000000Y-32650000D02*
X104200000Y-33550000D01*
X105800000Y-33450000D02*
X105500000Y-33450000D01*
X101900000Y-32650000D02*
X101500000Y-34250000D01*
X104400000Y-52900000D02*
X104800000Y-53500000D01*
X100600000Y-98500000D02*
X99600000Y-98500000D01*
X101600000Y-54600000D02*
X101600000Y-54400000D01*
X107100000Y-61450000D02*
X107500000Y-61450000D01*
X107500000Y-61450000D02*
X107500000Y-61850000D01*
X107500000Y-61850000D02*
X107100000Y-61450000D01*
G36*
X107500000Y-61850000D02*
G01*
X107100000Y-61450000D01*
X107500000Y-61450000D01*
X107500000Y-61850000D01*
G37*
X107500000Y-61850000D02*
X107100000Y-61450000D01*
X107500000Y-61450000D01*
X107500000Y-61850000D01*
X103600000Y-32650000D02*
X104000000Y-32650000D01*
X105050000Y-82350000D02*
X106150000Y-82350000D01*
X107900000Y-53000000D02*
X108300000Y-53000000D01*
X115000000Y-53850000D02*
X116000000Y-53850000D01*
X97900000Y-119400000D02*
X97900000Y-119100000D01*
X104050000Y-80650000D02*
X104950000Y-80650000D01*
X99200000Y-149800000D02*
X99200000Y-151200000D01*
%LPC*%
D11*
X91000000Y-110500000D02*
X96000000Y-110500000D01*
X96000000Y-110500000D02*
X96000000Y-115500000D01*
X96000000Y-115500000D02*
X91000000Y-115500000D01*
X91000000Y-115500000D02*
X91000000Y-110500000D01*
G36*
X96000000Y-115500000D02*
G01*
X91000000Y-115500000D01*
X91000000Y-110500000D01*
X96000000Y-110500000D01*
X96000000Y-115500000D01*
G37*
X96000000Y-115500000D02*
X91000000Y-115500000D01*
X91000000Y-110500000D01*
X96000000Y-110500000D01*
X96000000Y-115500000D01*
X113000000Y-110500000D02*
X118000000Y-110500000D01*
X118000000Y-110500000D02*
X118000000Y-115500000D01*
X118000000Y-115500000D02*
X113000000Y-115500000D01*
X113000000Y-115500000D02*
X113000000Y-110500000D01*
G36*
X118000000Y-115500000D02*
G01*
X113000000Y-115500000D01*
X113000000Y-110500000D01*
X118000000Y-110500000D01*
X118000000Y-115500000D01*
G37*
X118000000Y-115500000D02*
X113000000Y-115500000D01*
X113000000Y-110500000D01*
X118000000Y-110500000D01*
X118000000Y-115500000D01*
D14*
X117000000Y-151000000D03*
X92000000Y-151000000D03*
X91500000Y-29000000D03*
X117000000Y-29000000D03*
M02*
