G04 #@! TF.GenerationSoftware,KiCad,Pcbnew,(6.0.0)*
G04 #@! TF.CreationDate,2022-07-07T20:03:20+01:00*
G04 #@! TF.ProjectId,Snare+Hihat,536e6172-652b-4486-9968-61742e6b6963,rev?*
G04 #@! TF.SameCoordinates,Original*
G04 #@! TF.FileFunction,Soldermask,Bot*
G04 #@! TF.FilePolarity,Negative*
%FSLAX46Y46*%
G04 Gerber Fmt 4.6, Leading zero omitted, Abs format (unit mm)*
G04 Created by KiCad (PCBNEW (6.0.0)) date 2022-07-07 20:03:20*
%MOMM*%
%LPD*%
G01*
G04 APERTURE LIST*
G04 #@! TA.AperFunction,Profile*
%ADD10C,0.050000*%
G04 #@! TD*
%ADD11C,0.100000*%
%ADD12O,6.700000X4.200000*%
G04 APERTURE END LIST*
D10*
X84500000Y-26000000D02*
X84499999Y-149500001D01*
X84500000Y-26000000D02*
X124500000Y-26000000D01*
X124500000Y-154000000D02*
X84500000Y-154000000D01*
X84500000Y-154000000D02*
X84499999Y-149500001D01*
X124500000Y-26000000D02*
X124500000Y-154000000D01*
D11*
X91000000Y-110500000D02*
X96000000Y-110500000D01*
X96000000Y-110500000D02*
X96000000Y-115500000D01*
X96000000Y-115500000D02*
X91000000Y-115500000D01*
X91000000Y-115500000D02*
X91000000Y-110500000D01*
G36*
X96000000Y-115500000D02*
G01*
X91000000Y-115500000D01*
X91000000Y-110500000D01*
X96000000Y-110500000D01*
X96000000Y-115500000D01*
G37*
X96000000Y-115500000D02*
X91000000Y-115500000D01*
X91000000Y-110500000D01*
X96000000Y-110500000D01*
X96000000Y-115500000D01*
X113000000Y-110500000D02*
X118000000Y-110500000D01*
X118000000Y-110500000D02*
X118000000Y-115500000D01*
X118000000Y-115500000D02*
X113000000Y-115500000D01*
X113000000Y-115500000D02*
X113000000Y-110500000D01*
G36*
X118000000Y-115500000D02*
G01*
X113000000Y-115500000D01*
X113000000Y-110500000D01*
X118000000Y-110500000D01*
X118000000Y-115500000D01*
G37*
X118000000Y-115500000D02*
X113000000Y-115500000D01*
X113000000Y-110500000D01*
X118000000Y-110500000D01*
X118000000Y-115500000D01*
D12*
X117000000Y-151000000D03*
X92000000Y-151000000D03*
X91500000Y-29000000D03*
X117000000Y-29000000D03*
M02*
