%FSLAX45Y45*%
G04 Gerber Fmt 4.5, Leading zero omitted, Abs format (unit mm)*
G04 Created by KiCad (PCBNEW (6.0.0)) date 2022-01-31 13:05:58*
%MOMM*%
%LPD*%
G01*
G04 APERTURE LIST*
%TA.AperFunction,Profile*%
%ADD10C,0.050000*%
%TD*%
%ADD11C,0.200000*%
%ADD12C,0.040000*%
%ADD13C,0.080000*%
%ADD14C,0.090000*%
%ADD15C,0.100000*%
%ADD16C,0.122000*%
%ADD17C,0.142000*%
%ADD18C,0.143000*%
G04 APERTURE END LIST*
D10*
X7300000Y-3650000D02*
X11300000Y-3650000D01*
X11300000Y-3650000D02*
X11300000Y-14650000D01*
X7300000Y-3650000D02*
X7300000Y-14650000D01*
X7300000Y-14650000D02*
X11300000Y-14650000D01*
D11*
D12*
X8430000Y-14230000D02*
X8470000Y-14270000D01*
X8470000Y-14230000D02*
X8430000Y-14270000D01*
X8626000Y-12634000D02*
X8666000Y-12674000D01*
X8666000Y-12634000D02*
X8626000Y-12674000D01*
D13*
X7514000Y-8950000D02*
G75*
G03*
X7514000Y-8950000I-40000J0D01*
G01*
X7540000Y-9934000D02*
G75*
G03*
X7540000Y-9934000I-40000J0D01*
G01*
X7540000Y-10950000D02*
G75*
G03*
X7540000Y-10950000I-40000J0D01*
G01*
X7590000Y-5300000D02*
G75*
G03*
X7590000Y-5300000I-40000J0D01*
G01*
X7590000Y-11400000D02*
G75*
G03*
X7590000Y-11400000I-40000J0D01*
G01*
X7640000Y-5584000D02*
G75*
G03*
X7640000Y-5584000I-40000J0D01*
G01*
X7640000Y-6600000D02*
G75*
G03*
X7640000Y-6600000I-40000J0D01*
G01*
X7640000Y-11684000D02*
G75*
G03*
X7640000Y-11684000I-40000J0D01*
G01*
X7640000Y-12700000D02*
G75*
G03*
X7640000Y-12700000I-40000J0D01*
G01*
X8040000Y-5600000D02*
G75*
G03*
X8040000Y-5600000I-40000J0D01*
G01*
X8530000Y-8950000D02*
G75*
G03*
X8530000Y-8950000I-40000J0D01*
G01*
X8606000Y-5300000D02*
G75*
G03*
X8606000Y-5300000I-40000J0D01*
G01*
X8606000Y-11400000D02*
G75*
G03*
X8606000Y-11400000I-40000J0D01*
G01*
X9056000Y-5600000D02*
G75*
G03*
X9056000Y-5600000I-40000J0D01*
G01*
X9590000Y-10184000D02*
G75*
G03*
X9590000Y-10184000I-40000J0D01*
G01*
X9590000Y-11200000D02*
G75*
G03*
X9590000Y-11200000I-40000J0D01*
G01*
X9624000Y-5600000D02*
G75*
G03*
X9624000Y-5600000I-40000J0D01*
G01*
X9974000Y-5300000D02*
G75*
G03*
X9974000Y-5300000I-40000J0D01*
G01*
X9974000Y-11250000D02*
G75*
G03*
X9974000Y-11250000I-40000J0D01*
G01*
X10640000Y-5600000D02*
G75*
G03*
X10640000Y-5600000I-40000J0D01*
G01*
X10940000Y-5584000D02*
G75*
G03*
X10940000Y-5584000I-40000J0D01*
G01*
X10940000Y-6600000D02*
G75*
G03*
X10940000Y-6600000I-40000J0D01*
G01*
X10990000Y-5300000D02*
G75*
G03*
X10990000Y-5300000I-40000J0D01*
G01*
X10990000Y-11250000D02*
G75*
G03*
X10990000Y-11250000I-40000J0D01*
G01*
X10990000Y-11684000D02*
G75*
G03*
X10990000Y-11684000I-40000J0D01*
G01*
X10990000Y-12700000D02*
G75*
G03*
X10990000Y-12700000I-40000J0D01*
G01*
D14*
X10500000Y-9105000D02*
X10500000Y-9195000D01*
X10455000Y-9150000D02*
X10545000Y-9150000D01*
X10754000Y-9105000D02*
X10754000Y-9195000D01*
X10709000Y-9150000D02*
X10799000Y-9150000D01*
D15*
X7635356Y-6935356D02*
X7635356Y-6864644D01*
X7564644Y-6864644D01*
X7564644Y-6935356D01*
X7635356Y-6935356D01*
X7635356Y-7189356D02*
X7635356Y-7118644D01*
X7564644Y-7118644D01*
X7564644Y-7189356D01*
X7635356Y-7189356D01*
X7635356Y-7443356D02*
X7635356Y-7372644D01*
X7564644Y-7372644D01*
X7564644Y-7443356D01*
X7635356Y-7443356D01*
X7635356Y-7697356D02*
X7635356Y-7626644D01*
X7564644Y-7626644D01*
X7564644Y-7697356D01*
X7635356Y-7697356D01*
X7635356Y-7951356D02*
X7635356Y-7880644D01*
X7564644Y-7880644D01*
X7564644Y-7951356D01*
X7635356Y-7951356D01*
X7635356Y-8205356D02*
X7635356Y-8134644D01*
X7564644Y-8134644D01*
X7564644Y-8205356D01*
X7635356Y-8205356D01*
X7635356Y-13035356D02*
X7635356Y-12964644D01*
X7564644Y-12964644D01*
X7564644Y-13035356D01*
X7635356Y-13035356D01*
X7635356Y-13289356D02*
X7635356Y-13218644D01*
X7564644Y-13218644D01*
X7564644Y-13289356D01*
X7635356Y-13289356D01*
X7635356Y-13543356D02*
X7635356Y-13472644D01*
X7564644Y-13472644D01*
X7564644Y-13543356D01*
X7635356Y-13543356D01*
X7635356Y-13797356D02*
X7635356Y-13726644D01*
X7564644Y-13726644D01*
X7564644Y-13797356D01*
X7635356Y-13797356D01*
X7635356Y-14051356D02*
X7635356Y-13980644D01*
X7564644Y-13980644D01*
X7564644Y-14051356D01*
X7635356Y-14051356D01*
X7635356Y-14305356D02*
X7635356Y-14234644D01*
X7564644Y-14234644D01*
X7564644Y-14305356D01*
X7635356Y-14305356D01*
X8135356Y-11035356D02*
X8135356Y-10964644D01*
X8064644Y-10964644D01*
X8064644Y-11035356D01*
X8135356Y-11035356D01*
X8235356Y-5035356D02*
X8235356Y-4964644D01*
X8164644Y-4964644D01*
X8164644Y-5035356D01*
X8235356Y-5035356D01*
X8335356Y-7135356D02*
X8335356Y-7064644D01*
X8264644Y-7064644D01*
X8264644Y-7135356D01*
X8335356Y-7135356D01*
X8335356Y-13035356D02*
X8335356Y-12964644D01*
X8264644Y-12964644D01*
X8264644Y-13035356D01*
X8335356Y-13035356D01*
X8385356Y-11035356D02*
X8385356Y-10964644D01*
X8314644Y-10964644D01*
X8314644Y-11035356D01*
X8385356Y-11035356D01*
X8485356Y-5035356D02*
X8485356Y-4964644D01*
X8414644Y-4964644D01*
X8414644Y-5035356D01*
X8485356Y-5035356D01*
X8585356Y-7135356D02*
X8585356Y-7064644D01*
X8514644Y-7064644D01*
X8514644Y-7135356D01*
X8585356Y-7135356D01*
X8585356Y-13035356D02*
X8585356Y-12964644D01*
X8514644Y-12964644D01*
X8514644Y-13035356D01*
X8585356Y-13035356D01*
X8635356Y-11035356D02*
X8635356Y-10964644D01*
X8564644Y-10964644D01*
X8564644Y-11035356D01*
X8635356Y-11035356D01*
X8735356Y-5035356D02*
X8735356Y-4964644D01*
X8664644Y-4964644D01*
X8664644Y-5035356D01*
X8735356Y-5035356D01*
X8835356Y-7135356D02*
X8835356Y-7064644D01*
X8764644Y-7064644D01*
X8764644Y-7135356D01*
X8835356Y-7135356D01*
X8835356Y-13035356D02*
X8835356Y-12964644D01*
X8764644Y-12964644D01*
X8764644Y-13035356D01*
X8835356Y-13035356D01*
X8865356Y-9185356D02*
X8865356Y-9114644D01*
X8794644Y-9114644D01*
X8794644Y-9185356D01*
X8865356Y-9185356D01*
D11*
X8790000Y-9085000D02*
X8790000Y-9215000D01*
X8870000Y-9085000D02*
X8870000Y-9215000D01*
X8790000Y-9215000D02*
G75*
G03*
X8870000Y-9215000I40000J0D01*
G01*
X8870000Y-9085000D02*
G75*
G03*
X8790000Y-9085000I-40000J0D01*
G01*
D15*
X9335356Y-9185356D02*
X9335356Y-9114644D01*
X9264644Y-9114644D01*
X9264644Y-9185356D01*
X9335356Y-9185356D01*
D11*
X9260000Y-9085000D02*
X9260000Y-9215000D01*
X9340000Y-9085000D02*
X9340000Y-9215000D01*
X9260000Y-9215000D02*
G75*
G03*
X9340000Y-9215000I40000J0D01*
G01*
X9340000Y-9085000D02*
G75*
G03*
X9260000Y-9085000I-40000J0D01*
G01*
D15*
X9805356Y-9185356D02*
X9805356Y-9114644D01*
X9734644Y-9114644D01*
X9734644Y-9185356D01*
X9805356Y-9185356D01*
D11*
X9730000Y-9085000D02*
X9730000Y-9215000D01*
X9810000Y-9085000D02*
X9810000Y-9215000D01*
X9730000Y-9215000D02*
G75*
G03*
X9810000Y-9215000I40000J0D01*
G01*
X9810000Y-9085000D02*
G75*
G03*
X9730000Y-9085000I-40000J0D01*
G01*
D15*
X9835356Y-7135356D02*
X9835356Y-7064644D01*
X9764644Y-7064644D01*
X9764644Y-7135356D01*
X9835356Y-7135356D01*
X9835356Y-13035356D02*
X9835356Y-12964644D01*
X9764644Y-12964644D01*
X9764644Y-13035356D01*
X9835356Y-13035356D01*
X9965356Y-4095356D02*
X9965356Y-4024644D01*
X9894644Y-4024644D01*
X9894644Y-4095356D01*
X9965356Y-4095356D01*
D11*
X9890000Y-4000000D02*
X9890000Y-4120000D01*
X9970000Y-4000000D02*
X9970000Y-4120000D01*
X9890000Y-4120000D02*
G75*
G03*
X9970000Y-4120000I40000J0D01*
G01*
X9970000Y-4000000D02*
G75*
G03*
X9890000Y-4000000I-40000J0D01*
G01*
D15*
X9965356Y-4575356D02*
X9965356Y-4504644D01*
X9894644Y-4504644D01*
X9894644Y-4575356D01*
X9965356Y-4575356D01*
D11*
X9890000Y-4480000D02*
X9890000Y-4600000D01*
X9970000Y-4480000D02*
X9970000Y-4600000D01*
X9890000Y-4600000D02*
G75*
G03*
X9970000Y-4600000I40000J0D01*
G01*
X9970000Y-4480000D02*
G75*
G03*
X9890000Y-4480000I-40000J0D01*
G01*
D15*
X9965356Y-10095356D02*
X9965356Y-10024644D01*
X9894644Y-10024644D01*
X9894644Y-10095356D01*
X9965356Y-10095356D01*
D11*
X9890000Y-10000000D02*
X9890000Y-10120000D01*
X9970000Y-10000000D02*
X9970000Y-10120000D01*
X9890000Y-10120000D02*
G75*
G03*
X9970000Y-10120000I40000J0D01*
G01*
X9970000Y-10000000D02*
G75*
G03*
X9890000Y-10000000I-40000J0D01*
G01*
D15*
X9965356Y-10575356D02*
X9965356Y-10504644D01*
X9894644Y-10504644D01*
X9894644Y-10575356D01*
X9965356Y-10575356D01*
D11*
X9890000Y-10480000D02*
X9890000Y-10600000D01*
X9970000Y-10480000D02*
X9970000Y-10600000D01*
X9890000Y-10600000D02*
G75*
G03*
X9970000Y-10600000I40000J0D01*
G01*
X9970000Y-10480000D02*
G75*
G03*
X9890000Y-10480000I-40000J0D01*
G01*
D15*
X10085356Y-7135356D02*
X10085356Y-7064644D01*
X10014644Y-7064644D01*
X10014644Y-7135356D01*
X10085356Y-7135356D01*
X10085356Y-13035356D02*
X10085356Y-12964644D01*
X10014644Y-12964644D01*
X10014644Y-13035356D01*
X10085356Y-13035356D01*
X10335356Y-7135356D02*
X10335356Y-7064644D01*
X10264644Y-7064644D01*
X10264644Y-7135356D01*
X10335356Y-7135356D01*
X10335356Y-13035356D02*
X10335356Y-12964644D01*
X10264644Y-12964644D01*
X10264644Y-13035356D01*
X10335356Y-13035356D01*
X10435356Y-4095356D02*
X10435356Y-4024644D01*
X10364644Y-4024644D01*
X10364644Y-4095356D01*
X10435356Y-4095356D01*
D11*
X10360000Y-4000000D02*
X10360000Y-4120000D01*
X10440000Y-4000000D02*
X10440000Y-4120000D01*
X10360000Y-4120000D02*
G75*
G03*
X10440000Y-4120000I40000J0D01*
G01*
X10440000Y-4000000D02*
G75*
G03*
X10360000Y-4000000I-40000J0D01*
G01*
D15*
X10435356Y-4575356D02*
X10435356Y-4504644D01*
X10364644Y-4504644D01*
X10364644Y-4575356D01*
X10435356Y-4575356D01*
D11*
X10360000Y-4480000D02*
X10360000Y-4600000D01*
X10440000Y-4480000D02*
X10440000Y-4600000D01*
X10360000Y-4600000D02*
G75*
G03*
X10440000Y-4600000I40000J0D01*
G01*
X10440000Y-4480000D02*
G75*
G03*
X10360000Y-4480000I-40000J0D01*
G01*
D15*
X10435356Y-10095356D02*
X10435356Y-10024644D01*
X10364644Y-10024644D01*
X10364644Y-10095356D01*
X10435356Y-10095356D01*
D11*
X10360000Y-10000000D02*
X10360000Y-10120000D01*
X10440000Y-10000000D02*
X10440000Y-10120000D01*
X10360000Y-10120000D02*
G75*
G03*
X10440000Y-10120000I40000J0D01*
G01*
X10440000Y-10000000D02*
G75*
G03*
X10360000Y-10000000I-40000J0D01*
G01*
D15*
X10435356Y-10575356D02*
X10435356Y-10504644D01*
X10364644Y-10504644D01*
X10364644Y-10575356D01*
X10435356Y-10575356D01*
D11*
X10360000Y-10480000D02*
X10360000Y-10600000D01*
X10440000Y-10480000D02*
X10440000Y-10600000D01*
X10360000Y-10600000D02*
G75*
G03*
X10440000Y-10600000I40000J0D01*
G01*
X10440000Y-10480000D02*
G75*
G03*
X10360000Y-10480000I-40000J0D01*
G01*
D15*
X10905356Y-4095356D02*
X10905356Y-4024644D01*
X10834644Y-4024644D01*
X10834644Y-4095356D01*
X10905356Y-4095356D01*
D11*
X10830000Y-4000000D02*
X10830000Y-4120000D01*
X10910000Y-4000000D02*
X10910000Y-4120000D01*
X10830000Y-4120000D02*
G75*
G03*
X10910000Y-4120000I40000J0D01*
G01*
X10910000Y-4000000D02*
G75*
G03*
X10830000Y-4000000I-40000J0D01*
G01*
D15*
X10905356Y-4575356D02*
X10905356Y-4504644D01*
X10834644Y-4504644D01*
X10834644Y-4575356D01*
X10905356Y-4575356D01*
D11*
X10830000Y-4480000D02*
X10830000Y-4600000D01*
X10910000Y-4480000D02*
X10910000Y-4600000D01*
X10830000Y-4600000D02*
G75*
G03*
X10910000Y-4600000I40000J0D01*
G01*
X10910000Y-4480000D02*
G75*
G03*
X10830000Y-4480000I-40000J0D01*
G01*
D15*
X10905356Y-10095356D02*
X10905356Y-10024644D01*
X10834644Y-10024644D01*
X10834644Y-10095356D01*
X10905356Y-10095356D01*
D11*
X10830000Y-10000000D02*
X10830000Y-10120000D01*
X10910000Y-10000000D02*
X10910000Y-10120000D01*
X10830000Y-10120000D02*
G75*
G03*
X10910000Y-10120000I40000J0D01*
G01*
X10910000Y-10000000D02*
G75*
G03*
X10830000Y-10000000I-40000J0D01*
G01*
D15*
X10905356Y-10575356D02*
X10905356Y-10504644D01*
X10834644Y-10504644D01*
X10834644Y-10575356D01*
X10905356Y-10575356D01*
D11*
X10830000Y-10480000D02*
X10830000Y-10600000D01*
X10910000Y-10480000D02*
X10910000Y-10600000D01*
X10830000Y-10600000D02*
G75*
G03*
X10910000Y-10600000I40000J0D01*
G01*
X10910000Y-10480000D02*
G75*
G03*
X10830000Y-10480000I-40000J0D01*
G01*
D15*
X11035356Y-6935356D02*
X11035356Y-6864644D01*
X10964644Y-6864644D01*
X10964644Y-6935356D01*
X11035356Y-6935356D01*
X11035356Y-7189356D02*
X11035356Y-7118644D01*
X10964644Y-7118644D01*
X10964644Y-7189356D01*
X11035356Y-7189356D01*
X11035356Y-7443356D02*
X11035356Y-7372644D01*
X10964644Y-7372644D01*
X10964644Y-7443356D01*
X11035356Y-7443356D01*
X11035356Y-7697356D02*
X11035356Y-7626644D01*
X10964644Y-7626644D01*
X10964644Y-7697356D01*
X11035356Y-7697356D01*
X11035356Y-7951356D02*
X11035356Y-7880644D01*
X10964644Y-7880644D01*
X10964644Y-7951356D01*
X11035356Y-7951356D01*
X11035356Y-8205356D02*
X11035356Y-8134644D01*
X10964644Y-8134644D01*
X10964644Y-8205356D01*
X11035356Y-8205356D01*
X11035356Y-13035356D02*
X11035356Y-12964644D01*
X10964644Y-12964644D01*
X10964644Y-13035356D01*
X11035356Y-13035356D01*
X11035356Y-13289356D02*
X11035356Y-13218644D01*
X10964644Y-13218644D01*
X10964644Y-13289356D01*
X11035356Y-13289356D01*
X11035356Y-13543356D02*
X11035356Y-13472644D01*
X10964644Y-13472644D01*
X10964644Y-13543356D01*
X11035356Y-13543356D01*
X11035356Y-13797356D02*
X11035356Y-13726644D01*
X10964644Y-13726644D01*
X10964644Y-13797356D01*
X11035356Y-13797356D01*
X11035356Y-14051356D02*
X11035356Y-13980644D01*
X10964644Y-13980644D01*
X10964644Y-14051356D01*
X11035356Y-14051356D01*
X11035356Y-14305356D02*
X11035356Y-14234644D01*
X10964644Y-14234644D01*
X10964644Y-14305356D01*
X11035356Y-14305356D01*
D16*
X8300000Y-7461000D02*
X8361000Y-7400000D01*
X8300000Y-7339000D01*
X8239000Y-7400000D01*
X8300000Y-7461000D01*
X8300000Y-13361000D02*
X8361000Y-13300000D01*
X8300000Y-13239000D01*
X8239000Y-13300000D01*
X8300000Y-13361000D01*
X9300000Y-7461000D02*
X9361000Y-7400000D01*
X9300000Y-7339000D01*
X9239000Y-7400000D01*
X9300000Y-7461000D01*
X9300000Y-13361000D02*
X9361000Y-13300000D01*
X9300000Y-13239000D01*
X9239000Y-13300000D01*
X9300000Y-13361000D01*
X10300000Y-7461000D02*
X10361000Y-7400000D01*
X10300000Y-7339000D01*
X10239000Y-7400000D01*
X10300000Y-7461000D01*
X10300000Y-13361000D02*
X10361000Y-13300000D01*
X10300000Y-13239000D01*
X10239000Y-13300000D01*
X10300000Y-13361000D01*
D17*
X8229000Y-7639000D02*
X8371000Y-7781000D01*
X8371000Y-7639000D02*
X8229000Y-7781000D01*
X8371000Y-7710000D02*
G75*
G03*
X8371000Y-7710000I-71000J0D01*
G01*
X8229000Y-13539000D02*
X8371000Y-13681000D01*
X8371000Y-13539000D02*
X8229000Y-13681000D01*
X8371000Y-13610000D02*
G75*
G03*
X8371000Y-13610000I-71000J0D01*
G01*
X9229000Y-7639000D02*
X9371000Y-7781000D01*
X9371000Y-7639000D02*
X9229000Y-7781000D01*
X9371000Y-7710000D02*
G75*
G03*
X9371000Y-7710000I-71000J0D01*
G01*
X9229000Y-13539000D02*
X9371000Y-13681000D01*
X9371000Y-13539000D02*
X9229000Y-13681000D01*
X9371000Y-13610000D02*
G75*
G03*
X9371000Y-13610000I-71000J0D01*
G01*
X10229000Y-7639000D02*
X10371000Y-7781000D01*
X10371000Y-7639000D02*
X10229000Y-7781000D01*
X10371000Y-7710000D02*
G75*
G03*
X10371000Y-7710000I-71000J0D01*
G01*
X10229000Y-13539000D02*
X10371000Y-13681000D01*
X10371000Y-13539000D02*
X10229000Y-13681000D01*
X10371000Y-13610000D02*
G75*
G03*
X10371000Y-13610000I-71000J0D01*
G01*
D18*
X8228500Y-8468500D02*
X8371500Y-8611500D01*
X8371500Y-8468500D02*
X8228500Y-8611500D01*
X8300000Y-8468500D02*
X8300000Y-8611500D01*
X8228500Y-8540000D02*
X8371500Y-8540000D01*
X8228500Y-14368500D02*
X8371500Y-14511500D01*
X8371500Y-14368500D02*
X8228500Y-14511500D01*
X8300000Y-14368500D02*
X8300000Y-14511500D01*
X8228500Y-14440000D02*
X8371500Y-14440000D01*
X9228500Y-8468500D02*
X9371500Y-8611500D01*
X9371500Y-8468500D02*
X9228500Y-8611500D01*
X9300000Y-8468500D02*
X9300000Y-8611500D01*
X9228500Y-8540000D02*
X9371500Y-8540000D01*
X9228500Y-14368500D02*
X9371500Y-14511500D01*
X9371500Y-14368500D02*
X9228500Y-14511500D01*
X9300000Y-14368500D02*
X9300000Y-14511500D01*
X9228500Y-14440000D02*
X9371500Y-14440000D01*
X10228500Y-8468500D02*
X10371500Y-8611500D01*
X10371500Y-8468500D02*
X10228500Y-8611500D01*
X10300000Y-8468500D02*
X10300000Y-8611500D01*
X10228500Y-8540000D02*
X10371500Y-8540000D01*
X10228500Y-14368500D02*
X10371500Y-14511500D01*
X10371500Y-14368500D02*
X10228500Y-14511500D01*
X10300000Y-14368500D02*
X10300000Y-14511500D01*
X10228500Y-14440000D02*
X10371500Y-14440000D01*
D11*
X7555119Y-14962976D02*
X7555119Y-14762976D01*
X7602738Y-14762976D01*
X7631309Y-14772500D01*
X7650357Y-14791548D01*
X7659881Y-14810595D01*
X7669405Y-14848690D01*
X7669405Y-14877262D01*
X7659881Y-14915357D01*
X7650357Y-14934405D01*
X7631309Y-14953452D01*
X7602738Y-14962976D01*
X7555119Y-14962976D01*
X7755119Y-14962976D02*
X7755119Y-14829643D01*
X7755119Y-14867738D02*
X7764643Y-14848690D01*
X7774167Y-14839167D01*
X7793214Y-14829643D01*
X7812262Y-14829643D01*
X7878928Y-14962976D02*
X7878928Y-14829643D01*
X7878928Y-14762976D02*
X7869405Y-14772500D01*
X7878928Y-14782024D01*
X7888452Y-14772500D01*
X7878928Y-14762976D01*
X7878928Y-14782024D01*
X8002738Y-14962976D02*
X7983690Y-14953452D01*
X7974167Y-14934405D01*
X7974167Y-14762976D01*
X8107500Y-14962976D02*
X8088452Y-14953452D01*
X8078928Y-14934405D01*
X8078928Y-14762976D01*
X8336071Y-14962976D02*
X8336071Y-14762976D01*
X8402738Y-14905833D01*
X8469405Y-14762976D01*
X8469405Y-14962976D01*
X8650357Y-14962976D02*
X8650357Y-14858214D01*
X8640833Y-14839167D01*
X8621786Y-14829643D01*
X8583690Y-14829643D01*
X8564643Y-14839167D01*
X8650357Y-14953452D02*
X8631310Y-14962976D01*
X8583690Y-14962976D01*
X8564643Y-14953452D01*
X8555119Y-14934405D01*
X8555119Y-14915357D01*
X8564643Y-14896309D01*
X8583690Y-14886786D01*
X8631310Y-14886786D01*
X8650357Y-14877262D01*
X8745595Y-14829643D02*
X8745595Y-15029643D01*
X8745595Y-14839167D02*
X8764643Y-14829643D01*
X8802738Y-14829643D01*
X8821786Y-14839167D01*
X8831310Y-14848690D01*
X8840833Y-14867738D01*
X8840833Y-14924881D01*
X8831310Y-14943928D01*
X8821786Y-14953452D01*
X8802738Y-14962976D01*
X8764643Y-14962976D01*
X8745595Y-14953452D01*
X8926548Y-14943928D02*
X8936071Y-14953452D01*
X8926548Y-14962976D01*
X8917024Y-14953452D01*
X8926548Y-14943928D01*
X8926548Y-14962976D01*
X8926548Y-14839167D02*
X8936071Y-14848690D01*
X8926548Y-14858214D01*
X8917024Y-14848690D01*
X8926548Y-14839167D01*
X8926548Y-14858214D01*
D12*
X7257500Y-15272500D02*
X7297500Y-15312500D01*
X7297500Y-15272500D02*
X7257500Y-15312500D01*
D11*
X7593214Y-15182976D02*
X7612262Y-15182976D01*
X7631309Y-15192500D01*
X7640833Y-15202024D01*
X7650357Y-15221071D01*
X7659881Y-15259167D01*
X7659881Y-15306786D01*
X7650357Y-15344881D01*
X7640833Y-15363928D01*
X7631309Y-15373452D01*
X7612262Y-15382976D01*
X7593214Y-15382976D01*
X7574167Y-15373452D01*
X7564643Y-15363928D01*
X7555119Y-15344881D01*
X7545595Y-15306786D01*
X7545595Y-15259167D01*
X7555119Y-15221071D01*
X7564643Y-15202024D01*
X7574167Y-15192500D01*
X7593214Y-15182976D01*
X7745595Y-15363928D02*
X7755119Y-15373452D01*
X7745595Y-15382976D01*
X7736071Y-15373452D01*
X7745595Y-15363928D01*
X7745595Y-15382976D01*
X7926548Y-15249643D02*
X7926548Y-15382976D01*
X7878928Y-15173452D02*
X7831309Y-15316309D01*
X7955119Y-15316309D01*
X8069405Y-15182976D02*
X8088452Y-15182976D01*
X8107500Y-15192500D01*
X8117024Y-15202024D01*
X8126548Y-15221071D01*
X8136071Y-15259167D01*
X8136071Y-15306786D01*
X8126548Y-15344881D01*
X8117024Y-15363928D01*
X8107500Y-15373452D01*
X8088452Y-15382976D01*
X8069405Y-15382976D01*
X8050357Y-15373452D01*
X8040833Y-15363928D01*
X8031309Y-15344881D01*
X8021786Y-15306786D01*
X8021786Y-15259167D01*
X8031309Y-15221071D01*
X8040833Y-15202024D01*
X8050357Y-15192500D01*
X8069405Y-15182976D01*
X8259881Y-15182976D02*
X8278928Y-15182976D01*
X8297976Y-15192500D01*
X8307500Y-15202024D01*
X8317024Y-15221071D01*
X8326548Y-15259167D01*
X8326548Y-15306786D01*
X8317024Y-15344881D01*
X8307500Y-15363928D01*
X8297976Y-15373452D01*
X8278928Y-15382976D01*
X8259881Y-15382976D01*
X8240833Y-15373452D01*
X8231309Y-15363928D01*
X8221786Y-15344881D01*
X8212262Y-15306786D01*
X8212262Y-15259167D01*
X8221786Y-15221071D01*
X8231309Y-15202024D01*
X8240833Y-15192500D01*
X8259881Y-15182976D01*
X8412262Y-15382976D02*
X8412262Y-15249643D01*
X8412262Y-15268690D02*
X8421786Y-15259167D01*
X8440833Y-15249643D01*
X8469405Y-15249643D01*
X8488452Y-15259167D01*
X8497976Y-15278214D01*
X8497976Y-15382976D01*
X8497976Y-15278214D02*
X8507500Y-15259167D01*
X8526548Y-15249643D01*
X8555119Y-15249643D01*
X8574167Y-15259167D01*
X8583690Y-15278214D01*
X8583690Y-15382976D01*
X8678929Y-15382976D02*
X8678929Y-15249643D01*
X8678929Y-15268690D02*
X8688452Y-15259167D01*
X8707500Y-15249643D01*
X8736071Y-15249643D01*
X8755119Y-15259167D01*
X8764643Y-15278214D01*
X8764643Y-15382976D01*
X8764643Y-15278214D02*
X8774167Y-15259167D01*
X8793214Y-15249643D01*
X8821786Y-15249643D01*
X8840833Y-15259167D01*
X8850357Y-15278214D01*
X8850357Y-15382976D01*
X9240833Y-15173452D02*
X9069405Y-15430595D01*
X9497976Y-15182976D02*
X9517024Y-15182976D01*
X9536071Y-15192500D01*
X9545595Y-15202024D01*
X9555119Y-15221071D01*
X9564643Y-15259167D01*
X9564643Y-15306786D01*
X9555119Y-15344881D01*
X9545595Y-15363928D01*
X9536071Y-15373452D01*
X9517024Y-15382976D01*
X9497976Y-15382976D01*
X9478929Y-15373452D01*
X9469405Y-15363928D01*
X9459881Y-15344881D01*
X9450357Y-15306786D01*
X9450357Y-15259167D01*
X9459881Y-15221071D01*
X9469405Y-15202024D01*
X9478929Y-15192500D01*
X9497976Y-15182976D01*
X9650357Y-15363928D02*
X9659881Y-15373452D01*
X9650357Y-15382976D01*
X9640833Y-15373452D01*
X9650357Y-15363928D01*
X9650357Y-15382976D01*
X9783690Y-15182976D02*
X9802738Y-15182976D01*
X9821786Y-15192500D01*
X9831310Y-15202024D01*
X9840833Y-15221071D01*
X9850357Y-15259167D01*
X9850357Y-15306786D01*
X9840833Y-15344881D01*
X9831310Y-15363928D01*
X9821786Y-15373452D01*
X9802738Y-15382976D01*
X9783690Y-15382976D01*
X9764643Y-15373452D01*
X9755119Y-15363928D01*
X9745595Y-15344881D01*
X9736071Y-15306786D01*
X9736071Y-15259167D01*
X9745595Y-15221071D01*
X9755119Y-15202024D01*
X9764643Y-15192500D01*
X9783690Y-15182976D01*
X10040833Y-15382976D02*
X9926548Y-15382976D01*
X9983690Y-15382976D02*
X9983690Y-15182976D01*
X9964643Y-15211548D01*
X9945595Y-15230595D01*
X9926548Y-15240119D01*
X10221786Y-15182976D02*
X10126548Y-15182976D01*
X10117024Y-15278214D01*
X10126548Y-15268690D01*
X10145595Y-15259167D01*
X10193214Y-15259167D01*
X10212262Y-15268690D01*
X10221786Y-15278214D01*
X10231310Y-15297262D01*
X10231310Y-15344881D01*
X10221786Y-15363928D01*
X10212262Y-15373452D01*
X10193214Y-15382976D01*
X10145595Y-15382976D01*
X10126548Y-15373452D01*
X10117024Y-15363928D01*
X10297976Y-15182976D02*
X10431310Y-15182976D01*
X10345595Y-15382976D01*
X10497976Y-15182976D02*
X10497976Y-15221071D01*
X10574167Y-15182976D02*
X10574167Y-15221071D01*
X10869405Y-15459167D02*
X10859881Y-15449643D01*
X10840833Y-15421071D01*
X10831310Y-15402024D01*
X10821786Y-15373452D01*
X10812262Y-15325833D01*
X10812262Y-15287738D01*
X10821786Y-15240119D01*
X10831310Y-15211548D01*
X10840833Y-15192500D01*
X10859881Y-15163928D01*
X10869405Y-15154405D01*
X10936071Y-15202024D02*
X10945595Y-15192500D01*
X10964643Y-15182976D01*
X11012262Y-15182976D01*
X11031310Y-15192500D01*
X11040833Y-15202024D01*
X11050357Y-15221071D01*
X11050357Y-15240119D01*
X11040833Y-15268690D01*
X10926548Y-15382976D01*
X11050357Y-15382976D01*
X11288452Y-15382976D02*
X11288452Y-15182976D01*
X11374167Y-15382976D02*
X11374167Y-15278214D01*
X11364643Y-15259167D01*
X11345595Y-15249643D01*
X11317024Y-15249643D01*
X11297976Y-15259167D01*
X11288452Y-15268690D01*
X11497976Y-15382976D02*
X11478928Y-15373452D01*
X11469405Y-15363928D01*
X11459881Y-15344881D01*
X11459881Y-15287738D01*
X11469405Y-15268690D01*
X11478928Y-15259167D01*
X11497976Y-15249643D01*
X11526548Y-15249643D01*
X11545595Y-15259167D01*
X11555119Y-15268690D01*
X11564643Y-15287738D01*
X11564643Y-15344881D01*
X11555119Y-15363928D01*
X11545595Y-15373452D01*
X11526548Y-15382976D01*
X11497976Y-15382976D01*
X11678928Y-15382976D02*
X11659881Y-15373452D01*
X11650357Y-15354405D01*
X11650357Y-15182976D01*
X11831309Y-15373452D02*
X11812262Y-15382976D01*
X11774167Y-15382976D01*
X11755119Y-15373452D01*
X11745595Y-15354405D01*
X11745595Y-15278214D01*
X11755119Y-15259167D01*
X11774167Y-15249643D01*
X11812262Y-15249643D01*
X11831309Y-15259167D01*
X11840833Y-15278214D01*
X11840833Y-15297262D01*
X11745595Y-15316309D01*
X11917024Y-15373452D02*
X11936071Y-15382976D01*
X11974167Y-15382976D01*
X11993214Y-15373452D01*
X12002738Y-15354405D01*
X12002738Y-15344881D01*
X11993214Y-15325833D01*
X11974167Y-15316309D01*
X11945595Y-15316309D01*
X11926548Y-15306786D01*
X11917024Y-15287738D01*
X11917024Y-15278214D01*
X11926548Y-15259167D01*
X11945595Y-15249643D01*
X11974167Y-15249643D01*
X11993214Y-15259167D01*
X12069405Y-15459167D02*
X12078928Y-15449643D01*
X12097976Y-15421071D01*
X12107500Y-15402024D01*
X12117024Y-15373452D01*
X12126548Y-15325833D01*
X12126548Y-15287738D01*
X12117024Y-15240119D01*
X12107500Y-15211548D01*
X12097976Y-15192500D01*
X12078928Y-15163928D01*
X12069405Y-15154405D01*
D13*
X7297500Y-15556500D02*
G75*
G03*
X7297500Y-15556500I-40000J0D01*
G01*
D11*
X7593214Y-15446976D02*
X7612262Y-15446976D01*
X7631309Y-15456500D01*
X7640833Y-15466024D01*
X7650357Y-15485071D01*
X7659881Y-15523167D01*
X7659881Y-15570786D01*
X7650357Y-15608881D01*
X7640833Y-15627928D01*
X7631309Y-15637452D01*
X7612262Y-15646976D01*
X7593214Y-15646976D01*
X7574167Y-15637452D01*
X7564643Y-15627928D01*
X7555119Y-15608881D01*
X7545595Y-15570786D01*
X7545595Y-15523167D01*
X7555119Y-15485071D01*
X7564643Y-15466024D01*
X7574167Y-15456500D01*
X7593214Y-15446976D01*
X7745595Y-15627928D02*
X7755119Y-15637452D01*
X7745595Y-15646976D01*
X7736071Y-15637452D01*
X7745595Y-15627928D01*
X7745595Y-15646976D01*
X7869405Y-15532690D02*
X7850357Y-15523167D01*
X7840833Y-15513643D01*
X7831309Y-15494595D01*
X7831309Y-15485071D01*
X7840833Y-15466024D01*
X7850357Y-15456500D01*
X7869405Y-15446976D01*
X7907500Y-15446976D01*
X7926548Y-15456500D01*
X7936071Y-15466024D01*
X7945595Y-15485071D01*
X7945595Y-15494595D01*
X7936071Y-15513643D01*
X7926548Y-15523167D01*
X7907500Y-15532690D01*
X7869405Y-15532690D01*
X7850357Y-15542214D01*
X7840833Y-15551738D01*
X7831309Y-15570786D01*
X7831309Y-15608881D01*
X7840833Y-15627928D01*
X7850357Y-15637452D01*
X7869405Y-15646976D01*
X7907500Y-15646976D01*
X7926548Y-15637452D01*
X7936071Y-15627928D01*
X7945595Y-15608881D01*
X7945595Y-15570786D01*
X7936071Y-15551738D01*
X7926548Y-15542214D01*
X7907500Y-15532690D01*
X8069405Y-15446976D02*
X8088452Y-15446976D01*
X8107500Y-15456500D01*
X8117024Y-15466024D01*
X8126548Y-15485071D01*
X8136071Y-15523167D01*
X8136071Y-15570786D01*
X8126548Y-15608881D01*
X8117024Y-15627928D01*
X8107500Y-15637452D01*
X8088452Y-15646976D01*
X8069405Y-15646976D01*
X8050357Y-15637452D01*
X8040833Y-15627928D01*
X8031309Y-15608881D01*
X8021786Y-15570786D01*
X8021786Y-15523167D01*
X8031309Y-15485071D01*
X8040833Y-15466024D01*
X8050357Y-15456500D01*
X8069405Y-15446976D01*
X8259881Y-15446976D02*
X8278928Y-15446976D01*
X8297976Y-15456500D01*
X8307500Y-15466024D01*
X8317024Y-15485071D01*
X8326548Y-15523167D01*
X8326548Y-15570786D01*
X8317024Y-15608881D01*
X8307500Y-15627928D01*
X8297976Y-15637452D01*
X8278928Y-15646976D01*
X8259881Y-15646976D01*
X8240833Y-15637452D01*
X8231309Y-15627928D01*
X8221786Y-15608881D01*
X8212262Y-15570786D01*
X8212262Y-15523167D01*
X8221786Y-15485071D01*
X8231309Y-15466024D01*
X8240833Y-15456500D01*
X8259881Y-15446976D01*
X8412262Y-15646976D02*
X8412262Y-15513643D01*
X8412262Y-15532690D02*
X8421786Y-15523167D01*
X8440833Y-15513643D01*
X8469405Y-15513643D01*
X8488452Y-15523167D01*
X8497976Y-15542214D01*
X8497976Y-15646976D01*
X8497976Y-15542214D02*
X8507500Y-15523167D01*
X8526548Y-15513643D01*
X8555119Y-15513643D01*
X8574167Y-15523167D01*
X8583690Y-15542214D01*
X8583690Y-15646976D01*
X8678929Y-15646976D02*
X8678929Y-15513643D01*
X8678929Y-15532690D02*
X8688452Y-15523167D01*
X8707500Y-15513643D01*
X8736071Y-15513643D01*
X8755119Y-15523167D01*
X8764643Y-15542214D01*
X8764643Y-15646976D01*
X8764643Y-15542214D02*
X8774167Y-15523167D01*
X8793214Y-15513643D01*
X8821786Y-15513643D01*
X8840833Y-15523167D01*
X8850357Y-15542214D01*
X8850357Y-15646976D01*
X9240833Y-15437452D02*
X9069405Y-15694595D01*
X9497976Y-15446976D02*
X9517024Y-15446976D01*
X9536071Y-15456500D01*
X9545595Y-15466024D01*
X9555119Y-15485071D01*
X9564643Y-15523167D01*
X9564643Y-15570786D01*
X9555119Y-15608881D01*
X9545595Y-15627928D01*
X9536071Y-15637452D01*
X9517024Y-15646976D01*
X9497976Y-15646976D01*
X9478929Y-15637452D01*
X9469405Y-15627928D01*
X9459881Y-15608881D01*
X9450357Y-15570786D01*
X9450357Y-15523167D01*
X9459881Y-15485071D01*
X9469405Y-15466024D01*
X9478929Y-15456500D01*
X9497976Y-15446976D01*
X9650357Y-15627928D02*
X9659881Y-15637452D01*
X9650357Y-15646976D01*
X9640833Y-15637452D01*
X9650357Y-15627928D01*
X9650357Y-15646976D01*
X9783690Y-15446976D02*
X9802738Y-15446976D01*
X9821786Y-15456500D01*
X9831310Y-15466024D01*
X9840833Y-15485071D01*
X9850357Y-15523167D01*
X9850357Y-15570786D01*
X9840833Y-15608881D01*
X9831310Y-15627928D01*
X9821786Y-15637452D01*
X9802738Y-15646976D01*
X9783690Y-15646976D01*
X9764643Y-15637452D01*
X9755119Y-15627928D01*
X9745595Y-15608881D01*
X9736071Y-15570786D01*
X9736071Y-15523167D01*
X9745595Y-15485071D01*
X9755119Y-15466024D01*
X9764643Y-15456500D01*
X9783690Y-15446976D01*
X9917024Y-15446976D02*
X10040833Y-15446976D01*
X9974167Y-15523167D01*
X10002738Y-15523167D01*
X10021786Y-15532690D01*
X10031310Y-15542214D01*
X10040833Y-15561262D01*
X10040833Y-15608881D01*
X10031310Y-15627928D01*
X10021786Y-15637452D01*
X10002738Y-15646976D01*
X9945595Y-15646976D01*
X9926548Y-15637452D01*
X9917024Y-15627928D01*
X10231310Y-15646976D02*
X10117024Y-15646976D01*
X10174167Y-15646976D02*
X10174167Y-15446976D01*
X10155119Y-15475548D01*
X10136071Y-15494595D01*
X10117024Y-15504119D01*
X10412262Y-15446976D02*
X10317024Y-15446976D01*
X10307500Y-15542214D01*
X10317024Y-15532690D01*
X10336071Y-15523167D01*
X10383690Y-15523167D01*
X10402738Y-15532690D01*
X10412262Y-15542214D01*
X10421786Y-15561262D01*
X10421786Y-15608881D01*
X10412262Y-15627928D01*
X10402738Y-15637452D01*
X10383690Y-15646976D01*
X10336071Y-15646976D01*
X10317024Y-15637452D01*
X10307500Y-15627928D01*
X10497976Y-15446976D02*
X10497976Y-15485071D01*
X10574167Y-15446976D02*
X10574167Y-15485071D01*
X10869405Y-15723167D02*
X10859881Y-15713643D01*
X10840833Y-15685071D01*
X10831310Y-15666024D01*
X10821786Y-15637452D01*
X10812262Y-15589833D01*
X10812262Y-15551738D01*
X10821786Y-15504119D01*
X10831310Y-15475548D01*
X10840833Y-15456500D01*
X10859881Y-15427928D01*
X10869405Y-15418405D01*
X10936071Y-15466024D02*
X10945595Y-15456500D01*
X10964643Y-15446976D01*
X11012262Y-15446976D01*
X11031310Y-15456500D01*
X11040833Y-15466024D01*
X11050357Y-15485071D01*
X11050357Y-15504119D01*
X11040833Y-15532690D01*
X10926548Y-15646976D01*
X11050357Y-15646976D01*
X11221786Y-15446976D02*
X11183690Y-15446976D01*
X11164643Y-15456500D01*
X11155119Y-15466024D01*
X11136071Y-15494595D01*
X11126548Y-15532690D01*
X11126548Y-15608881D01*
X11136071Y-15627928D01*
X11145595Y-15637452D01*
X11164643Y-15646976D01*
X11202738Y-15646976D01*
X11221786Y-15637452D01*
X11231309Y-15627928D01*
X11240833Y-15608881D01*
X11240833Y-15561262D01*
X11231309Y-15542214D01*
X11221786Y-15532690D01*
X11202738Y-15523167D01*
X11164643Y-15523167D01*
X11145595Y-15532690D01*
X11136071Y-15542214D01*
X11126548Y-15561262D01*
X11478928Y-15646976D02*
X11478928Y-15446976D01*
X11564643Y-15646976D02*
X11564643Y-15542214D01*
X11555119Y-15523167D01*
X11536071Y-15513643D01*
X11507500Y-15513643D01*
X11488452Y-15523167D01*
X11478928Y-15532690D01*
X11688452Y-15646976D02*
X11669405Y-15637452D01*
X11659881Y-15627928D01*
X11650357Y-15608881D01*
X11650357Y-15551738D01*
X11659881Y-15532690D01*
X11669405Y-15523167D01*
X11688452Y-15513643D01*
X11717024Y-15513643D01*
X11736071Y-15523167D01*
X11745595Y-15532690D01*
X11755119Y-15551738D01*
X11755119Y-15608881D01*
X11745595Y-15627928D01*
X11736071Y-15637452D01*
X11717024Y-15646976D01*
X11688452Y-15646976D01*
X11869405Y-15646976D02*
X11850357Y-15637452D01*
X11840833Y-15618405D01*
X11840833Y-15446976D01*
X12021786Y-15637452D02*
X12002738Y-15646976D01*
X11964643Y-15646976D01*
X11945595Y-15637452D01*
X11936071Y-15618405D01*
X11936071Y-15542214D01*
X11945595Y-15523167D01*
X11964643Y-15513643D01*
X12002738Y-15513643D01*
X12021786Y-15523167D01*
X12031309Y-15542214D01*
X12031309Y-15561262D01*
X11936071Y-15580309D01*
X12107500Y-15637452D02*
X12126548Y-15646976D01*
X12164643Y-15646976D01*
X12183690Y-15637452D01*
X12193214Y-15618405D01*
X12193214Y-15608881D01*
X12183690Y-15589833D01*
X12164643Y-15580309D01*
X12136071Y-15580309D01*
X12117024Y-15570786D01*
X12107500Y-15551738D01*
X12107500Y-15542214D01*
X12117024Y-15523167D01*
X12136071Y-15513643D01*
X12164643Y-15513643D01*
X12183690Y-15523167D01*
X12259881Y-15723167D02*
X12269405Y-15713643D01*
X12288452Y-15685071D01*
X12297976Y-15666024D01*
X12307500Y-15637452D01*
X12317024Y-15589833D01*
X12317024Y-15551738D01*
X12307500Y-15504119D01*
X12297976Y-15475548D01*
X12288452Y-15456500D01*
X12269405Y-15427928D01*
X12259881Y-15418405D01*
D14*
X7252500Y-15775500D02*
X7252500Y-15865500D01*
X7207500Y-15820500D02*
X7297500Y-15820500D01*
D11*
X7593214Y-15710976D02*
X7612262Y-15710976D01*
X7631309Y-15720500D01*
X7640833Y-15730024D01*
X7650357Y-15749071D01*
X7659881Y-15787167D01*
X7659881Y-15834786D01*
X7650357Y-15872881D01*
X7640833Y-15891928D01*
X7631309Y-15901452D01*
X7612262Y-15910976D01*
X7593214Y-15910976D01*
X7574167Y-15901452D01*
X7564643Y-15891928D01*
X7555119Y-15872881D01*
X7545595Y-15834786D01*
X7545595Y-15787167D01*
X7555119Y-15749071D01*
X7564643Y-15730024D01*
X7574167Y-15720500D01*
X7593214Y-15710976D01*
X7745595Y-15891928D02*
X7755119Y-15901452D01*
X7745595Y-15910976D01*
X7736071Y-15901452D01*
X7745595Y-15891928D01*
X7745595Y-15910976D01*
X7850357Y-15910976D02*
X7888452Y-15910976D01*
X7907500Y-15901452D01*
X7917024Y-15891928D01*
X7936071Y-15863357D01*
X7945595Y-15825262D01*
X7945595Y-15749071D01*
X7936071Y-15730024D01*
X7926548Y-15720500D01*
X7907500Y-15710976D01*
X7869405Y-15710976D01*
X7850357Y-15720500D01*
X7840833Y-15730024D01*
X7831309Y-15749071D01*
X7831309Y-15796690D01*
X7840833Y-15815738D01*
X7850357Y-15825262D01*
X7869405Y-15834786D01*
X7907500Y-15834786D01*
X7926548Y-15825262D01*
X7936071Y-15815738D01*
X7945595Y-15796690D01*
X8069405Y-15710976D02*
X8088452Y-15710976D01*
X8107500Y-15720500D01*
X8117024Y-15730024D01*
X8126548Y-15749071D01*
X8136071Y-15787167D01*
X8136071Y-15834786D01*
X8126548Y-15872881D01*
X8117024Y-15891928D01*
X8107500Y-15901452D01*
X8088452Y-15910976D01*
X8069405Y-15910976D01*
X8050357Y-15901452D01*
X8040833Y-15891928D01*
X8031309Y-15872881D01*
X8021786Y-15834786D01*
X8021786Y-15787167D01*
X8031309Y-15749071D01*
X8040833Y-15730024D01*
X8050357Y-15720500D01*
X8069405Y-15710976D01*
X8259881Y-15710976D02*
X8278928Y-15710976D01*
X8297976Y-15720500D01*
X8307500Y-15730024D01*
X8317024Y-15749071D01*
X8326548Y-15787167D01*
X8326548Y-15834786D01*
X8317024Y-15872881D01*
X8307500Y-15891928D01*
X8297976Y-15901452D01*
X8278928Y-15910976D01*
X8259881Y-15910976D01*
X8240833Y-15901452D01*
X8231309Y-15891928D01*
X8221786Y-15872881D01*
X8212262Y-15834786D01*
X8212262Y-15787167D01*
X8221786Y-15749071D01*
X8231309Y-15730024D01*
X8240833Y-15720500D01*
X8259881Y-15710976D01*
X8412262Y-15910976D02*
X8412262Y-15777643D01*
X8412262Y-15796690D02*
X8421786Y-15787167D01*
X8440833Y-15777643D01*
X8469405Y-15777643D01*
X8488452Y-15787167D01*
X8497976Y-15806214D01*
X8497976Y-15910976D01*
X8497976Y-15806214D02*
X8507500Y-15787167D01*
X8526548Y-15777643D01*
X8555119Y-15777643D01*
X8574167Y-15787167D01*
X8583690Y-15806214D01*
X8583690Y-15910976D01*
X8678929Y-15910976D02*
X8678929Y-15777643D01*
X8678929Y-15796690D02*
X8688452Y-15787167D01*
X8707500Y-15777643D01*
X8736071Y-15777643D01*
X8755119Y-15787167D01*
X8764643Y-15806214D01*
X8764643Y-15910976D01*
X8764643Y-15806214D02*
X8774167Y-15787167D01*
X8793214Y-15777643D01*
X8821786Y-15777643D01*
X8840833Y-15787167D01*
X8850357Y-15806214D01*
X8850357Y-15910976D01*
X9240833Y-15701452D02*
X9069405Y-15958595D01*
X9497976Y-15710976D02*
X9517024Y-15710976D01*
X9536071Y-15720500D01*
X9545595Y-15730024D01*
X9555119Y-15749071D01*
X9564643Y-15787167D01*
X9564643Y-15834786D01*
X9555119Y-15872881D01*
X9545595Y-15891928D01*
X9536071Y-15901452D01*
X9517024Y-15910976D01*
X9497976Y-15910976D01*
X9478929Y-15901452D01*
X9469405Y-15891928D01*
X9459881Y-15872881D01*
X9450357Y-15834786D01*
X9450357Y-15787167D01*
X9459881Y-15749071D01*
X9469405Y-15730024D01*
X9478929Y-15720500D01*
X9497976Y-15710976D01*
X9650357Y-15891928D02*
X9659881Y-15901452D01*
X9650357Y-15910976D01*
X9640833Y-15901452D01*
X9650357Y-15891928D01*
X9650357Y-15910976D01*
X9783690Y-15710976D02*
X9802738Y-15710976D01*
X9821786Y-15720500D01*
X9831310Y-15730024D01*
X9840833Y-15749071D01*
X9850357Y-15787167D01*
X9850357Y-15834786D01*
X9840833Y-15872881D01*
X9831310Y-15891928D01*
X9821786Y-15901452D01*
X9802738Y-15910976D01*
X9783690Y-15910976D01*
X9764643Y-15901452D01*
X9755119Y-15891928D01*
X9745595Y-15872881D01*
X9736071Y-15834786D01*
X9736071Y-15787167D01*
X9745595Y-15749071D01*
X9755119Y-15730024D01*
X9764643Y-15720500D01*
X9783690Y-15710976D01*
X9917024Y-15710976D02*
X10040833Y-15710976D01*
X9974167Y-15787167D01*
X10002738Y-15787167D01*
X10021786Y-15796690D01*
X10031310Y-15806214D01*
X10040833Y-15825262D01*
X10040833Y-15872881D01*
X10031310Y-15891928D01*
X10021786Y-15901452D01*
X10002738Y-15910976D01*
X9945595Y-15910976D01*
X9926548Y-15901452D01*
X9917024Y-15891928D01*
X10221786Y-15710976D02*
X10126548Y-15710976D01*
X10117024Y-15806214D01*
X10126548Y-15796690D01*
X10145595Y-15787167D01*
X10193214Y-15787167D01*
X10212262Y-15796690D01*
X10221786Y-15806214D01*
X10231310Y-15825262D01*
X10231310Y-15872881D01*
X10221786Y-15891928D01*
X10212262Y-15901452D01*
X10193214Y-15910976D01*
X10145595Y-15910976D01*
X10126548Y-15901452D01*
X10117024Y-15891928D01*
X10402738Y-15777643D02*
X10402738Y-15910976D01*
X10355119Y-15701452D02*
X10307500Y-15844309D01*
X10431310Y-15844309D01*
X10497976Y-15710976D02*
X10497976Y-15749071D01*
X10574167Y-15710976D02*
X10574167Y-15749071D01*
X10869405Y-15987167D02*
X10859881Y-15977643D01*
X10840833Y-15949071D01*
X10831310Y-15930024D01*
X10821786Y-15901452D01*
X10812262Y-15853833D01*
X10812262Y-15815738D01*
X10821786Y-15768119D01*
X10831310Y-15739548D01*
X10840833Y-15720500D01*
X10859881Y-15691928D01*
X10869405Y-15682405D01*
X10936071Y-15730024D02*
X10945595Y-15720500D01*
X10964643Y-15710976D01*
X11012262Y-15710976D01*
X11031310Y-15720500D01*
X11040833Y-15730024D01*
X11050357Y-15749071D01*
X11050357Y-15768119D01*
X11040833Y-15796690D01*
X10926548Y-15910976D01*
X11050357Y-15910976D01*
X11288452Y-15910976D02*
X11288452Y-15710976D01*
X11374167Y-15910976D02*
X11374167Y-15806214D01*
X11364643Y-15787167D01*
X11345595Y-15777643D01*
X11317024Y-15777643D01*
X11297976Y-15787167D01*
X11288452Y-15796690D01*
X11497976Y-15910976D02*
X11478928Y-15901452D01*
X11469405Y-15891928D01*
X11459881Y-15872881D01*
X11459881Y-15815738D01*
X11469405Y-15796690D01*
X11478928Y-15787167D01*
X11497976Y-15777643D01*
X11526548Y-15777643D01*
X11545595Y-15787167D01*
X11555119Y-15796690D01*
X11564643Y-15815738D01*
X11564643Y-15872881D01*
X11555119Y-15891928D01*
X11545595Y-15901452D01*
X11526548Y-15910976D01*
X11497976Y-15910976D01*
X11678928Y-15910976D02*
X11659881Y-15901452D01*
X11650357Y-15882405D01*
X11650357Y-15710976D01*
X11831309Y-15901452D02*
X11812262Y-15910976D01*
X11774167Y-15910976D01*
X11755119Y-15901452D01*
X11745595Y-15882405D01*
X11745595Y-15806214D01*
X11755119Y-15787167D01*
X11774167Y-15777643D01*
X11812262Y-15777643D01*
X11831309Y-15787167D01*
X11840833Y-15806214D01*
X11840833Y-15825262D01*
X11745595Y-15844309D01*
X11917024Y-15901452D02*
X11936071Y-15910976D01*
X11974167Y-15910976D01*
X11993214Y-15901452D01*
X12002738Y-15882405D01*
X12002738Y-15872881D01*
X11993214Y-15853833D01*
X11974167Y-15844309D01*
X11945595Y-15844309D01*
X11926548Y-15834786D01*
X11917024Y-15815738D01*
X11917024Y-15806214D01*
X11926548Y-15787167D01*
X11945595Y-15777643D01*
X11974167Y-15777643D01*
X11993214Y-15787167D01*
X12069405Y-15987167D02*
X12078928Y-15977643D01*
X12097976Y-15949071D01*
X12107500Y-15930024D01*
X12117024Y-15901452D01*
X12126548Y-15853833D01*
X12126548Y-15815738D01*
X12117024Y-15768119D01*
X12107500Y-15739548D01*
X12097976Y-15720500D01*
X12078928Y-15691928D01*
X12069405Y-15682405D01*
D15*
X7282856Y-16119856D02*
X7282856Y-16049144D01*
X7212144Y-16049144D01*
X7212144Y-16119856D01*
X7282856Y-16119856D01*
D11*
X7659881Y-16174976D02*
X7545595Y-16174976D01*
X7602738Y-16174976D02*
X7602738Y-15974976D01*
X7583690Y-16003548D01*
X7564643Y-16022595D01*
X7545595Y-16032119D01*
X7745595Y-16155928D02*
X7755119Y-16165452D01*
X7745595Y-16174976D01*
X7736071Y-16165452D01*
X7745595Y-16155928D01*
X7745595Y-16174976D01*
X7878928Y-15974976D02*
X7897976Y-15974976D01*
X7917024Y-15984500D01*
X7926548Y-15994024D01*
X7936071Y-16013071D01*
X7945595Y-16051167D01*
X7945595Y-16098786D01*
X7936071Y-16136881D01*
X7926548Y-16155928D01*
X7917024Y-16165452D01*
X7897976Y-16174976D01*
X7878928Y-16174976D01*
X7859881Y-16165452D01*
X7850357Y-16155928D01*
X7840833Y-16136881D01*
X7831309Y-16098786D01*
X7831309Y-16051167D01*
X7840833Y-16013071D01*
X7850357Y-15994024D01*
X7859881Y-15984500D01*
X7878928Y-15974976D01*
X8069405Y-15974976D02*
X8088452Y-15974976D01*
X8107500Y-15984500D01*
X8117024Y-15994024D01*
X8126548Y-16013071D01*
X8136071Y-16051167D01*
X8136071Y-16098786D01*
X8126548Y-16136881D01*
X8117024Y-16155928D01*
X8107500Y-16165452D01*
X8088452Y-16174976D01*
X8069405Y-16174976D01*
X8050357Y-16165452D01*
X8040833Y-16155928D01*
X8031309Y-16136881D01*
X8021786Y-16098786D01*
X8021786Y-16051167D01*
X8031309Y-16013071D01*
X8040833Y-15994024D01*
X8050357Y-15984500D01*
X8069405Y-15974976D01*
X8259881Y-15974976D02*
X8278928Y-15974976D01*
X8297976Y-15984500D01*
X8307500Y-15994024D01*
X8317024Y-16013071D01*
X8326548Y-16051167D01*
X8326548Y-16098786D01*
X8317024Y-16136881D01*
X8307500Y-16155928D01*
X8297976Y-16165452D01*
X8278928Y-16174976D01*
X8259881Y-16174976D01*
X8240833Y-16165452D01*
X8231309Y-16155928D01*
X8221786Y-16136881D01*
X8212262Y-16098786D01*
X8212262Y-16051167D01*
X8221786Y-16013071D01*
X8231309Y-15994024D01*
X8240833Y-15984500D01*
X8259881Y-15974976D01*
X8412262Y-16174976D02*
X8412262Y-16041643D01*
X8412262Y-16060690D02*
X8421786Y-16051167D01*
X8440833Y-16041643D01*
X8469405Y-16041643D01*
X8488452Y-16051167D01*
X8497976Y-16070214D01*
X8497976Y-16174976D01*
X8497976Y-16070214D02*
X8507500Y-16051167D01*
X8526548Y-16041643D01*
X8555119Y-16041643D01*
X8574167Y-16051167D01*
X8583690Y-16070214D01*
X8583690Y-16174976D01*
X8678929Y-16174976D02*
X8678929Y-16041643D01*
X8678929Y-16060690D02*
X8688452Y-16051167D01*
X8707500Y-16041643D01*
X8736071Y-16041643D01*
X8755119Y-16051167D01*
X8764643Y-16070214D01*
X8764643Y-16174976D01*
X8764643Y-16070214D02*
X8774167Y-16051167D01*
X8793214Y-16041643D01*
X8821786Y-16041643D01*
X8840833Y-16051167D01*
X8850357Y-16070214D01*
X8850357Y-16174976D01*
X9240833Y-15965452D02*
X9069405Y-16222595D01*
X9497976Y-15974976D02*
X9517024Y-15974976D01*
X9536071Y-15984500D01*
X9545595Y-15994024D01*
X9555119Y-16013071D01*
X9564643Y-16051167D01*
X9564643Y-16098786D01*
X9555119Y-16136881D01*
X9545595Y-16155928D01*
X9536071Y-16165452D01*
X9517024Y-16174976D01*
X9497976Y-16174976D01*
X9478929Y-16165452D01*
X9469405Y-16155928D01*
X9459881Y-16136881D01*
X9450357Y-16098786D01*
X9450357Y-16051167D01*
X9459881Y-16013071D01*
X9469405Y-15994024D01*
X9478929Y-15984500D01*
X9497976Y-15974976D01*
X9650357Y-16155928D02*
X9659881Y-16165452D01*
X9650357Y-16174976D01*
X9640833Y-16165452D01*
X9650357Y-16155928D01*
X9650357Y-16174976D01*
X9783690Y-15974976D02*
X9802738Y-15974976D01*
X9821786Y-15984500D01*
X9831310Y-15994024D01*
X9840833Y-16013071D01*
X9850357Y-16051167D01*
X9850357Y-16098786D01*
X9840833Y-16136881D01*
X9831310Y-16155928D01*
X9821786Y-16165452D01*
X9802738Y-16174976D01*
X9783690Y-16174976D01*
X9764643Y-16165452D01*
X9755119Y-16155928D01*
X9745595Y-16136881D01*
X9736071Y-16098786D01*
X9736071Y-16051167D01*
X9745595Y-16013071D01*
X9755119Y-15994024D01*
X9764643Y-15984500D01*
X9783690Y-15974976D01*
X9917024Y-15974976D02*
X10040833Y-15974976D01*
X9974167Y-16051167D01*
X10002738Y-16051167D01*
X10021786Y-16060690D01*
X10031310Y-16070214D01*
X10040833Y-16089262D01*
X10040833Y-16136881D01*
X10031310Y-16155928D01*
X10021786Y-16165452D01*
X10002738Y-16174976D01*
X9945595Y-16174976D01*
X9926548Y-16165452D01*
X9917024Y-16155928D01*
X10136071Y-16174976D02*
X10174167Y-16174976D01*
X10193214Y-16165452D01*
X10202738Y-16155928D01*
X10221786Y-16127357D01*
X10231310Y-16089262D01*
X10231310Y-16013071D01*
X10221786Y-15994024D01*
X10212262Y-15984500D01*
X10193214Y-15974976D01*
X10155119Y-15974976D01*
X10136071Y-15984500D01*
X10126548Y-15994024D01*
X10117024Y-16013071D01*
X10117024Y-16060690D01*
X10126548Y-16079738D01*
X10136071Y-16089262D01*
X10155119Y-16098786D01*
X10193214Y-16098786D01*
X10212262Y-16089262D01*
X10221786Y-16079738D01*
X10231310Y-16060690D01*
X10402738Y-16041643D02*
X10402738Y-16174976D01*
X10355119Y-15965452D02*
X10307500Y-16108309D01*
X10431310Y-16108309D01*
X10497976Y-15974976D02*
X10497976Y-16013071D01*
X10574167Y-15974976D02*
X10574167Y-16013071D01*
X10869405Y-16251167D02*
X10859881Y-16241643D01*
X10840833Y-16213071D01*
X10831310Y-16194024D01*
X10821786Y-16165452D01*
X10812262Y-16117833D01*
X10812262Y-16079738D01*
X10821786Y-16032119D01*
X10831310Y-16003548D01*
X10840833Y-15984500D01*
X10859881Y-15955928D01*
X10869405Y-15946405D01*
X11031310Y-16041643D02*
X11031310Y-16174976D01*
X10983690Y-15965452D02*
X10936071Y-16108309D01*
X11059881Y-16108309D01*
X11126548Y-15994024D02*
X11136071Y-15984500D01*
X11155119Y-15974976D01*
X11202738Y-15974976D01*
X11221786Y-15984500D01*
X11231309Y-15994024D01*
X11240833Y-16013071D01*
X11240833Y-16032119D01*
X11231309Y-16060690D01*
X11117024Y-16174976D01*
X11240833Y-16174976D01*
X11478928Y-16174976D02*
X11478928Y-15974976D01*
X11564643Y-16174976D02*
X11564643Y-16070214D01*
X11555119Y-16051167D01*
X11536071Y-16041643D01*
X11507500Y-16041643D01*
X11488452Y-16051167D01*
X11478928Y-16060690D01*
X11688452Y-16174976D02*
X11669405Y-16165452D01*
X11659881Y-16155928D01*
X11650357Y-16136881D01*
X11650357Y-16079738D01*
X11659881Y-16060690D01*
X11669405Y-16051167D01*
X11688452Y-16041643D01*
X11717024Y-16041643D01*
X11736071Y-16051167D01*
X11745595Y-16060690D01*
X11755119Y-16079738D01*
X11755119Y-16136881D01*
X11745595Y-16155928D01*
X11736071Y-16165452D01*
X11717024Y-16174976D01*
X11688452Y-16174976D01*
X11869405Y-16174976D02*
X11850357Y-16165452D01*
X11840833Y-16146405D01*
X11840833Y-15974976D01*
X12021786Y-16165452D02*
X12002738Y-16174976D01*
X11964643Y-16174976D01*
X11945595Y-16165452D01*
X11936071Y-16146405D01*
X11936071Y-16070214D01*
X11945595Y-16051167D01*
X11964643Y-16041643D01*
X12002738Y-16041643D01*
X12021786Y-16051167D01*
X12031309Y-16070214D01*
X12031309Y-16089262D01*
X11936071Y-16108309D01*
X12107500Y-16165452D02*
X12126548Y-16174976D01*
X12164643Y-16174976D01*
X12183690Y-16165452D01*
X12193214Y-16146405D01*
X12193214Y-16136881D01*
X12183690Y-16117833D01*
X12164643Y-16108309D01*
X12136071Y-16108309D01*
X12117024Y-16098786D01*
X12107500Y-16079738D01*
X12107500Y-16070214D01*
X12117024Y-16051167D01*
X12136071Y-16041643D01*
X12164643Y-16041643D01*
X12183690Y-16051167D01*
X12431309Y-16098786D02*
X12583690Y-16098786D01*
X12507500Y-16174976D02*
X12507500Y-16022595D01*
X12936071Y-16174976D02*
X12821786Y-16174976D01*
X12878928Y-16174976D02*
X12878928Y-15974976D01*
X12859881Y-16003548D01*
X12840833Y-16022595D01*
X12821786Y-16032119D01*
X13117024Y-15974976D02*
X13021786Y-15974976D01*
X13012262Y-16070214D01*
X13021786Y-16060690D01*
X13040833Y-16051167D01*
X13088452Y-16051167D01*
X13107500Y-16060690D01*
X13117024Y-16070214D01*
X13126548Y-16089262D01*
X13126548Y-16136881D01*
X13117024Y-16155928D01*
X13107500Y-16165452D01*
X13088452Y-16174976D01*
X13040833Y-16174976D01*
X13021786Y-16165452D01*
X13012262Y-16155928D01*
X13355119Y-16165452D02*
X13374167Y-16174976D01*
X13412262Y-16174976D01*
X13431309Y-16165452D01*
X13440833Y-16146405D01*
X13440833Y-16136881D01*
X13431309Y-16117833D01*
X13412262Y-16108309D01*
X13383690Y-16108309D01*
X13364643Y-16098786D01*
X13355119Y-16079738D01*
X13355119Y-16070214D01*
X13364643Y-16051167D01*
X13383690Y-16041643D01*
X13412262Y-16041643D01*
X13431309Y-16051167D01*
X13555119Y-16174976D02*
X13536071Y-16165452D01*
X13526548Y-16146405D01*
X13526548Y-15974976D01*
X13659881Y-16174976D02*
X13640833Y-16165452D01*
X13631309Y-16155928D01*
X13621786Y-16136881D01*
X13621786Y-16079738D01*
X13631309Y-16060690D01*
X13640833Y-16051167D01*
X13659881Y-16041643D01*
X13688452Y-16041643D01*
X13707500Y-16051167D01*
X13717024Y-16060690D01*
X13726548Y-16079738D01*
X13726548Y-16136881D01*
X13717024Y-16155928D01*
X13707500Y-16165452D01*
X13688452Y-16174976D01*
X13659881Y-16174976D01*
X13783690Y-16041643D02*
X13859881Y-16041643D01*
X13812262Y-15974976D02*
X13812262Y-16146405D01*
X13821786Y-16165452D01*
X13840833Y-16174976D01*
X13859881Y-16174976D01*
X13917024Y-16165452D02*
X13936071Y-16174976D01*
X13974167Y-16174976D01*
X13993214Y-16165452D01*
X14002738Y-16146405D01*
X14002738Y-16136881D01*
X13993214Y-16117833D01*
X13974167Y-16108309D01*
X13945595Y-16108309D01*
X13926548Y-16098786D01*
X13917024Y-16079738D01*
X13917024Y-16070214D01*
X13926548Y-16051167D01*
X13945595Y-16041643D01*
X13974167Y-16041643D01*
X13993214Y-16051167D01*
X14069405Y-16251167D02*
X14078928Y-16241643D01*
X14097976Y-16213071D01*
X14107500Y-16194024D01*
X14117024Y-16165452D01*
X14126548Y-16117833D01*
X14126548Y-16079738D01*
X14117024Y-16032119D01*
X14107500Y-16003548D01*
X14097976Y-15984500D01*
X14078928Y-15955928D01*
X14069405Y-15946405D01*
D16*
X7236500Y-16409500D02*
X7297500Y-16348500D01*
X7236500Y-16287500D01*
X7175500Y-16348500D01*
X7236500Y-16409500D01*
D11*
X7659881Y-16438976D02*
X7545595Y-16438976D01*
X7602738Y-16438976D02*
X7602738Y-16238976D01*
X7583690Y-16267548D01*
X7564643Y-16286595D01*
X7545595Y-16296119D01*
X7745595Y-16419928D02*
X7755119Y-16429452D01*
X7745595Y-16438976D01*
X7736071Y-16429452D01*
X7745595Y-16419928D01*
X7745595Y-16438976D01*
X7831309Y-16258024D02*
X7840833Y-16248500D01*
X7859881Y-16238976D01*
X7907500Y-16238976D01*
X7926548Y-16248500D01*
X7936071Y-16258024D01*
X7945595Y-16277071D01*
X7945595Y-16296119D01*
X7936071Y-16324690D01*
X7821786Y-16438976D01*
X7945595Y-16438976D01*
X8021786Y-16258024D02*
X8031309Y-16248500D01*
X8050357Y-16238976D01*
X8097976Y-16238976D01*
X8117024Y-16248500D01*
X8126548Y-16258024D01*
X8136071Y-16277071D01*
X8136071Y-16296119D01*
X8126548Y-16324690D01*
X8012262Y-16438976D01*
X8136071Y-16438976D01*
X8259881Y-16238976D02*
X8278928Y-16238976D01*
X8297976Y-16248500D01*
X8307500Y-16258024D01*
X8317024Y-16277071D01*
X8326548Y-16315167D01*
X8326548Y-16362786D01*
X8317024Y-16400881D01*
X8307500Y-16419928D01*
X8297976Y-16429452D01*
X8278928Y-16438976D01*
X8259881Y-16438976D01*
X8240833Y-16429452D01*
X8231309Y-16419928D01*
X8221786Y-16400881D01*
X8212262Y-16362786D01*
X8212262Y-16315167D01*
X8221786Y-16277071D01*
X8231309Y-16258024D01*
X8240833Y-16248500D01*
X8259881Y-16238976D01*
X8412262Y-16438976D02*
X8412262Y-16305643D01*
X8412262Y-16324690D02*
X8421786Y-16315167D01*
X8440833Y-16305643D01*
X8469405Y-16305643D01*
X8488452Y-16315167D01*
X8497976Y-16334214D01*
X8497976Y-16438976D01*
X8497976Y-16334214D02*
X8507500Y-16315167D01*
X8526548Y-16305643D01*
X8555119Y-16305643D01*
X8574167Y-16315167D01*
X8583690Y-16334214D01*
X8583690Y-16438976D01*
X8678929Y-16438976D02*
X8678929Y-16305643D01*
X8678929Y-16324690D02*
X8688452Y-16315167D01*
X8707500Y-16305643D01*
X8736071Y-16305643D01*
X8755119Y-16315167D01*
X8764643Y-16334214D01*
X8764643Y-16438976D01*
X8764643Y-16334214D02*
X8774167Y-16315167D01*
X8793214Y-16305643D01*
X8821786Y-16305643D01*
X8840833Y-16315167D01*
X8850357Y-16334214D01*
X8850357Y-16438976D01*
X9240833Y-16229452D02*
X9069405Y-16486595D01*
X9497976Y-16238976D02*
X9517024Y-16238976D01*
X9536071Y-16248500D01*
X9545595Y-16258024D01*
X9555119Y-16277071D01*
X9564643Y-16315167D01*
X9564643Y-16362786D01*
X9555119Y-16400881D01*
X9545595Y-16419928D01*
X9536071Y-16429452D01*
X9517024Y-16438976D01*
X9497976Y-16438976D01*
X9478929Y-16429452D01*
X9469405Y-16419928D01*
X9459881Y-16400881D01*
X9450357Y-16362786D01*
X9450357Y-16315167D01*
X9459881Y-16277071D01*
X9469405Y-16258024D01*
X9478929Y-16248500D01*
X9497976Y-16238976D01*
X9650357Y-16419928D02*
X9659881Y-16429452D01*
X9650357Y-16438976D01*
X9640833Y-16429452D01*
X9650357Y-16419928D01*
X9650357Y-16438976D01*
X9783690Y-16238976D02*
X9802738Y-16238976D01*
X9821786Y-16248500D01*
X9831310Y-16258024D01*
X9840833Y-16277071D01*
X9850357Y-16315167D01*
X9850357Y-16362786D01*
X9840833Y-16400881D01*
X9831310Y-16419928D01*
X9821786Y-16429452D01*
X9802738Y-16438976D01*
X9783690Y-16438976D01*
X9764643Y-16429452D01*
X9755119Y-16419928D01*
X9745595Y-16400881D01*
X9736071Y-16362786D01*
X9736071Y-16315167D01*
X9745595Y-16277071D01*
X9755119Y-16258024D01*
X9764643Y-16248500D01*
X9783690Y-16238976D01*
X10021786Y-16305643D02*
X10021786Y-16438976D01*
X9974167Y-16229452D02*
X9926548Y-16372309D01*
X10050357Y-16372309D01*
X10155119Y-16324690D02*
X10136071Y-16315167D01*
X10126548Y-16305643D01*
X10117024Y-16286595D01*
X10117024Y-16277071D01*
X10126548Y-16258024D01*
X10136071Y-16248500D01*
X10155119Y-16238976D01*
X10193214Y-16238976D01*
X10212262Y-16248500D01*
X10221786Y-16258024D01*
X10231310Y-16277071D01*
X10231310Y-16286595D01*
X10221786Y-16305643D01*
X10212262Y-16315167D01*
X10193214Y-16324690D01*
X10155119Y-16324690D01*
X10136071Y-16334214D01*
X10126548Y-16343738D01*
X10117024Y-16362786D01*
X10117024Y-16400881D01*
X10126548Y-16419928D01*
X10136071Y-16429452D01*
X10155119Y-16438976D01*
X10193214Y-16438976D01*
X10212262Y-16429452D01*
X10221786Y-16419928D01*
X10231310Y-16400881D01*
X10231310Y-16362786D01*
X10221786Y-16343738D01*
X10212262Y-16334214D01*
X10193214Y-16324690D01*
X10355119Y-16238976D02*
X10374167Y-16238976D01*
X10393214Y-16248500D01*
X10402738Y-16258024D01*
X10412262Y-16277071D01*
X10421786Y-16315167D01*
X10421786Y-16362786D01*
X10412262Y-16400881D01*
X10402738Y-16419928D01*
X10393214Y-16429452D01*
X10374167Y-16438976D01*
X10355119Y-16438976D01*
X10336071Y-16429452D01*
X10326548Y-16419928D01*
X10317024Y-16400881D01*
X10307500Y-16362786D01*
X10307500Y-16315167D01*
X10317024Y-16277071D01*
X10326548Y-16258024D01*
X10336071Y-16248500D01*
X10355119Y-16238976D01*
X10497976Y-16238976D02*
X10497976Y-16277071D01*
X10574167Y-16238976D02*
X10574167Y-16277071D01*
X10869405Y-16515167D02*
X10859881Y-16505643D01*
X10840833Y-16477071D01*
X10831310Y-16458024D01*
X10821786Y-16429452D01*
X10812262Y-16381833D01*
X10812262Y-16343738D01*
X10821786Y-16296119D01*
X10831310Y-16267548D01*
X10840833Y-16248500D01*
X10859881Y-16219928D01*
X10869405Y-16210405D01*
X11031310Y-16238976D02*
X10993214Y-16238976D01*
X10974167Y-16248500D01*
X10964643Y-16258024D01*
X10945595Y-16286595D01*
X10936071Y-16324690D01*
X10936071Y-16400881D01*
X10945595Y-16419928D01*
X10955119Y-16429452D01*
X10974167Y-16438976D01*
X11012262Y-16438976D01*
X11031310Y-16429452D01*
X11040833Y-16419928D01*
X11050357Y-16400881D01*
X11050357Y-16353262D01*
X11040833Y-16334214D01*
X11031310Y-16324690D01*
X11012262Y-16315167D01*
X10974167Y-16315167D01*
X10955119Y-16324690D01*
X10945595Y-16334214D01*
X10936071Y-16353262D01*
X11288452Y-16438976D02*
X11288452Y-16238976D01*
X11374167Y-16438976D02*
X11374167Y-16334214D01*
X11364643Y-16315167D01*
X11345595Y-16305643D01*
X11317024Y-16305643D01*
X11297976Y-16315167D01*
X11288452Y-16324690D01*
X11497976Y-16438976D02*
X11478928Y-16429452D01*
X11469405Y-16419928D01*
X11459881Y-16400881D01*
X11459881Y-16343738D01*
X11469405Y-16324690D01*
X11478928Y-16315167D01*
X11497976Y-16305643D01*
X11526548Y-16305643D01*
X11545595Y-16315167D01*
X11555119Y-16324690D01*
X11564643Y-16343738D01*
X11564643Y-16400881D01*
X11555119Y-16419928D01*
X11545595Y-16429452D01*
X11526548Y-16438976D01*
X11497976Y-16438976D01*
X11678928Y-16438976D02*
X11659881Y-16429452D01*
X11650357Y-16410405D01*
X11650357Y-16238976D01*
X11831309Y-16429452D02*
X11812262Y-16438976D01*
X11774167Y-16438976D01*
X11755119Y-16429452D01*
X11745595Y-16410405D01*
X11745595Y-16334214D01*
X11755119Y-16315167D01*
X11774167Y-16305643D01*
X11812262Y-16305643D01*
X11831309Y-16315167D01*
X11840833Y-16334214D01*
X11840833Y-16353262D01*
X11745595Y-16372309D01*
X11917024Y-16429452D02*
X11936071Y-16438976D01*
X11974167Y-16438976D01*
X11993214Y-16429452D01*
X12002738Y-16410405D01*
X12002738Y-16400881D01*
X11993214Y-16381833D01*
X11974167Y-16372309D01*
X11945595Y-16372309D01*
X11926548Y-16362786D01*
X11917024Y-16343738D01*
X11917024Y-16334214D01*
X11926548Y-16315167D01*
X11945595Y-16305643D01*
X11974167Y-16305643D01*
X11993214Y-16315167D01*
X12069405Y-16515167D02*
X12078928Y-16505643D01*
X12097976Y-16477071D01*
X12107500Y-16458024D01*
X12117024Y-16429452D01*
X12126548Y-16381833D01*
X12126548Y-16343738D01*
X12117024Y-16296119D01*
X12107500Y-16267548D01*
X12097976Y-16248500D01*
X12078928Y-16219928D01*
X12069405Y-16210405D01*
D17*
X7155500Y-16541500D02*
X7297500Y-16683500D01*
X7297500Y-16541500D02*
X7155500Y-16683500D01*
X7297500Y-16612500D02*
G75*
G03*
X7297500Y-16612500I-71000J0D01*
G01*
D11*
X7659881Y-16702976D02*
X7545595Y-16702976D01*
X7602738Y-16702976D02*
X7602738Y-16502976D01*
X7583690Y-16531548D01*
X7564643Y-16550595D01*
X7545595Y-16560119D01*
X7745595Y-16683928D02*
X7755119Y-16693452D01*
X7745595Y-16702976D01*
X7736071Y-16693452D01*
X7745595Y-16683928D01*
X7745595Y-16702976D01*
X7926548Y-16569643D02*
X7926548Y-16702976D01*
X7878928Y-16493452D02*
X7831309Y-16636309D01*
X7955119Y-16636309D01*
X8021786Y-16522024D02*
X8031309Y-16512500D01*
X8050357Y-16502976D01*
X8097976Y-16502976D01*
X8117024Y-16512500D01*
X8126548Y-16522024D01*
X8136071Y-16541071D01*
X8136071Y-16560119D01*
X8126548Y-16588690D01*
X8012262Y-16702976D01*
X8136071Y-16702976D01*
X8259881Y-16502976D02*
X8278928Y-16502976D01*
X8297976Y-16512500D01*
X8307500Y-16522024D01*
X8317024Y-16541071D01*
X8326548Y-16579167D01*
X8326548Y-16626786D01*
X8317024Y-16664881D01*
X8307500Y-16683928D01*
X8297976Y-16693452D01*
X8278928Y-16702976D01*
X8259881Y-16702976D01*
X8240833Y-16693452D01*
X8231309Y-16683928D01*
X8221786Y-16664881D01*
X8212262Y-16626786D01*
X8212262Y-16579167D01*
X8221786Y-16541071D01*
X8231309Y-16522024D01*
X8240833Y-16512500D01*
X8259881Y-16502976D01*
X8412262Y-16702976D02*
X8412262Y-16569643D01*
X8412262Y-16588690D02*
X8421786Y-16579167D01*
X8440833Y-16569643D01*
X8469405Y-16569643D01*
X8488452Y-16579167D01*
X8497976Y-16598214D01*
X8497976Y-16702976D01*
X8497976Y-16598214D02*
X8507500Y-16579167D01*
X8526548Y-16569643D01*
X8555119Y-16569643D01*
X8574167Y-16579167D01*
X8583690Y-16598214D01*
X8583690Y-16702976D01*
X8678929Y-16702976D02*
X8678929Y-16569643D01*
X8678929Y-16588690D02*
X8688452Y-16579167D01*
X8707500Y-16569643D01*
X8736071Y-16569643D01*
X8755119Y-16579167D01*
X8764643Y-16598214D01*
X8764643Y-16702976D01*
X8764643Y-16598214D02*
X8774167Y-16579167D01*
X8793214Y-16569643D01*
X8821786Y-16569643D01*
X8840833Y-16579167D01*
X8850357Y-16598214D01*
X8850357Y-16702976D01*
X9240833Y-16493452D02*
X9069405Y-16750595D01*
X9497976Y-16502976D02*
X9517024Y-16502976D01*
X9536071Y-16512500D01*
X9545595Y-16522024D01*
X9555119Y-16541071D01*
X9564643Y-16579167D01*
X9564643Y-16626786D01*
X9555119Y-16664881D01*
X9545595Y-16683928D01*
X9536071Y-16693452D01*
X9517024Y-16702976D01*
X9497976Y-16702976D01*
X9478929Y-16693452D01*
X9469405Y-16683928D01*
X9459881Y-16664881D01*
X9450357Y-16626786D01*
X9450357Y-16579167D01*
X9459881Y-16541071D01*
X9469405Y-16522024D01*
X9478929Y-16512500D01*
X9497976Y-16502976D01*
X9650357Y-16683928D02*
X9659881Y-16693452D01*
X9650357Y-16702976D01*
X9640833Y-16693452D01*
X9650357Y-16683928D01*
X9650357Y-16702976D01*
X9783690Y-16502976D02*
X9802738Y-16502976D01*
X9821786Y-16512500D01*
X9831310Y-16522024D01*
X9840833Y-16541071D01*
X9850357Y-16579167D01*
X9850357Y-16626786D01*
X9840833Y-16664881D01*
X9831310Y-16683928D01*
X9821786Y-16693452D01*
X9802738Y-16702976D01*
X9783690Y-16702976D01*
X9764643Y-16693452D01*
X9755119Y-16683928D01*
X9745595Y-16664881D01*
X9736071Y-16626786D01*
X9736071Y-16579167D01*
X9745595Y-16541071D01*
X9755119Y-16522024D01*
X9764643Y-16512500D01*
X9783690Y-16502976D01*
X10031310Y-16502976D02*
X9936071Y-16502976D01*
X9926548Y-16598214D01*
X9936071Y-16588690D01*
X9955119Y-16579167D01*
X10002738Y-16579167D01*
X10021786Y-16588690D01*
X10031310Y-16598214D01*
X10040833Y-16617262D01*
X10040833Y-16664881D01*
X10031310Y-16683928D01*
X10021786Y-16693452D01*
X10002738Y-16702976D01*
X9955119Y-16702976D01*
X9936071Y-16693452D01*
X9926548Y-16683928D01*
X10221786Y-16502976D02*
X10126548Y-16502976D01*
X10117024Y-16598214D01*
X10126548Y-16588690D01*
X10145595Y-16579167D01*
X10193214Y-16579167D01*
X10212262Y-16588690D01*
X10221786Y-16598214D01*
X10231310Y-16617262D01*
X10231310Y-16664881D01*
X10221786Y-16683928D01*
X10212262Y-16693452D01*
X10193214Y-16702976D01*
X10145595Y-16702976D01*
X10126548Y-16693452D01*
X10117024Y-16683928D01*
X10326548Y-16702976D02*
X10364643Y-16702976D01*
X10383690Y-16693452D01*
X10393214Y-16683928D01*
X10412262Y-16655357D01*
X10421786Y-16617262D01*
X10421786Y-16541071D01*
X10412262Y-16522024D01*
X10402738Y-16512500D01*
X10383690Y-16502976D01*
X10345595Y-16502976D01*
X10326548Y-16512500D01*
X10317024Y-16522024D01*
X10307500Y-16541071D01*
X10307500Y-16588690D01*
X10317024Y-16607738D01*
X10326548Y-16617262D01*
X10345595Y-16626786D01*
X10383690Y-16626786D01*
X10402738Y-16617262D01*
X10412262Y-16607738D01*
X10421786Y-16588690D01*
X10497976Y-16502976D02*
X10497976Y-16541071D01*
X10574167Y-16502976D02*
X10574167Y-16541071D01*
X10869405Y-16779167D02*
X10859881Y-16769643D01*
X10840833Y-16741071D01*
X10831310Y-16722024D01*
X10821786Y-16693452D01*
X10812262Y-16645833D01*
X10812262Y-16607738D01*
X10821786Y-16560119D01*
X10831310Y-16531548D01*
X10840833Y-16512500D01*
X10859881Y-16483928D01*
X10869405Y-16474405D01*
X11031310Y-16502976D02*
X10993214Y-16502976D01*
X10974167Y-16512500D01*
X10964643Y-16522024D01*
X10945595Y-16550595D01*
X10936071Y-16588690D01*
X10936071Y-16664881D01*
X10945595Y-16683928D01*
X10955119Y-16693452D01*
X10974167Y-16702976D01*
X11012262Y-16702976D01*
X11031310Y-16693452D01*
X11040833Y-16683928D01*
X11050357Y-16664881D01*
X11050357Y-16617262D01*
X11040833Y-16598214D01*
X11031310Y-16588690D01*
X11012262Y-16579167D01*
X10974167Y-16579167D01*
X10955119Y-16588690D01*
X10945595Y-16598214D01*
X10936071Y-16617262D01*
X11288452Y-16702976D02*
X11288452Y-16502976D01*
X11374167Y-16702976D02*
X11374167Y-16598214D01*
X11364643Y-16579167D01*
X11345595Y-16569643D01*
X11317024Y-16569643D01*
X11297976Y-16579167D01*
X11288452Y-16588690D01*
X11497976Y-16702976D02*
X11478928Y-16693452D01*
X11469405Y-16683928D01*
X11459881Y-16664881D01*
X11459881Y-16607738D01*
X11469405Y-16588690D01*
X11478928Y-16579167D01*
X11497976Y-16569643D01*
X11526548Y-16569643D01*
X11545595Y-16579167D01*
X11555119Y-16588690D01*
X11564643Y-16607738D01*
X11564643Y-16664881D01*
X11555119Y-16683928D01*
X11545595Y-16693452D01*
X11526548Y-16702976D01*
X11497976Y-16702976D01*
X11678928Y-16702976D02*
X11659881Y-16693452D01*
X11650357Y-16674405D01*
X11650357Y-16502976D01*
X11831309Y-16693452D02*
X11812262Y-16702976D01*
X11774167Y-16702976D01*
X11755119Y-16693452D01*
X11745595Y-16674405D01*
X11745595Y-16598214D01*
X11755119Y-16579167D01*
X11774167Y-16569643D01*
X11812262Y-16569643D01*
X11831309Y-16579167D01*
X11840833Y-16598214D01*
X11840833Y-16617262D01*
X11745595Y-16636309D01*
X11917024Y-16693452D02*
X11936071Y-16702976D01*
X11974167Y-16702976D01*
X11993214Y-16693452D01*
X12002738Y-16674405D01*
X12002738Y-16664881D01*
X11993214Y-16645833D01*
X11974167Y-16636309D01*
X11945595Y-16636309D01*
X11926548Y-16626786D01*
X11917024Y-16607738D01*
X11917024Y-16598214D01*
X11926548Y-16579167D01*
X11945595Y-16569643D01*
X11974167Y-16569643D01*
X11993214Y-16579167D01*
X12069405Y-16779167D02*
X12078928Y-16769643D01*
X12097976Y-16741071D01*
X12107500Y-16722024D01*
X12117024Y-16693452D01*
X12126548Y-16645833D01*
X12126548Y-16607738D01*
X12117024Y-16560119D01*
X12107500Y-16531548D01*
X12097976Y-16512500D01*
X12078928Y-16483928D01*
X12069405Y-16474405D01*
D18*
X7154500Y-16805000D02*
X7297500Y-16948000D01*
X7297500Y-16805000D02*
X7154500Y-16948000D01*
X7226000Y-16805000D02*
X7226000Y-16948000D01*
X7154500Y-16876500D02*
X7297500Y-16876500D01*
D11*
X7659881Y-16966976D02*
X7545595Y-16966976D01*
X7602738Y-16966976D02*
X7602738Y-16766976D01*
X7583690Y-16795548D01*
X7564643Y-16814595D01*
X7545595Y-16824119D01*
X7745595Y-16947929D02*
X7755119Y-16957452D01*
X7745595Y-16966976D01*
X7736071Y-16957452D01*
X7745595Y-16947929D01*
X7745595Y-16966976D01*
X7926548Y-16833643D02*
X7926548Y-16966976D01*
X7878928Y-16757452D02*
X7831309Y-16900310D01*
X7955119Y-16900310D01*
X8012262Y-16766976D02*
X8136071Y-16766976D01*
X8069405Y-16843167D01*
X8097976Y-16843167D01*
X8117024Y-16852690D01*
X8126548Y-16862214D01*
X8136071Y-16881262D01*
X8136071Y-16928881D01*
X8126548Y-16947929D01*
X8117024Y-16957452D01*
X8097976Y-16966976D01*
X8040833Y-16966976D01*
X8021786Y-16957452D01*
X8012262Y-16947929D01*
X8259881Y-16766976D02*
X8278928Y-16766976D01*
X8297976Y-16776500D01*
X8307500Y-16786024D01*
X8317024Y-16805071D01*
X8326548Y-16843167D01*
X8326548Y-16890786D01*
X8317024Y-16928881D01*
X8307500Y-16947929D01*
X8297976Y-16957452D01*
X8278928Y-16966976D01*
X8259881Y-16966976D01*
X8240833Y-16957452D01*
X8231309Y-16947929D01*
X8221786Y-16928881D01*
X8212262Y-16890786D01*
X8212262Y-16843167D01*
X8221786Y-16805071D01*
X8231309Y-16786024D01*
X8240833Y-16776500D01*
X8259881Y-16766976D01*
X8412262Y-16966976D02*
X8412262Y-16833643D01*
X8412262Y-16852690D02*
X8421786Y-16843167D01*
X8440833Y-16833643D01*
X8469405Y-16833643D01*
X8488452Y-16843167D01*
X8497976Y-16862214D01*
X8497976Y-16966976D01*
X8497976Y-16862214D02*
X8507500Y-16843167D01*
X8526548Y-16833643D01*
X8555119Y-16833643D01*
X8574167Y-16843167D01*
X8583690Y-16862214D01*
X8583690Y-16966976D01*
X8678929Y-16966976D02*
X8678929Y-16833643D01*
X8678929Y-16852690D02*
X8688452Y-16843167D01*
X8707500Y-16833643D01*
X8736071Y-16833643D01*
X8755119Y-16843167D01*
X8764643Y-16862214D01*
X8764643Y-16966976D01*
X8764643Y-16862214D02*
X8774167Y-16843167D01*
X8793214Y-16833643D01*
X8821786Y-16833643D01*
X8840833Y-16843167D01*
X8850357Y-16862214D01*
X8850357Y-16966976D01*
X9240833Y-16757452D02*
X9069405Y-17014595D01*
X9497976Y-16766976D02*
X9517024Y-16766976D01*
X9536071Y-16776500D01*
X9545595Y-16786024D01*
X9555119Y-16805071D01*
X9564643Y-16843167D01*
X9564643Y-16890786D01*
X9555119Y-16928881D01*
X9545595Y-16947929D01*
X9536071Y-16957452D01*
X9517024Y-16966976D01*
X9497976Y-16966976D01*
X9478929Y-16957452D01*
X9469405Y-16947929D01*
X9459881Y-16928881D01*
X9450357Y-16890786D01*
X9450357Y-16843167D01*
X9459881Y-16805071D01*
X9469405Y-16786024D01*
X9478929Y-16776500D01*
X9497976Y-16766976D01*
X9650357Y-16947929D02*
X9659881Y-16957452D01*
X9650357Y-16966976D01*
X9640833Y-16957452D01*
X9650357Y-16947929D01*
X9650357Y-16966976D01*
X9783690Y-16766976D02*
X9802738Y-16766976D01*
X9821786Y-16776500D01*
X9831310Y-16786024D01*
X9840833Y-16805071D01*
X9850357Y-16843167D01*
X9850357Y-16890786D01*
X9840833Y-16928881D01*
X9831310Y-16947929D01*
X9821786Y-16957452D01*
X9802738Y-16966976D01*
X9783690Y-16966976D01*
X9764643Y-16957452D01*
X9755119Y-16947929D01*
X9745595Y-16928881D01*
X9736071Y-16890786D01*
X9736071Y-16843167D01*
X9745595Y-16805071D01*
X9755119Y-16786024D01*
X9764643Y-16776500D01*
X9783690Y-16766976D01*
X10031310Y-16766976D02*
X9936071Y-16766976D01*
X9926548Y-16862214D01*
X9936071Y-16852690D01*
X9955119Y-16843167D01*
X10002738Y-16843167D01*
X10021786Y-16852690D01*
X10031310Y-16862214D01*
X10040833Y-16881262D01*
X10040833Y-16928881D01*
X10031310Y-16947929D01*
X10021786Y-16957452D01*
X10002738Y-16966976D01*
X9955119Y-16966976D01*
X9936071Y-16957452D01*
X9926548Y-16947929D01*
X10212262Y-16766976D02*
X10174167Y-16766976D01*
X10155119Y-16776500D01*
X10145595Y-16786024D01*
X10126548Y-16814595D01*
X10117024Y-16852690D01*
X10117024Y-16928881D01*
X10126548Y-16947929D01*
X10136071Y-16957452D01*
X10155119Y-16966976D01*
X10193214Y-16966976D01*
X10212262Y-16957452D01*
X10221786Y-16947929D01*
X10231310Y-16928881D01*
X10231310Y-16881262D01*
X10221786Y-16862214D01*
X10212262Y-16852690D01*
X10193214Y-16843167D01*
X10155119Y-16843167D01*
X10136071Y-16852690D01*
X10126548Y-16862214D01*
X10117024Y-16881262D01*
X10297976Y-16766976D02*
X10421786Y-16766976D01*
X10355119Y-16843167D01*
X10383690Y-16843167D01*
X10402738Y-16852690D01*
X10412262Y-16862214D01*
X10421786Y-16881262D01*
X10421786Y-16928881D01*
X10412262Y-16947929D01*
X10402738Y-16957452D01*
X10383690Y-16966976D01*
X10326548Y-16966976D01*
X10307500Y-16957452D01*
X10297976Y-16947929D01*
X10497976Y-16766976D02*
X10497976Y-16805071D01*
X10574167Y-16766976D02*
X10574167Y-16805071D01*
X10869405Y-17043167D02*
X10859881Y-17033643D01*
X10840833Y-17005071D01*
X10831310Y-16986024D01*
X10821786Y-16957452D01*
X10812262Y-16909833D01*
X10812262Y-16871738D01*
X10821786Y-16824119D01*
X10831310Y-16795548D01*
X10840833Y-16776500D01*
X10859881Y-16747928D01*
X10869405Y-16738405D01*
X11031310Y-16766976D02*
X10993214Y-16766976D01*
X10974167Y-16776500D01*
X10964643Y-16786024D01*
X10945595Y-16814595D01*
X10936071Y-16852690D01*
X10936071Y-16928881D01*
X10945595Y-16947929D01*
X10955119Y-16957452D01*
X10974167Y-16966976D01*
X11012262Y-16966976D01*
X11031310Y-16957452D01*
X11040833Y-16947929D01*
X11050357Y-16928881D01*
X11050357Y-16881262D01*
X11040833Y-16862214D01*
X11031310Y-16852690D01*
X11012262Y-16843167D01*
X10974167Y-16843167D01*
X10955119Y-16852690D01*
X10945595Y-16862214D01*
X10936071Y-16881262D01*
X11288452Y-16966976D02*
X11288452Y-16766976D01*
X11374167Y-16966976D02*
X11374167Y-16862214D01*
X11364643Y-16843167D01*
X11345595Y-16833643D01*
X11317024Y-16833643D01*
X11297976Y-16843167D01*
X11288452Y-16852690D01*
X11497976Y-16966976D02*
X11478928Y-16957452D01*
X11469405Y-16947929D01*
X11459881Y-16928881D01*
X11459881Y-16871738D01*
X11469405Y-16852690D01*
X11478928Y-16843167D01*
X11497976Y-16833643D01*
X11526548Y-16833643D01*
X11545595Y-16843167D01*
X11555119Y-16852690D01*
X11564643Y-16871738D01*
X11564643Y-16928881D01*
X11555119Y-16947929D01*
X11545595Y-16957452D01*
X11526548Y-16966976D01*
X11497976Y-16966976D01*
X11678928Y-16966976D02*
X11659881Y-16957452D01*
X11650357Y-16938405D01*
X11650357Y-16766976D01*
X11831309Y-16957452D02*
X11812262Y-16966976D01*
X11774167Y-16966976D01*
X11755119Y-16957452D01*
X11745595Y-16938405D01*
X11745595Y-16862214D01*
X11755119Y-16843167D01*
X11774167Y-16833643D01*
X11812262Y-16833643D01*
X11831309Y-16843167D01*
X11840833Y-16862214D01*
X11840833Y-16881262D01*
X11745595Y-16900310D01*
X11917024Y-16957452D02*
X11936071Y-16966976D01*
X11974167Y-16966976D01*
X11993214Y-16957452D01*
X12002738Y-16938405D01*
X12002738Y-16928881D01*
X11993214Y-16909833D01*
X11974167Y-16900310D01*
X11945595Y-16900310D01*
X11926548Y-16890786D01*
X11917024Y-16871738D01*
X11917024Y-16862214D01*
X11926548Y-16843167D01*
X11945595Y-16833643D01*
X11974167Y-16833643D01*
X11993214Y-16843167D01*
X12069405Y-17043167D02*
X12078928Y-17033643D01*
X12097976Y-17005071D01*
X12107500Y-16986024D01*
X12117024Y-16957452D01*
X12126548Y-16909833D01*
X12126548Y-16871738D01*
X12117024Y-16824119D01*
X12107500Y-16795548D01*
X12097976Y-16776500D01*
X12078928Y-16747928D01*
X12069405Y-16738405D01*
M02*
