%FSLAX45Y45*%
G04 Gerber Fmt 4.5, Leading zero omitted, Abs format (unit mm)*
G04 Created by KiCad (PCBNEW (5.1.9)-1) date 2021-10-01 13:56:49*
%MOMM*%
%LPD*%
G01*
G04 APERTURE LIST*
%TA.AperFunction,Profile*%
%ADD10C,0.050000*%
%TD*%
%ADD11C,0.200000*%
%ADD12C,0.300000*%
G04 APERTURE END LIST*
D10*
X7300000Y-15200000D02*
X11300000Y-15200000D01*
X7300000Y-3100000D02*
X7300000Y-15200000D01*
X11300000Y-3100000D02*
X11300000Y-15200000D01*
X7300000Y-3100000D02*
X11300000Y-3100000D01*
D11*
X7810000Y-10300000D02*
X8010000Y-10500000D01*
X8010000Y-10300000D02*
X7810000Y-10500000D01*
X7910000Y-3900000D02*
X8110000Y-4100000D01*
X8110000Y-3900000D02*
X7910000Y-4100000D01*
X8010000Y-6300000D02*
X8210000Y-6500000D01*
X8210000Y-6300000D02*
X8010000Y-6500000D01*
X8010000Y-12700000D02*
X8210000Y-12900000D01*
X8210000Y-12700000D02*
X8010000Y-12900000D01*
X8690000Y-10300000D02*
X8890000Y-10500000D01*
X8890000Y-10300000D02*
X8690000Y-10500000D01*
X8790000Y-3900000D02*
X8990000Y-4100000D01*
X8990000Y-3900000D02*
X8790000Y-4100000D01*
X8890000Y-6300000D02*
X9090000Y-6500000D01*
X9090000Y-6300000D02*
X8890000Y-6500000D01*
X8890000Y-12700000D02*
X9090000Y-12900000D01*
X9090000Y-12700000D02*
X8890000Y-12900000D01*
X9510000Y-6300000D02*
X9710000Y-6500000D01*
X9710000Y-6300000D02*
X9510000Y-6500000D01*
X9510000Y-12700000D02*
X9710000Y-12900000D01*
X9710000Y-12700000D02*
X9510000Y-12900000D01*
X10390000Y-6300000D02*
X10590000Y-6500000D01*
X10590000Y-6300000D02*
X10390000Y-6500000D01*
X10390000Y-12700000D02*
X10590000Y-12900000D01*
X10590000Y-12700000D02*
X10390000Y-12900000D01*
D12*
X7583928Y-15668214D02*
X7583928Y-15368214D01*
X7655357Y-15368214D01*
X7698214Y-15382500D01*
X7726786Y-15411071D01*
X7741071Y-15439643D01*
X7755357Y-15496786D01*
X7755357Y-15539643D01*
X7741071Y-15596786D01*
X7726786Y-15625357D01*
X7698214Y-15653929D01*
X7655357Y-15668214D01*
X7583928Y-15668214D01*
X7883928Y-15668214D02*
X7883928Y-15468214D01*
X7883928Y-15525357D02*
X7898214Y-15496786D01*
X7912500Y-15482500D01*
X7941071Y-15468214D01*
X7969643Y-15468214D01*
X8069643Y-15668214D02*
X8069643Y-15468214D01*
X8069643Y-15368214D02*
X8055357Y-15382500D01*
X8069643Y-15396786D01*
X8083928Y-15382500D01*
X8069643Y-15368214D01*
X8069643Y-15396786D01*
X8255357Y-15668214D02*
X8226786Y-15653929D01*
X8212500Y-15625357D01*
X8212500Y-15368214D01*
X8412500Y-15668214D02*
X8383928Y-15653929D01*
X8369643Y-15625357D01*
X8369643Y-15368214D01*
X8755357Y-15668214D02*
X8755357Y-15368214D01*
X8855357Y-15582500D01*
X8955357Y-15368214D01*
X8955357Y-15668214D01*
X9226786Y-15668214D02*
X9226786Y-15511071D01*
X9212500Y-15482500D01*
X9183928Y-15468214D01*
X9126786Y-15468214D01*
X9098214Y-15482500D01*
X9226786Y-15653929D02*
X9198214Y-15668214D01*
X9126786Y-15668214D01*
X9098214Y-15653929D01*
X9083928Y-15625357D01*
X9083928Y-15596786D01*
X9098214Y-15568214D01*
X9126786Y-15553929D01*
X9198214Y-15553929D01*
X9226786Y-15539643D01*
X9369643Y-15468214D02*
X9369643Y-15768214D01*
X9369643Y-15482500D02*
X9398214Y-15468214D01*
X9455357Y-15468214D01*
X9483928Y-15482500D01*
X9498214Y-15496786D01*
X9512500Y-15525357D01*
X9512500Y-15611071D01*
X9498214Y-15639643D01*
X9483928Y-15653929D01*
X9455357Y-15668214D01*
X9398214Y-15668214D01*
X9369643Y-15653929D01*
X9641071Y-15639643D02*
X9655357Y-15653929D01*
X9641071Y-15668214D01*
X9626786Y-15653929D01*
X9641071Y-15639643D01*
X9641071Y-15668214D01*
X9641071Y-15482500D02*
X9655357Y-15496786D01*
X9641071Y-15511071D01*
X9626786Y-15496786D01*
X9641071Y-15482500D01*
X9641071Y-15511071D01*
X7097500Y-16062500D02*
X7297500Y-16262500D01*
X7297500Y-16062500D02*
X7097500Y-16262500D01*
X7569643Y-16026786D02*
X7583928Y-16012500D01*
X7612500Y-15998214D01*
X7683928Y-15998214D01*
X7712500Y-16012500D01*
X7726786Y-16026786D01*
X7741071Y-16055357D01*
X7741071Y-16083929D01*
X7726786Y-16126786D01*
X7555357Y-16298214D01*
X7741071Y-16298214D01*
X7869643Y-16269643D02*
X7883928Y-16283929D01*
X7869643Y-16298214D01*
X7855357Y-16283929D01*
X7869643Y-16269643D01*
X7869643Y-16298214D01*
X8069643Y-15998214D02*
X8098214Y-15998214D01*
X8126786Y-16012500D01*
X8141071Y-16026786D01*
X8155357Y-16055357D01*
X8169643Y-16112500D01*
X8169643Y-16183929D01*
X8155357Y-16241071D01*
X8141071Y-16269643D01*
X8126786Y-16283929D01*
X8098214Y-16298214D01*
X8069643Y-16298214D01*
X8041071Y-16283929D01*
X8026786Y-16269643D01*
X8012500Y-16241071D01*
X7998214Y-16183929D01*
X7998214Y-16112500D01*
X8012500Y-16055357D01*
X8026786Y-16026786D01*
X8041071Y-16012500D01*
X8069643Y-15998214D01*
X8355357Y-15998214D02*
X8383928Y-15998214D01*
X8412500Y-16012500D01*
X8426786Y-16026786D01*
X8441071Y-16055357D01*
X8455357Y-16112500D01*
X8455357Y-16183929D01*
X8441071Y-16241071D01*
X8426786Y-16269643D01*
X8412500Y-16283929D01*
X8383928Y-16298214D01*
X8355357Y-16298214D01*
X8326786Y-16283929D01*
X8312500Y-16269643D01*
X8298214Y-16241071D01*
X8283928Y-16183929D01*
X8283928Y-16112500D01*
X8298214Y-16055357D01*
X8312500Y-16026786D01*
X8326786Y-16012500D01*
X8355357Y-15998214D01*
X8583928Y-16298214D02*
X8583928Y-16098214D01*
X8583928Y-16126786D02*
X8598214Y-16112500D01*
X8626786Y-16098214D01*
X8669643Y-16098214D01*
X8698214Y-16112500D01*
X8712500Y-16141071D01*
X8712500Y-16298214D01*
X8712500Y-16141071D02*
X8726786Y-16112500D01*
X8755357Y-16098214D01*
X8798214Y-16098214D01*
X8826786Y-16112500D01*
X8841071Y-16141071D01*
X8841071Y-16298214D01*
X8983928Y-16298214D02*
X8983928Y-16098214D01*
X8983928Y-16126786D02*
X8998214Y-16112500D01*
X9026786Y-16098214D01*
X9069643Y-16098214D01*
X9098214Y-16112500D01*
X9112500Y-16141071D01*
X9112500Y-16298214D01*
X9112500Y-16141071D02*
X9126786Y-16112500D01*
X9155357Y-16098214D01*
X9198214Y-16098214D01*
X9226786Y-16112500D01*
X9241071Y-16141071D01*
X9241071Y-16298214D01*
X9826786Y-15983929D02*
X9569643Y-16369643D01*
X10212500Y-15998214D02*
X10241071Y-15998214D01*
X10269643Y-16012500D01*
X10283928Y-16026786D01*
X10298214Y-16055357D01*
X10312500Y-16112500D01*
X10312500Y-16183929D01*
X10298214Y-16241071D01*
X10283928Y-16269643D01*
X10269643Y-16283929D01*
X10241071Y-16298214D01*
X10212500Y-16298214D01*
X10183928Y-16283929D01*
X10169643Y-16269643D01*
X10155357Y-16241071D01*
X10141071Y-16183929D01*
X10141071Y-16112500D01*
X10155357Y-16055357D01*
X10169643Y-16026786D01*
X10183928Y-16012500D01*
X10212500Y-15998214D01*
X10441071Y-16269643D02*
X10455357Y-16283929D01*
X10441071Y-16298214D01*
X10426786Y-16283929D01*
X10441071Y-16269643D01*
X10441071Y-16298214D01*
X10641071Y-15998214D02*
X10669643Y-15998214D01*
X10698214Y-16012500D01*
X10712500Y-16026786D01*
X10726786Y-16055357D01*
X10741071Y-16112500D01*
X10741071Y-16183929D01*
X10726786Y-16241071D01*
X10712500Y-16269643D01*
X10698214Y-16283929D01*
X10669643Y-16298214D01*
X10641071Y-16298214D01*
X10612500Y-16283929D01*
X10598214Y-16269643D01*
X10583928Y-16241071D01*
X10569643Y-16183929D01*
X10569643Y-16112500D01*
X10583928Y-16055357D01*
X10598214Y-16026786D01*
X10612500Y-16012500D01*
X10641071Y-15998214D01*
X10841071Y-15998214D02*
X11041071Y-15998214D01*
X10912500Y-16298214D01*
X11169643Y-16298214D02*
X11226786Y-16298214D01*
X11255357Y-16283929D01*
X11269643Y-16269643D01*
X11298214Y-16226786D01*
X11312500Y-16169643D01*
X11312500Y-16055357D01*
X11298214Y-16026786D01*
X11283928Y-16012500D01*
X11255357Y-15998214D01*
X11198214Y-15998214D01*
X11169643Y-16012500D01*
X11155357Y-16026786D01*
X11141071Y-16055357D01*
X11141071Y-16126786D01*
X11155357Y-16155357D01*
X11169643Y-16169643D01*
X11198214Y-16183929D01*
X11255357Y-16183929D01*
X11283928Y-16169643D01*
X11298214Y-16155357D01*
X11312500Y-16126786D01*
X11426786Y-15998214D02*
X11426786Y-16055357D01*
X11541071Y-15998214D02*
X11541071Y-16055357D01*
X11983928Y-16412500D02*
X11969643Y-16398214D01*
X11941071Y-16355357D01*
X11926786Y-16326786D01*
X11912500Y-16283929D01*
X11898214Y-16212500D01*
X11898214Y-16155357D01*
X11912500Y-16083929D01*
X11926786Y-16041071D01*
X11941071Y-16012500D01*
X11969643Y-15969643D01*
X11983928Y-15955357D01*
X12255357Y-16298214D02*
X12083928Y-16298214D01*
X12169643Y-16298214D02*
X12169643Y-15998214D01*
X12141071Y-16041071D01*
X12112500Y-16069643D01*
X12083928Y-16083929D01*
X12369643Y-16026786D02*
X12383928Y-16012500D01*
X12412500Y-15998214D01*
X12483928Y-15998214D01*
X12512500Y-16012500D01*
X12526786Y-16026786D01*
X12541071Y-16055357D01*
X12541071Y-16083929D01*
X12526786Y-16126786D01*
X12355357Y-16298214D01*
X12541071Y-16298214D01*
X12898214Y-16298214D02*
X12898214Y-15998214D01*
X13026786Y-16298214D02*
X13026786Y-16141071D01*
X13012500Y-16112500D01*
X12983928Y-16098214D01*
X12941071Y-16098214D01*
X12912500Y-16112500D01*
X12898214Y-16126786D01*
X13212500Y-16298214D02*
X13183928Y-16283929D01*
X13169643Y-16269643D01*
X13155357Y-16241071D01*
X13155357Y-16155357D01*
X13169643Y-16126786D01*
X13183928Y-16112500D01*
X13212500Y-16098214D01*
X13255357Y-16098214D01*
X13283928Y-16112500D01*
X13298214Y-16126786D01*
X13312500Y-16155357D01*
X13312500Y-16241071D01*
X13298214Y-16269643D01*
X13283928Y-16283929D01*
X13255357Y-16298214D01*
X13212500Y-16298214D01*
X13483928Y-16298214D02*
X13455357Y-16283929D01*
X13441071Y-16255357D01*
X13441071Y-15998214D01*
X13712500Y-16283929D02*
X13683928Y-16298214D01*
X13626786Y-16298214D01*
X13598214Y-16283929D01*
X13583928Y-16255357D01*
X13583928Y-16141071D01*
X13598214Y-16112500D01*
X13626786Y-16098214D01*
X13683928Y-16098214D01*
X13712500Y-16112500D01*
X13726786Y-16141071D01*
X13726786Y-16169643D01*
X13583928Y-16198214D01*
X13841071Y-16283929D02*
X13869643Y-16298214D01*
X13926786Y-16298214D01*
X13955357Y-16283929D01*
X13969643Y-16255357D01*
X13969643Y-16241071D01*
X13955357Y-16212500D01*
X13926786Y-16198214D01*
X13883928Y-16198214D01*
X13855357Y-16183929D01*
X13841071Y-16155357D01*
X13841071Y-16141071D01*
X13855357Y-16112500D01*
X13883928Y-16098214D01*
X13926786Y-16098214D01*
X13955357Y-16112500D01*
X14069643Y-16412500D02*
X14083928Y-16398214D01*
X14112500Y-16355357D01*
X14126786Y-16326786D01*
X14141071Y-16283929D01*
X14155357Y-16212500D01*
X14155357Y-16155357D01*
X14141071Y-16083929D01*
X14126786Y-16041071D01*
X14112500Y-16012500D01*
X14083928Y-15969643D01*
X14069643Y-15955357D01*
X14612500Y-16412500D02*
X14598214Y-16398214D01*
X14569643Y-16355357D01*
X14555357Y-16326786D01*
X14541071Y-16283929D01*
X14526786Y-16212500D01*
X14526786Y-16155357D01*
X14541071Y-16083929D01*
X14555357Y-16041071D01*
X14569643Y-16012500D01*
X14598214Y-15969643D01*
X14612500Y-15955357D01*
X14726786Y-16098214D02*
X14726786Y-16298214D01*
X14726786Y-16126786D02*
X14741071Y-16112500D01*
X14769643Y-16098214D01*
X14812500Y-16098214D01*
X14841071Y-16112500D01*
X14855357Y-16141071D01*
X14855357Y-16298214D01*
X15041071Y-16298214D02*
X15012500Y-16283929D01*
X14998214Y-16269643D01*
X14983928Y-16241071D01*
X14983928Y-16155357D01*
X14998214Y-16126786D01*
X15012500Y-16112500D01*
X15041071Y-16098214D01*
X15083928Y-16098214D01*
X15112500Y-16112500D01*
X15126786Y-16126786D01*
X15141071Y-16155357D01*
X15141071Y-16241071D01*
X15126786Y-16269643D01*
X15112500Y-16283929D01*
X15083928Y-16298214D01*
X15041071Y-16298214D01*
X15226786Y-16098214D02*
X15341071Y-16098214D01*
X15269643Y-15998214D02*
X15269643Y-16255357D01*
X15283928Y-16283929D01*
X15312500Y-16298214D01*
X15341071Y-16298214D01*
X15669643Y-16098214D02*
X15669643Y-16398214D01*
X15669643Y-16112500D02*
X15698214Y-16098214D01*
X15755357Y-16098214D01*
X15783928Y-16112500D01*
X15798214Y-16126786D01*
X15812500Y-16155357D01*
X15812500Y-16241071D01*
X15798214Y-16269643D01*
X15783928Y-16283929D01*
X15755357Y-16298214D01*
X15698214Y-16298214D01*
X15669643Y-16283929D01*
X15983928Y-16298214D02*
X15955357Y-16283929D01*
X15941071Y-16255357D01*
X15941071Y-15998214D01*
X16226786Y-16298214D02*
X16226786Y-16141071D01*
X16212500Y-16112500D01*
X16183928Y-16098214D01*
X16126786Y-16098214D01*
X16098214Y-16112500D01*
X16226786Y-16283929D02*
X16198214Y-16298214D01*
X16126786Y-16298214D01*
X16098214Y-16283929D01*
X16083928Y-16255357D01*
X16083928Y-16226786D01*
X16098214Y-16198214D01*
X16126786Y-16183929D01*
X16198214Y-16183929D01*
X16226786Y-16169643D01*
X16326786Y-16098214D02*
X16441071Y-16098214D01*
X16369643Y-15998214D02*
X16369643Y-16255357D01*
X16383928Y-16283929D01*
X16412500Y-16298214D01*
X16441071Y-16298214D01*
X16655357Y-16283929D02*
X16626786Y-16298214D01*
X16569643Y-16298214D01*
X16541071Y-16283929D01*
X16526786Y-16255357D01*
X16526786Y-16141071D01*
X16541071Y-16112500D01*
X16569643Y-16098214D01*
X16626786Y-16098214D01*
X16655357Y-16112500D01*
X16669643Y-16141071D01*
X16669643Y-16169643D01*
X16526786Y-16198214D01*
X16926786Y-16298214D02*
X16926786Y-15998214D01*
X16926786Y-16283929D02*
X16898214Y-16298214D01*
X16841071Y-16298214D01*
X16812500Y-16283929D01*
X16798214Y-16269643D01*
X16783928Y-16241071D01*
X16783928Y-16155357D01*
X16798214Y-16126786D01*
X16812500Y-16112500D01*
X16841071Y-16098214D01*
X16898214Y-16098214D01*
X16926786Y-16112500D01*
X17041071Y-16412500D02*
X17055357Y-16398214D01*
X17083928Y-16355357D01*
X17098214Y-16326786D01*
X17112500Y-16283929D01*
X17126786Y-16212500D01*
X17126786Y-16155357D01*
X17112500Y-16083929D01*
X17098214Y-16041071D01*
X17083928Y-16012500D01*
X17055357Y-15969643D01*
X17041071Y-15955357D01*
M02*
