%FSLAX45Y45*%
G04 Gerber Fmt 4.5, Leading zero omitted, Abs format (unit mm)*
G04 Created by KiCad (PCBNEW (6.0.0)) date 2022-01-31 13:05:58*
%MOMM*%
%LPD*%
G01*
G04 APERTURE LIST*
%TA.AperFunction,Profile*%
%ADD10C,0.050000*%
%TD*%
%ADD11C,0.200000*%
G04 APERTURE END LIST*
D10*
X7300000Y-3650000D02*
X11300000Y-3650000D01*
X11300000Y-3650000D02*
X11300000Y-14650000D01*
X7300000Y-3650000D02*
X7300000Y-14650000D01*
X7300000Y-14650000D02*
X11300000Y-14650000D01*
D11*
X7810000Y-10200000D02*
X8010000Y-10400000D01*
X8010000Y-10200000D02*
X7810000Y-10400000D01*
X7910000Y-4200000D02*
X8110000Y-4400000D01*
X8110000Y-4200000D02*
X7910000Y-4400000D01*
X8010000Y-6300000D02*
X8210000Y-6500000D01*
X8210000Y-6300000D02*
X8010000Y-6500000D01*
X8010000Y-12200000D02*
X8210000Y-12400000D01*
X8210000Y-12200000D02*
X8010000Y-12400000D01*
X8690000Y-10200000D02*
X8890000Y-10400000D01*
X8890000Y-10200000D02*
X8690000Y-10400000D01*
X8790000Y-4200000D02*
X8990000Y-4400000D01*
X8990000Y-4200000D02*
X8790000Y-4400000D01*
X8890000Y-6300000D02*
X9090000Y-6500000D01*
X9090000Y-6300000D02*
X8890000Y-6500000D01*
X8890000Y-12200000D02*
X9090000Y-12400000D01*
X9090000Y-12200000D02*
X8890000Y-12400000D01*
X9510000Y-6300000D02*
X9710000Y-6500000D01*
X9710000Y-6300000D02*
X9510000Y-6500000D01*
X9510000Y-12200000D02*
X9710000Y-12400000D01*
X9710000Y-12200000D02*
X9510000Y-12400000D01*
X10390000Y-6300000D02*
X10590000Y-6500000D01*
X10590000Y-6300000D02*
X10390000Y-6500000D01*
X10390000Y-12200000D02*
X10590000Y-12400000D01*
X10590000Y-12200000D02*
X10390000Y-12400000D01*
X7555119Y-14962976D02*
X7555119Y-14762976D01*
X7602738Y-14762976D01*
X7631309Y-14772500D01*
X7650357Y-14791548D01*
X7659881Y-14810595D01*
X7669405Y-14848690D01*
X7669405Y-14877262D01*
X7659881Y-14915357D01*
X7650357Y-14934405D01*
X7631309Y-14953452D01*
X7602738Y-14962976D01*
X7555119Y-14962976D01*
X7755119Y-14962976D02*
X7755119Y-14829643D01*
X7755119Y-14867738D02*
X7764643Y-14848690D01*
X7774167Y-14839167D01*
X7793214Y-14829643D01*
X7812262Y-14829643D01*
X7878928Y-14962976D02*
X7878928Y-14829643D01*
X7878928Y-14762976D02*
X7869405Y-14772500D01*
X7878928Y-14782024D01*
X7888452Y-14772500D01*
X7878928Y-14762976D01*
X7878928Y-14782024D01*
X8002738Y-14962976D02*
X7983690Y-14953452D01*
X7974167Y-14934405D01*
X7974167Y-14762976D01*
X8107500Y-14962976D02*
X8088452Y-14953452D01*
X8078928Y-14934405D01*
X8078928Y-14762976D01*
X8336071Y-14962976D02*
X8336071Y-14762976D01*
X8402738Y-14905833D01*
X8469405Y-14762976D01*
X8469405Y-14962976D01*
X8650357Y-14962976D02*
X8650357Y-14858214D01*
X8640833Y-14839167D01*
X8621786Y-14829643D01*
X8583690Y-14829643D01*
X8564643Y-14839167D01*
X8650357Y-14953452D02*
X8631310Y-14962976D01*
X8583690Y-14962976D01*
X8564643Y-14953452D01*
X8555119Y-14934405D01*
X8555119Y-14915357D01*
X8564643Y-14896309D01*
X8583690Y-14886786D01*
X8631310Y-14886786D01*
X8650357Y-14877262D01*
X8745595Y-14829643D02*
X8745595Y-15029643D01*
X8745595Y-14839167D02*
X8764643Y-14829643D01*
X8802738Y-14829643D01*
X8821786Y-14839167D01*
X8831310Y-14848690D01*
X8840833Y-14867738D01*
X8840833Y-14924881D01*
X8831310Y-14943928D01*
X8821786Y-14953452D01*
X8802738Y-14962976D01*
X8764643Y-14962976D01*
X8745595Y-14953452D01*
X8926548Y-14943928D02*
X8936071Y-14953452D01*
X8926548Y-14962976D01*
X8917024Y-14953452D01*
X8926548Y-14943928D01*
X8926548Y-14962976D01*
X8926548Y-14839167D02*
X8936071Y-14848690D01*
X8926548Y-14858214D01*
X8917024Y-14848690D01*
X8926548Y-14839167D01*
X8926548Y-14858214D01*
X7097500Y-15192500D02*
X7297500Y-15392500D01*
X7297500Y-15192500D02*
X7097500Y-15392500D01*
X7545595Y-15202024D02*
X7555119Y-15192500D01*
X7574167Y-15182976D01*
X7621786Y-15182976D01*
X7640833Y-15192500D01*
X7650357Y-15202024D01*
X7659881Y-15221071D01*
X7659881Y-15240119D01*
X7650357Y-15268690D01*
X7536071Y-15382976D01*
X7659881Y-15382976D01*
X7745595Y-15363928D02*
X7755119Y-15373452D01*
X7745595Y-15382976D01*
X7736071Y-15373452D01*
X7745595Y-15363928D01*
X7745595Y-15382976D01*
X7878928Y-15182976D02*
X7897976Y-15182976D01*
X7917024Y-15192500D01*
X7926548Y-15202024D01*
X7936071Y-15221071D01*
X7945595Y-15259167D01*
X7945595Y-15306786D01*
X7936071Y-15344881D01*
X7926548Y-15363928D01*
X7917024Y-15373452D01*
X7897976Y-15382976D01*
X7878928Y-15382976D01*
X7859881Y-15373452D01*
X7850357Y-15363928D01*
X7840833Y-15344881D01*
X7831309Y-15306786D01*
X7831309Y-15259167D01*
X7840833Y-15221071D01*
X7850357Y-15202024D01*
X7859881Y-15192500D01*
X7878928Y-15182976D01*
X8069405Y-15182976D02*
X8088452Y-15182976D01*
X8107500Y-15192500D01*
X8117024Y-15202024D01*
X8126548Y-15221071D01*
X8136071Y-15259167D01*
X8136071Y-15306786D01*
X8126548Y-15344881D01*
X8117024Y-15363928D01*
X8107500Y-15373452D01*
X8088452Y-15382976D01*
X8069405Y-15382976D01*
X8050357Y-15373452D01*
X8040833Y-15363928D01*
X8031309Y-15344881D01*
X8021786Y-15306786D01*
X8021786Y-15259167D01*
X8031309Y-15221071D01*
X8040833Y-15202024D01*
X8050357Y-15192500D01*
X8069405Y-15182976D01*
X8259881Y-15182976D02*
X8278928Y-15182976D01*
X8297976Y-15192500D01*
X8307500Y-15202024D01*
X8317024Y-15221071D01*
X8326548Y-15259167D01*
X8326548Y-15306786D01*
X8317024Y-15344881D01*
X8307500Y-15363928D01*
X8297976Y-15373452D01*
X8278928Y-15382976D01*
X8259881Y-15382976D01*
X8240833Y-15373452D01*
X8231309Y-15363928D01*
X8221786Y-15344881D01*
X8212262Y-15306786D01*
X8212262Y-15259167D01*
X8221786Y-15221071D01*
X8231309Y-15202024D01*
X8240833Y-15192500D01*
X8259881Y-15182976D01*
X8412262Y-15382976D02*
X8412262Y-15249643D01*
X8412262Y-15268690D02*
X8421786Y-15259167D01*
X8440833Y-15249643D01*
X8469405Y-15249643D01*
X8488452Y-15259167D01*
X8497976Y-15278214D01*
X8497976Y-15382976D01*
X8497976Y-15278214D02*
X8507500Y-15259167D01*
X8526548Y-15249643D01*
X8555119Y-15249643D01*
X8574167Y-15259167D01*
X8583690Y-15278214D01*
X8583690Y-15382976D01*
X8678929Y-15382976D02*
X8678929Y-15249643D01*
X8678929Y-15268690D02*
X8688452Y-15259167D01*
X8707500Y-15249643D01*
X8736071Y-15249643D01*
X8755119Y-15259167D01*
X8764643Y-15278214D01*
X8764643Y-15382976D01*
X8764643Y-15278214D02*
X8774167Y-15259167D01*
X8793214Y-15249643D01*
X8821786Y-15249643D01*
X8840833Y-15259167D01*
X8850357Y-15278214D01*
X8850357Y-15382976D01*
X9240833Y-15173452D02*
X9069405Y-15430595D01*
X9497976Y-15182976D02*
X9517024Y-15182976D01*
X9536071Y-15192500D01*
X9545595Y-15202024D01*
X9555119Y-15221071D01*
X9564643Y-15259167D01*
X9564643Y-15306786D01*
X9555119Y-15344881D01*
X9545595Y-15363928D01*
X9536071Y-15373452D01*
X9517024Y-15382976D01*
X9497976Y-15382976D01*
X9478929Y-15373452D01*
X9469405Y-15363928D01*
X9459881Y-15344881D01*
X9450357Y-15306786D01*
X9450357Y-15259167D01*
X9459881Y-15221071D01*
X9469405Y-15202024D01*
X9478929Y-15192500D01*
X9497976Y-15182976D01*
X9650357Y-15363928D02*
X9659881Y-15373452D01*
X9650357Y-15382976D01*
X9640833Y-15373452D01*
X9650357Y-15363928D01*
X9650357Y-15382976D01*
X9783690Y-15182976D02*
X9802738Y-15182976D01*
X9821786Y-15192500D01*
X9831310Y-15202024D01*
X9840833Y-15221071D01*
X9850357Y-15259167D01*
X9850357Y-15306786D01*
X9840833Y-15344881D01*
X9831310Y-15363928D01*
X9821786Y-15373452D01*
X9802738Y-15382976D01*
X9783690Y-15382976D01*
X9764643Y-15373452D01*
X9755119Y-15363928D01*
X9745595Y-15344881D01*
X9736071Y-15306786D01*
X9736071Y-15259167D01*
X9745595Y-15221071D01*
X9755119Y-15202024D01*
X9764643Y-15192500D01*
X9783690Y-15182976D01*
X9917024Y-15182976D02*
X10050357Y-15182976D01*
X9964643Y-15382976D01*
X10155119Y-15268690D02*
X10136071Y-15259167D01*
X10126548Y-15249643D01*
X10117024Y-15230595D01*
X10117024Y-15221071D01*
X10126548Y-15202024D01*
X10136071Y-15192500D01*
X10155119Y-15182976D01*
X10193214Y-15182976D01*
X10212262Y-15192500D01*
X10221786Y-15202024D01*
X10231310Y-15221071D01*
X10231310Y-15230595D01*
X10221786Y-15249643D01*
X10212262Y-15259167D01*
X10193214Y-15268690D01*
X10155119Y-15268690D01*
X10136071Y-15278214D01*
X10126548Y-15287738D01*
X10117024Y-15306786D01*
X10117024Y-15344881D01*
X10126548Y-15363928D01*
X10136071Y-15373452D01*
X10155119Y-15382976D01*
X10193214Y-15382976D01*
X10212262Y-15373452D01*
X10221786Y-15363928D01*
X10231310Y-15344881D01*
X10231310Y-15306786D01*
X10221786Y-15287738D01*
X10212262Y-15278214D01*
X10193214Y-15268690D01*
X10297976Y-15182976D02*
X10431310Y-15182976D01*
X10345595Y-15382976D01*
X10497976Y-15182976D02*
X10497976Y-15221071D01*
X10574167Y-15182976D02*
X10574167Y-15221071D01*
X10869405Y-15459167D02*
X10859881Y-15449643D01*
X10840833Y-15421071D01*
X10831310Y-15402024D01*
X10821786Y-15373452D01*
X10812262Y-15325833D01*
X10812262Y-15287738D01*
X10821786Y-15240119D01*
X10831310Y-15211548D01*
X10840833Y-15192500D01*
X10859881Y-15163928D01*
X10869405Y-15154405D01*
X11050357Y-15382976D02*
X10936071Y-15382976D01*
X10993214Y-15382976D02*
X10993214Y-15182976D01*
X10974167Y-15211548D01*
X10955119Y-15230595D01*
X10936071Y-15240119D01*
X11126548Y-15202024D02*
X11136071Y-15192500D01*
X11155119Y-15182976D01*
X11202738Y-15182976D01*
X11221786Y-15192500D01*
X11231309Y-15202024D01*
X11240833Y-15221071D01*
X11240833Y-15240119D01*
X11231309Y-15268690D01*
X11117024Y-15382976D01*
X11240833Y-15382976D01*
X11478928Y-15382976D02*
X11478928Y-15182976D01*
X11564643Y-15382976D02*
X11564643Y-15278214D01*
X11555119Y-15259167D01*
X11536071Y-15249643D01*
X11507500Y-15249643D01*
X11488452Y-15259167D01*
X11478928Y-15268690D01*
X11688452Y-15382976D02*
X11669405Y-15373452D01*
X11659881Y-15363928D01*
X11650357Y-15344881D01*
X11650357Y-15287738D01*
X11659881Y-15268690D01*
X11669405Y-15259167D01*
X11688452Y-15249643D01*
X11717024Y-15249643D01*
X11736071Y-15259167D01*
X11745595Y-15268690D01*
X11755119Y-15287738D01*
X11755119Y-15344881D01*
X11745595Y-15363928D01*
X11736071Y-15373452D01*
X11717024Y-15382976D01*
X11688452Y-15382976D01*
X11869405Y-15382976D02*
X11850357Y-15373452D01*
X11840833Y-15354405D01*
X11840833Y-15182976D01*
X12021786Y-15373452D02*
X12002738Y-15382976D01*
X11964643Y-15382976D01*
X11945595Y-15373452D01*
X11936071Y-15354405D01*
X11936071Y-15278214D01*
X11945595Y-15259167D01*
X11964643Y-15249643D01*
X12002738Y-15249643D01*
X12021786Y-15259167D01*
X12031309Y-15278214D01*
X12031309Y-15297262D01*
X11936071Y-15316309D01*
X12107500Y-15373452D02*
X12126548Y-15382976D01*
X12164643Y-15382976D01*
X12183690Y-15373452D01*
X12193214Y-15354405D01*
X12193214Y-15344881D01*
X12183690Y-15325833D01*
X12164643Y-15316309D01*
X12136071Y-15316309D01*
X12117024Y-15306786D01*
X12107500Y-15287738D01*
X12107500Y-15278214D01*
X12117024Y-15259167D01*
X12136071Y-15249643D01*
X12164643Y-15249643D01*
X12183690Y-15259167D01*
X12259881Y-15459167D02*
X12269405Y-15449643D01*
X12288452Y-15421071D01*
X12297976Y-15402024D01*
X12307500Y-15373452D01*
X12317024Y-15325833D01*
X12317024Y-15287738D01*
X12307500Y-15240119D01*
X12297976Y-15211548D01*
X12288452Y-15192500D01*
X12269405Y-15163928D01*
X12259881Y-15154405D01*
X12621786Y-15459167D02*
X12612262Y-15449643D01*
X12593214Y-15421071D01*
X12583690Y-15402024D01*
X12574167Y-15373452D01*
X12564643Y-15325833D01*
X12564643Y-15287738D01*
X12574167Y-15240119D01*
X12583690Y-15211548D01*
X12593214Y-15192500D01*
X12612262Y-15163928D01*
X12621786Y-15154405D01*
X12697976Y-15249643D02*
X12697976Y-15382976D01*
X12697976Y-15268690D02*
X12707500Y-15259167D01*
X12726548Y-15249643D01*
X12755119Y-15249643D01*
X12774167Y-15259167D01*
X12783690Y-15278214D01*
X12783690Y-15382976D01*
X12907500Y-15382976D02*
X12888452Y-15373452D01*
X12878928Y-15363928D01*
X12869405Y-15344881D01*
X12869405Y-15287738D01*
X12878928Y-15268690D01*
X12888452Y-15259167D01*
X12907500Y-15249643D01*
X12936071Y-15249643D01*
X12955119Y-15259167D01*
X12964643Y-15268690D01*
X12974167Y-15287738D01*
X12974167Y-15344881D01*
X12964643Y-15363928D01*
X12955119Y-15373452D01*
X12936071Y-15382976D01*
X12907500Y-15382976D01*
X13031309Y-15249643D02*
X13107500Y-15249643D01*
X13059881Y-15182976D02*
X13059881Y-15354405D01*
X13069405Y-15373452D01*
X13088452Y-15382976D01*
X13107500Y-15382976D01*
X13326548Y-15249643D02*
X13326548Y-15449643D01*
X13326548Y-15259167D02*
X13345595Y-15249643D01*
X13383690Y-15249643D01*
X13402738Y-15259167D01*
X13412262Y-15268690D01*
X13421786Y-15287738D01*
X13421786Y-15344881D01*
X13412262Y-15363928D01*
X13402738Y-15373452D01*
X13383690Y-15382976D01*
X13345595Y-15382976D01*
X13326548Y-15373452D01*
X13536071Y-15382976D02*
X13517024Y-15373452D01*
X13507500Y-15354405D01*
X13507500Y-15182976D01*
X13697976Y-15382976D02*
X13697976Y-15278214D01*
X13688452Y-15259167D01*
X13669405Y-15249643D01*
X13631309Y-15249643D01*
X13612262Y-15259167D01*
X13697976Y-15373452D02*
X13678928Y-15382976D01*
X13631309Y-15382976D01*
X13612262Y-15373452D01*
X13602738Y-15354405D01*
X13602738Y-15335357D01*
X13612262Y-15316309D01*
X13631309Y-15306786D01*
X13678928Y-15306786D01*
X13697976Y-15297262D01*
X13764643Y-15249643D02*
X13840833Y-15249643D01*
X13793214Y-15182976D02*
X13793214Y-15354405D01*
X13802738Y-15373452D01*
X13821786Y-15382976D01*
X13840833Y-15382976D01*
X13983690Y-15373452D02*
X13964643Y-15382976D01*
X13926548Y-15382976D01*
X13907500Y-15373452D01*
X13897976Y-15354405D01*
X13897976Y-15278214D01*
X13907500Y-15259167D01*
X13926548Y-15249643D01*
X13964643Y-15249643D01*
X13983690Y-15259167D01*
X13993214Y-15278214D01*
X13993214Y-15297262D01*
X13897976Y-15316309D01*
X14164643Y-15382976D02*
X14164643Y-15182976D01*
X14164643Y-15373452D02*
X14145595Y-15382976D01*
X14107500Y-15382976D01*
X14088452Y-15373452D01*
X14078928Y-15363928D01*
X14069405Y-15344881D01*
X14069405Y-15287738D01*
X14078928Y-15268690D01*
X14088452Y-15259167D01*
X14107500Y-15249643D01*
X14145595Y-15249643D01*
X14164643Y-15259167D01*
X14240833Y-15459167D02*
X14250357Y-15449643D01*
X14269405Y-15421071D01*
X14278928Y-15402024D01*
X14288452Y-15373452D01*
X14297976Y-15325833D01*
X14297976Y-15287738D01*
X14288452Y-15240119D01*
X14278928Y-15211548D01*
X14269405Y-15192500D01*
X14250357Y-15163928D01*
X14240833Y-15154405D01*
M02*
