M48
; DRILL file {KiCad (5.1.9)-1} date 10/01/21 13:56:48
; FORMAT={-:-/ absolute / metric / decimal}
; #@! TF.CreationDate,2021-10-01T13:56:48+02:00
; #@! TF.GenerationSoftware,Kicad,Pcbnew,(5.1.9)-1
; #@! TF.FileFunction,Plated,1,2,PTH
FMAT,2
METRIC
T1C0.800
T2C0.900
T3C1.000
T4C1.220
T5C1.420
T6C1.430
%
G90
G05
T1
X74.74Y-89.5
X76.84Y-50.0
X76.84Y-53.0
X76.84Y-56.0
X76.84Y-114.0
X76.84Y-117.0
X76.84Y-120.0
X84.9Y-89.5
X87.0Y-50.0
X87.0Y-53.0
X87.0Y-56.0
X87.0Y-114.0
X87.0Y-117.0
X87.0Y-120.0
X99.0Y-50.0
X99.0Y-53.0
X99.0Y-56.0
X99.0Y-114.0
X99.0Y-117.0
X99.0Y-120.0
X109.16Y-50.0
X109.16Y-53.0
X109.16Y-56.0
X109.16Y-114.0
X109.16Y-117.0
X109.16Y-120.0
T2
X105.0Y-91.5
X107.54Y-91.5
T3
X76.0Y-69.0
X76.0Y-71.54
X76.0Y-74.08
X76.0Y-76.62
X76.0Y-79.16
X76.0Y-81.7
X76.0Y-130.0
X76.0Y-132.54
X76.0Y-135.08
X76.0Y-137.62
X76.0Y-140.16
X76.0Y-142.7
X81.0Y-111.0
X82.0Y-47.0
X83.0Y-71.0
X83.0Y-135.0
X83.5Y-111.0
X84.5Y-47.0
X85.5Y-71.0
X85.5Y-135.0
X86.0Y-111.0
X87.0Y-47.0
X88.0Y-71.0
X88.0Y-135.0
X98.0Y-71.0
X98.0Y-135.0
X100.5Y-71.0
X100.5Y-135.0
X103.0Y-71.0
X103.0Y-135.0
X110.0Y-69.0
X110.0Y-71.54
X110.0Y-74.08
X110.0Y-76.62
X110.0Y-79.16
X110.0Y-81.7
X110.0Y-130.0
X110.0Y-132.54
X110.0Y-135.08
X110.0Y-137.62
X110.0Y-140.16
X110.0Y-142.7
T4
X83.0Y-74.0
X83.0Y-138.0
X93.0Y-74.0
X93.0Y-138.0
X103.0Y-74.0
X103.0Y-138.0
T5
X83.0Y-77.1
X83.0Y-141.1
X93.0Y-77.1
X93.0Y-141.1
X103.0Y-77.1
X103.0Y-141.1
T6
X83.0Y-85.4
X83.0Y-149.4
X93.0Y-85.4
X93.0Y-149.4
X103.0Y-85.4
X103.0Y-149.4
T3
X88.3Y-90.85G85X88.3Y-92.15
G05
X93.0Y-90.85G85X93.0Y-92.15
G05
X97.7Y-90.85G85X97.7Y-92.15
G05
X100.2Y-98.8G85X99.0Y-98.8
G05
X100.2Y-103.5G85X99.0Y-103.5
G05
X100.2Y-108.2G85X99.0Y-108.2
G05
X102.2Y-34.8G85X101.0Y-34.8
G05
X102.2Y-39.5G85X101.0Y-39.5
G05
X102.2Y-44.2G85X101.0Y-44.2
G05
X105.0Y-98.8G85X103.8Y-98.8
G05
X105.0Y-103.5G85X103.8Y-103.5
G05
X105.0Y-108.2G85X103.8Y-108.2
G05
X107.0Y-34.8G85X105.8Y-34.8
G05
X107.0Y-39.5G85X105.8Y-39.5
G05
X107.0Y-44.2G85X105.8Y-44.2
G05
T0
M30
