G04 #@! TF.GenerationSoftware,KiCad,Pcbnew,(5.1.9)-1*
G04 #@! TF.CreationDate,2021-10-01T13:56:45+02:00*
G04 #@! TF.ProjectId,MS20-VCF,4d533230-2d56-4434-962e-6b696361645f,rev?*
G04 #@! TF.SameCoordinates,Original*
G04 #@! TF.FileFunction,Soldermask,Bot*
G04 #@! TF.FilePolarity,Negative*
%FSLAX46Y46*%
G04 Gerber Fmt 4.6, Leading zero omitted, Abs format (unit mm)*
G04 Created by KiCad (PCBNEW (5.1.9)-1) date 2021-10-01 13:56:45*
%MOMM*%
%LPD*%
G01*
G04 APERTURE LIST*
%ADD10C,4.000000*%
%ADD11C,1.800000*%
%ADD12C,2.130000*%
%ADD13R,1.930000X1.830000*%
%ADD14O,1.700000X1.700000*%
%ADD15R,1.700000X1.700000*%
%ADD16O,3.700000X2.400000*%
%ADD17O,3.200000X5.000000*%
%ADD18O,1.600000X1.600000*%
%ADD19C,1.600000*%
%ADD20R,1.800000X1.800000*%
G04 APERTURE END LIST*
D10*
X87900000Y-104000000D03*
X79100000Y-104000000D03*
D11*
X86000000Y-111000000D03*
X83500000Y-111000000D03*
X81000000Y-111000000D03*
D12*
X103000000Y-149400000D03*
D13*
X103000000Y-138000000D03*
D12*
X103000000Y-141100000D03*
X93000000Y-149400000D03*
D13*
X93000000Y-138000000D03*
D12*
X93000000Y-141100000D03*
X83000000Y-149400000D03*
D13*
X83000000Y-138000000D03*
D12*
X83000000Y-141100000D03*
D14*
X110000000Y-142700000D03*
X110000000Y-140160000D03*
X110000000Y-137620000D03*
X110000000Y-135080000D03*
X110000000Y-132540000D03*
D15*
X110000000Y-130000000D03*
D14*
X76000000Y-142700000D03*
X76000000Y-140160000D03*
X76000000Y-137620000D03*
X76000000Y-135080000D03*
X76000000Y-132540000D03*
D15*
X76000000Y-130000000D03*
D12*
X103000000Y-85400000D03*
D13*
X103000000Y-74000000D03*
D12*
X103000000Y-77100000D03*
X93000000Y-85400000D03*
D13*
X93000000Y-74000000D03*
D12*
X93000000Y-77100000D03*
D14*
X110000000Y-81700000D03*
X110000000Y-79160000D03*
X110000000Y-76620000D03*
X110000000Y-74080000D03*
X110000000Y-71540000D03*
D15*
X110000000Y-69000000D03*
D14*
X76000000Y-81700000D03*
X76000000Y-79160000D03*
X76000000Y-76620000D03*
X76000000Y-74080000D03*
X76000000Y-71540000D03*
D15*
X76000000Y-69000000D03*
D16*
X104400000Y-108200000D03*
X104400000Y-103500000D03*
X104400000Y-98800000D03*
X99600000Y-108200000D03*
X99600000Y-103500000D03*
X99600000Y-98800000D03*
D17*
X97700000Y-91500000D03*
X93000000Y-91500000D03*
X88300000Y-91500000D03*
D16*
X106400000Y-44200000D03*
X106400000Y-39500000D03*
X106400000Y-34800000D03*
X101600000Y-44200000D03*
X101600000Y-39500000D03*
X101600000Y-34800000D03*
D10*
X104900000Y-128000000D03*
X96100000Y-128000000D03*
D11*
X103000000Y-135000000D03*
X100500000Y-135000000D03*
X98000000Y-135000000D03*
D10*
X104900000Y-64000000D03*
X96100000Y-64000000D03*
D11*
X103000000Y-71000000D03*
X100500000Y-71000000D03*
X98000000Y-71000000D03*
D18*
X87000000Y-120000000D03*
D19*
X76840000Y-120000000D03*
D18*
X99000000Y-120000000D03*
D19*
X109160000Y-120000000D03*
D18*
X99000000Y-117000000D03*
D19*
X109160000Y-117000000D03*
D18*
X109160000Y-114000000D03*
D19*
X99000000Y-114000000D03*
D18*
X76840000Y-117000000D03*
D19*
X87000000Y-117000000D03*
D18*
X76840000Y-114000000D03*
D19*
X87000000Y-114000000D03*
D18*
X87000000Y-50000000D03*
D19*
X76840000Y-50000000D03*
D18*
X109160000Y-53000000D03*
D19*
X99000000Y-53000000D03*
D18*
X99000000Y-50000000D03*
D19*
X109160000Y-50000000D03*
D18*
X109160000Y-56000000D03*
D19*
X99000000Y-56000000D03*
D18*
X87000000Y-53000000D03*
D19*
X76840000Y-53000000D03*
D18*
X87000000Y-56000000D03*
D19*
X76840000Y-56000000D03*
D18*
X74740000Y-89500000D03*
D19*
X84900000Y-89500000D03*
D12*
X83000000Y-85400000D03*
D13*
X83000000Y-74000000D03*
D12*
X83000000Y-77100000D03*
D11*
X107540000Y-91500000D03*
D20*
X105000000Y-91500000D03*
D10*
X88900000Y-40000000D03*
X80100000Y-40000000D03*
D11*
X87000000Y-47000000D03*
X84500000Y-47000000D03*
X82000000Y-47000000D03*
D10*
X89900000Y-128000000D03*
X81100000Y-128000000D03*
D11*
X88000000Y-135000000D03*
X85500000Y-135000000D03*
X83000000Y-135000000D03*
D10*
X89900000Y-64000000D03*
X81100000Y-64000000D03*
D11*
X88000000Y-71000000D03*
X85500000Y-71000000D03*
X83000000Y-71000000D03*
M02*
