%FSLAX45Y45*%
G04 Gerber Fmt 4.5, Leading zero omitted, Abs format (unit mm)*
G04 Created by KiCad (PCBNEW (6.0.6)) date 2022-11-24 10:35:40*
%MOMM*%
%LPD*%
G01*
G04 APERTURE LIST*
%TA.AperFunction,Profile*%
%ADD10C,0.050000*%
%TD*%
%ADD11C,0.200000*%
G04 APERTURE END LIST*
D10*
X4200000Y-3650000D02*
X4200000Y-16500000D01*
X4200000Y-3650000D02*
X16200000Y-3650000D01*
X16200000Y-3650000D02*
X16200000Y-16500000D01*
X16200000Y-16500000D02*
X4200000Y-16500000D01*
D11*
X4455119Y-16812976D02*
X4455119Y-16612976D01*
X4502738Y-16612976D01*
X4531310Y-16622500D01*
X4550357Y-16641548D01*
X4559881Y-16660595D01*
X4569405Y-16698690D01*
X4569405Y-16727262D01*
X4559881Y-16765357D01*
X4550357Y-16784405D01*
X4531310Y-16803452D01*
X4502738Y-16812976D01*
X4455119Y-16812976D01*
X4655119Y-16812976D02*
X4655119Y-16679643D01*
X4655119Y-16717738D02*
X4664643Y-16698690D01*
X4674167Y-16689167D01*
X4693214Y-16679643D01*
X4712262Y-16679643D01*
X4778929Y-16812976D02*
X4778929Y-16679643D01*
X4778929Y-16612976D02*
X4769405Y-16622500D01*
X4778929Y-16632024D01*
X4788452Y-16622500D01*
X4778929Y-16612976D01*
X4778929Y-16632024D01*
X4902738Y-16812976D02*
X4883690Y-16803452D01*
X4874167Y-16784405D01*
X4874167Y-16612976D01*
X5007500Y-16812976D02*
X4988452Y-16803452D01*
X4978929Y-16784405D01*
X4978929Y-16612976D01*
X5236071Y-16812976D02*
X5236071Y-16612976D01*
X5302738Y-16755833D01*
X5369405Y-16612976D01*
X5369405Y-16812976D01*
X5550357Y-16812976D02*
X5550357Y-16708214D01*
X5540833Y-16689167D01*
X5521786Y-16679643D01*
X5483690Y-16679643D01*
X5464643Y-16689167D01*
X5550357Y-16803452D02*
X5531310Y-16812976D01*
X5483690Y-16812976D01*
X5464643Y-16803452D01*
X5455119Y-16784405D01*
X5455119Y-16765357D01*
X5464643Y-16746309D01*
X5483690Y-16736786D01*
X5531310Y-16736786D01*
X5550357Y-16727262D01*
X5645595Y-16679643D02*
X5645595Y-16879643D01*
X5645595Y-16689167D02*
X5664643Y-16679643D01*
X5702738Y-16679643D01*
X5721786Y-16689167D01*
X5731309Y-16698690D01*
X5740833Y-16717738D01*
X5740833Y-16774881D01*
X5731309Y-16793929D01*
X5721786Y-16803452D01*
X5702738Y-16812976D01*
X5664643Y-16812976D01*
X5645595Y-16803452D01*
X5826548Y-16793929D02*
X5836071Y-16803452D01*
X5826548Y-16812976D01*
X5817024Y-16803452D01*
X5826548Y-16793929D01*
X5826548Y-16812976D01*
X5826548Y-16689167D02*
X5836071Y-16698690D01*
X5826548Y-16708214D01*
X5817024Y-16698690D01*
X5826548Y-16689167D01*
X5826548Y-16708214D01*
M02*
