M48
; DRILL file {KiCad (6.0.1)} date Thu Feb 10 17:18:11 2022
; FORMAT={-:-/ absolute / metric / decimal}
; #@! TF.CreationDate,2022-02-10T17:18:11+01:00
; #@! TF.GenerationSoftware,Kicad,Pcbnew,(6.0.1)
; #@! TF.FileFunction,Plated,1,2,PTH
FMAT,2
METRIC
; #@! TA.AperFunction,Plated,PTH,ViaDrill
T1C0.400
; #@! TA.AperFunction,Plated,PTH,ComponentDrill
T2C0.750
; #@! TA.AperFunction,Plated,PTH,ComponentDrill
T3C0.800
; #@! TA.AperFunction,Plated,PTH,ComponentDrill
T4C0.900
; #@! TA.AperFunction,Plated,PTH,ComponentDrill
T5C1.000
; #@! TA.AperFunction,Plated,PTH,ComponentDrill
T6C1.220
; #@! TA.AperFunction,Plated,PTH,ComponentDrill
T7C1.420
; #@! TA.AperFunction,Plated,PTH,ComponentDrill
T8C1.430
%
G90
G05
T1
X109.5Y-98.5
X158.0Y-100.0
T2
X87.23Y-96.0
X88.5Y-96.0
X89.77Y-96.0
X117.23Y-96.0
X118.5Y-96.0
X119.77Y-96.0
X147.23Y-96.14
X148.5Y-96.14
X149.77Y-96.14
X177.23Y-96.14
X178.5Y-96.14
X179.77Y-96.14
T3
X81.5Y-73.0
X81.5Y-78.0
X83.42Y-135.0
X84.0Y-88.34
X84.0Y-98.5
X93.0Y-88.34
X93.0Y-98.5
X93.58Y-135.0
X95.5Y-117.92
X95.5Y-128.08
X111.5Y-73.0
X111.5Y-78.0
X111.5Y-117.92
X111.5Y-128.08
X113.42Y-135.0
X114.0Y-88.42
X114.0Y-98.58
X123.0Y-88.42
X123.0Y-98.58
X123.58Y-135.0
X128.545Y-115.5
X129.7Y-121.875
X129.7Y-124.415
X129.7Y-126.955
X129.7Y-129.495
X129.7Y-132.035
X129.7Y-134.575
X129.7Y-137.115
X130.545Y-115.5
X136.5Y-115.5
X137.32Y-121.875
X137.32Y-124.415
X137.32Y-126.955
X137.32Y-129.495
X137.32Y-132.035
X137.32Y-134.575
X137.32Y-137.115
X138.5Y-115.5
X143.42Y-135.0
X144.0Y-88.42
X144.0Y-98.58
X153.0Y-88.42
X153.0Y-98.58
X153.58Y-135.0
X155.42Y-73.0
X155.42Y-78.0
X155.5Y-117.92
X155.5Y-128.08
X171.5Y-118.42
X171.5Y-128.58
X173.42Y-135.0
X174.0Y-88.34
X174.0Y-98.5
X183.0Y-88.34
X183.0Y-98.5
X183.58Y-135.0
X185.5Y-73.0
X185.5Y-78.0
T4
X87.225Y-91.0
X89.765Y-91.0
X117.225Y-91.0
X119.765Y-91.0
X147.225Y-91.0
X149.765Y-91.0
X177.225Y-91.0
X179.765Y-91.0
T5
X86.0Y-45.55
X86.0Y-66.05
X86.0Y-115.05
X88.5Y-45.55
X88.5Y-66.05
X88.5Y-115.05
X91.0Y-45.55
X91.0Y-66.05
X91.0Y-115.05
X103.5Y-50.5
X103.5Y-53.04
X103.5Y-55.58
X103.5Y-58.12
X103.5Y-101.0
X103.5Y-103.54
X103.5Y-106.08
X103.5Y-108.62
X103.5Y-127.5
X103.5Y-130.04
X103.5Y-132.58
X116.0Y-45.55
X116.0Y-66.05
X116.0Y-115.05
X118.5Y-45.55
X118.5Y-66.05
X118.5Y-115.05
X121.0Y-45.55
X121.0Y-66.05
X121.0Y-115.05
X133.5Y-50.5
X133.5Y-53.04
X133.5Y-55.58
X133.5Y-58.12
X133.5Y-101.0
X133.5Y-103.54
X133.5Y-106.08
X133.5Y-108.62
X146.0Y-45.55
X146.0Y-66.05
X146.0Y-115.05
X148.5Y-45.55
X148.5Y-66.05
X148.5Y-115.05
X151.0Y-45.55
X151.0Y-66.05
X151.0Y-115.05
X176.0Y-45.55
X176.0Y-66.05
X176.0Y-115.05
X178.5Y-45.55
X178.5Y-66.05
X178.5Y-115.05
X181.0Y-45.55
X181.0Y-66.05
X181.0Y-115.05
T6
X88.5Y-73.1
X88.5Y-120.22
X118.5Y-73.1
X118.5Y-120.22
X148.5Y-73.1
X148.5Y-120.22
X178.5Y-73.1
X178.5Y-120.22
T7
X88.5Y-76.2
X88.5Y-123.32
X118.5Y-76.2
X118.5Y-123.32
X148.5Y-76.2
X148.5Y-123.32
X178.5Y-76.2
X178.5Y-123.32
T8
X88.5Y-84.5
X88.5Y-131.62
X118.5Y-84.5
X118.5Y-131.62
X148.5Y-84.5
X148.5Y-131.62
X178.5Y-84.5
X178.5Y-131.62
T0
M30
