G04 #@! TF.GenerationSoftware,KiCad,Pcbnew,(6.0.1)*
G04 #@! TF.CreationDate,2022-02-10T17:18:07+01:00*
G04 #@! TF.ProjectId,Drumbox,4472756d-626f-4782-9e6b-696361645f70,rev?*
G04 #@! TF.SameCoordinates,Original*
G04 #@! TF.FileFunction,Soldermask,Bot*
G04 #@! TF.FilePolarity,Negative*
%FSLAX46Y46*%
G04 Gerber Fmt 4.6, Leading zero omitted, Abs format (unit mm)*
G04 Created by KiCad (PCBNEW (6.0.1)) date 2022-02-10 17:18:07*
%MOMM*%
%LPD*%
G01*
G04 APERTURE LIST*
%ADD10C,4.000000*%
%ADD11C,1.800000*%
%ADD12C,1.600000*%
%ADD13O,1.600000X1.600000*%
%ADD14R,1.050000X1.500000*%
%ADD15O,1.050000X1.500000*%
%ADD16R,1.800000X1.800000*%
%ADD17R,1.600000X1.600000*%
%ADD18R,1.930000X1.830000*%
%ADD19C,2.130000*%
%ADD20R,1.700000X1.700000*%
%ADD21O,1.700000X1.700000*%
G04 APERTURE END LIST*
D10*
X84100000Y-38550000D03*
X92900000Y-38550000D03*
D11*
X91000000Y-45550000D03*
X88500000Y-45550000D03*
X86000000Y-45550000D03*
D12*
X84000000Y-98500000D03*
D13*
X84000000Y-88340000D03*
D14*
X149770000Y-96140000D03*
D15*
X148500000Y-96140000D03*
X147230000Y-96140000D03*
D12*
X111500000Y-117920000D03*
D13*
X111500000Y-128080000D03*
D10*
X84100000Y-59050000D03*
X92900000Y-59050000D03*
D11*
X91000000Y-66050000D03*
X88500000Y-66050000D03*
X86000000Y-66050000D03*
D12*
X153000000Y-88420000D03*
D13*
X153000000Y-98580000D03*
D16*
X177225000Y-91000000D03*
D11*
X179765000Y-91000000D03*
D16*
X117225000Y-91000000D03*
D11*
X119765000Y-91000000D03*
D17*
X136500000Y-115500000D03*
D12*
X138500000Y-115500000D03*
X183000000Y-88340000D03*
D13*
X183000000Y-98500000D03*
D10*
X144100000Y-108050000D03*
X152900000Y-108050000D03*
D11*
X151000000Y-115050000D03*
X148500000Y-115050000D03*
X146000000Y-115050000D03*
D12*
X144000000Y-98580000D03*
D13*
X144000000Y-88420000D03*
D10*
X152900000Y-38550000D03*
X144100000Y-38550000D03*
D11*
X151000000Y-45550000D03*
X148500000Y-45550000D03*
X146000000Y-45550000D03*
D12*
X174000000Y-98500000D03*
D13*
X174000000Y-88340000D03*
D10*
X144100000Y-59050000D03*
X152900000Y-59050000D03*
D11*
X151000000Y-66050000D03*
X148500000Y-66050000D03*
X146000000Y-66050000D03*
D14*
X89770000Y-96000000D03*
D15*
X88500000Y-96000000D03*
X87230000Y-96000000D03*
D14*
X179770000Y-96140000D03*
D15*
X178500000Y-96140000D03*
X177230000Y-96140000D03*
D10*
X114100000Y-38550000D03*
X122900000Y-38550000D03*
D11*
X121000000Y-45550000D03*
X118500000Y-45550000D03*
X116000000Y-45550000D03*
D18*
X118500000Y-73100000D03*
D19*
X118500000Y-84500000D03*
X118500000Y-76200000D03*
D12*
X183580000Y-135000000D03*
D13*
X173420000Y-135000000D03*
D17*
X129700000Y-121875000D03*
D13*
X129700000Y-124415000D03*
X129700000Y-126955000D03*
X129700000Y-129495000D03*
X129700000Y-132035000D03*
X129700000Y-134575000D03*
X129700000Y-137115000D03*
X137320000Y-137115000D03*
X137320000Y-134575000D03*
X137320000Y-132035000D03*
X137320000Y-129495000D03*
X137320000Y-126955000D03*
X137320000Y-124415000D03*
X137320000Y-121875000D03*
D17*
X128544887Y-115500000D03*
D12*
X130544887Y-115500000D03*
X81500000Y-73000000D03*
X81500000Y-78000000D03*
D16*
X147225000Y-91000000D03*
D11*
X149765000Y-91000000D03*
D12*
X185500000Y-73000000D03*
X185500000Y-78000000D03*
X111500000Y-73000000D03*
X111500000Y-78000000D03*
D10*
X174100000Y-59050000D03*
X182900000Y-59050000D03*
D11*
X181000000Y-66050000D03*
X178500000Y-66050000D03*
X176000000Y-66050000D03*
D12*
X171500000Y-118420000D03*
D13*
X171500000Y-128580000D03*
D18*
X148500000Y-73100000D03*
D19*
X148500000Y-84500000D03*
X148500000Y-76200000D03*
D10*
X122900000Y-108050000D03*
X114100000Y-108050000D03*
D11*
X121000000Y-115050000D03*
X118500000Y-115050000D03*
X116000000Y-115050000D03*
D12*
X114000000Y-98580000D03*
D13*
X114000000Y-88420000D03*
D18*
X178500000Y-73100000D03*
D19*
X178500000Y-84500000D03*
X178500000Y-76200000D03*
D18*
X118500000Y-120220000D03*
D19*
X118500000Y-131620000D03*
X118500000Y-123320000D03*
D12*
X93000000Y-88340000D03*
D13*
X93000000Y-98500000D03*
D12*
X123000000Y-88420000D03*
D13*
X123000000Y-98580000D03*
D10*
X114100000Y-59050000D03*
X122900000Y-59050000D03*
D11*
X121000000Y-66050000D03*
X118500000Y-66050000D03*
X116000000Y-66050000D03*
D12*
X155420000Y-73000000D03*
X155420000Y-78000000D03*
D14*
X119770000Y-96000000D03*
D15*
X118500000Y-96000000D03*
X117230000Y-96000000D03*
D18*
X178500000Y-120220000D03*
D19*
X178500000Y-131620000D03*
X178500000Y-123320000D03*
D18*
X148500000Y-120220000D03*
D19*
X148500000Y-131620000D03*
X148500000Y-123320000D03*
D18*
X88500000Y-120220000D03*
D19*
X88500000Y-131620000D03*
X88500000Y-123320000D03*
D12*
X153580000Y-135000000D03*
D13*
X143420000Y-135000000D03*
D12*
X113420000Y-135000000D03*
D13*
X123580000Y-135000000D03*
D12*
X83420000Y-135000000D03*
D13*
X93580000Y-135000000D03*
D12*
X155500000Y-117920000D03*
D13*
X155500000Y-128080000D03*
D10*
X182900000Y-38550000D03*
X174100000Y-38550000D03*
D11*
X181000000Y-45550000D03*
X178500000Y-45550000D03*
X176000000Y-45550000D03*
D10*
X84100000Y-108050000D03*
X92900000Y-108050000D03*
D11*
X91000000Y-115050000D03*
X88500000Y-115050000D03*
X86000000Y-115050000D03*
D10*
X174100000Y-108050000D03*
X182900000Y-108050000D03*
D11*
X181000000Y-115050000D03*
X178500000Y-115050000D03*
X176000000Y-115050000D03*
D16*
X87225000Y-91000000D03*
D11*
X89765000Y-91000000D03*
D18*
X88500000Y-73100000D03*
D19*
X88500000Y-84500000D03*
X88500000Y-76200000D03*
D12*
X95500000Y-117920000D03*
D13*
X95500000Y-128080000D03*
D20*
X133500000Y-101000000D03*
D21*
X133500000Y-103540000D03*
X133500000Y-106080000D03*
X133500000Y-108620000D03*
D20*
X103500000Y-101000000D03*
D21*
X103500000Y-103540000D03*
X103500000Y-106080000D03*
X103500000Y-108620000D03*
D20*
X133500000Y-50500000D03*
D21*
X133500000Y-53040000D03*
X133500000Y-55580000D03*
X133500000Y-58120000D03*
D20*
X103500000Y-50500000D03*
D21*
X103500000Y-53040000D03*
X103500000Y-55580000D03*
X103500000Y-58120000D03*
D20*
X103500000Y-132580000D03*
D21*
X103500000Y-130040000D03*
X103500000Y-127500000D03*
M02*
