M48
; DRILL file {KiCad (6.0.0)} date Sat Apr 30 23:28:05 2022
; FORMAT={-:-/ absolute / metric / decimal}
; #@! TF.CreationDate,2022-04-30T23:28:05+02:00
; #@! TF.GenerationSoftware,Kicad,Pcbnew,(6.0.0)
; #@! TF.FileFunction,NonPlated,1,2,NPTH
FMAT,2
METRIC
; #@! TA.AperFunction,NonPlated,NPTH,ComponentDrill
T1C2.000
; #@! TA.AperFunction,NonPlated,NPTH,ComponentDrill
T2C3.200
%
G90
G05
T1
X56.6Y-39.55
X56.6Y-58.05
X56.6Y-76.55
X56.6Y-95.05
X56.6Y-113.55
X56.6Y-132.05
X65.4Y-39.55
X65.4Y-58.05
X65.4Y-76.55
X65.4Y-95.05
X65.4Y-113.55
X65.4Y-132.05
X90.24Y-39.55
X90.24Y-58.05
X90.24Y-76.55
X90.24Y-95.05
X90.24Y-113.55
X90.24Y-132.05
X99.04Y-39.55
X99.04Y-58.05
X99.04Y-76.55
X99.04Y-95.05
X99.04Y-113.55
X99.04Y-132.05
T2
X123.5Y-66.5
X130.5Y-136.0
T0
M30
