%FSLAX45Y45*%
G04 Gerber Fmt 4.5, Leading zero omitted, Abs format (unit mm)*
G04 Created by KiCad (PCBNEW (6.0.0)) date 2022-07-07 20:20:38*
%MOMM*%
%LPD*%
G01*
G04 APERTURE LIST*
%TA.AperFunction,Profile*%
%ADD10C,0.050000*%
%TD*%
%ADD11C,0.200000*%
%ADD12C,0.300000*%
%ADD13C,0.620000*%
%ADD14C,0.680000*%
G04 APERTURE END LIST*
D10*
X4000000Y-4350000D02*
X16000000Y-4350000D01*
X16000000Y-17150000D02*
X4000000Y-17150000D01*
X16000000Y-4350000D02*
X16000000Y-17150000D01*
X4000000Y-4350000D02*
X4000000Y-17150000D01*
D11*
D12*
X5050000Y-16700000D02*
X5350000Y-17000000D01*
X5350000Y-16700000D02*
X5050000Y-17000000D01*
D11*
X5075000Y-16990000D02*
X5325000Y-16990000D01*
X5075000Y-16710000D02*
X5325000Y-16710000D01*
X5325000Y-16990000D02*
G75*
G03*
X5325000Y-16710000I0J140000D01*
G01*
X5075000Y-16710000D02*
G75*
G03*
X5075000Y-16990000I0J-140000D01*
G01*
D12*
X6450000Y-4500000D02*
X6750000Y-4800000D01*
X6750000Y-4500000D02*
X6450000Y-4800000D01*
D11*
X6475000Y-4790000D02*
X6725000Y-4790000D01*
X6475000Y-4510000D02*
X6725000Y-4510000D01*
X6725000Y-4790000D02*
G75*
G03*
X6725000Y-4510000I0J140000D01*
G01*
X6475000Y-4510000D02*
G75*
G03*
X6475000Y-4790000I0J-140000D01*
G01*
D12*
X13250000Y-4500000D02*
X13550000Y-4800000D01*
X13550000Y-4500000D02*
X13250000Y-4800000D01*
D11*
X13275000Y-4790000D02*
X13525000Y-4790000D01*
X13275000Y-4510000D02*
X13525000Y-4510000D01*
X13525000Y-4790000D02*
G75*
G03*
X13525000Y-4510000I0J140000D01*
G01*
X13275000Y-4510000D02*
G75*
G03*
X13275000Y-4790000I0J-140000D01*
G01*
D12*
X14650000Y-16700000D02*
X14950000Y-17000000D01*
X14950000Y-16700000D02*
X14650000Y-17000000D01*
D11*
X14675000Y-16990000D02*
X14925000Y-16990000D01*
X14675000Y-16710000D02*
X14925000Y-16710000D01*
X14925000Y-16990000D02*
G75*
G03*
X14925000Y-16710000I0J140000D01*
G01*
X14675000Y-16710000D02*
G75*
G03*
X14675000Y-16990000I0J-140000D01*
G01*
D13*
X5809159Y-10098890D02*
G75*
G03*
X5809159Y-10098890I-310000J0D01*
G01*
X5820000Y-14795000D02*
G75*
G03*
X5820000Y-14795000I-310000J0D01*
G01*
X8808923Y-10099293D02*
G75*
G03*
X8808923Y-10099293I-310000J0D01*
G01*
X8810000Y-14799159D02*
G75*
G03*
X8810000Y-14799159I-310000J0D01*
G01*
X11809764Y-14799764D02*
G75*
G03*
X11809764Y-14799764I-310000J0D01*
G01*
X11810000Y-10100000D02*
G75*
G03*
X11810000Y-10100000I-310000J0D01*
G01*
X14809259Y-14799159D02*
G75*
G03*
X14809259Y-14799159I-310000J0D01*
G01*
X14810000Y-10100000D02*
G75*
G03*
X14810000Y-10100000I-310000J0D01*
G01*
D14*
X5497846Y-7657241D02*
X5497846Y-8337241D01*
X5157846Y-7997241D02*
X5837846Y-7997241D01*
X5498452Y-5609831D02*
X5498452Y-6289831D01*
X5158452Y-5949831D02*
X5838452Y-5949831D01*
X5500000Y-12560000D02*
X5500000Y-13240000D01*
X5160000Y-12900000D02*
X5840000Y-12900000D01*
X8499463Y-7659899D02*
X8499463Y-8339899D01*
X8159463Y-7999899D02*
X8839463Y-7999899D01*
X8499507Y-12559630D02*
X8499507Y-13239630D01*
X8159507Y-12899630D02*
X8839507Y-12899630D01*
X8499933Y-5609092D02*
X8499933Y-6289092D01*
X8159933Y-5949092D02*
X8839933Y-5949092D01*
X11499024Y-12559664D02*
X11499024Y-13239664D01*
X11159024Y-12899664D02*
X11839024Y-12899664D01*
X11499261Y-5609865D02*
X11499261Y-6289865D01*
X11159261Y-5949865D02*
X11839261Y-5949865D01*
X11499798Y-7659630D02*
X11499798Y-8339630D01*
X11159798Y-7999630D02*
X11839798Y-7999630D01*
X14498517Y-12559899D02*
X14498517Y-13239899D01*
X14158517Y-12899899D02*
X14838517Y-12899899D01*
X14498654Y-5609798D02*
X14498654Y-6289798D01*
X14158654Y-5949798D02*
X14838654Y-5949798D01*
X14499877Y-7659753D02*
X14499877Y-8339753D01*
X14159877Y-7999753D02*
X14839877Y-7999753D01*
D11*
X4255119Y-17462976D02*
X4255119Y-17262976D01*
X4302738Y-17262976D01*
X4331310Y-17272500D01*
X4350357Y-17291548D01*
X4359881Y-17310595D01*
X4369405Y-17348690D01*
X4369405Y-17377262D01*
X4359881Y-17415357D01*
X4350357Y-17434405D01*
X4331310Y-17453452D01*
X4302738Y-17462976D01*
X4255119Y-17462976D01*
X4455119Y-17462976D02*
X4455119Y-17329643D01*
X4455119Y-17367738D02*
X4464643Y-17348690D01*
X4474167Y-17339167D01*
X4493214Y-17329643D01*
X4512262Y-17329643D01*
X4578929Y-17462976D02*
X4578929Y-17329643D01*
X4578929Y-17262976D02*
X4569405Y-17272500D01*
X4578929Y-17282024D01*
X4588452Y-17272500D01*
X4578929Y-17262976D01*
X4578929Y-17282024D01*
X4702738Y-17462976D02*
X4683690Y-17453452D01*
X4674167Y-17434405D01*
X4674167Y-17262976D01*
X4807500Y-17462976D02*
X4788452Y-17453452D01*
X4778929Y-17434405D01*
X4778929Y-17262976D01*
X5036071Y-17462976D02*
X5036071Y-17262976D01*
X5102738Y-17405833D01*
X5169405Y-17262976D01*
X5169405Y-17462976D01*
X5350357Y-17462976D02*
X5350357Y-17358214D01*
X5340833Y-17339167D01*
X5321786Y-17329643D01*
X5283690Y-17329643D01*
X5264643Y-17339167D01*
X5350357Y-17453452D02*
X5331310Y-17462976D01*
X5283690Y-17462976D01*
X5264643Y-17453452D01*
X5255119Y-17434405D01*
X5255119Y-17415357D01*
X5264643Y-17396310D01*
X5283690Y-17386786D01*
X5331310Y-17386786D01*
X5350357Y-17377262D01*
X5445595Y-17329643D02*
X5445595Y-17529643D01*
X5445595Y-17339167D02*
X5464643Y-17329643D01*
X5502738Y-17329643D01*
X5521786Y-17339167D01*
X5531310Y-17348690D01*
X5540833Y-17367738D01*
X5540833Y-17424881D01*
X5531310Y-17443929D01*
X5521786Y-17453452D01*
X5502738Y-17462976D01*
X5464643Y-17462976D01*
X5445595Y-17453452D01*
X5626548Y-17443929D02*
X5636071Y-17453452D01*
X5626548Y-17462976D01*
X5617024Y-17453452D01*
X5626548Y-17443929D01*
X5626548Y-17462976D01*
X5626548Y-17339167D02*
X5636071Y-17348690D01*
X5626548Y-17358214D01*
X5617024Y-17348690D01*
X5626548Y-17339167D01*
X5626548Y-17358214D01*
X3797500Y-17692500D02*
X3997500Y-17892500D01*
X3997500Y-17692500D02*
X3797500Y-17892500D01*
X4236071Y-17682976D02*
X4359881Y-17682976D01*
X4293214Y-17759167D01*
X4321786Y-17759167D01*
X4340833Y-17768690D01*
X4350357Y-17778214D01*
X4359881Y-17797262D01*
X4359881Y-17844881D01*
X4350357Y-17863929D01*
X4340833Y-17873452D01*
X4321786Y-17882976D01*
X4264643Y-17882976D01*
X4245595Y-17873452D01*
X4236071Y-17863929D01*
X4445595Y-17863929D02*
X4455119Y-17873452D01*
X4445595Y-17882976D01*
X4436071Y-17873452D01*
X4445595Y-17863929D01*
X4445595Y-17882976D01*
X4578929Y-17682976D02*
X4597976Y-17682976D01*
X4617024Y-17692500D01*
X4626548Y-17702024D01*
X4636071Y-17721071D01*
X4645595Y-17759167D01*
X4645595Y-17806786D01*
X4636071Y-17844881D01*
X4626548Y-17863929D01*
X4617024Y-17873452D01*
X4597976Y-17882976D01*
X4578929Y-17882976D01*
X4559881Y-17873452D01*
X4550357Y-17863929D01*
X4540833Y-17844881D01*
X4531310Y-17806786D01*
X4531310Y-17759167D01*
X4540833Y-17721071D01*
X4550357Y-17702024D01*
X4559881Y-17692500D01*
X4578929Y-17682976D01*
X4769405Y-17682976D02*
X4788452Y-17682976D01*
X4807500Y-17692500D01*
X4817024Y-17702024D01*
X4826548Y-17721071D01*
X4836071Y-17759167D01*
X4836071Y-17806786D01*
X4826548Y-17844881D01*
X4817024Y-17863929D01*
X4807500Y-17873452D01*
X4788452Y-17882976D01*
X4769405Y-17882976D01*
X4750357Y-17873452D01*
X4740833Y-17863929D01*
X4731310Y-17844881D01*
X4721786Y-17806786D01*
X4721786Y-17759167D01*
X4731310Y-17721071D01*
X4740833Y-17702024D01*
X4750357Y-17692500D01*
X4769405Y-17682976D01*
X4959881Y-17682976D02*
X4978929Y-17682976D01*
X4997976Y-17692500D01*
X5007500Y-17702024D01*
X5017024Y-17721071D01*
X5026548Y-17759167D01*
X5026548Y-17806786D01*
X5017024Y-17844881D01*
X5007500Y-17863929D01*
X4997976Y-17873452D01*
X4978929Y-17882976D01*
X4959881Y-17882976D01*
X4940833Y-17873452D01*
X4931310Y-17863929D01*
X4921786Y-17844881D01*
X4912262Y-17806786D01*
X4912262Y-17759167D01*
X4921786Y-17721071D01*
X4931310Y-17702024D01*
X4940833Y-17692500D01*
X4959881Y-17682976D01*
X5112262Y-17882976D02*
X5112262Y-17749643D01*
X5112262Y-17768690D02*
X5121786Y-17759167D01*
X5140833Y-17749643D01*
X5169405Y-17749643D01*
X5188452Y-17759167D01*
X5197976Y-17778214D01*
X5197976Y-17882976D01*
X5197976Y-17778214D02*
X5207500Y-17759167D01*
X5226548Y-17749643D01*
X5255119Y-17749643D01*
X5274167Y-17759167D01*
X5283690Y-17778214D01*
X5283690Y-17882976D01*
X5378929Y-17882976D02*
X5378929Y-17749643D01*
X5378929Y-17768690D02*
X5388452Y-17759167D01*
X5407500Y-17749643D01*
X5436071Y-17749643D01*
X5455119Y-17759167D01*
X5464643Y-17778214D01*
X5464643Y-17882976D01*
X5464643Y-17778214D02*
X5474167Y-17759167D01*
X5493214Y-17749643D01*
X5521786Y-17749643D01*
X5540833Y-17759167D01*
X5550357Y-17778214D01*
X5550357Y-17882976D01*
X5940833Y-17673452D02*
X5769405Y-17930595D01*
X6197976Y-17682976D02*
X6217024Y-17682976D01*
X6236071Y-17692500D01*
X6245595Y-17702024D01*
X6255119Y-17721071D01*
X6264643Y-17759167D01*
X6264643Y-17806786D01*
X6255119Y-17844881D01*
X6245595Y-17863929D01*
X6236071Y-17873452D01*
X6217024Y-17882976D01*
X6197976Y-17882976D01*
X6178928Y-17873452D01*
X6169405Y-17863929D01*
X6159881Y-17844881D01*
X6150357Y-17806786D01*
X6150357Y-17759167D01*
X6159881Y-17721071D01*
X6169405Y-17702024D01*
X6178928Y-17692500D01*
X6197976Y-17682976D01*
X6350357Y-17863929D02*
X6359881Y-17873452D01*
X6350357Y-17882976D01*
X6340833Y-17873452D01*
X6350357Y-17863929D01*
X6350357Y-17882976D01*
X6550357Y-17882976D02*
X6436071Y-17882976D01*
X6493214Y-17882976D02*
X6493214Y-17682976D01*
X6474167Y-17711548D01*
X6455119Y-17730595D01*
X6436071Y-17740119D01*
X6740833Y-17882976D02*
X6626548Y-17882976D01*
X6683690Y-17882976D02*
X6683690Y-17682976D01*
X6664643Y-17711548D01*
X6645595Y-17730595D01*
X6626548Y-17740119D01*
X6855119Y-17768690D02*
X6836071Y-17759167D01*
X6826548Y-17749643D01*
X6817024Y-17730595D01*
X6817024Y-17721071D01*
X6826548Y-17702024D01*
X6836071Y-17692500D01*
X6855119Y-17682976D01*
X6893214Y-17682976D01*
X6912262Y-17692500D01*
X6921786Y-17702024D01*
X6931309Y-17721071D01*
X6931309Y-17730595D01*
X6921786Y-17749643D01*
X6912262Y-17759167D01*
X6893214Y-17768690D01*
X6855119Y-17768690D01*
X6836071Y-17778214D01*
X6826548Y-17787738D01*
X6817024Y-17806786D01*
X6817024Y-17844881D01*
X6826548Y-17863929D01*
X6836071Y-17873452D01*
X6855119Y-17882976D01*
X6893214Y-17882976D01*
X6912262Y-17873452D01*
X6921786Y-17863929D01*
X6931309Y-17844881D01*
X6931309Y-17806786D01*
X6921786Y-17787738D01*
X6912262Y-17778214D01*
X6893214Y-17768690D01*
X7121786Y-17882976D02*
X7007500Y-17882976D01*
X7064643Y-17882976D02*
X7064643Y-17682976D01*
X7045595Y-17711548D01*
X7026548Y-17730595D01*
X7007500Y-17740119D01*
X7197976Y-17682976D02*
X7197976Y-17721071D01*
X7274167Y-17682976D02*
X7274167Y-17721071D01*
X7569405Y-17959167D02*
X7559881Y-17949643D01*
X7540833Y-17921071D01*
X7531309Y-17902024D01*
X7521786Y-17873452D01*
X7512262Y-17825833D01*
X7512262Y-17787738D01*
X7521786Y-17740119D01*
X7531309Y-17711548D01*
X7540833Y-17692500D01*
X7559881Y-17663929D01*
X7569405Y-17654405D01*
X7683690Y-17682976D02*
X7702738Y-17682976D01*
X7721786Y-17692500D01*
X7731309Y-17702024D01*
X7740833Y-17721071D01*
X7750357Y-17759167D01*
X7750357Y-17806786D01*
X7740833Y-17844881D01*
X7731309Y-17863929D01*
X7721786Y-17873452D01*
X7702738Y-17882976D01*
X7683690Y-17882976D01*
X7664643Y-17873452D01*
X7655119Y-17863929D01*
X7645595Y-17844881D01*
X7636071Y-17806786D01*
X7636071Y-17759167D01*
X7645595Y-17721071D01*
X7655119Y-17702024D01*
X7664643Y-17692500D01*
X7683690Y-17682976D01*
X7988452Y-17882976D02*
X7988452Y-17682976D01*
X8074167Y-17882976D02*
X8074167Y-17778214D01*
X8064643Y-17759167D01*
X8045595Y-17749643D01*
X8017024Y-17749643D01*
X7997976Y-17759167D01*
X7988452Y-17768690D01*
X8197976Y-17882976D02*
X8178928Y-17873452D01*
X8169405Y-17863929D01*
X8159881Y-17844881D01*
X8159881Y-17787738D01*
X8169405Y-17768690D01*
X8178928Y-17759167D01*
X8197976Y-17749643D01*
X8226548Y-17749643D01*
X8245595Y-17759167D01*
X8255119Y-17768690D01*
X8264643Y-17787738D01*
X8264643Y-17844881D01*
X8255119Y-17863929D01*
X8245595Y-17873452D01*
X8226548Y-17882976D01*
X8197976Y-17882976D01*
X8378928Y-17882976D02*
X8359881Y-17873452D01*
X8350357Y-17854405D01*
X8350357Y-17682976D01*
X8531310Y-17873452D02*
X8512262Y-17882976D01*
X8474167Y-17882976D01*
X8455119Y-17873452D01*
X8445595Y-17854405D01*
X8445595Y-17778214D01*
X8455119Y-17759167D01*
X8474167Y-17749643D01*
X8512262Y-17749643D01*
X8531310Y-17759167D01*
X8540833Y-17778214D01*
X8540833Y-17797262D01*
X8445595Y-17816310D01*
X8617024Y-17873452D02*
X8636071Y-17882976D01*
X8674167Y-17882976D01*
X8693214Y-17873452D01*
X8702738Y-17854405D01*
X8702738Y-17844881D01*
X8693214Y-17825833D01*
X8674167Y-17816310D01*
X8645595Y-17816310D01*
X8626548Y-17806786D01*
X8617024Y-17787738D01*
X8617024Y-17778214D01*
X8626548Y-17759167D01*
X8645595Y-17749643D01*
X8674167Y-17749643D01*
X8693214Y-17759167D01*
X8940833Y-17806786D02*
X9093214Y-17806786D01*
X9017024Y-17882976D02*
X9017024Y-17730595D01*
X9426548Y-17749643D02*
X9426548Y-17882976D01*
X9378929Y-17673452D02*
X9331310Y-17816310D01*
X9455119Y-17816310D01*
X9674167Y-17873452D02*
X9693214Y-17882976D01*
X9731310Y-17882976D01*
X9750357Y-17873452D01*
X9759881Y-17854405D01*
X9759881Y-17844881D01*
X9750357Y-17825833D01*
X9731310Y-17816310D01*
X9702738Y-17816310D01*
X9683690Y-17806786D01*
X9674167Y-17787738D01*
X9674167Y-17778214D01*
X9683690Y-17759167D01*
X9702738Y-17749643D01*
X9731310Y-17749643D01*
X9750357Y-17759167D01*
X9874167Y-17882976D02*
X9855119Y-17873452D01*
X9845595Y-17854405D01*
X9845595Y-17682976D01*
X9978929Y-17882976D02*
X9959881Y-17873452D01*
X9950357Y-17863929D01*
X9940833Y-17844881D01*
X9940833Y-17787738D01*
X9950357Y-17768690D01*
X9959881Y-17759167D01*
X9978929Y-17749643D01*
X10007500Y-17749643D01*
X10026548Y-17759167D01*
X10036071Y-17768690D01*
X10045595Y-17787738D01*
X10045595Y-17844881D01*
X10036071Y-17863929D01*
X10026548Y-17873452D01*
X10007500Y-17882976D01*
X9978929Y-17882976D01*
X10102738Y-17749643D02*
X10178929Y-17749643D01*
X10131310Y-17682976D02*
X10131310Y-17854405D01*
X10140833Y-17873452D01*
X10159881Y-17882976D01*
X10178929Y-17882976D01*
X10236071Y-17873452D02*
X10255119Y-17882976D01*
X10293214Y-17882976D01*
X10312262Y-17873452D01*
X10321786Y-17854405D01*
X10321786Y-17844881D01*
X10312262Y-17825833D01*
X10293214Y-17816310D01*
X10264643Y-17816310D01*
X10245595Y-17806786D01*
X10236071Y-17787738D01*
X10236071Y-17778214D01*
X10245595Y-17759167D01*
X10264643Y-17749643D01*
X10293214Y-17749643D01*
X10312262Y-17759167D01*
X10388452Y-17959167D02*
X10397976Y-17949643D01*
X10417024Y-17921071D01*
X10426548Y-17902024D01*
X10436071Y-17873452D01*
X10445595Y-17825833D01*
X10445595Y-17787738D01*
X10436071Y-17740119D01*
X10426548Y-17711548D01*
X10417024Y-17692500D01*
X10397976Y-17663929D01*
X10388452Y-17654405D01*
X3997500Y-18112500D02*
G75*
G03*
X3997500Y-18112500I-100000J0D01*
G01*
X4340833Y-18002976D02*
X4302738Y-18002976D01*
X4283690Y-18012500D01*
X4274167Y-18022024D01*
X4255119Y-18050595D01*
X4245595Y-18088690D01*
X4245595Y-18164881D01*
X4255119Y-18183929D01*
X4264643Y-18193452D01*
X4283690Y-18202976D01*
X4321786Y-18202976D01*
X4340833Y-18193452D01*
X4350357Y-18183929D01*
X4359881Y-18164881D01*
X4359881Y-18117262D01*
X4350357Y-18098214D01*
X4340833Y-18088690D01*
X4321786Y-18079167D01*
X4283690Y-18079167D01*
X4264643Y-18088690D01*
X4255119Y-18098214D01*
X4245595Y-18117262D01*
X4445595Y-18183929D02*
X4455119Y-18193452D01*
X4445595Y-18202976D01*
X4436071Y-18193452D01*
X4445595Y-18183929D01*
X4445595Y-18202976D01*
X4531310Y-18022024D02*
X4540833Y-18012500D01*
X4559881Y-18002976D01*
X4607500Y-18002976D01*
X4626548Y-18012500D01*
X4636071Y-18022024D01*
X4645595Y-18041071D01*
X4645595Y-18060119D01*
X4636071Y-18088690D01*
X4521786Y-18202976D01*
X4645595Y-18202976D01*
X4769405Y-18002976D02*
X4788452Y-18002976D01*
X4807500Y-18012500D01*
X4817024Y-18022024D01*
X4826548Y-18041071D01*
X4836071Y-18079167D01*
X4836071Y-18126786D01*
X4826548Y-18164881D01*
X4817024Y-18183929D01*
X4807500Y-18193452D01*
X4788452Y-18202976D01*
X4769405Y-18202976D01*
X4750357Y-18193452D01*
X4740833Y-18183929D01*
X4731310Y-18164881D01*
X4721786Y-18126786D01*
X4721786Y-18079167D01*
X4731310Y-18041071D01*
X4740833Y-18022024D01*
X4750357Y-18012500D01*
X4769405Y-18002976D01*
X4959881Y-18002976D02*
X4978929Y-18002976D01*
X4997976Y-18012500D01*
X5007500Y-18022024D01*
X5017024Y-18041071D01*
X5026548Y-18079167D01*
X5026548Y-18126786D01*
X5017024Y-18164881D01*
X5007500Y-18183929D01*
X4997976Y-18193452D01*
X4978929Y-18202976D01*
X4959881Y-18202976D01*
X4940833Y-18193452D01*
X4931310Y-18183929D01*
X4921786Y-18164881D01*
X4912262Y-18126786D01*
X4912262Y-18079167D01*
X4921786Y-18041071D01*
X4931310Y-18022024D01*
X4940833Y-18012500D01*
X4959881Y-18002976D01*
X5112262Y-18202976D02*
X5112262Y-18069643D01*
X5112262Y-18088690D02*
X5121786Y-18079167D01*
X5140833Y-18069643D01*
X5169405Y-18069643D01*
X5188452Y-18079167D01*
X5197976Y-18098214D01*
X5197976Y-18202976D01*
X5197976Y-18098214D02*
X5207500Y-18079167D01*
X5226548Y-18069643D01*
X5255119Y-18069643D01*
X5274167Y-18079167D01*
X5283690Y-18098214D01*
X5283690Y-18202976D01*
X5378929Y-18202976D02*
X5378929Y-18069643D01*
X5378929Y-18088690D02*
X5388452Y-18079167D01*
X5407500Y-18069643D01*
X5436071Y-18069643D01*
X5455119Y-18079167D01*
X5464643Y-18098214D01*
X5464643Y-18202976D01*
X5464643Y-18098214D02*
X5474167Y-18079167D01*
X5493214Y-18069643D01*
X5521786Y-18069643D01*
X5540833Y-18079167D01*
X5550357Y-18098214D01*
X5550357Y-18202976D01*
X5940833Y-17993452D02*
X5769405Y-18250595D01*
X6197976Y-18002976D02*
X6217024Y-18002976D01*
X6236071Y-18012500D01*
X6245595Y-18022024D01*
X6255119Y-18041071D01*
X6264643Y-18079167D01*
X6264643Y-18126786D01*
X6255119Y-18164881D01*
X6245595Y-18183929D01*
X6236071Y-18193452D01*
X6217024Y-18202976D01*
X6197976Y-18202976D01*
X6178928Y-18193452D01*
X6169405Y-18183929D01*
X6159881Y-18164881D01*
X6150357Y-18126786D01*
X6150357Y-18079167D01*
X6159881Y-18041071D01*
X6169405Y-18022024D01*
X6178928Y-18012500D01*
X6197976Y-18002976D01*
X6350357Y-18183929D02*
X6359881Y-18193452D01*
X6350357Y-18202976D01*
X6340833Y-18193452D01*
X6350357Y-18183929D01*
X6350357Y-18202976D01*
X6436071Y-18022024D02*
X6445595Y-18012500D01*
X6464643Y-18002976D01*
X6512262Y-18002976D01*
X6531309Y-18012500D01*
X6540833Y-18022024D01*
X6550357Y-18041071D01*
X6550357Y-18060119D01*
X6540833Y-18088690D01*
X6426548Y-18202976D01*
X6550357Y-18202976D01*
X6721786Y-18069643D02*
X6721786Y-18202976D01*
X6674167Y-17993452D02*
X6626548Y-18136310D01*
X6750357Y-18136310D01*
X6912262Y-18069643D02*
X6912262Y-18202976D01*
X6864643Y-17993452D02*
X6817024Y-18136310D01*
X6940833Y-18136310D01*
X7121786Y-18202976D02*
X7007500Y-18202976D01*
X7064643Y-18202976D02*
X7064643Y-18002976D01*
X7045595Y-18031548D01*
X7026548Y-18050595D01*
X7007500Y-18060119D01*
X7197976Y-18002976D02*
X7197976Y-18041071D01*
X7274167Y-18002976D02*
X7274167Y-18041071D01*
X7569405Y-18279167D02*
X7559881Y-18269643D01*
X7540833Y-18241071D01*
X7531309Y-18222024D01*
X7521786Y-18193452D01*
X7512262Y-18145833D01*
X7512262Y-18107738D01*
X7521786Y-18060119D01*
X7531309Y-18031548D01*
X7540833Y-18012500D01*
X7559881Y-17983929D01*
X7569405Y-17974405D01*
X7674167Y-18088690D02*
X7655119Y-18079167D01*
X7645595Y-18069643D01*
X7636071Y-18050595D01*
X7636071Y-18041071D01*
X7645595Y-18022024D01*
X7655119Y-18012500D01*
X7674167Y-18002976D01*
X7712262Y-18002976D01*
X7731309Y-18012500D01*
X7740833Y-18022024D01*
X7750357Y-18041071D01*
X7750357Y-18050595D01*
X7740833Y-18069643D01*
X7731309Y-18079167D01*
X7712262Y-18088690D01*
X7674167Y-18088690D01*
X7655119Y-18098214D01*
X7645595Y-18107738D01*
X7636071Y-18126786D01*
X7636071Y-18164881D01*
X7645595Y-18183929D01*
X7655119Y-18193452D01*
X7674167Y-18202976D01*
X7712262Y-18202976D01*
X7731309Y-18193452D01*
X7740833Y-18183929D01*
X7750357Y-18164881D01*
X7750357Y-18126786D01*
X7740833Y-18107738D01*
X7731309Y-18098214D01*
X7712262Y-18088690D01*
X7988452Y-18202976D02*
X7988452Y-18002976D01*
X8074167Y-18202976D02*
X8074167Y-18098214D01*
X8064643Y-18079167D01*
X8045595Y-18069643D01*
X8017024Y-18069643D01*
X7997976Y-18079167D01*
X7988452Y-18088690D01*
X8197976Y-18202976D02*
X8178928Y-18193452D01*
X8169405Y-18183929D01*
X8159881Y-18164881D01*
X8159881Y-18107738D01*
X8169405Y-18088690D01*
X8178928Y-18079167D01*
X8197976Y-18069643D01*
X8226548Y-18069643D01*
X8245595Y-18079167D01*
X8255119Y-18088690D01*
X8264643Y-18107738D01*
X8264643Y-18164881D01*
X8255119Y-18183929D01*
X8245595Y-18193452D01*
X8226548Y-18202976D01*
X8197976Y-18202976D01*
X8378928Y-18202976D02*
X8359881Y-18193452D01*
X8350357Y-18174405D01*
X8350357Y-18002976D01*
X8531310Y-18193452D02*
X8512262Y-18202976D01*
X8474167Y-18202976D01*
X8455119Y-18193452D01*
X8445595Y-18174405D01*
X8445595Y-18098214D01*
X8455119Y-18079167D01*
X8474167Y-18069643D01*
X8512262Y-18069643D01*
X8531310Y-18079167D01*
X8540833Y-18098214D01*
X8540833Y-18117262D01*
X8445595Y-18136310D01*
X8617024Y-18193452D02*
X8636071Y-18202976D01*
X8674167Y-18202976D01*
X8693214Y-18193452D01*
X8702738Y-18174405D01*
X8702738Y-18164881D01*
X8693214Y-18145833D01*
X8674167Y-18136310D01*
X8645595Y-18136310D01*
X8626548Y-18126786D01*
X8617024Y-18107738D01*
X8617024Y-18098214D01*
X8626548Y-18079167D01*
X8645595Y-18069643D01*
X8674167Y-18069643D01*
X8693214Y-18079167D01*
X8769405Y-18279167D02*
X8778929Y-18269643D01*
X8797976Y-18241071D01*
X8807500Y-18222024D01*
X8817024Y-18193452D01*
X8826548Y-18145833D01*
X8826548Y-18107738D01*
X8817024Y-18060119D01*
X8807500Y-18031548D01*
X8797976Y-18012500D01*
X8778929Y-17983929D01*
X8769405Y-17974405D01*
X3897500Y-18332500D02*
X3897500Y-18532500D01*
X3797500Y-18432500D02*
X3997500Y-18432500D01*
X4340833Y-18322976D02*
X4302738Y-18322976D01*
X4283690Y-18332500D01*
X4274167Y-18342024D01*
X4255119Y-18370595D01*
X4245595Y-18408690D01*
X4245595Y-18484881D01*
X4255119Y-18503929D01*
X4264643Y-18513452D01*
X4283690Y-18522976D01*
X4321786Y-18522976D01*
X4340833Y-18513452D01*
X4350357Y-18503929D01*
X4359881Y-18484881D01*
X4359881Y-18437262D01*
X4350357Y-18418214D01*
X4340833Y-18408690D01*
X4321786Y-18399167D01*
X4283690Y-18399167D01*
X4264643Y-18408690D01*
X4255119Y-18418214D01*
X4245595Y-18437262D01*
X4445595Y-18503929D02*
X4455119Y-18513452D01*
X4445595Y-18522976D01*
X4436071Y-18513452D01*
X4445595Y-18503929D01*
X4445595Y-18522976D01*
X4569405Y-18408690D02*
X4550357Y-18399167D01*
X4540833Y-18389643D01*
X4531310Y-18370595D01*
X4531310Y-18361071D01*
X4540833Y-18342024D01*
X4550357Y-18332500D01*
X4569405Y-18322976D01*
X4607500Y-18322976D01*
X4626548Y-18332500D01*
X4636071Y-18342024D01*
X4645595Y-18361071D01*
X4645595Y-18370595D01*
X4636071Y-18389643D01*
X4626548Y-18399167D01*
X4607500Y-18408690D01*
X4569405Y-18408690D01*
X4550357Y-18418214D01*
X4540833Y-18427738D01*
X4531310Y-18446786D01*
X4531310Y-18484881D01*
X4540833Y-18503929D01*
X4550357Y-18513452D01*
X4569405Y-18522976D01*
X4607500Y-18522976D01*
X4626548Y-18513452D01*
X4636071Y-18503929D01*
X4645595Y-18484881D01*
X4645595Y-18446786D01*
X4636071Y-18427738D01*
X4626548Y-18418214D01*
X4607500Y-18408690D01*
X4769405Y-18322976D02*
X4788452Y-18322976D01*
X4807500Y-18332500D01*
X4817024Y-18342024D01*
X4826548Y-18361071D01*
X4836071Y-18399167D01*
X4836071Y-18446786D01*
X4826548Y-18484881D01*
X4817024Y-18503929D01*
X4807500Y-18513452D01*
X4788452Y-18522976D01*
X4769405Y-18522976D01*
X4750357Y-18513452D01*
X4740833Y-18503929D01*
X4731310Y-18484881D01*
X4721786Y-18446786D01*
X4721786Y-18399167D01*
X4731310Y-18361071D01*
X4740833Y-18342024D01*
X4750357Y-18332500D01*
X4769405Y-18322976D01*
X4959881Y-18322976D02*
X4978929Y-18322976D01*
X4997976Y-18332500D01*
X5007500Y-18342024D01*
X5017024Y-18361071D01*
X5026548Y-18399167D01*
X5026548Y-18446786D01*
X5017024Y-18484881D01*
X5007500Y-18503929D01*
X4997976Y-18513452D01*
X4978929Y-18522976D01*
X4959881Y-18522976D01*
X4940833Y-18513452D01*
X4931310Y-18503929D01*
X4921786Y-18484881D01*
X4912262Y-18446786D01*
X4912262Y-18399167D01*
X4921786Y-18361071D01*
X4931310Y-18342024D01*
X4940833Y-18332500D01*
X4959881Y-18322976D01*
X5112262Y-18522976D02*
X5112262Y-18389643D01*
X5112262Y-18408690D02*
X5121786Y-18399167D01*
X5140833Y-18389643D01*
X5169405Y-18389643D01*
X5188452Y-18399167D01*
X5197976Y-18418214D01*
X5197976Y-18522976D01*
X5197976Y-18418214D02*
X5207500Y-18399167D01*
X5226548Y-18389643D01*
X5255119Y-18389643D01*
X5274167Y-18399167D01*
X5283690Y-18418214D01*
X5283690Y-18522976D01*
X5378929Y-18522976D02*
X5378929Y-18389643D01*
X5378929Y-18408690D02*
X5388452Y-18399167D01*
X5407500Y-18389643D01*
X5436071Y-18389643D01*
X5455119Y-18399167D01*
X5464643Y-18418214D01*
X5464643Y-18522976D01*
X5464643Y-18418214D02*
X5474167Y-18399167D01*
X5493214Y-18389643D01*
X5521786Y-18389643D01*
X5540833Y-18399167D01*
X5550357Y-18418214D01*
X5550357Y-18522976D01*
X5940833Y-18313452D02*
X5769405Y-18570595D01*
X6197976Y-18322976D02*
X6217024Y-18322976D01*
X6236071Y-18332500D01*
X6245595Y-18342024D01*
X6255119Y-18361071D01*
X6264643Y-18399167D01*
X6264643Y-18446786D01*
X6255119Y-18484881D01*
X6245595Y-18503929D01*
X6236071Y-18513452D01*
X6217024Y-18522976D01*
X6197976Y-18522976D01*
X6178928Y-18513452D01*
X6169405Y-18503929D01*
X6159881Y-18484881D01*
X6150357Y-18446786D01*
X6150357Y-18399167D01*
X6159881Y-18361071D01*
X6169405Y-18342024D01*
X6178928Y-18332500D01*
X6197976Y-18322976D01*
X6350357Y-18503929D02*
X6359881Y-18513452D01*
X6350357Y-18522976D01*
X6340833Y-18513452D01*
X6350357Y-18503929D01*
X6350357Y-18522976D01*
X6436071Y-18342024D02*
X6445595Y-18332500D01*
X6464643Y-18322976D01*
X6512262Y-18322976D01*
X6531309Y-18332500D01*
X6540833Y-18342024D01*
X6550357Y-18361071D01*
X6550357Y-18380119D01*
X6540833Y-18408690D01*
X6426548Y-18522976D01*
X6550357Y-18522976D01*
X6721786Y-18322976D02*
X6683690Y-18322976D01*
X6664643Y-18332500D01*
X6655119Y-18342024D01*
X6636071Y-18370595D01*
X6626548Y-18408690D01*
X6626548Y-18484881D01*
X6636071Y-18503929D01*
X6645595Y-18513452D01*
X6664643Y-18522976D01*
X6702738Y-18522976D01*
X6721786Y-18513452D01*
X6731309Y-18503929D01*
X6740833Y-18484881D01*
X6740833Y-18437262D01*
X6731309Y-18418214D01*
X6721786Y-18408690D01*
X6702738Y-18399167D01*
X6664643Y-18399167D01*
X6645595Y-18408690D01*
X6636071Y-18418214D01*
X6626548Y-18437262D01*
X6807500Y-18322976D02*
X6940833Y-18322976D01*
X6855119Y-18522976D01*
X6997976Y-18322976D02*
X7131309Y-18322976D01*
X7045595Y-18522976D01*
X7197976Y-18322976D02*
X7197976Y-18361071D01*
X7274167Y-18322976D02*
X7274167Y-18361071D01*
X7569405Y-18599167D02*
X7559881Y-18589643D01*
X7540833Y-18561071D01*
X7531309Y-18542024D01*
X7521786Y-18513452D01*
X7512262Y-18465833D01*
X7512262Y-18427738D01*
X7521786Y-18380119D01*
X7531309Y-18351548D01*
X7540833Y-18332500D01*
X7559881Y-18303929D01*
X7569405Y-18294405D01*
X7750357Y-18522976D02*
X7636071Y-18522976D01*
X7693214Y-18522976D02*
X7693214Y-18322976D01*
X7674167Y-18351548D01*
X7655119Y-18370595D01*
X7636071Y-18380119D01*
X7826548Y-18342024D02*
X7836071Y-18332500D01*
X7855119Y-18322976D01*
X7902738Y-18322976D01*
X7921786Y-18332500D01*
X7931309Y-18342024D01*
X7940833Y-18361071D01*
X7940833Y-18380119D01*
X7931309Y-18408690D01*
X7817024Y-18522976D01*
X7940833Y-18522976D01*
X8178928Y-18522976D02*
X8178928Y-18322976D01*
X8264643Y-18522976D02*
X8264643Y-18418214D01*
X8255119Y-18399167D01*
X8236071Y-18389643D01*
X8207500Y-18389643D01*
X8188452Y-18399167D01*
X8178928Y-18408690D01*
X8388452Y-18522976D02*
X8369405Y-18513452D01*
X8359881Y-18503929D01*
X8350357Y-18484881D01*
X8350357Y-18427738D01*
X8359881Y-18408690D01*
X8369405Y-18399167D01*
X8388452Y-18389643D01*
X8417024Y-18389643D01*
X8436071Y-18399167D01*
X8445595Y-18408690D01*
X8455119Y-18427738D01*
X8455119Y-18484881D01*
X8445595Y-18503929D01*
X8436071Y-18513452D01*
X8417024Y-18522976D01*
X8388452Y-18522976D01*
X8569405Y-18522976D02*
X8550357Y-18513452D01*
X8540833Y-18494405D01*
X8540833Y-18322976D01*
X8721786Y-18513452D02*
X8702738Y-18522976D01*
X8664643Y-18522976D01*
X8645595Y-18513452D01*
X8636071Y-18494405D01*
X8636071Y-18418214D01*
X8645595Y-18399167D01*
X8664643Y-18389643D01*
X8702738Y-18389643D01*
X8721786Y-18399167D01*
X8731310Y-18418214D01*
X8731310Y-18437262D01*
X8636071Y-18456310D01*
X8807500Y-18513452D02*
X8826548Y-18522976D01*
X8864643Y-18522976D01*
X8883690Y-18513452D01*
X8893214Y-18494405D01*
X8893214Y-18484881D01*
X8883690Y-18465833D01*
X8864643Y-18456310D01*
X8836071Y-18456310D01*
X8817024Y-18446786D01*
X8807500Y-18427738D01*
X8807500Y-18418214D01*
X8817024Y-18399167D01*
X8836071Y-18389643D01*
X8864643Y-18389643D01*
X8883690Y-18399167D01*
X8959881Y-18599167D02*
X8969405Y-18589643D01*
X8988452Y-18561071D01*
X8997976Y-18542024D01*
X9007500Y-18513452D01*
X9017024Y-18465833D01*
X9017024Y-18427738D01*
X9007500Y-18380119D01*
X8997976Y-18351548D01*
X8988452Y-18332500D01*
X8969405Y-18303929D01*
X8959881Y-18294405D01*
M02*
