G04 #@! TF.GenerationSoftware,KiCad,Pcbnew,(6.0.0)*
G04 #@! TF.CreationDate,2022-07-07T20:20:35+01:00*
G04 #@! TF.ProjectId,Drumbox,4472756d-626f-4782-9e6b-696361645f70,rev?*
G04 #@! TF.SameCoordinates,Original*
G04 #@! TF.FileFunction,Legend,Bot*
G04 #@! TF.FilePolarity,Positive*
%FSLAX46Y46*%
G04 Gerber Fmt 4.6, Leading zero omitted, Abs format (unit mm)*
G04 Created by KiCad (PCBNEW (6.0.0)) date 2022-07-07 20:20:35*
%MOMM*%
%LPD*%
G01*
G04 APERTURE LIST*
G04 #@! TA.AperFunction,Profile*
%ADD10C,0.050000*%
G04 #@! TD*
%ADD11C,0.150000*%
%ADD12C,0.100000*%
%ADD13O,6.700000X4.200000*%
G04 APERTURE END LIST*
D10*
X40000000Y-43500000D02*
X160000000Y-43500000D01*
X160000000Y-171500000D02*
X40000000Y-171500000D01*
X160000000Y-43500000D02*
X160000000Y-171500000D01*
X40000000Y-43500000D02*
X40000000Y-171500000D01*
D11*
X42147619Y-107619047D02*
X41433333Y-107619047D01*
X41290476Y-107666666D01*
X41195238Y-107761904D01*
X41147619Y-107904761D01*
X41147619Y-108000000D01*
X41147619Y-106666666D02*
X41147619Y-107142857D01*
X42147619Y-107142857D01*
X41242857Y-105761904D02*
X41195238Y-105809523D01*
X41147619Y-105952380D01*
X41147619Y-106047619D01*
X41195238Y-106190476D01*
X41290476Y-106285714D01*
X41385714Y-106333333D01*
X41576190Y-106380952D01*
X41719047Y-106380952D01*
X41909523Y-106333333D01*
X42004761Y-106285714D01*
X42100000Y-106190476D01*
X42147619Y-106047619D01*
X42147619Y-105952380D01*
X42100000Y-105809523D01*
X42052380Y-105761904D01*
X42147619Y-105047619D02*
X41433333Y-105047619D01*
X41290476Y-105095238D01*
X41195238Y-105190476D01*
X41147619Y-105333333D01*
X41147619Y-105428571D01*
X41147619Y-104095238D02*
X41147619Y-104571428D01*
X42147619Y-104571428D01*
X41242857Y-103190476D02*
X41195238Y-103238095D01*
X41147619Y-103380952D01*
X41147619Y-103476190D01*
X41195238Y-103619047D01*
X41290476Y-103714285D01*
X41385714Y-103761904D01*
X41576190Y-103809523D01*
X41719047Y-103809523D01*
X41909523Y-103761904D01*
X42004761Y-103714285D01*
X42100000Y-103619047D01*
X42147619Y-103476190D01*
X42147619Y-103380952D01*
X42100000Y-103238095D01*
X42052380Y-103190476D01*
X42147619Y-102476190D02*
X41433333Y-102476190D01*
X41290476Y-102523809D01*
X41195238Y-102619047D01*
X41147619Y-102761904D01*
X41147619Y-102857142D01*
X41147619Y-101523809D02*
X41147619Y-102000000D01*
X42147619Y-102000000D01*
X41242857Y-100619047D02*
X41195238Y-100666666D01*
X41147619Y-100809523D01*
X41147619Y-100904761D01*
X41195238Y-101047619D01*
X41290476Y-101142857D01*
X41385714Y-101190476D01*
X41576190Y-101238095D01*
X41719047Y-101238095D01*
X41909523Y-101190476D01*
X42004761Y-101142857D01*
X42100000Y-101047619D01*
X42147619Y-100904761D01*
X42147619Y-100809523D01*
X42100000Y-100666666D01*
X42052380Y-100619047D01*
X42147619Y-99904761D02*
X41433333Y-99904761D01*
X41290476Y-99952380D01*
X41195238Y-100047619D01*
X41147619Y-100190476D01*
X41147619Y-100285714D01*
X41147619Y-98952380D02*
X41147619Y-99428571D01*
X42147619Y-99428571D01*
X41242857Y-98047619D02*
X41195238Y-98095238D01*
X41147619Y-98238095D01*
X41147619Y-98333333D01*
X41195238Y-98476190D01*
X41290476Y-98571428D01*
X41385714Y-98619047D01*
X41576190Y-98666666D01*
X41719047Y-98666666D01*
X41909523Y-98619047D01*
X42004761Y-98571428D01*
X42100000Y-98476190D01*
X42147619Y-98333333D01*
X42147619Y-98238095D01*
X42100000Y-98095238D01*
X42052380Y-98047619D01*
%LPC*%
D12*
X117500000Y-115000000D02*
X112500000Y-115000000D01*
X112500000Y-115000000D02*
X112500000Y-110000000D01*
X112500000Y-110000000D02*
X117500000Y-110000000D01*
X117500000Y-110000000D02*
X117500000Y-115000000D01*
G36*
X117500000Y-115000000D02*
G01*
X112500000Y-115000000D01*
X112500000Y-110000000D01*
X117500000Y-110000000D01*
X117500000Y-115000000D01*
G37*
X117500000Y-115000000D02*
X112500000Y-115000000D01*
X112500000Y-110000000D01*
X117500000Y-110000000D01*
X117500000Y-115000000D01*
X87500000Y-115000000D02*
X82500000Y-115000000D01*
X82500000Y-115000000D02*
X82500000Y-110000000D01*
X82500000Y-110000000D02*
X87500000Y-110000000D01*
X87500000Y-110000000D02*
X87500000Y-115000000D01*
G36*
X87500000Y-115000000D02*
G01*
X82500000Y-115000000D01*
X82500000Y-110000000D01*
X87500000Y-110000000D01*
X87500000Y-115000000D01*
G37*
X87500000Y-115000000D02*
X82500000Y-115000000D01*
X82500000Y-110000000D01*
X87500000Y-110000000D01*
X87500000Y-115000000D01*
X57500000Y-115000000D02*
X52500000Y-115000000D01*
X52500000Y-115000000D02*
X52500000Y-110000000D01*
X52500000Y-110000000D02*
X57500000Y-110000000D01*
X57500000Y-110000000D02*
X57500000Y-115000000D01*
G36*
X57500000Y-115000000D02*
G01*
X52500000Y-115000000D01*
X52500000Y-110000000D01*
X57500000Y-110000000D01*
X57500000Y-115000000D01*
G37*
X57500000Y-115000000D02*
X52500000Y-115000000D01*
X52500000Y-110000000D01*
X57500000Y-110000000D01*
X57500000Y-115000000D01*
X147500000Y-115000000D02*
X142500000Y-115000000D01*
X142500000Y-115000000D02*
X142500000Y-110000000D01*
X142500000Y-110000000D02*
X147500000Y-110000000D01*
X147500000Y-110000000D02*
X147500000Y-115000000D01*
G36*
X147500000Y-115000000D02*
G01*
X142500000Y-115000000D01*
X142500000Y-110000000D01*
X147500000Y-110000000D01*
X147500000Y-115000000D01*
G37*
X147500000Y-115000000D02*
X142500000Y-115000000D01*
X142500000Y-110000000D01*
X147500000Y-110000000D01*
X147500000Y-115000000D01*
D13*
X148000000Y-168500000D03*
X66000000Y-46500000D03*
X134000000Y-46500000D03*
X52000000Y-168500000D03*
M02*
