G04 #@! TF.GenerationSoftware,KiCad,Pcbnew,(6.0.0)*
G04 #@! TF.CreationDate,2022-07-07T20:20:35+01:00*
G04 #@! TF.ProjectId,Drumbox,4472756d-626f-4782-9e6b-696361645f70,rev?*
G04 #@! TF.SameCoordinates,Original*
G04 #@! TF.FileFunction,Legend,Top*
G04 #@! TF.FilePolarity,Positive*
%FSLAX46Y46*%
G04 Gerber Fmt 4.6, Leading zero omitted, Abs format (unit mm)*
G04 Created by KiCad (PCBNEW (6.0.0)) date 2022-07-07 20:20:35*
%MOMM*%
%LPD*%
G01*
G04 APERTURE LIST*
G04 #@! TA.AperFunction,Profile*
%ADD10C,0.050000*%
G04 #@! TD*
%ADD11C,0.120000*%
%ADD12C,0.400000*%
%ADD13C,0.100000*%
%ADD14C,0.150000*%
%ADD15O,6.700000X4.200000*%
G04 APERTURE END LIST*
D10*
X40000000Y-43500000D02*
X160000000Y-43500000D01*
X160000000Y-171500000D02*
X40000000Y-171500000D01*
X160000000Y-43500000D02*
X160000000Y-171500000D01*
D11*
X58456174Y-121649395D02*
X58856174Y-120349395D01*
X101525000Y-79200000D02*
X101625000Y-79300000D01*
X84500000Y-51500000D02*
X85500000Y-51500000D01*
X98400000Y-166000000D02*
X99200000Y-166000000D01*
X69600000Y-60200000D02*
X69400000Y-60400000D01*
X114750000Y-48400000D02*
X115550000Y-48400000D01*
X99425000Y-79200000D02*
X99525000Y-79400000D01*
X84300000Y-48800000D02*
X83500000Y-48400000D01*
D10*
X40000000Y-43500000D02*
X40000000Y-171500000D01*
D11*
X153000000Y-80000000D02*
X153000000Y-79600000D01*
X153000000Y-79600000D02*
X153400000Y-79600000D01*
X153400000Y-79600000D02*
X153000000Y-80000000D01*
G36*
X153000000Y-80000000D02*
G01*
X153000000Y-79600000D01*
X153400000Y-79600000D01*
X153000000Y-80000000D01*
G37*
X153000000Y-80000000D02*
X153000000Y-79600000D01*
X153400000Y-79600000D01*
X153000000Y-80000000D01*
D12*
X88000000Y-110000000D02*
X88000000Y-115000000D01*
D11*
X63000000Y-59500000D02*
X63000000Y-59100000D01*
X63000000Y-59100000D02*
X63400000Y-59100000D01*
X63400000Y-59100000D02*
X63000000Y-59500000D01*
G36*
X63000000Y-59500000D02*
G01*
X63000000Y-59100000D01*
X63400000Y-59100000D01*
X63000000Y-59500000D01*
G37*
X63000000Y-59500000D02*
X63000000Y-59100000D01*
X63400000Y-59100000D01*
X63000000Y-59500000D01*
X84500000Y-72000000D02*
X85500000Y-72000000D01*
X106000000Y-166000000D02*
X105800000Y-167200000D01*
X88000000Y-48400000D02*
X87200000Y-50000000D01*
X71700000Y-58600000D02*
X71600000Y-60200000D01*
D13*
X50500000Y-96500000D02*
X59500000Y-96500000D01*
X59500000Y-96500000D02*
X59500000Y-105500000D01*
X59500000Y-105500000D02*
X50500000Y-105500000D01*
X50500000Y-105500000D02*
X50500000Y-96500000D01*
G36*
X59500000Y-105500000D02*
G01*
X50500000Y-105500000D01*
X50500000Y-96500000D01*
X59500000Y-96500000D01*
X59500000Y-105500000D01*
G37*
X59500000Y-105500000D02*
X50500000Y-105500000D01*
X50500000Y-96500000D01*
X59500000Y-96500000D01*
X59500000Y-105500000D01*
D11*
X62856174Y-126849395D02*
G75*
G03*
X46856174Y-128849395I-7856174J-2150605D01*
G01*
X129600000Y-60200000D02*
X129400000Y-60000000D01*
X99000000Y-59000000D02*
X98800000Y-60200000D01*
X83500000Y-50000000D02*
X84300000Y-49500000D01*
X86956174Y-121049395D02*
X87056174Y-119849395D01*
X138750000Y-107750000D02*
X140250000Y-105850000D01*
X99400000Y-58600000D02*
G75*
G03*
X99000000Y-59000000I-1J-399999D01*
G01*
X94356174Y-126349395D02*
X92856174Y-126849395D01*
X150813478Y-146000000D02*
G75*
G03*
X150813478Y-146000000I-6313478J0D01*
G01*
X96600000Y-165400000D02*
X96600000Y-167200000D01*
X111456174Y-121649395D02*
X111156174Y-121049395D01*
X139000000Y-107750000D02*
G75*
G03*
X139000000Y-107750000I-250000J0D01*
G01*
X69000000Y-59400000D02*
X69300000Y-59400000D01*
X72200000Y-60200000D02*
X72200000Y-60000000D01*
X94356175Y-126349395D02*
G75*
G03*
X76856174Y-128849395I-8610204J-2228578D01*
G01*
D12*
X52000000Y-110000000D02*
X52000000Y-115000000D01*
D11*
X99600000Y-101850000D02*
X100400000Y-100150000D01*
X124356175Y-126349395D02*
G75*
G03*
X106856174Y-128849395I-8610204J-2228578D01*
G01*
X55250000Y-48900000D02*
X56150000Y-49400000D01*
X99600000Y-60200000D02*
X99400000Y-60000000D01*
X53150000Y-49200000D02*
X53950000Y-48800000D01*
D12*
X58000000Y-110000000D02*
G75*
G03*
X57500000Y-109500000I-500001J-1D01*
G01*
D11*
X123000000Y-80000000D02*
X123000000Y-79600000D01*
X123000000Y-79600000D02*
X123400000Y-79600000D01*
X123400000Y-79600000D02*
X123000000Y-80000000D01*
G36*
X123000000Y-80000000D02*
G01*
X123000000Y-79600000D01*
X123400000Y-79600000D01*
X123000000Y-80000000D01*
G37*
X123000000Y-80000000D02*
X123000000Y-79600000D01*
X123400000Y-79600000D01*
X123000000Y-80000000D01*
X69100000Y-130000000D02*
X69100000Y-128300000D01*
X93000000Y-59100000D02*
G75*
G03*
X85500000Y-51300000I-7702650J99375D01*
G01*
X98900000Y-101850000D02*
X99700000Y-100150000D01*
X48750000Y-107750000D02*
X50250000Y-105850000D01*
X121313478Y-147000000D02*
G75*
G03*
X121313478Y-147000000I-6313478J0D01*
G01*
X69400000Y-58600000D02*
G75*
G03*
X69000000Y-59000000I-1J-399999D01*
G01*
X68300000Y-128300000D02*
X68200000Y-128300000D01*
X69400000Y-58600000D02*
X69800000Y-58600000D01*
D12*
X112000000Y-115000000D02*
G75*
G03*
X112500000Y-115500000I500001J1D01*
G01*
D11*
X70150000Y-147150000D02*
X69850000Y-148850000D01*
X55156174Y-120849395D02*
X55156174Y-119749395D01*
D12*
X57500000Y-115500000D02*
X52500000Y-115500000D01*
D11*
X131600000Y-59400000D02*
X131300000Y-59400000D01*
X145156174Y-120849395D02*
X145156174Y-119749395D01*
D12*
X148000000Y-110000000D02*
G75*
G03*
X147500000Y-109500000I-500001J-1D01*
G01*
D11*
X102600000Y-59500000D02*
X103100000Y-58600000D01*
X64500000Y-80000000D02*
X66500000Y-80000000D01*
X62296174Y-125319395D02*
X63656174Y-124649395D01*
X73500000Y-80000000D02*
X75500000Y-80000000D01*
X144500000Y-71600000D02*
X145500000Y-71600000D01*
X101200000Y-165800000D02*
X99800000Y-166200000D01*
X73300000Y-59500000D02*
X76000000Y-59500000D01*
X129450000Y-148850000D02*
X128950000Y-147150000D01*
X100800000Y-58600000D02*
X100900000Y-58700000D01*
X132000000Y-129000000D02*
X134700000Y-129000000D01*
X140250000Y-105850000D02*
X140250000Y-106150000D01*
X106400000Y-167200000D02*
X107400000Y-166800000D01*
X98400000Y-167200000D02*
X99200000Y-167200000D01*
D12*
X147500000Y-115500000D02*
X142500000Y-115500000D01*
D11*
X102425000Y-79200000D02*
X101525000Y-80800000D01*
X100400000Y-101850000D02*
X101200000Y-100150000D01*
X98800000Y-60200000D02*
X99500000Y-60200000D01*
X97700000Y-58600000D02*
X97300000Y-60200000D01*
X99100000Y-130000000D02*
X99100000Y-128300000D01*
X144200000Y-48400000D02*
X144100000Y-48400000D01*
X101825000Y-80000000D02*
X102625000Y-80000000D01*
X113525000Y-48400000D02*
X113525000Y-50000000D01*
X105800000Y-167200000D02*
X106600000Y-166000000D01*
X99800000Y-165400000D02*
X101200000Y-165800000D01*
X69560660Y-55939340D02*
G75*
G03*
X71060660Y-57439340I1500001J1D01*
G01*
X72000000Y-129000000D02*
X74700000Y-129000000D01*
X128950000Y-147150000D02*
X129850000Y-147150000D01*
X69700000Y-100150000D02*
X69800000Y-100350000D01*
X68400000Y-59700000D02*
X67700000Y-58600000D01*
X118025000Y-48400000D02*
X117225000Y-50000000D01*
X68800000Y-60200000D02*
X69500000Y-60200000D01*
X146800000Y-49200000D02*
X147100000Y-49200000D01*
X56250000Y-48400000D02*
X55250000Y-48900000D01*
X130900000Y-128300000D02*
X130800000Y-128300000D01*
X116956174Y-121049395D02*
X117056174Y-119849395D01*
X68825000Y-79600000D02*
X67625000Y-79900000D01*
X103200000Y-166000000D02*
X103200000Y-166200000D01*
X70000000Y-130000000D02*
X69500000Y-128300000D01*
X63000000Y-59100000D02*
G75*
G03*
X55500000Y-51300000I-7702650J99375D01*
G01*
X127925000Y-79200000D02*
X127225000Y-80800000D01*
X123000000Y-79600000D02*
G75*
G03*
X115500000Y-71800000I-7702650J99375D01*
G01*
X118025000Y-48400000D02*
X117925000Y-50000000D01*
X86300000Y-49300000D02*
X86800000Y-50000000D01*
X132200000Y-60200000D02*
X132400000Y-60100000D01*
X98300000Y-128300000D02*
X98200000Y-128300000D01*
X129000000Y-59000000D02*
X128800000Y-60200000D01*
X103600000Y-166000000D02*
X103600000Y-167200000D01*
X146650000Y-48400000D02*
X145850000Y-50000000D01*
X97225000Y-80800000D02*
X97125000Y-80600000D01*
X140250000Y-105850000D02*
X139950000Y-105850000D01*
X70900000Y-128300000D02*
X70500000Y-130000000D01*
X147400000Y-50000000D02*
X147200000Y-49800000D01*
X83000000Y-49200000D02*
X83200000Y-49200000D01*
X132600000Y-59500000D02*
X132600000Y-58600000D01*
X72100000Y-148000000D02*
X76100000Y-148000000D01*
X57250000Y-48400000D02*
X56250000Y-48900000D01*
X56250000Y-48400000D02*
X56250000Y-48600000D01*
D12*
X88000000Y-110000000D02*
G75*
G03*
X87500000Y-109500000I-500001J-1D01*
G01*
D11*
X69000000Y-59000000D02*
X68800000Y-60200000D01*
X116325000Y-48400000D02*
X115825000Y-50000000D01*
X67300000Y-60200000D02*
X68400000Y-59700000D01*
X129425000Y-79200000D02*
X129525000Y-79400000D01*
X113525000Y-49200000D02*
X114325000Y-48800000D01*
X67700000Y-58600000D02*
X67300000Y-60200000D01*
X92813478Y-147186523D02*
G75*
G03*
X92813478Y-147186523I-6313478J0D01*
G01*
X49000000Y-107750000D02*
G75*
G03*
X49000000Y-107750000I-250000J0D01*
G01*
X53150000Y-48400000D02*
X53150000Y-50000000D01*
X67225000Y-80800000D02*
X67125000Y-80600000D01*
X97800000Y-167200000D02*
X97600000Y-167000000D01*
D12*
X82000000Y-110000000D02*
X82000000Y-115000000D01*
D11*
X128100000Y-148000000D02*
X124100000Y-148000000D01*
X57250000Y-48400000D02*
X57250000Y-48600000D01*
X67925000Y-79200000D02*
X67225000Y-80800000D01*
D12*
X112500000Y-109500000D02*
G75*
G03*
X112000000Y-110000000I1J-500001D01*
G01*
D11*
X91626174Y-124249395D02*
X92856174Y-123349395D01*
X120856174Y-123349395D02*
X121856174Y-122149395D01*
X104400000Y-167200000D02*
X105600000Y-166000000D01*
X107000000Y-166000000D02*
X107400000Y-166800000D01*
X128400000Y-59700000D02*
X127700000Y-58600000D01*
X131450000Y-147150000D02*
X130450000Y-148850000D01*
X114500000Y-72000000D02*
X115500000Y-72000000D01*
X72925000Y-79200000D02*
X72025000Y-80800000D01*
X84500000Y-51300000D02*
G75*
G03*
X77000000Y-59100000I150000J-7650000D01*
G01*
X99560660Y-57439340D02*
X99560660Y-55939340D01*
X72600000Y-59500000D02*
X72600000Y-58600000D01*
X88000000Y-48400000D02*
X87900000Y-50000000D01*
X150856174Y-123349395D02*
X151856174Y-122149395D01*
X148456174Y-121649395D02*
X148856174Y-120349395D01*
X106000000Y-166000000D02*
X105200000Y-167200000D01*
X54800000Y-48400000D02*
X54000000Y-50000000D01*
X109000000Y-107750000D02*
G75*
G03*
X109000000Y-107750000I-250000J0D01*
G01*
X100400000Y-100150000D02*
X100400000Y-101850000D01*
X87000000Y-48400000D02*
X86300000Y-49300000D01*
X101200000Y-100150000D02*
X101100000Y-100150000D01*
X56150000Y-49400000D02*
X55350000Y-50000000D01*
X131825000Y-80000000D02*
X132625000Y-80000000D01*
X132600000Y-59500000D02*
X133100000Y-58600000D01*
X97800000Y-167200000D02*
X97600000Y-167400000D01*
X136600000Y-79600000D02*
X137000000Y-79600000D01*
X137000000Y-79600000D02*
X137000000Y-80000000D01*
X137000000Y-80000000D02*
X136600000Y-79600000D01*
G36*
X137000000Y-80000000D02*
G01*
X136600000Y-79600000D01*
X137000000Y-79600000D01*
X137000000Y-80000000D01*
G37*
X137000000Y-80000000D02*
X136600000Y-79600000D01*
X137000000Y-79600000D01*
X137000000Y-80000000D01*
X131200000Y-100150000D02*
X131100000Y-100150000D01*
X95400000Y-165800000D02*
X95600000Y-166000000D01*
X84500000Y-71800000D02*
G75*
G03*
X77000000Y-79600000I150000J-7650000D01*
G01*
D12*
X87500000Y-115500000D02*
X82500000Y-115500000D01*
D11*
X93000000Y-79600000D02*
G75*
G03*
X85500000Y-71800000I-7702650J99375D01*
G01*
X129700000Y-100150000D02*
X129800000Y-100350000D01*
X97000000Y-165000000D02*
X97800000Y-165000000D01*
X103300000Y-59500000D02*
X106000000Y-59500000D01*
X99850000Y-148850000D02*
X100850000Y-147150000D01*
X129600000Y-101850000D02*
X129500000Y-101850000D01*
X100500000Y-130000000D02*
X101600000Y-130000000D01*
X128800000Y-60200000D02*
X129500000Y-60200000D01*
X100475000Y-79200000D02*
X99525000Y-80800000D01*
X50250000Y-105850000D02*
X50250000Y-106150000D01*
X129500000Y-57500000D02*
X129500000Y-56000000D01*
X114500000Y-51500000D02*
X115500000Y-51500000D01*
X93800000Y-165400000D02*
X93800000Y-167200000D01*
X101025000Y-80800000D02*
X101125000Y-80700000D01*
X85156174Y-120849395D02*
X85156174Y-119749395D01*
D12*
X82500000Y-109500000D02*
G75*
G03*
X82000000Y-110000000I1J-500001D01*
G01*
D11*
X99800000Y-167200000D02*
X100000000Y-167000000D01*
X131700000Y-58600000D02*
X131600000Y-60200000D01*
X102200000Y-60200000D02*
X102200000Y-60000000D01*
X128300000Y-128300000D02*
X128200000Y-128300000D01*
X53950000Y-49500000D02*
X53150000Y-49200000D01*
X119939636Y-148500000D02*
G75*
G03*
X119939636Y-148500000I-4939636J0D01*
G01*
D13*
X80500000Y-96500000D02*
X89500000Y-96500000D01*
X89500000Y-96500000D02*
X89500000Y-105500000D01*
X89500000Y-105500000D02*
X80500000Y-105500000D01*
X80500000Y-105500000D02*
X80500000Y-96500000D01*
G36*
X89500000Y-105500000D02*
G01*
X80500000Y-105500000D01*
X80500000Y-96500000D01*
X89500000Y-96500000D01*
X89500000Y-105500000D01*
G37*
X89500000Y-105500000D02*
X80500000Y-105500000D01*
X80500000Y-96500000D01*
X89500000Y-96500000D01*
X89500000Y-105500000D01*
D11*
X102000000Y-129000000D02*
X104700000Y-129000000D01*
X54500000Y-72000000D02*
X55500000Y-72000000D01*
X100900000Y-128300000D02*
X100500000Y-130000000D01*
X137856174Y-124549395D02*
X137956174Y-124749395D01*
X114500000Y-50000000D02*
X114750000Y-48400000D01*
X56350000Y-50000000D02*
X56350000Y-49800000D01*
X59806174Y-122399395D02*
X60506174Y-121099395D01*
X81800000Y-49200000D02*
X82600000Y-49200000D01*
X146600000Y-50000000D02*
X147300000Y-50000000D01*
X144500000Y-71800000D02*
G75*
G03*
X137000000Y-79600000I150000J-7650000D01*
G01*
X110250000Y-105850000D02*
X110250000Y-106150000D01*
X112425000Y-48400000D02*
X112325000Y-48400000D01*
X94500000Y-80000000D02*
X96500000Y-80000000D01*
X128625000Y-80800000D02*
X129425000Y-79200000D01*
X101450000Y-147150000D02*
X100450000Y-148850000D01*
X149257347Y-148000000D02*
G75*
G03*
X149257347Y-148000000I-4257347J0D01*
G01*
X68950000Y-147150000D02*
X69850000Y-147150000D01*
X129000000Y-59400000D02*
X129300000Y-59400000D01*
X129100000Y-128300000D02*
X129000000Y-128300000D01*
X143350000Y-48300000D02*
X142500000Y-49250000D01*
X68625000Y-80800000D02*
X69425000Y-79200000D01*
X72000000Y-101000000D02*
X76000000Y-101000000D01*
D12*
X52000000Y-115000000D02*
G75*
G03*
X52500000Y-115500000I500001J1D01*
G01*
X142000000Y-110000000D02*
X142000000Y-115000000D01*
D11*
X84500000Y-51100000D02*
X85500000Y-51100000D01*
X100400000Y-128300000D02*
X100000000Y-130000000D01*
X119680278Y-148500000D02*
G75*
G03*
X119680278Y-148500000I-4680278J0D01*
G01*
X127925000Y-79200000D02*
X128825000Y-79600000D01*
X98825000Y-79600000D02*
X97625000Y-79900000D01*
X49056174Y-122749395D02*
X49256174Y-123149395D01*
X115000000Y-104250000D02*
X115000000Y-109500000D01*
X71050000Y-147150000D02*
X71750000Y-147150000D01*
X114325000Y-49500000D02*
X113525000Y-49200000D01*
X69425000Y-79200000D02*
X69525000Y-79400000D01*
X99560660Y-55939340D02*
G75*
G03*
X101060660Y-57439340I1500001J1D01*
G01*
X99500000Y-128300000D02*
X100400000Y-128300000D01*
X86800000Y-50000000D02*
X87150000Y-49500000D01*
D13*
X110500000Y-96500000D02*
X119500000Y-96500000D01*
X119500000Y-96500000D02*
X119500000Y-105500000D01*
X119500000Y-105500000D02*
X110500000Y-105500000D01*
X110500000Y-105500000D02*
X110500000Y-96500000D01*
G36*
X119500000Y-105500000D02*
G01*
X110500000Y-105500000D01*
X110500000Y-96500000D01*
X119500000Y-96500000D01*
X119500000Y-105500000D01*
G37*
X119500000Y-105500000D02*
X110500000Y-105500000D01*
X110500000Y-96500000D01*
X119500000Y-96500000D01*
X119500000Y-105500000D01*
D11*
X105200000Y-167200000D02*
X105400000Y-167200000D01*
X112425000Y-48400000D02*
X111725000Y-50000000D01*
X144500000Y-51100000D02*
X145500000Y-51100000D01*
X61626174Y-124249395D02*
X62856174Y-123349395D01*
X70000000Y-59500000D02*
X70300000Y-60200000D01*
X131525000Y-79200000D02*
X130725000Y-80100000D01*
X72425000Y-79200000D02*
X71525000Y-80800000D01*
X54700000Y-49200000D02*
X54400000Y-49200000D01*
X67925000Y-79200000D02*
X68825000Y-79600000D01*
X99450000Y-148850000D02*
X98950000Y-147150000D01*
X106600000Y-59100000D02*
X107000000Y-59100000D01*
X107000000Y-59100000D02*
X107000000Y-59500000D01*
X107000000Y-59500000D02*
X106600000Y-59100000D01*
G36*
X107000000Y-59500000D02*
G01*
X106600000Y-59100000D01*
X107000000Y-59100000D01*
X107000000Y-59500000D01*
G37*
X107000000Y-59500000D02*
X106600000Y-59100000D01*
X107000000Y-59100000D01*
X107000000Y-59500000D01*
X115325000Y-50000000D02*
X115225000Y-50000000D01*
X101050000Y-147150000D02*
X101750000Y-147150000D01*
X132600000Y-59500000D02*
X132200000Y-60200000D01*
X132425000Y-79200000D02*
X131525000Y-80800000D01*
X128825000Y-79600000D02*
X127625000Y-79900000D01*
X102600000Y-59500000D02*
X102200000Y-60200000D01*
X54500000Y-71600000D02*
X55500000Y-71600000D01*
X70800000Y-58600000D02*
X70000000Y-59500000D01*
X127300000Y-60200000D02*
X128400000Y-59700000D01*
X146956174Y-121049395D02*
X147056174Y-119849395D01*
X131700000Y-58600000D02*
X130900000Y-60200000D01*
X94800000Y-166600000D02*
X93800000Y-166200000D01*
X103500000Y-80000000D02*
X105500000Y-80000000D01*
X122856174Y-126849395D02*
G75*
G03*
X106856174Y-128849395I-7856174J-2150605D01*
G01*
X94800000Y-165800000D02*
X93800000Y-165400000D01*
X101700000Y-58600000D02*
X101600000Y-60200000D01*
X128000000Y-101000000D02*
X124000000Y-101000000D01*
X144200000Y-48400000D02*
X143500000Y-50000000D01*
X130475000Y-79200000D02*
X129525000Y-80800000D01*
X119219301Y-147950000D02*
G75*
G03*
X119219301Y-147950000I-4219301J0D01*
G01*
X57250000Y-48400000D02*
X57050000Y-48300000D01*
X143456174Y-120949395D02*
X143156174Y-120149395D01*
X70400000Y-128300000D02*
X70000000Y-130000000D01*
X123000000Y-59100000D02*
G75*
G03*
X115500000Y-51300000I-7702650J99375D01*
G01*
X133300000Y-59500000D02*
X136000000Y-59500000D01*
X68900000Y-101850000D02*
X69700000Y-100150000D01*
X130800000Y-58600000D02*
X130000000Y-59500000D01*
X100300000Y-60200000D02*
X100400000Y-60100000D01*
X130400000Y-101850000D02*
X131200000Y-100150000D01*
X98300000Y-128300000D02*
X99100000Y-130000000D01*
X76600000Y-59100000D02*
X77000000Y-59100000D01*
X77000000Y-59100000D02*
X77000000Y-59500000D01*
X77000000Y-59500000D02*
X76600000Y-59100000D01*
G36*
X77000000Y-59500000D02*
G01*
X76600000Y-59100000D01*
X77000000Y-59100000D01*
X77000000Y-59500000D01*
G37*
X77000000Y-59500000D02*
X76600000Y-59100000D01*
X77000000Y-59100000D01*
X77000000Y-59500000D01*
D12*
X112000000Y-110000000D02*
X112000000Y-115000000D01*
D11*
X102925000Y-79200000D02*
X102025000Y-80800000D01*
X56956174Y-121049395D02*
X57056174Y-119849395D01*
X145600000Y-48400000D02*
X145500000Y-50000000D01*
X70400000Y-100150000D02*
X70400000Y-101850000D01*
X129500000Y-56000000D02*
G75*
G03*
X131000000Y-57500000I1500001J1D01*
G01*
X144500000Y-72000000D02*
X145500000Y-72000000D01*
X113025000Y-49200000D02*
X113225000Y-49200000D01*
X117925000Y-49200000D02*
X117625000Y-49200000D01*
X100725000Y-80100000D02*
X101025000Y-80800000D01*
X130900000Y-128300000D02*
X130500000Y-130000000D01*
D12*
X118000000Y-110000000D02*
X118000000Y-115000000D01*
D11*
X147200000Y-48400000D02*
G75*
G03*
X146800000Y-48800000I-1J-399999D01*
G01*
X71200000Y-100150000D02*
X71100000Y-100150000D01*
X129500000Y-128300000D02*
X130400000Y-128300000D01*
X128900000Y-101850000D02*
X129700000Y-100150000D01*
X85800000Y-48400000D02*
X85300000Y-50000000D01*
D12*
X52500000Y-109500000D02*
G75*
G03*
X52000000Y-110000000I1J-500001D01*
G01*
D11*
X95400000Y-165800000D02*
X95200000Y-166000000D01*
D12*
X118000000Y-110000000D02*
G75*
G03*
X117500000Y-109500000I-500001J-1D01*
G01*
D11*
X143000000Y-50000000D02*
X143100000Y-49900000D01*
X69700000Y-100150000D02*
X69500000Y-100250000D01*
X85525000Y-48400000D02*
X84475000Y-50000000D01*
X99000000Y-59400000D02*
X99300000Y-59400000D01*
X129600000Y-60200000D02*
X129400000Y-60400000D01*
X127425000Y-80700000D02*
X127225000Y-80800000D01*
X109056174Y-122749395D02*
X109256174Y-123149395D01*
X139056174Y-122749395D02*
X139256174Y-123149395D01*
X69560660Y-57439340D02*
X69560660Y-55939340D01*
X69850000Y-148850000D02*
X70850000Y-147150000D01*
X115550000Y-48400000D02*
X114500000Y-50000000D01*
X107856174Y-124549395D02*
X107956174Y-124749395D01*
X71825000Y-80000000D02*
X72625000Y-80000000D01*
X124356174Y-126349395D02*
X122856174Y-126849395D01*
X127600000Y-129000000D02*
X124900000Y-129000000D01*
X97925000Y-79200000D02*
X97225000Y-80800000D01*
X117025000Y-48400000D02*
X116325000Y-49300000D01*
X114500000Y-51300000D02*
G75*
G03*
X107000000Y-59100000I150000J-7650000D01*
G01*
X130400000Y-128300000D02*
X130000000Y-130000000D01*
X83500000Y-48400000D02*
X83500000Y-50000000D01*
X63000000Y-80000000D02*
X63000000Y-79600000D01*
X63000000Y-79600000D02*
X63400000Y-79600000D01*
X63400000Y-79600000D02*
X63000000Y-80000000D01*
G36*
X63000000Y-80000000D02*
G01*
X63000000Y-79600000D01*
X63400000Y-79600000D01*
X63000000Y-80000000D01*
G37*
X63000000Y-80000000D02*
X63000000Y-79600000D01*
X63400000Y-79600000D01*
X63000000Y-80000000D01*
X102200000Y-167200000D02*
X102200000Y-167000000D01*
X131025000Y-80800000D02*
X131125000Y-80700000D01*
X117025000Y-48400000D02*
X117125000Y-48500000D01*
X132000000Y-101000000D02*
X136000000Y-101000000D01*
X70900000Y-128300000D02*
X70800000Y-128300000D01*
X55350000Y-50000000D02*
X55550000Y-50000000D01*
X115156174Y-120849395D02*
X115156174Y-119749395D01*
D12*
X142500000Y-109500000D02*
G75*
G03*
X142000000Y-110000000I1J-500001D01*
G01*
D11*
X149939636Y-147250000D02*
G75*
G03*
X149939636Y-147250000I-4939636J0D01*
G01*
X129700000Y-100150000D02*
X129500000Y-100250000D01*
X99400000Y-58600000D02*
X99800000Y-58600000D01*
X114500000Y-71600000D02*
X115500000Y-71600000D01*
X152856174Y-126849395D02*
G75*
G03*
X136856174Y-128849395I-7856174J-2150605D01*
G01*
X99700000Y-100150000D02*
X99800000Y-100350000D01*
X63000000Y-79600000D02*
G75*
G03*
X55500000Y-71800000I-7702650J99375D01*
G01*
X80250000Y-105850000D02*
X80250000Y-106150000D01*
X59257347Y-148000000D02*
G75*
G03*
X59257347Y-148000000I-4257347J0D01*
G01*
X59785165Y-149000000D02*
G75*
G03*
X59785165Y-149000000I-5385165J0D01*
G01*
X89736150Y-147550000D02*
G75*
G03*
X89736150Y-147550000I-4686150J0D01*
G01*
X59539636Y-148600000D02*
G75*
G03*
X59539636Y-148600000I-4939636J0D01*
G01*
X79000000Y-107750000D02*
G75*
G03*
X79000000Y-107750000I-250000J0D01*
G01*
X90189636Y-147350000D02*
G75*
G03*
X90189636Y-147350000I-4939636J0D01*
G01*
X78750000Y-107750000D02*
X80250000Y-105850000D01*
X80250000Y-105850000D02*
X79950000Y-105850000D01*
X89242641Y-147950000D02*
G75*
G03*
X89242641Y-147950000I-4242641J0D01*
G01*
X90835165Y-146950000D02*
G75*
G03*
X90835165Y-146950000I-5385165J0D01*
G01*
X103000000Y-166800000D02*
X102200000Y-167200000D01*
X144500000Y-51500000D02*
X145500000Y-51500000D01*
X86300000Y-48400000D02*
X86200000Y-48400000D01*
D12*
X57500000Y-115500000D02*
G75*
G03*
X58000000Y-115000000I-1J500001D01*
G01*
D11*
X85800000Y-48400000D02*
X85800000Y-50000000D01*
X54500000Y-71800000D02*
G75*
G03*
X47000000Y-79600000I150000J-7650000D01*
G01*
X47856174Y-124549395D02*
X47956174Y-124749395D01*
X70300000Y-60200000D02*
X70400000Y-60100000D01*
X102200000Y-60200000D02*
X102400000Y-60100000D01*
X100075000Y-79200000D02*
X100775000Y-79200000D01*
X129850000Y-148850000D02*
X130850000Y-147150000D01*
X145950000Y-48400000D02*
X145850000Y-50000000D01*
D13*
X140500000Y-96500000D02*
X149500000Y-96500000D01*
X149500000Y-96500000D02*
X149500000Y-105500000D01*
X149500000Y-105500000D02*
X140500000Y-105500000D01*
X140500000Y-105500000D02*
X140500000Y-96500000D01*
G36*
X149500000Y-105500000D02*
G01*
X140500000Y-105500000D01*
X140500000Y-96500000D01*
X149500000Y-96500000D01*
X149500000Y-105500000D01*
G37*
X149500000Y-105500000D02*
X140500000Y-105500000D01*
X140500000Y-96500000D01*
X149500000Y-96500000D01*
X149500000Y-105500000D01*
D12*
X117500000Y-115500000D02*
X112500000Y-115500000D01*
D11*
X102200000Y-166200000D02*
X103000000Y-166800000D01*
X111725000Y-50000000D02*
X112625000Y-50000000D01*
X69600000Y-101850000D02*
X70400000Y-100150000D01*
D12*
X58000000Y-110000000D02*
X58000000Y-115000000D01*
D11*
X116825000Y-50000000D02*
X117175000Y-49500000D01*
X104800000Y-166000000D02*
X104400000Y-167200000D01*
X70500000Y-130000000D02*
X71600000Y-130000000D01*
X130150000Y-147150000D02*
X129850000Y-148850000D01*
X57150000Y-49400000D02*
X56350000Y-50000000D01*
D12*
X117500000Y-115500000D02*
G75*
G03*
X118000000Y-115000000I-1J500001D01*
G01*
D11*
X60856174Y-123349395D02*
X61856174Y-122149395D01*
X153000000Y-59500000D02*
X153000000Y-59100000D01*
X153000000Y-59100000D02*
X153400000Y-59100000D01*
X153400000Y-59100000D02*
X153000000Y-59500000D01*
G36*
X153000000Y-59500000D02*
G01*
X153000000Y-59100000D01*
X153400000Y-59100000D01*
X153000000Y-59500000D01*
G37*
X153000000Y-59500000D02*
X153000000Y-59100000D01*
X153400000Y-59100000D01*
X153000000Y-59500000D01*
X115825000Y-48400000D02*
X115325000Y-50000000D01*
X145950000Y-48400000D02*
X145850000Y-48400000D01*
X68100000Y-148000000D02*
X64100000Y-148000000D01*
X81456174Y-121649395D02*
X81156174Y-121049395D01*
X50250000Y-105850000D02*
X49950000Y-105850000D01*
X89806174Y-122399395D02*
X90506174Y-121099395D01*
X149885165Y-146950000D02*
G75*
G03*
X149885165Y-146950000I-5385165J0D01*
G01*
X118456174Y-121649395D02*
X118856174Y-120349395D01*
X151626174Y-124249395D02*
X152856174Y-123349395D01*
X124500000Y-80000000D02*
X126500000Y-80000000D01*
X71525000Y-79200000D02*
X71625000Y-79300000D01*
X130400000Y-100150000D02*
X130400000Y-101850000D01*
X100000000Y-130000000D02*
X99500000Y-128300000D01*
X116325000Y-48400000D02*
X116225000Y-48400000D01*
X95400000Y-165800000D02*
X95400000Y-167200000D01*
X114500000Y-71800000D02*
G75*
G03*
X107000000Y-79600000I150000J-7650000D01*
G01*
X60713478Y-149000000D02*
G75*
G03*
X60713478Y-149000000I-6313478J0D01*
G01*
X51456174Y-121649395D02*
X51156174Y-121049395D01*
X97300000Y-60200000D02*
X98400000Y-59700000D01*
X129600000Y-101850000D02*
X130400000Y-100150000D01*
X100150000Y-147150000D02*
X99850000Y-148850000D01*
X56250000Y-48900000D02*
X57150000Y-49400000D01*
X84725000Y-48400000D02*
X85525000Y-48400000D01*
X54500000Y-51300000D02*
G75*
G03*
X47000000Y-59100000I150000J-7650000D01*
G01*
X97600000Y-129000000D02*
X94900000Y-129000000D01*
X129850000Y-147150000D02*
X129450000Y-148850000D01*
X56250000Y-48400000D02*
X56050000Y-48300000D01*
X145000000Y-104250000D02*
X145000000Y-109500000D01*
D12*
X82000000Y-115000000D02*
G75*
G03*
X82500000Y-115500000I500001J1D01*
G01*
D11*
X99100000Y-128300000D02*
X99000000Y-128300000D01*
X64000000Y-59500000D02*
X66800000Y-59500000D01*
X114500000Y-51100000D02*
X115500000Y-51100000D01*
X71750000Y-147150000D02*
X72150000Y-147150000D01*
X87000000Y-48400000D02*
X87100000Y-48500000D01*
X54500000Y-51100000D02*
X55500000Y-51100000D01*
X99600000Y-167000000D02*
X99800000Y-167200000D01*
X99850000Y-147150000D02*
X99450000Y-148850000D01*
X99600000Y-101850000D02*
X99500000Y-101850000D01*
X53150000Y-50000000D02*
X53950000Y-49500000D01*
X71025000Y-80800000D02*
X71125000Y-80700000D01*
X145600000Y-48400000D02*
X144800000Y-50000000D01*
X99800000Y-167200000D02*
X99800000Y-167000000D01*
X46600000Y-79600000D02*
X47000000Y-79600000D01*
X47000000Y-79600000D02*
X47000000Y-80000000D01*
X47000000Y-80000000D02*
X46600000Y-79600000D01*
G36*
X47000000Y-80000000D02*
G01*
X46600000Y-79600000D01*
X47000000Y-79600000D01*
X47000000Y-80000000D01*
G37*
X47000000Y-80000000D02*
X46600000Y-79600000D01*
X47000000Y-79600000D01*
X47000000Y-80000000D01*
X108750000Y-107750000D02*
X110250000Y-105850000D01*
D12*
X142000000Y-115000000D02*
G75*
G03*
X142500000Y-115500000I500001J1D01*
G01*
D11*
X92856174Y-126849395D02*
G75*
G03*
X76856174Y-128849395I-7856174J-2150605D01*
G01*
X129425000Y-79200000D02*
X129225000Y-79300000D01*
X83456174Y-120949395D02*
X83156174Y-120149395D01*
X100000000Y-59500000D02*
X100300000Y-60200000D01*
X69100000Y-128300000D02*
X69000000Y-128300000D01*
X98950000Y-147150000D02*
X99850000Y-147150000D01*
X69600000Y-101850000D02*
X69500000Y-101850000D01*
X129400000Y-58600000D02*
X129800000Y-58600000D01*
X147400000Y-50000000D02*
X147200000Y-50200000D01*
X104800000Y-166000000D02*
X104600000Y-166000000D01*
X84475000Y-50000000D02*
X84725000Y-48400000D01*
X149186150Y-147750000D02*
G75*
G03*
X149186150Y-147750000I-4686150J0D01*
G01*
X77856174Y-124549395D02*
X77956174Y-124749395D01*
D12*
X147500000Y-115500000D02*
G75*
G03*
X148000000Y-115000000I-1J500001D01*
G01*
D11*
X71450000Y-147150000D02*
X70450000Y-148850000D01*
X130000000Y-59500000D02*
X130300000Y-60200000D01*
X84300000Y-49500000D02*
X83500000Y-49200000D01*
X143500000Y-50000000D02*
X144400000Y-50000000D01*
X87050000Y-49400000D02*
X87150000Y-49500000D01*
X130500000Y-130000000D02*
X131600000Y-130000000D01*
D12*
X87500000Y-115500000D02*
G75*
G03*
X88000000Y-115000000I-1J500001D01*
G01*
D11*
X115825000Y-48400000D02*
X115825000Y-50000000D01*
X101600000Y-59400000D02*
X101300000Y-59400000D01*
X94000000Y-59500000D02*
X96800000Y-59500000D01*
X67600000Y-129000000D02*
X64900000Y-129000000D01*
X70075000Y-79200000D02*
X70775000Y-79200000D01*
X130075000Y-79200000D02*
X130775000Y-79200000D01*
X99700000Y-100150000D02*
X99500000Y-100250000D01*
X146650000Y-48400000D02*
X146550000Y-48400000D01*
X56350000Y-50000000D02*
X56550000Y-50000000D01*
X106600000Y-166000000D02*
X106400000Y-166000000D01*
X70725000Y-80100000D02*
X71025000Y-80800000D01*
X93000000Y-80000000D02*
X93000000Y-79600000D01*
X93000000Y-79600000D02*
X93400000Y-79600000D01*
X93400000Y-79600000D02*
X93000000Y-80000000D01*
G36*
X93000000Y-80000000D02*
G01*
X93000000Y-79600000D01*
X93400000Y-79600000D01*
X93000000Y-80000000D01*
G37*
X93000000Y-80000000D02*
X93000000Y-79600000D01*
X93400000Y-79600000D01*
X93000000Y-80000000D01*
X54500000Y-51500000D02*
X55500000Y-51500000D01*
X72600000Y-59500000D02*
X72200000Y-60200000D01*
X64356174Y-126349395D02*
X62856174Y-126849395D01*
X132200000Y-60200000D02*
X132200000Y-60000000D01*
X98400000Y-166600000D02*
X98600000Y-166600000D01*
X143350000Y-48300000D02*
X143450000Y-48400000D01*
X68300000Y-128300000D02*
X69100000Y-130000000D01*
X129100000Y-130000000D02*
X129100000Y-128300000D01*
X110250000Y-105850000D02*
X109950000Y-105850000D01*
X130000000Y-130000000D02*
X129500000Y-128300000D01*
X132925000Y-79200000D02*
X132025000Y-80800000D01*
X132100000Y-148000000D02*
X136100000Y-148000000D01*
X96600000Y-166000000D02*
X97000000Y-166000000D01*
D12*
X52500000Y-109500000D02*
X57500000Y-109500000D01*
D11*
X98100000Y-148000000D02*
X94100000Y-148000000D01*
X69450000Y-148850000D02*
X68950000Y-147150000D01*
X64356175Y-126349395D02*
G75*
G03*
X46856174Y-128849395I-8610204J-2228578D01*
G01*
X72600000Y-59500000D02*
X73100000Y-58600000D01*
X79056174Y-122749395D02*
X79256174Y-123149395D01*
X103200000Y-166000000D02*
X102200000Y-166200000D01*
X98400000Y-166000000D02*
X98400000Y-167200000D01*
X71600000Y-59400000D02*
X71300000Y-59400000D01*
X93000000Y-59500000D02*
X93000000Y-59100000D01*
X93000000Y-59100000D02*
X93400000Y-59100000D01*
X93400000Y-59100000D02*
X93000000Y-59500000D01*
G36*
X93000000Y-59500000D02*
G01*
X93000000Y-59100000D01*
X93400000Y-59100000D01*
X93000000Y-59500000D01*
G37*
X93000000Y-59500000D02*
X93000000Y-59100000D01*
X93400000Y-59100000D01*
X93000000Y-59500000D01*
X84500000Y-71600000D02*
X85500000Y-71600000D01*
X117075000Y-49400000D02*
X117175000Y-49500000D01*
X130800000Y-58600000D02*
X130900000Y-58700000D01*
X127225000Y-80800000D02*
X127125000Y-80600000D01*
X55350000Y-50000000D02*
X55350000Y-49800000D01*
X101700000Y-58600000D02*
X100900000Y-60200000D01*
X97425000Y-80700000D02*
X97225000Y-80800000D01*
D12*
X148000000Y-110000000D02*
X148000000Y-115000000D01*
D11*
X98000000Y-101000000D02*
X94000000Y-101000000D01*
X53950000Y-48800000D02*
X53150000Y-48400000D01*
X130725000Y-80100000D02*
X131025000Y-80800000D01*
X153000000Y-59100000D02*
G75*
G03*
X145500000Y-51300000I-7702650J99375D01*
G01*
X147200000Y-48400000D02*
X147600000Y-48400000D01*
X105600000Y-166000000D02*
X105400000Y-166000000D01*
X98625000Y-80800000D02*
X99425000Y-79200000D01*
X82400000Y-48400000D02*
X81500000Y-50000000D01*
X100800000Y-58600000D02*
X100000000Y-59500000D01*
X69600000Y-60200000D02*
X69400000Y-60000000D01*
X70400000Y-101850000D02*
X71200000Y-100150000D01*
X146800000Y-48800000D02*
X146600000Y-50000000D01*
X69850000Y-147150000D02*
X69450000Y-148850000D01*
X145500000Y-49200000D02*
X145200000Y-49200000D01*
X101750000Y-147150000D02*
X102150000Y-147150000D01*
X93800000Y-167200000D02*
X94800000Y-166600000D01*
X119806174Y-122399395D02*
X120506174Y-121099395D01*
X87900000Y-49200000D02*
X87600000Y-49200000D01*
X99800000Y-165400000D02*
X99800000Y-167200000D01*
X154356175Y-126349395D02*
G75*
G03*
X136856174Y-128849395I-8610204J-2228578D01*
G01*
X129400000Y-58600000D02*
G75*
G03*
X129000000Y-59000000I-1J-399999D01*
G01*
X82900000Y-48400000D02*
X82000000Y-50000000D01*
X85000000Y-104250000D02*
X85000000Y-109500000D01*
X59486150Y-148400000D02*
G75*
G03*
X59486150Y-148400000I-4686150J0D01*
G01*
X55000000Y-104250000D02*
X55000000Y-109500000D01*
X153000000Y-79600000D02*
G75*
G03*
X145500000Y-71800000I-7702650J99375D01*
G01*
X107000000Y-166000000D02*
X106400000Y-167200000D01*
X70800000Y-58600000D02*
X70900000Y-58700000D01*
X97925000Y-79200000D02*
X98825000Y-79600000D01*
X54800000Y-48400000D02*
X54700000Y-50000000D01*
X67425000Y-80700000D02*
X67225000Y-80800000D01*
X86300000Y-48400000D02*
X85800000Y-50000000D01*
X70475000Y-79200000D02*
X69525000Y-80800000D01*
X124000000Y-59500000D02*
X126800000Y-59500000D01*
X121626174Y-124249395D02*
X122856174Y-123349395D01*
X102100000Y-148000000D02*
X106100000Y-148000000D01*
X149806174Y-122399395D02*
X150506174Y-121099395D01*
X127700000Y-58600000D02*
X127300000Y-60200000D01*
X69500000Y-128300000D02*
X70400000Y-128300000D01*
D12*
X142500000Y-109500000D02*
X147500000Y-109500000D01*
D11*
X97000000Y-165000000D02*
G75*
G03*
X96600000Y-165400000I-1J-399999D01*
G01*
X88456174Y-121649395D02*
X88856174Y-120349395D01*
X102600000Y-59500000D02*
X102600000Y-58600000D01*
X99600000Y-60200000D02*
X99400000Y-60400000D01*
X142500000Y-49250000D02*
X143000000Y-50000000D01*
X104400000Y-166000000D02*
X103600000Y-166000000D01*
X122296174Y-125319395D02*
X123656174Y-124649395D01*
X116325000Y-49300000D02*
X116825000Y-50000000D01*
X103600000Y-167200000D02*
X104400000Y-166000000D01*
X131050000Y-147150000D02*
X131750000Y-147150000D01*
X93800000Y-166200000D02*
X94800000Y-165800000D01*
X101525000Y-79200000D02*
X100725000Y-80100000D01*
X71525000Y-79200000D02*
X70725000Y-80100000D01*
X99425000Y-79200000D02*
X99225000Y-79300000D01*
X69425000Y-79200000D02*
X69225000Y-79300000D01*
X113456174Y-120949395D02*
X113156174Y-120149395D01*
X136600000Y-59100000D02*
X137000000Y-59100000D01*
X137000000Y-59100000D02*
X137000000Y-59500000D01*
X137000000Y-59500000D02*
X136600000Y-59100000D01*
G36*
X137000000Y-59500000D02*
G01*
X136600000Y-59100000D01*
X137000000Y-59100000D01*
X137000000Y-59500000D01*
G37*
X137000000Y-59500000D02*
X136600000Y-59100000D01*
X137000000Y-59100000D01*
X137000000Y-59500000D01*
X102000000Y-101000000D02*
X106000000Y-101000000D01*
X98400000Y-59700000D02*
X97700000Y-58600000D01*
X131750000Y-147150000D02*
X132150000Y-147150000D01*
D12*
X112500000Y-109500000D02*
X117500000Y-109500000D01*
D11*
X95400000Y-167200000D02*
X96000000Y-167200000D01*
X133500000Y-80000000D02*
X135500000Y-80000000D01*
X141456174Y-121649395D02*
X141156174Y-121049395D01*
X71700000Y-58600000D02*
X70900000Y-60200000D01*
X106600000Y-79600000D02*
X107000000Y-79600000D01*
X107000000Y-79600000D02*
X107000000Y-80000000D01*
X107000000Y-80000000D02*
X106600000Y-79600000D01*
G36*
X107000000Y-80000000D02*
G01*
X106600000Y-79600000D01*
X107000000Y-79600000D01*
X107000000Y-80000000D01*
G37*
X107000000Y-80000000D02*
X106600000Y-79600000D01*
X107000000Y-79600000D01*
X107000000Y-80000000D01*
X68000000Y-101000000D02*
X64000000Y-101000000D01*
X130300000Y-60200000D02*
X130400000Y-60100000D01*
X120385165Y-147950000D02*
G75*
G03*
X120385165Y-147950000I-5385165J0D01*
G01*
X144500000Y-51300000D02*
G75*
G03*
X137000000Y-59100000I150000J-7650000D01*
G01*
X85300000Y-50000000D02*
X85200000Y-50000000D01*
X46600000Y-59100000D02*
X47000000Y-59100000D01*
X47000000Y-59100000D02*
X47000000Y-59500000D01*
X47000000Y-59500000D02*
X46600000Y-59100000D01*
G36*
X47000000Y-59500000D02*
G01*
X46600000Y-59100000D01*
X47000000Y-59100000D01*
X47000000Y-59500000D01*
G37*
X47000000Y-59500000D02*
X46600000Y-59100000D01*
X47000000Y-59100000D01*
X47000000Y-59500000D01*
X92296174Y-125319395D02*
X93656174Y-124649395D01*
X154356174Y-126349395D02*
X152856174Y-126849395D01*
X128300000Y-128300000D02*
X129100000Y-130000000D01*
X131525000Y-79200000D02*
X131625000Y-79300000D01*
X53456174Y-120949395D02*
X53156174Y-120149395D01*
X90856174Y-123349395D02*
X91856174Y-122149395D01*
X72200000Y-60200000D02*
X72400000Y-60100000D01*
D12*
X82500000Y-109500000D02*
X87500000Y-109500000D01*
D11*
X76600000Y-79600000D02*
X77000000Y-79600000D01*
X77000000Y-79600000D02*
X77000000Y-80000000D01*
X77000000Y-80000000D02*
X76600000Y-79600000D01*
G36*
X77000000Y-80000000D02*
G01*
X76600000Y-79600000D01*
X77000000Y-79600000D01*
X77000000Y-80000000D01*
G37*
X77000000Y-80000000D02*
X76600000Y-79600000D01*
X77000000Y-79600000D01*
X77000000Y-80000000D01*
X114325000Y-48800000D02*
X113525000Y-48400000D01*
X100900000Y-128300000D02*
X100800000Y-128300000D01*
X152296174Y-125319395D02*
X153656174Y-124649395D01*
X83500000Y-49200000D02*
X84300000Y-48800000D01*
X123000000Y-59500000D02*
X123000000Y-59100000D01*
X123000000Y-59100000D02*
X123400000Y-59100000D01*
X123400000Y-59100000D02*
X123000000Y-59500000D01*
G36*
X123000000Y-59500000D02*
G01*
X123000000Y-59100000D01*
X123400000Y-59100000D01*
X123000000Y-59500000D01*
G37*
X123000000Y-59500000D02*
X123000000Y-59100000D01*
X123400000Y-59100000D01*
X123000000Y-59500000D01*
X96600000Y-167200000D02*
X97800000Y-167200000D01*
X113525000Y-50000000D02*
X114325000Y-49500000D01*
D14*
%LPC*%
D13*
X147500000Y-115000000D02*
X142500000Y-115000000D01*
X142500000Y-115000000D02*
X142500000Y-110000000D01*
X142500000Y-110000000D02*
X147500000Y-110000000D01*
X147500000Y-110000000D02*
X147500000Y-115000000D01*
G36*
X147500000Y-115000000D02*
G01*
X142500000Y-115000000D01*
X142500000Y-110000000D01*
X147500000Y-110000000D01*
X147500000Y-115000000D01*
G37*
X147500000Y-115000000D02*
X142500000Y-115000000D01*
X142500000Y-110000000D01*
X147500000Y-110000000D01*
X147500000Y-115000000D01*
X87500000Y-115000000D02*
X82500000Y-115000000D01*
X82500000Y-115000000D02*
X82500000Y-110000000D01*
X82500000Y-110000000D02*
X87500000Y-110000000D01*
X87500000Y-110000000D02*
X87500000Y-115000000D01*
G36*
X87500000Y-115000000D02*
G01*
X82500000Y-115000000D01*
X82500000Y-110000000D01*
X87500000Y-110000000D01*
X87500000Y-115000000D01*
G37*
X87500000Y-115000000D02*
X82500000Y-115000000D01*
X82500000Y-110000000D01*
X87500000Y-110000000D01*
X87500000Y-115000000D01*
X117500000Y-115000000D02*
X112500000Y-115000000D01*
X112500000Y-115000000D02*
X112500000Y-110000000D01*
X112500000Y-110000000D02*
X117500000Y-110000000D01*
X117500000Y-110000000D02*
X117500000Y-115000000D01*
G36*
X117500000Y-115000000D02*
G01*
X112500000Y-115000000D01*
X112500000Y-110000000D01*
X117500000Y-110000000D01*
X117500000Y-115000000D01*
G37*
X117500000Y-115000000D02*
X112500000Y-115000000D01*
X112500000Y-110000000D01*
X117500000Y-110000000D01*
X117500000Y-115000000D01*
X57500000Y-115000000D02*
X52500000Y-115000000D01*
X52500000Y-115000000D02*
X52500000Y-110000000D01*
X52500000Y-110000000D02*
X57500000Y-110000000D01*
X57500000Y-110000000D02*
X57500000Y-115000000D01*
G36*
X57500000Y-115000000D02*
G01*
X52500000Y-115000000D01*
X52500000Y-110000000D01*
X57500000Y-110000000D01*
X57500000Y-115000000D01*
G37*
X57500000Y-115000000D02*
X52500000Y-115000000D01*
X52500000Y-110000000D01*
X57500000Y-110000000D01*
X57500000Y-115000000D01*
D15*
X148000000Y-168500000D03*
X66000000Y-46500000D03*
X134000000Y-46500000D03*
X52000000Y-168500000D03*
M02*
