M48
; DRILL file {KiCad (6.0.1)} date Mon Sep 12 08:21:25 2022
; FORMAT={-:-/ absolute / metric / decimal}
; #@! TF.CreationDate,2022-09-12T08:21:25+02:00
; #@! TF.GenerationSoftware,Kicad,Pcbnew,(6.0.1)
; #@! TF.FileFunction,Plated,1,2,PTH
FMAT,2
METRIC
; #@! TA.AperFunction,Plated,PTH,ComponentDrill
T1C3.000
; #@! TA.AperFunction,Plated,PTH,ViaDrill
T2C5.700
; #@! TA.AperFunction,Plated,PTH,ViaDrill
T3C6.200
; #@! TA.AperFunction,Plated,PTH,ViaDrill
T4C6.800
%
G90
G05
T2
X74.75Y-100.5
X104.75Y-100.5
X134.75Y-100.5
X164.75Y-100.5
T3
X74.742Y-84.989
X104.739Y-84.993
X134.75Y-85.0
X164.75Y-85.0
X168.75Y-140.498
T4
X74.728Y-63.972
X74.735Y-43.498
X74.75Y-118.0
X104.745Y-63.999
X104.745Y-117.996
X104.749Y-43.491
X134.74Y-117.997
X134.743Y-43.499
X134.748Y-63.996
X164.735Y-117.999
X164.737Y-43.498
X164.749Y-63.998
T1
X66.0Y-30.5G85X68.5Y-30.5
G05
X66.0Y-152.5G85X68.5Y-152.5
G05
X171.0Y-30.5G85X173.5Y-30.5
G05
X171.0Y-152.5G85X173.5Y-152.5
G05
T0
M30
