M48
; DRILL file {KiCad (6.0.0)} date Thu Jul  7 20:20:37 2022
; FORMAT={-:-/ absolute / metric / decimal}
; #@! TF.CreationDate,2022-07-07T20:20:37+01:00
; #@! TF.GenerationSoftware,Kicad,Pcbnew,(6.0.0)
; #@! TF.FileFunction,Plated,1,2,PTH
FMAT,2
METRIC
; #@! TA.AperFunction,Plated,PTH,ComponentDrill
T1C3.000
; #@! TA.AperFunction,Plated,PTH,ViaDrill
T2C6.200
; #@! TA.AperFunction,Plated,PTH,ViaDrill
T3C6.800
%
G90
G05
T2
X54.992Y-100.989
X55.1Y-147.95
X84.989Y-100.993
X85.0Y-147.992
X114.998Y-147.998
X115.0Y-101.0
X144.993Y-147.992
X145.0Y-101.0
T3
X54.978Y-79.972
X54.985Y-59.498
X55.0Y-129.0
X84.995Y-79.999
X84.995Y-128.996
X84.999Y-59.491
X114.99Y-128.997
X114.993Y-59.499
X114.998Y-79.996
X144.985Y-128.999
X144.987Y-59.498
X144.999Y-79.998
T1
X50.75Y-168.5G85X53.25Y-168.5
G05
X64.75Y-46.5G85X67.25Y-46.5
G05
X132.75Y-46.5G85X135.25Y-46.5
G05
X146.75Y-168.5G85X149.25Y-168.5
G05
T0
M30
