G04 #@! TF.GenerationSoftware,KiCad,Pcbnew,(6.0.6)*
G04 #@! TF.CreationDate,2022-10-26T13:54:03+02:00*
G04 #@! TF.ProjectId,MS20-VCF,4d533230-2d56-4434-962e-6b696361645f,rev?*
G04 #@! TF.SameCoordinates,Original*
G04 #@! TF.FileFunction,Legend,Bot*
G04 #@! TF.FilePolarity,Positive*
%FSLAX46Y46*%
G04 Gerber Fmt 4.6, Leading zero omitted, Abs format (unit mm)*
G04 Created by KiCad (PCBNEW (6.0.6)) date 2022-10-26 13:54:03*
%MOMM*%
%LPD*%
G01*
G04 APERTURE LIST*
G04 Aperture macros list*
%AMRoundRect*
0 Rectangle with rounded corners*
0 $1 Rounding radius*
0 $2 $3 $4 $5 $6 $7 $8 $9 X,Y pos of 4 corners*
0 Add a 4 corners polygon primitive as box body*
4,1,4,$2,$3,$4,$5,$6,$7,$8,$9,$2,$3,0*
0 Add four circle primitives for the rounded corners*
1,1,$1+$1,$2,$3*
1,1,$1+$1,$4,$5*
1,1,$1+$1,$6,$7*
1,1,$1+$1,$8,$9*
0 Add four rect primitives between the rounded corners*
20,1,$1+$1,$2,$3,$4,$5,0*
20,1,$1+$1,$4,$5,$6,$7,0*
20,1,$1+$1,$6,$7,$8,$9,0*
20,1,$1+$1,$8,$9,$2,$3,0*%
G04 Aperture macros list end*
G04 #@! TA.AperFunction,Profile*
%ADD10C,0.050000*%
G04 #@! TD*
%ADD11C,0.300000*%
%ADD12C,0.150000*%
%ADD13C,0.120000*%
%ADD14C,1.600000*%
%ADD15C,4.000000*%
%ADD16C,1.800000*%
%ADD17R,1.600000X1.600000*%
%ADD18O,1.600000X1.600000*%
%ADD19R,1.930000X1.830000*%
%ADD20C,2.130000*%
%ADD21R,1.500000X1.500000*%
%ADD22C,1.500000*%
%ADD23O,3.700000X2.400000*%
%ADD24R,1.800000X1.800000*%
%ADD25C,2.000000*%
%ADD26O,2.000000X2.000000*%
%ADD27RoundRect,0.250000X-0.600000X0.600000X-0.600000X-0.600000X0.600000X-0.600000X0.600000X0.600000X0*%
%ADD28C,1.700000*%
%ADD29C,1.440000*%
%ADD30RoundRect,0.150000X-0.825000X-0.150000X0.825000X-0.150000X0.825000X0.150000X-0.825000X0.150000X0*%
G04 APERTURE END LIST*
D10*
X85000000Y-36500000D02*
X85000000Y-146500000D01*
X35000000Y-36500000D02*
X85000000Y-36500000D01*
X35000000Y-36500000D02*
X35000000Y-146500000D01*
X35000000Y-146500000D02*
X85000000Y-146500000D01*
D11*
X82928571Y-123571428D02*
X84000000Y-123571428D01*
X84214285Y-123500000D01*
X84357142Y-123357142D01*
X84428571Y-123142857D01*
X84428571Y-123000000D01*
X84428571Y-125000000D02*
X84428571Y-124285714D01*
X82928571Y-124285714D01*
X84285714Y-126357142D02*
X84357142Y-126285714D01*
X84428571Y-126071428D01*
X84428571Y-125928571D01*
X84357142Y-125714285D01*
X84214285Y-125571428D01*
X84071428Y-125500000D01*
X83785714Y-125428571D01*
X83571428Y-125428571D01*
X83285714Y-125500000D01*
X83142857Y-125571428D01*
X83000000Y-125714285D01*
X82928571Y-125928571D01*
X82928571Y-126071428D01*
X83000000Y-126285714D01*
X83071428Y-126357142D01*
X82928571Y-127428571D02*
X84000000Y-127428571D01*
X84214285Y-127357142D01*
X84357142Y-127214285D01*
X84428571Y-127000000D01*
X84428571Y-126857142D01*
X84428571Y-128857142D02*
X84428571Y-128142857D01*
X82928571Y-128142857D01*
X84285714Y-130214285D02*
X84357142Y-130142857D01*
X84428571Y-129928571D01*
X84428571Y-129785714D01*
X84357142Y-129571428D01*
X84214285Y-129428571D01*
X84071428Y-129357142D01*
X83785714Y-129285714D01*
X83571428Y-129285714D01*
X83285714Y-129357142D01*
X83142857Y-129428571D01*
X83000000Y-129571428D01*
X82928571Y-129785714D01*
X82928571Y-129928571D01*
X83000000Y-130142857D01*
X83071428Y-130214285D01*
X82928571Y-131285714D02*
X84000000Y-131285714D01*
X84214285Y-131214285D01*
X84357142Y-131071428D01*
X84428571Y-130857142D01*
X84428571Y-130714285D01*
X84428571Y-132714285D02*
X84428571Y-132000000D01*
X82928571Y-132000000D01*
X84285714Y-134071428D02*
X84357142Y-134000000D01*
X84428571Y-133785714D01*
X84428571Y-133642857D01*
X84357142Y-133428571D01*
X84214285Y-133285714D01*
X84071428Y-133214285D01*
X83785714Y-133142857D01*
X83571428Y-133142857D01*
X83285714Y-133214285D01*
X83142857Y-133285714D01*
X83000000Y-133428571D01*
X82928571Y-133642857D01*
X82928571Y-133785714D01*
X83000000Y-134000000D01*
X83071428Y-134071428D01*
X82928571Y-135142857D02*
X84000000Y-135142857D01*
X84214285Y-135071428D01*
X84357142Y-134928571D01*
X84428571Y-134714285D01*
X84428571Y-134571428D01*
X84428571Y-136571428D02*
X84428571Y-135857142D01*
X82928571Y-135857142D01*
X84285714Y-137928571D02*
X84357142Y-137857142D01*
X84428571Y-137642857D01*
X84428571Y-137500000D01*
X84357142Y-137285714D01*
X84214285Y-137142857D01*
X84071428Y-137071428D01*
X83785714Y-137000000D01*
X83571428Y-137000000D01*
X83285714Y-137071428D01*
X83142857Y-137142857D01*
X83000000Y-137285714D01*
X82928571Y-137500000D01*
X82928571Y-137642857D01*
X83000000Y-137857142D01*
X83071428Y-137928571D01*
D12*
X64616666Y-133657142D02*
X64664285Y-133704761D01*
X64807142Y-133752380D01*
X64902380Y-133752380D01*
X65045238Y-133704761D01*
X65140476Y-133609523D01*
X65188095Y-133514285D01*
X65235714Y-133323809D01*
X65235714Y-133180952D01*
X65188095Y-132990476D01*
X65140476Y-132895238D01*
X65045238Y-132800000D01*
X64902380Y-132752380D01*
X64807142Y-132752380D01*
X64664285Y-132800000D01*
X64616666Y-132847619D01*
X64235714Y-132847619D02*
X64188095Y-132800000D01*
X64092857Y-132752380D01*
X63854761Y-132752380D01*
X63759523Y-132800000D01*
X63711904Y-132847619D01*
X63664285Y-132942857D01*
X63664285Y-133038095D01*
X63711904Y-133180952D01*
X64283333Y-133752380D01*
X63664285Y-133752380D01*
X55711553Y-126857142D02*
X55759172Y-126904761D01*
X55902029Y-126952380D01*
X55997267Y-126952380D01*
X56140125Y-126904761D01*
X56235363Y-126809523D01*
X56282982Y-126714285D01*
X56330601Y-126523809D01*
X56330601Y-126380952D01*
X56282982Y-126190476D01*
X56235363Y-126095238D01*
X56140125Y-126000000D01*
X55997267Y-125952380D01*
X55902029Y-125952380D01*
X55759172Y-126000000D01*
X55711553Y-126047619D01*
X55378220Y-125952380D02*
X54759172Y-125952380D01*
X55092506Y-126333333D01*
X54949648Y-126333333D01*
X54854410Y-126380952D01*
X54806791Y-126428571D01*
X54759172Y-126523809D01*
X54759172Y-126761904D01*
X54806791Y-126857142D01*
X54854410Y-126904761D01*
X54949648Y-126952380D01*
X55235363Y-126952380D01*
X55330601Y-126904761D01*
X55378220Y-126857142D01*
X52166666Y-81857142D02*
X52214285Y-81904761D01*
X52357142Y-81952380D01*
X52452380Y-81952380D01*
X52595238Y-81904761D01*
X52690476Y-81809523D01*
X52738095Y-81714285D01*
X52785714Y-81523809D01*
X52785714Y-81380952D01*
X52738095Y-81190476D01*
X52690476Y-81095238D01*
X52595238Y-81000000D01*
X52452380Y-80952380D01*
X52357142Y-80952380D01*
X52214285Y-81000000D01*
X52166666Y-81047619D01*
X51309523Y-80952380D02*
X51500000Y-80952380D01*
X51595238Y-81000000D01*
X51642857Y-81047619D01*
X51738095Y-81190476D01*
X51785714Y-81380952D01*
X51785714Y-81761904D01*
X51738095Y-81857142D01*
X51690476Y-81904761D01*
X51595238Y-81952380D01*
X51404761Y-81952380D01*
X51309523Y-81904761D01*
X51261904Y-81857142D01*
X51214285Y-81761904D01*
X51214285Y-81523809D01*
X51261904Y-81428571D01*
X51309523Y-81380952D01*
X51404761Y-81333333D01*
X51595238Y-81333333D01*
X51690476Y-81380952D01*
X51738095Y-81428571D01*
X51785714Y-81523809D01*
X82138095Y-140452380D02*
X82138095Y-139452380D01*
X81900000Y-139452380D01*
X81757142Y-139500000D01*
X81661904Y-139595238D01*
X81614285Y-139690476D01*
X81566666Y-139880952D01*
X81566666Y-140023809D01*
X81614285Y-140214285D01*
X81661904Y-140309523D01*
X81757142Y-140404761D01*
X81900000Y-140452380D01*
X82138095Y-140452380D01*
X80614285Y-140452380D02*
X81185714Y-140452380D01*
X80900000Y-140452380D02*
X80900000Y-139452380D01*
X80995238Y-139595238D01*
X81090476Y-139690476D01*
X81185714Y-139738095D01*
X55533333Y-132428571D02*
X55866666Y-132428571D01*
X55866666Y-132952380D02*
X55866666Y-131952380D01*
X55390476Y-131952380D01*
X54676190Y-132428571D02*
X54533333Y-132476190D01*
X54485714Y-132523809D01*
X54438095Y-132619047D01*
X54438095Y-132761904D01*
X54485714Y-132857142D01*
X54533333Y-132904761D01*
X54628571Y-132952380D01*
X55009523Y-132952380D01*
X55009523Y-131952380D01*
X54676190Y-131952380D01*
X54580952Y-132000000D01*
X54533333Y-132047619D01*
X54485714Y-132142857D01*
X54485714Y-132238095D01*
X54533333Y-132333333D01*
X54580952Y-132380952D01*
X54676190Y-132428571D01*
X55009523Y-132428571D01*
X54057142Y-132047619D02*
X54009523Y-132000000D01*
X53914285Y-131952380D01*
X53676190Y-131952380D01*
X53580952Y-132000000D01*
X53533333Y-132047619D01*
X53485714Y-132142857D01*
X53485714Y-132238095D01*
X53533333Y-132380952D01*
X54104761Y-132952380D01*
X53485714Y-132952380D01*
X60333333Y-135252380D02*
X60333333Y-135966666D01*
X60380952Y-136109523D01*
X60476190Y-136204761D01*
X60619047Y-136252380D01*
X60714285Y-136252380D01*
X59380952Y-135252380D02*
X59857142Y-135252380D01*
X59904761Y-135728571D01*
X59857142Y-135680952D01*
X59761904Y-135633333D01*
X59523809Y-135633333D01*
X59428571Y-135680952D01*
X59380952Y-135728571D01*
X59333333Y-135823809D01*
X59333333Y-136061904D01*
X59380952Y-136157142D01*
X59428571Y-136204761D01*
X59523809Y-136252380D01*
X59761904Y-136252380D01*
X59857142Y-136204761D01*
X59904761Y-136157142D01*
X79072380Y-39714285D02*
X78596190Y-39380952D01*
X79072380Y-39142857D02*
X78072380Y-39142857D01*
X78072380Y-39523809D01*
X78120000Y-39619047D01*
X78167619Y-39666666D01*
X78262857Y-39714285D01*
X78405714Y-39714285D01*
X78500952Y-39666666D01*
X78548571Y-39619047D01*
X78596190Y-39523809D01*
X78596190Y-39142857D01*
X79024761Y-40523809D02*
X79072380Y-40428571D01*
X79072380Y-40238095D01*
X79024761Y-40142857D01*
X78929523Y-40095238D01*
X78548571Y-40095238D01*
X78453333Y-40142857D01*
X78405714Y-40238095D01*
X78405714Y-40428571D01*
X78453333Y-40523809D01*
X78548571Y-40571428D01*
X78643809Y-40571428D01*
X78739047Y-40095238D01*
X79024761Y-40952380D02*
X79072380Y-41047619D01*
X79072380Y-41238095D01*
X79024761Y-41333333D01*
X78929523Y-41380952D01*
X78881904Y-41380952D01*
X78786666Y-41333333D01*
X78739047Y-41238095D01*
X78739047Y-41095238D01*
X78691428Y-41000000D01*
X78596190Y-40952380D01*
X78548571Y-40952380D01*
X78453333Y-41000000D01*
X78405714Y-41095238D01*
X78405714Y-41238095D01*
X78453333Y-41333333D01*
X79072380Y-42285714D02*
X79072380Y-41809523D01*
X78072380Y-41809523D01*
X78405714Y-42523809D02*
X79072380Y-42761904D01*
X78405714Y-43000000D01*
X79072380Y-43904761D02*
X79072380Y-43333333D01*
X79072380Y-43619047D02*
X78072380Y-43619047D01*
X78215238Y-43523809D01*
X78310476Y-43428571D01*
X78358095Y-43333333D01*
X78652380Y-49997142D02*
X78176190Y-49663809D01*
X78652380Y-49425714D02*
X77652380Y-49425714D01*
X77652380Y-49806666D01*
X77700000Y-49901904D01*
X77747619Y-49949523D01*
X77842857Y-49997142D01*
X77985714Y-49997142D01*
X78080952Y-49949523D01*
X78128571Y-49901904D01*
X78176190Y-49806666D01*
X78176190Y-49425714D01*
X78604761Y-50806666D02*
X78652380Y-50711428D01*
X78652380Y-50520952D01*
X78604761Y-50425714D01*
X78509523Y-50378095D01*
X78128571Y-50378095D01*
X78033333Y-50425714D01*
X77985714Y-50520952D01*
X77985714Y-50711428D01*
X78033333Y-50806666D01*
X78128571Y-50854285D01*
X78223809Y-50854285D01*
X78319047Y-50378095D01*
X78604761Y-51235238D02*
X78652380Y-51330476D01*
X78652380Y-51520952D01*
X78604761Y-51616190D01*
X78509523Y-51663809D01*
X78461904Y-51663809D01*
X78366666Y-51616190D01*
X78319047Y-51520952D01*
X78319047Y-51378095D01*
X78271428Y-51282857D01*
X78176190Y-51235238D01*
X78128571Y-51235238D01*
X78033333Y-51282857D01*
X77985714Y-51378095D01*
X77985714Y-51520952D01*
X78033333Y-51616190D01*
X77652380Y-51949523D02*
X78652380Y-52282857D01*
X77652380Y-52616190D01*
X78652380Y-53092380D02*
X78604761Y-52997142D01*
X78557142Y-52949523D01*
X78461904Y-52901904D01*
X78176190Y-52901904D01*
X78080952Y-52949523D01*
X78033333Y-52997142D01*
X77985714Y-53092380D01*
X77985714Y-53235238D01*
X78033333Y-53330476D01*
X78080952Y-53378095D01*
X78176190Y-53425714D01*
X78461904Y-53425714D01*
X78557142Y-53378095D01*
X78604761Y-53330476D01*
X78652380Y-53235238D01*
X78652380Y-53092380D01*
X78652380Y-53997142D02*
X78604761Y-53901904D01*
X78509523Y-53854285D01*
X77652380Y-53854285D01*
X78652380Y-54901904D02*
X78652380Y-54330476D01*
X78652380Y-54616190D02*
X77652380Y-54616190D01*
X77795238Y-54520952D01*
X77890476Y-54425714D01*
X77938095Y-54330476D01*
X77352380Y-137313333D02*
X76876190Y-136980000D01*
X77352380Y-136741904D02*
X76352380Y-136741904D01*
X76352380Y-137122857D01*
X76400000Y-137218095D01*
X76447619Y-137265714D01*
X76542857Y-137313333D01*
X76685714Y-137313333D01*
X76780952Y-137265714D01*
X76828571Y-137218095D01*
X76876190Y-137122857D01*
X76876190Y-136741904D01*
X76685714Y-138170476D02*
X77352380Y-138170476D01*
X76304761Y-137932380D02*
X77019047Y-137694285D01*
X77019047Y-138313333D01*
X72928571Y-137866666D02*
X72928571Y-137533333D01*
X73452380Y-137533333D02*
X72452380Y-137533333D01*
X72452380Y-138009523D01*
X72928571Y-138723809D02*
X72976190Y-138866666D01*
X73023809Y-138914285D01*
X73119047Y-138961904D01*
X73261904Y-138961904D01*
X73357142Y-138914285D01*
X73404761Y-138866666D01*
X73452380Y-138771428D01*
X73452380Y-138390476D01*
X72452380Y-138390476D01*
X72452380Y-138723809D01*
X72500000Y-138819047D01*
X72547619Y-138866666D01*
X72642857Y-138914285D01*
X72738095Y-138914285D01*
X72833333Y-138866666D01*
X72880952Y-138819047D01*
X72928571Y-138723809D01*
X72928571Y-138390476D01*
X73452380Y-139914285D02*
X73452380Y-139342857D01*
X73452380Y-139628571D02*
X72452380Y-139628571D01*
X72595238Y-139533333D01*
X72690476Y-139438095D01*
X72738095Y-139342857D01*
X46761904Y-81352380D02*
X46761904Y-82161904D01*
X46714285Y-82257142D01*
X46666666Y-82304761D01*
X46571428Y-82352380D01*
X46380952Y-82352380D01*
X46285714Y-82304761D01*
X46238095Y-82257142D01*
X46190476Y-82161904D01*
X46190476Y-81352380D01*
X45190476Y-82352380D02*
X45761904Y-82352380D01*
X45476190Y-82352380D02*
X45476190Y-81352380D01*
X45571428Y-81495238D01*
X45666666Y-81590476D01*
X45761904Y-81638095D01*
X49666666Y-86357142D02*
X49714285Y-86404761D01*
X49857142Y-86452380D01*
X49952380Y-86452380D01*
X50095238Y-86404761D01*
X50190476Y-86309523D01*
X50238095Y-86214285D01*
X50285714Y-86023809D01*
X50285714Y-85880952D01*
X50238095Y-85690476D01*
X50190476Y-85595238D01*
X50095238Y-85500000D01*
X49952380Y-85452380D01*
X49857142Y-85452380D01*
X49714285Y-85500000D01*
X49666666Y-85547619D01*
X48761904Y-85452380D02*
X49238095Y-85452380D01*
X49285714Y-85928571D01*
X49238095Y-85880952D01*
X49142857Y-85833333D01*
X48904761Y-85833333D01*
X48809523Y-85880952D01*
X48761904Y-85928571D01*
X48714285Y-86023809D01*
X48714285Y-86261904D01*
X48761904Y-86357142D01*
X48809523Y-86404761D01*
X48904761Y-86452380D01*
X49142857Y-86452380D01*
X49238095Y-86404761D01*
X49285714Y-86357142D01*
X53857142Y-76433333D02*
X53904761Y-76385714D01*
X53952380Y-76242857D01*
X53952380Y-76147619D01*
X53904761Y-76004761D01*
X53809523Y-75909523D01*
X53714285Y-75861904D01*
X53523809Y-75814285D01*
X53380952Y-75814285D01*
X53190476Y-75861904D01*
X53095238Y-75909523D01*
X53000000Y-76004761D01*
X52952380Y-76147619D01*
X52952380Y-76242857D01*
X53000000Y-76385714D01*
X53047619Y-76433333D01*
X53952380Y-76909523D02*
X53952380Y-77100000D01*
X53904761Y-77195238D01*
X53857142Y-77242857D01*
X53714285Y-77338095D01*
X53523809Y-77385714D01*
X53142857Y-77385714D01*
X53047619Y-77338095D01*
X53000000Y-77290476D01*
X52952380Y-77195238D01*
X52952380Y-77004761D01*
X53000000Y-76909523D01*
X53047619Y-76861904D01*
X53142857Y-76814285D01*
X53380952Y-76814285D01*
X53476190Y-76861904D01*
X53523809Y-76909523D01*
X53571428Y-77004761D01*
X53571428Y-77195238D01*
X53523809Y-77290476D01*
X53476190Y-77338095D01*
X53380952Y-77385714D01*
X38557142Y-75957142D02*
X38604761Y-75909523D01*
X38652380Y-75766666D01*
X38652380Y-75671428D01*
X38604761Y-75528571D01*
X38509523Y-75433333D01*
X38414285Y-75385714D01*
X38223809Y-75338095D01*
X38080952Y-75338095D01*
X37890476Y-75385714D01*
X37795238Y-75433333D01*
X37700000Y-75528571D01*
X37652380Y-75671428D01*
X37652380Y-75766666D01*
X37700000Y-75909523D01*
X37747619Y-75957142D01*
X38652380Y-76909523D02*
X38652380Y-76338095D01*
X38652380Y-76623809D02*
X37652380Y-76623809D01*
X37795238Y-76528571D01*
X37890476Y-76433333D01*
X37938095Y-76338095D01*
X37652380Y-77528571D02*
X37652380Y-77623809D01*
X37700000Y-77719047D01*
X37747619Y-77766666D01*
X37842857Y-77814285D01*
X38033333Y-77861904D01*
X38271428Y-77861904D01*
X38461904Y-77814285D01*
X38557142Y-77766666D01*
X38604761Y-77719047D01*
X38652380Y-77623809D01*
X38652380Y-77528571D01*
X38604761Y-77433333D01*
X38557142Y-77385714D01*
X38461904Y-77338095D01*
X38271428Y-77290476D01*
X38033333Y-77290476D01*
X37842857Y-77338095D01*
X37747619Y-77385714D01*
X37700000Y-77433333D01*
X37652380Y-77528571D01*
D13*
X66534112Y-132040000D02*
X66534112Y-133414000D01*
X66174112Y-132040000D02*
X66174112Y-133247000D01*
X66654112Y-128545000D02*
X66654112Y-129960000D01*
X65494112Y-129301000D02*
X65494112Y-129960000D01*
X70009887Y-129275000D02*
X70009887Y-129775000D01*
X67255112Y-128427000D02*
X67255112Y-129960000D01*
X66014112Y-132040000D02*
X66014112Y-133149000D01*
X65094112Y-129902000D02*
X65094112Y-132098000D01*
X65374112Y-129446000D02*
X65374112Y-132554000D01*
X66374112Y-128652000D02*
X66374112Y-129960000D01*
X64974112Y-130195000D02*
X64974112Y-131805000D01*
X66855112Y-128489000D02*
X66855112Y-129960000D01*
X66614112Y-128558000D02*
X66614112Y-129960000D01*
X67015112Y-128457000D02*
X67015112Y-129960000D01*
X65534112Y-129257000D02*
X65534112Y-129960000D01*
X64894112Y-130482000D02*
X64894112Y-131518000D01*
X65454112Y-129347000D02*
X65454112Y-129960000D01*
X65574112Y-132040000D02*
X65574112Y-132785000D01*
X67015112Y-132040000D02*
X67015112Y-133543000D01*
X67455112Y-128420000D02*
X67455112Y-129960000D01*
X66454112Y-128618000D02*
X66454112Y-129960000D01*
X66294112Y-128690000D02*
X66294112Y-129960000D01*
X67095112Y-132040000D02*
X67095112Y-133556000D01*
X65454112Y-132040000D02*
X65454112Y-132653000D01*
X65254112Y-129617000D02*
X65254112Y-132383000D01*
X65854112Y-128965000D02*
X65854112Y-129960000D01*
X67415112Y-128420000D02*
X67415112Y-129960000D01*
X67415112Y-132040000D02*
X67415112Y-133580000D01*
X65294112Y-129557000D02*
X65294112Y-132443000D01*
X66254112Y-128710000D02*
X66254112Y-129960000D01*
X67295112Y-132040000D02*
X67295112Y-133576000D01*
X66334112Y-128671000D02*
X66334112Y-129960000D01*
X65534112Y-132040000D02*
X65534112Y-132743000D01*
X66815112Y-128499000D02*
X66815112Y-129960000D01*
X67295112Y-128424000D02*
X67295112Y-129960000D01*
X66574112Y-128572000D02*
X66574112Y-129960000D01*
X65774112Y-132040000D02*
X65774112Y-132971000D01*
X65334112Y-129500000D02*
X65334112Y-132500000D01*
X66895112Y-128480000D02*
X66895112Y-129960000D01*
X66895112Y-132040000D02*
X66895112Y-133520000D01*
X67215112Y-132040000D02*
X67215112Y-133569000D01*
X66775112Y-132040000D02*
X66775112Y-133491000D01*
X66374112Y-132040000D02*
X66374112Y-133348000D01*
X67175112Y-132040000D02*
X67175112Y-133565000D01*
X66134112Y-128776000D02*
X66134112Y-129960000D01*
X65934112Y-128905000D02*
X65934112Y-129960000D01*
X66134112Y-132040000D02*
X66134112Y-133224000D01*
X64854112Y-130716000D02*
X64854112Y-131284000D01*
X67055112Y-132040000D02*
X67055112Y-133550000D01*
X67335112Y-128422000D02*
X67335112Y-129960000D01*
X66734112Y-132040000D02*
X66734112Y-133480000D01*
X66694112Y-128532000D02*
X66694112Y-129960000D01*
X66054112Y-128825000D02*
X66054112Y-129960000D01*
X67135112Y-128439000D02*
X67135112Y-129960000D01*
X67375112Y-128421000D02*
X67375112Y-129960000D01*
X66654112Y-132040000D02*
X66654112Y-133455000D01*
X65174112Y-129749000D02*
X65174112Y-132251000D01*
X66014112Y-128851000D02*
X66014112Y-129960000D01*
X66174112Y-128753000D02*
X66174112Y-129960000D01*
X65134112Y-129822000D02*
X65134112Y-132178000D01*
X65774112Y-129029000D02*
X65774112Y-129960000D01*
X66414112Y-132040000D02*
X66414112Y-133365000D01*
X65894112Y-128935000D02*
X65894112Y-129960000D01*
X65694112Y-132040000D02*
X65694112Y-132901000D01*
X66414112Y-128635000D02*
X66414112Y-129960000D01*
X66935112Y-132040000D02*
X66935112Y-133528000D01*
X67255112Y-132040000D02*
X67255112Y-133573000D01*
X66094112Y-128800000D02*
X66094112Y-129960000D01*
X65214112Y-129681000D02*
X65214112Y-132319000D01*
X66214112Y-128732000D02*
X66214112Y-129960000D01*
X65654112Y-129136000D02*
X65654112Y-129960000D01*
X66494112Y-132040000D02*
X66494112Y-133398000D01*
X65614112Y-132040000D02*
X65614112Y-132826000D01*
X66454112Y-132040000D02*
X66454112Y-133382000D01*
X66815112Y-132040000D02*
X66815112Y-133501000D01*
X66574112Y-132040000D02*
X66574112Y-133428000D01*
X67095112Y-128444000D02*
X67095112Y-129960000D01*
X67135112Y-132040000D02*
X67135112Y-133561000D01*
X65494112Y-132040000D02*
X65494112Y-132699000D01*
X67055112Y-128450000D02*
X67055112Y-129960000D01*
X67335112Y-132040000D02*
X67335112Y-133578000D01*
X67455112Y-132040000D02*
X67455112Y-133580000D01*
X66334112Y-132040000D02*
X66334112Y-133329000D01*
X65614112Y-129174000D02*
X65614112Y-129960000D01*
X65934112Y-132040000D02*
X65934112Y-133095000D01*
X65894112Y-132040000D02*
X65894112Y-133065000D01*
X66054112Y-132040000D02*
X66054112Y-133175000D01*
X65974112Y-128878000D02*
X65974112Y-129960000D01*
X65974112Y-132040000D02*
X65974112Y-133122000D01*
X66094112Y-132040000D02*
X66094112Y-133200000D01*
X65854112Y-132040000D02*
X65854112Y-133035000D01*
X66855112Y-132040000D02*
X66855112Y-133511000D01*
X66214112Y-132040000D02*
X66214112Y-133268000D01*
X65574112Y-129215000D02*
X65574112Y-129960000D01*
X66734112Y-128520000D02*
X66734112Y-129960000D01*
X65414112Y-129395000D02*
X65414112Y-132605000D01*
X66494112Y-128602000D02*
X66494112Y-129960000D01*
X65054112Y-129989000D02*
X65054112Y-132011000D01*
X66975112Y-128464000D02*
X66975112Y-129960000D01*
X65814112Y-128996000D02*
X65814112Y-129960000D01*
X70259887Y-129525000D02*
X69759887Y-129525000D01*
X65654112Y-132040000D02*
X65654112Y-132864000D01*
X67175112Y-128435000D02*
X67175112Y-129960000D01*
X65734112Y-129063000D02*
X65734112Y-129960000D01*
X66254112Y-132040000D02*
X66254112Y-133290000D01*
X65734112Y-132040000D02*
X65734112Y-132937000D01*
X65014112Y-130085000D02*
X65014112Y-131915000D01*
X64934112Y-130323000D02*
X64934112Y-131677000D01*
X65814112Y-132040000D02*
X65814112Y-133004000D01*
X66935112Y-128472000D02*
X66935112Y-129960000D01*
X67215112Y-128431000D02*
X67215112Y-129960000D01*
X67375112Y-132040000D02*
X67375112Y-133579000D01*
X66534112Y-128586000D02*
X66534112Y-129960000D01*
X66614112Y-132040000D02*
X66614112Y-133442000D01*
X66975112Y-132040000D02*
X66975112Y-133536000D01*
X66694112Y-132040000D02*
X66694112Y-133468000D01*
X66294112Y-132040000D02*
X66294112Y-133310000D01*
X66775112Y-128509000D02*
X66775112Y-129960000D01*
X65694112Y-129099000D02*
X65694112Y-129960000D01*
X70075112Y-131000000D02*
G75*
G03*
X70075112Y-131000000I-2620000J0D01*
G01*
X51099000Y-125040000D02*
X51099000Y-126175000D01*
X52500000Y-125040000D02*
X52500000Y-126580000D01*
X50299000Y-122617000D02*
X50299000Y-125383000D01*
X52380000Y-121422000D02*
X52380000Y-122960000D01*
X52300000Y-121427000D02*
X52300000Y-122960000D01*
X51579000Y-125040000D02*
X51579000Y-126414000D01*
X50859000Y-121996000D02*
X50859000Y-122960000D01*
X50259000Y-122681000D02*
X50259000Y-125319000D01*
X50939000Y-125040000D02*
X50939000Y-126065000D01*
X50699000Y-122136000D02*
X50699000Y-122960000D01*
X49939000Y-123482000D02*
X49939000Y-124518000D01*
X51900000Y-125040000D02*
X51900000Y-126511000D01*
X51179000Y-121776000D02*
X51179000Y-122960000D01*
X50139000Y-122902000D02*
X50139000Y-125098000D01*
X51659000Y-121558000D02*
X51659000Y-122960000D01*
X51299000Y-125040000D02*
X51299000Y-126290000D01*
X51259000Y-121732000D02*
X51259000Y-122960000D01*
X52380000Y-125040000D02*
X52380000Y-126578000D01*
X50499000Y-122347000D02*
X50499000Y-122960000D01*
X51860000Y-121499000D02*
X51860000Y-122960000D01*
X50979000Y-125040000D02*
X50979000Y-126095000D01*
X50819000Y-125040000D02*
X50819000Y-125971000D01*
X50059000Y-123085000D02*
X50059000Y-124915000D01*
X51139000Y-125040000D02*
X51139000Y-126200000D01*
X50899000Y-121965000D02*
X50899000Y-122960000D01*
X52420000Y-125040000D02*
X52420000Y-126579000D01*
X50859000Y-125040000D02*
X50859000Y-126004000D01*
X50499000Y-125040000D02*
X50499000Y-125653000D01*
X52460000Y-125040000D02*
X52460000Y-126580000D01*
X52460000Y-121420000D02*
X52460000Y-122960000D01*
X51779000Y-121520000D02*
X51779000Y-122960000D01*
X51019000Y-125040000D02*
X51019000Y-126122000D01*
X50379000Y-122500000D02*
X50379000Y-125500000D01*
X50739000Y-125040000D02*
X50739000Y-125901000D01*
X52180000Y-121439000D02*
X52180000Y-122960000D01*
X51379000Y-125040000D02*
X51379000Y-126329000D01*
X50779000Y-122063000D02*
X50779000Y-122960000D01*
X51820000Y-121509000D02*
X51820000Y-122960000D01*
X50219000Y-122749000D02*
X50219000Y-125251000D01*
X50939000Y-121935000D02*
X50939000Y-122960000D01*
X51659000Y-125040000D02*
X51659000Y-126442000D01*
X50899000Y-125040000D02*
X50899000Y-126035000D01*
X50739000Y-122099000D02*
X50739000Y-122960000D01*
X50819000Y-122029000D02*
X50819000Y-122960000D01*
X51900000Y-121489000D02*
X51900000Y-122960000D01*
X52260000Y-121431000D02*
X52260000Y-122960000D01*
X50099000Y-122989000D02*
X50099000Y-125011000D01*
X52340000Y-125040000D02*
X52340000Y-126576000D01*
X49899000Y-123716000D02*
X49899000Y-124284000D01*
X52060000Y-125040000D02*
X52060000Y-126543000D01*
X52220000Y-125040000D02*
X52220000Y-126565000D01*
X55304775Y-122525000D02*
X54804775Y-122525000D01*
X51739000Y-121532000D02*
X51739000Y-122960000D01*
X50019000Y-123195000D02*
X50019000Y-124805000D01*
X50619000Y-125040000D02*
X50619000Y-125785000D01*
X51699000Y-125040000D02*
X51699000Y-126455000D01*
X52140000Y-121444000D02*
X52140000Y-122960000D01*
X51219000Y-121753000D02*
X51219000Y-122960000D01*
X50659000Y-122174000D02*
X50659000Y-122960000D01*
X50699000Y-125040000D02*
X50699000Y-125864000D01*
X51019000Y-121878000D02*
X51019000Y-122960000D01*
X50659000Y-125040000D02*
X50659000Y-125826000D01*
X50579000Y-125040000D02*
X50579000Y-125743000D01*
X51459000Y-125040000D02*
X51459000Y-126365000D01*
X52500000Y-121420000D02*
X52500000Y-122960000D01*
X51739000Y-125040000D02*
X51739000Y-126468000D01*
X52100000Y-121450000D02*
X52100000Y-122960000D01*
X51299000Y-121710000D02*
X51299000Y-122960000D01*
X52060000Y-121457000D02*
X52060000Y-122960000D01*
X51459000Y-121635000D02*
X51459000Y-122960000D01*
X51259000Y-125040000D02*
X51259000Y-126268000D01*
X55054775Y-122275000D02*
X55054775Y-122775000D01*
X51940000Y-125040000D02*
X51940000Y-126520000D01*
X52180000Y-125040000D02*
X52180000Y-126561000D01*
X52140000Y-125040000D02*
X52140000Y-126556000D01*
X51419000Y-125040000D02*
X51419000Y-126348000D01*
X51579000Y-121586000D02*
X51579000Y-122960000D01*
X50539000Y-122301000D02*
X50539000Y-122960000D01*
X50339000Y-122557000D02*
X50339000Y-125443000D01*
X50539000Y-125040000D02*
X50539000Y-125699000D01*
X50179000Y-122822000D02*
X50179000Y-125178000D01*
X51499000Y-121618000D02*
X51499000Y-122960000D01*
X51059000Y-125040000D02*
X51059000Y-126149000D01*
X51059000Y-121851000D02*
X51059000Y-122960000D01*
X50619000Y-122215000D02*
X50619000Y-122960000D01*
X52300000Y-125040000D02*
X52300000Y-126573000D01*
X51940000Y-121480000D02*
X51940000Y-122960000D01*
X50579000Y-122257000D02*
X50579000Y-122960000D01*
X51619000Y-125040000D02*
X51619000Y-126428000D01*
X51419000Y-121652000D02*
X51419000Y-122960000D01*
X51539000Y-121602000D02*
X51539000Y-122960000D01*
X50459000Y-122395000D02*
X50459000Y-125605000D01*
X51820000Y-125040000D02*
X51820000Y-126491000D01*
X52420000Y-121421000D02*
X52420000Y-122960000D01*
X52340000Y-121424000D02*
X52340000Y-122960000D01*
X49979000Y-123323000D02*
X49979000Y-124677000D01*
X50779000Y-125040000D02*
X50779000Y-125937000D01*
X51980000Y-121472000D02*
X51980000Y-122960000D01*
X51099000Y-121825000D02*
X51099000Y-122960000D01*
X51339000Y-125040000D02*
X51339000Y-126310000D01*
X52220000Y-121435000D02*
X52220000Y-122960000D01*
X51860000Y-125040000D02*
X51860000Y-126501000D01*
X52020000Y-125040000D02*
X52020000Y-126536000D01*
X52020000Y-121464000D02*
X52020000Y-122960000D01*
X52100000Y-125040000D02*
X52100000Y-126550000D01*
X50419000Y-122446000D02*
X50419000Y-125554000D01*
X51139000Y-121800000D02*
X51139000Y-122960000D01*
X51379000Y-121671000D02*
X51379000Y-122960000D01*
X51779000Y-125040000D02*
X51779000Y-126480000D01*
X52260000Y-125040000D02*
X52260000Y-126569000D01*
X51339000Y-121690000D02*
X51339000Y-122960000D01*
X50979000Y-121905000D02*
X50979000Y-122960000D01*
X51179000Y-125040000D02*
X51179000Y-126224000D01*
X51699000Y-121545000D02*
X51699000Y-122960000D01*
X51619000Y-121572000D02*
X51619000Y-122960000D01*
X51219000Y-125040000D02*
X51219000Y-126247000D01*
X51539000Y-125040000D02*
X51539000Y-126398000D01*
X51980000Y-125040000D02*
X51980000Y-126528000D01*
X51499000Y-125040000D02*
X51499000Y-126382000D01*
X55120000Y-124000000D02*
G75*
G03*
X55120000Y-124000000I-2620000J0D01*
G01*
X57345888Y-84675000D02*
X57345888Y-83540000D01*
X56104888Y-81460000D02*
X56104888Y-79924000D01*
X57825888Y-84285000D02*
X57825888Y-83540000D01*
X56304888Y-85056000D02*
X56304888Y-83540000D01*
X57025888Y-84848000D02*
X57025888Y-83540000D01*
X56584888Y-81460000D02*
X56584888Y-79999000D01*
X56544888Y-85011000D02*
X56544888Y-83540000D01*
X58545888Y-82784000D02*
X58545888Y-82216000D01*
X57705888Y-81460000D02*
X57705888Y-80599000D01*
X56344888Y-85050000D02*
X56344888Y-83540000D01*
X56464888Y-85028000D02*
X56464888Y-83540000D01*
X57505888Y-81460000D02*
X57505888Y-80435000D01*
X57825888Y-81460000D02*
X57825888Y-80715000D01*
X56825888Y-81460000D02*
X56825888Y-80072000D01*
X57225888Y-81460000D02*
X57225888Y-80253000D01*
X56424888Y-85036000D02*
X56424888Y-83540000D01*
X56945888Y-84882000D02*
X56945888Y-83540000D01*
X57185888Y-84768000D02*
X57185888Y-83540000D01*
X56504888Y-85020000D02*
X56504888Y-83540000D01*
X56985888Y-81460000D02*
X56985888Y-80135000D01*
X57145888Y-84790000D02*
X57145888Y-83540000D01*
X56104888Y-85076000D02*
X56104888Y-83540000D01*
X57345888Y-81460000D02*
X57345888Y-80325000D01*
X56264888Y-85061000D02*
X56264888Y-83540000D01*
X57065888Y-84829000D02*
X57065888Y-83540000D01*
X57025888Y-81460000D02*
X57025888Y-80152000D01*
X55984888Y-85080000D02*
X55984888Y-83540000D01*
X57785888Y-81460000D02*
X57785888Y-80674000D01*
X56785888Y-84942000D02*
X56785888Y-83540000D01*
X57665888Y-84437000D02*
X57665888Y-83540000D01*
X57265888Y-81460000D02*
X57265888Y-80276000D01*
X56905888Y-84898000D02*
X56905888Y-83540000D01*
X57385888Y-84649000D02*
X57385888Y-83540000D01*
X57265888Y-84724000D02*
X57265888Y-83540000D01*
X55944888Y-85080000D02*
X55944888Y-83540000D01*
X56464888Y-81460000D02*
X56464888Y-79972000D01*
X57905888Y-84199000D02*
X57905888Y-83540000D01*
X56624888Y-81460000D02*
X56624888Y-80009000D01*
X58185888Y-83819000D02*
X58185888Y-81181000D01*
X56905888Y-81460000D02*
X56905888Y-80102000D01*
X57785888Y-84326000D02*
X57785888Y-83540000D01*
X57985888Y-84105000D02*
X57985888Y-80895000D01*
X57905888Y-81460000D02*
X57905888Y-80801000D01*
X56264888Y-81460000D02*
X56264888Y-79939000D01*
X58265888Y-83678000D02*
X58265888Y-81322000D01*
X56024888Y-85079000D02*
X56024888Y-83540000D01*
X55944888Y-81460000D02*
X55944888Y-79920000D01*
X57865888Y-84243000D02*
X57865888Y-83540000D01*
X58145888Y-83883000D02*
X58145888Y-81117000D01*
X56184888Y-85069000D02*
X56184888Y-83540000D01*
X57425888Y-84622000D02*
X57425888Y-83540000D01*
X56865888Y-81460000D02*
X56865888Y-80086000D01*
X56384888Y-85043000D02*
X56384888Y-83540000D01*
X57585888Y-84504000D02*
X57585888Y-83540000D01*
X57465888Y-84595000D02*
X57465888Y-83540000D01*
X56064888Y-81460000D02*
X56064888Y-79922000D01*
X56184888Y-81460000D02*
X56184888Y-79931000D01*
X56224888Y-81460000D02*
X56224888Y-79935000D01*
X56665888Y-84980000D02*
X56665888Y-83540000D01*
X58465888Y-83177000D02*
X58465888Y-81823000D01*
X56424888Y-81460000D02*
X56424888Y-79964000D01*
X56544888Y-81460000D02*
X56544888Y-79989000D01*
X57425888Y-81460000D02*
X57425888Y-80378000D01*
X57945888Y-81460000D02*
X57945888Y-80847000D01*
X58065888Y-84000000D02*
X58065888Y-81000000D01*
X57065888Y-81460000D02*
X57065888Y-80171000D01*
X57745888Y-84364000D02*
X57745888Y-83540000D01*
X57185888Y-81460000D02*
X57185888Y-80232000D01*
X56304888Y-81460000D02*
X56304888Y-79944000D01*
X56504888Y-81460000D02*
X56504888Y-79980000D01*
X55984888Y-81460000D02*
X55984888Y-79920000D01*
X58425888Y-83305000D02*
X58425888Y-81695000D01*
X57545888Y-81460000D02*
X57545888Y-80465000D01*
X56144888Y-81460000D02*
X56144888Y-79927000D01*
X57625888Y-84471000D02*
X57625888Y-83540000D01*
X58025888Y-84054000D02*
X58025888Y-80946000D01*
X53140113Y-83975000D02*
X53640113Y-83975000D01*
X57745888Y-81460000D02*
X57745888Y-80636000D01*
X57145888Y-81460000D02*
X57145888Y-80210000D01*
X58385888Y-83415000D02*
X58385888Y-81585000D01*
X57545888Y-84535000D02*
X57545888Y-83540000D01*
X56064888Y-85078000D02*
X56064888Y-83540000D01*
X58305888Y-83598000D02*
X58305888Y-81402000D01*
X57505888Y-84565000D02*
X57505888Y-83540000D01*
X58105888Y-83943000D02*
X58105888Y-81057000D01*
X56785888Y-81460000D02*
X56785888Y-80058000D01*
X57625888Y-81460000D02*
X57625888Y-80529000D01*
X57665888Y-81460000D02*
X57665888Y-80563000D01*
X57705888Y-84401000D02*
X57705888Y-83540000D01*
X56144888Y-85073000D02*
X56144888Y-83540000D01*
X56945888Y-81460000D02*
X56945888Y-80118000D01*
X56985888Y-84865000D02*
X56985888Y-83540000D01*
X56584888Y-85001000D02*
X56584888Y-83540000D01*
X58225888Y-83751000D02*
X58225888Y-81249000D01*
X56865888Y-84914000D02*
X56865888Y-83540000D01*
X57225888Y-84747000D02*
X57225888Y-83540000D01*
X56384888Y-81460000D02*
X56384888Y-79957000D01*
X57305888Y-84700000D02*
X57305888Y-83540000D01*
X57465888Y-81460000D02*
X57465888Y-80405000D01*
X56665888Y-81460000D02*
X56665888Y-80020000D01*
X57585888Y-81460000D02*
X57585888Y-80496000D01*
X56624888Y-84991000D02*
X56624888Y-83540000D01*
X56344888Y-81460000D02*
X56344888Y-79950000D01*
X56825888Y-84928000D02*
X56825888Y-83540000D01*
X56745888Y-81460000D02*
X56745888Y-80045000D01*
X56224888Y-85065000D02*
X56224888Y-83540000D01*
X56024888Y-81460000D02*
X56024888Y-79921000D01*
X58505888Y-83018000D02*
X58505888Y-81982000D01*
X58345888Y-83511000D02*
X58345888Y-81489000D01*
X57385888Y-81460000D02*
X57385888Y-80351000D01*
X56705888Y-81460000D02*
X56705888Y-80032000D01*
X53390113Y-84225000D02*
X53390113Y-83725000D01*
X57945888Y-84153000D02*
X57945888Y-83540000D01*
X57105888Y-84810000D02*
X57105888Y-83540000D01*
X56705888Y-84968000D02*
X56705888Y-83540000D01*
X57305888Y-81460000D02*
X57305888Y-80300000D01*
X57105888Y-81460000D02*
X57105888Y-80190000D01*
X57865888Y-81460000D02*
X57865888Y-80757000D01*
X56745888Y-84955000D02*
X56745888Y-83540000D01*
X58564888Y-82500000D02*
G75*
G03*
X58564888Y-82500000I-2620000J0D01*
G01*
X82799000Y-145665000D02*
X82480000Y-145665000D01*
X80320000Y-145665000D02*
X80001000Y-145665000D01*
X82480000Y-145288330D02*
G75*
G03*
X82480961Y-141922287I-1080000J1683330D01*
G01*
X80319276Y-141361758D02*
G75*
G03*
X80001251Y-145665000I1080724J-2243242D01*
G01*
X82798749Y-145665000D02*
G75*
G03*
X82480724Y-141361758I-1398749J2060000D01*
G01*
X80319039Y-141922287D02*
G75*
G03*
X80320000Y-145288330I1080961J-1682713D01*
G01*
X49830000Y-134620000D02*
X49830000Y-130380000D01*
X49590000Y-132500000D02*
X49830000Y-132500000D01*
X59570000Y-130380000D02*
X59570000Y-134620000D01*
X59810000Y-132500000D02*
X59570000Y-132500000D01*
X49830000Y-130380000D02*
X59570000Y-130380000D01*
X59570000Y-134620000D02*
X49830000Y-134620000D01*
X49715000Y-146077500D02*
X70295000Y-146077500D01*
X54925000Y-136567500D02*
X54425000Y-135567500D01*
X51015000Y-144767500D02*
X68995000Y-144767500D01*
X68995000Y-144767500D02*
X68995000Y-138267500D01*
X49715000Y-136957500D02*
X49715000Y-146077500D01*
X54425000Y-135567500D02*
X55425000Y-135567500D01*
X70295000Y-136957500D02*
X49715000Y-136957500D01*
X70295000Y-146077500D02*
X70295000Y-136957500D01*
X55425000Y-135567500D02*
X54925000Y-136567500D01*
X57955000Y-138267500D02*
X51015000Y-138267500D01*
X57955000Y-136957500D02*
X57955000Y-138267500D01*
X51015000Y-138267500D02*
X51015000Y-144767500D01*
X62055000Y-138267500D02*
X62055000Y-138267500D01*
X68995000Y-138267500D02*
X62055000Y-138267500D01*
X62055000Y-138267500D02*
X62055000Y-136957500D01*
X79665000Y-46525000D02*
X84735000Y-46525000D01*
X79665000Y-36755000D02*
X84735000Y-36755000D01*
X79665000Y-46525000D02*
X79665000Y-36755000D01*
X84735000Y-46525000D02*
X84735000Y-36755000D01*
X79665000Y-57065000D02*
X79665000Y-47295000D01*
X79665000Y-47295000D02*
X84735000Y-47295000D01*
X79665000Y-57065000D02*
X84735000Y-57065000D01*
X84735000Y-57065000D02*
X84735000Y-47295000D01*
X75530000Y-134130000D02*
X78270000Y-134130000D01*
X78270000Y-134130000D02*
X78270000Y-140670000D01*
X78270000Y-140670000D02*
X75530000Y-140670000D01*
X76900000Y-141440000D02*
X76900000Y-140670000D01*
X75530000Y-140670000D02*
X75530000Y-134130000D01*
X76900000Y-133360000D02*
X76900000Y-134130000D01*
X75120000Y-133980000D02*
X75120000Y-143720000D01*
X70880000Y-143720000D02*
X70880000Y-133980000D01*
X73000000Y-133740000D02*
X73000000Y-133980000D01*
X70880000Y-133980000D02*
X75120000Y-133980000D01*
X75120000Y-143720000D02*
X70880000Y-143720000D01*
X73000000Y-143960000D02*
X73000000Y-143720000D01*
X46000000Y-81060000D02*
X42550000Y-81060000D01*
X46000000Y-70940000D02*
X47950000Y-70940000D01*
X46000000Y-70940000D02*
X44050000Y-70940000D01*
X46000000Y-81060000D02*
X47950000Y-81060000D01*
X45880000Y-84630000D02*
X53120000Y-84630000D01*
X45880000Y-87370000D02*
X45880000Y-84630000D01*
X45880000Y-87370000D02*
X53120000Y-87370000D01*
X53120000Y-87370000D02*
X53120000Y-84630000D01*
X49930000Y-72980000D02*
X49930000Y-80220000D01*
X52670000Y-72980000D02*
X52670000Y-80220000D01*
X49930000Y-72980000D02*
X52670000Y-72980000D01*
X49930000Y-80220000D02*
X52670000Y-80220000D01*
X42070000Y-72980000D02*
X39330000Y-72980000D01*
X42070000Y-80220000D02*
X42070000Y-72980000D01*
X42070000Y-80220000D02*
X39330000Y-80220000D01*
X39330000Y-80220000D02*
X39330000Y-72980000D01*
%LPC*%
D14*
X82900000Y-86800000D03*
X82900000Y-91800000D03*
D15*
X46400000Y-116050000D03*
X37600000Y-116050000D03*
D16*
X44500000Y-123050000D03*
X42000000Y-123050000D03*
X39500000Y-123050000D03*
D15*
X55600000Y-49050000D03*
X64400000Y-49050000D03*
D16*
X62500000Y-56050000D03*
X60000000Y-56050000D03*
X57500000Y-56050000D03*
D17*
X77700000Y-45460000D03*
D18*
X77700000Y-37840000D03*
D17*
X77700000Y-55860000D03*
D18*
X77700000Y-48240000D03*
D17*
X75100000Y-45460000D03*
D18*
X75100000Y-37840000D03*
D17*
X75100000Y-55860000D03*
D18*
X75100000Y-48240000D03*
D17*
X72500000Y-45460000D03*
D18*
X72500000Y-37840000D03*
D17*
X72500000Y-55860000D03*
D18*
X72500000Y-48240000D03*
D19*
X42000000Y-129500000D03*
D20*
X42000000Y-140900000D03*
X42000000Y-132600000D03*
D19*
X40000000Y-94720000D03*
D20*
X40000000Y-106120000D03*
X40000000Y-97820000D03*
D19*
X80000000Y-94600000D03*
D20*
X80000000Y-106000000D03*
X80000000Y-97700000D03*
D21*
X66800000Y-74840000D03*
D22*
X66800000Y-72300000D03*
X66800000Y-69760000D03*
D21*
X70900000Y-69760000D03*
D22*
X70900000Y-72300000D03*
X70900000Y-74840000D03*
D14*
X57500000Y-59840000D03*
D18*
X57500000Y-70000000D03*
D14*
X50000000Y-101660000D03*
D18*
X50000000Y-91500000D03*
D14*
X50560000Y-82800000D03*
D18*
X40400000Y-82800000D03*
D14*
X54000000Y-70000000D03*
D18*
X54000000Y-59840000D03*
D14*
X61000000Y-70000000D03*
D18*
X61000000Y-59840000D03*
D14*
X73980000Y-62200000D03*
D18*
X63820000Y-62200000D03*
D14*
X51080000Y-66000000D03*
D18*
X40920000Y-66000000D03*
D14*
X50560000Y-50500000D03*
D18*
X40400000Y-50500000D03*
D14*
X50560000Y-56700000D03*
D18*
X40400000Y-56700000D03*
D14*
X46580000Y-126000000D03*
D18*
X36420000Y-126000000D03*
D14*
X68300000Y-59300000D03*
D18*
X68300000Y-49140000D03*
D14*
X40400000Y-53600000D03*
D18*
X50560000Y-53600000D03*
D14*
X50560000Y-47400000D03*
D18*
X40400000Y-47400000D03*
D14*
X40400000Y-44300000D03*
D18*
X50560000Y-44300000D03*
D14*
X82600000Y-72280000D03*
D18*
X82600000Y-62120000D03*
D14*
X64580000Y-105100000D03*
D18*
X54420000Y-105100000D03*
D14*
X64580000Y-102000000D03*
D18*
X54420000Y-102000000D03*
D15*
X64400000Y-92050000D03*
X55600000Y-92050000D03*
D16*
X62500000Y-99050000D03*
X60000000Y-99050000D03*
X57500000Y-99050000D03*
D23*
X75600000Y-116300000D03*
X75600000Y-121000000D03*
X75600000Y-125700000D03*
X80400000Y-116300000D03*
X80400000Y-121000000D03*
X80400000Y-125700000D03*
D14*
X79600000Y-76220000D03*
D18*
X79600000Y-86380000D03*
D17*
X68800000Y-83800000D03*
D18*
X68800000Y-86340000D03*
X68800000Y-88880000D03*
X68800000Y-91420000D03*
X76420000Y-91420000D03*
X76420000Y-88880000D03*
X76420000Y-86340000D03*
X76420000Y-83800000D03*
D14*
X43500000Y-69200000D03*
X48500000Y-69200000D03*
X46900000Y-101660000D03*
D18*
X46900000Y-91500000D03*
D14*
X37100000Y-59800000D03*
D18*
X47260000Y-59800000D03*
D14*
X61000000Y-72920000D03*
D18*
X61000000Y-83080000D03*
D14*
X76700000Y-80600000D03*
X71700000Y-80600000D03*
X73500000Y-94600000D03*
X68500000Y-94600000D03*
D17*
X68455112Y-131000000D03*
D14*
X66455112Y-131000000D03*
D17*
X53500000Y-124000000D03*
D14*
X51500000Y-124000000D03*
D17*
X54944888Y-82500000D03*
D14*
X56944888Y-82500000D03*
D24*
X81400000Y-144875000D03*
D16*
X81400000Y-142335000D03*
D25*
X61050000Y-132500000D03*
D26*
X48350000Y-132500000D03*
D27*
X54925000Y-140247500D03*
D28*
X54925000Y-142787500D03*
X57465000Y-140247500D03*
X57465000Y-142787500D03*
X60005000Y-140247500D03*
X60005000Y-142787500D03*
X62545000Y-140247500D03*
X62545000Y-142787500D03*
X65085000Y-140247500D03*
X65085000Y-142787500D03*
D29*
X82200000Y-44180000D03*
X82200000Y-41640000D03*
X82200000Y-39100000D03*
X82200000Y-54720000D03*
X82200000Y-52180000D03*
X82200000Y-49640000D03*
D14*
X76900000Y-132320000D03*
D18*
X76900000Y-142480000D03*
D25*
X73000000Y-132500000D03*
D26*
X73000000Y-145200000D03*
D30*
X43525000Y-80445000D03*
X43525000Y-79175000D03*
X43525000Y-77905000D03*
X43525000Y-76635000D03*
X43525000Y-75365000D03*
X43525000Y-74095000D03*
X43525000Y-72825000D03*
X43525000Y-71555000D03*
X48475000Y-71555000D03*
X48475000Y-72825000D03*
X48475000Y-74095000D03*
X48475000Y-75365000D03*
X48475000Y-76635000D03*
X48475000Y-77905000D03*
X48475000Y-79175000D03*
X48475000Y-80445000D03*
D14*
X47000000Y-86000000D03*
X52000000Y-86000000D03*
X51300000Y-74100000D03*
X51300000Y-79100000D03*
X40700000Y-79100000D03*
X40700000Y-74100000D03*
M02*
