%FSLAX45Y45*%
G04 Gerber Fmt 4.5, Leading zero omitted, Abs format (unit mm)*
G04 Created by KiCad (PCBNEW (6.0.6)) date 2022-11-23 18:59:45*
%MOMM*%
%LPD*%
G01*
G04 APERTURE LIST*
%TA.AperFunction,Profile*%
%ADD10C,0.050000*%
%TD*%
%ADD11C,0.200000*%
G04 APERTURE END LIST*
D10*
X8500000Y-3650000D02*
X8500000Y-14650000D01*
X3500000Y-3650000D02*
X8500000Y-3650000D01*
X3500000Y-3650000D02*
X3500000Y-14650000D01*
X3500000Y-14650000D02*
X8500000Y-14650000D01*
D11*
X3660000Y-11505000D02*
X3860000Y-11705000D01*
X3860000Y-11505000D02*
X3660000Y-11705000D01*
X4540000Y-11505000D02*
X4740000Y-11705000D01*
X4740000Y-11505000D02*
X4540000Y-11705000D01*
X5460000Y-4805000D02*
X5660000Y-5005000D01*
X5660000Y-4805000D02*
X5460000Y-5005000D01*
X5460000Y-9105000D02*
X5660000Y-9305000D01*
X5660000Y-9105000D02*
X5460000Y-9305000D01*
X6340000Y-4805000D02*
X6540000Y-5005000D01*
X6540000Y-4805000D02*
X6340000Y-5005000D01*
X6340000Y-9105000D02*
X6540000Y-9305000D01*
X6540000Y-9105000D02*
X6340000Y-9305000D01*
X3755119Y-14962976D02*
X3755119Y-14762976D01*
X3802738Y-14762976D01*
X3831309Y-14772500D01*
X3850357Y-14791548D01*
X3859881Y-14810595D01*
X3869405Y-14848690D01*
X3869405Y-14877262D01*
X3859881Y-14915357D01*
X3850357Y-14934405D01*
X3831309Y-14953452D01*
X3802738Y-14962976D01*
X3755119Y-14962976D01*
X3955119Y-14962976D02*
X3955119Y-14829643D01*
X3955119Y-14867738D02*
X3964643Y-14848690D01*
X3974167Y-14839167D01*
X3993214Y-14829643D01*
X4012262Y-14829643D01*
X4078928Y-14962976D02*
X4078928Y-14829643D01*
X4078928Y-14762976D02*
X4069405Y-14772500D01*
X4078928Y-14782024D01*
X4088452Y-14772500D01*
X4078928Y-14762976D01*
X4078928Y-14782024D01*
X4202738Y-14962976D02*
X4183690Y-14953452D01*
X4174167Y-14934405D01*
X4174167Y-14762976D01*
X4307500Y-14962976D02*
X4288452Y-14953452D01*
X4278929Y-14934405D01*
X4278929Y-14762976D01*
X4536071Y-14962976D02*
X4536071Y-14762976D01*
X4602738Y-14905833D01*
X4669405Y-14762976D01*
X4669405Y-14962976D01*
X4850357Y-14962976D02*
X4850357Y-14858214D01*
X4840833Y-14839167D01*
X4821786Y-14829643D01*
X4783690Y-14829643D01*
X4764643Y-14839167D01*
X4850357Y-14953452D02*
X4831310Y-14962976D01*
X4783690Y-14962976D01*
X4764643Y-14953452D01*
X4755119Y-14934405D01*
X4755119Y-14915357D01*
X4764643Y-14896309D01*
X4783690Y-14886786D01*
X4831310Y-14886786D01*
X4850357Y-14877262D01*
X4945595Y-14829643D02*
X4945595Y-15029643D01*
X4945595Y-14839167D02*
X4964643Y-14829643D01*
X5002738Y-14829643D01*
X5021786Y-14839167D01*
X5031310Y-14848690D01*
X5040833Y-14867738D01*
X5040833Y-14924881D01*
X5031310Y-14943928D01*
X5021786Y-14953452D01*
X5002738Y-14962976D01*
X4964643Y-14962976D01*
X4945595Y-14953452D01*
X5126548Y-14943928D02*
X5136071Y-14953452D01*
X5126548Y-14962976D01*
X5117024Y-14953452D01*
X5126548Y-14943928D01*
X5126548Y-14962976D01*
X5126548Y-14839167D02*
X5136071Y-14848690D01*
X5126548Y-14858214D01*
X5117024Y-14848690D01*
X5126548Y-14839167D01*
X5126548Y-14858214D01*
X3297500Y-15192500D02*
X3497500Y-15392500D01*
X3497500Y-15192500D02*
X3297500Y-15392500D01*
X3745595Y-15202024D02*
X3755119Y-15192500D01*
X3774167Y-15182976D01*
X3821786Y-15182976D01*
X3840833Y-15192500D01*
X3850357Y-15202024D01*
X3859881Y-15221071D01*
X3859881Y-15240119D01*
X3850357Y-15268690D01*
X3736071Y-15382976D01*
X3859881Y-15382976D01*
X3945595Y-15363928D02*
X3955119Y-15373452D01*
X3945595Y-15382976D01*
X3936071Y-15373452D01*
X3945595Y-15363928D01*
X3945595Y-15382976D01*
X4078928Y-15182976D02*
X4097976Y-15182976D01*
X4117024Y-15192500D01*
X4126548Y-15202024D01*
X4136071Y-15221071D01*
X4145595Y-15259167D01*
X4145595Y-15306786D01*
X4136071Y-15344881D01*
X4126548Y-15363928D01*
X4117024Y-15373452D01*
X4097976Y-15382976D01*
X4078928Y-15382976D01*
X4059881Y-15373452D01*
X4050357Y-15363928D01*
X4040833Y-15344881D01*
X4031309Y-15306786D01*
X4031309Y-15259167D01*
X4040833Y-15221071D01*
X4050357Y-15202024D01*
X4059881Y-15192500D01*
X4078928Y-15182976D01*
X4269405Y-15182976D02*
X4288452Y-15182976D01*
X4307500Y-15192500D01*
X4317024Y-15202024D01*
X4326548Y-15221071D01*
X4336071Y-15259167D01*
X4336071Y-15306786D01*
X4326548Y-15344881D01*
X4317024Y-15363928D01*
X4307500Y-15373452D01*
X4288452Y-15382976D01*
X4269405Y-15382976D01*
X4250357Y-15373452D01*
X4240833Y-15363928D01*
X4231310Y-15344881D01*
X4221786Y-15306786D01*
X4221786Y-15259167D01*
X4231310Y-15221071D01*
X4240833Y-15202024D01*
X4250357Y-15192500D01*
X4269405Y-15182976D01*
X4459881Y-15182976D02*
X4478929Y-15182976D01*
X4497976Y-15192500D01*
X4507500Y-15202024D01*
X4517024Y-15221071D01*
X4526548Y-15259167D01*
X4526548Y-15306786D01*
X4517024Y-15344881D01*
X4507500Y-15363928D01*
X4497976Y-15373452D01*
X4478929Y-15382976D01*
X4459881Y-15382976D01*
X4440833Y-15373452D01*
X4431310Y-15363928D01*
X4421786Y-15344881D01*
X4412262Y-15306786D01*
X4412262Y-15259167D01*
X4421786Y-15221071D01*
X4431310Y-15202024D01*
X4440833Y-15192500D01*
X4459881Y-15182976D01*
X4612262Y-15382976D02*
X4612262Y-15249643D01*
X4612262Y-15268690D02*
X4621786Y-15259167D01*
X4640833Y-15249643D01*
X4669405Y-15249643D01*
X4688452Y-15259167D01*
X4697976Y-15278214D01*
X4697976Y-15382976D01*
X4697976Y-15278214D02*
X4707500Y-15259167D01*
X4726548Y-15249643D01*
X4755119Y-15249643D01*
X4774167Y-15259167D01*
X4783690Y-15278214D01*
X4783690Y-15382976D01*
X4878929Y-15382976D02*
X4878929Y-15249643D01*
X4878929Y-15268690D02*
X4888452Y-15259167D01*
X4907500Y-15249643D01*
X4936071Y-15249643D01*
X4955119Y-15259167D01*
X4964643Y-15278214D01*
X4964643Y-15382976D01*
X4964643Y-15278214D02*
X4974167Y-15259167D01*
X4993214Y-15249643D01*
X5021786Y-15249643D01*
X5040833Y-15259167D01*
X5050357Y-15278214D01*
X5050357Y-15382976D01*
X5440833Y-15173452D02*
X5269405Y-15430595D01*
X5697976Y-15182976D02*
X5717024Y-15182976D01*
X5736071Y-15192500D01*
X5745595Y-15202024D01*
X5755119Y-15221071D01*
X5764643Y-15259167D01*
X5764643Y-15306786D01*
X5755119Y-15344881D01*
X5745595Y-15363928D01*
X5736071Y-15373452D01*
X5717024Y-15382976D01*
X5697976Y-15382976D01*
X5678928Y-15373452D01*
X5669405Y-15363928D01*
X5659881Y-15344881D01*
X5650357Y-15306786D01*
X5650357Y-15259167D01*
X5659881Y-15221071D01*
X5669405Y-15202024D01*
X5678928Y-15192500D01*
X5697976Y-15182976D01*
X5850357Y-15363928D02*
X5859881Y-15373452D01*
X5850357Y-15382976D01*
X5840833Y-15373452D01*
X5850357Y-15363928D01*
X5850357Y-15382976D01*
X5983690Y-15182976D02*
X6002738Y-15182976D01*
X6021786Y-15192500D01*
X6031309Y-15202024D01*
X6040833Y-15221071D01*
X6050357Y-15259167D01*
X6050357Y-15306786D01*
X6040833Y-15344881D01*
X6031309Y-15363928D01*
X6021786Y-15373452D01*
X6002738Y-15382976D01*
X5983690Y-15382976D01*
X5964643Y-15373452D01*
X5955119Y-15363928D01*
X5945595Y-15344881D01*
X5936071Y-15306786D01*
X5936071Y-15259167D01*
X5945595Y-15221071D01*
X5955119Y-15202024D01*
X5964643Y-15192500D01*
X5983690Y-15182976D01*
X6117024Y-15182976D02*
X6250357Y-15182976D01*
X6164643Y-15382976D01*
X6355119Y-15268690D02*
X6336071Y-15259167D01*
X6326548Y-15249643D01*
X6317024Y-15230595D01*
X6317024Y-15221071D01*
X6326548Y-15202024D01*
X6336071Y-15192500D01*
X6355119Y-15182976D01*
X6393214Y-15182976D01*
X6412262Y-15192500D01*
X6421786Y-15202024D01*
X6431309Y-15221071D01*
X6431309Y-15230595D01*
X6421786Y-15249643D01*
X6412262Y-15259167D01*
X6393214Y-15268690D01*
X6355119Y-15268690D01*
X6336071Y-15278214D01*
X6326548Y-15287738D01*
X6317024Y-15306786D01*
X6317024Y-15344881D01*
X6326548Y-15363928D01*
X6336071Y-15373452D01*
X6355119Y-15382976D01*
X6393214Y-15382976D01*
X6412262Y-15373452D01*
X6421786Y-15363928D01*
X6431309Y-15344881D01*
X6431309Y-15306786D01*
X6421786Y-15287738D01*
X6412262Y-15278214D01*
X6393214Y-15268690D01*
X6497976Y-15182976D02*
X6631309Y-15182976D01*
X6545595Y-15382976D01*
X6697976Y-15182976D02*
X6697976Y-15221071D01*
X6774167Y-15182976D02*
X6774167Y-15221071D01*
X7069405Y-15459167D02*
X7059881Y-15449643D01*
X7040833Y-15421071D01*
X7031309Y-15402024D01*
X7021786Y-15373452D01*
X7012262Y-15325833D01*
X7012262Y-15287738D01*
X7021786Y-15240119D01*
X7031309Y-15211548D01*
X7040833Y-15192500D01*
X7059881Y-15163928D01*
X7069405Y-15154405D01*
X7231309Y-15182976D02*
X7193214Y-15182976D01*
X7174167Y-15192500D01*
X7164643Y-15202024D01*
X7145595Y-15230595D01*
X7136071Y-15268690D01*
X7136071Y-15344881D01*
X7145595Y-15363928D01*
X7155119Y-15373452D01*
X7174167Y-15382976D01*
X7212262Y-15382976D01*
X7231309Y-15373452D01*
X7240833Y-15363928D01*
X7250357Y-15344881D01*
X7250357Y-15297262D01*
X7240833Y-15278214D01*
X7231309Y-15268690D01*
X7212262Y-15259167D01*
X7174167Y-15259167D01*
X7155119Y-15268690D01*
X7145595Y-15278214D01*
X7136071Y-15297262D01*
X7488452Y-15382976D02*
X7488452Y-15182976D01*
X7574167Y-15382976D02*
X7574167Y-15278214D01*
X7564643Y-15259167D01*
X7545595Y-15249643D01*
X7517024Y-15249643D01*
X7497976Y-15259167D01*
X7488452Y-15268690D01*
X7697976Y-15382976D02*
X7678928Y-15373452D01*
X7669405Y-15363928D01*
X7659881Y-15344881D01*
X7659881Y-15287738D01*
X7669405Y-15268690D01*
X7678928Y-15259167D01*
X7697976Y-15249643D01*
X7726548Y-15249643D01*
X7745595Y-15259167D01*
X7755119Y-15268690D01*
X7764643Y-15287738D01*
X7764643Y-15344881D01*
X7755119Y-15363928D01*
X7745595Y-15373452D01*
X7726548Y-15382976D01*
X7697976Y-15382976D01*
X7878928Y-15382976D02*
X7859881Y-15373452D01*
X7850357Y-15354405D01*
X7850357Y-15182976D01*
X8031309Y-15373452D02*
X8012262Y-15382976D01*
X7974167Y-15382976D01*
X7955119Y-15373452D01*
X7945595Y-15354405D01*
X7945595Y-15278214D01*
X7955119Y-15259167D01*
X7974167Y-15249643D01*
X8012262Y-15249643D01*
X8031309Y-15259167D01*
X8040833Y-15278214D01*
X8040833Y-15297262D01*
X7945595Y-15316309D01*
X8117024Y-15373452D02*
X8136071Y-15382976D01*
X8174167Y-15382976D01*
X8193214Y-15373452D01*
X8202738Y-15354405D01*
X8202738Y-15344881D01*
X8193214Y-15325833D01*
X8174167Y-15316309D01*
X8145595Y-15316309D01*
X8126548Y-15306786D01*
X8117024Y-15287738D01*
X8117024Y-15278214D01*
X8126548Y-15259167D01*
X8145595Y-15249643D01*
X8174167Y-15249643D01*
X8193214Y-15259167D01*
X8269405Y-15459167D02*
X8278928Y-15449643D01*
X8297976Y-15421071D01*
X8307500Y-15402024D01*
X8317024Y-15373452D01*
X8326548Y-15325833D01*
X8326548Y-15287738D01*
X8317024Y-15240119D01*
X8307500Y-15211548D01*
X8297976Y-15192500D01*
X8278928Y-15163928D01*
X8269405Y-15154405D01*
X8631310Y-15459167D02*
X8621786Y-15449643D01*
X8602738Y-15421071D01*
X8593214Y-15402024D01*
X8583690Y-15373452D01*
X8574167Y-15325833D01*
X8574167Y-15287738D01*
X8583690Y-15240119D01*
X8593214Y-15211548D01*
X8602738Y-15192500D01*
X8621786Y-15163928D01*
X8631310Y-15154405D01*
X8707500Y-15249643D02*
X8707500Y-15382976D01*
X8707500Y-15268690D02*
X8717024Y-15259167D01*
X8736071Y-15249643D01*
X8764643Y-15249643D01*
X8783690Y-15259167D01*
X8793214Y-15278214D01*
X8793214Y-15382976D01*
X8917024Y-15382976D02*
X8897976Y-15373452D01*
X8888452Y-15363928D01*
X8878929Y-15344881D01*
X8878929Y-15287738D01*
X8888452Y-15268690D01*
X8897976Y-15259167D01*
X8917024Y-15249643D01*
X8945595Y-15249643D01*
X8964643Y-15259167D01*
X8974167Y-15268690D01*
X8983690Y-15287738D01*
X8983690Y-15344881D01*
X8974167Y-15363928D01*
X8964643Y-15373452D01*
X8945595Y-15382976D01*
X8917024Y-15382976D01*
X9040833Y-15249643D02*
X9117024Y-15249643D01*
X9069405Y-15182976D02*
X9069405Y-15354405D01*
X9078929Y-15373452D01*
X9097976Y-15382976D01*
X9117024Y-15382976D01*
X9336071Y-15249643D02*
X9336071Y-15449643D01*
X9336071Y-15259167D02*
X9355119Y-15249643D01*
X9393214Y-15249643D01*
X9412262Y-15259167D01*
X9421786Y-15268690D01*
X9431310Y-15287738D01*
X9431310Y-15344881D01*
X9421786Y-15363928D01*
X9412262Y-15373452D01*
X9393214Y-15382976D01*
X9355119Y-15382976D01*
X9336071Y-15373452D01*
X9545595Y-15382976D02*
X9526548Y-15373452D01*
X9517024Y-15354405D01*
X9517024Y-15182976D01*
X9707500Y-15382976D02*
X9707500Y-15278214D01*
X9697976Y-15259167D01*
X9678929Y-15249643D01*
X9640833Y-15249643D01*
X9621786Y-15259167D01*
X9707500Y-15373452D02*
X9688452Y-15382976D01*
X9640833Y-15382976D01*
X9621786Y-15373452D01*
X9612262Y-15354405D01*
X9612262Y-15335357D01*
X9621786Y-15316309D01*
X9640833Y-15306786D01*
X9688452Y-15306786D01*
X9707500Y-15297262D01*
X9774167Y-15249643D02*
X9850357Y-15249643D01*
X9802738Y-15182976D02*
X9802738Y-15354405D01*
X9812262Y-15373452D01*
X9831310Y-15382976D01*
X9850357Y-15382976D01*
X9993214Y-15373452D02*
X9974167Y-15382976D01*
X9936071Y-15382976D01*
X9917024Y-15373452D01*
X9907500Y-15354405D01*
X9907500Y-15278214D01*
X9917024Y-15259167D01*
X9936071Y-15249643D01*
X9974167Y-15249643D01*
X9993214Y-15259167D01*
X10002738Y-15278214D01*
X10002738Y-15297262D01*
X9907500Y-15316309D01*
X10174167Y-15382976D02*
X10174167Y-15182976D01*
X10174167Y-15373452D02*
X10155119Y-15382976D01*
X10117024Y-15382976D01*
X10097976Y-15373452D01*
X10088452Y-15363928D01*
X10078929Y-15344881D01*
X10078929Y-15287738D01*
X10088452Y-15268690D01*
X10097976Y-15259167D01*
X10117024Y-15249643D01*
X10155119Y-15249643D01*
X10174167Y-15259167D01*
X10250357Y-15459167D02*
X10259881Y-15449643D01*
X10278929Y-15421071D01*
X10288452Y-15402024D01*
X10297976Y-15373452D01*
X10307500Y-15325833D01*
X10307500Y-15287738D01*
X10297976Y-15240119D01*
X10288452Y-15211548D01*
X10278929Y-15192500D01*
X10259881Y-15163928D01*
X10250357Y-15154405D01*
M02*
