%FSLAX45Y45*%
G04 Gerber Fmt 4.5, Leading zero omitted, Abs format (unit mm)*
G04 Created by KiCad (PCBNEW (6.0.6)) date 2022-10-26 13:54:07*
%MOMM*%
%LPD*%
G01*
G04 APERTURE LIST*
%TA.AperFunction,Profile*%
%ADD10C,0.050000*%
%TD*%
%ADD11C,0.200000*%
%ADD12C,0.040000*%
%ADD13C,0.080000*%
%ADD14C,0.090000*%
%ADD15C,0.100000*%
%ADD16C,0.122000*%
%ADD17C,0.142000*%
%ADD18C,0.143000*%
G04 APERTURE END LIST*
D10*
X8500000Y-3650000D02*
X8500000Y-14650000D01*
X3500000Y-3650000D02*
X8500000Y-3650000D01*
X3500000Y-3650000D02*
X3500000Y-14650000D01*
X3500000Y-14650000D02*
X8500000Y-14650000D01*
D11*
D12*
X4504112Y-7195047D02*
X4544112Y-7235047D01*
X4544112Y-7195047D02*
X4504112Y-7235047D01*
X4580000Y-7130000D02*
X4620000Y-7170000D01*
X4620000Y-7130000D02*
X4580000Y-7170000D01*
X4605050Y-7770500D02*
X4645050Y-7810500D01*
X4645050Y-7770500D02*
X4605050Y-7810500D01*
X4670000Y-7550000D02*
X4710000Y-7590000D01*
X4710000Y-7550000D02*
X4670000Y-7590000D01*
X5599539Y-7802457D02*
X5639539Y-7842457D01*
X5639539Y-7802457D02*
X5599539Y-7842457D01*
X6320000Y-7370000D02*
X6360000Y-7410000D01*
X6360000Y-7370000D02*
X6320000Y-7410000D01*
D13*
X3682000Y-12600000D02*
G75*
G03*
X3682000Y-12600000I-40000J0D01*
G01*
X3750000Y-5980000D02*
G75*
G03*
X3750000Y-5980000I-40000J0D01*
G01*
X4080000Y-4430000D02*
G75*
G03*
X4080000Y-4430000I-40000J0D01*
G01*
X4080000Y-4740000D02*
G75*
G03*
X4080000Y-4740000I-40000J0D01*
G01*
X4080000Y-5050000D02*
G75*
G03*
X4080000Y-5050000I-40000J0D01*
G01*
X4080000Y-5360000D02*
G75*
G03*
X4080000Y-5360000I-40000J0D01*
G01*
X4080000Y-5670000D02*
G75*
G03*
X4080000Y-5670000I-40000J0D01*
G01*
X4080000Y-8280000D02*
G75*
G03*
X4080000Y-8280000I-40000J0D01*
G01*
X4110000Y-7410000D02*
G75*
G03*
X4110000Y-7410000I-40000J0D01*
G01*
X4110000Y-7910000D02*
G75*
G03*
X4110000Y-7910000I-40000J0D01*
G01*
X4132000Y-6600000D02*
G75*
G03*
X4132000Y-6600000I-40000J0D01*
G01*
X4390000Y-6920000D02*
G75*
G03*
X4390000Y-6920000I-40000J0D01*
G01*
X4698000Y-12600000D02*
G75*
G03*
X4698000Y-12600000I-40000J0D01*
G01*
X4730000Y-9150000D02*
G75*
G03*
X4730000Y-9150000I-40000J0D01*
G01*
X4730000Y-10166000D02*
G75*
G03*
X4730000Y-10166000I-40000J0D01*
G01*
X4740000Y-8600000D02*
G75*
G03*
X4740000Y-8600000I-40000J0D01*
G01*
X4766000Y-5980000D02*
G75*
G03*
X4766000Y-5980000I-40000J0D01*
G01*
X4890000Y-6920000D02*
G75*
G03*
X4890000Y-6920000I-40000J0D01*
G01*
X5040000Y-9150000D02*
G75*
G03*
X5040000Y-9150000I-40000J0D01*
G01*
X5040000Y-10166000D02*
G75*
G03*
X5040000Y-10166000I-40000J0D01*
G01*
X5096000Y-4430000D02*
G75*
G03*
X5096000Y-4430000I-40000J0D01*
G01*
X5096000Y-4740000D02*
G75*
G03*
X5096000Y-4740000I-40000J0D01*
G01*
X5096000Y-5050000D02*
G75*
G03*
X5096000Y-5050000I-40000J0D01*
G01*
X5096000Y-5360000D02*
G75*
G03*
X5096000Y-5360000I-40000J0D01*
G01*
X5096000Y-5670000D02*
G75*
G03*
X5096000Y-5670000I-40000J0D01*
G01*
X5096000Y-8280000D02*
G75*
G03*
X5096000Y-8280000I-40000J0D01*
G01*
X5148000Y-6600000D02*
G75*
G03*
X5148000Y-6600000I-40000J0D01*
G01*
X5170000Y-7410000D02*
G75*
G03*
X5170000Y-7410000I-40000J0D01*
G01*
X5170000Y-7910000D02*
G75*
G03*
X5170000Y-7910000I-40000J0D01*
G01*
X5190000Y-12400000D02*
G75*
G03*
X5190000Y-12400000I-40000J0D01*
G01*
X5240000Y-8600000D02*
G75*
G03*
X5240000Y-8600000I-40000J0D01*
G01*
X5390000Y-12400000D02*
G75*
G03*
X5390000Y-12400000I-40000J0D01*
G01*
X5440000Y-5984000D02*
G75*
G03*
X5440000Y-5984000I-40000J0D01*
G01*
X5440000Y-7000000D02*
G75*
G03*
X5440000Y-7000000I-40000J0D01*
G01*
X5482000Y-10200000D02*
G75*
G03*
X5482000Y-10200000I-40000J0D01*
G01*
X5482000Y-10510000D02*
G75*
G03*
X5482000Y-10510000I-40000J0D01*
G01*
X5534489Y-8250000D02*
G75*
G03*
X5534489Y-8250000I-40000J0D01*
G01*
X5734489Y-8250000D02*
G75*
G03*
X5734489Y-8250000I-40000J0D01*
G01*
X5790000Y-5984000D02*
G75*
G03*
X5790000Y-5984000I-40000J0D01*
G01*
X5790000Y-7000000D02*
G75*
G03*
X5790000Y-7000000I-40000J0D01*
G01*
X6140000Y-5984000D02*
G75*
G03*
X6140000Y-5984000I-40000J0D01*
G01*
X6140000Y-7000000D02*
G75*
G03*
X6140000Y-7000000I-40000J0D01*
G01*
X6140000Y-7292000D02*
G75*
G03*
X6140000Y-7292000I-40000J0D01*
G01*
X6140000Y-8308000D02*
G75*
G03*
X6140000Y-8308000I-40000J0D01*
G01*
X6422000Y-6220000D02*
G75*
G03*
X6422000Y-6220000I-40000J0D01*
G01*
X6498000Y-10200000D02*
G75*
G03*
X6498000Y-10200000I-40000J0D01*
G01*
X6498000Y-10510000D02*
G75*
G03*
X6498000Y-10510000I-40000J0D01*
G01*
X6685511Y-13100000D02*
G75*
G03*
X6685511Y-13100000I-40000J0D01*
G01*
X6720000Y-6976000D02*
G75*
G03*
X6720000Y-6976000I-40000J0D01*
G01*
X6720000Y-7230000D02*
G75*
G03*
X6720000Y-7230000I-40000J0D01*
G01*
X6720000Y-7484000D02*
G75*
G03*
X6720000Y-7484000I-40000J0D01*
G01*
X6870000Y-4914000D02*
G75*
G03*
X6870000Y-4914000I-40000J0D01*
G01*
X6870000Y-5930000D02*
G75*
G03*
X6870000Y-5930000I-40000J0D01*
G01*
X6885511Y-13100000D02*
G75*
G03*
X6885511Y-13100000I-40000J0D01*
G01*
X6890000Y-9460000D02*
G75*
G03*
X6890000Y-9460000I-40000J0D01*
G01*
X6920000Y-8380000D02*
G75*
G03*
X6920000Y-8380000I-40000J0D01*
G01*
X6920000Y-8634000D02*
G75*
G03*
X6920000Y-8634000I-40000J0D01*
G01*
X6920000Y-8888000D02*
G75*
G03*
X6920000Y-8888000I-40000J0D01*
G01*
X6920000Y-9142000D02*
G75*
G03*
X6920000Y-9142000I-40000J0D01*
G01*
X7130000Y-6976000D02*
G75*
G03*
X7130000Y-6976000I-40000J0D01*
G01*
X7130000Y-7230000D02*
G75*
G03*
X7130000Y-7230000I-40000J0D01*
G01*
X7130000Y-7484000D02*
G75*
G03*
X7130000Y-7484000I-40000J0D01*
G01*
X7210000Y-8060000D02*
G75*
G03*
X7210000Y-8060000I-40000J0D01*
G01*
X7290000Y-3784000D02*
G75*
G03*
X7290000Y-3784000I-40000J0D01*
G01*
X7290000Y-4546000D02*
G75*
G03*
X7290000Y-4546000I-40000J0D01*
G01*
X7290000Y-4824000D02*
G75*
G03*
X7290000Y-4824000I-40000J0D01*
G01*
X7290000Y-5586000D02*
G75*
G03*
X7290000Y-5586000I-40000J0D01*
G01*
X7390000Y-9460000D02*
G75*
G03*
X7390000Y-9460000I-40000J0D01*
G01*
X7438000Y-6220000D02*
G75*
G03*
X7438000Y-6220000I-40000J0D01*
G01*
X7550000Y-3784000D02*
G75*
G03*
X7550000Y-3784000I-40000J0D01*
G01*
X7550000Y-4546000D02*
G75*
G03*
X7550000Y-4546000I-40000J0D01*
G01*
X7550000Y-4824000D02*
G75*
G03*
X7550000Y-4824000I-40000J0D01*
G01*
X7550000Y-5586000D02*
G75*
G03*
X7550000Y-5586000I-40000J0D01*
G01*
X7682000Y-8380000D02*
G75*
G03*
X7682000Y-8380000I-40000J0D01*
G01*
X7682000Y-8634000D02*
G75*
G03*
X7682000Y-8634000I-40000J0D01*
G01*
X7682000Y-8888000D02*
G75*
G03*
X7682000Y-8888000I-40000J0D01*
G01*
X7682000Y-9142000D02*
G75*
G03*
X7682000Y-9142000I-40000J0D01*
G01*
X7710000Y-8060000D02*
G75*
G03*
X7710000Y-8060000I-40000J0D01*
G01*
X7730000Y-13232000D02*
G75*
G03*
X7730000Y-13232000I-40000J0D01*
G01*
X7730000Y-14248000D02*
G75*
G03*
X7730000Y-14248000I-40000J0D01*
G01*
X7810000Y-3784000D02*
G75*
G03*
X7810000Y-3784000I-40000J0D01*
G01*
X7810000Y-4546000D02*
G75*
G03*
X7810000Y-4546000I-40000J0D01*
G01*
X7810000Y-4824000D02*
G75*
G03*
X7810000Y-4824000I-40000J0D01*
G01*
X7810000Y-5586000D02*
G75*
G03*
X7810000Y-5586000I-40000J0D01*
G01*
X8000000Y-7622000D02*
G75*
G03*
X8000000Y-7622000I-40000J0D01*
G01*
X8000000Y-8638000D02*
G75*
G03*
X8000000Y-8638000I-40000J0D01*
G01*
X8260000Y-3910000D02*
G75*
G03*
X8260000Y-3910000I-40000J0D01*
G01*
X8260000Y-4164000D02*
G75*
G03*
X8260000Y-4164000I-40000J0D01*
G01*
X8260000Y-4418000D02*
G75*
G03*
X8260000Y-4418000I-40000J0D01*
G01*
X8260000Y-4964000D02*
G75*
G03*
X8260000Y-4964000I-40000J0D01*
G01*
X8260000Y-5218000D02*
G75*
G03*
X8260000Y-5218000I-40000J0D01*
G01*
X8260000Y-5472000D02*
G75*
G03*
X8260000Y-5472000I-40000J0D01*
G01*
X8300000Y-6212000D02*
G75*
G03*
X8300000Y-6212000I-40000J0D01*
G01*
X8300000Y-7228000D02*
G75*
G03*
X8300000Y-7228000I-40000J0D01*
G01*
X8330000Y-8680000D02*
G75*
G03*
X8330000Y-8680000I-40000J0D01*
G01*
X8330000Y-9180000D02*
G75*
G03*
X8330000Y-9180000I-40000J0D01*
G01*
D14*
X8140000Y-14188500D02*
X8140000Y-14278500D01*
X8095000Y-14233500D02*
X8185000Y-14233500D01*
X8140000Y-14442500D02*
X8140000Y-14532500D01*
X8095000Y-14487500D02*
X8185000Y-14487500D01*
D15*
X3985356Y-12340356D02*
X3985356Y-12269644D01*
X3914644Y-12269644D01*
X3914644Y-12340356D01*
X3985356Y-12340356D01*
X4235356Y-12340356D02*
X4235356Y-12269644D01*
X4164644Y-12269644D01*
X4164644Y-12340356D01*
X4235356Y-12340356D01*
X4485356Y-12340356D02*
X4485356Y-12269644D01*
X4414644Y-12269644D01*
X4414644Y-12340356D01*
X4485356Y-12340356D01*
X4870356Y-13285356D02*
X4870356Y-13214644D01*
X4799644Y-13214644D01*
X4799644Y-13285356D01*
X4870356Y-13285356D01*
X5527856Y-14060106D02*
X5527856Y-13989394D01*
X5457144Y-13989394D01*
X5457144Y-14060106D01*
X5527856Y-14060106D01*
X5527856Y-14314106D02*
X5527856Y-14243394D01*
X5457144Y-14243394D01*
X5457144Y-14314106D01*
X5527856Y-14314106D01*
X5781856Y-14060106D02*
X5781856Y-13989394D01*
X5711144Y-13989394D01*
X5711144Y-14060106D01*
X5781856Y-14060106D01*
X5781856Y-14314106D02*
X5781856Y-14243394D01*
X5711144Y-14243394D01*
X5711144Y-14314106D01*
X5781856Y-14314106D01*
X5785356Y-5640356D02*
X5785356Y-5569644D01*
X5714644Y-5569644D01*
X5714644Y-5640356D01*
X5785356Y-5640356D01*
X5785356Y-9940356D02*
X5785356Y-9869644D01*
X5714644Y-9869644D01*
X5714644Y-9940356D01*
X5785356Y-9940356D01*
X6035356Y-5640356D02*
X6035356Y-5569644D01*
X5964644Y-5569644D01*
X5964644Y-5640356D01*
X6035356Y-5640356D01*
X6035356Y-9940356D02*
X6035356Y-9869644D01*
X5964644Y-9869644D01*
X5964644Y-9940356D01*
X6035356Y-9940356D01*
X6035856Y-14060106D02*
X6035856Y-13989394D01*
X5965144Y-13989394D01*
X5965144Y-14060106D01*
X6035856Y-14060106D01*
X6035856Y-14314106D02*
X6035856Y-14243394D01*
X5965144Y-14243394D01*
X5965144Y-14314106D01*
X6035856Y-14314106D01*
X6140356Y-13285356D02*
X6140356Y-13214644D01*
X6069644Y-13214644D01*
X6069644Y-13285356D01*
X6140356Y-13285356D01*
X6285356Y-5640356D02*
X6285356Y-5569644D01*
X6214644Y-5569644D01*
X6214644Y-5640356D01*
X6285356Y-5640356D01*
X6285356Y-9940356D02*
X6285356Y-9869644D01*
X6214644Y-9869644D01*
X6214644Y-9940356D01*
X6285356Y-9940356D01*
X6289856Y-14060106D02*
X6289856Y-13989394D01*
X6219144Y-13989394D01*
X6219144Y-14060106D01*
X6289856Y-14060106D01*
X6289856Y-14314106D02*
X6289856Y-14243394D01*
X6219144Y-14243394D01*
X6219144Y-14314106D01*
X6289856Y-14314106D01*
X6543856Y-14060106D02*
X6543856Y-13989394D01*
X6473144Y-13989394D01*
X6473144Y-14060106D01*
X6543856Y-14060106D01*
X6543856Y-14314106D02*
X6543856Y-14243394D01*
X6473144Y-14243394D01*
X6473144Y-14314106D01*
X6543856Y-14314106D01*
X7335356Y-13285356D02*
X7335356Y-13214644D01*
X7264644Y-13214644D01*
X7264644Y-13285356D01*
X7335356Y-13285356D01*
X7335356Y-14555356D02*
X7335356Y-14484644D01*
X7264644Y-14484644D01*
X7264644Y-14555356D01*
X7335356Y-14555356D01*
X7595356Y-11665356D02*
X7595356Y-11594644D01*
X7524644Y-11594644D01*
X7524644Y-11665356D01*
X7595356Y-11665356D01*
D11*
X7620000Y-11580000D02*
X7500000Y-11580000D01*
X7620000Y-11680000D02*
X7500000Y-11680000D01*
X7500000Y-11580000D02*
G75*
G03*
X7500000Y-11680000I0J-50000D01*
G01*
X7620000Y-11680000D02*
G75*
G03*
X7620000Y-11580000I0J50000D01*
G01*
D15*
X7595356Y-12135356D02*
X7595356Y-12064644D01*
X7524644Y-12064644D01*
X7524644Y-12135356D01*
X7595356Y-12135356D01*
D11*
X7620000Y-12050000D02*
X7500000Y-12050000D01*
X7620000Y-12150000D02*
X7500000Y-12150000D01*
X7500000Y-12050000D02*
G75*
G03*
X7500000Y-12150000I0J-50000D01*
G01*
X7620000Y-12150000D02*
G75*
G03*
X7620000Y-12050000I0J50000D01*
G01*
D15*
X7595356Y-12605356D02*
X7595356Y-12534644D01*
X7524644Y-12534644D01*
X7524644Y-12605356D01*
X7595356Y-12605356D01*
D11*
X7620000Y-12520000D02*
X7500000Y-12520000D01*
X7620000Y-12620000D02*
X7500000Y-12620000D01*
X7500000Y-12520000D02*
G75*
G03*
X7500000Y-12620000I0J-50000D01*
G01*
X7620000Y-12620000D02*
G75*
G03*
X7620000Y-12520000I0J50000D01*
G01*
D15*
X8075356Y-11665356D02*
X8075356Y-11594644D01*
X8004644Y-11594644D01*
X8004644Y-11665356D01*
X8075356Y-11665356D01*
D11*
X8100000Y-11580000D02*
X7980000Y-11580000D01*
X8100000Y-11680000D02*
X7980000Y-11680000D01*
X7980000Y-11580000D02*
G75*
G03*
X7980000Y-11680000I0J-50000D01*
G01*
X8100000Y-11680000D02*
G75*
G03*
X8100000Y-11580000I0J50000D01*
G01*
D15*
X8075356Y-12135356D02*
X8075356Y-12064644D01*
X8004644Y-12064644D01*
X8004644Y-12135356D01*
X8075356Y-12135356D01*
D11*
X8100000Y-12050000D02*
X7980000Y-12050000D01*
X8100000Y-12150000D02*
X7980000Y-12150000D01*
X7980000Y-12050000D02*
G75*
G03*
X7980000Y-12150000I0J-50000D01*
G01*
X8100000Y-12150000D02*
G75*
G03*
X8100000Y-12050000I0J50000D01*
G01*
D15*
X8075356Y-12605356D02*
X8075356Y-12534644D01*
X8004644Y-12534644D01*
X8004644Y-12605356D01*
X8075356Y-12605356D01*
D11*
X8100000Y-12520000D02*
X7980000Y-12520000D01*
X8100000Y-12620000D02*
X7980000Y-12620000D01*
X7980000Y-12520000D02*
G75*
G03*
X7980000Y-12620000I0J-50000D01*
G01*
X8100000Y-12620000D02*
G75*
G03*
X8100000Y-12520000I0J50000D01*
G01*
D16*
X4000000Y-9533000D02*
X4061000Y-9472000D01*
X4000000Y-9411000D01*
X3939000Y-9472000D01*
X4000000Y-9533000D01*
X4200000Y-13011000D02*
X4261000Y-12950000D01*
X4200000Y-12889000D01*
X4139000Y-12950000D01*
X4200000Y-13011000D01*
X8000000Y-9521000D02*
X8061000Y-9460000D01*
X8000000Y-9399000D01*
X7939000Y-9460000D01*
X8000000Y-9521000D01*
D17*
X3929000Y-9711000D02*
X4071000Y-9853000D01*
X4071000Y-9711000D02*
X3929000Y-9853000D01*
X4071000Y-9782000D02*
G75*
G03*
X4071000Y-9782000I-71000J0D01*
G01*
X4129000Y-13189000D02*
X4271000Y-13331000D01*
X4271000Y-13189000D02*
X4129000Y-13331000D01*
X4271000Y-13260000D02*
G75*
G03*
X4271000Y-13260000I-71000J0D01*
G01*
X7929000Y-9699000D02*
X8071000Y-9841000D01*
X8071000Y-9699000D02*
X7929000Y-9841000D01*
X8071000Y-9770000D02*
G75*
G03*
X8071000Y-9770000I-71000J0D01*
G01*
D18*
X3928500Y-10540500D02*
X4071500Y-10683500D01*
X4071500Y-10540500D02*
X3928500Y-10683500D01*
X4000000Y-10540500D02*
X4000000Y-10683500D01*
X3928500Y-10612000D02*
X4071500Y-10612000D01*
X4128500Y-14018500D02*
X4271500Y-14161500D01*
X4271500Y-14018500D02*
X4128500Y-14161500D01*
X4200000Y-14018500D02*
X4200000Y-14161500D01*
X4128500Y-14090000D02*
X4271500Y-14090000D01*
X7928500Y-10528500D02*
X8071500Y-10671500D01*
X8071500Y-10528500D02*
X7928500Y-10671500D01*
X8000000Y-10528500D02*
X8000000Y-10671500D01*
X7928500Y-10600000D02*
X8071500Y-10600000D01*
D11*
X3755119Y-14962976D02*
X3755119Y-14762976D01*
X3802738Y-14762976D01*
X3831309Y-14772500D01*
X3850357Y-14791548D01*
X3859881Y-14810595D01*
X3869405Y-14848690D01*
X3869405Y-14877262D01*
X3859881Y-14915357D01*
X3850357Y-14934405D01*
X3831309Y-14953452D01*
X3802738Y-14962976D01*
X3755119Y-14962976D01*
X3955119Y-14962976D02*
X3955119Y-14829643D01*
X3955119Y-14867738D02*
X3964643Y-14848690D01*
X3974167Y-14839167D01*
X3993214Y-14829643D01*
X4012262Y-14829643D01*
X4078928Y-14962976D02*
X4078928Y-14829643D01*
X4078928Y-14762976D02*
X4069405Y-14772500D01*
X4078928Y-14782024D01*
X4088452Y-14772500D01*
X4078928Y-14762976D01*
X4078928Y-14782024D01*
X4202738Y-14962976D02*
X4183690Y-14953452D01*
X4174167Y-14934405D01*
X4174167Y-14762976D01*
X4307500Y-14962976D02*
X4288452Y-14953452D01*
X4278929Y-14934405D01*
X4278929Y-14762976D01*
X4536071Y-14962976D02*
X4536071Y-14762976D01*
X4602738Y-14905833D01*
X4669405Y-14762976D01*
X4669405Y-14962976D01*
X4850357Y-14962976D02*
X4850357Y-14858214D01*
X4840833Y-14839167D01*
X4821786Y-14829643D01*
X4783690Y-14829643D01*
X4764643Y-14839167D01*
X4850357Y-14953452D02*
X4831310Y-14962976D01*
X4783690Y-14962976D01*
X4764643Y-14953452D01*
X4755119Y-14934405D01*
X4755119Y-14915357D01*
X4764643Y-14896309D01*
X4783690Y-14886786D01*
X4831310Y-14886786D01*
X4850357Y-14877262D01*
X4945595Y-14829643D02*
X4945595Y-15029643D01*
X4945595Y-14839167D02*
X4964643Y-14829643D01*
X5002738Y-14829643D01*
X5021786Y-14839167D01*
X5031310Y-14848690D01*
X5040833Y-14867738D01*
X5040833Y-14924881D01*
X5031310Y-14943928D01*
X5021786Y-14953452D01*
X5002738Y-14962976D01*
X4964643Y-14962976D01*
X4945595Y-14953452D01*
X5126548Y-14943928D02*
X5136071Y-14953452D01*
X5126548Y-14962976D01*
X5117024Y-14953452D01*
X5126548Y-14943928D01*
X5126548Y-14962976D01*
X5126548Y-14839167D02*
X5136071Y-14848690D01*
X5126548Y-14858214D01*
X5117024Y-14848690D01*
X5126548Y-14839167D01*
X5126548Y-14858214D01*
D12*
X3457500Y-15272500D02*
X3497500Y-15312500D01*
X3497500Y-15272500D02*
X3457500Y-15312500D01*
D11*
X3793214Y-15182976D02*
X3812262Y-15182976D01*
X3831309Y-15192500D01*
X3840833Y-15202024D01*
X3850357Y-15221071D01*
X3859881Y-15259167D01*
X3859881Y-15306786D01*
X3850357Y-15344881D01*
X3840833Y-15363928D01*
X3831309Y-15373452D01*
X3812262Y-15382976D01*
X3793214Y-15382976D01*
X3774167Y-15373452D01*
X3764643Y-15363928D01*
X3755119Y-15344881D01*
X3745595Y-15306786D01*
X3745595Y-15259167D01*
X3755119Y-15221071D01*
X3764643Y-15202024D01*
X3774167Y-15192500D01*
X3793214Y-15182976D01*
X3945595Y-15363928D02*
X3955119Y-15373452D01*
X3945595Y-15382976D01*
X3936071Y-15373452D01*
X3945595Y-15363928D01*
X3945595Y-15382976D01*
X4126548Y-15249643D02*
X4126548Y-15382976D01*
X4078928Y-15173452D02*
X4031309Y-15316309D01*
X4155119Y-15316309D01*
X4269405Y-15182976D02*
X4288452Y-15182976D01*
X4307500Y-15192500D01*
X4317024Y-15202024D01*
X4326548Y-15221071D01*
X4336071Y-15259167D01*
X4336071Y-15306786D01*
X4326548Y-15344881D01*
X4317024Y-15363928D01*
X4307500Y-15373452D01*
X4288452Y-15382976D01*
X4269405Y-15382976D01*
X4250357Y-15373452D01*
X4240833Y-15363928D01*
X4231310Y-15344881D01*
X4221786Y-15306786D01*
X4221786Y-15259167D01*
X4231310Y-15221071D01*
X4240833Y-15202024D01*
X4250357Y-15192500D01*
X4269405Y-15182976D01*
X4459881Y-15182976D02*
X4478929Y-15182976D01*
X4497976Y-15192500D01*
X4507500Y-15202024D01*
X4517024Y-15221071D01*
X4526548Y-15259167D01*
X4526548Y-15306786D01*
X4517024Y-15344881D01*
X4507500Y-15363928D01*
X4497976Y-15373452D01*
X4478929Y-15382976D01*
X4459881Y-15382976D01*
X4440833Y-15373452D01*
X4431310Y-15363928D01*
X4421786Y-15344881D01*
X4412262Y-15306786D01*
X4412262Y-15259167D01*
X4421786Y-15221071D01*
X4431310Y-15202024D01*
X4440833Y-15192500D01*
X4459881Y-15182976D01*
X4612262Y-15382976D02*
X4612262Y-15249643D01*
X4612262Y-15268690D02*
X4621786Y-15259167D01*
X4640833Y-15249643D01*
X4669405Y-15249643D01*
X4688452Y-15259167D01*
X4697976Y-15278214D01*
X4697976Y-15382976D01*
X4697976Y-15278214D02*
X4707500Y-15259167D01*
X4726548Y-15249643D01*
X4755119Y-15249643D01*
X4774167Y-15259167D01*
X4783690Y-15278214D01*
X4783690Y-15382976D01*
X4878929Y-15382976D02*
X4878929Y-15249643D01*
X4878929Y-15268690D02*
X4888452Y-15259167D01*
X4907500Y-15249643D01*
X4936071Y-15249643D01*
X4955119Y-15259167D01*
X4964643Y-15278214D01*
X4964643Y-15382976D01*
X4964643Y-15278214D02*
X4974167Y-15259167D01*
X4993214Y-15249643D01*
X5021786Y-15249643D01*
X5040833Y-15259167D01*
X5050357Y-15278214D01*
X5050357Y-15382976D01*
X5440833Y-15173452D02*
X5269405Y-15430595D01*
X5697976Y-15182976D02*
X5717024Y-15182976D01*
X5736071Y-15192500D01*
X5745595Y-15202024D01*
X5755119Y-15221071D01*
X5764643Y-15259167D01*
X5764643Y-15306786D01*
X5755119Y-15344881D01*
X5745595Y-15363928D01*
X5736071Y-15373452D01*
X5717024Y-15382976D01*
X5697976Y-15382976D01*
X5678928Y-15373452D01*
X5669405Y-15363928D01*
X5659881Y-15344881D01*
X5650357Y-15306786D01*
X5650357Y-15259167D01*
X5659881Y-15221071D01*
X5669405Y-15202024D01*
X5678928Y-15192500D01*
X5697976Y-15182976D01*
X5850357Y-15363928D02*
X5859881Y-15373452D01*
X5850357Y-15382976D01*
X5840833Y-15373452D01*
X5850357Y-15363928D01*
X5850357Y-15382976D01*
X5983690Y-15182976D02*
X6002738Y-15182976D01*
X6021786Y-15192500D01*
X6031309Y-15202024D01*
X6040833Y-15221071D01*
X6050357Y-15259167D01*
X6050357Y-15306786D01*
X6040833Y-15344881D01*
X6031309Y-15363928D01*
X6021786Y-15373452D01*
X6002738Y-15382976D01*
X5983690Y-15382976D01*
X5964643Y-15373452D01*
X5955119Y-15363928D01*
X5945595Y-15344881D01*
X5936071Y-15306786D01*
X5936071Y-15259167D01*
X5945595Y-15221071D01*
X5955119Y-15202024D01*
X5964643Y-15192500D01*
X5983690Y-15182976D01*
X6240833Y-15382976D02*
X6126548Y-15382976D01*
X6183690Y-15382976D02*
X6183690Y-15182976D01*
X6164643Y-15211548D01*
X6145595Y-15230595D01*
X6126548Y-15240119D01*
X6421786Y-15182976D02*
X6326548Y-15182976D01*
X6317024Y-15278214D01*
X6326548Y-15268690D01*
X6345595Y-15259167D01*
X6393214Y-15259167D01*
X6412262Y-15268690D01*
X6421786Y-15278214D01*
X6431309Y-15297262D01*
X6431309Y-15344881D01*
X6421786Y-15363928D01*
X6412262Y-15373452D01*
X6393214Y-15382976D01*
X6345595Y-15382976D01*
X6326548Y-15373452D01*
X6317024Y-15363928D01*
X6497976Y-15182976D02*
X6631309Y-15182976D01*
X6545595Y-15382976D01*
X6697976Y-15182976D02*
X6697976Y-15221071D01*
X6774167Y-15182976D02*
X6774167Y-15221071D01*
X7069405Y-15459167D02*
X7059881Y-15449643D01*
X7040833Y-15421071D01*
X7031309Y-15402024D01*
X7021786Y-15373452D01*
X7012262Y-15325833D01*
X7012262Y-15287738D01*
X7021786Y-15240119D01*
X7031309Y-15211548D01*
X7040833Y-15192500D01*
X7059881Y-15163928D01*
X7069405Y-15154405D01*
X7231309Y-15182976D02*
X7193214Y-15182976D01*
X7174167Y-15192500D01*
X7164643Y-15202024D01*
X7145595Y-15230595D01*
X7136071Y-15268690D01*
X7136071Y-15344881D01*
X7145595Y-15363928D01*
X7155119Y-15373452D01*
X7174167Y-15382976D01*
X7212262Y-15382976D01*
X7231309Y-15373452D01*
X7240833Y-15363928D01*
X7250357Y-15344881D01*
X7250357Y-15297262D01*
X7240833Y-15278214D01*
X7231309Y-15268690D01*
X7212262Y-15259167D01*
X7174167Y-15259167D01*
X7155119Y-15268690D01*
X7145595Y-15278214D01*
X7136071Y-15297262D01*
X7488452Y-15382976D02*
X7488452Y-15182976D01*
X7574167Y-15382976D02*
X7574167Y-15278214D01*
X7564643Y-15259167D01*
X7545595Y-15249643D01*
X7517024Y-15249643D01*
X7497976Y-15259167D01*
X7488452Y-15268690D01*
X7697976Y-15382976D02*
X7678928Y-15373452D01*
X7669405Y-15363928D01*
X7659881Y-15344881D01*
X7659881Y-15287738D01*
X7669405Y-15268690D01*
X7678928Y-15259167D01*
X7697976Y-15249643D01*
X7726548Y-15249643D01*
X7745595Y-15259167D01*
X7755119Y-15268690D01*
X7764643Y-15287738D01*
X7764643Y-15344881D01*
X7755119Y-15363928D01*
X7745595Y-15373452D01*
X7726548Y-15382976D01*
X7697976Y-15382976D01*
X7878928Y-15382976D02*
X7859881Y-15373452D01*
X7850357Y-15354405D01*
X7850357Y-15182976D01*
X8031309Y-15373452D02*
X8012262Y-15382976D01*
X7974167Y-15382976D01*
X7955119Y-15373452D01*
X7945595Y-15354405D01*
X7945595Y-15278214D01*
X7955119Y-15259167D01*
X7974167Y-15249643D01*
X8012262Y-15249643D01*
X8031309Y-15259167D01*
X8040833Y-15278214D01*
X8040833Y-15297262D01*
X7945595Y-15316309D01*
X8117024Y-15373452D02*
X8136071Y-15382976D01*
X8174167Y-15382976D01*
X8193214Y-15373452D01*
X8202738Y-15354405D01*
X8202738Y-15344881D01*
X8193214Y-15325833D01*
X8174167Y-15316309D01*
X8145595Y-15316309D01*
X8126548Y-15306786D01*
X8117024Y-15287738D01*
X8117024Y-15278214D01*
X8126548Y-15259167D01*
X8145595Y-15249643D01*
X8174167Y-15249643D01*
X8193214Y-15259167D01*
X8269405Y-15459167D02*
X8278928Y-15449643D01*
X8297976Y-15421071D01*
X8307500Y-15402024D01*
X8317024Y-15373452D01*
X8326548Y-15325833D01*
X8326548Y-15287738D01*
X8317024Y-15240119D01*
X8307500Y-15211548D01*
X8297976Y-15192500D01*
X8278928Y-15163928D01*
X8269405Y-15154405D01*
D13*
X3497500Y-15556500D02*
G75*
G03*
X3497500Y-15556500I-40000J0D01*
G01*
D11*
X3793214Y-15446976D02*
X3812262Y-15446976D01*
X3831309Y-15456500D01*
X3840833Y-15466024D01*
X3850357Y-15485071D01*
X3859881Y-15523167D01*
X3859881Y-15570786D01*
X3850357Y-15608881D01*
X3840833Y-15627928D01*
X3831309Y-15637452D01*
X3812262Y-15646976D01*
X3793214Y-15646976D01*
X3774167Y-15637452D01*
X3764643Y-15627928D01*
X3755119Y-15608881D01*
X3745595Y-15570786D01*
X3745595Y-15523167D01*
X3755119Y-15485071D01*
X3764643Y-15466024D01*
X3774167Y-15456500D01*
X3793214Y-15446976D01*
X3945595Y-15627928D02*
X3955119Y-15637452D01*
X3945595Y-15646976D01*
X3936071Y-15637452D01*
X3945595Y-15627928D01*
X3945595Y-15646976D01*
X4069405Y-15532690D02*
X4050357Y-15523167D01*
X4040833Y-15513643D01*
X4031309Y-15494595D01*
X4031309Y-15485071D01*
X4040833Y-15466024D01*
X4050357Y-15456500D01*
X4069405Y-15446976D01*
X4107500Y-15446976D01*
X4126548Y-15456500D01*
X4136071Y-15466024D01*
X4145595Y-15485071D01*
X4145595Y-15494595D01*
X4136071Y-15513643D01*
X4126548Y-15523167D01*
X4107500Y-15532690D01*
X4069405Y-15532690D01*
X4050357Y-15542214D01*
X4040833Y-15551738D01*
X4031309Y-15570786D01*
X4031309Y-15608881D01*
X4040833Y-15627928D01*
X4050357Y-15637452D01*
X4069405Y-15646976D01*
X4107500Y-15646976D01*
X4126548Y-15637452D01*
X4136071Y-15627928D01*
X4145595Y-15608881D01*
X4145595Y-15570786D01*
X4136071Y-15551738D01*
X4126548Y-15542214D01*
X4107500Y-15532690D01*
X4269405Y-15446976D02*
X4288452Y-15446976D01*
X4307500Y-15456500D01*
X4317024Y-15466024D01*
X4326548Y-15485071D01*
X4336071Y-15523167D01*
X4336071Y-15570786D01*
X4326548Y-15608881D01*
X4317024Y-15627928D01*
X4307500Y-15637452D01*
X4288452Y-15646976D01*
X4269405Y-15646976D01*
X4250357Y-15637452D01*
X4240833Y-15627928D01*
X4231310Y-15608881D01*
X4221786Y-15570786D01*
X4221786Y-15523167D01*
X4231310Y-15485071D01*
X4240833Y-15466024D01*
X4250357Y-15456500D01*
X4269405Y-15446976D01*
X4459881Y-15446976D02*
X4478929Y-15446976D01*
X4497976Y-15456500D01*
X4507500Y-15466024D01*
X4517024Y-15485071D01*
X4526548Y-15523167D01*
X4526548Y-15570786D01*
X4517024Y-15608881D01*
X4507500Y-15627928D01*
X4497976Y-15637452D01*
X4478929Y-15646976D01*
X4459881Y-15646976D01*
X4440833Y-15637452D01*
X4431310Y-15627928D01*
X4421786Y-15608881D01*
X4412262Y-15570786D01*
X4412262Y-15523167D01*
X4421786Y-15485071D01*
X4431310Y-15466024D01*
X4440833Y-15456500D01*
X4459881Y-15446976D01*
X4612262Y-15646976D02*
X4612262Y-15513643D01*
X4612262Y-15532690D02*
X4621786Y-15523167D01*
X4640833Y-15513643D01*
X4669405Y-15513643D01*
X4688452Y-15523167D01*
X4697976Y-15542214D01*
X4697976Y-15646976D01*
X4697976Y-15542214D02*
X4707500Y-15523167D01*
X4726548Y-15513643D01*
X4755119Y-15513643D01*
X4774167Y-15523167D01*
X4783690Y-15542214D01*
X4783690Y-15646976D01*
X4878929Y-15646976D02*
X4878929Y-15513643D01*
X4878929Y-15532690D02*
X4888452Y-15523167D01*
X4907500Y-15513643D01*
X4936071Y-15513643D01*
X4955119Y-15523167D01*
X4964643Y-15542214D01*
X4964643Y-15646976D01*
X4964643Y-15542214D02*
X4974167Y-15523167D01*
X4993214Y-15513643D01*
X5021786Y-15513643D01*
X5040833Y-15523167D01*
X5050357Y-15542214D01*
X5050357Y-15646976D01*
X5440833Y-15437452D02*
X5269405Y-15694595D01*
X5697976Y-15446976D02*
X5717024Y-15446976D01*
X5736071Y-15456500D01*
X5745595Y-15466024D01*
X5755119Y-15485071D01*
X5764643Y-15523167D01*
X5764643Y-15570786D01*
X5755119Y-15608881D01*
X5745595Y-15627928D01*
X5736071Y-15637452D01*
X5717024Y-15646976D01*
X5697976Y-15646976D01*
X5678928Y-15637452D01*
X5669405Y-15627928D01*
X5659881Y-15608881D01*
X5650357Y-15570786D01*
X5650357Y-15523167D01*
X5659881Y-15485071D01*
X5669405Y-15466024D01*
X5678928Y-15456500D01*
X5697976Y-15446976D01*
X5850357Y-15627928D02*
X5859881Y-15637452D01*
X5850357Y-15646976D01*
X5840833Y-15637452D01*
X5850357Y-15627928D01*
X5850357Y-15646976D01*
X5983690Y-15446976D02*
X6002738Y-15446976D01*
X6021786Y-15456500D01*
X6031309Y-15466024D01*
X6040833Y-15485071D01*
X6050357Y-15523167D01*
X6050357Y-15570786D01*
X6040833Y-15608881D01*
X6031309Y-15627928D01*
X6021786Y-15637452D01*
X6002738Y-15646976D01*
X5983690Y-15646976D01*
X5964643Y-15637452D01*
X5955119Y-15627928D01*
X5945595Y-15608881D01*
X5936071Y-15570786D01*
X5936071Y-15523167D01*
X5945595Y-15485071D01*
X5955119Y-15466024D01*
X5964643Y-15456500D01*
X5983690Y-15446976D01*
X6117024Y-15446976D02*
X6240833Y-15446976D01*
X6174167Y-15523167D01*
X6202738Y-15523167D01*
X6221786Y-15532690D01*
X6231309Y-15542214D01*
X6240833Y-15561262D01*
X6240833Y-15608881D01*
X6231309Y-15627928D01*
X6221786Y-15637452D01*
X6202738Y-15646976D01*
X6145595Y-15646976D01*
X6126548Y-15637452D01*
X6117024Y-15627928D01*
X6431309Y-15646976D02*
X6317024Y-15646976D01*
X6374167Y-15646976D02*
X6374167Y-15446976D01*
X6355119Y-15475548D01*
X6336071Y-15494595D01*
X6317024Y-15504119D01*
X6612262Y-15446976D02*
X6517024Y-15446976D01*
X6507500Y-15542214D01*
X6517024Y-15532690D01*
X6536071Y-15523167D01*
X6583690Y-15523167D01*
X6602738Y-15532690D01*
X6612262Y-15542214D01*
X6621786Y-15561262D01*
X6621786Y-15608881D01*
X6612262Y-15627928D01*
X6602738Y-15637452D01*
X6583690Y-15646976D01*
X6536071Y-15646976D01*
X6517024Y-15637452D01*
X6507500Y-15627928D01*
X6697976Y-15446976D02*
X6697976Y-15485071D01*
X6774167Y-15446976D02*
X6774167Y-15485071D01*
X7069405Y-15723167D02*
X7059881Y-15713643D01*
X7040833Y-15685071D01*
X7031309Y-15666024D01*
X7021786Y-15637452D01*
X7012262Y-15589833D01*
X7012262Y-15551738D01*
X7021786Y-15504119D01*
X7031309Y-15475548D01*
X7040833Y-15456500D01*
X7059881Y-15427928D01*
X7069405Y-15418405D01*
X7155119Y-15646976D02*
X7193214Y-15646976D01*
X7212262Y-15637452D01*
X7221786Y-15627928D01*
X7240833Y-15599357D01*
X7250357Y-15561262D01*
X7250357Y-15485071D01*
X7240833Y-15466024D01*
X7231309Y-15456500D01*
X7212262Y-15446976D01*
X7174167Y-15446976D01*
X7155119Y-15456500D01*
X7145595Y-15466024D01*
X7136071Y-15485071D01*
X7136071Y-15532690D01*
X7145595Y-15551738D01*
X7155119Y-15561262D01*
X7174167Y-15570786D01*
X7212262Y-15570786D01*
X7231309Y-15561262D01*
X7240833Y-15551738D01*
X7250357Y-15532690D01*
X7421786Y-15446976D02*
X7383690Y-15446976D01*
X7364643Y-15456500D01*
X7355119Y-15466024D01*
X7336071Y-15494595D01*
X7326548Y-15532690D01*
X7326548Y-15608881D01*
X7336071Y-15627928D01*
X7345595Y-15637452D01*
X7364643Y-15646976D01*
X7402738Y-15646976D01*
X7421786Y-15637452D01*
X7431309Y-15627928D01*
X7440833Y-15608881D01*
X7440833Y-15561262D01*
X7431309Y-15542214D01*
X7421786Y-15532690D01*
X7402738Y-15523167D01*
X7364643Y-15523167D01*
X7345595Y-15532690D01*
X7336071Y-15542214D01*
X7326548Y-15561262D01*
X7678928Y-15646976D02*
X7678928Y-15446976D01*
X7764643Y-15646976D02*
X7764643Y-15542214D01*
X7755119Y-15523167D01*
X7736071Y-15513643D01*
X7707500Y-15513643D01*
X7688452Y-15523167D01*
X7678928Y-15532690D01*
X7888452Y-15646976D02*
X7869405Y-15637452D01*
X7859881Y-15627928D01*
X7850357Y-15608881D01*
X7850357Y-15551738D01*
X7859881Y-15532690D01*
X7869405Y-15523167D01*
X7888452Y-15513643D01*
X7917024Y-15513643D01*
X7936071Y-15523167D01*
X7945595Y-15532690D01*
X7955119Y-15551738D01*
X7955119Y-15608881D01*
X7945595Y-15627928D01*
X7936071Y-15637452D01*
X7917024Y-15646976D01*
X7888452Y-15646976D01*
X8069405Y-15646976D02*
X8050357Y-15637452D01*
X8040833Y-15618405D01*
X8040833Y-15446976D01*
X8221786Y-15637452D02*
X8202738Y-15646976D01*
X8164643Y-15646976D01*
X8145595Y-15637452D01*
X8136071Y-15618405D01*
X8136071Y-15542214D01*
X8145595Y-15523167D01*
X8164643Y-15513643D01*
X8202738Y-15513643D01*
X8221786Y-15523167D01*
X8231309Y-15542214D01*
X8231309Y-15561262D01*
X8136071Y-15580309D01*
X8307500Y-15637452D02*
X8326548Y-15646976D01*
X8364643Y-15646976D01*
X8383690Y-15637452D01*
X8393214Y-15618405D01*
X8393214Y-15608881D01*
X8383690Y-15589833D01*
X8364643Y-15580309D01*
X8336071Y-15580309D01*
X8317024Y-15570786D01*
X8307500Y-15551738D01*
X8307500Y-15542214D01*
X8317024Y-15523167D01*
X8336071Y-15513643D01*
X8364643Y-15513643D01*
X8383690Y-15523167D01*
X8459881Y-15723167D02*
X8469405Y-15713643D01*
X8488452Y-15685071D01*
X8497976Y-15666024D01*
X8507500Y-15637452D01*
X8517024Y-15589833D01*
X8517024Y-15551738D01*
X8507500Y-15504119D01*
X8497976Y-15475548D01*
X8488452Y-15456500D01*
X8469405Y-15427928D01*
X8459881Y-15418405D01*
D14*
X3452500Y-15775500D02*
X3452500Y-15865500D01*
X3407500Y-15820500D02*
X3497500Y-15820500D01*
D11*
X3793214Y-15710976D02*
X3812262Y-15710976D01*
X3831309Y-15720500D01*
X3840833Y-15730024D01*
X3850357Y-15749071D01*
X3859881Y-15787167D01*
X3859881Y-15834786D01*
X3850357Y-15872881D01*
X3840833Y-15891928D01*
X3831309Y-15901452D01*
X3812262Y-15910976D01*
X3793214Y-15910976D01*
X3774167Y-15901452D01*
X3764643Y-15891928D01*
X3755119Y-15872881D01*
X3745595Y-15834786D01*
X3745595Y-15787167D01*
X3755119Y-15749071D01*
X3764643Y-15730024D01*
X3774167Y-15720500D01*
X3793214Y-15710976D01*
X3945595Y-15891928D02*
X3955119Y-15901452D01*
X3945595Y-15910976D01*
X3936071Y-15901452D01*
X3945595Y-15891928D01*
X3945595Y-15910976D01*
X4050357Y-15910976D02*
X4088452Y-15910976D01*
X4107500Y-15901452D01*
X4117024Y-15891928D01*
X4136071Y-15863357D01*
X4145595Y-15825262D01*
X4145595Y-15749071D01*
X4136071Y-15730024D01*
X4126548Y-15720500D01*
X4107500Y-15710976D01*
X4069405Y-15710976D01*
X4050357Y-15720500D01*
X4040833Y-15730024D01*
X4031309Y-15749071D01*
X4031309Y-15796690D01*
X4040833Y-15815738D01*
X4050357Y-15825262D01*
X4069405Y-15834786D01*
X4107500Y-15834786D01*
X4126548Y-15825262D01*
X4136071Y-15815738D01*
X4145595Y-15796690D01*
X4269405Y-15710976D02*
X4288452Y-15710976D01*
X4307500Y-15720500D01*
X4317024Y-15730024D01*
X4326548Y-15749071D01*
X4336071Y-15787167D01*
X4336071Y-15834786D01*
X4326548Y-15872881D01*
X4317024Y-15891928D01*
X4307500Y-15901452D01*
X4288452Y-15910976D01*
X4269405Y-15910976D01*
X4250357Y-15901452D01*
X4240833Y-15891928D01*
X4231310Y-15872881D01*
X4221786Y-15834786D01*
X4221786Y-15787167D01*
X4231310Y-15749071D01*
X4240833Y-15730024D01*
X4250357Y-15720500D01*
X4269405Y-15710976D01*
X4459881Y-15710976D02*
X4478929Y-15710976D01*
X4497976Y-15720500D01*
X4507500Y-15730024D01*
X4517024Y-15749071D01*
X4526548Y-15787167D01*
X4526548Y-15834786D01*
X4517024Y-15872881D01*
X4507500Y-15891928D01*
X4497976Y-15901452D01*
X4478929Y-15910976D01*
X4459881Y-15910976D01*
X4440833Y-15901452D01*
X4431310Y-15891928D01*
X4421786Y-15872881D01*
X4412262Y-15834786D01*
X4412262Y-15787167D01*
X4421786Y-15749071D01*
X4431310Y-15730024D01*
X4440833Y-15720500D01*
X4459881Y-15710976D01*
X4612262Y-15910976D02*
X4612262Y-15777643D01*
X4612262Y-15796690D02*
X4621786Y-15787167D01*
X4640833Y-15777643D01*
X4669405Y-15777643D01*
X4688452Y-15787167D01*
X4697976Y-15806214D01*
X4697976Y-15910976D01*
X4697976Y-15806214D02*
X4707500Y-15787167D01*
X4726548Y-15777643D01*
X4755119Y-15777643D01*
X4774167Y-15787167D01*
X4783690Y-15806214D01*
X4783690Y-15910976D01*
X4878929Y-15910976D02*
X4878929Y-15777643D01*
X4878929Y-15796690D02*
X4888452Y-15787167D01*
X4907500Y-15777643D01*
X4936071Y-15777643D01*
X4955119Y-15787167D01*
X4964643Y-15806214D01*
X4964643Y-15910976D01*
X4964643Y-15806214D02*
X4974167Y-15787167D01*
X4993214Y-15777643D01*
X5021786Y-15777643D01*
X5040833Y-15787167D01*
X5050357Y-15806214D01*
X5050357Y-15910976D01*
X5440833Y-15701452D02*
X5269405Y-15958595D01*
X5697976Y-15710976D02*
X5717024Y-15710976D01*
X5736071Y-15720500D01*
X5745595Y-15730024D01*
X5755119Y-15749071D01*
X5764643Y-15787167D01*
X5764643Y-15834786D01*
X5755119Y-15872881D01*
X5745595Y-15891928D01*
X5736071Y-15901452D01*
X5717024Y-15910976D01*
X5697976Y-15910976D01*
X5678928Y-15901452D01*
X5669405Y-15891928D01*
X5659881Y-15872881D01*
X5650357Y-15834786D01*
X5650357Y-15787167D01*
X5659881Y-15749071D01*
X5669405Y-15730024D01*
X5678928Y-15720500D01*
X5697976Y-15710976D01*
X5850357Y-15891928D02*
X5859881Y-15901452D01*
X5850357Y-15910976D01*
X5840833Y-15901452D01*
X5850357Y-15891928D01*
X5850357Y-15910976D01*
X5983690Y-15710976D02*
X6002738Y-15710976D01*
X6021786Y-15720500D01*
X6031309Y-15730024D01*
X6040833Y-15749071D01*
X6050357Y-15787167D01*
X6050357Y-15834786D01*
X6040833Y-15872881D01*
X6031309Y-15891928D01*
X6021786Y-15901452D01*
X6002738Y-15910976D01*
X5983690Y-15910976D01*
X5964643Y-15901452D01*
X5955119Y-15891928D01*
X5945595Y-15872881D01*
X5936071Y-15834786D01*
X5936071Y-15787167D01*
X5945595Y-15749071D01*
X5955119Y-15730024D01*
X5964643Y-15720500D01*
X5983690Y-15710976D01*
X6117024Y-15710976D02*
X6240833Y-15710976D01*
X6174167Y-15787167D01*
X6202738Y-15787167D01*
X6221786Y-15796690D01*
X6231309Y-15806214D01*
X6240833Y-15825262D01*
X6240833Y-15872881D01*
X6231309Y-15891928D01*
X6221786Y-15901452D01*
X6202738Y-15910976D01*
X6145595Y-15910976D01*
X6126548Y-15901452D01*
X6117024Y-15891928D01*
X6421786Y-15710976D02*
X6326548Y-15710976D01*
X6317024Y-15806214D01*
X6326548Y-15796690D01*
X6345595Y-15787167D01*
X6393214Y-15787167D01*
X6412262Y-15796690D01*
X6421786Y-15806214D01*
X6431309Y-15825262D01*
X6431309Y-15872881D01*
X6421786Y-15891928D01*
X6412262Y-15901452D01*
X6393214Y-15910976D01*
X6345595Y-15910976D01*
X6326548Y-15901452D01*
X6317024Y-15891928D01*
X6602738Y-15777643D02*
X6602738Y-15910976D01*
X6555119Y-15701452D02*
X6507500Y-15844309D01*
X6631309Y-15844309D01*
X6697976Y-15710976D02*
X6697976Y-15749071D01*
X6774167Y-15710976D02*
X6774167Y-15749071D01*
X7069405Y-15987167D02*
X7059881Y-15977643D01*
X7040833Y-15949071D01*
X7031309Y-15930024D01*
X7021786Y-15901452D01*
X7012262Y-15853833D01*
X7012262Y-15815738D01*
X7021786Y-15768119D01*
X7031309Y-15739548D01*
X7040833Y-15720500D01*
X7059881Y-15691928D01*
X7069405Y-15682405D01*
X7136071Y-15730024D02*
X7145595Y-15720500D01*
X7164643Y-15710976D01*
X7212262Y-15710976D01*
X7231309Y-15720500D01*
X7240833Y-15730024D01*
X7250357Y-15749071D01*
X7250357Y-15768119D01*
X7240833Y-15796690D01*
X7126548Y-15910976D01*
X7250357Y-15910976D01*
X7488452Y-15910976D02*
X7488452Y-15710976D01*
X7574167Y-15910976D02*
X7574167Y-15806214D01*
X7564643Y-15787167D01*
X7545595Y-15777643D01*
X7517024Y-15777643D01*
X7497976Y-15787167D01*
X7488452Y-15796690D01*
X7697976Y-15910976D02*
X7678928Y-15901452D01*
X7669405Y-15891928D01*
X7659881Y-15872881D01*
X7659881Y-15815738D01*
X7669405Y-15796690D01*
X7678928Y-15787167D01*
X7697976Y-15777643D01*
X7726548Y-15777643D01*
X7745595Y-15787167D01*
X7755119Y-15796690D01*
X7764643Y-15815738D01*
X7764643Y-15872881D01*
X7755119Y-15891928D01*
X7745595Y-15901452D01*
X7726548Y-15910976D01*
X7697976Y-15910976D01*
X7878928Y-15910976D02*
X7859881Y-15901452D01*
X7850357Y-15882405D01*
X7850357Y-15710976D01*
X8031309Y-15901452D02*
X8012262Y-15910976D01*
X7974167Y-15910976D01*
X7955119Y-15901452D01*
X7945595Y-15882405D01*
X7945595Y-15806214D01*
X7955119Y-15787167D01*
X7974167Y-15777643D01*
X8012262Y-15777643D01*
X8031309Y-15787167D01*
X8040833Y-15806214D01*
X8040833Y-15825262D01*
X7945595Y-15844309D01*
X8117024Y-15901452D02*
X8136071Y-15910976D01*
X8174167Y-15910976D01*
X8193214Y-15901452D01*
X8202738Y-15882405D01*
X8202738Y-15872881D01*
X8193214Y-15853833D01*
X8174167Y-15844309D01*
X8145595Y-15844309D01*
X8126548Y-15834786D01*
X8117024Y-15815738D01*
X8117024Y-15806214D01*
X8126548Y-15787167D01*
X8145595Y-15777643D01*
X8174167Y-15777643D01*
X8193214Y-15787167D01*
X8269405Y-15987167D02*
X8278928Y-15977643D01*
X8297976Y-15949071D01*
X8307500Y-15930024D01*
X8317024Y-15901452D01*
X8326548Y-15853833D01*
X8326548Y-15815738D01*
X8317024Y-15768119D01*
X8307500Y-15739548D01*
X8297976Y-15720500D01*
X8278928Y-15691928D01*
X8269405Y-15682405D01*
D15*
X3482856Y-16119856D02*
X3482856Y-16049144D01*
X3412144Y-16049144D01*
X3412144Y-16119856D01*
X3482856Y-16119856D01*
D11*
X3859881Y-16174976D02*
X3745595Y-16174976D01*
X3802738Y-16174976D02*
X3802738Y-15974976D01*
X3783690Y-16003548D01*
X3764643Y-16022595D01*
X3745595Y-16032119D01*
X3945595Y-16155928D02*
X3955119Y-16165452D01*
X3945595Y-16174976D01*
X3936071Y-16165452D01*
X3945595Y-16155928D01*
X3945595Y-16174976D01*
X4078928Y-15974976D02*
X4097976Y-15974976D01*
X4117024Y-15984500D01*
X4126548Y-15994024D01*
X4136071Y-16013071D01*
X4145595Y-16051167D01*
X4145595Y-16098786D01*
X4136071Y-16136881D01*
X4126548Y-16155928D01*
X4117024Y-16165452D01*
X4097976Y-16174976D01*
X4078928Y-16174976D01*
X4059881Y-16165452D01*
X4050357Y-16155928D01*
X4040833Y-16136881D01*
X4031309Y-16098786D01*
X4031309Y-16051167D01*
X4040833Y-16013071D01*
X4050357Y-15994024D01*
X4059881Y-15984500D01*
X4078928Y-15974976D01*
X4269405Y-15974976D02*
X4288452Y-15974976D01*
X4307500Y-15984500D01*
X4317024Y-15994024D01*
X4326548Y-16013071D01*
X4336071Y-16051167D01*
X4336071Y-16098786D01*
X4326548Y-16136881D01*
X4317024Y-16155928D01*
X4307500Y-16165452D01*
X4288452Y-16174976D01*
X4269405Y-16174976D01*
X4250357Y-16165452D01*
X4240833Y-16155928D01*
X4231310Y-16136881D01*
X4221786Y-16098786D01*
X4221786Y-16051167D01*
X4231310Y-16013071D01*
X4240833Y-15994024D01*
X4250357Y-15984500D01*
X4269405Y-15974976D01*
X4459881Y-15974976D02*
X4478929Y-15974976D01*
X4497976Y-15984500D01*
X4507500Y-15994024D01*
X4517024Y-16013071D01*
X4526548Y-16051167D01*
X4526548Y-16098786D01*
X4517024Y-16136881D01*
X4507500Y-16155928D01*
X4497976Y-16165452D01*
X4478929Y-16174976D01*
X4459881Y-16174976D01*
X4440833Y-16165452D01*
X4431310Y-16155928D01*
X4421786Y-16136881D01*
X4412262Y-16098786D01*
X4412262Y-16051167D01*
X4421786Y-16013071D01*
X4431310Y-15994024D01*
X4440833Y-15984500D01*
X4459881Y-15974976D01*
X4612262Y-16174976D02*
X4612262Y-16041643D01*
X4612262Y-16060690D02*
X4621786Y-16051167D01*
X4640833Y-16041643D01*
X4669405Y-16041643D01*
X4688452Y-16051167D01*
X4697976Y-16070214D01*
X4697976Y-16174976D01*
X4697976Y-16070214D02*
X4707500Y-16051167D01*
X4726548Y-16041643D01*
X4755119Y-16041643D01*
X4774167Y-16051167D01*
X4783690Y-16070214D01*
X4783690Y-16174976D01*
X4878929Y-16174976D02*
X4878929Y-16041643D01*
X4878929Y-16060690D02*
X4888452Y-16051167D01*
X4907500Y-16041643D01*
X4936071Y-16041643D01*
X4955119Y-16051167D01*
X4964643Y-16070214D01*
X4964643Y-16174976D01*
X4964643Y-16070214D02*
X4974167Y-16051167D01*
X4993214Y-16041643D01*
X5021786Y-16041643D01*
X5040833Y-16051167D01*
X5050357Y-16070214D01*
X5050357Y-16174976D01*
X5440833Y-15965452D02*
X5269405Y-16222595D01*
X5697976Y-15974976D02*
X5717024Y-15974976D01*
X5736071Y-15984500D01*
X5745595Y-15994024D01*
X5755119Y-16013071D01*
X5764643Y-16051167D01*
X5764643Y-16098786D01*
X5755119Y-16136881D01*
X5745595Y-16155928D01*
X5736071Y-16165452D01*
X5717024Y-16174976D01*
X5697976Y-16174976D01*
X5678928Y-16165452D01*
X5669405Y-16155928D01*
X5659881Y-16136881D01*
X5650357Y-16098786D01*
X5650357Y-16051167D01*
X5659881Y-16013071D01*
X5669405Y-15994024D01*
X5678928Y-15984500D01*
X5697976Y-15974976D01*
X5850357Y-16155928D02*
X5859881Y-16165452D01*
X5850357Y-16174976D01*
X5840833Y-16165452D01*
X5850357Y-16155928D01*
X5850357Y-16174976D01*
X5983690Y-15974976D02*
X6002738Y-15974976D01*
X6021786Y-15984500D01*
X6031309Y-15994024D01*
X6040833Y-16013071D01*
X6050357Y-16051167D01*
X6050357Y-16098786D01*
X6040833Y-16136881D01*
X6031309Y-16155928D01*
X6021786Y-16165452D01*
X6002738Y-16174976D01*
X5983690Y-16174976D01*
X5964643Y-16165452D01*
X5955119Y-16155928D01*
X5945595Y-16136881D01*
X5936071Y-16098786D01*
X5936071Y-16051167D01*
X5945595Y-16013071D01*
X5955119Y-15994024D01*
X5964643Y-15984500D01*
X5983690Y-15974976D01*
X6117024Y-15974976D02*
X6240833Y-15974976D01*
X6174167Y-16051167D01*
X6202738Y-16051167D01*
X6221786Y-16060690D01*
X6231309Y-16070214D01*
X6240833Y-16089262D01*
X6240833Y-16136881D01*
X6231309Y-16155928D01*
X6221786Y-16165452D01*
X6202738Y-16174976D01*
X6145595Y-16174976D01*
X6126548Y-16165452D01*
X6117024Y-16155928D01*
X6336071Y-16174976D02*
X6374167Y-16174976D01*
X6393214Y-16165452D01*
X6402738Y-16155928D01*
X6421786Y-16127357D01*
X6431309Y-16089262D01*
X6431309Y-16013071D01*
X6421786Y-15994024D01*
X6412262Y-15984500D01*
X6393214Y-15974976D01*
X6355119Y-15974976D01*
X6336071Y-15984500D01*
X6326548Y-15994024D01*
X6317024Y-16013071D01*
X6317024Y-16060690D01*
X6326548Y-16079738D01*
X6336071Y-16089262D01*
X6355119Y-16098786D01*
X6393214Y-16098786D01*
X6412262Y-16089262D01*
X6421786Y-16079738D01*
X6431309Y-16060690D01*
X6602738Y-16041643D02*
X6602738Y-16174976D01*
X6555119Y-15965452D02*
X6507500Y-16108309D01*
X6631309Y-16108309D01*
X6697976Y-15974976D02*
X6697976Y-16013071D01*
X6774167Y-15974976D02*
X6774167Y-16013071D01*
X7069405Y-16251167D02*
X7059881Y-16241643D01*
X7040833Y-16213071D01*
X7031309Y-16194024D01*
X7021786Y-16165452D01*
X7012262Y-16117833D01*
X7012262Y-16079738D01*
X7021786Y-16032119D01*
X7031309Y-16003548D01*
X7040833Y-15984500D01*
X7059881Y-15955928D01*
X7069405Y-15946405D01*
X7136071Y-15994024D02*
X7145595Y-15984500D01*
X7164643Y-15974976D01*
X7212262Y-15974976D01*
X7231309Y-15984500D01*
X7240833Y-15994024D01*
X7250357Y-16013071D01*
X7250357Y-16032119D01*
X7240833Y-16060690D01*
X7126548Y-16174976D01*
X7250357Y-16174976D01*
X7317024Y-15974976D02*
X7440833Y-15974976D01*
X7374167Y-16051167D01*
X7402738Y-16051167D01*
X7421786Y-16060690D01*
X7431309Y-16070214D01*
X7440833Y-16089262D01*
X7440833Y-16136881D01*
X7431309Y-16155928D01*
X7421786Y-16165452D01*
X7402738Y-16174976D01*
X7345595Y-16174976D01*
X7326548Y-16165452D01*
X7317024Y-16155928D01*
X7678928Y-16174976D02*
X7678928Y-15974976D01*
X7764643Y-16174976D02*
X7764643Y-16070214D01*
X7755119Y-16051167D01*
X7736071Y-16041643D01*
X7707500Y-16041643D01*
X7688452Y-16051167D01*
X7678928Y-16060690D01*
X7888452Y-16174976D02*
X7869405Y-16165452D01*
X7859881Y-16155928D01*
X7850357Y-16136881D01*
X7850357Y-16079738D01*
X7859881Y-16060690D01*
X7869405Y-16051167D01*
X7888452Y-16041643D01*
X7917024Y-16041643D01*
X7936071Y-16051167D01*
X7945595Y-16060690D01*
X7955119Y-16079738D01*
X7955119Y-16136881D01*
X7945595Y-16155928D01*
X7936071Y-16165452D01*
X7917024Y-16174976D01*
X7888452Y-16174976D01*
X8069405Y-16174976D02*
X8050357Y-16165452D01*
X8040833Y-16146405D01*
X8040833Y-15974976D01*
X8221786Y-16165452D02*
X8202738Y-16174976D01*
X8164643Y-16174976D01*
X8145595Y-16165452D01*
X8136071Y-16146405D01*
X8136071Y-16070214D01*
X8145595Y-16051167D01*
X8164643Y-16041643D01*
X8202738Y-16041643D01*
X8221786Y-16051167D01*
X8231309Y-16070214D01*
X8231309Y-16089262D01*
X8136071Y-16108309D01*
X8307500Y-16165452D02*
X8326548Y-16174976D01*
X8364643Y-16174976D01*
X8383690Y-16165452D01*
X8393214Y-16146405D01*
X8393214Y-16136881D01*
X8383690Y-16117833D01*
X8364643Y-16108309D01*
X8336071Y-16108309D01*
X8317024Y-16098786D01*
X8307500Y-16079738D01*
X8307500Y-16070214D01*
X8317024Y-16051167D01*
X8336071Y-16041643D01*
X8364643Y-16041643D01*
X8383690Y-16051167D01*
X8631310Y-16098786D02*
X8783690Y-16098786D01*
X8707500Y-16174976D02*
X8707500Y-16022595D01*
X9117024Y-15974976D02*
X9078929Y-15974976D01*
X9059881Y-15984500D01*
X9050357Y-15994024D01*
X9031310Y-16022595D01*
X9021786Y-16060690D01*
X9021786Y-16136881D01*
X9031310Y-16155928D01*
X9040833Y-16165452D01*
X9059881Y-16174976D01*
X9097976Y-16174976D01*
X9117024Y-16165452D01*
X9126548Y-16155928D01*
X9136071Y-16136881D01*
X9136071Y-16089262D01*
X9126548Y-16070214D01*
X9117024Y-16060690D01*
X9097976Y-16051167D01*
X9059881Y-16051167D01*
X9040833Y-16060690D01*
X9031310Y-16070214D01*
X9021786Y-16089262D01*
X9364643Y-16165452D02*
X9383690Y-16174976D01*
X9421786Y-16174976D01*
X9440833Y-16165452D01*
X9450357Y-16146405D01*
X9450357Y-16136881D01*
X9440833Y-16117833D01*
X9421786Y-16108309D01*
X9393214Y-16108309D01*
X9374167Y-16098786D01*
X9364643Y-16079738D01*
X9364643Y-16070214D01*
X9374167Y-16051167D01*
X9393214Y-16041643D01*
X9421786Y-16041643D01*
X9440833Y-16051167D01*
X9564643Y-16174976D02*
X9545595Y-16165452D01*
X9536071Y-16146405D01*
X9536071Y-15974976D01*
X9669405Y-16174976D02*
X9650357Y-16165452D01*
X9640833Y-16155928D01*
X9631310Y-16136881D01*
X9631310Y-16079738D01*
X9640833Y-16060690D01*
X9650357Y-16051167D01*
X9669405Y-16041643D01*
X9697976Y-16041643D01*
X9717024Y-16051167D01*
X9726548Y-16060690D01*
X9736071Y-16079738D01*
X9736071Y-16136881D01*
X9726548Y-16155928D01*
X9717024Y-16165452D01*
X9697976Y-16174976D01*
X9669405Y-16174976D01*
X9793214Y-16041643D02*
X9869405Y-16041643D01*
X9821786Y-15974976D02*
X9821786Y-16146405D01*
X9831310Y-16165452D01*
X9850357Y-16174976D01*
X9869405Y-16174976D01*
X9926548Y-16165452D02*
X9945595Y-16174976D01*
X9983690Y-16174976D01*
X10002738Y-16165452D01*
X10012262Y-16146405D01*
X10012262Y-16136881D01*
X10002738Y-16117833D01*
X9983690Y-16108309D01*
X9955119Y-16108309D01*
X9936071Y-16098786D01*
X9926548Y-16079738D01*
X9926548Y-16070214D01*
X9936071Y-16051167D01*
X9955119Y-16041643D01*
X9983690Y-16041643D01*
X10002738Y-16051167D01*
X10078929Y-16251167D02*
X10088452Y-16241643D01*
X10107500Y-16213071D01*
X10117024Y-16194024D01*
X10126548Y-16165452D01*
X10136071Y-16117833D01*
X10136071Y-16079738D01*
X10126548Y-16032119D01*
X10117024Y-16003548D01*
X10107500Y-15984500D01*
X10088452Y-15955928D01*
X10078929Y-15946405D01*
D16*
X3436500Y-16409500D02*
X3497500Y-16348500D01*
X3436500Y-16287500D01*
X3375500Y-16348500D01*
X3436500Y-16409500D01*
D11*
X3859881Y-16438976D02*
X3745595Y-16438976D01*
X3802738Y-16438976D02*
X3802738Y-16238976D01*
X3783690Y-16267548D01*
X3764643Y-16286595D01*
X3745595Y-16296119D01*
X3945595Y-16419928D02*
X3955119Y-16429452D01*
X3945595Y-16438976D01*
X3936071Y-16429452D01*
X3945595Y-16419928D01*
X3945595Y-16438976D01*
X4031309Y-16258024D02*
X4040833Y-16248500D01*
X4059881Y-16238976D01*
X4107500Y-16238976D01*
X4126548Y-16248500D01*
X4136071Y-16258024D01*
X4145595Y-16277071D01*
X4145595Y-16296119D01*
X4136071Y-16324690D01*
X4021786Y-16438976D01*
X4145595Y-16438976D01*
X4221786Y-16258024D02*
X4231310Y-16248500D01*
X4250357Y-16238976D01*
X4297976Y-16238976D01*
X4317024Y-16248500D01*
X4326548Y-16258024D01*
X4336071Y-16277071D01*
X4336071Y-16296119D01*
X4326548Y-16324690D01*
X4212262Y-16438976D01*
X4336071Y-16438976D01*
X4459881Y-16238976D02*
X4478929Y-16238976D01*
X4497976Y-16248500D01*
X4507500Y-16258024D01*
X4517024Y-16277071D01*
X4526548Y-16315167D01*
X4526548Y-16362786D01*
X4517024Y-16400881D01*
X4507500Y-16419928D01*
X4497976Y-16429452D01*
X4478929Y-16438976D01*
X4459881Y-16438976D01*
X4440833Y-16429452D01*
X4431310Y-16419928D01*
X4421786Y-16400881D01*
X4412262Y-16362786D01*
X4412262Y-16315167D01*
X4421786Y-16277071D01*
X4431310Y-16258024D01*
X4440833Y-16248500D01*
X4459881Y-16238976D01*
X4612262Y-16438976D02*
X4612262Y-16305643D01*
X4612262Y-16324690D02*
X4621786Y-16315167D01*
X4640833Y-16305643D01*
X4669405Y-16305643D01*
X4688452Y-16315167D01*
X4697976Y-16334214D01*
X4697976Y-16438976D01*
X4697976Y-16334214D02*
X4707500Y-16315167D01*
X4726548Y-16305643D01*
X4755119Y-16305643D01*
X4774167Y-16315167D01*
X4783690Y-16334214D01*
X4783690Y-16438976D01*
X4878929Y-16438976D02*
X4878929Y-16305643D01*
X4878929Y-16324690D02*
X4888452Y-16315167D01*
X4907500Y-16305643D01*
X4936071Y-16305643D01*
X4955119Y-16315167D01*
X4964643Y-16334214D01*
X4964643Y-16438976D01*
X4964643Y-16334214D02*
X4974167Y-16315167D01*
X4993214Y-16305643D01*
X5021786Y-16305643D01*
X5040833Y-16315167D01*
X5050357Y-16334214D01*
X5050357Y-16438976D01*
X5440833Y-16229452D02*
X5269405Y-16486595D01*
X5697976Y-16238976D02*
X5717024Y-16238976D01*
X5736071Y-16248500D01*
X5745595Y-16258024D01*
X5755119Y-16277071D01*
X5764643Y-16315167D01*
X5764643Y-16362786D01*
X5755119Y-16400881D01*
X5745595Y-16419928D01*
X5736071Y-16429452D01*
X5717024Y-16438976D01*
X5697976Y-16438976D01*
X5678928Y-16429452D01*
X5669405Y-16419928D01*
X5659881Y-16400881D01*
X5650357Y-16362786D01*
X5650357Y-16315167D01*
X5659881Y-16277071D01*
X5669405Y-16258024D01*
X5678928Y-16248500D01*
X5697976Y-16238976D01*
X5850357Y-16419928D02*
X5859881Y-16429452D01*
X5850357Y-16438976D01*
X5840833Y-16429452D01*
X5850357Y-16419928D01*
X5850357Y-16438976D01*
X5983690Y-16238976D02*
X6002738Y-16238976D01*
X6021786Y-16248500D01*
X6031309Y-16258024D01*
X6040833Y-16277071D01*
X6050357Y-16315167D01*
X6050357Y-16362786D01*
X6040833Y-16400881D01*
X6031309Y-16419928D01*
X6021786Y-16429452D01*
X6002738Y-16438976D01*
X5983690Y-16438976D01*
X5964643Y-16429452D01*
X5955119Y-16419928D01*
X5945595Y-16400881D01*
X5936071Y-16362786D01*
X5936071Y-16315167D01*
X5945595Y-16277071D01*
X5955119Y-16258024D01*
X5964643Y-16248500D01*
X5983690Y-16238976D01*
X6221786Y-16305643D02*
X6221786Y-16438976D01*
X6174167Y-16229452D02*
X6126548Y-16372309D01*
X6250357Y-16372309D01*
X6355119Y-16324690D02*
X6336071Y-16315167D01*
X6326548Y-16305643D01*
X6317024Y-16286595D01*
X6317024Y-16277071D01*
X6326548Y-16258024D01*
X6336071Y-16248500D01*
X6355119Y-16238976D01*
X6393214Y-16238976D01*
X6412262Y-16248500D01*
X6421786Y-16258024D01*
X6431309Y-16277071D01*
X6431309Y-16286595D01*
X6421786Y-16305643D01*
X6412262Y-16315167D01*
X6393214Y-16324690D01*
X6355119Y-16324690D01*
X6336071Y-16334214D01*
X6326548Y-16343738D01*
X6317024Y-16362786D01*
X6317024Y-16400881D01*
X6326548Y-16419928D01*
X6336071Y-16429452D01*
X6355119Y-16438976D01*
X6393214Y-16438976D01*
X6412262Y-16429452D01*
X6421786Y-16419928D01*
X6431309Y-16400881D01*
X6431309Y-16362786D01*
X6421786Y-16343738D01*
X6412262Y-16334214D01*
X6393214Y-16324690D01*
X6555119Y-16238976D02*
X6574167Y-16238976D01*
X6593214Y-16248500D01*
X6602738Y-16258024D01*
X6612262Y-16277071D01*
X6621786Y-16315167D01*
X6621786Y-16362786D01*
X6612262Y-16400881D01*
X6602738Y-16419928D01*
X6593214Y-16429452D01*
X6574167Y-16438976D01*
X6555119Y-16438976D01*
X6536071Y-16429452D01*
X6526548Y-16419928D01*
X6517024Y-16400881D01*
X6507500Y-16362786D01*
X6507500Y-16315167D01*
X6517024Y-16277071D01*
X6526548Y-16258024D01*
X6536071Y-16248500D01*
X6555119Y-16238976D01*
X6697976Y-16238976D02*
X6697976Y-16277071D01*
X6774167Y-16238976D02*
X6774167Y-16277071D01*
X7069405Y-16515167D02*
X7059881Y-16505643D01*
X7040833Y-16477071D01*
X7031309Y-16458024D01*
X7021786Y-16429452D01*
X7012262Y-16381833D01*
X7012262Y-16343738D01*
X7021786Y-16296119D01*
X7031309Y-16267548D01*
X7040833Y-16248500D01*
X7059881Y-16219928D01*
X7069405Y-16210405D01*
X7126548Y-16238976D02*
X7250357Y-16238976D01*
X7183690Y-16315167D01*
X7212262Y-16315167D01*
X7231309Y-16324690D01*
X7240833Y-16334214D01*
X7250357Y-16353262D01*
X7250357Y-16400881D01*
X7240833Y-16419928D01*
X7231309Y-16429452D01*
X7212262Y-16438976D01*
X7155119Y-16438976D01*
X7136071Y-16429452D01*
X7126548Y-16419928D01*
X7488452Y-16438976D02*
X7488452Y-16238976D01*
X7574167Y-16438976D02*
X7574167Y-16334214D01*
X7564643Y-16315167D01*
X7545595Y-16305643D01*
X7517024Y-16305643D01*
X7497976Y-16315167D01*
X7488452Y-16324690D01*
X7697976Y-16438976D02*
X7678928Y-16429452D01*
X7669405Y-16419928D01*
X7659881Y-16400881D01*
X7659881Y-16343738D01*
X7669405Y-16324690D01*
X7678928Y-16315167D01*
X7697976Y-16305643D01*
X7726548Y-16305643D01*
X7745595Y-16315167D01*
X7755119Y-16324690D01*
X7764643Y-16343738D01*
X7764643Y-16400881D01*
X7755119Y-16419928D01*
X7745595Y-16429452D01*
X7726548Y-16438976D01*
X7697976Y-16438976D01*
X7878928Y-16438976D02*
X7859881Y-16429452D01*
X7850357Y-16410405D01*
X7850357Y-16238976D01*
X8031309Y-16429452D02*
X8012262Y-16438976D01*
X7974167Y-16438976D01*
X7955119Y-16429452D01*
X7945595Y-16410405D01*
X7945595Y-16334214D01*
X7955119Y-16315167D01*
X7974167Y-16305643D01*
X8012262Y-16305643D01*
X8031309Y-16315167D01*
X8040833Y-16334214D01*
X8040833Y-16353262D01*
X7945595Y-16372309D01*
X8117024Y-16429452D02*
X8136071Y-16438976D01*
X8174167Y-16438976D01*
X8193214Y-16429452D01*
X8202738Y-16410405D01*
X8202738Y-16400881D01*
X8193214Y-16381833D01*
X8174167Y-16372309D01*
X8145595Y-16372309D01*
X8126548Y-16362786D01*
X8117024Y-16343738D01*
X8117024Y-16334214D01*
X8126548Y-16315167D01*
X8145595Y-16305643D01*
X8174167Y-16305643D01*
X8193214Y-16315167D01*
X8269405Y-16515167D02*
X8278928Y-16505643D01*
X8297976Y-16477071D01*
X8307500Y-16458024D01*
X8317024Y-16429452D01*
X8326548Y-16381833D01*
X8326548Y-16343738D01*
X8317024Y-16296119D01*
X8307500Y-16267548D01*
X8297976Y-16248500D01*
X8278928Y-16219928D01*
X8269405Y-16210405D01*
D17*
X3355500Y-16541500D02*
X3497500Y-16683500D01*
X3497500Y-16541500D02*
X3355500Y-16683500D01*
X3497500Y-16612500D02*
G75*
G03*
X3497500Y-16612500I-71000J0D01*
G01*
D11*
X3859881Y-16702976D02*
X3745595Y-16702976D01*
X3802738Y-16702976D02*
X3802738Y-16502976D01*
X3783690Y-16531548D01*
X3764643Y-16550595D01*
X3745595Y-16560119D01*
X3945595Y-16683928D02*
X3955119Y-16693452D01*
X3945595Y-16702976D01*
X3936071Y-16693452D01*
X3945595Y-16683928D01*
X3945595Y-16702976D01*
X4126548Y-16569643D02*
X4126548Y-16702976D01*
X4078928Y-16493452D02*
X4031309Y-16636309D01*
X4155119Y-16636309D01*
X4221786Y-16522024D02*
X4231310Y-16512500D01*
X4250357Y-16502976D01*
X4297976Y-16502976D01*
X4317024Y-16512500D01*
X4326548Y-16522024D01*
X4336071Y-16541071D01*
X4336071Y-16560119D01*
X4326548Y-16588690D01*
X4212262Y-16702976D01*
X4336071Y-16702976D01*
X4459881Y-16502976D02*
X4478929Y-16502976D01*
X4497976Y-16512500D01*
X4507500Y-16522024D01*
X4517024Y-16541071D01*
X4526548Y-16579167D01*
X4526548Y-16626786D01*
X4517024Y-16664881D01*
X4507500Y-16683928D01*
X4497976Y-16693452D01*
X4478929Y-16702976D01*
X4459881Y-16702976D01*
X4440833Y-16693452D01*
X4431310Y-16683928D01*
X4421786Y-16664881D01*
X4412262Y-16626786D01*
X4412262Y-16579167D01*
X4421786Y-16541071D01*
X4431310Y-16522024D01*
X4440833Y-16512500D01*
X4459881Y-16502976D01*
X4612262Y-16702976D02*
X4612262Y-16569643D01*
X4612262Y-16588690D02*
X4621786Y-16579167D01*
X4640833Y-16569643D01*
X4669405Y-16569643D01*
X4688452Y-16579167D01*
X4697976Y-16598214D01*
X4697976Y-16702976D01*
X4697976Y-16598214D02*
X4707500Y-16579167D01*
X4726548Y-16569643D01*
X4755119Y-16569643D01*
X4774167Y-16579167D01*
X4783690Y-16598214D01*
X4783690Y-16702976D01*
X4878929Y-16702976D02*
X4878929Y-16569643D01*
X4878929Y-16588690D02*
X4888452Y-16579167D01*
X4907500Y-16569643D01*
X4936071Y-16569643D01*
X4955119Y-16579167D01*
X4964643Y-16598214D01*
X4964643Y-16702976D01*
X4964643Y-16598214D02*
X4974167Y-16579167D01*
X4993214Y-16569643D01*
X5021786Y-16569643D01*
X5040833Y-16579167D01*
X5050357Y-16598214D01*
X5050357Y-16702976D01*
X5440833Y-16493452D02*
X5269405Y-16750595D01*
X5697976Y-16502976D02*
X5717024Y-16502976D01*
X5736071Y-16512500D01*
X5745595Y-16522024D01*
X5755119Y-16541071D01*
X5764643Y-16579167D01*
X5764643Y-16626786D01*
X5755119Y-16664881D01*
X5745595Y-16683928D01*
X5736071Y-16693452D01*
X5717024Y-16702976D01*
X5697976Y-16702976D01*
X5678928Y-16693452D01*
X5669405Y-16683928D01*
X5659881Y-16664881D01*
X5650357Y-16626786D01*
X5650357Y-16579167D01*
X5659881Y-16541071D01*
X5669405Y-16522024D01*
X5678928Y-16512500D01*
X5697976Y-16502976D01*
X5850357Y-16683928D02*
X5859881Y-16693452D01*
X5850357Y-16702976D01*
X5840833Y-16693452D01*
X5850357Y-16683928D01*
X5850357Y-16702976D01*
X5983690Y-16502976D02*
X6002738Y-16502976D01*
X6021786Y-16512500D01*
X6031309Y-16522024D01*
X6040833Y-16541071D01*
X6050357Y-16579167D01*
X6050357Y-16626786D01*
X6040833Y-16664881D01*
X6031309Y-16683928D01*
X6021786Y-16693452D01*
X6002738Y-16702976D01*
X5983690Y-16702976D01*
X5964643Y-16693452D01*
X5955119Y-16683928D01*
X5945595Y-16664881D01*
X5936071Y-16626786D01*
X5936071Y-16579167D01*
X5945595Y-16541071D01*
X5955119Y-16522024D01*
X5964643Y-16512500D01*
X5983690Y-16502976D01*
X6231309Y-16502976D02*
X6136071Y-16502976D01*
X6126548Y-16598214D01*
X6136071Y-16588690D01*
X6155119Y-16579167D01*
X6202738Y-16579167D01*
X6221786Y-16588690D01*
X6231309Y-16598214D01*
X6240833Y-16617262D01*
X6240833Y-16664881D01*
X6231309Y-16683928D01*
X6221786Y-16693452D01*
X6202738Y-16702976D01*
X6155119Y-16702976D01*
X6136071Y-16693452D01*
X6126548Y-16683928D01*
X6421786Y-16502976D02*
X6326548Y-16502976D01*
X6317024Y-16598214D01*
X6326548Y-16588690D01*
X6345595Y-16579167D01*
X6393214Y-16579167D01*
X6412262Y-16588690D01*
X6421786Y-16598214D01*
X6431309Y-16617262D01*
X6431309Y-16664881D01*
X6421786Y-16683928D01*
X6412262Y-16693452D01*
X6393214Y-16702976D01*
X6345595Y-16702976D01*
X6326548Y-16693452D01*
X6317024Y-16683928D01*
X6526548Y-16702976D02*
X6564643Y-16702976D01*
X6583690Y-16693452D01*
X6593214Y-16683928D01*
X6612262Y-16655357D01*
X6621786Y-16617262D01*
X6621786Y-16541071D01*
X6612262Y-16522024D01*
X6602738Y-16512500D01*
X6583690Y-16502976D01*
X6545595Y-16502976D01*
X6526548Y-16512500D01*
X6517024Y-16522024D01*
X6507500Y-16541071D01*
X6507500Y-16588690D01*
X6517024Y-16607738D01*
X6526548Y-16617262D01*
X6545595Y-16626786D01*
X6583690Y-16626786D01*
X6602738Y-16617262D01*
X6612262Y-16607738D01*
X6621786Y-16588690D01*
X6697976Y-16502976D02*
X6697976Y-16541071D01*
X6774167Y-16502976D02*
X6774167Y-16541071D01*
X7069405Y-16779167D02*
X7059881Y-16769643D01*
X7040833Y-16741071D01*
X7031309Y-16722024D01*
X7021786Y-16693452D01*
X7012262Y-16645833D01*
X7012262Y-16607738D01*
X7021786Y-16560119D01*
X7031309Y-16531548D01*
X7040833Y-16512500D01*
X7059881Y-16483928D01*
X7069405Y-16474405D01*
X7126548Y-16502976D02*
X7250357Y-16502976D01*
X7183690Y-16579167D01*
X7212262Y-16579167D01*
X7231309Y-16588690D01*
X7240833Y-16598214D01*
X7250357Y-16617262D01*
X7250357Y-16664881D01*
X7240833Y-16683928D01*
X7231309Y-16693452D01*
X7212262Y-16702976D01*
X7155119Y-16702976D01*
X7136071Y-16693452D01*
X7126548Y-16683928D01*
X7488452Y-16702976D02*
X7488452Y-16502976D01*
X7574167Y-16702976D02*
X7574167Y-16598214D01*
X7564643Y-16579167D01*
X7545595Y-16569643D01*
X7517024Y-16569643D01*
X7497976Y-16579167D01*
X7488452Y-16588690D01*
X7697976Y-16702976D02*
X7678928Y-16693452D01*
X7669405Y-16683928D01*
X7659881Y-16664881D01*
X7659881Y-16607738D01*
X7669405Y-16588690D01*
X7678928Y-16579167D01*
X7697976Y-16569643D01*
X7726548Y-16569643D01*
X7745595Y-16579167D01*
X7755119Y-16588690D01*
X7764643Y-16607738D01*
X7764643Y-16664881D01*
X7755119Y-16683928D01*
X7745595Y-16693452D01*
X7726548Y-16702976D01*
X7697976Y-16702976D01*
X7878928Y-16702976D02*
X7859881Y-16693452D01*
X7850357Y-16674405D01*
X7850357Y-16502976D01*
X8031309Y-16693452D02*
X8012262Y-16702976D01*
X7974167Y-16702976D01*
X7955119Y-16693452D01*
X7945595Y-16674405D01*
X7945595Y-16598214D01*
X7955119Y-16579167D01*
X7974167Y-16569643D01*
X8012262Y-16569643D01*
X8031309Y-16579167D01*
X8040833Y-16598214D01*
X8040833Y-16617262D01*
X7945595Y-16636309D01*
X8117024Y-16693452D02*
X8136071Y-16702976D01*
X8174167Y-16702976D01*
X8193214Y-16693452D01*
X8202738Y-16674405D01*
X8202738Y-16664881D01*
X8193214Y-16645833D01*
X8174167Y-16636309D01*
X8145595Y-16636309D01*
X8126548Y-16626786D01*
X8117024Y-16607738D01*
X8117024Y-16598214D01*
X8126548Y-16579167D01*
X8145595Y-16569643D01*
X8174167Y-16569643D01*
X8193214Y-16579167D01*
X8269405Y-16779167D02*
X8278928Y-16769643D01*
X8297976Y-16741071D01*
X8307500Y-16722024D01*
X8317024Y-16693452D01*
X8326548Y-16645833D01*
X8326548Y-16607738D01*
X8317024Y-16560119D01*
X8307500Y-16531548D01*
X8297976Y-16512500D01*
X8278928Y-16483928D01*
X8269405Y-16474405D01*
D18*
X3354500Y-16805000D02*
X3497500Y-16948000D01*
X3497500Y-16805000D02*
X3354500Y-16948000D01*
X3426000Y-16805000D02*
X3426000Y-16948000D01*
X3354500Y-16876500D02*
X3497500Y-16876500D01*
D11*
X3859881Y-16966976D02*
X3745595Y-16966976D01*
X3802738Y-16966976D02*
X3802738Y-16766976D01*
X3783690Y-16795548D01*
X3764643Y-16814595D01*
X3745595Y-16824119D01*
X3945595Y-16947929D02*
X3955119Y-16957452D01*
X3945595Y-16966976D01*
X3936071Y-16957452D01*
X3945595Y-16947929D01*
X3945595Y-16966976D01*
X4126548Y-16833643D02*
X4126548Y-16966976D01*
X4078928Y-16757452D02*
X4031309Y-16900310D01*
X4155119Y-16900310D01*
X4212262Y-16766976D02*
X4336071Y-16766976D01*
X4269405Y-16843167D01*
X4297976Y-16843167D01*
X4317024Y-16852690D01*
X4326548Y-16862214D01*
X4336071Y-16881262D01*
X4336071Y-16928881D01*
X4326548Y-16947929D01*
X4317024Y-16957452D01*
X4297976Y-16966976D01*
X4240833Y-16966976D01*
X4221786Y-16957452D01*
X4212262Y-16947929D01*
X4459881Y-16766976D02*
X4478929Y-16766976D01*
X4497976Y-16776500D01*
X4507500Y-16786024D01*
X4517024Y-16805071D01*
X4526548Y-16843167D01*
X4526548Y-16890786D01*
X4517024Y-16928881D01*
X4507500Y-16947929D01*
X4497976Y-16957452D01*
X4478929Y-16966976D01*
X4459881Y-16966976D01*
X4440833Y-16957452D01*
X4431310Y-16947929D01*
X4421786Y-16928881D01*
X4412262Y-16890786D01*
X4412262Y-16843167D01*
X4421786Y-16805071D01*
X4431310Y-16786024D01*
X4440833Y-16776500D01*
X4459881Y-16766976D01*
X4612262Y-16966976D02*
X4612262Y-16833643D01*
X4612262Y-16852690D02*
X4621786Y-16843167D01*
X4640833Y-16833643D01*
X4669405Y-16833643D01*
X4688452Y-16843167D01*
X4697976Y-16862214D01*
X4697976Y-16966976D01*
X4697976Y-16862214D02*
X4707500Y-16843167D01*
X4726548Y-16833643D01*
X4755119Y-16833643D01*
X4774167Y-16843167D01*
X4783690Y-16862214D01*
X4783690Y-16966976D01*
X4878929Y-16966976D02*
X4878929Y-16833643D01*
X4878929Y-16852690D02*
X4888452Y-16843167D01*
X4907500Y-16833643D01*
X4936071Y-16833643D01*
X4955119Y-16843167D01*
X4964643Y-16862214D01*
X4964643Y-16966976D01*
X4964643Y-16862214D02*
X4974167Y-16843167D01*
X4993214Y-16833643D01*
X5021786Y-16833643D01*
X5040833Y-16843167D01*
X5050357Y-16862214D01*
X5050357Y-16966976D01*
X5440833Y-16757452D02*
X5269405Y-17014595D01*
X5697976Y-16766976D02*
X5717024Y-16766976D01*
X5736071Y-16776500D01*
X5745595Y-16786024D01*
X5755119Y-16805071D01*
X5764643Y-16843167D01*
X5764643Y-16890786D01*
X5755119Y-16928881D01*
X5745595Y-16947929D01*
X5736071Y-16957452D01*
X5717024Y-16966976D01*
X5697976Y-16966976D01*
X5678928Y-16957452D01*
X5669405Y-16947929D01*
X5659881Y-16928881D01*
X5650357Y-16890786D01*
X5650357Y-16843167D01*
X5659881Y-16805071D01*
X5669405Y-16786024D01*
X5678928Y-16776500D01*
X5697976Y-16766976D01*
X5850357Y-16947929D02*
X5859881Y-16957452D01*
X5850357Y-16966976D01*
X5840833Y-16957452D01*
X5850357Y-16947929D01*
X5850357Y-16966976D01*
X5983690Y-16766976D02*
X6002738Y-16766976D01*
X6021786Y-16776500D01*
X6031309Y-16786024D01*
X6040833Y-16805071D01*
X6050357Y-16843167D01*
X6050357Y-16890786D01*
X6040833Y-16928881D01*
X6031309Y-16947929D01*
X6021786Y-16957452D01*
X6002738Y-16966976D01*
X5983690Y-16966976D01*
X5964643Y-16957452D01*
X5955119Y-16947929D01*
X5945595Y-16928881D01*
X5936071Y-16890786D01*
X5936071Y-16843167D01*
X5945595Y-16805071D01*
X5955119Y-16786024D01*
X5964643Y-16776500D01*
X5983690Y-16766976D01*
X6231309Y-16766976D02*
X6136071Y-16766976D01*
X6126548Y-16862214D01*
X6136071Y-16852690D01*
X6155119Y-16843167D01*
X6202738Y-16843167D01*
X6221786Y-16852690D01*
X6231309Y-16862214D01*
X6240833Y-16881262D01*
X6240833Y-16928881D01*
X6231309Y-16947929D01*
X6221786Y-16957452D01*
X6202738Y-16966976D01*
X6155119Y-16966976D01*
X6136071Y-16957452D01*
X6126548Y-16947929D01*
X6412262Y-16766976D02*
X6374167Y-16766976D01*
X6355119Y-16776500D01*
X6345595Y-16786024D01*
X6326548Y-16814595D01*
X6317024Y-16852690D01*
X6317024Y-16928881D01*
X6326548Y-16947929D01*
X6336071Y-16957452D01*
X6355119Y-16966976D01*
X6393214Y-16966976D01*
X6412262Y-16957452D01*
X6421786Y-16947929D01*
X6431309Y-16928881D01*
X6431309Y-16881262D01*
X6421786Y-16862214D01*
X6412262Y-16852690D01*
X6393214Y-16843167D01*
X6355119Y-16843167D01*
X6336071Y-16852690D01*
X6326548Y-16862214D01*
X6317024Y-16881262D01*
X6497976Y-16766976D02*
X6621786Y-16766976D01*
X6555119Y-16843167D01*
X6583690Y-16843167D01*
X6602738Y-16852690D01*
X6612262Y-16862214D01*
X6621786Y-16881262D01*
X6621786Y-16928881D01*
X6612262Y-16947929D01*
X6602738Y-16957452D01*
X6583690Y-16966976D01*
X6526548Y-16966976D01*
X6507500Y-16957452D01*
X6497976Y-16947929D01*
X6697976Y-16766976D02*
X6697976Y-16805071D01*
X6774167Y-16766976D02*
X6774167Y-16805071D01*
X7069405Y-17043167D02*
X7059881Y-17033643D01*
X7040833Y-17005071D01*
X7031309Y-16986024D01*
X7021786Y-16957452D01*
X7012262Y-16909833D01*
X7012262Y-16871738D01*
X7021786Y-16824119D01*
X7031309Y-16795548D01*
X7040833Y-16776500D01*
X7059881Y-16747928D01*
X7069405Y-16738405D01*
X7126548Y-16766976D02*
X7250357Y-16766976D01*
X7183690Y-16843167D01*
X7212262Y-16843167D01*
X7231309Y-16852690D01*
X7240833Y-16862214D01*
X7250357Y-16881262D01*
X7250357Y-16928881D01*
X7240833Y-16947929D01*
X7231309Y-16957452D01*
X7212262Y-16966976D01*
X7155119Y-16966976D01*
X7136071Y-16957452D01*
X7126548Y-16947929D01*
X7488452Y-16966976D02*
X7488452Y-16766976D01*
X7574167Y-16966976D02*
X7574167Y-16862214D01*
X7564643Y-16843167D01*
X7545595Y-16833643D01*
X7517024Y-16833643D01*
X7497976Y-16843167D01*
X7488452Y-16852690D01*
X7697976Y-16966976D02*
X7678928Y-16957452D01*
X7669405Y-16947929D01*
X7659881Y-16928881D01*
X7659881Y-16871738D01*
X7669405Y-16852690D01*
X7678928Y-16843167D01*
X7697976Y-16833643D01*
X7726548Y-16833643D01*
X7745595Y-16843167D01*
X7755119Y-16852690D01*
X7764643Y-16871738D01*
X7764643Y-16928881D01*
X7755119Y-16947929D01*
X7745595Y-16957452D01*
X7726548Y-16966976D01*
X7697976Y-16966976D01*
X7878928Y-16966976D02*
X7859881Y-16957452D01*
X7850357Y-16938405D01*
X7850357Y-16766976D01*
X8031309Y-16957452D02*
X8012262Y-16966976D01*
X7974167Y-16966976D01*
X7955119Y-16957452D01*
X7945595Y-16938405D01*
X7945595Y-16862214D01*
X7955119Y-16843167D01*
X7974167Y-16833643D01*
X8012262Y-16833643D01*
X8031309Y-16843167D01*
X8040833Y-16862214D01*
X8040833Y-16881262D01*
X7945595Y-16900310D01*
X8117024Y-16957452D02*
X8136071Y-16966976D01*
X8174167Y-16966976D01*
X8193214Y-16957452D01*
X8202738Y-16938405D01*
X8202738Y-16928881D01*
X8193214Y-16909833D01*
X8174167Y-16900310D01*
X8145595Y-16900310D01*
X8126548Y-16890786D01*
X8117024Y-16871738D01*
X8117024Y-16862214D01*
X8126548Y-16843167D01*
X8145595Y-16833643D01*
X8174167Y-16833643D01*
X8193214Y-16843167D01*
X8269405Y-17043167D02*
X8278928Y-17033643D01*
X8297976Y-17005071D01*
X8307500Y-16986024D01*
X8317024Y-16957452D01*
X8326548Y-16909833D01*
X8326548Y-16871738D01*
X8317024Y-16824119D01*
X8307500Y-16795548D01*
X8297976Y-16776500D01*
X8278928Y-16747928D01*
X8269405Y-16738405D01*
M02*
