%FSLAX45Y45*%
G04 Gerber Fmt 4.5, Leading zero omitted, Abs format (unit mm)*
G04 Created by KiCad (PCBNEW (6.0.1)) date 2022-09-12 17:15:29*
%MOMM*%
%LPD*%
G01*
G04 APERTURE LIST*
%TA.AperFunction,Profile*%
%ADD10C,0.050000*%
%TD*%
%ADD11C,0.200000*%
G04 APERTURE END LIST*
D10*
X10417500Y-3932500D02*
X13817500Y-3932500D01*
X13817500Y-14932500D02*
X10417500Y-14932500D01*
X10417500Y-3932500D02*
X10417500Y-14932500D01*
X13817500Y-3932500D02*
X13817500Y-14932500D01*
D11*
X10672619Y-15245476D02*
X10672619Y-15045476D01*
X10720238Y-15045476D01*
X10748810Y-15055000D01*
X10767857Y-15074048D01*
X10777381Y-15093095D01*
X10786905Y-15131190D01*
X10786905Y-15159762D01*
X10777381Y-15197857D01*
X10767857Y-15216905D01*
X10748810Y-15235952D01*
X10720238Y-15245476D01*
X10672619Y-15245476D01*
X10872619Y-15245476D02*
X10872619Y-15112143D01*
X10872619Y-15150238D02*
X10882143Y-15131190D01*
X10891667Y-15121667D01*
X10910714Y-15112143D01*
X10929762Y-15112143D01*
X10996429Y-15245476D02*
X10996429Y-15112143D01*
X10996429Y-15045476D02*
X10986905Y-15055000D01*
X10996429Y-15064524D01*
X11005952Y-15055000D01*
X10996429Y-15045476D01*
X10996429Y-15064524D01*
X11120238Y-15245476D02*
X11101190Y-15235952D01*
X11091667Y-15216905D01*
X11091667Y-15045476D01*
X11225000Y-15245476D02*
X11205952Y-15235952D01*
X11196428Y-15216905D01*
X11196428Y-15045476D01*
X11453571Y-15245476D02*
X11453571Y-15045476D01*
X11520238Y-15188333D01*
X11586905Y-15045476D01*
X11586905Y-15245476D01*
X11767857Y-15245476D02*
X11767857Y-15140714D01*
X11758333Y-15121667D01*
X11739286Y-15112143D01*
X11701190Y-15112143D01*
X11682143Y-15121667D01*
X11767857Y-15235952D02*
X11748809Y-15245476D01*
X11701190Y-15245476D01*
X11682143Y-15235952D01*
X11672619Y-15216905D01*
X11672619Y-15197857D01*
X11682143Y-15178809D01*
X11701190Y-15169286D01*
X11748809Y-15169286D01*
X11767857Y-15159762D01*
X11863095Y-15112143D02*
X11863095Y-15312143D01*
X11863095Y-15121667D02*
X11882143Y-15112143D01*
X11920238Y-15112143D01*
X11939286Y-15121667D01*
X11948809Y-15131190D01*
X11958333Y-15150238D01*
X11958333Y-15207381D01*
X11948809Y-15226428D01*
X11939286Y-15235952D01*
X11920238Y-15245476D01*
X11882143Y-15245476D01*
X11863095Y-15235952D01*
X12044048Y-15226428D02*
X12053571Y-15235952D01*
X12044048Y-15245476D01*
X12034524Y-15235952D01*
X12044048Y-15226428D01*
X12044048Y-15245476D01*
X12044048Y-15121667D02*
X12053571Y-15131190D01*
X12044048Y-15140714D01*
X12034524Y-15131190D01*
X12044048Y-15121667D01*
X12044048Y-15140714D01*
M02*
