M48
; DRILL file {KiCad (6.0.0)} date Wed Jul  6 17:45:45 2022
; FORMAT={-:-/ absolute / metric / decimal}
; #@! TF.CreationDate,2022-07-06T17:45:45+01:00
; #@! TF.GenerationSoftware,Kicad,Pcbnew,(6.0.0)
; #@! TF.FileFunction,Plated,1,2,PTH
FMAT,2
METRIC
; #@! TA.AperFunction,Plated,PTH,ComponentDrill
T1C0.800
; #@! TA.AperFunction,Plated,PTH,ComponentDrill
T2C0.900
; #@! TA.AperFunction,Plated,PTH,ComponentDrill
T3C1.000
; #@! TA.AperFunction,Plated,PTH,ComponentDrill
T4C1.220
; #@! TA.AperFunction,Plated,PTH,ComponentDrill
T5C1.420
; #@! TA.AperFunction,Plated,PTH,ComponentDrill
T6C1.430
%
G90
G05
T1
X31.7Y-125.18
X31.7Y-132.8
X31.92Y-48.5
X31.92Y-71.0
X31.92Y-93.5
X31.92Y-116.0
X32.045Y-120.5
X34.045Y-120.5
X34.045Y-137.5
X34.24Y-125.18
X34.24Y-132.8
X36.045Y-137.5
X36.78Y-125.18
X36.78Y-132.8
X39.32Y-125.18
X39.32Y-132.8
X42.08Y-48.5
X42.08Y-71.0
X42.08Y-93.5
X42.08Y-116.0
X42.5Y-123.42
X42.5Y-133.58
X45.5Y-123.42
X45.5Y-133.58
X48.5Y-123.42
X48.5Y-133.58
X57.92Y-51.0
X57.92Y-73.5
X57.92Y-96.0
X57.92Y-118.5
X68.08Y-51.0
X68.08Y-73.5
X68.08Y-96.0
X68.08Y-118.5
T2
X45.225Y-50.0
X45.225Y-72.5
X45.225Y-95.0
X45.225Y-117.5
X47.765Y-50.0
X47.765Y-72.5
X47.765Y-95.0
X47.765Y-117.5
T3
X43.925Y-136.725
X43.925Y-139.265
X46.465Y-136.725
X46.465Y-139.265
X49.005Y-136.725
X49.005Y-139.265
X51.545Y-136.725
X51.545Y-139.265
X54.085Y-136.725
X54.085Y-139.265
X58.5Y-47.55
X58.5Y-70.05
X58.5Y-92.55
X58.5Y-115.05
X61.0Y-47.55
X61.0Y-70.05
X61.0Y-92.55
X61.0Y-115.05
X63.5Y-47.55
X63.5Y-70.05
X63.5Y-92.55
X63.5Y-115.05
T4
X35.5Y-33.5
X35.5Y-56.0
X35.5Y-78.5
X35.5Y-101.0
X55.0Y-122.0
X65.0Y-122.0
T5
X35.5Y-36.6
X35.5Y-59.1
X35.5Y-81.6
X35.5Y-104.1
X55.0Y-125.1
X65.0Y-125.1
T6
X35.5Y-44.9
X35.5Y-67.4
X35.5Y-89.9
X35.5Y-112.4
X55.0Y-133.4
X65.0Y-133.4
T3
X44.7Y-35.3G85X43.5Y-35.3
G05
X44.7Y-40.0G85X43.5Y-40.0
G05
X44.7Y-44.7G85X43.5Y-44.7
G05
X44.7Y-57.8G85X43.5Y-57.8
G05
X44.7Y-62.5G85X43.5Y-62.5
G05
X44.7Y-67.2G85X43.5Y-67.2
G05
X44.7Y-80.3G85X43.5Y-80.3
G05
X44.7Y-85.0G85X43.5Y-85.0
G05
X44.7Y-89.7G85X43.5Y-89.7
G05
X44.7Y-102.8G85X43.5Y-102.8
G05
X44.7Y-107.5G85X43.5Y-107.5
G05
X44.7Y-112.2G85X43.5Y-112.2
G05
X49.5Y-35.3G85X48.3Y-35.3
G05
X49.5Y-40.0G85X48.3Y-40.0
G05
X49.5Y-44.7G85X48.3Y-44.7
G05
X49.5Y-57.8G85X48.3Y-57.8
G05
X49.5Y-62.5G85X48.3Y-62.5
G05
X49.5Y-67.2G85X48.3Y-67.2
G05
X49.5Y-80.3G85X48.3Y-80.3
G05
X49.5Y-85.0G85X48.3Y-85.0
G05
X49.5Y-89.7G85X48.3Y-89.7
G05
X49.5Y-102.8G85X48.3Y-102.8
G05
X49.5Y-107.5G85X48.3Y-107.5
G05
X49.5Y-112.2G85X48.3Y-112.2
G05
T0
M30
