%FSLAX45Y45*%
G04 Gerber Fmt 4.5, Leading zero omitted, Abs format (unit mm)*
G04 Created by KiCad (PCBNEW (6.0.1)) date 2022-09-12 17:40:02*
%MOMM*%
%LPD*%
G01*
G04 APERTURE LIST*
%TA.AperFunction,Profile*%
%ADD10C,0.050000*%
%TD*%
%ADD11C,0.200000*%
%ADD12C,0.080000*%
%ADD13C,0.090000*%
%ADD14C,0.100000*%
%ADD15C,0.122000*%
%ADD16C,0.142000*%
%ADD17C,0.143000*%
G04 APERTURE END LIST*
D10*
X7000000Y-3100000D02*
X7000000Y-14100000D01*
X3000000Y-3100000D02*
X3000000Y-14100000D01*
X3000000Y-3100000D02*
X7000000Y-3100000D01*
X3000000Y-14100000D02*
X7000000Y-14100000D01*
D11*
D12*
X3130000Y-12478000D02*
X3210000Y-12558000D01*
X3210000Y-12478000D02*
X3130000Y-12558000D01*
X3130000Y-13240000D02*
X3210000Y-13320000D01*
X3210000Y-13240000D02*
X3130000Y-13320000D01*
X3152000Y-4810000D02*
X3232000Y-4890000D01*
X3232000Y-4810000D02*
X3152000Y-4890000D01*
X3152000Y-7060000D02*
X3232000Y-7140000D01*
X3232000Y-7060000D02*
X3152000Y-7140000D01*
X3152000Y-9310000D02*
X3232000Y-9390000D01*
X3232000Y-9310000D02*
X3152000Y-9390000D01*
X3152000Y-11560000D02*
X3232000Y-11640000D01*
X3232000Y-11560000D02*
X3152000Y-11640000D01*
X3164489Y-12010000D02*
X3244489Y-12090000D01*
X3244489Y-12010000D02*
X3164489Y-12090000D01*
X3364489Y-12010000D02*
X3444489Y-12090000D01*
X3444489Y-12010000D02*
X3364489Y-12090000D01*
X3364489Y-13710000D02*
X3444489Y-13790000D01*
X3444489Y-13710000D02*
X3364489Y-13790000D01*
X3384000Y-12478000D02*
X3464000Y-12558000D01*
X3464000Y-12478000D02*
X3384000Y-12558000D01*
X3384000Y-13240000D02*
X3464000Y-13320000D01*
X3464000Y-13240000D02*
X3384000Y-13320000D01*
X3564489Y-13710000D02*
X3644489Y-13790000D01*
X3644489Y-13710000D02*
X3564489Y-13790000D01*
X3638000Y-12478000D02*
X3718000Y-12558000D01*
X3718000Y-12478000D02*
X3638000Y-12558000D01*
X3638000Y-13240000D02*
X3718000Y-13320000D01*
X3718000Y-13240000D02*
X3638000Y-13320000D01*
X3892000Y-12478000D02*
X3972000Y-12558000D01*
X3972000Y-12478000D02*
X3892000Y-12558000D01*
X3892000Y-13240000D02*
X3972000Y-13320000D01*
X3972000Y-13240000D02*
X3892000Y-13320000D01*
X4168000Y-4810000D02*
X4248000Y-4890000D01*
X4248000Y-4810000D02*
X4168000Y-4890000D01*
X4168000Y-7060000D02*
X4248000Y-7140000D01*
X4248000Y-7060000D02*
X4168000Y-7140000D01*
X4168000Y-9310000D02*
X4248000Y-9390000D01*
X4248000Y-9310000D02*
X4168000Y-9390000D01*
X4168000Y-11560000D02*
X4248000Y-11640000D01*
X4248000Y-11560000D02*
X4168000Y-11640000D01*
X4210000Y-12302000D02*
X4290000Y-12382000D01*
X4290000Y-12302000D02*
X4210000Y-12382000D01*
X4210000Y-13318000D02*
X4290000Y-13398000D01*
X4290000Y-13318000D02*
X4210000Y-13398000D01*
X4510000Y-12302000D02*
X4590000Y-12382000D01*
X4590000Y-12302000D02*
X4510000Y-12382000D01*
X4510000Y-13318000D02*
X4590000Y-13398000D01*
X4590000Y-13318000D02*
X4510000Y-13398000D01*
X4810000Y-12302000D02*
X4890000Y-12382000D01*
X4890000Y-12302000D02*
X4810000Y-12382000D01*
X4810000Y-13318000D02*
X4890000Y-13398000D01*
X4890000Y-13318000D02*
X4810000Y-13398000D01*
X5752000Y-5060000D02*
X5832000Y-5140000D01*
X5832000Y-5060000D02*
X5752000Y-5140000D01*
X5752000Y-7310000D02*
X5832000Y-7390000D01*
X5832000Y-7310000D02*
X5752000Y-7390000D01*
X5752000Y-9560000D02*
X5832000Y-9640000D01*
X5832000Y-9560000D02*
X5752000Y-9640000D01*
X5752000Y-11810000D02*
X5832000Y-11890000D01*
X5832000Y-11810000D02*
X5752000Y-11890000D01*
X6768000Y-5060000D02*
X6848000Y-5140000D01*
X6848000Y-5060000D02*
X6768000Y-5140000D01*
X6768000Y-7310000D02*
X6848000Y-7390000D01*
X6848000Y-7310000D02*
X6768000Y-7390000D01*
X6768000Y-9560000D02*
X6848000Y-9640000D01*
X6848000Y-9560000D02*
X6768000Y-9640000D01*
X6768000Y-11810000D02*
X6848000Y-11890000D01*
X6848000Y-11810000D02*
X6768000Y-11890000D01*
D13*
X4567500Y-5000000D02*
G75*
G03*
X4567500Y-5000000I-45000J0D01*
G01*
X4567500Y-7250000D02*
G75*
G03*
X4567500Y-7250000I-45000J0D01*
G01*
X4567500Y-9500000D02*
G75*
G03*
X4567500Y-9500000I-45000J0D01*
G01*
X4567500Y-11750000D02*
G75*
G03*
X4567500Y-11750000I-45000J0D01*
G01*
X4821500Y-5000000D02*
G75*
G03*
X4821500Y-5000000I-45000J0D01*
G01*
X4821500Y-7250000D02*
G75*
G03*
X4821500Y-7250000I-45000J0D01*
G01*
X4821500Y-9500000D02*
G75*
G03*
X4821500Y-9500000I-45000J0D01*
G01*
X4821500Y-11750000D02*
G75*
G03*
X4821500Y-11750000I-45000J0D01*
G01*
D14*
X4392500Y-13622500D02*
X4392500Y-13722500D01*
X4342500Y-13672500D02*
X4442500Y-13672500D01*
X4392500Y-13876500D02*
X4392500Y-13976500D01*
X4342500Y-13926500D02*
X4442500Y-13926500D01*
X4410000Y-3480000D02*
X4410000Y-3580000D01*
X4360000Y-3530000D02*
X4460000Y-3530000D01*
D11*
X4470000Y-3490000D02*
X4350000Y-3490000D01*
X4470000Y-3570000D02*
X4350000Y-3570000D01*
X4350000Y-3490000D02*
G75*
G03*
X4350000Y-3570000I0J-40000D01*
G01*
X4470000Y-3570000D02*
G75*
G03*
X4470000Y-3490000I0J40000D01*
G01*
D14*
X4410000Y-3950000D02*
X4410000Y-4050000D01*
X4360000Y-4000000D02*
X4460000Y-4000000D01*
D11*
X4470000Y-3960000D02*
X4350000Y-3960000D01*
X4470000Y-4040000D02*
X4350000Y-4040000D01*
X4350000Y-3960000D02*
G75*
G03*
X4350000Y-4040000I0J-40000D01*
G01*
X4470000Y-4040000D02*
G75*
G03*
X4470000Y-3960000I0J40000D01*
G01*
D14*
X4410000Y-4420000D02*
X4410000Y-4520000D01*
X4360000Y-4470000D02*
X4460000Y-4470000D01*
D11*
X4470000Y-4430000D02*
X4350000Y-4430000D01*
X4470000Y-4510000D02*
X4350000Y-4510000D01*
X4350000Y-4430000D02*
G75*
G03*
X4350000Y-4510000I0J-40000D01*
G01*
X4470000Y-4510000D02*
G75*
G03*
X4470000Y-4430000I0J40000D01*
G01*
D14*
X4410000Y-5730000D02*
X4410000Y-5830000D01*
X4360000Y-5780000D02*
X4460000Y-5780000D01*
D11*
X4470000Y-5740000D02*
X4350000Y-5740000D01*
X4470000Y-5820000D02*
X4350000Y-5820000D01*
X4350000Y-5740000D02*
G75*
G03*
X4350000Y-5820000I0J-40000D01*
G01*
X4470000Y-5820000D02*
G75*
G03*
X4470000Y-5740000I0J40000D01*
G01*
D14*
X4410000Y-6200000D02*
X4410000Y-6300000D01*
X4360000Y-6250000D02*
X4460000Y-6250000D01*
D11*
X4470000Y-6210000D02*
X4350000Y-6210000D01*
X4470000Y-6290000D02*
X4350000Y-6290000D01*
X4350000Y-6210000D02*
G75*
G03*
X4350000Y-6290000I0J-40000D01*
G01*
X4470000Y-6290000D02*
G75*
G03*
X4470000Y-6210000I0J40000D01*
G01*
D14*
X4410000Y-6670000D02*
X4410000Y-6770000D01*
X4360000Y-6720000D02*
X4460000Y-6720000D01*
D11*
X4470000Y-6680000D02*
X4350000Y-6680000D01*
X4470000Y-6760000D02*
X4350000Y-6760000D01*
X4350000Y-6680000D02*
G75*
G03*
X4350000Y-6760000I0J-40000D01*
G01*
X4470000Y-6760000D02*
G75*
G03*
X4470000Y-6680000I0J40000D01*
G01*
D14*
X4410000Y-7980000D02*
X4410000Y-8080000D01*
X4360000Y-8030000D02*
X4460000Y-8030000D01*
D11*
X4470000Y-7990000D02*
X4350000Y-7990000D01*
X4470000Y-8070000D02*
X4350000Y-8070000D01*
X4350000Y-7990000D02*
G75*
G03*
X4350000Y-8070000I0J-40000D01*
G01*
X4470000Y-8070000D02*
G75*
G03*
X4470000Y-7990000I0J40000D01*
G01*
D14*
X4410000Y-8450000D02*
X4410000Y-8550000D01*
X4360000Y-8500000D02*
X4460000Y-8500000D01*
D11*
X4470000Y-8460000D02*
X4350000Y-8460000D01*
X4470000Y-8540000D02*
X4350000Y-8540000D01*
X4350000Y-8460000D02*
G75*
G03*
X4350000Y-8540000I0J-40000D01*
G01*
X4470000Y-8540000D02*
G75*
G03*
X4470000Y-8460000I0J40000D01*
G01*
D14*
X4410000Y-8920000D02*
X4410000Y-9020000D01*
X4360000Y-8970000D02*
X4460000Y-8970000D01*
D11*
X4470000Y-8930000D02*
X4350000Y-8930000D01*
X4470000Y-9010000D02*
X4350000Y-9010000D01*
X4350000Y-8930000D02*
G75*
G03*
X4350000Y-9010000I0J-40000D01*
G01*
X4470000Y-9010000D02*
G75*
G03*
X4470000Y-8930000I0J40000D01*
G01*
D14*
X4410000Y-10230000D02*
X4410000Y-10330000D01*
X4360000Y-10280000D02*
X4460000Y-10280000D01*
D11*
X4470000Y-10240000D02*
X4350000Y-10240000D01*
X4470000Y-10320000D02*
X4350000Y-10320000D01*
X4350000Y-10240000D02*
G75*
G03*
X4350000Y-10320000I0J-40000D01*
G01*
X4470000Y-10320000D02*
G75*
G03*
X4470000Y-10240000I0J40000D01*
G01*
D14*
X4410000Y-10700000D02*
X4410000Y-10800000D01*
X4360000Y-10750000D02*
X4460000Y-10750000D01*
D11*
X4470000Y-10710000D02*
X4350000Y-10710000D01*
X4470000Y-10790000D02*
X4350000Y-10790000D01*
X4350000Y-10710000D02*
G75*
G03*
X4350000Y-10790000I0J-40000D01*
G01*
X4470000Y-10790000D02*
G75*
G03*
X4470000Y-10710000I0J40000D01*
G01*
D14*
X4410000Y-11170000D02*
X4410000Y-11270000D01*
X4360000Y-11220000D02*
X4460000Y-11220000D01*
D11*
X4470000Y-11180000D02*
X4350000Y-11180000D01*
X4470000Y-11260000D02*
X4350000Y-11260000D01*
X4350000Y-11180000D02*
G75*
G03*
X4350000Y-11260000I0J-40000D01*
G01*
X4470000Y-11260000D02*
G75*
G03*
X4470000Y-11180000I0J40000D01*
G01*
D14*
X4646500Y-13622500D02*
X4646500Y-13722500D01*
X4596500Y-13672500D02*
X4696500Y-13672500D01*
X4646500Y-13876500D02*
X4646500Y-13976500D01*
X4596500Y-13926500D02*
X4696500Y-13926500D01*
X4890000Y-3480000D02*
X4890000Y-3580000D01*
X4840000Y-3530000D02*
X4940000Y-3530000D01*
D11*
X4950000Y-3490000D02*
X4830000Y-3490000D01*
X4950000Y-3570000D02*
X4830000Y-3570000D01*
X4830000Y-3490000D02*
G75*
G03*
X4830000Y-3570000I0J-40000D01*
G01*
X4950000Y-3570000D02*
G75*
G03*
X4950000Y-3490000I0J40000D01*
G01*
D14*
X4890000Y-3950000D02*
X4890000Y-4050000D01*
X4840000Y-4000000D02*
X4940000Y-4000000D01*
D11*
X4950000Y-3960000D02*
X4830000Y-3960000D01*
X4950000Y-4040000D02*
X4830000Y-4040000D01*
X4830000Y-3960000D02*
G75*
G03*
X4830000Y-4040000I0J-40000D01*
G01*
X4950000Y-4040000D02*
G75*
G03*
X4950000Y-3960000I0J40000D01*
G01*
D14*
X4890000Y-4420000D02*
X4890000Y-4520000D01*
X4840000Y-4470000D02*
X4940000Y-4470000D01*
D11*
X4950000Y-4430000D02*
X4830000Y-4430000D01*
X4950000Y-4510000D02*
X4830000Y-4510000D01*
X4830000Y-4430000D02*
G75*
G03*
X4830000Y-4510000I0J-40000D01*
G01*
X4950000Y-4510000D02*
G75*
G03*
X4950000Y-4430000I0J40000D01*
G01*
D14*
X4890000Y-5730000D02*
X4890000Y-5830000D01*
X4840000Y-5780000D02*
X4940000Y-5780000D01*
D11*
X4950000Y-5740000D02*
X4830000Y-5740000D01*
X4950000Y-5820000D02*
X4830000Y-5820000D01*
X4830000Y-5740000D02*
G75*
G03*
X4830000Y-5820000I0J-40000D01*
G01*
X4950000Y-5820000D02*
G75*
G03*
X4950000Y-5740000I0J40000D01*
G01*
D14*
X4890000Y-6200000D02*
X4890000Y-6300000D01*
X4840000Y-6250000D02*
X4940000Y-6250000D01*
D11*
X4950000Y-6210000D02*
X4830000Y-6210000D01*
X4950000Y-6290000D02*
X4830000Y-6290000D01*
X4830000Y-6210000D02*
G75*
G03*
X4830000Y-6290000I0J-40000D01*
G01*
X4950000Y-6290000D02*
G75*
G03*
X4950000Y-6210000I0J40000D01*
G01*
D14*
X4890000Y-6670000D02*
X4890000Y-6770000D01*
X4840000Y-6720000D02*
X4940000Y-6720000D01*
D11*
X4950000Y-6680000D02*
X4830000Y-6680000D01*
X4950000Y-6760000D02*
X4830000Y-6760000D01*
X4830000Y-6680000D02*
G75*
G03*
X4830000Y-6760000I0J-40000D01*
G01*
X4950000Y-6760000D02*
G75*
G03*
X4950000Y-6680000I0J40000D01*
G01*
D14*
X4890000Y-7980000D02*
X4890000Y-8080000D01*
X4840000Y-8030000D02*
X4940000Y-8030000D01*
D11*
X4950000Y-7990000D02*
X4830000Y-7990000D01*
X4950000Y-8070000D02*
X4830000Y-8070000D01*
X4830000Y-7990000D02*
G75*
G03*
X4830000Y-8070000I0J-40000D01*
G01*
X4950000Y-8070000D02*
G75*
G03*
X4950000Y-7990000I0J40000D01*
G01*
D14*
X4890000Y-8450000D02*
X4890000Y-8550000D01*
X4840000Y-8500000D02*
X4940000Y-8500000D01*
D11*
X4950000Y-8460000D02*
X4830000Y-8460000D01*
X4950000Y-8540000D02*
X4830000Y-8540000D01*
X4830000Y-8460000D02*
G75*
G03*
X4830000Y-8540000I0J-40000D01*
G01*
X4950000Y-8540000D02*
G75*
G03*
X4950000Y-8460000I0J40000D01*
G01*
D14*
X4890000Y-8920000D02*
X4890000Y-9020000D01*
X4840000Y-8970000D02*
X4940000Y-8970000D01*
D11*
X4950000Y-8930000D02*
X4830000Y-8930000D01*
X4950000Y-9010000D02*
X4830000Y-9010000D01*
X4830000Y-8930000D02*
G75*
G03*
X4830000Y-9010000I0J-40000D01*
G01*
X4950000Y-9010000D02*
G75*
G03*
X4950000Y-8930000I0J40000D01*
G01*
D14*
X4890000Y-10230000D02*
X4890000Y-10330000D01*
X4840000Y-10280000D02*
X4940000Y-10280000D01*
D11*
X4950000Y-10240000D02*
X4830000Y-10240000D01*
X4950000Y-10320000D02*
X4830000Y-10320000D01*
X4830000Y-10240000D02*
G75*
G03*
X4830000Y-10320000I0J-40000D01*
G01*
X4950000Y-10320000D02*
G75*
G03*
X4950000Y-10240000I0J40000D01*
G01*
D14*
X4890000Y-10700000D02*
X4890000Y-10800000D01*
X4840000Y-10750000D02*
X4940000Y-10750000D01*
D11*
X4950000Y-10710000D02*
X4830000Y-10710000D01*
X4950000Y-10790000D02*
X4830000Y-10790000D01*
X4830000Y-10710000D02*
G75*
G03*
X4830000Y-10790000I0J-40000D01*
G01*
X4950000Y-10790000D02*
G75*
G03*
X4950000Y-10710000I0J40000D01*
G01*
D14*
X4890000Y-11170000D02*
X4890000Y-11270000D01*
X4840000Y-11220000D02*
X4940000Y-11220000D01*
D11*
X4950000Y-11180000D02*
X4830000Y-11180000D01*
X4950000Y-11260000D02*
X4830000Y-11260000D01*
X4830000Y-11180000D02*
G75*
G03*
X4830000Y-11260000I0J-40000D01*
G01*
X4950000Y-11260000D02*
G75*
G03*
X4950000Y-11180000I0J40000D01*
G01*
D14*
X4900500Y-13622500D02*
X4900500Y-13722500D01*
X4850500Y-13672500D02*
X4950500Y-13672500D01*
X4900500Y-13876500D02*
X4900500Y-13976500D01*
X4850500Y-13926500D02*
X4950500Y-13926500D01*
X5154500Y-13622500D02*
X5154500Y-13722500D01*
X5104500Y-13672500D02*
X5204500Y-13672500D01*
X5154500Y-13876500D02*
X5154500Y-13976500D01*
X5104500Y-13926500D02*
X5204500Y-13926500D01*
X5408500Y-13622500D02*
X5408500Y-13722500D01*
X5358500Y-13672500D02*
X5458500Y-13672500D01*
X5408500Y-13876500D02*
X5408500Y-13976500D01*
X5358500Y-13926500D02*
X5458500Y-13926500D01*
X5850000Y-4705000D02*
X5850000Y-4805000D01*
X5800000Y-4755000D02*
X5900000Y-4755000D01*
X5850000Y-6955000D02*
X5850000Y-7055000D01*
X5800000Y-7005000D02*
X5900000Y-7005000D01*
X5850000Y-9205000D02*
X5850000Y-9305000D01*
X5800000Y-9255000D02*
X5900000Y-9255000D01*
X5850000Y-11455000D02*
X5850000Y-11555000D01*
X5800000Y-11505000D02*
X5900000Y-11505000D01*
X6100000Y-4705000D02*
X6100000Y-4805000D01*
X6050000Y-4755000D02*
X6150000Y-4755000D01*
X6100000Y-6955000D02*
X6100000Y-7055000D01*
X6050000Y-7005000D02*
X6150000Y-7005000D01*
X6100000Y-9205000D02*
X6100000Y-9305000D01*
X6050000Y-9255000D02*
X6150000Y-9255000D01*
X6100000Y-11455000D02*
X6100000Y-11555000D01*
X6050000Y-11505000D02*
X6150000Y-11505000D01*
X6350000Y-4705000D02*
X6350000Y-4805000D01*
X6300000Y-4755000D02*
X6400000Y-4755000D01*
X6350000Y-6955000D02*
X6350000Y-7055000D01*
X6300000Y-7005000D02*
X6400000Y-7005000D01*
X6350000Y-9205000D02*
X6350000Y-9305000D01*
X6300000Y-9255000D02*
X6400000Y-9255000D01*
X6350000Y-11455000D02*
X6350000Y-11555000D01*
X6300000Y-11505000D02*
X6400000Y-11505000D01*
D15*
X3593134Y-3393134D02*
X3593134Y-3306866D01*
X3506866Y-3306866D01*
X3506866Y-3393134D01*
X3593134Y-3393134D01*
X3593134Y-5643134D02*
X3593134Y-5556866D01*
X3506866Y-5556866D01*
X3506866Y-5643134D01*
X3593134Y-5643134D01*
X3593134Y-7893134D02*
X3593134Y-7806866D01*
X3506866Y-7806866D01*
X3506866Y-7893134D01*
X3593134Y-7893134D01*
X3593134Y-10143134D02*
X3593134Y-10056866D01*
X3506866Y-10056866D01*
X3506866Y-10143134D01*
X3593134Y-10143134D01*
X5543134Y-12243134D02*
X5543134Y-12156866D01*
X5456866Y-12156866D01*
X5456866Y-12243134D01*
X5543134Y-12243134D01*
X6543134Y-12243134D02*
X6543134Y-12156866D01*
X6456866Y-12156866D01*
X6456866Y-12243134D01*
X6543134Y-12243134D01*
D16*
X3550000Y-3731000D02*
X3621000Y-3660000D01*
X3550000Y-3589000D01*
X3479000Y-3660000D01*
X3550000Y-3731000D01*
X3550000Y-5981000D02*
X3621000Y-5910000D01*
X3550000Y-5839000D01*
X3479000Y-5910000D01*
X3550000Y-5981000D01*
X3550000Y-8231000D02*
X3621000Y-8160000D01*
X3550000Y-8089000D01*
X3479000Y-8160000D01*
X3550000Y-8231000D01*
X3550000Y-10481000D02*
X3621000Y-10410000D01*
X3550000Y-10339000D01*
X3479000Y-10410000D01*
X3550000Y-10481000D01*
X5500000Y-12581000D02*
X5571000Y-12510000D01*
X5500000Y-12439000D01*
X5429000Y-12510000D01*
X5500000Y-12581000D01*
X6500000Y-12581000D02*
X6571000Y-12510000D01*
X6500000Y-12439000D01*
X6429000Y-12510000D01*
X6500000Y-12581000D01*
D17*
X3478500Y-4418500D02*
X3621500Y-4561500D01*
X3621500Y-4418500D02*
X3478500Y-4561500D01*
X3621500Y-4490000D02*
G75*
G03*
X3621500Y-4490000I-71500J0D01*
G01*
X3478500Y-6668500D02*
X3621500Y-6811500D01*
X3621500Y-6668500D02*
X3478500Y-6811500D01*
X3621500Y-6740000D02*
G75*
G03*
X3621500Y-6740000I-71500J0D01*
G01*
X3478500Y-8918500D02*
X3621500Y-9061500D01*
X3621500Y-8918500D02*
X3478500Y-9061500D01*
X3621500Y-8990000D02*
G75*
G03*
X3621500Y-8990000I-71500J0D01*
G01*
X3478500Y-11168500D02*
X3621500Y-11311500D01*
X3621500Y-11168500D02*
X3478500Y-11311500D01*
X3621500Y-11240000D02*
G75*
G03*
X3621500Y-11240000I-71500J0D01*
G01*
X5428500Y-13268500D02*
X5571500Y-13411500D01*
X5571500Y-13268500D02*
X5428500Y-13411500D01*
X5571500Y-13340000D02*
G75*
G03*
X5571500Y-13340000I-71500J0D01*
G01*
X6428500Y-13268500D02*
X6571500Y-13411500D01*
X6571500Y-13268500D02*
X6428500Y-13411500D01*
X6571500Y-13340000D02*
G75*
G03*
X6571500Y-13340000I-71500J0D01*
G01*
D11*
X3255119Y-14412976D02*
X3255119Y-14212976D01*
X3302738Y-14212976D01*
X3331309Y-14222500D01*
X3350357Y-14241548D01*
X3359881Y-14260595D01*
X3369405Y-14298690D01*
X3369405Y-14327262D01*
X3359881Y-14365357D01*
X3350357Y-14384405D01*
X3331309Y-14403452D01*
X3302738Y-14412976D01*
X3255119Y-14412976D01*
X3455119Y-14412976D02*
X3455119Y-14279643D01*
X3455119Y-14317738D02*
X3464643Y-14298690D01*
X3474167Y-14289167D01*
X3493214Y-14279643D01*
X3512262Y-14279643D01*
X3578928Y-14412976D02*
X3578928Y-14279643D01*
X3578928Y-14212976D02*
X3569405Y-14222500D01*
X3578928Y-14232024D01*
X3588452Y-14222500D01*
X3578928Y-14212976D01*
X3578928Y-14232024D01*
X3702738Y-14412976D02*
X3683690Y-14403452D01*
X3674167Y-14384405D01*
X3674167Y-14212976D01*
X3807500Y-14412976D02*
X3788452Y-14403452D01*
X3778928Y-14384405D01*
X3778928Y-14212976D01*
X4036071Y-14412976D02*
X4036071Y-14212976D01*
X4102738Y-14355833D01*
X4169405Y-14212976D01*
X4169405Y-14412976D01*
X4350357Y-14412976D02*
X4350357Y-14308214D01*
X4340833Y-14289167D01*
X4321786Y-14279643D01*
X4283690Y-14279643D01*
X4264643Y-14289167D01*
X4350357Y-14403452D02*
X4331310Y-14412976D01*
X4283690Y-14412976D01*
X4264643Y-14403452D01*
X4255119Y-14384405D01*
X4255119Y-14365357D01*
X4264643Y-14346309D01*
X4283690Y-14336786D01*
X4331310Y-14336786D01*
X4350357Y-14327262D01*
X4445595Y-14279643D02*
X4445595Y-14479643D01*
X4445595Y-14289167D02*
X4464643Y-14279643D01*
X4502738Y-14279643D01*
X4521786Y-14289167D01*
X4531310Y-14298690D01*
X4540833Y-14317738D01*
X4540833Y-14374881D01*
X4531310Y-14393928D01*
X4521786Y-14403452D01*
X4502738Y-14412976D01*
X4464643Y-14412976D01*
X4445595Y-14403452D01*
X4626548Y-14393928D02*
X4636071Y-14403452D01*
X4626548Y-14412976D01*
X4617024Y-14403452D01*
X4626548Y-14393928D01*
X4626548Y-14412976D01*
X4626548Y-14289167D02*
X4636071Y-14298690D01*
X4626548Y-14308214D01*
X4617024Y-14298690D01*
X4626548Y-14289167D01*
X4626548Y-14308214D01*
D12*
X2917500Y-14702500D02*
X2997500Y-14782500D01*
X2997500Y-14702500D02*
X2917500Y-14782500D01*
D11*
X3293214Y-14632976D02*
X3312262Y-14632976D01*
X3331309Y-14642500D01*
X3340833Y-14652024D01*
X3350357Y-14671071D01*
X3359881Y-14709167D01*
X3359881Y-14756786D01*
X3350357Y-14794881D01*
X3340833Y-14813928D01*
X3331309Y-14823452D01*
X3312262Y-14832976D01*
X3293214Y-14832976D01*
X3274167Y-14823452D01*
X3264643Y-14813928D01*
X3255119Y-14794881D01*
X3245595Y-14756786D01*
X3245595Y-14709167D01*
X3255119Y-14671071D01*
X3264643Y-14652024D01*
X3274167Y-14642500D01*
X3293214Y-14632976D01*
X3445595Y-14813928D02*
X3455119Y-14823452D01*
X3445595Y-14832976D01*
X3436071Y-14823452D01*
X3445595Y-14813928D01*
X3445595Y-14832976D01*
X3569405Y-14718690D02*
X3550357Y-14709167D01*
X3540833Y-14699643D01*
X3531309Y-14680595D01*
X3531309Y-14671071D01*
X3540833Y-14652024D01*
X3550357Y-14642500D01*
X3569405Y-14632976D01*
X3607500Y-14632976D01*
X3626548Y-14642500D01*
X3636071Y-14652024D01*
X3645595Y-14671071D01*
X3645595Y-14680595D01*
X3636071Y-14699643D01*
X3626548Y-14709167D01*
X3607500Y-14718690D01*
X3569405Y-14718690D01*
X3550357Y-14728214D01*
X3540833Y-14737738D01*
X3531309Y-14756786D01*
X3531309Y-14794881D01*
X3540833Y-14813928D01*
X3550357Y-14823452D01*
X3569405Y-14832976D01*
X3607500Y-14832976D01*
X3626548Y-14823452D01*
X3636071Y-14813928D01*
X3645595Y-14794881D01*
X3645595Y-14756786D01*
X3636071Y-14737738D01*
X3626548Y-14728214D01*
X3607500Y-14718690D01*
X3769405Y-14632976D02*
X3788452Y-14632976D01*
X3807500Y-14642500D01*
X3817024Y-14652024D01*
X3826548Y-14671071D01*
X3836071Y-14709167D01*
X3836071Y-14756786D01*
X3826548Y-14794881D01*
X3817024Y-14813928D01*
X3807500Y-14823452D01*
X3788452Y-14832976D01*
X3769405Y-14832976D01*
X3750357Y-14823452D01*
X3740833Y-14813928D01*
X3731309Y-14794881D01*
X3721786Y-14756786D01*
X3721786Y-14709167D01*
X3731309Y-14671071D01*
X3740833Y-14652024D01*
X3750357Y-14642500D01*
X3769405Y-14632976D01*
X3959881Y-14632976D02*
X3978928Y-14632976D01*
X3997976Y-14642500D01*
X4007500Y-14652024D01*
X4017024Y-14671071D01*
X4026548Y-14709167D01*
X4026548Y-14756786D01*
X4017024Y-14794881D01*
X4007500Y-14813928D01*
X3997976Y-14823452D01*
X3978928Y-14832976D01*
X3959881Y-14832976D01*
X3940833Y-14823452D01*
X3931309Y-14813928D01*
X3921786Y-14794881D01*
X3912262Y-14756786D01*
X3912262Y-14709167D01*
X3921786Y-14671071D01*
X3931309Y-14652024D01*
X3940833Y-14642500D01*
X3959881Y-14632976D01*
X4112262Y-14832976D02*
X4112262Y-14699643D01*
X4112262Y-14718690D02*
X4121786Y-14709167D01*
X4140833Y-14699643D01*
X4169405Y-14699643D01*
X4188452Y-14709167D01*
X4197976Y-14728214D01*
X4197976Y-14832976D01*
X4197976Y-14728214D02*
X4207500Y-14709167D01*
X4226548Y-14699643D01*
X4255119Y-14699643D01*
X4274167Y-14709167D01*
X4283690Y-14728214D01*
X4283690Y-14832976D01*
X4378929Y-14832976D02*
X4378929Y-14699643D01*
X4378929Y-14718690D02*
X4388452Y-14709167D01*
X4407500Y-14699643D01*
X4436071Y-14699643D01*
X4455119Y-14709167D01*
X4464643Y-14728214D01*
X4464643Y-14832976D01*
X4464643Y-14728214D02*
X4474167Y-14709167D01*
X4493214Y-14699643D01*
X4521786Y-14699643D01*
X4540833Y-14709167D01*
X4550357Y-14728214D01*
X4550357Y-14832976D01*
X4940833Y-14623452D02*
X4769405Y-14880595D01*
X5197976Y-14632976D02*
X5217024Y-14632976D01*
X5236071Y-14642500D01*
X5245595Y-14652024D01*
X5255119Y-14671071D01*
X5264643Y-14709167D01*
X5264643Y-14756786D01*
X5255119Y-14794881D01*
X5245595Y-14813928D01*
X5236071Y-14823452D01*
X5217024Y-14832976D01*
X5197976Y-14832976D01*
X5178929Y-14823452D01*
X5169405Y-14813928D01*
X5159881Y-14794881D01*
X5150357Y-14756786D01*
X5150357Y-14709167D01*
X5159881Y-14671071D01*
X5169405Y-14652024D01*
X5178929Y-14642500D01*
X5197976Y-14632976D01*
X5350357Y-14813928D02*
X5359881Y-14823452D01*
X5350357Y-14832976D01*
X5340833Y-14823452D01*
X5350357Y-14813928D01*
X5350357Y-14832976D01*
X5483690Y-14632976D02*
X5502738Y-14632976D01*
X5521786Y-14642500D01*
X5531310Y-14652024D01*
X5540833Y-14671071D01*
X5550357Y-14709167D01*
X5550357Y-14756786D01*
X5540833Y-14794881D01*
X5531310Y-14813928D01*
X5521786Y-14823452D01*
X5502738Y-14832976D01*
X5483690Y-14832976D01*
X5464643Y-14823452D01*
X5455119Y-14813928D01*
X5445595Y-14794881D01*
X5436071Y-14756786D01*
X5436071Y-14709167D01*
X5445595Y-14671071D01*
X5455119Y-14652024D01*
X5464643Y-14642500D01*
X5483690Y-14632976D01*
X5617024Y-14632976D02*
X5740833Y-14632976D01*
X5674167Y-14709167D01*
X5702738Y-14709167D01*
X5721786Y-14718690D01*
X5731309Y-14728214D01*
X5740833Y-14747262D01*
X5740833Y-14794881D01*
X5731309Y-14813928D01*
X5721786Y-14823452D01*
X5702738Y-14832976D01*
X5645595Y-14832976D01*
X5626548Y-14823452D01*
X5617024Y-14813928D01*
X5931309Y-14832976D02*
X5817024Y-14832976D01*
X5874167Y-14832976D02*
X5874167Y-14632976D01*
X5855119Y-14661548D01*
X5836071Y-14680595D01*
X5817024Y-14690119D01*
X6112262Y-14632976D02*
X6017024Y-14632976D01*
X6007500Y-14728214D01*
X6017024Y-14718690D01*
X6036071Y-14709167D01*
X6083690Y-14709167D01*
X6102738Y-14718690D01*
X6112262Y-14728214D01*
X6121786Y-14747262D01*
X6121786Y-14794881D01*
X6112262Y-14813928D01*
X6102738Y-14823452D01*
X6083690Y-14832976D01*
X6036071Y-14832976D01*
X6017024Y-14823452D01*
X6007500Y-14813928D01*
X6197976Y-14632976D02*
X6197976Y-14671071D01*
X6274167Y-14632976D02*
X6274167Y-14671071D01*
X6569405Y-14909167D02*
X6559881Y-14899643D01*
X6540833Y-14871071D01*
X6531309Y-14852024D01*
X6521786Y-14823452D01*
X6512262Y-14775833D01*
X6512262Y-14737738D01*
X6521786Y-14690119D01*
X6531309Y-14661548D01*
X6540833Y-14642500D01*
X6559881Y-14613928D01*
X6569405Y-14604405D01*
X6626548Y-14632976D02*
X6750357Y-14632976D01*
X6683690Y-14709167D01*
X6712262Y-14709167D01*
X6731309Y-14718690D01*
X6740833Y-14728214D01*
X6750357Y-14747262D01*
X6750357Y-14794881D01*
X6740833Y-14813928D01*
X6731309Y-14823452D01*
X6712262Y-14832976D01*
X6655119Y-14832976D01*
X6636071Y-14823452D01*
X6626548Y-14813928D01*
X6921786Y-14699643D02*
X6921786Y-14832976D01*
X6874167Y-14623452D02*
X6826548Y-14766309D01*
X6950357Y-14766309D01*
X7178928Y-14832976D02*
X7178928Y-14632976D01*
X7264643Y-14832976D02*
X7264643Y-14728214D01*
X7255119Y-14709167D01*
X7236071Y-14699643D01*
X7207500Y-14699643D01*
X7188452Y-14709167D01*
X7178928Y-14718690D01*
X7388452Y-14832976D02*
X7369405Y-14823452D01*
X7359881Y-14813928D01*
X7350357Y-14794881D01*
X7350357Y-14737738D01*
X7359881Y-14718690D01*
X7369405Y-14709167D01*
X7388452Y-14699643D01*
X7417024Y-14699643D01*
X7436071Y-14709167D01*
X7445595Y-14718690D01*
X7455119Y-14737738D01*
X7455119Y-14794881D01*
X7445595Y-14813928D01*
X7436071Y-14823452D01*
X7417024Y-14832976D01*
X7388452Y-14832976D01*
X7569405Y-14832976D02*
X7550357Y-14823452D01*
X7540833Y-14804405D01*
X7540833Y-14632976D01*
X7721786Y-14823452D02*
X7702738Y-14832976D01*
X7664643Y-14832976D01*
X7645595Y-14823452D01*
X7636071Y-14804405D01*
X7636071Y-14728214D01*
X7645595Y-14709167D01*
X7664643Y-14699643D01*
X7702738Y-14699643D01*
X7721786Y-14709167D01*
X7731309Y-14728214D01*
X7731309Y-14747262D01*
X7636071Y-14766309D01*
X7807500Y-14823452D02*
X7826548Y-14832976D01*
X7864643Y-14832976D01*
X7883690Y-14823452D01*
X7893214Y-14804405D01*
X7893214Y-14794881D01*
X7883690Y-14775833D01*
X7864643Y-14766309D01*
X7836071Y-14766309D01*
X7817024Y-14756786D01*
X7807500Y-14737738D01*
X7807500Y-14728214D01*
X7817024Y-14709167D01*
X7836071Y-14699643D01*
X7864643Y-14699643D01*
X7883690Y-14709167D01*
X7959881Y-14909167D02*
X7969405Y-14899643D01*
X7988452Y-14871071D01*
X7997976Y-14852024D01*
X8007500Y-14823452D01*
X8017024Y-14775833D01*
X8017024Y-14737738D01*
X8007500Y-14690119D01*
X7997976Y-14661548D01*
X7988452Y-14642500D01*
X7969405Y-14613928D01*
X7959881Y-14604405D01*
D13*
X2997500Y-15006500D02*
G75*
G03*
X2997500Y-15006500I-45000J0D01*
G01*
D11*
X3293214Y-14896976D02*
X3312262Y-14896976D01*
X3331309Y-14906500D01*
X3340833Y-14916024D01*
X3350357Y-14935071D01*
X3359881Y-14973167D01*
X3359881Y-15020786D01*
X3350357Y-15058881D01*
X3340833Y-15077928D01*
X3331309Y-15087452D01*
X3312262Y-15096976D01*
X3293214Y-15096976D01*
X3274167Y-15087452D01*
X3264643Y-15077928D01*
X3255119Y-15058881D01*
X3245595Y-15020786D01*
X3245595Y-14973167D01*
X3255119Y-14935071D01*
X3264643Y-14916024D01*
X3274167Y-14906500D01*
X3293214Y-14896976D01*
X3445595Y-15077928D02*
X3455119Y-15087452D01*
X3445595Y-15096976D01*
X3436071Y-15087452D01*
X3445595Y-15077928D01*
X3445595Y-15096976D01*
X3550357Y-15096976D02*
X3588452Y-15096976D01*
X3607500Y-15087452D01*
X3617024Y-15077928D01*
X3636071Y-15049357D01*
X3645595Y-15011262D01*
X3645595Y-14935071D01*
X3636071Y-14916024D01*
X3626548Y-14906500D01*
X3607500Y-14896976D01*
X3569405Y-14896976D01*
X3550357Y-14906500D01*
X3540833Y-14916024D01*
X3531309Y-14935071D01*
X3531309Y-14982690D01*
X3540833Y-15001738D01*
X3550357Y-15011262D01*
X3569405Y-15020786D01*
X3607500Y-15020786D01*
X3626548Y-15011262D01*
X3636071Y-15001738D01*
X3645595Y-14982690D01*
X3769405Y-14896976D02*
X3788452Y-14896976D01*
X3807500Y-14906500D01*
X3817024Y-14916024D01*
X3826548Y-14935071D01*
X3836071Y-14973167D01*
X3836071Y-15020786D01*
X3826548Y-15058881D01*
X3817024Y-15077928D01*
X3807500Y-15087452D01*
X3788452Y-15096976D01*
X3769405Y-15096976D01*
X3750357Y-15087452D01*
X3740833Y-15077928D01*
X3731309Y-15058881D01*
X3721786Y-15020786D01*
X3721786Y-14973167D01*
X3731309Y-14935071D01*
X3740833Y-14916024D01*
X3750357Y-14906500D01*
X3769405Y-14896976D01*
X3959881Y-14896976D02*
X3978928Y-14896976D01*
X3997976Y-14906500D01*
X4007500Y-14916024D01*
X4017024Y-14935071D01*
X4026548Y-14973167D01*
X4026548Y-15020786D01*
X4017024Y-15058881D01*
X4007500Y-15077928D01*
X3997976Y-15087452D01*
X3978928Y-15096976D01*
X3959881Y-15096976D01*
X3940833Y-15087452D01*
X3931309Y-15077928D01*
X3921786Y-15058881D01*
X3912262Y-15020786D01*
X3912262Y-14973167D01*
X3921786Y-14935071D01*
X3931309Y-14916024D01*
X3940833Y-14906500D01*
X3959881Y-14896976D01*
X4112262Y-15096976D02*
X4112262Y-14963643D01*
X4112262Y-14982690D02*
X4121786Y-14973167D01*
X4140833Y-14963643D01*
X4169405Y-14963643D01*
X4188452Y-14973167D01*
X4197976Y-14992214D01*
X4197976Y-15096976D01*
X4197976Y-14992214D02*
X4207500Y-14973167D01*
X4226548Y-14963643D01*
X4255119Y-14963643D01*
X4274167Y-14973167D01*
X4283690Y-14992214D01*
X4283690Y-15096976D01*
X4378929Y-15096976D02*
X4378929Y-14963643D01*
X4378929Y-14982690D02*
X4388452Y-14973167D01*
X4407500Y-14963643D01*
X4436071Y-14963643D01*
X4455119Y-14973167D01*
X4464643Y-14992214D01*
X4464643Y-15096976D01*
X4464643Y-14992214D02*
X4474167Y-14973167D01*
X4493214Y-14963643D01*
X4521786Y-14963643D01*
X4540833Y-14973167D01*
X4550357Y-14992214D01*
X4550357Y-15096976D01*
X4940833Y-14887452D02*
X4769405Y-15144595D01*
X5197976Y-14896976D02*
X5217024Y-14896976D01*
X5236071Y-14906500D01*
X5245595Y-14916024D01*
X5255119Y-14935071D01*
X5264643Y-14973167D01*
X5264643Y-15020786D01*
X5255119Y-15058881D01*
X5245595Y-15077928D01*
X5236071Y-15087452D01*
X5217024Y-15096976D01*
X5197976Y-15096976D01*
X5178929Y-15087452D01*
X5169405Y-15077928D01*
X5159881Y-15058881D01*
X5150357Y-15020786D01*
X5150357Y-14973167D01*
X5159881Y-14935071D01*
X5169405Y-14916024D01*
X5178929Y-14906500D01*
X5197976Y-14896976D01*
X5350357Y-15077928D02*
X5359881Y-15087452D01*
X5350357Y-15096976D01*
X5340833Y-15087452D01*
X5350357Y-15077928D01*
X5350357Y-15096976D01*
X5483690Y-14896976D02*
X5502738Y-14896976D01*
X5521786Y-14906500D01*
X5531310Y-14916024D01*
X5540833Y-14935071D01*
X5550357Y-14973167D01*
X5550357Y-15020786D01*
X5540833Y-15058881D01*
X5531310Y-15077928D01*
X5521786Y-15087452D01*
X5502738Y-15096976D01*
X5483690Y-15096976D01*
X5464643Y-15087452D01*
X5455119Y-15077928D01*
X5445595Y-15058881D01*
X5436071Y-15020786D01*
X5436071Y-14973167D01*
X5445595Y-14935071D01*
X5455119Y-14916024D01*
X5464643Y-14906500D01*
X5483690Y-14896976D01*
X5617024Y-14896976D02*
X5740833Y-14896976D01*
X5674167Y-14973167D01*
X5702738Y-14973167D01*
X5721786Y-14982690D01*
X5731309Y-14992214D01*
X5740833Y-15011262D01*
X5740833Y-15058881D01*
X5731309Y-15077928D01*
X5721786Y-15087452D01*
X5702738Y-15096976D01*
X5645595Y-15096976D01*
X5626548Y-15087452D01*
X5617024Y-15077928D01*
X5921786Y-14896976D02*
X5826548Y-14896976D01*
X5817024Y-14992214D01*
X5826548Y-14982690D01*
X5845595Y-14973167D01*
X5893214Y-14973167D01*
X5912262Y-14982690D01*
X5921786Y-14992214D01*
X5931309Y-15011262D01*
X5931309Y-15058881D01*
X5921786Y-15077928D01*
X5912262Y-15087452D01*
X5893214Y-15096976D01*
X5845595Y-15096976D01*
X5826548Y-15087452D01*
X5817024Y-15077928D01*
X6102738Y-14963643D02*
X6102738Y-15096976D01*
X6055119Y-14887452D02*
X6007500Y-15030309D01*
X6131309Y-15030309D01*
X6197976Y-14896976D02*
X6197976Y-14935071D01*
X6274167Y-14896976D02*
X6274167Y-14935071D01*
X6569405Y-15173167D02*
X6559881Y-15163643D01*
X6540833Y-15135071D01*
X6531309Y-15116024D01*
X6521786Y-15087452D01*
X6512262Y-15039833D01*
X6512262Y-15001738D01*
X6521786Y-14954119D01*
X6531309Y-14925548D01*
X6540833Y-14906500D01*
X6559881Y-14877928D01*
X6569405Y-14868405D01*
X6674167Y-14982690D02*
X6655119Y-14973167D01*
X6645595Y-14963643D01*
X6636071Y-14944595D01*
X6636071Y-14935071D01*
X6645595Y-14916024D01*
X6655119Y-14906500D01*
X6674167Y-14896976D01*
X6712262Y-14896976D01*
X6731309Y-14906500D01*
X6740833Y-14916024D01*
X6750357Y-14935071D01*
X6750357Y-14944595D01*
X6740833Y-14963643D01*
X6731309Y-14973167D01*
X6712262Y-14982690D01*
X6674167Y-14982690D01*
X6655119Y-14992214D01*
X6645595Y-15001738D01*
X6636071Y-15020786D01*
X6636071Y-15058881D01*
X6645595Y-15077928D01*
X6655119Y-15087452D01*
X6674167Y-15096976D01*
X6712262Y-15096976D01*
X6731309Y-15087452D01*
X6740833Y-15077928D01*
X6750357Y-15058881D01*
X6750357Y-15020786D01*
X6740833Y-15001738D01*
X6731309Y-14992214D01*
X6712262Y-14982690D01*
X6988452Y-15096976D02*
X6988452Y-14896976D01*
X7074167Y-15096976D02*
X7074167Y-14992214D01*
X7064643Y-14973167D01*
X7045595Y-14963643D01*
X7017024Y-14963643D01*
X6997976Y-14973167D01*
X6988452Y-14982690D01*
X7197976Y-15096976D02*
X7178928Y-15087452D01*
X7169405Y-15077928D01*
X7159881Y-15058881D01*
X7159881Y-15001738D01*
X7169405Y-14982690D01*
X7178928Y-14973167D01*
X7197976Y-14963643D01*
X7226548Y-14963643D01*
X7245595Y-14973167D01*
X7255119Y-14982690D01*
X7264643Y-15001738D01*
X7264643Y-15058881D01*
X7255119Y-15077928D01*
X7245595Y-15087452D01*
X7226548Y-15096976D01*
X7197976Y-15096976D01*
X7378928Y-15096976D02*
X7359881Y-15087452D01*
X7350357Y-15068405D01*
X7350357Y-14896976D01*
X7531309Y-15087452D02*
X7512262Y-15096976D01*
X7474167Y-15096976D01*
X7455119Y-15087452D01*
X7445595Y-15068405D01*
X7445595Y-14992214D01*
X7455119Y-14973167D01*
X7474167Y-14963643D01*
X7512262Y-14963643D01*
X7531309Y-14973167D01*
X7540833Y-14992214D01*
X7540833Y-15011262D01*
X7445595Y-15030309D01*
X7617024Y-15087452D02*
X7636071Y-15096976D01*
X7674167Y-15096976D01*
X7693214Y-15087452D01*
X7702738Y-15068405D01*
X7702738Y-15058881D01*
X7693214Y-15039833D01*
X7674167Y-15030309D01*
X7645595Y-15030309D01*
X7626548Y-15020786D01*
X7617024Y-15001738D01*
X7617024Y-14992214D01*
X7626548Y-14973167D01*
X7645595Y-14963643D01*
X7674167Y-14963643D01*
X7693214Y-14973167D01*
X7769405Y-15173167D02*
X7778928Y-15163643D01*
X7797976Y-15135071D01*
X7807500Y-15116024D01*
X7817024Y-15087452D01*
X7826548Y-15039833D01*
X7826548Y-15001738D01*
X7817024Y-14954119D01*
X7807500Y-14925548D01*
X7797976Y-14906500D01*
X7778928Y-14877928D01*
X7769405Y-14868405D01*
D14*
X2947500Y-15220500D02*
X2947500Y-15320500D01*
X2897500Y-15270500D02*
X2997500Y-15270500D01*
D11*
X3359881Y-15360976D02*
X3245595Y-15360976D01*
X3302738Y-15360976D02*
X3302738Y-15160976D01*
X3283690Y-15189548D01*
X3264643Y-15208595D01*
X3245595Y-15218119D01*
X3445595Y-15341928D02*
X3455119Y-15351452D01*
X3445595Y-15360976D01*
X3436071Y-15351452D01*
X3445595Y-15341928D01*
X3445595Y-15360976D01*
X3578928Y-15160976D02*
X3597976Y-15160976D01*
X3617024Y-15170500D01*
X3626548Y-15180024D01*
X3636071Y-15199071D01*
X3645595Y-15237167D01*
X3645595Y-15284786D01*
X3636071Y-15322881D01*
X3626548Y-15341928D01*
X3617024Y-15351452D01*
X3597976Y-15360976D01*
X3578928Y-15360976D01*
X3559881Y-15351452D01*
X3550357Y-15341928D01*
X3540833Y-15322881D01*
X3531309Y-15284786D01*
X3531309Y-15237167D01*
X3540833Y-15199071D01*
X3550357Y-15180024D01*
X3559881Y-15170500D01*
X3578928Y-15160976D01*
X3769405Y-15160976D02*
X3788452Y-15160976D01*
X3807500Y-15170500D01*
X3817024Y-15180024D01*
X3826548Y-15199071D01*
X3836071Y-15237167D01*
X3836071Y-15284786D01*
X3826548Y-15322881D01*
X3817024Y-15341928D01*
X3807500Y-15351452D01*
X3788452Y-15360976D01*
X3769405Y-15360976D01*
X3750357Y-15351452D01*
X3740833Y-15341928D01*
X3731309Y-15322881D01*
X3721786Y-15284786D01*
X3721786Y-15237167D01*
X3731309Y-15199071D01*
X3740833Y-15180024D01*
X3750357Y-15170500D01*
X3769405Y-15160976D01*
X3959881Y-15160976D02*
X3978928Y-15160976D01*
X3997976Y-15170500D01*
X4007500Y-15180024D01*
X4017024Y-15199071D01*
X4026548Y-15237167D01*
X4026548Y-15284786D01*
X4017024Y-15322881D01*
X4007500Y-15341928D01*
X3997976Y-15351452D01*
X3978928Y-15360976D01*
X3959881Y-15360976D01*
X3940833Y-15351452D01*
X3931309Y-15341928D01*
X3921786Y-15322881D01*
X3912262Y-15284786D01*
X3912262Y-15237167D01*
X3921786Y-15199071D01*
X3931309Y-15180024D01*
X3940833Y-15170500D01*
X3959881Y-15160976D01*
X4112262Y-15360976D02*
X4112262Y-15227643D01*
X4112262Y-15246690D02*
X4121786Y-15237167D01*
X4140833Y-15227643D01*
X4169405Y-15227643D01*
X4188452Y-15237167D01*
X4197976Y-15256214D01*
X4197976Y-15360976D01*
X4197976Y-15256214D02*
X4207500Y-15237167D01*
X4226548Y-15227643D01*
X4255119Y-15227643D01*
X4274167Y-15237167D01*
X4283690Y-15256214D01*
X4283690Y-15360976D01*
X4378929Y-15360976D02*
X4378929Y-15227643D01*
X4378929Y-15246690D02*
X4388452Y-15237167D01*
X4407500Y-15227643D01*
X4436071Y-15227643D01*
X4455119Y-15237167D01*
X4464643Y-15256214D01*
X4464643Y-15360976D01*
X4464643Y-15256214D02*
X4474167Y-15237167D01*
X4493214Y-15227643D01*
X4521786Y-15227643D01*
X4540833Y-15237167D01*
X4550357Y-15256214D01*
X4550357Y-15360976D01*
X4940833Y-15151452D02*
X4769405Y-15408595D01*
X5197976Y-15160976D02*
X5217024Y-15160976D01*
X5236071Y-15170500D01*
X5245595Y-15180024D01*
X5255119Y-15199071D01*
X5264643Y-15237167D01*
X5264643Y-15284786D01*
X5255119Y-15322881D01*
X5245595Y-15341928D01*
X5236071Y-15351452D01*
X5217024Y-15360976D01*
X5197976Y-15360976D01*
X5178929Y-15351452D01*
X5169405Y-15341928D01*
X5159881Y-15322881D01*
X5150357Y-15284786D01*
X5150357Y-15237167D01*
X5159881Y-15199071D01*
X5169405Y-15180024D01*
X5178929Y-15170500D01*
X5197976Y-15160976D01*
X5350357Y-15341928D02*
X5359881Y-15351452D01*
X5350357Y-15360976D01*
X5340833Y-15351452D01*
X5350357Y-15341928D01*
X5350357Y-15360976D01*
X5483690Y-15160976D02*
X5502738Y-15160976D01*
X5521786Y-15170500D01*
X5531310Y-15180024D01*
X5540833Y-15199071D01*
X5550357Y-15237167D01*
X5550357Y-15284786D01*
X5540833Y-15322881D01*
X5531310Y-15341928D01*
X5521786Y-15351452D01*
X5502738Y-15360976D01*
X5483690Y-15360976D01*
X5464643Y-15351452D01*
X5455119Y-15341928D01*
X5445595Y-15322881D01*
X5436071Y-15284786D01*
X5436071Y-15237167D01*
X5445595Y-15199071D01*
X5455119Y-15180024D01*
X5464643Y-15170500D01*
X5483690Y-15160976D01*
X5617024Y-15160976D02*
X5740833Y-15160976D01*
X5674167Y-15237167D01*
X5702738Y-15237167D01*
X5721786Y-15246690D01*
X5731309Y-15256214D01*
X5740833Y-15275262D01*
X5740833Y-15322881D01*
X5731309Y-15341928D01*
X5721786Y-15351452D01*
X5702738Y-15360976D01*
X5645595Y-15360976D01*
X5626548Y-15351452D01*
X5617024Y-15341928D01*
X5836071Y-15360976D02*
X5874167Y-15360976D01*
X5893214Y-15351452D01*
X5902738Y-15341928D01*
X5921786Y-15313357D01*
X5931309Y-15275262D01*
X5931309Y-15199071D01*
X5921786Y-15180024D01*
X5912262Y-15170500D01*
X5893214Y-15160976D01*
X5855119Y-15160976D01*
X5836071Y-15170500D01*
X5826548Y-15180024D01*
X5817024Y-15199071D01*
X5817024Y-15246690D01*
X5826548Y-15265738D01*
X5836071Y-15275262D01*
X5855119Y-15284786D01*
X5893214Y-15284786D01*
X5912262Y-15275262D01*
X5921786Y-15265738D01*
X5931309Y-15246690D01*
X6102738Y-15227643D02*
X6102738Y-15360976D01*
X6055119Y-15151452D02*
X6007500Y-15294309D01*
X6131309Y-15294309D01*
X6197976Y-15160976D02*
X6197976Y-15199071D01*
X6274167Y-15160976D02*
X6274167Y-15199071D01*
X6569405Y-15437167D02*
X6559881Y-15427643D01*
X6540833Y-15399071D01*
X6531309Y-15380024D01*
X6521786Y-15351452D01*
X6512262Y-15303833D01*
X6512262Y-15265738D01*
X6521786Y-15218119D01*
X6531309Y-15189548D01*
X6540833Y-15170500D01*
X6559881Y-15141928D01*
X6569405Y-15132405D01*
X6636071Y-15180024D02*
X6645595Y-15170500D01*
X6664643Y-15160976D01*
X6712262Y-15160976D01*
X6731309Y-15170500D01*
X6740833Y-15180024D01*
X6750357Y-15199071D01*
X6750357Y-15218119D01*
X6740833Y-15246690D01*
X6626548Y-15360976D01*
X6750357Y-15360976D01*
X6826548Y-15180024D02*
X6836071Y-15170500D01*
X6855119Y-15160976D01*
X6902738Y-15160976D01*
X6921786Y-15170500D01*
X6931309Y-15180024D01*
X6940833Y-15199071D01*
X6940833Y-15218119D01*
X6931309Y-15246690D01*
X6817024Y-15360976D01*
X6940833Y-15360976D01*
X7178928Y-15360976D02*
X7178928Y-15160976D01*
X7264643Y-15360976D02*
X7264643Y-15256214D01*
X7255119Y-15237167D01*
X7236071Y-15227643D01*
X7207500Y-15227643D01*
X7188452Y-15237167D01*
X7178928Y-15246690D01*
X7388452Y-15360976D02*
X7369405Y-15351452D01*
X7359881Y-15341928D01*
X7350357Y-15322881D01*
X7350357Y-15265738D01*
X7359881Y-15246690D01*
X7369405Y-15237167D01*
X7388452Y-15227643D01*
X7417024Y-15227643D01*
X7436071Y-15237167D01*
X7445595Y-15246690D01*
X7455119Y-15265738D01*
X7455119Y-15322881D01*
X7445595Y-15341928D01*
X7436071Y-15351452D01*
X7417024Y-15360976D01*
X7388452Y-15360976D01*
X7569405Y-15360976D02*
X7550357Y-15351452D01*
X7540833Y-15332405D01*
X7540833Y-15160976D01*
X7721786Y-15351452D02*
X7702738Y-15360976D01*
X7664643Y-15360976D01*
X7645595Y-15351452D01*
X7636071Y-15332405D01*
X7636071Y-15256214D01*
X7645595Y-15237167D01*
X7664643Y-15227643D01*
X7702738Y-15227643D01*
X7721786Y-15237167D01*
X7731309Y-15256214D01*
X7731309Y-15275262D01*
X7636071Y-15294309D01*
X7807500Y-15351452D02*
X7826548Y-15360976D01*
X7864643Y-15360976D01*
X7883690Y-15351452D01*
X7893214Y-15332405D01*
X7893214Y-15322881D01*
X7883690Y-15303833D01*
X7864643Y-15294309D01*
X7836071Y-15294309D01*
X7817024Y-15284786D01*
X7807500Y-15265738D01*
X7807500Y-15256214D01*
X7817024Y-15237167D01*
X7836071Y-15227643D01*
X7864643Y-15227643D01*
X7883690Y-15237167D01*
X8131309Y-15284786D02*
X8283690Y-15284786D01*
X8207500Y-15360976D02*
X8207500Y-15208595D01*
X8521786Y-15180024D02*
X8531310Y-15170500D01*
X8550357Y-15160976D01*
X8597976Y-15160976D01*
X8617024Y-15170500D01*
X8626548Y-15180024D01*
X8636071Y-15199071D01*
X8636071Y-15218119D01*
X8626548Y-15246690D01*
X8512262Y-15360976D01*
X8636071Y-15360976D01*
X8807500Y-15227643D02*
X8807500Y-15360976D01*
X8759881Y-15151452D02*
X8712262Y-15294309D01*
X8836071Y-15294309D01*
X9055119Y-15351452D02*
X9074167Y-15360976D01*
X9112262Y-15360976D01*
X9131310Y-15351452D01*
X9140833Y-15332405D01*
X9140833Y-15322881D01*
X9131310Y-15303833D01*
X9112262Y-15294309D01*
X9083690Y-15294309D01*
X9064643Y-15284786D01*
X9055119Y-15265738D01*
X9055119Y-15256214D01*
X9064643Y-15237167D01*
X9083690Y-15227643D01*
X9112262Y-15227643D01*
X9131310Y-15237167D01*
X9255119Y-15360976D02*
X9236071Y-15351452D01*
X9226548Y-15332405D01*
X9226548Y-15160976D01*
X9359881Y-15360976D02*
X9340833Y-15351452D01*
X9331310Y-15341928D01*
X9321786Y-15322881D01*
X9321786Y-15265738D01*
X9331310Y-15246690D01*
X9340833Y-15237167D01*
X9359881Y-15227643D01*
X9388452Y-15227643D01*
X9407500Y-15237167D01*
X9417024Y-15246690D01*
X9426548Y-15265738D01*
X9426548Y-15322881D01*
X9417024Y-15341928D01*
X9407500Y-15351452D01*
X9388452Y-15360976D01*
X9359881Y-15360976D01*
X9483690Y-15227643D02*
X9559881Y-15227643D01*
X9512262Y-15160976D02*
X9512262Y-15332405D01*
X9521786Y-15351452D01*
X9540833Y-15360976D01*
X9559881Y-15360976D01*
X9617024Y-15351452D02*
X9636071Y-15360976D01*
X9674167Y-15360976D01*
X9693214Y-15351452D01*
X9702738Y-15332405D01*
X9702738Y-15322881D01*
X9693214Y-15303833D01*
X9674167Y-15294309D01*
X9645595Y-15294309D01*
X9626548Y-15284786D01*
X9617024Y-15265738D01*
X9617024Y-15256214D01*
X9626548Y-15237167D01*
X9645595Y-15227643D01*
X9674167Y-15227643D01*
X9693214Y-15237167D01*
X9769405Y-15437167D02*
X9778929Y-15427643D01*
X9797976Y-15399071D01*
X9807500Y-15380024D01*
X9817024Y-15351452D01*
X9826548Y-15303833D01*
X9826548Y-15265738D01*
X9817024Y-15218119D01*
X9807500Y-15189548D01*
X9797976Y-15170500D01*
X9778929Y-15141928D01*
X9769405Y-15132405D01*
D15*
X2979634Y-15577634D02*
X2979634Y-15491366D01*
X2893366Y-15491366D01*
X2893366Y-15577634D01*
X2979634Y-15577634D01*
D11*
X3359881Y-15624976D02*
X3245595Y-15624976D01*
X3302738Y-15624976D02*
X3302738Y-15424976D01*
X3283690Y-15453548D01*
X3264643Y-15472595D01*
X3245595Y-15482119D01*
X3445595Y-15605928D02*
X3455119Y-15615452D01*
X3445595Y-15624976D01*
X3436071Y-15615452D01*
X3445595Y-15605928D01*
X3445595Y-15624976D01*
X3531309Y-15444024D02*
X3540833Y-15434500D01*
X3559881Y-15424976D01*
X3607500Y-15424976D01*
X3626548Y-15434500D01*
X3636071Y-15444024D01*
X3645595Y-15463071D01*
X3645595Y-15482119D01*
X3636071Y-15510690D01*
X3521786Y-15624976D01*
X3645595Y-15624976D01*
X3721786Y-15444024D02*
X3731309Y-15434500D01*
X3750357Y-15424976D01*
X3797976Y-15424976D01*
X3817024Y-15434500D01*
X3826548Y-15444024D01*
X3836071Y-15463071D01*
X3836071Y-15482119D01*
X3826548Y-15510690D01*
X3712262Y-15624976D01*
X3836071Y-15624976D01*
X3959881Y-15424976D02*
X3978928Y-15424976D01*
X3997976Y-15434500D01*
X4007500Y-15444024D01*
X4017024Y-15463071D01*
X4026548Y-15501167D01*
X4026548Y-15548786D01*
X4017024Y-15586881D01*
X4007500Y-15605928D01*
X3997976Y-15615452D01*
X3978928Y-15624976D01*
X3959881Y-15624976D01*
X3940833Y-15615452D01*
X3931309Y-15605928D01*
X3921786Y-15586881D01*
X3912262Y-15548786D01*
X3912262Y-15501167D01*
X3921786Y-15463071D01*
X3931309Y-15444024D01*
X3940833Y-15434500D01*
X3959881Y-15424976D01*
X4112262Y-15624976D02*
X4112262Y-15491643D01*
X4112262Y-15510690D02*
X4121786Y-15501167D01*
X4140833Y-15491643D01*
X4169405Y-15491643D01*
X4188452Y-15501167D01*
X4197976Y-15520214D01*
X4197976Y-15624976D01*
X4197976Y-15520214D02*
X4207500Y-15501167D01*
X4226548Y-15491643D01*
X4255119Y-15491643D01*
X4274167Y-15501167D01*
X4283690Y-15520214D01*
X4283690Y-15624976D01*
X4378929Y-15624976D02*
X4378929Y-15491643D01*
X4378929Y-15510690D02*
X4388452Y-15501167D01*
X4407500Y-15491643D01*
X4436071Y-15491643D01*
X4455119Y-15501167D01*
X4464643Y-15520214D01*
X4464643Y-15624976D01*
X4464643Y-15520214D02*
X4474167Y-15501167D01*
X4493214Y-15491643D01*
X4521786Y-15491643D01*
X4540833Y-15501167D01*
X4550357Y-15520214D01*
X4550357Y-15624976D01*
X4940833Y-15415452D02*
X4769405Y-15672595D01*
X5197976Y-15424976D02*
X5217024Y-15424976D01*
X5236071Y-15434500D01*
X5245595Y-15444024D01*
X5255119Y-15463071D01*
X5264643Y-15501167D01*
X5264643Y-15548786D01*
X5255119Y-15586881D01*
X5245595Y-15605928D01*
X5236071Y-15615452D01*
X5217024Y-15624976D01*
X5197976Y-15624976D01*
X5178929Y-15615452D01*
X5169405Y-15605928D01*
X5159881Y-15586881D01*
X5150357Y-15548786D01*
X5150357Y-15501167D01*
X5159881Y-15463071D01*
X5169405Y-15444024D01*
X5178929Y-15434500D01*
X5197976Y-15424976D01*
X5350357Y-15605928D02*
X5359881Y-15615452D01*
X5350357Y-15624976D01*
X5340833Y-15615452D01*
X5350357Y-15605928D01*
X5350357Y-15624976D01*
X5483690Y-15424976D02*
X5502738Y-15424976D01*
X5521786Y-15434500D01*
X5531310Y-15444024D01*
X5540833Y-15463071D01*
X5550357Y-15501167D01*
X5550357Y-15548786D01*
X5540833Y-15586881D01*
X5531310Y-15605928D01*
X5521786Y-15615452D01*
X5502738Y-15624976D01*
X5483690Y-15624976D01*
X5464643Y-15615452D01*
X5455119Y-15605928D01*
X5445595Y-15586881D01*
X5436071Y-15548786D01*
X5436071Y-15501167D01*
X5445595Y-15463071D01*
X5455119Y-15444024D01*
X5464643Y-15434500D01*
X5483690Y-15424976D01*
X5721786Y-15491643D02*
X5721786Y-15624976D01*
X5674167Y-15415452D02*
X5626548Y-15558309D01*
X5750357Y-15558309D01*
X5855119Y-15510690D02*
X5836071Y-15501167D01*
X5826548Y-15491643D01*
X5817024Y-15472595D01*
X5817024Y-15463071D01*
X5826548Y-15444024D01*
X5836071Y-15434500D01*
X5855119Y-15424976D01*
X5893214Y-15424976D01*
X5912262Y-15434500D01*
X5921786Y-15444024D01*
X5931309Y-15463071D01*
X5931309Y-15472595D01*
X5921786Y-15491643D01*
X5912262Y-15501167D01*
X5893214Y-15510690D01*
X5855119Y-15510690D01*
X5836071Y-15520214D01*
X5826548Y-15529738D01*
X5817024Y-15548786D01*
X5817024Y-15586881D01*
X5826548Y-15605928D01*
X5836071Y-15615452D01*
X5855119Y-15624976D01*
X5893214Y-15624976D01*
X5912262Y-15615452D01*
X5921786Y-15605928D01*
X5931309Y-15586881D01*
X5931309Y-15548786D01*
X5921786Y-15529738D01*
X5912262Y-15520214D01*
X5893214Y-15510690D01*
X6055119Y-15424976D02*
X6074167Y-15424976D01*
X6093214Y-15434500D01*
X6102738Y-15444024D01*
X6112262Y-15463071D01*
X6121786Y-15501167D01*
X6121786Y-15548786D01*
X6112262Y-15586881D01*
X6102738Y-15605928D01*
X6093214Y-15615452D01*
X6074167Y-15624976D01*
X6055119Y-15624976D01*
X6036071Y-15615452D01*
X6026548Y-15605928D01*
X6017024Y-15586881D01*
X6007500Y-15548786D01*
X6007500Y-15501167D01*
X6017024Y-15463071D01*
X6026548Y-15444024D01*
X6036071Y-15434500D01*
X6055119Y-15424976D01*
X6197976Y-15424976D02*
X6197976Y-15463071D01*
X6274167Y-15424976D02*
X6274167Y-15463071D01*
X6569405Y-15701167D02*
X6559881Y-15691643D01*
X6540833Y-15663071D01*
X6531309Y-15644024D01*
X6521786Y-15615452D01*
X6512262Y-15567833D01*
X6512262Y-15529738D01*
X6521786Y-15482119D01*
X6531309Y-15453548D01*
X6540833Y-15434500D01*
X6559881Y-15405928D01*
X6569405Y-15396405D01*
X6731309Y-15424976D02*
X6693214Y-15424976D01*
X6674167Y-15434500D01*
X6664643Y-15444024D01*
X6645595Y-15472595D01*
X6636071Y-15510690D01*
X6636071Y-15586881D01*
X6645595Y-15605928D01*
X6655119Y-15615452D01*
X6674167Y-15624976D01*
X6712262Y-15624976D01*
X6731309Y-15615452D01*
X6740833Y-15605928D01*
X6750357Y-15586881D01*
X6750357Y-15539262D01*
X6740833Y-15520214D01*
X6731309Y-15510690D01*
X6712262Y-15501167D01*
X6674167Y-15501167D01*
X6655119Y-15510690D01*
X6645595Y-15520214D01*
X6636071Y-15539262D01*
X6988452Y-15624976D02*
X6988452Y-15424976D01*
X7074167Y-15624976D02*
X7074167Y-15520214D01*
X7064643Y-15501167D01*
X7045595Y-15491643D01*
X7017024Y-15491643D01*
X6997976Y-15501167D01*
X6988452Y-15510690D01*
X7197976Y-15624976D02*
X7178928Y-15615452D01*
X7169405Y-15605928D01*
X7159881Y-15586881D01*
X7159881Y-15529738D01*
X7169405Y-15510690D01*
X7178928Y-15501167D01*
X7197976Y-15491643D01*
X7226548Y-15491643D01*
X7245595Y-15501167D01*
X7255119Y-15510690D01*
X7264643Y-15529738D01*
X7264643Y-15586881D01*
X7255119Y-15605928D01*
X7245595Y-15615452D01*
X7226548Y-15624976D01*
X7197976Y-15624976D01*
X7378928Y-15624976D02*
X7359881Y-15615452D01*
X7350357Y-15596405D01*
X7350357Y-15424976D01*
X7531309Y-15615452D02*
X7512262Y-15624976D01*
X7474167Y-15624976D01*
X7455119Y-15615452D01*
X7445595Y-15596405D01*
X7445595Y-15520214D01*
X7455119Y-15501167D01*
X7474167Y-15491643D01*
X7512262Y-15491643D01*
X7531309Y-15501167D01*
X7540833Y-15520214D01*
X7540833Y-15539262D01*
X7445595Y-15558309D01*
X7617024Y-15615452D02*
X7636071Y-15624976D01*
X7674167Y-15624976D01*
X7693214Y-15615452D01*
X7702738Y-15596405D01*
X7702738Y-15586881D01*
X7693214Y-15567833D01*
X7674167Y-15558309D01*
X7645595Y-15558309D01*
X7626548Y-15548786D01*
X7617024Y-15529738D01*
X7617024Y-15520214D01*
X7626548Y-15501167D01*
X7645595Y-15491643D01*
X7674167Y-15491643D01*
X7693214Y-15501167D01*
X7769405Y-15701167D02*
X7778928Y-15691643D01*
X7797976Y-15663071D01*
X7807500Y-15644024D01*
X7817024Y-15615452D01*
X7826548Y-15567833D01*
X7826548Y-15529738D01*
X7817024Y-15482119D01*
X7807500Y-15453548D01*
X7797976Y-15434500D01*
X7778928Y-15405928D01*
X7769405Y-15396405D01*
D16*
X2926500Y-15869500D02*
X2997500Y-15798500D01*
X2926500Y-15727500D01*
X2855500Y-15798500D01*
X2926500Y-15869500D01*
D11*
X3359881Y-15888976D02*
X3245595Y-15888976D01*
X3302738Y-15888976D02*
X3302738Y-15688976D01*
X3283690Y-15717548D01*
X3264643Y-15736595D01*
X3245595Y-15746119D01*
X3445595Y-15869928D02*
X3455119Y-15879452D01*
X3445595Y-15888976D01*
X3436071Y-15879452D01*
X3445595Y-15869928D01*
X3445595Y-15888976D01*
X3626548Y-15755643D02*
X3626548Y-15888976D01*
X3578928Y-15679452D02*
X3531309Y-15822309D01*
X3655119Y-15822309D01*
X3721786Y-15708024D02*
X3731309Y-15698500D01*
X3750357Y-15688976D01*
X3797976Y-15688976D01*
X3817024Y-15698500D01*
X3826548Y-15708024D01*
X3836071Y-15727071D01*
X3836071Y-15746119D01*
X3826548Y-15774690D01*
X3712262Y-15888976D01*
X3836071Y-15888976D01*
X3959881Y-15688976D02*
X3978928Y-15688976D01*
X3997976Y-15698500D01*
X4007500Y-15708024D01*
X4017024Y-15727071D01*
X4026548Y-15765167D01*
X4026548Y-15812786D01*
X4017024Y-15850881D01*
X4007500Y-15869928D01*
X3997976Y-15879452D01*
X3978928Y-15888976D01*
X3959881Y-15888976D01*
X3940833Y-15879452D01*
X3931309Y-15869928D01*
X3921786Y-15850881D01*
X3912262Y-15812786D01*
X3912262Y-15765167D01*
X3921786Y-15727071D01*
X3931309Y-15708024D01*
X3940833Y-15698500D01*
X3959881Y-15688976D01*
X4112262Y-15888976D02*
X4112262Y-15755643D01*
X4112262Y-15774690D02*
X4121786Y-15765167D01*
X4140833Y-15755643D01*
X4169405Y-15755643D01*
X4188452Y-15765167D01*
X4197976Y-15784214D01*
X4197976Y-15888976D01*
X4197976Y-15784214D02*
X4207500Y-15765167D01*
X4226548Y-15755643D01*
X4255119Y-15755643D01*
X4274167Y-15765167D01*
X4283690Y-15784214D01*
X4283690Y-15888976D01*
X4378929Y-15888976D02*
X4378929Y-15755643D01*
X4378929Y-15774690D02*
X4388452Y-15765167D01*
X4407500Y-15755643D01*
X4436071Y-15755643D01*
X4455119Y-15765167D01*
X4464643Y-15784214D01*
X4464643Y-15888976D01*
X4464643Y-15784214D02*
X4474167Y-15765167D01*
X4493214Y-15755643D01*
X4521786Y-15755643D01*
X4540833Y-15765167D01*
X4550357Y-15784214D01*
X4550357Y-15888976D01*
X4940833Y-15679452D02*
X4769405Y-15936595D01*
X5197976Y-15688976D02*
X5217024Y-15688976D01*
X5236071Y-15698500D01*
X5245595Y-15708024D01*
X5255119Y-15727071D01*
X5264643Y-15765167D01*
X5264643Y-15812786D01*
X5255119Y-15850881D01*
X5245595Y-15869928D01*
X5236071Y-15879452D01*
X5217024Y-15888976D01*
X5197976Y-15888976D01*
X5178929Y-15879452D01*
X5169405Y-15869928D01*
X5159881Y-15850881D01*
X5150357Y-15812786D01*
X5150357Y-15765167D01*
X5159881Y-15727071D01*
X5169405Y-15708024D01*
X5178929Y-15698500D01*
X5197976Y-15688976D01*
X5350357Y-15869928D02*
X5359881Y-15879452D01*
X5350357Y-15888976D01*
X5340833Y-15879452D01*
X5350357Y-15869928D01*
X5350357Y-15888976D01*
X5483690Y-15688976D02*
X5502738Y-15688976D01*
X5521786Y-15698500D01*
X5531310Y-15708024D01*
X5540833Y-15727071D01*
X5550357Y-15765167D01*
X5550357Y-15812786D01*
X5540833Y-15850881D01*
X5531310Y-15869928D01*
X5521786Y-15879452D01*
X5502738Y-15888976D01*
X5483690Y-15888976D01*
X5464643Y-15879452D01*
X5455119Y-15869928D01*
X5445595Y-15850881D01*
X5436071Y-15812786D01*
X5436071Y-15765167D01*
X5445595Y-15727071D01*
X5455119Y-15708024D01*
X5464643Y-15698500D01*
X5483690Y-15688976D01*
X5731309Y-15688976D02*
X5636071Y-15688976D01*
X5626548Y-15784214D01*
X5636071Y-15774690D01*
X5655119Y-15765167D01*
X5702738Y-15765167D01*
X5721786Y-15774690D01*
X5731309Y-15784214D01*
X5740833Y-15803262D01*
X5740833Y-15850881D01*
X5731309Y-15869928D01*
X5721786Y-15879452D01*
X5702738Y-15888976D01*
X5655119Y-15888976D01*
X5636071Y-15879452D01*
X5626548Y-15869928D01*
X5921786Y-15688976D02*
X5826548Y-15688976D01*
X5817024Y-15784214D01*
X5826548Y-15774690D01*
X5845595Y-15765167D01*
X5893214Y-15765167D01*
X5912262Y-15774690D01*
X5921786Y-15784214D01*
X5931309Y-15803262D01*
X5931309Y-15850881D01*
X5921786Y-15869928D01*
X5912262Y-15879452D01*
X5893214Y-15888976D01*
X5845595Y-15888976D01*
X5826548Y-15879452D01*
X5817024Y-15869928D01*
X6026548Y-15888976D02*
X6064643Y-15888976D01*
X6083690Y-15879452D01*
X6093214Y-15869928D01*
X6112262Y-15841357D01*
X6121786Y-15803262D01*
X6121786Y-15727071D01*
X6112262Y-15708024D01*
X6102738Y-15698500D01*
X6083690Y-15688976D01*
X6045595Y-15688976D01*
X6026548Y-15698500D01*
X6017024Y-15708024D01*
X6007500Y-15727071D01*
X6007500Y-15774690D01*
X6017024Y-15793738D01*
X6026548Y-15803262D01*
X6045595Y-15812786D01*
X6083690Y-15812786D01*
X6102738Y-15803262D01*
X6112262Y-15793738D01*
X6121786Y-15774690D01*
X6197976Y-15688976D02*
X6197976Y-15727071D01*
X6274167Y-15688976D02*
X6274167Y-15727071D01*
X6569405Y-15965167D02*
X6559881Y-15955643D01*
X6540833Y-15927071D01*
X6531309Y-15908024D01*
X6521786Y-15879452D01*
X6512262Y-15831833D01*
X6512262Y-15793738D01*
X6521786Y-15746119D01*
X6531309Y-15717548D01*
X6540833Y-15698500D01*
X6559881Y-15669928D01*
X6569405Y-15660405D01*
X6731309Y-15688976D02*
X6693214Y-15688976D01*
X6674167Y-15698500D01*
X6664643Y-15708024D01*
X6645595Y-15736595D01*
X6636071Y-15774690D01*
X6636071Y-15850881D01*
X6645595Y-15869928D01*
X6655119Y-15879452D01*
X6674167Y-15888976D01*
X6712262Y-15888976D01*
X6731309Y-15879452D01*
X6740833Y-15869928D01*
X6750357Y-15850881D01*
X6750357Y-15803262D01*
X6740833Y-15784214D01*
X6731309Y-15774690D01*
X6712262Y-15765167D01*
X6674167Y-15765167D01*
X6655119Y-15774690D01*
X6645595Y-15784214D01*
X6636071Y-15803262D01*
X6988452Y-15888976D02*
X6988452Y-15688976D01*
X7074167Y-15888976D02*
X7074167Y-15784214D01*
X7064643Y-15765167D01*
X7045595Y-15755643D01*
X7017024Y-15755643D01*
X6997976Y-15765167D01*
X6988452Y-15774690D01*
X7197976Y-15888976D02*
X7178928Y-15879452D01*
X7169405Y-15869928D01*
X7159881Y-15850881D01*
X7159881Y-15793738D01*
X7169405Y-15774690D01*
X7178928Y-15765167D01*
X7197976Y-15755643D01*
X7226548Y-15755643D01*
X7245595Y-15765167D01*
X7255119Y-15774690D01*
X7264643Y-15793738D01*
X7264643Y-15850881D01*
X7255119Y-15869928D01*
X7245595Y-15879452D01*
X7226548Y-15888976D01*
X7197976Y-15888976D01*
X7378928Y-15888976D02*
X7359881Y-15879452D01*
X7350357Y-15860405D01*
X7350357Y-15688976D01*
X7531309Y-15879452D02*
X7512262Y-15888976D01*
X7474167Y-15888976D01*
X7455119Y-15879452D01*
X7445595Y-15860405D01*
X7445595Y-15784214D01*
X7455119Y-15765167D01*
X7474167Y-15755643D01*
X7512262Y-15755643D01*
X7531309Y-15765167D01*
X7540833Y-15784214D01*
X7540833Y-15803262D01*
X7445595Y-15822309D01*
X7617024Y-15879452D02*
X7636071Y-15888976D01*
X7674167Y-15888976D01*
X7693214Y-15879452D01*
X7702738Y-15860405D01*
X7702738Y-15850881D01*
X7693214Y-15831833D01*
X7674167Y-15822309D01*
X7645595Y-15822309D01*
X7626548Y-15812786D01*
X7617024Y-15793738D01*
X7617024Y-15784214D01*
X7626548Y-15765167D01*
X7645595Y-15755643D01*
X7674167Y-15755643D01*
X7693214Y-15765167D01*
X7769405Y-15965167D02*
X7778928Y-15955643D01*
X7797976Y-15927071D01*
X7807500Y-15908024D01*
X7817024Y-15879452D01*
X7826548Y-15831833D01*
X7826548Y-15793738D01*
X7817024Y-15746119D01*
X7807500Y-15717548D01*
X7797976Y-15698500D01*
X7778928Y-15669928D01*
X7769405Y-15660405D01*
D17*
X2854500Y-15991000D02*
X2997500Y-16134000D01*
X2997500Y-15991000D02*
X2854500Y-16134000D01*
X2997500Y-16062500D02*
G75*
G03*
X2997500Y-16062500I-71500J0D01*
G01*
D11*
X3359881Y-16152976D02*
X3245595Y-16152976D01*
X3302738Y-16152976D02*
X3302738Y-15952976D01*
X3283690Y-15981548D01*
X3264643Y-16000595D01*
X3245595Y-16010119D01*
X3445595Y-16133928D02*
X3455119Y-16143452D01*
X3445595Y-16152976D01*
X3436071Y-16143452D01*
X3445595Y-16133928D01*
X3445595Y-16152976D01*
X3626548Y-16019643D02*
X3626548Y-16152976D01*
X3578928Y-15943452D02*
X3531309Y-16086309D01*
X3655119Y-16086309D01*
X3712262Y-15952976D02*
X3836071Y-15952976D01*
X3769405Y-16029167D01*
X3797976Y-16029167D01*
X3817024Y-16038690D01*
X3826548Y-16048214D01*
X3836071Y-16067262D01*
X3836071Y-16114881D01*
X3826548Y-16133928D01*
X3817024Y-16143452D01*
X3797976Y-16152976D01*
X3740833Y-16152976D01*
X3721786Y-16143452D01*
X3712262Y-16133928D01*
X3959881Y-15952976D02*
X3978928Y-15952976D01*
X3997976Y-15962500D01*
X4007500Y-15972024D01*
X4017024Y-15991071D01*
X4026548Y-16029167D01*
X4026548Y-16076786D01*
X4017024Y-16114881D01*
X4007500Y-16133928D01*
X3997976Y-16143452D01*
X3978928Y-16152976D01*
X3959881Y-16152976D01*
X3940833Y-16143452D01*
X3931309Y-16133928D01*
X3921786Y-16114881D01*
X3912262Y-16076786D01*
X3912262Y-16029167D01*
X3921786Y-15991071D01*
X3931309Y-15972024D01*
X3940833Y-15962500D01*
X3959881Y-15952976D01*
X4112262Y-16152976D02*
X4112262Y-16019643D01*
X4112262Y-16038690D02*
X4121786Y-16029167D01*
X4140833Y-16019643D01*
X4169405Y-16019643D01*
X4188452Y-16029167D01*
X4197976Y-16048214D01*
X4197976Y-16152976D01*
X4197976Y-16048214D02*
X4207500Y-16029167D01*
X4226548Y-16019643D01*
X4255119Y-16019643D01*
X4274167Y-16029167D01*
X4283690Y-16048214D01*
X4283690Y-16152976D01*
X4378929Y-16152976D02*
X4378929Y-16019643D01*
X4378929Y-16038690D02*
X4388452Y-16029167D01*
X4407500Y-16019643D01*
X4436071Y-16019643D01*
X4455119Y-16029167D01*
X4464643Y-16048214D01*
X4464643Y-16152976D01*
X4464643Y-16048214D02*
X4474167Y-16029167D01*
X4493214Y-16019643D01*
X4521786Y-16019643D01*
X4540833Y-16029167D01*
X4550357Y-16048214D01*
X4550357Y-16152976D01*
X4940833Y-15943452D02*
X4769405Y-16200595D01*
X5197976Y-15952976D02*
X5217024Y-15952976D01*
X5236071Y-15962500D01*
X5245595Y-15972024D01*
X5255119Y-15991071D01*
X5264643Y-16029167D01*
X5264643Y-16076786D01*
X5255119Y-16114881D01*
X5245595Y-16133928D01*
X5236071Y-16143452D01*
X5217024Y-16152976D01*
X5197976Y-16152976D01*
X5178929Y-16143452D01*
X5169405Y-16133928D01*
X5159881Y-16114881D01*
X5150357Y-16076786D01*
X5150357Y-16029167D01*
X5159881Y-15991071D01*
X5169405Y-15972024D01*
X5178929Y-15962500D01*
X5197976Y-15952976D01*
X5350357Y-16133928D02*
X5359881Y-16143452D01*
X5350357Y-16152976D01*
X5340833Y-16143452D01*
X5350357Y-16133928D01*
X5350357Y-16152976D01*
X5483690Y-15952976D02*
X5502738Y-15952976D01*
X5521786Y-15962500D01*
X5531310Y-15972024D01*
X5540833Y-15991071D01*
X5550357Y-16029167D01*
X5550357Y-16076786D01*
X5540833Y-16114881D01*
X5531310Y-16133928D01*
X5521786Y-16143452D01*
X5502738Y-16152976D01*
X5483690Y-16152976D01*
X5464643Y-16143452D01*
X5455119Y-16133928D01*
X5445595Y-16114881D01*
X5436071Y-16076786D01*
X5436071Y-16029167D01*
X5445595Y-15991071D01*
X5455119Y-15972024D01*
X5464643Y-15962500D01*
X5483690Y-15952976D01*
X5731309Y-15952976D02*
X5636071Y-15952976D01*
X5626548Y-16048214D01*
X5636071Y-16038690D01*
X5655119Y-16029167D01*
X5702738Y-16029167D01*
X5721786Y-16038690D01*
X5731309Y-16048214D01*
X5740833Y-16067262D01*
X5740833Y-16114881D01*
X5731309Y-16133928D01*
X5721786Y-16143452D01*
X5702738Y-16152976D01*
X5655119Y-16152976D01*
X5636071Y-16143452D01*
X5626548Y-16133928D01*
X5912262Y-15952976D02*
X5874167Y-15952976D01*
X5855119Y-15962500D01*
X5845595Y-15972024D01*
X5826548Y-16000595D01*
X5817024Y-16038690D01*
X5817024Y-16114881D01*
X5826548Y-16133928D01*
X5836071Y-16143452D01*
X5855119Y-16152976D01*
X5893214Y-16152976D01*
X5912262Y-16143452D01*
X5921786Y-16133928D01*
X5931309Y-16114881D01*
X5931309Y-16067262D01*
X5921786Y-16048214D01*
X5912262Y-16038690D01*
X5893214Y-16029167D01*
X5855119Y-16029167D01*
X5836071Y-16038690D01*
X5826548Y-16048214D01*
X5817024Y-16067262D01*
X5997976Y-15952976D02*
X6121786Y-15952976D01*
X6055119Y-16029167D01*
X6083690Y-16029167D01*
X6102738Y-16038690D01*
X6112262Y-16048214D01*
X6121786Y-16067262D01*
X6121786Y-16114881D01*
X6112262Y-16133928D01*
X6102738Y-16143452D01*
X6083690Y-16152976D01*
X6026548Y-16152976D01*
X6007500Y-16143452D01*
X5997976Y-16133928D01*
X6197976Y-15952976D02*
X6197976Y-15991071D01*
X6274167Y-15952976D02*
X6274167Y-15991071D01*
X6569405Y-16229167D02*
X6559881Y-16219643D01*
X6540833Y-16191071D01*
X6531309Y-16172024D01*
X6521786Y-16143452D01*
X6512262Y-16095833D01*
X6512262Y-16057738D01*
X6521786Y-16010119D01*
X6531309Y-15981548D01*
X6540833Y-15962500D01*
X6559881Y-15933928D01*
X6569405Y-15924405D01*
X6731309Y-15952976D02*
X6693214Y-15952976D01*
X6674167Y-15962500D01*
X6664643Y-15972024D01*
X6645595Y-16000595D01*
X6636071Y-16038690D01*
X6636071Y-16114881D01*
X6645595Y-16133928D01*
X6655119Y-16143452D01*
X6674167Y-16152976D01*
X6712262Y-16152976D01*
X6731309Y-16143452D01*
X6740833Y-16133928D01*
X6750357Y-16114881D01*
X6750357Y-16067262D01*
X6740833Y-16048214D01*
X6731309Y-16038690D01*
X6712262Y-16029167D01*
X6674167Y-16029167D01*
X6655119Y-16038690D01*
X6645595Y-16048214D01*
X6636071Y-16067262D01*
X6988452Y-16152976D02*
X6988452Y-15952976D01*
X7074167Y-16152976D02*
X7074167Y-16048214D01*
X7064643Y-16029167D01*
X7045595Y-16019643D01*
X7017024Y-16019643D01*
X6997976Y-16029167D01*
X6988452Y-16038690D01*
X7197976Y-16152976D02*
X7178928Y-16143452D01*
X7169405Y-16133928D01*
X7159881Y-16114881D01*
X7159881Y-16057738D01*
X7169405Y-16038690D01*
X7178928Y-16029167D01*
X7197976Y-16019643D01*
X7226548Y-16019643D01*
X7245595Y-16029167D01*
X7255119Y-16038690D01*
X7264643Y-16057738D01*
X7264643Y-16114881D01*
X7255119Y-16133928D01*
X7245595Y-16143452D01*
X7226548Y-16152976D01*
X7197976Y-16152976D01*
X7378928Y-16152976D02*
X7359881Y-16143452D01*
X7350357Y-16124405D01*
X7350357Y-15952976D01*
X7531309Y-16143452D02*
X7512262Y-16152976D01*
X7474167Y-16152976D01*
X7455119Y-16143452D01*
X7445595Y-16124405D01*
X7445595Y-16048214D01*
X7455119Y-16029167D01*
X7474167Y-16019643D01*
X7512262Y-16019643D01*
X7531309Y-16029167D01*
X7540833Y-16048214D01*
X7540833Y-16067262D01*
X7445595Y-16086309D01*
X7617024Y-16143452D02*
X7636071Y-16152976D01*
X7674167Y-16152976D01*
X7693214Y-16143452D01*
X7702738Y-16124405D01*
X7702738Y-16114881D01*
X7693214Y-16095833D01*
X7674167Y-16086309D01*
X7645595Y-16086309D01*
X7626548Y-16076786D01*
X7617024Y-16057738D01*
X7617024Y-16048214D01*
X7626548Y-16029167D01*
X7645595Y-16019643D01*
X7674167Y-16019643D01*
X7693214Y-16029167D01*
X7769405Y-16229167D02*
X7778928Y-16219643D01*
X7797976Y-16191071D01*
X7807500Y-16172024D01*
X7817024Y-16143452D01*
X7826548Y-16095833D01*
X7826548Y-16057738D01*
X7817024Y-16010119D01*
X7807500Y-15981548D01*
X7797976Y-15962500D01*
X7778928Y-15933928D01*
X7769405Y-15924405D01*
M02*
