%FSLAX45Y45*%
G04 Gerber Fmt 4.5, Leading zero omitted, Abs format (unit mm)*
G04 Created by KiCad (PCBNEW (6.0.1)) date 2022-09-12 08:12:13*
%MOMM*%
%LPD*%
G01*
G04 APERTURE LIST*
%TA.AperFunction,Profile*%
%ADD10C,0.050000*%
%TD*%
%ADD11C,0.200000*%
%ADD12C,0.300000*%
%ADD13C,0.620000*%
G04 APERTURE END LIST*
D10*
X8950000Y-15550000D02*
X7450000Y-15550000D01*
X7450000Y-2750000D02*
X7450000Y-15550000D01*
X8950000Y-2750000D02*
X8950000Y-15550000D01*
X7450000Y-2750000D02*
X8950000Y-2750000D01*
D11*
D12*
X8050000Y-2900000D02*
X8350000Y-3200000D01*
X8350000Y-2900000D02*
X8050000Y-3200000D01*
D11*
X8075000Y-3190000D02*
X8325000Y-3190000D01*
X8075000Y-2910000D02*
X8325000Y-2910000D01*
X8325000Y-3190000D02*
G75*
G03*
X8325000Y-2910000I0J140000D01*
G01*
X8075000Y-2910000D02*
G75*
G03*
X8075000Y-3190000I0J-140000D01*
G01*
D12*
X8050000Y-15100000D02*
X8350000Y-15400000D01*
X8350000Y-15100000D02*
X8050000Y-15400000D01*
D11*
X8075000Y-15390000D02*
X8325000Y-15390000D01*
X8075000Y-15110000D02*
X8325000Y-15110000D01*
X8325000Y-15390000D02*
G75*
G03*
X8325000Y-15110000I0J140000D01*
G01*
X8075000Y-15110000D02*
G75*
G03*
X8075000Y-15390000I0J-140000D01*
G01*
D13*
X8510000Y-4200000D02*
G75*
G03*
X8510000Y-4200000I-310000J0D01*
G01*
X8510000Y-5200000D02*
G75*
G03*
X8510000Y-5200000I-310000J0D01*
G01*
X8510000Y-6200000D02*
G75*
G03*
X8510000Y-6200000I-310000J0D01*
G01*
X8510000Y-7400000D02*
G75*
G03*
X8510000Y-7400000I-310000J0D01*
G01*
X8510000Y-8400000D02*
G75*
G03*
X8510000Y-8400000I-310000J0D01*
G01*
X8510000Y-9400000D02*
G75*
G03*
X8510000Y-9400000I-310000J0D01*
G01*
X8510000Y-10600000D02*
G75*
G03*
X8510000Y-10600000I-310000J0D01*
G01*
X8510000Y-11600000D02*
G75*
G03*
X8510000Y-11600000I-310000J0D01*
G01*
X8510000Y-12600000D02*
G75*
G03*
X8510000Y-12600000I-310000J0D01*
G01*
D11*
X7705119Y-15862976D02*
X7705119Y-15662976D01*
X7752738Y-15662976D01*
X7781309Y-15672500D01*
X7800357Y-15691548D01*
X7809881Y-15710595D01*
X7819405Y-15748690D01*
X7819405Y-15777262D01*
X7809881Y-15815357D01*
X7800357Y-15834405D01*
X7781309Y-15853452D01*
X7752738Y-15862976D01*
X7705119Y-15862976D01*
X7905119Y-15862976D02*
X7905119Y-15729643D01*
X7905119Y-15767738D02*
X7914643Y-15748690D01*
X7924167Y-15739167D01*
X7943214Y-15729643D01*
X7962262Y-15729643D01*
X8028928Y-15862976D02*
X8028928Y-15729643D01*
X8028928Y-15662976D02*
X8019405Y-15672500D01*
X8028928Y-15682024D01*
X8038452Y-15672500D01*
X8028928Y-15662976D01*
X8028928Y-15682024D01*
X8152738Y-15862976D02*
X8133690Y-15853452D01*
X8124167Y-15834405D01*
X8124167Y-15662976D01*
X8257500Y-15862976D02*
X8238452Y-15853452D01*
X8228928Y-15834405D01*
X8228928Y-15662976D01*
X8486071Y-15862976D02*
X8486071Y-15662976D01*
X8552738Y-15805833D01*
X8619405Y-15662976D01*
X8619405Y-15862976D01*
X8800357Y-15862976D02*
X8800357Y-15758214D01*
X8790833Y-15739167D01*
X8771786Y-15729643D01*
X8733690Y-15729643D01*
X8714643Y-15739167D01*
X8800357Y-15853452D02*
X8781310Y-15862976D01*
X8733690Y-15862976D01*
X8714643Y-15853452D01*
X8705119Y-15834405D01*
X8705119Y-15815357D01*
X8714643Y-15796309D01*
X8733690Y-15786786D01*
X8781310Y-15786786D01*
X8800357Y-15777262D01*
X8895595Y-15729643D02*
X8895595Y-15929643D01*
X8895595Y-15739167D02*
X8914643Y-15729643D01*
X8952738Y-15729643D01*
X8971786Y-15739167D01*
X8981310Y-15748690D01*
X8990833Y-15767738D01*
X8990833Y-15824881D01*
X8981310Y-15843928D01*
X8971786Y-15853452D01*
X8952738Y-15862976D01*
X8914643Y-15862976D01*
X8895595Y-15853452D01*
X9076548Y-15843928D02*
X9086071Y-15853452D01*
X9076548Y-15862976D01*
X9067024Y-15853452D01*
X9076548Y-15843928D01*
X9076548Y-15862976D01*
X9076548Y-15739167D02*
X9086071Y-15748690D01*
X9076548Y-15758214D01*
X9067024Y-15748690D01*
X9076548Y-15739167D01*
X9076548Y-15758214D01*
X7247500Y-16092500D02*
X7447500Y-16292500D01*
X7447500Y-16092500D02*
X7247500Y-16292500D01*
X7686071Y-16082976D02*
X7809881Y-16082976D01*
X7743214Y-16159167D01*
X7771786Y-16159167D01*
X7790833Y-16168690D01*
X7800357Y-16178214D01*
X7809881Y-16197262D01*
X7809881Y-16244881D01*
X7800357Y-16263928D01*
X7790833Y-16273452D01*
X7771786Y-16282976D01*
X7714643Y-16282976D01*
X7695595Y-16273452D01*
X7686071Y-16263928D01*
X7895595Y-16263928D02*
X7905119Y-16273452D01*
X7895595Y-16282976D01*
X7886071Y-16273452D01*
X7895595Y-16263928D01*
X7895595Y-16282976D01*
X8028928Y-16082976D02*
X8047976Y-16082976D01*
X8067024Y-16092500D01*
X8076548Y-16102024D01*
X8086071Y-16121071D01*
X8095595Y-16159167D01*
X8095595Y-16206786D01*
X8086071Y-16244881D01*
X8076548Y-16263928D01*
X8067024Y-16273452D01*
X8047976Y-16282976D01*
X8028928Y-16282976D01*
X8009881Y-16273452D01*
X8000357Y-16263928D01*
X7990833Y-16244881D01*
X7981309Y-16206786D01*
X7981309Y-16159167D01*
X7990833Y-16121071D01*
X8000357Y-16102024D01*
X8009881Y-16092500D01*
X8028928Y-16082976D01*
X8219405Y-16082976D02*
X8238452Y-16082976D01*
X8257500Y-16092500D01*
X8267024Y-16102024D01*
X8276548Y-16121071D01*
X8286071Y-16159167D01*
X8286071Y-16206786D01*
X8276548Y-16244881D01*
X8267024Y-16263928D01*
X8257500Y-16273452D01*
X8238452Y-16282976D01*
X8219405Y-16282976D01*
X8200357Y-16273452D01*
X8190833Y-16263928D01*
X8181309Y-16244881D01*
X8171786Y-16206786D01*
X8171786Y-16159167D01*
X8181309Y-16121071D01*
X8190833Y-16102024D01*
X8200357Y-16092500D01*
X8219405Y-16082976D01*
X8409881Y-16082976D02*
X8428929Y-16082976D01*
X8447976Y-16092500D01*
X8457500Y-16102024D01*
X8467024Y-16121071D01*
X8476548Y-16159167D01*
X8476548Y-16206786D01*
X8467024Y-16244881D01*
X8457500Y-16263928D01*
X8447976Y-16273452D01*
X8428929Y-16282976D01*
X8409881Y-16282976D01*
X8390833Y-16273452D01*
X8381309Y-16263928D01*
X8371786Y-16244881D01*
X8362262Y-16206786D01*
X8362262Y-16159167D01*
X8371786Y-16121071D01*
X8381309Y-16102024D01*
X8390833Y-16092500D01*
X8409881Y-16082976D01*
X8562262Y-16282976D02*
X8562262Y-16149643D01*
X8562262Y-16168690D02*
X8571786Y-16159167D01*
X8590833Y-16149643D01*
X8619405Y-16149643D01*
X8638452Y-16159167D01*
X8647976Y-16178214D01*
X8647976Y-16282976D01*
X8647976Y-16178214D02*
X8657500Y-16159167D01*
X8676548Y-16149643D01*
X8705119Y-16149643D01*
X8724167Y-16159167D01*
X8733690Y-16178214D01*
X8733690Y-16282976D01*
X8828929Y-16282976D02*
X8828929Y-16149643D01*
X8828929Y-16168690D02*
X8838452Y-16159167D01*
X8857500Y-16149643D01*
X8886071Y-16149643D01*
X8905119Y-16159167D01*
X8914643Y-16178214D01*
X8914643Y-16282976D01*
X8914643Y-16178214D02*
X8924167Y-16159167D01*
X8943214Y-16149643D01*
X8971786Y-16149643D01*
X8990833Y-16159167D01*
X9000357Y-16178214D01*
X9000357Y-16282976D01*
X9390833Y-16073452D02*
X9219405Y-16330595D01*
X9647976Y-16082976D02*
X9667024Y-16082976D01*
X9686071Y-16092500D01*
X9695595Y-16102024D01*
X9705119Y-16121071D01*
X9714643Y-16159167D01*
X9714643Y-16206786D01*
X9705119Y-16244881D01*
X9695595Y-16263928D01*
X9686071Y-16273452D01*
X9667024Y-16282976D01*
X9647976Y-16282976D01*
X9628929Y-16273452D01*
X9619405Y-16263928D01*
X9609881Y-16244881D01*
X9600357Y-16206786D01*
X9600357Y-16159167D01*
X9609881Y-16121071D01*
X9619405Y-16102024D01*
X9628929Y-16092500D01*
X9647976Y-16082976D01*
X9800357Y-16263928D02*
X9809881Y-16273452D01*
X9800357Y-16282976D01*
X9790833Y-16273452D01*
X9800357Y-16263928D01*
X9800357Y-16282976D01*
X10000357Y-16282976D02*
X9886071Y-16282976D01*
X9943214Y-16282976D02*
X9943214Y-16082976D01*
X9924167Y-16111548D01*
X9905119Y-16130595D01*
X9886071Y-16140119D01*
X10190833Y-16282976D02*
X10076548Y-16282976D01*
X10133690Y-16282976D02*
X10133690Y-16082976D01*
X10114643Y-16111548D01*
X10095595Y-16130595D01*
X10076548Y-16140119D01*
X10305119Y-16168690D02*
X10286071Y-16159167D01*
X10276548Y-16149643D01*
X10267024Y-16130595D01*
X10267024Y-16121071D01*
X10276548Y-16102024D01*
X10286071Y-16092500D01*
X10305119Y-16082976D01*
X10343214Y-16082976D01*
X10362262Y-16092500D01*
X10371786Y-16102024D01*
X10381310Y-16121071D01*
X10381310Y-16130595D01*
X10371786Y-16149643D01*
X10362262Y-16159167D01*
X10343214Y-16168690D01*
X10305119Y-16168690D01*
X10286071Y-16178214D01*
X10276548Y-16187738D01*
X10267024Y-16206786D01*
X10267024Y-16244881D01*
X10276548Y-16263928D01*
X10286071Y-16273452D01*
X10305119Y-16282976D01*
X10343214Y-16282976D01*
X10362262Y-16273452D01*
X10371786Y-16263928D01*
X10381310Y-16244881D01*
X10381310Y-16206786D01*
X10371786Y-16187738D01*
X10362262Y-16178214D01*
X10343214Y-16168690D01*
X10571786Y-16282976D02*
X10457500Y-16282976D01*
X10514643Y-16282976D02*
X10514643Y-16082976D01*
X10495595Y-16111548D01*
X10476548Y-16130595D01*
X10457500Y-16140119D01*
X10647976Y-16082976D02*
X10647976Y-16121071D01*
X10724167Y-16082976D02*
X10724167Y-16121071D01*
X11019405Y-16359167D02*
X11009881Y-16349643D01*
X10990833Y-16321071D01*
X10981310Y-16302024D01*
X10971786Y-16273452D01*
X10962262Y-16225833D01*
X10962262Y-16187738D01*
X10971786Y-16140119D01*
X10981310Y-16111548D01*
X10990833Y-16092500D01*
X11009881Y-16063928D01*
X11019405Y-16054405D01*
X11133690Y-16082976D02*
X11152738Y-16082976D01*
X11171786Y-16092500D01*
X11181310Y-16102024D01*
X11190833Y-16121071D01*
X11200357Y-16159167D01*
X11200357Y-16206786D01*
X11190833Y-16244881D01*
X11181310Y-16263928D01*
X11171786Y-16273452D01*
X11152738Y-16282976D01*
X11133690Y-16282976D01*
X11114643Y-16273452D01*
X11105119Y-16263928D01*
X11095595Y-16244881D01*
X11086071Y-16206786D01*
X11086071Y-16159167D01*
X11095595Y-16121071D01*
X11105119Y-16102024D01*
X11114643Y-16092500D01*
X11133690Y-16082976D01*
X11438452Y-16282976D02*
X11438452Y-16082976D01*
X11524167Y-16282976D02*
X11524167Y-16178214D01*
X11514643Y-16159167D01*
X11495595Y-16149643D01*
X11467024Y-16149643D01*
X11447976Y-16159167D01*
X11438452Y-16168690D01*
X11647976Y-16282976D02*
X11628928Y-16273452D01*
X11619405Y-16263928D01*
X11609881Y-16244881D01*
X11609881Y-16187738D01*
X11619405Y-16168690D01*
X11628928Y-16159167D01*
X11647976Y-16149643D01*
X11676548Y-16149643D01*
X11695595Y-16159167D01*
X11705119Y-16168690D01*
X11714643Y-16187738D01*
X11714643Y-16244881D01*
X11705119Y-16263928D01*
X11695595Y-16273452D01*
X11676548Y-16282976D01*
X11647976Y-16282976D01*
X11828928Y-16282976D02*
X11809881Y-16273452D01*
X11800357Y-16254405D01*
X11800357Y-16082976D01*
X11981309Y-16273452D02*
X11962262Y-16282976D01*
X11924167Y-16282976D01*
X11905119Y-16273452D01*
X11895595Y-16254405D01*
X11895595Y-16178214D01*
X11905119Y-16159167D01*
X11924167Y-16149643D01*
X11962262Y-16149643D01*
X11981309Y-16159167D01*
X11990833Y-16178214D01*
X11990833Y-16197262D01*
X11895595Y-16216309D01*
X12067024Y-16273452D02*
X12086071Y-16282976D01*
X12124167Y-16282976D01*
X12143214Y-16273452D01*
X12152738Y-16254405D01*
X12152738Y-16244881D01*
X12143214Y-16225833D01*
X12124167Y-16216309D01*
X12095595Y-16216309D01*
X12076548Y-16206786D01*
X12067024Y-16187738D01*
X12067024Y-16178214D01*
X12076548Y-16159167D01*
X12095595Y-16149643D01*
X12124167Y-16149643D01*
X12143214Y-16159167D01*
X12390833Y-16206786D02*
X12543214Y-16206786D01*
X12467024Y-16282976D02*
X12467024Y-16130595D01*
X12781309Y-16102024D02*
X12790833Y-16092500D01*
X12809881Y-16082976D01*
X12857500Y-16082976D01*
X12876548Y-16092500D01*
X12886071Y-16102024D01*
X12895595Y-16121071D01*
X12895595Y-16140119D01*
X12886071Y-16168690D01*
X12771786Y-16282976D01*
X12895595Y-16282976D01*
X13124167Y-16273452D02*
X13143214Y-16282976D01*
X13181309Y-16282976D01*
X13200357Y-16273452D01*
X13209881Y-16254405D01*
X13209881Y-16244881D01*
X13200357Y-16225833D01*
X13181309Y-16216309D01*
X13152738Y-16216309D01*
X13133690Y-16206786D01*
X13124167Y-16187738D01*
X13124167Y-16178214D01*
X13133690Y-16159167D01*
X13152738Y-16149643D01*
X13181309Y-16149643D01*
X13200357Y-16159167D01*
X13324167Y-16282976D02*
X13305119Y-16273452D01*
X13295595Y-16254405D01*
X13295595Y-16082976D01*
X13428928Y-16282976D02*
X13409881Y-16273452D01*
X13400357Y-16263928D01*
X13390833Y-16244881D01*
X13390833Y-16187738D01*
X13400357Y-16168690D01*
X13409881Y-16159167D01*
X13428928Y-16149643D01*
X13457500Y-16149643D01*
X13476548Y-16159167D01*
X13486071Y-16168690D01*
X13495595Y-16187738D01*
X13495595Y-16244881D01*
X13486071Y-16263928D01*
X13476548Y-16273452D01*
X13457500Y-16282976D01*
X13428928Y-16282976D01*
X13552738Y-16149643D02*
X13628928Y-16149643D01*
X13581309Y-16082976D02*
X13581309Y-16254405D01*
X13590833Y-16273452D01*
X13609881Y-16282976D01*
X13628928Y-16282976D01*
X13686071Y-16273452D02*
X13705119Y-16282976D01*
X13743214Y-16282976D01*
X13762262Y-16273452D01*
X13771786Y-16254405D01*
X13771786Y-16244881D01*
X13762262Y-16225833D01*
X13743214Y-16216309D01*
X13714643Y-16216309D01*
X13695595Y-16206786D01*
X13686071Y-16187738D01*
X13686071Y-16178214D01*
X13695595Y-16159167D01*
X13714643Y-16149643D01*
X13743214Y-16149643D01*
X13762262Y-16159167D01*
X13838452Y-16359167D02*
X13847976Y-16349643D01*
X13867024Y-16321071D01*
X13876548Y-16302024D01*
X13886071Y-16273452D01*
X13895595Y-16225833D01*
X13895595Y-16187738D01*
X13886071Y-16140119D01*
X13876548Y-16111548D01*
X13867024Y-16092500D01*
X13847976Y-16063928D01*
X13838452Y-16054405D01*
X7447500Y-16512500D02*
G75*
G03*
X7447500Y-16512500I-100000J0D01*
G01*
X7790833Y-16402976D02*
X7752738Y-16402976D01*
X7733690Y-16412500D01*
X7724167Y-16422024D01*
X7705119Y-16450595D01*
X7695595Y-16488690D01*
X7695595Y-16564881D01*
X7705119Y-16583928D01*
X7714643Y-16593452D01*
X7733690Y-16602976D01*
X7771786Y-16602976D01*
X7790833Y-16593452D01*
X7800357Y-16583928D01*
X7809881Y-16564881D01*
X7809881Y-16517262D01*
X7800357Y-16498214D01*
X7790833Y-16488690D01*
X7771786Y-16479167D01*
X7733690Y-16479167D01*
X7714643Y-16488690D01*
X7705119Y-16498214D01*
X7695595Y-16517262D01*
X7895595Y-16583928D02*
X7905119Y-16593452D01*
X7895595Y-16602976D01*
X7886071Y-16593452D01*
X7895595Y-16583928D01*
X7895595Y-16602976D01*
X7981309Y-16422024D02*
X7990833Y-16412500D01*
X8009881Y-16402976D01*
X8057500Y-16402976D01*
X8076548Y-16412500D01*
X8086071Y-16422024D01*
X8095595Y-16441071D01*
X8095595Y-16460119D01*
X8086071Y-16488690D01*
X7971786Y-16602976D01*
X8095595Y-16602976D01*
X8219405Y-16402976D02*
X8238452Y-16402976D01*
X8257500Y-16412500D01*
X8267024Y-16422024D01*
X8276548Y-16441071D01*
X8286071Y-16479167D01*
X8286071Y-16526786D01*
X8276548Y-16564881D01*
X8267024Y-16583928D01*
X8257500Y-16593452D01*
X8238452Y-16602976D01*
X8219405Y-16602976D01*
X8200357Y-16593452D01*
X8190833Y-16583928D01*
X8181309Y-16564881D01*
X8171786Y-16526786D01*
X8171786Y-16479167D01*
X8181309Y-16441071D01*
X8190833Y-16422024D01*
X8200357Y-16412500D01*
X8219405Y-16402976D01*
X8409881Y-16402976D02*
X8428929Y-16402976D01*
X8447976Y-16412500D01*
X8457500Y-16422024D01*
X8467024Y-16441071D01*
X8476548Y-16479167D01*
X8476548Y-16526786D01*
X8467024Y-16564881D01*
X8457500Y-16583928D01*
X8447976Y-16593452D01*
X8428929Y-16602976D01*
X8409881Y-16602976D01*
X8390833Y-16593452D01*
X8381309Y-16583928D01*
X8371786Y-16564881D01*
X8362262Y-16526786D01*
X8362262Y-16479167D01*
X8371786Y-16441071D01*
X8381309Y-16422024D01*
X8390833Y-16412500D01*
X8409881Y-16402976D01*
X8562262Y-16602976D02*
X8562262Y-16469643D01*
X8562262Y-16488690D02*
X8571786Y-16479167D01*
X8590833Y-16469643D01*
X8619405Y-16469643D01*
X8638452Y-16479167D01*
X8647976Y-16498214D01*
X8647976Y-16602976D01*
X8647976Y-16498214D02*
X8657500Y-16479167D01*
X8676548Y-16469643D01*
X8705119Y-16469643D01*
X8724167Y-16479167D01*
X8733690Y-16498214D01*
X8733690Y-16602976D01*
X8828929Y-16602976D02*
X8828929Y-16469643D01*
X8828929Y-16488690D02*
X8838452Y-16479167D01*
X8857500Y-16469643D01*
X8886071Y-16469643D01*
X8905119Y-16479167D01*
X8914643Y-16498214D01*
X8914643Y-16602976D01*
X8914643Y-16498214D02*
X8924167Y-16479167D01*
X8943214Y-16469643D01*
X8971786Y-16469643D01*
X8990833Y-16479167D01*
X9000357Y-16498214D01*
X9000357Y-16602976D01*
X9390833Y-16393452D02*
X9219405Y-16650595D01*
X9647976Y-16402976D02*
X9667024Y-16402976D01*
X9686071Y-16412500D01*
X9695595Y-16422024D01*
X9705119Y-16441071D01*
X9714643Y-16479167D01*
X9714643Y-16526786D01*
X9705119Y-16564881D01*
X9695595Y-16583928D01*
X9686071Y-16593452D01*
X9667024Y-16602976D01*
X9647976Y-16602976D01*
X9628929Y-16593452D01*
X9619405Y-16583928D01*
X9609881Y-16564881D01*
X9600357Y-16526786D01*
X9600357Y-16479167D01*
X9609881Y-16441071D01*
X9619405Y-16422024D01*
X9628929Y-16412500D01*
X9647976Y-16402976D01*
X9800357Y-16583928D02*
X9809881Y-16593452D01*
X9800357Y-16602976D01*
X9790833Y-16593452D01*
X9800357Y-16583928D01*
X9800357Y-16602976D01*
X9886071Y-16422024D02*
X9895595Y-16412500D01*
X9914643Y-16402976D01*
X9962262Y-16402976D01*
X9981310Y-16412500D01*
X9990833Y-16422024D01*
X10000357Y-16441071D01*
X10000357Y-16460119D01*
X9990833Y-16488690D01*
X9876548Y-16602976D01*
X10000357Y-16602976D01*
X10171786Y-16469643D02*
X10171786Y-16602976D01*
X10124167Y-16393452D02*
X10076548Y-16536309D01*
X10200357Y-16536309D01*
X10362262Y-16469643D02*
X10362262Y-16602976D01*
X10314643Y-16393452D02*
X10267024Y-16536309D01*
X10390833Y-16536309D01*
X10571786Y-16602976D02*
X10457500Y-16602976D01*
X10514643Y-16602976D02*
X10514643Y-16402976D01*
X10495595Y-16431548D01*
X10476548Y-16450595D01*
X10457500Y-16460119D01*
X10647976Y-16402976D02*
X10647976Y-16441071D01*
X10724167Y-16402976D02*
X10724167Y-16441071D01*
X11019405Y-16679167D02*
X11009881Y-16669643D01*
X10990833Y-16641071D01*
X10981310Y-16622024D01*
X10971786Y-16593452D01*
X10962262Y-16545833D01*
X10962262Y-16507738D01*
X10971786Y-16460119D01*
X10981310Y-16431548D01*
X10990833Y-16412500D01*
X11009881Y-16383928D01*
X11019405Y-16374405D01*
X11105119Y-16602976D02*
X11143214Y-16602976D01*
X11162262Y-16593452D01*
X11171786Y-16583928D01*
X11190833Y-16555357D01*
X11200357Y-16517262D01*
X11200357Y-16441071D01*
X11190833Y-16422024D01*
X11181310Y-16412500D01*
X11162262Y-16402976D01*
X11124167Y-16402976D01*
X11105119Y-16412500D01*
X11095595Y-16422024D01*
X11086071Y-16441071D01*
X11086071Y-16488690D01*
X11095595Y-16507738D01*
X11105119Y-16517262D01*
X11124167Y-16526786D01*
X11162262Y-16526786D01*
X11181310Y-16517262D01*
X11190833Y-16507738D01*
X11200357Y-16488690D01*
X11438452Y-16602976D02*
X11438452Y-16402976D01*
X11524167Y-16602976D02*
X11524167Y-16498214D01*
X11514643Y-16479167D01*
X11495595Y-16469643D01*
X11467024Y-16469643D01*
X11447976Y-16479167D01*
X11438452Y-16488690D01*
X11647976Y-16602976D02*
X11628928Y-16593452D01*
X11619405Y-16583928D01*
X11609881Y-16564881D01*
X11609881Y-16507738D01*
X11619405Y-16488690D01*
X11628928Y-16479167D01*
X11647976Y-16469643D01*
X11676548Y-16469643D01*
X11695595Y-16479167D01*
X11705119Y-16488690D01*
X11714643Y-16507738D01*
X11714643Y-16564881D01*
X11705119Y-16583928D01*
X11695595Y-16593452D01*
X11676548Y-16602976D01*
X11647976Y-16602976D01*
X11828928Y-16602976D02*
X11809881Y-16593452D01*
X11800357Y-16574405D01*
X11800357Y-16402976D01*
X11981309Y-16593452D02*
X11962262Y-16602976D01*
X11924167Y-16602976D01*
X11905119Y-16593452D01*
X11895595Y-16574405D01*
X11895595Y-16498214D01*
X11905119Y-16479167D01*
X11924167Y-16469643D01*
X11962262Y-16469643D01*
X11981309Y-16479167D01*
X11990833Y-16498214D01*
X11990833Y-16517262D01*
X11895595Y-16536309D01*
X12067024Y-16593452D02*
X12086071Y-16602976D01*
X12124167Y-16602976D01*
X12143214Y-16593452D01*
X12152738Y-16574405D01*
X12152738Y-16564881D01*
X12143214Y-16545833D01*
X12124167Y-16536309D01*
X12095595Y-16536309D01*
X12076548Y-16526786D01*
X12067024Y-16507738D01*
X12067024Y-16498214D01*
X12076548Y-16479167D01*
X12095595Y-16469643D01*
X12124167Y-16469643D01*
X12143214Y-16479167D01*
X12219405Y-16679167D02*
X12228928Y-16669643D01*
X12247976Y-16641071D01*
X12257500Y-16622024D01*
X12267024Y-16593452D01*
X12276548Y-16545833D01*
X12276548Y-16507738D01*
X12267024Y-16460119D01*
X12257500Y-16431548D01*
X12247976Y-16412500D01*
X12228928Y-16383928D01*
X12219405Y-16374405D01*
M02*
