G04 #@! TF.GenerationSoftware,KiCad,Pcbnew,(6.0.0)*
G04 #@! TF.CreationDate,2022-07-06T12:19:34+01:00*
G04 #@! TF.ProjectId,Multiplexer_3x2,4d756c74-6970-46c6-9578-65725f337832,rev?*
G04 #@! TF.SameCoordinates,Original*
G04 #@! TF.FileFunction,Legend,Bot*
G04 #@! TF.FilePolarity,Positive*
%FSLAX46Y46*%
G04 Gerber Fmt 4.6, Leading zero omitted, Abs format (unit mm)*
G04 Created by KiCad (PCBNEW (6.0.0)) date 2022-07-06 12:19:34*
%MOMM*%
%LPD*%
G01*
G04 APERTURE LIST*
G04 #@! TA.AperFunction,Profile*
%ADD10C,0.050000*%
G04 #@! TD*
%ADD11C,0.150000*%
%ADD12O,6.700000X4.200000*%
G04 APERTURE END LIST*
D10*
X47783010Y-36500000D02*
X62783010Y-36500000D01*
X62783010Y-164500000D02*
X47783010Y-164500000D01*
X62783010Y-36500000D02*
X62783010Y-164500000D01*
X47783010Y-36500000D02*
X47783010Y-164500000D01*
D11*
X49830629Y-92119047D02*
X49116343Y-92119047D01*
X48973486Y-92166666D01*
X48878248Y-92261904D01*
X48830629Y-92404761D01*
X48830629Y-92500000D01*
X48830629Y-91166666D02*
X48830629Y-91642857D01*
X49830629Y-91642857D01*
X48925867Y-90261904D02*
X48878248Y-90309523D01*
X48830629Y-90452380D01*
X48830629Y-90547619D01*
X48878248Y-90690476D01*
X48973486Y-90785714D01*
X49068724Y-90833333D01*
X49259200Y-90880952D01*
X49402057Y-90880952D01*
X49592533Y-90833333D01*
X49687771Y-90785714D01*
X49783010Y-90690476D01*
X49830629Y-90547619D01*
X49830629Y-90452380D01*
X49783010Y-90309523D01*
X49735390Y-90261904D01*
X49830629Y-89547619D02*
X49116343Y-89547619D01*
X48973486Y-89595238D01*
X48878248Y-89690476D01*
X48830629Y-89833333D01*
X48830629Y-89928571D01*
X48830629Y-88595238D02*
X48830629Y-89071428D01*
X49830629Y-89071428D01*
X48925867Y-87690476D02*
X48878248Y-87738095D01*
X48830629Y-87880952D01*
X48830629Y-87976190D01*
X48878248Y-88119047D01*
X48973486Y-88214285D01*
X49068724Y-88261904D01*
X49259200Y-88309523D01*
X49402057Y-88309523D01*
X49592533Y-88261904D01*
X49687771Y-88214285D01*
X49783010Y-88119047D01*
X49830629Y-87976190D01*
X49830629Y-87880952D01*
X49783010Y-87738095D01*
X49735390Y-87690476D01*
X49830629Y-86976190D02*
X49116343Y-86976190D01*
X48973486Y-87023809D01*
X48878248Y-87119047D01*
X48830629Y-87261904D01*
X48830629Y-87357142D01*
X48830629Y-86023809D02*
X48830629Y-86500000D01*
X49830629Y-86500000D01*
X48925867Y-85119047D02*
X48878248Y-85166666D01*
X48830629Y-85309523D01*
X48830629Y-85404761D01*
X48878248Y-85547619D01*
X48973486Y-85642857D01*
X49068724Y-85690476D01*
X49259200Y-85738095D01*
X49402057Y-85738095D01*
X49592533Y-85690476D01*
X49687771Y-85642857D01*
X49783010Y-85547619D01*
X49830629Y-85404761D01*
X49830629Y-85309523D01*
X49783010Y-85166666D01*
X49735390Y-85119047D01*
X49830629Y-84404761D02*
X49116343Y-84404761D01*
X48973486Y-84452380D01*
X48878248Y-84547619D01*
X48830629Y-84690476D01*
X48830629Y-84785714D01*
X48830629Y-83452380D02*
X48830629Y-83928571D01*
X49830629Y-83928571D01*
X48925867Y-82547619D02*
X48878248Y-82595238D01*
X48830629Y-82738095D01*
X48830629Y-82833333D01*
X48878248Y-82976190D01*
X48973486Y-83071428D01*
X49068724Y-83119047D01*
X49259200Y-83166666D01*
X49402057Y-83166666D01*
X49592533Y-83119047D01*
X49687771Y-83071428D01*
X49783010Y-82976190D01*
X49830629Y-82833333D01*
X49830629Y-82738095D01*
X49783010Y-82595238D01*
X49735390Y-82547619D01*
%LPC*%
D12*
X55283010Y-161500000D03*
X55283010Y-39500000D03*
M02*
