G04 #@! TF.GenerationSoftware,KiCad,Pcbnew,(6.0.0)*
G04 #@! TF.CreationDate,2022-04-30T23:38:23+02:00*
G04 #@! TF.ProjectId,Output-mixer,4f757470-7574-42d6-9d69-7865722e6b69,rev?*
G04 #@! TF.SameCoordinates,Original*
G04 #@! TF.FileFunction,Soldermask,Bot*
G04 #@! TF.FilePolarity,Negative*
%FSLAX46Y46*%
G04 Gerber Fmt 4.6, Leading zero omitted, Abs format (unit mm)*
G04 Created by KiCad (PCBNEW (6.0.0)) date 2022-04-30 23:38:23*
%MOMM*%
%LPD*%
G01*
G04 APERTURE LIST*
G04 #@! TA.AperFunction,Profile*
%ADD10C,0.050000*%
G04 #@! TD*
G04 #@! TA.AperFunction,Profile*
%ADD11C,0.100000*%
G04 #@! TD*
%ADD12C,4.000000*%
%ADD13C,1.800000*%
%ADD14C,1.600000*%
%ADD15O,1.600000X1.600000*%
%ADD16R,1.600000X1.600000*%
%ADD17R,1.930000X1.830000*%
%ADD18C,2.130000*%
%ADD19O,3.700000X2.400000*%
%ADD20R,1.800000X1.800000*%
%ADD21C,4.500000*%
%ADD22C,3.200000*%
%ADD23R,1.500000X1.050000*%
%ADD24O,1.500000X1.050000*%
%ADD25R,1.700000X1.700000*%
%ADD26O,1.700000X1.700000*%
G04 APERTURE END LIST*
D10*
X183600000Y-33300000D02*
X183600000Y-72800000D01*
X48600000Y-33300000D02*
X48600000Y-143300000D01*
X48600000Y-33300000D02*
X183600000Y-33300000D01*
D11*
X150100000Y-89800000D02*
X150100000Y-72800000D01*
X183600000Y-89800000D02*
X150100000Y-89800000D01*
X183600000Y-89800000D02*
X183600000Y-126800000D01*
X150100000Y-72800000D02*
X183600000Y-72800000D01*
D10*
X48600000Y-143300000D02*
X166100000Y-143300000D01*
D11*
X183600000Y-126800000D02*
X166100000Y-126800000D01*
X166100000Y-126800000D02*
X166100000Y-143300000D01*
D12*
X97000000Y-41850000D03*
X88200000Y-41850000D03*
D13*
X95100000Y-48850000D03*
X92600000Y-48850000D03*
X90100000Y-48850000D03*
D14*
X116850000Y-125550000D03*
X116850000Y-130550000D03*
X117680000Y-141300000D03*
D15*
X107520000Y-141300000D03*
D14*
X151850000Y-41220000D03*
D15*
X151850000Y-51380000D03*
D14*
X148600000Y-53800000D03*
D15*
X148600000Y-63960000D03*
D14*
X102350000Y-48300000D03*
X102350000Y-53300000D03*
D16*
X103555112Y-97800000D03*
D14*
X101555112Y-97800000D03*
D17*
X53600000Y-108800000D03*
D18*
X53600000Y-120200000D03*
X53600000Y-111900000D03*
D16*
X166555113Y-97050000D03*
D14*
X164555113Y-97050000D03*
D19*
X72700000Y-72600000D03*
X72700000Y-77300000D03*
X72700000Y-82000000D03*
X77500000Y-72600000D03*
X77500000Y-77300000D03*
X77500000Y-82000000D03*
D16*
X103600000Y-140300000D03*
D14*
X101600000Y-140300000D03*
D20*
X136600000Y-58525000D03*
D13*
X136600000Y-61065000D03*
D14*
X106940000Y-82550000D03*
D15*
X117100000Y-82550000D03*
D14*
X134380000Y-138300000D03*
D15*
X144540000Y-138300000D03*
D14*
X134380000Y-64300000D03*
D15*
X144540000Y-64300000D03*
D12*
X130640000Y-97350000D03*
X121840000Y-97350000D03*
D13*
X128740000Y-104350000D03*
X126240000Y-104350000D03*
X123740000Y-104350000D03*
X164600000Y-69575000D03*
X162600000Y-69575000D03*
X172600000Y-69575000D03*
X166600000Y-69575000D03*
X168600000Y-69575000D03*
X170600000Y-69575000D03*
D21*
X161800000Y-58575000D03*
X173400000Y-58575000D03*
D16*
X159055112Y-97050000D03*
D14*
X157055112Y-97050000D03*
X117100000Y-72800000D03*
D15*
X106940000Y-72800000D03*
D12*
X88200000Y-115850000D03*
X97000000Y-115850000D03*
D13*
X95100000Y-122850000D03*
X92600000Y-122850000D03*
X90100000Y-122850000D03*
D14*
X117430000Y-109800000D03*
D15*
X107270000Y-109800000D03*
D16*
X103555112Y-109550000D03*
D14*
X101555112Y-109550000D03*
X116850000Y-51300000D03*
X116850000Y-56300000D03*
D12*
X88200000Y-60350000D03*
X97000000Y-60350000D03*
D13*
X95100000Y-67350000D03*
X92600000Y-67350000D03*
X90100000Y-67350000D03*
D12*
X130640000Y-78850000D03*
X121840000Y-78850000D03*
D13*
X128740000Y-85850000D03*
X126240000Y-85850000D03*
X123740000Y-85850000D03*
D14*
X117680000Y-138050000D03*
D15*
X107520000Y-138050000D03*
D22*
X162100000Y-138300000D03*
D14*
X107020000Y-59300000D03*
D15*
X117180000Y-59300000D03*
D17*
X63600000Y-53300000D03*
D18*
X63600000Y-64700000D03*
X63600000Y-56400000D03*
D14*
X134380000Y-129300000D03*
D15*
X144540000Y-129300000D03*
D17*
X63600000Y-108800000D03*
D18*
X63600000Y-120200000D03*
X63600000Y-111900000D03*
D17*
X53560000Y-34800000D03*
D18*
X53560000Y-46200000D03*
X53560000Y-37900000D03*
D16*
X103350000Y-59800000D03*
D14*
X101350000Y-59800000D03*
D19*
X72700000Y-109600000D03*
X72700000Y-114300000D03*
X72700000Y-119000000D03*
X77500000Y-109600000D03*
X77500000Y-114300000D03*
X77500000Y-119000000D03*
D17*
X53600000Y-127300000D03*
D18*
X53600000Y-138700000D03*
X53600000Y-130400000D03*
D14*
X152350000Y-127300000D03*
D15*
X152350000Y-137460000D03*
D23*
X141600000Y-40030000D03*
D24*
X141600000Y-41300000D03*
X141600000Y-42570000D03*
D23*
X141600000Y-95530000D03*
D24*
X141600000Y-96800000D03*
X141600000Y-98070000D03*
D14*
X134380000Y-45800000D03*
D15*
X144540000Y-45800000D03*
D17*
X63600000Y-71800000D03*
D18*
X63600000Y-83200000D03*
X63600000Y-74900000D03*
D14*
X151850000Y-63960000D03*
D15*
X151850000Y-53800000D03*
D20*
X136600000Y-132525000D03*
D13*
X136600000Y-135065000D03*
D14*
X134380000Y-119800000D03*
D15*
X144540000Y-119800000D03*
D19*
X72700000Y-35600000D03*
X72700000Y-40300000D03*
X72700000Y-45000000D03*
X77500000Y-35600000D03*
X77500000Y-40300000D03*
X77500000Y-45000000D03*
D14*
X134380000Y-110800000D03*
D15*
X144540000Y-110800000D03*
D20*
X136600000Y-114025000D03*
D13*
X136600000Y-116565000D03*
D14*
X148600000Y-51380000D03*
D15*
X148600000Y-41220000D03*
D14*
X134380000Y-82800000D03*
D15*
X144540000Y-82800000D03*
D17*
X53600000Y-53300000D03*
D18*
X53600000Y-64700000D03*
X53600000Y-56400000D03*
D16*
X105800000Y-130350000D03*
D15*
X108340000Y-130350000D03*
X110880000Y-130350000D03*
X113420000Y-130350000D03*
X113420000Y-122730000D03*
X110880000Y-122730000D03*
X108340000Y-122730000D03*
X105800000Y-122730000D03*
D16*
X180055113Y-93300000D03*
D14*
X178055113Y-93300000D03*
D12*
X88200000Y-78850000D03*
X97000000Y-78850000D03*
D13*
X95100000Y-85850000D03*
X92600000Y-85850000D03*
X90100000Y-85850000D03*
D17*
X53600000Y-90520000D03*
D18*
X53600000Y-101920000D03*
X53600000Y-93620000D03*
D14*
X134380000Y-55300000D03*
D15*
X144540000Y-55300000D03*
D14*
X116680000Y-38550000D03*
D15*
X106520000Y-38550000D03*
D14*
X56940000Y-68300000D03*
D15*
X67100000Y-68300000D03*
D17*
X173600000Y-34800000D03*
D18*
X173600000Y-46200000D03*
X173600000Y-37900000D03*
D13*
X171600000Y-125075000D03*
X169600000Y-125075000D03*
X179600000Y-125075000D03*
X173600000Y-125075000D03*
X175600000Y-125075000D03*
X177600000Y-125075000D03*
D21*
X168800000Y-114075000D03*
X180400000Y-114075000D03*
D12*
X97000000Y-97350000D03*
X88200000Y-97350000D03*
D13*
X95100000Y-104350000D03*
X92600000Y-104350000D03*
X90100000Y-104350000D03*
D14*
X134380000Y-73800000D03*
D15*
X144540000Y-73800000D03*
D14*
X144600000Y-86550000D03*
D15*
X134440000Y-86550000D03*
D17*
X53600000Y-71800000D03*
D18*
X53600000Y-83200000D03*
X53600000Y-74900000D03*
D14*
X120850000Y-89300000D03*
D15*
X131010000Y-89300000D03*
D14*
X102350000Y-122550000D03*
X102350000Y-127550000D03*
D17*
X63560000Y-34800000D03*
D18*
X63560000Y-46200000D03*
X63560000Y-37900000D03*
D14*
X152350000Y-96800000D03*
D15*
X152350000Y-106960000D03*
D14*
X107270000Y-113050000D03*
D15*
X117430000Y-113050000D03*
D14*
X117430000Y-119550000D03*
D15*
X107270000Y-119550000D03*
D14*
X107020000Y-65800000D03*
D15*
X117180000Y-65800000D03*
D12*
X130640000Y-115850000D03*
X121840000Y-115850000D03*
D13*
X128740000Y-122850000D03*
X126240000Y-122850000D03*
X123740000Y-122850000D03*
D14*
X152350000Y-110220000D03*
D15*
X152350000Y-120380000D03*
D16*
X103305113Y-37050000D03*
D14*
X101305113Y-37050000D03*
X106940000Y-76050000D03*
D15*
X117100000Y-76050000D03*
D16*
X103350000Y-72550000D03*
D14*
X101350000Y-72550000D03*
D20*
X76375000Y-49550000D03*
D13*
X73835000Y-49550000D03*
D14*
X107270000Y-116300000D03*
D15*
X117430000Y-116300000D03*
D16*
X173305113Y-93300000D03*
D14*
X171305113Y-93300000D03*
X149100000Y-120380000D03*
D15*
X149100000Y-110220000D03*
D14*
X120520000Y-126050000D03*
D15*
X130680000Y-126050000D03*
D14*
X107520000Y-134800000D03*
D15*
X117680000Y-134800000D03*
D17*
X63600000Y-90520000D03*
D18*
X63600000Y-101920000D03*
X63600000Y-93620000D03*
D14*
X107270000Y-103300000D03*
D15*
X117430000Y-103300000D03*
D12*
X121840000Y-60350000D03*
X130640000Y-60350000D03*
D13*
X128740000Y-67350000D03*
X126240000Y-67350000D03*
X123740000Y-67350000D03*
D12*
X88200000Y-134350000D03*
X97000000Y-134350000D03*
D13*
X95100000Y-141350000D03*
X92600000Y-141350000D03*
X90100000Y-141350000D03*
D20*
X76375000Y-123550000D03*
D13*
X73835000Y-123550000D03*
D14*
X117430000Y-106550000D03*
D15*
X107270000Y-106550000D03*
D14*
X56940000Y-105300000D03*
D15*
X67100000Y-105300000D03*
D14*
X117100000Y-79300000D03*
D15*
X106940000Y-79300000D03*
D14*
X102350000Y-85800000D03*
X102350000Y-90800000D03*
D22*
X155100000Y-68800000D03*
D20*
X76375000Y-105050000D03*
D13*
X73835000Y-105050000D03*
D14*
X117430000Y-100050000D03*
D15*
X107270000Y-100050000D03*
D20*
X76375000Y-86550000D03*
D13*
X73835000Y-86550000D03*
D14*
X56940000Y-123800000D03*
D15*
X67100000Y-123800000D03*
D23*
X141600000Y-132530000D03*
D24*
X141600000Y-133800000D03*
X141600000Y-135070000D03*
D14*
X106520000Y-35300000D03*
D15*
X116680000Y-35300000D03*
D14*
X106520000Y-41800000D03*
D15*
X116680000Y-41800000D03*
D20*
X136600000Y-77025000D03*
D13*
X136600000Y-79565000D03*
D17*
X63600000Y-127300000D03*
D18*
X63600000Y-138700000D03*
X63600000Y-130400000D03*
D19*
X72700000Y-91100000D03*
X72700000Y-95800000D03*
X72700000Y-100500000D03*
X77500000Y-91100000D03*
X77500000Y-95800000D03*
X77500000Y-100500000D03*
D16*
X105800000Y-93600000D03*
D15*
X108340000Y-93600000D03*
X110880000Y-93600000D03*
X113420000Y-93600000D03*
X113420000Y-85980000D03*
X110880000Y-85980000D03*
X108340000Y-85980000D03*
X105800000Y-85980000D03*
D20*
X136600000Y-40030000D03*
D13*
X136600000Y-42570000D03*
D19*
X72700000Y-54100000D03*
X72700000Y-58800000D03*
X72700000Y-63500000D03*
X77500000Y-54100000D03*
X77500000Y-58800000D03*
X77500000Y-63500000D03*
D14*
X56940000Y-141800000D03*
D15*
X67100000Y-141800000D03*
D14*
X134380000Y-101300000D03*
D15*
X144540000Y-101300000D03*
D14*
X117180000Y-62550000D03*
D15*
X107020000Y-62550000D03*
D19*
X72700000Y-128100000D03*
X72700000Y-132800000D03*
X72700000Y-137500000D03*
X77500000Y-128100000D03*
X77500000Y-132800000D03*
X77500000Y-137500000D03*
D14*
X117180000Y-69050000D03*
D15*
X107020000Y-69050000D03*
D14*
X56940000Y-49800000D03*
D15*
X67100000Y-49800000D03*
D14*
X134380000Y-36800000D03*
D15*
X144540000Y-36800000D03*
D14*
X149100000Y-106960000D03*
D15*
X149100000Y-96800000D03*
D23*
X141600000Y-77030000D03*
D24*
X141600000Y-78300000D03*
X141600000Y-79570000D03*
D12*
X121840000Y-41850000D03*
X130640000Y-41850000D03*
D13*
X128740000Y-48850000D03*
X126240000Y-48850000D03*
X123740000Y-48850000D03*
D20*
X76375000Y-142000000D03*
D13*
X73835000Y-142000000D03*
D14*
X116850000Y-88800000D03*
X116850000Y-93800000D03*
X116680000Y-45050000D03*
D15*
X106520000Y-45050000D03*
D14*
X56940000Y-86800000D03*
D15*
X67100000Y-86800000D03*
D20*
X76375000Y-68050000D03*
D13*
X73835000Y-68050000D03*
D17*
X161600000Y-34800000D03*
D18*
X161600000Y-46200000D03*
X161600000Y-37900000D03*
D12*
X121840000Y-134350000D03*
X130640000Y-134350000D03*
D13*
X128740000Y-141350000D03*
X126240000Y-141350000D03*
X123740000Y-141350000D03*
D14*
X107270000Y-96800000D03*
D15*
X117430000Y-96800000D03*
D14*
X149100000Y-137460000D03*
D15*
X149100000Y-127300000D03*
D14*
X134380000Y-92300000D03*
D15*
X144540000Y-92300000D03*
D23*
X141600000Y-58530000D03*
D24*
X141600000Y-59800000D03*
X141600000Y-61070000D03*
D23*
X141600000Y-114030000D03*
D24*
X141600000Y-115300000D03*
X141600000Y-116570000D03*
D16*
X105800000Y-56100000D03*
D15*
X108340000Y-56100000D03*
X110880000Y-56100000D03*
X113420000Y-56100000D03*
X113420000Y-48480000D03*
X110880000Y-48480000D03*
X108340000Y-48480000D03*
X105800000Y-48480000D03*
D20*
X136600000Y-95525000D03*
D13*
X136600000Y-98065000D03*
D25*
X180600000Y-67800000D03*
D26*
X180600000Y-70340000D03*
D25*
X180600000Y-54300000D03*
D26*
X180600000Y-56840000D03*
X180600000Y-59380000D03*
X180600000Y-61920000D03*
D25*
X151600000Y-92300000D03*
D26*
X154140000Y-92300000D03*
X156680000Y-92300000D03*
X159220000Y-92300000D03*
D25*
X161600000Y-108800000D03*
D26*
X159060000Y-108800000D03*
M02*
