M48
; DRILL file {KiCad (6.0.0)} date Sat Apr 30 23:38:26 2022
; FORMAT={-:-/ absolute / metric / decimal}
; #@! TF.CreationDate,2022-04-30T23:38:26+02:00
; #@! TF.GenerationSoftware,Kicad,Pcbnew,(6.0.0)
; #@! TF.FileFunction,Plated,1,2,PTH
FMAT,2
METRIC
; #@! TA.AperFunction,Plated,PTH,ViaDrill
T1C0.400
; #@! TA.AperFunction,Plated,PTH,ComponentDrill
T2C0.750
; #@! TA.AperFunction,Plated,PTH,ComponentDrill
T3C0.800
; #@! TA.AperFunction,Plated,PTH,ComponentDrill
T4C0.900
; #@! TA.AperFunction,Plated,PTH,ComponentDrill
T5C1.000
; #@! TA.AperFunction,Plated,PTH,ComponentDrill
T6C1.220
; #@! TA.AperFunction,Plated,PTH,ComponentDrill
T7C1.300
; #@! TA.AperFunction,Plated,PTH,ComponentDrill
T8C1.420
; #@! TA.AperFunction,Plated,PTH,ComponentDrill
T9C1.430
; #@! TA.AperFunction,Plated,PTH,ComponentDrill
T10C3.202
%
G90
G05
T1
X124.1Y-107.3
X125.1Y-108.3
X137.35Y-125.05
X156.6Y-136.3
X156.6Y-137.3
X157.6Y-136.3
X157.6Y-137.3
T2
X141.6Y-40.03
X141.6Y-41.3
X141.6Y-42.57
X141.6Y-58.53
X141.6Y-59.8
X141.6Y-61.07
X141.6Y-77.03
X141.6Y-78.3
X141.6Y-79.57
X141.6Y-95.53
X141.6Y-96.8
X141.6Y-98.07
X141.6Y-114.03
X141.6Y-115.3
X141.6Y-116.57
X141.6Y-132.53
X141.6Y-133.8
X141.6Y-135.07
T3
X56.94Y-49.8
X56.94Y-68.3
X56.94Y-86.8
X56.94Y-105.3
X56.94Y-123.8
X56.94Y-141.8
X67.1Y-49.8
X67.1Y-68.3
X67.1Y-86.8
X67.1Y-105.3
X67.1Y-123.8
X67.1Y-141.8
X101.305Y-37.05
X101.35Y-59.8
X101.35Y-72.55
X101.555Y-97.8
X101.555Y-109.55
X101.6Y-140.3
X102.35Y-48.3
X102.35Y-53.3
X102.35Y-85.8
X102.35Y-90.8
X102.35Y-122.55
X102.35Y-127.55
X103.305Y-37.05
X103.35Y-59.8
X103.35Y-72.55
X103.555Y-97.8
X103.555Y-109.55
X103.6Y-140.3
X105.8Y-48.48
X105.8Y-56.1
X105.8Y-85.98
X105.8Y-93.6
X105.8Y-122.73
X105.8Y-130.35
X106.52Y-35.3
X106.52Y-38.55
X106.52Y-41.8
X106.52Y-45.05
X106.94Y-72.8
X106.94Y-76.05
X106.94Y-79.3
X106.94Y-82.55
X107.02Y-59.3
X107.02Y-62.55
X107.02Y-65.8
X107.02Y-69.05
X107.27Y-96.8
X107.27Y-100.05
X107.27Y-103.3
X107.27Y-106.55
X107.27Y-109.8
X107.27Y-113.05
X107.27Y-116.3
X107.27Y-119.55
X107.52Y-134.8
X107.52Y-138.05
X107.52Y-141.3
X108.34Y-48.48
X108.34Y-56.1
X108.34Y-85.98
X108.34Y-93.6
X108.34Y-122.73
X108.34Y-130.35
X110.88Y-48.48
X110.88Y-56.1
X110.88Y-85.98
X110.88Y-93.6
X110.88Y-122.73
X110.88Y-130.35
X113.42Y-48.48
X113.42Y-56.1
X113.42Y-85.98
X113.42Y-93.6
X113.42Y-122.73
X113.42Y-130.35
X116.68Y-35.3
X116.68Y-38.55
X116.68Y-41.8
X116.68Y-45.05
X116.85Y-51.3
X116.85Y-56.3
X116.85Y-88.8
X116.85Y-93.8
X116.85Y-125.55
X116.85Y-130.55
X117.1Y-72.8
X117.1Y-76.05
X117.1Y-79.3
X117.1Y-82.55
X117.18Y-59.3
X117.18Y-62.55
X117.18Y-65.8
X117.18Y-69.05
X117.43Y-96.8
X117.43Y-100.05
X117.43Y-103.3
X117.43Y-106.55
X117.43Y-109.8
X117.43Y-113.05
X117.43Y-116.3
X117.43Y-119.55
X117.68Y-134.8
X117.68Y-138.05
X117.68Y-141.3
X120.52Y-126.05
X120.85Y-89.3
X130.68Y-126.05
X131.01Y-89.3
X134.38Y-36.8
X134.38Y-45.8
X134.38Y-55.3
X134.38Y-64.3
X134.38Y-73.8
X134.38Y-82.8
X134.38Y-92.3
X134.38Y-101.3
X134.38Y-110.8
X134.38Y-119.8
X134.38Y-129.3
X134.38Y-138.3
X134.44Y-86.55
X144.54Y-36.8
X144.54Y-45.8
X144.54Y-55.3
X144.54Y-64.3
X144.54Y-73.8
X144.54Y-82.8
X144.54Y-92.3
X144.54Y-101.3
X144.54Y-110.8
X144.54Y-119.8
X144.54Y-129.3
X144.54Y-138.3
X144.6Y-86.55
X148.6Y-41.22
X148.6Y-51.38
X148.6Y-53.8
X148.6Y-63.96
X149.1Y-96.8
X149.1Y-106.96
X149.1Y-110.22
X149.1Y-120.38
X149.1Y-127.3
X149.1Y-137.46
X151.85Y-41.22
X151.85Y-51.38
X151.85Y-53.8
X151.85Y-63.96
X152.35Y-96.8
X152.35Y-106.96
X152.35Y-110.22
X152.35Y-120.38
X152.35Y-127.3
X152.35Y-137.46
X157.055Y-97.05
X159.055Y-97.05
X164.555Y-97.05
X166.555Y-97.05
X171.305Y-93.3
X173.305Y-93.3
X178.055Y-93.3
X180.055Y-93.3
T4
X73.835Y-49.55
X73.835Y-68.05
X73.835Y-86.55
X73.835Y-105.05
X73.835Y-123.55
X73.835Y-142.0
X76.375Y-49.55
X76.375Y-68.05
X76.375Y-86.55
X76.375Y-105.05
X76.375Y-123.55
X76.375Y-142.0
X136.6Y-40.03
X136.6Y-42.57
X136.6Y-58.525
X136.6Y-61.065
X136.6Y-77.025
X136.6Y-79.565
X136.6Y-95.525
X136.6Y-98.065
X136.6Y-114.025
X136.6Y-116.565
X136.6Y-132.525
X136.6Y-135.065
T5
X90.1Y-48.85
X90.1Y-67.35
X90.1Y-85.85
X90.1Y-104.35
X90.1Y-122.85
X90.1Y-141.35
X92.6Y-48.85
X92.6Y-67.35
X92.6Y-85.85
X92.6Y-104.35
X92.6Y-122.85
X92.6Y-141.35
X95.1Y-48.85
X95.1Y-67.35
X95.1Y-85.85
X95.1Y-104.35
X95.1Y-122.85
X95.1Y-141.35
X123.74Y-48.85
X123.74Y-67.35
X123.74Y-85.85
X123.74Y-104.35
X123.74Y-122.85
X123.74Y-141.35
X126.24Y-48.85
X126.24Y-67.35
X126.24Y-85.85
X126.24Y-104.35
X126.24Y-122.85
X126.24Y-141.35
X128.74Y-48.85
X128.74Y-67.35
X128.74Y-85.85
X128.74Y-104.35
X128.74Y-122.85
X128.74Y-141.35
X151.6Y-92.3
X154.14Y-92.3
X156.68Y-92.3
X159.06Y-108.8
X159.22Y-92.3
X161.6Y-108.8
X180.6Y-54.3
X180.6Y-56.84
X180.6Y-59.38
X180.6Y-61.92
X180.6Y-67.8
X180.6Y-70.34
T6
X53.56Y-34.8
X53.6Y-53.3
X53.6Y-71.8
X53.6Y-90.52
X53.6Y-108.8
X53.6Y-127.3
X63.56Y-34.8
X63.6Y-53.3
X63.6Y-71.8
X63.6Y-90.52
X63.6Y-108.8
X63.6Y-127.3
X161.6Y-34.8
X173.6Y-34.8
T7
X162.6Y-69.575
X164.6Y-69.575
X166.6Y-69.575
X168.6Y-69.575
X169.6Y-125.075
X170.6Y-69.575
X171.6Y-125.075
X172.6Y-69.575
X173.6Y-125.075
X175.6Y-125.075
X177.6Y-125.075
X179.6Y-125.075
T8
X53.56Y-37.9
X53.6Y-56.4
X53.6Y-74.9
X53.6Y-93.62
X53.6Y-111.9
X53.6Y-130.4
X63.56Y-37.9
X63.6Y-56.4
X63.6Y-74.9
X63.6Y-93.62
X63.6Y-111.9
X63.6Y-130.4
X161.6Y-37.9
X173.6Y-37.9
T9
X53.56Y-46.2
X53.6Y-64.7
X53.6Y-83.2
X53.6Y-101.92
X53.6Y-120.2
X53.6Y-138.7
X63.56Y-46.2
X63.6Y-64.7
X63.6Y-83.2
X63.6Y-101.92
X63.6Y-120.2
X63.6Y-138.7
X161.6Y-46.2
X173.6Y-46.2
T10
X161.8Y-58.575
X168.8Y-114.075
X173.4Y-58.575
X180.4Y-114.075
T5
X73.3Y-35.6G85X72.1Y-35.6
G05
X73.3Y-40.3G85X72.1Y-40.3
G05
X73.3Y-45.0G85X72.1Y-45.0
G05
X73.3Y-54.1G85X72.1Y-54.1
G05
X73.3Y-58.8G85X72.1Y-58.8
G05
X73.3Y-63.5G85X72.1Y-63.5
G05
X73.3Y-72.6G85X72.1Y-72.6
G05
X73.3Y-77.3G85X72.1Y-77.3
G05
X73.3Y-82.0G85X72.1Y-82.0
G05
X73.3Y-91.1G85X72.1Y-91.1
G05
X73.3Y-95.8G85X72.1Y-95.8
G05
X73.3Y-100.5G85X72.1Y-100.5
G05
X73.3Y-109.6G85X72.1Y-109.6
G05
X73.3Y-114.3G85X72.1Y-114.3
G05
X73.3Y-119.0G85X72.1Y-119.0
G05
X73.3Y-128.1G85X72.1Y-128.1
G05
X73.3Y-132.8G85X72.1Y-132.8
G05
X73.3Y-137.5G85X72.1Y-137.5
G05
X78.1Y-35.6G85X76.9Y-35.6
G05
X78.1Y-40.3G85X76.9Y-40.3
G05
X78.1Y-45.0G85X76.9Y-45.0
G05
X78.1Y-54.1G85X76.9Y-54.1
G05
X78.1Y-58.8G85X76.9Y-58.8
G05
X78.1Y-63.5G85X76.9Y-63.5
G05
X78.1Y-72.6G85X76.9Y-72.6
G05
X78.1Y-77.3G85X76.9Y-77.3
G05
X78.1Y-82.0G85X76.9Y-82.0
G05
X78.1Y-91.1G85X76.9Y-91.1
G05
X78.1Y-95.8G85X76.9Y-95.8
G05
X78.1Y-100.5G85X76.9Y-100.5
G05
X78.1Y-109.6G85X76.9Y-109.6
G05
X78.1Y-114.3G85X76.9Y-114.3
G05
X78.1Y-119.0G85X76.9Y-119.0
G05
X78.1Y-128.1G85X76.9Y-128.1
G05
X78.1Y-132.8G85X76.9Y-132.8
G05
X78.1Y-137.5G85X76.9Y-137.5
G05
T0
M30
