G04 #@! TF.GenerationSoftware,KiCad,Pcbnew,(6.0.0)*
G04 #@! TF.CreationDate,2022-04-30T23:11:35+02:00*
G04 #@! TF.ProjectId,Output-mixer,4f757470-7574-42d6-9d69-7865722e6b69,rev?*
G04 #@! TF.SameCoordinates,Original*
G04 #@! TF.FileFunction,Soldermask,Bot*
G04 #@! TF.FilePolarity,Negative*
%FSLAX46Y46*%
G04 Gerber Fmt 4.6, Leading zero omitted, Abs format (unit mm)*
G04 Created by KiCad (PCBNEW (6.0.0)) date 2022-04-30 23:11:35*
%MOMM*%
%LPD*%
G01*
G04 APERTURE LIST*
%ADD10C,0.100000*%
G04 #@! TA.AperFunction,Profile*
%ADD11C,0.050000*%
G04 #@! TD*
%ADD12O,6.700000X4.200000*%
G04 APERTURE END LIST*
D10*
X117146447Y-54146447D02*
X112146447Y-54146447D01*
X112146447Y-54146447D02*
X112146447Y-49146447D01*
X112146447Y-49146447D02*
X117146447Y-49146447D01*
X117146447Y-49146447D02*
X117146447Y-54146447D01*
G36*
X117146447Y-54146447D02*
G01*
X112146447Y-54146447D01*
X112146447Y-49146447D01*
X117146447Y-49146447D01*
X117146447Y-54146447D01*
G37*
X117146447Y-54146447D02*
X112146447Y-54146447D01*
X112146447Y-49146447D01*
X117146447Y-49146447D01*
X117146447Y-54146447D01*
X55646447Y-62396447D02*
X50646447Y-62396447D01*
X50646447Y-62396447D02*
X50646447Y-57396447D01*
X50646447Y-57396447D02*
X55646447Y-57396447D01*
X55646447Y-57396447D02*
X55646447Y-62396447D01*
G36*
X55646447Y-62396447D02*
G01*
X50646447Y-62396447D01*
X50646447Y-57396447D01*
X55646447Y-57396447D01*
X55646447Y-62396447D01*
G37*
X55646447Y-62396447D02*
X50646447Y-62396447D01*
X50646447Y-57396447D01*
X55646447Y-57396447D01*
X55646447Y-62396447D01*
X117146447Y-128146447D02*
X112146447Y-128146447D01*
X112146447Y-128146447D02*
X112146447Y-123146447D01*
X112146447Y-123146447D02*
X117146447Y-123146447D01*
X117146447Y-123146447D02*
X117146447Y-128146447D01*
G36*
X117146447Y-128146447D02*
G01*
X112146447Y-128146447D01*
X112146447Y-123146447D01*
X117146447Y-123146447D01*
X117146447Y-128146447D01*
G37*
X117146447Y-128146447D02*
X112146447Y-128146447D01*
X112146447Y-123146447D01*
X117146447Y-123146447D01*
X117146447Y-128146447D01*
X55646447Y-117896447D02*
X50646447Y-117896447D01*
X50646447Y-117896447D02*
X50646447Y-112896447D01*
X50646447Y-112896447D02*
X55646447Y-112896447D01*
X55646447Y-112896447D02*
X55646447Y-117896447D01*
G36*
X55646447Y-117896447D02*
G01*
X50646447Y-117896447D01*
X50646447Y-112896447D01*
X55646447Y-112896447D01*
X55646447Y-117896447D01*
G37*
X55646447Y-117896447D02*
X50646447Y-117896447D01*
X50646447Y-112896447D01*
X55646447Y-112896447D01*
X55646447Y-117896447D01*
X117146447Y-72646447D02*
X112146447Y-72646447D01*
X112146447Y-72646447D02*
X112146447Y-67646447D01*
X112146447Y-67646447D02*
X117146447Y-67646447D01*
X117146447Y-67646447D02*
X117146447Y-72646447D01*
G36*
X117146447Y-72646447D02*
G01*
X112146447Y-72646447D01*
X112146447Y-67646447D01*
X117146447Y-67646447D01*
X117146447Y-72646447D01*
G37*
X117146447Y-72646447D02*
X112146447Y-72646447D01*
X112146447Y-67646447D01*
X117146447Y-67646447D01*
X117146447Y-72646447D01*
X117146447Y-91146447D02*
X112146447Y-91146447D01*
X112146447Y-91146447D02*
X112146447Y-86146447D01*
X112146447Y-86146447D02*
X117146447Y-86146447D01*
X117146447Y-86146447D02*
X117146447Y-91146447D01*
G36*
X117146447Y-91146447D02*
G01*
X112146447Y-91146447D01*
X112146447Y-86146447D01*
X117146447Y-86146447D01*
X117146447Y-91146447D01*
G37*
X117146447Y-91146447D02*
X112146447Y-91146447D01*
X112146447Y-86146447D01*
X117146447Y-86146447D01*
X117146447Y-91146447D01*
X117146447Y-109646447D02*
X112146447Y-109646447D01*
X112146447Y-109646447D02*
X112146447Y-104646447D01*
X112146447Y-104646447D02*
X117146447Y-104646447D01*
X117146447Y-104646447D02*
X117146447Y-109646447D01*
G36*
X117146447Y-109646447D02*
G01*
X112146447Y-109646447D01*
X112146447Y-104646447D01*
X117146447Y-104646447D01*
X117146447Y-109646447D01*
G37*
X117146447Y-109646447D02*
X112146447Y-109646447D01*
X112146447Y-104646447D01*
X117146447Y-104646447D01*
X117146447Y-109646447D01*
X117146447Y-146646447D02*
X112146447Y-146646447D01*
X112146447Y-146646447D02*
X112146447Y-141646447D01*
X112146447Y-141646447D02*
X117146447Y-141646447D01*
X117146447Y-141646447D02*
X117146447Y-146646447D01*
G36*
X117146447Y-146646447D02*
G01*
X112146447Y-146646447D01*
X112146447Y-141646447D01*
X117146447Y-141646447D01*
X117146447Y-146646447D01*
G37*
X117146447Y-146646447D02*
X112146447Y-146646447D01*
X112146447Y-141646447D01*
X117146447Y-141646447D01*
X117146447Y-146646447D01*
X55646447Y-154896447D02*
X50646447Y-154896447D01*
X50646447Y-154896447D02*
X50646447Y-149896447D01*
X50646447Y-149896447D02*
X55646447Y-149896447D01*
X55646447Y-149896447D02*
X55646447Y-154896447D01*
G36*
X55646447Y-154896447D02*
G01*
X50646447Y-154896447D01*
X50646447Y-149896447D01*
X55646447Y-149896447D01*
X55646447Y-154896447D01*
G37*
X55646447Y-154896447D02*
X50646447Y-154896447D01*
X50646447Y-149896447D01*
X55646447Y-149896447D01*
X55646447Y-154896447D01*
X55646447Y-99396447D02*
X50646447Y-99396447D01*
X50646447Y-99396447D02*
X50646447Y-94396447D01*
X50646447Y-94396447D02*
X55646447Y-94396447D01*
X55646447Y-94396447D02*
X55646447Y-99396447D01*
G36*
X55646447Y-99396447D02*
G01*
X50646447Y-99396447D01*
X50646447Y-94396447D01*
X55646447Y-94396447D01*
X55646447Y-99396447D01*
G37*
X55646447Y-99396447D02*
X50646447Y-99396447D01*
X50646447Y-94396447D01*
X55646447Y-94396447D01*
X55646447Y-99396447D01*
X55646447Y-80896447D02*
X50646447Y-80896447D01*
X50646447Y-80896447D02*
X50646447Y-75896447D01*
X50646447Y-75896447D02*
X55646447Y-75896447D01*
X55646447Y-75896447D02*
X55646447Y-80896447D01*
G36*
X55646447Y-80896447D02*
G01*
X50646447Y-80896447D01*
X50646447Y-75896447D01*
X55646447Y-75896447D01*
X55646447Y-80896447D01*
G37*
X55646447Y-80896447D02*
X50646447Y-80896447D01*
X50646447Y-75896447D01*
X55646447Y-75896447D01*
X55646447Y-80896447D01*
X55646447Y-136396447D02*
X50646447Y-136396447D01*
X50646447Y-136396447D02*
X50646447Y-131396447D01*
X50646447Y-131396447D02*
X55646447Y-131396447D01*
X55646447Y-131396447D02*
X55646447Y-136396447D01*
G36*
X55646447Y-136396447D02*
G01*
X50646447Y-136396447D01*
X50646447Y-131396447D01*
X55646447Y-131396447D01*
X55646447Y-136396447D01*
G37*
X55646447Y-136396447D02*
X50646447Y-136396447D01*
X50646447Y-131396447D01*
X55646447Y-131396447D01*
X55646447Y-136396447D01*
D11*
X26646447Y-34646447D02*
X26646447Y-162646447D01*
X26646447Y-34646447D02*
X161646447Y-34646447D01*
X161646447Y-34646447D02*
X161646447Y-162646447D01*
X161646447Y-162646447D02*
X26646447Y-162646447D01*
D12*
X146646447Y-159646447D03*
X41646447Y-159646447D03*
X146646447Y-37646447D03*
X41646447Y-37646447D03*
M02*
