G04 #@! TF.GenerationSoftware,KiCad,Pcbnew,(6.0.1)*
G04 #@! TF.CreationDate,2022-09-12T17:21:21+02:00*
G04 #@! TF.ProjectId,Output-mixer,4f757470-7574-42d6-9d69-7865722e6b69,rev?*
G04 #@! TF.SameCoordinates,Original*
G04 #@! TF.FileFunction,Legend,Bot*
G04 #@! TF.FilePolarity,Positive*
%FSLAX46Y46*%
G04 Gerber Fmt 4.6, Leading zero omitted, Abs format (unit mm)*
G04 Created by KiCad (PCBNEW (6.0.1)) date 2022-09-12 17:21:21*
%MOMM*%
%LPD*%
G01*
G04 APERTURE LIST*
G04 #@! TA.AperFunction,Profile*
%ADD10C,0.050000*%
G04 #@! TD*
%ADD11C,0.150000*%
%ADD12C,0.100000*%
%ADD13O,6.700000X4.200000*%
G04 APERTURE END LIST*
D10*
X33625000Y-34550000D02*
X33625000Y-162550000D01*
X33625000Y-34550000D02*
X168625000Y-34550000D01*
X168625000Y-34550000D02*
X168625000Y-162550000D01*
X168625000Y-162550000D02*
X33625000Y-162550000D01*
D11*
X167672619Y-45169047D02*
X166958333Y-45169047D01*
X166815476Y-45216666D01*
X166720238Y-45311904D01*
X166672619Y-45454761D01*
X166672619Y-45550000D01*
X166672619Y-44216666D02*
X166672619Y-44692857D01*
X167672619Y-44692857D01*
X166767857Y-43311904D02*
X166720238Y-43359523D01*
X166672619Y-43502380D01*
X166672619Y-43597619D01*
X166720238Y-43740476D01*
X166815476Y-43835714D01*
X166910714Y-43883333D01*
X167101190Y-43930952D01*
X167244047Y-43930952D01*
X167434523Y-43883333D01*
X167529761Y-43835714D01*
X167625000Y-43740476D01*
X167672619Y-43597619D01*
X167672619Y-43502380D01*
X167625000Y-43359523D01*
X167577380Y-43311904D01*
X167672619Y-42597619D02*
X166958333Y-42597619D01*
X166815476Y-42645238D01*
X166720238Y-42740476D01*
X166672619Y-42883333D01*
X166672619Y-42978571D01*
X166672619Y-41645238D02*
X166672619Y-42121428D01*
X167672619Y-42121428D01*
X166767857Y-40740476D02*
X166720238Y-40788095D01*
X166672619Y-40930952D01*
X166672619Y-41026190D01*
X166720238Y-41169047D01*
X166815476Y-41264285D01*
X166910714Y-41311904D01*
X167101190Y-41359523D01*
X167244047Y-41359523D01*
X167434523Y-41311904D01*
X167529761Y-41264285D01*
X167625000Y-41169047D01*
X167672619Y-41026190D01*
X167672619Y-40930952D01*
X167625000Y-40788095D01*
X167577380Y-40740476D01*
X167672619Y-40026190D02*
X166958333Y-40026190D01*
X166815476Y-40073809D01*
X166720238Y-40169047D01*
X166672619Y-40311904D01*
X166672619Y-40407142D01*
X166672619Y-39073809D02*
X166672619Y-39550000D01*
X167672619Y-39550000D01*
X166767857Y-38169047D02*
X166720238Y-38216666D01*
X166672619Y-38359523D01*
X166672619Y-38454761D01*
X166720238Y-38597619D01*
X166815476Y-38692857D01*
X166910714Y-38740476D01*
X167101190Y-38788095D01*
X167244047Y-38788095D01*
X167434523Y-38740476D01*
X167529761Y-38692857D01*
X167625000Y-38597619D01*
X167672619Y-38454761D01*
X167672619Y-38359523D01*
X167625000Y-38216666D01*
X167577380Y-38169047D01*
X167672619Y-37454761D02*
X166958333Y-37454761D01*
X166815476Y-37502380D01*
X166720238Y-37597619D01*
X166672619Y-37740476D01*
X166672619Y-37835714D01*
X166672619Y-36502380D02*
X166672619Y-36978571D01*
X167672619Y-36978571D01*
X166767857Y-35597619D02*
X166720238Y-35645238D01*
X166672619Y-35788095D01*
X166672619Y-35883333D01*
X166720238Y-36026190D01*
X166815476Y-36121428D01*
X166910714Y-36169047D01*
X167101190Y-36216666D01*
X167244047Y-36216666D01*
X167434523Y-36169047D01*
X167529761Y-36121428D01*
X167625000Y-36026190D01*
X167672619Y-35883333D01*
X167672619Y-35788095D01*
X167625000Y-35645238D01*
X167577380Y-35597619D01*
%LPC*%
D12*
X124095000Y-54550000D02*
X119095000Y-54550000D01*
X119095000Y-54550000D02*
X119095000Y-49550000D01*
X119095000Y-49550000D02*
X124095000Y-49550000D01*
X124095000Y-49550000D02*
X124095000Y-54550000D01*
G36*
X124095000Y-54550000D02*
G01*
X119095000Y-54550000D01*
X119095000Y-49550000D01*
X124095000Y-49550000D01*
X124095000Y-54550000D01*
G37*
X124095000Y-54550000D02*
X119095000Y-54550000D01*
X119095000Y-49550000D01*
X124095000Y-49550000D01*
X124095000Y-54550000D01*
X124095000Y-128550001D02*
X119095000Y-128550001D01*
X119095000Y-128550001D02*
X119095000Y-123550001D01*
X119095000Y-123550001D02*
X124095000Y-123550001D01*
X124095000Y-123550001D02*
X124095000Y-128550001D01*
G36*
X124095000Y-128550001D02*
G01*
X119095000Y-128550001D01*
X119095000Y-123550001D01*
X124095000Y-123550001D01*
X124095000Y-128550001D01*
G37*
X124095000Y-128550001D02*
X119095000Y-128550001D01*
X119095000Y-123550001D01*
X124095000Y-123550001D01*
X124095000Y-128550001D01*
X124095000Y-73050000D02*
X119095000Y-73050000D01*
X119095000Y-73050000D02*
X119095000Y-68050000D01*
X119095000Y-68050000D02*
X124095000Y-68050000D01*
X124095000Y-68050000D02*
X124095000Y-73050000D01*
G36*
X124095000Y-73050000D02*
G01*
X119095000Y-73050000D01*
X119095000Y-68050000D01*
X124095000Y-68050000D01*
X124095000Y-73050000D01*
G37*
X124095000Y-73050000D02*
X119095000Y-73050000D01*
X119095000Y-68050000D01*
X124095000Y-68050000D01*
X124095000Y-73050000D01*
X124095000Y-91550000D02*
X119095000Y-91550000D01*
X119095000Y-91550000D02*
X119095000Y-86550000D01*
X119095000Y-86550000D02*
X124095000Y-86550000D01*
X124095000Y-86550000D02*
X124095000Y-91550000D01*
G36*
X124095000Y-91550000D02*
G01*
X119095000Y-91550000D01*
X119095000Y-86550000D01*
X124095000Y-86550000D01*
X124095000Y-91550000D01*
G37*
X124095000Y-91550000D02*
X119095000Y-91550000D01*
X119095000Y-86550000D01*
X124095000Y-86550000D01*
X124095000Y-91550000D01*
X124095000Y-110050000D02*
X119095000Y-110050000D01*
X119095000Y-110050000D02*
X119095000Y-105050000D01*
X119095000Y-105050000D02*
X124095000Y-105050000D01*
X124095000Y-105050000D02*
X124095000Y-110050000D01*
G36*
X124095000Y-110050000D02*
G01*
X119095000Y-110050000D01*
X119095000Y-105050000D01*
X124095000Y-105050000D01*
X124095000Y-110050000D01*
G37*
X124095000Y-110050000D02*
X119095000Y-110050000D01*
X119095000Y-105050000D01*
X124095000Y-105050000D01*
X124095000Y-110050000D01*
X124095000Y-147050000D02*
X119095000Y-147050000D01*
X119095000Y-147050000D02*
X119095000Y-142050000D01*
X119095000Y-142050000D02*
X124095000Y-142050000D01*
X124095000Y-142050000D02*
X124095000Y-147050000D01*
G36*
X124095000Y-147050000D02*
G01*
X119095000Y-147050000D01*
X119095000Y-142050000D01*
X124095000Y-142050000D01*
X124095000Y-147050000D01*
G37*
X124095000Y-147050000D02*
X119095000Y-147050000D01*
X119095000Y-142050000D01*
X124095000Y-142050000D01*
X124095000Y-147050000D01*
D13*
X153625000Y-159550000D03*
X48625000Y-159550000D03*
X153625000Y-37550000D03*
X48625000Y-37550000D03*
M02*
