G04 #@! TF.GenerationSoftware,KiCad,Pcbnew,(6.0.1)*
G04 #@! TF.CreationDate,2022-07-08T14:04:56+02:00*
G04 #@! TF.ProjectId,Distrib,44697374-7269-4622-9e6b-696361645f70,rev?*
G04 #@! TF.SameCoordinates,Original*
G04 #@! TF.FileFunction,Copper,L1,Top*
G04 #@! TF.FilePolarity,Positive*
%FSLAX46Y46*%
G04 Gerber Fmt 4.6, Leading zero omitted, Abs format (unit mm)*
G04 Created by KiCad (PCBNEW (6.0.1)) date 2022-07-08 14:04:56*
%MOMM*%
%LPD*%
G01*
G04 APERTURE LIST*
G04 #@! TA.AperFunction,Profile*
%ADD10C,0.150000*%
G04 #@! TD*
G04 #@! TA.AperFunction,ComponentPad*
%ADD11C,3.000000*%
G04 #@! TD*
G04 #@! TA.AperFunction,ComponentPad*
%ADD12R,3.000000X3.000000*%
G04 #@! TD*
G04 #@! TA.AperFunction,ComponentPad*
%ADD13R,1.600000X1.600000*%
G04 #@! TD*
G04 #@! TA.AperFunction,ComponentPad*
%ADD14C,1.600000*%
G04 #@! TD*
G04 #@! TA.AperFunction,ComponentPad*
%ADD15C,1.800000*%
G04 #@! TD*
G04 #@! TA.AperFunction,ComponentPad*
%ADD16R,1.800000X1.800000*%
G04 #@! TD*
G04 #@! TA.AperFunction,ComponentPad*
%ADD17R,1.700000X1.700000*%
G04 #@! TD*
G04 #@! TA.AperFunction,ComponentPad*
%ADD18O,1.700000X1.700000*%
G04 #@! TD*
G04 #@! TA.AperFunction,ComponentPad*
%ADD19O,1.600000X1.600000*%
G04 #@! TD*
G04 #@! TA.AperFunction,ComponentPad*
%ADD20C,2.000000*%
G04 #@! TD*
G04 #@! TA.AperFunction,ViaPad*
%ADD21C,3.800000*%
G04 #@! TD*
G04 #@! TA.AperFunction,Conductor*
%ADD22C,1.000000*%
G04 #@! TD*
G04 #@! TA.AperFunction,Conductor*
%ADD23C,0.600000*%
G04 #@! TD*
G04 APERTURE END LIST*
D10*
X231000000Y-54000000D02*
X51000000Y-54000000D01*
X231000000Y-54000000D02*
X231000000Y-88000000D01*
X51000000Y-88000000D02*
X231000000Y-88000000D01*
X51000000Y-54000000D02*
X51000000Y-88000000D01*
D11*
X145580000Y-60000000D03*
X140500000Y-60000000D03*
D12*
X135420000Y-60000000D03*
D13*
X133455113Y-81000000D03*
D14*
X131455113Y-81000000D03*
D13*
X147544888Y-81500000D03*
D14*
X149544888Y-81500000D03*
D15*
X113540000Y-59000000D03*
D16*
X111000000Y-59000000D03*
D17*
X181000000Y-76000000D03*
D18*
X178460000Y-76000000D03*
X181000000Y-73460000D03*
X178460000Y-73460000D03*
X181000000Y-70920000D03*
X178460000Y-70920000D03*
X181000000Y-68380000D03*
X178460000Y-68380000D03*
X181000000Y-65840000D03*
X178460000Y-65840000D03*
D17*
X203000000Y-76000000D03*
D18*
X200460000Y-76000000D03*
X203000000Y-73460000D03*
X200460000Y-73460000D03*
X203000000Y-70920000D03*
X200460000Y-70920000D03*
X203000000Y-68380000D03*
X200460000Y-68380000D03*
X203000000Y-65840000D03*
X200460000Y-65840000D03*
D17*
X125500000Y-76000000D03*
D18*
X122960000Y-76000000D03*
X125500000Y-73460000D03*
X122960000Y-73460000D03*
X125500000Y-70920000D03*
X122960000Y-70920000D03*
X125500000Y-68380000D03*
X122960000Y-68380000D03*
X125500000Y-65840000D03*
X122960000Y-65840000D03*
D17*
X159000000Y-76000000D03*
D18*
X156460000Y-76000000D03*
X159000000Y-73460000D03*
X156460000Y-73460000D03*
X159000000Y-70920000D03*
X156460000Y-70920000D03*
X159000000Y-68380000D03*
X156460000Y-68380000D03*
X159000000Y-65840000D03*
X156460000Y-65840000D03*
D17*
X103500000Y-76000000D03*
D18*
X100960000Y-76000000D03*
X103500000Y-73460000D03*
X100960000Y-73460000D03*
X103500000Y-70920000D03*
X100960000Y-70920000D03*
X103500000Y-68380000D03*
X100960000Y-68380000D03*
X103500000Y-65840000D03*
X100960000Y-65840000D03*
D17*
X225000000Y-76000000D03*
D18*
X222460000Y-76000000D03*
X225000000Y-73460000D03*
X222460000Y-73460000D03*
X225000000Y-70920000D03*
X222460000Y-70920000D03*
X225000000Y-68380000D03*
X222460000Y-68380000D03*
X225000000Y-65840000D03*
X222460000Y-65840000D03*
D19*
X130625000Y-59000000D03*
D14*
X117925000Y-59000000D03*
D20*
X140500000Y-70500000D03*
X145500000Y-70500000D03*
D17*
X59500000Y-76000000D03*
D18*
X56960000Y-76000000D03*
X59500000Y-73460000D03*
X56960000Y-73460000D03*
X59500000Y-70920000D03*
X56960000Y-70920000D03*
X59500000Y-68380000D03*
X56960000Y-68380000D03*
X59500000Y-65840000D03*
X56960000Y-65840000D03*
D20*
X135500000Y-70500000D03*
D15*
X154040000Y-59000000D03*
D16*
X151500000Y-59000000D03*
D17*
X81500000Y-76000000D03*
D18*
X78960000Y-76000000D03*
X81500000Y-73460000D03*
X78960000Y-73460000D03*
X81500000Y-70920000D03*
X78960000Y-70920000D03*
X81500000Y-68380000D03*
X78960000Y-68380000D03*
X81500000Y-65840000D03*
X78960000Y-65840000D03*
D19*
X158650000Y-59000000D03*
D14*
X171350000Y-59000000D03*
D21*
X54000000Y-57000000D03*
X228000000Y-57000000D03*
X54000000Y-85000000D03*
X228000000Y-85000000D03*
D22*
X145500000Y-70500000D02*
X145500000Y-76000000D01*
X135500000Y-65840000D02*
X135500000Y-70500000D01*
X135500000Y-60080000D02*
X135420000Y-60000000D01*
X135500000Y-65840000D02*
X135500000Y-60080000D01*
D23*
X134420000Y-59000000D02*
X135420000Y-60000000D01*
X130625000Y-59000000D02*
X134420000Y-59000000D01*
X146580000Y-59000000D02*
X145580000Y-60000000D01*
X151500000Y-59000000D02*
X146580000Y-59000000D01*
X127500000Y-81000000D02*
X125500000Y-79000000D01*
X125500000Y-79000000D02*
X125500000Y-76000000D01*
X131455113Y-81000000D02*
X127500000Y-81000000D01*
X117925000Y-59000000D02*
X113540000Y-59000000D01*
X154040000Y-59000000D02*
X158650000Y-59000000D01*
D22*
X135500000Y-65840000D02*
X156460000Y-65840000D01*
X125500000Y-65840000D02*
X135500000Y-65840000D01*
X159000000Y-65840000D02*
X156460000Y-65840000D01*
X159000000Y-65840000D02*
X178460000Y-65840000D01*
X181000000Y-65840000D02*
X178460000Y-65840000D01*
X181000000Y-65840000D02*
X200460000Y-65840000D01*
X203000000Y-65840000D02*
X200460000Y-65840000D01*
X222460000Y-65840000D02*
X203000000Y-65840000D01*
X225000000Y-65840000D02*
X222460000Y-65840000D01*
X222460000Y-76000000D02*
X225000000Y-76000000D01*
X203000000Y-76000000D02*
X222460000Y-76000000D01*
X200460000Y-76000000D02*
X203000000Y-76000000D01*
X181000000Y-76000000D02*
X200460000Y-76000000D01*
X178460000Y-76000000D02*
X181000000Y-76000000D01*
X159000000Y-76000000D02*
X178460000Y-76000000D01*
X156460000Y-76000000D02*
X159000000Y-76000000D01*
X145500000Y-76000000D02*
X156460000Y-76000000D01*
X145500000Y-76000000D02*
X125500000Y-76000000D01*
X122960000Y-76000000D02*
X125500000Y-76000000D01*
X103500000Y-76000000D02*
X122960000Y-76000000D01*
X100960000Y-76000000D02*
X103500000Y-76000000D01*
X81500000Y-76000000D02*
X100960000Y-76000000D01*
X78960000Y-76000000D02*
X81500000Y-76000000D01*
X59500000Y-76000000D02*
X78960000Y-76000000D01*
X56960000Y-76000000D02*
X59500000Y-76000000D01*
X122960000Y-65840000D02*
X125500000Y-65840000D01*
X103500000Y-65840000D02*
X122960000Y-65840000D01*
X100960000Y-65840000D02*
X103500000Y-65840000D01*
X81500000Y-65840000D02*
X100960000Y-65840000D01*
X78960000Y-65840000D02*
X81500000Y-65840000D01*
X59500000Y-65840000D02*
X78960000Y-65840000D01*
X56960000Y-65840000D02*
X59500000Y-65840000D01*
G04 #@! TA.AperFunction,Conductor*
G36*
X230434121Y-54528002D02*
G01*
X230480614Y-54581658D01*
X230492000Y-54634000D01*
X230492000Y-87366000D01*
X230471998Y-87434121D01*
X230418342Y-87480614D01*
X230366000Y-87492000D01*
X51634000Y-87492000D01*
X51565879Y-87471998D01*
X51519386Y-87418342D01*
X51508000Y-87366000D01*
X51508000Y-82348134D01*
X146236388Y-82348134D01*
X146243143Y-82410316D01*
X146294273Y-82546705D01*
X146381627Y-82663261D01*
X146498183Y-82750615D01*
X146634572Y-82801745D01*
X146696754Y-82808500D01*
X148393022Y-82808500D01*
X148455204Y-82801745D01*
X148591593Y-82750615D01*
X148637390Y-82716292D01*
X148700966Y-82668645D01*
X148700969Y-82668642D01*
X148708149Y-82663261D01*
X148713530Y-82656081D01*
X148719881Y-82649730D01*
X148722023Y-82651872D01*
X148766734Y-82618436D01*
X148837552Y-82613406D01*
X148878923Y-82631523D01*
X148879120Y-82631182D01*
X148882186Y-82632952D01*
X148882978Y-82633299D01*
X148883877Y-82633929D01*
X148893377Y-82639414D01*
X149090835Y-82731490D01*
X149101127Y-82735236D01*
X149311576Y-82791625D01*
X149322369Y-82793528D01*
X149539413Y-82812517D01*
X149550363Y-82812517D01*
X149767407Y-82793528D01*
X149778200Y-82791625D01*
X149988649Y-82735236D01*
X149998941Y-82731490D01*
X150196399Y-82639414D01*
X150205894Y-82633931D01*
X150257936Y-82597491D01*
X150266312Y-82587012D01*
X150259244Y-82573566D01*
X149274773Y-81589095D01*
X149240747Y-81526783D01*
X149242582Y-81501132D01*
X149909296Y-81501132D01*
X149909427Y-81502965D01*
X149913678Y-81509580D01*
X150619175Y-82215077D01*
X150630950Y-82221507D01*
X150642965Y-82212211D01*
X150678819Y-82161006D01*
X150684302Y-82151511D01*
X150776378Y-81954053D01*
X150780124Y-81943761D01*
X150836513Y-81733312D01*
X150838416Y-81722519D01*
X150857405Y-81505475D01*
X150857405Y-81494525D01*
X150838416Y-81277481D01*
X150836513Y-81266688D01*
X150780124Y-81056239D01*
X150776378Y-81045947D01*
X150684302Y-80848489D01*
X150678819Y-80838994D01*
X150642379Y-80786952D01*
X150631900Y-80778576D01*
X150618454Y-80785644D01*
X149916910Y-81487188D01*
X149909296Y-81501132D01*
X149242582Y-81501132D01*
X149245812Y-81455968D01*
X149274773Y-81410905D01*
X150259965Y-80425713D01*
X150266395Y-80413938D01*
X150257099Y-80401923D01*
X150205894Y-80366069D01*
X150196399Y-80360586D01*
X149998941Y-80268510D01*
X149988649Y-80264764D01*
X149778200Y-80208375D01*
X149767407Y-80206472D01*
X149550363Y-80187483D01*
X149539413Y-80187483D01*
X149322369Y-80206472D01*
X149311576Y-80208375D01*
X149101127Y-80264764D01*
X149090835Y-80268510D01*
X148893377Y-80360586D01*
X148883877Y-80366071D01*
X148882978Y-80366701D01*
X148882518Y-80366856D01*
X148879120Y-80368818D01*
X148878726Y-80368135D01*
X148815704Y-80389388D01*
X148746844Y-80372102D01*
X148721085Y-80349066D01*
X148719881Y-80350270D01*
X148713530Y-80343919D01*
X148708149Y-80336739D01*
X148700969Y-80331358D01*
X148700966Y-80331355D01*
X148612113Y-80264764D01*
X148591593Y-80249385D01*
X148455204Y-80198255D01*
X148393022Y-80191500D01*
X146696754Y-80191500D01*
X146634572Y-80198255D01*
X146498183Y-80249385D01*
X146381627Y-80336739D01*
X146294273Y-80453295D01*
X146243143Y-80589684D01*
X146236388Y-80651866D01*
X146236388Y-82348134D01*
X51508000Y-82348134D01*
X51508000Y-75966695D01*
X55597251Y-75966695D01*
X55610110Y-76189715D01*
X55611247Y-76194761D01*
X55611248Y-76194767D01*
X55635304Y-76301508D01*
X55659222Y-76407639D01*
X55743266Y-76614616D01*
X55859987Y-76805088D01*
X56006250Y-76973938D01*
X56178126Y-77116632D01*
X56371000Y-77229338D01*
X56579692Y-77309030D01*
X56584760Y-77310061D01*
X56584763Y-77310062D01*
X56692017Y-77331883D01*
X56798597Y-77353567D01*
X56803772Y-77353757D01*
X56803774Y-77353757D01*
X57016673Y-77361564D01*
X57016677Y-77361564D01*
X57021837Y-77361753D01*
X57026957Y-77361097D01*
X57026959Y-77361097D01*
X57238288Y-77334025D01*
X57238289Y-77334025D01*
X57243416Y-77333368D01*
X57248366Y-77331883D01*
X57452429Y-77270661D01*
X57452434Y-77270659D01*
X57457384Y-77269174D01*
X57657994Y-77170896D01*
X57839860Y-77041173D01*
X57842886Y-77038157D01*
X57907588Y-77009570D01*
X57923976Y-77008500D01*
X58078991Y-77008500D01*
X58147112Y-77028502D01*
X58193605Y-77082158D01*
X58195903Y-77087694D01*
X58196232Y-77088296D01*
X58199385Y-77096705D01*
X58286739Y-77213261D01*
X58403295Y-77300615D01*
X58539684Y-77351745D01*
X58601866Y-77358500D01*
X60398134Y-77358500D01*
X60460316Y-77351745D01*
X60596705Y-77300615D01*
X60713261Y-77213261D01*
X60800615Y-77096705D01*
X60803767Y-77088296D01*
X60808077Y-77080425D01*
X60809741Y-77081336D01*
X60845663Y-77033510D01*
X60912224Y-77008807D01*
X60921009Y-77008500D01*
X78002393Y-77008500D01*
X78070514Y-77028502D01*
X78082877Y-77037555D01*
X78178126Y-77116632D01*
X78371000Y-77229338D01*
X78579692Y-77309030D01*
X78584760Y-77310061D01*
X78584763Y-77310062D01*
X78692017Y-77331883D01*
X78798597Y-77353567D01*
X78803772Y-77353757D01*
X78803774Y-77353757D01*
X79016673Y-77361564D01*
X79016677Y-77361564D01*
X79021837Y-77361753D01*
X79026957Y-77361097D01*
X79026959Y-77361097D01*
X79238288Y-77334025D01*
X79238289Y-77334025D01*
X79243416Y-77333368D01*
X79248366Y-77331883D01*
X79452429Y-77270661D01*
X79452434Y-77270659D01*
X79457384Y-77269174D01*
X79657994Y-77170896D01*
X79839860Y-77041173D01*
X79842886Y-77038157D01*
X79907588Y-77009570D01*
X79923976Y-77008500D01*
X80078991Y-77008500D01*
X80147112Y-77028502D01*
X80193605Y-77082158D01*
X80195903Y-77087694D01*
X80196232Y-77088296D01*
X80199385Y-77096705D01*
X80286739Y-77213261D01*
X80403295Y-77300615D01*
X80539684Y-77351745D01*
X80601866Y-77358500D01*
X82398134Y-77358500D01*
X82460316Y-77351745D01*
X82596705Y-77300615D01*
X82713261Y-77213261D01*
X82800615Y-77096705D01*
X82803767Y-77088296D01*
X82808077Y-77080425D01*
X82809741Y-77081336D01*
X82845663Y-77033510D01*
X82912224Y-77008807D01*
X82921009Y-77008500D01*
X100002393Y-77008500D01*
X100070514Y-77028502D01*
X100082877Y-77037555D01*
X100178126Y-77116632D01*
X100371000Y-77229338D01*
X100579692Y-77309030D01*
X100584760Y-77310061D01*
X100584763Y-77310062D01*
X100692017Y-77331883D01*
X100798597Y-77353567D01*
X100803772Y-77353757D01*
X100803774Y-77353757D01*
X101016673Y-77361564D01*
X101016677Y-77361564D01*
X101021837Y-77361753D01*
X101026957Y-77361097D01*
X101026959Y-77361097D01*
X101238288Y-77334025D01*
X101238289Y-77334025D01*
X101243416Y-77333368D01*
X101248366Y-77331883D01*
X101452429Y-77270661D01*
X101452434Y-77270659D01*
X101457384Y-77269174D01*
X101657994Y-77170896D01*
X101839860Y-77041173D01*
X101842886Y-77038157D01*
X101907588Y-77009570D01*
X101923976Y-77008500D01*
X102078991Y-77008500D01*
X102147112Y-77028502D01*
X102193605Y-77082158D01*
X102195903Y-77087694D01*
X102196232Y-77088296D01*
X102199385Y-77096705D01*
X102286739Y-77213261D01*
X102403295Y-77300615D01*
X102539684Y-77351745D01*
X102601866Y-77358500D01*
X104398134Y-77358500D01*
X104460316Y-77351745D01*
X104596705Y-77300615D01*
X104713261Y-77213261D01*
X104800615Y-77096705D01*
X104803767Y-77088296D01*
X104808077Y-77080425D01*
X104809741Y-77081336D01*
X104845663Y-77033510D01*
X104912224Y-77008807D01*
X104921009Y-77008500D01*
X122002393Y-77008500D01*
X122070514Y-77028502D01*
X122082877Y-77037555D01*
X122178126Y-77116632D01*
X122371000Y-77229338D01*
X122579692Y-77309030D01*
X122584760Y-77310061D01*
X122584763Y-77310062D01*
X122692017Y-77331883D01*
X122798597Y-77353567D01*
X122803772Y-77353757D01*
X122803774Y-77353757D01*
X123016673Y-77361564D01*
X123016677Y-77361564D01*
X123021837Y-77361753D01*
X123026957Y-77361097D01*
X123026959Y-77361097D01*
X123238288Y-77334025D01*
X123238289Y-77334025D01*
X123243416Y-77333368D01*
X123248366Y-77331883D01*
X123452429Y-77270661D01*
X123452434Y-77270659D01*
X123457384Y-77269174D01*
X123657994Y-77170896D01*
X123839860Y-77041173D01*
X123842886Y-77038157D01*
X123907588Y-77009570D01*
X123923976Y-77008500D01*
X124078991Y-77008500D01*
X124147112Y-77028502D01*
X124193605Y-77082158D01*
X124195903Y-77087694D01*
X124196232Y-77088296D01*
X124199385Y-77096705D01*
X124286739Y-77213261D01*
X124403295Y-77300615D01*
X124539684Y-77351745D01*
X124566914Y-77354703D01*
X124579108Y-77356028D01*
X124644670Y-77383270D01*
X124685096Y-77441634D01*
X124691500Y-77481291D01*
X124691500Y-78990786D01*
X124691493Y-78992106D01*
X124690549Y-79082221D01*
X124699711Y-79124597D01*
X124701769Y-79137163D01*
X124706603Y-79180255D01*
X124708919Y-79186906D01*
X124708920Y-79186910D01*
X124717633Y-79211930D01*
X124721796Y-79226742D01*
X124728881Y-79259510D01*
X124747208Y-79298813D01*
X124751990Y-79310589D01*
X124766255Y-79351552D01*
X124769989Y-79357527D01*
X124769990Y-79357530D01*
X124784027Y-79379995D01*
X124791366Y-79393512D01*
X124802559Y-79417514D01*
X124805538Y-79423902D01*
X124809855Y-79429467D01*
X124809856Y-79429469D01*
X124832106Y-79458153D01*
X124839402Y-79468612D01*
X124862374Y-79505376D01*
X124867334Y-79510371D01*
X124867335Y-79510372D01*
X124890976Y-79534179D01*
X124891561Y-79534804D01*
X124892078Y-79535470D01*
X124918068Y-79561460D01*
X124990185Y-79634082D01*
X124991222Y-79634740D01*
X124992451Y-79635843D01*
X126921766Y-81565158D01*
X126922694Y-81566095D01*
X126985771Y-81630507D01*
X127022221Y-81653998D01*
X127032546Y-81661417D01*
X127066443Y-81688476D01*
X127072784Y-81691541D01*
X127072785Y-81691542D01*
X127096637Y-81703072D01*
X127110054Y-81710601D01*
X127138238Y-81728765D01*
X127144855Y-81731173D01*
X127144860Y-81731176D01*
X127178973Y-81743592D01*
X127190716Y-81748553D01*
X127223403Y-81764354D01*
X127223408Y-81764356D01*
X127229749Y-81767421D01*
X127236607Y-81769004D01*
X127236609Y-81769005D01*
X127262426Y-81774965D01*
X127277169Y-81779332D01*
X127308685Y-81790803D01*
X127315675Y-81791686D01*
X127315683Y-81791688D01*
X127351701Y-81796238D01*
X127364253Y-81798474D01*
X127399614Y-81806638D01*
X127399617Y-81806638D01*
X127406485Y-81808224D01*
X127413531Y-81808249D01*
X127413534Y-81808249D01*
X127447056Y-81808366D01*
X127447938Y-81808395D01*
X127448769Y-81808500D01*
X127485419Y-81808500D01*
X127485859Y-81808501D01*
X127584343Y-81808845D01*
X127584348Y-81808845D01*
X127587870Y-81808857D01*
X127589070Y-81808589D01*
X127590707Y-81808500D01*
X130360925Y-81808500D01*
X130429046Y-81828502D01*
X130450020Y-81845405D01*
X130610813Y-82006198D01*
X130615321Y-82009355D01*
X130615324Y-82009357D01*
X130656308Y-82038054D01*
X130798364Y-82137523D01*
X130803346Y-82139846D01*
X130803351Y-82139849D01*
X130958534Y-82212211D01*
X131005870Y-82234284D01*
X131011178Y-82235706D01*
X131011180Y-82235707D01*
X131221711Y-82292119D01*
X131221713Y-82292119D01*
X131227026Y-82293543D01*
X131455113Y-82313498D01*
X131683200Y-82293543D01*
X131688513Y-82292119D01*
X131688515Y-82292119D01*
X131899046Y-82235707D01*
X131899048Y-82235706D01*
X131904356Y-82234284D01*
X131951692Y-82212211D01*
X132106875Y-82139849D01*
X132106880Y-82139846D01*
X132111862Y-82137523D01*
X132116375Y-82134363D01*
X132117737Y-82133410D01*
X132118433Y-82133175D01*
X132121132Y-82131617D01*
X132121445Y-82132160D01*
X132185013Y-82110726D01*
X132253872Y-82128015D01*
X132279194Y-82150656D01*
X132280477Y-82149373D01*
X132299389Y-82168285D01*
X132401464Y-82244786D01*
X132417059Y-82253324D01*
X132537507Y-82298478D01*
X132552762Y-82302105D01*
X132603627Y-82307631D01*
X132610441Y-82308000D01*
X133182998Y-82308000D01*
X133198237Y-82303525D01*
X133199442Y-82302135D01*
X133201113Y-82294452D01*
X133201113Y-82289884D01*
X133709113Y-82289884D01*
X133713588Y-82305123D01*
X133714978Y-82306328D01*
X133722661Y-82307999D01*
X134299782Y-82307999D01*
X134306603Y-82307629D01*
X134357465Y-82302105D01*
X134372717Y-82298479D01*
X134493167Y-82253324D01*
X134508762Y-82244786D01*
X134610837Y-82168285D01*
X134623398Y-82155724D01*
X134699899Y-82053649D01*
X134708437Y-82038054D01*
X134753591Y-81917606D01*
X134757218Y-81902351D01*
X134762744Y-81851486D01*
X134763113Y-81844672D01*
X134763113Y-81272115D01*
X134758638Y-81256876D01*
X134757248Y-81255671D01*
X134749565Y-81254000D01*
X133727228Y-81254000D01*
X133711989Y-81258475D01*
X133710784Y-81259865D01*
X133709113Y-81267548D01*
X133709113Y-82289884D01*
X133201113Y-82289884D01*
X133201113Y-80727885D01*
X133709113Y-80727885D01*
X133713588Y-80743124D01*
X133714978Y-80744329D01*
X133722661Y-80746000D01*
X134744997Y-80746000D01*
X134760236Y-80741525D01*
X134761441Y-80740135D01*
X134763112Y-80732452D01*
X134763112Y-80155331D01*
X134762742Y-80148510D01*
X134757218Y-80097648D01*
X134753592Y-80082396D01*
X134708437Y-79961946D01*
X134699899Y-79946351D01*
X134623398Y-79844276D01*
X134610837Y-79831715D01*
X134508762Y-79755214D01*
X134493167Y-79746676D01*
X134372719Y-79701522D01*
X134357464Y-79697895D01*
X134306599Y-79692369D01*
X134299785Y-79692000D01*
X133727228Y-79692000D01*
X133711989Y-79696475D01*
X133710784Y-79697865D01*
X133709113Y-79705548D01*
X133709113Y-80727885D01*
X133201113Y-80727885D01*
X133201113Y-79710116D01*
X133196638Y-79694877D01*
X133195248Y-79693672D01*
X133187565Y-79692001D01*
X132610444Y-79692001D01*
X132603623Y-79692371D01*
X132552761Y-79697895D01*
X132537509Y-79701521D01*
X132417059Y-79746676D01*
X132401464Y-79755214D01*
X132299389Y-79831715D01*
X132280477Y-79850627D01*
X132278219Y-79848369D01*
X132233959Y-79881457D01*
X132163140Y-79886476D01*
X132121273Y-79868139D01*
X132121132Y-79868383D01*
X132118936Y-79867115D01*
X132117737Y-79866590D01*
X132116375Y-79865637D01*
X132111862Y-79862477D01*
X132106880Y-79860154D01*
X132106875Y-79860151D01*
X131909338Y-79768039D01*
X131909337Y-79768039D01*
X131904356Y-79765716D01*
X131899048Y-79764294D01*
X131899046Y-79764293D01*
X131688515Y-79707881D01*
X131688513Y-79707881D01*
X131683200Y-79706457D01*
X131455113Y-79686502D01*
X131227026Y-79706457D01*
X131221713Y-79707881D01*
X131221711Y-79707881D01*
X131011180Y-79764293D01*
X131011178Y-79764294D01*
X131005870Y-79765716D01*
X131000889Y-79768039D01*
X131000888Y-79768039D01*
X130803351Y-79860151D01*
X130803346Y-79860154D01*
X130798364Y-79862477D01*
X130771258Y-79881457D01*
X130615324Y-79990643D01*
X130615321Y-79990645D01*
X130610813Y-79993802D01*
X130450020Y-80154595D01*
X130387708Y-80188621D01*
X130360925Y-80191500D01*
X127887082Y-80191500D01*
X127818961Y-80171498D01*
X127797987Y-80154595D01*
X126345405Y-78702013D01*
X126311379Y-78639701D01*
X126308500Y-78612918D01*
X126308500Y-77481291D01*
X126328502Y-77413170D01*
X126382158Y-77366677D01*
X126420892Y-77356028D01*
X126433086Y-77354703D01*
X126460316Y-77351745D01*
X126596705Y-77300615D01*
X126713261Y-77213261D01*
X126800615Y-77096705D01*
X126803767Y-77088296D01*
X126808077Y-77080425D01*
X126809741Y-77081336D01*
X126845663Y-77033510D01*
X126912224Y-77008807D01*
X126921009Y-77008500D01*
X145440127Y-77008500D01*
X145453297Y-77009190D01*
X145486796Y-77012711D01*
X145486798Y-77012711D01*
X145492925Y-77013355D01*
X145540570Y-77009019D01*
X145551990Y-77008500D01*
X155502393Y-77008500D01*
X155570514Y-77028502D01*
X155582877Y-77037555D01*
X155678126Y-77116632D01*
X155871000Y-77229338D01*
X156079692Y-77309030D01*
X156084760Y-77310061D01*
X156084763Y-77310062D01*
X156192017Y-77331883D01*
X156298597Y-77353567D01*
X156303772Y-77353757D01*
X156303774Y-77353757D01*
X156516673Y-77361564D01*
X156516677Y-77361564D01*
X156521837Y-77361753D01*
X156526957Y-77361097D01*
X156526959Y-77361097D01*
X156738288Y-77334025D01*
X156738289Y-77334025D01*
X156743416Y-77333368D01*
X156748366Y-77331883D01*
X156952429Y-77270661D01*
X156952434Y-77270659D01*
X156957384Y-77269174D01*
X157157994Y-77170896D01*
X157339860Y-77041173D01*
X157342886Y-77038157D01*
X157407588Y-77009570D01*
X157423976Y-77008500D01*
X157578991Y-77008500D01*
X157647112Y-77028502D01*
X157693605Y-77082158D01*
X157695903Y-77087694D01*
X157696232Y-77088296D01*
X157699385Y-77096705D01*
X157786739Y-77213261D01*
X157903295Y-77300615D01*
X158039684Y-77351745D01*
X158101866Y-77358500D01*
X159898134Y-77358500D01*
X159960316Y-77351745D01*
X160096705Y-77300615D01*
X160213261Y-77213261D01*
X160300615Y-77096705D01*
X160303767Y-77088296D01*
X160308077Y-77080425D01*
X160309741Y-77081336D01*
X160345663Y-77033510D01*
X160412224Y-77008807D01*
X160421009Y-77008500D01*
X177502393Y-77008500D01*
X177570514Y-77028502D01*
X177582877Y-77037555D01*
X177678126Y-77116632D01*
X177871000Y-77229338D01*
X178079692Y-77309030D01*
X178084760Y-77310061D01*
X178084763Y-77310062D01*
X178192017Y-77331883D01*
X178298597Y-77353567D01*
X178303772Y-77353757D01*
X178303774Y-77353757D01*
X178516673Y-77361564D01*
X178516677Y-77361564D01*
X178521837Y-77361753D01*
X178526957Y-77361097D01*
X178526959Y-77361097D01*
X178738288Y-77334025D01*
X178738289Y-77334025D01*
X178743416Y-77333368D01*
X178748366Y-77331883D01*
X178952429Y-77270661D01*
X178952434Y-77270659D01*
X178957384Y-77269174D01*
X179157994Y-77170896D01*
X179339860Y-77041173D01*
X179342886Y-77038157D01*
X179407588Y-77009570D01*
X179423976Y-77008500D01*
X179578991Y-77008500D01*
X179647112Y-77028502D01*
X179693605Y-77082158D01*
X179695903Y-77087694D01*
X179696232Y-77088296D01*
X179699385Y-77096705D01*
X179786739Y-77213261D01*
X179903295Y-77300615D01*
X180039684Y-77351745D01*
X180101866Y-77358500D01*
X181898134Y-77358500D01*
X181960316Y-77351745D01*
X182096705Y-77300615D01*
X182213261Y-77213261D01*
X182300615Y-77096705D01*
X182303767Y-77088296D01*
X182308077Y-77080425D01*
X182309741Y-77081336D01*
X182345663Y-77033510D01*
X182412224Y-77008807D01*
X182421009Y-77008500D01*
X199502393Y-77008500D01*
X199570514Y-77028502D01*
X199582877Y-77037555D01*
X199678126Y-77116632D01*
X199871000Y-77229338D01*
X200079692Y-77309030D01*
X200084760Y-77310061D01*
X200084763Y-77310062D01*
X200192017Y-77331883D01*
X200298597Y-77353567D01*
X200303772Y-77353757D01*
X200303774Y-77353757D01*
X200516673Y-77361564D01*
X200516677Y-77361564D01*
X200521837Y-77361753D01*
X200526957Y-77361097D01*
X200526959Y-77361097D01*
X200738288Y-77334025D01*
X200738289Y-77334025D01*
X200743416Y-77333368D01*
X200748366Y-77331883D01*
X200952429Y-77270661D01*
X200952434Y-77270659D01*
X200957384Y-77269174D01*
X201157994Y-77170896D01*
X201339860Y-77041173D01*
X201342886Y-77038157D01*
X201407588Y-77009570D01*
X201423976Y-77008500D01*
X201578991Y-77008500D01*
X201647112Y-77028502D01*
X201693605Y-77082158D01*
X201695903Y-77087694D01*
X201696232Y-77088296D01*
X201699385Y-77096705D01*
X201786739Y-77213261D01*
X201903295Y-77300615D01*
X202039684Y-77351745D01*
X202101866Y-77358500D01*
X203898134Y-77358500D01*
X203960316Y-77351745D01*
X204096705Y-77300615D01*
X204213261Y-77213261D01*
X204300615Y-77096705D01*
X204303767Y-77088296D01*
X204308077Y-77080425D01*
X204309741Y-77081336D01*
X204345663Y-77033510D01*
X204412224Y-77008807D01*
X204421009Y-77008500D01*
X221502393Y-77008500D01*
X221570514Y-77028502D01*
X221582877Y-77037555D01*
X221678126Y-77116632D01*
X221871000Y-77229338D01*
X222079692Y-77309030D01*
X222084760Y-77310061D01*
X222084763Y-77310062D01*
X222192017Y-77331883D01*
X222298597Y-77353567D01*
X222303772Y-77353757D01*
X222303774Y-77353757D01*
X222516673Y-77361564D01*
X222516677Y-77361564D01*
X222521837Y-77361753D01*
X222526957Y-77361097D01*
X222526959Y-77361097D01*
X222738288Y-77334025D01*
X222738289Y-77334025D01*
X222743416Y-77333368D01*
X222748366Y-77331883D01*
X222952429Y-77270661D01*
X222952434Y-77270659D01*
X222957384Y-77269174D01*
X223157994Y-77170896D01*
X223339860Y-77041173D01*
X223342886Y-77038157D01*
X223407588Y-77009570D01*
X223423976Y-77008500D01*
X223578991Y-77008500D01*
X223647112Y-77028502D01*
X223693605Y-77082158D01*
X223695903Y-77087694D01*
X223696232Y-77088296D01*
X223699385Y-77096705D01*
X223786739Y-77213261D01*
X223903295Y-77300615D01*
X224039684Y-77351745D01*
X224101866Y-77358500D01*
X225898134Y-77358500D01*
X225960316Y-77351745D01*
X226096705Y-77300615D01*
X226213261Y-77213261D01*
X226300615Y-77096705D01*
X226351745Y-76960316D01*
X226358500Y-76898134D01*
X226358500Y-75101866D01*
X226351745Y-75039684D01*
X226300615Y-74903295D01*
X226213261Y-74786739D01*
X226096705Y-74699385D01*
X225977687Y-74654767D01*
X225920923Y-74612125D01*
X225896223Y-74545564D01*
X225911430Y-74476215D01*
X225932977Y-74447535D01*
X226034052Y-74346812D01*
X226040730Y-74338965D01*
X226165003Y-74166020D01*
X226170313Y-74157183D01*
X226264670Y-73966267D01*
X226268469Y-73956672D01*
X226330377Y-73752910D01*
X226332555Y-73742837D01*
X226333986Y-73731962D01*
X226331775Y-73717778D01*
X226318617Y-73714000D01*
X221143225Y-73714000D01*
X221129694Y-73717973D01*
X221128257Y-73727966D01*
X221158565Y-73862446D01*
X221161645Y-73872275D01*
X221241770Y-74069603D01*
X221246413Y-74078794D01*
X221357694Y-74260388D01*
X221363777Y-74268699D01*
X221503213Y-74429667D01*
X221510580Y-74436883D01*
X221674434Y-74572916D01*
X221682881Y-74578831D01*
X221751969Y-74619203D01*
X221800693Y-74670842D01*
X221813764Y-74740625D01*
X221787033Y-74806396D01*
X221746584Y-74839752D01*
X221733607Y-74846507D01*
X221729474Y-74849610D01*
X221729471Y-74849612D01*
X221574111Y-74966260D01*
X221507626Y-74991166D01*
X221498458Y-74991500D01*
X204421009Y-74991500D01*
X204352888Y-74971498D01*
X204306395Y-74917842D01*
X204304097Y-74912306D01*
X204303767Y-74911703D01*
X204300615Y-74903295D01*
X204213261Y-74786739D01*
X204096705Y-74699385D01*
X203977687Y-74654767D01*
X203920923Y-74612125D01*
X203896223Y-74545564D01*
X203911430Y-74476215D01*
X203932977Y-74447535D01*
X204034052Y-74346812D01*
X204040730Y-74338965D01*
X204165003Y-74166020D01*
X204170313Y-74157183D01*
X204264670Y-73966267D01*
X204268469Y-73956672D01*
X204330377Y-73752910D01*
X204332555Y-73742837D01*
X204333986Y-73731962D01*
X204331775Y-73717778D01*
X204318617Y-73714000D01*
X199143225Y-73714000D01*
X199129694Y-73717973D01*
X199128257Y-73727966D01*
X199158565Y-73862446D01*
X199161645Y-73872275D01*
X199241770Y-74069603D01*
X199246413Y-74078794D01*
X199357694Y-74260388D01*
X199363777Y-74268699D01*
X199503213Y-74429667D01*
X199510580Y-74436883D01*
X199674434Y-74572916D01*
X199682881Y-74578831D01*
X199751969Y-74619203D01*
X199800693Y-74670842D01*
X199813764Y-74740625D01*
X199787033Y-74806396D01*
X199746584Y-74839752D01*
X199733607Y-74846507D01*
X199729474Y-74849610D01*
X199729471Y-74849612D01*
X199574111Y-74966260D01*
X199507626Y-74991166D01*
X199498458Y-74991500D01*
X182421009Y-74991500D01*
X182352888Y-74971498D01*
X182306395Y-74917842D01*
X182304097Y-74912306D01*
X182303767Y-74911703D01*
X182300615Y-74903295D01*
X182213261Y-74786739D01*
X182096705Y-74699385D01*
X181977687Y-74654767D01*
X181920923Y-74612125D01*
X181896223Y-74545564D01*
X181911430Y-74476215D01*
X181932977Y-74447535D01*
X182034052Y-74346812D01*
X182040730Y-74338965D01*
X182165003Y-74166020D01*
X182170313Y-74157183D01*
X182264670Y-73966267D01*
X182268469Y-73956672D01*
X182330377Y-73752910D01*
X182332555Y-73742837D01*
X182333986Y-73731962D01*
X182331775Y-73717778D01*
X182318617Y-73714000D01*
X177143225Y-73714000D01*
X177129694Y-73717973D01*
X177128257Y-73727966D01*
X177158565Y-73862446D01*
X177161645Y-73872275D01*
X177241770Y-74069603D01*
X177246413Y-74078794D01*
X177357694Y-74260388D01*
X177363777Y-74268699D01*
X177503213Y-74429667D01*
X177510580Y-74436883D01*
X177674434Y-74572916D01*
X177682881Y-74578831D01*
X177751969Y-74619203D01*
X177800693Y-74670842D01*
X177813764Y-74740625D01*
X177787033Y-74806396D01*
X177746584Y-74839752D01*
X177733607Y-74846507D01*
X177729474Y-74849610D01*
X177729471Y-74849612D01*
X177574111Y-74966260D01*
X177507626Y-74991166D01*
X177498458Y-74991500D01*
X160421009Y-74991500D01*
X160352888Y-74971498D01*
X160306395Y-74917842D01*
X160304097Y-74912306D01*
X160303767Y-74911703D01*
X160300615Y-74903295D01*
X160213261Y-74786739D01*
X160096705Y-74699385D01*
X159977687Y-74654767D01*
X159920923Y-74612125D01*
X159896223Y-74545564D01*
X159911430Y-74476215D01*
X159932977Y-74447535D01*
X160034052Y-74346812D01*
X160040730Y-74338965D01*
X160165003Y-74166020D01*
X160170313Y-74157183D01*
X160264670Y-73966267D01*
X160268469Y-73956672D01*
X160330377Y-73752910D01*
X160332555Y-73742837D01*
X160333986Y-73731962D01*
X160331775Y-73717778D01*
X160318617Y-73714000D01*
X155143225Y-73714000D01*
X155129694Y-73717973D01*
X155128257Y-73727966D01*
X155158565Y-73862446D01*
X155161645Y-73872275D01*
X155241770Y-74069603D01*
X155246413Y-74078794D01*
X155357694Y-74260388D01*
X155363777Y-74268699D01*
X155503213Y-74429667D01*
X155510580Y-74436883D01*
X155674434Y-74572916D01*
X155682881Y-74578831D01*
X155751969Y-74619203D01*
X155800693Y-74670842D01*
X155813764Y-74740625D01*
X155787033Y-74806396D01*
X155746584Y-74839752D01*
X155733607Y-74846507D01*
X155729474Y-74849610D01*
X155729471Y-74849612D01*
X155574111Y-74966260D01*
X155507626Y-74991166D01*
X155498458Y-74991500D01*
X146634500Y-74991500D01*
X146566379Y-74971498D01*
X146519886Y-74917842D01*
X146508500Y-74865500D01*
X146508500Y-73194183D01*
X155124389Y-73194183D01*
X155125912Y-73202607D01*
X155138292Y-73206000D01*
X156187885Y-73206000D01*
X156203124Y-73201525D01*
X156204329Y-73200135D01*
X156206000Y-73192452D01*
X156206000Y-73187885D01*
X156714000Y-73187885D01*
X156718475Y-73203124D01*
X156719865Y-73204329D01*
X156727548Y-73206000D01*
X158727885Y-73206000D01*
X158743124Y-73201525D01*
X158744329Y-73200135D01*
X158746000Y-73192452D01*
X158746000Y-73187885D01*
X159254000Y-73187885D01*
X159258475Y-73203124D01*
X159259865Y-73204329D01*
X159267548Y-73206000D01*
X160318344Y-73206000D01*
X160331875Y-73202027D01*
X160333002Y-73194183D01*
X177124389Y-73194183D01*
X177125912Y-73202607D01*
X177138292Y-73206000D01*
X178187885Y-73206000D01*
X178203124Y-73201525D01*
X178204329Y-73200135D01*
X178206000Y-73192452D01*
X178206000Y-73187885D01*
X178714000Y-73187885D01*
X178718475Y-73203124D01*
X178719865Y-73204329D01*
X178727548Y-73206000D01*
X180727885Y-73206000D01*
X180743124Y-73201525D01*
X180744329Y-73200135D01*
X180746000Y-73192452D01*
X180746000Y-73187885D01*
X181254000Y-73187885D01*
X181258475Y-73203124D01*
X181259865Y-73204329D01*
X181267548Y-73206000D01*
X182318344Y-73206000D01*
X182331875Y-73202027D01*
X182333002Y-73194183D01*
X199124389Y-73194183D01*
X199125912Y-73202607D01*
X199138292Y-73206000D01*
X200187885Y-73206000D01*
X200203124Y-73201525D01*
X200204329Y-73200135D01*
X200206000Y-73192452D01*
X200206000Y-73187885D01*
X200714000Y-73187885D01*
X200718475Y-73203124D01*
X200719865Y-73204329D01*
X200727548Y-73206000D01*
X202727885Y-73206000D01*
X202743124Y-73201525D01*
X202744329Y-73200135D01*
X202746000Y-73192452D01*
X202746000Y-73187885D01*
X203254000Y-73187885D01*
X203258475Y-73203124D01*
X203259865Y-73204329D01*
X203267548Y-73206000D01*
X204318344Y-73206000D01*
X204331875Y-73202027D01*
X204333002Y-73194183D01*
X221124389Y-73194183D01*
X221125912Y-73202607D01*
X221138292Y-73206000D01*
X222187885Y-73206000D01*
X222203124Y-73201525D01*
X222204329Y-73200135D01*
X222206000Y-73192452D01*
X222206000Y-73187885D01*
X222714000Y-73187885D01*
X222718475Y-73203124D01*
X222719865Y-73204329D01*
X222727548Y-73206000D01*
X224727885Y-73206000D01*
X224743124Y-73201525D01*
X224744329Y-73200135D01*
X224746000Y-73192452D01*
X224746000Y-73187885D01*
X225254000Y-73187885D01*
X225258475Y-73203124D01*
X225259865Y-73204329D01*
X225267548Y-73206000D01*
X226318344Y-73206000D01*
X226331875Y-73202027D01*
X226333180Y-73192947D01*
X226291214Y-73025875D01*
X226287894Y-73016124D01*
X226202972Y-72820814D01*
X226198105Y-72811739D01*
X226082426Y-72632926D01*
X226076136Y-72624757D01*
X225932806Y-72467240D01*
X225925273Y-72460215D01*
X225758139Y-72328222D01*
X225749552Y-72322517D01*
X225712116Y-72301851D01*
X225662146Y-72251419D01*
X225647374Y-72181976D01*
X225672490Y-72115571D01*
X225699842Y-72088964D01*
X225875327Y-71963792D01*
X225883200Y-71957139D01*
X226034052Y-71806812D01*
X226040730Y-71798965D01*
X226165003Y-71626020D01*
X226170313Y-71617183D01*
X226264670Y-71426267D01*
X226268469Y-71416672D01*
X226330377Y-71212910D01*
X226332555Y-71202837D01*
X226333986Y-71191962D01*
X226331775Y-71177778D01*
X226318617Y-71174000D01*
X225272115Y-71174000D01*
X225256876Y-71178475D01*
X225255671Y-71179865D01*
X225254000Y-71187548D01*
X225254000Y-73187885D01*
X224746000Y-73187885D01*
X224746000Y-71192115D01*
X224741525Y-71176876D01*
X224740135Y-71175671D01*
X224732452Y-71174000D01*
X222732115Y-71174000D01*
X222716876Y-71178475D01*
X222715671Y-71179865D01*
X222714000Y-71187548D01*
X222714000Y-73187885D01*
X222206000Y-73187885D01*
X222206000Y-71192115D01*
X222201525Y-71176876D01*
X222200135Y-71175671D01*
X222192452Y-71174000D01*
X221143225Y-71174000D01*
X221129694Y-71177973D01*
X221128257Y-71187966D01*
X221158565Y-71322446D01*
X221161645Y-71332275D01*
X221241770Y-71529603D01*
X221246413Y-71538794D01*
X221357694Y-71720388D01*
X221363777Y-71728699D01*
X221503213Y-71889667D01*
X221510580Y-71896883D01*
X221674434Y-72032916D01*
X221682881Y-72038831D01*
X221752479Y-72079501D01*
X221801203Y-72131140D01*
X221814274Y-72200923D01*
X221787543Y-72266694D01*
X221747087Y-72300053D01*
X221738462Y-72304542D01*
X221729738Y-72310036D01*
X221559433Y-72437905D01*
X221551726Y-72444748D01*
X221404590Y-72598717D01*
X221398104Y-72606727D01*
X221278098Y-72782649D01*
X221273000Y-72791623D01*
X221183338Y-72984783D01*
X221179775Y-72994470D01*
X221124389Y-73194183D01*
X204333002Y-73194183D01*
X204333180Y-73192947D01*
X204291214Y-73025875D01*
X204287894Y-73016124D01*
X204202972Y-72820814D01*
X204198105Y-72811739D01*
X204082426Y-72632926D01*
X204076136Y-72624757D01*
X203932806Y-72467240D01*
X203925273Y-72460215D01*
X203758139Y-72328222D01*
X203749552Y-72322517D01*
X203712116Y-72301851D01*
X203662146Y-72251419D01*
X203647374Y-72181976D01*
X203672490Y-72115571D01*
X203699842Y-72088964D01*
X203875327Y-71963792D01*
X203883200Y-71957139D01*
X204034052Y-71806812D01*
X204040730Y-71798965D01*
X204165003Y-71626020D01*
X204170313Y-71617183D01*
X204264670Y-71426267D01*
X204268469Y-71416672D01*
X204330377Y-71212910D01*
X204332555Y-71202837D01*
X204333986Y-71191962D01*
X204331775Y-71177778D01*
X204318617Y-71174000D01*
X203272115Y-71174000D01*
X203256876Y-71178475D01*
X203255671Y-71179865D01*
X203254000Y-71187548D01*
X203254000Y-73187885D01*
X202746000Y-73187885D01*
X202746000Y-71192115D01*
X202741525Y-71176876D01*
X202740135Y-71175671D01*
X202732452Y-71174000D01*
X200732115Y-71174000D01*
X200716876Y-71178475D01*
X200715671Y-71179865D01*
X200714000Y-71187548D01*
X200714000Y-73187885D01*
X200206000Y-73187885D01*
X200206000Y-71192115D01*
X200201525Y-71176876D01*
X200200135Y-71175671D01*
X200192452Y-71174000D01*
X199143225Y-71174000D01*
X199129694Y-71177973D01*
X199128257Y-71187966D01*
X199158565Y-71322446D01*
X199161645Y-71332275D01*
X199241770Y-71529603D01*
X199246413Y-71538794D01*
X199357694Y-71720388D01*
X199363777Y-71728699D01*
X199503213Y-71889667D01*
X199510580Y-71896883D01*
X199674434Y-72032916D01*
X199682881Y-72038831D01*
X199752479Y-72079501D01*
X199801203Y-72131140D01*
X199814274Y-72200923D01*
X199787543Y-72266694D01*
X199747087Y-72300053D01*
X199738462Y-72304542D01*
X199729738Y-72310036D01*
X199559433Y-72437905D01*
X199551726Y-72444748D01*
X199404590Y-72598717D01*
X199398104Y-72606727D01*
X199278098Y-72782649D01*
X199273000Y-72791623D01*
X199183338Y-72984783D01*
X199179775Y-72994470D01*
X199124389Y-73194183D01*
X182333002Y-73194183D01*
X182333180Y-73192947D01*
X182291214Y-73025875D01*
X182287894Y-73016124D01*
X182202972Y-72820814D01*
X182198105Y-72811739D01*
X182082426Y-72632926D01*
X182076136Y-72624757D01*
X181932806Y-72467240D01*
X181925273Y-72460215D01*
X181758139Y-72328222D01*
X181749552Y-72322517D01*
X181712116Y-72301851D01*
X181662146Y-72251419D01*
X181647374Y-72181976D01*
X181672490Y-72115571D01*
X181699842Y-72088964D01*
X181875327Y-71963792D01*
X181883200Y-71957139D01*
X182034052Y-71806812D01*
X182040730Y-71798965D01*
X182165003Y-71626020D01*
X182170313Y-71617183D01*
X182264670Y-71426267D01*
X182268469Y-71416672D01*
X182330377Y-71212910D01*
X182332555Y-71202837D01*
X182333986Y-71191962D01*
X182331775Y-71177778D01*
X182318617Y-71174000D01*
X181272115Y-71174000D01*
X181256876Y-71178475D01*
X181255671Y-71179865D01*
X181254000Y-71187548D01*
X181254000Y-73187885D01*
X180746000Y-73187885D01*
X180746000Y-71192115D01*
X180741525Y-71176876D01*
X180740135Y-71175671D01*
X180732452Y-71174000D01*
X178732115Y-71174000D01*
X178716876Y-71178475D01*
X178715671Y-71179865D01*
X178714000Y-71187548D01*
X178714000Y-73187885D01*
X178206000Y-73187885D01*
X178206000Y-71192115D01*
X178201525Y-71176876D01*
X178200135Y-71175671D01*
X178192452Y-71174000D01*
X177143225Y-71174000D01*
X177129694Y-71177973D01*
X177128257Y-71187966D01*
X177158565Y-71322446D01*
X177161645Y-71332275D01*
X177241770Y-71529603D01*
X177246413Y-71538794D01*
X177357694Y-71720388D01*
X177363777Y-71728699D01*
X177503213Y-71889667D01*
X177510580Y-71896883D01*
X177674434Y-72032916D01*
X177682881Y-72038831D01*
X177752479Y-72079501D01*
X177801203Y-72131140D01*
X177814274Y-72200923D01*
X177787543Y-72266694D01*
X177747087Y-72300053D01*
X177738462Y-72304542D01*
X177729738Y-72310036D01*
X177559433Y-72437905D01*
X177551726Y-72444748D01*
X177404590Y-72598717D01*
X177398104Y-72606727D01*
X177278098Y-72782649D01*
X177273000Y-72791623D01*
X177183338Y-72984783D01*
X177179775Y-72994470D01*
X177124389Y-73194183D01*
X160333002Y-73194183D01*
X160333180Y-73192947D01*
X160291214Y-73025875D01*
X160287894Y-73016124D01*
X160202972Y-72820814D01*
X160198105Y-72811739D01*
X160082426Y-72632926D01*
X160076136Y-72624757D01*
X159932806Y-72467240D01*
X159925273Y-72460215D01*
X159758139Y-72328222D01*
X159749552Y-72322517D01*
X159712116Y-72301851D01*
X159662146Y-72251419D01*
X159647374Y-72181976D01*
X159672490Y-72115571D01*
X159699842Y-72088964D01*
X159875327Y-71963792D01*
X159883200Y-71957139D01*
X160034052Y-71806812D01*
X160040730Y-71798965D01*
X160165003Y-71626020D01*
X160170313Y-71617183D01*
X160264670Y-71426267D01*
X160268469Y-71416672D01*
X160330377Y-71212910D01*
X160332555Y-71202837D01*
X160333986Y-71191962D01*
X160331775Y-71177778D01*
X160318617Y-71174000D01*
X159272115Y-71174000D01*
X159256876Y-71178475D01*
X159255671Y-71179865D01*
X159254000Y-71187548D01*
X159254000Y-73187885D01*
X158746000Y-73187885D01*
X158746000Y-71192115D01*
X158741525Y-71176876D01*
X158740135Y-71175671D01*
X158732452Y-71174000D01*
X156732115Y-71174000D01*
X156716876Y-71178475D01*
X156715671Y-71179865D01*
X156714000Y-71187548D01*
X156714000Y-73187885D01*
X156206000Y-73187885D01*
X156206000Y-71192115D01*
X156201525Y-71176876D01*
X156200135Y-71175671D01*
X156192452Y-71174000D01*
X155143225Y-71174000D01*
X155129694Y-71177973D01*
X155128257Y-71187966D01*
X155158565Y-71322446D01*
X155161645Y-71332275D01*
X155241770Y-71529603D01*
X155246413Y-71538794D01*
X155357694Y-71720388D01*
X155363777Y-71728699D01*
X155503213Y-71889667D01*
X155510580Y-71896883D01*
X155674434Y-72032916D01*
X155682881Y-72038831D01*
X155752479Y-72079501D01*
X155801203Y-72131140D01*
X155814274Y-72200923D01*
X155787543Y-72266694D01*
X155747087Y-72300053D01*
X155738462Y-72304542D01*
X155729738Y-72310036D01*
X155559433Y-72437905D01*
X155551726Y-72444748D01*
X155404590Y-72598717D01*
X155398104Y-72606727D01*
X155278098Y-72782649D01*
X155273000Y-72791623D01*
X155183338Y-72984783D01*
X155179775Y-72994470D01*
X155124389Y-73194183D01*
X146508500Y-73194183D01*
X146508500Y-71680556D01*
X146528502Y-71612435D01*
X146552668Y-71584746D01*
X146566212Y-71573178D01*
X146566213Y-71573177D01*
X146569969Y-71569969D01*
X146724176Y-71389416D01*
X146726755Y-71385208D01*
X146726759Y-71385202D01*
X146845654Y-71191183D01*
X146848240Y-71186963D01*
X146850229Y-71182163D01*
X146937211Y-70972167D01*
X146937212Y-70972165D01*
X146939105Y-70967594D01*
X146994535Y-70736711D01*
X147001030Y-70654183D01*
X155124389Y-70654183D01*
X155125912Y-70662607D01*
X155138292Y-70666000D01*
X156187885Y-70666000D01*
X156203124Y-70661525D01*
X156204329Y-70660135D01*
X156206000Y-70652452D01*
X156206000Y-70647885D01*
X156714000Y-70647885D01*
X156718475Y-70663124D01*
X156719865Y-70664329D01*
X156727548Y-70666000D01*
X158727885Y-70666000D01*
X158743124Y-70661525D01*
X158744329Y-70660135D01*
X158746000Y-70652452D01*
X158746000Y-70647885D01*
X159254000Y-70647885D01*
X159258475Y-70663124D01*
X159259865Y-70664329D01*
X159267548Y-70666000D01*
X160318344Y-70666000D01*
X160331875Y-70662027D01*
X160333002Y-70654183D01*
X177124389Y-70654183D01*
X177125912Y-70662607D01*
X177138292Y-70666000D01*
X178187885Y-70666000D01*
X178203124Y-70661525D01*
X178204329Y-70660135D01*
X178206000Y-70652452D01*
X178206000Y-70647885D01*
X178714000Y-70647885D01*
X178718475Y-70663124D01*
X178719865Y-70664329D01*
X178727548Y-70666000D01*
X180727885Y-70666000D01*
X180743124Y-70661525D01*
X180744329Y-70660135D01*
X180746000Y-70652452D01*
X180746000Y-70647885D01*
X181254000Y-70647885D01*
X181258475Y-70663124D01*
X181259865Y-70664329D01*
X181267548Y-70666000D01*
X182318344Y-70666000D01*
X182331875Y-70662027D01*
X182333002Y-70654183D01*
X199124389Y-70654183D01*
X199125912Y-70662607D01*
X199138292Y-70666000D01*
X200187885Y-70666000D01*
X200203124Y-70661525D01*
X200204329Y-70660135D01*
X200206000Y-70652452D01*
X200206000Y-70647885D01*
X200714000Y-70647885D01*
X200718475Y-70663124D01*
X200719865Y-70664329D01*
X200727548Y-70666000D01*
X202727885Y-70666000D01*
X202743124Y-70661525D01*
X202744329Y-70660135D01*
X202746000Y-70652452D01*
X202746000Y-70647885D01*
X203254000Y-70647885D01*
X203258475Y-70663124D01*
X203259865Y-70664329D01*
X203267548Y-70666000D01*
X204318344Y-70666000D01*
X204331875Y-70662027D01*
X204333002Y-70654183D01*
X221124389Y-70654183D01*
X221125912Y-70662607D01*
X221138292Y-70666000D01*
X222187885Y-70666000D01*
X222203124Y-70661525D01*
X222204329Y-70660135D01*
X222206000Y-70652452D01*
X222206000Y-70647885D01*
X222714000Y-70647885D01*
X222718475Y-70663124D01*
X222719865Y-70664329D01*
X222727548Y-70666000D01*
X224727885Y-70666000D01*
X224743124Y-70661525D01*
X224744329Y-70660135D01*
X224746000Y-70652452D01*
X224746000Y-70647885D01*
X225254000Y-70647885D01*
X225258475Y-70663124D01*
X225259865Y-70664329D01*
X225267548Y-70666000D01*
X226318344Y-70666000D01*
X226331875Y-70662027D01*
X226333180Y-70652947D01*
X226291214Y-70485875D01*
X226287894Y-70476124D01*
X226202972Y-70280814D01*
X226198105Y-70271739D01*
X226082426Y-70092926D01*
X226076136Y-70084757D01*
X225932806Y-69927240D01*
X225925273Y-69920215D01*
X225758139Y-69788222D01*
X225749552Y-69782517D01*
X225712116Y-69761851D01*
X225662146Y-69711419D01*
X225647374Y-69641976D01*
X225672490Y-69575571D01*
X225699842Y-69548964D01*
X225875327Y-69423792D01*
X225883200Y-69417139D01*
X226034052Y-69266812D01*
X226040730Y-69258965D01*
X226165003Y-69086020D01*
X226170313Y-69077183D01*
X226264670Y-68886267D01*
X226268469Y-68876672D01*
X226330377Y-68672910D01*
X226332555Y-68662837D01*
X226333986Y-68651962D01*
X226331775Y-68637778D01*
X226318617Y-68634000D01*
X225272115Y-68634000D01*
X225256876Y-68638475D01*
X225255671Y-68639865D01*
X225254000Y-68647548D01*
X225254000Y-70647885D01*
X224746000Y-70647885D01*
X224746000Y-68652115D01*
X224741525Y-68636876D01*
X224740135Y-68635671D01*
X224732452Y-68634000D01*
X222732115Y-68634000D01*
X222716876Y-68638475D01*
X222715671Y-68639865D01*
X222714000Y-68647548D01*
X222714000Y-70647885D01*
X222206000Y-70647885D01*
X222206000Y-68652115D01*
X222201525Y-68636876D01*
X222200135Y-68635671D01*
X222192452Y-68634000D01*
X221143225Y-68634000D01*
X221129694Y-68637973D01*
X221128257Y-68647966D01*
X221158565Y-68782446D01*
X221161645Y-68792275D01*
X221241770Y-68989603D01*
X221246413Y-68998794D01*
X221357694Y-69180388D01*
X221363777Y-69188699D01*
X221503213Y-69349667D01*
X221510580Y-69356883D01*
X221674434Y-69492916D01*
X221682881Y-69498831D01*
X221752479Y-69539501D01*
X221801203Y-69591140D01*
X221814274Y-69660923D01*
X221787543Y-69726694D01*
X221747087Y-69760053D01*
X221738462Y-69764542D01*
X221729738Y-69770036D01*
X221559433Y-69897905D01*
X221551726Y-69904748D01*
X221404590Y-70058717D01*
X221398104Y-70066727D01*
X221278098Y-70242649D01*
X221273000Y-70251623D01*
X221183338Y-70444783D01*
X221179775Y-70454470D01*
X221124389Y-70654183D01*
X204333002Y-70654183D01*
X204333180Y-70652947D01*
X204291214Y-70485875D01*
X204287894Y-70476124D01*
X204202972Y-70280814D01*
X204198105Y-70271739D01*
X204082426Y-70092926D01*
X204076136Y-70084757D01*
X203932806Y-69927240D01*
X203925273Y-69920215D01*
X203758139Y-69788222D01*
X203749552Y-69782517D01*
X203712116Y-69761851D01*
X203662146Y-69711419D01*
X203647374Y-69641976D01*
X203672490Y-69575571D01*
X203699842Y-69548964D01*
X203875327Y-69423792D01*
X203883200Y-69417139D01*
X204034052Y-69266812D01*
X204040730Y-69258965D01*
X204165003Y-69086020D01*
X204170313Y-69077183D01*
X204264670Y-68886267D01*
X204268469Y-68876672D01*
X204330377Y-68672910D01*
X204332555Y-68662837D01*
X204333986Y-68651962D01*
X204331775Y-68637778D01*
X204318617Y-68634000D01*
X203272115Y-68634000D01*
X203256876Y-68638475D01*
X203255671Y-68639865D01*
X203254000Y-68647548D01*
X203254000Y-70647885D01*
X202746000Y-70647885D01*
X202746000Y-68652115D01*
X202741525Y-68636876D01*
X202740135Y-68635671D01*
X202732452Y-68634000D01*
X200732115Y-68634000D01*
X200716876Y-68638475D01*
X200715671Y-68639865D01*
X200714000Y-68647548D01*
X200714000Y-70647885D01*
X200206000Y-70647885D01*
X200206000Y-68652115D01*
X200201525Y-68636876D01*
X200200135Y-68635671D01*
X200192452Y-68634000D01*
X199143225Y-68634000D01*
X199129694Y-68637973D01*
X199128257Y-68647966D01*
X199158565Y-68782446D01*
X199161645Y-68792275D01*
X199241770Y-68989603D01*
X199246413Y-68998794D01*
X199357694Y-69180388D01*
X199363777Y-69188699D01*
X199503213Y-69349667D01*
X199510580Y-69356883D01*
X199674434Y-69492916D01*
X199682881Y-69498831D01*
X199752479Y-69539501D01*
X199801203Y-69591140D01*
X199814274Y-69660923D01*
X199787543Y-69726694D01*
X199747087Y-69760053D01*
X199738462Y-69764542D01*
X199729738Y-69770036D01*
X199559433Y-69897905D01*
X199551726Y-69904748D01*
X199404590Y-70058717D01*
X199398104Y-70066727D01*
X199278098Y-70242649D01*
X199273000Y-70251623D01*
X199183338Y-70444783D01*
X199179775Y-70454470D01*
X199124389Y-70654183D01*
X182333002Y-70654183D01*
X182333180Y-70652947D01*
X182291214Y-70485875D01*
X182287894Y-70476124D01*
X182202972Y-70280814D01*
X182198105Y-70271739D01*
X182082426Y-70092926D01*
X182076136Y-70084757D01*
X181932806Y-69927240D01*
X181925273Y-69920215D01*
X181758139Y-69788222D01*
X181749552Y-69782517D01*
X181712116Y-69761851D01*
X181662146Y-69711419D01*
X181647374Y-69641976D01*
X181672490Y-69575571D01*
X181699842Y-69548964D01*
X181875327Y-69423792D01*
X181883200Y-69417139D01*
X182034052Y-69266812D01*
X182040730Y-69258965D01*
X182165003Y-69086020D01*
X182170313Y-69077183D01*
X182264670Y-68886267D01*
X182268469Y-68876672D01*
X182330377Y-68672910D01*
X182332555Y-68662837D01*
X182333986Y-68651962D01*
X182331775Y-68637778D01*
X182318617Y-68634000D01*
X181272115Y-68634000D01*
X181256876Y-68638475D01*
X181255671Y-68639865D01*
X181254000Y-68647548D01*
X181254000Y-70647885D01*
X180746000Y-70647885D01*
X180746000Y-68652115D01*
X180741525Y-68636876D01*
X180740135Y-68635671D01*
X180732452Y-68634000D01*
X178732115Y-68634000D01*
X178716876Y-68638475D01*
X178715671Y-68639865D01*
X178714000Y-68647548D01*
X178714000Y-70647885D01*
X178206000Y-70647885D01*
X178206000Y-68652115D01*
X178201525Y-68636876D01*
X178200135Y-68635671D01*
X178192452Y-68634000D01*
X177143225Y-68634000D01*
X177129694Y-68637973D01*
X177128257Y-68647966D01*
X177158565Y-68782446D01*
X177161645Y-68792275D01*
X177241770Y-68989603D01*
X177246413Y-68998794D01*
X177357694Y-69180388D01*
X177363777Y-69188699D01*
X177503213Y-69349667D01*
X177510580Y-69356883D01*
X177674434Y-69492916D01*
X177682881Y-69498831D01*
X177752479Y-69539501D01*
X177801203Y-69591140D01*
X177814274Y-69660923D01*
X177787543Y-69726694D01*
X177747087Y-69760053D01*
X177738462Y-69764542D01*
X177729738Y-69770036D01*
X177559433Y-69897905D01*
X177551726Y-69904748D01*
X177404590Y-70058717D01*
X177398104Y-70066727D01*
X177278098Y-70242649D01*
X177273000Y-70251623D01*
X177183338Y-70444783D01*
X177179775Y-70454470D01*
X177124389Y-70654183D01*
X160333002Y-70654183D01*
X160333180Y-70652947D01*
X160291214Y-70485875D01*
X160287894Y-70476124D01*
X160202972Y-70280814D01*
X160198105Y-70271739D01*
X160082426Y-70092926D01*
X160076136Y-70084757D01*
X159932806Y-69927240D01*
X159925273Y-69920215D01*
X159758139Y-69788222D01*
X159749552Y-69782517D01*
X159712116Y-69761851D01*
X159662146Y-69711419D01*
X159647374Y-69641976D01*
X159672490Y-69575571D01*
X159699842Y-69548964D01*
X159875327Y-69423792D01*
X159883200Y-69417139D01*
X160034052Y-69266812D01*
X160040730Y-69258965D01*
X160165003Y-69086020D01*
X160170313Y-69077183D01*
X160264670Y-68886267D01*
X160268469Y-68876672D01*
X160330377Y-68672910D01*
X160332555Y-68662837D01*
X160333986Y-68651962D01*
X160331775Y-68637778D01*
X160318617Y-68634000D01*
X159272115Y-68634000D01*
X159256876Y-68638475D01*
X159255671Y-68639865D01*
X159254000Y-68647548D01*
X159254000Y-70647885D01*
X158746000Y-70647885D01*
X158746000Y-68652115D01*
X158741525Y-68636876D01*
X158740135Y-68635671D01*
X158732452Y-68634000D01*
X156732115Y-68634000D01*
X156716876Y-68638475D01*
X156715671Y-68639865D01*
X156714000Y-68647548D01*
X156714000Y-70647885D01*
X156206000Y-70647885D01*
X156206000Y-68652115D01*
X156201525Y-68636876D01*
X156200135Y-68635671D01*
X156192452Y-68634000D01*
X155143225Y-68634000D01*
X155129694Y-68637973D01*
X155128257Y-68647966D01*
X155158565Y-68782446D01*
X155161645Y-68792275D01*
X155241770Y-68989603D01*
X155246413Y-68998794D01*
X155357694Y-69180388D01*
X155363777Y-69188699D01*
X155503213Y-69349667D01*
X155510580Y-69356883D01*
X155674434Y-69492916D01*
X155682881Y-69498831D01*
X155752479Y-69539501D01*
X155801203Y-69591140D01*
X155814274Y-69660923D01*
X155787543Y-69726694D01*
X155747087Y-69760053D01*
X155738462Y-69764542D01*
X155729738Y-69770036D01*
X155559433Y-69897905D01*
X155551726Y-69904748D01*
X155404590Y-70058717D01*
X155398104Y-70066727D01*
X155278098Y-70242649D01*
X155273000Y-70251623D01*
X155183338Y-70444783D01*
X155179775Y-70454470D01*
X155124389Y-70654183D01*
X147001030Y-70654183D01*
X147013165Y-70500000D01*
X146994535Y-70263289D01*
X146991735Y-70251623D01*
X146958360Y-70112609D01*
X146939105Y-70032406D01*
X146895544Y-69927240D01*
X146850135Y-69817611D01*
X146850133Y-69817607D01*
X146848240Y-69813037D01*
X146755024Y-69660923D01*
X146726759Y-69614798D01*
X146726755Y-69614792D01*
X146724176Y-69610584D01*
X146569969Y-69430031D01*
X146389416Y-69275824D01*
X146385208Y-69273245D01*
X146385202Y-69273241D01*
X146191183Y-69154346D01*
X146186963Y-69151760D01*
X146182393Y-69149867D01*
X146182389Y-69149865D01*
X145972167Y-69062789D01*
X145972165Y-69062788D01*
X145967594Y-69060895D01*
X145875878Y-69038876D01*
X145741524Y-69006620D01*
X145741518Y-69006619D01*
X145736711Y-69005465D01*
X145500000Y-68986835D01*
X145263289Y-69005465D01*
X145258482Y-69006619D01*
X145258476Y-69006620D01*
X145124122Y-69038876D01*
X145032406Y-69060895D01*
X145027835Y-69062788D01*
X145027833Y-69062789D01*
X144817611Y-69149865D01*
X144817607Y-69149867D01*
X144813037Y-69151760D01*
X144808817Y-69154346D01*
X144614798Y-69273241D01*
X144614792Y-69273245D01*
X144610584Y-69275824D01*
X144430031Y-69430031D01*
X144275824Y-69610584D01*
X144273245Y-69614792D01*
X144273241Y-69614798D01*
X144244976Y-69660923D01*
X144151760Y-69813037D01*
X144149867Y-69817607D01*
X144149865Y-69817611D01*
X144104456Y-69927240D01*
X144060895Y-70032406D01*
X144041640Y-70112609D01*
X144008266Y-70251623D01*
X144005465Y-70263289D01*
X143986835Y-70500000D01*
X144005465Y-70736711D01*
X144060895Y-70967594D01*
X144062788Y-70972165D01*
X144062789Y-70972167D01*
X144149772Y-71182163D01*
X144151760Y-71186963D01*
X144154346Y-71191183D01*
X144273241Y-71385202D01*
X144273245Y-71385208D01*
X144275824Y-71389416D01*
X144430031Y-71569969D01*
X144433787Y-71573177D01*
X144433788Y-71573178D01*
X144447332Y-71584746D01*
X144486140Y-71644197D01*
X144491500Y-71680556D01*
X144491500Y-74865500D01*
X144471498Y-74933621D01*
X144417842Y-74980114D01*
X144365500Y-74991500D01*
X126921009Y-74991500D01*
X126852888Y-74971498D01*
X126806395Y-74917842D01*
X126804097Y-74912306D01*
X126803767Y-74911703D01*
X126800615Y-74903295D01*
X126713261Y-74786739D01*
X126596705Y-74699385D01*
X126477687Y-74654767D01*
X126420923Y-74612125D01*
X126396223Y-74545564D01*
X126411430Y-74476215D01*
X126432977Y-74447535D01*
X126534052Y-74346812D01*
X126540730Y-74338965D01*
X126665003Y-74166020D01*
X126670313Y-74157183D01*
X126764670Y-73966267D01*
X126768469Y-73956672D01*
X126830377Y-73752910D01*
X126832555Y-73742837D01*
X126833986Y-73731962D01*
X126831775Y-73717778D01*
X126818617Y-73714000D01*
X121643225Y-73714000D01*
X121629694Y-73717973D01*
X121628257Y-73727966D01*
X121658565Y-73862446D01*
X121661645Y-73872275D01*
X121741770Y-74069603D01*
X121746413Y-74078794D01*
X121857694Y-74260388D01*
X121863777Y-74268699D01*
X122003213Y-74429667D01*
X122010580Y-74436883D01*
X122174434Y-74572916D01*
X122182881Y-74578831D01*
X122251969Y-74619203D01*
X122300693Y-74670842D01*
X122313764Y-74740625D01*
X122287033Y-74806396D01*
X122246584Y-74839752D01*
X122233607Y-74846507D01*
X122229474Y-74849610D01*
X122229471Y-74849612D01*
X122074111Y-74966260D01*
X122007626Y-74991166D01*
X121998458Y-74991500D01*
X104921009Y-74991500D01*
X104852888Y-74971498D01*
X104806395Y-74917842D01*
X104804097Y-74912306D01*
X104803767Y-74911703D01*
X104800615Y-74903295D01*
X104713261Y-74786739D01*
X104596705Y-74699385D01*
X104477687Y-74654767D01*
X104420923Y-74612125D01*
X104396223Y-74545564D01*
X104411430Y-74476215D01*
X104432977Y-74447535D01*
X104534052Y-74346812D01*
X104540730Y-74338965D01*
X104665003Y-74166020D01*
X104670313Y-74157183D01*
X104764670Y-73966267D01*
X104768469Y-73956672D01*
X104830377Y-73752910D01*
X104832555Y-73742837D01*
X104833986Y-73731962D01*
X104831775Y-73717778D01*
X104818617Y-73714000D01*
X99643225Y-73714000D01*
X99629694Y-73717973D01*
X99628257Y-73727966D01*
X99658565Y-73862446D01*
X99661645Y-73872275D01*
X99741770Y-74069603D01*
X99746413Y-74078794D01*
X99857694Y-74260388D01*
X99863777Y-74268699D01*
X100003213Y-74429667D01*
X100010580Y-74436883D01*
X100174434Y-74572916D01*
X100182881Y-74578831D01*
X100251969Y-74619203D01*
X100300693Y-74670842D01*
X100313764Y-74740625D01*
X100287033Y-74806396D01*
X100246584Y-74839752D01*
X100233607Y-74846507D01*
X100229474Y-74849610D01*
X100229471Y-74849612D01*
X100074111Y-74966260D01*
X100007626Y-74991166D01*
X99998458Y-74991500D01*
X82921009Y-74991500D01*
X82852888Y-74971498D01*
X82806395Y-74917842D01*
X82804097Y-74912306D01*
X82803767Y-74911703D01*
X82800615Y-74903295D01*
X82713261Y-74786739D01*
X82596705Y-74699385D01*
X82477687Y-74654767D01*
X82420923Y-74612125D01*
X82396223Y-74545564D01*
X82411430Y-74476215D01*
X82432977Y-74447535D01*
X82534052Y-74346812D01*
X82540730Y-74338965D01*
X82665003Y-74166020D01*
X82670313Y-74157183D01*
X82764670Y-73966267D01*
X82768469Y-73956672D01*
X82830377Y-73752910D01*
X82832555Y-73742837D01*
X82833986Y-73731962D01*
X82831775Y-73717778D01*
X82818617Y-73714000D01*
X77643225Y-73714000D01*
X77629694Y-73717973D01*
X77628257Y-73727966D01*
X77658565Y-73862446D01*
X77661645Y-73872275D01*
X77741770Y-74069603D01*
X77746413Y-74078794D01*
X77857694Y-74260388D01*
X77863777Y-74268699D01*
X78003213Y-74429667D01*
X78010580Y-74436883D01*
X78174434Y-74572916D01*
X78182881Y-74578831D01*
X78251969Y-74619203D01*
X78300693Y-74670842D01*
X78313764Y-74740625D01*
X78287033Y-74806396D01*
X78246584Y-74839752D01*
X78233607Y-74846507D01*
X78229474Y-74849610D01*
X78229471Y-74849612D01*
X78074111Y-74966260D01*
X78007626Y-74991166D01*
X77998458Y-74991500D01*
X60921009Y-74991500D01*
X60852888Y-74971498D01*
X60806395Y-74917842D01*
X60804097Y-74912306D01*
X60803767Y-74911703D01*
X60800615Y-74903295D01*
X60713261Y-74786739D01*
X60596705Y-74699385D01*
X60477687Y-74654767D01*
X60420923Y-74612125D01*
X60396223Y-74545564D01*
X60411430Y-74476215D01*
X60432977Y-74447535D01*
X60534052Y-74346812D01*
X60540730Y-74338965D01*
X60665003Y-74166020D01*
X60670313Y-74157183D01*
X60764670Y-73966267D01*
X60768469Y-73956672D01*
X60830377Y-73752910D01*
X60832555Y-73742837D01*
X60833986Y-73731962D01*
X60831775Y-73717778D01*
X60818617Y-73714000D01*
X55643225Y-73714000D01*
X55629694Y-73717973D01*
X55628257Y-73727966D01*
X55658565Y-73862446D01*
X55661645Y-73872275D01*
X55741770Y-74069603D01*
X55746413Y-74078794D01*
X55857694Y-74260388D01*
X55863777Y-74268699D01*
X56003213Y-74429667D01*
X56010580Y-74436883D01*
X56174434Y-74572916D01*
X56182881Y-74578831D01*
X56251969Y-74619203D01*
X56300693Y-74670842D01*
X56313764Y-74740625D01*
X56287033Y-74806396D01*
X56246584Y-74839752D01*
X56233607Y-74846507D01*
X56229474Y-74849610D01*
X56229471Y-74849612D01*
X56073804Y-74966490D01*
X56054965Y-74980635D01*
X55900629Y-75142138D01*
X55774743Y-75326680D01*
X55680688Y-75529305D01*
X55620989Y-75744570D01*
X55597251Y-75966695D01*
X51508000Y-75966695D01*
X51508000Y-73194183D01*
X55624389Y-73194183D01*
X55625912Y-73202607D01*
X55638292Y-73206000D01*
X56687885Y-73206000D01*
X56703124Y-73201525D01*
X56704329Y-73200135D01*
X56706000Y-73192452D01*
X56706000Y-73187885D01*
X57214000Y-73187885D01*
X57218475Y-73203124D01*
X57219865Y-73204329D01*
X57227548Y-73206000D01*
X59227885Y-73206000D01*
X59243124Y-73201525D01*
X59244329Y-73200135D01*
X59246000Y-73192452D01*
X59246000Y-73187885D01*
X59754000Y-73187885D01*
X59758475Y-73203124D01*
X59759865Y-73204329D01*
X59767548Y-73206000D01*
X60818344Y-73206000D01*
X60831875Y-73202027D01*
X60833002Y-73194183D01*
X77624389Y-73194183D01*
X77625912Y-73202607D01*
X77638292Y-73206000D01*
X78687885Y-73206000D01*
X78703124Y-73201525D01*
X78704329Y-73200135D01*
X78706000Y-73192452D01*
X78706000Y-73187885D01*
X79214000Y-73187885D01*
X79218475Y-73203124D01*
X79219865Y-73204329D01*
X79227548Y-73206000D01*
X81227885Y-73206000D01*
X81243124Y-73201525D01*
X81244329Y-73200135D01*
X81246000Y-73192452D01*
X81246000Y-73187885D01*
X81754000Y-73187885D01*
X81758475Y-73203124D01*
X81759865Y-73204329D01*
X81767548Y-73206000D01*
X82818344Y-73206000D01*
X82831875Y-73202027D01*
X82833002Y-73194183D01*
X99624389Y-73194183D01*
X99625912Y-73202607D01*
X99638292Y-73206000D01*
X100687885Y-73206000D01*
X100703124Y-73201525D01*
X100704329Y-73200135D01*
X100706000Y-73192452D01*
X100706000Y-73187885D01*
X101214000Y-73187885D01*
X101218475Y-73203124D01*
X101219865Y-73204329D01*
X101227548Y-73206000D01*
X103227885Y-73206000D01*
X103243124Y-73201525D01*
X103244329Y-73200135D01*
X103246000Y-73192452D01*
X103246000Y-73187885D01*
X103754000Y-73187885D01*
X103758475Y-73203124D01*
X103759865Y-73204329D01*
X103767548Y-73206000D01*
X104818344Y-73206000D01*
X104831875Y-73202027D01*
X104833002Y-73194183D01*
X121624389Y-73194183D01*
X121625912Y-73202607D01*
X121638292Y-73206000D01*
X122687885Y-73206000D01*
X122703124Y-73201525D01*
X122704329Y-73200135D01*
X122706000Y-73192452D01*
X122706000Y-73187885D01*
X123214000Y-73187885D01*
X123218475Y-73203124D01*
X123219865Y-73204329D01*
X123227548Y-73206000D01*
X125227885Y-73206000D01*
X125243124Y-73201525D01*
X125244329Y-73200135D01*
X125246000Y-73192452D01*
X125246000Y-73187885D01*
X125754000Y-73187885D01*
X125758475Y-73203124D01*
X125759865Y-73204329D01*
X125767548Y-73206000D01*
X126818344Y-73206000D01*
X126831875Y-73202027D01*
X126833180Y-73192947D01*
X126791214Y-73025875D01*
X126787894Y-73016124D01*
X126702972Y-72820814D01*
X126698105Y-72811739D01*
X126582426Y-72632926D01*
X126576136Y-72624757D01*
X126432806Y-72467240D01*
X126425273Y-72460215D01*
X126258139Y-72328222D01*
X126249552Y-72322517D01*
X126212116Y-72301851D01*
X126162146Y-72251419D01*
X126147374Y-72181976D01*
X126172490Y-72115571D01*
X126199842Y-72088964D01*
X126375327Y-71963792D01*
X126383200Y-71957139D01*
X126534052Y-71806812D01*
X126540730Y-71798965D01*
X126665003Y-71626020D01*
X126670313Y-71617183D01*
X126764670Y-71426267D01*
X126768469Y-71416672D01*
X126830377Y-71212910D01*
X126832555Y-71202837D01*
X126833986Y-71191962D01*
X126831775Y-71177778D01*
X126818617Y-71174000D01*
X125772115Y-71174000D01*
X125756876Y-71178475D01*
X125755671Y-71179865D01*
X125754000Y-71187548D01*
X125754000Y-73187885D01*
X125246000Y-73187885D01*
X125246000Y-71192115D01*
X125241525Y-71176876D01*
X125240135Y-71175671D01*
X125232452Y-71174000D01*
X123232115Y-71174000D01*
X123216876Y-71178475D01*
X123215671Y-71179865D01*
X123214000Y-71187548D01*
X123214000Y-73187885D01*
X122706000Y-73187885D01*
X122706000Y-71192115D01*
X122701525Y-71176876D01*
X122700135Y-71175671D01*
X122692452Y-71174000D01*
X121643225Y-71174000D01*
X121629694Y-71177973D01*
X121628257Y-71187966D01*
X121658565Y-71322446D01*
X121661645Y-71332275D01*
X121741770Y-71529603D01*
X121746413Y-71538794D01*
X121857694Y-71720388D01*
X121863777Y-71728699D01*
X122003213Y-71889667D01*
X122010580Y-71896883D01*
X122174434Y-72032916D01*
X122182881Y-72038831D01*
X122252479Y-72079501D01*
X122301203Y-72131140D01*
X122314274Y-72200923D01*
X122287543Y-72266694D01*
X122247087Y-72300053D01*
X122238462Y-72304542D01*
X122229738Y-72310036D01*
X122059433Y-72437905D01*
X122051726Y-72444748D01*
X121904590Y-72598717D01*
X121898104Y-72606727D01*
X121778098Y-72782649D01*
X121773000Y-72791623D01*
X121683338Y-72984783D01*
X121679775Y-72994470D01*
X121624389Y-73194183D01*
X104833002Y-73194183D01*
X104833180Y-73192947D01*
X104791214Y-73025875D01*
X104787894Y-73016124D01*
X104702972Y-72820814D01*
X104698105Y-72811739D01*
X104582426Y-72632926D01*
X104576136Y-72624757D01*
X104432806Y-72467240D01*
X104425273Y-72460215D01*
X104258139Y-72328222D01*
X104249552Y-72322517D01*
X104212116Y-72301851D01*
X104162146Y-72251419D01*
X104147374Y-72181976D01*
X104172490Y-72115571D01*
X104199842Y-72088964D01*
X104375327Y-71963792D01*
X104383200Y-71957139D01*
X104534052Y-71806812D01*
X104540730Y-71798965D01*
X104665003Y-71626020D01*
X104670313Y-71617183D01*
X104764670Y-71426267D01*
X104768469Y-71416672D01*
X104830377Y-71212910D01*
X104832555Y-71202837D01*
X104833986Y-71191962D01*
X104831775Y-71177778D01*
X104818617Y-71174000D01*
X103772115Y-71174000D01*
X103756876Y-71178475D01*
X103755671Y-71179865D01*
X103754000Y-71187548D01*
X103754000Y-73187885D01*
X103246000Y-73187885D01*
X103246000Y-71192115D01*
X103241525Y-71176876D01*
X103240135Y-71175671D01*
X103232452Y-71174000D01*
X101232115Y-71174000D01*
X101216876Y-71178475D01*
X101215671Y-71179865D01*
X101214000Y-71187548D01*
X101214000Y-73187885D01*
X100706000Y-73187885D01*
X100706000Y-71192115D01*
X100701525Y-71176876D01*
X100700135Y-71175671D01*
X100692452Y-71174000D01*
X99643225Y-71174000D01*
X99629694Y-71177973D01*
X99628257Y-71187966D01*
X99658565Y-71322446D01*
X99661645Y-71332275D01*
X99741770Y-71529603D01*
X99746413Y-71538794D01*
X99857694Y-71720388D01*
X99863777Y-71728699D01*
X100003213Y-71889667D01*
X100010580Y-71896883D01*
X100174434Y-72032916D01*
X100182881Y-72038831D01*
X100252479Y-72079501D01*
X100301203Y-72131140D01*
X100314274Y-72200923D01*
X100287543Y-72266694D01*
X100247087Y-72300053D01*
X100238462Y-72304542D01*
X100229738Y-72310036D01*
X100059433Y-72437905D01*
X100051726Y-72444748D01*
X99904590Y-72598717D01*
X99898104Y-72606727D01*
X99778098Y-72782649D01*
X99773000Y-72791623D01*
X99683338Y-72984783D01*
X99679775Y-72994470D01*
X99624389Y-73194183D01*
X82833002Y-73194183D01*
X82833180Y-73192947D01*
X82791214Y-73025875D01*
X82787894Y-73016124D01*
X82702972Y-72820814D01*
X82698105Y-72811739D01*
X82582426Y-72632926D01*
X82576136Y-72624757D01*
X82432806Y-72467240D01*
X82425273Y-72460215D01*
X82258139Y-72328222D01*
X82249552Y-72322517D01*
X82212116Y-72301851D01*
X82162146Y-72251419D01*
X82147374Y-72181976D01*
X82172490Y-72115571D01*
X82199842Y-72088964D01*
X82375327Y-71963792D01*
X82383200Y-71957139D01*
X82534052Y-71806812D01*
X82540730Y-71798965D01*
X82665003Y-71626020D01*
X82670313Y-71617183D01*
X82764670Y-71426267D01*
X82768469Y-71416672D01*
X82830377Y-71212910D01*
X82832555Y-71202837D01*
X82833986Y-71191962D01*
X82831775Y-71177778D01*
X82818617Y-71174000D01*
X81772115Y-71174000D01*
X81756876Y-71178475D01*
X81755671Y-71179865D01*
X81754000Y-71187548D01*
X81754000Y-73187885D01*
X81246000Y-73187885D01*
X81246000Y-71192115D01*
X81241525Y-71176876D01*
X81240135Y-71175671D01*
X81232452Y-71174000D01*
X79232115Y-71174000D01*
X79216876Y-71178475D01*
X79215671Y-71179865D01*
X79214000Y-71187548D01*
X79214000Y-73187885D01*
X78706000Y-73187885D01*
X78706000Y-71192115D01*
X78701525Y-71176876D01*
X78700135Y-71175671D01*
X78692452Y-71174000D01*
X77643225Y-71174000D01*
X77629694Y-71177973D01*
X77628257Y-71187966D01*
X77658565Y-71322446D01*
X77661645Y-71332275D01*
X77741770Y-71529603D01*
X77746413Y-71538794D01*
X77857694Y-71720388D01*
X77863777Y-71728699D01*
X78003213Y-71889667D01*
X78010580Y-71896883D01*
X78174434Y-72032916D01*
X78182881Y-72038831D01*
X78252479Y-72079501D01*
X78301203Y-72131140D01*
X78314274Y-72200923D01*
X78287543Y-72266694D01*
X78247087Y-72300053D01*
X78238462Y-72304542D01*
X78229738Y-72310036D01*
X78059433Y-72437905D01*
X78051726Y-72444748D01*
X77904590Y-72598717D01*
X77898104Y-72606727D01*
X77778098Y-72782649D01*
X77773000Y-72791623D01*
X77683338Y-72984783D01*
X77679775Y-72994470D01*
X77624389Y-73194183D01*
X60833002Y-73194183D01*
X60833180Y-73192947D01*
X60791214Y-73025875D01*
X60787894Y-73016124D01*
X60702972Y-72820814D01*
X60698105Y-72811739D01*
X60582426Y-72632926D01*
X60576136Y-72624757D01*
X60432806Y-72467240D01*
X60425273Y-72460215D01*
X60258139Y-72328222D01*
X60249552Y-72322517D01*
X60212116Y-72301851D01*
X60162146Y-72251419D01*
X60147374Y-72181976D01*
X60172490Y-72115571D01*
X60199842Y-72088964D01*
X60375327Y-71963792D01*
X60383200Y-71957139D01*
X60534052Y-71806812D01*
X60540730Y-71798965D01*
X60665003Y-71626020D01*
X60670313Y-71617183D01*
X60764670Y-71426267D01*
X60768469Y-71416672D01*
X60830377Y-71212910D01*
X60832555Y-71202837D01*
X60833986Y-71191962D01*
X60831775Y-71177778D01*
X60818617Y-71174000D01*
X59772115Y-71174000D01*
X59756876Y-71178475D01*
X59755671Y-71179865D01*
X59754000Y-71187548D01*
X59754000Y-73187885D01*
X59246000Y-73187885D01*
X59246000Y-71192115D01*
X59241525Y-71176876D01*
X59240135Y-71175671D01*
X59232452Y-71174000D01*
X57232115Y-71174000D01*
X57216876Y-71178475D01*
X57215671Y-71179865D01*
X57214000Y-71187548D01*
X57214000Y-73187885D01*
X56706000Y-73187885D01*
X56706000Y-71192115D01*
X56701525Y-71176876D01*
X56700135Y-71175671D01*
X56692452Y-71174000D01*
X55643225Y-71174000D01*
X55629694Y-71177973D01*
X55628257Y-71187966D01*
X55658565Y-71322446D01*
X55661645Y-71332275D01*
X55741770Y-71529603D01*
X55746413Y-71538794D01*
X55857694Y-71720388D01*
X55863777Y-71728699D01*
X56003213Y-71889667D01*
X56010580Y-71896883D01*
X56174434Y-72032916D01*
X56182881Y-72038831D01*
X56252479Y-72079501D01*
X56301203Y-72131140D01*
X56314274Y-72200923D01*
X56287543Y-72266694D01*
X56247087Y-72300053D01*
X56238462Y-72304542D01*
X56229738Y-72310036D01*
X56059433Y-72437905D01*
X56051726Y-72444748D01*
X55904590Y-72598717D01*
X55898104Y-72606727D01*
X55778098Y-72782649D01*
X55773000Y-72791623D01*
X55683338Y-72984783D01*
X55679775Y-72994470D01*
X55624389Y-73194183D01*
X51508000Y-73194183D01*
X51508000Y-70654183D01*
X55624389Y-70654183D01*
X55625912Y-70662607D01*
X55638292Y-70666000D01*
X56687885Y-70666000D01*
X56703124Y-70661525D01*
X56704329Y-70660135D01*
X56706000Y-70652452D01*
X56706000Y-70647885D01*
X57214000Y-70647885D01*
X57218475Y-70663124D01*
X57219865Y-70664329D01*
X57227548Y-70666000D01*
X59227885Y-70666000D01*
X59243124Y-70661525D01*
X59244329Y-70660135D01*
X59246000Y-70652452D01*
X59246000Y-70647885D01*
X59754000Y-70647885D01*
X59758475Y-70663124D01*
X59759865Y-70664329D01*
X59767548Y-70666000D01*
X60818344Y-70666000D01*
X60831875Y-70662027D01*
X60833002Y-70654183D01*
X77624389Y-70654183D01*
X77625912Y-70662607D01*
X77638292Y-70666000D01*
X78687885Y-70666000D01*
X78703124Y-70661525D01*
X78704329Y-70660135D01*
X78706000Y-70652452D01*
X78706000Y-70647885D01*
X79214000Y-70647885D01*
X79218475Y-70663124D01*
X79219865Y-70664329D01*
X79227548Y-70666000D01*
X81227885Y-70666000D01*
X81243124Y-70661525D01*
X81244329Y-70660135D01*
X81246000Y-70652452D01*
X81246000Y-70647885D01*
X81754000Y-70647885D01*
X81758475Y-70663124D01*
X81759865Y-70664329D01*
X81767548Y-70666000D01*
X82818344Y-70666000D01*
X82831875Y-70662027D01*
X82833002Y-70654183D01*
X99624389Y-70654183D01*
X99625912Y-70662607D01*
X99638292Y-70666000D01*
X100687885Y-70666000D01*
X100703124Y-70661525D01*
X100704329Y-70660135D01*
X100706000Y-70652452D01*
X100706000Y-70647885D01*
X101214000Y-70647885D01*
X101218475Y-70663124D01*
X101219865Y-70664329D01*
X101227548Y-70666000D01*
X103227885Y-70666000D01*
X103243124Y-70661525D01*
X103244329Y-70660135D01*
X103246000Y-70652452D01*
X103246000Y-70647885D01*
X103754000Y-70647885D01*
X103758475Y-70663124D01*
X103759865Y-70664329D01*
X103767548Y-70666000D01*
X104818344Y-70666000D01*
X104831875Y-70662027D01*
X104833002Y-70654183D01*
X121624389Y-70654183D01*
X121625912Y-70662607D01*
X121638292Y-70666000D01*
X122687885Y-70666000D01*
X122703124Y-70661525D01*
X122704329Y-70660135D01*
X122706000Y-70652452D01*
X122706000Y-70647885D01*
X123214000Y-70647885D01*
X123218475Y-70663124D01*
X123219865Y-70664329D01*
X123227548Y-70666000D01*
X125227885Y-70666000D01*
X125243124Y-70661525D01*
X125244329Y-70660135D01*
X125246000Y-70652452D01*
X125246000Y-70647885D01*
X125754000Y-70647885D01*
X125758475Y-70663124D01*
X125759865Y-70664329D01*
X125767548Y-70666000D01*
X126818344Y-70666000D01*
X126831875Y-70662027D01*
X126833180Y-70652947D01*
X126791214Y-70485875D01*
X126787894Y-70476124D01*
X126702972Y-70280814D01*
X126698105Y-70271739D01*
X126582426Y-70092926D01*
X126576136Y-70084757D01*
X126432806Y-69927240D01*
X126425273Y-69920215D01*
X126258139Y-69788222D01*
X126249552Y-69782517D01*
X126212116Y-69761851D01*
X126162146Y-69711419D01*
X126147374Y-69641976D01*
X126172490Y-69575571D01*
X126199842Y-69548964D01*
X126375327Y-69423792D01*
X126383200Y-69417139D01*
X126534052Y-69266812D01*
X126540730Y-69258965D01*
X126665003Y-69086020D01*
X126670313Y-69077183D01*
X126764670Y-68886267D01*
X126768469Y-68876672D01*
X126830377Y-68672910D01*
X126832555Y-68662837D01*
X126833986Y-68651962D01*
X126831775Y-68637778D01*
X126818617Y-68634000D01*
X125772115Y-68634000D01*
X125756876Y-68638475D01*
X125755671Y-68639865D01*
X125754000Y-68647548D01*
X125754000Y-70647885D01*
X125246000Y-70647885D01*
X125246000Y-68652115D01*
X125241525Y-68636876D01*
X125240135Y-68635671D01*
X125232452Y-68634000D01*
X123232115Y-68634000D01*
X123216876Y-68638475D01*
X123215671Y-68639865D01*
X123214000Y-68647548D01*
X123214000Y-70647885D01*
X122706000Y-70647885D01*
X122706000Y-68652115D01*
X122701525Y-68636876D01*
X122700135Y-68635671D01*
X122692452Y-68634000D01*
X121643225Y-68634000D01*
X121629694Y-68637973D01*
X121628257Y-68647966D01*
X121658565Y-68782446D01*
X121661645Y-68792275D01*
X121741770Y-68989603D01*
X121746413Y-68998794D01*
X121857694Y-69180388D01*
X121863777Y-69188699D01*
X122003213Y-69349667D01*
X122010580Y-69356883D01*
X122174434Y-69492916D01*
X122182881Y-69498831D01*
X122252479Y-69539501D01*
X122301203Y-69591140D01*
X122314274Y-69660923D01*
X122287543Y-69726694D01*
X122247087Y-69760053D01*
X122238462Y-69764542D01*
X122229738Y-69770036D01*
X122059433Y-69897905D01*
X122051726Y-69904748D01*
X121904590Y-70058717D01*
X121898104Y-70066727D01*
X121778098Y-70242649D01*
X121773000Y-70251623D01*
X121683338Y-70444783D01*
X121679775Y-70454470D01*
X121624389Y-70654183D01*
X104833002Y-70654183D01*
X104833180Y-70652947D01*
X104791214Y-70485875D01*
X104787894Y-70476124D01*
X104702972Y-70280814D01*
X104698105Y-70271739D01*
X104582426Y-70092926D01*
X104576136Y-70084757D01*
X104432806Y-69927240D01*
X104425273Y-69920215D01*
X104258139Y-69788222D01*
X104249552Y-69782517D01*
X104212116Y-69761851D01*
X104162146Y-69711419D01*
X104147374Y-69641976D01*
X104172490Y-69575571D01*
X104199842Y-69548964D01*
X104375327Y-69423792D01*
X104383200Y-69417139D01*
X104534052Y-69266812D01*
X104540730Y-69258965D01*
X104665003Y-69086020D01*
X104670313Y-69077183D01*
X104764670Y-68886267D01*
X104768469Y-68876672D01*
X104830377Y-68672910D01*
X104832555Y-68662837D01*
X104833986Y-68651962D01*
X104831775Y-68637778D01*
X104818617Y-68634000D01*
X103772115Y-68634000D01*
X103756876Y-68638475D01*
X103755671Y-68639865D01*
X103754000Y-68647548D01*
X103754000Y-70647885D01*
X103246000Y-70647885D01*
X103246000Y-68652115D01*
X103241525Y-68636876D01*
X103240135Y-68635671D01*
X103232452Y-68634000D01*
X101232115Y-68634000D01*
X101216876Y-68638475D01*
X101215671Y-68639865D01*
X101214000Y-68647548D01*
X101214000Y-70647885D01*
X100706000Y-70647885D01*
X100706000Y-68652115D01*
X100701525Y-68636876D01*
X100700135Y-68635671D01*
X100692452Y-68634000D01*
X99643225Y-68634000D01*
X99629694Y-68637973D01*
X99628257Y-68647966D01*
X99658565Y-68782446D01*
X99661645Y-68792275D01*
X99741770Y-68989603D01*
X99746413Y-68998794D01*
X99857694Y-69180388D01*
X99863777Y-69188699D01*
X100003213Y-69349667D01*
X100010580Y-69356883D01*
X100174434Y-69492916D01*
X100182881Y-69498831D01*
X100252479Y-69539501D01*
X100301203Y-69591140D01*
X100314274Y-69660923D01*
X100287543Y-69726694D01*
X100247087Y-69760053D01*
X100238462Y-69764542D01*
X100229738Y-69770036D01*
X100059433Y-69897905D01*
X100051726Y-69904748D01*
X99904590Y-70058717D01*
X99898104Y-70066727D01*
X99778098Y-70242649D01*
X99773000Y-70251623D01*
X99683338Y-70444783D01*
X99679775Y-70454470D01*
X99624389Y-70654183D01*
X82833002Y-70654183D01*
X82833180Y-70652947D01*
X82791214Y-70485875D01*
X82787894Y-70476124D01*
X82702972Y-70280814D01*
X82698105Y-70271739D01*
X82582426Y-70092926D01*
X82576136Y-70084757D01*
X82432806Y-69927240D01*
X82425273Y-69920215D01*
X82258139Y-69788222D01*
X82249552Y-69782517D01*
X82212116Y-69761851D01*
X82162146Y-69711419D01*
X82147374Y-69641976D01*
X82172490Y-69575571D01*
X82199842Y-69548964D01*
X82375327Y-69423792D01*
X82383200Y-69417139D01*
X82534052Y-69266812D01*
X82540730Y-69258965D01*
X82665003Y-69086020D01*
X82670313Y-69077183D01*
X82764670Y-68886267D01*
X82768469Y-68876672D01*
X82830377Y-68672910D01*
X82832555Y-68662837D01*
X82833986Y-68651962D01*
X82831775Y-68637778D01*
X82818617Y-68634000D01*
X81772115Y-68634000D01*
X81756876Y-68638475D01*
X81755671Y-68639865D01*
X81754000Y-68647548D01*
X81754000Y-70647885D01*
X81246000Y-70647885D01*
X81246000Y-68652115D01*
X81241525Y-68636876D01*
X81240135Y-68635671D01*
X81232452Y-68634000D01*
X79232115Y-68634000D01*
X79216876Y-68638475D01*
X79215671Y-68639865D01*
X79214000Y-68647548D01*
X79214000Y-70647885D01*
X78706000Y-70647885D01*
X78706000Y-68652115D01*
X78701525Y-68636876D01*
X78700135Y-68635671D01*
X78692452Y-68634000D01*
X77643225Y-68634000D01*
X77629694Y-68637973D01*
X77628257Y-68647966D01*
X77658565Y-68782446D01*
X77661645Y-68792275D01*
X77741770Y-68989603D01*
X77746413Y-68998794D01*
X77857694Y-69180388D01*
X77863777Y-69188699D01*
X78003213Y-69349667D01*
X78010580Y-69356883D01*
X78174434Y-69492916D01*
X78182881Y-69498831D01*
X78252479Y-69539501D01*
X78301203Y-69591140D01*
X78314274Y-69660923D01*
X78287543Y-69726694D01*
X78247087Y-69760053D01*
X78238462Y-69764542D01*
X78229738Y-69770036D01*
X78059433Y-69897905D01*
X78051726Y-69904748D01*
X77904590Y-70058717D01*
X77898104Y-70066727D01*
X77778098Y-70242649D01*
X77773000Y-70251623D01*
X77683338Y-70444783D01*
X77679775Y-70454470D01*
X77624389Y-70654183D01*
X60833002Y-70654183D01*
X60833180Y-70652947D01*
X60791214Y-70485875D01*
X60787894Y-70476124D01*
X60702972Y-70280814D01*
X60698105Y-70271739D01*
X60582426Y-70092926D01*
X60576136Y-70084757D01*
X60432806Y-69927240D01*
X60425273Y-69920215D01*
X60258139Y-69788222D01*
X60249552Y-69782517D01*
X60212116Y-69761851D01*
X60162146Y-69711419D01*
X60147374Y-69641976D01*
X60172490Y-69575571D01*
X60199842Y-69548964D01*
X60375327Y-69423792D01*
X60383200Y-69417139D01*
X60534052Y-69266812D01*
X60540730Y-69258965D01*
X60665003Y-69086020D01*
X60670313Y-69077183D01*
X60764670Y-68886267D01*
X60768469Y-68876672D01*
X60830377Y-68672910D01*
X60832555Y-68662837D01*
X60833986Y-68651962D01*
X60831775Y-68637778D01*
X60818617Y-68634000D01*
X59772115Y-68634000D01*
X59756876Y-68638475D01*
X59755671Y-68639865D01*
X59754000Y-68647548D01*
X59754000Y-70647885D01*
X59246000Y-70647885D01*
X59246000Y-68652115D01*
X59241525Y-68636876D01*
X59240135Y-68635671D01*
X59232452Y-68634000D01*
X57232115Y-68634000D01*
X57216876Y-68638475D01*
X57215671Y-68639865D01*
X57214000Y-68647548D01*
X57214000Y-70647885D01*
X56706000Y-70647885D01*
X56706000Y-68652115D01*
X56701525Y-68636876D01*
X56700135Y-68635671D01*
X56692452Y-68634000D01*
X55643225Y-68634000D01*
X55629694Y-68637973D01*
X55628257Y-68647966D01*
X55658565Y-68782446D01*
X55661645Y-68792275D01*
X55741770Y-68989603D01*
X55746413Y-68998794D01*
X55857694Y-69180388D01*
X55863777Y-69188699D01*
X56003213Y-69349667D01*
X56010580Y-69356883D01*
X56174434Y-69492916D01*
X56182881Y-69498831D01*
X56252479Y-69539501D01*
X56301203Y-69591140D01*
X56314274Y-69660923D01*
X56287543Y-69726694D01*
X56247087Y-69760053D01*
X56238462Y-69764542D01*
X56229738Y-69770036D01*
X56059433Y-69897905D01*
X56051726Y-69904748D01*
X55904590Y-70058717D01*
X55898104Y-70066727D01*
X55778098Y-70242649D01*
X55773000Y-70251623D01*
X55683338Y-70444783D01*
X55679775Y-70454470D01*
X55624389Y-70654183D01*
X51508000Y-70654183D01*
X51508000Y-65806695D01*
X55597251Y-65806695D01*
X55597548Y-65811848D01*
X55597548Y-65811851D01*
X55603011Y-65906590D01*
X55610110Y-66029715D01*
X55611247Y-66034761D01*
X55611248Y-66034767D01*
X55631119Y-66122939D01*
X55659222Y-66247639D01*
X55743266Y-66454616D01*
X55859987Y-66645088D01*
X56006250Y-66813938D01*
X56178126Y-66956632D01*
X56208704Y-66974500D01*
X56251955Y-66999774D01*
X56300679Y-67051412D01*
X56313750Y-67121195D01*
X56287019Y-67186967D01*
X56246562Y-67220327D01*
X56238457Y-67224546D01*
X56229738Y-67230036D01*
X56059433Y-67357905D01*
X56051726Y-67364748D01*
X55904590Y-67518717D01*
X55898104Y-67526727D01*
X55778098Y-67702649D01*
X55773000Y-67711623D01*
X55683338Y-67904783D01*
X55679775Y-67914470D01*
X55624389Y-68114183D01*
X55625912Y-68122607D01*
X55638292Y-68126000D01*
X60818344Y-68126000D01*
X60831875Y-68122027D01*
X60833180Y-68112947D01*
X60791214Y-67945875D01*
X60787894Y-67936124D01*
X60702972Y-67740814D01*
X60698105Y-67731739D01*
X60582426Y-67552926D01*
X60576136Y-67544757D01*
X60432806Y-67387240D01*
X60425273Y-67380215D01*
X60258139Y-67248222D01*
X60249556Y-67242520D01*
X60212602Y-67222120D01*
X60162631Y-67171687D01*
X60147859Y-67102245D01*
X60172975Y-67035839D01*
X60200327Y-67009232D01*
X60375651Y-66884175D01*
X60379860Y-66881173D01*
X60382886Y-66878157D01*
X60447588Y-66849570D01*
X60463976Y-66848500D01*
X78002393Y-66848500D01*
X78070514Y-66868502D01*
X78082877Y-66877555D01*
X78178126Y-66956632D01*
X78208704Y-66974500D01*
X78251955Y-66999774D01*
X78300679Y-67051412D01*
X78313750Y-67121195D01*
X78287019Y-67186967D01*
X78246562Y-67220327D01*
X78238457Y-67224546D01*
X78229738Y-67230036D01*
X78059433Y-67357905D01*
X78051726Y-67364748D01*
X77904590Y-67518717D01*
X77898104Y-67526727D01*
X77778098Y-67702649D01*
X77773000Y-67711623D01*
X77683338Y-67904783D01*
X77679775Y-67914470D01*
X77624389Y-68114183D01*
X77625912Y-68122607D01*
X77638292Y-68126000D01*
X82818344Y-68126000D01*
X82831875Y-68122027D01*
X82833180Y-68112947D01*
X82791214Y-67945875D01*
X82787894Y-67936124D01*
X82702972Y-67740814D01*
X82698105Y-67731739D01*
X82582426Y-67552926D01*
X82576136Y-67544757D01*
X82432806Y-67387240D01*
X82425273Y-67380215D01*
X82258139Y-67248222D01*
X82249556Y-67242520D01*
X82212602Y-67222120D01*
X82162631Y-67171687D01*
X82147859Y-67102245D01*
X82172975Y-67035839D01*
X82200327Y-67009232D01*
X82375651Y-66884175D01*
X82379860Y-66881173D01*
X82382886Y-66878157D01*
X82447588Y-66849570D01*
X82463976Y-66848500D01*
X100002393Y-66848500D01*
X100070514Y-66868502D01*
X100082877Y-66877555D01*
X100178126Y-66956632D01*
X100208704Y-66974500D01*
X100251955Y-66999774D01*
X100300679Y-67051412D01*
X100313750Y-67121195D01*
X100287019Y-67186967D01*
X100246562Y-67220327D01*
X100238457Y-67224546D01*
X100229738Y-67230036D01*
X100059433Y-67357905D01*
X100051726Y-67364748D01*
X99904590Y-67518717D01*
X99898104Y-67526727D01*
X99778098Y-67702649D01*
X99773000Y-67711623D01*
X99683338Y-67904783D01*
X99679775Y-67914470D01*
X99624389Y-68114183D01*
X99625912Y-68122607D01*
X99638292Y-68126000D01*
X104818344Y-68126000D01*
X104831875Y-68122027D01*
X104833180Y-68112947D01*
X104791214Y-67945875D01*
X104787894Y-67936124D01*
X104702972Y-67740814D01*
X104698105Y-67731739D01*
X104582426Y-67552926D01*
X104576136Y-67544757D01*
X104432806Y-67387240D01*
X104425273Y-67380215D01*
X104258139Y-67248222D01*
X104249556Y-67242520D01*
X104212602Y-67222120D01*
X104162631Y-67171687D01*
X104147859Y-67102245D01*
X104172975Y-67035839D01*
X104200327Y-67009232D01*
X104375651Y-66884175D01*
X104379860Y-66881173D01*
X104382886Y-66878157D01*
X104447588Y-66849570D01*
X104463976Y-66848500D01*
X122002393Y-66848500D01*
X122070514Y-66868502D01*
X122082877Y-66877555D01*
X122178126Y-66956632D01*
X122208704Y-66974500D01*
X122251955Y-66999774D01*
X122300679Y-67051412D01*
X122313750Y-67121195D01*
X122287019Y-67186967D01*
X122246562Y-67220327D01*
X122238457Y-67224546D01*
X122229738Y-67230036D01*
X122059433Y-67357905D01*
X122051726Y-67364748D01*
X121904590Y-67518717D01*
X121898104Y-67526727D01*
X121778098Y-67702649D01*
X121773000Y-67711623D01*
X121683338Y-67904783D01*
X121679775Y-67914470D01*
X121624389Y-68114183D01*
X121625912Y-68122607D01*
X121638292Y-68126000D01*
X126818344Y-68126000D01*
X126831875Y-68122027D01*
X126833180Y-68112947D01*
X126791214Y-67945875D01*
X126787894Y-67936124D01*
X126702972Y-67740814D01*
X126698105Y-67731739D01*
X126582426Y-67552926D01*
X126576136Y-67544757D01*
X126432806Y-67387240D01*
X126425273Y-67380215D01*
X126258139Y-67248222D01*
X126249556Y-67242520D01*
X126212602Y-67222120D01*
X126162631Y-67171687D01*
X126147859Y-67102245D01*
X126172975Y-67035839D01*
X126200327Y-67009232D01*
X126375651Y-66884175D01*
X126379860Y-66881173D01*
X126382886Y-66878157D01*
X126447588Y-66849570D01*
X126463976Y-66848500D01*
X134365500Y-66848500D01*
X134433621Y-66868502D01*
X134480114Y-66922158D01*
X134491500Y-66974500D01*
X134491500Y-69319444D01*
X134471498Y-69387565D01*
X134447332Y-69415254D01*
X134430031Y-69430031D01*
X134275824Y-69610584D01*
X134273245Y-69614792D01*
X134273241Y-69614798D01*
X134244976Y-69660923D01*
X134151760Y-69813037D01*
X134149867Y-69817607D01*
X134149865Y-69817611D01*
X134104456Y-69927240D01*
X134060895Y-70032406D01*
X134041640Y-70112609D01*
X134008266Y-70251623D01*
X134005465Y-70263289D01*
X133986835Y-70500000D01*
X134005465Y-70736711D01*
X134060895Y-70967594D01*
X134062788Y-70972165D01*
X134062789Y-70972167D01*
X134149772Y-71182163D01*
X134151760Y-71186963D01*
X134154346Y-71191183D01*
X134273241Y-71385202D01*
X134273245Y-71385208D01*
X134275824Y-71389416D01*
X134430031Y-71569969D01*
X134610584Y-71724176D01*
X134614792Y-71726755D01*
X134614798Y-71726759D01*
X134745433Y-71806812D01*
X134813037Y-71848240D01*
X134817607Y-71850133D01*
X134817611Y-71850135D01*
X135027833Y-71937211D01*
X135032406Y-71939105D01*
X135107523Y-71957139D01*
X135258476Y-71993380D01*
X135258482Y-71993381D01*
X135263289Y-71994535D01*
X135500000Y-72013165D01*
X135736711Y-71994535D01*
X135741518Y-71993381D01*
X135741524Y-71993380D01*
X135892477Y-71957139D01*
X135967594Y-71939105D01*
X135972167Y-71937211D01*
X136182389Y-71850135D01*
X136182393Y-71850133D01*
X136186963Y-71848240D01*
X136254567Y-71806812D01*
X136375556Y-71732670D01*
X139632160Y-71732670D01*
X139637887Y-71740320D01*
X139809042Y-71845205D01*
X139817837Y-71849687D01*
X140027988Y-71936734D01*
X140037373Y-71939783D01*
X140258554Y-71992885D01*
X140268301Y-71994428D01*
X140495070Y-72012275D01*
X140504930Y-72012275D01*
X140731699Y-71994428D01*
X140741446Y-71992885D01*
X140962627Y-71939783D01*
X140972012Y-71936734D01*
X141182163Y-71849687D01*
X141190958Y-71845205D01*
X141358445Y-71742568D01*
X141367907Y-71732110D01*
X141364124Y-71723334D01*
X140512812Y-70872022D01*
X140498868Y-70864408D01*
X140497035Y-70864539D01*
X140490420Y-70868790D01*
X139638920Y-71720290D01*
X139632160Y-71732670D01*
X136375556Y-71732670D01*
X136385202Y-71726759D01*
X136385208Y-71726755D01*
X136389416Y-71724176D01*
X136569969Y-71569969D01*
X136724176Y-71389416D01*
X136726755Y-71385208D01*
X136726759Y-71385202D01*
X136845654Y-71191183D01*
X136848240Y-71186963D01*
X136850229Y-71182163D01*
X136937211Y-70972167D01*
X136937212Y-70972165D01*
X136939105Y-70967594D01*
X136994535Y-70736711D01*
X137012777Y-70504930D01*
X138987725Y-70504930D01*
X139005572Y-70731699D01*
X139007115Y-70741446D01*
X139060217Y-70962627D01*
X139063266Y-70972012D01*
X139150313Y-71182163D01*
X139154795Y-71190958D01*
X139257432Y-71358445D01*
X139267890Y-71367907D01*
X139276666Y-71364124D01*
X140127978Y-70512812D01*
X140134356Y-70501132D01*
X140864408Y-70501132D01*
X140864539Y-70502965D01*
X140868790Y-70509580D01*
X141720290Y-71361080D01*
X141732670Y-71367840D01*
X141740320Y-71362113D01*
X141845205Y-71190958D01*
X141849687Y-71182163D01*
X141936734Y-70972012D01*
X141939783Y-70962627D01*
X141992885Y-70741446D01*
X141994428Y-70731699D01*
X142012275Y-70504930D01*
X142012275Y-70495070D01*
X141994428Y-70268301D01*
X141992885Y-70258554D01*
X141939783Y-70037373D01*
X141936734Y-70027988D01*
X141849687Y-69817837D01*
X141845205Y-69809042D01*
X141742568Y-69641555D01*
X141732110Y-69632093D01*
X141723334Y-69635876D01*
X140872022Y-70487188D01*
X140864408Y-70501132D01*
X140134356Y-70501132D01*
X140135592Y-70498868D01*
X140135461Y-70497035D01*
X140131210Y-70490420D01*
X139279710Y-69638920D01*
X139267330Y-69632160D01*
X139259680Y-69637887D01*
X139154795Y-69809042D01*
X139150313Y-69817837D01*
X139063266Y-70027988D01*
X139060217Y-70037373D01*
X139007115Y-70258554D01*
X139005572Y-70268301D01*
X138987725Y-70495070D01*
X138987725Y-70504930D01*
X137012777Y-70504930D01*
X137013165Y-70500000D01*
X136994535Y-70263289D01*
X136991735Y-70251623D01*
X136958360Y-70112609D01*
X136939105Y-70032406D01*
X136895544Y-69927240D01*
X136850135Y-69817611D01*
X136850133Y-69817607D01*
X136848240Y-69813037D01*
X136755024Y-69660923D01*
X136726759Y-69614798D01*
X136726755Y-69614792D01*
X136724176Y-69610584D01*
X136569969Y-69430031D01*
X136552668Y-69415254D01*
X136513860Y-69355803D01*
X136508500Y-69319444D01*
X136508500Y-69267890D01*
X139632093Y-69267890D01*
X139635876Y-69276666D01*
X140487188Y-70127978D01*
X140501132Y-70135592D01*
X140502965Y-70135461D01*
X140509580Y-70131210D01*
X141361080Y-69279710D01*
X141367840Y-69267330D01*
X141362113Y-69259680D01*
X141190958Y-69154795D01*
X141182163Y-69150313D01*
X140972012Y-69063266D01*
X140962627Y-69060217D01*
X140741446Y-69007115D01*
X140731699Y-69005572D01*
X140504930Y-68987725D01*
X140495070Y-68987725D01*
X140268301Y-69005572D01*
X140258554Y-69007115D01*
X140037373Y-69060217D01*
X140027988Y-69063266D01*
X139817837Y-69150313D01*
X139809042Y-69154795D01*
X139641555Y-69257432D01*
X139632093Y-69267890D01*
X136508500Y-69267890D01*
X136508500Y-66974500D01*
X136528502Y-66906379D01*
X136582158Y-66859886D01*
X136634500Y-66848500D01*
X155502393Y-66848500D01*
X155570514Y-66868502D01*
X155582877Y-66877555D01*
X155678126Y-66956632D01*
X155708704Y-66974500D01*
X155751955Y-66999774D01*
X155800679Y-67051412D01*
X155813750Y-67121195D01*
X155787019Y-67186967D01*
X155746562Y-67220327D01*
X155738457Y-67224546D01*
X155729738Y-67230036D01*
X155559433Y-67357905D01*
X155551726Y-67364748D01*
X155404590Y-67518717D01*
X155398104Y-67526727D01*
X155278098Y-67702649D01*
X155273000Y-67711623D01*
X155183338Y-67904783D01*
X155179775Y-67914470D01*
X155124389Y-68114183D01*
X155125912Y-68122607D01*
X155138292Y-68126000D01*
X160318344Y-68126000D01*
X160331875Y-68122027D01*
X160333180Y-68112947D01*
X160291214Y-67945875D01*
X160287894Y-67936124D01*
X160202972Y-67740814D01*
X160198105Y-67731739D01*
X160082426Y-67552926D01*
X160076136Y-67544757D01*
X159932806Y-67387240D01*
X159925273Y-67380215D01*
X159758139Y-67248222D01*
X159749556Y-67242520D01*
X159712602Y-67222120D01*
X159662631Y-67171687D01*
X159647859Y-67102245D01*
X159672975Y-67035839D01*
X159700327Y-67009232D01*
X159875651Y-66884175D01*
X159879860Y-66881173D01*
X159882886Y-66878157D01*
X159947588Y-66849570D01*
X159963976Y-66848500D01*
X177502393Y-66848500D01*
X177570514Y-66868502D01*
X177582877Y-66877555D01*
X177678126Y-66956632D01*
X177708704Y-66974500D01*
X177751955Y-66999774D01*
X177800679Y-67051412D01*
X177813750Y-67121195D01*
X177787019Y-67186967D01*
X177746562Y-67220327D01*
X177738457Y-67224546D01*
X177729738Y-67230036D01*
X177559433Y-67357905D01*
X177551726Y-67364748D01*
X177404590Y-67518717D01*
X177398104Y-67526727D01*
X177278098Y-67702649D01*
X177273000Y-67711623D01*
X177183338Y-67904783D01*
X177179775Y-67914470D01*
X177124389Y-68114183D01*
X177125912Y-68122607D01*
X177138292Y-68126000D01*
X182318344Y-68126000D01*
X182331875Y-68122027D01*
X182333180Y-68112947D01*
X182291214Y-67945875D01*
X182287894Y-67936124D01*
X182202972Y-67740814D01*
X182198105Y-67731739D01*
X182082426Y-67552926D01*
X182076136Y-67544757D01*
X181932806Y-67387240D01*
X181925273Y-67380215D01*
X181758139Y-67248222D01*
X181749556Y-67242520D01*
X181712602Y-67222120D01*
X181662631Y-67171687D01*
X181647859Y-67102245D01*
X181672975Y-67035839D01*
X181700327Y-67009232D01*
X181875651Y-66884175D01*
X181879860Y-66881173D01*
X181882886Y-66878157D01*
X181947588Y-66849570D01*
X181963976Y-66848500D01*
X199502393Y-66848500D01*
X199570514Y-66868502D01*
X199582877Y-66877555D01*
X199678126Y-66956632D01*
X199708704Y-66974500D01*
X199751955Y-66999774D01*
X199800679Y-67051412D01*
X199813750Y-67121195D01*
X199787019Y-67186967D01*
X199746562Y-67220327D01*
X199738457Y-67224546D01*
X199729738Y-67230036D01*
X199559433Y-67357905D01*
X199551726Y-67364748D01*
X199404590Y-67518717D01*
X199398104Y-67526727D01*
X199278098Y-67702649D01*
X199273000Y-67711623D01*
X199183338Y-67904783D01*
X199179775Y-67914470D01*
X199124389Y-68114183D01*
X199125912Y-68122607D01*
X199138292Y-68126000D01*
X204318344Y-68126000D01*
X204331875Y-68122027D01*
X204333180Y-68112947D01*
X204291214Y-67945875D01*
X204287894Y-67936124D01*
X204202972Y-67740814D01*
X204198105Y-67731739D01*
X204082426Y-67552926D01*
X204076136Y-67544757D01*
X203932806Y-67387240D01*
X203925273Y-67380215D01*
X203758139Y-67248222D01*
X203749556Y-67242520D01*
X203712602Y-67222120D01*
X203662631Y-67171687D01*
X203647859Y-67102245D01*
X203672975Y-67035839D01*
X203700327Y-67009232D01*
X203875651Y-66884175D01*
X203879860Y-66881173D01*
X203882886Y-66878157D01*
X203947588Y-66849570D01*
X203963976Y-66848500D01*
X221502393Y-66848500D01*
X221570514Y-66868502D01*
X221582877Y-66877555D01*
X221678126Y-66956632D01*
X221708704Y-66974500D01*
X221751955Y-66999774D01*
X221800679Y-67051412D01*
X221813750Y-67121195D01*
X221787019Y-67186967D01*
X221746562Y-67220327D01*
X221738457Y-67224546D01*
X221729738Y-67230036D01*
X221559433Y-67357905D01*
X221551726Y-67364748D01*
X221404590Y-67518717D01*
X221398104Y-67526727D01*
X221278098Y-67702649D01*
X221273000Y-67711623D01*
X221183338Y-67904783D01*
X221179775Y-67914470D01*
X221124389Y-68114183D01*
X221125912Y-68122607D01*
X221138292Y-68126000D01*
X226318344Y-68126000D01*
X226331875Y-68122027D01*
X226333180Y-68112947D01*
X226291214Y-67945875D01*
X226287894Y-67936124D01*
X226202972Y-67740814D01*
X226198105Y-67731739D01*
X226082426Y-67552926D01*
X226076136Y-67544757D01*
X225932806Y-67387240D01*
X225925273Y-67380215D01*
X225758139Y-67248222D01*
X225749556Y-67242520D01*
X225712602Y-67222120D01*
X225662631Y-67171687D01*
X225647859Y-67102245D01*
X225672975Y-67035839D01*
X225700327Y-67009232D01*
X225723797Y-66992491D01*
X225879860Y-66881173D01*
X225892576Y-66868502D01*
X226034435Y-66727137D01*
X226038096Y-66723489D01*
X226097594Y-66640689D01*
X226165435Y-66546277D01*
X226168453Y-66542077D01*
X226267430Y-66341811D01*
X226332370Y-66128069D01*
X226361529Y-65906590D01*
X226363156Y-65840000D01*
X226344852Y-65617361D01*
X226290431Y-65400702D01*
X226201354Y-65195840D01*
X226080014Y-65008277D01*
X225929670Y-64843051D01*
X225925619Y-64839852D01*
X225925615Y-64839848D01*
X225758414Y-64707800D01*
X225758410Y-64707798D01*
X225754359Y-64704598D01*
X225558789Y-64596638D01*
X225553920Y-64594914D01*
X225553916Y-64594912D01*
X225353087Y-64523795D01*
X225353083Y-64523794D01*
X225348212Y-64522069D01*
X225343119Y-64521162D01*
X225343116Y-64521161D01*
X225133373Y-64483800D01*
X225133367Y-64483799D01*
X225128284Y-64482894D01*
X225054452Y-64481992D01*
X224910081Y-64480228D01*
X224910079Y-64480228D01*
X224904911Y-64480165D01*
X224684091Y-64513955D01*
X224471756Y-64583357D01*
X224273607Y-64686507D01*
X224269474Y-64689610D01*
X224269471Y-64689612D01*
X224114111Y-64806260D01*
X224047626Y-64831166D01*
X224038458Y-64831500D01*
X223418799Y-64831500D01*
X223350678Y-64811498D01*
X223340707Y-64804382D01*
X223218414Y-64707800D01*
X223218410Y-64707798D01*
X223214359Y-64704598D01*
X223018789Y-64596638D01*
X223013920Y-64594914D01*
X223013916Y-64594912D01*
X222813087Y-64523795D01*
X222813083Y-64523794D01*
X222808212Y-64522069D01*
X222803119Y-64521162D01*
X222803116Y-64521161D01*
X222593373Y-64483800D01*
X222593367Y-64483799D01*
X222588284Y-64482894D01*
X222514452Y-64481992D01*
X222370081Y-64480228D01*
X222370079Y-64480228D01*
X222364911Y-64480165D01*
X222144091Y-64513955D01*
X221931756Y-64583357D01*
X221733607Y-64686507D01*
X221729474Y-64689610D01*
X221729471Y-64689612D01*
X221574111Y-64806260D01*
X221507626Y-64831166D01*
X221498458Y-64831500D01*
X203958799Y-64831500D01*
X203890678Y-64811498D01*
X203880707Y-64804382D01*
X203758414Y-64707800D01*
X203758410Y-64707798D01*
X203754359Y-64704598D01*
X203558789Y-64596638D01*
X203553920Y-64594914D01*
X203553916Y-64594912D01*
X203353087Y-64523795D01*
X203353083Y-64523794D01*
X203348212Y-64522069D01*
X203343119Y-64521162D01*
X203343116Y-64521161D01*
X203133373Y-64483800D01*
X203133367Y-64483799D01*
X203128284Y-64482894D01*
X203054452Y-64481992D01*
X202910081Y-64480228D01*
X202910079Y-64480228D01*
X202904911Y-64480165D01*
X202684091Y-64513955D01*
X202471756Y-64583357D01*
X202273607Y-64686507D01*
X202269474Y-64689610D01*
X202269471Y-64689612D01*
X202114111Y-64806260D01*
X202047626Y-64831166D01*
X202038458Y-64831500D01*
X201418799Y-64831500D01*
X201350678Y-64811498D01*
X201340707Y-64804382D01*
X201218414Y-64707800D01*
X201218410Y-64707798D01*
X201214359Y-64704598D01*
X201018789Y-64596638D01*
X201013920Y-64594914D01*
X201013916Y-64594912D01*
X200813087Y-64523795D01*
X200813083Y-64523794D01*
X200808212Y-64522069D01*
X200803119Y-64521162D01*
X200803116Y-64521161D01*
X200593373Y-64483800D01*
X200593367Y-64483799D01*
X200588284Y-64482894D01*
X200514452Y-64481992D01*
X200370081Y-64480228D01*
X200370079Y-64480228D01*
X200364911Y-64480165D01*
X200144091Y-64513955D01*
X199931756Y-64583357D01*
X199733607Y-64686507D01*
X199729474Y-64689610D01*
X199729471Y-64689612D01*
X199574111Y-64806260D01*
X199507626Y-64831166D01*
X199498458Y-64831500D01*
X181958799Y-64831500D01*
X181890678Y-64811498D01*
X181880707Y-64804382D01*
X181758414Y-64707800D01*
X181758410Y-64707798D01*
X181754359Y-64704598D01*
X181558789Y-64596638D01*
X181553920Y-64594914D01*
X181553916Y-64594912D01*
X181353087Y-64523795D01*
X181353083Y-64523794D01*
X181348212Y-64522069D01*
X181343119Y-64521162D01*
X181343116Y-64521161D01*
X181133373Y-64483800D01*
X181133367Y-64483799D01*
X181128284Y-64482894D01*
X181054452Y-64481992D01*
X180910081Y-64480228D01*
X180910079Y-64480228D01*
X180904911Y-64480165D01*
X180684091Y-64513955D01*
X180471756Y-64583357D01*
X180273607Y-64686507D01*
X180269474Y-64689610D01*
X180269471Y-64689612D01*
X180114111Y-64806260D01*
X180047626Y-64831166D01*
X180038458Y-64831500D01*
X179418799Y-64831500D01*
X179350678Y-64811498D01*
X179340707Y-64804382D01*
X179218414Y-64707800D01*
X179218410Y-64707798D01*
X179214359Y-64704598D01*
X179018789Y-64596638D01*
X179013920Y-64594914D01*
X179013916Y-64594912D01*
X178813087Y-64523795D01*
X178813083Y-64523794D01*
X178808212Y-64522069D01*
X178803119Y-64521162D01*
X178803116Y-64521161D01*
X178593373Y-64483800D01*
X178593367Y-64483799D01*
X178588284Y-64482894D01*
X178514452Y-64481992D01*
X178370081Y-64480228D01*
X178370079Y-64480228D01*
X178364911Y-64480165D01*
X178144091Y-64513955D01*
X177931756Y-64583357D01*
X177733607Y-64686507D01*
X177729474Y-64689610D01*
X177729471Y-64689612D01*
X177574111Y-64806260D01*
X177507626Y-64831166D01*
X177498458Y-64831500D01*
X159958799Y-64831500D01*
X159890678Y-64811498D01*
X159880707Y-64804382D01*
X159758414Y-64707800D01*
X159758410Y-64707798D01*
X159754359Y-64704598D01*
X159558789Y-64596638D01*
X159553920Y-64594914D01*
X159553916Y-64594912D01*
X159353087Y-64523795D01*
X159353083Y-64523794D01*
X159348212Y-64522069D01*
X159343119Y-64521162D01*
X159343116Y-64521161D01*
X159133373Y-64483800D01*
X159133367Y-64483799D01*
X159128284Y-64482894D01*
X159054452Y-64481992D01*
X158910081Y-64480228D01*
X158910079Y-64480228D01*
X158904911Y-64480165D01*
X158684091Y-64513955D01*
X158471756Y-64583357D01*
X158273607Y-64686507D01*
X158269474Y-64689610D01*
X158269471Y-64689612D01*
X158114111Y-64806260D01*
X158047626Y-64831166D01*
X158038458Y-64831500D01*
X157418799Y-64831500D01*
X157350678Y-64811498D01*
X157340707Y-64804382D01*
X157218414Y-64707800D01*
X157218410Y-64707798D01*
X157214359Y-64704598D01*
X157018789Y-64596638D01*
X157013920Y-64594914D01*
X157013916Y-64594912D01*
X156813087Y-64523795D01*
X156813083Y-64523794D01*
X156808212Y-64522069D01*
X156803119Y-64521162D01*
X156803116Y-64521161D01*
X156593373Y-64483800D01*
X156593367Y-64483799D01*
X156588284Y-64482894D01*
X156514452Y-64481992D01*
X156370081Y-64480228D01*
X156370079Y-64480228D01*
X156364911Y-64480165D01*
X156144091Y-64513955D01*
X155931756Y-64583357D01*
X155733607Y-64686507D01*
X155729474Y-64689610D01*
X155729471Y-64689612D01*
X155574111Y-64806260D01*
X155507626Y-64831166D01*
X155498458Y-64831500D01*
X136634500Y-64831500D01*
X136566379Y-64811498D01*
X136519886Y-64757842D01*
X136508500Y-64705500D01*
X136508500Y-62134500D01*
X136528502Y-62066379D01*
X136582158Y-62019886D01*
X136634500Y-62008500D01*
X136968134Y-62008500D01*
X137030316Y-62001745D01*
X137166705Y-61950615D01*
X137283261Y-61863261D01*
X137370615Y-61746705D01*
X137421745Y-61610316D01*
X137423990Y-61589654D01*
X139275618Y-61589654D01*
X139282673Y-61599627D01*
X139313679Y-61625551D01*
X139320598Y-61630579D01*
X139545272Y-61771515D01*
X139552807Y-61775556D01*
X139794520Y-61884694D01*
X139802551Y-61887680D01*
X140056832Y-61963002D01*
X140065184Y-61964869D01*
X140327340Y-62004984D01*
X140335874Y-62005700D01*
X140601045Y-62009867D01*
X140609596Y-62009418D01*
X140872883Y-61977557D01*
X140881284Y-61975955D01*
X141137824Y-61908653D01*
X141145926Y-61905926D01*
X141390949Y-61804434D01*
X141398617Y-61800628D01*
X141627598Y-61666822D01*
X141634679Y-61662009D01*
X141714655Y-61599301D01*
X141723125Y-61587442D01*
X141716608Y-61575818D01*
X140512812Y-60372022D01*
X140498868Y-60364408D01*
X140497035Y-60364539D01*
X140490420Y-60368790D01*
X139282910Y-61576300D01*
X139275618Y-61589654D01*
X137423990Y-61589654D01*
X137428500Y-61548134D01*
X137428500Y-59983204D01*
X138487665Y-59983204D01*
X138502932Y-60247969D01*
X138504005Y-60256470D01*
X138555065Y-60516722D01*
X138557276Y-60524974D01*
X138643184Y-60775894D01*
X138646499Y-60783779D01*
X138765664Y-61020713D01*
X138770020Y-61028079D01*
X138899347Y-61216250D01*
X138909601Y-61224594D01*
X138923342Y-61217448D01*
X140127978Y-60012812D01*
X140134356Y-60001132D01*
X140864408Y-60001132D01*
X140864539Y-60002965D01*
X140868790Y-60009580D01*
X142075730Y-61216520D01*
X142087939Y-61223187D01*
X142099439Y-61214497D01*
X142196831Y-61081913D01*
X142201418Y-61074685D01*
X142327962Y-60841621D01*
X142331530Y-60833827D01*
X142425271Y-60585750D01*
X142427748Y-60577544D01*
X142486954Y-60319038D01*
X142488294Y-60310577D01*
X142512031Y-60044616D01*
X142512277Y-60039677D01*
X142512666Y-60002485D01*
X142512523Y-59997519D01*
X142511255Y-59978918D01*
X143566917Y-59978918D01*
X143582682Y-60252320D01*
X143583507Y-60256525D01*
X143583508Y-60256533D01*
X143612165Y-60402598D01*
X143635405Y-60521053D01*
X143636792Y-60525103D01*
X143636793Y-60525108D01*
X143657605Y-60585895D01*
X143724112Y-60780144D01*
X143847160Y-61024799D01*
X143849586Y-61028328D01*
X143849589Y-61028334D01*
X143978741Y-61216250D01*
X144002274Y-61250490D01*
X144186582Y-61453043D01*
X144396675Y-61628707D01*
X144400316Y-61630991D01*
X144625024Y-61771951D01*
X144625028Y-61771953D01*
X144628664Y-61774234D01*
X144696544Y-61804883D01*
X144874345Y-61885164D01*
X144874349Y-61885166D01*
X144878257Y-61886930D01*
X144882377Y-61888150D01*
X144882376Y-61888150D01*
X145136723Y-61963491D01*
X145136727Y-61963492D01*
X145140836Y-61964709D01*
X145145070Y-61965357D01*
X145145075Y-61965358D01*
X145407298Y-62005483D01*
X145407300Y-62005483D01*
X145411540Y-62006132D01*
X145550912Y-62008322D01*
X145681071Y-62010367D01*
X145681077Y-62010367D01*
X145685362Y-62010434D01*
X145957235Y-61977534D01*
X146222127Y-61908041D01*
X146226087Y-61906401D01*
X146226092Y-61906399D01*
X146348632Y-61855641D01*
X146475136Y-61803241D01*
X146711582Y-61665073D01*
X146927089Y-61496094D01*
X146968809Y-61453043D01*
X147114686Y-61302509D01*
X147117669Y-61299431D01*
X147120202Y-61295983D01*
X147120206Y-61295978D01*
X147277257Y-61082178D01*
X147279795Y-61078723D01*
X147281841Y-61074955D01*
X147408418Y-60841830D01*
X147408419Y-60841828D01*
X147410468Y-60838054D01*
X147507269Y-60581877D01*
X147546205Y-60411872D01*
X147567449Y-60319117D01*
X147567450Y-60319113D01*
X147568407Y-60314933D01*
X147570274Y-60294022D01*
X147592531Y-60044627D01*
X147592532Y-60044616D01*
X147592751Y-60042161D01*
X147593193Y-60000000D01*
X147589312Y-59943070D01*
X147604634Y-59873746D01*
X147655004Y-59823712D01*
X147715020Y-59808500D01*
X149965500Y-59808500D01*
X150033621Y-59828502D01*
X150080114Y-59882158D01*
X150091500Y-59934500D01*
X150091500Y-59948134D01*
X150098255Y-60010316D01*
X150149385Y-60146705D01*
X150236739Y-60263261D01*
X150353295Y-60350615D01*
X150489684Y-60401745D01*
X150551866Y-60408500D01*
X152448134Y-60408500D01*
X152510316Y-60401745D01*
X152646705Y-60350615D01*
X152763261Y-60263261D01*
X152850615Y-60146705D01*
X152875180Y-60081178D01*
X152917822Y-60024414D01*
X152984383Y-59999714D01*
X153053732Y-60014921D01*
X153073647Y-60028464D01*
X153205649Y-60138054D01*
X153229349Y-60157730D01*
X153429322Y-60274584D01*
X153645694Y-60357209D01*
X153650760Y-60358240D01*
X153650761Y-60358240D01*
X153681078Y-60364408D01*
X153872656Y-60403385D01*
X154002089Y-60408131D01*
X154098949Y-60411683D01*
X154098953Y-60411683D01*
X154104113Y-60411872D01*
X154109233Y-60411216D01*
X154109235Y-60411216D01*
X154183166Y-60401745D01*
X154333847Y-60382442D01*
X154338795Y-60380957D01*
X154338802Y-60380956D01*
X154550747Y-60317369D01*
X154555690Y-60315886D01*
X154560565Y-60313498D01*
X154759049Y-60216262D01*
X154759052Y-60216260D01*
X154763684Y-60213991D01*
X154952243Y-60079494D01*
X155116303Y-59916005D01*
X155119317Y-59911811D01*
X155119326Y-59911800D01*
X155155848Y-59860974D01*
X155211842Y-59817326D01*
X155258170Y-59808500D01*
X157555812Y-59808500D01*
X157623933Y-59828502D01*
X157644907Y-59845405D01*
X157805700Y-60006198D01*
X157810208Y-60009355D01*
X157810211Y-60009357D01*
X157857060Y-60042161D01*
X157993251Y-60137523D01*
X157998233Y-60139846D01*
X157998238Y-60139849D01*
X158157238Y-60213991D01*
X158200757Y-60234284D01*
X158206065Y-60235706D01*
X158206067Y-60235707D01*
X158416598Y-60292119D01*
X158416600Y-60292119D01*
X158421913Y-60293543D01*
X158650000Y-60313498D01*
X158878087Y-60293543D01*
X158883400Y-60292119D01*
X158883402Y-60292119D01*
X159093933Y-60235707D01*
X159093935Y-60235706D01*
X159099243Y-60234284D01*
X159142762Y-60213991D01*
X159301762Y-60139849D01*
X159301767Y-60139846D01*
X159306749Y-60137523D01*
X159380243Y-60086062D01*
X170628493Y-60086062D01*
X170637789Y-60098077D01*
X170688994Y-60133931D01*
X170698489Y-60139414D01*
X170895947Y-60231490D01*
X170906239Y-60235236D01*
X171116688Y-60291625D01*
X171127481Y-60293528D01*
X171344525Y-60312517D01*
X171355475Y-60312517D01*
X171572519Y-60293528D01*
X171583312Y-60291625D01*
X171793761Y-60235236D01*
X171804053Y-60231490D01*
X172001511Y-60139414D01*
X172011006Y-60133931D01*
X172063048Y-60097491D01*
X172071424Y-60087012D01*
X172064356Y-60073566D01*
X171362812Y-59372022D01*
X171348868Y-59364408D01*
X171347035Y-59364539D01*
X171340420Y-59368790D01*
X170634923Y-60074287D01*
X170628493Y-60086062D01*
X159380243Y-60086062D01*
X159442940Y-60042161D01*
X159489789Y-60009357D01*
X159489792Y-60009355D01*
X159494300Y-60006198D01*
X159656198Y-59844300D01*
X159675086Y-59817326D01*
X159714098Y-59761611D01*
X159787523Y-59656749D01*
X159789846Y-59651767D01*
X159789849Y-59651762D01*
X159881961Y-59454225D01*
X159881961Y-59454224D01*
X159884284Y-59449243D01*
X159886086Y-59442520D01*
X159942119Y-59233402D01*
X159942119Y-59233400D01*
X159943543Y-59228087D01*
X159963019Y-59005475D01*
X170037483Y-59005475D01*
X170056472Y-59222519D01*
X170058375Y-59233312D01*
X170114764Y-59443761D01*
X170118510Y-59454053D01*
X170210586Y-59651511D01*
X170216069Y-59661006D01*
X170252509Y-59713048D01*
X170262988Y-59721424D01*
X170276434Y-59714356D01*
X170977978Y-59012812D01*
X170984356Y-59001132D01*
X171714408Y-59001132D01*
X171714539Y-59002965D01*
X171718790Y-59009580D01*
X172424287Y-59715077D01*
X172436062Y-59721507D01*
X172448077Y-59712211D01*
X172483931Y-59661006D01*
X172489414Y-59651511D01*
X172581490Y-59454053D01*
X172585236Y-59443761D01*
X172641625Y-59233312D01*
X172643528Y-59222519D01*
X172662517Y-59005475D01*
X172662517Y-58994525D01*
X172643528Y-58777481D01*
X172641625Y-58766688D01*
X172585236Y-58556239D01*
X172581490Y-58545947D01*
X172489414Y-58348489D01*
X172483931Y-58338994D01*
X172447491Y-58286952D01*
X172437012Y-58278576D01*
X172423566Y-58285644D01*
X171722022Y-58987188D01*
X171714408Y-59001132D01*
X170984356Y-59001132D01*
X170985592Y-58998868D01*
X170985461Y-58997035D01*
X170981210Y-58990420D01*
X170275713Y-58284923D01*
X170263938Y-58278493D01*
X170251923Y-58287789D01*
X170216069Y-58338994D01*
X170210586Y-58348489D01*
X170118510Y-58545947D01*
X170114764Y-58556239D01*
X170058375Y-58766688D01*
X170056472Y-58777481D01*
X170037483Y-58994525D01*
X170037483Y-59005475D01*
X159963019Y-59005475D01*
X159963498Y-59000000D01*
X159943543Y-58771913D01*
X159935028Y-58740135D01*
X159885707Y-58556067D01*
X159885706Y-58556065D01*
X159884284Y-58550757D01*
X159881961Y-58545775D01*
X159789849Y-58348238D01*
X159789846Y-58348233D01*
X159787523Y-58343251D01*
X159690716Y-58204997D01*
X159659357Y-58160211D01*
X159659355Y-58160208D01*
X159656198Y-58155700D01*
X159494300Y-57993802D01*
X159489792Y-57990645D01*
X159489789Y-57990643D01*
X159378886Y-57912988D01*
X170628576Y-57912988D01*
X170635644Y-57926434D01*
X171337188Y-58627978D01*
X171351132Y-58635592D01*
X171352965Y-58635461D01*
X171359580Y-58631210D01*
X172065077Y-57925713D01*
X172071507Y-57913938D01*
X172062211Y-57901923D01*
X172011006Y-57866069D01*
X172001511Y-57860586D01*
X171804053Y-57768510D01*
X171793761Y-57764764D01*
X171583312Y-57708375D01*
X171572519Y-57706472D01*
X171355475Y-57687483D01*
X171344525Y-57687483D01*
X171127481Y-57706472D01*
X171116688Y-57708375D01*
X170906239Y-57764764D01*
X170895947Y-57768510D01*
X170698489Y-57860586D01*
X170688994Y-57866069D01*
X170636952Y-57902509D01*
X170628576Y-57912988D01*
X159378886Y-57912988D01*
X159363920Y-57902509D01*
X159306749Y-57862477D01*
X159301767Y-57860154D01*
X159301762Y-57860151D01*
X159104225Y-57768039D01*
X159104224Y-57768039D01*
X159099243Y-57765716D01*
X159093935Y-57764294D01*
X159093933Y-57764293D01*
X158883402Y-57707881D01*
X158883400Y-57707881D01*
X158878087Y-57706457D01*
X158650000Y-57686502D01*
X158421913Y-57706457D01*
X158416600Y-57707881D01*
X158416598Y-57707881D01*
X158206067Y-57764293D01*
X158206065Y-57764294D01*
X158200757Y-57765716D01*
X158195776Y-57768039D01*
X158195775Y-57768039D01*
X157998238Y-57860151D01*
X157998233Y-57860154D01*
X157993251Y-57862477D01*
X157936080Y-57902509D01*
X157810211Y-57990643D01*
X157810208Y-57990645D01*
X157805700Y-57993802D01*
X157644907Y-58154595D01*
X157582595Y-58188621D01*
X157555812Y-58191500D01*
X155262688Y-58191500D01*
X155194567Y-58171498D01*
X155162861Y-58142381D01*
X155162573Y-58142008D01*
X155159764Y-58137665D01*
X155003887Y-57966358D01*
X154999836Y-57963159D01*
X154999832Y-57963155D01*
X154826177Y-57826011D01*
X154826172Y-57826008D01*
X154822123Y-57822810D01*
X154817607Y-57820317D01*
X154817604Y-57820315D01*
X154623879Y-57713373D01*
X154623875Y-57713371D01*
X154619355Y-57710876D01*
X154614486Y-57709152D01*
X154614482Y-57709150D01*
X154405903Y-57635288D01*
X154405899Y-57635287D01*
X154401028Y-57633562D01*
X154395935Y-57632655D01*
X154395932Y-57632654D01*
X154178095Y-57593851D01*
X154178089Y-57593850D01*
X154173006Y-57592945D01*
X154095644Y-57592000D01*
X153946581Y-57590179D01*
X153946579Y-57590179D01*
X153941411Y-57590116D01*
X153712464Y-57625150D01*
X153492314Y-57697106D01*
X153487726Y-57699494D01*
X153487722Y-57699496D01*
X153291461Y-57801663D01*
X153286872Y-57804052D01*
X153282739Y-57807155D01*
X153282736Y-57807157D01*
X153105790Y-57940012D01*
X153101655Y-57943117D01*
X153092647Y-57952543D01*
X153084170Y-57961414D01*
X153022646Y-57996844D01*
X152951733Y-57993387D01*
X152893947Y-57952141D01*
X152875094Y-57918592D01*
X152853768Y-57861705D01*
X152853767Y-57861703D01*
X152850615Y-57853295D01*
X152763261Y-57736739D01*
X152646705Y-57649385D01*
X152510316Y-57598255D01*
X152448134Y-57591500D01*
X150551866Y-57591500D01*
X150489684Y-57598255D01*
X150353295Y-57649385D01*
X150236739Y-57736739D01*
X150149385Y-57853295D01*
X150098255Y-57989684D01*
X150091500Y-58051866D01*
X150091500Y-58065500D01*
X150071498Y-58133621D01*
X150017842Y-58180114D01*
X149965500Y-58191500D01*
X146589260Y-58191500D01*
X146587941Y-58191493D01*
X146497779Y-58190549D01*
X146495447Y-58191053D01*
X146434084Y-58181389D01*
X146272741Y-58110564D01*
X146265873Y-58107549D01*
X146265869Y-58107548D01*
X146261945Y-58105825D01*
X145998566Y-58030800D01*
X145994324Y-58030196D01*
X145994318Y-58030195D01*
X145789387Y-58001029D01*
X145727443Y-57992213D01*
X145583589Y-57991460D01*
X145457877Y-57990802D01*
X145457871Y-57990802D01*
X145453591Y-57990780D01*
X145449347Y-57991339D01*
X145449343Y-57991339D01*
X145375741Y-58001029D01*
X145182078Y-58026525D01*
X145177938Y-58027658D01*
X145177936Y-58027658D01*
X145110037Y-58046233D01*
X144917928Y-58098788D01*
X144913980Y-58100472D01*
X144669982Y-58204546D01*
X144669978Y-58204548D01*
X144666030Y-58206232D01*
X144661604Y-58208881D01*
X144434725Y-58344664D01*
X144434721Y-58344667D01*
X144431043Y-58346868D01*
X144217318Y-58518094D01*
X144028808Y-58716742D01*
X143869002Y-58939136D01*
X143740857Y-59181161D01*
X143739385Y-59185184D01*
X143739383Y-59185188D01*
X143648214Y-59434317D01*
X143646743Y-59438337D01*
X143588404Y-59705907D01*
X143588068Y-59710177D01*
X143569613Y-59944669D01*
X143566917Y-59978918D01*
X142511255Y-59978918D01*
X142494362Y-59731123D01*
X142493201Y-59722649D01*
X142439419Y-59462944D01*
X142437120Y-59454709D01*
X142348588Y-59204705D01*
X142345191Y-59196854D01*
X142223550Y-58961178D01*
X142219122Y-58953866D01*
X142100031Y-58784417D01*
X142089509Y-58776037D01*
X142076121Y-58783089D01*
X140872022Y-59987188D01*
X140864408Y-60001132D01*
X140134356Y-60001132D01*
X140135592Y-59998868D01*
X140135461Y-59997035D01*
X140131210Y-59990420D01*
X138923814Y-58783024D01*
X138911804Y-58776466D01*
X138900064Y-58785434D01*
X138791935Y-58935911D01*
X138787418Y-58943196D01*
X138663325Y-59177567D01*
X138659839Y-59185395D01*
X138568700Y-59434446D01*
X138566311Y-59442670D01*
X138509812Y-59701795D01*
X138508563Y-59710250D01*
X138487754Y-59974653D01*
X138487665Y-59983204D01*
X137428500Y-59983204D01*
X137428500Y-58451866D01*
X137424224Y-58412500D01*
X139276584Y-58412500D01*
X139282980Y-58423770D01*
X140487188Y-59627978D01*
X140501132Y-59635592D01*
X140502965Y-59635461D01*
X140509580Y-59631210D01*
X141716604Y-58424186D01*
X141723795Y-58411017D01*
X141716473Y-58400780D01*
X141669233Y-58362115D01*
X141662261Y-58357160D01*
X141436122Y-58218582D01*
X141428552Y-58214624D01*
X141185704Y-58108022D01*
X141177644Y-58105120D01*
X140922592Y-58032467D01*
X140914214Y-58030685D01*
X140651656Y-57993318D01*
X140643111Y-57992691D01*
X140377908Y-57991302D01*
X140369374Y-57991839D01*
X140106433Y-58026456D01*
X140098035Y-58028149D01*
X139842238Y-58098127D01*
X139834143Y-58100946D01*
X139590199Y-58204997D01*
X139582577Y-58208881D01*
X139355013Y-58345075D01*
X139347981Y-58349962D01*
X139285053Y-58400377D01*
X139276584Y-58412500D01*
X137424224Y-58412500D01*
X137421745Y-58389684D01*
X137370615Y-58253295D01*
X137283261Y-58136739D01*
X137166705Y-58049385D01*
X137030316Y-57998255D01*
X136968134Y-57991500D01*
X133871866Y-57991500D01*
X133809684Y-57998255D01*
X133673295Y-58049385D01*
X133556739Y-58136739D01*
X133551358Y-58143919D01*
X133545008Y-58150269D01*
X133543373Y-58148634D01*
X133496641Y-58183579D01*
X133452671Y-58191500D01*
X131719188Y-58191500D01*
X131651067Y-58171498D01*
X131630093Y-58154595D01*
X131469300Y-57993802D01*
X131464792Y-57990645D01*
X131464789Y-57990643D01*
X131338920Y-57902509D01*
X131281749Y-57862477D01*
X131276767Y-57860154D01*
X131276762Y-57860151D01*
X131079225Y-57768039D01*
X131079224Y-57768039D01*
X131074243Y-57765716D01*
X131068935Y-57764294D01*
X131068933Y-57764293D01*
X130858402Y-57707881D01*
X130858400Y-57707881D01*
X130853087Y-57706457D01*
X130625000Y-57686502D01*
X130396913Y-57706457D01*
X130391600Y-57707881D01*
X130391598Y-57707881D01*
X130181067Y-57764293D01*
X130181065Y-57764294D01*
X130175757Y-57765716D01*
X130170776Y-57768039D01*
X130170775Y-57768039D01*
X129973238Y-57860151D01*
X129973233Y-57860154D01*
X129968251Y-57862477D01*
X129911080Y-57902509D01*
X129785211Y-57990643D01*
X129785208Y-57990645D01*
X129780700Y-57993802D01*
X129618802Y-58155700D01*
X129615645Y-58160208D01*
X129615643Y-58160211D01*
X129584284Y-58204997D01*
X129487477Y-58343251D01*
X129485154Y-58348233D01*
X129485151Y-58348238D01*
X129393039Y-58545775D01*
X129390716Y-58550757D01*
X129389294Y-58556065D01*
X129389293Y-58556067D01*
X129339972Y-58740135D01*
X129331457Y-58771913D01*
X129311502Y-59000000D01*
X129331457Y-59228087D01*
X129332881Y-59233400D01*
X129332881Y-59233402D01*
X129388915Y-59442520D01*
X129390716Y-59449243D01*
X129393039Y-59454224D01*
X129393039Y-59454225D01*
X129485151Y-59651762D01*
X129485154Y-59651767D01*
X129487477Y-59656749D01*
X129560902Y-59761611D01*
X129599915Y-59817326D01*
X129618802Y-59844300D01*
X129780700Y-60006198D01*
X129785208Y-60009355D01*
X129785211Y-60009357D01*
X129832060Y-60042161D01*
X129968251Y-60137523D01*
X129973233Y-60139846D01*
X129973238Y-60139849D01*
X130132238Y-60213991D01*
X130175757Y-60234284D01*
X130181065Y-60235706D01*
X130181067Y-60235707D01*
X130391598Y-60292119D01*
X130391600Y-60292119D01*
X130396913Y-60293543D01*
X130625000Y-60313498D01*
X130853087Y-60293543D01*
X130858400Y-60292119D01*
X130858402Y-60292119D01*
X131068933Y-60235707D01*
X131068935Y-60235706D01*
X131074243Y-60234284D01*
X131117762Y-60213991D01*
X131276762Y-60139849D01*
X131276767Y-60139846D01*
X131281749Y-60137523D01*
X131417940Y-60042161D01*
X131464789Y-60009357D01*
X131464792Y-60009355D01*
X131469300Y-60006198D01*
X131630093Y-59845405D01*
X131692405Y-59811379D01*
X131719188Y-59808500D01*
X133285500Y-59808500D01*
X133353621Y-59828502D01*
X133400114Y-59882158D01*
X133411500Y-59934500D01*
X133411500Y-61548134D01*
X133418255Y-61610316D01*
X133469385Y-61746705D01*
X133556739Y-61863261D01*
X133673295Y-61950615D01*
X133809684Y-62001745D01*
X133871866Y-62008500D01*
X134365500Y-62008500D01*
X134433621Y-62028502D01*
X134480114Y-62082158D01*
X134491500Y-62134500D01*
X134491500Y-64705500D01*
X134471498Y-64773621D01*
X134417842Y-64820114D01*
X134365500Y-64831500D01*
X126458799Y-64831500D01*
X126390678Y-64811498D01*
X126380707Y-64804382D01*
X126258414Y-64707800D01*
X126258410Y-64707798D01*
X126254359Y-64704598D01*
X126058789Y-64596638D01*
X126053920Y-64594914D01*
X126053916Y-64594912D01*
X125853087Y-64523795D01*
X125853083Y-64523794D01*
X125848212Y-64522069D01*
X125843119Y-64521162D01*
X125843116Y-64521161D01*
X125633373Y-64483800D01*
X125633367Y-64483799D01*
X125628284Y-64482894D01*
X125554452Y-64481992D01*
X125410081Y-64480228D01*
X125410079Y-64480228D01*
X125404911Y-64480165D01*
X125184091Y-64513955D01*
X124971756Y-64583357D01*
X124773607Y-64686507D01*
X124769474Y-64689610D01*
X124769471Y-64689612D01*
X124614111Y-64806260D01*
X124547626Y-64831166D01*
X124538458Y-64831500D01*
X123918799Y-64831500D01*
X123850678Y-64811498D01*
X123840707Y-64804382D01*
X123718414Y-64707800D01*
X123718410Y-64707798D01*
X123714359Y-64704598D01*
X123518789Y-64596638D01*
X123513920Y-64594914D01*
X123513916Y-64594912D01*
X123313087Y-64523795D01*
X123313083Y-64523794D01*
X123308212Y-64522069D01*
X123303119Y-64521162D01*
X123303116Y-64521161D01*
X123093373Y-64483800D01*
X123093367Y-64483799D01*
X123088284Y-64482894D01*
X123014452Y-64481992D01*
X122870081Y-64480228D01*
X122870079Y-64480228D01*
X122864911Y-64480165D01*
X122644091Y-64513955D01*
X122431756Y-64583357D01*
X122233607Y-64686507D01*
X122229474Y-64689610D01*
X122229471Y-64689612D01*
X122074111Y-64806260D01*
X122007626Y-64831166D01*
X121998458Y-64831500D01*
X104458799Y-64831500D01*
X104390678Y-64811498D01*
X104380707Y-64804382D01*
X104258414Y-64707800D01*
X104258410Y-64707798D01*
X104254359Y-64704598D01*
X104058789Y-64596638D01*
X104053920Y-64594914D01*
X104053916Y-64594912D01*
X103853087Y-64523795D01*
X103853083Y-64523794D01*
X103848212Y-64522069D01*
X103843119Y-64521162D01*
X103843116Y-64521161D01*
X103633373Y-64483800D01*
X103633367Y-64483799D01*
X103628284Y-64482894D01*
X103554452Y-64481992D01*
X103410081Y-64480228D01*
X103410079Y-64480228D01*
X103404911Y-64480165D01*
X103184091Y-64513955D01*
X102971756Y-64583357D01*
X102773607Y-64686507D01*
X102769474Y-64689610D01*
X102769471Y-64689612D01*
X102614111Y-64806260D01*
X102547626Y-64831166D01*
X102538458Y-64831500D01*
X101918799Y-64831500D01*
X101850678Y-64811498D01*
X101840707Y-64804382D01*
X101718414Y-64707800D01*
X101718410Y-64707798D01*
X101714359Y-64704598D01*
X101518789Y-64596638D01*
X101513920Y-64594914D01*
X101513916Y-64594912D01*
X101313087Y-64523795D01*
X101313083Y-64523794D01*
X101308212Y-64522069D01*
X101303119Y-64521162D01*
X101303116Y-64521161D01*
X101093373Y-64483800D01*
X101093367Y-64483799D01*
X101088284Y-64482894D01*
X101014452Y-64481992D01*
X100870081Y-64480228D01*
X100870079Y-64480228D01*
X100864911Y-64480165D01*
X100644091Y-64513955D01*
X100431756Y-64583357D01*
X100233607Y-64686507D01*
X100229474Y-64689610D01*
X100229471Y-64689612D01*
X100074111Y-64806260D01*
X100007626Y-64831166D01*
X99998458Y-64831500D01*
X82458799Y-64831500D01*
X82390678Y-64811498D01*
X82380707Y-64804382D01*
X82258414Y-64707800D01*
X82258410Y-64707798D01*
X82254359Y-64704598D01*
X82058789Y-64596638D01*
X82053920Y-64594914D01*
X82053916Y-64594912D01*
X81853087Y-64523795D01*
X81853083Y-64523794D01*
X81848212Y-64522069D01*
X81843119Y-64521162D01*
X81843116Y-64521161D01*
X81633373Y-64483800D01*
X81633367Y-64483799D01*
X81628284Y-64482894D01*
X81554452Y-64481992D01*
X81410081Y-64480228D01*
X81410079Y-64480228D01*
X81404911Y-64480165D01*
X81184091Y-64513955D01*
X80971756Y-64583357D01*
X80773607Y-64686507D01*
X80769474Y-64689610D01*
X80769471Y-64689612D01*
X80614111Y-64806260D01*
X80547626Y-64831166D01*
X80538458Y-64831500D01*
X79918799Y-64831500D01*
X79850678Y-64811498D01*
X79840707Y-64804382D01*
X79718414Y-64707800D01*
X79718410Y-64707798D01*
X79714359Y-64704598D01*
X79518789Y-64596638D01*
X79513920Y-64594914D01*
X79513916Y-64594912D01*
X79313087Y-64523795D01*
X79313083Y-64523794D01*
X79308212Y-64522069D01*
X79303119Y-64521162D01*
X79303116Y-64521161D01*
X79093373Y-64483800D01*
X79093367Y-64483799D01*
X79088284Y-64482894D01*
X79014452Y-64481992D01*
X78870081Y-64480228D01*
X78870079Y-64480228D01*
X78864911Y-64480165D01*
X78644091Y-64513955D01*
X78431756Y-64583357D01*
X78233607Y-64686507D01*
X78229474Y-64689610D01*
X78229471Y-64689612D01*
X78074111Y-64806260D01*
X78007626Y-64831166D01*
X77998458Y-64831500D01*
X60458799Y-64831500D01*
X60390678Y-64811498D01*
X60380707Y-64804382D01*
X60258414Y-64707800D01*
X60258410Y-64707798D01*
X60254359Y-64704598D01*
X60058789Y-64596638D01*
X60053920Y-64594914D01*
X60053916Y-64594912D01*
X59853087Y-64523795D01*
X59853083Y-64523794D01*
X59848212Y-64522069D01*
X59843119Y-64521162D01*
X59843116Y-64521161D01*
X59633373Y-64483800D01*
X59633367Y-64483799D01*
X59628284Y-64482894D01*
X59554452Y-64481992D01*
X59410081Y-64480228D01*
X59410079Y-64480228D01*
X59404911Y-64480165D01*
X59184091Y-64513955D01*
X58971756Y-64583357D01*
X58773607Y-64686507D01*
X58769474Y-64689610D01*
X58769471Y-64689612D01*
X58614111Y-64806260D01*
X58547626Y-64831166D01*
X58538458Y-64831500D01*
X57918799Y-64831500D01*
X57850678Y-64811498D01*
X57840707Y-64804382D01*
X57718414Y-64707800D01*
X57718410Y-64707798D01*
X57714359Y-64704598D01*
X57518789Y-64596638D01*
X57513920Y-64594914D01*
X57513916Y-64594912D01*
X57313087Y-64523795D01*
X57313083Y-64523794D01*
X57308212Y-64522069D01*
X57303119Y-64521162D01*
X57303116Y-64521161D01*
X57093373Y-64483800D01*
X57093367Y-64483799D01*
X57088284Y-64482894D01*
X57014452Y-64481992D01*
X56870081Y-64480228D01*
X56870079Y-64480228D01*
X56864911Y-64480165D01*
X56644091Y-64513955D01*
X56431756Y-64583357D01*
X56233607Y-64686507D01*
X56229474Y-64689610D01*
X56229471Y-64689612D01*
X56067134Y-64811498D01*
X56054965Y-64820635D01*
X55900629Y-64982138D01*
X55774743Y-65166680D01*
X55680688Y-65369305D01*
X55620989Y-65584570D01*
X55597251Y-65806695D01*
X51508000Y-65806695D01*
X51508000Y-59944669D01*
X109592001Y-59944669D01*
X109592371Y-59951490D01*
X109597895Y-60002352D01*
X109601521Y-60017604D01*
X109646676Y-60138054D01*
X109655214Y-60153649D01*
X109731715Y-60255724D01*
X109744276Y-60268285D01*
X109846351Y-60344786D01*
X109861946Y-60353324D01*
X109982394Y-60398478D01*
X109997649Y-60402105D01*
X110048514Y-60407631D01*
X110055328Y-60408000D01*
X110727885Y-60408000D01*
X110743124Y-60403525D01*
X110744329Y-60402135D01*
X110746000Y-60394452D01*
X110746000Y-60389884D01*
X111254000Y-60389884D01*
X111258475Y-60405123D01*
X111259865Y-60406328D01*
X111267548Y-60407999D01*
X111944669Y-60407999D01*
X111951490Y-60407629D01*
X112002352Y-60402105D01*
X112017604Y-60398479D01*
X112138054Y-60353324D01*
X112153649Y-60344786D01*
X112255724Y-60268285D01*
X112268285Y-60255724D01*
X112344786Y-60153649D01*
X112353324Y-60138054D01*
X112374773Y-60080840D01*
X112417415Y-60024075D01*
X112483977Y-59999376D01*
X112553325Y-60014584D01*
X112573240Y-60028126D01*
X112705010Y-60137523D01*
X112729349Y-60157730D01*
X112929322Y-60274584D01*
X113145694Y-60357209D01*
X113150760Y-60358240D01*
X113150761Y-60358240D01*
X113181078Y-60364408D01*
X113372656Y-60403385D01*
X113502089Y-60408131D01*
X113598949Y-60411683D01*
X113598953Y-60411683D01*
X113604113Y-60411872D01*
X113609233Y-60411216D01*
X113609235Y-60411216D01*
X113683166Y-60401745D01*
X113833847Y-60382442D01*
X113838795Y-60380957D01*
X113838802Y-60380956D01*
X114050747Y-60317369D01*
X114055690Y-60315886D01*
X114060565Y-60313498D01*
X114259049Y-60216262D01*
X114259052Y-60216260D01*
X114263684Y-60213991D01*
X114452243Y-60079494D01*
X114616303Y-59916005D01*
X114619317Y-59911811D01*
X114619326Y-59911800D01*
X114655848Y-59860974D01*
X114711842Y-59817326D01*
X114758170Y-59808500D01*
X116830812Y-59808500D01*
X116898933Y-59828502D01*
X116919907Y-59845405D01*
X117080700Y-60006198D01*
X117085208Y-60009355D01*
X117085211Y-60009357D01*
X117132060Y-60042161D01*
X117268251Y-60137523D01*
X117273233Y-60139846D01*
X117273238Y-60139849D01*
X117432238Y-60213991D01*
X117475757Y-60234284D01*
X117481065Y-60235706D01*
X117481067Y-60235707D01*
X117691598Y-60292119D01*
X117691600Y-60292119D01*
X117696913Y-60293543D01*
X117925000Y-60313498D01*
X118153087Y-60293543D01*
X118158400Y-60292119D01*
X118158402Y-60292119D01*
X118368933Y-60235707D01*
X118368935Y-60235706D01*
X118374243Y-60234284D01*
X118417762Y-60213991D01*
X118576762Y-60139849D01*
X118576767Y-60139846D01*
X118581749Y-60137523D01*
X118717940Y-60042161D01*
X118764789Y-60009357D01*
X118764792Y-60009355D01*
X118769300Y-60006198D01*
X118931198Y-59844300D01*
X118950086Y-59817326D01*
X118989098Y-59761611D01*
X119062523Y-59656749D01*
X119064846Y-59651767D01*
X119064849Y-59651762D01*
X119156961Y-59454225D01*
X119156961Y-59454224D01*
X119159284Y-59449243D01*
X119161086Y-59442520D01*
X119217119Y-59233402D01*
X119217119Y-59233400D01*
X119218543Y-59228087D01*
X119238498Y-59000000D01*
X119218543Y-58771913D01*
X119210028Y-58740135D01*
X119160707Y-58556067D01*
X119160706Y-58556065D01*
X119159284Y-58550757D01*
X119156961Y-58545775D01*
X119064849Y-58348238D01*
X119064846Y-58348233D01*
X119062523Y-58343251D01*
X118965716Y-58204997D01*
X118934357Y-58160211D01*
X118934355Y-58160208D01*
X118931198Y-58155700D01*
X118769300Y-57993802D01*
X118764792Y-57990645D01*
X118764789Y-57990643D01*
X118638920Y-57902509D01*
X118581749Y-57862477D01*
X118576767Y-57860154D01*
X118576762Y-57860151D01*
X118379225Y-57768039D01*
X118379224Y-57768039D01*
X118374243Y-57765716D01*
X118368935Y-57764294D01*
X118368933Y-57764293D01*
X118158402Y-57707881D01*
X118158400Y-57707881D01*
X118153087Y-57706457D01*
X117925000Y-57686502D01*
X117696913Y-57706457D01*
X117691600Y-57707881D01*
X117691598Y-57707881D01*
X117481067Y-57764293D01*
X117481065Y-57764294D01*
X117475757Y-57765716D01*
X117470776Y-57768039D01*
X117470775Y-57768039D01*
X117273238Y-57860151D01*
X117273233Y-57860154D01*
X117268251Y-57862477D01*
X117211080Y-57902509D01*
X117085211Y-57990643D01*
X117085208Y-57990645D01*
X117080700Y-57993802D01*
X116919907Y-58154595D01*
X116857595Y-58188621D01*
X116830812Y-58191500D01*
X114762688Y-58191500D01*
X114694567Y-58171498D01*
X114662861Y-58142381D01*
X114662573Y-58142008D01*
X114659764Y-58137665D01*
X114503887Y-57966358D01*
X114499836Y-57963159D01*
X114499832Y-57963155D01*
X114326177Y-57826011D01*
X114326172Y-57826008D01*
X114322123Y-57822810D01*
X114317607Y-57820317D01*
X114317604Y-57820315D01*
X114123879Y-57713373D01*
X114123875Y-57713371D01*
X114119355Y-57710876D01*
X114114486Y-57709152D01*
X114114482Y-57709150D01*
X113905903Y-57635288D01*
X113905899Y-57635287D01*
X113901028Y-57633562D01*
X113895935Y-57632655D01*
X113895932Y-57632654D01*
X113678095Y-57593851D01*
X113678089Y-57593850D01*
X113673006Y-57592945D01*
X113595644Y-57592000D01*
X113446581Y-57590179D01*
X113446579Y-57590179D01*
X113441411Y-57590116D01*
X113212464Y-57625150D01*
X112992314Y-57697106D01*
X112987726Y-57699494D01*
X112987722Y-57699496D01*
X112791461Y-57801663D01*
X112786872Y-57804052D01*
X112782739Y-57807155D01*
X112782736Y-57807157D01*
X112605790Y-57940012D01*
X112601655Y-57943117D01*
X112593032Y-57952141D01*
X112583787Y-57961815D01*
X112522263Y-57997245D01*
X112451351Y-57993788D01*
X112393564Y-57952543D01*
X112374711Y-57918994D01*
X112353324Y-57861946D01*
X112344786Y-57846351D01*
X112268285Y-57744276D01*
X112255724Y-57731715D01*
X112153649Y-57655214D01*
X112138054Y-57646676D01*
X112017606Y-57601522D01*
X112002351Y-57597895D01*
X111951486Y-57592369D01*
X111944672Y-57592000D01*
X111272115Y-57592000D01*
X111256876Y-57596475D01*
X111255671Y-57597865D01*
X111254000Y-57605548D01*
X111254000Y-60389884D01*
X110746000Y-60389884D01*
X110746000Y-59272115D01*
X110741525Y-59256876D01*
X110740135Y-59255671D01*
X110732452Y-59254000D01*
X109610116Y-59254000D01*
X109594877Y-59258475D01*
X109593672Y-59259865D01*
X109592001Y-59267548D01*
X109592001Y-59944669D01*
X51508000Y-59944669D01*
X51508000Y-58727885D01*
X109592000Y-58727885D01*
X109596475Y-58743124D01*
X109597865Y-58744329D01*
X109605548Y-58746000D01*
X110727885Y-58746000D01*
X110743124Y-58741525D01*
X110744329Y-58740135D01*
X110746000Y-58732452D01*
X110746000Y-57610116D01*
X110741525Y-57594877D01*
X110740135Y-57593672D01*
X110732452Y-57592001D01*
X110055331Y-57592001D01*
X110048510Y-57592371D01*
X109997648Y-57597895D01*
X109982396Y-57601521D01*
X109861946Y-57646676D01*
X109846351Y-57655214D01*
X109744276Y-57731715D01*
X109731715Y-57744276D01*
X109655214Y-57846351D01*
X109646676Y-57861946D01*
X109601522Y-57982394D01*
X109597895Y-57997649D01*
X109592369Y-58048514D01*
X109592000Y-58055328D01*
X109592000Y-58727885D01*
X51508000Y-58727885D01*
X51508000Y-54634000D01*
X51528002Y-54565879D01*
X51581658Y-54519386D01*
X51634000Y-54508000D01*
X230366000Y-54508000D01*
X230434121Y-54528002D01*
G37*
G04 #@! TD.AperFunction*
M02*
