G04 #@! TF.GenerationSoftware,KiCad,Pcbnew,(5.1.9)-1*
G04 #@! TF.CreationDate,2021-10-01T15:00:59+02:00*
G04 #@! TF.ProjectId,Distrib,44697374-7269-4622-9e6b-696361645f70,rev?*
G04 #@! TF.SameCoordinates,Original*
G04 #@! TF.FileFunction,Soldermask,Bot*
G04 #@! TF.FilePolarity,Negative*
%FSLAX46Y46*%
G04 Gerber Fmt 4.6, Leading zero omitted, Abs format (unit mm)*
G04 Created by KiCad (PCBNEW (5.1.9)-1) date 2021-10-01 15:00:59*
%MOMM*%
%LPD*%
G01*
G04 APERTURE LIST*
%ADD10C,2.000000*%
%ADD11O,1.600000X1.600000*%
%ADD12C,1.600000*%
%ADD13O,1.700000X1.700000*%
%ADD14R,1.700000X1.700000*%
%ADD15C,1.800000*%
%ADD16R,1.800000X1.800000*%
%ADD17R,1.600000X1.600000*%
G04 APERTURE END LIST*
D10*
X55000000Y-79000000D03*
X55000000Y-70925000D03*
X55000000Y-63000000D03*
D11*
X123500000Y-83000000D03*
D12*
X110800000Y-83000000D03*
D11*
X110800000Y-58230000D03*
D12*
X123500000Y-58230000D03*
D13*
X61460000Y-65840000D03*
X64000000Y-65840000D03*
X61460000Y-68380000D03*
X64000000Y-68380000D03*
X61460000Y-70920000D03*
X64000000Y-70920000D03*
X61460000Y-73460000D03*
X64000000Y-73460000D03*
X61460000Y-76000000D03*
D14*
X64000000Y-76000000D03*
D13*
X90170000Y-65840000D03*
X92710000Y-65840000D03*
X90170000Y-68380000D03*
X92710000Y-68380000D03*
X90170000Y-70920000D03*
X92710000Y-70920000D03*
X90170000Y-73460000D03*
X92710000Y-73460000D03*
X90170000Y-76000000D03*
D14*
X92710000Y-76000000D03*
D13*
X222460000Y-65840000D03*
X225000000Y-65840000D03*
X222460000Y-68380000D03*
X225000000Y-68380000D03*
X222460000Y-70920000D03*
X225000000Y-70920000D03*
X222460000Y-73460000D03*
X225000000Y-73460000D03*
X222460000Y-76000000D03*
D14*
X225000000Y-76000000D03*
D13*
X112218333Y-65840000D03*
X114758333Y-65840000D03*
X112218333Y-68380000D03*
X114758333Y-68380000D03*
X112218333Y-70920000D03*
X114758333Y-70920000D03*
X112218333Y-73460000D03*
X114758333Y-73460000D03*
X112218333Y-76000000D03*
D14*
X114758333Y-76000000D03*
D13*
X156314999Y-65840000D03*
X158854999Y-65840000D03*
X156314999Y-68380000D03*
X158854999Y-68380000D03*
X156314999Y-70920000D03*
X158854999Y-70920000D03*
X156314999Y-73460000D03*
X158854999Y-73460000D03*
X156314999Y-76000000D03*
D14*
X158854999Y-76000000D03*
D13*
X134266666Y-65840000D03*
X136806666Y-65840000D03*
X134266666Y-68380000D03*
X136806666Y-68380000D03*
X134266666Y-70920000D03*
X136806666Y-70920000D03*
X134266666Y-73460000D03*
X136806666Y-73460000D03*
X134266666Y-76000000D03*
D14*
X136806666Y-76000000D03*
D13*
X200411665Y-65840000D03*
X202951665Y-65840000D03*
X200411665Y-68380000D03*
X202951665Y-68380000D03*
X200411665Y-70920000D03*
X202951665Y-70920000D03*
X200411665Y-73460000D03*
X202951665Y-73460000D03*
X200411665Y-76000000D03*
D14*
X202951665Y-76000000D03*
D13*
X178363332Y-65840000D03*
X180903332Y-65840000D03*
X178363332Y-68380000D03*
X180903332Y-68380000D03*
X178363332Y-70920000D03*
X180903332Y-70920000D03*
X178363332Y-73460000D03*
X180903332Y-73460000D03*
X178363332Y-76000000D03*
D14*
X180903332Y-76000000D03*
D15*
X128530000Y-83000000D03*
D16*
X131070000Y-83000000D03*
D15*
X128260000Y-58230000D03*
D16*
X130800000Y-58230000D03*
D12*
X157579999Y-82000000D03*
D17*
X157579999Y-84000000D03*
D12*
X157579999Y-57000000D03*
D17*
X157579999Y-59000000D03*
M02*
