%FSLAX45Y45*%
G04 Gerber Fmt 4.5, Leading zero omitted, Abs format (unit mm)*
G04 Created by KiCad (PCBNEW (6.0.1)) date 2022-09-12 09:43:42*
%MOMM*%
%LPD*%
G01*
G04 APERTURE LIST*
%TA.AperFunction,Profile*%
%ADD10C,0.150000*%
%TD*%
%ADD11C,0.200000*%
G04 APERTURE END LIST*
D10*
X25100000Y-5400000D02*
X3100000Y-5400000D01*
X25100000Y-5400000D02*
X25100000Y-8800000D01*
X3100000Y-8800000D02*
X25100000Y-8800000D01*
X3100000Y-5400000D02*
X3100000Y-8800000D01*
D11*
X3350119Y-9117976D02*
X3350119Y-8917976D01*
X3397738Y-8917976D01*
X3426309Y-8927500D01*
X3445357Y-8946548D01*
X3454881Y-8965595D01*
X3464405Y-9003690D01*
X3464405Y-9032262D01*
X3454881Y-9070357D01*
X3445357Y-9089405D01*
X3426309Y-9108452D01*
X3397738Y-9117976D01*
X3350119Y-9117976D01*
X3550119Y-9117976D02*
X3550119Y-8984643D01*
X3550119Y-9022738D02*
X3559643Y-9003690D01*
X3569167Y-8994167D01*
X3588214Y-8984643D01*
X3607262Y-8984643D01*
X3673928Y-9117976D02*
X3673928Y-8984643D01*
X3673928Y-8917976D02*
X3664405Y-8927500D01*
X3673928Y-8937024D01*
X3683452Y-8927500D01*
X3673928Y-8917976D01*
X3673928Y-8937024D01*
X3797738Y-9117976D02*
X3778690Y-9108452D01*
X3769167Y-9089405D01*
X3769167Y-8917976D01*
X3902500Y-9117976D02*
X3883452Y-9108452D01*
X3873928Y-9089405D01*
X3873928Y-8917976D01*
X4131071Y-9117976D02*
X4131071Y-8917976D01*
X4197738Y-9060833D01*
X4264405Y-8917976D01*
X4264405Y-9117976D01*
X4445357Y-9117976D02*
X4445357Y-9013214D01*
X4435833Y-8994167D01*
X4416786Y-8984643D01*
X4378690Y-8984643D01*
X4359643Y-8994167D01*
X4445357Y-9108452D02*
X4426310Y-9117976D01*
X4378690Y-9117976D01*
X4359643Y-9108452D01*
X4350119Y-9089405D01*
X4350119Y-9070357D01*
X4359643Y-9051310D01*
X4378690Y-9041786D01*
X4426310Y-9041786D01*
X4445357Y-9032262D01*
X4540595Y-8984643D02*
X4540595Y-9184643D01*
X4540595Y-8994167D02*
X4559643Y-8984643D01*
X4597738Y-8984643D01*
X4616786Y-8994167D01*
X4626310Y-9003690D01*
X4635833Y-9022738D01*
X4635833Y-9079881D01*
X4626310Y-9098929D01*
X4616786Y-9108452D01*
X4597738Y-9117976D01*
X4559643Y-9117976D01*
X4540595Y-9108452D01*
X4721548Y-9098929D02*
X4731071Y-9108452D01*
X4721548Y-9117976D01*
X4712024Y-9108452D01*
X4721548Y-9098929D01*
X4721548Y-9117976D01*
X4721548Y-8994167D02*
X4731071Y-9003690D01*
X4721548Y-9013214D01*
X4712024Y-9003690D01*
X4721548Y-8994167D01*
X4721548Y-9013214D01*
M02*
