%FSLAX45Y45*%
G04 Gerber Fmt 4.5, Leading zero omitted, Abs format (unit mm)*
G04 Created by KiCad (PCBNEW (6.0.1)) date 2022-07-08 14:05:00*
%MOMM*%
%LPD*%
G01*
G04 APERTURE LIST*
%TA.AperFunction,Profile*%
%ADD10C,0.150000*%
%TD*%
%ADD11C,0.200000*%
G04 APERTURE END LIST*
D10*
X23100000Y-5400000D02*
X5100000Y-5400000D01*
X23100000Y-5400000D02*
X23100000Y-8800000D01*
X5100000Y-8800000D02*
X23100000Y-8800000D01*
X5100000Y-5400000D02*
X5100000Y-8800000D01*
D11*
X5350119Y-9117976D02*
X5350119Y-8917976D01*
X5397738Y-8917976D01*
X5426310Y-8927500D01*
X5445357Y-8946548D01*
X5454881Y-8965595D01*
X5464405Y-9003690D01*
X5464405Y-9032262D01*
X5454881Y-9070357D01*
X5445357Y-9089405D01*
X5426310Y-9108452D01*
X5397738Y-9117976D01*
X5350119Y-9117976D01*
X5550119Y-9117976D02*
X5550119Y-8984643D01*
X5550119Y-9022738D02*
X5559643Y-9003690D01*
X5569167Y-8994167D01*
X5588214Y-8984643D01*
X5607262Y-8984643D01*
X5673928Y-9117976D02*
X5673928Y-8984643D01*
X5673928Y-8917976D02*
X5664405Y-8927500D01*
X5673928Y-8937024D01*
X5683452Y-8927500D01*
X5673928Y-8917976D01*
X5673928Y-8937024D01*
X5797738Y-9117976D02*
X5778690Y-9108452D01*
X5769167Y-9089405D01*
X5769167Y-8917976D01*
X5902500Y-9117976D02*
X5883452Y-9108452D01*
X5873928Y-9089405D01*
X5873928Y-8917976D01*
X6131071Y-9117976D02*
X6131071Y-8917976D01*
X6197738Y-9060833D01*
X6264405Y-8917976D01*
X6264405Y-9117976D01*
X6445357Y-9117976D02*
X6445357Y-9013214D01*
X6435833Y-8994167D01*
X6416786Y-8984643D01*
X6378690Y-8984643D01*
X6359643Y-8994167D01*
X6445357Y-9108452D02*
X6426309Y-9117976D01*
X6378690Y-9117976D01*
X6359643Y-9108452D01*
X6350119Y-9089405D01*
X6350119Y-9070357D01*
X6359643Y-9051310D01*
X6378690Y-9041786D01*
X6426309Y-9041786D01*
X6445357Y-9032262D01*
X6540595Y-8984643D02*
X6540595Y-9184643D01*
X6540595Y-8994167D02*
X6559643Y-8984643D01*
X6597738Y-8984643D01*
X6616786Y-8994167D01*
X6626309Y-9003690D01*
X6635833Y-9022738D01*
X6635833Y-9079881D01*
X6626309Y-9098929D01*
X6616786Y-9108452D01*
X6597738Y-9117976D01*
X6559643Y-9117976D01*
X6540595Y-9108452D01*
X6721548Y-9098929D02*
X6731071Y-9108452D01*
X6721548Y-9117976D01*
X6712024Y-9108452D01*
X6721548Y-9098929D01*
X6721548Y-9117976D01*
X6721548Y-8994167D02*
X6731071Y-9003690D01*
X6721548Y-9013214D01*
X6712024Y-9003690D01*
X6721548Y-8994167D01*
X6721548Y-9013214D01*
M02*
