G04 #@! TF.GenerationSoftware,KiCad,Pcbnew,(5.1.9)-1*
G04 #@! TF.CreationDate,2021-10-01T15:00:59+02:00*
G04 #@! TF.ProjectId,Distrib,44697374-7269-4622-9e6b-696361645f70,rev?*
G04 #@! TF.SameCoordinates,Original*
G04 #@! TF.FileFunction,Copper,L2,Bot*
G04 #@! TF.FilePolarity,Positive*
%FSLAX46Y46*%
G04 Gerber Fmt 4.6, Leading zero omitted, Abs format (unit mm)*
G04 Created by KiCad (PCBNEW (5.1.9)-1) date 2021-10-01 15:00:59*
%MOMM*%
%LPD*%
G01*
G04 APERTURE LIST*
G04 #@! TA.AperFunction,ComponentPad*
%ADD10C,2.000000*%
G04 #@! TD*
G04 #@! TA.AperFunction,ComponentPad*
%ADD11O,1.600000X1.600000*%
G04 #@! TD*
G04 #@! TA.AperFunction,ComponentPad*
%ADD12C,1.600000*%
G04 #@! TD*
G04 #@! TA.AperFunction,ComponentPad*
%ADD13O,1.700000X1.700000*%
G04 #@! TD*
G04 #@! TA.AperFunction,ComponentPad*
%ADD14R,1.700000X1.700000*%
G04 #@! TD*
G04 #@! TA.AperFunction,ComponentPad*
%ADD15C,1.800000*%
G04 #@! TD*
G04 #@! TA.AperFunction,ComponentPad*
%ADD16R,1.800000X1.800000*%
G04 #@! TD*
G04 #@! TA.AperFunction,ComponentPad*
%ADD17R,1.600000X1.600000*%
G04 #@! TD*
G04 #@! TA.AperFunction,ViaPad*
%ADD18C,3.800000*%
G04 #@! TD*
G04 #@! TA.AperFunction,Conductor*
%ADD19C,0.254000*%
G04 #@! TD*
G04 #@! TA.AperFunction,Conductor*
%ADD20C,0.100000*%
G04 #@! TD*
G04 APERTURE END LIST*
D10*
X55000000Y-79000000D03*
X55000000Y-70925000D03*
X55000000Y-63000000D03*
D11*
X123500000Y-83000000D03*
D12*
X110800000Y-83000000D03*
D11*
X110800000Y-58230000D03*
D12*
X123500000Y-58230000D03*
D13*
X61460000Y-65840000D03*
X64000000Y-65840000D03*
X61460000Y-68380000D03*
X64000000Y-68380000D03*
X61460000Y-70920000D03*
X64000000Y-70920000D03*
X61460000Y-73460000D03*
X64000000Y-73460000D03*
X61460000Y-76000000D03*
D14*
X64000000Y-76000000D03*
D13*
X90170000Y-65840000D03*
X92710000Y-65840000D03*
X90170000Y-68380000D03*
X92710000Y-68380000D03*
X90170000Y-70920000D03*
X92710000Y-70920000D03*
X90170000Y-73460000D03*
X92710000Y-73460000D03*
X90170000Y-76000000D03*
D14*
X92710000Y-76000000D03*
D13*
X222460000Y-65840000D03*
X225000000Y-65840000D03*
X222460000Y-68380000D03*
X225000000Y-68380000D03*
X222460000Y-70920000D03*
X225000000Y-70920000D03*
X222460000Y-73460000D03*
X225000000Y-73460000D03*
X222460000Y-76000000D03*
D14*
X225000000Y-76000000D03*
D13*
X112218333Y-65840000D03*
X114758333Y-65840000D03*
X112218333Y-68380000D03*
X114758333Y-68380000D03*
X112218333Y-70920000D03*
X114758333Y-70920000D03*
X112218333Y-73460000D03*
X114758333Y-73460000D03*
X112218333Y-76000000D03*
D14*
X114758333Y-76000000D03*
D13*
X156314999Y-65840000D03*
X158854999Y-65840000D03*
X156314999Y-68380000D03*
X158854999Y-68380000D03*
X156314999Y-70920000D03*
X158854999Y-70920000D03*
X156314999Y-73460000D03*
X158854999Y-73460000D03*
X156314999Y-76000000D03*
D14*
X158854999Y-76000000D03*
D13*
X134266666Y-65840000D03*
X136806666Y-65840000D03*
X134266666Y-68380000D03*
X136806666Y-68380000D03*
X134266666Y-70920000D03*
X136806666Y-70920000D03*
X134266666Y-73460000D03*
X136806666Y-73460000D03*
X134266666Y-76000000D03*
D14*
X136806666Y-76000000D03*
D13*
X200411665Y-65840000D03*
X202951665Y-65840000D03*
X200411665Y-68380000D03*
X202951665Y-68380000D03*
X200411665Y-70920000D03*
X202951665Y-70920000D03*
X200411665Y-73460000D03*
X202951665Y-73460000D03*
X200411665Y-76000000D03*
D14*
X202951665Y-76000000D03*
D13*
X178363332Y-65840000D03*
X180903332Y-65840000D03*
X178363332Y-68380000D03*
X180903332Y-68380000D03*
X178363332Y-70920000D03*
X180903332Y-70920000D03*
X178363332Y-73460000D03*
X180903332Y-73460000D03*
X178363332Y-76000000D03*
D14*
X180903332Y-76000000D03*
D15*
X128530000Y-83000000D03*
D16*
X131070000Y-83000000D03*
D15*
X128260000Y-58230000D03*
D16*
X130800000Y-58230000D03*
D12*
X157579999Y-82000000D03*
D17*
X157579999Y-84000000D03*
D12*
X157579999Y-57000000D03*
D17*
X157579999Y-59000000D03*
D18*
X54000000Y-57000000D03*
X228000000Y-85000000D03*
X228000000Y-57000000D03*
X54000000Y-85000000D03*
D19*
X229873000Y-86873000D02*
X52127000Y-86873000D01*
X52127000Y-84800000D01*
X156141927Y-84800000D01*
X156154187Y-84924482D01*
X156190497Y-85044180D01*
X156249462Y-85154494D01*
X156328814Y-85251185D01*
X156425505Y-85330537D01*
X156535819Y-85389502D01*
X156655517Y-85425812D01*
X156779999Y-85438072D01*
X157294249Y-85435000D01*
X157452999Y-85276250D01*
X157452999Y-84127000D01*
X157706999Y-84127000D01*
X157706999Y-85276250D01*
X157865749Y-85435000D01*
X158379999Y-85438072D01*
X158504481Y-85425812D01*
X158624179Y-85389502D01*
X158734493Y-85330537D01*
X158831184Y-85251185D01*
X158910536Y-85154494D01*
X158969501Y-85044180D01*
X159005811Y-84924482D01*
X159018071Y-84800000D01*
X159014999Y-84285750D01*
X158856249Y-84127000D01*
X157706999Y-84127000D01*
X157452999Y-84127000D01*
X156303749Y-84127000D01*
X156144999Y-84285750D01*
X156141927Y-84800000D01*
X52127000Y-84800000D01*
X52127000Y-83992702D01*
X109986903Y-83992702D01*
X110058486Y-84236671D01*
X110313996Y-84357571D01*
X110588184Y-84426300D01*
X110870512Y-84440217D01*
X111150130Y-84398787D01*
X111416292Y-84303603D01*
X111541514Y-84236671D01*
X111613097Y-83992702D01*
X110800000Y-83179605D01*
X109986903Y-83992702D01*
X52127000Y-83992702D01*
X52127000Y-83070512D01*
X109359783Y-83070512D01*
X109401213Y-83350130D01*
X109496397Y-83616292D01*
X109563329Y-83741514D01*
X109807298Y-83813097D01*
X110620395Y-83000000D01*
X110979605Y-83000000D01*
X111792702Y-83813097D01*
X112036671Y-83741514D01*
X112157571Y-83486004D01*
X112226300Y-83211816D01*
X112240217Y-82929488D01*
X112229724Y-82858665D01*
X122065000Y-82858665D01*
X122065000Y-83141335D01*
X122120147Y-83418574D01*
X122228320Y-83679727D01*
X122385363Y-83914759D01*
X122585241Y-84114637D01*
X122820273Y-84271680D01*
X123081426Y-84379853D01*
X123358665Y-84435000D01*
X123641335Y-84435000D01*
X123918574Y-84379853D01*
X124179727Y-84271680D01*
X124414759Y-84114637D01*
X124614637Y-83914759D01*
X124771680Y-83679727D01*
X124879853Y-83418574D01*
X124935000Y-83141335D01*
X124935000Y-82858665D01*
X124933041Y-82848816D01*
X126995000Y-82848816D01*
X126995000Y-83151184D01*
X127053989Y-83447743D01*
X127169701Y-83727095D01*
X127337688Y-83978505D01*
X127551495Y-84192312D01*
X127802905Y-84360299D01*
X128082257Y-84476011D01*
X128378816Y-84535000D01*
X128681184Y-84535000D01*
X128977743Y-84476011D01*
X129257095Y-84360299D01*
X129508505Y-84192312D01*
X129574944Y-84125873D01*
X129580498Y-84144180D01*
X129639463Y-84254494D01*
X129718815Y-84351185D01*
X129815506Y-84430537D01*
X129925820Y-84489502D01*
X130045518Y-84525812D01*
X130170000Y-84538072D01*
X131970000Y-84538072D01*
X132094482Y-84525812D01*
X132214180Y-84489502D01*
X132324494Y-84430537D01*
X132421185Y-84351185D01*
X132500537Y-84254494D01*
X132559502Y-84144180D01*
X132595812Y-84024482D01*
X132608072Y-83900000D01*
X132608072Y-83200000D01*
X156141927Y-83200000D01*
X156144999Y-83714250D01*
X156303749Y-83873000D01*
X157452999Y-83873000D01*
X157452999Y-83853000D01*
X157706999Y-83853000D01*
X157706999Y-83873000D01*
X158856249Y-83873000D01*
X159014999Y-83714250D01*
X159018071Y-83200000D01*
X159005811Y-83075518D01*
X158969501Y-82955820D01*
X158910536Y-82845506D01*
X158831184Y-82748815D01*
X158814606Y-82735210D01*
X158851679Y-82679727D01*
X158959852Y-82418574D01*
X159014999Y-82141335D01*
X159014999Y-81858665D01*
X158959852Y-81581426D01*
X158851679Y-81320273D01*
X158694636Y-81085241D01*
X158494758Y-80885363D01*
X158259726Y-80728320D01*
X157998573Y-80620147D01*
X157721334Y-80565000D01*
X157438664Y-80565000D01*
X157161425Y-80620147D01*
X156900272Y-80728320D01*
X156665240Y-80885363D01*
X156465362Y-81085241D01*
X156308319Y-81320273D01*
X156200146Y-81581426D01*
X156144999Y-81858665D01*
X156144999Y-82141335D01*
X156200146Y-82418574D01*
X156308319Y-82679727D01*
X156345392Y-82735210D01*
X156328814Y-82748815D01*
X156249462Y-82845506D01*
X156190497Y-82955820D01*
X156154187Y-83075518D01*
X156141927Y-83200000D01*
X132608072Y-83200000D01*
X132608072Y-82100000D01*
X132595812Y-81975518D01*
X132559502Y-81855820D01*
X132500537Y-81745506D01*
X132421185Y-81648815D01*
X132324494Y-81569463D01*
X132214180Y-81510498D01*
X132094482Y-81474188D01*
X131970000Y-81461928D01*
X130170000Y-81461928D01*
X130045518Y-81474188D01*
X129925820Y-81510498D01*
X129815506Y-81569463D01*
X129718815Y-81648815D01*
X129639463Y-81745506D01*
X129580498Y-81855820D01*
X129574944Y-81874127D01*
X129508505Y-81807688D01*
X129257095Y-81639701D01*
X128977743Y-81523989D01*
X128681184Y-81465000D01*
X128378816Y-81465000D01*
X128082257Y-81523989D01*
X127802905Y-81639701D01*
X127551495Y-81807688D01*
X127337688Y-82021495D01*
X127169701Y-82272905D01*
X127053989Y-82552257D01*
X126995000Y-82848816D01*
X124933041Y-82848816D01*
X124879853Y-82581426D01*
X124771680Y-82320273D01*
X124614637Y-82085241D01*
X124414759Y-81885363D01*
X124179727Y-81728320D01*
X123918574Y-81620147D01*
X123641335Y-81565000D01*
X123358665Y-81565000D01*
X123081426Y-81620147D01*
X122820273Y-81728320D01*
X122585241Y-81885363D01*
X122385363Y-82085241D01*
X122228320Y-82320273D01*
X122120147Y-82581426D01*
X122065000Y-82858665D01*
X112229724Y-82858665D01*
X112198787Y-82649870D01*
X112103603Y-82383708D01*
X112036671Y-82258486D01*
X111792702Y-82186903D01*
X110979605Y-83000000D01*
X110620395Y-83000000D01*
X109807298Y-82186903D01*
X109563329Y-82258486D01*
X109442429Y-82513996D01*
X109373700Y-82788184D01*
X109359783Y-83070512D01*
X52127000Y-83070512D01*
X52127000Y-82007298D01*
X109986903Y-82007298D01*
X110800000Y-82820395D01*
X111613097Y-82007298D01*
X111541514Y-81763329D01*
X111286004Y-81642429D01*
X111011816Y-81573700D01*
X110729488Y-81559783D01*
X110449870Y-81601213D01*
X110183708Y-81696397D01*
X110058486Y-81763329D01*
X109986903Y-82007298D01*
X52127000Y-82007298D01*
X52127000Y-78838967D01*
X53365000Y-78838967D01*
X53365000Y-79161033D01*
X53427832Y-79476912D01*
X53551082Y-79774463D01*
X53730013Y-80042252D01*
X53957748Y-80269987D01*
X54225537Y-80448918D01*
X54523088Y-80572168D01*
X54838967Y-80635000D01*
X55161033Y-80635000D01*
X55476912Y-80572168D01*
X55774463Y-80448918D01*
X56042252Y-80269987D01*
X56269987Y-80042252D01*
X56448918Y-79774463D01*
X56572168Y-79476912D01*
X56635000Y-79161033D01*
X56635000Y-78838967D01*
X56572168Y-78523088D01*
X56448918Y-78225537D01*
X56269987Y-77957748D01*
X56042252Y-77730013D01*
X55774463Y-77551082D01*
X55476912Y-77427832D01*
X55161033Y-77365000D01*
X54838967Y-77365000D01*
X54523088Y-77427832D01*
X54225537Y-77551082D01*
X53957748Y-77730013D01*
X53730013Y-77957748D01*
X53551082Y-78225537D01*
X53427832Y-78523088D01*
X53365000Y-78838967D01*
X52127000Y-78838967D01*
X52127000Y-75853740D01*
X59975000Y-75853740D01*
X59975000Y-76146260D01*
X60032068Y-76433158D01*
X60144010Y-76703411D01*
X60306525Y-76946632D01*
X60513368Y-77153475D01*
X60756589Y-77315990D01*
X61026842Y-77427932D01*
X61313740Y-77485000D01*
X61606260Y-77485000D01*
X61893158Y-77427932D01*
X62163411Y-77315990D01*
X62406632Y-77153475D01*
X62538487Y-77021620D01*
X62560498Y-77094180D01*
X62619463Y-77204494D01*
X62698815Y-77301185D01*
X62795506Y-77380537D01*
X62905820Y-77439502D01*
X63025518Y-77475812D01*
X63150000Y-77488072D01*
X64850000Y-77488072D01*
X64974482Y-77475812D01*
X65094180Y-77439502D01*
X65204494Y-77380537D01*
X65301185Y-77301185D01*
X65380537Y-77204494D01*
X65439502Y-77094180D01*
X65475812Y-76974482D01*
X65488072Y-76850000D01*
X65488072Y-75853740D01*
X88685000Y-75853740D01*
X88685000Y-76146260D01*
X88742068Y-76433158D01*
X88854010Y-76703411D01*
X89016525Y-76946632D01*
X89223368Y-77153475D01*
X89466589Y-77315990D01*
X89736842Y-77427932D01*
X90023740Y-77485000D01*
X90316260Y-77485000D01*
X90603158Y-77427932D01*
X90873411Y-77315990D01*
X91116632Y-77153475D01*
X91248487Y-77021620D01*
X91270498Y-77094180D01*
X91329463Y-77204494D01*
X91408815Y-77301185D01*
X91505506Y-77380537D01*
X91615820Y-77439502D01*
X91735518Y-77475812D01*
X91860000Y-77488072D01*
X93560000Y-77488072D01*
X93684482Y-77475812D01*
X93804180Y-77439502D01*
X93914494Y-77380537D01*
X94011185Y-77301185D01*
X94090537Y-77204494D01*
X94149502Y-77094180D01*
X94185812Y-76974482D01*
X94198072Y-76850000D01*
X94198072Y-75853740D01*
X110733333Y-75853740D01*
X110733333Y-76146260D01*
X110790401Y-76433158D01*
X110902343Y-76703411D01*
X111064858Y-76946632D01*
X111271701Y-77153475D01*
X111514922Y-77315990D01*
X111785175Y-77427932D01*
X112072073Y-77485000D01*
X112364593Y-77485000D01*
X112651491Y-77427932D01*
X112921744Y-77315990D01*
X113164965Y-77153475D01*
X113296820Y-77021620D01*
X113318831Y-77094180D01*
X113377796Y-77204494D01*
X113457148Y-77301185D01*
X113553839Y-77380537D01*
X113664153Y-77439502D01*
X113783851Y-77475812D01*
X113908333Y-77488072D01*
X115608333Y-77488072D01*
X115732815Y-77475812D01*
X115852513Y-77439502D01*
X115962827Y-77380537D01*
X116059518Y-77301185D01*
X116138870Y-77204494D01*
X116197835Y-77094180D01*
X116234145Y-76974482D01*
X116246405Y-76850000D01*
X116246405Y-75853740D01*
X132781666Y-75853740D01*
X132781666Y-76146260D01*
X132838734Y-76433158D01*
X132950676Y-76703411D01*
X133113191Y-76946632D01*
X133320034Y-77153475D01*
X133563255Y-77315990D01*
X133833508Y-77427932D01*
X134120406Y-77485000D01*
X134412926Y-77485000D01*
X134699824Y-77427932D01*
X134970077Y-77315990D01*
X135213298Y-77153475D01*
X135345153Y-77021620D01*
X135367164Y-77094180D01*
X135426129Y-77204494D01*
X135505481Y-77301185D01*
X135602172Y-77380537D01*
X135712486Y-77439502D01*
X135832184Y-77475812D01*
X135956666Y-77488072D01*
X137656666Y-77488072D01*
X137781148Y-77475812D01*
X137900846Y-77439502D01*
X138011160Y-77380537D01*
X138107851Y-77301185D01*
X138187203Y-77204494D01*
X138246168Y-77094180D01*
X138282478Y-76974482D01*
X138294738Y-76850000D01*
X138294738Y-75853740D01*
X154829999Y-75853740D01*
X154829999Y-76146260D01*
X154887067Y-76433158D01*
X154999009Y-76703411D01*
X155161524Y-76946632D01*
X155368367Y-77153475D01*
X155611588Y-77315990D01*
X155881841Y-77427932D01*
X156168739Y-77485000D01*
X156461259Y-77485000D01*
X156748157Y-77427932D01*
X157018410Y-77315990D01*
X157261631Y-77153475D01*
X157393486Y-77021620D01*
X157415497Y-77094180D01*
X157474462Y-77204494D01*
X157553814Y-77301185D01*
X157650505Y-77380537D01*
X157760819Y-77439502D01*
X157880517Y-77475812D01*
X158004999Y-77488072D01*
X159704999Y-77488072D01*
X159829481Y-77475812D01*
X159949179Y-77439502D01*
X160059493Y-77380537D01*
X160156184Y-77301185D01*
X160235536Y-77204494D01*
X160294501Y-77094180D01*
X160330811Y-76974482D01*
X160343071Y-76850000D01*
X160343071Y-75853740D01*
X176878332Y-75853740D01*
X176878332Y-76146260D01*
X176935400Y-76433158D01*
X177047342Y-76703411D01*
X177209857Y-76946632D01*
X177416700Y-77153475D01*
X177659921Y-77315990D01*
X177930174Y-77427932D01*
X178217072Y-77485000D01*
X178509592Y-77485000D01*
X178796490Y-77427932D01*
X179066743Y-77315990D01*
X179309964Y-77153475D01*
X179441819Y-77021620D01*
X179463830Y-77094180D01*
X179522795Y-77204494D01*
X179602147Y-77301185D01*
X179698838Y-77380537D01*
X179809152Y-77439502D01*
X179928850Y-77475812D01*
X180053332Y-77488072D01*
X181753332Y-77488072D01*
X181877814Y-77475812D01*
X181997512Y-77439502D01*
X182107826Y-77380537D01*
X182204517Y-77301185D01*
X182283869Y-77204494D01*
X182342834Y-77094180D01*
X182379144Y-76974482D01*
X182391404Y-76850000D01*
X182391404Y-75853740D01*
X198926665Y-75853740D01*
X198926665Y-76146260D01*
X198983733Y-76433158D01*
X199095675Y-76703411D01*
X199258190Y-76946632D01*
X199465033Y-77153475D01*
X199708254Y-77315990D01*
X199978507Y-77427932D01*
X200265405Y-77485000D01*
X200557925Y-77485000D01*
X200844823Y-77427932D01*
X201115076Y-77315990D01*
X201358297Y-77153475D01*
X201490152Y-77021620D01*
X201512163Y-77094180D01*
X201571128Y-77204494D01*
X201650480Y-77301185D01*
X201747171Y-77380537D01*
X201857485Y-77439502D01*
X201977183Y-77475812D01*
X202101665Y-77488072D01*
X203801665Y-77488072D01*
X203926147Y-77475812D01*
X204045845Y-77439502D01*
X204156159Y-77380537D01*
X204252850Y-77301185D01*
X204332202Y-77204494D01*
X204391167Y-77094180D01*
X204427477Y-76974482D01*
X204439737Y-76850000D01*
X204439737Y-75853740D01*
X220975000Y-75853740D01*
X220975000Y-76146260D01*
X221032068Y-76433158D01*
X221144010Y-76703411D01*
X221306525Y-76946632D01*
X221513368Y-77153475D01*
X221756589Y-77315990D01*
X222026842Y-77427932D01*
X222313740Y-77485000D01*
X222606260Y-77485000D01*
X222893158Y-77427932D01*
X223163411Y-77315990D01*
X223406632Y-77153475D01*
X223538487Y-77021620D01*
X223560498Y-77094180D01*
X223619463Y-77204494D01*
X223698815Y-77301185D01*
X223795506Y-77380537D01*
X223905820Y-77439502D01*
X224025518Y-77475812D01*
X224150000Y-77488072D01*
X225850000Y-77488072D01*
X225974482Y-77475812D01*
X226094180Y-77439502D01*
X226204494Y-77380537D01*
X226301185Y-77301185D01*
X226380537Y-77204494D01*
X226439502Y-77094180D01*
X226475812Y-76974482D01*
X226488072Y-76850000D01*
X226488072Y-75150000D01*
X226475812Y-75025518D01*
X226439502Y-74905820D01*
X226380537Y-74795506D01*
X226301185Y-74698815D01*
X226204494Y-74619463D01*
X226094180Y-74560498D01*
X226013534Y-74536034D01*
X226097588Y-74460269D01*
X226271641Y-74226920D01*
X226396825Y-73964099D01*
X226441476Y-73816890D01*
X226320155Y-73587000D01*
X225127000Y-73587000D01*
X225127000Y-73607000D01*
X224873000Y-73607000D01*
X224873000Y-73587000D01*
X222587000Y-73587000D01*
X222587000Y-73607000D01*
X222333000Y-73607000D01*
X222333000Y-73587000D01*
X221139845Y-73587000D01*
X221018524Y-73816890D01*
X221063175Y-73964099D01*
X221188359Y-74226920D01*
X221362412Y-74460269D01*
X221578645Y-74655178D01*
X221695534Y-74724805D01*
X221513368Y-74846525D01*
X221306525Y-75053368D01*
X221144010Y-75296589D01*
X221032068Y-75566842D01*
X220975000Y-75853740D01*
X204439737Y-75853740D01*
X204439737Y-75150000D01*
X204427477Y-75025518D01*
X204391167Y-74905820D01*
X204332202Y-74795506D01*
X204252850Y-74698815D01*
X204156159Y-74619463D01*
X204045845Y-74560498D01*
X203965199Y-74536034D01*
X204049253Y-74460269D01*
X204223306Y-74226920D01*
X204348490Y-73964099D01*
X204393141Y-73816890D01*
X204271820Y-73587000D01*
X203078665Y-73587000D01*
X203078665Y-73607000D01*
X202824665Y-73607000D01*
X202824665Y-73587000D01*
X200538665Y-73587000D01*
X200538665Y-73607000D01*
X200284665Y-73607000D01*
X200284665Y-73587000D01*
X199091510Y-73587000D01*
X198970189Y-73816890D01*
X199014840Y-73964099D01*
X199140024Y-74226920D01*
X199314077Y-74460269D01*
X199530310Y-74655178D01*
X199647199Y-74724805D01*
X199465033Y-74846525D01*
X199258190Y-75053368D01*
X199095675Y-75296589D01*
X198983733Y-75566842D01*
X198926665Y-75853740D01*
X182391404Y-75853740D01*
X182391404Y-75150000D01*
X182379144Y-75025518D01*
X182342834Y-74905820D01*
X182283869Y-74795506D01*
X182204517Y-74698815D01*
X182107826Y-74619463D01*
X181997512Y-74560498D01*
X181916866Y-74536034D01*
X182000920Y-74460269D01*
X182174973Y-74226920D01*
X182300157Y-73964099D01*
X182344808Y-73816890D01*
X182223487Y-73587000D01*
X181030332Y-73587000D01*
X181030332Y-73607000D01*
X180776332Y-73607000D01*
X180776332Y-73587000D01*
X178490332Y-73587000D01*
X178490332Y-73607000D01*
X178236332Y-73607000D01*
X178236332Y-73587000D01*
X177043177Y-73587000D01*
X176921856Y-73816890D01*
X176966507Y-73964099D01*
X177091691Y-74226920D01*
X177265744Y-74460269D01*
X177481977Y-74655178D01*
X177598866Y-74724805D01*
X177416700Y-74846525D01*
X177209857Y-75053368D01*
X177047342Y-75296589D01*
X176935400Y-75566842D01*
X176878332Y-75853740D01*
X160343071Y-75853740D01*
X160343071Y-75150000D01*
X160330811Y-75025518D01*
X160294501Y-74905820D01*
X160235536Y-74795506D01*
X160156184Y-74698815D01*
X160059493Y-74619463D01*
X159949179Y-74560498D01*
X159868533Y-74536034D01*
X159952587Y-74460269D01*
X160126640Y-74226920D01*
X160251824Y-73964099D01*
X160296475Y-73816890D01*
X160175154Y-73587000D01*
X158981999Y-73587000D01*
X158981999Y-73607000D01*
X158727999Y-73607000D01*
X158727999Y-73587000D01*
X156441999Y-73587000D01*
X156441999Y-73607000D01*
X156187999Y-73607000D01*
X156187999Y-73587000D01*
X154994844Y-73587000D01*
X154873523Y-73816890D01*
X154918174Y-73964099D01*
X155043358Y-74226920D01*
X155217411Y-74460269D01*
X155433644Y-74655178D01*
X155550533Y-74724805D01*
X155368367Y-74846525D01*
X155161524Y-75053368D01*
X154999009Y-75296589D01*
X154887067Y-75566842D01*
X154829999Y-75853740D01*
X138294738Y-75853740D01*
X138294738Y-75150000D01*
X138282478Y-75025518D01*
X138246168Y-74905820D01*
X138187203Y-74795506D01*
X138107851Y-74698815D01*
X138011160Y-74619463D01*
X137900846Y-74560498D01*
X137820200Y-74536034D01*
X137904254Y-74460269D01*
X138078307Y-74226920D01*
X138203491Y-73964099D01*
X138248142Y-73816890D01*
X138126821Y-73587000D01*
X136933666Y-73587000D01*
X136933666Y-73607000D01*
X136679666Y-73607000D01*
X136679666Y-73587000D01*
X134393666Y-73587000D01*
X134393666Y-73607000D01*
X134139666Y-73607000D01*
X134139666Y-73587000D01*
X132946511Y-73587000D01*
X132825190Y-73816890D01*
X132869841Y-73964099D01*
X132995025Y-74226920D01*
X133169078Y-74460269D01*
X133385311Y-74655178D01*
X133502200Y-74724805D01*
X133320034Y-74846525D01*
X133113191Y-75053368D01*
X132950676Y-75296589D01*
X132838734Y-75566842D01*
X132781666Y-75853740D01*
X116246405Y-75853740D01*
X116246405Y-75150000D01*
X116234145Y-75025518D01*
X116197835Y-74905820D01*
X116138870Y-74795506D01*
X116059518Y-74698815D01*
X115962827Y-74619463D01*
X115852513Y-74560498D01*
X115771867Y-74536034D01*
X115855921Y-74460269D01*
X116029974Y-74226920D01*
X116155158Y-73964099D01*
X116199809Y-73816890D01*
X116078488Y-73587000D01*
X114885333Y-73587000D01*
X114885333Y-73607000D01*
X114631333Y-73607000D01*
X114631333Y-73587000D01*
X112345333Y-73587000D01*
X112345333Y-73607000D01*
X112091333Y-73607000D01*
X112091333Y-73587000D01*
X110898178Y-73587000D01*
X110776857Y-73816890D01*
X110821508Y-73964099D01*
X110946692Y-74226920D01*
X111120745Y-74460269D01*
X111336978Y-74655178D01*
X111453867Y-74724805D01*
X111271701Y-74846525D01*
X111064858Y-75053368D01*
X110902343Y-75296589D01*
X110790401Y-75566842D01*
X110733333Y-75853740D01*
X94198072Y-75853740D01*
X94198072Y-75150000D01*
X94185812Y-75025518D01*
X94149502Y-74905820D01*
X94090537Y-74795506D01*
X94011185Y-74698815D01*
X93914494Y-74619463D01*
X93804180Y-74560498D01*
X93723534Y-74536034D01*
X93807588Y-74460269D01*
X93981641Y-74226920D01*
X94106825Y-73964099D01*
X94151476Y-73816890D01*
X94030155Y-73587000D01*
X92837000Y-73587000D01*
X92837000Y-73607000D01*
X92583000Y-73607000D01*
X92583000Y-73587000D01*
X90297000Y-73587000D01*
X90297000Y-73607000D01*
X90043000Y-73607000D01*
X90043000Y-73587000D01*
X88849845Y-73587000D01*
X88728524Y-73816890D01*
X88773175Y-73964099D01*
X88898359Y-74226920D01*
X89072412Y-74460269D01*
X89288645Y-74655178D01*
X89405534Y-74724805D01*
X89223368Y-74846525D01*
X89016525Y-75053368D01*
X88854010Y-75296589D01*
X88742068Y-75566842D01*
X88685000Y-75853740D01*
X65488072Y-75853740D01*
X65488072Y-75150000D01*
X65475812Y-75025518D01*
X65439502Y-74905820D01*
X65380537Y-74795506D01*
X65301185Y-74698815D01*
X65204494Y-74619463D01*
X65094180Y-74560498D01*
X65013534Y-74536034D01*
X65097588Y-74460269D01*
X65271641Y-74226920D01*
X65396825Y-73964099D01*
X65441476Y-73816890D01*
X65320155Y-73587000D01*
X64127000Y-73587000D01*
X64127000Y-73607000D01*
X63873000Y-73607000D01*
X63873000Y-73587000D01*
X61587000Y-73587000D01*
X61587000Y-73607000D01*
X61333000Y-73607000D01*
X61333000Y-73587000D01*
X60139845Y-73587000D01*
X60018524Y-73816890D01*
X60063175Y-73964099D01*
X60188359Y-74226920D01*
X60362412Y-74460269D01*
X60578645Y-74655178D01*
X60695534Y-74724805D01*
X60513368Y-74846525D01*
X60306525Y-75053368D01*
X60144010Y-75296589D01*
X60032068Y-75566842D01*
X59975000Y-75853740D01*
X52127000Y-75853740D01*
X52127000Y-72060413D01*
X54044192Y-72060413D01*
X54139956Y-72324814D01*
X54429571Y-72465704D01*
X54741108Y-72547384D01*
X55062595Y-72566718D01*
X55381675Y-72522961D01*
X55686088Y-72417795D01*
X55860044Y-72324814D01*
X55955808Y-72060413D01*
X55000000Y-71104605D01*
X54044192Y-72060413D01*
X52127000Y-72060413D01*
X52127000Y-70987595D01*
X53358282Y-70987595D01*
X53402039Y-71306675D01*
X53507205Y-71611088D01*
X53600186Y-71785044D01*
X53864587Y-71880808D01*
X54820395Y-70925000D01*
X55179605Y-70925000D01*
X56135413Y-71880808D01*
X56399814Y-71785044D01*
X56540704Y-71495429D01*
X56598001Y-71276890D01*
X60018524Y-71276890D01*
X60063175Y-71424099D01*
X60188359Y-71686920D01*
X60362412Y-71920269D01*
X60578645Y-72115178D01*
X60704255Y-72190000D01*
X60578645Y-72264822D01*
X60362412Y-72459731D01*
X60188359Y-72693080D01*
X60063175Y-72955901D01*
X60018524Y-73103110D01*
X60139845Y-73333000D01*
X61333000Y-73333000D01*
X61333000Y-71047000D01*
X61587000Y-71047000D01*
X61587000Y-73333000D01*
X63873000Y-73333000D01*
X63873000Y-71047000D01*
X64127000Y-71047000D01*
X64127000Y-73333000D01*
X65320155Y-73333000D01*
X65441476Y-73103110D01*
X65396825Y-72955901D01*
X65271641Y-72693080D01*
X65097588Y-72459731D01*
X64881355Y-72264822D01*
X64755745Y-72190000D01*
X64881355Y-72115178D01*
X65097588Y-71920269D01*
X65271641Y-71686920D01*
X65396825Y-71424099D01*
X65441476Y-71276890D01*
X88728524Y-71276890D01*
X88773175Y-71424099D01*
X88898359Y-71686920D01*
X89072412Y-71920269D01*
X89288645Y-72115178D01*
X89414255Y-72190000D01*
X89288645Y-72264822D01*
X89072412Y-72459731D01*
X88898359Y-72693080D01*
X88773175Y-72955901D01*
X88728524Y-73103110D01*
X88849845Y-73333000D01*
X90043000Y-73333000D01*
X90043000Y-71047000D01*
X90297000Y-71047000D01*
X90297000Y-73333000D01*
X92583000Y-73333000D01*
X92583000Y-71047000D01*
X92837000Y-71047000D01*
X92837000Y-73333000D01*
X94030155Y-73333000D01*
X94151476Y-73103110D01*
X94106825Y-72955901D01*
X93981641Y-72693080D01*
X93807588Y-72459731D01*
X93591355Y-72264822D01*
X93465745Y-72190000D01*
X93591355Y-72115178D01*
X93807588Y-71920269D01*
X93981641Y-71686920D01*
X94106825Y-71424099D01*
X94151476Y-71276890D01*
X110776857Y-71276890D01*
X110821508Y-71424099D01*
X110946692Y-71686920D01*
X111120745Y-71920269D01*
X111336978Y-72115178D01*
X111462588Y-72190000D01*
X111336978Y-72264822D01*
X111120745Y-72459731D01*
X110946692Y-72693080D01*
X110821508Y-72955901D01*
X110776857Y-73103110D01*
X110898178Y-73333000D01*
X112091333Y-73333000D01*
X112091333Y-71047000D01*
X112345333Y-71047000D01*
X112345333Y-73333000D01*
X114631333Y-73333000D01*
X114631333Y-71047000D01*
X114885333Y-71047000D01*
X114885333Y-73333000D01*
X116078488Y-73333000D01*
X116199809Y-73103110D01*
X116155158Y-72955901D01*
X116029974Y-72693080D01*
X115855921Y-72459731D01*
X115639688Y-72264822D01*
X115514078Y-72190000D01*
X115639688Y-72115178D01*
X115855921Y-71920269D01*
X116029974Y-71686920D01*
X116155158Y-71424099D01*
X116199809Y-71276890D01*
X132825190Y-71276890D01*
X132869841Y-71424099D01*
X132995025Y-71686920D01*
X133169078Y-71920269D01*
X133385311Y-72115178D01*
X133510921Y-72190000D01*
X133385311Y-72264822D01*
X133169078Y-72459731D01*
X132995025Y-72693080D01*
X132869841Y-72955901D01*
X132825190Y-73103110D01*
X132946511Y-73333000D01*
X134139666Y-73333000D01*
X134139666Y-71047000D01*
X134393666Y-71047000D01*
X134393666Y-73333000D01*
X136679666Y-73333000D01*
X136679666Y-71047000D01*
X136933666Y-71047000D01*
X136933666Y-73333000D01*
X138126821Y-73333000D01*
X138248142Y-73103110D01*
X138203491Y-72955901D01*
X138078307Y-72693080D01*
X137904254Y-72459731D01*
X137688021Y-72264822D01*
X137562411Y-72190000D01*
X137688021Y-72115178D01*
X137904254Y-71920269D01*
X138078307Y-71686920D01*
X138203491Y-71424099D01*
X138248142Y-71276890D01*
X154873523Y-71276890D01*
X154918174Y-71424099D01*
X155043358Y-71686920D01*
X155217411Y-71920269D01*
X155433644Y-72115178D01*
X155559254Y-72190000D01*
X155433644Y-72264822D01*
X155217411Y-72459731D01*
X155043358Y-72693080D01*
X154918174Y-72955901D01*
X154873523Y-73103110D01*
X154994844Y-73333000D01*
X156187999Y-73333000D01*
X156187999Y-71047000D01*
X156441999Y-71047000D01*
X156441999Y-73333000D01*
X158727999Y-73333000D01*
X158727999Y-71047000D01*
X158981999Y-71047000D01*
X158981999Y-73333000D01*
X160175154Y-73333000D01*
X160296475Y-73103110D01*
X160251824Y-72955901D01*
X160126640Y-72693080D01*
X159952587Y-72459731D01*
X159736354Y-72264822D01*
X159610744Y-72190000D01*
X159736354Y-72115178D01*
X159952587Y-71920269D01*
X160126640Y-71686920D01*
X160251824Y-71424099D01*
X160296475Y-71276890D01*
X176921856Y-71276890D01*
X176966507Y-71424099D01*
X177091691Y-71686920D01*
X177265744Y-71920269D01*
X177481977Y-72115178D01*
X177607587Y-72190000D01*
X177481977Y-72264822D01*
X177265744Y-72459731D01*
X177091691Y-72693080D01*
X176966507Y-72955901D01*
X176921856Y-73103110D01*
X177043177Y-73333000D01*
X178236332Y-73333000D01*
X178236332Y-71047000D01*
X178490332Y-71047000D01*
X178490332Y-73333000D01*
X180776332Y-73333000D01*
X180776332Y-71047000D01*
X181030332Y-71047000D01*
X181030332Y-73333000D01*
X182223487Y-73333000D01*
X182344808Y-73103110D01*
X182300157Y-72955901D01*
X182174973Y-72693080D01*
X182000920Y-72459731D01*
X181784687Y-72264822D01*
X181659077Y-72190000D01*
X181784687Y-72115178D01*
X182000920Y-71920269D01*
X182174973Y-71686920D01*
X182300157Y-71424099D01*
X182344808Y-71276890D01*
X198970189Y-71276890D01*
X199014840Y-71424099D01*
X199140024Y-71686920D01*
X199314077Y-71920269D01*
X199530310Y-72115178D01*
X199655920Y-72190000D01*
X199530310Y-72264822D01*
X199314077Y-72459731D01*
X199140024Y-72693080D01*
X199014840Y-72955901D01*
X198970189Y-73103110D01*
X199091510Y-73333000D01*
X200284665Y-73333000D01*
X200284665Y-71047000D01*
X200538665Y-71047000D01*
X200538665Y-73333000D01*
X202824665Y-73333000D01*
X202824665Y-71047000D01*
X203078665Y-71047000D01*
X203078665Y-73333000D01*
X204271820Y-73333000D01*
X204393141Y-73103110D01*
X204348490Y-72955901D01*
X204223306Y-72693080D01*
X204049253Y-72459731D01*
X203833020Y-72264822D01*
X203707410Y-72190000D01*
X203833020Y-72115178D01*
X204049253Y-71920269D01*
X204223306Y-71686920D01*
X204348490Y-71424099D01*
X204393141Y-71276890D01*
X221018524Y-71276890D01*
X221063175Y-71424099D01*
X221188359Y-71686920D01*
X221362412Y-71920269D01*
X221578645Y-72115178D01*
X221704255Y-72190000D01*
X221578645Y-72264822D01*
X221362412Y-72459731D01*
X221188359Y-72693080D01*
X221063175Y-72955901D01*
X221018524Y-73103110D01*
X221139845Y-73333000D01*
X222333000Y-73333000D01*
X222333000Y-71047000D01*
X222587000Y-71047000D01*
X222587000Y-73333000D01*
X224873000Y-73333000D01*
X224873000Y-71047000D01*
X225127000Y-71047000D01*
X225127000Y-73333000D01*
X226320155Y-73333000D01*
X226441476Y-73103110D01*
X226396825Y-72955901D01*
X226271641Y-72693080D01*
X226097588Y-72459731D01*
X225881355Y-72264822D01*
X225755745Y-72190000D01*
X225881355Y-72115178D01*
X226097588Y-71920269D01*
X226271641Y-71686920D01*
X226396825Y-71424099D01*
X226441476Y-71276890D01*
X226320155Y-71047000D01*
X225127000Y-71047000D01*
X224873000Y-71047000D01*
X222587000Y-71047000D01*
X222333000Y-71047000D01*
X221139845Y-71047000D01*
X221018524Y-71276890D01*
X204393141Y-71276890D01*
X204271820Y-71047000D01*
X203078665Y-71047000D01*
X202824665Y-71047000D01*
X200538665Y-71047000D01*
X200284665Y-71047000D01*
X199091510Y-71047000D01*
X198970189Y-71276890D01*
X182344808Y-71276890D01*
X182223487Y-71047000D01*
X181030332Y-71047000D01*
X180776332Y-71047000D01*
X178490332Y-71047000D01*
X178236332Y-71047000D01*
X177043177Y-71047000D01*
X176921856Y-71276890D01*
X160296475Y-71276890D01*
X160175154Y-71047000D01*
X158981999Y-71047000D01*
X158727999Y-71047000D01*
X156441999Y-71047000D01*
X156187999Y-71047000D01*
X154994844Y-71047000D01*
X154873523Y-71276890D01*
X138248142Y-71276890D01*
X138126821Y-71047000D01*
X136933666Y-71047000D01*
X136679666Y-71047000D01*
X134393666Y-71047000D01*
X134139666Y-71047000D01*
X132946511Y-71047000D01*
X132825190Y-71276890D01*
X116199809Y-71276890D01*
X116078488Y-71047000D01*
X114885333Y-71047000D01*
X114631333Y-71047000D01*
X112345333Y-71047000D01*
X112091333Y-71047000D01*
X110898178Y-71047000D01*
X110776857Y-71276890D01*
X94151476Y-71276890D01*
X94030155Y-71047000D01*
X92837000Y-71047000D01*
X92583000Y-71047000D01*
X90297000Y-71047000D01*
X90043000Y-71047000D01*
X88849845Y-71047000D01*
X88728524Y-71276890D01*
X65441476Y-71276890D01*
X65320155Y-71047000D01*
X64127000Y-71047000D01*
X63873000Y-71047000D01*
X61587000Y-71047000D01*
X61333000Y-71047000D01*
X60139845Y-71047000D01*
X60018524Y-71276890D01*
X56598001Y-71276890D01*
X56622384Y-71183892D01*
X56641718Y-70862405D01*
X56597961Y-70543325D01*
X56492795Y-70238912D01*
X56399814Y-70064956D01*
X56135413Y-69969192D01*
X55179605Y-70925000D01*
X54820395Y-70925000D01*
X53864587Y-69969192D01*
X53600186Y-70064956D01*
X53459296Y-70354571D01*
X53377616Y-70666108D01*
X53358282Y-70987595D01*
X52127000Y-70987595D01*
X52127000Y-69789587D01*
X54044192Y-69789587D01*
X55000000Y-70745395D01*
X55955808Y-69789587D01*
X55860044Y-69525186D01*
X55570429Y-69384296D01*
X55258892Y-69302616D01*
X54937405Y-69283282D01*
X54618325Y-69327039D01*
X54313912Y-69432205D01*
X54139956Y-69525186D01*
X54044192Y-69789587D01*
X52127000Y-69789587D01*
X52127000Y-68736890D01*
X60018524Y-68736890D01*
X60063175Y-68884099D01*
X60188359Y-69146920D01*
X60362412Y-69380269D01*
X60578645Y-69575178D01*
X60704255Y-69650000D01*
X60578645Y-69724822D01*
X60362412Y-69919731D01*
X60188359Y-70153080D01*
X60063175Y-70415901D01*
X60018524Y-70563110D01*
X60139845Y-70793000D01*
X61333000Y-70793000D01*
X61333000Y-68507000D01*
X61587000Y-68507000D01*
X61587000Y-70793000D01*
X63873000Y-70793000D01*
X63873000Y-68507000D01*
X64127000Y-68507000D01*
X64127000Y-70793000D01*
X65320155Y-70793000D01*
X65441476Y-70563110D01*
X65396825Y-70415901D01*
X65271641Y-70153080D01*
X65097588Y-69919731D01*
X64881355Y-69724822D01*
X64755745Y-69650000D01*
X64881355Y-69575178D01*
X65097588Y-69380269D01*
X65271641Y-69146920D01*
X65396825Y-68884099D01*
X65441476Y-68736890D01*
X88728524Y-68736890D01*
X88773175Y-68884099D01*
X88898359Y-69146920D01*
X89072412Y-69380269D01*
X89288645Y-69575178D01*
X89414255Y-69650000D01*
X89288645Y-69724822D01*
X89072412Y-69919731D01*
X88898359Y-70153080D01*
X88773175Y-70415901D01*
X88728524Y-70563110D01*
X88849845Y-70793000D01*
X90043000Y-70793000D01*
X90043000Y-68507000D01*
X90297000Y-68507000D01*
X90297000Y-70793000D01*
X92583000Y-70793000D01*
X92583000Y-68507000D01*
X92837000Y-68507000D01*
X92837000Y-70793000D01*
X94030155Y-70793000D01*
X94151476Y-70563110D01*
X94106825Y-70415901D01*
X93981641Y-70153080D01*
X93807588Y-69919731D01*
X93591355Y-69724822D01*
X93465745Y-69650000D01*
X93591355Y-69575178D01*
X93807588Y-69380269D01*
X93981641Y-69146920D01*
X94106825Y-68884099D01*
X94151476Y-68736890D01*
X110776857Y-68736890D01*
X110821508Y-68884099D01*
X110946692Y-69146920D01*
X111120745Y-69380269D01*
X111336978Y-69575178D01*
X111462588Y-69650000D01*
X111336978Y-69724822D01*
X111120745Y-69919731D01*
X110946692Y-70153080D01*
X110821508Y-70415901D01*
X110776857Y-70563110D01*
X110898178Y-70793000D01*
X112091333Y-70793000D01*
X112091333Y-68507000D01*
X112345333Y-68507000D01*
X112345333Y-70793000D01*
X114631333Y-70793000D01*
X114631333Y-68507000D01*
X114885333Y-68507000D01*
X114885333Y-70793000D01*
X116078488Y-70793000D01*
X116199809Y-70563110D01*
X116155158Y-70415901D01*
X116029974Y-70153080D01*
X115855921Y-69919731D01*
X115639688Y-69724822D01*
X115514078Y-69650000D01*
X115639688Y-69575178D01*
X115855921Y-69380269D01*
X116029974Y-69146920D01*
X116155158Y-68884099D01*
X116199809Y-68736890D01*
X132825190Y-68736890D01*
X132869841Y-68884099D01*
X132995025Y-69146920D01*
X133169078Y-69380269D01*
X133385311Y-69575178D01*
X133510921Y-69650000D01*
X133385311Y-69724822D01*
X133169078Y-69919731D01*
X132995025Y-70153080D01*
X132869841Y-70415901D01*
X132825190Y-70563110D01*
X132946511Y-70793000D01*
X134139666Y-70793000D01*
X134139666Y-68507000D01*
X134393666Y-68507000D01*
X134393666Y-70793000D01*
X136679666Y-70793000D01*
X136679666Y-68507000D01*
X136933666Y-68507000D01*
X136933666Y-70793000D01*
X138126821Y-70793000D01*
X138248142Y-70563110D01*
X138203491Y-70415901D01*
X138078307Y-70153080D01*
X137904254Y-69919731D01*
X137688021Y-69724822D01*
X137562411Y-69650000D01*
X137688021Y-69575178D01*
X137904254Y-69380269D01*
X138078307Y-69146920D01*
X138203491Y-68884099D01*
X138248142Y-68736890D01*
X154873523Y-68736890D01*
X154918174Y-68884099D01*
X155043358Y-69146920D01*
X155217411Y-69380269D01*
X155433644Y-69575178D01*
X155559254Y-69650000D01*
X155433644Y-69724822D01*
X155217411Y-69919731D01*
X155043358Y-70153080D01*
X154918174Y-70415901D01*
X154873523Y-70563110D01*
X154994844Y-70793000D01*
X156187999Y-70793000D01*
X156187999Y-68507000D01*
X156441999Y-68507000D01*
X156441999Y-70793000D01*
X158727999Y-70793000D01*
X158727999Y-68507000D01*
X158981999Y-68507000D01*
X158981999Y-70793000D01*
X160175154Y-70793000D01*
X160296475Y-70563110D01*
X160251824Y-70415901D01*
X160126640Y-70153080D01*
X159952587Y-69919731D01*
X159736354Y-69724822D01*
X159610744Y-69650000D01*
X159736354Y-69575178D01*
X159952587Y-69380269D01*
X160126640Y-69146920D01*
X160251824Y-68884099D01*
X160296475Y-68736890D01*
X176921856Y-68736890D01*
X176966507Y-68884099D01*
X177091691Y-69146920D01*
X177265744Y-69380269D01*
X177481977Y-69575178D01*
X177607587Y-69650000D01*
X177481977Y-69724822D01*
X177265744Y-69919731D01*
X177091691Y-70153080D01*
X176966507Y-70415901D01*
X176921856Y-70563110D01*
X177043177Y-70793000D01*
X178236332Y-70793000D01*
X178236332Y-68507000D01*
X178490332Y-68507000D01*
X178490332Y-70793000D01*
X180776332Y-70793000D01*
X180776332Y-68507000D01*
X181030332Y-68507000D01*
X181030332Y-70793000D01*
X182223487Y-70793000D01*
X182344808Y-70563110D01*
X182300157Y-70415901D01*
X182174973Y-70153080D01*
X182000920Y-69919731D01*
X181784687Y-69724822D01*
X181659077Y-69650000D01*
X181784687Y-69575178D01*
X182000920Y-69380269D01*
X182174973Y-69146920D01*
X182300157Y-68884099D01*
X182344808Y-68736890D01*
X198970189Y-68736890D01*
X199014840Y-68884099D01*
X199140024Y-69146920D01*
X199314077Y-69380269D01*
X199530310Y-69575178D01*
X199655920Y-69650000D01*
X199530310Y-69724822D01*
X199314077Y-69919731D01*
X199140024Y-70153080D01*
X199014840Y-70415901D01*
X198970189Y-70563110D01*
X199091510Y-70793000D01*
X200284665Y-70793000D01*
X200284665Y-68507000D01*
X200538665Y-68507000D01*
X200538665Y-70793000D01*
X202824665Y-70793000D01*
X202824665Y-68507000D01*
X203078665Y-68507000D01*
X203078665Y-70793000D01*
X204271820Y-70793000D01*
X204393141Y-70563110D01*
X204348490Y-70415901D01*
X204223306Y-70153080D01*
X204049253Y-69919731D01*
X203833020Y-69724822D01*
X203707410Y-69650000D01*
X203833020Y-69575178D01*
X204049253Y-69380269D01*
X204223306Y-69146920D01*
X204348490Y-68884099D01*
X204393141Y-68736890D01*
X221018524Y-68736890D01*
X221063175Y-68884099D01*
X221188359Y-69146920D01*
X221362412Y-69380269D01*
X221578645Y-69575178D01*
X221704255Y-69650000D01*
X221578645Y-69724822D01*
X221362412Y-69919731D01*
X221188359Y-70153080D01*
X221063175Y-70415901D01*
X221018524Y-70563110D01*
X221139845Y-70793000D01*
X222333000Y-70793000D01*
X222333000Y-68507000D01*
X222587000Y-68507000D01*
X222587000Y-70793000D01*
X224873000Y-70793000D01*
X224873000Y-68507000D01*
X225127000Y-68507000D01*
X225127000Y-70793000D01*
X226320155Y-70793000D01*
X226441476Y-70563110D01*
X226396825Y-70415901D01*
X226271641Y-70153080D01*
X226097588Y-69919731D01*
X225881355Y-69724822D01*
X225755745Y-69650000D01*
X225881355Y-69575178D01*
X226097588Y-69380269D01*
X226271641Y-69146920D01*
X226396825Y-68884099D01*
X226441476Y-68736890D01*
X226320155Y-68507000D01*
X225127000Y-68507000D01*
X224873000Y-68507000D01*
X222587000Y-68507000D01*
X222333000Y-68507000D01*
X221139845Y-68507000D01*
X221018524Y-68736890D01*
X204393141Y-68736890D01*
X204271820Y-68507000D01*
X203078665Y-68507000D01*
X202824665Y-68507000D01*
X200538665Y-68507000D01*
X200284665Y-68507000D01*
X199091510Y-68507000D01*
X198970189Y-68736890D01*
X182344808Y-68736890D01*
X182223487Y-68507000D01*
X181030332Y-68507000D01*
X180776332Y-68507000D01*
X178490332Y-68507000D01*
X178236332Y-68507000D01*
X177043177Y-68507000D01*
X176921856Y-68736890D01*
X160296475Y-68736890D01*
X160175154Y-68507000D01*
X158981999Y-68507000D01*
X158727999Y-68507000D01*
X156441999Y-68507000D01*
X156187999Y-68507000D01*
X154994844Y-68507000D01*
X154873523Y-68736890D01*
X138248142Y-68736890D01*
X138126821Y-68507000D01*
X136933666Y-68507000D01*
X136679666Y-68507000D01*
X134393666Y-68507000D01*
X134139666Y-68507000D01*
X132946511Y-68507000D01*
X132825190Y-68736890D01*
X116199809Y-68736890D01*
X116078488Y-68507000D01*
X114885333Y-68507000D01*
X114631333Y-68507000D01*
X112345333Y-68507000D01*
X112091333Y-68507000D01*
X110898178Y-68507000D01*
X110776857Y-68736890D01*
X94151476Y-68736890D01*
X94030155Y-68507000D01*
X92837000Y-68507000D01*
X92583000Y-68507000D01*
X90297000Y-68507000D01*
X90043000Y-68507000D01*
X88849845Y-68507000D01*
X88728524Y-68736890D01*
X65441476Y-68736890D01*
X65320155Y-68507000D01*
X64127000Y-68507000D01*
X63873000Y-68507000D01*
X61587000Y-68507000D01*
X61333000Y-68507000D01*
X60139845Y-68507000D01*
X60018524Y-68736890D01*
X52127000Y-68736890D01*
X52127000Y-65693740D01*
X59975000Y-65693740D01*
X59975000Y-65986260D01*
X60032068Y-66273158D01*
X60144010Y-66543411D01*
X60306525Y-66786632D01*
X60513368Y-66993475D01*
X60695534Y-67115195D01*
X60578645Y-67184822D01*
X60362412Y-67379731D01*
X60188359Y-67613080D01*
X60063175Y-67875901D01*
X60018524Y-68023110D01*
X60139845Y-68253000D01*
X61333000Y-68253000D01*
X61333000Y-68233000D01*
X61587000Y-68233000D01*
X61587000Y-68253000D01*
X63873000Y-68253000D01*
X63873000Y-68233000D01*
X64127000Y-68233000D01*
X64127000Y-68253000D01*
X65320155Y-68253000D01*
X65441476Y-68023110D01*
X65396825Y-67875901D01*
X65271641Y-67613080D01*
X65097588Y-67379731D01*
X64881355Y-67184822D01*
X64764466Y-67115195D01*
X64946632Y-66993475D01*
X65153475Y-66786632D01*
X65315990Y-66543411D01*
X65427932Y-66273158D01*
X65485000Y-65986260D01*
X65485000Y-65693740D01*
X88685000Y-65693740D01*
X88685000Y-65986260D01*
X88742068Y-66273158D01*
X88854010Y-66543411D01*
X89016525Y-66786632D01*
X89223368Y-66993475D01*
X89405534Y-67115195D01*
X89288645Y-67184822D01*
X89072412Y-67379731D01*
X88898359Y-67613080D01*
X88773175Y-67875901D01*
X88728524Y-68023110D01*
X88849845Y-68253000D01*
X90043000Y-68253000D01*
X90043000Y-68233000D01*
X90297000Y-68233000D01*
X90297000Y-68253000D01*
X92583000Y-68253000D01*
X92583000Y-68233000D01*
X92837000Y-68233000D01*
X92837000Y-68253000D01*
X94030155Y-68253000D01*
X94151476Y-68023110D01*
X94106825Y-67875901D01*
X93981641Y-67613080D01*
X93807588Y-67379731D01*
X93591355Y-67184822D01*
X93474466Y-67115195D01*
X93656632Y-66993475D01*
X93863475Y-66786632D01*
X94025990Y-66543411D01*
X94137932Y-66273158D01*
X94195000Y-65986260D01*
X94195000Y-65693740D01*
X110733333Y-65693740D01*
X110733333Y-65986260D01*
X110790401Y-66273158D01*
X110902343Y-66543411D01*
X111064858Y-66786632D01*
X111271701Y-66993475D01*
X111453867Y-67115195D01*
X111336978Y-67184822D01*
X111120745Y-67379731D01*
X110946692Y-67613080D01*
X110821508Y-67875901D01*
X110776857Y-68023110D01*
X110898178Y-68253000D01*
X112091333Y-68253000D01*
X112091333Y-68233000D01*
X112345333Y-68233000D01*
X112345333Y-68253000D01*
X114631333Y-68253000D01*
X114631333Y-68233000D01*
X114885333Y-68233000D01*
X114885333Y-68253000D01*
X116078488Y-68253000D01*
X116199809Y-68023110D01*
X116155158Y-67875901D01*
X116029974Y-67613080D01*
X115855921Y-67379731D01*
X115639688Y-67184822D01*
X115522799Y-67115195D01*
X115704965Y-66993475D01*
X115911808Y-66786632D01*
X116074323Y-66543411D01*
X116186265Y-66273158D01*
X116243333Y-65986260D01*
X116243333Y-65693740D01*
X132781666Y-65693740D01*
X132781666Y-65986260D01*
X132838734Y-66273158D01*
X132950676Y-66543411D01*
X133113191Y-66786632D01*
X133320034Y-66993475D01*
X133502200Y-67115195D01*
X133385311Y-67184822D01*
X133169078Y-67379731D01*
X132995025Y-67613080D01*
X132869841Y-67875901D01*
X132825190Y-68023110D01*
X132946511Y-68253000D01*
X134139666Y-68253000D01*
X134139666Y-68233000D01*
X134393666Y-68233000D01*
X134393666Y-68253000D01*
X136679666Y-68253000D01*
X136679666Y-68233000D01*
X136933666Y-68233000D01*
X136933666Y-68253000D01*
X138126821Y-68253000D01*
X138248142Y-68023110D01*
X138203491Y-67875901D01*
X138078307Y-67613080D01*
X137904254Y-67379731D01*
X137688021Y-67184822D01*
X137571132Y-67115195D01*
X137753298Y-66993475D01*
X137960141Y-66786632D01*
X138122656Y-66543411D01*
X138234598Y-66273158D01*
X138291666Y-65986260D01*
X138291666Y-65693740D01*
X154829999Y-65693740D01*
X154829999Y-65986260D01*
X154887067Y-66273158D01*
X154999009Y-66543411D01*
X155161524Y-66786632D01*
X155368367Y-66993475D01*
X155550533Y-67115195D01*
X155433644Y-67184822D01*
X155217411Y-67379731D01*
X155043358Y-67613080D01*
X154918174Y-67875901D01*
X154873523Y-68023110D01*
X154994844Y-68253000D01*
X156187999Y-68253000D01*
X156187999Y-68233000D01*
X156441999Y-68233000D01*
X156441999Y-68253000D01*
X158727999Y-68253000D01*
X158727999Y-68233000D01*
X158981999Y-68233000D01*
X158981999Y-68253000D01*
X160175154Y-68253000D01*
X160296475Y-68023110D01*
X160251824Y-67875901D01*
X160126640Y-67613080D01*
X159952587Y-67379731D01*
X159736354Y-67184822D01*
X159619465Y-67115195D01*
X159801631Y-66993475D01*
X160008474Y-66786632D01*
X160170989Y-66543411D01*
X160282931Y-66273158D01*
X160339999Y-65986260D01*
X160339999Y-65693740D01*
X176878332Y-65693740D01*
X176878332Y-65986260D01*
X176935400Y-66273158D01*
X177047342Y-66543411D01*
X177209857Y-66786632D01*
X177416700Y-66993475D01*
X177598866Y-67115195D01*
X177481977Y-67184822D01*
X177265744Y-67379731D01*
X177091691Y-67613080D01*
X176966507Y-67875901D01*
X176921856Y-68023110D01*
X177043177Y-68253000D01*
X178236332Y-68253000D01*
X178236332Y-68233000D01*
X178490332Y-68233000D01*
X178490332Y-68253000D01*
X180776332Y-68253000D01*
X180776332Y-68233000D01*
X181030332Y-68233000D01*
X181030332Y-68253000D01*
X182223487Y-68253000D01*
X182344808Y-68023110D01*
X182300157Y-67875901D01*
X182174973Y-67613080D01*
X182000920Y-67379731D01*
X181784687Y-67184822D01*
X181667798Y-67115195D01*
X181849964Y-66993475D01*
X182056807Y-66786632D01*
X182219322Y-66543411D01*
X182331264Y-66273158D01*
X182388332Y-65986260D01*
X182388332Y-65693740D01*
X198926665Y-65693740D01*
X198926665Y-65986260D01*
X198983733Y-66273158D01*
X199095675Y-66543411D01*
X199258190Y-66786632D01*
X199465033Y-66993475D01*
X199647199Y-67115195D01*
X199530310Y-67184822D01*
X199314077Y-67379731D01*
X199140024Y-67613080D01*
X199014840Y-67875901D01*
X198970189Y-68023110D01*
X199091510Y-68253000D01*
X200284665Y-68253000D01*
X200284665Y-68233000D01*
X200538665Y-68233000D01*
X200538665Y-68253000D01*
X202824665Y-68253000D01*
X202824665Y-68233000D01*
X203078665Y-68233000D01*
X203078665Y-68253000D01*
X204271820Y-68253000D01*
X204393141Y-68023110D01*
X204348490Y-67875901D01*
X204223306Y-67613080D01*
X204049253Y-67379731D01*
X203833020Y-67184822D01*
X203716131Y-67115195D01*
X203898297Y-66993475D01*
X204105140Y-66786632D01*
X204267655Y-66543411D01*
X204379597Y-66273158D01*
X204436665Y-65986260D01*
X204436665Y-65693740D01*
X220975000Y-65693740D01*
X220975000Y-65986260D01*
X221032068Y-66273158D01*
X221144010Y-66543411D01*
X221306525Y-66786632D01*
X221513368Y-66993475D01*
X221695534Y-67115195D01*
X221578645Y-67184822D01*
X221362412Y-67379731D01*
X221188359Y-67613080D01*
X221063175Y-67875901D01*
X221018524Y-68023110D01*
X221139845Y-68253000D01*
X222333000Y-68253000D01*
X222333000Y-68233000D01*
X222587000Y-68233000D01*
X222587000Y-68253000D01*
X224873000Y-68253000D01*
X224873000Y-68233000D01*
X225127000Y-68233000D01*
X225127000Y-68253000D01*
X226320155Y-68253000D01*
X226441476Y-68023110D01*
X226396825Y-67875901D01*
X226271641Y-67613080D01*
X226097588Y-67379731D01*
X225881355Y-67184822D01*
X225764466Y-67115195D01*
X225946632Y-66993475D01*
X226153475Y-66786632D01*
X226315990Y-66543411D01*
X226427932Y-66273158D01*
X226485000Y-65986260D01*
X226485000Y-65693740D01*
X226427932Y-65406842D01*
X226315990Y-65136589D01*
X226153475Y-64893368D01*
X225946632Y-64686525D01*
X225703411Y-64524010D01*
X225433158Y-64412068D01*
X225146260Y-64355000D01*
X224853740Y-64355000D01*
X224566842Y-64412068D01*
X224296589Y-64524010D01*
X224053368Y-64686525D01*
X223846525Y-64893368D01*
X223730000Y-65067760D01*
X223613475Y-64893368D01*
X223406632Y-64686525D01*
X223163411Y-64524010D01*
X222893158Y-64412068D01*
X222606260Y-64355000D01*
X222313740Y-64355000D01*
X222026842Y-64412068D01*
X221756589Y-64524010D01*
X221513368Y-64686525D01*
X221306525Y-64893368D01*
X221144010Y-65136589D01*
X221032068Y-65406842D01*
X220975000Y-65693740D01*
X204436665Y-65693740D01*
X204379597Y-65406842D01*
X204267655Y-65136589D01*
X204105140Y-64893368D01*
X203898297Y-64686525D01*
X203655076Y-64524010D01*
X203384823Y-64412068D01*
X203097925Y-64355000D01*
X202805405Y-64355000D01*
X202518507Y-64412068D01*
X202248254Y-64524010D01*
X202005033Y-64686525D01*
X201798190Y-64893368D01*
X201681665Y-65067760D01*
X201565140Y-64893368D01*
X201358297Y-64686525D01*
X201115076Y-64524010D01*
X200844823Y-64412068D01*
X200557925Y-64355000D01*
X200265405Y-64355000D01*
X199978507Y-64412068D01*
X199708254Y-64524010D01*
X199465033Y-64686525D01*
X199258190Y-64893368D01*
X199095675Y-65136589D01*
X198983733Y-65406842D01*
X198926665Y-65693740D01*
X182388332Y-65693740D01*
X182331264Y-65406842D01*
X182219322Y-65136589D01*
X182056807Y-64893368D01*
X181849964Y-64686525D01*
X181606743Y-64524010D01*
X181336490Y-64412068D01*
X181049592Y-64355000D01*
X180757072Y-64355000D01*
X180470174Y-64412068D01*
X180199921Y-64524010D01*
X179956700Y-64686525D01*
X179749857Y-64893368D01*
X179633332Y-65067760D01*
X179516807Y-64893368D01*
X179309964Y-64686525D01*
X179066743Y-64524010D01*
X178796490Y-64412068D01*
X178509592Y-64355000D01*
X178217072Y-64355000D01*
X177930174Y-64412068D01*
X177659921Y-64524010D01*
X177416700Y-64686525D01*
X177209857Y-64893368D01*
X177047342Y-65136589D01*
X176935400Y-65406842D01*
X176878332Y-65693740D01*
X160339999Y-65693740D01*
X160282931Y-65406842D01*
X160170989Y-65136589D01*
X160008474Y-64893368D01*
X159801631Y-64686525D01*
X159558410Y-64524010D01*
X159288157Y-64412068D01*
X159001259Y-64355000D01*
X158708739Y-64355000D01*
X158421841Y-64412068D01*
X158151588Y-64524010D01*
X157908367Y-64686525D01*
X157701524Y-64893368D01*
X157584999Y-65067760D01*
X157468474Y-64893368D01*
X157261631Y-64686525D01*
X157018410Y-64524010D01*
X156748157Y-64412068D01*
X156461259Y-64355000D01*
X156168739Y-64355000D01*
X155881841Y-64412068D01*
X155611588Y-64524010D01*
X155368367Y-64686525D01*
X155161524Y-64893368D01*
X154999009Y-65136589D01*
X154887067Y-65406842D01*
X154829999Y-65693740D01*
X138291666Y-65693740D01*
X138234598Y-65406842D01*
X138122656Y-65136589D01*
X137960141Y-64893368D01*
X137753298Y-64686525D01*
X137510077Y-64524010D01*
X137239824Y-64412068D01*
X136952926Y-64355000D01*
X136660406Y-64355000D01*
X136373508Y-64412068D01*
X136103255Y-64524010D01*
X135860034Y-64686525D01*
X135653191Y-64893368D01*
X135536666Y-65067760D01*
X135420141Y-64893368D01*
X135213298Y-64686525D01*
X134970077Y-64524010D01*
X134699824Y-64412068D01*
X134412926Y-64355000D01*
X134120406Y-64355000D01*
X133833508Y-64412068D01*
X133563255Y-64524010D01*
X133320034Y-64686525D01*
X133113191Y-64893368D01*
X132950676Y-65136589D01*
X132838734Y-65406842D01*
X132781666Y-65693740D01*
X116243333Y-65693740D01*
X116186265Y-65406842D01*
X116074323Y-65136589D01*
X115911808Y-64893368D01*
X115704965Y-64686525D01*
X115461744Y-64524010D01*
X115191491Y-64412068D01*
X114904593Y-64355000D01*
X114612073Y-64355000D01*
X114325175Y-64412068D01*
X114054922Y-64524010D01*
X113811701Y-64686525D01*
X113604858Y-64893368D01*
X113488333Y-65067760D01*
X113371808Y-64893368D01*
X113164965Y-64686525D01*
X112921744Y-64524010D01*
X112651491Y-64412068D01*
X112364593Y-64355000D01*
X112072073Y-64355000D01*
X111785175Y-64412068D01*
X111514922Y-64524010D01*
X111271701Y-64686525D01*
X111064858Y-64893368D01*
X110902343Y-65136589D01*
X110790401Y-65406842D01*
X110733333Y-65693740D01*
X94195000Y-65693740D01*
X94137932Y-65406842D01*
X94025990Y-65136589D01*
X93863475Y-64893368D01*
X93656632Y-64686525D01*
X93413411Y-64524010D01*
X93143158Y-64412068D01*
X92856260Y-64355000D01*
X92563740Y-64355000D01*
X92276842Y-64412068D01*
X92006589Y-64524010D01*
X91763368Y-64686525D01*
X91556525Y-64893368D01*
X91440000Y-65067760D01*
X91323475Y-64893368D01*
X91116632Y-64686525D01*
X90873411Y-64524010D01*
X90603158Y-64412068D01*
X90316260Y-64355000D01*
X90023740Y-64355000D01*
X89736842Y-64412068D01*
X89466589Y-64524010D01*
X89223368Y-64686525D01*
X89016525Y-64893368D01*
X88854010Y-65136589D01*
X88742068Y-65406842D01*
X88685000Y-65693740D01*
X65485000Y-65693740D01*
X65427932Y-65406842D01*
X65315990Y-65136589D01*
X65153475Y-64893368D01*
X64946632Y-64686525D01*
X64703411Y-64524010D01*
X64433158Y-64412068D01*
X64146260Y-64355000D01*
X63853740Y-64355000D01*
X63566842Y-64412068D01*
X63296589Y-64524010D01*
X63053368Y-64686525D01*
X62846525Y-64893368D01*
X62730000Y-65067760D01*
X62613475Y-64893368D01*
X62406632Y-64686525D01*
X62163411Y-64524010D01*
X61893158Y-64412068D01*
X61606260Y-64355000D01*
X61313740Y-64355000D01*
X61026842Y-64412068D01*
X60756589Y-64524010D01*
X60513368Y-64686525D01*
X60306525Y-64893368D01*
X60144010Y-65136589D01*
X60032068Y-65406842D01*
X59975000Y-65693740D01*
X52127000Y-65693740D01*
X52127000Y-62838967D01*
X53365000Y-62838967D01*
X53365000Y-63161033D01*
X53427832Y-63476912D01*
X53551082Y-63774463D01*
X53730013Y-64042252D01*
X53957748Y-64269987D01*
X54225537Y-64448918D01*
X54523088Y-64572168D01*
X54838967Y-64635000D01*
X55161033Y-64635000D01*
X55476912Y-64572168D01*
X55774463Y-64448918D01*
X56042252Y-64269987D01*
X56269987Y-64042252D01*
X56448918Y-63774463D01*
X56572168Y-63476912D01*
X56635000Y-63161033D01*
X56635000Y-62838967D01*
X56572168Y-62523088D01*
X56448918Y-62225537D01*
X56269987Y-61957748D01*
X56042252Y-61730013D01*
X55774463Y-61551082D01*
X55476912Y-61427832D01*
X55161033Y-61365000D01*
X54838967Y-61365000D01*
X54523088Y-61427832D01*
X54225537Y-61551082D01*
X53957748Y-61730013D01*
X53730013Y-61957748D01*
X53551082Y-62225537D01*
X53427832Y-62523088D01*
X53365000Y-62838967D01*
X52127000Y-62838967D01*
X52127000Y-58088665D01*
X109365000Y-58088665D01*
X109365000Y-58371335D01*
X109420147Y-58648574D01*
X109528320Y-58909727D01*
X109685363Y-59144759D01*
X109885241Y-59344637D01*
X110120273Y-59501680D01*
X110381426Y-59609853D01*
X110658665Y-59665000D01*
X110941335Y-59665000D01*
X111218574Y-59609853D01*
X111479727Y-59501680D01*
X111714759Y-59344637D01*
X111914637Y-59144759D01*
X112071680Y-58909727D01*
X112179853Y-58648574D01*
X112235000Y-58371335D01*
X112235000Y-58088665D01*
X122065000Y-58088665D01*
X122065000Y-58371335D01*
X122120147Y-58648574D01*
X122228320Y-58909727D01*
X122385363Y-59144759D01*
X122585241Y-59344637D01*
X122820273Y-59501680D01*
X123081426Y-59609853D01*
X123358665Y-59665000D01*
X123641335Y-59665000D01*
X123918574Y-59609853D01*
X124179727Y-59501680D01*
X124414759Y-59344637D01*
X124614637Y-59144759D01*
X124771680Y-58909727D01*
X124879853Y-58648574D01*
X124935000Y-58371335D01*
X124935000Y-58088665D01*
X124933041Y-58078816D01*
X126725000Y-58078816D01*
X126725000Y-58381184D01*
X126783989Y-58677743D01*
X126899701Y-58957095D01*
X127067688Y-59208505D01*
X127281495Y-59422312D01*
X127532905Y-59590299D01*
X127812257Y-59706011D01*
X128108816Y-59765000D01*
X128411184Y-59765000D01*
X128707743Y-59706011D01*
X128987095Y-59590299D01*
X129238505Y-59422312D01*
X129304944Y-59355873D01*
X129310498Y-59374180D01*
X129369463Y-59484494D01*
X129448815Y-59581185D01*
X129545506Y-59660537D01*
X129655820Y-59719502D01*
X129775518Y-59755812D01*
X129900000Y-59768072D01*
X130514250Y-59765000D01*
X130673000Y-59606250D01*
X130673000Y-58357000D01*
X130927000Y-58357000D01*
X130927000Y-59606250D01*
X131085750Y-59765000D01*
X131700000Y-59768072D01*
X131824482Y-59755812D01*
X131944180Y-59719502D01*
X132054494Y-59660537D01*
X132151185Y-59581185D01*
X132230537Y-59484494D01*
X132289502Y-59374180D01*
X132325812Y-59254482D01*
X132338072Y-59130000D01*
X132335000Y-58515750D01*
X132176250Y-58357000D01*
X130927000Y-58357000D01*
X130673000Y-58357000D01*
X130653000Y-58357000D01*
X130653000Y-58103000D01*
X130673000Y-58103000D01*
X130673000Y-56853750D01*
X130927000Y-56853750D01*
X130927000Y-58103000D01*
X132176250Y-58103000D01*
X132335000Y-57944250D01*
X132338072Y-57330000D01*
X132325812Y-57205518D01*
X132289502Y-57085820D01*
X132281320Y-57070512D01*
X156139782Y-57070512D01*
X156181212Y-57350130D01*
X156276396Y-57616292D01*
X156341615Y-57738309D01*
X156328814Y-57748815D01*
X156249462Y-57845506D01*
X156190497Y-57955820D01*
X156154187Y-58075518D01*
X156141927Y-58200000D01*
X156141927Y-59800000D01*
X156154187Y-59924482D01*
X156190497Y-60044180D01*
X156249462Y-60154494D01*
X156328814Y-60251185D01*
X156425505Y-60330537D01*
X156535819Y-60389502D01*
X156655517Y-60425812D01*
X156779999Y-60438072D01*
X158379999Y-60438072D01*
X158504481Y-60425812D01*
X158624179Y-60389502D01*
X158734493Y-60330537D01*
X158831184Y-60251185D01*
X158910536Y-60154494D01*
X158969501Y-60044180D01*
X159005811Y-59924482D01*
X159018071Y-59800000D01*
X159018071Y-58200000D01*
X159005811Y-58075518D01*
X158969501Y-57955820D01*
X158910536Y-57845506D01*
X158831184Y-57748815D01*
X158818241Y-57738193D01*
X158937570Y-57486004D01*
X159006299Y-57211816D01*
X159020216Y-56929488D01*
X158978786Y-56649870D01*
X158883602Y-56383708D01*
X158816670Y-56258486D01*
X158572701Y-56186903D01*
X157759604Y-57000000D01*
X157773747Y-57014143D01*
X157594142Y-57193748D01*
X157579999Y-57179605D01*
X157565857Y-57193748D01*
X157386252Y-57014143D01*
X157400394Y-57000000D01*
X156587297Y-56186903D01*
X156343328Y-56258486D01*
X156222428Y-56513996D01*
X156153699Y-56788184D01*
X156139782Y-57070512D01*
X132281320Y-57070512D01*
X132230537Y-56975506D01*
X132151185Y-56878815D01*
X132054494Y-56799463D01*
X131944180Y-56740498D01*
X131824482Y-56704188D01*
X131700000Y-56691928D01*
X131085750Y-56695000D01*
X130927000Y-56853750D01*
X130673000Y-56853750D01*
X130514250Y-56695000D01*
X129900000Y-56691928D01*
X129775518Y-56704188D01*
X129655820Y-56740498D01*
X129545506Y-56799463D01*
X129448815Y-56878815D01*
X129369463Y-56975506D01*
X129310498Y-57085820D01*
X129304944Y-57104127D01*
X129238505Y-57037688D01*
X128987095Y-56869701D01*
X128707743Y-56753989D01*
X128411184Y-56695000D01*
X128108816Y-56695000D01*
X127812257Y-56753989D01*
X127532905Y-56869701D01*
X127281495Y-57037688D01*
X127067688Y-57251495D01*
X126899701Y-57502905D01*
X126783989Y-57782257D01*
X126725000Y-58078816D01*
X124933041Y-58078816D01*
X124879853Y-57811426D01*
X124771680Y-57550273D01*
X124614637Y-57315241D01*
X124414759Y-57115363D01*
X124179727Y-56958320D01*
X123918574Y-56850147D01*
X123641335Y-56795000D01*
X123358665Y-56795000D01*
X123081426Y-56850147D01*
X122820273Y-56958320D01*
X122585241Y-57115363D01*
X122385363Y-57315241D01*
X122228320Y-57550273D01*
X122120147Y-57811426D01*
X122065000Y-58088665D01*
X112235000Y-58088665D01*
X112179853Y-57811426D01*
X112071680Y-57550273D01*
X111914637Y-57315241D01*
X111714759Y-57115363D01*
X111479727Y-56958320D01*
X111218574Y-56850147D01*
X110941335Y-56795000D01*
X110658665Y-56795000D01*
X110381426Y-56850147D01*
X110120273Y-56958320D01*
X109885241Y-57115363D01*
X109685363Y-57315241D01*
X109528320Y-57550273D01*
X109420147Y-57811426D01*
X109365000Y-58088665D01*
X52127000Y-58088665D01*
X52127000Y-56007298D01*
X156766902Y-56007298D01*
X157579999Y-56820395D01*
X158393096Y-56007298D01*
X158321513Y-55763329D01*
X158066003Y-55642429D01*
X157791815Y-55573700D01*
X157509487Y-55559783D01*
X157229869Y-55601213D01*
X156963707Y-55696397D01*
X156838485Y-55763329D01*
X156766902Y-56007298D01*
X52127000Y-56007298D01*
X52127000Y-55127000D01*
X229873000Y-55127000D01*
X229873000Y-86873000D01*
G04 #@! TA.AperFunction,Conductor*
D20*
G36*
X229873000Y-86873000D02*
G01*
X52127000Y-86873000D01*
X52127000Y-84800000D01*
X156141927Y-84800000D01*
X156154187Y-84924482D01*
X156190497Y-85044180D01*
X156249462Y-85154494D01*
X156328814Y-85251185D01*
X156425505Y-85330537D01*
X156535819Y-85389502D01*
X156655517Y-85425812D01*
X156779999Y-85438072D01*
X157294249Y-85435000D01*
X157452999Y-85276250D01*
X157452999Y-84127000D01*
X157706999Y-84127000D01*
X157706999Y-85276250D01*
X157865749Y-85435000D01*
X158379999Y-85438072D01*
X158504481Y-85425812D01*
X158624179Y-85389502D01*
X158734493Y-85330537D01*
X158831184Y-85251185D01*
X158910536Y-85154494D01*
X158969501Y-85044180D01*
X159005811Y-84924482D01*
X159018071Y-84800000D01*
X159014999Y-84285750D01*
X158856249Y-84127000D01*
X157706999Y-84127000D01*
X157452999Y-84127000D01*
X156303749Y-84127000D01*
X156144999Y-84285750D01*
X156141927Y-84800000D01*
X52127000Y-84800000D01*
X52127000Y-83992702D01*
X109986903Y-83992702D01*
X110058486Y-84236671D01*
X110313996Y-84357571D01*
X110588184Y-84426300D01*
X110870512Y-84440217D01*
X111150130Y-84398787D01*
X111416292Y-84303603D01*
X111541514Y-84236671D01*
X111613097Y-83992702D01*
X110800000Y-83179605D01*
X109986903Y-83992702D01*
X52127000Y-83992702D01*
X52127000Y-83070512D01*
X109359783Y-83070512D01*
X109401213Y-83350130D01*
X109496397Y-83616292D01*
X109563329Y-83741514D01*
X109807298Y-83813097D01*
X110620395Y-83000000D01*
X110979605Y-83000000D01*
X111792702Y-83813097D01*
X112036671Y-83741514D01*
X112157571Y-83486004D01*
X112226300Y-83211816D01*
X112240217Y-82929488D01*
X112229724Y-82858665D01*
X122065000Y-82858665D01*
X122065000Y-83141335D01*
X122120147Y-83418574D01*
X122228320Y-83679727D01*
X122385363Y-83914759D01*
X122585241Y-84114637D01*
X122820273Y-84271680D01*
X123081426Y-84379853D01*
X123358665Y-84435000D01*
X123641335Y-84435000D01*
X123918574Y-84379853D01*
X124179727Y-84271680D01*
X124414759Y-84114637D01*
X124614637Y-83914759D01*
X124771680Y-83679727D01*
X124879853Y-83418574D01*
X124935000Y-83141335D01*
X124935000Y-82858665D01*
X124933041Y-82848816D01*
X126995000Y-82848816D01*
X126995000Y-83151184D01*
X127053989Y-83447743D01*
X127169701Y-83727095D01*
X127337688Y-83978505D01*
X127551495Y-84192312D01*
X127802905Y-84360299D01*
X128082257Y-84476011D01*
X128378816Y-84535000D01*
X128681184Y-84535000D01*
X128977743Y-84476011D01*
X129257095Y-84360299D01*
X129508505Y-84192312D01*
X129574944Y-84125873D01*
X129580498Y-84144180D01*
X129639463Y-84254494D01*
X129718815Y-84351185D01*
X129815506Y-84430537D01*
X129925820Y-84489502D01*
X130045518Y-84525812D01*
X130170000Y-84538072D01*
X131970000Y-84538072D01*
X132094482Y-84525812D01*
X132214180Y-84489502D01*
X132324494Y-84430537D01*
X132421185Y-84351185D01*
X132500537Y-84254494D01*
X132559502Y-84144180D01*
X132595812Y-84024482D01*
X132608072Y-83900000D01*
X132608072Y-83200000D01*
X156141927Y-83200000D01*
X156144999Y-83714250D01*
X156303749Y-83873000D01*
X157452999Y-83873000D01*
X157452999Y-83853000D01*
X157706999Y-83853000D01*
X157706999Y-83873000D01*
X158856249Y-83873000D01*
X159014999Y-83714250D01*
X159018071Y-83200000D01*
X159005811Y-83075518D01*
X158969501Y-82955820D01*
X158910536Y-82845506D01*
X158831184Y-82748815D01*
X158814606Y-82735210D01*
X158851679Y-82679727D01*
X158959852Y-82418574D01*
X159014999Y-82141335D01*
X159014999Y-81858665D01*
X158959852Y-81581426D01*
X158851679Y-81320273D01*
X158694636Y-81085241D01*
X158494758Y-80885363D01*
X158259726Y-80728320D01*
X157998573Y-80620147D01*
X157721334Y-80565000D01*
X157438664Y-80565000D01*
X157161425Y-80620147D01*
X156900272Y-80728320D01*
X156665240Y-80885363D01*
X156465362Y-81085241D01*
X156308319Y-81320273D01*
X156200146Y-81581426D01*
X156144999Y-81858665D01*
X156144999Y-82141335D01*
X156200146Y-82418574D01*
X156308319Y-82679727D01*
X156345392Y-82735210D01*
X156328814Y-82748815D01*
X156249462Y-82845506D01*
X156190497Y-82955820D01*
X156154187Y-83075518D01*
X156141927Y-83200000D01*
X132608072Y-83200000D01*
X132608072Y-82100000D01*
X132595812Y-81975518D01*
X132559502Y-81855820D01*
X132500537Y-81745506D01*
X132421185Y-81648815D01*
X132324494Y-81569463D01*
X132214180Y-81510498D01*
X132094482Y-81474188D01*
X131970000Y-81461928D01*
X130170000Y-81461928D01*
X130045518Y-81474188D01*
X129925820Y-81510498D01*
X129815506Y-81569463D01*
X129718815Y-81648815D01*
X129639463Y-81745506D01*
X129580498Y-81855820D01*
X129574944Y-81874127D01*
X129508505Y-81807688D01*
X129257095Y-81639701D01*
X128977743Y-81523989D01*
X128681184Y-81465000D01*
X128378816Y-81465000D01*
X128082257Y-81523989D01*
X127802905Y-81639701D01*
X127551495Y-81807688D01*
X127337688Y-82021495D01*
X127169701Y-82272905D01*
X127053989Y-82552257D01*
X126995000Y-82848816D01*
X124933041Y-82848816D01*
X124879853Y-82581426D01*
X124771680Y-82320273D01*
X124614637Y-82085241D01*
X124414759Y-81885363D01*
X124179727Y-81728320D01*
X123918574Y-81620147D01*
X123641335Y-81565000D01*
X123358665Y-81565000D01*
X123081426Y-81620147D01*
X122820273Y-81728320D01*
X122585241Y-81885363D01*
X122385363Y-82085241D01*
X122228320Y-82320273D01*
X122120147Y-82581426D01*
X122065000Y-82858665D01*
X112229724Y-82858665D01*
X112198787Y-82649870D01*
X112103603Y-82383708D01*
X112036671Y-82258486D01*
X111792702Y-82186903D01*
X110979605Y-83000000D01*
X110620395Y-83000000D01*
X109807298Y-82186903D01*
X109563329Y-82258486D01*
X109442429Y-82513996D01*
X109373700Y-82788184D01*
X109359783Y-83070512D01*
X52127000Y-83070512D01*
X52127000Y-82007298D01*
X109986903Y-82007298D01*
X110800000Y-82820395D01*
X111613097Y-82007298D01*
X111541514Y-81763329D01*
X111286004Y-81642429D01*
X111011816Y-81573700D01*
X110729488Y-81559783D01*
X110449870Y-81601213D01*
X110183708Y-81696397D01*
X110058486Y-81763329D01*
X109986903Y-82007298D01*
X52127000Y-82007298D01*
X52127000Y-78838967D01*
X53365000Y-78838967D01*
X53365000Y-79161033D01*
X53427832Y-79476912D01*
X53551082Y-79774463D01*
X53730013Y-80042252D01*
X53957748Y-80269987D01*
X54225537Y-80448918D01*
X54523088Y-80572168D01*
X54838967Y-80635000D01*
X55161033Y-80635000D01*
X55476912Y-80572168D01*
X55774463Y-80448918D01*
X56042252Y-80269987D01*
X56269987Y-80042252D01*
X56448918Y-79774463D01*
X56572168Y-79476912D01*
X56635000Y-79161033D01*
X56635000Y-78838967D01*
X56572168Y-78523088D01*
X56448918Y-78225537D01*
X56269987Y-77957748D01*
X56042252Y-77730013D01*
X55774463Y-77551082D01*
X55476912Y-77427832D01*
X55161033Y-77365000D01*
X54838967Y-77365000D01*
X54523088Y-77427832D01*
X54225537Y-77551082D01*
X53957748Y-77730013D01*
X53730013Y-77957748D01*
X53551082Y-78225537D01*
X53427832Y-78523088D01*
X53365000Y-78838967D01*
X52127000Y-78838967D01*
X52127000Y-75853740D01*
X59975000Y-75853740D01*
X59975000Y-76146260D01*
X60032068Y-76433158D01*
X60144010Y-76703411D01*
X60306525Y-76946632D01*
X60513368Y-77153475D01*
X60756589Y-77315990D01*
X61026842Y-77427932D01*
X61313740Y-77485000D01*
X61606260Y-77485000D01*
X61893158Y-77427932D01*
X62163411Y-77315990D01*
X62406632Y-77153475D01*
X62538487Y-77021620D01*
X62560498Y-77094180D01*
X62619463Y-77204494D01*
X62698815Y-77301185D01*
X62795506Y-77380537D01*
X62905820Y-77439502D01*
X63025518Y-77475812D01*
X63150000Y-77488072D01*
X64850000Y-77488072D01*
X64974482Y-77475812D01*
X65094180Y-77439502D01*
X65204494Y-77380537D01*
X65301185Y-77301185D01*
X65380537Y-77204494D01*
X65439502Y-77094180D01*
X65475812Y-76974482D01*
X65488072Y-76850000D01*
X65488072Y-75853740D01*
X88685000Y-75853740D01*
X88685000Y-76146260D01*
X88742068Y-76433158D01*
X88854010Y-76703411D01*
X89016525Y-76946632D01*
X89223368Y-77153475D01*
X89466589Y-77315990D01*
X89736842Y-77427932D01*
X90023740Y-77485000D01*
X90316260Y-77485000D01*
X90603158Y-77427932D01*
X90873411Y-77315990D01*
X91116632Y-77153475D01*
X91248487Y-77021620D01*
X91270498Y-77094180D01*
X91329463Y-77204494D01*
X91408815Y-77301185D01*
X91505506Y-77380537D01*
X91615820Y-77439502D01*
X91735518Y-77475812D01*
X91860000Y-77488072D01*
X93560000Y-77488072D01*
X93684482Y-77475812D01*
X93804180Y-77439502D01*
X93914494Y-77380537D01*
X94011185Y-77301185D01*
X94090537Y-77204494D01*
X94149502Y-77094180D01*
X94185812Y-76974482D01*
X94198072Y-76850000D01*
X94198072Y-75853740D01*
X110733333Y-75853740D01*
X110733333Y-76146260D01*
X110790401Y-76433158D01*
X110902343Y-76703411D01*
X111064858Y-76946632D01*
X111271701Y-77153475D01*
X111514922Y-77315990D01*
X111785175Y-77427932D01*
X112072073Y-77485000D01*
X112364593Y-77485000D01*
X112651491Y-77427932D01*
X112921744Y-77315990D01*
X113164965Y-77153475D01*
X113296820Y-77021620D01*
X113318831Y-77094180D01*
X113377796Y-77204494D01*
X113457148Y-77301185D01*
X113553839Y-77380537D01*
X113664153Y-77439502D01*
X113783851Y-77475812D01*
X113908333Y-77488072D01*
X115608333Y-77488072D01*
X115732815Y-77475812D01*
X115852513Y-77439502D01*
X115962827Y-77380537D01*
X116059518Y-77301185D01*
X116138870Y-77204494D01*
X116197835Y-77094180D01*
X116234145Y-76974482D01*
X116246405Y-76850000D01*
X116246405Y-75853740D01*
X132781666Y-75853740D01*
X132781666Y-76146260D01*
X132838734Y-76433158D01*
X132950676Y-76703411D01*
X133113191Y-76946632D01*
X133320034Y-77153475D01*
X133563255Y-77315990D01*
X133833508Y-77427932D01*
X134120406Y-77485000D01*
X134412926Y-77485000D01*
X134699824Y-77427932D01*
X134970077Y-77315990D01*
X135213298Y-77153475D01*
X135345153Y-77021620D01*
X135367164Y-77094180D01*
X135426129Y-77204494D01*
X135505481Y-77301185D01*
X135602172Y-77380537D01*
X135712486Y-77439502D01*
X135832184Y-77475812D01*
X135956666Y-77488072D01*
X137656666Y-77488072D01*
X137781148Y-77475812D01*
X137900846Y-77439502D01*
X138011160Y-77380537D01*
X138107851Y-77301185D01*
X138187203Y-77204494D01*
X138246168Y-77094180D01*
X138282478Y-76974482D01*
X138294738Y-76850000D01*
X138294738Y-75853740D01*
X154829999Y-75853740D01*
X154829999Y-76146260D01*
X154887067Y-76433158D01*
X154999009Y-76703411D01*
X155161524Y-76946632D01*
X155368367Y-77153475D01*
X155611588Y-77315990D01*
X155881841Y-77427932D01*
X156168739Y-77485000D01*
X156461259Y-77485000D01*
X156748157Y-77427932D01*
X157018410Y-77315990D01*
X157261631Y-77153475D01*
X157393486Y-77021620D01*
X157415497Y-77094180D01*
X157474462Y-77204494D01*
X157553814Y-77301185D01*
X157650505Y-77380537D01*
X157760819Y-77439502D01*
X157880517Y-77475812D01*
X158004999Y-77488072D01*
X159704999Y-77488072D01*
X159829481Y-77475812D01*
X159949179Y-77439502D01*
X160059493Y-77380537D01*
X160156184Y-77301185D01*
X160235536Y-77204494D01*
X160294501Y-77094180D01*
X160330811Y-76974482D01*
X160343071Y-76850000D01*
X160343071Y-75853740D01*
X176878332Y-75853740D01*
X176878332Y-76146260D01*
X176935400Y-76433158D01*
X177047342Y-76703411D01*
X177209857Y-76946632D01*
X177416700Y-77153475D01*
X177659921Y-77315990D01*
X177930174Y-77427932D01*
X178217072Y-77485000D01*
X178509592Y-77485000D01*
X178796490Y-77427932D01*
X179066743Y-77315990D01*
X179309964Y-77153475D01*
X179441819Y-77021620D01*
X179463830Y-77094180D01*
X179522795Y-77204494D01*
X179602147Y-77301185D01*
X179698838Y-77380537D01*
X179809152Y-77439502D01*
X179928850Y-77475812D01*
X180053332Y-77488072D01*
X181753332Y-77488072D01*
X181877814Y-77475812D01*
X181997512Y-77439502D01*
X182107826Y-77380537D01*
X182204517Y-77301185D01*
X182283869Y-77204494D01*
X182342834Y-77094180D01*
X182379144Y-76974482D01*
X182391404Y-76850000D01*
X182391404Y-75853740D01*
X198926665Y-75853740D01*
X198926665Y-76146260D01*
X198983733Y-76433158D01*
X199095675Y-76703411D01*
X199258190Y-76946632D01*
X199465033Y-77153475D01*
X199708254Y-77315990D01*
X199978507Y-77427932D01*
X200265405Y-77485000D01*
X200557925Y-77485000D01*
X200844823Y-77427932D01*
X201115076Y-77315990D01*
X201358297Y-77153475D01*
X201490152Y-77021620D01*
X201512163Y-77094180D01*
X201571128Y-77204494D01*
X201650480Y-77301185D01*
X201747171Y-77380537D01*
X201857485Y-77439502D01*
X201977183Y-77475812D01*
X202101665Y-77488072D01*
X203801665Y-77488072D01*
X203926147Y-77475812D01*
X204045845Y-77439502D01*
X204156159Y-77380537D01*
X204252850Y-77301185D01*
X204332202Y-77204494D01*
X204391167Y-77094180D01*
X204427477Y-76974482D01*
X204439737Y-76850000D01*
X204439737Y-75853740D01*
X220975000Y-75853740D01*
X220975000Y-76146260D01*
X221032068Y-76433158D01*
X221144010Y-76703411D01*
X221306525Y-76946632D01*
X221513368Y-77153475D01*
X221756589Y-77315990D01*
X222026842Y-77427932D01*
X222313740Y-77485000D01*
X222606260Y-77485000D01*
X222893158Y-77427932D01*
X223163411Y-77315990D01*
X223406632Y-77153475D01*
X223538487Y-77021620D01*
X223560498Y-77094180D01*
X223619463Y-77204494D01*
X223698815Y-77301185D01*
X223795506Y-77380537D01*
X223905820Y-77439502D01*
X224025518Y-77475812D01*
X224150000Y-77488072D01*
X225850000Y-77488072D01*
X225974482Y-77475812D01*
X226094180Y-77439502D01*
X226204494Y-77380537D01*
X226301185Y-77301185D01*
X226380537Y-77204494D01*
X226439502Y-77094180D01*
X226475812Y-76974482D01*
X226488072Y-76850000D01*
X226488072Y-75150000D01*
X226475812Y-75025518D01*
X226439502Y-74905820D01*
X226380537Y-74795506D01*
X226301185Y-74698815D01*
X226204494Y-74619463D01*
X226094180Y-74560498D01*
X226013534Y-74536034D01*
X226097588Y-74460269D01*
X226271641Y-74226920D01*
X226396825Y-73964099D01*
X226441476Y-73816890D01*
X226320155Y-73587000D01*
X225127000Y-73587000D01*
X225127000Y-73607000D01*
X224873000Y-73607000D01*
X224873000Y-73587000D01*
X222587000Y-73587000D01*
X222587000Y-73607000D01*
X222333000Y-73607000D01*
X222333000Y-73587000D01*
X221139845Y-73587000D01*
X221018524Y-73816890D01*
X221063175Y-73964099D01*
X221188359Y-74226920D01*
X221362412Y-74460269D01*
X221578645Y-74655178D01*
X221695534Y-74724805D01*
X221513368Y-74846525D01*
X221306525Y-75053368D01*
X221144010Y-75296589D01*
X221032068Y-75566842D01*
X220975000Y-75853740D01*
X204439737Y-75853740D01*
X204439737Y-75150000D01*
X204427477Y-75025518D01*
X204391167Y-74905820D01*
X204332202Y-74795506D01*
X204252850Y-74698815D01*
X204156159Y-74619463D01*
X204045845Y-74560498D01*
X203965199Y-74536034D01*
X204049253Y-74460269D01*
X204223306Y-74226920D01*
X204348490Y-73964099D01*
X204393141Y-73816890D01*
X204271820Y-73587000D01*
X203078665Y-73587000D01*
X203078665Y-73607000D01*
X202824665Y-73607000D01*
X202824665Y-73587000D01*
X200538665Y-73587000D01*
X200538665Y-73607000D01*
X200284665Y-73607000D01*
X200284665Y-73587000D01*
X199091510Y-73587000D01*
X198970189Y-73816890D01*
X199014840Y-73964099D01*
X199140024Y-74226920D01*
X199314077Y-74460269D01*
X199530310Y-74655178D01*
X199647199Y-74724805D01*
X199465033Y-74846525D01*
X199258190Y-75053368D01*
X199095675Y-75296589D01*
X198983733Y-75566842D01*
X198926665Y-75853740D01*
X182391404Y-75853740D01*
X182391404Y-75150000D01*
X182379144Y-75025518D01*
X182342834Y-74905820D01*
X182283869Y-74795506D01*
X182204517Y-74698815D01*
X182107826Y-74619463D01*
X181997512Y-74560498D01*
X181916866Y-74536034D01*
X182000920Y-74460269D01*
X182174973Y-74226920D01*
X182300157Y-73964099D01*
X182344808Y-73816890D01*
X182223487Y-73587000D01*
X181030332Y-73587000D01*
X181030332Y-73607000D01*
X180776332Y-73607000D01*
X180776332Y-73587000D01*
X178490332Y-73587000D01*
X178490332Y-73607000D01*
X178236332Y-73607000D01*
X178236332Y-73587000D01*
X177043177Y-73587000D01*
X176921856Y-73816890D01*
X176966507Y-73964099D01*
X177091691Y-74226920D01*
X177265744Y-74460269D01*
X177481977Y-74655178D01*
X177598866Y-74724805D01*
X177416700Y-74846525D01*
X177209857Y-75053368D01*
X177047342Y-75296589D01*
X176935400Y-75566842D01*
X176878332Y-75853740D01*
X160343071Y-75853740D01*
X160343071Y-75150000D01*
X160330811Y-75025518D01*
X160294501Y-74905820D01*
X160235536Y-74795506D01*
X160156184Y-74698815D01*
X160059493Y-74619463D01*
X159949179Y-74560498D01*
X159868533Y-74536034D01*
X159952587Y-74460269D01*
X160126640Y-74226920D01*
X160251824Y-73964099D01*
X160296475Y-73816890D01*
X160175154Y-73587000D01*
X158981999Y-73587000D01*
X158981999Y-73607000D01*
X158727999Y-73607000D01*
X158727999Y-73587000D01*
X156441999Y-73587000D01*
X156441999Y-73607000D01*
X156187999Y-73607000D01*
X156187999Y-73587000D01*
X154994844Y-73587000D01*
X154873523Y-73816890D01*
X154918174Y-73964099D01*
X155043358Y-74226920D01*
X155217411Y-74460269D01*
X155433644Y-74655178D01*
X155550533Y-74724805D01*
X155368367Y-74846525D01*
X155161524Y-75053368D01*
X154999009Y-75296589D01*
X154887067Y-75566842D01*
X154829999Y-75853740D01*
X138294738Y-75853740D01*
X138294738Y-75150000D01*
X138282478Y-75025518D01*
X138246168Y-74905820D01*
X138187203Y-74795506D01*
X138107851Y-74698815D01*
X138011160Y-74619463D01*
X137900846Y-74560498D01*
X137820200Y-74536034D01*
X137904254Y-74460269D01*
X138078307Y-74226920D01*
X138203491Y-73964099D01*
X138248142Y-73816890D01*
X138126821Y-73587000D01*
X136933666Y-73587000D01*
X136933666Y-73607000D01*
X136679666Y-73607000D01*
X136679666Y-73587000D01*
X134393666Y-73587000D01*
X134393666Y-73607000D01*
X134139666Y-73607000D01*
X134139666Y-73587000D01*
X132946511Y-73587000D01*
X132825190Y-73816890D01*
X132869841Y-73964099D01*
X132995025Y-74226920D01*
X133169078Y-74460269D01*
X133385311Y-74655178D01*
X133502200Y-74724805D01*
X133320034Y-74846525D01*
X133113191Y-75053368D01*
X132950676Y-75296589D01*
X132838734Y-75566842D01*
X132781666Y-75853740D01*
X116246405Y-75853740D01*
X116246405Y-75150000D01*
X116234145Y-75025518D01*
X116197835Y-74905820D01*
X116138870Y-74795506D01*
X116059518Y-74698815D01*
X115962827Y-74619463D01*
X115852513Y-74560498D01*
X115771867Y-74536034D01*
X115855921Y-74460269D01*
X116029974Y-74226920D01*
X116155158Y-73964099D01*
X116199809Y-73816890D01*
X116078488Y-73587000D01*
X114885333Y-73587000D01*
X114885333Y-73607000D01*
X114631333Y-73607000D01*
X114631333Y-73587000D01*
X112345333Y-73587000D01*
X112345333Y-73607000D01*
X112091333Y-73607000D01*
X112091333Y-73587000D01*
X110898178Y-73587000D01*
X110776857Y-73816890D01*
X110821508Y-73964099D01*
X110946692Y-74226920D01*
X111120745Y-74460269D01*
X111336978Y-74655178D01*
X111453867Y-74724805D01*
X111271701Y-74846525D01*
X111064858Y-75053368D01*
X110902343Y-75296589D01*
X110790401Y-75566842D01*
X110733333Y-75853740D01*
X94198072Y-75853740D01*
X94198072Y-75150000D01*
X94185812Y-75025518D01*
X94149502Y-74905820D01*
X94090537Y-74795506D01*
X94011185Y-74698815D01*
X93914494Y-74619463D01*
X93804180Y-74560498D01*
X93723534Y-74536034D01*
X93807588Y-74460269D01*
X93981641Y-74226920D01*
X94106825Y-73964099D01*
X94151476Y-73816890D01*
X94030155Y-73587000D01*
X92837000Y-73587000D01*
X92837000Y-73607000D01*
X92583000Y-73607000D01*
X92583000Y-73587000D01*
X90297000Y-73587000D01*
X90297000Y-73607000D01*
X90043000Y-73607000D01*
X90043000Y-73587000D01*
X88849845Y-73587000D01*
X88728524Y-73816890D01*
X88773175Y-73964099D01*
X88898359Y-74226920D01*
X89072412Y-74460269D01*
X89288645Y-74655178D01*
X89405534Y-74724805D01*
X89223368Y-74846525D01*
X89016525Y-75053368D01*
X88854010Y-75296589D01*
X88742068Y-75566842D01*
X88685000Y-75853740D01*
X65488072Y-75853740D01*
X65488072Y-75150000D01*
X65475812Y-75025518D01*
X65439502Y-74905820D01*
X65380537Y-74795506D01*
X65301185Y-74698815D01*
X65204494Y-74619463D01*
X65094180Y-74560498D01*
X65013534Y-74536034D01*
X65097588Y-74460269D01*
X65271641Y-74226920D01*
X65396825Y-73964099D01*
X65441476Y-73816890D01*
X65320155Y-73587000D01*
X64127000Y-73587000D01*
X64127000Y-73607000D01*
X63873000Y-73607000D01*
X63873000Y-73587000D01*
X61587000Y-73587000D01*
X61587000Y-73607000D01*
X61333000Y-73607000D01*
X61333000Y-73587000D01*
X60139845Y-73587000D01*
X60018524Y-73816890D01*
X60063175Y-73964099D01*
X60188359Y-74226920D01*
X60362412Y-74460269D01*
X60578645Y-74655178D01*
X60695534Y-74724805D01*
X60513368Y-74846525D01*
X60306525Y-75053368D01*
X60144010Y-75296589D01*
X60032068Y-75566842D01*
X59975000Y-75853740D01*
X52127000Y-75853740D01*
X52127000Y-72060413D01*
X54044192Y-72060413D01*
X54139956Y-72324814D01*
X54429571Y-72465704D01*
X54741108Y-72547384D01*
X55062595Y-72566718D01*
X55381675Y-72522961D01*
X55686088Y-72417795D01*
X55860044Y-72324814D01*
X55955808Y-72060413D01*
X55000000Y-71104605D01*
X54044192Y-72060413D01*
X52127000Y-72060413D01*
X52127000Y-70987595D01*
X53358282Y-70987595D01*
X53402039Y-71306675D01*
X53507205Y-71611088D01*
X53600186Y-71785044D01*
X53864587Y-71880808D01*
X54820395Y-70925000D01*
X55179605Y-70925000D01*
X56135413Y-71880808D01*
X56399814Y-71785044D01*
X56540704Y-71495429D01*
X56598001Y-71276890D01*
X60018524Y-71276890D01*
X60063175Y-71424099D01*
X60188359Y-71686920D01*
X60362412Y-71920269D01*
X60578645Y-72115178D01*
X60704255Y-72190000D01*
X60578645Y-72264822D01*
X60362412Y-72459731D01*
X60188359Y-72693080D01*
X60063175Y-72955901D01*
X60018524Y-73103110D01*
X60139845Y-73333000D01*
X61333000Y-73333000D01*
X61333000Y-71047000D01*
X61587000Y-71047000D01*
X61587000Y-73333000D01*
X63873000Y-73333000D01*
X63873000Y-71047000D01*
X64127000Y-71047000D01*
X64127000Y-73333000D01*
X65320155Y-73333000D01*
X65441476Y-73103110D01*
X65396825Y-72955901D01*
X65271641Y-72693080D01*
X65097588Y-72459731D01*
X64881355Y-72264822D01*
X64755745Y-72190000D01*
X64881355Y-72115178D01*
X65097588Y-71920269D01*
X65271641Y-71686920D01*
X65396825Y-71424099D01*
X65441476Y-71276890D01*
X88728524Y-71276890D01*
X88773175Y-71424099D01*
X88898359Y-71686920D01*
X89072412Y-71920269D01*
X89288645Y-72115178D01*
X89414255Y-72190000D01*
X89288645Y-72264822D01*
X89072412Y-72459731D01*
X88898359Y-72693080D01*
X88773175Y-72955901D01*
X88728524Y-73103110D01*
X88849845Y-73333000D01*
X90043000Y-73333000D01*
X90043000Y-71047000D01*
X90297000Y-71047000D01*
X90297000Y-73333000D01*
X92583000Y-73333000D01*
X92583000Y-71047000D01*
X92837000Y-71047000D01*
X92837000Y-73333000D01*
X94030155Y-73333000D01*
X94151476Y-73103110D01*
X94106825Y-72955901D01*
X93981641Y-72693080D01*
X93807588Y-72459731D01*
X93591355Y-72264822D01*
X93465745Y-72190000D01*
X93591355Y-72115178D01*
X93807588Y-71920269D01*
X93981641Y-71686920D01*
X94106825Y-71424099D01*
X94151476Y-71276890D01*
X110776857Y-71276890D01*
X110821508Y-71424099D01*
X110946692Y-71686920D01*
X111120745Y-71920269D01*
X111336978Y-72115178D01*
X111462588Y-72190000D01*
X111336978Y-72264822D01*
X111120745Y-72459731D01*
X110946692Y-72693080D01*
X110821508Y-72955901D01*
X110776857Y-73103110D01*
X110898178Y-73333000D01*
X112091333Y-73333000D01*
X112091333Y-71047000D01*
X112345333Y-71047000D01*
X112345333Y-73333000D01*
X114631333Y-73333000D01*
X114631333Y-71047000D01*
X114885333Y-71047000D01*
X114885333Y-73333000D01*
X116078488Y-73333000D01*
X116199809Y-73103110D01*
X116155158Y-72955901D01*
X116029974Y-72693080D01*
X115855921Y-72459731D01*
X115639688Y-72264822D01*
X115514078Y-72190000D01*
X115639688Y-72115178D01*
X115855921Y-71920269D01*
X116029974Y-71686920D01*
X116155158Y-71424099D01*
X116199809Y-71276890D01*
X132825190Y-71276890D01*
X132869841Y-71424099D01*
X132995025Y-71686920D01*
X133169078Y-71920269D01*
X133385311Y-72115178D01*
X133510921Y-72190000D01*
X133385311Y-72264822D01*
X133169078Y-72459731D01*
X132995025Y-72693080D01*
X132869841Y-72955901D01*
X132825190Y-73103110D01*
X132946511Y-73333000D01*
X134139666Y-73333000D01*
X134139666Y-71047000D01*
X134393666Y-71047000D01*
X134393666Y-73333000D01*
X136679666Y-73333000D01*
X136679666Y-71047000D01*
X136933666Y-71047000D01*
X136933666Y-73333000D01*
X138126821Y-73333000D01*
X138248142Y-73103110D01*
X138203491Y-72955901D01*
X138078307Y-72693080D01*
X137904254Y-72459731D01*
X137688021Y-72264822D01*
X137562411Y-72190000D01*
X137688021Y-72115178D01*
X137904254Y-71920269D01*
X138078307Y-71686920D01*
X138203491Y-71424099D01*
X138248142Y-71276890D01*
X154873523Y-71276890D01*
X154918174Y-71424099D01*
X155043358Y-71686920D01*
X155217411Y-71920269D01*
X155433644Y-72115178D01*
X155559254Y-72190000D01*
X155433644Y-72264822D01*
X155217411Y-72459731D01*
X155043358Y-72693080D01*
X154918174Y-72955901D01*
X154873523Y-73103110D01*
X154994844Y-73333000D01*
X156187999Y-73333000D01*
X156187999Y-71047000D01*
X156441999Y-71047000D01*
X156441999Y-73333000D01*
X158727999Y-73333000D01*
X158727999Y-71047000D01*
X158981999Y-71047000D01*
X158981999Y-73333000D01*
X160175154Y-73333000D01*
X160296475Y-73103110D01*
X160251824Y-72955901D01*
X160126640Y-72693080D01*
X159952587Y-72459731D01*
X159736354Y-72264822D01*
X159610744Y-72190000D01*
X159736354Y-72115178D01*
X159952587Y-71920269D01*
X160126640Y-71686920D01*
X160251824Y-71424099D01*
X160296475Y-71276890D01*
X176921856Y-71276890D01*
X176966507Y-71424099D01*
X177091691Y-71686920D01*
X177265744Y-71920269D01*
X177481977Y-72115178D01*
X177607587Y-72190000D01*
X177481977Y-72264822D01*
X177265744Y-72459731D01*
X177091691Y-72693080D01*
X176966507Y-72955901D01*
X176921856Y-73103110D01*
X177043177Y-73333000D01*
X178236332Y-73333000D01*
X178236332Y-71047000D01*
X178490332Y-71047000D01*
X178490332Y-73333000D01*
X180776332Y-73333000D01*
X180776332Y-71047000D01*
X181030332Y-71047000D01*
X181030332Y-73333000D01*
X182223487Y-73333000D01*
X182344808Y-73103110D01*
X182300157Y-72955901D01*
X182174973Y-72693080D01*
X182000920Y-72459731D01*
X181784687Y-72264822D01*
X181659077Y-72190000D01*
X181784687Y-72115178D01*
X182000920Y-71920269D01*
X182174973Y-71686920D01*
X182300157Y-71424099D01*
X182344808Y-71276890D01*
X198970189Y-71276890D01*
X199014840Y-71424099D01*
X199140024Y-71686920D01*
X199314077Y-71920269D01*
X199530310Y-72115178D01*
X199655920Y-72190000D01*
X199530310Y-72264822D01*
X199314077Y-72459731D01*
X199140024Y-72693080D01*
X199014840Y-72955901D01*
X198970189Y-73103110D01*
X199091510Y-73333000D01*
X200284665Y-73333000D01*
X200284665Y-71047000D01*
X200538665Y-71047000D01*
X200538665Y-73333000D01*
X202824665Y-73333000D01*
X202824665Y-71047000D01*
X203078665Y-71047000D01*
X203078665Y-73333000D01*
X204271820Y-73333000D01*
X204393141Y-73103110D01*
X204348490Y-72955901D01*
X204223306Y-72693080D01*
X204049253Y-72459731D01*
X203833020Y-72264822D01*
X203707410Y-72190000D01*
X203833020Y-72115178D01*
X204049253Y-71920269D01*
X204223306Y-71686920D01*
X204348490Y-71424099D01*
X204393141Y-71276890D01*
X221018524Y-71276890D01*
X221063175Y-71424099D01*
X221188359Y-71686920D01*
X221362412Y-71920269D01*
X221578645Y-72115178D01*
X221704255Y-72190000D01*
X221578645Y-72264822D01*
X221362412Y-72459731D01*
X221188359Y-72693080D01*
X221063175Y-72955901D01*
X221018524Y-73103110D01*
X221139845Y-73333000D01*
X222333000Y-73333000D01*
X222333000Y-71047000D01*
X222587000Y-71047000D01*
X222587000Y-73333000D01*
X224873000Y-73333000D01*
X224873000Y-71047000D01*
X225127000Y-71047000D01*
X225127000Y-73333000D01*
X226320155Y-73333000D01*
X226441476Y-73103110D01*
X226396825Y-72955901D01*
X226271641Y-72693080D01*
X226097588Y-72459731D01*
X225881355Y-72264822D01*
X225755745Y-72190000D01*
X225881355Y-72115178D01*
X226097588Y-71920269D01*
X226271641Y-71686920D01*
X226396825Y-71424099D01*
X226441476Y-71276890D01*
X226320155Y-71047000D01*
X225127000Y-71047000D01*
X224873000Y-71047000D01*
X222587000Y-71047000D01*
X222333000Y-71047000D01*
X221139845Y-71047000D01*
X221018524Y-71276890D01*
X204393141Y-71276890D01*
X204271820Y-71047000D01*
X203078665Y-71047000D01*
X202824665Y-71047000D01*
X200538665Y-71047000D01*
X200284665Y-71047000D01*
X199091510Y-71047000D01*
X198970189Y-71276890D01*
X182344808Y-71276890D01*
X182223487Y-71047000D01*
X181030332Y-71047000D01*
X180776332Y-71047000D01*
X178490332Y-71047000D01*
X178236332Y-71047000D01*
X177043177Y-71047000D01*
X176921856Y-71276890D01*
X160296475Y-71276890D01*
X160175154Y-71047000D01*
X158981999Y-71047000D01*
X158727999Y-71047000D01*
X156441999Y-71047000D01*
X156187999Y-71047000D01*
X154994844Y-71047000D01*
X154873523Y-71276890D01*
X138248142Y-71276890D01*
X138126821Y-71047000D01*
X136933666Y-71047000D01*
X136679666Y-71047000D01*
X134393666Y-71047000D01*
X134139666Y-71047000D01*
X132946511Y-71047000D01*
X132825190Y-71276890D01*
X116199809Y-71276890D01*
X116078488Y-71047000D01*
X114885333Y-71047000D01*
X114631333Y-71047000D01*
X112345333Y-71047000D01*
X112091333Y-71047000D01*
X110898178Y-71047000D01*
X110776857Y-71276890D01*
X94151476Y-71276890D01*
X94030155Y-71047000D01*
X92837000Y-71047000D01*
X92583000Y-71047000D01*
X90297000Y-71047000D01*
X90043000Y-71047000D01*
X88849845Y-71047000D01*
X88728524Y-71276890D01*
X65441476Y-71276890D01*
X65320155Y-71047000D01*
X64127000Y-71047000D01*
X63873000Y-71047000D01*
X61587000Y-71047000D01*
X61333000Y-71047000D01*
X60139845Y-71047000D01*
X60018524Y-71276890D01*
X56598001Y-71276890D01*
X56622384Y-71183892D01*
X56641718Y-70862405D01*
X56597961Y-70543325D01*
X56492795Y-70238912D01*
X56399814Y-70064956D01*
X56135413Y-69969192D01*
X55179605Y-70925000D01*
X54820395Y-70925000D01*
X53864587Y-69969192D01*
X53600186Y-70064956D01*
X53459296Y-70354571D01*
X53377616Y-70666108D01*
X53358282Y-70987595D01*
X52127000Y-70987595D01*
X52127000Y-69789587D01*
X54044192Y-69789587D01*
X55000000Y-70745395D01*
X55955808Y-69789587D01*
X55860044Y-69525186D01*
X55570429Y-69384296D01*
X55258892Y-69302616D01*
X54937405Y-69283282D01*
X54618325Y-69327039D01*
X54313912Y-69432205D01*
X54139956Y-69525186D01*
X54044192Y-69789587D01*
X52127000Y-69789587D01*
X52127000Y-68736890D01*
X60018524Y-68736890D01*
X60063175Y-68884099D01*
X60188359Y-69146920D01*
X60362412Y-69380269D01*
X60578645Y-69575178D01*
X60704255Y-69650000D01*
X60578645Y-69724822D01*
X60362412Y-69919731D01*
X60188359Y-70153080D01*
X60063175Y-70415901D01*
X60018524Y-70563110D01*
X60139845Y-70793000D01*
X61333000Y-70793000D01*
X61333000Y-68507000D01*
X61587000Y-68507000D01*
X61587000Y-70793000D01*
X63873000Y-70793000D01*
X63873000Y-68507000D01*
X64127000Y-68507000D01*
X64127000Y-70793000D01*
X65320155Y-70793000D01*
X65441476Y-70563110D01*
X65396825Y-70415901D01*
X65271641Y-70153080D01*
X65097588Y-69919731D01*
X64881355Y-69724822D01*
X64755745Y-69650000D01*
X64881355Y-69575178D01*
X65097588Y-69380269D01*
X65271641Y-69146920D01*
X65396825Y-68884099D01*
X65441476Y-68736890D01*
X88728524Y-68736890D01*
X88773175Y-68884099D01*
X88898359Y-69146920D01*
X89072412Y-69380269D01*
X89288645Y-69575178D01*
X89414255Y-69650000D01*
X89288645Y-69724822D01*
X89072412Y-69919731D01*
X88898359Y-70153080D01*
X88773175Y-70415901D01*
X88728524Y-70563110D01*
X88849845Y-70793000D01*
X90043000Y-70793000D01*
X90043000Y-68507000D01*
X90297000Y-68507000D01*
X90297000Y-70793000D01*
X92583000Y-70793000D01*
X92583000Y-68507000D01*
X92837000Y-68507000D01*
X92837000Y-70793000D01*
X94030155Y-70793000D01*
X94151476Y-70563110D01*
X94106825Y-70415901D01*
X93981641Y-70153080D01*
X93807588Y-69919731D01*
X93591355Y-69724822D01*
X93465745Y-69650000D01*
X93591355Y-69575178D01*
X93807588Y-69380269D01*
X93981641Y-69146920D01*
X94106825Y-68884099D01*
X94151476Y-68736890D01*
X110776857Y-68736890D01*
X110821508Y-68884099D01*
X110946692Y-69146920D01*
X111120745Y-69380269D01*
X111336978Y-69575178D01*
X111462588Y-69650000D01*
X111336978Y-69724822D01*
X111120745Y-69919731D01*
X110946692Y-70153080D01*
X110821508Y-70415901D01*
X110776857Y-70563110D01*
X110898178Y-70793000D01*
X112091333Y-70793000D01*
X112091333Y-68507000D01*
X112345333Y-68507000D01*
X112345333Y-70793000D01*
X114631333Y-70793000D01*
X114631333Y-68507000D01*
X114885333Y-68507000D01*
X114885333Y-70793000D01*
X116078488Y-70793000D01*
X116199809Y-70563110D01*
X116155158Y-70415901D01*
X116029974Y-70153080D01*
X115855921Y-69919731D01*
X115639688Y-69724822D01*
X115514078Y-69650000D01*
X115639688Y-69575178D01*
X115855921Y-69380269D01*
X116029974Y-69146920D01*
X116155158Y-68884099D01*
X116199809Y-68736890D01*
X132825190Y-68736890D01*
X132869841Y-68884099D01*
X132995025Y-69146920D01*
X133169078Y-69380269D01*
X133385311Y-69575178D01*
X133510921Y-69650000D01*
X133385311Y-69724822D01*
X133169078Y-69919731D01*
X132995025Y-70153080D01*
X132869841Y-70415901D01*
X132825190Y-70563110D01*
X132946511Y-70793000D01*
X134139666Y-70793000D01*
X134139666Y-68507000D01*
X134393666Y-68507000D01*
X134393666Y-70793000D01*
X136679666Y-70793000D01*
X136679666Y-68507000D01*
X136933666Y-68507000D01*
X136933666Y-70793000D01*
X138126821Y-70793000D01*
X138248142Y-70563110D01*
X138203491Y-70415901D01*
X138078307Y-70153080D01*
X137904254Y-69919731D01*
X137688021Y-69724822D01*
X137562411Y-69650000D01*
X137688021Y-69575178D01*
X137904254Y-69380269D01*
X138078307Y-69146920D01*
X138203491Y-68884099D01*
X138248142Y-68736890D01*
X154873523Y-68736890D01*
X154918174Y-68884099D01*
X155043358Y-69146920D01*
X155217411Y-69380269D01*
X155433644Y-69575178D01*
X155559254Y-69650000D01*
X155433644Y-69724822D01*
X155217411Y-69919731D01*
X155043358Y-70153080D01*
X154918174Y-70415901D01*
X154873523Y-70563110D01*
X154994844Y-70793000D01*
X156187999Y-70793000D01*
X156187999Y-68507000D01*
X156441999Y-68507000D01*
X156441999Y-70793000D01*
X158727999Y-70793000D01*
X158727999Y-68507000D01*
X158981999Y-68507000D01*
X158981999Y-70793000D01*
X160175154Y-70793000D01*
X160296475Y-70563110D01*
X160251824Y-70415901D01*
X160126640Y-70153080D01*
X159952587Y-69919731D01*
X159736354Y-69724822D01*
X159610744Y-69650000D01*
X159736354Y-69575178D01*
X159952587Y-69380269D01*
X160126640Y-69146920D01*
X160251824Y-68884099D01*
X160296475Y-68736890D01*
X176921856Y-68736890D01*
X176966507Y-68884099D01*
X177091691Y-69146920D01*
X177265744Y-69380269D01*
X177481977Y-69575178D01*
X177607587Y-69650000D01*
X177481977Y-69724822D01*
X177265744Y-69919731D01*
X177091691Y-70153080D01*
X176966507Y-70415901D01*
X176921856Y-70563110D01*
X177043177Y-70793000D01*
X178236332Y-70793000D01*
X178236332Y-68507000D01*
X178490332Y-68507000D01*
X178490332Y-70793000D01*
X180776332Y-70793000D01*
X180776332Y-68507000D01*
X181030332Y-68507000D01*
X181030332Y-70793000D01*
X182223487Y-70793000D01*
X182344808Y-70563110D01*
X182300157Y-70415901D01*
X182174973Y-70153080D01*
X182000920Y-69919731D01*
X181784687Y-69724822D01*
X181659077Y-69650000D01*
X181784687Y-69575178D01*
X182000920Y-69380269D01*
X182174973Y-69146920D01*
X182300157Y-68884099D01*
X182344808Y-68736890D01*
X198970189Y-68736890D01*
X199014840Y-68884099D01*
X199140024Y-69146920D01*
X199314077Y-69380269D01*
X199530310Y-69575178D01*
X199655920Y-69650000D01*
X199530310Y-69724822D01*
X199314077Y-69919731D01*
X199140024Y-70153080D01*
X199014840Y-70415901D01*
X198970189Y-70563110D01*
X199091510Y-70793000D01*
X200284665Y-70793000D01*
X200284665Y-68507000D01*
X200538665Y-68507000D01*
X200538665Y-70793000D01*
X202824665Y-70793000D01*
X202824665Y-68507000D01*
X203078665Y-68507000D01*
X203078665Y-70793000D01*
X204271820Y-70793000D01*
X204393141Y-70563110D01*
X204348490Y-70415901D01*
X204223306Y-70153080D01*
X204049253Y-69919731D01*
X203833020Y-69724822D01*
X203707410Y-69650000D01*
X203833020Y-69575178D01*
X204049253Y-69380269D01*
X204223306Y-69146920D01*
X204348490Y-68884099D01*
X204393141Y-68736890D01*
X221018524Y-68736890D01*
X221063175Y-68884099D01*
X221188359Y-69146920D01*
X221362412Y-69380269D01*
X221578645Y-69575178D01*
X221704255Y-69650000D01*
X221578645Y-69724822D01*
X221362412Y-69919731D01*
X221188359Y-70153080D01*
X221063175Y-70415901D01*
X221018524Y-70563110D01*
X221139845Y-70793000D01*
X222333000Y-70793000D01*
X222333000Y-68507000D01*
X222587000Y-68507000D01*
X222587000Y-70793000D01*
X224873000Y-70793000D01*
X224873000Y-68507000D01*
X225127000Y-68507000D01*
X225127000Y-70793000D01*
X226320155Y-70793000D01*
X226441476Y-70563110D01*
X226396825Y-70415901D01*
X226271641Y-70153080D01*
X226097588Y-69919731D01*
X225881355Y-69724822D01*
X225755745Y-69650000D01*
X225881355Y-69575178D01*
X226097588Y-69380269D01*
X226271641Y-69146920D01*
X226396825Y-68884099D01*
X226441476Y-68736890D01*
X226320155Y-68507000D01*
X225127000Y-68507000D01*
X224873000Y-68507000D01*
X222587000Y-68507000D01*
X222333000Y-68507000D01*
X221139845Y-68507000D01*
X221018524Y-68736890D01*
X204393141Y-68736890D01*
X204271820Y-68507000D01*
X203078665Y-68507000D01*
X202824665Y-68507000D01*
X200538665Y-68507000D01*
X200284665Y-68507000D01*
X199091510Y-68507000D01*
X198970189Y-68736890D01*
X182344808Y-68736890D01*
X182223487Y-68507000D01*
X181030332Y-68507000D01*
X180776332Y-68507000D01*
X178490332Y-68507000D01*
X178236332Y-68507000D01*
X177043177Y-68507000D01*
X176921856Y-68736890D01*
X160296475Y-68736890D01*
X160175154Y-68507000D01*
X158981999Y-68507000D01*
X158727999Y-68507000D01*
X156441999Y-68507000D01*
X156187999Y-68507000D01*
X154994844Y-68507000D01*
X154873523Y-68736890D01*
X138248142Y-68736890D01*
X138126821Y-68507000D01*
X136933666Y-68507000D01*
X136679666Y-68507000D01*
X134393666Y-68507000D01*
X134139666Y-68507000D01*
X132946511Y-68507000D01*
X132825190Y-68736890D01*
X116199809Y-68736890D01*
X116078488Y-68507000D01*
X114885333Y-68507000D01*
X114631333Y-68507000D01*
X112345333Y-68507000D01*
X112091333Y-68507000D01*
X110898178Y-68507000D01*
X110776857Y-68736890D01*
X94151476Y-68736890D01*
X94030155Y-68507000D01*
X92837000Y-68507000D01*
X92583000Y-68507000D01*
X90297000Y-68507000D01*
X90043000Y-68507000D01*
X88849845Y-68507000D01*
X88728524Y-68736890D01*
X65441476Y-68736890D01*
X65320155Y-68507000D01*
X64127000Y-68507000D01*
X63873000Y-68507000D01*
X61587000Y-68507000D01*
X61333000Y-68507000D01*
X60139845Y-68507000D01*
X60018524Y-68736890D01*
X52127000Y-68736890D01*
X52127000Y-65693740D01*
X59975000Y-65693740D01*
X59975000Y-65986260D01*
X60032068Y-66273158D01*
X60144010Y-66543411D01*
X60306525Y-66786632D01*
X60513368Y-66993475D01*
X60695534Y-67115195D01*
X60578645Y-67184822D01*
X60362412Y-67379731D01*
X60188359Y-67613080D01*
X60063175Y-67875901D01*
X60018524Y-68023110D01*
X60139845Y-68253000D01*
X61333000Y-68253000D01*
X61333000Y-68233000D01*
X61587000Y-68233000D01*
X61587000Y-68253000D01*
X63873000Y-68253000D01*
X63873000Y-68233000D01*
X64127000Y-68233000D01*
X64127000Y-68253000D01*
X65320155Y-68253000D01*
X65441476Y-68023110D01*
X65396825Y-67875901D01*
X65271641Y-67613080D01*
X65097588Y-67379731D01*
X64881355Y-67184822D01*
X64764466Y-67115195D01*
X64946632Y-66993475D01*
X65153475Y-66786632D01*
X65315990Y-66543411D01*
X65427932Y-66273158D01*
X65485000Y-65986260D01*
X65485000Y-65693740D01*
X88685000Y-65693740D01*
X88685000Y-65986260D01*
X88742068Y-66273158D01*
X88854010Y-66543411D01*
X89016525Y-66786632D01*
X89223368Y-66993475D01*
X89405534Y-67115195D01*
X89288645Y-67184822D01*
X89072412Y-67379731D01*
X88898359Y-67613080D01*
X88773175Y-67875901D01*
X88728524Y-68023110D01*
X88849845Y-68253000D01*
X90043000Y-68253000D01*
X90043000Y-68233000D01*
X90297000Y-68233000D01*
X90297000Y-68253000D01*
X92583000Y-68253000D01*
X92583000Y-68233000D01*
X92837000Y-68233000D01*
X92837000Y-68253000D01*
X94030155Y-68253000D01*
X94151476Y-68023110D01*
X94106825Y-67875901D01*
X93981641Y-67613080D01*
X93807588Y-67379731D01*
X93591355Y-67184822D01*
X93474466Y-67115195D01*
X93656632Y-66993475D01*
X93863475Y-66786632D01*
X94025990Y-66543411D01*
X94137932Y-66273158D01*
X94195000Y-65986260D01*
X94195000Y-65693740D01*
X110733333Y-65693740D01*
X110733333Y-65986260D01*
X110790401Y-66273158D01*
X110902343Y-66543411D01*
X111064858Y-66786632D01*
X111271701Y-66993475D01*
X111453867Y-67115195D01*
X111336978Y-67184822D01*
X111120745Y-67379731D01*
X110946692Y-67613080D01*
X110821508Y-67875901D01*
X110776857Y-68023110D01*
X110898178Y-68253000D01*
X112091333Y-68253000D01*
X112091333Y-68233000D01*
X112345333Y-68233000D01*
X112345333Y-68253000D01*
X114631333Y-68253000D01*
X114631333Y-68233000D01*
X114885333Y-68233000D01*
X114885333Y-68253000D01*
X116078488Y-68253000D01*
X116199809Y-68023110D01*
X116155158Y-67875901D01*
X116029974Y-67613080D01*
X115855921Y-67379731D01*
X115639688Y-67184822D01*
X115522799Y-67115195D01*
X115704965Y-66993475D01*
X115911808Y-66786632D01*
X116074323Y-66543411D01*
X116186265Y-66273158D01*
X116243333Y-65986260D01*
X116243333Y-65693740D01*
X132781666Y-65693740D01*
X132781666Y-65986260D01*
X132838734Y-66273158D01*
X132950676Y-66543411D01*
X133113191Y-66786632D01*
X133320034Y-66993475D01*
X133502200Y-67115195D01*
X133385311Y-67184822D01*
X133169078Y-67379731D01*
X132995025Y-67613080D01*
X132869841Y-67875901D01*
X132825190Y-68023110D01*
X132946511Y-68253000D01*
X134139666Y-68253000D01*
X134139666Y-68233000D01*
X134393666Y-68233000D01*
X134393666Y-68253000D01*
X136679666Y-68253000D01*
X136679666Y-68233000D01*
X136933666Y-68233000D01*
X136933666Y-68253000D01*
X138126821Y-68253000D01*
X138248142Y-68023110D01*
X138203491Y-67875901D01*
X138078307Y-67613080D01*
X137904254Y-67379731D01*
X137688021Y-67184822D01*
X137571132Y-67115195D01*
X137753298Y-66993475D01*
X137960141Y-66786632D01*
X138122656Y-66543411D01*
X138234598Y-66273158D01*
X138291666Y-65986260D01*
X138291666Y-65693740D01*
X154829999Y-65693740D01*
X154829999Y-65986260D01*
X154887067Y-66273158D01*
X154999009Y-66543411D01*
X155161524Y-66786632D01*
X155368367Y-66993475D01*
X155550533Y-67115195D01*
X155433644Y-67184822D01*
X155217411Y-67379731D01*
X155043358Y-67613080D01*
X154918174Y-67875901D01*
X154873523Y-68023110D01*
X154994844Y-68253000D01*
X156187999Y-68253000D01*
X156187999Y-68233000D01*
X156441999Y-68233000D01*
X156441999Y-68253000D01*
X158727999Y-68253000D01*
X158727999Y-68233000D01*
X158981999Y-68233000D01*
X158981999Y-68253000D01*
X160175154Y-68253000D01*
X160296475Y-68023110D01*
X160251824Y-67875901D01*
X160126640Y-67613080D01*
X159952587Y-67379731D01*
X159736354Y-67184822D01*
X159619465Y-67115195D01*
X159801631Y-66993475D01*
X160008474Y-66786632D01*
X160170989Y-66543411D01*
X160282931Y-66273158D01*
X160339999Y-65986260D01*
X160339999Y-65693740D01*
X176878332Y-65693740D01*
X176878332Y-65986260D01*
X176935400Y-66273158D01*
X177047342Y-66543411D01*
X177209857Y-66786632D01*
X177416700Y-66993475D01*
X177598866Y-67115195D01*
X177481977Y-67184822D01*
X177265744Y-67379731D01*
X177091691Y-67613080D01*
X176966507Y-67875901D01*
X176921856Y-68023110D01*
X177043177Y-68253000D01*
X178236332Y-68253000D01*
X178236332Y-68233000D01*
X178490332Y-68233000D01*
X178490332Y-68253000D01*
X180776332Y-68253000D01*
X180776332Y-68233000D01*
X181030332Y-68233000D01*
X181030332Y-68253000D01*
X182223487Y-68253000D01*
X182344808Y-68023110D01*
X182300157Y-67875901D01*
X182174973Y-67613080D01*
X182000920Y-67379731D01*
X181784687Y-67184822D01*
X181667798Y-67115195D01*
X181849964Y-66993475D01*
X182056807Y-66786632D01*
X182219322Y-66543411D01*
X182331264Y-66273158D01*
X182388332Y-65986260D01*
X182388332Y-65693740D01*
X198926665Y-65693740D01*
X198926665Y-65986260D01*
X198983733Y-66273158D01*
X199095675Y-66543411D01*
X199258190Y-66786632D01*
X199465033Y-66993475D01*
X199647199Y-67115195D01*
X199530310Y-67184822D01*
X199314077Y-67379731D01*
X199140024Y-67613080D01*
X199014840Y-67875901D01*
X198970189Y-68023110D01*
X199091510Y-68253000D01*
X200284665Y-68253000D01*
X200284665Y-68233000D01*
X200538665Y-68233000D01*
X200538665Y-68253000D01*
X202824665Y-68253000D01*
X202824665Y-68233000D01*
X203078665Y-68233000D01*
X203078665Y-68253000D01*
X204271820Y-68253000D01*
X204393141Y-68023110D01*
X204348490Y-67875901D01*
X204223306Y-67613080D01*
X204049253Y-67379731D01*
X203833020Y-67184822D01*
X203716131Y-67115195D01*
X203898297Y-66993475D01*
X204105140Y-66786632D01*
X204267655Y-66543411D01*
X204379597Y-66273158D01*
X204436665Y-65986260D01*
X204436665Y-65693740D01*
X220975000Y-65693740D01*
X220975000Y-65986260D01*
X221032068Y-66273158D01*
X221144010Y-66543411D01*
X221306525Y-66786632D01*
X221513368Y-66993475D01*
X221695534Y-67115195D01*
X221578645Y-67184822D01*
X221362412Y-67379731D01*
X221188359Y-67613080D01*
X221063175Y-67875901D01*
X221018524Y-68023110D01*
X221139845Y-68253000D01*
X222333000Y-68253000D01*
X222333000Y-68233000D01*
X222587000Y-68233000D01*
X222587000Y-68253000D01*
X224873000Y-68253000D01*
X224873000Y-68233000D01*
X225127000Y-68233000D01*
X225127000Y-68253000D01*
X226320155Y-68253000D01*
X226441476Y-68023110D01*
X226396825Y-67875901D01*
X226271641Y-67613080D01*
X226097588Y-67379731D01*
X225881355Y-67184822D01*
X225764466Y-67115195D01*
X225946632Y-66993475D01*
X226153475Y-66786632D01*
X226315990Y-66543411D01*
X226427932Y-66273158D01*
X226485000Y-65986260D01*
X226485000Y-65693740D01*
X226427932Y-65406842D01*
X226315990Y-65136589D01*
X226153475Y-64893368D01*
X225946632Y-64686525D01*
X225703411Y-64524010D01*
X225433158Y-64412068D01*
X225146260Y-64355000D01*
X224853740Y-64355000D01*
X224566842Y-64412068D01*
X224296589Y-64524010D01*
X224053368Y-64686525D01*
X223846525Y-64893368D01*
X223730000Y-65067760D01*
X223613475Y-64893368D01*
X223406632Y-64686525D01*
X223163411Y-64524010D01*
X222893158Y-64412068D01*
X222606260Y-64355000D01*
X222313740Y-64355000D01*
X222026842Y-64412068D01*
X221756589Y-64524010D01*
X221513368Y-64686525D01*
X221306525Y-64893368D01*
X221144010Y-65136589D01*
X221032068Y-65406842D01*
X220975000Y-65693740D01*
X204436665Y-65693740D01*
X204379597Y-65406842D01*
X204267655Y-65136589D01*
X204105140Y-64893368D01*
X203898297Y-64686525D01*
X203655076Y-64524010D01*
X203384823Y-64412068D01*
X203097925Y-64355000D01*
X202805405Y-64355000D01*
X202518507Y-64412068D01*
X202248254Y-64524010D01*
X202005033Y-64686525D01*
X201798190Y-64893368D01*
X201681665Y-65067760D01*
X201565140Y-64893368D01*
X201358297Y-64686525D01*
X201115076Y-64524010D01*
X200844823Y-64412068D01*
X200557925Y-64355000D01*
X200265405Y-64355000D01*
X199978507Y-64412068D01*
X199708254Y-64524010D01*
X199465033Y-64686525D01*
X199258190Y-64893368D01*
X199095675Y-65136589D01*
X198983733Y-65406842D01*
X198926665Y-65693740D01*
X182388332Y-65693740D01*
X182331264Y-65406842D01*
X182219322Y-65136589D01*
X182056807Y-64893368D01*
X181849964Y-64686525D01*
X181606743Y-64524010D01*
X181336490Y-64412068D01*
X181049592Y-64355000D01*
X180757072Y-64355000D01*
X180470174Y-64412068D01*
X180199921Y-64524010D01*
X179956700Y-64686525D01*
X179749857Y-64893368D01*
X179633332Y-65067760D01*
X179516807Y-64893368D01*
X179309964Y-64686525D01*
X179066743Y-64524010D01*
X178796490Y-64412068D01*
X178509592Y-64355000D01*
X178217072Y-64355000D01*
X177930174Y-64412068D01*
X177659921Y-64524010D01*
X177416700Y-64686525D01*
X177209857Y-64893368D01*
X177047342Y-65136589D01*
X176935400Y-65406842D01*
X176878332Y-65693740D01*
X160339999Y-65693740D01*
X160282931Y-65406842D01*
X160170989Y-65136589D01*
X160008474Y-64893368D01*
X159801631Y-64686525D01*
X159558410Y-64524010D01*
X159288157Y-64412068D01*
X159001259Y-64355000D01*
X158708739Y-64355000D01*
X158421841Y-64412068D01*
X158151588Y-64524010D01*
X157908367Y-64686525D01*
X157701524Y-64893368D01*
X157584999Y-65067760D01*
X157468474Y-64893368D01*
X157261631Y-64686525D01*
X157018410Y-64524010D01*
X156748157Y-64412068D01*
X156461259Y-64355000D01*
X156168739Y-64355000D01*
X155881841Y-64412068D01*
X155611588Y-64524010D01*
X155368367Y-64686525D01*
X155161524Y-64893368D01*
X154999009Y-65136589D01*
X154887067Y-65406842D01*
X154829999Y-65693740D01*
X138291666Y-65693740D01*
X138234598Y-65406842D01*
X138122656Y-65136589D01*
X137960141Y-64893368D01*
X137753298Y-64686525D01*
X137510077Y-64524010D01*
X137239824Y-64412068D01*
X136952926Y-64355000D01*
X136660406Y-64355000D01*
X136373508Y-64412068D01*
X136103255Y-64524010D01*
X135860034Y-64686525D01*
X135653191Y-64893368D01*
X135536666Y-65067760D01*
X135420141Y-64893368D01*
X135213298Y-64686525D01*
X134970077Y-64524010D01*
X134699824Y-64412068D01*
X134412926Y-64355000D01*
X134120406Y-64355000D01*
X133833508Y-64412068D01*
X133563255Y-64524010D01*
X133320034Y-64686525D01*
X133113191Y-64893368D01*
X132950676Y-65136589D01*
X132838734Y-65406842D01*
X132781666Y-65693740D01*
X116243333Y-65693740D01*
X116186265Y-65406842D01*
X116074323Y-65136589D01*
X115911808Y-64893368D01*
X115704965Y-64686525D01*
X115461744Y-64524010D01*
X115191491Y-64412068D01*
X114904593Y-64355000D01*
X114612073Y-64355000D01*
X114325175Y-64412068D01*
X114054922Y-64524010D01*
X113811701Y-64686525D01*
X113604858Y-64893368D01*
X113488333Y-65067760D01*
X113371808Y-64893368D01*
X113164965Y-64686525D01*
X112921744Y-64524010D01*
X112651491Y-64412068D01*
X112364593Y-64355000D01*
X112072073Y-64355000D01*
X111785175Y-64412068D01*
X111514922Y-64524010D01*
X111271701Y-64686525D01*
X111064858Y-64893368D01*
X110902343Y-65136589D01*
X110790401Y-65406842D01*
X110733333Y-65693740D01*
X94195000Y-65693740D01*
X94137932Y-65406842D01*
X94025990Y-65136589D01*
X93863475Y-64893368D01*
X93656632Y-64686525D01*
X93413411Y-64524010D01*
X93143158Y-64412068D01*
X92856260Y-64355000D01*
X92563740Y-64355000D01*
X92276842Y-64412068D01*
X92006589Y-64524010D01*
X91763368Y-64686525D01*
X91556525Y-64893368D01*
X91440000Y-65067760D01*
X91323475Y-64893368D01*
X91116632Y-64686525D01*
X90873411Y-64524010D01*
X90603158Y-64412068D01*
X90316260Y-64355000D01*
X90023740Y-64355000D01*
X89736842Y-64412068D01*
X89466589Y-64524010D01*
X89223368Y-64686525D01*
X89016525Y-64893368D01*
X88854010Y-65136589D01*
X88742068Y-65406842D01*
X88685000Y-65693740D01*
X65485000Y-65693740D01*
X65427932Y-65406842D01*
X65315990Y-65136589D01*
X65153475Y-64893368D01*
X64946632Y-64686525D01*
X64703411Y-64524010D01*
X64433158Y-64412068D01*
X64146260Y-64355000D01*
X63853740Y-64355000D01*
X63566842Y-64412068D01*
X63296589Y-64524010D01*
X63053368Y-64686525D01*
X62846525Y-64893368D01*
X62730000Y-65067760D01*
X62613475Y-64893368D01*
X62406632Y-64686525D01*
X62163411Y-64524010D01*
X61893158Y-64412068D01*
X61606260Y-64355000D01*
X61313740Y-64355000D01*
X61026842Y-64412068D01*
X60756589Y-64524010D01*
X60513368Y-64686525D01*
X60306525Y-64893368D01*
X60144010Y-65136589D01*
X60032068Y-65406842D01*
X59975000Y-65693740D01*
X52127000Y-65693740D01*
X52127000Y-62838967D01*
X53365000Y-62838967D01*
X53365000Y-63161033D01*
X53427832Y-63476912D01*
X53551082Y-63774463D01*
X53730013Y-64042252D01*
X53957748Y-64269987D01*
X54225537Y-64448918D01*
X54523088Y-64572168D01*
X54838967Y-64635000D01*
X55161033Y-64635000D01*
X55476912Y-64572168D01*
X55774463Y-64448918D01*
X56042252Y-64269987D01*
X56269987Y-64042252D01*
X56448918Y-63774463D01*
X56572168Y-63476912D01*
X56635000Y-63161033D01*
X56635000Y-62838967D01*
X56572168Y-62523088D01*
X56448918Y-62225537D01*
X56269987Y-61957748D01*
X56042252Y-61730013D01*
X55774463Y-61551082D01*
X55476912Y-61427832D01*
X55161033Y-61365000D01*
X54838967Y-61365000D01*
X54523088Y-61427832D01*
X54225537Y-61551082D01*
X53957748Y-61730013D01*
X53730013Y-61957748D01*
X53551082Y-62225537D01*
X53427832Y-62523088D01*
X53365000Y-62838967D01*
X52127000Y-62838967D01*
X52127000Y-58088665D01*
X109365000Y-58088665D01*
X109365000Y-58371335D01*
X109420147Y-58648574D01*
X109528320Y-58909727D01*
X109685363Y-59144759D01*
X109885241Y-59344637D01*
X110120273Y-59501680D01*
X110381426Y-59609853D01*
X110658665Y-59665000D01*
X110941335Y-59665000D01*
X111218574Y-59609853D01*
X111479727Y-59501680D01*
X111714759Y-59344637D01*
X111914637Y-59144759D01*
X112071680Y-58909727D01*
X112179853Y-58648574D01*
X112235000Y-58371335D01*
X112235000Y-58088665D01*
X122065000Y-58088665D01*
X122065000Y-58371335D01*
X122120147Y-58648574D01*
X122228320Y-58909727D01*
X122385363Y-59144759D01*
X122585241Y-59344637D01*
X122820273Y-59501680D01*
X123081426Y-59609853D01*
X123358665Y-59665000D01*
X123641335Y-59665000D01*
X123918574Y-59609853D01*
X124179727Y-59501680D01*
X124414759Y-59344637D01*
X124614637Y-59144759D01*
X124771680Y-58909727D01*
X124879853Y-58648574D01*
X124935000Y-58371335D01*
X124935000Y-58088665D01*
X124933041Y-58078816D01*
X126725000Y-58078816D01*
X126725000Y-58381184D01*
X126783989Y-58677743D01*
X126899701Y-58957095D01*
X127067688Y-59208505D01*
X127281495Y-59422312D01*
X127532905Y-59590299D01*
X127812257Y-59706011D01*
X128108816Y-59765000D01*
X128411184Y-59765000D01*
X128707743Y-59706011D01*
X128987095Y-59590299D01*
X129238505Y-59422312D01*
X129304944Y-59355873D01*
X129310498Y-59374180D01*
X129369463Y-59484494D01*
X129448815Y-59581185D01*
X129545506Y-59660537D01*
X129655820Y-59719502D01*
X129775518Y-59755812D01*
X129900000Y-59768072D01*
X130514250Y-59765000D01*
X130673000Y-59606250D01*
X130673000Y-58357000D01*
X130927000Y-58357000D01*
X130927000Y-59606250D01*
X131085750Y-59765000D01*
X131700000Y-59768072D01*
X131824482Y-59755812D01*
X131944180Y-59719502D01*
X132054494Y-59660537D01*
X132151185Y-59581185D01*
X132230537Y-59484494D01*
X132289502Y-59374180D01*
X132325812Y-59254482D01*
X132338072Y-59130000D01*
X132335000Y-58515750D01*
X132176250Y-58357000D01*
X130927000Y-58357000D01*
X130673000Y-58357000D01*
X130653000Y-58357000D01*
X130653000Y-58103000D01*
X130673000Y-58103000D01*
X130673000Y-56853750D01*
X130927000Y-56853750D01*
X130927000Y-58103000D01*
X132176250Y-58103000D01*
X132335000Y-57944250D01*
X132338072Y-57330000D01*
X132325812Y-57205518D01*
X132289502Y-57085820D01*
X132281320Y-57070512D01*
X156139782Y-57070512D01*
X156181212Y-57350130D01*
X156276396Y-57616292D01*
X156341615Y-57738309D01*
X156328814Y-57748815D01*
X156249462Y-57845506D01*
X156190497Y-57955820D01*
X156154187Y-58075518D01*
X156141927Y-58200000D01*
X156141927Y-59800000D01*
X156154187Y-59924482D01*
X156190497Y-60044180D01*
X156249462Y-60154494D01*
X156328814Y-60251185D01*
X156425505Y-60330537D01*
X156535819Y-60389502D01*
X156655517Y-60425812D01*
X156779999Y-60438072D01*
X158379999Y-60438072D01*
X158504481Y-60425812D01*
X158624179Y-60389502D01*
X158734493Y-60330537D01*
X158831184Y-60251185D01*
X158910536Y-60154494D01*
X158969501Y-60044180D01*
X159005811Y-59924482D01*
X159018071Y-59800000D01*
X159018071Y-58200000D01*
X159005811Y-58075518D01*
X158969501Y-57955820D01*
X158910536Y-57845506D01*
X158831184Y-57748815D01*
X158818241Y-57738193D01*
X158937570Y-57486004D01*
X159006299Y-57211816D01*
X159020216Y-56929488D01*
X158978786Y-56649870D01*
X158883602Y-56383708D01*
X158816670Y-56258486D01*
X158572701Y-56186903D01*
X157759604Y-57000000D01*
X157773747Y-57014143D01*
X157594142Y-57193748D01*
X157579999Y-57179605D01*
X157565857Y-57193748D01*
X157386252Y-57014143D01*
X157400394Y-57000000D01*
X156587297Y-56186903D01*
X156343328Y-56258486D01*
X156222428Y-56513996D01*
X156153699Y-56788184D01*
X156139782Y-57070512D01*
X132281320Y-57070512D01*
X132230537Y-56975506D01*
X132151185Y-56878815D01*
X132054494Y-56799463D01*
X131944180Y-56740498D01*
X131824482Y-56704188D01*
X131700000Y-56691928D01*
X131085750Y-56695000D01*
X130927000Y-56853750D01*
X130673000Y-56853750D01*
X130514250Y-56695000D01*
X129900000Y-56691928D01*
X129775518Y-56704188D01*
X129655820Y-56740498D01*
X129545506Y-56799463D01*
X129448815Y-56878815D01*
X129369463Y-56975506D01*
X129310498Y-57085820D01*
X129304944Y-57104127D01*
X129238505Y-57037688D01*
X128987095Y-56869701D01*
X128707743Y-56753989D01*
X128411184Y-56695000D01*
X128108816Y-56695000D01*
X127812257Y-56753989D01*
X127532905Y-56869701D01*
X127281495Y-57037688D01*
X127067688Y-57251495D01*
X126899701Y-57502905D01*
X126783989Y-57782257D01*
X126725000Y-58078816D01*
X124933041Y-58078816D01*
X124879853Y-57811426D01*
X124771680Y-57550273D01*
X124614637Y-57315241D01*
X124414759Y-57115363D01*
X124179727Y-56958320D01*
X123918574Y-56850147D01*
X123641335Y-56795000D01*
X123358665Y-56795000D01*
X123081426Y-56850147D01*
X122820273Y-56958320D01*
X122585241Y-57115363D01*
X122385363Y-57315241D01*
X122228320Y-57550273D01*
X122120147Y-57811426D01*
X122065000Y-58088665D01*
X112235000Y-58088665D01*
X112179853Y-57811426D01*
X112071680Y-57550273D01*
X111914637Y-57315241D01*
X111714759Y-57115363D01*
X111479727Y-56958320D01*
X111218574Y-56850147D01*
X110941335Y-56795000D01*
X110658665Y-56795000D01*
X110381426Y-56850147D01*
X110120273Y-56958320D01*
X109885241Y-57115363D01*
X109685363Y-57315241D01*
X109528320Y-57550273D01*
X109420147Y-57811426D01*
X109365000Y-58088665D01*
X52127000Y-58088665D01*
X52127000Y-56007298D01*
X156766902Y-56007298D01*
X157579999Y-56820395D01*
X158393096Y-56007298D01*
X158321513Y-55763329D01*
X158066003Y-55642429D01*
X157791815Y-55573700D01*
X157509487Y-55559783D01*
X157229869Y-55601213D01*
X156963707Y-55696397D01*
X156838485Y-55763329D01*
X156766902Y-56007298D01*
X52127000Y-56007298D01*
X52127000Y-55127000D01*
X229873000Y-55127000D01*
X229873000Y-86873000D01*
G37*
G04 #@! TD.AperFunction*
M02*
