G04 #@! TF.GenerationSoftware,KiCad,Pcbnew,(6.0.1)*
G04 #@! TF.CreationDate,2022-07-08T14:04:56+02:00*
G04 #@! TF.ProjectId,Distrib,44697374-7269-4622-9e6b-696361645f70,rev?*
G04 #@! TF.SameCoordinates,Original*
G04 #@! TF.FileFunction,Legend,Top*
G04 #@! TF.FilePolarity,Positive*
%FSLAX46Y46*%
G04 Gerber Fmt 4.6, Leading zero omitted, Abs format (unit mm)*
G04 Created by KiCad (PCBNEW (6.0.1)) date 2022-07-08 14:04:56*
%MOMM*%
%LPD*%
G01*
G04 APERTURE LIST*
%ADD10C,0.250000*%
%ADD11C,0.300000*%
%ADD12C,0.120000*%
G04 #@! TA.AperFunction,Profile*
%ADD13C,0.150000*%
G04 #@! TD*
%ADD14C,0.150000*%
%ADD15C,3.000000*%
%ADD16R,3.000000X3.000000*%
%ADD17R,1.600000X1.600000*%
%ADD18C,1.600000*%
%ADD19C,1.800000*%
%ADD20R,1.800000X1.800000*%
%ADD21R,1.700000X1.700000*%
%ADD22O,1.700000X1.700000*%
%ADD23O,1.600000X1.600000*%
%ADD24C,2.000000*%
G04 APERTURE END LIST*
D10*
X139738095Y-54500000D02*
X139642857Y-54452380D01*
X139500000Y-54452380D01*
X139357142Y-54500000D01*
X139261904Y-54595238D01*
X139214285Y-54690476D01*
X139166666Y-54880952D01*
X139166666Y-55023809D01*
X139214285Y-55214285D01*
X139261904Y-55309523D01*
X139357142Y-55404761D01*
X139500000Y-55452380D01*
X139595238Y-55452380D01*
X139738095Y-55404761D01*
X139785714Y-55357142D01*
X139785714Y-55023809D01*
X139595238Y-55023809D01*
X140214285Y-55452380D02*
X140214285Y-54452380D01*
X140785714Y-55452380D01*
X140785714Y-54452380D01*
X141261904Y-55452380D02*
X141261904Y-54452380D01*
X141500000Y-54452380D01*
X141642857Y-54500000D01*
X141738095Y-54595238D01*
X141785714Y-54690476D01*
X141833333Y-54880952D01*
X141833333Y-55023809D01*
X141785714Y-55214285D01*
X141738095Y-55309523D01*
X141642857Y-55404761D01*
X141500000Y-55452380D01*
X141261904Y-55452380D01*
X143738095Y-55071428D02*
X144500000Y-55071428D01*
X145500000Y-55452380D02*
X144928571Y-55452380D01*
X145214285Y-55452380D02*
X145214285Y-54452380D01*
X145119047Y-54595238D01*
X145023809Y-54690476D01*
X144928571Y-54738095D01*
X145880952Y-54547619D02*
X145928571Y-54500000D01*
X146023809Y-54452380D01*
X146261904Y-54452380D01*
X146357142Y-54500000D01*
X146404761Y-54547619D01*
X146452380Y-54642857D01*
X146452380Y-54738095D01*
X146404761Y-54880952D01*
X145833333Y-55452380D01*
X146452380Y-55452380D01*
X146738095Y-54452380D02*
X147071428Y-55452380D01*
X147404761Y-54452380D01*
X133238095Y-55071428D02*
X134000000Y-55071428D01*
X133619047Y-55452380D02*
X133619047Y-54690476D01*
X135000000Y-55452380D02*
X134428571Y-55452380D01*
X134714285Y-55452380D02*
X134714285Y-54452380D01*
X134619047Y-54595238D01*
X134523809Y-54690476D01*
X134428571Y-54738095D01*
X135380952Y-54547619D02*
X135428571Y-54500000D01*
X135523809Y-54452380D01*
X135761904Y-54452380D01*
X135857142Y-54500000D01*
X135904761Y-54547619D01*
X135952380Y-54642857D01*
X135952380Y-54738095D01*
X135904761Y-54880952D01*
X135333333Y-55452380D01*
X135952380Y-55452380D01*
X136238095Y-54452380D02*
X136571428Y-55452380D01*
X136904761Y-54452380D01*
D11*
X97087142Y-59678571D02*
X96230000Y-59678571D01*
X96658571Y-59678571D02*
X96658571Y-58178571D01*
X96515714Y-58392857D01*
X96372857Y-58535714D01*
X96230000Y-58607142D01*
X97730000Y-59535714D02*
X97801428Y-59607142D01*
X97730000Y-59678571D01*
X97658571Y-59607142D01*
X97730000Y-59535714D01*
X97730000Y-59678571D01*
X99158571Y-58178571D02*
X98444285Y-58178571D01*
X98372857Y-58892857D01*
X98444285Y-58821428D01*
X98587142Y-58750000D01*
X98944285Y-58750000D01*
X99087142Y-58821428D01*
X99158571Y-58892857D01*
X99230000Y-59035714D01*
X99230000Y-59392857D01*
X99158571Y-59535714D01*
X99087142Y-59607142D01*
X98944285Y-59678571D01*
X98587142Y-59678571D01*
X98444285Y-59607142D01*
X98372857Y-59535714D01*
X99801428Y-59250000D02*
X100515714Y-59250000D01*
X99658571Y-59678571D02*
X100158571Y-58178571D01*
X100658571Y-59678571D01*
X102301428Y-59678571D02*
X102301428Y-58178571D01*
X102801428Y-59250000D01*
X103301428Y-58178571D01*
X103301428Y-59678571D01*
X103944285Y-59250000D02*
X104658571Y-59250000D01*
X103801428Y-59678571D02*
X104301428Y-58178571D01*
X104801428Y-59678571D01*
X105158571Y-58178571D02*
X106158571Y-59678571D01*
X106158571Y-58178571D02*
X105158571Y-59678571D01*
X106730000Y-59535714D02*
X106801428Y-59607142D01*
X106730000Y-59678571D01*
X106658571Y-59607142D01*
X106730000Y-59535714D01*
X106730000Y-59678571D01*
X106730000Y-59107142D02*
X106658571Y-58250000D01*
X106730000Y-58178571D01*
X106801428Y-58250000D01*
X106730000Y-59107142D01*
X106730000Y-58178571D01*
X107444285Y-59535714D02*
X107515714Y-59607142D01*
X107444285Y-59678571D01*
X107372857Y-59607142D01*
X107444285Y-59535714D01*
X107444285Y-59678571D01*
X107444285Y-59107142D02*
X107372857Y-58250000D01*
X107444285Y-58178571D01*
X107515714Y-58250000D01*
X107444285Y-59107142D01*
X107444285Y-58178571D01*
X108158571Y-59535714D02*
X108230000Y-59607142D01*
X108158571Y-59678571D01*
X108087142Y-59607142D01*
X108158571Y-59535714D01*
X108158571Y-59678571D01*
X108158571Y-59107142D02*
X108087142Y-58250000D01*
X108158571Y-58178571D01*
X108230000Y-58250000D01*
X108158571Y-59107142D01*
X108158571Y-58178571D01*
X186857142Y-62607142D02*
X188000000Y-62607142D01*
X187428571Y-63178571D02*
X187428571Y-62035714D01*
X189500000Y-63178571D02*
X188642857Y-63178571D01*
X189071428Y-63178571D02*
X189071428Y-61678571D01*
X188928571Y-61892857D01*
X188785714Y-62035714D01*
X188642857Y-62107142D01*
X190071428Y-61821428D02*
X190142857Y-61750000D01*
X190285714Y-61678571D01*
X190642857Y-61678571D01*
X190785714Y-61750000D01*
X190857142Y-61821428D01*
X190928571Y-61964285D01*
X190928571Y-62107142D01*
X190857142Y-62321428D01*
X190000000Y-63178571D01*
X190928571Y-63178571D01*
X191357142Y-61678571D02*
X191857142Y-63178571D01*
X192357142Y-61678571D01*
X186857142Y-79607142D02*
X188000000Y-79607142D01*
X189500000Y-80178571D02*
X188642857Y-80178571D01*
X189071428Y-80178571D02*
X189071428Y-78678571D01*
X188928571Y-78892857D01*
X188785714Y-79035714D01*
X188642857Y-79107142D01*
X190071428Y-78821428D02*
X190142857Y-78750000D01*
X190285714Y-78678571D01*
X190642857Y-78678571D01*
X190785714Y-78750000D01*
X190857142Y-78821428D01*
X190928571Y-78964285D01*
X190928571Y-79107142D01*
X190857142Y-79321428D01*
X190000000Y-80178571D01*
X190928571Y-80178571D01*
X191357142Y-78678571D02*
X191857142Y-80178571D01*
X192357142Y-78678571D01*
D12*
X62900000Y-75800000D02*
X61100000Y-74200000D01*
X64988414Y-70807718D02*
X64700000Y-71200000D01*
X62100000Y-68600000D02*
X61900000Y-68800000D01*
X62700000Y-69600000D02*
X62300000Y-70000000D01*
X61700000Y-74200000D02*
X62900000Y-75800000D01*
X61900000Y-69800000D02*
X62100000Y-70000000D01*
X62500000Y-70000000D02*
X62700000Y-69800000D01*
X62700000Y-69800000D02*
X62700000Y-68800000D01*
X65300000Y-68800000D02*
X64300000Y-68800000D01*
X63700000Y-70000000D02*
X63900000Y-69800000D01*
X63100000Y-68600000D02*
X63100000Y-69800000D01*
X63500000Y-70000000D02*
X63100000Y-69400000D01*
X61700000Y-73600000D02*
X62500000Y-74000000D01*
X61300000Y-73200000D02*
X62500000Y-73000000D01*
X63300000Y-70000000D02*
X63700000Y-70000000D01*
X63300000Y-71600000D02*
X61300000Y-73200000D01*
X62500000Y-74000000D02*
X61700000Y-74200000D01*
X64700000Y-68600000D02*
X64700000Y-70000000D01*
X64300000Y-68600000D02*
X65300000Y-68600000D01*
X63900000Y-69800000D02*
X63900000Y-68600000D01*
X62100000Y-70000000D02*
X62500000Y-70000000D01*
X62500000Y-73000000D02*
X61700000Y-73600000D01*
X62300000Y-70000000D02*
X61900000Y-69600000D01*
X61900000Y-68800000D02*
X61900000Y-69800000D01*
X61900000Y-69000000D02*
X62300000Y-68600000D01*
X64900000Y-70000000D02*
X64900000Y-68600000D01*
X61100000Y-72800000D02*
X63300000Y-71600000D01*
X62700000Y-69000000D02*
X62300000Y-68600000D01*
X63100000Y-69800000D02*
X63300000Y-70000000D01*
X62700000Y-68800000D02*
X62500000Y-68600000D01*
X62500000Y-68600000D02*
X62100000Y-68600000D01*
X63900000Y-69400000D02*
X63500000Y-70000000D01*
X62700001Y-73399998D02*
G75*
G03*
X64988414Y-70807718I800000J1599998D01*
G01*
X65300000Y-68600000D02*
X65300000Y-68800000D01*
X64700000Y-70000000D02*
X64900000Y-70000000D01*
X64988414Y-70807718D02*
X65500000Y-70800000D01*
X64300000Y-68800000D02*
X64300000Y-68600000D01*
X84590000Y-65200000D02*
X84390000Y-65400000D01*
X85190000Y-65600000D02*
X84790000Y-65200000D01*
X86790000Y-65400000D02*
X86790000Y-65200000D01*
X219800000Y-71200000D02*
X220000000Y-71200000D01*
X220000000Y-71200000D02*
X220000000Y-69800000D01*
X219400000Y-70000000D02*
X219400000Y-69800000D01*
X219400000Y-69800000D02*
X220400000Y-69800000D01*
X217000000Y-71000000D02*
X217200000Y-71200000D01*
X217200000Y-71200000D02*
X217600000Y-71200000D01*
X218200000Y-71000000D02*
X218400000Y-71200000D01*
X220400000Y-69800000D02*
X220400000Y-70000000D01*
X220400000Y-70000000D02*
X219400000Y-70000000D01*
X219800000Y-69800000D02*
X219800000Y-71200000D01*
X217000000Y-70000000D02*
X217000000Y-71000000D01*
X217600000Y-69800000D02*
X217200000Y-69800000D01*
X217800000Y-70000000D02*
X217600000Y-69800000D01*
X217200000Y-69800000D02*
X217000000Y-70000000D01*
X217800000Y-70200000D02*
X217400000Y-69800000D01*
X217800000Y-70800000D02*
X217400000Y-71200000D01*
X218200000Y-69800000D02*
X218200000Y-71000000D01*
X217800000Y-71000000D02*
X217800000Y-70000000D01*
X218400000Y-71200000D02*
X218800000Y-71200000D01*
X218600000Y-71200000D02*
X218200000Y-70600000D01*
X218800000Y-71200000D02*
X219000000Y-71000000D01*
X217000000Y-70200000D02*
X217400000Y-69800000D01*
X217400000Y-71200000D02*
X217000000Y-70800000D01*
X219000000Y-71000000D02*
X219000000Y-69800000D01*
X217600000Y-71200000D02*
X217800000Y-71000000D01*
X219000000Y-70600000D02*
X218600000Y-71200000D01*
X127700000Y-72400000D02*
G75*
G03*
X130100000Y-70000000I-1J2400001D01*
G01*
X130100000Y-70000000D02*
X130300000Y-70200000D01*
X130100000Y-70000000D02*
X129900000Y-70200000D01*
X184200000Y-70200000D02*
G75*
G03*
X186488414Y-67607718I800000J1600000D01*
G01*
X196800000Y-77800000D02*
X196800000Y-76400000D01*
X94541667Y-70200000D02*
X91741667Y-71600000D01*
X151000000Y-76200000D02*
X150600000Y-75800000D01*
X85590000Y-66400000D02*
X85790000Y-66600000D01*
X151800000Y-76000000D02*
X152000000Y-76200000D01*
X95341667Y-71600000D02*
X95541667Y-71400000D01*
X152600000Y-75600000D02*
X152200000Y-76200000D01*
X185800000Y-65600000D02*
X185800000Y-65400000D01*
X127100000Y-73000000D02*
X127700000Y-73200000D01*
X87790000Y-65400000D02*
X86790000Y-65400000D01*
X151400000Y-75800000D02*
X151000000Y-76200000D01*
X186800000Y-65400000D02*
X186800000Y-65600000D01*
X84790000Y-66600000D02*
X84390000Y-66200000D01*
X186200000Y-66800000D02*
X186400000Y-66800000D01*
X217000000Y-71600000D02*
X217800000Y-71400000D01*
X96741667Y-71000000D02*
X96341667Y-71600000D01*
X185400000Y-66200000D02*
X185000000Y-66800000D01*
X85190000Y-65400000D02*
X84990000Y-65200000D01*
X85190000Y-66400000D02*
X85190000Y-65400000D01*
X153400000Y-74800000D02*
X153400000Y-76200000D01*
X150800000Y-74800000D02*
X150600000Y-75000000D01*
X184000000Y-65400000D02*
X183600000Y-65400000D01*
X129500000Y-68800000D02*
X129700000Y-69000000D01*
X153000000Y-74800000D02*
X154000000Y-74800000D01*
X85590000Y-65200000D02*
X85590000Y-66400000D01*
X186488414Y-67607718D02*
X187000000Y-67600000D01*
X194400000Y-77800000D02*
X194600000Y-77600000D01*
X83390000Y-66800000D02*
X84190000Y-65400000D01*
X130300000Y-68400000D02*
X129900000Y-69000000D01*
X195200000Y-77800000D02*
X195600000Y-77800000D01*
X86390000Y-66000000D02*
X85990000Y-66600000D01*
X197200000Y-76600000D02*
X196200000Y-76600000D01*
X194000000Y-77800000D02*
X194400000Y-77800000D01*
X153800000Y-73600000D02*
X154400000Y-74400000D01*
X184000000Y-69800000D02*
X183200000Y-70400000D01*
X185400000Y-66600000D02*
X185400000Y-65400000D01*
X95141667Y-73000000D02*
X95941667Y-74200000D01*
X194600000Y-77400000D02*
X194200000Y-77800000D01*
X128300000Y-68000000D02*
X128700000Y-67600000D01*
X183400000Y-65800000D02*
X183800000Y-65400000D01*
X84390000Y-65400000D02*
X84390000Y-66400000D01*
X129100000Y-68600000D02*
X128700000Y-69000000D01*
X127700000Y-72800000D02*
X127100000Y-72400000D01*
X151200000Y-74800000D02*
X150800000Y-74800000D01*
X84390000Y-65600000D02*
X84790000Y-65200000D01*
X184200000Y-65800000D02*
X183800000Y-65400000D01*
X96341667Y-72000000D02*
X97341667Y-73400000D01*
X85990000Y-67600000D02*
X83990000Y-67400000D01*
X151800000Y-74800000D02*
X151800000Y-76000000D01*
X151200000Y-76200000D02*
X151400000Y-76000000D01*
X186200000Y-65400000D02*
X186200000Y-66800000D01*
X154600000Y-76400000D02*
X154200000Y-77200000D01*
X183400000Y-65600000D02*
X183400000Y-66600000D01*
X94741667Y-71400000D02*
X94941667Y-71600000D01*
X198000000Y-77400000D02*
X197400000Y-77400000D01*
X195800000Y-77600000D02*
X195800000Y-76400000D01*
X128700000Y-69000000D02*
X128300000Y-68600000D01*
X129100000Y-68800000D02*
X129100000Y-67800000D01*
X97741667Y-71600000D02*
X97741667Y-70200000D01*
X127700000Y-73200000D02*
X127300000Y-72800000D01*
X97141667Y-70400000D02*
X97141667Y-70200000D01*
X193800000Y-77600000D02*
X194000000Y-77800000D01*
X198600000Y-76200000D02*
X197000000Y-75200000D01*
X95941667Y-71400000D02*
X96141667Y-71600000D01*
X154200000Y-77200000D02*
X154800000Y-76800000D01*
X183800000Y-66800000D02*
X183400000Y-66400000D01*
X97741667Y-72400000D02*
X98541667Y-73800000D01*
X219600000Y-68200000D02*
X220000000Y-69600000D01*
X186400000Y-66800000D02*
X186400000Y-65400000D01*
X87190000Y-65200000D02*
X87190000Y-66600000D01*
X98541667Y-73800000D02*
X99341667Y-72800000D01*
X84990000Y-65200000D02*
X84590000Y-65200000D01*
X183600000Y-66800000D02*
X184000000Y-66800000D01*
X184200000Y-65600000D02*
X184000000Y-65400000D01*
X129100000Y-68000000D02*
X128700000Y-67600000D01*
X196200000Y-76400000D02*
X197200000Y-76400000D01*
X152600000Y-76000000D02*
X152600000Y-74800000D01*
X127100000Y-72000000D02*
X127900000Y-71800000D01*
X197200000Y-76400000D02*
X197200000Y-76600000D01*
X197200000Y-79200000D02*
X198000000Y-77400000D01*
X84190000Y-65400000D02*
X83190000Y-65400000D01*
X129700000Y-69000000D02*
X130100000Y-69000000D01*
X197400000Y-77400000D02*
X198400000Y-77000000D01*
X193800000Y-76600000D02*
X193800000Y-77600000D01*
X182600000Y-69600000D02*
X184800000Y-68400000D01*
X196600000Y-76400000D02*
X196600000Y-77800000D01*
X151400000Y-75000000D02*
X151200000Y-74800000D01*
X185800000Y-65400000D02*
X186800000Y-65400000D01*
X195600000Y-77800000D02*
X195800000Y-77600000D01*
X131100000Y-67600000D02*
X131100000Y-69000000D01*
X96141667Y-67600000D02*
X96941667Y-69800000D01*
X130700000Y-67800000D02*
X130700000Y-67600000D01*
X154800000Y-74200000D02*
X153800000Y-73600000D01*
X198400000Y-76600000D02*
X198000000Y-76400000D01*
X184600000Y-66600000D02*
X184800000Y-66800000D01*
X193800000Y-76800000D02*
X194200000Y-76400000D01*
X84590000Y-66600000D02*
X84990000Y-66600000D01*
X195800000Y-77200000D02*
X195400000Y-77800000D01*
X85190000Y-66200000D02*
X84790000Y-66600000D01*
X99341667Y-69800000D02*
X96141667Y-67600000D01*
X184800000Y-66800000D02*
X185200000Y-66800000D01*
X130100000Y-69000000D02*
X130300000Y-68800000D01*
X96541667Y-71600000D02*
X96741667Y-71400000D01*
X152000000Y-76200000D02*
X152400000Y-76200000D01*
X129100000Y-67800000D02*
X128900000Y-67600000D01*
X153400000Y-76200000D02*
X153600000Y-76200000D01*
X127900000Y-71800000D02*
X127300000Y-71600000D01*
X219000000Y-69400000D02*
X218200000Y-68400000D01*
X91741667Y-71600000D02*
X94741667Y-72200000D01*
X185000000Y-66800000D02*
X184600000Y-66200000D01*
X127500000Y-72200000D02*
X127100000Y-72000000D01*
X129500000Y-67600000D02*
X129500000Y-68800000D01*
X86190000Y-66600000D02*
X86390000Y-66400000D01*
X128300000Y-68800000D02*
X128500000Y-69000000D01*
X97141667Y-70200000D02*
X98141667Y-70200000D01*
X184000000Y-70800000D02*
X183200000Y-71000000D01*
X94741667Y-68800000D02*
X95141667Y-69600000D01*
X182800000Y-70000000D02*
X184000000Y-69800000D01*
X93941667Y-70000000D02*
X94541667Y-70200000D01*
X83990000Y-67400000D02*
X84190000Y-66800000D01*
X98141667Y-70200000D02*
X98141667Y-70400000D01*
X94941667Y-74000000D02*
X95141667Y-73000000D01*
X95541667Y-70600000D02*
X95141667Y-70200000D01*
X194000000Y-76400000D02*
X193800000Y-76600000D01*
X198800000Y-77600000D02*
X197200000Y-79200000D01*
X86390000Y-66400000D02*
X86390000Y-65200000D01*
X128500000Y-67600000D02*
X128300000Y-67800000D01*
X153600000Y-74200000D02*
X154800000Y-75200000D01*
X151400000Y-75200000D02*
X151000000Y-74800000D01*
X95341667Y-70200000D02*
X94941667Y-70200000D01*
X95541667Y-71400000D02*
X95541667Y-70400000D01*
X83190000Y-65400000D02*
X83790000Y-64800000D01*
X217200000Y-69000000D02*
X218000000Y-69600000D01*
X128500000Y-69000000D02*
X128900000Y-69000000D01*
X198400000Y-77000000D02*
X197600000Y-76800000D01*
X195400000Y-77800000D02*
X195000000Y-77200000D01*
X131700000Y-67600000D02*
X131700000Y-67800000D01*
X218600000Y-69400000D02*
X217200000Y-69000000D01*
X195000000Y-76400000D02*
X195000000Y-77600000D01*
X194600000Y-76800000D02*
X194200000Y-76400000D01*
X97341667Y-73400000D02*
X97741667Y-72400000D01*
X194400000Y-76400000D02*
X194000000Y-76400000D01*
X197000000Y-75200000D02*
X198800000Y-75600000D01*
X183200000Y-70400000D02*
X184000000Y-70800000D01*
X184800000Y-68400000D02*
X182800000Y-70000000D01*
X128300000Y-71000000D02*
X126900000Y-70800000D01*
X197000000Y-76000000D02*
X198600000Y-76200000D01*
X131700000Y-67800000D02*
X130700000Y-67800000D01*
X152400000Y-76200000D02*
X152600000Y-76000000D01*
X150800000Y-76200000D02*
X151200000Y-76200000D01*
X150600000Y-76000000D02*
X150800000Y-76200000D01*
X154000000Y-75000000D02*
X153000000Y-75000000D01*
X98141667Y-70400000D02*
X97141667Y-70400000D01*
X185200000Y-66800000D02*
X185400000Y-66600000D01*
X84190000Y-66800000D02*
X83390000Y-66800000D01*
X150600000Y-75000000D02*
X150600000Y-76000000D01*
X221000000Y-69400000D02*
X219600000Y-68200000D01*
X195000000Y-77600000D02*
X195200000Y-77800000D01*
X153000000Y-75000000D02*
X153000000Y-74800000D01*
X95541667Y-70400000D02*
X95341667Y-70200000D01*
X87790000Y-65200000D02*
X87790000Y-65400000D01*
X96341667Y-71600000D02*
X95941667Y-71000000D01*
X184200000Y-66600000D02*
X184200000Y-65600000D01*
X129900000Y-69000000D02*
X129500000Y-68400000D01*
X219200000Y-68800000D02*
X219000000Y-69400000D01*
X97541667Y-70200000D02*
X97541667Y-71600000D01*
X95541667Y-71200000D02*
X95141667Y-71600000D01*
X152200000Y-76200000D02*
X151800000Y-75600000D01*
X94941667Y-71600000D02*
X95341667Y-71600000D01*
X83190000Y-68200000D02*
X85990000Y-67600000D01*
X83790000Y-64800000D02*
X83190000Y-64600000D01*
X126900000Y-73200000D02*
X127700000Y-74000000D01*
X86790000Y-65200000D02*
X87790000Y-65200000D01*
X96141667Y-71600000D02*
X96541667Y-71600000D01*
X218200000Y-71600000D02*
X217000000Y-71600000D01*
X184600000Y-65400000D02*
X184600000Y-66600000D01*
X127300000Y-71600000D02*
X128300000Y-71000000D01*
X183400000Y-66600000D02*
X183600000Y-66800000D01*
X184000000Y-66800000D02*
X184200000Y-66600000D01*
X197600000Y-76800000D02*
X198400000Y-76600000D01*
X127700000Y-74000000D02*
X127100000Y-73000000D01*
X186800000Y-65600000D02*
X185800000Y-65600000D01*
X127300000Y-72800000D02*
X127700000Y-72800000D01*
X154600000Y-75600000D02*
X154000000Y-76400000D01*
X220000000Y-69600000D02*
X219200000Y-68800000D01*
X196600000Y-77800000D02*
X196800000Y-77800000D01*
X154000000Y-74800000D02*
X154000000Y-75000000D01*
X218200000Y-74000000D02*
X219400000Y-71600000D01*
X128900000Y-67600000D02*
X128500000Y-67600000D01*
X154000000Y-75400000D02*
X154600000Y-75600000D01*
X150600000Y-75200000D02*
X151000000Y-74800000D01*
X130700000Y-67600000D02*
X131700000Y-67600000D01*
X84390000Y-66400000D02*
X84590000Y-66600000D01*
X130300000Y-68800000D02*
X130300000Y-67600000D01*
X95941667Y-70200000D02*
X95941667Y-71400000D01*
X198000000Y-76400000D02*
X197000000Y-76000000D01*
X194600000Y-76600000D02*
X194400000Y-76400000D01*
X85790000Y-66600000D02*
X86190000Y-66600000D01*
X196200000Y-76600000D02*
X196200000Y-76400000D01*
X94941667Y-70200000D02*
X94741667Y-70400000D01*
X153600000Y-76200000D02*
X153600000Y-74800000D01*
X218200000Y-68400000D02*
X218600000Y-69400000D01*
X184400000Y-72600000D02*
X182600000Y-71000000D01*
X87390000Y-66600000D02*
X87390000Y-65200000D01*
X194600000Y-77600000D02*
X194600000Y-76600000D01*
X183200000Y-71000000D02*
X184400000Y-72600000D01*
X154400000Y-74400000D02*
X153600000Y-74200000D01*
X194200000Y-77800000D02*
X193800000Y-77400000D01*
X217600000Y-72200000D02*
X218200000Y-71600000D01*
X84990000Y-66600000D02*
X85190000Y-66400000D01*
X220800000Y-71400000D02*
X218200000Y-74000000D01*
X127100000Y-72400000D02*
X127500000Y-72200000D01*
X96941667Y-69800000D02*
X94741667Y-68800000D01*
X94741667Y-72200000D02*
X94941667Y-74000000D01*
X131100000Y-69000000D02*
X131300000Y-69000000D01*
X95141667Y-69600000D02*
X93941667Y-70000000D01*
X128300000Y-67800000D02*
X128300000Y-68800000D01*
X94741667Y-70600000D02*
X95141667Y-70200000D01*
X85990000Y-66600000D02*
X85590000Y-66000000D01*
X128900000Y-69000000D02*
X129100000Y-68800000D01*
X95141667Y-71600000D02*
X94741667Y-71200000D01*
X131300000Y-69000000D02*
X131300000Y-67600000D01*
X184200000Y-66400000D02*
X183800000Y-66800000D01*
X219400000Y-71600000D02*
X217600000Y-72200000D01*
X95941667Y-74200000D02*
X96341667Y-72000000D01*
X186488414Y-67607718D02*
X186200000Y-68000000D01*
X97541667Y-71600000D02*
X97741667Y-71600000D01*
X154000000Y-76400000D02*
X154600000Y-76400000D01*
X154800000Y-75200000D02*
X154000000Y-75400000D01*
X87190000Y-66600000D02*
X87390000Y-66600000D01*
X94741667Y-70400000D02*
X94741667Y-71400000D01*
X151400000Y-76000000D02*
X151400000Y-75000000D01*
X96741667Y-71400000D02*
X96741667Y-70200000D01*
X183600000Y-65400000D02*
X183400000Y-65600000D01*
D13*
X231000000Y-54000000D02*
X51000000Y-54000000D01*
X231000000Y-54000000D02*
X231000000Y-88000000D01*
X51000000Y-88000000D02*
X231000000Y-88000000D01*
X51000000Y-54000000D02*
X51000000Y-88000000D01*
D14*
X176380952Y-86452380D02*
X176380952Y-87166666D01*
X176333333Y-87309523D01*
X176238095Y-87404761D01*
X176095238Y-87452380D01*
X176000000Y-87452380D01*
X177333333Y-87452380D02*
X176857142Y-87452380D01*
X176857142Y-86452380D01*
X178238095Y-87357142D02*
X178190476Y-87404761D01*
X178047619Y-87452380D01*
X177952380Y-87452380D01*
X177809523Y-87404761D01*
X177714285Y-87309523D01*
X177666666Y-87214285D01*
X177619047Y-87023809D01*
X177619047Y-86880952D01*
X177666666Y-86690476D01*
X177714285Y-86595238D01*
X177809523Y-86500000D01*
X177952380Y-86452380D01*
X178047619Y-86452380D01*
X178190476Y-86500000D01*
X178238095Y-86547619D01*
X178952380Y-86452380D02*
X178952380Y-87166666D01*
X178904761Y-87309523D01*
X178809523Y-87404761D01*
X178666666Y-87452380D01*
X178571428Y-87452380D01*
X179904761Y-87452380D02*
X179428571Y-87452380D01*
X179428571Y-86452380D01*
X180809523Y-87357142D02*
X180761904Y-87404761D01*
X180619047Y-87452380D01*
X180523809Y-87452380D01*
X180380952Y-87404761D01*
X180285714Y-87309523D01*
X180238095Y-87214285D01*
X180190476Y-87023809D01*
X180190476Y-86880952D01*
X180238095Y-86690476D01*
X180285714Y-86595238D01*
X180380952Y-86500000D01*
X180523809Y-86452380D01*
X180619047Y-86452380D01*
X180761904Y-86500000D01*
X180809523Y-86547619D01*
X181523809Y-86452380D02*
X181523809Y-87166666D01*
X181476190Y-87309523D01*
X181380952Y-87404761D01*
X181238095Y-87452380D01*
X181142857Y-87452380D01*
X182476190Y-87452380D02*
X182000000Y-87452380D01*
X182000000Y-86452380D01*
X183380952Y-87357142D02*
X183333333Y-87404761D01*
X183190476Y-87452380D01*
X183095238Y-87452380D01*
X182952380Y-87404761D01*
X182857142Y-87309523D01*
X182809523Y-87214285D01*
X182761904Y-87023809D01*
X182761904Y-86880952D01*
X182809523Y-86690476D01*
X182857142Y-86595238D01*
X182952380Y-86500000D01*
X183095238Y-86452380D01*
X183190476Y-86452380D01*
X183333333Y-86500000D01*
X183380952Y-86547619D01*
X184095238Y-86452380D02*
X184095238Y-87166666D01*
X184047619Y-87309523D01*
X183952380Y-87404761D01*
X183809523Y-87452380D01*
X183714285Y-87452380D01*
X185047619Y-87452380D02*
X184571428Y-87452380D01*
X184571428Y-86452380D01*
X185952380Y-87357142D02*
X185904761Y-87404761D01*
X185761904Y-87452380D01*
X185666666Y-87452380D01*
X185523809Y-87404761D01*
X185428571Y-87309523D01*
X185380952Y-87214285D01*
X185333333Y-87023809D01*
X185333333Y-86880952D01*
X185380952Y-86690476D01*
X185428571Y-86595238D01*
X185523809Y-86500000D01*
X185666666Y-86452380D01*
X185761904Y-86452380D01*
X185904761Y-86500000D01*
X185952380Y-86547619D01*
D11*
X67071428Y-57678571D02*
X67071428Y-56178571D01*
X67428571Y-56178571D01*
X67642857Y-56250000D01*
X67785714Y-56392857D01*
X67857142Y-56535714D01*
X67928571Y-56821428D01*
X67928571Y-57035714D01*
X67857142Y-57321428D01*
X67785714Y-57464285D01*
X67642857Y-57607142D01*
X67428571Y-57678571D01*
X67071428Y-57678571D01*
X68571428Y-57678571D02*
X68571428Y-56678571D01*
X68571428Y-56178571D02*
X68500000Y-56250000D01*
X68571428Y-56321428D01*
X68642857Y-56250000D01*
X68571428Y-56178571D01*
X68571428Y-56321428D01*
X69214285Y-57607142D02*
X69357142Y-57678571D01*
X69642857Y-57678571D01*
X69785714Y-57607142D01*
X69857142Y-57464285D01*
X69857142Y-57392857D01*
X69785714Y-57250000D01*
X69642857Y-57178571D01*
X69428571Y-57178571D01*
X69285714Y-57107142D01*
X69214285Y-56964285D01*
X69214285Y-56892857D01*
X69285714Y-56750000D01*
X69428571Y-56678571D01*
X69642857Y-56678571D01*
X69785714Y-56750000D01*
X70285714Y-56678571D02*
X70857142Y-56678571D01*
X70500000Y-56178571D02*
X70500000Y-57464285D01*
X70571428Y-57607142D01*
X70714285Y-57678571D01*
X70857142Y-57678571D01*
X71357142Y-57678571D02*
X71357142Y-56678571D01*
X71357142Y-56964285D02*
X71428571Y-56821428D01*
X71500000Y-56750000D01*
X71642857Y-56678571D01*
X71785714Y-56678571D01*
X72285714Y-57678571D02*
X72285714Y-56678571D01*
X72285714Y-56178571D02*
X72214285Y-56250000D01*
X72285714Y-56321428D01*
X72357142Y-56250000D01*
X72285714Y-56178571D01*
X72285714Y-56321428D01*
X73000000Y-57678571D02*
X73000000Y-56178571D01*
X73000000Y-56750000D02*
X73142857Y-56678571D01*
X73428571Y-56678571D01*
X73571428Y-56750000D01*
X73642857Y-56821428D01*
X73714285Y-56964285D01*
X73714285Y-57392857D01*
X73642857Y-57535714D01*
X73571428Y-57607142D01*
X73428571Y-57678571D01*
X73142857Y-57678571D01*
X73000000Y-57607142D01*
X75000000Y-56678571D02*
X75000000Y-57678571D01*
X74357142Y-56678571D02*
X74357142Y-57464285D01*
X74428571Y-57607142D01*
X74571428Y-57678571D01*
X74785714Y-57678571D01*
X74928571Y-57607142D01*
X75000000Y-57535714D01*
X75500000Y-56678571D02*
X76071428Y-56678571D01*
X75714285Y-56178571D02*
X75714285Y-57464285D01*
X75785714Y-57607142D01*
X75928571Y-57678571D01*
X76071428Y-57678571D01*
X76571428Y-57678571D02*
X76571428Y-56678571D01*
X76571428Y-56178571D02*
X76500000Y-56250000D01*
X76571428Y-56321428D01*
X76642857Y-56250000D01*
X76571428Y-56178571D01*
X76571428Y-56321428D01*
X77500000Y-57678571D02*
X77357142Y-57607142D01*
X77285714Y-57535714D01*
X77214285Y-57392857D01*
X77214285Y-56964285D01*
X77285714Y-56821428D01*
X77357142Y-56750000D01*
X77500000Y-56678571D01*
X77714285Y-56678571D01*
X77857142Y-56750000D01*
X77928571Y-56821428D01*
X78000000Y-56964285D01*
X78000000Y-57392857D01*
X77928571Y-57535714D01*
X77857142Y-57607142D01*
X77714285Y-57678571D01*
X77500000Y-57678571D01*
X78642857Y-56678571D02*
X78642857Y-57678571D01*
X78642857Y-56821428D02*
X78714285Y-56750000D01*
X78857142Y-56678571D01*
X79071428Y-56678571D01*
X79214285Y-56750000D01*
X79285714Y-56892857D01*
X79285714Y-57678571D01*
X81642857Y-56892857D02*
X81857142Y-56964285D01*
X81928571Y-57035714D01*
X82000000Y-57178571D01*
X82000000Y-57392857D01*
X81928571Y-57535714D01*
X81857142Y-57607142D01*
X81714285Y-57678571D01*
X81142857Y-57678571D01*
X81142857Y-56178571D01*
X81642857Y-56178571D01*
X81785714Y-56250000D01*
X81857142Y-56321428D01*
X81928571Y-56464285D01*
X81928571Y-56607142D01*
X81857142Y-56750000D01*
X81785714Y-56821428D01*
X81642857Y-56892857D01*
X81142857Y-56892857D01*
X82857142Y-57678571D02*
X82714285Y-57607142D01*
X82642857Y-57535714D01*
X82571428Y-57392857D01*
X82571428Y-56964285D01*
X82642857Y-56821428D01*
X82714285Y-56750000D01*
X82857142Y-56678571D01*
X83071428Y-56678571D01*
X83214285Y-56750000D01*
X83285714Y-56821428D01*
X83357142Y-56964285D01*
X83357142Y-57392857D01*
X83285714Y-57535714D01*
X83214285Y-57607142D01*
X83071428Y-57678571D01*
X82857142Y-57678571D01*
X84642857Y-57678571D02*
X84642857Y-56892857D01*
X84571428Y-56750000D01*
X84428571Y-56678571D01*
X84142857Y-56678571D01*
X84000000Y-56750000D01*
X84642857Y-57607142D02*
X84500000Y-57678571D01*
X84142857Y-57678571D01*
X84000000Y-57607142D01*
X83928571Y-57464285D01*
X83928571Y-57321428D01*
X84000000Y-57178571D01*
X84142857Y-57107142D01*
X84500000Y-57107142D01*
X84642857Y-57035714D01*
X85357142Y-57678571D02*
X85357142Y-56678571D01*
X85357142Y-56964285D02*
X85428571Y-56821428D01*
X85500000Y-56750000D01*
X85642857Y-56678571D01*
X85785714Y-56678571D01*
X86928571Y-57678571D02*
X86928571Y-56178571D01*
X86928571Y-57607142D02*
X86785714Y-57678571D01*
X86500000Y-57678571D01*
X86357142Y-57607142D01*
X86285714Y-57535714D01*
X86214285Y-57392857D01*
X86214285Y-56964285D01*
X86285714Y-56821428D01*
X86357142Y-56750000D01*
X86500000Y-56678571D01*
X86785714Y-56678571D01*
X86928571Y-56750000D01*
X88357142Y-79607142D02*
X89500000Y-79607142D01*
X91000000Y-80178571D02*
X90142857Y-80178571D01*
X90571428Y-80178571D02*
X90571428Y-78678571D01*
X90428571Y-78892857D01*
X90285714Y-79035714D01*
X90142857Y-79107142D01*
X91571428Y-78821428D02*
X91642857Y-78750000D01*
X91785714Y-78678571D01*
X92142857Y-78678571D01*
X92285714Y-78750000D01*
X92357142Y-78821428D01*
X92428571Y-78964285D01*
X92428571Y-79107142D01*
X92357142Y-79321428D01*
X91500000Y-80178571D01*
X92428571Y-80178571D01*
X92857142Y-78678571D02*
X93357142Y-80178571D01*
X93857142Y-78678571D01*
X174857142Y-59678571D02*
X174000000Y-59678571D01*
X174428571Y-59678571D02*
X174428571Y-58178571D01*
X174285714Y-58392857D01*
X174142857Y-58535714D01*
X174000000Y-58607142D01*
X175500000Y-59535714D02*
X175571428Y-59607142D01*
X175500000Y-59678571D01*
X175428571Y-59607142D01*
X175500000Y-59535714D01*
X175500000Y-59678571D01*
X176928571Y-58178571D02*
X176214285Y-58178571D01*
X176142857Y-58892857D01*
X176214285Y-58821428D01*
X176357142Y-58750000D01*
X176714285Y-58750000D01*
X176857142Y-58821428D01*
X176928571Y-58892857D01*
X177000000Y-59035714D01*
X177000000Y-59392857D01*
X176928571Y-59535714D01*
X176857142Y-59607142D01*
X176714285Y-59678571D01*
X176357142Y-59678571D01*
X176214285Y-59607142D01*
X176142857Y-59535714D01*
X177571428Y-59250000D02*
X178285714Y-59250000D01*
X177428571Y-59678571D02*
X177928571Y-58178571D01*
X178428571Y-59678571D01*
X180071428Y-59678571D02*
X180071428Y-58178571D01*
X180571428Y-59250000D01*
X181071428Y-58178571D01*
X181071428Y-59678571D01*
X181714285Y-59250000D02*
X182428571Y-59250000D01*
X181571428Y-59678571D02*
X182071428Y-58178571D01*
X182571428Y-59678571D01*
X182928571Y-58178571D02*
X183928571Y-59678571D01*
X183928571Y-58178571D02*
X182928571Y-59678571D01*
X184500000Y-59535714D02*
X184571428Y-59607142D01*
X184500000Y-59678571D01*
X184428571Y-59607142D01*
X184500000Y-59535714D01*
X184500000Y-59678571D01*
X184500000Y-59107142D02*
X184428571Y-58250000D01*
X184500000Y-58178571D01*
X184571428Y-58250000D01*
X184500000Y-59107142D01*
X184500000Y-58178571D01*
X185214285Y-59535714D02*
X185285714Y-59607142D01*
X185214285Y-59678571D01*
X185142857Y-59607142D01*
X185214285Y-59535714D01*
X185214285Y-59678571D01*
X185214285Y-59107142D02*
X185142857Y-58250000D01*
X185214285Y-58178571D01*
X185285714Y-58250000D01*
X185214285Y-59107142D01*
X185214285Y-58178571D01*
X185928571Y-59535714D02*
X186000000Y-59607142D01*
X185928571Y-59678571D01*
X185857142Y-59607142D01*
X185928571Y-59535714D01*
X185928571Y-59678571D01*
X185928571Y-59107142D02*
X185857142Y-58250000D01*
X185928571Y-58178571D01*
X186000000Y-58250000D01*
X185928571Y-59107142D01*
X185928571Y-58178571D01*
X88357142Y-62607142D02*
X89500000Y-62607142D01*
X88928571Y-63178571D02*
X88928571Y-62035714D01*
X91000000Y-63178571D02*
X90142857Y-63178571D01*
X90571428Y-63178571D02*
X90571428Y-61678571D01*
X90428571Y-61892857D01*
X90285714Y-62035714D01*
X90142857Y-62107142D01*
X91571428Y-61821428D02*
X91642857Y-61750000D01*
X91785714Y-61678571D01*
X92142857Y-61678571D01*
X92285714Y-61750000D01*
X92357142Y-61821428D01*
X92428571Y-61964285D01*
X92428571Y-62107142D01*
X92357142Y-62321428D01*
X91500000Y-63178571D01*
X92428571Y-63178571D01*
X92857142Y-61678571D02*
X93357142Y-63178571D01*
X93857142Y-61678571D01*
D14*
X140166666Y-64452380D02*
X140166666Y-65166666D01*
X140119047Y-65309523D01*
X140023809Y-65404761D01*
X139880952Y-65452380D01*
X139785714Y-65452380D01*
X141166666Y-65452380D02*
X140595238Y-65452380D01*
X140880952Y-65452380D02*
X140880952Y-64452380D01*
X140785714Y-64595238D01*
X140690476Y-64690476D01*
X140595238Y-64738095D01*
X132288446Y-85107142D02*
X132240827Y-85154761D01*
X132097970Y-85202380D01*
X132002732Y-85202380D01*
X131859874Y-85154761D01*
X131764636Y-85059523D01*
X131717017Y-84964285D01*
X131669398Y-84773809D01*
X131669398Y-84630952D01*
X131717017Y-84440476D01*
X131764636Y-84345238D01*
X131859874Y-84250000D01*
X132002732Y-84202380D01*
X132097970Y-84202380D01*
X132240827Y-84250000D01*
X132288446Y-84297619D01*
X132669398Y-84297619D02*
X132717017Y-84250000D01*
X132812255Y-84202380D01*
X133050351Y-84202380D01*
X133145589Y-84250000D01*
X133193208Y-84297619D01*
X133240827Y-84392857D01*
X133240827Y-84488095D01*
X133193208Y-84630952D01*
X132621779Y-85202380D01*
X133240827Y-85202380D01*
X148378221Y-78107142D02*
X148330602Y-78154761D01*
X148187745Y-78202380D01*
X148092507Y-78202380D01*
X147949649Y-78154761D01*
X147854411Y-78059523D01*
X147806792Y-77964285D01*
X147759173Y-77773809D01*
X147759173Y-77630952D01*
X147806792Y-77440476D01*
X147854411Y-77345238D01*
X147949649Y-77250000D01*
X148092507Y-77202380D01*
X148187745Y-77202380D01*
X148330602Y-77250000D01*
X148378221Y-77297619D01*
X149330602Y-78202380D02*
X148759173Y-78202380D01*
X149044888Y-78202380D02*
X149044888Y-77202380D01*
X148949649Y-77345238D01*
X148854411Y-77440476D01*
X148759173Y-77488095D01*
X111531904Y-55492380D02*
X111531904Y-54492380D01*
X111770000Y-54492380D01*
X111912857Y-54540000D01*
X112008095Y-54635238D01*
X112055714Y-54730476D01*
X112103333Y-54920952D01*
X112103333Y-55063809D01*
X112055714Y-55254285D01*
X112008095Y-55349523D01*
X111912857Y-55444761D01*
X111770000Y-55492380D01*
X111531904Y-55492380D01*
X113055714Y-55492380D02*
X112484285Y-55492380D01*
X112770000Y-55492380D02*
X112770000Y-54492380D01*
X112674761Y-54635238D01*
X112579523Y-54730476D01*
X112484285Y-54778095D01*
X179396666Y-77782380D02*
X179396666Y-78496666D01*
X179349047Y-78639523D01*
X179253809Y-78734761D01*
X179110952Y-78782380D01*
X179015714Y-78782380D01*
X179825238Y-77877619D02*
X179872857Y-77830000D01*
X179968095Y-77782380D01*
X180206190Y-77782380D01*
X180301428Y-77830000D01*
X180349047Y-77877619D01*
X180396666Y-77972857D01*
X180396666Y-78068095D01*
X180349047Y-78210952D01*
X179777619Y-78782380D01*
X180396666Y-78782380D01*
X201396666Y-77782380D02*
X201396666Y-78496666D01*
X201349047Y-78639523D01*
X201253809Y-78734761D01*
X201110952Y-78782380D01*
X201015714Y-78782380D01*
X201777619Y-77782380D02*
X202396666Y-77782380D01*
X202063333Y-78163333D01*
X202206190Y-78163333D01*
X202301428Y-78210952D01*
X202349047Y-78258571D01*
X202396666Y-78353809D01*
X202396666Y-78591904D01*
X202349047Y-78687142D01*
X202301428Y-78734761D01*
X202206190Y-78782380D01*
X201920476Y-78782380D01*
X201825238Y-78734761D01*
X201777619Y-78687142D01*
X123896666Y-77782380D02*
X123896666Y-78496666D01*
X123849047Y-78639523D01*
X123753809Y-78734761D01*
X123610952Y-78782380D01*
X123515714Y-78782380D01*
X124801428Y-78115714D02*
X124801428Y-78782380D01*
X124563333Y-77734761D02*
X124325238Y-78449047D01*
X124944285Y-78449047D01*
X157396666Y-77782380D02*
X157396666Y-78496666D01*
X157349047Y-78639523D01*
X157253809Y-78734761D01*
X157110952Y-78782380D01*
X157015714Y-78782380D01*
X158349047Y-77782380D02*
X157872857Y-77782380D01*
X157825238Y-78258571D01*
X157872857Y-78210952D01*
X157968095Y-78163333D01*
X158206190Y-78163333D01*
X158301428Y-78210952D01*
X158349047Y-78258571D01*
X158396666Y-78353809D01*
X158396666Y-78591904D01*
X158349047Y-78687142D01*
X158301428Y-78734761D01*
X158206190Y-78782380D01*
X157968095Y-78782380D01*
X157872857Y-78734761D01*
X157825238Y-78687142D01*
X101896666Y-77782380D02*
X101896666Y-78496666D01*
X101849047Y-78639523D01*
X101753809Y-78734761D01*
X101610952Y-78782380D01*
X101515714Y-78782380D01*
X102801428Y-77782380D02*
X102610952Y-77782380D01*
X102515714Y-77830000D01*
X102468095Y-77877619D01*
X102372857Y-78020476D01*
X102325238Y-78210952D01*
X102325238Y-78591904D01*
X102372857Y-78687142D01*
X102420476Y-78734761D01*
X102515714Y-78782380D01*
X102706190Y-78782380D01*
X102801428Y-78734761D01*
X102849047Y-78687142D01*
X102896666Y-78591904D01*
X102896666Y-78353809D01*
X102849047Y-78258571D01*
X102801428Y-78210952D01*
X102706190Y-78163333D01*
X102515714Y-78163333D01*
X102420476Y-78210952D01*
X102372857Y-78258571D01*
X102325238Y-78353809D01*
X223396666Y-77782380D02*
X223396666Y-78496666D01*
X223349047Y-78639523D01*
X223253809Y-78734761D01*
X223110952Y-78782380D01*
X223015714Y-78782380D01*
X223777619Y-77782380D02*
X224444285Y-77782380D01*
X224015714Y-78782380D01*
X124108333Y-56732380D02*
X123775000Y-56256190D01*
X123536904Y-56732380D02*
X123536904Y-55732380D01*
X123917857Y-55732380D01*
X124013095Y-55780000D01*
X124060714Y-55827619D01*
X124108333Y-55922857D01*
X124108333Y-56065714D01*
X124060714Y-56160952D01*
X124013095Y-56208571D01*
X123917857Y-56256190D01*
X123536904Y-56256190D01*
X125060714Y-56732380D02*
X124489285Y-56732380D01*
X124775000Y-56732380D02*
X124775000Y-55732380D01*
X124679761Y-55875238D01*
X124584523Y-55970476D01*
X124489285Y-56018095D01*
X139238095Y-72952380D02*
X139809523Y-72952380D01*
X139523809Y-73952380D02*
X139523809Y-72952380D01*
X140142857Y-73952380D02*
X140142857Y-72952380D01*
X140523809Y-72952380D01*
X140619047Y-73000000D01*
X140666666Y-73047619D01*
X140714285Y-73142857D01*
X140714285Y-73285714D01*
X140666666Y-73380952D01*
X140619047Y-73428571D01*
X140523809Y-73476190D01*
X140142857Y-73476190D01*
X141095238Y-73047619D02*
X141142857Y-73000000D01*
X141238095Y-72952380D01*
X141476190Y-72952380D01*
X141571428Y-73000000D01*
X141619047Y-73047619D01*
X141666666Y-73142857D01*
X141666666Y-73238095D01*
X141619047Y-73380952D01*
X141047619Y-73952380D01*
X141666666Y-73952380D01*
X144238095Y-72952380D02*
X144809523Y-72952380D01*
X144523809Y-73952380D02*
X144523809Y-72952380D01*
X145142857Y-73952380D02*
X145142857Y-72952380D01*
X145523809Y-72952380D01*
X145619047Y-73000000D01*
X145666666Y-73047619D01*
X145714285Y-73142857D01*
X145714285Y-73285714D01*
X145666666Y-73380952D01*
X145619047Y-73428571D01*
X145523809Y-73476190D01*
X145142857Y-73476190D01*
X146047619Y-72952380D02*
X146666666Y-72952380D01*
X146333333Y-73333333D01*
X146476190Y-73333333D01*
X146571428Y-73380952D01*
X146619047Y-73428571D01*
X146666666Y-73523809D01*
X146666666Y-73761904D01*
X146619047Y-73857142D01*
X146571428Y-73904761D01*
X146476190Y-73952380D01*
X146190476Y-73952380D01*
X146095238Y-73904761D01*
X146047619Y-73857142D01*
X57896666Y-62852380D02*
X57896666Y-63566666D01*
X57849047Y-63709523D01*
X57753809Y-63804761D01*
X57610952Y-63852380D01*
X57515714Y-63852380D01*
X58420476Y-63852380D02*
X58610952Y-63852380D01*
X58706190Y-63804761D01*
X58753809Y-63757142D01*
X58849047Y-63614285D01*
X58896666Y-63423809D01*
X58896666Y-63042857D01*
X58849047Y-62947619D01*
X58801428Y-62900000D01*
X58706190Y-62852380D01*
X58515714Y-62852380D01*
X58420476Y-62900000D01*
X58372857Y-62947619D01*
X58325238Y-63042857D01*
X58325238Y-63280952D01*
X58372857Y-63376190D01*
X58420476Y-63423809D01*
X58515714Y-63471428D01*
X58706190Y-63471428D01*
X58801428Y-63423809D01*
X58849047Y-63376190D01*
X58896666Y-63280952D01*
X134238095Y-73112380D02*
X134809523Y-73112380D01*
X134523809Y-74112380D02*
X134523809Y-73112380D01*
X135142857Y-74112380D02*
X135142857Y-73112380D01*
X135523809Y-73112380D01*
X135619047Y-73160000D01*
X135666666Y-73207619D01*
X135714285Y-73302857D01*
X135714285Y-73445714D01*
X135666666Y-73540952D01*
X135619047Y-73588571D01*
X135523809Y-73636190D01*
X135142857Y-73636190D01*
X136666666Y-74112380D02*
X136095238Y-74112380D01*
X136380952Y-74112380D02*
X136380952Y-73112380D01*
X136285714Y-73255238D01*
X136190476Y-73350476D01*
X136095238Y-73398095D01*
X152031904Y-55492380D02*
X152031904Y-54492380D01*
X152270000Y-54492380D01*
X152412857Y-54540000D01*
X152508095Y-54635238D01*
X152555714Y-54730476D01*
X152603333Y-54920952D01*
X152603333Y-55063809D01*
X152555714Y-55254285D01*
X152508095Y-55349523D01*
X152412857Y-55444761D01*
X152270000Y-55492380D01*
X152031904Y-55492380D01*
X152984285Y-54587619D02*
X153031904Y-54540000D01*
X153127142Y-54492380D01*
X153365238Y-54492380D01*
X153460476Y-54540000D01*
X153508095Y-54587619D01*
X153555714Y-54682857D01*
X153555714Y-54778095D01*
X153508095Y-54920952D01*
X152936666Y-55492380D01*
X153555714Y-55492380D01*
X79896666Y-77782380D02*
X79896666Y-78496666D01*
X79849047Y-78639523D01*
X79753809Y-78734761D01*
X79610952Y-78782380D01*
X79515714Y-78782380D01*
X80515714Y-78210952D02*
X80420476Y-78163333D01*
X80372857Y-78115714D01*
X80325238Y-78020476D01*
X80325238Y-77972857D01*
X80372857Y-77877619D01*
X80420476Y-77830000D01*
X80515714Y-77782380D01*
X80706190Y-77782380D01*
X80801428Y-77830000D01*
X80849047Y-77877619D01*
X80896666Y-77972857D01*
X80896666Y-78020476D01*
X80849047Y-78115714D01*
X80801428Y-78163333D01*
X80706190Y-78210952D01*
X80515714Y-78210952D01*
X80420476Y-78258571D01*
X80372857Y-78306190D01*
X80325238Y-78401428D01*
X80325238Y-78591904D01*
X80372857Y-78687142D01*
X80420476Y-78734761D01*
X80515714Y-78782380D01*
X80706190Y-78782380D01*
X80801428Y-78734761D01*
X80849047Y-78687142D01*
X80896666Y-78591904D01*
X80896666Y-78401428D01*
X80849047Y-78306190D01*
X80801428Y-78258571D01*
X80706190Y-78210952D01*
X164833333Y-62172380D02*
X164500000Y-61696190D01*
X164261904Y-62172380D02*
X164261904Y-61172380D01*
X164642857Y-61172380D01*
X164738095Y-61220000D01*
X164785714Y-61267619D01*
X164833333Y-61362857D01*
X164833333Y-61505714D01*
X164785714Y-61600952D01*
X164738095Y-61648571D01*
X164642857Y-61696190D01*
X164261904Y-61696190D01*
X165214285Y-61267619D02*
X165261904Y-61220000D01*
X165357142Y-61172380D01*
X165595238Y-61172380D01*
X165690476Y-61220000D01*
X165738095Y-61267619D01*
X165785714Y-61362857D01*
X165785714Y-61458095D01*
X165738095Y-61600952D01*
X165166666Y-62172380D01*
X165785714Y-62172380D01*
D12*
X132880000Y-63810000D02*
X132880000Y-56190000D01*
X132880000Y-63810000D02*
X148120000Y-63810000D01*
X132880000Y-62540000D02*
X148120000Y-62540000D01*
X148120000Y-63810000D02*
X148120000Y-56190000D01*
X132880000Y-56190000D02*
X148120000Y-56190000D01*
X130454113Y-79960000D02*
X130454113Y-79347000D01*
X131134113Y-79960000D02*
X131134113Y-78776000D01*
X132255113Y-79960000D02*
X132255113Y-78427000D01*
X131214113Y-83268000D02*
X131214113Y-82040000D01*
X131334113Y-83329000D02*
X131334113Y-82040000D01*
X131294113Y-83310000D02*
X131294113Y-82040000D01*
X130774113Y-82971000D02*
X130774113Y-82040000D01*
X130494113Y-79960000D02*
X130494113Y-79301000D01*
X130814113Y-79960000D02*
X130814113Y-78996000D01*
X132295113Y-83576000D02*
X132295113Y-82040000D01*
X130894113Y-83065000D02*
X130894113Y-82040000D01*
X132415113Y-79960000D02*
X132415113Y-78420000D01*
X131734113Y-79960000D02*
X131734113Y-78520000D01*
X131574113Y-83428000D02*
X131574113Y-82040000D01*
X131534113Y-83414000D02*
X131534113Y-82040000D01*
X130694113Y-82901000D02*
X130694113Y-82040000D01*
X131855113Y-83511000D02*
X131855113Y-82040000D01*
X132215113Y-79960000D02*
X132215113Y-78431000D01*
X131614113Y-79960000D02*
X131614113Y-78558000D01*
X131895113Y-79960000D02*
X131895113Y-78480000D01*
X131174113Y-79960000D02*
X131174113Y-78753000D01*
X131054113Y-79960000D02*
X131054113Y-78825000D01*
X132335113Y-79960000D02*
X132335113Y-78422000D01*
X131935113Y-83528000D02*
X131935113Y-82040000D01*
X131014113Y-83149000D02*
X131014113Y-82040000D01*
X130614113Y-82826000D02*
X130614113Y-82040000D01*
X130454113Y-82653000D02*
X130454113Y-82040000D01*
X131414113Y-79960000D02*
X131414113Y-78635000D01*
X132455113Y-83580000D02*
X132455113Y-82040000D01*
X132135113Y-83561000D02*
X132135113Y-82040000D01*
X131414113Y-83365000D02*
X131414113Y-82040000D01*
X131975113Y-83536000D02*
X131975113Y-82040000D01*
X129974113Y-81805000D02*
X129974113Y-80195000D01*
X130174113Y-82251000D02*
X130174113Y-79749000D01*
X130334113Y-82500000D02*
X130334113Y-79500000D01*
X132095113Y-79960000D02*
X132095113Y-78444000D01*
X131374113Y-79960000D02*
X131374113Y-78652000D01*
X129934113Y-81677000D02*
X129934113Y-80323000D01*
X130894113Y-79960000D02*
X130894113Y-78935000D01*
X130934113Y-79960000D02*
X130934113Y-78905000D01*
X131694113Y-83468000D02*
X131694113Y-82040000D01*
X131454113Y-79960000D02*
X131454113Y-78618000D01*
X131574113Y-79960000D02*
X131574113Y-78572000D01*
X131374113Y-83348000D02*
X131374113Y-82040000D01*
X131214113Y-79960000D02*
X131214113Y-78732000D01*
X130574113Y-82785000D02*
X130574113Y-82040000D01*
X130934113Y-83095000D02*
X130934113Y-82040000D01*
X132135113Y-79960000D02*
X132135113Y-78439000D01*
X131534113Y-79960000D02*
X131534113Y-78586000D01*
X131494113Y-79960000D02*
X131494113Y-78602000D01*
X132295113Y-79960000D02*
X132295113Y-78424000D01*
X131454113Y-83382000D02*
X131454113Y-82040000D01*
X131775113Y-83491000D02*
X131775113Y-82040000D01*
X130054113Y-82011000D02*
X130054113Y-79989000D01*
X130374113Y-82554000D02*
X130374113Y-79446000D01*
X130014113Y-81915000D02*
X130014113Y-80085000D01*
X135259888Y-82475000D02*
X134759888Y-82475000D01*
X132455113Y-79960000D02*
X132455113Y-78420000D01*
X131654113Y-83455000D02*
X131654113Y-82040000D01*
X130974113Y-83122000D02*
X130974113Y-82040000D01*
X131254113Y-79960000D02*
X131254113Y-78710000D01*
X131094113Y-83200000D02*
X131094113Y-82040000D01*
X130654113Y-82864000D02*
X130654113Y-82040000D01*
X130534113Y-79960000D02*
X130534113Y-79257000D01*
X130094113Y-82098000D02*
X130094113Y-79902000D01*
X132335113Y-83578000D02*
X132335113Y-82040000D01*
X132175113Y-83565000D02*
X132175113Y-82040000D01*
X132375113Y-83579000D02*
X132375113Y-82040000D01*
X132255113Y-83573000D02*
X132255113Y-82040000D01*
X130654113Y-79960000D02*
X130654113Y-79136000D01*
X131334113Y-79960000D02*
X131334113Y-78671000D01*
X129894113Y-81518000D02*
X129894113Y-80482000D01*
X129854113Y-81284000D02*
X129854113Y-80716000D01*
X131855113Y-79960000D02*
X131855113Y-78489000D01*
X130734113Y-79960000D02*
X130734113Y-79063000D01*
X131294113Y-79960000D02*
X131294113Y-78690000D01*
X132055113Y-79960000D02*
X132055113Y-78450000D01*
X130214113Y-82319000D02*
X130214113Y-79681000D01*
X130254113Y-82383000D02*
X130254113Y-79617000D01*
X131494113Y-83398000D02*
X131494113Y-82040000D01*
X131174113Y-83247000D02*
X131174113Y-82040000D01*
X130134113Y-82178000D02*
X130134113Y-79822000D01*
X131094113Y-79960000D02*
X131094113Y-78800000D01*
X130534113Y-82743000D02*
X130534113Y-82040000D01*
X130854113Y-83035000D02*
X130854113Y-82040000D01*
X130414113Y-82605000D02*
X130414113Y-79395000D01*
X130974113Y-79960000D02*
X130974113Y-78878000D01*
X131694113Y-79960000D02*
X131694113Y-78532000D01*
X131935113Y-79960000D02*
X131935113Y-78472000D01*
X131614113Y-83442000D02*
X131614113Y-82040000D01*
X132095113Y-83556000D02*
X132095113Y-82040000D01*
X132015113Y-79960000D02*
X132015113Y-78457000D01*
X130294113Y-82443000D02*
X130294113Y-79557000D01*
X130614113Y-79960000D02*
X130614113Y-79174000D01*
X131654113Y-79960000D02*
X131654113Y-78545000D01*
X132175113Y-79960000D02*
X132175113Y-78435000D01*
X132375113Y-79960000D02*
X132375113Y-78421000D01*
X131775113Y-79960000D02*
X131775113Y-78509000D01*
X130574113Y-79960000D02*
X130574113Y-79215000D01*
X131734113Y-83480000D02*
X131734113Y-82040000D01*
X130814113Y-83004000D02*
X130814113Y-82040000D01*
X131014113Y-79960000D02*
X131014113Y-78851000D01*
X131054113Y-83175000D02*
X131054113Y-82040000D01*
X131254113Y-83290000D02*
X131254113Y-82040000D01*
X132215113Y-83569000D02*
X132215113Y-82040000D01*
X130734113Y-82937000D02*
X130734113Y-82040000D01*
X132015113Y-83543000D02*
X132015113Y-82040000D01*
X131815113Y-79960000D02*
X131815113Y-78499000D01*
X131134113Y-83224000D02*
X131134113Y-82040000D01*
X135009888Y-82725000D02*
X135009888Y-82225000D01*
X132055113Y-83550000D02*
X132055113Y-82040000D01*
X130774113Y-79960000D02*
X130774113Y-79029000D01*
X131975113Y-79960000D02*
X131975113Y-78464000D01*
X131895113Y-83520000D02*
X131895113Y-82040000D01*
X130854113Y-79960000D02*
X130854113Y-78965000D01*
X130694113Y-79960000D02*
X130694113Y-79099000D01*
X132415113Y-83580000D02*
X132415113Y-82040000D01*
X131815113Y-83501000D02*
X131815113Y-82040000D01*
X130494113Y-82699000D02*
X130494113Y-82040000D01*
X135075113Y-81000000D02*
G75*
G03*
X135075113Y-81000000I-2620000J0D01*
G01*
X150545888Y-82540000D02*
X150545888Y-83153000D01*
X149865888Y-82540000D02*
X149865888Y-83724000D01*
X148744888Y-82540000D02*
X148744888Y-84073000D01*
X149785888Y-79232000D02*
X149785888Y-80460000D01*
X149665888Y-79171000D02*
X149665888Y-80460000D01*
X149705888Y-79190000D02*
X149705888Y-80460000D01*
X150225888Y-79529000D02*
X150225888Y-80460000D01*
X150505888Y-82540000D02*
X150505888Y-83199000D01*
X150185888Y-82540000D02*
X150185888Y-83504000D01*
X148704888Y-78924000D02*
X148704888Y-80460000D01*
X150105888Y-79435000D02*
X150105888Y-80460000D01*
X148584888Y-82540000D02*
X148584888Y-84080000D01*
X149265888Y-82540000D02*
X149265888Y-83980000D01*
X149425888Y-79072000D02*
X149425888Y-80460000D01*
X149465888Y-79086000D02*
X149465888Y-80460000D01*
X150305888Y-79599000D02*
X150305888Y-80460000D01*
X149144888Y-78989000D02*
X149144888Y-80460000D01*
X148784888Y-82540000D02*
X148784888Y-84069000D01*
X149385888Y-82540000D02*
X149385888Y-83942000D01*
X149104888Y-82540000D02*
X149104888Y-84020000D01*
X149825888Y-82540000D02*
X149825888Y-83747000D01*
X149945888Y-82540000D02*
X149945888Y-83675000D01*
X148664888Y-82540000D02*
X148664888Y-84078000D01*
X149064888Y-78972000D02*
X149064888Y-80460000D01*
X149985888Y-79351000D02*
X149985888Y-80460000D01*
X150385888Y-79674000D02*
X150385888Y-80460000D01*
X150545888Y-79847000D02*
X150545888Y-80460000D01*
X149585888Y-82540000D02*
X149585888Y-83865000D01*
X148544888Y-78920000D02*
X148544888Y-80460000D01*
X148864888Y-78939000D02*
X148864888Y-80460000D01*
X149585888Y-79135000D02*
X149585888Y-80460000D01*
X149024888Y-78964000D02*
X149024888Y-80460000D01*
X151025888Y-80695000D02*
X151025888Y-82305000D01*
X150825888Y-80249000D02*
X150825888Y-82751000D01*
X150665888Y-80000000D02*
X150665888Y-83000000D01*
X148904888Y-82540000D02*
X148904888Y-84056000D01*
X149625888Y-82540000D02*
X149625888Y-83848000D01*
X151065888Y-80823000D02*
X151065888Y-82177000D01*
X150105888Y-82540000D02*
X150105888Y-83565000D01*
X150065888Y-82540000D02*
X150065888Y-83595000D01*
X149305888Y-79032000D02*
X149305888Y-80460000D01*
X149545888Y-82540000D02*
X149545888Y-83882000D01*
X149425888Y-82540000D02*
X149425888Y-83928000D01*
X149625888Y-79152000D02*
X149625888Y-80460000D01*
X149785888Y-82540000D02*
X149785888Y-83768000D01*
X150425888Y-79715000D02*
X150425888Y-80460000D01*
X150065888Y-79405000D02*
X150065888Y-80460000D01*
X148864888Y-82540000D02*
X148864888Y-84061000D01*
X149465888Y-82540000D02*
X149465888Y-83914000D01*
X149505888Y-82540000D02*
X149505888Y-83898000D01*
X148704888Y-82540000D02*
X148704888Y-84076000D01*
X149545888Y-79118000D02*
X149545888Y-80460000D01*
X149224888Y-79009000D02*
X149224888Y-80460000D01*
X150945888Y-80489000D02*
X150945888Y-82511000D01*
X150625888Y-79946000D02*
X150625888Y-83054000D01*
X150985888Y-80585000D02*
X150985888Y-82415000D01*
X145740113Y-80025000D02*
X146240113Y-80025000D01*
X148544888Y-82540000D02*
X148544888Y-84080000D01*
X149345888Y-79045000D02*
X149345888Y-80460000D01*
X150025888Y-79378000D02*
X150025888Y-80460000D01*
X149745888Y-82540000D02*
X149745888Y-83790000D01*
X149905888Y-79300000D02*
X149905888Y-80460000D01*
X150345888Y-79636000D02*
X150345888Y-80460000D01*
X150465888Y-82540000D02*
X150465888Y-83243000D01*
X150905888Y-80402000D02*
X150905888Y-82598000D01*
X148664888Y-78922000D02*
X148664888Y-80460000D01*
X148824888Y-78935000D02*
X148824888Y-80460000D01*
X148624888Y-78921000D02*
X148624888Y-80460000D01*
X148744888Y-78927000D02*
X148744888Y-80460000D01*
X150345888Y-82540000D02*
X150345888Y-83364000D01*
X149665888Y-82540000D02*
X149665888Y-83829000D01*
X151105888Y-80982000D02*
X151105888Y-82018000D01*
X151145888Y-81216000D02*
X151145888Y-81784000D01*
X149144888Y-82540000D02*
X149144888Y-84011000D01*
X150265888Y-82540000D02*
X150265888Y-83437000D01*
X149705888Y-82540000D02*
X149705888Y-83810000D01*
X148944888Y-82540000D02*
X148944888Y-84050000D01*
X150785888Y-80181000D02*
X150785888Y-82819000D01*
X150745888Y-80117000D02*
X150745888Y-82883000D01*
X149505888Y-79102000D02*
X149505888Y-80460000D01*
X149825888Y-79253000D02*
X149825888Y-80460000D01*
X150865888Y-80322000D02*
X150865888Y-82678000D01*
X149905888Y-82540000D02*
X149905888Y-83700000D01*
X150465888Y-79757000D02*
X150465888Y-80460000D01*
X150145888Y-79465000D02*
X150145888Y-80460000D01*
X150585888Y-79895000D02*
X150585888Y-83105000D01*
X150025888Y-82540000D02*
X150025888Y-83622000D01*
X149305888Y-82540000D02*
X149305888Y-83968000D01*
X149064888Y-82540000D02*
X149064888Y-84028000D01*
X149385888Y-79058000D02*
X149385888Y-80460000D01*
X148904888Y-78944000D02*
X148904888Y-80460000D01*
X148984888Y-82540000D02*
X148984888Y-84043000D01*
X150705888Y-80057000D02*
X150705888Y-82943000D01*
X150385888Y-82540000D02*
X150385888Y-83326000D01*
X149345888Y-82540000D02*
X149345888Y-83955000D01*
X148824888Y-82540000D02*
X148824888Y-84065000D01*
X148624888Y-82540000D02*
X148624888Y-84079000D01*
X149224888Y-82540000D02*
X149224888Y-83991000D01*
X150425888Y-82540000D02*
X150425888Y-83285000D01*
X149265888Y-79020000D02*
X149265888Y-80460000D01*
X150185888Y-79496000D02*
X150185888Y-80460000D01*
X149985888Y-82540000D02*
X149985888Y-83649000D01*
X149945888Y-79325000D02*
X149945888Y-80460000D01*
X149745888Y-79210000D02*
X149745888Y-80460000D01*
X148784888Y-78931000D02*
X148784888Y-80460000D01*
X150265888Y-79563000D02*
X150265888Y-80460000D01*
X148984888Y-78957000D02*
X148984888Y-80460000D01*
X149184888Y-82540000D02*
X149184888Y-84001000D01*
X149865888Y-79276000D02*
X149865888Y-80460000D01*
X145990113Y-79775000D02*
X145990113Y-80275000D01*
X148944888Y-78950000D02*
X148944888Y-80460000D01*
X150225888Y-82540000D02*
X150225888Y-83471000D01*
X149024888Y-82540000D02*
X149024888Y-84036000D01*
X149104888Y-78980000D02*
X149104888Y-80460000D01*
X150145888Y-82540000D02*
X150145888Y-83535000D01*
X150305888Y-82540000D02*
X150305888Y-83401000D01*
X148584888Y-78920000D02*
X148584888Y-80460000D01*
X149184888Y-78999000D02*
X149184888Y-80460000D01*
X150505888Y-79801000D02*
X150505888Y-80460000D01*
X151164888Y-81500000D02*
G75*
G03*
X151164888Y-81500000I-2620000J0D01*
G01*
X114770000Y-59000000D02*
G75*
G03*
X114770000Y-59000000I-2500000J0D01*
G01*
X109710000Y-60544830D02*
G75*
G03*
X115260000Y-58999538I2560000J1544830D01*
G01*
X115260000Y-59000462D02*
G75*
G03*
X109710000Y-57455170I-2990000J462D01*
G01*
X109710000Y-57455000D02*
X109710000Y-60545000D01*
X177130000Y-77330000D02*
X177130000Y-64510000D01*
X179730000Y-77330000D02*
X177130000Y-77330000D01*
X182330000Y-74730000D02*
X179730000Y-74730000D01*
X182330000Y-77330000D02*
X181000000Y-77330000D01*
X179730000Y-74730000D02*
X179730000Y-77330000D01*
X182330000Y-74730000D02*
X182330000Y-64510000D01*
X182330000Y-64510000D02*
X177130000Y-64510000D01*
X182330000Y-76000000D02*
X182330000Y-77330000D01*
X204330000Y-77330000D02*
X203000000Y-77330000D01*
X201730000Y-74730000D02*
X201730000Y-77330000D01*
X204330000Y-76000000D02*
X204330000Y-77330000D01*
X199130000Y-77330000D02*
X199130000Y-64510000D01*
X201730000Y-77330000D02*
X199130000Y-77330000D01*
X204330000Y-64510000D02*
X199130000Y-64510000D01*
X204330000Y-74730000D02*
X204330000Y-64510000D01*
X204330000Y-74730000D02*
X201730000Y-74730000D01*
X126830000Y-64510000D02*
X121630000Y-64510000D01*
X126830000Y-77330000D02*
X125500000Y-77330000D01*
X126830000Y-76000000D02*
X126830000Y-77330000D01*
X121630000Y-77330000D02*
X121630000Y-64510000D01*
X124230000Y-74730000D02*
X124230000Y-77330000D01*
X124230000Y-77330000D02*
X121630000Y-77330000D01*
X126830000Y-74730000D02*
X124230000Y-74730000D01*
X126830000Y-74730000D02*
X126830000Y-64510000D01*
X160330000Y-76000000D02*
X160330000Y-77330000D01*
X160330000Y-74730000D02*
X160330000Y-64510000D01*
X155130000Y-77330000D02*
X155130000Y-64510000D01*
X157730000Y-77330000D02*
X155130000Y-77330000D01*
X160330000Y-77330000D02*
X159000000Y-77330000D01*
X160330000Y-64510000D02*
X155130000Y-64510000D01*
X160330000Y-74730000D02*
X157730000Y-74730000D01*
X157730000Y-74730000D02*
X157730000Y-77330000D01*
X102230000Y-74730000D02*
X102230000Y-77330000D01*
X104830000Y-74730000D02*
X102230000Y-74730000D01*
X102230000Y-77330000D02*
X99630000Y-77330000D01*
X104830000Y-76000000D02*
X104830000Y-77330000D01*
X104830000Y-64510000D02*
X99630000Y-64510000D01*
X104830000Y-74730000D02*
X104830000Y-64510000D01*
X99630000Y-77330000D02*
X99630000Y-64510000D01*
X104830000Y-77330000D02*
X103500000Y-77330000D01*
X226330000Y-77330000D02*
X225000000Y-77330000D01*
X226330000Y-74730000D02*
X223730000Y-74730000D01*
X226330000Y-64510000D02*
X221130000Y-64510000D01*
X226330000Y-76000000D02*
X226330000Y-77330000D01*
X221130000Y-77330000D02*
X221130000Y-64510000D01*
X223730000Y-74730000D02*
X223730000Y-77330000D01*
X226330000Y-74730000D02*
X226330000Y-64510000D01*
X223730000Y-77330000D02*
X221130000Y-77330000D01*
X118965000Y-59000000D02*
X119655000Y-59000000D01*
X119655000Y-57280000D02*
X119655000Y-60720000D01*
X128895000Y-60720000D02*
X128895000Y-57280000D01*
X119655000Y-60720000D02*
X128895000Y-60720000D01*
X128895000Y-57280000D02*
X119655000Y-57280000D01*
X129585000Y-59000000D02*
X128895000Y-59000000D01*
D14*
X141900000Y-70500000D02*
G75*
G03*
X141900000Y-70500000I-1400000J0D01*
G01*
X146900000Y-70500000D02*
G75*
G03*
X146900000Y-70500000I-1400000J0D01*
G01*
D12*
X60830000Y-64510000D02*
X55630000Y-64510000D01*
X60830000Y-76000000D02*
X60830000Y-77330000D01*
X60830000Y-74730000D02*
X60830000Y-64510000D01*
X58230000Y-77330000D02*
X55630000Y-77330000D01*
X55630000Y-77330000D02*
X55630000Y-64510000D01*
X60830000Y-74730000D02*
X58230000Y-74730000D01*
X58230000Y-74730000D02*
X58230000Y-77330000D01*
X60830000Y-77330000D02*
X59500000Y-77330000D01*
D14*
X136900000Y-70500000D02*
G75*
G03*
X136900000Y-70500000I-1400000J0D01*
G01*
D12*
X155270000Y-59000000D02*
G75*
G03*
X155270000Y-59000000I-2500000J0D01*
G01*
X155760000Y-59000462D02*
G75*
G03*
X150210000Y-57455170I-2990000J462D01*
G01*
X150210000Y-60544830D02*
G75*
G03*
X155760000Y-58999538I2560000J1544830D01*
G01*
X150210000Y-57455000D02*
X150210000Y-60545000D01*
X80230000Y-77330000D02*
X77630000Y-77330000D01*
X82830000Y-77330000D02*
X81500000Y-77330000D01*
X82830000Y-74730000D02*
X82830000Y-64510000D01*
X82830000Y-64510000D02*
X77630000Y-64510000D01*
X80230000Y-74730000D02*
X80230000Y-77330000D01*
X82830000Y-74730000D02*
X80230000Y-74730000D01*
X82830000Y-76000000D02*
X82830000Y-77330000D01*
X77630000Y-77330000D02*
X77630000Y-64510000D01*
X159690000Y-59000000D02*
X160380000Y-59000000D01*
X169620000Y-60720000D02*
X169620000Y-57280000D01*
X169620000Y-57280000D02*
X160380000Y-57280000D01*
X160380000Y-57280000D02*
X160380000Y-60720000D01*
X170310000Y-59000000D02*
X169620000Y-59000000D01*
X160380000Y-60720000D02*
X169620000Y-60720000D01*
%LPC*%
D15*
X145580000Y-60000000D03*
X140500000Y-60000000D03*
D16*
X135420000Y-60000000D03*
D17*
X133455113Y-81000000D03*
D18*
X131455113Y-81000000D03*
D17*
X147544888Y-81500000D03*
D18*
X149544888Y-81500000D03*
D19*
X113540000Y-59000000D03*
D20*
X111000000Y-59000000D03*
D21*
X181000000Y-76000000D03*
D22*
X178460000Y-76000000D03*
X181000000Y-73460000D03*
X178460000Y-73460000D03*
X181000000Y-70920000D03*
X178460000Y-70920000D03*
X181000000Y-68380000D03*
X178460000Y-68380000D03*
X181000000Y-65840000D03*
X178460000Y-65840000D03*
D21*
X203000000Y-76000000D03*
D22*
X200460000Y-76000000D03*
X203000000Y-73460000D03*
X200460000Y-73460000D03*
X203000000Y-70920000D03*
X200460000Y-70920000D03*
X203000000Y-68380000D03*
X200460000Y-68380000D03*
X203000000Y-65840000D03*
X200460000Y-65840000D03*
D21*
X125500000Y-76000000D03*
D22*
X122960000Y-76000000D03*
X125500000Y-73460000D03*
X122960000Y-73460000D03*
X125500000Y-70920000D03*
X122960000Y-70920000D03*
X125500000Y-68380000D03*
X122960000Y-68380000D03*
X125500000Y-65840000D03*
X122960000Y-65840000D03*
D21*
X159000000Y-76000000D03*
D22*
X156460000Y-76000000D03*
X159000000Y-73460000D03*
X156460000Y-73460000D03*
X159000000Y-70920000D03*
X156460000Y-70920000D03*
X159000000Y-68380000D03*
X156460000Y-68380000D03*
X159000000Y-65840000D03*
X156460000Y-65840000D03*
D21*
X103500000Y-76000000D03*
D22*
X100960000Y-76000000D03*
X103500000Y-73460000D03*
X100960000Y-73460000D03*
X103500000Y-70920000D03*
X100960000Y-70920000D03*
X103500000Y-68380000D03*
X100960000Y-68380000D03*
X103500000Y-65840000D03*
X100960000Y-65840000D03*
D21*
X225000000Y-76000000D03*
D22*
X222460000Y-76000000D03*
X225000000Y-73460000D03*
X222460000Y-73460000D03*
X225000000Y-70920000D03*
X222460000Y-70920000D03*
X225000000Y-68380000D03*
X222460000Y-68380000D03*
X225000000Y-65840000D03*
X222460000Y-65840000D03*
D23*
X130625000Y-59000000D03*
D18*
X117925000Y-59000000D03*
D24*
X140500000Y-70500000D03*
X145500000Y-70500000D03*
D21*
X59500000Y-76000000D03*
D22*
X56960000Y-76000000D03*
X59500000Y-73460000D03*
X56960000Y-73460000D03*
X59500000Y-70920000D03*
X56960000Y-70920000D03*
X59500000Y-68380000D03*
X56960000Y-68380000D03*
X59500000Y-65840000D03*
X56960000Y-65840000D03*
D24*
X135500000Y-70500000D03*
D19*
X154040000Y-59000000D03*
D20*
X151500000Y-59000000D03*
D21*
X81500000Y-76000000D03*
D22*
X78960000Y-76000000D03*
X81500000Y-73460000D03*
X78960000Y-73460000D03*
X81500000Y-70920000D03*
X78960000Y-70920000D03*
X81500000Y-68380000D03*
X78960000Y-68380000D03*
X81500000Y-65840000D03*
X78960000Y-65840000D03*
D23*
X158650000Y-59000000D03*
D18*
X171350000Y-59000000D03*
M02*
