G04 #@! TF.GenerationSoftware,KiCad,Pcbnew,(5.1.9)-1*
G04 #@! TF.CreationDate,2021-10-01T15:00:59+02:00*
G04 #@! TF.ProjectId,Distrib,44697374-7269-4622-9e6b-696361645f70,rev?*
G04 #@! TF.SameCoordinates,Original*
G04 #@! TF.FileFunction,Legend,Top*
G04 #@! TF.FilePolarity,Positive*
%FSLAX46Y46*%
G04 Gerber Fmt 4.6, Leading zero omitted, Abs format (unit mm)*
G04 Created by KiCad (PCBNEW (5.1.9)-1) date 2021-10-01 15:00:59*
%MOMM*%
%LPD*%
G01*
G04 APERTURE LIST*
%ADD10C,0.120000*%
%ADD11C,0.300000*%
%ADD12C,0.150000*%
%ADD13C,2.000000*%
%ADD14O,1.600000X1.600000*%
%ADD15C,1.600000*%
%ADD16O,1.700000X1.700000*%
%ADD17R,1.700000X1.700000*%
%ADD18C,1.800000*%
%ADD19R,1.800000X1.800000*%
%ADD20R,1.600000X1.600000*%
G04 APERTURE END LIST*
D10*
X184400000Y-72600000D02*
X182600000Y-71000000D01*
X183200000Y-71000000D02*
X184400000Y-72600000D01*
X184000000Y-70800000D02*
X183200000Y-71000000D01*
X183200000Y-70400000D02*
X184000000Y-70800000D01*
X184000000Y-69800000D02*
X183200000Y-70400000D01*
X182800000Y-70000000D02*
X184000000Y-69800000D01*
X184800000Y-68400000D02*
X182800000Y-70000000D01*
X182600000Y-69600000D02*
X184800000Y-68400000D01*
X186488414Y-67607718D02*
X187000000Y-67600000D01*
X186488414Y-67607718D02*
X186200000Y-68000000D01*
X186488414Y-67607718D02*
G75*
G02*
X184200000Y-70200000I-1488414J-992282D01*
G01*
X197000000Y-75200000D02*
X198800000Y-75600000D01*
X198600000Y-76200000D02*
X197000000Y-75200000D01*
X197000000Y-76000000D02*
X198600000Y-76200000D01*
X198000000Y-76400000D02*
X197000000Y-76000000D01*
X198400000Y-76600000D02*
X198000000Y-76400000D01*
X197600000Y-76800000D02*
X198400000Y-76600000D01*
X198400000Y-77000000D02*
X197600000Y-76800000D01*
X197400000Y-77400000D02*
X198400000Y-77000000D01*
X198000000Y-77400000D02*
X197400000Y-77400000D01*
X197200000Y-79200000D02*
X198000000Y-77400000D01*
X198800000Y-77600000D02*
X197200000Y-79200000D01*
X217200000Y-69000000D02*
X218000000Y-69600000D01*
X218600000Y-69400000D02*
X217200000Y-69000000D01*
X218200000Y-68400000D02*
X218600000Y-69400000D01*
X219000000Y-69400000D02*
X218200000Y-68400000D01*
X219200000Y-68800000D02*
X219000000Y-69400000D01*
X220000000Y-69600000D02*
X219200000Y-68800000D01*
X219600000Y-68200000D02*
X220000000Y-69600000D01*
X221000000Y-69400000D02*
X219600000Y-68200000D01*
X217000000Y-71600000D02*
X217800000Y-71400000D01*
X218200000Y-71600000D02*
X217000000Y-71600000D01*
X217600000Y-72200000D02*
X218200000Y-71600000D01*
X219400000Y-71600000D02*
X217600000Y-72200000D01*
X218200000Y-74000000D02*
X219400000Y-71600000D01*
X220800000Y-71400000D02*
X218200000Y-74000000D01*
X154200000Y-77200000D02*
X154800000Y-76800000D01*
X154600000Y-76400000D02*
X154200000Y-77200000D01*
X154000000Y-76400000D02*
X154600000Y-76400000D01*
X154600000Y-75600000D02*
X154000000Y-76400000D01*
X154000000Y-75400000D02*
X154600000Y-75600000D01*
X154800000Y-75200000D02*
X154000000Y-75400000D01*
X153600000Y-74200000D02*
X154800000Y-75200000D01*
X154400000Y-74400000D02*
X153600000Y-74200000D01*
X153800000Y-73600000D02*
X154400000Y-74400000D01*
X154800000Y-74200000D02*
X153800000Y-73600000D01*
X139800000Y-71000000D02*
X138400000Y-70800000D01*
X138800000Y-71600000D02*
X139800000Y-71000000D01*
X139400000Y-71800000D02*
X138800000Y-71600000D01*
X138600000Y-72000000D02*
X139400000Y-71800000D01*
X139000000Y-72200000D02*
X138600000Y-72000000D01*
X138600000Y-72400000D02*
X139000000Y-72200000D01*
X139200000Y-72800000D02*
X138600000Y-72400000D01*
X138800000Y-72800000D02*
X139200000Y-72800000D01*
X139200000Y-73200000D02*
X138800000Y-72800000D01*
X138600000Y-73000000D02*
X139200000Y-73200000D01*
X139200000Y-74000000D02*
X138600000Y-73000000D01*
X138400000Y-73200000D02*
X139200000Y-74000000D01*
X141600000Y-70000000D02*
X141400000Y-70200000D01*
X141600000Y-70000000D02*
X141800000Y-70200000D01*
X141600000Y-70000000D02*
G75*
G02*
X139200000Y-72400000I-2400000J0D01*
G01*
X109800000Y-73800000D02*
X110600000Y-72800000D01*
X109000000Y-72400000D02*
X109800000Y-73800000D01*
X108600000Y-73400000D02*
X109000000Y-72400000D01*
X107600000Y-72000000D02*
X108600000Y-73400000D01*
X107200000Y-74200000D02*
X107600000Y-72000000D01*
X106400000Y-73000000D02*
X107200000Y-74200000D01*
X106200000Y-74000000D02*
X106400000Y-73000000D01*
X106000000Y-72200000D02*
X106200000Y-74000000D01*
X103000000Y-71600000D02*
X106000000Y-72200000D01*
X105800000Y-70200000D02*
X103000000Y-71600000D01*
X105200000Y-70000000D02*
X105800000Y-70200000D01*
X106400000Y-69600000D02*
X105200000Y-70000000D01*
X106000000Y-68800000D02*
X106400000Y-69600000D01*
X108200000Y-69800000D02*
X106000000Y-68800000D01*
X107400000Y-67600000D02*
X108200000Y-69800000D01*
X110600000Y-69800000D02*
X107400000Y-67600000D01*
X95000000Y-64800000D02*
X94400000Y-64600000D01*
X94400000Y-65400000D02*
X95000000Y-64800000D01*
X95400000Y-65400000D02*
X94400000Y-65400000D01*
X94600000Y-66800000D02*
X95400000Y-65400000D01*
X95400000Y-66800000D02*
X94600000Y-66800000D01*
X95200000Y-67400000D02*
X95400000Y-66800000D01*
X97200000Y-67600000D02*
X95200000Y-67400000D01*
X94400000Y-68200000D02*
X97200000Y-67600000D01*
X219000000Y-70600000D02*
X218600000Y-71200000D01*
X217600000Y-71200000D02*
X217800000Y-71000000D01*
X219000000Y-71000000D02*
X219000000Y-69800000D01*
X217400000Y-71200000D02*
X217000000Y-70800000D01*
X217000000Y-70200000D02*
X217400000Y-69800000D01*
X218800000Y-71200000D02*
X219000000Y-71000000D01*
X218600000Y-71200000D02*
X218200000Y-70600000D01*
X218400000Y-71200000D02*
X218800000Y-71200000D01*
X217800000Y-71000000D02*
X217800000Y-70000000D01*
X218200000Y-69800000D02*
X218200000Y-71000000D01*
X217800000Y-70800000D02*
X217400000Y-71200000D01*
X217800000Y-70200000D02*
X217400000Y-69800000D01*
X217200000Y-69800000D02*
X217000000Y-70000000D01*
X217800000Y-70000000D02*
X217600000Y-69800000D01*
X217600000Y-69800000D02*
X217200000Y-69800000D01*
X217000000Y-70000000D02*
X217000000Y-71000000D01*
X219800000Y-69800000D02*
X219800000Y-71200000D01*
X220400000Y-70000000D02*
X219400000Y-70000000D01*
X220400000Y-69800000D02*
X220400000Y-70000000D01*
X218200000Y-71000000D02*
X218400000Y-71200000D01*
X217200000Y-71200000D02*
X217600000Y-71200000D01*
X217000000Y-71000000D02*
X217200000Y-71200000D01*
X219400000Y-69800000D02*
X220400000Y-69800000D01*
X219400000Y-70000000D02*
X219400000Y-69800000D01*
X220000000Y-71200000D02*
X220000000Y-69800000D01*
X219800000Y-71200000D02*
X220000000Y-71200000D01*
X195800000Y-77200000D02*
X195400000Y-77800000D01*
X194400000Y-77800000D02*
X194600000Y-77600000D01*
X195800000Y-77600000D02*
X195800000Y-76400000D01*
X194200000Y-77800000D02*
X193800000Y-77400000D01*
X193800000Y-76800000D02*
X194200000Y-76400000D01*
X195600000Y-77800000D02*
X195800000Y-77600000D01*
X195400000Y-77800000D02*
X195000000Y-77200000D01*
X195200000Y-77800000D02*
X195600000Y-77800000D01*
X194600000Y-77600000D02*
X194600000Y-76600000D01*
X195000000Y-76400000D02*
X195000000Y-77600000D01*
X194600000Y-77400000D02*
X194200000Y-77800000D01*
X194600000Y-76800000D02*
X194200000Y-76400000D01*
X194000000Y-76400000D02*
X193800000Y-76600000D01*
X194600000Y-76600000D02*
X194400000Y-76400000D01*
X194400000Y-76400000D02*
X194000000Y-76400000D01*
X193800000Y-76600000D02*
X193800000Y-77600000D01*
X196600000Y-76400000D02*
X196600000Y-77800000D01*
X197200000Y-76600000D02*
X196200000Y-76600000D01*
X197200000Y-76400000D02*
X197200000Y-76600000D01*
X195000000Y-77600000D02*
X195200000Y-77800000D01*
X194000000Y-77800000D02*
X194400000Y-77800000D01*
X193800000Y-77600000D02*
X194000000Y-77800000D01*
X196200000Y-76400000D02*
X197200000Y-76400000D01*
X196200000Y-76600000D02*
X196200000Y-76400000D01*
X196800000Y-77800000D02*
X196800000Y-76400000D01*
X196600000Y-77800000D02*
X196800000Y-77800000D01*
X185400000Y-66200000D02*
X185000000Y-66800000D01*
X184000000Y-66800000D02*
X184200000Y-66600000D01*
X185400000Y-66600000D02*
X185400000Y-65400000D01*
X183800000Y-66800000D02*
X183400000Y-66400000D01*
X183400000Y-65800000D02*
X183800000Y-65400000D01*
X185200000Y-66800000D02*
X185400000Y-66600000D01*
X185000000Y-66800000D02*
X184600000Y-66200000D01*
X184800000Y-66800000D02*
X185200000Y-66800000D01*
X184200000Y-66600000D02*
X184200000Y-65600000D01*
X184600000Y-65400000D02*
X184600000Y-66600000D01*
X184200000Y-66400000D02*
X183800000Y-66800000D01*
X184200000Y-65800000D02*
X183800000Y-65400000D01*
X183600000Y-65400000D02*
X183400000Y-65600000D01*
X184200000Y-65600000D02*
X184000000Y-65400000D01*
X184000000Y-65400000D02*
X183600000Y-65400000D01*
X183400000Y-65600000D02*
X183400000Y-66600000D01*
X186200000Y-65400000D02*
X186200000Y-66800000D01*
X186800000Y-65600000D02*
X185800000Y-65600000D01*
X186800000Y-65400000D02*
X186800000Y-65600000D01*
X184600000Y-66600000D02*
X184800000Y-66800000D01*
X183600000Y-66800000D02*
X184000000Y-66800000D01*
X183400000Y-66600000D02*
X183600000Y-66800000D01*
X185800000Y-65400000D02*
X186800000Y-65400000D01*
X185800000Y-65600000D02*
X185800000Y-65400000D01*
X186400000Y-66800000D02*
X186400000Y-65400000D01*
X186200000Y-66800000D02*
X186400000Y-66800000D01*
X152600000Y-75600000D02*
X152200000Y-76200000D01*
X151200000Y-76200000D02*
X151400000Y-76000000D01*
X152600000Y-76000000D02*
X152600000Y-74800000D01*
X151000000Y-76200000D02*
X150600000Y-75800000D01*
X150600000Y-75200000D02*
X151000000Y-74800000D01*
X152400000Y-76200000D02*
X152600000Y-76000000D01*
X152200000Y-76200000D02*
X151800000Y-75600000D01*
X152000000Y-76200000D02*
X152400000Y-76200000D01*
X151400000Y-76000000D02*
X151400000Y-75000000D01*
X151800000Y-74800000D02*
X151800000Y-76000000D01*
X151400000Y-75800000D02*
X151000000Y-76200000D01*
X151400000Y-75200000D02*
X151000000Y-74800000D01*
X150800000Y-74800000D02*
X150600000Y-75000000D01*
X151400000Y-75000000D02*
X151200000Y-74800000D01*
X151200000Y-74800000D02*
X150800000Y-74800000D01*
X150600000Y-75000000D02*
X150600000Y-76000000D01*
X153400000Y-74800000D02*
X153400000Y-76200000D01*
X154000000Y-75000000D02*
X153000000Y-75000000D01*
X154000000Y-74800000D02*
X154000000Y-75000000D01*
X151800000Y-76000000D02*
X152000000Y-76200000D01*
X150800000Y-76200000D02*
X151200000Y-76200000D01*
X150600000Y-76000000D02*
X150800000Y-76200000D01*
X153000000Y-74800000D02*
X154000000Y-74800000D01*
X153000000Y-75000000D02*
X153000000Y-74800000D01*
X153600000Y-76200000D02*
X153600000Y-74800000D01*
X153400000Y-76200000D02*
X153600000Y-76200000D01*
X141800000Y-68400000D02*
X141400000Y-69000000D01*
X140400000Y-69000000D02*
X140600000Y-68800000D01*
X141800000Y-68800000D02*
X141800000Y-67600000D01*
X140200000Y-69000000D02*
X139800000Y-68600000D01*
X139800000Y-68000000D02*
X140200000Y-67600000D01*
X141600000Y-69000000D02*
X141800000Y-68800000D01*
X141400000Y-69000000D02*
X141000000Y-68400000D01*
X141200000Y-69000000D02*
X141600000Y-69000000D01*
X140600000Y-68800000D02*
X140600000Y-67800000D01*
X141000000Y-67600000D02*
X141000000Y-68800000D01*
X140600000Y-68600000D02*
X140200000Y-69000000D01*
X140600000Y-68000000D02*
X140200000Y-67600000D01*
X140000000Y-67600000D02*
X139800000Y-67800000D01*
X140600000Y-67800000D02*
X140400000Y-67600000D01*
X140400000Y-67600000D02*
X140000000Y-67600000D01*
X139800000Y-67800000D02*
X139800000Y-68800000D01*
X142600000Y-67600000D02*
X142600000Y-69000000D01*
X143200000Y-67800000D02*
X142200000Y-67800000D01*
X143200000Y-67600000D02*
X143200000Y-67800000D01*
X141000000Y-68800000D02*
X141200000Y-69000000D01*
X140000000Y-69000000D02*
X140400000Y-69000000D01*
X139800000Y-68800000D02*
X140000000Y-69000000D01*
X142200000Y-67600000D02*
X143200000Y-67600000D01*
X142200000Y-67800000D02*
X142200000Y-67600000D01*
X142800000Y-69000000D02*
X142800000Y-67600000D01*
X142600000Y-69000000D02*
X142800000Y-69000000D01*
X108000000Y-71000000D02*
X107600000Y-71600000D01*
X106600000Y-71600000D02*
X106800000Y-71400000D01*
X108000000Y-71400000D02*
X108000000Y-70200000D01*
X106400000Y-71600000D02*
X106000000Y-71200000D01*
X106000000Y-70600000D02*
X106400000Y-70200000D01*
X107800000Y-71600000D02*
X108000000Y-71400000D01*
X107600000Y-71600000D02*
X107200000Y-71000000D01*
X107400000Y-71600000D02*
X107800000Y-71600000D01*
X106800000Y-71400000D02*
X106800000Y-70400000D01*
X107200000Y-70200000D02*
X107200000Y-71400000D01*
X106800000Y-71200000D02*
X106400000Y-71600000D01*
X106800000Y-70600000D02*
X106400000Y-70200000D01*
X106200000Y-70200000D02*
X106000000Y-70400000D01*
X106800000Y-70400000D02*
X106600000Y-70200000D01*
X106600000Y-70200000D02*
X106200000Y-70200000D01*
X106000000Y-70400000D02*
X106000000Y-71400000D01*
X108800000Y-70200000D02*
X108800000Y-71600000D01*
X109400000Y-70400000D02*
X108400000Y-70400000D01*
X109400000Y-70200000D02*
X109400000Y-70400000D01*
X107200000Y-71400000D02*
X107400000Y-71600000D01*
X106200000Y-71600000D02*
X106600000Y-71600000D01*
X106000000Y-71400000D02*
X106200000Y-71600000D01*
X108400000Y-70200000D02*
X109400000Y-70200000D01*
X108400000Y-70400000D02*
X108400000Y-70200000D01*
X109000000Y-71600000D02*
X109000000Y-70200000D01*
X108800000Y-71600000D02*
X109000000Y-71600000D01*
X98600000Y-66600000D02*
X98600000Y-65200000D01*
X98400000Y-66600000D02*
X98600000Y-66600000D01*
X98400000Y-65200000D02*
X98400000Y-66600000D01*
X98000000Y-65400000D02*
X98000000Y-65200000D01*
X99000000Y-65400000D02*
X98000000Y-65400000D01*
X99000000Y-65200000D02*
X99000000Y-65400000D01*
X98000000Y-65200000D02*
X99000000Y-65200000D01*
X97200000Y-66600000D02*
X96800000Y-66000000D01*
X97600000Y-66000000D02*
X97200000Y-66600000D01*
X97600000Y-66400000D02*
X97600000Y-65200000D01*
X97400000Y-66600000D02*
X97600000Y-66400000D01*
X97000000Y-66600000D02*
X97400000Y-66600000D01*
X96800000Y-66400000D02*
X97000000Y-66600000D01*
X96800000Y-65200000D02*
X96800000Y-66400000D01*
X96000000Y-66600000D02*
X95600000Y-66200000D01*
X96400000Y-66200000D02*
X96000000Y-66600000D01*
X96400000Y-65600000D02*
X96000000Y-65200000D01*
X95600000Y-65600000D02*
X96000000Y-65200000D01*
X95800000Y-65200000D02*
X95600000Y-65400000D01*
X96200000Y-65200000D02*
X95800000Y-65200000D01*
X96400000Y-65400000D02*
X96200000Y-65200000D01*
X96400000Y-66400000D02*
X96400000Y-65400000D01*
X96200000Y-66600000D02*
X96400000Y-66400000D01*
X95800000Y-66600000D02*
X96200000Y-66600000D01*
X95600000Y-66400000D02*
X95800000Y-66600000D01*
X95600000Y-65400000D02*
X95600000Y-66400000D01*
X66800000Y-66800000D02*
X65600000Y-67800000D01*
X65800000Y-68400000D02*
X66800000Y-66800000D01*
X67400000Y-67200000D02*
X65800000Y-68400000D01*
X66200000Y-69200000D02*
X67400000Y-67200000D01*
X67200000Y-69400000D02*
X66200000Y-69200000D01*
X65800000Y-69800000D02*
X67200000Y-69400000D01*
X67800000Y-71400000D02*
X65800000Y-69800000D01*
X65800000Y-71000000D02*
X67800000Y-71400000D01*
X67200000Y-74200000D02*
X65800000Y-71000000D01*
X65600000Y-72200000D02*
X67200000Y-74200000D01*
X58800000Y-82000000D02*
X58800000Y-81800000D01*
X58600000Y-81800000D02*
X58600000Y-82000000D01*
X58800000Y-81800000D02*
X58600000Y-81800000D01*
X58600000Y-82000000D02*
X58800000Y-82000000D01*
X58800000Y-83200000D02*
X58800000Y-82200000D01*
X58600000Y-82200000D02*
X58600000Y-83200000D01*
X58600000Y-83200000D02*
X58800000Y-83200000D01*
X58800000Y-82200000D02*
X58600000Y-82200000D01*
X69400000Y-72400000D02*
X69400000Y-72600000D01*
X69600000Y-72400000D02*
X69400000Y-72400000D01*
X69600000Y-72600000D02*
X69600000Y-72400000D01*
X69400000Y-72600000D02*
X69600000Y-72600000D01*
X70200000Y-72400000D02*
X70000000Y-72400000D01*
X71200000Y-72400000D02*
X71000000Y-72400000D01*
X71000000Y-73800000D02*
X71200000Y-73800000D01*
X70200000Y-73800000D02*
X70200000Y-72400000D01*
X69400000Y-73800000D02*
X69600000Y-73800000D01*
X70200000Y-72400000D02*
X71000000Y-73400000D01*
X71000000Y-72400000D02*
X71000000Y-73800000D01*
X71200000Y-73800000D02*
X71200000Y-72400000D01*
X70000000Y-72400000D02*
X70000000Y-73800000D01*
X70000000Y-73800000D02*
X70200000Y-73800000D01*
X69400000Y-72800000D02*
X69400000Y-73800000D01*
X69600000Y-72800000D02*
X69400000Y-72800000D01*
X69600000Y-73800000D02*
X69600000Y-72800000D01*
X66800000Y-68800000D02*
X67000000Y-69000000D01*
X66800000Y-68800000D02*
X67000000Y-68600000D01*
X66800000Y-68800000D02*
G75*
G02*
X69200000Y-71200000I0J-2400000D01*
G01*
X58000000Y-77600000D02*
X59800000Y-76000000D01*
X59800000Y-77200000D02*
X58000000Y-77600000D01*
X67200000Y-77000000D02*
X65800000Y-76000000D01*
X65600000Y-77000000D02*
X67200000Y-77000000D01*
X67600000Y-78400000D02*
X65600000Y-77000000D01*
X66000000Y-78200000D02*
X67600000Y-78400000D01*
X59600000Y-78600000D02*
X59800000Y-77200000D01*
X60200000Y-77800000D02*
X59600000Y-78600000D01*
X60400000Y-79600000D02*
X60200000Y-77800000D01*
X61200000Y-77800000D02*
X60400000Y-79600000D01*
X61600000Y-78800000D02*
X61200000Y-77800000D01*
X62800000Y-77800000D02*
X61600000Y-78800000D01*
X62600000Y-79600000D02*
X62800000Y-77800000D01*
X64000000Y-78200000D02*
X62600000Y-79600000D01*
X64000000Y-79800000D02*
X64000000Y-78200000D01*
X65200000Y-77800000D02*
X64000000Y-79800000D01*
X65800000Y-80000000D02*
X65200000Y-77800000D01*
X66000000Y-78200000D02*
X65800000Y-80000000D01*
X63200000Y-80200000D02*
X63000000Y-80400000D01*
X63200000Y-80200000D02*
X63400000Y-80400000D01*
X63200000Y-80200000D02*
G75*
G02*
X60800000Y-82600000I-2400000J0D01*
G01*
X60200000Y-81800000D02*
X60200000Y-83200000D01*
X60400000Y-81800000D02*
X60200000Y-81800000D01*
X60400000Y-83200000D02*
X60400000Y-81800000D01*
X60200000Y-83200000D02*
X60400000Y-83200000D01*
X59400000Y-81800000D02*
X60200000Y-82800000D01*
X59400000Y-81800000D02*
X59200000Y-81800000D01*
X59400000Y-83200000D02*
X59400000Y-81800000D01*
X59200000Y-83200000D02*
X59400000Y-83200000D01*
X59200000Y-81800000D02*
X59200000Y-83200000D01*
D11*
X209357142Y-78107142D02*
X210500000Y-78107142D01*
X212000000Y-78678571D02*
X211142857Y-78678571D01*
X211571428Y-78678571D02*
X211571428Y-77178571D01*
X211428571Y-77392857D01*
X211285714Y-77535714D01*
X211142857Y-77607142D01*
X212571428Y-77321428D02*
X212642857Y-77250000D01*
X212785714Y-77178571D01*
X213142857Y-77178571D01*
X213285714Y-77250000D01*
X213357142Y-77321428D01*
X213428571Y-77464285D01*
X213428571Y-77607142D01*
X213357142Y-77821428D01*
X212500000Y-78678571D01*
X213428571Y-78678571D01*
X213857142Y-77178571D02*
X214357142Y-78678571D01*
X214857142Y-77178571D01*
X75357142Y-78107142D02*
X76500000Y-78107142D01*
X78000000Y-78678571D02*
X77142857Y-78678571D01*
X77571428Y-78678571D02*
X77571428Y-77178571D01*
X77428571Y-77392857D01*
X77285714Y-77535714D01*
X77142857Y-77607142D01*
X78571428Y-77321428D02*
X78642857Y-77250000D01*
X78785714Y-77178571D01*
X79142857Y-77178571D01*
X79285714Y-77250000D01*
X79357142Y-77321428D01*
X79428571Y-77464285D01*
X79428571Y-77607142D01*
X79357142Y-77821428D01*
X78500000Y-78678571D01*
X79428571Y-78678571D01*
X79857142Y-77178571D02*
X80357142Y-78678571D01*
X80857142Y-77178571D01*
X209357142Y-63107142D02*
X210500000Y-63107142D01*
X209928571Y-63678571D02*
X209928571Y-62535714D01*
X212000000Y-63678571D02*
X211142857Y-63678571D01*
X211571428Y-63678571D02*
X211571428Y-62178571D01*
X211428571Y-62392857D01*
X211285714Y-62535714D01*
X211142857Y-62607142D01*
X212571428Y-62321428D02*
X212642857Y-62250000D01*
X212785714Y-62178571D01*
X213142857Y-62178571D01*
X213285714Y-62250000D01*
X213357142Y-62321428D01*
X213428571Y-62464285D01*
X213428571Y-62607142D01*
X213357142Y-62821428D01*
X212500000Y-63678571D01*
X213428571Y-63678571D01*
X213857142Y-62178571D02*
X214357142Y-63678571D01*
X214857142Y-62178571D01*
X75357142Y-64107142D02*
X76500000Y-64107142D01*
X75928571Y-64678571D02*
X75928571Y-63535714D01*
X78000000Y-64678571D02*
X77142857Y-64678571D01*
X77571428Y-64678571D02*
X77571428Y-63178571D01*
X77428571Y-63392857D01*
X77285714Y-63535714D01*
X77142857Y-63607142D01*
X78571428Y-63321428D02*
X78642857Y-63250000D01*
X78785714Y-63178571D01*
X79142857Y-63178571D01*
X79285714Y-63250000D01*
X79357142Y-63321428D01*
X79428571Y-63464285D01*
X79428571Y-63607142D01*
X79357142Y-63821428D01*
X78500000Y-64678571D01*
X79428571Y-64678571D01*
X79857142Y-63178571D02*
X80357142Y-64678571D01*
X80857142Y-63178571D01*
X72928571Y-85678571D02*
X72071428Y-85678571D01*
X72500000Y-85678571D02*
X72500000Y-84178571D01*
X72357142Y-84392857D01*
X72214285Y-84535714D01*
X72071428Y-84607142D01*
X73500000Y-85250000D02*
X74214285Y-85250000D01*
X73357142Y-85678571D02*
X73857142Y-84178571D01*
X74357142Y-85678571D01*
X76000000Y-85678571D02*
X76000000Y-84178571D01*
X76500000Y-85250000D01*
X77000000Y-84178571D01*
X77000000Y-85678571D01*
X77642857Y-85250000D02*
X78357142Y-85250000D01*
X77500000Y-85678571D02*
X78000000Y-84178571D01*
X78500000Y-85678571D01*
X78857142Y-84178571D02*
X79857142Y-85678571D01*
X79857142Y-84178571D02*
X78857142Y-85678571D01*
X80428571Y-85535714D02*
X80500000Y-85607142D01*
X80428571Y-85678571D01*
X80357142Y-85607142D01*
X80428571Y-85535714D01*
X80428571Y-85678571D01*
X80428571Y-85107142D02*
X80357142Y-84250000D01*
X80428571Y-84178571D01*
X80500000Y-84250000D01*
X80428571Y-85107142D01*
X80428571Y-84178571D01*
X81142857Y-85535714D02*
X81214285Y-85607142D01*
X81142857Y-85678571D01*
X81071428Y-85607142D01*
X81142857Y-85535714D01*
X81142857Y-85678571D01*
X81142857Y-85107142D02*
X81071428Y-84250000D01*
X81142857Y-84178571D01*
X81214285Y-84250000D01*
X81142857Y-85107142D01*
X81142857Y-84178571D01*
X81857142Y-85535714D02*
X81928571Y-85607142D01*
X81857142Y-85678571D01*
X81785714Y-85607142D01*
X81857142Y-85535714D01*
X81857142Y-85678571D01*
X81857142Y-85107142D02*
X81785714Y-84250000D01*
X81857142Y-84178571D01*
X81928571Y-84250000D01*
X81857142Y-85107142D01*
X81857142Y-84178571D01*
X67071428Y-57678571D02*
X67071428Y-56178571D01*
X67428571Y-56178571D01*
X67642857Y-56250000D01*
X67785714Y-56392857D01*
X67857142Y-56535714D01*
X67928571Y-56821428D01*
X67928571Y-57035714D01*
X67857142Y-57321428D01*
X67785714Y-57464285D01*
X67642857Y-57607142D01*
X67428571Y-57678571D01*
X67071428Y-57678571D01*
X68571428Y-57678571D02*
X68571428Y-56678571D01*
X68571428Y-56178571D02*
X68500000Y-56250000D01*
X68571428Y-56321428D01*
X68642857Y-56250000D01*
X68571428Y-56178571D01*
X68571428Y-56321428D01*
X69214285Y-57607142D02*
X69357142Y-57678571D01*
X69642857Y-57678571D01*
X69785714Y-57607142D01*
X69857142Y-57464285D01*
X69857142Y-57392857D01*
X69785714Y-57250000D01*
X69642857Y-57178571D01*
X69428571Y-57178571D01*
X69285714Y-57107142D01*
X69214285Y-56964285D01*
X69214285Y-56892857D01*
X69285714Y-56750000D01*
X69428571Y-56678571D01*
X69642857Y-56678571D01*
X69785714Y-56750000D01*
X70285714Y-56678571D02*
X70857142Y-56678571D01*
X70500000Y-56178571D02*
X70500000Y-57464285D01*
X70571428Y-57607142D01*
X70714285Y-57678571D01*
X70857142Y-57678571D01*
X71357142Y-57678571D02*
X71357142Y-56678571D01*
X71357142Y-56964285D02*
X71428571Y-56821428D01*
X71500000Y-56750000D01*
X71642857Y-56678571D01*
X71785714Y-56678571D01*
X72285714Y-57678571D02*
X72285714Y-56678571D01*
X72285714Y-56178571D02*
X72214285Y-56250000D01*
X72285714Y-56321428D01*
X72357142Y-56250000D01*
X72285714Y-56178571D01*
X72285714Y-56321428D01*
X73000000Y-57678571D02*
X73000000Y-56178571D01*
X73000000Y-56750000D02*
X73142857Y-56678571D01*
X73428571Y-56678571D01*
X73571428Y-56750000D01*
X73642857Y-56821428D01*
X73714285Y-56964285D01*
X73714285Y-57392857D01*
X73642857Y-57535714D01*
X73571428Y-57607142D01*
X73428571Y-57678571D01*
X73142857Y-57678571D01*
X73000000Y-57607142D01*
X75000000Y-56678571D02*
X75000000Y-57678571D01*
X74357142Y-56678571D02*
X74357142Y-57464285D01*
X74428571Y-57607142D01*
X74571428Y-57678571D01*
X74785714Y-57678571D01*
X74928571Y-57607142D01*
X75000000Y-57535714D01*
X75500000Y-56678571D02*
X76071428Y-56678571D01*
X75714285Y-56178571D02*
X75714285Y-57464285D01*
X75785714Y-57607142D01*
X75928571Y-57678571D01*
X76071428Y-57678571D01*
X76571428Y-57678571D02*
X76571428Y-56678571D01*
X76571428Y-56178571D02*
X76500000Y-56250000D01*
X76571428Y-56321428D01*
X76642857Y-56250000D01*
X76571428Y-56178571D01*
X76571428Y-56321428D01*
X77500000Y-57678571D02*
X77357142Y-57607142D01*
X77285714Y-57535714D01*
X77214285Y-57392857D01*
X77214285Y-56964285D01*
X77285714Y-56821428D01*
X77357142Y-56750000D01*
X77500000Y-56678571D01*
X77714285Y-56678571D01*
X77857142Y-56750000D01*
X77928571Y-56821428D01*
X78000000Y-56964285D01*
X78000000Y-57392857D01*
X77928571Y-57535714D01*
X77857142Y-57607142D01*
X77714285Y-57678571D01*
X77500000Y-57678571D01*
X78642857Y-56678571D02*
X78642857Y-57678571D01*
X78642857Y-56821428D02*
X78714285Y-56750000D01*
X78857142Y-56678571D01*
X79071428Y-56678571D01*
X79214285Y-56750000D01*
X79285714Y-56892857D01*
X79285714Y-57678571D01*
X81642857Y-56892857D02*
X81857142Y-56964285D01*
X81928571Y-57035714D01*
X82000000Y-57178571D01*
X82000000Y-57392857D01*
X81928571Y-57535714D01*
X81857142Y-57607142D01*
X81714285Y-57678571D01*
X81142857Y-57678571D01*
X81142857Y-56178571D01*
X81642857Y-56178571D01*
X81785714Y-56250000D01*
X81857142Y-56321428D01*
X81928571Y-56464285D01*
X81928571Y-56607142D01*
X81857142Y-56750000D01*
X81785714Y-56821428D01*
X81642857Y-56892857D01*
X81142857Y-56892857D01*
X82857142Y-57678571D02*
X82714285Y-57607142D01*
X82642857Y-57535714D01*
X82571428Y-57392857D01*
X82571428Y-56964285D01*
X82642857Y-56821428D01*
X82714285Y-56750000D01*
X82857142Y-56678571D01*
X83071428Y-56678571D01*
X83214285Y-56750000D01*
X83285714Y-56821428D01*
X83357142Y-56964285D01*
X83357142Y-57392857D01*
X83285714Y-57535714D01*
X83214285Y-57607142D01*
X83071428Y-57678571D01*
X82857142Y-57678571D01*
X84642857Y-57678571D02*
X84642857Y-56892857D01*
X84571428Y-56750000D01*
X84428571Y-56678571D01*
X84142857Y-56678571D01*
X84000000Y-56750000D01*
X84642857Y-57607142D02*
X84500000Y-57678571D01*
X84142857Y-57678571D01*
X84000000Y-57607142D01*
X83928571Y-57464285D01*
X83928571Y-57321428D01*
X84000000Y-57178571D01*
X84142857Y-57107142D01*
X84500000Y-57107142D01*
X84642857Y-57035714D01*
X85357142Y-57678571D02*
X85357142Y-56678571D01*
X85357142Y-56964285D02*
X85428571Y-56821428D01*
X85500000Y-56750000D01*
X85642857Y-56678571D01*
X85785714Y-56678571D01*
X86928571Y-57678571D02*
X86928571Y-56178571D01*
X86928571Y-57607142D02*
X86785714Y-57678571D01*
X86500000Y-57678571D01*
X86357142Y-57607142D01*
X86285714Y-57535714D01*
X86214285Y-57392857D01*
X86214285Y-56964285D01*
X86285714Y-56821428D01*
X86357142Y-56750000D01*
X86500000Y-56678571D01*
X86785714Y-56678571D01*
X86928571Y-56750000D01*
D12*
X176380952Y-86452380D02*
X176380952Y-87166666D01*
X176333333Y-87309523D01*
X176238095Y-87404761D01*
X176095238Y-87452380D01*
X176000000Y-87452380D01*
X177333333Y-87452380D02*
X176857142Y-87452380D01*
X176857142Y-86452380D01*
X178238095Y-87357142D02*
X178190476Y-87404761D01*
X178047619Y-87452380D01*
X177952380Y-87452380D01*
X177809523Y-87404761D01*
X177714285Y-87309523D01*
X177666666Y-87214285D01*
X177619047Y-87023809D01*
X177619047Y-86880952D01*
X177666666Y-86690476D01*
X177714285Y-86595238D01*
X177809523Y-86500000D01*
X177952380Y-86452380D01*
X178047619Y-86452380D01*
X178190476Y-86500000D01*
X178238095Y-86547619D01*
X178952380Y-86452380D02*
X178952380Y-87166666D01*
X178904761Y-87309523D01*
X178809523Y-87404761D01*
X178666666Y-87452380D01*
X178571428Y-87452380D01*
X179904761Y-87452380D02*
X179428571Y-87452380D01*
X179428571Y-86452380D01*
X180809523Y-87357142D02*
X180761904Y-87404761D01*
X180619047Y-87452380D01*
X180523809Y-87452380D01*
X180380952Y-87404761D01*
X180285714Y-87309523D01*
X180238095Y-87214285D01*
X180190476Y-87023809D01*
X180190476Y-86880952D01*
X180238095Y-86690476D01*
X180285714Y-86595238D01*
X180380952Y-86500000D01*
X180523809Y-86452380D01*
X180619047Y-86452380D01*
X180761904Y-86500000D01*
X180809523Y-86547619D01*
X181523809Y-86452380D02*
X181523809Y-87166666D01*
X181476190Y-87309523D01*
X181380952Y-87404761D01*
X181238095Y-87452380D01*
X181142857Y-87452380D01*
X182476190Y-87452380D02*
X182000000Y-87452380D01*
X182000000Y-86452380D01*
X183380952Y-87357142D02*
X183333333Y-87404761D01*
X183190476Y-87452380D01*
X183095238Y-87452380D01*
X182952380Y-87404761D01*
X182857142Y-87309523D01*
X182809523Y-87214285D01*
X182761904Y-87023809D01*
X182761904Y-86880952D01*
X182809523Y-86690476D01*
X182857142Y-86595238D01*
X182952380Y-86500000D01*
X183095238Y-86452380D01*
X183190476Y-86452380D01*
X183333333Y-86500000D01*
X183380952Y-86547619D01*
X184095238Y-86452380D02*
X184095238Y-87166666D01*
X184047619Y-87309523D01*
X183952380Y-87404761D01*
X183809523Y-87452380D01*
X183714285Y-87452380D01*
X185047619Y-87452380D02*
X184571428Y-87452380D01*
X184571428Y-86452380D01*
X185952380Y-87357142D02*
X185904761Y-87404761D01*
X185761904Y-87452380D01*
X185666666Y-87452380D01*
X185523809Y-87404761D01*
X185428571Y-87309523D01*
X185380952Y-87214285D01*
X185333333Y-87023809D01*
X185333333Y-86880952D01*
X185380952Y-86690476D01*
X185428571Y-86595238D01*
X185523809Y-86500000D01*
X185666666Y-86452380D01*
X185761904Y-86452380D01*
X185904761Y-86500000D01*
X185952380Y-86547619D01*
X56400000Y-79000000D02*
G75*
G03*
X56400000Y-79000000I-1400000J0D01*
G01*
X56400000Y-70925000D02*
G75*
G03*
X56400000Y-70925000I-1400000J0D01*
G01*
X56400000Y-63000000D02*
G75*
G03*
X56400000Y-63000000I-1400000J0D01*
G01*
D10*
X112530000Y-81280000D02*
X112530000Y-84720000D01*
X112530000Y-84720000D02*
X121770000Y-84720000D01*
X121770000Y-84720000D02*
X121770000Y-81280000D01*
X121770000Y-81280000D02*
X112530000Y-81280000D01*
X111840000Y-83000000D02*
X112530000Y-83000000D01*
X122460000Y-83000000D02*
X121770000Y-83000000D01*
X121770000Y-59950000D02*
X121770000Y-56510000D01*
X121770000Y-56510000D02*
X112530000Y-56510000D01*
X112530000Y-56510000D02*
X112530000Y-59950000D01*
X112530000Y-59950000D02*
X121770000Y-59950000D01*
X122460000Y-58230000D02*
X121770000Y-58230000D01*
X111840000Y-58230000D02*
X112530000Y-58230000D01*
X65330000Y-64510000D02*
X60130000Y-64510000D01*
X65330000Y-74730000D02*
X65330000Y-64510000D01*
X60130000Y-77330000D02*
X60130000Y-64510000D01*
X65330000Y-74730000D02*
X62730000Y-74730000D01*
X62730000Y-74730000D02*
X62730000Y-77330000D01*
X62730000Y-77330000D02*
X60130000Y-77330000D01*
X65330000Y-76000000D02*
X65330000Y-77330000D01*
X65330000Y-77330000D02*
X64000000Y-77330000D01*
X94040000Y-64510000D02*
X88840000Y-64510000D01*
X94040000Y-74730000D02*
X94040000Y-64510000D01*
X88840000Y-77330000D02*
X88840000Y-64510000D01*
X94040000Y-74730000D02*
X91440000Y-74730000D01*
X91440000Y-74730000D02*
X91440000Y-77330000D01*
X91440000Y-77330000D02*
X88840000Y-77330000D01*
X94040000Y-76000000D02*
X94040000Y-77330000D01*
X94040000Y-77330000D02*
X92710000Y-77330000D01*
X226330000Y-64510000D02*
X221130000Y-64510000D01*
X226330000Y-74730000D02*
X226330000Y-64510000D01*
X221130000Y-77330000D02*
X221130000Y-64510000D01*
X226330000Y-74730000D02*
X223730000Y-74730000D01*
X223730000Y-74730000D02*
X223730000Y-77330000D01*
X223730000Y-77330000D02*
X221130000Y-77330000D01*
X226330000Y-76000000D02*
X226330000Y-77330000D01*
X226330000Y-77330000D02*
X225000000Y-77330000D01*
X116088333Y-64510000D02*
X110888333Y-64510000D01*
X116088333Y-74730000D02*
X116088333Y-64510000D01*
X110888333Y-77330000D02*
X110888333Y-64510000D01*
X116088333Y-74730000D02*
X113488333Y-74730000D01*
X113488333Y-74730000D02*
X113488333Y-77330000D01*
X113488333Y-77330000D02*
X110888333Y-77330000D01*
X116088333Y-76000000D02*
X116088333Y-77330000D01*
X116088333Y-77330000D02*
X114758333Y-77330000D01*
X160184999Y-64510000D02*
X154984999Y-64510000D01*
X160184999Y-74730000D02*
X160184999Y-64510000D01*
X154984999Y-77330000D02*
X154984999Y-64510000D01*
X160184999Y-74730000D02*
X157584999Y-74730000D01*
X157584999Y-74730000D02*
X157584999Y-77330000D01*
X157584999Y-77330000D02*
X154984999Y-77330000D01*
X160184999Y-76000000D02*
X160184999Y-77330000D01*
X160184999Y-77330000D02*
X158854999Y-77330000D01*
X138136666Y-64510000D02*
X132936666Y-64510000D01*
X138136666Y-74730000D02*
X138136666Y-64510000D01*
X132936666Y-77330000D02*
X132936666Y-64510000D01*
X138136666Y-74730000D02*
X135536666Y-74730000D01*
X135536666Y-74730000D02*
X135536666Y-77330000D01*
X135536666Y-77330000D02*
X132936666Y-77330000D01*
X138136666Y-76000000D02*
X138136666Y-77330000D01*
X138136666Y-77330000D02*
X136806666Y-77330000D01*
X204281665Y-64510000D02*
X199081665Y-64510000D01*
X204281665Y-74730000D02*
X204281665Y-64510000D01*
X199081665Y-77330000D02*
X199081665Y-64510000D01*
X204281665Y-74730000D02*
X201681665Y-74730000D01*
X201681665Y-74730000D02*
X201681665Y-77330000D01*
X201681665Y-77330000D02*
X199081665Y-77330000D01*
X204281665Y-76000000D02*
X204281665Y-77330000D01*
X204281665Y-77330000D02*
X202951665Y-77330000D01*
X182233332Y-64510000D02*
X177033332Y-64510000D01*
X182233332Y-74730000D02*
X182233332Y-64510000D01*
X177033332Y-77330000D02*
X177033332Y-64510000D01*
X182233332Y-74730000D02*
X179633332Y-74730000D01*
X179633332Y-74730000D02*
X179633332Y-77330000D01*
X179633332Y-77330000D02*
X177033332Y-77330000D01*
X182233332Y-76000000D02*
X182233332Y-77330000D01*
X182233332Y-77330000D02*
X180903332Y-77330000D01*
X132360000Y-84545000D02*
X132360000Y-81455000D01*
X132300000Y-83000000D02*
G75*
G03*
X132300000Y-83000000I-2500000J0D01*
G01*
X126810000Y-83000462D02*
G75*
G02*
X132360000Y-81455170I2990000J462D01*
G01*
X126810000Y-82999538D02*
G75*
G03*
X132360000Y-84544830I2990000J-462D01*
G01*
X132090000Y-59775000D02*
X132090000Y-56685000D01*
X132030000Y-58230000D02*
G75*
G03*
X132030000Y-58230000I-2500000J0D01*
G01*
X126540000Y-58230462D02*
G75*
G02*
X132090000Y-56685170I2990000J462D01*
G01*
X126540000Y-58229538D02*
G75*
G03*
X132090000Y-59774830I2990000J-462D01*
G01*
X160199999Y-83000000D02*
G75*
G03*
X160199999Y-83000000I-2620000J0D01*
G01*
X158619999Y-83000000D02*
X160159999Y-83000000D01*
X154999999Y-83000000D02*
X156539999Y-83000000D01*
X158619999Y-82960000D02*
X160159999Y-82960000D01*
X154999999Y-82960000D02*
X156539999Y-82960000D01*
X155000999Y-82920000D02*
X156539999Y-82920000D01*
X158619999Y-82920000D02*
X160158999Y-82920000D01*
X155001999Y-82880000D02*
X156539999Y-82880000D01*
X158619999Y-82880000D02*
X160157999Y-82880000D01*
X155003999Y-82840000D02*
X156539999Y-82840000D01*
X158619999Y-82840000D02*
X160155999Y-82840000D01*
X155006999Y-82800000D02*
X156539999Y-82800000D01*
X158619999Y-82800000D02*
X160152999Y-82800000D01*
X155010999Y-82760000D02*
X156539999Y-82760000D01*
X158619999Y-82760000D02*
X160148999Y-82760000D01*
X155014999Y-82720000D02*
X156539999Y-82720000D01*
X158619999Y-82720000D02*
X160144999Y-82720000D01*
X155018999Y-82680000D02*
X156539999Y-82680000D01*
X158619999Y-82680000D02*
X160140999Y-82680000D01*
X155023999Y-82640000D02*
X156539999Y-82640000D01*
X158619999Y-82640000D02*
X160135999Y-82640000D01*
X155029999Y-82600000D02*
X156539999Y-82600000D01*
X158619999Y-82600000D02*
X160129999Y-82600000D01*
X155036999Y-82560000D02*
X156539999Y-82560000D01*
X158619999Y-82560000D02*
X160122999Y-82560000D01*
X155043999Y-82520000D02*
X156539999Y-82520000D01*
X158619999Y-82520000D02*
X160115999Y-82520000D01*
X155051999Y-82480000D02*
X156539999Y-82480000D01*
X158619999Y-82480000D02*
X160107999Y-82480000D01*
X155059999Y-82440000D02*
X156539999Y-82440000D01*
X158619999Y-82440000D02*
X160099999Y-82440000D01*
X155068999Y-82400000D02*
X156539999Y-82400000D01*
X158619999Y-82400000D02*
X160090999Y-82400000D01*
X155078999Y-82360000D02*
X156539999Y-82360000D01*
X158619999Y-82360000D02*
X160080999Y-82360000D01*
X155088999Y-82320000D02*
X156539999Y-82320000D01*
X158619999Y-82320000D02*
X160070999Y-82320000D01*
X155099999Y-82279000D02*
X156539999Y-82279000D01*
X158619999Y-82279000D02*
X160059999Y-82279000D01*
X155111999Y-82239000D02*
X156539999Y-82239000D01*
X158619999Y-82239000D02*
X160047999Y-82239000D01*
X155124999Y-82199000D02*
X156539999Y-82199000D01*
X158619999Y-82199000D02*
X160034999Y-82199000D01*
X155137999Y-82159000D02*
X156539999Y-82159000D01*
X158619999Y-82159000D02*
X160021999Y-82159000D01*
X155151999Y-82119000D02*
X156539999Y-82119000D01*
X158619999Y-82119000D02*
X160007999Y-82119000D01*
X155165999Y-82079000D02*
X156539999Y-82079000D01*
X158619999Y-82079000D02*
X159993999Y-82079000D01*
X155181999Y-82039000D02*
X156539999Y-82039000D01*
X158619999Y-82039000D02*
X159977999Y-82039000D01*
X155197999Y-81999000D02*
X156539999Y-81999000D01*
X158619999Y-81999000D02*
X159961999Y-81999000D01*
X155214999Y-81959000D02*
X156539999Y-81959000D01*
X158619999Y-81959000D02*
X159944999Y-81959000D01*
X155231999Y-81919000D02*
X156539999Y-81919000D01*
X158619999Y-81919000D02*
X159927999Y-81919000D01*
X155250999Y-81879000D02*
X156539999Y-81879000D01*
X158619999Y-81879000D02*
X159908999Y-81879000D01*
X155269999Y-81839000D02*
X156539999Y-81839000D01*
X158619999Y-81839000D02*
X159889999Y-81839000D01*
X155289999Y-81799000D02*
X156539999Y-81799000D01*
X158619999Y-81799000D02*
X159869999Y-81799000D01*
X155311999Y-81759000D02*
X156539999Y-81759000D01*
X158619999Y-81759000D02*
X159847999Y-81759000D01*
X155332999Y-81719000D02*
X156539999Y-81719000D01*
X158619999Y-81719000D02*
X159826999Y-81719000D01*
X155355999Y-81679000D02*
X156539999Y-81679000D01*
X158619999Y-81679000D02*
X159803999Y-81679000D01*
X155379999Y-81639000D02*
X156539999Y-81639000D01*
X158619999Y-81639000D02*
X159779999Y-81639000D01*
X155404999Y-81599000D02*
X156539999Y-81599000D01*
X158619999Y-81599000D02*
X159754999Y-81599000D01*
X155430999Y-81559000D02*
X156539999Y-81559000D01*
X158619999Y-81559000D02*
X159728999Y-81559000D01*
X155457999Y-81519000D02*
X156539999Y-81519000D01*
X158619999Y-81519000D02*
X159701999Y-81519000D01*
X155484999Y-81479000D02*
X156539999Y-81479000D01*
X158619999Y-81479000D02*
X159674999Y-81479000D01*
X155514999Y-81439000D02*
X156539999Y-81439000D01*
X158619999Y-81439000D02*
X159644999Y-81439000D01*
X155544999Y-81399000D02*
X156539999Y-81399000D01*
X158619999Y-81399000D02*
X159614999Y-81399000D01*
X155575999Y-81359000D02*
X156539999Y-81359000D01*
X158619999Y-81359000D02*
X159583999Y-81359000D01*
X155608999Y-81319000D02*
X156539999Y-81319000D01*
X158619999Y-81319000D02*
X159550999Y-81319000D01*
X155642999Y-81279000D02*
X156539999Y-81279000D01*
X158619999Y-81279000D02*
X159516999Y-81279000D01*
X155678999Y-81239000D02*
X156539999Y-81239000D01*
X158619999Y-81239000D02*
X159480999Y-81239000D01*
X155715999Y-81199000D02*
X156539999Y-81199000D01*
X158619999Y-81199000D02*
X159443999Y-81199000D01*
X155753999Y-81159000D02*
X156539999Y-81159000D01*
X158619999Y-81159000D02*
X159405999Y-81159000D01*
X155794999Y-81119000D02*
X156539999Y-81119000D01*
X158619999Y-81119000D02*
X159364999Y-81119000D01*
X155836999Y-81079000D02*
X156539999Y-81079000D01*
X158619999Y-81079000D02*
X159322999Y-81079000D01*
X155880999Y-81039000D02*
X156539999Y-81039000D01*
X158619999Y-81039000D02*
X159278999Y-81039000D01*
X155926999Y-80999000D02*
X156539999Y-80999000D01*
X158619999Y-80999000D02*
X159232999Y-80999000D01*
X155974999Y-80959000D02*
X159184999Y-80959000D01*
X156025999Y-80919000D02*
X159133999Y-80919000D01*
X156079999Y-80879000D02*
X159079999Y-80879000D01*
X156136999Y-80839000D02*
X159022999Y-80839000D01*
X156196999Y-80799000D02*
X158962999Y-80799000D01*
X156260999Y-80759000D02*
X158898999Y-80759000D01*
X156328999Y-80719000D02*
X158830999Y-80719000D01*
X156401999Y-80679000D02*
X158757999Y-80679000D01*
X156481999Y-80639000D02*
X158677999Y-80639000D01*
X156568999Y-80599000D02*
X158590999Y-80599000D01*
X156664999Y-80559000D02*
X158494999Y-80559000D01*
X156774999Y-80519000D02*
X158384999Y-80519000D01*
X156902999Y-80479000D02*
X158256999Y-80479000D01*
X157061999Y-80439000D02*
X158097999Y-80439000D01*
X157295999Y-80399000D02*
X157863999Y-80399000D01*
X156104999Y-85804775D02*
X156104999Y-85304775D01*
X155854999Y-85554775D02*
X156354999Y-85554775D01*
X160199999Y-58000000D02*
G75*
G03*
X160199999Y-58000000I-2620000J0D01*
G01*
X158619999Y-58000000D02*
X160159999Y-58000000D01*
X154999999Y-58000000D02*
X156539999Y-58000000D01*
X158619999Y-57960000D02*
X160159999Y-57960000D01*
X154999999Y-57960000D02*
X156539999Y-57960000D01*
X155000999Y-57920000D02*
X156539999Y-57920000D01*
X158619999Y-57920000D02*
X160158999Y-57920000D01*
X155001999Y-57880000D02*
X156539999Y-57880000D01*
X158619999Y-57880000D02*
X160157999Y-57880000D01*
X155003999Y-57840000D02*
X156539999Y-57840000D01*
X158619999Y-57840000D02*
X160155999Y-57840000D01*
X155006999Y-57800000D02*
X156539999Y-57800000D01*
X158619999Y-57800000D02*
X160152999Y-57800000D01*
X155010999Y-57760000D02*
X156539999Y-57760000D01*
X158619999Y-57760000D02*
X160148999Y-57760000D01*
X155014999Y-57720000D02*
X156539999Y-57720000D01*
X158619999Y-57720000D02*
X160144999Y-57720000D01*
X155018999Y-57680000D02*
X156539999Y-57680000D01*
X158619999Y-57680000D02*
X160140999Y-57680000D01*
X155023999Y-57640000D02*
X156539999Y-57640000D01*
X158619999Y-57640000D02*
X160135999Y-57640000D01*
X155029999Y-57600000D02*
X156539999Y-57600000D01*
X158619999Y-57600000D02*
X160129999Y-57600000D01*
X155036999Y-57560000D02*
X156539999Y-57560000D01*
X158619999Y-57560000D02*
X160122999Y-57560000D01*
X155043999Y-57520000D02*
X156539999Y-57520000D01*
X158619999Y-57520000D02*
X160115999Y-57520000D01*
X155051999Y-57480000D02*
X156539999Y-57480000D01*
X158619999Y-57480000D02*
X160107999Y-57480000D01*
X155059999Y-57440000D02*
X156539999Y-57440000D01*
X158619999Y-57440000D02*
X160099999Y-57440000D01*
X155068999Y-57400000D02*
X156539999Y-57400000D01*
X158619999Y-57400000D02*
X160090999Y-57400000D01*
X155078999Y-57360000D02*
X156539999Y-57360000D01*
X158619999Y-57360000D02*
X160080999Y-57360000D01*
X155088999Y-57320000D02*
X156539999Y-57320000D01*
X158619999Y-57320000D02*
X160070999Y-57320000D01*
X155099999Y-57279000D02*
X156539999Y-57279000D01*
X158619999Y-57279000D02*
X160059999Y-57279000D01*
X155111999Y-57239000D02*
X156539999Y-57239000D01*
X158619999Y-57239000D02*
X160047999Y-57239000D01*
X155124999Y-57199000D02*
X156539999Y-57199000D01*
X158619999Y-57199000D02*
X160034999Y-57199000D01*
X155137999Y-57159000D02*
X156539999Y-57159000D01*
X158619999Y-57159000D02*
X160021999Y-57159000D01*
X155151999Y-57119000D02*
X156539999Y-57119000D01*
X158619999Y-57119000D02*
X160007999Y-57119000D01*
X155165999Y-57079000D02*
X156539999Y-57079000D01*
X158619999Y-57079000D02*
X159993999Y-57079000D01*
X155181999Y-57039000D02*
X156539999Y-57039000D01*
X158619999Y-57039000D02*
X159977999Y-57039000D01*
X155197999Y-56999000D02*
X156539999Y-56999000D01*
X158619999Y-56999000D02*
X159961999Y-56999000D01*
X155214999Y-56959000D02*
X156539999Y-56959000D01*
X158619999Y-56959000D02*
X159944999Y-56959000D01*
X155231999Y-56919000D02*
X156539999Y-56919000D01*
X158619999Y-56919000D02*
X159927999Y-56919000D01*
X155250999Y-56879000D02*
X156539999Y-56879000D01*
X158619999Y-56879000D02*
X159908999Y-56879000D01*
X155269999Y-56839000D02*
X156539999Y-56839000D01*
X158619999Y-56839000D02*
X159889999Y-56839000D01*
X155289999Y-56799000D02*
X156539999Y-56799000D01*
X158619999Y-56799000D02*
X159869999Y-56799000D01*
X155311999Y-56759000D02*
X156539999Y-56759000D01*
X158619999Y-56759000D02*
X159847999Y-56759000D01*
X155332999Y-56719000D02*
X156539999Y-56719000D01*
X158619999Y-56719000D02*
X159826999Y-56719000D01*
X155355999Y-56679000D02*
X156539999Y-56679000D01*
X158619999Y-56679000D02*
X159803999Y-56679000D01*
X155379999Y-56639000D02*
X156539999Y-56639000D01*
X158619999Y-56639000D02*
X159779999Y-56639000D01*
X155404999Y-56599000D02*
X156539999Y-56599000D01*
X158619999Y-56599000D02*
X159754999Y-56599000D01*
X155430999Y-56559000D02*
X156539999Y-56559000D01*
X158619999Y-56559000D02*
X159728999Y-56559000D01*
X155457999Y-56519000D02*
X156539999Y-56519000D01*
X158619999Y-56519000D02*
X159701999Y-56519000D01*
X155484999Y-56479000D02*
X156539999Y-56479000D01*
X158619999Y-56479000D02*
X159674999Y-56479000D01*
X155514999Y-56439000D02*
X156539999Y-56439000D01*
X158619999Y-56439000D02*
X159644999Y-56439000D01*
X155544999Y-56399000D02*
X156539999Y-56399000D01*
X158619999Y-56399000D02*
X159614999Y-56399000D01*
X155575999Y-56359000D02*
X156539999Y-56359000D01*
X158619999Y-56359000D02*
X159583999Y-56359000D01*
X155608999Y-56319000D02*
X156539999Y-56319000D01*
X158619999Y-56319000D02*
X159550999Y-56319000D01*
X155642999Y-56279000D02*
X156539999Y-56279000D01*
X158619999Y-56279000D02*
X159516999Y-56279000D01*
X155678999Y-56239000D02*
X156539999Y-56239000D01*
X158619999Y-56239000D02*
X159480999Y-56239000D01*
X155715999Y-56199000D02*
X156539999Y-56199000D01*
X158619999Y-56199000D02*
X159443999Y-56199000D01*
X155753999Y-56159000D02*
X156539999Y-56159000D01*
X158619999Y-56159000D02*
X159405999Y-56159000D01*
X155794999Y-56119000D02*
X156539999Y-56119000D01*
X158619999Y-56119000D02*
X159364999Y-56119000D01*
X155836999Y-56079000D02*
X156539999Y-56079000D01*
X158619999Y-56079000D02*
X159322999Y-56079000D01*
X155880999Y-56039000D02*
X156539999Y-56039000D01*
X158619999Y-56039000D02*
X159278999Y-56039000D01*
X155926999Y-55999000D02*
X156539999Y-55999000D01*
X158619999Y-55999000D02*
X159232999Y-55999000D01*
X155974999Y-55959000D02*
X159184999Y-55959000D01*
X156025999Y-55919000D02*
X159133999Y-55919000D01*
X156079999Y-55879000D02*
X159079999Y-55879000D01*
X156136999Y-55839000D02*
X159022999Y-55839000D01*
X156196999Y-55799000D02*
X158962999Y-55799000D01*
X156260999Y-55759000D02*
X158898999Y-55759000D01*
X156328999Y-55719000D02*
X158830999Y-55719000D01*
X156401999Y-55679000D02*
X158757999Y-55679000D01*
X156481999Y-55639000D02*
X158677999Y-55639000D01*
X156568999Y-55599000D02*
X158590999Y-55599000D01*
X156664999Y-55559000D02*
X158494999Y-55559000D01*
X156774999Y-55519000D02*
X158384999Y-55519000D01*
X156902999Y-55479000D02*
X158256999Y-55479000D01*
X157061999Y-55439000D02*
X158097999Y-55439000D01*
X157295999Y-55399000D02*
X157863999Y-55399000D01*
X156104999Y-60804775D02*
X156104999Y-60304775D01*
X155854999Y-60554775D02*
X156354999Y-60554775D01*
D12*
X53238095Y-76571428D02*
X54000000Y-76571428D01*
X55000000Y-76952380D02*
X54428571Y-76952380D01*
X54714285Y-76952380D02*
X54714285Y-75952380D01*
X54619047Y-76095238D01*
X54523809Y-76190476D01*
X54428571Y-76238095D01*
X55380952Y-76047619D02*
X55428571Y-76000000D01*
X55523809Y-75952380D01*
X55761904Y-75952380D01*
X55857142Y-76000000D01*
X55904761Y-76047619D01*
X55952380Y-76142857D01*
X55952380Y-76238095D01*
X55904761Y-76380952D01*
X55333333Y-76952380D01*
X55952380Y-76952380D01*
X56238095Y-75952380D02*
X56571428Y-76952380D01*
X56904761Y-75952380D01*
X54238095Y-67925000D02*
X54142857Y-67877380D01*
X54000000Y-67877380D01*
X53857142Y-67925000D01*
X53761904Y-68020238D01*
X53714285Y-68115476D01*
X53666666Y-68305952D01*
X53666666Y-68448809D01*
X53714285Y-68639285D01*
X53761904Y-68734523D01*
X53857142Y-68829761D01*
X54000000Y-68877380D01*
X54095238Y-68877380D01*
X54238095Y-68829761D01*
X54285714Y-68782142D01*
X54285714Y-68448809D01*
X54095238Y-68448809D01*
X54714285Y-68877380D02*
X54714285Y-67877380D01*
X55285714Y-68877380D01*
X55285714Y-67877380D01*
X55761904Y-68877380D02*
X55761904Y-67877380D01*
X56000000Y-67877380D01*
X56142857Y-67925000D01*
X56238095Y-68020238D01*
X56285714Y-68115476D01*
X56333333Y-68305952D01*
X56333333Y-68448809D01*
X56285714Y-68639285D01*
X56238095Y-68734523D01*
X56142857Y-68829761D01*
X56000000Y-68877380D01*
X55761904Y-68877380D01*
X53238095Y-60571428D02*
X54000000Y-60571428D01*
X53619047Y-60952380D02*
X53619047Y-60190476D01*
X55000000Y-60952380D02*
X54428571Y-60952380D01*
X54714285Y-60952380D02*
X54714285Y-59952380D01*
X54619047Y-60095238D01*
X54523809Y-60190476D01*
X54428571Y-60238095D01*
X55380952Y-60047619D02*
X55428571Y-60000000D01*
X55523809Y-59952380D01*
X55761904Y-59952380D01*
X55857142Y-60000000D01*
X55904761Y-60047619D01*
X55952380Y-60142857D01*
X55952380Y-60238095D01*
X55904761Y-60380952D01*
X55333333Y-60952380D01*
X55952380Y-60952380D01*
X56238095Y-59952380D02*
X56571428Y-60952380D01*
X56904761Y-59952380D01*
X116983333Y-80732380D02*
X116650000Y-80256190D01*
X116411904Y-80732380D02*
X116411904Y-79732380D01*
X116792857Y-79732380D01*
X116888095Y-79780000D01*
X116935714Y-79827619D01*
X116983333Y-79922857D01*
X116983333Y-80065714D01*
X116935714Y-80160952D01*
X116888095Y-80208571D01*
X116792857Y-80256190D01*
X116411904Y-80256190D01*
X117364285Y-79827619D02*
X117411904Y-79780000D01*
X117507142Y-79732380D01*
X117745238Y-79732380D01*
X117840476Y-79780000D01*
X117888095Y-79827619D01*
X117935714Y-79922857D01*
X117935714Y-80018095D01*
X117888095Y-80160952D01*
X117316666Y-80732380D01*
X117935714Y-80732380D01*
X116983333Y-61402380D02*
X116650000Y-60926190D01*
X116411904Y-61402380D02*
X116411904Y-60402380D01*
X116792857Y-60402380D01*
X116888095Y-60450000D01*
X116935714Y-60497619D01*
X116983333Y-60592857D01*
X116983333Y-60735714D01*
X116935714Y-60830952D01*
X116888095Y-60878571D01*
X116792857Y-60926190D01*
X116411904Y-60926190D01*
X117935714Y-61402380D02*
X117364285Y-61402380D01*
X117650000Y-61402380D02*
X117650000Y-60402380D01*
X117554761Y-60545238D01*
X117459523Y-60640476D01*
X117364285Y-60688095D01*
X62396666Y-62852380D02*
X62396666Y-63566666D01*
X62349047Y-63709523D01*
X62253809Y-63804761D01*
X62110952Y-63852380D01*
X62015714Y-63852380D01*
X63015714Y-63280952D02*
X62920476Y-63233333D01*
X62872857Y-63185714D01*
X62825238Y-63090476D01*
X62825238Y-63042857D01*
X62872857Y-62947619D01*
X62920476Y-62900000D01*
X63015714Y-62852380D01*
X63206190Y-62852380D01*
X63301428Y-62900000D01*
X63349047Y-62947619D01*
X63396666Y-63042857D01*
X63396666Y-63090476D01*
X63349047Y-63185714D01*
X63301428Y-63233333D01*
X63206190Y-63280952D01*
X63015714Y-63280952D01*
X62920476Y-63328571D01*
X62872857Y-63376190D01*
X62825238Y-63471428D01*
X62825238Y-63661904D01*
X62872857Y-63757142D01*
X62920476Y-63804761D01*
X63015714Y-63852380D01*
X63206190Y-63852380D01*
X63301428Y-63804761D01*
X63349047Y-63757142D01*
X63396666Y-63661904D01*
X63396666Y-63471428D01*
X63349047Y-63376190D01*
X63301428Y-63328571D01*
X63206190Y-63280952D01*
X91106666Y-77782380D02*
X91106666Y-78496666D01*
X91059047Y-78639523D01*
X90963809Y-78734761D01*
X90820952Y-78782380D01*
X90725714Y-78782380D01*
X91487619Y-77782380D02*
X92154285Y-77782380D01*
X91725714Y-78782380D01*
X223396666Y-77782380D02*
X223396666Y-78496666D01*
X223349047Y-78639523D01*
X223253809Y-78734761D01*
X223110952Y-78782380D01*
X223015714Y-78782380D01*
X224301428Y-77782380D02*
X224110952Y-77782380D01*
X224015714Y-77830000D01*
X223968095Y-77877619D01*
X223872857Y-78020476D01*
X223825238Y-78210952D01*
X223825238Y-78591904D01*
X223872857Y-78687142D01*
X223920476Y-78734761D01*
X224015714Y-78782380D01*
X224206190Y-78782380D01*
X224301428Y-78734761D01*
X224349047Y-78687142D01*
X224396666Y-78591904D01*
X224396666Y-78353809D01*
X224349047Y-78258571D01*
X224301428Y-78210952D01*
X224206190Y-78163333D01*
X224015714Y-78163333D01*
X223920476Y-78210952D01*
X223872857Y-78258571D01*
X223825238Y-78353809D01*
X113154999Y-77782380D02*
X113154999Y-78496666D01*
X113107380Y-78639523D01*
X113012142Y-78734761D01*
X112869285Y-78782380D01*
X112774047Y-78782380D01*
X114107380Y-77782380D02*
X113631190Y-77782380D01*
X113583571Y-78258571D01*
X113631190Y-78210952D01*
X113726428Y-78163333D01*
X113964523Y-78163333D01*
X114059761Y-78210952D01*
X114107380Y-78258571D01*
X114154999Y-78353809D01*
X114154999Y-78591904D01*
X114107380Y-78687142D01*
X114059761Y-78734761D01*
X113964523Y-78782380D01*
X113726428Y-78782380D01*
X113631190Y-78734761D01*
X113583571Y-78687142D01*
X157251665Y-77782380D02*
X157251665Y-78496666D01*
X157204046Y-78639523D01*
X157108808Y-78734761D01*
X156965951Y-78782380D01*
X156870713Y-78782380D01*
X158156427Y-78115714D02*
X158156427Y-78782380D01*
X157918332Y-77734761D02*
X157680237Y-78449047D01*
X158299284Y-78449047D01*
X135203332Y-77782380D02*
X135203332Y-78496666D01*
X135155713Y-78639523D01*
X135060475Y-78734761D01*
X134917618Y-78782380D01*
X134822380Y-78782380D01*
X135584285Y-77782380D02*
X136203332Y-77782380D01*
X135869999Y-78163333D01*
X136012856Y-78163333D01*
X136108094Y-78210952D01*
X136155713Y-78258571D01*
X136203332Y-78353809D01*
X136203332Y-78591904D01*
X136155713Y-78687142D01*
X136108094Y-78734761D01*
X136012856Y-78782380D01*
X135727142Y-78782380D01*
X135631904Y-78734761D01*
X135584285Y-78687142D01*
X201348331Y-77782380D02*
X201348331Y-78496666D01*
X201300712Y-78639523D01*
X201205474Y-78734761D01*
X201062617Y-78782380D01*
X200967379Y-78782380D01*
X201776903Y-77877619D02*
X201824522Y-77830000D01*
X201919760Y-77782380D01*
X202157855Y-77782380D01*
X202253093Y-77830000D01*
X202300712Y-77877619D01*
X202348331Y-77972857D01*
X202348331Y-78068095D01*
X202300712Y-78210952D01*
X201729284Y-78782380D01*
X202348331Y-78782380D01*
X179299998Y-77782380D02*
X179299998Y-78496666D01*
X179252379Y-78639523D01*
X179157141Y-78734761D01*
X179014284Y-78782380D01*
X178919046Y-78782380D01*
X180299998Y-78782380D02*
X179728570Y-78782380D01*
X180014284Y-78782380D02*
X180014284Y-77782380D01*
X179919046Y-77925238D01*
X179823808Y-78020476D01*
X179728570Y-78068095D01*
X129061904Y-87412380D02*
X129061904Y-86412380D01*
X129300000Y-86412380D01*
X129442857Y-86460000D01*
X129538095Y-86555238D01*
X129585714Y-86650476D01*
X129633333Y-86840952D01*
X129633333Y-86983809D01*
X129585714Y-87174285D01*
X129538095Y-87269523D01*
X129442857Y-87364761D01*
X129300000Y-87412380D01*
X129061904Y-87412380D01*
X130014285Y-86507619D02*
X130061904Y-86460000D01*
X130157142Y-86412380D01*
X130395238Y-86412380D01*
X130490476Y-86460000D01*
X130538095Y-86507619D01*
X130585714Y-86602857D01*
X130585714Y-86698095D01*
X130538095Y-86840952D01*
X129966666Y-87412380D01*
X130585714Y-87412380D01*
X128791904Y-62642380D02*
X128791904Y-61642380D01*
X129030000Y-61642380D01*
X129172857Y-61690000D01*
X129268095Y-61785238D01*
X129315714Y-61880476D01*
X129363333Y-62070952D01*
X129363333Y-62213809D01*
X129315714Y-62404285D01*
X129268095Y-62499523D01*
X129172857Y-62594761D01*
X129030000Y-62642380D01*
X128791904Y-62642380D01*
X130315714Y-62642380D02*
X129744285Y-62642380D01*
X130030000Y-62642380D02*
X130030000Y-61642380D01*
X129934761Y-61785238D01*
X129839523Y-61880476D01*
X129744285Y-61928095D01*
X154187141Y-83166666D02*
X154234760Y-83214285D01*
X154282379Y-83357142D01*
X154282379Y-83452380D01*
X154234760Y-83595238D01*
X154139522Y-83690476D01*
X154044284Y-83738095D01*
X153853808Y-83785714D01*
X153710951Y-83785714D01*
X153520475Y-83738095D01*
X153425237Y-83690476D01*
X153329999Y-83595238D01*
X153282379Y-83452380D01*
X153282379Y-83357142D01*
X153329999Y-83214285D01*
X153377618Y-83166666D01*
X153377618Y-82785714D02*
X153329999Y-82738095D01*
X153282379Y-82642857D01*
X153282379Y-82404761D01*
X153329999Y-82309523D01*
X153377618Y-82261904D01*
X153472856Y-82214285D01*
X153568094Y-82214285D01*
X153710951Y-82261904D01*
X154282379Y-82833333D01*
X154282379Y-82214285D01*
X154187141Y-58166666D02*
X154234760Y-58214285D01*
X154282379Y-58357142D01*
X154282379Y-58452380D01*
X154234760Y-58595238D01*
X154139522Y-58690476D01*
X154044284Y-58738095D01*
X153853808Y-58785714D01*
X153710951Y-58785714D01*
X153520475Y-58738095D01*
X153425237Y-58690476D01*
X153329999Y-58595238D01*
X153282379Y-58452380D01*
X153282379Y-58357142D01*
X153329999Y-58214285D01*
X153377618Y-58166666D01*
X154282379Y-57214285D02*
X154282379Y-57785714D01*
X154282379Y-57500000D02*
X153282379Y-57500000D01*
X153425237Y-57595238D01*
X153520475Y-57690476D01*
X153568094Y-57785714D01*
%LPC*%
D13*
X55000000Y-79000000D03*
X55000000Y-70925000D03*
X55000000Y-63000000D03*
D14*
X123500000Y-83000000D03*
D15*
X110800000Y-83000000D03*
D14*
X110800000Y-58230000D03*
D15*
X123500000Y-58230000D03*
D16*
X61460000Y-65840000D03*
X64000000Y-65840000D03*
X61460000Y-68380000D03*
X64000000Y-68380000D03*
X61460000Y-70920000D03*
X64000000Y-70920000D03*
X61460000Y-73460000D03*
X64000000Y-73460000D03*
X61460000Y-76000000D03*
D17*
X64000000Y-76000000D03*
D16*
X90170000Y-65840000D03*
X92710000Y-65840000D03*
X90170000Y-68380000D03*
X92710000Y-68380000D03*
X90170000Y-70920000D03*
X92710000Y-70920000D03*
X90170000Y-73460000D03*
X92710000Y-73460000D03*
X90170000Y-76000000D03*
D17*
X92710000Y-76000000D03*
D16*
X222460000Y-65840000D03*
X225000000Y-65840000D03*
X222460000Y-68380000D03*
X225000000Y-68380000D03*
X222460000Y-70920000D03*
X225000000Y-70920000D03*
X222460000Y-73460000D03*
X225000000Y-73460000D03*
X222460000Y-76000000D03*
D17*
X225000000Y-76000000D03*
D16*
X112218333Y-65840000D03*
X114758333Y-65840000D03*
X112218333Y-68380000D03*
X114758333Y-68380000D03*
X112218333Y-70920000D03*
X114758333Y-70920000D03*
X112218333Y-73460000D03*
X114758333Y-73460000D03*
X112218333Y-76000000D03*
D17*
X114758333Y-76000000D03*
D16*
X156314999Y-65840000D03*
X158854999Y-65840000D03*
X156314999Y-68380000D03*
X158854999Y-68380000D03*
X156314999Y-70920000D03*
X158854999Y-70920000D03*
X156314999Y-73460000D03*
X158854999Y-73460000D03*
X156314999Y-76000000D03*
D17*
X158854999Y-76000000D03*
D16*
X134266666Y-65840000D03*
X136806666Y-65840000D03*
X134266666Y-68380000D03*
X136806666Y-68380000D03*
X134266666Y-70920000D03*
X136806666Y-70920000D03*
X134266666Y-73460000D03*
X136806666Y-73460000D03*
X134266666Y-76000000D03*
D17*
X136806666Y-76000000D03*
D16*
X200411665Y-65840000D03*
X202951665Y-65840000D03*
X200411665Y-68380000D03*
X202951665Y-68380000D03*
X200411665Y-70920000D03*
X202951665Y-70920000D03*
X200411665Y-73460000D03*
X202951665Y-73460000D03*
X200411665Y-76000000D03*
D17*
X202951665Y-76000000D03*
D16*
X178363332Y-65840000D03*
X180903332Y-65840000D03*
X178363332Y-68380000D03*
X180903332Y-68380000D03*
X178363332Y-70920000D03*
X180903332Y-70920000D03*
X178363332Y-73460000D03*
X180903332Y-73460000D03*
X178363332Y-76000000D03*
D17*
X180903332Y-76000000D03*
D18*
X128530000Y-83000000D03*
D19*
X131070000Y-83000000D03*
D18*
X128260000Y-58230000D03*
D19*
X130800000Y-58230000D03*
D15*
X157579999Y-82000000D03*
D20*
X157579999Y-84000000D03*
D15*
X157579999Y-57000000D03*
D20*
X157579999Y-59000000D03*
M02*
