M48
; DRILL file {KiCad (5.1.9)-1} date 10/01/21 15:01:01
; FORMAT={-:-/ absolute / metric / decimal}
; #@! TF.CreationDate,2021-10-01T15:01:01+02:00
; #@! TF.GenerationSoftware,Kicad,Pcbnew,(5.1.9)-1
; #@! TF.FileFunction,Plated,1,2,PTH
FMAT,2
METRIC
T1C0.800
T2C0.900
T3C1.000
T4C3.000
%
G90
G05
T1
X110.8Y-58.23
X110.8Y-83.0
X123.5Y-58.23
X123.5Y-83.0
X157.58Y-57.0
X157.58Y-59.0
X157.58Y-82.0
X157.58Y-84.0
T2
X128.26Y-58.23
X128.53Y-83.0
X130.8Y-58.23
X131.07Y-83.0
T3
X55.0Y-63.0
X55.0Y-70.925
X55.0Y-79.0
X61.46Y-65.84
X61.46Y-68.38
X61.46Y-70.92
X61.46Y-73.46
X61.46Y-76.0
X64.0Y-65.84
X64.0Y-68.38
X64.0Y-70.92
X64.0Y-73.46
X64.0Y-76.0
X90.17Y-65.84
X90.17Y-68.38
X90.17Y-70.92
X90.17Y-73.46
X90.17Y-76.0
X92.71Y-65.84
X92.71Y-68.38
X92.71Y-70.92
X92.71Y-73.46
X92.71Y-76.0
X112.218Y-65.84
X112.218Y-68.38
X112.218Y-70.92
X112.218Y-73.46
X112.218Y-76.0
X114.758Y-65.84
X114.758Y-68.38
X114.758Y-70.92
X114.758Y-73.46
X114.758Y-76.0
X134.267Y-65.84
X134.267Y-68.38
X134.267Y-70.92
X134.267Y-73.46
X134.267Y-76.0
X136.807Y-65.84
X136.807Y-68.38
X136.807Y-70.92
X136.807Y-73.46
X136.807Y-76.0
X156.315Y-65.84
X156.315Y-68.38
X156.315Y-70.92
X156.315Y-73.46
X156.315Y-76.0
X158.855Y-65.84
X158.855Y-68.38
X158.855Y-70.92
X158.855Y-73.46
X158.855Y-76.0
X178.363Y-65.84
X178.363Y-68.38
X178.363Y-70.92
X178.363Y-73.46
X178.363Y-76.0
X180.903Y-65.84
X180.903Y-68.38
X180.903Y-70.92
X180.903Y-73.46
X180.903Y-76.0
X200.412Y-65.84
X200.412Y-68.38
X200.412Y-70.92
X200.412Y-73.46
X200.412Y-76.0
X202.952Y-65.84
X202.952Y-68.38
X202.952Y-70.92
X202.952Y-73.46
X202.952Y-76.0
X222.46Y-65.84
X222.46Y-68.38
X222.46Y-70.92
X222.46Y-73.46
X222.46Y-76.0
X225.0Y-65.84
X225.0Y-68.38
X225.0Y-70.92
X225.0Y-73.46
X225.0Y-76.0
T4
X54.0Y-57.0
X54.0Y-85.0
X228.0Y-57.0
X228.0Y-85.0
T0
M30
