G04 #@! TF.GenerationSoftware,KiCad,Pcbnew,(6.0.6)*
G04 #@! TF.CreationDate,2022-10-26T13:20:39+02:00*
G04 #@! TF.ProjectId,Snare+Hihat,536e6172-652b-4486-9968-61742e6b6963,rev?*
G04 #@! TF.SameCoordinates,Original*
G04 #@! TF.FileFunction,Legend,Bot*
G04 #@! TF.FilePolarity,Positive*
%FSLAX46Y46*%
G04 Gerber Fmt 4.6, Leading zero omitted, Abs format (unit mm)*
G04 Created by KiCad (PCBNEW (6.0.6)) date 2022-10-26 13:20:39*
%MOMM*%
%LPD*%
G01*
G04 APERTURE LIST*
G04 #@! TA.AperFunction,Profile*
%ADD10C,0.050000*%
G04 #@! TD*
%ADD11C,0.150000*%
%ADD12C,0.120000*%
%ADD13C,1.600000*%
%ADD14R,1.600000X1.600000*%
%ADD15R,1.800000X1.800000*%
%ADD16C,1.800000*%
%ADD17C,4.000000*%
%ADD18R,1.930000X1.830000*%
%ADD19C,2.130000*%
%ADD20R,1.050000X1.500000*%
%ADD21O,1.050000X1.500000*%
%ADD22O,1.600000X1.600000*%
%ADD23O,3.700000X2.400000*%
%ADD24O,1.700000X1.700000*%
%ADD25R,1.700000X1.700000*%
G04 APERTURE END LIST*
D10*
X73000000Y-31000000D02*
X112999999Y-31000000D01*
X112999999Y-31000000D02*
X113000000Y-141000000D01*
X73000000Y-31000000D02*
X73000000Y-141000000D01*
X73000000Y-141000000D02*
X113000000Y-141000000D01*
D11*
X83619047Y-31952380D02*
X83619047Y-32666666D01*
X83666666Y-32809523D01*
X83761904Y-32904761D01*
X83904761Y-32952380D01*
X84000000Y-32952380D01*
X82666666Y-32952380D02*
X83142857Y-32952380D01*
X83142857Y-31952380D01*
X81761904Y-32857142D02*
X81809523Y-32904761D01*
X81952380Y-32952380D01*
X82047619Y-32952380D01*
X82190476Y-32904761D01*
X82285714Y-32809523D01*
X82333333Y-32714285D01*
X82380952Y-32523809D01*
X82380952Y-32380952D01*
X82333333Y-32190476D01*
X82285714Y-32095238D01*
X82190476Y-32000000D01*
X82047619Y-31952380D01*
X81952380Y-31952380D01*
X81809523Y-32000000D01*
X81761904Y-32047619D01*
X81047619Y-31952380D02*
X81047619Y-32666666D01*
X81095238Y-32809523D01*
X81190476Y-32904761D01*
X81333333Y-32952380D01*
X81428571Y-32952380D01*
X80095238Y-32952380D02*
X80571428Y-32952380D01*
X80571428Y-31952380D01*
X79190476Y-32857142D02*
X79238095Y-32904761D01*
X79380952Y-32952380D01*
X79476190Y-32952380D01*
X79619047Y-32904761D01*
X79714285Y-32809523D01*
X79761904Y-32714285D01*
X79809523Y-32523809D01*
X79809523Y-32380952D01*
X79761904Y-32190476D01*
X79714285Y-32095238D01*
X79619047Y-32000000D01*
X79476190Y-31952380D01*
X79380952Y-31952380D01*
X79238095Y-32000000D01*
X79190476Y-32047619D01*
X78476190Y-31952380D02*
X78476190Y-32666666D01*
X78523809Y-32809523D01*
X78619047Y-32904761D01*
X78761904Y-32952380D01*
X78857142Y-32952380D01*
X77523809Y-32952380D02*
X78000000Y-32952380D01*
X78000000Y-31952380D01*
X76619047Y-32857142D02*
X76666666Y-32904761D01*
X76809523Y-32952380D01*
X76904761Y-32952380D01*
X77047619Y-32904761D01*
X77142857Y-32809523D01*
X77190476Y-32714285D01*
X77238095Y-32523809D01*
X77238095Y-32380952D01*
X77190476Y-32190476D01*
X77142857Y-32095238D01*
X77047619Y-32000000D01*
X76904761Y-31952380D01*
X76809523Y-31952380D01*
X76666666Y-32000000D01*
X76619047Y-32047619D01*
X75904761Y-31952380D02*
X75904761Y-32666666D01*
X75952380Y-32809523D01*
X76047619Y-32904761D01*
X76190476Y-32952380D01*
X76285714Y-32952380D01*
X74952380Y-32952380D02*
X75428571Y-32952380D01*
X75428571Y-31952380D01*
X74047619Y-32857142D02*
X74095238Y-32904761D01*
X74238095Y-32952380D01*
X74333333Y-32952380D01*
X74476190Y-32904761D01*
X74571428Y-32809523D01*
X74619047Y-32714285D01*
X74666666Y-32523809D01*
X74666666Y-32380952D01*
X74619047Y-32190476D01*
X74571428Y-32095238D01*
X74476190Y-32000000D01*
X74333333Y-31952380D01*
X74238095Y-31952380D01*
X74095238Y-32000000D01*
X74047619Y-32047619D01*
X75333333Y-95142380D02*
X75333333Y-95856666D01*
X75380952Y-95999523D01*
X75476190Y-96094761D01*
X75619047Y-96142380D01*
X75714285Y-96142380D01*
X74714285Y-95570952D02*
X74809523Y-95523333D01*
X74857142Y-95475714D01*
X74904761Y-95380476D01*
X74904761Y-95332857D01*
X74857142Y-95237619D01*
X74809523Y-95190000D01*
X74714285Y-95142380D01*
X74523809Y-95142380D01*
X74428571Y-95190000D01*
X74380952Y-95237619D01*
X74333333Y-95332857D01*
X74333333Y-95380476D01*
X74380952Y-95475714D01*
X74428571Y-95523333D01*
X74523809Y-95570952D01*
X74714285Y-95570952D01*
X74809523Y-95618571D01*
X74857142Y-95666190D01*
X74904761Y-95761428D01*
X74904761Y-95951904D01*
X74857142Y-96047142D01*
X74809523Y-96094761D01*
X74714285Y-96142380D01*
X74523809Y-96142380D01*
X74428571Y-96094761D01*
X74380952Y-96047142D01*
X74333333Y-95951904D01*
X74333333Y-95761428D01*
X74380952Y-95666190D01*
X74428571Y-95618571D01*
X74523809Y-95570952D01*
X111333333Y-95142380D02*
X111333333Y-95856666D01*
X111380952Y-95999523D01*
X111476190Y-96094761D01*
X111619047Y-96142380D01*
X111714285Y-96142380D01*
X110428571Y-95142380D02*
X110619047Y-95142380D01*
X110714285Y-95190000D01*
X110761904Y-95237619D01*
X110857142Y-95380476D01*
X110904761Y-95570952D01*
X110904761Y-95951904D01*
X110857142Y-96047142D01*
X110809523Y-96094761D01*
X110714285Y-96142380D01*
X110523809Y-96142380D01*
X110428571Y-96094761D01*
X110380952Y-96047142D01*
X110333333Y-95951904D01*
X110333333Y-95713809D01*
X110380952Y-95618571D01*
X110428571Y-95570952D01*
X110523809Y-95523333D01*
X110714285Y-95523333D01*
X110809523Y-95570952D01*
X110857142Y-95618571D01*
X110904761Y-95713809D01*
X97747380Y-136665476D02*
X98461666Y-136665476D01*
X98604523Y-136617857D01*
X98699761Y-136522619D01*
X98747380Y-136379761D01*
X98747380Y-136284523D01*
X98747380Y-137665476D02*
X98747380Y-137094047D01*
X98747380Y-137379761D02*
X97747380Y-137379761D01*
X97890238Y-137284523D01*
X97985476Y-137189285D01*
X98033095Y-137094047D01*
X97747380Y-138284523D02*
X97747380Y-138379761D01*
X97795000Y-138475000D01*
X97842619Y-138522619D01*
X97937857Y-138570238D01*
X98128333Y-138617857D01*
X98366428Y-138617857D01*
X98556904Y-138570238D01*
X98652142Y-138522619D01*
X98699761Y-138475000D01*
X98747380Y-138379761D01*
X98747380Y-138284523D01*
X98699761Y-138189285D01*
X98652142Y-138141666D01*
X98556904Y-138094047D01*
X98366428Y-138046428D01*
X98128333Y-138046428D01*
X97937857Y-138094047D01*
X97842619Y-138141666D01*
X97795000Y-138189285D01*
X97747380Y-138284523D01*
D12*
X76330000Y-117570000D02*
X73670000Y-117570000D01*
X73670000Y-99730000D02*
X73670000Y-117570000D01*
X73670000Y-97130000D02*
X73670000Y-98460000D01*
X75000000Y-97130000D02*
X73670000Y-97130000D01*
X76330000Y-99730000D02*
X76330000Y-117570000D01*
X76330000Y-99730000D02*
X73670000Y-99730000D01*
X111000000Y-97130000D02*
X109670000Y-97130000D01*
X112330000Y-117570000D02*
X109670000Y-117570000D01*
X112330000Y-99730000D02*
X109670000Y-99730000D01*
X109670000Y-99730000D02*
X109670000Y-117570000D01*
X109670000Y-97130000D02*
X109670000Y-98460000D01*
X112330000Y-99730000D02*
X112330000Y-117570000D01*
X94255000Y-138805000D02*
X89115000Y-138805000D01*
X94255000Y-136145000D02*
X89115000Y-136145000D01*
X96855000Y-137475000D02*
X96855000Y-136145000D01*
X94255000Y-138805000D02*
X94255000Y-136145000D01*
X96855000Y-136145000D02*
X95525000Y-136145000D01*
X89115000Y-138805000D02*
X89115000Y-136145000D01*
%LPC*%
D13*
X102500000Y-70000000D03*
X97500000Y-70000000D03*
X105000000Y-70000000D03*
X110000000Y-70000000D03*
X95100000Y-88900000D03*
X95100000Y-93900000D03*
D14*
X95044888Y-132500000D03*
D13*
X97044888Y-132500000D03*
D14*
X91000000Y-132500000D03*
D13*
X89000000Y-132500000D03*
X80500000Y-70000000D03*
X75500000Y-70000000D03*
X111000000Y-121000000D03*
X111000000Y-126000000D03*
X83500000Y-70000000D03*
X88500000Y-70000000D03*
X91100000Y-88900000D03*
X91100000Y-93900000D03*
X75000000Y-121000000D03*
X75000000Y-126000000D03*
D15*
X102725000Y-109000000D03*
D16*
X105265000Y-109000000D03*
D15*
X80725000Y-109000000D03*
D16*
X83265000Y-109000000D03*
D17*
X77600000Y-37500000D03*
X86400000Y-37500000D03*
D16*
X84500000Y-44500000D03*
X82000000Y-44500000D03*
X79500000Y-44500000D03*
D18*
X82000000Y-113500000D03*
D19*
X82000000Y-124900000D03*
X82000000Y-116600000D03*
D18*
X104000000Y-128000000D03*
D19*
X104000000Y-139400000D03*
X104000000Y-131100000D03*
D18*
X82000000Y-128000000D03*
D19*
X82000000Y-139400000D03*
X82000000Y-131100000D03*
D20*
X105270000Y-103140000D03*
D21*
X104000000Y-103140000D03*
X102730000Y-103140000D03*
D20*
X80730000Y-103860000D03*
D21*
X82000000Y-103860000D03*
X83270000Y-103860000D03*
D13*
X97600000Y-102800000D03*
D22*
X100140000Y-102800000D03*
D13*
X95950000Y-99640000D03*
D22*
X95950000Y-97100000D03*
D13*
X111000000Y-138500000D03*
D22*
X111000000Y-128340000D03*
D13*
X88400000Y-102800000D03*
D22*
X85860000Y-102800000D03*
D13*
X90000000Y-99600000D03*
D22*
X90000000Y-97060000D03*
D13*
X75000000Y-138580000D03*
D22*
X75000000Y-128420000D03*
D17*
X86400000Y-58050000D03*
X77600000Y-58050000D03*
D16*
X84500000Y-65050000D03*
X82000000Y-65050000D03*
X79500000Y-65050000D03*
D17*
X99600000Y-37500000D03*
X108400000Y-37500000D03*
D16*
X106500000Y-44500000D03*
X104000000Y-44500000D03*
X101500000Y-44500000D03*
D17*
X108400000Y-58050000D03*
X99600000Y-58050000D03*
D16*
X106500000Y-65050000D03*
X104000000Y-65050000D03*
X101500000Y-65050000D03*
D17*
X99600000Y-78000000D03*
X108400000Y-78000000D03*
D16*
X106500000Y-85000000D03*
X104000000Y-85000000D03*
X101500000Y-85000000D03*
D17*
X86400000Y-78000000D03*
X77600000Y-78000000D03*
D16*
X84500000Y-85000000D03*
X82000000Y-85000000D03*
X79500000Y-85000000D03*
D18*
X104000000Y-113500000D03*
D19*
X104000000Y-124900000D03*
X104000000Y-116600000D03*
D23*
X101600000Y-89800000D03*
X101600000Y-94500000D03*
X101600000Y-99200000D03*
X106400000Y-89800000D03*
X106400000Y-94500000D03*
X106400000Y-99200000D03*
X79600000Y-89800000D03*
X79600000Y-94500000D03*
X79600000Y-99200000D03*
X84400000Y-89800000D03*
X84400000Y-94500000D03*
X84400000Y-99200000D03*
D14*
X96800000Y-126300000D03*
D22*
X96800000Y-123760000D03*
X96800000Y-121220000D03*
X96800000Y-118680000D03*
X89180000Y-118680000D03*
X89180000Y-121220000D03*
X89180000Y-123760000D03*
X89180000Y-126300000D03*
D13*
X97400000Y-115500000D03*
D22*
X97400000Y-112960000D03*
D13*
X91100000Y-107100000D03*
X86100000Y-107100000D03*
X86305000Y-110300000D03*
D22*
X88845000Y-110300000D03*
D13*
X99595000Y-110300000D03*
D22*
X97055000Y-110300000D03*
D13*
X88600000Y-115500000D03*
D22*
X88600000Y-112960000D03*
D13*
X94900000Y-107100000D03*
X99900000Y-107100000D03*
D24*
X75000000Y-116240000D03*
X75000000Y-113700000D03*
X75000000Y-111160000D03*
X75000000Y-108620000D03*
X75000000Y-106080000D03*
X75000000Y-103540000D03*
X75000000Y-101000000D03*
D25*
X75000000Y-98460000D03*
X111000000Y-98460000D03*
D24*
X111000000Y-101000000D03*
X111000000Y-103540000D03*
X111000000Y-106080000D03*
X111000000Y-108620000D03*
X111000000Y-111160000D03*
X111000000Y-113700000D03*
X111000000Y-116240000D03*
D25*
X95525000Y-137475000D03*
D24*
X92985000Y-137475000D03*
X90445000Y-137475000D03*
M02*
