M48
; DRILL file {KiCad (6.0.0)} date Sat Apr 30 23:24:46 2022
; FORMAT={-:-/ absolute / metric / decimal}
; #@! TF.CreationDate,2022-04-30T23:24:46+02:00
; #@! TF.GenerationSoftware,Kicad,Pcbnew,(6.0.0)
; #@! TF.FileFunction,Plated,1,2,PTH
FMAT,2
METRIC
; #@! TA.AperFunction,Plated,PTH,ViaDrill
T1C0.400
; #@! TA.AperFunction,Plated,PTH,ComponentDrill
T2C0.750
; #@! TA.AperFunction,Plated,PTH,ComponentDrill
T3C0.800
; #@! TA.AperFunction,Plated,PTH,ComponentDrill
T4C1.000
%
G90
G05
T1
X173.0Y-110.0
X173.5Y-111.0
X174.0Y-110.0
X177.0Y-122.0
X177.0Y-123.0
X178.0Y-122.0
X178.0Y-123.0
X180.5Y-109.0
X181.0Y-110.0
X181.5Y-109.0
X182.0Y-116.0
X186.0Y-123.5
X187.0Y-123.5
X188.0Y-123.5
X189.0Y-112.5
X189.0Y-113.5
X190.0Y-112.5
X190.0Y-113.5
T2
X178.36Y-111.23
X178.36Y-112.5
X178.36Y-113.77
X178.36Y-117.23
X178.36Y-118.5
X178.36Y-119.77
X185.86Y-111.23
X185.86Y-112.5
X185.86Y-113.77
X185.86Y-117.23
X185.86Y-118.5
X185.86Y-119.77
T3
X163.5Y-111.84
X163.5Y-122.0
X164.5Y-34.5
X164.5Y-38.0
X164.5Y-42.0
X164.5Y-45.5
X165.0Y-96.955
X165.0Y-98.955
X167.5Y-111.84
X167.5Y-122.0
X169.5Y-93.0
X169.5Y-103.16
X171.0Y-127.42
X171.0Y-137.58
X172.5Y-114.545
X172.5Y-116.545
X173.0Y-95.58
X173.0Y-100.58
X174.5Y-60.0
X174.5Y-127.42
X174.5Y-137.58
X174.66Y-34.5
X174.66Y-38.0
X174.66Y-42.0
X174.66Y-45.5
X174.88Y-49.18
X174.88Y-51.72
X174.88Y-54.26
X174.88Y-56.8
X176.5Y-93.0
X176.5Y-103.16
X178.0Y-46.0
X179.5Y-60.0
X180.0Y-93.0
X180.0Y-103.16
X182.5Y-49.18
X182.5Y-51.72
X182.5Y-54.26
X182.5Y-56.8
X183.0Y-46.0
X183.25Y-107.75
X183.43Y-96.93
X183.43Y-99.47
X183.43Y-102.01
X183.43Y-104.55
X184.0Y-34.5
X184.045Y-41.0
X185.42Y-55.0
X185.42Y-58.0
X186.0Y-34.5
X186.045Y-41.0
X186.25Y-93.75
X188.25Y-107.75
X188.545Y-68.0
X189.42Y-34.5
X189.42Y-42.5
X190.545Y-68.0
X191.05Y-96.93
X191.05Y-99.47
X191.05Y-102.01
X191.05Y-104.55
X191.25Y-93.75
X191.5Y-120.045
X191.5Y-122.045
X192.045Y-63.0
X194.045Y-63.0
X195.58Y-55.0
X195.58Y-58.0
X196.0Y-91.92
X196.0Y-102.08
X196.0Y-104.5
X196.0Y-114.66
X198.5Y-117.545
X198.5Y-119.545
X199.5Y-94.5
X199.5Y-99.5
X199.5Y-101.92
X199.5Y-112.08
X199.58Y-34.5
X199.58Y-42.5
T4
X163.735Y-128.425
X163.735Y-130.965
X163.735Y-133.505
X163.735Y-136.045
X163.735Y-138.585
X166.275Y-128.425
X166.275Y-130.965
X166.275Y-133.505
X166.275Y-136.045
X166.275Y-138.585
X169.5Y-90.0
X172.04Y-90.0
X174.58Y-90.0
X176.96Y-106.5
X177.12Y-90.0
X179.5Y-106.5
X198.5Y-52.0
X198.5Y-54.54
X198.5Y-57.08
X198.5Y-59.62
X198.5Y-65.5
X198.5Y-68.04
T4
X169.1Y-78.75G85X169.1Y-80.25
G05
X173.75Y-85.4G85X172.25Y-85.4
G05
X176.75Y-72.6G85X175.25Y-72.6
G05
X179.5Y-84.06G85X180.56Y-83.0
G05
X181.9Y-77.25G85X181.9Y-75.75
G05
X186.1Y-78.75G85X186.1Y-80.25
G05
X186.1Y-132.75G85X186.1Y-134.25
G05
X190.75Y-85.4G85X189.25Y-85.4
G05
X190.75Y-139.4G85X189.25Y-139.4
G05
X193.75Y-72.6G85X192.25Y-72.6
G05
X193.75Y-126.6G85X192.25Y-126.6
G05
X196.5Y-84.06G85X197.56Y-83.0
G05
X196.5Y-138.06G85X197.56Y-137.0
G05
X198.9Y-77.25G85X198.9Y-75.75
G05
X198.9Y-131.25G85X198.9Y-129.75
G05
T0
M30
