G04 #@! TF.GenerationSoftware,KiCad,Pcbnew,(6.0.0)*
G04 #@! TF.CreationDate,2022-02-14T14:22:26+01:00*
G04 #@! TF.ProjectId,Basic-mixer,42617369-632d-46d6-9978-65722e6b6963,rev?*
G04 #@! TF.SameCoordinates,Original*
G04 #@! TF.FileFunction,Soldermask,Top*
G04 #@! TF.FilePolarity,Negative*
%FSLAX46Y46*%
G04 Gerber Fmt 4.6, Leading zero omitted, Abs format (unit mm)*
G04 Created by KiCad (PCBNEW (6.0.0)) date 2022-02-14 14:22:26*
%MOMM*%
%LPD*%
G01*
G04 APERTURE LIST*
%ADD10C,0.100000*%
%ADD11O,6.700000X4.200000*%
G04 APERTURE END LIST*
D10*
X91000000Y-52500000D02*
X86000000Y-52500000D01*
X86000000Y-52500000D02*
X86000000Y-47500000D01*
X86000000Y-47500000D02*
X91000000Y-47500000D01*
X91000000Y-47500000D02*
X91000000Y-52500000D01*
G36*
X91000000Y-52500000D02*
G01*
X86000000Y-52500000D01*
X86000000Y-47500000D01*
X91000000Y-47500000D01*
X91000000Y-52500000D01*
G37*
X91000000Y-52500000D02*
X86000000Y-52500000D01*
X86000000Y-47500000D01*
X91000000Y-47500000D01*
X91000000Y-52500000D01*
X91000000Y-120000000D02*
X86000000Y-120000000D01*
X86000000Y-120000000D02*
X86000000Y-115000000D01*
X86000000Y-115000000D02*
X91000000Y-115000000D01*
X91000000Y-115000000D02*
X91000000Y-120000000D01*
G36*
X91000000Y-120000000D02*
G01*
X86000000Y-120000000D01*
X86000000Y-115000000D01*
X91000000Y-115000000D01*
X91000000Y-120000000D01*
G37*
X91000000Y-120000000D02*
X86000000Y-120000000D01*
X86000000Y-115000000D01*
X91000000Y-115000000D01*
X91000000Y-120000000D01*
X91000000Y-97500000D02*
X86000000Y-97500000D01*
X86000000Y-97500000D02*
X86000000Y-92500000D01*
X86000000Y-92500000D02*
X91000000Y-92500000D01*
X91000000Y-92500000D02*
X91000000Y-97500000D01*
G36*
X91000000Y-97500000D02*
G01*
X86000000Y-97500000D01*
X86000000Y-92500000D01*
X91000000Y-92500000D01*
X91000000Y-97500000D01*
G37*
X91000000Y-97500000D02*
X86000000Y-97500000D01*
X86000000Y-92500000D01*
X91000000Y-92500000D01*
X91000000Y-97500000D01*
X91000000Y-75000000D02*
X86000000Y-75000000D01*
X86000000Y-75000000D02*
X86000000Y-70000000D01*
X86000000Y-70000000D02*
X91000000Y-70000000D01*
X91000000Y-70000000D02*
X91000000Y-75000000D01*
G36*
X91000000Y-75000000D02*
G01*
X86000000Y-75000000D01*
X86000000Y-70000000D01*
X91000000Y-70000000D01*
X91000000Y-75000000D01*
G37*
X91000000Y-75000000D02*
X86000000Y-75000000D01*
X86000000Y-70000000D01*
X91000000Y-70000000D01*
X91000000Y-75000000D01*
D11*
X79500000Y-25000000D03*
X79500000Y-147000000D03*
X104500000Y-147000000D03*
X104500000Y-25000000D03*
M02*
