%FSLAX45Y45*%
G04 Gerber Fmt 4.5, Leading zero omitted, Abs format (unit mm)*
G04 Created by KiCad (PCBNEW (6.0.6)) date 2022-11-24 12:50:21*
%MOMM*%
%LPD*%
G01*
G04 APERTURE LIST*
%TA.AperFunction,Profile*%
%ADD10C,0.050000*%
%TD*%
%ADD11C,0.200000*%
%ADD12C,0.080000*%
%ADD13C,0.090000*%
%ADD14C,0.100000*%
%ADD15C,0.122000*%
%ADD16C,0.142000*%
%ADD17C,0.143000*%
G04 APERTURE END LIST*
D10*
X9500000Y-3650000D02*
X15500000Y-3650000D01*
X15500000Y-3650000D02*
X15500000Y-14650000D01*
X9500000Y-3650000D02*
X9500000Y-14650000D01*
X9500000Y-14650000D02*
X15500000Y-14650000D01*
D11*
D12*
X9660000Y-9894000D02*
X9740000Y-9974000D01*
X9740000Y-9894000D02*
X9660000Y-9974000D01*
X9660000Y-10910000D02*
X9740000Y-10990000D01*
X9740000Y-10910000D02*
X9660000Y-10990000D01*
X9952000Y-5460000D02*
X10032000Y-5540000D01*
X10032000Y-5460000D02*
X9952000Y-5540000D01*
X10210000Y-11802000D02*
X10290000Y-11882000D01*
X10290000Y-11802000D02*
X10210000Y-11882000D01*
X10210000Y-12818000D02*
X10290000Y-12898000D01*
X10290000Y-12818000D02*
X10210000Y-12898000D01*
X10360000Y-7352000D02*
X10440000Y-7432000D01*
X10440000Y-7352000D02*
X10360000Y-7432000D01*
X10360000Y-8368000D02*
X10440000Y-8448000D01*
X10440000Y-8368000D02*
X10360000Y-8448000D01*
X10710000Y-7352000D02*
X10790000Y-7432000D01*
X10790000Y-7352000D02*
X10710000Y-7432000D01*
X10710000Y-8368000D02*
X10790000Y-8448000D01*
X10790000Y-8368000D02*
X10710000Y-8448000D01*
X10760000Y-13352000D02*
X10840000Y-13432000D01*
X10840000Y-13352000D02*
X10760000Y-13432000D01*
X10760000Y-14368000D02*
X10840000Y-14448000D01*
X10840000Y-14368000D02*
X10760000Y-14448000D01*
X10968000Y-5460000D02*
X11048000Y-5540000D01*
X11048000Y-5460000D02*
X10968000Y-5540000D01*
X11944000Y-12960000D02*
X12024000Y-13040000D01*
X12024000Y-12960000D02*
X11944000Y-13040000D01*
X11952000Y-6860000D02*
X12032000Y-6940000D01*
X12032000Y-6860000D02*
X11952000Y-6940000D01*
X11960000Y-4060000D02*
X12040000Y-4140000D01*
X12040000Y-4060000D02*
X11960000Y-4140000D01*
X11960000Y-4460000D02*
X12040000Y-4540000D01*
X12040000Y-4460000D02*
X11960000Y-4540000D01*
X12960000Y-12960000D02*
X13040000Y-13040000D01*
X13040000Y-12960000D02*
X12960000Y-13040000D01*
X12968000Y-6860000D02*
X13048000Y-6940000D01*
X13048000Y-6860000D02*
X12968000Y-6940000D01*
X12976000Y-4060000D02*
X13056000Y-4140000D01*
X13056000Y-4060000D02*
X12976000Y-4140000D01*
X12976000Y-4460000D02*
X13056000Y-4540000D01*
X13056000Y-4460000D02*
X12976000Y-4540000D01*
X14660000Y-7152000D02*
X14740000Y-7232000D01*
X14740000Y-7152000D02*
X14660000Y-7232000D01*
X14660000Y-8168000D02*
X14740000Y-8248000D01*
X14740000Y-8168000D02*
X14660000Y-8248000D01*
X14760000Y-11352000D02*
X14840000Y-11432000D01*
X14840000Y-11352000D02*
X14760000Y-11432000D01*
X14760000Y-12368000D02*
X14840000Y-12448000D01*
X14840000Y-12368000D02*
X14760000Y-12448000D01*
X15160000Y-11352000D02*
X15240000Y-11432000D01*
X15240000Y-11352000D02*
X15160000Y-11432000D01*
X15160000Y-12368000D02*
X15240000Y-12448000D01*
X15240000Y-12368000D02*
X15160000Y-12448000D01*
D13*
X14618500Y-8650000D02*
G75*
G03*
X14618500Y-8650000I-45000J0D01*
G01*
X14872500Y-8650000D02*
G75*
G03*
X14872500Y-8650000I-45000J0D01*
G01*
D14*
X9800000Y-6850000D02*
X9800000Y-6950000D01*
X9750000Y-6900000D02*
X9850000Y-6900000D01*
X9800000Y-7104000D02*
X9800000Y-7204000D01*
X9750000Y-7154000D02*
X9850000Y-7154000D01*
X9800000Y-7358000D02*
X9800000Y-7458000D01*
X9750000Y-7408000D02*
X9850000Y-7408000D01*
X9800000Y-7612000D02*
X9800000Y-7712000D01*
X9750000Y-7662000D02*
X9850000Y-7662000D01*
X9800000Y-7866000D02*
X9800000Y-7966000D01*
X9750000Y-7916000D02*
X9850000Y-7916000D01*
X9800000Y-8120000D02*
X9800000Y-8220000D01*
X9750000Y-8170000D02*
X9850000Y-8170000D01*
X9800000Y-12950000D02*
X9800000Y-13050000D01*
X9750000Y-13000000D02*
X9850000Y-13000000D01*
X9800000Y-13204000D02*
X9800000Y-13304000D01*
X9750000Y-13254000D02*
X9850000Y-13254000D01*
X9800000Y-13458000D02*
X9800000Y-13558000D01*
X9750000Y-13508000D02*
X9850000Y-13508000D01*
X9800000Y-13712000D02*
X9800000Y-13812000D01*
X9750000Y-13762000D02*
X9850000Y-13762000D01*
X9800000Y-13966000D02*
X9800000Y-14066000D01*
X9750000Y-14016000D02*
X9850000Y-14016000D01*
X9800000Y-14220000D02*
X9800000Y-14320000D01*
X9750000Y-14270000D02*
X9850000Y-14270000D01*
X10460000Y-9780000D02*
X10460000Y-9880000D01*
X10410000Y-9830000D02*
X10510000Y-9830000D01*
D11*
X10520000Y-9780000D02*
X10400000Y-9780000D01*
X10520000Y-9880000D02*
X10400000Y-9880000D01*
X10400000Y-9780000D02*
G75*
G03*
X10400000Y-9880000I0J-50000D01*
G01*
X10520000Y-9880000D02*
G75*
G03*
X10520000Y-9780000I0J50000D01*
G01*
D14*
X10460000Y-10250000D02*
X10460000Y-10350000D01*
X10410000Y-10300000D02*
X10510000Y-10300000D01*
D11*
X10520000Y-10250000D02*
X10400000Y-10250000D01*
X10520000Y-10350000D02*
X10400000Y-10350000D01*
X10400000Y-10250000D02*
G75*
G03*
X10400000Y-10350000I0J-50000D01*
G01*
X10520000Y-10350000D02*
G75*
G03*
X10520000Y-10250000I0J50000D01*
G01*
D14*
X10460000Y-10720000D02*
X10460000Y-10820000D01*
X10410000Y-10770000D02*
X10510000Y-10770000D01*
D11*
X10520000Y-10720000D02*
X10400000Y-10720000D01*
X10520000Y-10820000D02*
X10400000Y-10820000D01*
X10400000Y-10720000D02*
G75*
G03*
X10400000Y-10820000I0J-50000D01*
G01*
X10520000Y-10820000D02*
G75*
G03*
X10520000Y-10720000I0J50000D01*
G01*
D14*
X10750000Y-5055000D02*
X10750000Y-5155000D01*
X10700000Y-5105000D02*
X10800000Y-5105000D01*
X10940000Y-9780000D02*
X10940000Y-9880000D01*
X10890000Y-9830000D02*
X10990000Y-9830000D01*
D11*
X11000000Y-9780000D02*
X10880000Y-9780000D01*
X11000000Y-9880000D02*
X10880000Y-9880000D01*
X10880000Y-9780000D02*
G75*
G03*
X10880000Y-9880000I0J-50000D01*
G01*
X11000000Y-9880000D02*
G75*
G03*
X11000000Y-9780000I0J50000D01*
G01*
D14*
X10940000Y-10250000D02*
X10940000Y-10350000D01*
X10890000Y-10300000D02*
X10990000Y-10300000D01*
D11*
X11000000Y-10250000D02*
X10880000Y-10250000D01*
X11000000Y-10350000D02*
X10880000Y-10350000D01*
X10880000Y-10250000D02*
G75*
G03*
X10880000Y-10350000I0J-50000D01*
G01*
X11000000Y-10350000D02*
G75*
G03*
X11000000Y-10250000I0J50000D01*
G01*
D14*
X10940000Y-10720000D02*
X10940000Y-10820000D01*
X10890000Y-10770000D02*
X10990000Y-10770000D01*
D11*
X11000000Y-10720000D02*
X10880000Y-10720000D01*
X11000000Y-10820000D02*
X10880000Y-10820000D01*
X10880000Y-10720000D02*
G75*
G03*
X10880000Y-10820000I0J-50000D01*
G01*
X11000000Y-10820000D02*
G75*
G03*
X11000000Y-10720000I0J50000D01*
G01*
D14*
X10950000Y-7055000D02*
X10950000Y-7155000D01*
X10900000Y-7105000D02*
X11000000Y-7105000D01*
X10950000Y-12955000D02*
X10950000Y-13055000D01*
X10900000Y-13005000D02*
X11000000Y-13005000D01*
X11000000Y-5055000D02*
X11000000Y-5155000D01*
X10950000Y-5105000D02*
X11050000Y-5105000D01*
X11200000Y-7055000D02*
X11200000Y-7155000D01*
X11150000Y-7105000D02*
X11250000Y-7105000D01*
X11200000Y-12955000D02*
X11200000Y-13055000D01*
X11150000Y-13005000D02*
X11250000Y-13005000D01*
X11250000Y-5055000D02*
X11250000Y-5155000D01*
X11200000Y-5105000D02*
X11300000Y-5105000D01*
X11380000Y-9100000D02*
X11380000Y-9200000D01*
X11330000Y-9150000D02*
X11430000Y-9150000D01*
D11*
X11330000Y-9085000D02*
X11330000Y-9215000D01*
X11430000Y-9085000D02*
X11430000Y-9215000D01*
X11330000Y-9215000D02*
G75*
G03*
X11430000Y-9215000I50000J0D01*
G01*
X11430000Y-9085000D02*
G75*
G03*
X11330000Y-9085000I-50000J0D01*
G01*
D14*
X11450000Y-7055000D02*
X11450000Y-7155000D01*
X11400000Y-7105000D02*
X11500000Y-7105000D01*
X11450000Y-12955000D02*
X11450000Y-13055000D01*
X11400000Y-13005000D02*
X11500000Y-13005000D01*
X11850000Y-9100000D02*
X11850000Y-9200000D01*
X11800000Y-9150000D02*
X11900000Y-9150000D01*
D11*
X11800000Y-9085000D02*
X11800000Y-9215000D01*
X11900000Y-9085000D02*
X11900000Y-9215000D01*
X11800000Y-9215000D02*
G75*
G03*
X11900000Y-9215000I50000J0D01*
G01*
X11900000Y-9085000D02*
G75*
G03*
X11800000Y-9085000I-50000J0D01*
G01*
D14*
X12320000Y-9100000D02*
X12320000Y-9200000D01*
X12270000Y-9150000D02*
X12370000Y-9150000D01*
D11*
X12270000Y-9085000D02*
X12270000Y-9215000D01*
X12370000Y-9085000D02*
X12370000Y-9215000D01*
X12270000Y-9215000D02*
G75*
G03*
X12370000Y-9215000I50000J0D01*
G01*
X12370000Y-9085000D02*
G75*
G03*
X12270000Y-9085000I-50000J0D01*
G01*
D14*
X13550000Y-7055000D02*
X13550000Y-7155000D01*
X13500000Y-7105000D02*
X13600000Y-7105000D01*
X13550000Y-12955000D02*
X13550000Y-13055000D01*
X13500000Y-13005000D02*
X13600000Y-13005000D01*
X13750000Y-10955000D02*
X13750000Y-11055000D01*
X13700000Y-11005000D02*
X13800000Y-11005000D01*
X13800000Y-7055000D02*
X13800000Y-7155000D01*
X13750000Y-7105000D02*
X13850000Y-7105000D01*
X13800000Y-12955000D02*
X13800000Y-13055000D01*
X13750000Y-13005000D02*
X13850000Y-13005000D01*
X14000000Y-10955000D02*
X14000000Y-11055000D01*
X13950000Y-11005000D02*
X14050000Y-11005000D01*
X14050000Y-7055000D02*
X14050000Y-7155000D01*
X14000000Y-7105000D02*
X14100000Y-7105000D01*
X14050000Y-12955000D02*
X14050000Y-13055000D01*
X14000000Y-13005000D02*
X14100000Y-13005000D01*
X14060000Y-3880000D02*
X14060000Y-3980000D01*
X14010000Y-3930000D02*
X14110000Y-3930000D01*
D11*
X14120000Y-3880000D02*
X14000000Y-3880000D01*
X14120000Y-3980000D02*
X14000000Y-3980000D01*
X14000000Y-3880000D02*
G75*
G03*
X14000000Y-3980000I0J-50000D01*
G01*
X14120000Y-3980000D02*
G75*
G03*
X14120000Y-3880000I0J50000D01*
G01*
D14*
X14060000Y-4350000D02*
X14060000Y-4450000D01*
X14010000Y-4400000D02*
X14110000Y-4400000D01*
D11*
X14120000Y-4350000D02*
X14000000Y-4350000D01*
X14120000Y-4450000D02*
X14000000Y-4450000D01*
X14000000Y-4350000D02*
G75*
G03*
X14000000Y-4450000I0J-50000D01*
G01*
X14120000Y-4450000D02*
G75*
G03*
X14120000Y-4350000I0J50000D01*
G01*
D14*
X14060000Y-4820000D02*
X14060000Y-4920000D01*
X14010000Y-4870000D02*
X14110000Y-4870000D01*
D11*
X14120000Y-4820000D02*
X14000000Y-4820000D01*
X14120000Y-4920000D02*
X14000000Y-4920000D01*
X14000000Y-4820000D02*
G75*
G03*
X14000000Y-4920000I0J-50000D01*
G01*
X14120000Y-4920000D02*
G75*
G03*
X14120000Y-4820000I0J50000D01*
G01*
D14*
X14250000Y-10955000D02*
X14250000Y-11055000D01*
X14200000Y-11005000D02*
X14300000Y-11005000D01*
X14540000Y-3880000D02*
X14540000Y-3980000D01*
X14490000Y-3930000D02*
X14590000Y-3930000D01*
D11*
X14600000Y-3880000D02*
X14480000Y-3880000D01*
X14600000Y-3980000D02*
X14480000Y-3980000D01*
X14480000Y-3880000D02*
G75*
G03*
X14480000Y-3980000I0J-50000D01*
G01*
X14600000Y-3980000D02*
G75*
G03*
X14600000Y-3880000I0J50000D01*
G01*
D14*
X14540000Y-4350000D02*
X14540000Y-4450000D01*
X14490000Y-4400000D02*
X14590000Y-4400000D01*
D11*
X14600000Y-4350000D02*
X14480000Y-4350000D01*
X14600000Y-4450000D02*
X14480000Y-4450000D01*
X14480000Y-4350000D02*
G75*
G03*
X14480000Y-4450000I0J-50000D01*
G01*
X14600000Y-4450000D02*
G75*
G03*
X14600000Y-4350000I0J50000D01*
G01*
D14*
X14540000Y-4820000D02*
X14540000Y-4920000D01*
X14490000Y-4870000D02*
X14590000Y-4870000D01*
D11*
X14600000Y-4820000D02*
X14480000Y-4820000D01*
X14600000Y-4920000D02*
X14480000Y-4920000D01*
X14480000Y-4820000D02*
G75*
G03*
X14480000Y-4920000I0J-50000D01*
G01*
X14600000Y-4920000D02*
G75*
G03*
X14600000Y-4820000I0J50000D01*
G01*
D14*
X15200000Y-6850000D02*
X15200000Y-6950000D01*
X15150000Y-6900000D02*
X15250000Y-6900000D01*
X15200000Y-7104000D02*
X15200000Y-7204000D01*
X15150000Y-7154000D02*
X15250000Y-7154000D01*
X15200000Y-7358000D02*
X15200000Y-7458000D01*
X15150000Y-7408000D02*
X15250000Y-7408000D01*
X15200000Y-7612000D02*
X15200000Y-7712000D01*
X15150000Y-7662000D02*
X15250000Y-7662000D01*
X15200000Y-7866000D02*
X15200000Y-7966000D01*
X15150000Y-7916000D02*
X15250000Y-7916000D01*
X15200000Y-8120000D02*
X15200000Y-8220000D01*
X15150000Y-8170000D02*
X15250000Y-8170000D01*
X15200000Y-12950000D02*
X15200000Y-13050000D01*
X15150000Y-13000000D02*
X15250000Y-13000000D01*
X15200000Y-13204000D02*
X15200000Y-13304000D01*
X15150000Y-13254000D02*
X15250000Y-13254000D01*
X15200000Y-13458000D02*
X15200000Y-13558000D01*
X15150000Y-13508000D02*
X15250000Y-13508000D01*
X15200000Y-13712000D02*
X15200000Y-13812000D01*
X15150000Y-13762000D02*
X15250000Y-13762000D01*
X15200000Y-13966000D02*
X15200000Y-14066000D01*
X15150000Y-14016000D02*
X15250000Y-14016000D01*
X15200000Y-14220000D02*
X15200000Y-14320000D01*
X15150000Y-14270000D02*
X15250000Y-14270000D01*
D15*
X11543134Y-7443134D02*
X11543134Y-7356866D01*
X11456866Y-7356866D01*
X11456866Y-7443134D01*
X11543134Y-7443134D01*
X11543134Y-13343134D02*
X11543134Y-13256866D01*
X11456866Y-13256866D01*
X11456866Y-13343134D01*
X11543134Y-13343134D01*
X12543134Y-7443134D02*
X12543134Y-7356866D01*
X12456866Y-7356866D01*
X12456866Y-7443134D01*
X12543134Y-7443134D01*
X12543134Y-13343134D02*
X12543134Y-13256866D01*
X12456866Y-13256866D01*
X12456866Y-13343134D01*
X12543134Y-13343134D01*
X13543134Y-7443134D02*
X13543134Y-7356866D01*
X13456866Y-7356866D01*
X13456866Y-7443134D01*
X13543134Y-7443134D01*
X13543134Y-13343134D02*
X13543134Y-13256866D01*
X13456866Y-13256866D01*
X13456866Y-13343134D01*
X13543134Y-13343134D01*
D16*
X11500000Y-7781000D02*
X11571000Y-7710000D01*
X11500000Y-7639000D01*
X11429000Y-7710000D01*
X11500000Y-7781000D01*
X11500000Y-13681000D02*
X11571000Y-13610000D01*
X11500000Y-13539000D01*
X11429000Y-13610000D01*
X11500000Y-13681000D01*
X12500000Y-7781000D02*
X12571000Y-7710000D01*
X12500000Y-7639000D01*
X12429000Y-7710000D01*
X12500000Y-7781000D01*
X12500000Y-13681000D02*
X12571000Y-13610000D01*
X12500000Y-13539000D01*
X12429000Y-13610000D01*
X12500000Y-13681000D01*
X13500000Y-7781000D02*
X13571000Y-7710000D01*
X13500000Y-7639000D01*
X13429000Y-7710000D01*
X13500000Y-7781000D01*
X13500000Y-13681000D02*
X13571000Y-13610000D01*
X13500000Y-13539000D01*
X13429000Y-13610000D01*
X13500000Y-13681000D01*
D17*
X11428500Y-8468500D02*
X11571500Y-8611500D01*
X11571500Y-8468500D02*
X11428500Y-8611500D01*
X11571500Y-8540000D02*
G75*
G03*
X11571500Y-8540000I-71500J0D01*
G01*
X11428500Y-14368500D02*
X11571500Y-14511500D01*
X11571500Y-14368500D02*
X11428500Y-14511500D01*
X11571500Y-14440000D02*
G75*
G03*
X11571500Y-14440000I-71500J0D01*
G01*
X12428500Y-8468500D02*
X12571500Y-8611500D01*
X12571500Y-8468500D02*
X12428500Y-8611500D01*
X12571500Y-8540000D02*
G75*
G03*
X12571500Y-8540000I-71500J0D01*
G01*
X12428500Y-14368500D02*
X12571500Y-14511500D01*
X12571500Y-14368500D02*
X12428500Y-14511500D01*
X12571500Y-14440000D02*
G75*
G03*
X12571500Y-14440000I-71500J0D01*
G01*
X13428500Y-8468500D02*
X13571500Y-8611500D01*
X13571500Y-8468500D02*
X13428500Y-8611500D01*
X13571500Y-8540000D02*
G75*
G03*
X13571500Y-8540000I-71500J0D01*
G01*
X13428500Y-14368500D02*
X13571500Y-14511500D01*
X13571500Y-14368500D02*
X13428500Y-14511500D01*
X13571500Y-14440000D02*
G75*
G03*
X13571500Y-14440000I-71500J0D01*
G01*
D11*
X9755119Y-14962976D02*
X9755119Y-14762976D01*
X9802738Y-14762976D01*
X9831310Y-14772500D01*
X9850357Y-14791548D01*
X9859881Y-14810595D01*
X9869405Y-14848690D01*
X9869405Y-14877262D01*
X9859881Y-14915357D01*
X9850357Y-14934405D01*
X9831310Y-14953452D01*
X9802738Y-14962976D01*
X9755119Y-14962976D01*
X9955119Y-14962976D02*
X9955119Y-14829643D01*
X9955119Y-14867738D02*
X9964643Y-14848690D01*
X9974167Y-14839167D01*
X9993214Y-14829643D01*
X10012262Y-14829643D01*
X10078929Y-14962976D02*
X10078929Y-14829643D01*
X10078929Y-14762976D02*
X10069405Y-14772500D01*
X10078929Y-14782024D01*
X10088452Y-14772500D01*
X10078929Y-14762976D01*
X10078929Y-14782024D01*
X10202738Y-14962976D02*
X10183690Y-14953452D01*
X10174167Y-14934405D01*
X10174167Y-14762976D01*
X10307500Y-14962976D02*
X10288452Y-14953452D01*
X10278929Y-14934405D01*
X10278929Y-14762976D01*
X10536071Y-14962976D02*
X10536071Y-14762976D01*
X10602738Y-14905833D01*
X10669405Y-14762976D01*
X10669405Y-14962976D01*
X10850357Y-14962976D02*
X10850357Y-14858214D01*
X10840833Y-14839167D01*
X10821786Y-14829643D01*
X10783690Y-14829643D01*
X10764643Y-14839167D01*
X10850357Y-14953452D02*
X10831310Y-14962976D01*
X10783690Y-14962976D01*
X10764643Y-14953452D01*
X10755119Y-14934405D01*
X10755119Y-14915357D01*
X10764643Y-14896309D01*
X10783690Y-14886786D01*
X10831310Y-14886786D01*
X10850357Y-14877262D01*
X10945595Y-14829643D02*
X10945595Y-15029643D01*
X10945595Y-14839167D02*
X10964643Y-14829643D01*
X11002738Y-14829643D01*
X11021786Y-14839167D01*
X11031310Y-14848690D01*
X11040833Y-14867738D01*
X11040833Y-14924881D01*
X11031310Y-14943928D01*
X11021786Y-14953452D01*
X11002738Y-14962976D01*
X10964643Y-14962976D01*
X10945595Y-14953452D01*
X11126548Y-14943928D02*
X11136071Y-14953452D01*
X11126548Y-14962976D01*
X11117024Y-14953452D01*
X11126548Y-14943928D01*
X11126548Y-14962976D01*
X11126548Y-14839167D02*
X11136071Y-14848690D01*
X11126548Y-14858214D01*
X11117024Y-14848690D01*
X11126548Y-14839167D01*
X11126548Y-14858214D01*
D12*
X9417500Y-15252500D02*
X9497500Y-15332500D01*
X9497500Y-15252500D02*
X9417500Y-15332500D01*
D11*
X9793214Y-15182976D02*
X9812262Y-15182976D01*
X9831310Y-15192500D01*
X9840833Y-15202024D01*
X9850357Y-15221071D01*
X9859881Y-15259167D01*
X9859881Y-15306786D01*
X9850357Y-15344881D01*
X9840833Y-15363928D01*
X9831310Y-15373452D01*
X9812262Y-15382976D01*
X9793214Y-15382976D01*
X9774167Y-15373452D01*
X9764643Y-15363928D01*
X9755119Y-15344881D01*
X9745595Y-15306786D01*
X9745595Y-15259167D01*
X9755119Y-15221071D01*
X9764643Y-15202024D01*
X9774167Y-15192500D01*
X9793214Y-15182976D01*
X9945595Y-15363928D02*
X9955119Y-15373452D01*
X9945595Y-15382976D01*
X9936071Y-15373452D01*
X9945595Y-15363928D01*
X9945595Y-15382976D01*
X10069405Y-15268690D02*
X10050357Y-15259167D01*
X10040833Y-15249643D01*
X10031310Y-15230595D01*
X10031310Y-15221071D01*
X10040833Y-15202024D01*
X10050357Y-15192500D01*
X10069405Y-15182976D01*
X10107500Y-15182976D01*
X10126548Y-15192500D01*
X10136071Y-15202024D01*
X10145595Y-15221071D01*
X10145595Y-15230595D01*
X10136071Y-15249643D01*
X10126548Y-15259167D01*
X10107500Y-15268690D01*
X10069405Y-15268690D01*
X10050357Y-15278214D01*
X10040833Y-15287738D01*
X10031310Y-15306786D01*
X10031310Y-15344881D01*
X10040833Y-15363928D01*
X10050357Y-15373452D01*
X10069405Y-15382976D01*
X10107500Y-15382976D01*
X10126548Y-15373452D01*
X10136071Y-15363928D01*
X10145595Y-15344881D01*
X10145595Y-15306786D01*
X10136071Y-15287738D01*
X10126548Y-15278214D01*
X10107500Y-15268690D01*
X10269405Y-15182976D02*
X10288452Y-15182976D01*
X10307500Y-15192500D01*
X10317024Y-15202024D01*
X10326548Y-15221071D01*
X10336071Y-15259167D01*
X10336071Y-15306786D01*
X10326548Y-15344881D01*
X10317024Y-15363928D01*
X10307500Y-15373452D01*
X10288452Y-15382976D01*
X10269405Y-15382976D01*
X10250357Y-15373452D01*
X10240833Y-15363928D01*
X10231310Y-15344881D01*
X10221786Y-15306786D01*
X10221786Y-15259167D01*
X10231310Y-15221071D01*
X10240833Y-15202024D01*
X10250357Y-15192500D01*
X10269405Y-15182976D01*
X10459881Y-15182976D02*
X10478929Y-15182976D01*
X10497976Y-15192500D01*
X10507500Y-15202024D01*
X10517024Y-15221071D01*
X10526548Y-15259167D01*
X10526548Y-15306786D01*
X10517024Y-15344881D01*
X10507500Y-15363928D01*
X10497976Y-15373452D01*
X10478929Y-15382976D01*
X10459881Y-15382976D01*
X10440833Y-15373452D01*
X10431310Y-15363928D01*
X10421786Y-15344881D01*
X10412262Y-15306786D01*
X10412262Y-15259167D01*
X10421786Y-15221071D01*
X10431310Y-15202024D01*
X10440833Y-15192500D01*
X10459881Y-15182976D01*
X10612262Y-15382976D02*
X10612262Y-15249643D01*
X10612262Y-15268690D02*
X10621786Y-15259167D01*
X10640833Y-15249643D01*
X10669405Y-15249643D01*
X10688452Y-15259167D01*
X10697976Y-15278214D01*
X10697976Y-15382976D01*
X10697976Y-15278214D02*
X10707500Y-15259167D01*
X10726548Y-15249643D01*
X10755119Y-15249643D01*
X10774167Y-15259167D01*
X10783690Y-15278214D01*
X10783690Y-15382976D01*
X10878929Y-15382976D02*
X10878929Y-15249643D01*
X10878929Y-15268690D02*
X10888452Y-15259167D01*
X10907500Y-15249643D01*
X10936071Y-15249643D01*
X10955119Y-15259167D01*
X10964643Y-15278214D01*
X10964643Y-15382976D01*
X10964643Y-15278214D02*
X10974167Y-15259167D01*
X10993214Y-15249643D01*
X11021786Y-15249643D01*
X11040833Y-15259167D01*
X11050357Y-15278214D01*
X11050357Y-15382976D01*
X11440833Y-15173452D02*
X11269405Y-15430595D01*
X11697976Y-15182976D02*
X11717024Y-15182976D01*
X11736071Y-15192500D01*
X11745595Y-15202024D01*
X11755119Y-15221071D01*
X11764643Y-15259167D01*
X11764643Y-15306786D01*
X11755119Y-15344881D01*
X11745595Y-15363928D01*
X11736071Y-15373452D01*
X11717024Y-15382976D01*
X11697976Y-15382976D01*
X11678928Y-15373452D01*
X11669405Y-15363928D01*
X11659881Y-15344881D01*
X11650357Y-15306786D01*
X11650357Y-15259167D01*
X11659881Y-15221071D01*
X11669405Y-15202024D01*
X11678928Y-15192500D01*
X11697976Y-15182976D01*
X11850357Y-15363928D02*
X11859881Y-15373452D01*
X11850357Y-15382976D01*
X11840833Y-15373452D01*
X11850357Y-15363928D01*
X11850357Y-15382976D01*
X11983690Y-15182976D02*
X12002738Y-15182976D01*
X12021786Y-15192500D01*
X12031309Y-15202024D01*
X12040833Y-15221071D01*
X12050357Y-15259167D01*
X12050357Y-15306786D01*
X12040833Y-15344881D01*
X12031309Y-15363928D01*
X12021786Y-15373452D01*
X12002738Y-15382976D01*
X11983690Y-15382976D01*
X11964643Y-15373452D01*
X11955119Y-15363928D01*
X11945595Y-15344881D01*
X11936071Y-15306786D01*
X11936071Y-15259167D01*
X11945595Y-15221071D01*
X11955119Y-15202024D01*
X11964643Y-15192500D01*
X11983690Y-15182976D01*
X12117024Y-15182976D02*
X12240833Y-15182976D01*
X12174167Y-15259167D01*
X12202738Y-15259167D01*
X12221786Y-15268690D01*
X12231309Y-15278214D01*
X12240833Y-15297262D01*
X12240833Y-15344881D01*
X12231309Y-15363928D01*
X12221786Y-15373452D01*
X12202738Y-15382976D01*
X12145595Y-15382976D01*
X12126548Y-15373452D01*
X12117024Y-15363928D01*
X12431309Y-15382976D02*
X12317024Y-15382976D01*
X12374167Y-15382976D02*
X12374167Y-15182976D01*
X12355119Y-15211548D01*
X12336071Y-15230595D01*
X12317024Y-15240119D01*
X12612262Y-15182976D02*
X12517024Y-15182976D01*
X12507500Y-15278214D01*
X12517024Y-15268690D01*
X12536071Y-15259167D01*
X12583690Y-15259167D01*
X12602738Y-15268690D01*
X12612262Y-15278214D01*
X12621786Y-15297262D01*
X12621786Y-15344881D01*
X12612262Y-15363928D01*
X12602738Y-15373452D01*
X12583690Y-15382976D01*
X12536071Y-15382976D01*
X12517024Y-15373452D01*
X12507500Y-15363928D01*
X12697976Y-15182976D02*
X12697976Y-15221071D01*
X12774167Y-15182976D02*
X12774167Y-15221071D01*
X13069405Y-15459167D02*
X13059881Y-15449643D01*
X13040833Y-15421071D01*
X13031309Y-15402024D01*
X13021786Y-15373452D01*
X13012262Y-15325833D01*
X13012262Y-15287738D01*
X13021786Y-15240119D01*
X13031309Y-15211548D01*
X13040833Y-15192500D01*
X13059881Y-15163928D01*
X13069405Y-15154405D01*
X13136071Y-15202024D02*
X13145595Y-15192500D01*
X13164643Y-15182976D01*
X13212262Y-15182976D01*
X13231309Y-15192500D01*
X13240833Y-15202024D01*
X13250357Y-15221071D01*
X13250357Y-15240119D01*
X13240833Y-15268690D01*
X13126548Y-15382976D01*
X13250357Y-15382976D01*
X13421786Y-15182976D02*
X13383690Y-15182976D01*
X13364643Y-15192500D01*
X13355119Y-15202024D01*
X13336071Y-15230595D01*
X13326548Y-15268690D01*
X13326548Y-15344881D01*
X13336071Y-15363928D01*
X13345595Y-15373452D01*
X13364643Y-15382976D01*
X13402738Y-15382976D01*
X13421786Y-15373452D01*
X13431309Y-15363928D01*
X13440833Y-15344881D01*
X13440833Y-15297262D01*
X13431309Y-15278214D01*
X13421786Y-15268690D01*
X13402738Y-15259167D01*
X13364643Y-15259167D01*
X13345595Y-15268690D01*
X13336071Y-15278214D01*
X13326548Y-15297262D01*
X13678928Y-15382976D02*
X13678928Y-15182976D01*
X13764643Y-15382976D02*
X13764643Y-15278214D01*
X13755119Y-15259167D01*
X13736071Y-15249643D01*
X13707500Y-15249643D01*
X13688452Y-15259167D01*
X13678928Y-15268690D01*
X13888452Y-15382976D02*
X13869405Y-15373452D01*
X13859881Y-15363928D01*
X13850357Y-15344881D01*
X13850357Y-15287738D01*
X13859881Y-15268690D01*
X13869405Y-15259167D01*
X13888452Y-15249643D01*
X13917024Y-15249643D01*
X13936071Y-15259167D01*
X13945595Y-15268690D01*
X13955119Y-15287738D01*
X13955119Y-15344881D01*
X13945595Y-15363928D01*
X13936071Y-15373452D01*
X13917024Y-15382976D01*
X13888452Y-15382976D01*
X14069405Y-15382976D02*
X14050357Y-15373452D01*
X14040833Y-15354405D01*
X14040833Y-15182976D01*
X14221786Y-15373452D02*
X14202738Y-15382976D01*
X14164643Y-15382976D01*
X14145595Y-15373452D01*
X14136071Y-15354405D01*
X14136071Y-15278214D01*
X14145595Y-15259167D01*
X14164643Y-15249643D01*
X14202738Y-15249643D01*
X14221786Y-15259167D01*
X14231309Y-15278214D01*
X14231309Y-15297262D01*
X14136071Y-15316309D01*
X14307500Y-15373452D02*
X14326548Y-15382976D01*
X14364643Y-15382976D01*
X14383690Y-15373452D01*
X14393214Y-15354405D01*
X14393214Y-15344881D01*
X14383690Y-15325833D01*
X14364643Y-15316309D01*
X14336071Y-15316309D01*
X14317024Y-15306786D01*
X14307500Y-15287738D01*
X14307500Y-15278214D01*
X14317024Y-15259167D01*
X14336071Y-15249643D01*
X14364643Y-15249643D01*
X14383690Y-15259167D01*
X14459881Y-15459167D02*
X14469405Y-15449643D01*
X14488452Y-15421071D01*
X14497976Y-15402024D01*
X14507500Y-15373452D01*
X14517024Y-15325833D01*
X14517024Y-15287738D01*
X14507500Y-15240119D01*
X14497976Y-15211548D01*
X14488452Y-15192500D01*
X14469405Y-15163928D01*
X14459881Y-15154405D01*
D13*
X9497500Y-15556500D02*
G75*
G03*
X9497500Y-15556500I-45000J0D01*
G01*
D11*
X9793214Y-15446976D02*
X9812262Y-15446976D01*
X9831310Y-15456500D01*
X9840833Y-15466024D01*
X9850357Y-15485071D01*
X9859881Y-15523167D01*
X9859881Y-15570786D01*
X9850357Y-15608881D01*
X9840833Y-15627928D01*
X9831310Y-15637452D01*
X9812262Y-15646976D01*
X9793214Y-15646976D01*
X9774167Y-15637452D01*
X9764643Y-15627928D01*
X9755119Y-15608881D01*
X9745595Y-15570786D01*
X9745595Y-15523167D01*
X9755119Y-15485071D01*
X9764643Y-15466024D01*
X9774167Y-15456500D01*
X9793214Y-15446976D01*
X9945595Y-15627928D02*
X9955119Y-15637452D01*
X9945595Y-15646976D01*
X9936071Y-15637452D01*
X9945595Y-15627928D01*
X9945595Y-15646976D01*
X10050357Y-15646976D02*
X10088452Y-15646976D01*
X10107500Y-15637452D01*
X10117024Y-15627928D01*
X10136071Y-15599357D01*
X10145595Y-15561262D01*
X10145595Y-15485071D01*
X10136071Y-15466024D01*
X10126548Y-15456500D01*
X10107500Y-15446976D01*
X10069405Y-15446976D01*
X10050357Y-15456500D01*
X10040833Y-15466024D01*
X10031310Y-15485071D01*
X10031310Y-15532690D01*
X10040833Y-15551738D01*
X10050357Y-15561262D01*
X10069405Y-15570786D01*
X10107500Y-15570786D01*
X10126548Y-15561262D01*
X10136071Y-15551738D01*
X10145595Y-15532690D01*
X10269405Y-15446976D02*
X10288452Y-15446976D01*
X10307500Y-15456500D01*
X10317024Y-15466024D01*
X10326548Y-15485071D01*
X10336071Y-15523167D01*
X10336071Y-15570786D01*
X10326548Y-15608881D01*
X10317024Y-15627928D01*
X10307500Y-15637452D01*
X10288452Y-15646976D01*
X10269405Y-15646976D01*
X10250357Y-15637452D01*
X10240833Y-15627928D01*
X10231310Y-15608881D01*
X10221786Y-15570786D01*
X10221786Y-15523167D01*
X10231310Y-15485071D01*
X10240833Y-15466024D01*
X10250357Y-15456500D01*
X10269405Y-15446976D01*
X10459881Y-15446976D02*
X10478929Y-15446976D01*
X10497976Y-15456500D01*
X10507500Y-15466024D01*
X10517024Y-15485071D01*
X10526548Y-15523167D01*
X10526548Y-15570786D01*
X10517024Y-15608881D01*
X10507500Y-15627928D01*
X10497976Y-15637452D01*
X10478929Y-15646976D01*
X10459881Y-15646976D01*
X10440833Y-15637452D01*
X10431310Y-15627928D01*
X10421786Y-15608881D01*
X10412262Y-15570786D01*
X10412262Y-15523167D01*
X10421786Y-15485071D01*
X10431310Y-15466024D01*
X10440833Y-15456500D01*
X10459881Y-15446976D01*
X10612262Y-15646976D02*
X10612262Y-15513643D01*
X10612262Y-15532690D02*
X10621786Y-15523167D01*
X10640833Y-15513643D01*
X10669405Y-15513643D01*
X10688452Y-15523167D01*
X10697976Y-15542214D01*
X10697976Y-15646976D01*
X10697976Y-15542214D02*
X10707500Y-15523167D01*
X10726548Y-15513643D01*
X10755119Y-15513643D01*
X10774167Y-15523167D01*
X10783690Y-15542214D01*
X10783690Y-15646976D01*
X10878929Y-15646976D02*
X10878929Y-15513643D01*
X10878929Y-15532690D02*
X10888452Y-15523167D01*
X10907500Y-15513643D01*
X10936071Y-15513643D01*
X10955119Y-15523167D01*
X10964643Y-15542214D01*
X10964643Y-15646976D01*
X10964643Y-15542214D02*
X10974167Y-15523167D01*
X10993214Y-15513643D01*
X11021786Y-15513643D01*
X11040833Y-15523167D01*
X11050357Y-15542214D01*
X11050357Y-15646976D01*
X11440833Y-15437452D02*
X11269405Y-15694595D01*
X11697976Y-15446976D02*
X11717024Y-15446976D01*
X11736071Y-15456500D01*
X11745595Y-15466024D01*
X11755119Y-15485071D01*
X11764643Y-15523167D01*
X11764643Y-15570786D01*
X11755119Y-15608881D01*
X11745595Y-15627928D01*
X11736071Y-15637452D01*
X11717024Y-15646976D01*
X11697976Y-15646976D01*
X11678928Y-15637452D01*
X11669405Y-15627928D01*
X11659881Y-15608881D01*
X11650357Y-15570786D01*
X11650357Y-15523167D01*
X11659881Y-15485071D01*
X11669405Y-15466024D01*
X11678928Y-15456500D01*
X11697976Y-15446976D01*
X11850357Y-15627928D02*
X11859881Y-15637452D01*
X11850357Y-15646976D01*
X11840833Y-15637452D01*
X11850357Y-15627928D01*
X11850357Y-15646976D01*
X11983690Y-15446976D02*
X12002738Y-15446976D01*
X12021786Y-15456500D01*
X12031309Y-15466024D01*
X12040833Y-15485071D01*
X12050357Y-15523167D01*
X12050357Y-15570786D01*
X12040833Y-15608881D01*
X12031309Y-15627928D01*
X12021786Y-15637452D01*
X12002738Y-15646976D01*
X11983690Y-15646976D01*
X11964643Y-15637452D01*
X11955119Y-15627928D01*
X11945595Y-15608881D01*
X11936071Y-15570786D01*
X11936071Y-15523167D01*
X11945595Y-15485071D01*
X11955119Y-15466024D01*
X11964643Y-15456500D01*
X11983690Y-15446976D01*
X12117024Y-15446976D02*
X12240833Y-15446976D01*
X12174167Y-15523167D01*
X12202738Y-15523167D01*
X12221786Y-15532690D01*
X12231309Y-15542214D01*
X12240833Y-15561262D01*
X12240833Y-15608881D01*
X12231309Y-15627928D01*
X12221786Y-15637452D01*
X12202738Y-15646976D01*
X12145595Y-15646976D01*
X12126548Y-15637452D01*
X12117024Y-15627928D01*
X12421786Y-15446976D02*
X12326548Y-15446976D01*
X12317024Y-15542214D01*
X12326548Y-15532690D01*
X12345595Y-15523167D01*
X12393214Y-15523167D01*
X12412262Y-15532690D01*
X12421786Y-15542214D01*
X12431309Y-15561262D01*
X12431309Y-15608881D01*
X12421786Y-15627928D01*
X12412262Y-15637452D01*
X12393214Y-15646976D01*
X12345595Y-15646976D01*
X12326548Y-15637452D01*
X12317024Y-15627928D01*
X12602738Y-15513643D02*
X12602738Y-15646976D01*
X12555119Y-15437452D02*
X12507500Y-15580309D01*
X12631309Y-15580309D01*
X12697976Y-15446976D02*
X12697976Y-15485071D01*
X12774167Y-15446976D02*
X12774167Y-15485071D01*
X13069405Y-15723167D02*
X13059881Y-15713643D01*
X13040833Y-15685071D01*
X13031309Y-15666024D01*
X13021786Y-15637452D01*
X13012262Y-15589833D01*
X13012262Y-15551738D01*
X13021786Y-15504119D01*
X13031309Y-15475548D01*
X13040833Y-15456500D01*
X13059881Y-15427928D01*
X13069405Y-15418405D01*
X13136071Y-15466024D02*
X13145595Y-15456500D01*
X13164643Y-15446976D01*
X13212262Y-15446976D01*
X13231309Y-15456500D01*
X13240833Y-15466024D01*
X13250357Y-15485071D01*
X13250357Y-15504119D01*
X13240833Y-15532690D01*
X13126548Y-15646976D01*
X13250357Y-15646976D01*
X13488452Y-15646976D02*
X13488452Y-15446976D01*
X13574167Y-15646976D02*
X13574167Y-15542214D01*
X13564643Y-15523167D01*
X13545595Y-15513643D01*
X13517024Y-15513643D01*
X13497976Y-15523167D01*
X13488452Y-15532690D01*
X13697976Y-15646976D02*
X13678928Y-15637452D01*
X13669405Y-15627928D01*
X13659881Y-15608881D01*
X13659881Y-15551738D01*
X13669405Y-15532690D01*
X13678928Y-15523167D01*
X13697976Y-15513643D01*
X13726548Y-15513643D01*
X13745595Y-15523167D01*
X13755119Y-15532690D01*
X13764643Y-15551738D01*
X13764643Y-15608881D01*
X13755119Y-15627928D01*
X13745595Y-15637452D01*
X13726548Y-15646976D01*
X13697976Y-15646976D01*
X13878928Y-15646976D02*
X13859881Y-15637452D01*
X13850357Y-15618405D01*
X13850357Y-15446976D01*
X14031309Y-15637452D02*
X14012262Y-15646976D01*
X13974167Y-15646976D01*
X13955119Y-15637452D01*
X13945595Y-15618405D01*
X13945595Y-15542214D01*
X13955119Y-15523167D01*
X13974167Y-15513643D01*
X14012262Y-15513643D01*
X14031309Y-15523167D01*
X14040833Y-15542214D01*
X14040833Y-15561262D01*
X13945595Y-15580309D01*
X14117024Y-15637452D02*
X14136071Y-15646976D01*
X14174167Y-15646976D01*
X14193214Y-15637452D01*
X14202738Y-15618405D01*
X14202738Y-15608881D01*
X14193214Y-15589833D01*
X14174167Y-15580309D01*
X14145595Y-15580309D01*
X14126548Y-15570786D01*
X14117024Y-15551738D01*
X14117024Y-15542214D01*
X14126548Y-15523167D01*
X14145595Y-15513643D01*
X14174167Y-15513643D01*
X14193214Y-15523167D01*
X14269405Y-15723167D02*
X14278928Y-15713643D01*
X14297976Y-15685071D01*
X14307500Y-15666024D01*
X14317024Y-15637452D01*
X14326548Y-15589833D01*
X14326548Y-15551738D01*
X14317024Y-15504119D01*
X14307500Y-15475548D01*
X14297976Y-15456500D01*
X14278928Y-15427928D01*
X14269405Y-15418405D01*
D14*
X9447500Y-15770500D02*
X9447500Y-15870500D01*
X9397500Y-15820500D02*
X9497500Y-15820500D01*
D11*
X9859881Y-15910976D02*
X9745595Y-15910976D01*
X9802738Y-15910976D02*
X9802738Y-15710976D01*
X9783690Y-15739548D01*
X9764643Y-15758595D01*
X9745595Y-15768119D01*
X9945595Y-15891928D02*
X9955119Y-15901452D01*
X9945595Y-15910976D01*
X9936071Y-15901452D01*
X9945595Y-15891928D01*
X9945595Y-15910976D01*
X10078929Y-15710976D02*
X10097976Y-15710976D01*
X10117024Y-15720500D01*
X10126548Y-15730024D01*
X10136071Y-15749071D01*
X10145595Y-15787167D01*
X10145595Y-15834786D01*
X10136071Y-15872881D01*
X10126548Y-15891928D01*
X10117024Y-15901452D01*
X10097976Y-15910976D01*
X10078929Y-15910976D01*
X10059881Y-15901452D01*
X10050357Y-15891928D01*
X10040833Y-15872881D01*
X10031310Y-15834786D01*
X10031310Y-15787167D01*
X10040833Y-15749071D01*
X10050357Y-15730024D01*
X10059881Y-15720500D01*
X10078929Y-15710976D01*
X10269405Y-15710976D02*
X10288452Y-15710976D01*
X10307500Y-15720500D01*
X10317024Y-15730024D01*
X10326548Y-15749071D01*
X10336071Y-15787167D01*
X10336071Y-15834786D01*
X10326548Y-15872881D01*
X10317024Y-15891928D01*
X10307500Y-15901452D01*
X10288452Y-15910976D01*
X10269405Y-15910976D01*
X10250357Y-15901452D01*
X10240833Y-15891928D01*
X10231310Y-15872881D01*
X10221786Y-15834786D01*
X10221786Y-15787167D01*
X10231310Y-15749071D01*
X10240833Y-15730024D01*
X10250357Y-15720500D01*
X10269405Y-15710976D01*
X10459881Y-15710976D02*
X10478929Y-15710976D01*
X10497976Y-15720500D01*
X10507500Y-15730024D01*
X10517024Y-15749071D01*
X10526548Y-15787167D01*
X10526548Y-15834786D01*
X10517024Y-15872881D01*
X10507500Y-15891928D01*
X10497976Y-15901452D01*
X10478929Y-15910976D01*
X10459881Y-15910976D01*
X10440833Y-15901452D01*
X10431310Y-15891928D01*
X10421786Y-15872881D01*
X10412262Y-15834786D01*
X10412262Y-15787167D01*
X10421786Y-15749071D01*
X10431310Y-15730024D01*
X10440833Y-15720500D01*
X10459881Y-15710976D01*
X10612262Y-15910976D02*
X10612262Y-15777643D01*
X10612262Y-15796690D02*
X10621786Y-15787167D01*
X10640833Y-15777643D01*
X10669405Y-15777643D01*
X10688452Y-15787167D01*
X10697976Y-15806214D01*
X10697976Y-15910976D01*
X10697976Y-15806214D02*
X10707500Y-15787167D01*
X10726548Y-15777643D01*
X10755119Y-15777643D01*
X10774167Y-15787167D01*
X10783690Y-15806214D01*
X10783690Y-15910976D01*
X10878929Y-15910976D02*
X10878929Y-15777643D01*
X10878929Y-15796690D02*
X10888452Y-15787167D01*
X10907500Y-15777643D01*
X10936071Y-15777643D01*
X10955119Y-15787167D01*
X10964643Y-15806214D01*
X10964643Y-15910976D01*
X10964643Y-15806214D02*
X10974167Y-15787167D01*
X10993214Y-15777643D01*
X11021786Y-15777643D01*
X11040833Y-15787167D01*
X11050357Y-15806214D01*
X11050357Y-15910976D01*
X11440833Y-15701452D02*
X11269405Y-15958595D01*
X11697976Y-15710976D02*
X11717024Y-15710976D01*
X11736071Y-15720500D01*
X11745595Y-15730024D01*
X11755119Y-15749071D01*
X11764643Y-15787167D01*
X11764643Y-15834786D01*
X11755119Y-15872881D01*
X11745595Y-15891928D01*
X11736071Y-15901452D01*
X11717024Y-15910976D01*
X11697976Y-15910976D01*
X11678928Y-15901452D01*
X11669405Y-15891928D01*
X11659881Y-15872881D01*
X11650357Y-15834786D01*
X11650357Y-15787167D01*
X11659881Y-15749071D01*
X11669405Y-15730024D01*
X11678928Y-15720500D01*
X11697976Y-15710976D01*
X11850357Y-15891928D02*
X11859881Y-15901452D01*
X11850357Y-15910976D01*
X11840833Y-15901452D01*
X11850357Y-15891928D01*
X11850357Y-15910976D01*
X11983690Y-15710976D02*
X12002738Y-15710976D01*
X12021786Y-15720500D01*
X12031309Y-15730024D01*
X12040833Y-15749071D01*
X12050357Y-15787167D01*
X12050357Y-15834786D01*
X12040833Y-15872881D01*
X12031309Y-15891928D01*
X12021786Y-15901452D01*
X12002738Y-15910976D01*
X11983690Y-15910976D01*
X11964643Y-15901452D01*
X11955119Y-15891928D01*
X11945595Y-15872881D01*
X11936071Y-15834786D01*
X11936071Y-15787167D01*
X11945595Y-15749071D01*
X11955119Y-15730024D01*
X11964643Y-15720500D01*
X11983690Y-15710976D01*
X12117024Y-15710976D02*
X12240833Y-15710976D01*
X12174167Y-15787167D01*
X12202738Y-15787167D01*
X12221786Y-15796690D01*
X12231309Y-15806214D01*
X12240833Y-15825262D01*
X12240833Y-15872881D01*
X12231309Y-15891928D01*
X12221786Y-15901452D01*
X12202738Y-15910976D01*
X12145595Y-15910976D01*
X12126548Y-15901452D01*
X12117024Y-15891928D01*
X12336071Y-15910976D02*
X12374167Y-15910976D01*
X12393214Y-15901452D01*
X12402738Y-15891928D01*
X12421786Y-15863357D01*
X12431309Y-15825262D01*
X12431309Y-15749071D01*
X12421786Y-15730024D01*
X12412262Y-15720500D01*
X12393214Y-15710976D01*
X12355119Y-15710976D01*
X12336071Y-15720500D01*
X12326548Y-15730024D01*
X12317024Y-15749071D01*
X12317024Y-15796690D01*
X12326548Y-15815738D01*
X12336071Y-15825262D01*
X12355119Y-15834786D01*
X12393214Y-15834786D01*
X12412262Y-15825262D01*
X12421786Y-15815738D01*
X12431309Y-15796690D01*
X12602738Y-15777643D02*
X12602738Y-15910976D01*
X12555119Y-15701452D02*
X12507500Y-15844309D01*
X12631309Y-15844309D01*
X12697976Y-15710976D02*
X12697976Y-15749071D01*
X12774167Y-15710976D02*
X12774167Y-15749071D01*
X13069405Y-15987167D02*
X13059881Y-15977643D01*
X13040833Y-15949071D01*
X13031309Y-15930024D01*
X13021786Y-15901452D01*
X13012262Y-15853833D01*
X13012262Y-15815738D01*
X13021786Y-15768119D01*
X13031309Y-15739548D01*
X13040833Y-15720500D01*
X13059881Y-15691928D01*
X13069405Y-15682405D01*
X13231309Y-15777643D02*
X13231309Y-15910976D01*
X13183690Y-15701452D02*
X13136071Y-15844309D01*
X13259881Y-15844309D01*
X13326548Y-15730024D02*
X13336071Y-15720500D01*
X13355119Y-15710976D01*
X13402738Y-15710976D01*
X13421786Y-15720500D01*
X13431309Y-15730024D01*
X13440833Y-15749071D01*
X13440833Y-15768119D01*
X13431309Y-15796690D01*
X13317024Y-15910976D01*
X13440833Y-15910976D01*
X13678928Y-15910976D02*
X13678928Y-15710976D01*
X13764643Y-15910976D02*
X13764643Y-15806214D01*
X13755119Y-15787167D01*
X13736071Y-15777643D01*
X13707500Y-15777643D01*
X13688452Y-15787167D01*
X13678928Y-15796690D01*
X13888452Y-15910976D02*
X13869405Y-15901452D01*
X13859881Y-15891928D01*
X13850357Y-15872881D01*
X13850357Y-15815738D01*
X13859881Y-15796690D01*
X13869405Y-15787167D01*
X13888452Y-15777643D01*
X13917024Y-15777643D01*
X13936071Y-15787167D01*
X13945595Y-15796690D01*
X13955119Y-15815738D01*
X13955119Y-15872881D01*
X13945595Y-15891928D01*
X13936071Y-15901452D01*
X13917024Y-15910976D01*
X13888452Y-15910976D01*
X14069405Y-15910976D02*
X14050357Y-15901452D01*
X14040833Y-15882405D01*
X14040833Y-15710976D01*
X14221786Y-15901452D02*
X14202738Y-15910976D01*
X14164643Y-15910976D01*
X14145595Y-15901452D01*
X14136071Y-15882405D01*
X14136071Y-15806214D01*
X14145595Y-15787167D01*
X14164643Y-15777643D01*
X14202738Y-15777643D01*
X14221786Y-15787167D01*
X14231309Y-15806214D01*
X14231309Y-15825262D01*
X14136071Y-15844309D01*
X14307500Y-15901452D02*
X14326548Y-15910976D01*
X14364643Y-15910976D01*
X14383690Y-15901452D01*
X14393214Y-15882405D01*
X14393214Y-15872881D01*
X14383690Y-15853833D01*
X14364643Y-15844309D01*
X14336071Y-15844309D01*
X14317024Y-15834786D01*
X14307500Y-15815738D01*
X14307500Y-15806214D01*
X14317024Y-15787167D01*
X14336071Y-15777643D01*
X14364643Y-15777643D01*
X14383690Y-15787167D01*
X14631309Y-15834786D02*
X14783690Y-15834786D01*
X14707500Y-15910976D02*
X14707500Y-15758595D01*
X15136071Y-15910976D02*
X15021786Y-15910976D01*
X15078928Y-15910976D02*
X15078928Y-15710976D01*
X15059881Y-15739548D01*
X15040833Y-15758595D01*
X15021786Y-15768119D01*
X15317024Y-15710976D02*
X15221786Y-15710976D01*
X15212262Y-15806214D01*
X15221786Y-15796690D01*
X15240833Y-15787167D01*
X15288452Y-15787167D01*
X15307500Y-15796690D01*
X15317024Y-15806214D01*
X15326548Y-15825262D01*
X15326548Y-15872881D01*
X15317024Y-15891928D01*
X15307500Y-15901452D01*
X15288452Y-15910976D01*
X15240833Y-15910976D01*
X15221786Y-15901452D01*
X15212262Y-15891928D01*
X15555119Y-15901452D02*
X15574167Y-15910976D01*
X15612262Y-15910976D01*
X15631309Y-15901452D01*
X15640833Y-15882405D01*
X15640833Y-15872881D01*
X15631309Y-15853833D01*
X15612262Y-15844309D01*
X15583690Y-15844309D01*
X15564643Y-15834786D01*
X15555119Y-15815738D01*
X15555119Y-15806214D01*
X15564643Y-15787167D01*
X15583690Y-15777643D01*
X15612262Y-15777643D01*
X15631309Y-15787167D01*
X15755119Y-15910976D02*
X15736071Y-15901452D01*
X15726548Y-15882405D01*
X15726548Y-15710976D01*
X15859881Y-15910976D02*
X15840833Y-15901452D01*
X15831309Y-15891928D01*
X15821786Y-15872881D01*
X15821786Y-15815738D01*
X15831309Y-15796690D01*
X15840833Y-15787167D01*
X15859881Y-15777643D01*
X15888452Y-15777643D01*
X15907500Y-15787167D01*
X15917024Y-15796690D01*
X15926548Y-15815738D01*
X15926548Y-15872881D01*
X15917024Y-15891928D01*
X15907500Y-15901452D01*
X15888452Y-15910976D01*
X15859881Y-15910976D01*
X15983690Y-15777643D02*
X16059881Y-15777643D01*
X16012262Y-15710976D02*
X16012262Y-15882405D01*
X16021786Y-15901452D01*
X16040833Y-15910976D01*
X16059881Y-15910976D01*
X16117024Y-15901452D02*
X16136071Y-15910976D01*
X16174167Y-15910976D01*
X16193214Y-15901452D01*
X16202738Y-15882405D01*
X16202738Y-15872881D01*
X16193214Y-15853833D01*
X16174167Y-15844309D01*
X16145595Y-15844309D01*
X16126548Y-15834786D01*
X16117024Y-15815738D01*
X16117024Y-15806214D01*
X16126548Y-15787167D01*
X16145595Y-15777643D01*
X16174167Y-15777643D01*
X16193214Y-15787167D01*
X16269405Y-15987167D02*
X16278928Y-15977643D01*
X16297976Y-15949071D01*
X16307500Y-15930024D01*
X16317024Y-15901452D01*
X16326548Y-15853833D01*
X16326548Y-15815738D01*
X16317024Y-15768119D01*
X16307500Y-15739548D01*
X16297976Y-15720500D01*
X16278928Y-15691928D01*
X16269405Y-15682405D01*
D15*
X9479634Y-16127634D02*
X9479634Y-16041366D01*
X9393366Y-16041366D01*
X9393366Y-16127634D01*
X9479634Y-16127634D01*
D11*
X9859881Y-16174976D02*
X9745595Y-16174976D01*
X9802738Y-16174976D02*
X9802738Y-15974976D01*
X9783690Y-16003548D01*
X9764643Y-16022595D01*
X9745595Y-16032119D01*
X9945595Y-16155928D02*
X9955119Y-16165452D01*
X9945595Y-16174976D01*
X9936071Y-16165452D01*
X9945595Y-16155928D01*
X9945595Y-16174976D01*
X10031310Y-15994024D02*
X10040833Y-15984500D01*
X10059881Y-15974976D01*
X10107500Y-15974976D01*
X10126548Y-15984500D01*
X10136071Y-15994024D01*
X10145595Y-16013071D01*
X10145595Y-16032119D01*
X10136071Y-16060690D01*
X10021786Y-16174976D01*
X10145595Y-16174976D01*
X10221786Y-15994024D02*
X10231310Y-15984500D01*
X10250357Y-15974976D01*
X10297976Y-15974976D01*
X10317024Y-15984500D01*
X10326548Y-15994024D01*
X10336071Y-16013071D01*
X10336071Y-16032119D01*
X10326548Y-16060690D01*
X10212262Y-16174976D01*
X10336071Y-16174976D01*
X10459881Y-15974976D02*
X10478929Y-15974976D01*
X10497976Y-15984500D01*
X10507500Y-15994024D01*
X10517024Y-16013071D01*
X10526548Y-16051167D01*
X10526548Y-16098786D01*
X10517024Y-16136881D01*
X10507500Y-16155928D01*
X10497976Y-16165452D01*
X10478929Y-16174976D01*
X10459881Y-16174976D01*
X10440833Y-16165452D01*
X10431310Y-16155928D01*
X10421786Y-16136881D01*
X10412262Y-16098786D01*
X10412262Y-16051167D01*
X10421786Y-16013071D01*
X10431310Y-15994024D01*
X10440833Y-15984500D01*
X10459881Y-15974976D01*
X10612262Y-16174976D02*
X10612262Y-16041643D01*
X10612262Y-16060690D02*
X10621786Y-16051167D01*
X10640833Y-16041643D01*
X10669405Y-16041643D01*
X10688452Y-16051167D01*
X10697976Y-16070214D01*
X10697976Y-16174976D01*
X10697976Y-16070214D02*
X10707500Y-16051167D01*
X10726548Y-16041643D01*
X10755119Y-16041643D01*
X10774167Y-16051167D01*
X10783690Y-16070214D01*
X10783690Y-16174976D01*
X10878929Y-16174976D02*
X10878929Y-16041643D01*
X10878929Y-16060690D02*
X10888452Y-16051167D01*
X10907500Y-16041643D01*
X10936071Y-16041643D01*
X10955119Y-16051167D01*
X10964643Y-16070214D01*
X10964643Y-16174976D01*
X10964643Y-16070214D02*
X10974167Y-16051167D01*
X10993214Y-16041643D01*
X11021786Y-16041643D01*
X11040833Y-16051167D01*
X11050357Y-16070214D01*
X11050357Y-16174976D01*
X11440833Y-15965452D02*
X11269405Y-16222595D01*
X11697976Y-15974976D02*
X11717024Y-15974976D01*
X11736071Y-15984500D01*
X11745595Y-15994024D01*
X11755119Y-16013071D01*
X11764643Y-16051167D01*
X11764643Y-16098786D01*
X11755119Y-16136881D01*
X11745595Y-16155928D01*
X11736071Y-16165452D01*
X11717024Y-16174976D01*
X11697976Y-16174976D01*
X11678928Y-16165452D01*
X11669405Y-16155928D01*
X11659881Y-16136881D01*
X11650357Y-16098786D01*
X11650357Y-16051167D01*
X11659881Y-16013071D01*
X11669405Y-15994024D01*
X11678928Y-15984500D01*
X11697976Y-15974976D01*
X11850357Y-16155928D02*
X11859881Y-16165452D01*
X11850357Y-16174976D01*
X11840833Y-16165452D01*
X11850357Y-16155928D01*
X11850357Y-16174976D01*
X11983690Y-15974976D02*
X12002738Y-15974976D01*
X12021786Y-15984500D01*
X12031309Y-15994024D01*
X12040833Y-16013071D01*
X12050357Y-16051167D01*
X12050357Y-16098786D01*
X12040833Y-16136881D01*
X12031309Y-16155928D01*
X12021786Y-16165452D01*
X12002738Y-16174976D01*
X11983690Y-16174976D01*
X11964643Y-16165452D01*
X11955119Y-16155928D01*
X11945595Y-16136881D01*
X11936071Y-16098786D01*
X11936071Y-16051167D01*
X11945595Y-16013071D01*
X11955119Y-15994024D01*
X11964643Y-15984500D01*
X11983690Y-15974976D01*
X12221786Y-16041643D02*
X12221786Y-16174976D01*
X12174167Y-15965452D02*
X12126548Y-16108309D01*
X12250357Y-16108309D01*
X12355119Y-16060690D02*
X12336071Y-16051167D01*
X12326548Y-16041643D01*
X12317024Y-16022595D01*
X12317024Y-16013071D01*
X12326548Y-15994024D01*
X12336071Y-15984500D01*
X12355119Y-15974976D01*
X12393214Y-15974976D01*
X12412262Y-15984500D01*
X12421786Y-15994024D01*
X12431309Y-16013071D01*
X12431309Y-16022595D01*
X12421786Y-16041643D01*
X12412262Y-16051167D01*
X12393214Y-16060690D01*
X12355119Y-16060690D01*
X12336071Y-16070214D01*
X12326548Y-16079738D01*
X12317024Y-16098786D01*
X12317024Y-16136881D01*
X12326548Y-16155928D01*
X12336071Y-16165452D01*
X12355119Y-16174976D01*
X12393214Y-16174976D01*
X12412262Y-16165452D01*
X12421786Y-16155928D01*
X12431309Y-16136881D01*
X12431309Y-16098786D01*
X12421786Y-16079738D01*
X12412262Y-16070214D01*
X12393214Y-16060690D01*
X12555119Y-15974976D02*
X12574167Y-15974976D01*
X12593214Y-15984500D01*
X12602738Y-15994024D01*
X12612262Y-16013071D01*
X12621786Y-16051167D01*
X12621786Y-16098786D01*
X12612262Y-16136881D01*
X12602738Y-16155928D01*
X12593214Y-16165452D01*
X12574167Y-16174976D01*
X12555119Y-16174976D01*
X12536071Y-16165452D01*
X12526548Y-16155928D01*
X12517024Y-16136881D01*
X12507500Y-16098786D01*
X12507500Y-16051167D01*
X12517024Y-16013071D01*
X12526548Y-15994024D01*
X12536071Y-15984500D01*
X12555119Y-15974976D01*
X12697976Y-15974976D02*
X12697976Y-16013071D01*
X12774167Y-15974976D02*
X12774167Y-16013071D01*
X13069405Y-16251167D02*
X13059881Y-16241643D01*
X13040833Y-16213071D01*
X13031309Y-16194024D01*
X13021786Y-16165452D01*
X13012262Y-16117833D01*
X13012262Y-16079738D01*
X13021786Y-16032119D01*
X13031309Y-16003548D01*
X13040833Y-15984500D01*
X13059881Y-15955928D01*
X13069405Y-15946405D01*
X13231309Y-15974976D02*
X13193214Y-15974976D01*
X13174167Y-15984500D01*
X13164643Y-15994024D01*
X13145595Y-16022595D01*
X13136071Y-16060690D01*
X13136071Y-16136881D01*
X13145595Y-16155928D01*
X13155119Y-16165452D01*
X13174167Y-16174976D01*
X13212262Y-16174976D01*
X13231309Y-16165452D01*
X13240833Y-16155928D01*
X13250357Y-16136881D01*
X13250357Y-16089262D01*
X13240833Y-16070214D01*
X13231309Y-16060690D01*
X13212262Y-16051167D01*
X13174167Y-16051167D01*
X13155119Y-16060690D01*
X13145595Y-16070214D01*
X13136071Y-16089262D01*
X13488452Y-16174976D02*
X13488452Y-15974976D01*
X13574167Y-16174976D02*
X13574167Y-16070214D01*
X13564643Y-16051167D01*
X13545595Y-16041643D01*
X13517024Y-16041643D01*
X13497976Y-16051167D01*
X13488452Y-16060690D01*
X13697976Y-16174976D02*
X13678928Y-16165452D01*
X13669405Y-16155928D01*
X13659881Y-16136881D01*
X13659881Y-16079738D01*
X13669405Y-16060690D01*
X13678928Y-16051167D01*
X13697976Y-16041643D01*
X13726548Y-16041643D01*
X13745595Y-16051167D01*
X13755119Y-16060690D01*
X13764643Y-16079738D01*
X13764643Y-16136881D01*
X13755119Y-16155928D01*
X13745595Y-16165452D01*
X13726548Y-16174976D01*
X13697976Y-16174976D01*
X13878928Y-16174976D02*
X13859881Y-16165452D01*
X13850357Y-16146405D01*
X13850357Y-15974976D01*
X14031309Y-16165452D02*
X14012262Y-16174976D01*
X13974167Y-16174976D01*
X13955119Y-16165452D01*
X13945595Y-16146405D01*
X13945595Y-16070214D01*
X13955119Y-16051167D01*
X13974167Y-16041643D01*
X14012262Y-16041643D01*
X14031309Y-16051167D01*
X14040833Y-16070214D01*
X14040833Y-16089262D01*
X13945595Y-16108309D01*
X14117024Y-16165452D02*
X14136071Y-16174976D01*
X14174167Y-16174976D01*
X14193214Y-16165452D01*
X14202738Y-16146405D01*
X14202738Y-16136881D01*
X14193214Y-16117833D01*
X14174167Y-16108309D01*
X14145595Y-16108309D01*
X14126548Y-16098786D01*
X14117024Y-16079738D01*
X14117024Y-16070214D01*
X14126548Y-16051167D01*
X14145595Y-16041643D01*
X14174167Y-16041643D01*
X14193214Y-16051167D01*
X14269405Y-16251167D02*
X14278928Y-16241643D01*
X14297976Y-16213071D01*
X14307500Y-16194024D01*
X14317024Y-16165452D01*
X14326548Y-16117833D01*
X14326548Y-16079738D01*
X14317024Y-16032119D01*
X14307500Y-16003548D01*
X14297976Y-15984500D01*
X14278928Y-15955928D01*
X14269405Y-15946405D01*
D16*
X9426500Y-16419500D02*
X9497500Y-16348500D01*
X9426500Y-16277500D01*
X9355500Y-16348500D01*
X9426500Y-16419500D01*
D11*
X9859881Y-16438976D02*
X9745595Y-16438976D01*
X9802738Y-16438976D02*
X9802738Y-16238976D01*
X9783690Y-16267548D01*
X9764643Y-16286595D01*
X9745595Y-16296119D01*
X9945595Y-16419928D02*
X9955119Y-16429452D01*
X9945595Y-16438976D01*
X9936071Y-16429452D01*
X9945595Y-16419928D01*
X9945595Y-16438976D01*
X10126548Y-16305643D02*
X10126548Y-16438976D01*
X10078929Y-16229452D02*
X10031310Y-16372309D01*
X10155119Y-16372309D01*
X10221786Y-16258024D02*
X10231310Y-16248500D01*
X10250357Y-16238976D01*
X10297976Y-16238976D01*
X10317024Y-16248500D01*
X10326548Y-16258024D01*
X10336071Y-16277071D01*
X10336071Y-16296119D01*
X10326548Y-16324690D01*
X10212262Y-16438976D01*
X10336071Y-16438976D01*
X10459881Y-16238976D02*
X10478929Y-16238976D01*
X10497976Y-16248500D01*
X10507500Y-16258024D01*
X10517024Y-16277071D01*
X10526548Y-16315167D01*
X10526548Y-16362786D01*
X10517024Y-16400881D01*
X10507500Y-16419928D01*
X10497976Y-16429452D01*
X10478929Y-16438976D01*
X10459881Y-16438976D01*
X10440833Y-16429452D01*
X10431310Y-16419928D01*
X10421786Y-16400881D01*
X10412262Y-16362786D01*
X10412262Y-16315167D01*
X10421786Y-16277071D01*
X10431310Y-16258024D01*
X10440833Y-16248500D01*
X10459881Y-16238976D01*
X10612262Y-16438976D02*
X10612262Y-16305643D01*
X10612262Y-16324690D02*
X10621786Y-16315167D01*
X10640833Y-16305643D01*
X10669405Y-16305643D01*
X10688452Y-16315167D01*
X10697976Y-16334214D01*
X10697976Y-16438976D01*
X10697976Y-16334214D02*
X10707500Y-16315167D01*
X10726548Y-16305643D01*
X10755119Y-16305643D01*
X10774167Y-16315167D01*
X10783690Y-16334214D01*
X10783690Y-16438976D01*
X10878929Y-16438976D02*
X10878929Y-16305643D01*
X10878929Y-16324690D02*
X10888452Y-16315167D01*
X10907500Y-16305643D01*
X10936071Y-16305643D01*
X10955119Y-16315167D01*
X10964643Y-16334214D01*
X10964643Y-16438976D01*
X10964643Y-16334214D02*
X10974167Y-16315167D01*
X10993214Y-16305643D01*
X11021786Y-16305643D01*
X11040833Y-16315167D01*
X11050357Y-16334214D01*
X11050357Y-16438976D01*
X11440833Y-16229452D02*
X11269405Y-16486595D01*
X11697976Y-16238976D02*
X11717024Y-16238976D01*
X11736071Y-16248500D01*
X11745595Y-16258024D01*
X11755119Y-16277071D01*
X11764643Y-16315167D01*
X11764643Y-16362786D01*
X11755119Y-16400881D01*
X11745595Y-16419928D01*
X11736071Y-16429452D01*
X11717024Y-16438976D01*
X11697976Y-16438976D01*
X11678928Y-16429452D01*
X11669405Y-16419928D01*
X11659881Y-16400881D01*
X11650357Y-16362786D01*
X11650357Y-16315167D01*
X11659881Y-16277071D01*
X11669405Y-16258024D01*
X11678928Y-16248500D01*
X11697976Y-16238976D01*
X11850357Y-16419928D02*
X11859881Y-16429452D01*
X11850357Y-16438976D01*
X11840833Y-16429452D01*
X11850357Y-16419928D01*
X11850357Y-16438976D01*
X11983690Y-16238976D02*
X12002738Y-16238976D01*
X12021786Y-16248500D01*
X12031309Y-16258024D01*
X12040833Y-16277071D01*
X12050357Y-16315167D01*
X12050357Y-16362786D01*
X12040833Y-16400881D01*
X12031309Y-16419928D01*
X12021786Y-16429452D01*
X12002738Y-16438976D01*
X11983690Y-16438976D01*
X11964643Y-16429452D01*
X11955119Y-16419928D01*
X11945595Y-16400881D01*
X11936071Y-16362786D01*
X11936071Y-16315167D01*
X11945595Y-16277071D01*
X11955119Y-16258024D01*
X11964643Y-16248500D01*
X11983690Y-16238976D01*
X12231309Y-16238976D02*
X12136071Y-16238976D01*
X12126548Y-16334214D01*
X12136071Y-16324690D01*
X12155119Y-16315167D01*
X12202738Y-16315167D01*
X12221786Y-16324690D01*
X12231309Y-16334214D01*
X12240833Y-16353262D01*
X12240833Y-16400881D01*
X12231309Y-16419928D01*
X12221786Y-16429452D01*
X12202738Y-16438976D01*
X12155119Y-16438976D01*
X12136071Y-16429452D01*
X12126548Y-16419928D01*
X12421786Y-16238976D02*
X12326548Y-16238976D01*
X12317024Y-16334214D01*
X12326548Y-16324690D01*
X12345595Y-16315167D01*
X12393214Y-16315167D01*
X12412262Y-16324690D01*
X12421786Y-16334214D01*
X12431309Y-16353262D01*
X12431309Y-16400881D01*
X12421786Y-16419928D01*
X12412262Y-16429452D01*
X12393214Y-16438976D01*
X12345595Y-16438976D01*
X12326548Y-16429452D01*
X12317024Y-16419928D01*
X12526548Y-16438976D02*
X12564643Y-16438976D01*
X12583690Y-16429452D01*
X12593214Y-16419928D01*
X12612262Y-16391357D01*
X12621786Y-16353262D01*
X12621786Y-16277071D01*
X12612262Y-16258024D01*
X12602738Y-16248500D01*
X12583690Y-16238976D01*
X12545595Y-16238976D01*
X12526548Y-16248500D01*
X12517024Y-16258024D01*
X12507500Y-16277071D01*
X12507500Y-16324690D01*
X12517024Y-16343738D01*
X12526548Y-16353262D01*
X12545595Y-16362786D01*
X12583690Y-16362786D01*
X12602738Y-16353262D01*
X12612262Y-16343738D01*
X12621786Y-16324690D01*
X12697976Y-16238976D02*
X12697976Y-16277071D01*
X12774167Y-16238976D02*
X12774167Y-16277071D01*
X13069405Y-16515167D02*
X13059881Y-16505643D01*
X13040833Y-16477071D01*
X13031309Y-16458024D01*
X13021786Y-16429452D01*
X13012262Y-16381833D01*
X13012262Y-16343738D01*
X13021786Y-16296119D01*
X13031309Y-16267548D01*
X13040833Y-16248500D01*
X13059881Y-16219928D01*
X13069405Y-16210405D01*
X13231309Y-16238976D02*
X13193214Y-16238976D01*
X13174167Y-16248500D01*
X13164643Y-16258024D01*
X13145595Y-16286595D01*
X13136071Y-16324690D01*
X13136071Y-16400881D01*
X13145595Y-16419928D01*
X13155119Y-16429452D01*
X13174167Y-16438976D01*
X13212262Y-16438976D01*
X13231309Y-16429452D01*
X13240833Y-16419928D01*
X13250357Y-16400881D01*
X13250357Y-16353262D01*
X13240833Y-16334214D01*
X13231309Y-16324690D01*
X13212262Y-16315167D01*
X13174167Y-16315167D01*
X13155119Y-16324690D01*
X13145595Y-16334214D01*
X13136071Y-16353262D01*
X13488452Y-16438976D02*
X13488452Y-16238976D01*
X13574167Y-16438976D02*
X13574167Y-16334214D01*
X13564643Y-16315167D01*
X13545595Y-16305643D01*
X13517024Y-16305643D01*
X13497976Y-16315167D01*
X13488452Y-16324690D01*
X13697976Y-16438976D02*
X13678928Y-16429452D01*
X13669405Y-16419928D01*
X13659881Y-16400881D01*
X13659881Y-16343738D01*
X13669405Y-16324690D01*
X13678928Y-16315167D01*
X13697976Y-16305643D01*
X13726548Y-16305643D01*
X13745595Y-16315167D01*
X13755119Y-16324690D01*
X13764643Y-16343738D01*
X13764643Y-16400881D01*
X13755119Y-16419928D01*
X13745595Y-16429452D01*
X13726548Y-16438976D01*
X13697976Y-16438976D01*
X13878928Y-16438976D02*
X13859881Y-16429452D01*
X13850357Y-16410405D01*
X13850357Y-16238976D01*
X14031309Y-16429452D02*
X14012262Y-16438976D01*
X13974167Y-16438976D01*
X13955119Y-16429452D01*
X13945595Y-16410405D01*
X13945595Y-16334214D01*
X13955119Y-16315167D01*
X13974167Y-16305643D01*
X14012262Y-16305643D01*
X14031309Y-16315167D01*
X14040833Y-16334214D01*
X14040833Y-16353262D01*
X13945595Y-16372309D01*
X14117024Y-16429452D02*
X14136071Y-16438976D01*
X14174167Y-16438976D01*
X14193214Y-16429452D01*
X14202738Y-16410405D01*
X14202738Y-16400881D01*
X14193214Y-16381833D01*
X14174167Y-16372309D01*
X14145595Y-16372309D01*
X14126548Y-16362786D01*
X14117024Y-16343738D01*
X14117024Y-16334214D01*
X14126548Y-16315167D01*
X14145595Y-16305643D01*
X14174167Y-16305643D01*
X14193214Y-16315167D01*
X14269405Y-16515167D02*
X14278928Y-16505643D01*
X14297976Y-16477071D01*
X14307500Y-16458024D01*
X14317024Y-16429452D01*
X14326548Y-16381833D01*
X14326548Y-16343738D01*
X14317024Y-16296119D01*
X14307500Y-16267548D01*
X14297976Y-16248500D01*
X14278928Y-16219928D01*
X14269405Y-16210405D01*
D17*
X9354500Y-16541000D02*
X9497500Y-16684000D01*
X9497500Y-16541000D02*
X9354500Y-16684000D01*
X9497500Y-16612500D02*
G75*
G03*
X9497500Y-16612500I-71500J0D01*
G01*
D11*
X9859881Y-16702976D02*
X9745595Y-16702976D01*
X9802738Y-16702976D02*
X9802738Y-16502976D01*
X9783690Y-16531548D01*
X9764643Y-16550595D01*
X9745595Y-16560119D01*
X9945595Y-16683928D02*
X9955119Y-16693452D01*
X9945595Y-16702976D01*
X9936071Y-16693452D01*
X9945595Y-16683928D01*
X9945595Y-16702976D01*
X10126548Y-16569643D02*
X10126548Y-16702976D01*
X10078929Y-16493452D02*
X10031310Y-16636309D01*
X10155119Y-16636309D01*
X10212262Y-16502976D02*
X10336071Y-16502976D01*
X10269405Y-16579167D01*
X10297976Y-16579167D01*
X10317024Y-16588690D01*
X10326548Y-16598214D01*
X10336071Y-16617262D01*
X10336071Y-16664881D01*
X10326548Y-16683928D01*
X10317024Y-16693452D01*
X10297976Y-16702976D01*
X10240833Y-16702976D01*
X10221786Y-16693452D01*
X10212262Y-16683928D01*
X10459881Y-16502976D02*
X10478929Y-16502976D01*
X10497976Y-16512500D01*
X10507500Y-16522024D01*
X10517024Y-16541071D01*
X10526548Y-16579167D01*
X10526548Y-16626786D01*
X10517024Y-16664881D01*
X10507500Y-16683928D01*
X10497976Y-16693452D01*
X10478929Y-16702976D01*
X10459881Y-16702976D01*
X10440833Y-16693452D01*
X10431310Y-16683928D01*
X10421786Y-16664881D01*
X10412262Y-16626786D01*
X10412262Y-16579167D01*
X10421786Y-16541071D01*
X10431310Y-16522024D01*
X10440833Y-16512500D01*
X10459881Y-16502976D01*
X10612262Y-16702976D02*
X10612262Y-16569643D01*
X10612262Y-16588690D02*
X10621786Y-16579167D01*
X10640833Y-16569643D01*
X10669405Y-16569643D01*
X10688452Y-16579167D01*
X10697976Y-16598214D01*
X10697976Y-16702976D01*
X10697976Y-16598214D02*
X10707500Y-16579167D01*
X10726548Y-16569643D01*
X10755119Y-16569643D01*
X10774167Y-16579167D01*
X10783690Y-16598214D01*
X10783690Y-16702976D01*
X10878929Y-16702976D02*
X10878929Y-16569643D01*
X10878929Y-16588690D02*
X10888452Y-16579167D01*
X10907500Y-16569643D01*
X10936071Y-16569643D01*
X10955119Y-16579167D01*
X10964643Y-16598214D01*
X10964643Y-16702976D01*
X10964643Y-16598214D02*
X10974167Y-16579167D01*
X10993214Y-16569643D01*
X11021786Y-16569643D01*
X11040833Y-16579167D01*
X11050357Y-16598214D01*
X11050357Y-16702976D01*
X11440833Y-16493452D02*
X11269405Y-16750595D01*
X11697976Y-16502976D02*
X11717024Y-16502976D01*
X11736071Y-16512500D01*
X11745595Y-16522024D01*
X11755119Y-16541071D01*
X11764643Y-16579167D01*
X11764643Y-16626786D01*
X11755119Y-16664881D01*
X11745595Y-16683928D01*
X11736071Y-16693452D01*
X11717024Y-16702976D01*
X11697976Y-16702976D01*
X11678928Y-16693452D01*
X11669405Y-16683928D01*
X11659881Y-16664881D01*
X11650357Y-16626786D01*
X11650357Y-16579167D01*
X11659881Y-16541071D01*
X11669405Y-16522024D01*
X11678928Y-16512500D01*
X11697976Y-16502976D01*
X11850357Y-16683928D02*
X11859881Y-16693452D01*
X11850357Y-16702976D01*
X11840833Y-16693452D01*
X11850357Y-16683928D01*
X11850357Y-16702976D01*
X11983690Y-16502976D02*
X12002738Y-16502976D01*
X12021786Y-16512500D01*
X12031309Y-16522024D01*
X12040833Y-16541071D01*
X12050357Y-16579167D01*
X12050357Y-16626786D01*
X12040833Y-16664881D01*
X12031309Y-16683928D01*
X12021786Y-16693452D01*
X12002738Y-16702976D01*
X11983690Y-16702976D01*
X11964643Y-16693452D01*
X11955119Y-16683928D01*
X11945595Y-16664881D01*
X11936071Y-16626786D01*
X11936071Y-16579167D01*
X11945595Y-16541071D01*
X11955119Y-16522024D01*
X11964643Y-16512500D01*
X11983690Y-16502976D01*
X12231309Y-16502976D02*
X12136071Y-16502976D01*
X12126548Y-16598214D01*
X12136071Y-16588690D01*
X12155119Y-16579167D01*
X12202738Y-16579167D01*
X12221786Y-16588690D01*
X12231309Y-16598214D01*
X12240833Y-16617262D01*
X12240833Y-16664881D01*
X12231309Y-16683928D01*
X12221786Y-16693452D01*
X12202738Y-16702976D01*
X12155119Y-16702976D01*
X12136071Y-16693452D01*
X12126548Y-16683928D01*
X12412262Y-16502976D02*
X12374167Y-16502976D01*
X12355119Y-16512500D01*
X12345595Y-16522024D01*
X12326548Y-16550595D01*
X12317024Y-16588690D01*
X12317024Y-16664881D01*
X12326548Y-16683928D01*
X12336071Y-16693452D01*
X12355119Y-16702976D01*
X12393214Y-16702976D01*
X12412262Y-16693452D01*
X12421786Y-16683928D01*
X12431309Y-16664881D01*
X12431309Y-16617262D01*
X12421786Y-16598214D01*
X12412262Y-16588690D01*
X12393214Y-16579167D01*
X12355119Y-16579167D01*
X12336071Y-16588690D01*
X12326548Y-16598214D01*
X12317024Y-16617262D01*
X12497976Y-16502976D02*
X12621786Y-16502976D01*
X12555119Y-16579167D01*
X12583690Y-16579167D01*
X12602738Y-16588690D01*
X12612262Y-16598214D01*
X12621786Y-16617262D01*
X12621786Y-16664881D01*
X12612262Y-16683928D01*
X12602738Y-16693452D01*
X12583690Y-16702976D01*
X12526548Y-16702976D01*
X12507500Y-16693452D01*
X12497976Y-16683928D01*
X12697976Y-16502976D02*
X12697976Y-16541071D01*
X12774167Y-16502976D02*
X12774167Y-16541071D01*
X13069405Y-16779167D02*
X13059881Y-16769643D01*
X13040833Y-16741071D01*
X13031309Y-16722024D01*
X13021786Y-16693452D01*
X13012262Y-16645833D01*
X13012262Y-16607738D01*
X13021786Y-16560119D01*
X13031309Y-16531548D01*
X13040833Y-16512500D01*
X13059881Y-16483928D01*
X13069405Y-16474405D01*
X13231309Y-16502976D02*
X13193214Y-16502976D01*
X13174167Y-16512500D01*
X13164643Y-16522024D01*
X13145595Y-16550595D01*
X13136071Y-16588690D01*
X13136071Y-16664881D01*
X13145595Y-16683928D01*
X13155119Y-16693452D01*
X13174167Y-16702976D01*
X13212262Y-16702976D01*
X13231309Y-16693452D01*
X13240833Y-16683928D01*
X13250357Y-16664881D01*
X13250357Y-16617262D01*
X13240833Y-16598214D01*
X13231309Y-16588690D01*
X13212262Y-16579167D01*
X13174167Y-16579167D01*
X13155119Y-16588690D01*
X13145595Y-16598214D01*
X13136071Y-16617262D01*
X13488452Y-16702976D02*
X13488452Y-16502976D01*
X13574167Y-16702976D02*
X13574167Y-16598214D01*
X13564643Y-16579167D01*
X13545595Y-16569643D01*
X13517024Y-16569643D01*
X13497976Y-16579167D01*
X13488452Y-16588690D01*
X13697976Y-16702976D02*
X13678928Y-16693452D01*
X13669405Y-16683928D01*
X13659881Y-16664881D01*
X13659881Y-16607738D01*
X13669405Y-16588690D01*
X13678928Y-16579167D01*
X13697976Y-16569643D01*
X13726548Y-16569643D01*
X13745595Y-16579167D01*
X13755119Y-16588690D01*
X13764643Y-16607738D01*
X13764643Y-16664881D01*
X13755119Y-16683928D01*
X13745595Y-16693452D01*
X13726548Y-16702976D01*
X13697976Y-16702976D01*
X13878928Y-16702976D02*
X13859881Y-16693452D01*
X13850357Y-16674405D01*
X13850357Y-16502976D01*
X14031309Y-16693452D02*
X14012262Y-16702976D01*
X13974167Y-16702976D01*
X13955119Y-16693452D01*
X13945595Y-16674405D01*
X13945595Y-16598214D01*
X13955119Y-16579167D01*
X13974167Y-16569643D01*
X14012262Y-16569643D01*
X14031309Y-16579167D01*
X14040833Y-16598214D01*
X14040833Y-16617262D01*
X13945595Y-16636309D01*
X14117024Y-16693452D02*
X14136071Y-16702976D01*
X14174167Y-16702976D01*
X14193214Y-16693452D01*
X14202738Y-16674405D01*
X14202738Y-16664881D01*
X14193214Y-16645833D01*
X14174167Y-16636309D01*
X14145595Y-16636309D01*
X14126548Y-16626786D01*
X14117024Y-16607738D01*
X14117024Y-16598214D01*
X14126548Y-16579167D01*
X14145595Y-16569643D01*
X14174167Y-16569643D01*
X14193214Y-16579167D01*
X14269405Y-16779167D02*
X14278928Y-16769643D01*
X14297976Y-16741071D01*
X14307500Y-16722024D01*
X14317024Y-16693452D01*
X14326548Y-16645833D01*
X14326548Y-16607738D01*
X14317024Y-16560119D01*
X14307500Y-16531548D01*
X14297976Y-16512500D01*
X14278928Y-16483928D01*
X14269405Y-16474405D01*
M02*
