G04 #@! TF.GenerationSoftware,KiCad,Pcbnew,(6.0.6)*
G04 #@! TF.CreationDate,2022-10-26T08:52:02+02:00*
G04 #@! TF.ProjectId,Drumbox,4472756d-626f-4782-9e6b-696361645f70,rev?*
G04 #@! TF.SameCoordinates,Original*
G04 #@! TF.FileFunction,Legend,Bot*
G04 #@! TF.FilePolarity,Positive*
%FSLAX46Y46*%
G04 Gerber Fmt 4.6, Leading zero omitted, Abs format (unit mm)*
G04 Created by KiCad (PCBNEW (6.0.6)) date 2022-10-26 08:52:02*
%MOMM*%
%LPD*%
G01*
G04 APERTURE LIST*
G04 #@! TA.AperFunction,Profile*
%ADD10C,0.050000*%
G04 #@! TD*
%ADD11C,0.150000*%
%ADD12C,0.120000*%
%ADD13C,4.000000*%
%ADD14C,1.800000*%
%ADD15C,1.500000*%
%ADD16C,1.524000*%
%ADD17C,1.600000*%
%ADD18O,1.600000X1.600000*%
%ADD19C,3.200000*%
%ADD20R,1.600000X1.600000*%
%ADD21R,1.830000X1.930000*%
%ADD22C,2.130000*%
%ADD23R,1.500000X1.050000*%
%ADD24O,1.500000X1.050000*%
%ADD25R,1.930000X1.830000*%
%ADD26R,1.700000X1.700000*%
%ADD27O,1.700000X1.700000*%
G04 APERTURE END LIST*
D10*
X73500000Y-31000000D02*
X193500000Y-31000000D01*
X193500000Y-31000000D02*
X193500001Y-141000000D01*
X73500000Y-31000000D02*
X73500000Y-141000000D01*
X73500000Y-141000000D02*
X193500001Y-141000000D01*
D11*
X134309523Y-97682380D02*
X134309523Y-98396666D01*
X134357142Y-98539523D01*
X134452380Y-98634761D01*
X134595238Y-98682380D01*
X134690476Y-98682380D01*
X133309523Y-98682380D02*
X133880952Y-98682380D01*
X133595238Y-98682380D02*
X133595238Y-97682380D01*
X133690476Y-97825238D01*
X133785714Y-97920476D01*
X133880952Y-97968095D01*
X132404761Y-97682380D02*
X132880952Y-97682380D01*
X132928571Y-98158571D01*
X132880952Y-98110952D01*
X132785714Y-98063333D01*
X132547619Y-98063333D01*
X132452380Y-98110952D01*
X132404761Y-98158571D01*
X132357142Y-98253809D01*
X132357142Y-98491904D01*
X132404761Y-98587142D01*
X132452380Y-98634761D01*
X132547619Y-98682380D01*
X132785714Y-98682380D01*
X132880952Y-98634761D01*
X132928571Y-98587142D01*
X104309523Y-97682380D02*
X104309523Y-98396666D01*
X104357142Y-98539523D01*
X104452380Y-98634761D01*
X104595238Y-98682380D01*
X104690476Y-98682380D01*
X103309523Y-98682380D02*
X103880952Y-98682380D01*
X103595238Y-98682380D02*
X103595238Y-97682380D01*
X103690476Y-97825238D01*
X103785714Y-97920476D01*
X103880952Y-97968095D01*
X102357142Y-98682380D02*
X102928571Y-98682380D01*
X102642857Y-98682380D02*
X102642857Y-97682380D01*
X102738095Y-97825238D01*
X102833333Y-97920476D01*
X102928571Y-97968095D01*
X133833333Y-60452380D02*
X133833333Y-61166666D01*
X133880952Y-61309523D01*
X133976190Y-61404761D01*
X134119047Y-61452380D01*
X134214285Y-61452380D01*
X132928571Y-60785714D02*
X132928571Y-61452380D01*
X133166666Y-60404761D02*
X133404761Y-61119047D01*
X132785714Y-61119047D01*
X103833333Y-47182380D02*
X103833333Y-47896666D01*
X103880952Y-48039523D01*
X103976190Y-48134761D01*
X104119047Y-48182380D01*
X104214285Y-48182380D01*
X102880952Y-47182380D02*
X103357142Y-47182380D01*
X103404761Y-47658571D01*
X103357142Y-47610952D01*
X103261904Y-47563333D01*
X103023809Y-47563333D01*
X102928571Y-47610952D01*
X102880952Y-47658571D01*
X102833333Y-47753809D01*
X102833333Y-47991904D01*
X102880952Y-48087142D01*
X102928571Y-48134761D01*
X103023809Y-48182380D01*
X103261904Y-48182380D01*
X103357142Y-48134761D01*
X103404761Y-48087142D01*
X104309523Y-134802380D02*
X104309523Y-135516666D01*
X104357142Y-135659523D01*
X104452380Y-135754761D01*
X104595238Y-135802380D01*
X104690476Y-135802380D01*
X103309523Y-135802380D02*
X103880952Y-135802380D01*
X103595238Y-135802380D02*
X103595238Y-134802380D01*
X103690476Y-134945238D01*
X103785714Y-135040476D01*
X103880952Y-135088095D01*
X102976190Y-134802380D02*
X102357142Y-134802380D01*
X102690476Y-135183333D01*
X102547619Y-135183333D01*
X102452380Y-135230952D01*
X102404761Y-135278571D01*
X102357142Y-135373809D01*
X102357142Y-135611904D01*
X102404761Y-135707142D01*
X102452380Y-135754761D01*
X102547619Y-135802380D01*
X102833333Y-135802380D01*
X102928571Y-135754761D01*
X102976190Y-135707142D01*
D12*
X132170000Y-102270000D02*
X132170000Y-109950000D01*
X134830000Y-102270000D02*
X132170000Y-102270000D01*
X134830000Y-102270000D02*
X134830000Y-109950000D01*
X133500000Y-99670000D02*
X132170000Y-99670000D01*
X132170000Y-99670000D02*
X132170000Y-101000000D01*
X134830000Y-109950000D02*
X132170000Y-109950000D01*
X102170000Y-99670000D02*
X102170000Y-101000000D01*
X104830000Y-109950000D02*
X102170000Y-109950000D01*
X104830000Y-102270000D02*
X102170000Y-102270000D01*
X102170000Y-102270000D02*
X102170000Y-109950000D01*
X103500000Y-99670000D02*
X102170000Y-99670000D01*
X104830000Y-102270000D02*
X104830000Y-109950000D01*
X134830000Y-59450000D02*
X132170000Y-59450000D01*
X134830000Y-51770000D02*
X132170000Y-51770000D01*
X132170000Y-49170000D02*
X132170000Y-50500000D01*
X132170000Y-51770000D02*
X132170000Y-59450000D01*
X134830000Y-51770000D02*
X134830000Y-59450000D01*
X133500000Y-49170000D02*
X132170000Y-49170000D01*
X104830000Y-51770000D02*
X104830000Y-59450000D01*
X104830000Y-59450000D02*
X102170000Y-59450000D01*
X103500000Y-49170000D02*
X102170000Y-49170000D01*
X102170000Y-51770000D02*
X102170000Y-59450000D01*
X102170000Y-49170000D02*
X102170000Y-50500000D01*
X104830000Y-51770000D02*
X102170000Y-51770000D01*
X104830000Y-131310000D02*
X104830000Y-126170000D01*
X104830000Y-133910000D02*
X104830000Y-132580000D01*
X102170000Y-131310000D02*
X102170000Y-126170000D01*
X102170000Y-126170000D02*
X104830000Y-126170000D01*
X103500000Y-133910000D02*
X104830000Y-133910000D01*
X102170000Y-131310000D02*
X104830000Y-131310000D01*
%LPC*%
D13*
X84100000Y-38550000D03*
X92900000Y-38550000D03*
D14*
X91000000Y-45550000D03*
X88500000Y-45550000D03*
X86000000Y-45550000D03*
D15*
X145960000Y-95000000D03*
D16*
X145960000Y-97540000D03*
X145960000Y-92460000D03*
X151040000Y-97540000D03*
X151040000Y-92460000D03*
X148500000Y-97700000D03*
X148500000Y-92300000D03*
D17*
X140000000Y-122750000D03*
D18*
X150160000Y-122750000D03*
D17*
X110000000Y-120080000D03*
D18*
X110000000Y-109920000D03*
D17*
X187580000Y-128000000D03*
D18*
X177420000Y-128000000D03*
D13*
X92900000Y-59050000D03*
X84100000Y-59050000D03*
D14*
X91000000Y-66050000D03*
X88500000Y-66050000D03*
X86000000Y-66050000D03*
D19*
X84500000Y-135000000D03*
D17*
X93500000Y-89500000D03*
D18*
X83340000Y-89500000D03*
D17*
X123500000Y-100500000D03*
D18*
X113340000Y-100500000D03*
D17*
X153100000Y-138200000D03*
X153100000Y-133200000D03*
X144500000Y-128900000D03*
X149500000Y-128900000D03*
X153500000Y-100500000D03*
D18*
X143340000Y-100500000D03*
D17*
X116820000Y-122800000D03*
D18*
X126980000Y-122800000D03*
D20*
X136500000Y-115500000D03*
D17*
X138500000Y-115500000D03*
X116840000Y-134130000D03*
D18*
X127000000Y-134130000D03*
D21*
X176020000Y-135000000D03*
D22*
X187420000Y-135000000D03*
X179120000Y-135000000D03*
D13*
X144100000Y-113050000D03*
X152900000Y-113050000D03*
D14*
X151000000Y-120050000D03*
X148500000Y-120050000D03*
X146000000Y-120050000D03*
D23*
X141640000Y-93730000D03*
D24*
X141640000Y-95000000D03*
X141640000Y-96270000D03*
D13*
X144100000Y-38550000D03*
X152900000Y-38550000D03*
D14*
X151000000Y-45550000D03*
X148500000Y-45550000D03*
X146000000Y-45550000D03*
D23*
X81640000Y-93730000D03*
D24*
X81640000Y-95000000D03*
X81640000Y-96270000D03*
D13*
X152900000Y-59050000D03*
X144100000Y-59050000D03*
D14*
X151000000Y-66050000D03*
X148500000Y-66050000D03*
X146000000Y-66050000D03*
D13*
X122900000Y-38550000D03*
X114100000Y-38550000D03*
D14*
X121000000Y-45550000D03*
X118500000Y-45550000D03*
X116000000Y-45550000D03*
D25*
X118500000Y-73100000D03*
D22*
X118500000Y-84500000D03*
X118500000Y-76200000D03*
D20*
X129700000Y-121875000D03*
D18*
X129700000Y-124415000D03*
X129700000Y-126955000D03*
X129700000Y-129495000D03*
X129700000Y-132035000D03*
X129700000Y-134575000D03*
X129700000Y-137115000D03*
X137320000Y-137115000D03*
X137320000Y-134575000D03*
X137320000Y-132035000D03*
X137320000Y-129495000D03*
X137320000Y-126955000D03*
X137320000Y-124415000D03*
X137320000Y-121875000D03*
D17*
X123500000Y-89500000D03*
D18*
X113340000Y-89500000D03*
D17*
X126980000Y-125900000D03*
D18*
X116820000Y-125900000D03*
D20*
X128544887Y-115500000D03*
D17*
X130544887Y-115500000D03*
X114000000Y-138200000D03*
X114000000Y-133200000D03*
X81500000Y-73000000D03*
X81500000Y-78000000D03*
D15*
X178500000Y-92460000D03*
D16*
X175960000Y-92460000D03*
X181040000Y-92460000D03*
X175960000Y-97540000D03*
X181040000Y-97540000D03*
X175800000Y-95000000D03*
X181200000Y-95000000D03*
D17*
X150180000Y-134100000D03*
D18*
X140020000Y-134100000D03*
D17*
X185500000Y-73000000D03*
X185500000Y-78000000D03*
X111500000Y-73000000D03*
X111500000Y-78000000D03*
X114300000Y-124400000D03*
X109300000Y-124400000D03*
D15*
X115960000Y-95000000D03*
D16*
X115960000Y-97540000D03*
X115960000Y-92460000D03*
X121040000Y-97540000D03*
X121040000Y-92460000D03*
X118500000Y-97700000D03*
X118500000Y-92300000D03*
D13*
X182900000Y-59050000D03*
X174100000Y-59050000D03*
D14*
X181000000Y-66050000D03*
X178500000Y-66050000D03*
X176000000Y-66050000D03*
D17*
X93500000Y-100500000D03*
D18*
X83340000Y-100500000D03*
D17*
X188000000Y-120000000D03*
D18*
X188000000Y-109840000D03*
D25*
X148500000Y-73100000D03*
D22*
X148500000Y-84500000D03*
X148500000Y-76200000D03*
D13*
X122900000Y-113050000D03*
X114100000Y-113050000D03*
D14*
X121000000Y-120050000D03*
X118500000Y-120050000D03*
X116000000Y-120050000D03*
D17*
X140020000Y-137200000D03*
D18*
X150180000Y-137200000D03*
D25*
X178500000Y-73100000D03*
D22*
X178500000Y-84500000D03*
X178500000Y-76200000D03*
D17*
X135000000Y-96080000D03*
D18*
X135000000Y-85920000D03*
D15*
X88500000Y-97540000D03*
D16*
X91040000Y-97540000D03*
X85960000Y-97540000D03*
X91040000Y-92460000D03*
X85960000Y-92460000D03*
X91200000Y-95000000D03*
X85800000Y-95000000D03*
D17*
X127000000Y-137200000D03*
D18*
X116840000Y-137200000D03*
D23*
X111640000Y-93730000D03*
D24*
X111640000Y-95000000D03*
X111640000Y-96270000D03*
D17*
X131500000Y-85920000D03*
D18*
X131500000Y-96080000D03*
D17*
X150160000Y-125800000D03*
D18*
X140000000Y-125800000D03*
D13*
X122900000Y-59050000D03*
X114100000Y-59050000D03*
D14*
X121000000Y-66050000D03*
X118500000Y-66050000D03*
X116000000Y-66050000D03*
D17*
X183500000Y-100500000D03*
D18*
X173340000Y-100500000D03*
D17*
X155420000Y-73000000D03*
X155420000Y-78000000D03*
X183500000Y-89500000D03*
D18*
X173340000Y-89500000D03*
D17*
X157000000Y-120080000D03*
D18*
X157000000Y-109920000D03*
D23*
X171500000Y-94000000D03*
D24*
X171500000Y-95270000D03*
X171500000Y-96540000D03*
D13*
X182900000Y-38550000D03*
X174100000Y-38550000D03*
D14*
X181000000Y-45550000D03*
X178500000Y-45550000D03*
X176000000Y-45550000D03*
D13*
X92900000Y-113050000D03*
X84100000Y-113050000D03*
D14*
X91000000Y-120050000D03*
X88500000Y-120050000D03*
X86000000Y-120050000D03*
D13*
X174100000Y-113050000D03*
X182900000Y-113050000D03*
D14*
X181000000Y-120050000D03*
X178500000Y-120050000D03*
X176000000Y-120050000D03*
D19*
X133500000Y-44500000D03*
D17*
X153580000Y-89500000D03*
D18*
X143420000Y-89500000D03*
D25*
X88500000Y-73100000D03*
D22*
X88500000Y-84500000D03*
X88500000Y-76200000D03*
D17*
X97000000Y-120080000D03*
D18*
X97000000Y-109920000D03*
D26*
X133500000Y-101000000D03*
D27*
X133500000Y-103540000D03*
X133500000Y-106080000D03*
X133500000Y-108620000D03*
D26*
X103500000Y-101000000D03*
D27*
X103500000Y-103540000D03*
X103500000Y-106080000D03*
X103500000Y-108620000D03*
D26*
X133500000Y-50500000D03*
D27*
X133500000Y-53040000D03*
X133500000Y-55580000D03*
X133500000Y-58120000D03*
D26*
X103500000Y-50500000D03*
D27*
X103500000Y-53040000D03*
X103500000Y-55580000D03*
X103500000Y-58120000D03*
D26*
X103500000Y-132580000D03*
D27*
X103500000Y-130040000D03*
X103500000Y-127500000D03*
M02*
