G04 #@! TF.GenerationSoftware,KiCad,Pcbnew,(6.0.0)*
G04 #@! TF.CreationDate,2022-03-25T16:36:21+01:00*
G04 #@! TF.ProjectId,Drumbox,4472756d-626f-4782-9e6b-696361645f70,rev?*
G04 #@! TF.SameCoordinates,Original*
G04 #@! TF.FileFunction,Legend,Bot*
G04 #@! TF.FilePolarity,Positive*
%FSLAX46Y46*%
G04 Gerber Fmt 4.6, Leading zero omitted, Abs format (unit mm)*
G04 Created by KiCad (PCBNEW (6.0.0)) date 2022-03-25 16:36:21*
%MOMM*%
%LPD*%
G01*
G04 APERTURE LIST*
%ADD10C,0.150000*%
%ADD11C,0.100000*%
%ADD12O,6.700000X4.200000*%
G04 APERTURE END LIST*
D10*
X76247619Y-94119047D02*
X75533333Y-94119047D01*
X75390476Y-94166666D01*
X75295238Y-94261904D01*
X75247619Y-94404761D01*
X75247619Y-94500000D01*
X75247619Y-93166666D02*
X75247619Y-93642857D01*
X76247619Y-93642857D01*
X75342857Y-92261904D02*
X75295238Y-92309523D01*
X75247619Y-92452380D01*
X75247619Y-92547619D01*
X75295238Y-92690476D01*
X75390476Y-92785714D01*
X75485714Y-92833333D01*
X75676190Y-92880952D01*
X75819047Y-92880952D01*
X76009523Y-92833333D01*
X76104761Y-92785714D01*
X76200000Y-92690476D01*
X76247619Y-92547619D01*
X76247619Y-92452380D01*
X76200000Y-92309523D01*
X76152380Y-92261904D01*
X76247619Y-91547619D02*
X75533333Y-91547619D01*
X75390476Y-91595238D01*
X75295238Y-91690476D01*
X75247619Y-91833333D01*
X75247619Y-91928571D01*
X75247619Y-90595238D02*
X75247619Y-91071428D01*
X76247619Y-91071428D01*
X75342857Y-89690476D02*
X75295238Y-89738095D01*
X75247619Y-89880952D01*
X75247619Y-89976190D01*
X75295238Y-90119047D01*
X75390476Y-90214285D01*
X75485714Y-90261904D01*
X75676190Y-90309523D01*
X75819047Y-90309523D01*
X76009523Y-90261904D01*
X76104761Y-90214285D01*
X76200000Y-90119047D01*
X76247619Y-89976190D01*
X76247619Y-89880952D01*
X76200000Y-89738095D01*
X76152380Y-89690476D01*
X76247619Y-88976190D02*
X75533333Y-88976190D01*
X75390476Y-89023809D01*
X75295238Y-89119047D01*
X75247619Y-89261904D01*
X75247619Y-89357142D01*
X75247619Y-88023809D02*
X75247619Y-88500000D01*
X76247619Y-88500000D01*
X75342857Y-87119047D02*
X75295238Y-87166666D01*
X75247619Y-87309523D01*
X75247619Y-87404761D01*
X75295238Y-87547619D01*
X75390476Y-87642857D01*
X75485714Y-87690476D01*
X75676190Y-87738095D01*
X75819047Y-87738095D01*
X76009523Y-87690476D01*
X76104761Y-87642857D01*
X76200000Y-87547619D01*
X76247619Y-87404761D01*
X76247619Y-87309523D01*
X76200000Y-87166666D01*
X76152380Y-87119047D01*
X76247619Y-86404761D02*
X75533333Y-86404761D01*
X75390476Y-86452380D01*
X75295238Y-86547619D01*
X75247619Y-86690476D01*
X75247619Y-86785714D01*
X75247619Y-85452380D02*
X75247619Y-85928571D01*
X76247619Y-85928571D01*
X75342857Y-84547619D02*
X75295238Y-84595238D01*
X75247619Y-84738095D01*
X75247619Y-84833333D01*
X75295238Y-84976190D01*
X75390476Y-85071428D01*
X75485714Y-85119047D01*
X75676190Y-85166666D01*
X75819047Y-85166666D01*
X76009523Y-85119047D01*
X76104761Y-85071428D01*
X76200000Y-84976190D01*
X76247619Y-84833333D01*
X76247619Y-84738095D01*
X76200000Y-84595238D01*
X76152380Y-84547619D01*
%LPC*%
D11*
X91600000Y-101500000D02*
X86600000Y-101500000D01*
X86600000Y-101500000D02*
X86600000Y-96500000D01*
X86600000Y-96500000D02*
X91600000Y-96500000D01*
X91600000Y-96500000D02*
X91600000Y-101500000D01*
G36*
X91600000Y-101500000D02*
G01*
X86600000Y-101500000D01*
X86600000Y-96500000D01*
X91600000Y-96500000D01*
X91600000Y-101500000D01*
G37*
X91600000Y-101500000D02*
X86600000Y-101500000D01*
X86600000Y-96500000D01*
X91600000Y-96500000D01*
X91600000Y-101500000D01*
X121600000Y-101500000D02*
X116600000Y-101500000D01*
X116600000Y-101500000D02*
X116600000Y-96500000D01*
X116600000Y-96500000D02*
X121600000Y-96500000D01*
X121600000Y-96500000D02*
X121600000Y-101500000D01*
G36*
X121600000Y-101500000D02*
G01*
X116600000Y-101500000D01*
X116600000Y-96500000D01*
X121600000Y-96500000D01*
X121600000Y-101500000D01*
G37*
X121600000Y-101500000D02*
X116600000Y-101500000D01*
X116600000Y-96500000D01*
X121600000Y-96500000D01*
X121600000Y-101500000D01*
X151600000Y-101500000D02*
X146600000Y-101500000D01*
X146600000Y-101500000D02*
X146600000Y-96500000D01*
X146600000Y-96500000D02*
X151600000Y-96500000D01*
X151600000Y-96500000D02*
X151600000Y-101500000D01*
G36*
X151600000Y-101500000D02*
G01*
X146600000Y-101500000D01*
X146600000Y-96500000D01*
X151600000Y-96500000D01*
X151600000Y-101500000D01*
G37*
X151600000Y-101500000D02*
X146600000Y-101500000D01*
X146600000Y-96500000D01*
X151600000Y-96500000D01*
X151600000Y-101500000D01*
X181600000Y-101500000D02*
X176600000Y-101500000D01*
X176600000Y-101500000D02*
X176600000Y-96500000D01*
X176600000Y-96500000D02*
X181600000Y-96500000D01*
X181600000Y-96500000D02*
X181600000Y-101500000D01*
G36*
X181600000Y-101500000D02*
G01*
X176600000Y-101500000D01*
X176600000Y-96500000D01*
X181600000Y-96500000D01*
X181600000Y-101500000D01*
G37*
X181600000Y-101500000D02*
X176600000Y-101500000D01*
X176600000Y-96500000D01*
X181600000Y-96500000D01*
X181600000Y-101500000D01*
D12*
X86100000Y-157500000D03*
X182100000Y-30500000D03*
X86100000Y-30500000D03*
X182100000Y-157500000D03*
M02*
