M48
; DRILL file {KiCad (6.0.0)} date Fri Mar 25 16:36:25 2022
; FORMAT={-:-/ absolute / metric / decimal}
; #@! TF.CreationDate,2022-03-25T16:36:25+01:00
; #@! TF.GenerationSoftware,Kicad,Pcbnew,(6.0.0)
; #@! TF.FileFunction,Plated,1,2,PTH
FMAT,2
METRIC
; #@! TA.AperFunction,Plated,PTH,ComponentDrill
T1C3.000
; #@! TA.AperFunction,Plated,PTH,ViaDrill
T2C6.200
; #@! TA.AperFunction,Plated,PTH,ViaDrill
T3C6.800
%
G90
G05
T2
X89.092Y-87.489
X89.2Y-134.45
X119.089Y-87.493
X119.1Y-134.492
X149.098Y-134.498
X149.1Y-87.5
X179.093Y-134.492
X179.1Y-87.5
T3
X89.078Y-66.472
X89.085Y-45.998
X89.1Y-115.5
X119.095Y-66.499
X119.095Y-115.496
X119.099Y-45.991
X149.09Y-115.497
X149.093Y-45.999
X149.098Y-66.496
X179.085Y-115.499
X179.087Y-45.998
X179.099Y-66.498
T1
X84.85Y-30.5G85X87.35Y-30.5
G05
X84.85Y-157.5G85X87.35Y-157.5
G05
X180.85Y-30.5G85X183.35Y-30.5
G05
X180.85Y-157.5G85X183.35Y-157.5
G05
T0
M30
