G04 #@! TF.GenerationSoftware,KiCad,Pcbnew,(6.0.1)*
G04 #@! TF.CreationDate,2022-02-10T17:32:22+01:00*
G04 #@! TF.ProjectId,Drumbox,4472756d-626f-4782-9e6b-696361645f70,rev?*
G04 #@! TF.SameCoordinates,Original*
G04 #@! TF.FileFunction,Soldermask,Bot*
G04 #@! TF.FilePolarity,Negative*
%FSLAX46Y46*%
G04 Gerber Fmt 4.6, Leading zero omitted, Abs format (unit mm)*
G04 Created by KiCad (PCBNEW (6.0.1)) date 2022-02-10 17:32:22*
%MOMM*%
%LPD*%
G01*
G04 APERTURE LIST*
%ADD10C,0.100000*%
%ADD11O,6.700000X4.200000*%
G04 APERTURE END LIST*
D10*
X102600000Y-100200000D02*
X97600000Y-100200000D01*
X97600000Y-100200000D02*
X97600000Y-95200000D01*
X97600000Y-95200000D02*
X102600000Y-95200000D01*
X102600000Y-95200000D02*
X102600000Y-100200000D01*
G36*
X102600000Y-100200000D02*
G01*
X97600000Y-100200000D01*
X97600000Y-95200000D01*
X102600000Y-95200000D01*
X102600000Y-100200000D01*
G37*
X102600000Y-100200000D02*
X97600000Y-100200000D01*
X97600000Y-95200000D01*
X102600000Y-95200000D01*
X102600000Y-100200000D01*
X132600000Y-100200000D02*
X127600000Y-100200000D01*
X127600000Y-100200000D02*
X127600000Y-95200000D01*
X127600000Y-95200000D02*
X132600000Y-95200000D01*
X132600000Y-95200000D02*
X132600000Y-100200000D01*
G36*
X132600000Y-100200000D02*
G01*
X127600000Y-100200000D01*
X127600000Y-95200000D01*
X132600000Y-95200000D01*
X132600000Y-100200000D01*
G37*
X132600000Y-100200000D02*
X127600000Y-100200000D01*
X127600000Y-95200000D01*
X132600000Y-95200000D01*
X132600000Y-100200000D01*
X162600000Y-100200000D02*
X157600000Y-100200000D01*
X157600000Y-100200000D02*
X157600000Y-95200000D01*
X157600000Y-95200000D02*
X162600000Y-95200000D01*
X162600000Y-95200000D02*
X162600000Y-100200000D01*
G36*
X162600000Y-100200000D02*
G01*
X157600000Y-100200000D01*
X157600000Y-95200000D01*
X162600000Y-95200000D01*
X162600000Y-100200000D01*
G37*
X162600000Y-100200000D02*
X157600000Y-100200000D01*
X157600000Y-95200000D01*
X162600000Y-95200000D01*
X162600000Y-100200000D01*
X192600000Y-100200000D02*
X187600000Y-100200000D01*
X187600000Y-100200000D02*
X187600000Y-95200000D01*
X187600000Y-95200000D02*
X192600000Y-95200000D01*
X192600000Y-95200000D02*
X192600000Y-100200000D01*
G36*
X192600000Y-100200000D02*
G01*
X187600000Y-100200000D01*
X187600000Y-95200000D01*
X192600000Y-95200000D01*
X192600000Y-100200000D01*
G37*
X192600000Y-100200000D02*
X187600000Y-100200000D01*
X187600000Y-95200000D01*
X192600000Y-95200000D01*
X192600000Y-100200000D01*
D11*
X97100000Y-156200000D03*
X193100000Y-29200000D03*
X97100000Y-29200000D03*
X193100000Y-156200000D03*
M02*
