%FSLAX45Y45*%
G04 Gerber Fmt 4.5, Leading zero omitted, Abs format (unit mm)*
G04 Created by KiCad (PCBNEW (6.0.0)) date 2022-01-31 10:20:28*
%MOMM*%
%LPD*%
G01*
G04 APERTURE LIST*
%TA.AperFunction,Profile*%
%ADD10C,0.050000*%
%TD*%
%ADD11C,0.200000*%
G04 APERTURE END LIST*
D10*
X7300000Y-3100000D02*
X11300000Y-3100000D01*
X11300000Y-3100000D02*
X11300000Y-14100000D01*
X7300000Y-3100000D02*
X7300000Y-14100000D01*
X7300000Y-14100000D02*
X11300000Y-14100000D01*
D11*
X7660000Y-3750000D02*
X7860000Y-3950000D01*
X7860000Y-3750000D02*
X7660000Y-3950000D01*
X7660000Y-5350000D02*
X7860000Y-5550000D01*
X7860000Y-5350000D02*
X7660000Y-5550000D01*
X7660000Y-6950000D02*
X7860000Y-7150000D01*
X7860000Y-6950000D02*
X7660000Y-7150000D01*
X8540000Y-3750000D02*
X8740000Y-3950000D01*
X8740000Y-3750000D02*
X8540000Y-3950000D01*
X8540000Y-5350000D02*
X8740000Y-5550000D01*
X8740000Y-5350000D02*
X8540000Y-5550000D01*
X8540000Y-6950000D02*
X8740000Y-7150000D01*
X8740000Y-6950000D02*
X8540000Y-7150000D01*
X9860000Y-3750000D02*
X10060000Y-3950000D01*
X10060000Y-3750000D02*
X9860000Y-3950000D01*
X9860000Y-5350000D02*
X10060000Y-5550000D01*
X10060000Y-5350000D02*
X9860000Y-5550000D01*
X9860000Y-6950000D02*
X10060000Y-7150000D01*
X10060000Y-6950000D02*
X9860000Y-7150000D01*
X10740000Y-3750000D02*
X10940000Y-3950000D01*
X10940000Y-3750000D02*
X10740000Y-3950000D01*
X10740000Y-5350000D02*
X10940000Y-5550000D01*
X10940000Y-5350000D02*
X10740000Y-5550000D01*
X10740000Y-6950000D02*
X10940000Y-7150000D01*
X10940000Y-6950000D02*
X10740000Y-7150000D01*
X7555119Y-14412976D02*
X7555119Y-14212976D01*
X7602738Y-14212976D01*
X7631309Y-14222500D01*
X7650357Y-14241548D01*
X7659881Y-14260595D01*
X7669405Y-14298690D01*
X7669405Y-14327262D01*
X7659881Y-14365357D01*
X7650357Y-14384405D01*
X7631309Y-14403452D01*
X7602738Y-14412976D01*
X7555119Y-14412976D01*
X7755119Y-14412976D02*
X7755119Y-14279643D01*
X7755119Y-14317738D02*
X7764643Y-14298690D01*
X7774167Y-14289167D01*
X7793214Y-14279643D01*
X7812262Y-14279643D01*
X7878928Y-14412976D02*
X7878928Y-14279643D01*
X7878928Y-14212976D02*
X7869405Y-14222500D01*
X7878928Y-14232024D01*
X7888452Y-14222500D01*
X7878928Y-14212976D01*
X7878928Y-14232024D01*
X8002738Y-14412976D02*
X7983690Y-14403452D01*
X7974167Y-14384405D01*
X7974167Y-14212976D01*
X8107500Y-14412976D02*
X8088452Y-14403452D01*
X8078928Y-14384405D01*
X8078928Y-14212976D01*
X8336071Y-14412976D02*
X8336071Y-14212976D01*
X8402738Y-14355833D01*
X8469405Y-14212976D01*
X8469405Y-14412976D01*
X8650357Y-14412976D02*
X8650357Y-14308214D01*
X8640833Y-14289167D01*
X8621786Y-14279643D01*
X8583690Y-14279643D01*
X8564643Y-14289167D01*
X8650357Y-14403452D02*
X8631310Y-14412976D01*
X8583690Y-14412976D01*
X8564643Y-14403452D01*
X8555119Y-14384405D01*
X8555119Y-14365357D01*
X8564643Y-14346309D01*
X8583690Y-14336786D01*
X8631310Y-14336786D01*
X8650357Y-14327262D01*
X8745595Y-14279643D02*
X8745595Y-14479643D01*
X8745595Y-14289167D02*
X8764643Y-14279643D01*
X8802738Y-14279643D01*
X8821786Y-14289167D01*
X8831310Y-14298690D01*
X8840833Y-14317738D01*
X8840833Y-14374881D01*
X8831310Y-14393928D01*
X8821786Y-14403452D01*
X8802738Y-14412976D01*
X8764643Y-14412976D01*
X8745595Y-14403452D01*
X8926548Y-14393928D02*
X8936071Y-14403452D01*
X8926548Y-14412976D01*
X8917024Y-14403452D01*
X8926548Y-14393928D01*
X8926548Y-14412976D01*
X8926548Y-14289167D02*
X8936071Y-14298690D01*
X8926548Y-14308214D01*
X8917024Y-14298690D01*
X8926548Y-14289167D01*
X8926548Y-14308214D01*
X7097500Y-14642500D02*
X7297500Y-14842500D01*
X7297500Y-14642500D02*
X7097500Y-14842500D01*
X7545595Y-14652024D02*
X7555119Y-14642500D01*
X7574167Y-14632976D01*
X7621786Y-14632976D01*
X7640833Y-14642500D01*
X7650357Y-14652024D01*
X7659881Y-14671071D01*
X7659881Y-14690119D01*
X7650357Y-14718690D01*
X7536071Y-14832976D01*
X7659881Y-14832976D01*
X7745595Y-14813928D02*
X7755119Y-14823452D01*
X7745595Y-14832976D01*
X7736071Y-14823452D01*
X7745595Y-14813928D01*
X7745595Y-14832976D01*
X7878928Y-14632976D02*
X7897976Y-14632976D01*
X7917024Y-14642500D01*
X7926548Y-14652024D01*
X7936071Y-14671071D01*
X7945595Y-14709167D01*
X7945595Y-14756786D01*
X7936071Y-14794881D01*
X7926548Y-14813928D01*
X7917024Y-14823452D01*
X7897976Y-14832976D01*
X7878928Y-14832976D01*
X7859881Y-14823452D01*
X7850357Y-14813928D01*
X7840833Y-14794881D01*
X7831309Y-14756786D01*
X7831309Y-14709167D01*
X7840833Y-14671071D01*
X7850357Y-14652024D01*
X7859881Y-14642500D01*
X7878928Y-14632976D01*
X8069405Y-14632976D02*
X8088452Y-14632976D01*
X8107500Y-14642500D01*
X8117024Y-14652024D01*
X8126548Y-14671071D01*
X8136071Y-14709167D01*
X8136071Y-14756786D01*
X8126548Y-14794881D01*
X8117024Y-14813928D01*
X8107500Y-14823452D01*
X8088452Y-14832976D01*
X8069405Y-14832976D01*
X8050357Y-14823452D01*
X8040833Y-14813928D01*
X8031309Y-14794881D01*
X8021786Y-14756786D01*
X8021786Y-14709167D01*
X8031309Y-14671071D01*
X8040833Y-14652024D01*
X8050357Y-14642500D01*
X8069405Y-14632976D01*
X8259881Y-14632976D02*
X8278928Y-14632976D01*
X8297976Y-14642500D01*
X8307500Y-14652024D01*
X8317024Y-14671071D01*
X8326548Y-14709167D01*
X8326548Y-14756786D01*
X8317024Y-14794881D01*
X8307500Y-14813928D01*
X8297976Y-14823452D01*
X8278928Y-14832976D01*
X8259881Y-14832976D01*
X8240833Y-14823452D01*
X8231309Y-14813928D01*
X8221786Y-14794881D01*
X8212262Y-14756786D01*
X8212262Y-14709167D01*
X8221786Y-14671071D01*
X8231309Y-14652024D01*
X8240833Y-14642500D01*
X8259881Y-14632976D01*
X8412262Y-14832976D02*
X8412262Y-14699643D01*
X8412262Y-14718690D02*
X8421786Y-14709167D01*
X8440833Y-14699643D01*
X8469405Y-14699643D01*
X8488452Y-14709167D01*
X8497976Y-14728214D01*
X8497976Y-14832976D01*
X8497976Y-14728214D02*
X8507500Y-14709167D01*
X8526548Y-14699643D01*
X8555119Y-14699643D01*
X8574167Y-14709167D01*
X8583690Y-14728214D01*
X8583690Y-14832976D01*
X8678929Y-14832976D02*
X8678929Y-14699643D01*
X8678929Y-14718690D02*
X8688452Y-14709167D01*
X8707500Y-14699643D01*
X8736071Y-14699643D01*
X8755119Y-14709167D01*
X8764643Y-14728214D01*
X8764643Y-14832976D01*
X8764643Y-14728214D02*
X8774167Y-14709167D01*
X8793214Y-14699643D01*
X8821786Y-14699643D01*
X8840833Y-14709167D01*
X8850357Y-14728214D01*
X8850357Y-14832976D01*
X9240833Y-14623452D02*
X9069405Y-14880595D01*
X9497976Y-14632976D02*
X9517024Y-14632976D01*
X9536071Y-14642500D01*
X9545595Y-14652024D01*
X9555119Y-14671071D01*
X9564643Y-14709167D01*
X9564643Y-14756786D01*
X9555119Y-14794881D01*
X9545595Y-14813928D01*
X9536071Y-14823452D01*
X9517024Y-14832976D01*
X9497976Y-14832976D01*
X9478929Y-14823452D01*
X9469405Y-14813928D01*
X9459881Y-14794881D01*
X9450357Y-14756786D01*
X9450357Y-14709167D01*
X9459881Y-14671071D01*
X9469405Y-14652024D01*
X9478929Y-14642500D01*
X9497976Y-14632976D01*
X9650357Y-14813928D02*
X9659881Y-14823452D01*
X9650357Y-14832976D01*
X9640833Y-14823452D01*
X9650357Y-14813928D01*
X9650357Y-14832976D01*
X9783690Y-14632976D02*
X9802738Y-14632976D01*
X9821786Y-14642500D01*
X9831310Y-14652024D01*
X9840833Y-14671071D01*
X9850357Y-14709167D01*
X9850357Y-14756786D01*
X9840833Y-14794881D01*
X9831310Y-14813928D01*
X9821786Y-14823452D01*
X9802738Y-14832976D01*
X9783690Y-14832976D01*
X9764643Y-14823452D01*
X9755119Y-14813928D01*
X9745595Y-14794881D01*
X9736071Y-14756786D01*
X9736071Y-14709167D01*
X9745595Y-14671071D01*
X9755119Y-14652024D01*
X9764643Y-14642500D01*
X9783690Y-14632976D01*
X9917024Y-14632976D02*
X10050357Y-14632976D01*
X9964643Y-14832976D01*
X10155119Y-14718690D02*
X10136071Y-14709167D01*
X10126548Y-14699643D01*
X10117024Y-14680595D01*
X10117024Y-14671071D01*
X10126548Y-14652024D01*
X10136071Y-14642500D01*
X10155119Y-14632976D01*
X10193214Y-14632976D01*
X10212262Y-14642500D01*
X10221786Y-14652024D01*
X10231310Y-14671071D01*
X10231310Y-14680595D01*
X10221786Y-14699643D01*
X10212262Y-14709167D01*
X10193214Y-14718690D01*
X10155119Y-14718690D01*
X10136071Y-14728214D01*
X10126548Y-14737738D01*
X10117024Y-14756786D01*
X10117024Y-14794881D01*
X10126548Y-14813928D01*
X10136071Y-14823452D01*
X10155119Y-14832976D01*
X10193214Y-14832976D01*
X10212262Y-14823452D01*
X10221786Y-14813928D01*
X10231310Y-14794881D01*
X10231310Y-14756786D01*
X10221786Y-14737738D01*
X10212262Y-14728214D01*
X10193214Y-14718690D01*
X10297976Y-14632976D02*
X10431310Y-14632976D01*
X10345595Y-14832976D01*
X10497976Y-14632976D02*
X10497976Y-14671071D01*
X10574167Y-14632976D02*
X10574167Y-14671071D01*
X10869405Y-14909167D02*
X10859881Y-14899643D01*
X10840833Y-14871071D01*
X10831310Y-14852024D01*
X10821786Y-14823452D01*
X10812262Y-14775833D01*
X10812262Y-14737738D01*
X10821786Y-14690119D01*
X10831310Y-14661548D01*
X10840833Y-14642500D01*
X10859881Y-14613928D01*
X10869405Y-14604405D01*
X11050357Y-14832976D02*
X10936071Y-14832976D01*
X10993214Y-14832976D02*
X10993214Y-14632976D01*
X10974167Y-14661548D01*
X10955119Y-14680595D01*
X10936071Y-14690119D01*
X11126548Y-14652024D02*
X11136071Y-14642500D01*
X11155119Y-14632976D01*
X11202738Y-14632976D01*
X11221786Y-14642500D01*
X11231309Y-14652024D01*
X11240833Y-14671071D01*
X11240833Y-14690119D01*
X11231309Y-14718690D01*
X11117024Y-14832976D01*
X11240833Y-14832976D01*
X11478928Y-14832976D02*
X11478928Y-14632976D01*
X11564643Y-14832976D02*
X11564643Y-14728214D01*
X11555119Y-14709167D01*
X11536071Y-14699643D01*
X11507500Y-14699643D01*
X11488452Y-14709167D01*
X11478928Y-14718690D01*
X11688452Y-14832976D02*
X11669405Y-14823452D01*
X11659881Y-14813928D01*
X11650357Y-14794881D01*
X11650357Y-14737738D01*
X11659881Y-14718690D01*
X11669405Y-14709167D01*
X11688452Y-14699643D01*
X11717024Y-14699643D01*
X11736071Y-14709167D01*
X11745595Y-14718690D01*
X11755119Y-14737738D01*
X11755119Y-14794881D01*
X11745595Y-14813928D01*
X11736071Y-14823452D01*
X11717024Y-14832976D01*
X11688452Y-14832976D01*
X11869405Y-14832976D02*
X11850357Y-14823452D01*
X11840833Y-14804405D01*
X11840833Y-14632976D01*
X12021786Y-14823452D02*
X12002738Y-14832976D01*
X11964643Y-14832976D01*
X11945595Y-14823452D01*
X11936071Y-14804405D01*
X11936071Y-14728214D01*
X11945595Y-14709167D01*
X11964643Y-14699643D01*
X12002738Y-14699643D01*
X12021786Y-14709167D01*
X12031309Y-14728214D01*
X12031309Y-14747262D01*
X11936071Y-14766309D01*
X12107500Y-14823452D02*
X12126548Y-14832976D01*
X12164643Y-14832976D01*
X12183690Y-14823452D01*
X12193214Y-14804405D01*
X12193214Y-14794881D01*
X12183690Y-14775833D01*
X12164643Y-14766309D01*
X12136071Y-14766309D01*
X12117024Y-14756786D01*
X12107500Y-14737738D01*
X12107500Y-14728214D01*
X12117024Y-14709167D01*
X12136071Y-14699643D01*
X12164643Y-14699643D01*
X12183690Y-14709167D01*
X12259881Y-14909167D02*
X12269405Y-14899643D01*
X12288452Y-14871071D01*
X12297976Y-14852024D01*
X12307500Y-14823452D01*
X12317024Y-14775833D01*
X12317024Y-14737738D01*
X12307500Y-14690119D01*
X12297976Y-14661548D01*
X12288452Y-14642500D01*
X12269405Y-14613928D01*
X12259881Y-14604405D01*
X12621786Y-14909167D02*
X12612262Y-14899643D01*
X12593214Y-14871071D01*
X12583690Y-14852024D01*
X12574167Y-14823452D01*
X12564643Y-14775833D01*
X12564643Y-14737738D01*
X12574167Y-14690119D01*
X12583690Y-14661548D01*
X12593214Y-14642500D01*
X12612262Y-14613928D01*
X12621786Y-14604405D01*
X12697976Y-14699643D02*
X12697976Y-14832976D01*
X12697976Y-14718690D02*
X12707500Y-14709167D01*
X12726548Y-14699643D01*
X12755119Y-14699643D01*
X12774167Y-14709167D01*
X12783690Y-14728214D01*
X12783690Y-14832976D01*
X12907500Y-14832976D02*
X12888452Y-14823452D01*
X12878928Y-14813928D01*
X12869405Y-14794881D01*
X12869405Y-14737738D01*
X12878928Y-14718690D01*
X12888452Y-14709167D01*
X12907500Y-14699643D01*
X12936071Y-14699643D01*
X12955119Y-14709167D01*
X12964643Y-14718690D01*
X12974167Y-14737738D01*
X12974167Y-14794881D01*
X12964643Y-14813928D01*
X12955119Y-14823452D01*
X12936071Y-14832976D01*
X12907500Y-14832976D01*
X13031309Y-14699643D02*
X13107500Y-14699643D01*
X13059881Y-14632976D02*
X13059881Y-14804405D01*
X13069405Y-14823452D01*
X13088452Y-14832976D01*
X13107500Y-14832976D01*
X13326548Y-14699643D02*
X13326548Y-14899643D01*
X13326548Y-14709167D02*
X13345595Y-14699643D01*
X13383690Y-14699643D01*
X13402738Y-14709167D01*
X13412262Y-14718690D01*
X13421786Y-14737738D01*
X13421786Y-14794881D01*
X13412262Y-14813928D01*
X13402738Y-14823452D01*
X13383690Y-14832976D01*
X13345595Y-14832976D01*
X13326548Y-14823452D01*
X13536071Y-14832976D02*
X13517024Y-14823452D01*
X13507500Y-14804405D01*
X13507500Y-14632976D01*
X13697976Y-14832976D02*
X13697976Y-14728214D01*
X13688452Y-14709167D01*
X13669405Y-14699643D01*
X13631309Y-14699643D01*
X13612262Y-14709167D01*
X13697976Y-14823452D02*
X13678928Y-14832976D01*
X13631309Y-14832976D01*
X13612262Y-14823452D01*
X13602738Y-14804405D01*
X13602738Y-14785357D01*
X13612262Y-14766309D01*
X13631309Y-14756786D01*
X13678928Y-14756786D01*
X13697976Y-14747262D01*
X13764643Y-14699643D02*
X13840833Y-14699643D01*
X13793214Y-14632976D02*
X13793214Y-14804405D01*
X13802738Y-14823452D01*
X13821786Y-14832976D01*
X13840833Y-14832976D01*
X13983690Y-14823452D02*
X13964643Y-14832976D01*
X13926548Y-14832976D01*
X13907500Y-14823452D01*
X13897976Y-14804405D01*
X13897976Y-14728214D01*
X13907500Y-14709167D01*
X13926548Y-14699643D01*
X13964643Y-14699643D01*
X13983690Y-14709167D01*
X13993214Y-14728214D01*
X13993214Y-14747262D01*
X13897976Y-14766309D01*
X14164643Y-14832976D02*
X14164643Y-14632976D01*
X14164643Y-14823452D02*
X14145595Y-14832976D01*
X14107500Y-14832976D01*
X14088452Y-14823452D01*
X14078928Y-14813928D01*
X14069405Y-14794881D01*
X14069405Y-14737738D01*
X14078928Y-14718690D01*
X14088452Y-14709167D01*
X14107500Y-14699643D01*
X14145595Y-14699643D01*
X14164643Y-14709167D01*
X14240833Y-14909167D02*
X14250357Y-14899643D01*
X14269405Y-14871071D01*
X14278928Y-14852024D01*
X14288452Y-14823452D01*
X14297976Y-14775833D01*
X14297976Y-14737738D01*
X14288452Y-14690119D01*
X14278928Y-14661548D01*
X14269405Y-14642500D01*
X14250357Y-14613928D01*
X14240833Y-14604405D01*
M02*
