G04 #@! TF.GenerationSoftware,KiCad,Pcbnew,(5.1.9)-1*
G04 #@! TF.CreationDate,2021-10-23T20:01:37+01:00*
G04 #@! TF.ProjectId,Snare+Hihat,536e6172-652b-4486-9968-61742e6b6963,rev?*
G04 #@! TF.SameCoordinates,Original*
G04 #@! TF.FileFunction,Legend,Top*
G04 #@! TF.FilePolarity,Positive*
%FSLAX46Y46*%
G04 Gerber Fmt 4.6, Leading zero omitted, Abs format (unit mm)*
G04 Created by KiCad (PCBNEW (5.1.9)-1) date 2021-10-23 20:01:37*
%MOMM*%
%LPD*%
G01*
G04 APERTURE LIST*
%ADD10C,0.150000*%
%ADD11C,0.120000*%
%ADD12O,3.700000X2.400000*%
%ADD13C,4.000000*%
%ADD14C,1.800000*%
%ADD15O,1.600000X1.600000*%
%ADD16C,1.600000*%
%ADD17R,1.050000X1.500000*%
%ADD18O,1.050000X1.500000*%
%ADD19C,2.130000*%
%ADD20R,1.930000X1.830000*%
%ADD21O,1.700000X1.700000*%
%ADD22R,1.700000X1.700000*%
%ADD23R,1.800000X1.800000*%
G04 APERTURE END LIST*
D10*
X73952380Y-139619047D02*
X74666666Y-139619047D01*
X74809523Y-139666666D01*
X74904761Y-139761904D01*
X74952380Y-139904761D01*
X74952380Y-140000000D01*
X74952380Y-138666666D02*
X74952380Y-139142857D01*
X73952380Y-139142857D01*
X74857142Y-137761904D02*
X74904761Y-137809523D01*
X74952380Y-137952380D01*
X74952380Y-138047619D01*
X74904761Y-138190476D01*
X74809523Y-138285714D01*
X74714285Y-138333333D01*
X74523809Y-138380952D01*
X74380952Y-138380952D01*
X74190476Y-138333333D01*
X74095238Y-138285714D01*
X74000000Y-138190476D01*
X73952380Y-138047619D01*
X73952380Y-137952380D01*
X74000000Y-137809523D01*
X74047619Y-137761904D01*
X73952380Y-137047619D02*
X74666666Y-137047619D01*
X74809523Y-137095238D01*
X74904761Y-137190476D01*
X74952380Y-137333333D01*
X74952380Y-137428571D01*
X74952380Y-136095238D02*
X74952380Y-136571428D01*
X73952380Y-136571428D01*
X74857142Y-135190476D02*
X74904761Y-135238095D01*
X74952380Y-135380952D01*
X74952380Y-135476190D01*
X74904761Y-135619047D01*
X74809523Y-135714285D01*
X74714285Y-135761904D01*
X74523809Y-135809523D01*
X74380952Y-135809523D01*
X74190476Y-135761904D01*
X74095238Y-135714285D01*
X74000000Y-135619047D01*
X73952380Y-135476190D01*
X73952380Y-135380952D01*
X74000000Y-135238095D01*
X74047619Y-135190476D01*
X73952380Y-134476190D02*
X74666666Y-134476190D01*
X74809523Y-134523809D01*
X74904761Y-134619047D01*
X74952380Y-134761904D01*
X74952380Y-134857142D01*
X74952380Y-133523809D02*
X74952380Y-134000000D01*
X73952380Y-134000000D01*
X74857142Y-132619047D02*
X74904761Y-132666666D01*
X74952380Y-132809523D01*
X74952380Y-132904761D01*
X74904761Y-133047619D01*
X74809523Y-133142857D01*
X74714285Y-133190476D01*
X74523809Y-133238095D01*
X74380952Y-133238095D01*
X74190476Y-133190476D01*
X74095238Y-133142857D01*
X74000000Y-133047619D01*
X73952380Y-132904761D01*
X73952380Y-132809523D01*
X74000000Y-132666666D01*
X74047619Y-132619047D01*
X73952380Y-131904761D02*
X74666666Y-131904761D01*
X74809523Y-131952380D01*
X74904761Y-132047619D01*
X74952380Y-132190476D01*
X74952380Y-132285714D01*
X74952380Y-130952380D02*
X74952380Y-131428571D01*
X73952380Y-131428571D01*
X74857142Y-130047619D02*
X74904761Y-130095238D01*
X74952380Y-130238095D01*
X74952380Y-130333333D01*
X74904761Y-130476190D01*
X74809523Y-130571428D01*
X74714285Y-130619047D01*
X74523809Y-130666666D01*
X74380952Y-130666666D01*
X74190476Y-130619047D01*
X74095238Y-130571428D01*
X74000000Y-130476190D01*
X73952380Y-130333333D01*
X73952380Y-130238095D01*
X74000000Y-130095238D01*
X74047619Y-130047619D01*
D11*
X82000000Y-93000000D02*
X79250000Y-91200000D01*
X84750000Y-91200000D02*
X82000000Y-93000000D01*
X82000000Y-87000000D02*
X79250000Y-88800000D01*
X82000000Y-87000000D02*
X84750000Y-88800000D01*
X79250000Y-91200000D02*
X79250000Y-88800000D01*
X84750000Y-91200000D02*
X84750000Y-88800000D01*
X88350000Y-96600000D02*
X85350000Y-96600000D01*
X88350000Y-83400000D02*
X88350000Y-96600000D01*
X88350000Y-83400000D02*
X85350000Y-83400000D01*
X85350000Y-96600000D02*
X75650000Y-96600000D01*
X75650000Y-83400000D02*
X85350000Y-83400000D01*
X75650000Y-90000000D02*
X75650000Y-83400000D01*
X75650000Y-96400000D02*
X75650000Y-96600000D01*
X75650000Y-96000000D02*
X75650000Y-96400000D01*
X75650000Y-90000000D02*
X75650000Y-96000000D01*
X85000000Y-90000000D02*
G75*
G03*
X85000000Y-90000000I-3000000J0D01*
G01*
X104000000Y-93000000D02*
X101250000Y-91200000D01*
X106750000Y-91200000D02*
X104000000Y-93000000D01*
X104000000Y-87000000D02*
X101250000Y-88800000D01*
X104000000Y-87000000D02*
X106750000Y-88800000D01*
X101250000Y-91200000D02*
X101250000Y-88800000D01*
X106750000Y-91200000D02*
X106750000Y-88800000D01*
X110350000Y-96600000D02*
X107350000Y-96600000D01*
X110350000Y-83400000D02*
X110350000Y-96600000D01*
X110350000Y-83400000D02*
X107350000Y-83400000D01*
X107350000Y-96600000D02*
X97650000Y-96600000D01*
X97650000Y-83400000D02*
X107350000Y-83400000D01*
X97650000Y-90000000D02*
X97650000Y-83400000D01*
X97650000Y-96400000D02*
X97650000Y-96600000D01*
X97650000Y-96000000D02*
X97650000Y-96400000D01*
X97650000Y-90000000D02*
X97650000Y-96000000D01*
X107000000Y-90000000D02*
G75*
G03*
X107000000Y-90000000I-3000000J0D01*
G01*
X77030000Y-64380000D02*
X86970000Y-64380000D01*
X85370000Y-76620000D02*
X86970000Y-76620000D01*
X82871000Y-76620000D02*
X83630000Y-76620000D01*
X80371000Y-76620000D02*
X81130000Y-76620000D01*
X77030000Y-76620000D02*
X78629000Y-76620000D01*
X86970000Y-68245000D02*
X86970000Y-64380000D01*
X86970000Y-76620000D02*
X86970000Y-72755000D01*
X77030000Y-68245000D02*
X77030000Y-64380000D01*
X77030000Y-76620000D02*
X77030000Y-72755000D01*
X99030000Y-64380000D02*
X108970000Y-64380000D01*
X107370000Y-76620000D02*
X108970000Y-76620000D01*
X104871000Y-76620000D02*
X105630000Y-76620000D01*
X102371000Y-76620000D02*
X103130000Y-76620000D01*
X99030000Y-76620000D02*
X100629000Y-76620000D01*
X108970000Y-68245000D02*
X108970000Y-64380000D01*
X108970000Y-76620000D02*
X108970000Y-72755000D01*
X99030000Y-68245000D02*
X99030000Y-64380000D01*
X99030000Y-76620000D02*
X99030000Y-72755000D01*
X77030000Y-48380000D02*
X86970000Y-48380000D01*
X85370000Y-60620000D02*
X86970000Y-60620000D01*
X82871000Y-60620000D02*
X83630000Y-60620000D01*
X80371000Y-60620000D02*
X81130000Y-60620000D01*
X77030000Y-60620000D02*
X78629000Y-60620000D01*
X86970000Y-52245000D02*
X86970000Y-48380000D01*
X86970000Y-60620000D02*
X86970000Y-56755000D01*
X77030000Y-52245000D02*
X77030000Y-48380000D01*
X77030000Y-60620000D02*
X77030000Y-56755000D01*
X99030000Y-48380000D02*
X108970000Y-48380000D01*
X107370000Y-60620000D02*
X108970000Y-60620000D01*
X104871000Y-60620000D02*
X105630000Y-60620000D01*
X102371000Y-60620000D02*
X103130000Y-60620000D01*
X99030000Y-60620000D02*
X100629000Y-60620000D01*
X108970000Y-52245000D02*
X108970000Y-48380000D01*
X108970000Y-60620000D02*
X108970000Y-56755000D01*
X99030000Y-52245000D02*
X99030000Y-48380000D01*
X99030000Y-60620000D02*
X99030000Y-56755000D01*
X89500000Y-108460000D02*
X89500000Y-107690000D01*
X89500000Y-100380000D02*
X89500000Y-101150000D01*
X90870000Y-107690000D02*
X90870000Y-101150000D01*
X88130000Y-107690000D02*
X90870000Y-107690000D01*
X88130000Y-101150000D02*
X88130000Y-107690000D01*
X90870000Y-101150000D02*
X88130000Y-101150000D01*
X86500000Y-108460000D02*
X86500000Y-107690000D01*
X86500000Y-100380000D02*
X86500000Y-101150000D01*
X87870000Y-107690000D02*
X87870000Y-101150000D01*
X85130000Y-107690000D02*
X87870000Y-107690000D01*
X85130000Y-101150000D02*
X85130000Y-107690000D01*
X87870000Y-101150000D02*
X85130000Y-101150000D01*
X99500000Y-108460000D02*
X99500000Y-107690000D01*
X99500000Y-100380000D02*
X99500000Y-101150000D01*
X100870000Y-107690000D02*
X100870000Y-101150000D01*
X98130000Y-107690000D02*
X100870000Y-107690000D01*
X98130000Y-101150000D02*
X98130000Y-107690000D01*
X100870000Y-101150000D02*
X98130000Y-101150000D01*
X96500000Y-108460000D02*
X96500000Y-107690000D01*
X96500000Y-100380000D02*
X96500000Y-101150000D01*
X97870000Y-107690000D02*
X97870000Y-101150000D01*
X95130000Y-107690000D02*
X97870000Y-107690000D01*
X95130000Y-101150000D02*
X95130000Y-107690000D01*
X97870000Y-101150000D02*
X95130000Y-101150000D01*
X80200000Y-102850000D02*
X83800000Y-102850000D01*
X83838478Y-102838478D02*
G75*
G03*
X82000000Y-98400000I-1838478J1838478D01*
G01*
X80161522Y-102838478D02*
G75*
G02*
X82000000Y-98400000I1838478J1838478D01*
G01*
X102200000Y-102850000D02*
X105800000Y-102850000D01*
X105838478Y-102838478D02*
G75*
G03*
X104000000Y-98400000I-1838478J1838478D01*
G01*
X102161522Y-102838478D02*
G75*
G02*
X104000000Y-98400000I1838478J1838478D01*
G01*
X80940000Y-125600000D02*
X81800000Y-125600000D01*
X80940000Y-125600000D02*
X80940000Y-126400000D01*
X83800000Y-133080000D02*
G75*
G03*
X83800000Y-133080000I-1800000J0D01*
G01*
X81650000Y-128580000D02*
X77500000Y-128580000D01*
X86500000Y-128580000D02*
X82350000Y-128580000D01*
X81500000Y-139080000D02*
X77500000Y-139080000D01*
X86500000Y-139080000D02*
X82500000Y-139080000D01*
X86500000Y-128580000D02*
X86500000Y-139080000D01*
X77500000Y-128580000D02*
X77500000Y-139080000D01*
X102940000Y-125600000D02*
X103800000Y-125600000D01*
X102940000Y-125600000D02*
X102940000Y-126400000D01*
X105800000Y-133080000D02*
G75*
G03*
X105800000Y-133080000I-1800000J0D01*
G01*
X103650000Y-128580000D02*
X99500000Y-128580000D01*
X108500000Y-128580000D02*
X104350000Y-128580000D01*
X103500000Y-139080000D02*
X99500000Y-139080000D01*
X108500000Y-139080000D02*
X104500000Y-139080000D01*
X108500000Y-128580000D02*
X108500000Y-139080000D01*
X99500000Y-128580000D02*
X99500000Y-139080000D01*
X80940000Y-111000000D02*
X81800000Y-111000000D01*
X80940000Y-111000000D02*
X80940000Y-111800000D01*
X83800000Y-118480000D02*
G75*
G03*
X83800000Y-118480000I-1800000J0D01*
G01*
X81650000Y-113980000D02*
X77500000Y-113980000D01*
X86500000Y-113980000D02*
X82350000Y-113980000D01*
X81500000Y-124480000D02*
X77500000Y-124480000D01*
X86500000Y-124480000D02*
X82500000Y-124480000D01*
X86500000Y-113980000D02*
X86500000Y-124480000D01*
X77500000Y-113980000D02*
X77500000Y-124480000D01*
X102940000Y-111000000D02*
X103800000Y-111000000D01*
X102940000Y-111000000D02*
X102940000Y-111800000D01*
X105800000Y-118480000D02*
G75*
G03*
X105800000Y-118480000I-1800000J0D01*
G01*
X103650000Y-113980000D02*
X99500000Y-113980000D01*
X108500000Y-113980000D02*
X104350000Y-113980000D01*
X103500000Y-124480000D02*
X99500000Y-124480000D01*
X108500000Y-124480000D02*
X104500000Y-124480000D01*
X108500000Y-113980000D02*
X108500000Y-124480000D01*
X99500000Y-113980000D02*
X99500000Y-124480000D01*
X77030000Y-32380000D02*
X86970000Y-32380000D01*
X85370000Y-44620000D02*
X86970000Y-44620000D01*
X82871000Y-44620000D02*
X83630000Y-44620000D01*
X80371000Y-44620000D02*
X81130000Y-44620000D01*
X77030000Y-44620000D02*
X78629000Y-44620000D01*
X86970000Y-36245000D02*
X86970000Y-32380000D01*
X86970000Y-44620000D02*
X86970000Y-40755000D01*
X77030000Y-36245000D02*
X77030000Y-32380000D01*
X77030000Y-44620000D02*
X77030000Y-40755000D01*
X99030000Y-32380000D02*
X108970000Y-32380000D01*
X107370000Y-44620000D02*
X108970000Y-44620000D01*
X104871000Y-44620000D02*
X105630000Y-44620000D01*
X102371000Y-44620000D02*
X103130000Y-44620000D01*
X99030000Y-44620000D02*
X100629000Y-44620000D01*
X108970000Y-36245000D02*
X108970000Y-32380000D01*
X108970000Y-44620000D02*
X108970000Y-40755000D01*
X99030000Y-36245000D02*
X99030000Y-32380000D01*
X99030000Y-44620000D02*
X99030000Y-40755000D01*
X79935000Y-107580000D02*
X79935000Y-107899000D01*
X79935000Y-105101000D02*
X79935000Y-105420000D01*
X83677713Y-107580961D02*
G75*
G02*
X80311670Y-107580000I-1682713J1080961D01*
G01*
X83677713Y-105419039D02*
G75*
G03*
X80311670Y-105420000I-1682713J-1080961D01*
G01*
X84238242Y-107580724D02*
G75*
G02*
X79935000Y-107898749I-2243242J1080724D01*
G01*
X84238242Y-105419276D02*
G75*
G03*
X79935000Y-105101251I-2243242J-1080724D01*
G01*
X101935000Y-107580000D02*
X101935000Y-107899000D01*
X101935000Y-105101000D02*
X101935000Y-105420000D01*
X105677713Y-107580961D02*
G75*
G02*
X102311670Y-107580000I-1682713J1080961D01*
G01*
X105677713Y-105419039D02*
G75*
G03*
X102311670Y-105420000I-1682713J-1080961D01*
G01*
X106238242Y-107580724D02*
G75*
G02*
X101935000Y-107898749I-2243242J1080724D01*
G01*
X106238242Y-105419276D02*
G75*
G03*
X101935000Y-105101251I-2243242J-1080724D01*
G01*
X91370000Y-89620000D02*
X88630000Y-89620000D01*
X91370000Y-82380000D02*
X88630000Y-82380000D01*
X88630000Y-82380000D02*
X88630000Y-89620000D01*
X91370000Y-82380000D02*
X91370000Y-89620000D01*
X89120000Y-79130000D02*
X89120000Y-81870000D01*
X81880000Y-79130000D02*
X81880000Y-81870000D01*
X81880000Y-81870000D02*
X89120000Y-81870000D01*
X81880000Y-79130000D02*
X89120000Y-79130000D01*
X73880000Y-81870000D02*
X73880000Y-79130000D01*
X81120000Y-81870000D02*
X81120000Y-79130000D01*
X81120000Y-79130000D02*
X73880000Y-79130000D01*
X81120000Y-81870000D02*
X73880000Y-81870000D01*
X97370000Y-89620000D02*
X94630000Y-89620000D01*
X97370000Y-82380000D02*
X94630000Y-82380000D01*
X94630000Y-82380000D02*
X94630000Y-89620000D01*
X97370000Y-82380000D02*
X97370000Y-89620000D01*
X111620000Y-79130000D02*
X111620000Y-81870000D01*
X104380000Y-79130000D02*
X104380000Y-81870000D01*
X104380000Y-81870000D02*
X111620000Y-81870000D01*
X104380000Y-79130000D02*
X111620000Y-79130000D01*
X96880000Y-81870000D02*
X96880000Y-79130000D01*
X104120000Y-81870000D02*
X104120000Y-79130000D01*
X104120000Y-79130000D02*
X96880000Y-79130000D01*
X104120000Y-81870000D02*
X96880000Y-81870000D01*
D10*
X74952380Y-91857142D02*
X73952380Y-91857142D01*
X73952380Y-91619047D01*
X74000000Y-91476190D01*
X74095238Y-91380952D01*
X74190476Y-91333333D01*
X74380952Y-91285714D01*
X74523809Y-91285714D01*
X74714285Y-91333333D01*
X74809523Y-91380952D01*
X74904761Y-91476190D01*
X74952380Y-91619047D01*
X74952380Y-91857142D01*
X74904761Y-90476190D02*
X74952380Y-90571428D01*
X74952380Y-90761904D01*
X74904761Y-90857142D01*
X74809523Y-90904761D01*
X74428571Y-90904761D01*
X74333333Y-90857142D01*
X74285714Y-90761904D01*
X74285714Y-90571428D01*
X74333333Y-90476190D01*
X74428571Y-90428571D01*
X74523809Y-90428571D01*
X74619047Y-90904761D01*
X74285714Y-90000000D02*
X75285714Y-90000000D01*
X74333333Y-90000000D02*
X74285714Y-89904761D01*
X74285714Y-89714285D01*
X74333333Y-89619047D01*
X74380952Y-89571428D01*
X74476190Y-89523809D01*
X74761904Y-89523809D01*
X74857142Y-89571428D01*
X74904761Y-89619047D01*
X74952380Y-89714285D01*
X74952380Y-89904761D01*
X74904761Y-90000000D01*
X74285714Y-89238095D02*
X74285714Y-88857142D01*
X73952380Y-89095238D02*
X74809523Y-89095238D01*
X74904761Y-89047619D01*
X74952380Y-88952380D01*
X74952380Y-88857142D01*
X74952380Y-88523809D02*
X73952380Y-88523809D01*
X74952380Y-88095238D02*
X74428571Y-88095238D01*
X74333333Y-88142857D01*
X74285714Y-88238095D01*
X74285714Y-88380952D01*
X74333333Y-88476190D01*
X74380952Y-88523809D01*
X74047619Y-87666666D02*
X74000000Y-87619047D01*
X73952380Y-87523809D01*
X73952380Y-87285714D01*
X74000000Y-87190476D01*
X74047619Y-87142857D01*
X74142857Y-87095238D01*
X74238095Y-87095238D01*
X74380952Y-87142857D01*
X74952380Y-87714285D01*
X74952380Y-87095238D01*
X111952380Y-92157142D02*
X110952380Y-92157142D01*
X110952380Y-91919047D01*
X111000000Y-91776190D01*
X111095238Y-91680952D01*
X111190476Y-91633333D01*
X111380952Y-91585714D01*
X111523809Y-91585714D01*
X111714285Y-91633333D01*
X111809523Y-91680952D01*
X111904761Y-91776190D01*
X111952380Y-91919047D01*
X111952380Y-92157142D01*
X111904761Y-90776190D02*
X111952380Y-90871428D01*
X111952380Y-91061904D01*
X111904761Y-91157142D01*
X111809523Y-91204761D01*
X111428571Y-91204761D01*
X111333333Y-91157142D01*
X111285714Y-91061904D01*
X111285714Y-90871428D01*
X111333333Y-90776190D01*
X111428571Y-90728571D01*
X111523809Y-90728571D01*
X111619047Y-91204761D01*
X111285714Y-90300000D02*
X112285714Y-90300000D01*
X111333333Y-90300000D02*
X111285714Y-90204761D01*
X111285714Y-90014285D01*
X111333333Y-89919047D01*
X111380952Y-89871428D01*
X111476190Y-89823809D01*
X111761904Y-89823809D01*
X111857142Y-89871428D01*
X111904761Y-89919047D01*
X111952380Y-90014285D01*
X111952380Y-90204761D01*
X111904761Y-90300000D01*
X111285714Y-89538095D02*
X111285714Y-89157142D01*
X110952380Y-89395238D02*
X111809523Y-89395238D01*
X111904761Y-89347619D01*
X111952380Y-89252380D01*
X111952380Y-89157142D01*
X111952380Y-88823809D02*
X110952380Y-88823809D01*
X111952380Y-88395238D02*
X111428571Y-88395238D01*
X111333333Y-88442857D01*
X111285714Y-88538095D01*
X111285714Y-88680952D01*
X111333333Y-88776190D01*
X111380952Y-88823809D01*
X111952380Y-87395238D02*
X111952380Y-87966666D01*
X111952380Y-87680952D02*
X110952380Y-87680952D01*
X111095238Y-87776190D01*
X111190476Y-87871428D01*
X111238095Y-87966666D01*
X73802380Y-73188095D02*
X74802380Y-72854761D01*
X73802380Y-72521428D01*
X73802380Y-71997619D02*
X73802380Y-71807142D01*
X73850000Y-71711904D01*
X73945238Y-71616666D01*
X74135714Y-71569047D01*
X74469047Y-71569047D01*
X74659523Y-71616666D01*
X74754761Y-71711904D01*
X74802380Y-71807142D01*
X74802380Y-71997619D01*
X74754761Y-72092857D01*
X74659523Y-72188095D01*
X74469047Y-72235714D01*
X74135714Y-72235714D01*
X73945238Y-72188095D01*
X73850000Y-72092857D01*
X73802380Y-71997619D01*
X74802380Y-70664285D02*
X74802380Y-71140476D01*
X73802380Y-71140476D01*
X73897619Y-70378571D02*
X73850000Y-70330952D01*
X73802380Y-70235714D01*
X73802380Y-69997619D01*
X73850000Y-69902380D01*
X73897619Y-69854761D01*
X73992857Y-69807142D01*
X74088095Y-69807142D01*
X74230952Y-69854761D01*
X74802380Y-70426190D01*
X74802380Y-69807142D01*
X95802380Y-73188095D02*
X96802380Y-72854761D01*
X95802380Y-72521428D01*
X95802380Y-71997619D02*
X95802380Y-71807142D01*
X95850000Y-71711904D01*
X95945238Y-71616666D01*
X96135714Y-71569047D01*
X96469047Y-71569047D01*
X96659523Y-71616666D01*
X96754761Y-71711904D01*
X96802380Y-71807142D01*
X96802380Y-71997619D01*
X96754761Y-72092857D01*
X96659523Y-72188095D01*
X96469047Y-72235714D01*
X96135714Y-72235714D01*
X95945238Y-72188095D01*
X95850000Y-72092857D01*
X95802380Y-71997619D01*
X96802380Y-70664285D02*
X96802380Y-71140476D01*
X95802380Y-71140476D01*
X96802380Y-69807142D02*
X96802380Y-70378571D01*
X96802380Y-70092857D02*
X95802380Y-70092857D01*
X95945238Y-70188095D01*
X96040476Y-70283333D01*
X96088095Y-70378571D01*
X74754761Y-57878571D02*
X74802380Y-57735714D01*
X74802380Y-57497619D01*
X74754761Y-57402380D01*
X74707142Y-57354761D01*
X74611904Y-57307142D01*
X74516666Y-57307142D01*
X74421428Y-57354761D01*
X74373809Y-57402380D01*
X74326190Y-57497619D01*
X74278571Y-57688095D01*
X74230952Y-57783333D01*
X74183333Y-57830952D01*
X74088095Y-57878571D01*
X73992857Y-57878571D01*
X73897619Y-57830952D01*
X73850000Y-57783333D01*
X73802380Y-57688095D01*
X73802380Y-57450000D01*
X73850000Y-57307142D01*
X74135714Y-57021428D02*
X74135714Y-56640476D01*
X73802380Y-56878571D02*
X74659523Y-56878571D01*
X74754761Y-56830952D01*
X74802380Y-56735714D01*
X74802380Y-56640476D01*
X74802380Y-56307142D02*
X74135714Y-56307142D01*
X74326190Y-56307142D02*
X74230952Y-56259523D01*
X74183333Y-56211904D01*
X74135714Y-56116666D01*
X74135714Y-56021428D01*
X74802380Y-55688095D02*
X74135714Y-55688095D01*
X73802380Y-55688095D02*
X73850000Y-55735714D01*
X73897619Y-55688095D01*
X73850000Y-55640476D01*
X73802380Y-55688095D01*
X73897619Y-55688095D01*
X74802380Y-55211904D02*
X73802380Y-55211904D01*
X74421428Y-55116666D02*
X74802380Y-54830952D01*
X74135714Y-54830952D02*
X74516666Y-55211904D01*
X74754761Y-54021428D02*
X74802380Y-54116666D01*
X74802380Y-54307142D01*
X74754761Y-54402380D01*
X74659523Y-54450000D01*
X74278571Y-54450000D01*
X74183333Y-54402380D01*
X74135714Y-54307142D01*
X74135714Y-54116666D01*
X74183333Y-54021428D01*
X74278571Y-53973809D01*
X74373809Y-53973809D01*
X74469047Y-54450000D01*
X73897619Y-53592857D02*
X73850000Y-53545238D01*
X73802380Y-53450000D01*
X73802380Y-53211904D01*
X73850000Y-53116666D01*
X73897619Y-53069047D01*
X73992857Y-53021428D01*
X74088095Y-53021428D01*
X74230952Y-53069047D01*
X74802380Y-53640476D01*
X74802380Y-53021428D01*
X96754761Y-57878571D02*
X96802380Y-57735714D01*
X96802380Y-57497619D01*
X96754761Y-57402380D01*
X96707142Y-57354761D01*
X96611904Y-57307142D01*
X96516666Y-57307142D01*
X96421428Y-57354761D01*
X96373809Y-57402380D01*
X96326190Y-57497619D01*
X96278571Y-57688095D01*
X96230952Y-57783333D01*
X96183333Y-57830952D01*
X96088095Y-57878571D01*
X95992857Y-57878571D01*
X95897619Y-57830952D01*
X95850000Y-57783333D01*
X95802380Y-57688095D01*
X95802380Y-57450000D01*
X95850000Y-57307142D01*
X96135714Y-57021428D02*
X96135714Y-56640476D01*
X95802380Y-56878571D02*
X96659523Y-56878571D01*
X96754761Y-56830952D01*
X96802380Y-56735714D01*
X96802380Y-56640476D01*
X96802380Y-56307142D02*
X96135714Y-56307142D01*
X96326190Y-56307142D02*
X96230952Y-56259523D01*
X96183333Y-56211904D01*
X96135714Y-56116666D01*
X96135714Y-56021428D01*
X96802380Y-55688095D02*
X96135714Y-55688095D01*
X95802380Y-55688095D02*
X95850000Y-55735714D01*
X95897619Y-55688095D01*
X95850000Y-55640476D01*
X95802380Y-55688095D01*
X95897619Y-55688095D01*
X96802380Y-55211904D02*
X95802380Y-55211904D01*
X96421428Y-55116666D02*
X96802380Y-54830952D01*
X96135714Y-54830952D02*
X96516666Y-55211904D01*
X96754761Y-54021428D02*
X96802380Y-54116666D01*
X96802380Y-54307142D01*
X96754761Y-54402380D01*
X96659523Y-54450000D01*
X96278571Y-54450000D01*
X96183333Y-54402380D01*
X96135714Y-54307142D01*
X96135714Y-54116666D01*
X96183333Y-54021428D01*
X96278571Y-53973809D01*
X96373809Y-53973809D01*
X96469047Y-54450000D01*
X96802380Y-53021428D02*
X96802380Y-53592857D01*
X96802380Y-53307142D02*
X95802380Y-53307142D01*
X95945238Y-53402380D01*
X96040476Y-53497619D01*
X96088095Y-53592857D01*
X89952380Y-105142857D02*
X89476190Y-105476190D01*
X89952380Y-105714285D02*
X88952380Y-105714285D01*
X88952380Y-105333333D01*
X89000000Y-105238095D01*
X89047619Y-105190476D01*
X89142857Y-105142857D01*
X89285714Y-105142857D01*
X89380952Y-105190476D01*
X89428571Y-105238095D01*
X89476190Y-105333333D01*
X89476190Y-105714285D01*
X89952380Y-104190476D02*
X89952380Y-104761904D01*
X89952380Y-104476190D02*
X88952380Y-104476190D01*
X89095238Y-104571428D01*
X89190476Y-104666666D01*
X89238095Y-104761904D01*
X89952380Y-103714285D02*
X89952380Y-103523809D01*
X89904761Y-103428571D01*
X89857142Y-103380952D01*
X89714285Y-103285714D01*
X89523809Y-103238095D01*
X89142857Y-103238095D01*
X89047619Y-103285714D01*
X89000000Y-103333333D01*
X88952380Y-103428571D01*
X88952380Y-103619047D01*
X89000000Y-103714285D01*
X89047619Y-103761904D01*
X89142857Y-103809523D01*
X89380952Y-103809523D01*
X89476190Y-103761904D01*
X89523809Y-103714285D01*
X89571428Y-103619047D01*
X89571428Y-103428571D01*
X89523809Y-103333333D01*
X89476190Y-103285714D01*
X89380952Y-103238095D01*
X89322380Y-105062857D02*
X88846190Y-105396190D01*
X89322380Y-105634285D02*
X88322380Y-105634285D01*
X88322380Y-105253333D01*
X88370000Y-105158095D01*
X88417619Y-105110476D01*
X88512857Y-105062857D01*
X88655714Y-105062857D01*
X88750952Y-105110476D01*
X88798571Y-105158095D01*
X88846190Y-105253333D01*
X88846190Y-105634285D01*
X89322380Y-104110476D02*
X89322380Y-104681904D01*
X89322380Y-104396190D02*
X88322380Y-104396190D01*
X88465238Y-104491428D01*
X88560476Y-104586666D01*
X88608095Y-104681904D01*
X88322380Y-103253333D02*
X88322380Y-103443809D01*
X88370000Y-103539047D01*
X88417619Y-103586666D01*
X88560476Y-103681904D01*
X88750952Y-103729523D01*
X89131904Y-103729523D01*
X89227142Y-103681904D01*
X89274761Y-103634285D01*
X89322380Y-103539047D01*
X89322380Y-103348571D01*
X89274761Y-103253333D01*
X89227142Y-103205714D01*
X89131904Y-103158095D01*
X88893809Y-103158095D01*
X88798571Y-103205714D01*
X88750952Y-103253333D01*
X88703333Y-103348571D01*
X88703333Y-103539047D01*
X88750952Y-103634285D01*
X88798571Y-103681904D01*
X88893809Y-103729523D01*
X99952380Y-104586666D02*
X99476190Y-104920000D01*
X99952380Y-105158095D02*
X98952380Y-105158095D01*
X98952380Y-104777142D01*
X99000000Y-104681904D01*
X99047619Y-104634285D01*
X99142857Y-104586666D01*
X99285714Y-104586666D01*
X99380952Y-104634285D01*
X99428571Y-104681904D01*
X99476190Y-104777142D01*
X99476190Y-105158095D01*
X99952380Y-104110476D02*
X99952380Y-103920000D01*
X99904761Y-103824761D01*
X99857142Y-103777142D01*
X99714285Y-103681904D01*
X99523809Y-103634285D01*
X99142857Y-103634285D01*
X99047619Y-103681904D01*
X99000000Y-103729523D01*
X98952380Y-103824761D01*
X98952380Y-104015238D01*
X99000000Y-104110476D01*
X99047619Y-104158095D01*
X99142857Y-104205714D01*
X99380952Y-104205714D01*
X99476190Y-104158095D01*
X99523809Y-104110476D01*
X99571428Y-104015238D01*
X99571428Y-103824761D01*
X99523809Y-103729523D01*
X99476190Y-103681904D01*
X99380952Y-103634285D01*
X96952380Y-104586666D02*
X96476190Y-104920000D01*
X96952380Y-105158095D02*
X95952380Y-105158095D01*
X95952380Y-104777142D01*
X96000000Y-104681904D01*
X96047619Y-104634285D01*
X96142857Y-104586666D01*
X96285714Y-104586666D01*
X96380952Y-104634285D01*
X96428571Y-104681904D01*
X96476190Y-104777142D01*
X96476190Y-105158095D01*
X95952380Y-103681904D02*
X95952380Y-104158095D01*
X96428571Y-104205714D01*
X96380952Y-104158095D01*
X96333333Y-104062857D01*
X96333333Y-103824761D01*
X96380952Y-103729523D01*
X96428571Y-103681904D01*
X96523809Y-103634285D01*
X96761904Y-103634285D01*
X96857142Y-103681904D01*
X96904761Y-103729523D01*
X96952380Y-103824761D01*
X96952380Y-104062857D01*
X96904761Y-104158095D01*
X96857142Y-104205714D01*
X78904761Y-99047619D02*
X78809523Y-99000000D01*
X78714285Y-98904761D01*
X78571428Y-98761904D01*
X78476190Y-98714285D01*
X78380952Y-98714285D01*
X78428571Y-98952380D02*
X78333333Y-98904761D01*
X78238095Y-98809523D01*
X78190476Y-98619047D01*
X78190476Y-98285714D01*
X78238095Y-98095238D01*
X78333333Y-98000000D01*
X78428571Y-97952380D01*
X78619047Y-97952380D01*
X78714285Y-98000000D01*
X78809523Y-98095238D01*
X78857142Y-98285714D01*
X78857142Y-98619047D01*
X78809523Y-98809523D01*
X78714285Y-98904761D01*
X78619047Y-98952380D01*
X78428571Y-98952380D01*
X79428571Y-98380952D02*
X79333333Y-98333333D01*
X79285714Y-98285714D01*
X79238095Y-98190476D01*
X79238095Y-98142857D01*
X79285714Y-98047619D01*
X79333333Y-98000000D01*
X79428571Y-97952380D01*
X79619047Y-97952380D01*
X79714285Y-98000000D01*
X79761904Y-98047619D01*
X79809523Y-98142857D01*
X79809523Y-98190476D01*
X79761904Y-98285714D01*
X79714285Y-98333333D01*
X79619047Y-98380952D01*
X79428571Y-98380952D01*
X79333333Y-98428571D01*
X79285714Y-98476190D01*
X79238095Y-98571428D01*
X79238095Y-98761904D01*
X79285714Y-98857142D01*
X79333333Y-98904761D01*
X79428571Y-98952380D01*
X79619047Y-98952380D01*
X79714285Y-98904761D01*
X79761904Y-98857142D01*
X79809523Y-98761904D01*
X79809523Y-98571428D01*
X79761904Y-98476190D01*
X79714285Y-98428571D01*
X79619047Y-98380952D01*
X106904761Y-99047619D02*
X106809523Y-99000000D01*
X106714285Y-98904761D01*
X106571428Y-98761904D01*
X106476190Y-98714285D01*
X106380952Y-98714285D01*
X106428571Y-98952380D02*
X106333333Y-98904761D01*
X106238095Y-98809523D01*
X106190476Y-98619047D01*
X106190476Y-98285714D01*
X106238095Y-98095238D01*
X106333333Y-98000000D01*
X106428571Y-97952380D01*
X106619047Y-97952380D01*
X106714285Y-98000000D01*
X106809523Y-98095238D01*
X106857142Y-98285714D01*
X106857142Y-98619047D01*
X106809523Y-98809523D01*
X106714285Y-98904761D01*
X106619047Y-98952380D01*
X106428571Y-98952380D01*
X107714285Y-98285714D02*
X107714285Y-98952380D01*
X107476190Y-97904761D02*
X107238095Y-98619047D01*
X107857142Y-98619047D01*
X77636666Y-127132380D02*
X77636666Y-127846666D01*
X77589047Y-127989523D01*
X77493809Y-128084761D01*
X77350952Y-128132380D01*
X77255714Y-128132380D01*
X78160476Y-128132380D02*
X78350952Y-128132380D01*
X78446190Y-128084761D01*
X78493809Y-128037142D01*
X78589047Y-127894285D01*
X78636666Y-127703809D01*
X78636666Y-127322857D01*
X78589047Y-127227619D01*
X78541428Y-127180000D01*
X78446190Y-127132380D01*
X78255714Y-127132380D01*
X78160476Y-127180000D01*
X78112857Y-127227619D01*
X78065238Y-127322857D01*
X78065238Y-127560952D01*
X78112857Y-127656190D01*
X78160476Y-127703809D01*
X78255714Y-127751428D01*
X78446190Y-127751428D01*
X78541428Y-127703809D01*
X78589047Y-127656190D01*
X78636666Y-127560952D01*
X99636666Y-127132380D02*
X99636666Y-127846666D01*
X99589047Y-127989523D01*
X99493809Y-128084761D01*
X99350952Y-128132380D01*
X99255714Y-128132380D01*
X100541428Y-127465714D02*
X100541428Y-128132380D01*
X100303333Y-127084761D02*
X100065238Y-127799047D01*
X100684285Y-127799047D01*
X77636666Y-112532380D02*
X77636666Y-113246666D01*
X77589047Y-113389523D01*
X77493809Y-113484761D01*
X77350952Y-113532380D01*
X77255714Y-113532380D01*
X78017619Y-112532380D02*
X78636666Y-112532380D01*
X78303333Y-112913333D01*
X78446190Y-112913333D01*
X78541428Y-112960952D01*
X78589047Y-113008571D01*
X78636666Y-113103809D01*
X78636666Y-113341904D01*
X78589047Y-113437142D01*
X78541428Y-113484761D01*
X78446190Y-113532380D01*
X78160476Y-113532380D01*
X78065238Y-113484761D01*
X78017619Y-113437142D01*
X99636666Y-112532380D02*
X99636666Y-113246666D01*
X99589047Y-113389523D01*
X99493809Y-113484761D01*
X99350952Y-113532380D01*
X99255714Y-113532380D01*
X100636666Y-113532380D02*
X100065238Y-113532380D01*
X100350952Y-113532380D02*
X100350952Y-112532380D01*
X100255714Y-112675238D01*
X100160476Y-112770476D01*
X100065238Y-112818095D01*
X74802380Y-41997619D02*
X73802380Y-41997619D01*
X73802380Y-41759523D01*
X73850000Y-41616666D01*
X73945238Y-41521428D01*
X74040476Y-41473809D01*
X74230952Y-41426190D01*
X74373809Y-41426190D01*
X74564285Y-41473809D01*
X74659523Y-41521428D01*
X74754761Y-41616666D01*
X74802380Y-41759523D01*
X74802380Y-41997619D01*
X74278571Y-40997619D02*
X74278571Y-40664285D01*
X74802380Y-40521428D02*
X74802380Y-40997619D01*
X73802380Y-40997619D01*
X73802380Y-40521428D01*
X74707142Y-39521428D02*
X74754761Y-39569047D01*
X74802380Y-39711904D01*
X74802380Y-39807142D01*
X74754761Y-39950000D01*
X74659523Y-40045238D01*
X74564285Y-40092857D01*
X74373809Y-40140476D01*
X74230952Y-40140476D01*
X74040476Y-40092857D01*
X73945238Y-40045238D01*
X73850000Y-39950000D01*
X73802380Y-39807142D01*
X73802380Y-39711904D01*
X73850000Y-39569047D01*
X73897619Y-39521428D01*
X74516666Y-39140476D02*
X74516666Y-38664285D01*
X74802380Y-39235714D02*
X73802380Y-38902380D01*
X74802380Y-38569047D01*
X74326190Y-38045238D02*
X74802380Y-38045238D01*
X73802380Y-38378571D02*
X74326190Y-38045238D01*
X73802380Y-37711904D01*
X73897619Y-37426190D02*
X73850000Y-37378571D01*
X73802380Y-37283333D01*
X73802380Y-37045238D01*
X73850000Y-36950000D01*
X73897619Y-36902380D01*
X73992857Y-36854761D01*
X74088095Y-36854761D01*
X74230952Y-36902380D01*
X74802380Y-37473809D01*
X74802380Y-36854761D01*
X96802380Y-41997619D02*
X95802380Y-41997619D01*
X95802380Y-41759523D01*
X95850000Y-41616666D01*
X95945238Y-41521428D01*
X96040476Y-41473809D01*
X96230952Y-41426190D01*
X96373809Y-41426190D01*
X96564285Y-41473809D01*
X96659523Y-41521428D01*
X96754761Y-41616666D01*
X96802380Y-41759523D01*
X96802380Y-41997619D01*
X96278571Y-40997619D02*
X96278571Y-40664285D01*
X96802380Y-40521428D02*
X96802380Y-40997619D01*
X95802380Y-40997619D01*
X95802380Y-40521428D01*
X96707142Y-39521428D02*
X96754761Y-39569047D01*
X96802380Y-39711904D01*
X96802380Y-39807142D01*
X96754761Y-39950000D01*
X96659523Y-40045238D01*
X96564285Y-40092857D01*
X96373809Y-40140476D01*
X96230952Y-40140476D01*
X96040476Y-40092857D01*
X95945238Y-40045238D01*
X95850000Y-39950000D01*
X95802380Y-39807142D01*
X95802380Y-39711904D01*
X95850000Y-39569047D01*
X95897619Y-39521428D01*
X96516666Y-39140476D02*
X96516666Y-38664285D01*
X96802380Y-39235714D02*
X95802380Y-38902380D01*
X96802380Y-38569047D01*
X96326190Y-38045238D02*
X96802380Y-38045238D01*
X95802380Y-38378571D02*
X96326190Y-38045238D01*
X95802380Y-37711904D01*
X96802380Y-36854761D02*
X96802380Y-37426190D01*
X96802380Y-37140476D02*
X95802380Y-37140476D01*
X95945238Y-37235714D01*
X96040476Y-37330952D01*
X96088095Y-37426190D01*
X77761904Y-106952380D02*
X77761904Y-105952380D01*
X78000000Y-105952380D01*
X78142857Y-106000000D01*
X78238095Y-106095238D01*
X78285714Y-106190476D01*
X78333333Y-106380952D01*
X78333333Y-106523809D01*
X78285714Y-106714285D01*
X78238095Y-106809523D01*
X78142857Y-106904761D01*
X78000000Y-106952380D01*
X77761904Y-106952380D01*
X78809523Y-106952380D02*
X79000000Y-106952380D01*
X79095238Y-106904761D01*
X79142857Y-106857142D01*
X79238095Y-106714285D01*
X79285714Y-106523809D01*
X79285714Y-106142857D01*
X79238095Y-106047619D01*
X79190476Y-106000000D01*
X79095238Y-105952380D01*
X78904761Y-105952380D01*
X78809523Y-106000000D01*
X78761904Y-106047619D01*
X78714285Y-106142857D01*
X78714285Y-106380952D01*
X78761904Y-106476190D01*
X78809523Y-106523809D01*
X78904761Y-106571428D01*
X79095238Y-106571428D01*
X79190476Y-106523809D01*
X79238095Y-106476190D01*
X79285714Y-106380952D01*
X106986904Y-106952380D02*
X106986904Y-105952380D01*
X107225000Y-105952380D01*
X107367857Y-106000000D01*
X107463095Y-106095238D01*
X107510714Y-106190476D01*
X107558333Y-106380952D01*
X107558333Y-106523809D01*
X107510714Y-106714285D01*
X107463095Y-106809523D01*
X107367857Y-106904761D01*
X107225000Y-106952380D01*
X106986904Y-106952380D01*
X108463095Y-105952380D02*
X107986904Y-105952380D01*
X107939285Y-106428571D01*
X107986904Y-106380952D01*
X108082142Y-106333333D01*
X108320238Y-106333333D01*
X108415476Y-106380952D01*
X108463095Y-106428571D01*
X108510714Y-106523809D01*
X108510714Y-106761904D01*
X108463095Y-106857142D01*
X108415476Y-106904761D01*
X108320238Y-106952380D01*
X108082142Y-106952380D01*
X107986904Y-106904761D01*
X107939285Y-106857142D01*
X92857142Y-86642857D02*
X92904761Y-86690476D01*
X92952380Y-86833333D01*
X92952380Y-86928571D01*
X92904761Y-87071428D01*
X92809523Y-87166666D01*
X92714285Y-87214285D01*
X92523809Y-87261904D01*
X92380952Y-87261904D01*
X92190476Y-87214285D01*
X92095238Y-87166666D01*
X92000000Y-87071428D01*
X91952380Y-86928571D01*
X91952380Y-86833333D01*
X92000000Y-86690476D01*
X92047619Y-86642857D01*
X92952380Y-85690476D02*
X92952380Y-86261904D01*
X92952380Y-85976190D02*
X91952380Y-85976190D01*
X92095238Y-86071428D01*
X92190476Y-86166666D01*
X92238095Y-86261904D01*
X92285714Y-84833333D02*
X92952380Y-84833333D01*
X91904761Y-85071428D02*
X92619047Y-85309523D01*
X92619047Y-84690476D01*
X84857142Y-78357142D02*
X84809523Y-78404761D01*
X84666666Y-78452380D01*
X84571428Y-78452380D01*
X84428571Y-78404761D01*
X84333333Y-78309523D01*
X84285714Y-78214285D01*
X84238095Y-78023809D01*
X84238095Y-77880952D01*
X84285714Y-77690476D01*
X84333333Y-77595238D01*
X84428571Y-77500000D01*
X84571428Y-77452380D01*
X84666666Y-77452380D01*
X84809523Y-77500000D01*
X84857142Y-77547619D01*
X85809523Y-78452380D02*
X85238095Y-78452380D01*
X85523809Y-78452380D02*
X85523809Y-77452380D01*
X85428571Y-77595238D01*
X85333333Y-77690476D01*
X85238095Y-77738095D01*
X86142857Y-77452380D02*
X86761904Y-77452380D01*
X86428571Y-77833333D01*
X86571428Y-77833333D01*
X86666666Y-77880952D01*
X86714285Y-77928571D01*
X86761904Y-78023809D01*
X86761904Y-78261904D01*
X86714285Y-78357142D01*
X86666666Y-78404761D01*
X86571428Y-78452380D01*
X86285714Y-78452380D01*
X86190476Y-78404761D01*
X86142857Y-78357142D01*
X76857142Y-83357142D02*
X76809523Y-83404761D01*
X76666666Y-83452380D01*
X76571428Y-83452380D01*
X76428571Y-83404761D01*
X76333333Y-83309523D01*
X76285714Y-83214285D01*
X76238095Y-83023809D01*
X76238095Y-82880952D01*
X76285714Y-82690476D01*
X76333333Y-82595238D01*
X76428571Y-82500000D01*
X76571428Y-82452380D01*
X76666666Y-82452380D01*
X76809523Y-82500000D01*
X76857142Y-82547619D01*
X77809523Y-83452380D02*
X77238095Y-83452380D01*
X77523809Y-83452380D02*
X77523809Y-82452380D01*
X77428571Y-82595238D01*
X77333333Y-82690476D01*
X77238095Y-82738095D01*
X78761904Y-83452380D02*
X78190476Y-83452380D01*
X78476190Y-83452380D02*
X78476190Y-82452380D01*
X78380952Y-82595238D01*
X78285714Y-82690476D01*
X78190476Y-82738095D01*
X96357142Y-86166666D02*
X96404761Y-86214285D01*
X96452380Y-86357142D01*
X96452380Y-86452380D01*
X96404761Y-86595238D01*
X96309523Y-86690476D01*
X96214285Y-86738095D01*
X96023809Y-86785714D01*
X95880952Y-86785714D01*
X95690476Y-86738095D01*
X95595238Y-86690476D01*
X95500000Y-86595238D01*
X95452380Y-86452380D01*
X95452380Y-86357142D01*
X95500000Y-86214285D01*
X95547619Y-86166666D01*
X95452380Y-85833333D02*
X95452380Y-85214285D01*
X95833333Y-85547619D01*
X95833333Y-85404761D01*
X95880952Y-85309523D01*
X95928571Y-85261904D01*
X96023809Y-85214285D01*
X96261904Y-85214285D01*
X96357142Y-85261904D01*
X96404761Y-85309523D01*
X96452380Y-85404761D01*
X96452380Y-85690476D01*
X96404761Y-85785714D01*
X96357142Y-85833333D01*
X107833333Y-80857142D02*
X107785714Y-80904761D01*
X107642857Y-80952380D01*
X107547619Y-80952380D01*
X107404761Y-80904761D01*
X107309523Y-80809523D01*
X107261904Y-80714285D01*
X107214285Y-80523809D01*
X107214285Y-80380952D01*
X107261904Y-80190476D01*
X107309523Y-80095238D01*
X107404761Y-80000000D01*
X107547619Y-79952380D01*
X107642857Y-79952380D01*
X107785714Y-80000000D01*
X107833333Y-80047619D01*
X108214285Y-80047619D02*
X108261904Y-80000000D01*
X108357142Y-79952380D01*
X108595238Y-79952380D01*
X108690476Y-80000000D01*
X108738095Y-80047619D01*
X108785714Y-80142857D01*
X108785714Y-80238095D01*
X108738095Y-80380952D01*
X108166666Y-80952380D01*
X108785714Y-80952380D01*
X100333333Y-80857142D02*
X100285714Y-80904761D01*
X100142857Y-80952380D01*
X100047619Y-80952380D01*
X99904761Y-80904761D01*
X99809523Y-80809523D01*
X99761904Y-80714285D01*
X99714285Y-80523809D01*
X99714285Y-80380952D01*
X99761904Y-80190476D01*
X99809523Y-80095238D01*
X99904761Y-80000000D01*
X100047619Y-79952380D01*
X100142857Y-79952380D01*
X100285714Y-80000000D01*
X100333333Y-80047619D01*
X101285714Y-80952380D02*
X100714285Y-80952380D01*
X101000000Y-80952380D02*
X101000000Y-79952380D01*
X100904761Y-80095238D01*
X100809523Y-80190476D01*
X100714285Y-80238095D01*
%LPC*%
D12*
X84400000Y-94700000D03*
X84400000Y-90000000D03*
X84400000Y-85300000D03*
X79600000Y-94700000D03*
X79600000Y-90000000D03*
X79600000Y-85300000D03*
X106400000Y-94700000D03*
X106400000Y-90000000D03*
X106400000Y-85300000D03*
X101600000Y-94700000D03*
X101600000Y-90000000D03*
X101600000Y-85300000D03*
D13*
X86400000Y-70500000D03*
X77600000Y-70500000D03*
D14*
X84500000Y-77500000D03*
X82000000Y-77500000D03*
X79500000Y-77500000D03*
D13*
X108400000Y-70500000D03*
X99600000Y-70500000D03*
D14*
X106500000Y-77500000D03*
X104000000Y-77500000D03*
X101500000Y-77500000D03*
D13*
X86400000Y-54500000D03*
X77600000Y-54500000D03*
D14*
X84500000Y-61500000D03*
X82000000Y-61500000D03*
X79500000Y-61500000D03*
D13*
X108400000Y-54500000D03*
X99600000Y-54500000D03*
D14*
X106500000Y-61500000D03*
X104000000Y-61500000D03*
X101500000Y-61500000D03*
D15*
X89500000Y-109500000D03*
D16*
X89500000Y-99340000D03*
D15*
X86500000Y-109500000D03*
D16*
X86500000Y-99340000D03*
D15*
X99500000Y-109500000D03*
D16*
X99500000Y-99340000D03*
D15*
X96500000Y-109500000D03*
D16*
X96500000Y-99340000D03*
D17*
X80730000Y-101000000D03*
D18*
X83270000Y-101000000D03*
X82000000Y-101000000D03*
D17*
X102730000Y-101000000D03*
D18*
X105270000Y-101000000D03*
X104000000Y-101000000D03*
D19*
X82000000Y-138000000D03*
D20*
X82000000Y-126600000D03*
D19*
X82000000Y-129700000D03*
D21*
X75000000Y-116240000D03*
X75000000Y-113700000D03*
X75000000Y-111160000D03*
X75000000Y-108620000D03*
X75000000Y-106080000D03*
X75000000Y-103540000D03*
X75000000Y-101000000D03*
D22*
X75000000Y-98460000D03*
D21*
X111000000Y-116240000D03*
X111000000Y-113700000D03*
X111000000Y-111160000D03*
X111000000Y-108620000D03*
X111000000Y-106080000D03*
X111000000Y-103540000D03*
X111000000Y-101000000D03*
D22*
X111000000Y-98460000D03*
D19*
X104000000Y-138000000D03*
D20*
X104000000Y-126600000D03*
D19*
X104000000Y-129700000D03*
X82000000Y-123400000D03*
D20*
X82000000Y-112000000D03*
D19*
X82000000Y-115100000D03*
X104000000Y-123400000D03*
D20*
X104000000Y-112000000D03*
D19*
X104000000Y-115100000D03*
D13*
X86400000Y-38500000D03*
X77600000Y-38500000D03*
D14*
X84500000Y-45500000D03*
X82000000Y-45500000D03*
X79500000Y-45500000D03*
D13*
X108400000Y-38500000D03*
X99600000Y-38500000D03*
D14*
X106500000Y-45500000D03*
X104000000Y-45500000D03*
X101500000Y-45500000D03*
X83265000Y-106500000D03*
D23*
X80725000Y-106500000D03*
D14*
X105265000Y-106500000D03*
D23*
X102725000Y-106500000D03*
D16*
X90000000Y-88500000D03*
X90000000Y-83500000D03*
X88000000Y-80500000D03*
X83000000Y-80500000D03*
X75000000Y-80500000D03*
X80000000Y-80500000D03*
X96000000Y-88500000D03*
X96000000Y-83500000D03*
X110500000Y-80500000D03*
X105500000Y-80500000D03*
X98000000Y-80500000D03*
X103000000Y-80500000D03*
M02*
