G04 #@! TF.GenerationSoftware,KiCad,Pcbnew,(5.1.9)-1*
G04 #@! TF.CreationDate,2021-10-23T20:01:37+01:00*
G04 #@! TF.ProjectId,Snare+Hihat,536e6172-652b-4486-9968-61742e6b6963,rev?*
G04 #@! TF.SameCoordinates,Original*
G04 #@! TF.FileFunction,Legend,Bot*
G04 #@! TF.FilePolarity,Positive*
%FSLAX46Y46*%
G04 Gerber Fmt 4.6, Leading zero omitted, Abs format (unit mm)*
G04 Created by KiCad (PCBNEW (5.1.9)-1) date 2021-10-23 20:01:37*
%MOMM*%
%LPD*%
G01*
G04 APERTURE LIST*
%ADD10C,0.120000*%
%ADD11C,0.150000*%
%ADD12O,3.700000X2.400000*%
%ADD13C,4.000000*%
%ADD14C,1.800000*%
%ADD15O,1.600000X1.600000*%
%ADD16C,1.600000*%
%ADD17R,1.050000X1.500000*%
%ADD18O,1.050000X1.500000*%
%ADD19C,2.130000*%
%ADD20R,1.930000X1.830000*%
%ADD21O,1.700000X1.700000*%
%ADD22R,1.700000X1.700000*%
%ADD23R,1.800000X1.800000*%
G04 APERTURE END LIST*
D10*
X75000000Y-97130000D02*
X73670000Y-97130000D01*
X73670000Y-97130000D02*
X73670000Y-98460000D01*
X73670000Y-99730000D02*
X73670000Y-117570000D01*
X76330000Y-117570000D02*
X73670000Y-117570000D01*
X76330000Y-99730000D02*
X76330000Y-117570000D01*
X76330000Y-99730000D02*
X73670000Y-99730000D01*
X111000000Y-97130000D02*
X109670000Y-97130000D01*
X109670000Y-97130000D02*
X109670000Y-98460000D01*
X109670000Y-99730000D02*
X109670000Y-117570000D01*
X112330000Y-117570000D02*
X109670000Y-117570000D01*
X112330000Y-99730000D02*
X112330000Y-117570000D01*
X112330000Y-99730000D02*
X109670000Y-99730000D01*
D11*
X75333333Y-95142380D02*
X75333333Y-95856666D01*
X75380952Y-95999523D01*
X75476190Y-96094761D01*
X75619047Y-96142380D01*
X75714285Y-96142380D01*
X74714285Y-95570952D02*
X74809523Y-95523333D01*
X74857142Y-95475714D01*
X74904761Y-95380476D01*
X74904761Y-95332857D01*
X74857142Y-95237619D01*
X74809523Y-95190000D01*
X74714285Y-95142380D01*
X74523809Y-95142380D01*
X74428571Y-95190000D01*
X74380952Y-95237619D01*
X74333333Y-95332857D01*
X74333333Y-95380476D01*
X74380952Y-95475714D01*
X74428571Y-95523333D01*
X74523809Y-95570952D01*
X74714285Y-95570952D01*
X74809523Y-95618571D01*
X74857142Y-95666190D01*
X74904761Y-95761428D01*
X74904761Y-95951904D01*
X74857142Y-96047142D01*
X74809523Y-96094761D01*
X74714285Y-96142380D01*
X74523809Y-96142380D01*
X74428571Y-96094761D01*
X74380952Y-96047142D01*
X74333333Y-95951904D01*
X74333333Y-95761428D01*
X74380952Y-95666190D01*
X74428571Y-95618571D01*
X74523809Y-95570952D01*
X111333333Y-95142380D02*
X111333333Y-95856666D01*
X111380952Y-95999523D01*
X111476190Y-96094761D01*
X111619047Y-96142380D01*
X111714285Y-96142380D01*
X110428571Y-95142380D02*
X110619047Y-95142380D01*
X110714285Y-95190000D01*
X110761904Y-95237619D01*
X110857142Y-95380476D01*
X110904761Y-95570952D01*
X110904761Y-95951904D01*
X110857142Y-96047142D01*
X110809523Y-96094761D01*
X110714285Y-96142380D01*
X110523809Y-96142380D01*
X110428571Y-96094761D01*
X110380952Y-96047142D01*
X110333333Y-95951904D01*
X110333333Y-95713809D01*
X110380952Y-95618571D01*
X110428571Y-95570952D01*
X110523809Y-95523333D01*
X110714285Y-95523333D01*
X110809523Y-95570952D01*
X110857142Y-95618571D01*
X110904761Y-95713809D01*
%LPC*%
D12*
X84400000Y-94700000D03*
X84400000Y-90000000D03*
X84400000Y-85300000D03*
X79600000Y-94700000D03*
X79600000Y-90000000D03*
X79600000Y-85300000D03*
X106400000Y-94700000D03*
X106400000Y-90000000D03*
X106400000Y-85300000D03*
X101600000Y-94700000D03*
X101600000Y-90000000D03*
X101600000Y-85300000D03*
D13*
X86400000Y-70500000D03*
X77600000Y-70500000D03*
D14*
X84500000Y-77500000D03*
X82000000Y-77500000D03*
X79500000Y-77500000D03*
D13*
X108400000Y-70500000D03*
X99600000Y-70500000D03*
D14*
X106500000Y-77500000D03*
X104000000Y-77500000D03*
X101500000Y-77500000D03*
D13*
X86400000Y-54500000D03*
X77600000Y-54500000D03*
D14*
X84500000Y-61500000D03*
X82000000Y-61500000D03*
X79500000Y-61500000D03*
D13*
X108400000Y-54500000D03*
X99600000Y-54500000D03*
D14*
X106500000Y-61500000D03*
X104000000Y-61500000D03*
X101500000Y-61500000D03*
D15*
X89500000Y-109500000D03*
D16*
X89500000Y-99340000D03*
D15*
X86500000Y-109500000D03*
D16*
X86500000Y-99340000D03*
D15*
X99500000Y-109500000D03*
D16*
X99500000Y-99340000D03*
D15*
X96500000Y-109500000D03*
D16*
X96500000Y-99340000D03*
D17*
X80730000Y-101000000D03*
D18*
X83270000Y-101000000D03*
X82000000Y-101000000D03*
D17*
X102730000Y-101000000D03*
D18*
X105270000Y-101000000D03*
X104000000Y-101000000D03*
D19*
X82000000Y-138000000D03*
D20*
X82000000Y-126600000D03*
D19*
X82000000Y-129700000D03*
D21*
X75000000Y-116240000D03*
X75000000Y-113700000D03*
X75000000Y-111160000D03*
X75000000Y-108620000D03*
X75000000Y-106080000D03*
X75000000Y-103540000D03*
X75000000Y-101000000D03*
D22*
X75000000Y-98460000D03*
D21*
X111000000Y-116240000D03*
X111000000Y-113700000D03*
X111000000Y-111160000D03*
X111000000Y-108620000D03*
X111000000Y-106080000D03*
X111000000Y-103540000D03*
X111000000Y-101000000D03*
D22*
X111000000Y-98460000D03*
D19*
X104000000Y-138000000D03*
D20*
X104000000Y-126600000D03*
D19*
X104000000Y-129700000D03*
X82000000Y-123400000D03*
D20*
X82000000Y-112000000D03*
D19*
X82000000Y-115100000D03*
X104000000Y-123400000D03*
D20*
X104000000Y-112000000D03*
D19*
X104000000Y-115100000D03*
D13*
X86400000Y-38500000D03*
X77600000Y-38500000D03*
D14*
X84500000Y-45500000D03*
X82000000Y-45500000D03*
X79500000Y-45500000D03*
D13*
X108400000Y-38500000D03*
X99600000Y-38500000D03*
D14*
X106500000Y-45500000D03*
X104000000Y-45500000D03*
X101500000Y-45500000D03*
X83265000Y-106500000D03*
D23*
X80725000Y-106500000D03*
D14*
X105265000Y-106500000D03*
D23*
X102725000Y-106500000D03*
D16*
X90000000Y-88500000D03*
X90000000Y-83500000D03*
X88000000Y-80500000D03*
X83000000Y-80500000D03*
X75000000Y-80500000D03*
X80000000Y-80500000D03*
X96000000Y-88500000D03*
X96000000Y-83500000D03*
X110500000Y-80500000D03*
X105500000Y-80500000D03*
X98000000Y-80500000D03*
X103000000Y-80500000D03*
M02*
