G04 #@! TF.GenerationSoftware,KiCad,Pcbnew,(6.0.0)*
G04 #@! TF.CreationDate,2022-04-30T23:24:42+02:00*
G04 #@! TF.ProjectId,Output-mixer,4f757470-7574-42d6-9d69-7865722e6b69,rev?*
G04 #@! TF.SameCoordinates,Original*
G04 #@! TF.FileFunction,Legend,Bot*
G04 #@! TF.FilePolarity,Positive*
%FSLAX46Y46*%
G04 Gerber Fmt 4.6, Leading zero omitted, Abs format (unit mm)*
G04 Created by KiCad (PCBNEW (6.0.0)) date 2022-04-30 23:24:42*
%MOMM*%
%LPD*%
G01*
G04 APERTURE LIST*
G04 Aperture macros list*
%AMRoundRect*
0 Rectangle with rounded corners*
0 $1 Rounding radius*
0 $2 $3 $4 $5 $6 $7 $8 $9 X,Y pos of 4 corners*
0 Add a 4 corners polygon primitive as box body*
4,1,4,$2,$3,$4,$5,$6,$7,$8,$9,$2,$3,0*
0 Add four circle primitives for the rounded corners*
1,1,$1+$1,$2,$3*
1,1,$1+$1,$4,$5*
1,1,$1+$1,$6,$7*
1,1,$1+$1,$8,$9*
0 Add four rect primitives between the rounded corners*
20,1,$1+$1,$2,$3,$4,$5,0*
20,1,$1+$1,$4,$5,$6,$7,0*
20,1,$1+$1,$6,$7,$8,$9,0*
20,1,$1+$1,$8,$9,$2,$3,0*%
G04 Aperture macros list end*
%ADD10C,0.120000*%
%ADD11C,0.150000*%
G04 #@! TA.AperFunction,Profile*
%ADD12C,0.050000*%
G04 #@! TD*
%ADD13C,1.600000*%
%ADD14O,1.600000X1.600000*%
%ADD15RoundRect,0.475000X-0.475000X1.275000X-0.475000X-1.275000X0.475000X-1.275000X0.475000X1.275000X0*%
%ADD16RoundRect,0.475000X1.275000X0.475000X-1.275000X0.475000X-1.275000X-0.475000X1.275000X-0.475000X0*%
%ADD17RoundRect,0.475000X-0.565685X-1.237437X1.237437X0.565685X0.565685X1.237437X-1.237437X-0.565685X0*%
%ADD18RoundRect,0.475000X0.475000X-1.275000X0.475000X1.275000X-0.475000X1.275000X-0.475000X-1.275000X0*%
%ADD19R,1.700000X1.700000*%
%ADD20O,1.700000X1.700000*%
%ADD21R,1.500000X1.050000*%
%ADD22O,1.500000X1.050000*%
%ADD23C,3.200000*%
%ADD24R,1.600000X1.600000*%
G04 APERTURE END LIST*
D10*
X164600000Y-123500000D02*
X165400000Y-123500000D01*
D11*
X168000000Y-129750000D02*
X162000000Y-129750000D01*
X162000000Y-129750000D02*
X162000000Y-127000000D01*
X162000000Y-127000000D02*
X168000000Y-127000000D01*
X168000000Y-127000000D02*
X168000000Y-129750000D01*
G36*
X168000000Y-129750000D02*
G01*
X162000000Y-129750000D01*
X162000000Y-127000000D01*
X168000000Y-127000000D01*
X168000000Y-129750000D01*
G37*
X168000000Y-129750000D02*
X162000000Y-129750000D01*
X162000000Y-127000000D01*
X168000000Y-127000000D01*
X168000000Y-129750000D01*
D10*
X166000000Y-123500000D02*
X166300000Y-123800000D01*
X163100000Y-123400000D02*
X163000000Y-123400000D01*
X164600000Y-124300000D02*
X164600000Y-123500000D01*
X163000000Y-123400000D02*
X163000000Y-125100000D01*
X167200000Y-124400000D02*
X167800000Y-124400000D01*
X165400000Y-125100000D02*
X165400000Y-124300000D01*
X166000000Y-125100000D02*
X166200000Y-125100000D01*
X163900000Y-123400000D02*
X163800000Y-123400000D01*
X165400000Y-124300000D02*
X164600000Y-124300000D01*
X163000000Y-125100000D02*
X163800000Y-123400000D01*
X164800000Y-126400000D02*
X165200000Y-126200000D01*
X165200000Y-126200000D02*
X164400000Y-126200000D01*
X164400000Y-126200000D02*
X164800000Y-126400000D01*
G36*
X164800000Y-126400000D02*
G01*
X164400000Y-126200000D01*
X165200000Y-126200000D01*
X164800000Y-126400000D01*
G37*
X164800000Y-126400000D02*
X164400000Y-126200000D01*
X165200000Y-126200000D01*
X164800000Y-126400000D01*
X165800000Y-125100000D02*
X166000000Y-125100000D01*
X166000000Y-125100000D02*
X166000000Y-123500000D01*
X167500000Y-124700000D02*
X167500000Y-124100000D01*
X164600000Y-125100000D02*
X165400000Y-125100000D01*
X164800000Y-125400000D02*
X164800000Y-126400000D01*
D12*
X161500000Y-31000000D02*
X161500000Y-141000000D01*
X161500000Y-31000000D02*
X201500000Y-31000000D01*
X201500000Y-141000000D02*
X161500000Y-141000000D01*
X201500000Y-31000000D02*
X201500000Y-141000000D01*
D11*
X163547619Y-71619047D02*
X162833333Y-71619047D01*
X162690476Y-71666666D01*
X162595238Y-71761904D01*
X162547619Y-71904761D01*
X162547619Y-72000000D01*
X162547619Y-70666666D02*
X162547619Y-71142857D01*
X163547619Y-71142857D01*
X162642857Y-69761904D02*
X162595238Y-69809523D01*
X162547619Y-69952380D01*
X162547619Y-70047619D01*
X162595238Y-70190476D01*
X162690476Y-70285714D01*
X162785714Y-70333333D01*
X162976190Y-70380952D01*
X163119047Y-70380952D01*
X163309523Y-70333333D01*
X163404761Y-70285714D01*
X163500000Y-70190476D01*
X163547619Y-70047619D01*
X163547619Y-69952380D01*
X163500000Y-69809523D01*
X163452380Y-69761904D01*
X163547619Y-69047619D02*
X162833333Y-69047619D01*
X162690476Y-69095238D01*
X162595238Y-69190476D01*
X162547619Y-69333333D01*
X162547619Y-69428571D01*
X162547619Y-68095238D02*
X162547619Y-68571428D01*
X163547619Y-68571428D01*
X162642857Y-67190476D02*
X162595238Y-67238095D01*
X162547619Y-67380952D01*
X162547619Y-67476190D01*
X162595238Y-67619047D01*
X162690476Y-67714285D01*
X162785714Y-67761904D01*
X162976190Y-67809523D01*
X163119047Y-67809523D01*
X163309523Y-67761904D01*
X163404761Y-67714285D01*
X163500000Y-67619047D01*
X163547619Y-67476190D01*
X163547619Y-67380952D01*
X163500000Y-67238095D01*
X163452380Y-67190476D01*
X163547619Y-66476190D02*
X162833333Y-66476190D01*
X162690476Y-66523809D01*
X162595238Y-66619047D01*
X162547619Y-66761904D01*
X162547619Y-66857142D01*
X162547619Y-65523809D02*
X162547619Y-66000000D01*
X163547619Y-66000000D01*
X162642857Y-64619047D02*
X162595238Y-64666666D01*
X162547619Y-64809523D01*
X162547619Y-64904761D01*
X162595238Y-65047619D01*
X162690476Y-65142857D01*
X162785714Y-65190476D01*
X162976190Y-65238095D01*
X163119047Y-65238095D01*
X163309523Y-65190476D01*
X163404761Y-65142857D01*
X163500000Y-65047619D01*
X163547619Y-64904761D01*
X163547619Y-64809523D01*
X163500000Y-64666666D01*
X163452380Y-64619047D01*
X163547619Y-63904761D02*
X162833333Y-63904761D01*
X162690476Y-63952380D01*
X162595238Y-64047619D01*
X162547619Y-64190476D01*
X162547619Y-64285714D01*
X162547619Y-62952380D02*
X162547619Y-63428571D01*
X163547619Y-63428571D01*
X162642857Y-62047619D02*
X162595238Y-62095238D01*
X162547619Y-62238095D01*
X162547619Y-62333333D01*
X162595238Y-62476190D01*
X162690476Y-62571428D01*
X162785714Y-62619047D01*
X162976190Y-62666666D01*
X163119047Y-62666666D01*
X163309523Y-62619047D01*
X163404761Y-62571428D01*
X163500000Y-62476190D01*
X163547619Y-62333333D01*
X163547619Y-62238095D01*
X163500000Y-62095238D01*
X163452380Y-62047619D01*
X189711553Y-72107142D02*
X189759172Y-72154761D01*
X189902029Y-72202380D01*
X189997267Y-72202380D01*
X190140125Y-72154761D01*
X190235363Y-72059523D01*
X190282982Y-71964285D01*
X190330601Y-71773809D01*
X190330601Y-71630952D01*
X190282982Y-71440476D01*
X190235363Y-71345238D01*
X190140125Y-71250000D01*
X189997267Y-71202380D01*
X189902029Y-71202380D01*
X189759172Y-71250000D01*
X189711553Y-71297619D01*
X189140125Y-71630952D02*
X189235363Y-71583333D01*
X189282982Y-71535714D01*
X189330601Y-71440476D01*
X189330601Y-71392857D01*
X189282982Y-71297619D01*
X189235363Y-71250000D01*
X189140125Y-71202380D01*
X188949648Y-71202380D01*
X188854410Y-71250000D01*
X188806791Y-71297619D01*
X188759172Y-71392857D01*
X188759172Y-71440476D01*
X188806791Y-71535714D01*
X188854410Y-71583333D01*
X188949648Y-71630952D01*
X189140125Y-71630952D01*
X189235363Y-71678571D01*
X189282982Y-71726190D01*
X189330601Y-71821428D01*
X189330601Y-72011904D01*
X189282982Y-72107142D01*
X189235363Y-72154761D01*
X189140125Y-72202380D01*
X188949648Y-72202380D01*
X188854410Y-72154761D01*
X188806791Y-72107142D01*
X188759172Y-72011904D01*
X188759172Y-71821428D01*
X188806791Y-71726190D01*
X188854410Y-71678571D01*
X188949648Y-71630952D01*
X189142857Y-37357142D02*
X189190476Y-37404761D01*
X189333333Y-37452380D01*
X189428571Y-37452380D01*
X189571428Y-37404761D01*
X189666666Y-37309523D01*
X189714285Y-37214285D01*
X189761904Y-37023809D01*
X189761904Y-36880952D01*
X189714285Y-36690476D01*
X189666666Y-36595238D01*
X189571428Y-36500000D01*
X189428571Y-36452380D01*
X189333333Y-36452380D01*
X189190476Y-36500000D01*
X189142857Y-36547619D01*
X188761904Y-36547619D02*
X188714285Y-36500000D01*
X188619047Y-36452380D01*
X188380952Y-36452380D01*
X188285714Y-36500000D01*
X188238095Y-36547619D01*
X188190476Y-36642857D01*
X188190476Y-36738095D01*
X188238095Y-36880952D01*
X188809523Y-37452380D01*
X188190476Y-37452380D01*
X187571428Y-36452380D02*
X187476190Y-36452380D01*
X187380952Y-36500000D01*
X187333333Y-36547619D01*
X187285714Y-36642857D01*
X187238095Y-36833333D01*
X187238095Y-37071428D01*
X187285714Y-37261904D01*
X187333333Y-37357142D01*
X187380952Y-37404761D01*
X187476190Y-37452380D01*
X187571428Y-37452380D01*
X187666666Y-37404761D01*
X187714285Y-37357142D01*
X187761904Y-37261904D01*
X187809523Y-37071428D01*
X187809523Y-36833333D01*
X187761904Y-36642857D01*
X187714285Y-36547619D01*
X187666666Y-36500000D01*
X187571428Y-36452380D01*
X169107142Y-97312254D02*
X169154761Y-97264635D01*
X169202380Y-97121778D01*
X169202380Y-97026540D01*
X169154761Y-96883683D01*
X169059523Y-96788445D01*
X168964285Y-96740826D01*
X168773809Y-96693207D01*
X168630952Y-96693207D01*
X168440476Y-96740826D01*
X168345238Y-96788445D01*
X168250000Y-96883683D01*
X168202380Y-97026540D01*
X168202380Y-97121778D01*
X168250000Y-97264635D01*
X168297619Y-97312254D01*
X168297619Y-97693207D02*
X168250000Y-97740826D01*
X168202380Y-97836064D01*
X168202380Y-98074159D01*
X168250000Y-98169397D01*
X168297619Y-98217016D01*
X168392857Y-98264635D01*
X168488095Y-98264635D01*
X168630952Y-98217016D01*
X169202380Y-97645588D01*
X169202380Y-98264635D01*
X168535714Y-99121778D02*
X169202380Y-99121778D01*
X168154761Y-98883683D02*
X168869047Y-98645588D01*
X168869047Y-99264635D01*
X187642857Y-45107142D02*
X187690476Y-45154761D01*
X187833333Y-45202380D01*
X187928571Y-45202380D01*
X188071428Y-45154761D01*
X188166666Y-45059523D01*
X188214285Y-44964285D01*
X188261904Y-44773809D01*
X188261904Y-44630952D01*
X188214285Y-44440476D01*
X188166666Y-44345238D01*
X188071428Y-44250000D01*
X187928571Y-44202380D01*
X187833333Y-44202380D01*
X187690476Y-44250000D01*
X187642857Y-44297619D01*
X186690476Y-45202380D02*
X187261904Y-45202380D01*
X186976190Y-45202380D02*
X186976190Y-44202380D01*
X187071428Y-44345238D01*
X187166666Y-44440476D01*
X187261904Y-44488095D01*
X186214285Y-45202380D02*
X186023809Y-45202380D01*
X185928571Y-45154761D01*
X185880952Y-45107142D01*
X185785714Y-44964285D01*
X185738095Y-44773809D01*
X185738095Y-44392857D01*
X185785714Y-44297619D01*
X185833333Y-44250000D01*
X185928571Y-44202380D01*
X186119047Y-44202380D01*
X186214285Y-44250000D01*
X186261904Y-44297619D01*
X186309523Y-44392857D01*
X186309523Y-44630952D01*
X186261904Y-44726190D01*
X186214285Y-44773809D01*
X186119047Y-44821428D01*
X185928571Y-44821428D01*
X185833333Y-44773809D01*
X185785714Y-44726190D01*
X185738095Y-44630952D01*
X199142857Y-122857142D02*
X199190476Y-122904761D01*
X199333333Y-122952380D01*
X199428571Y-122952380D01*
X199571428Y-122904761D01*
X199666666Y-122809523D01*
X199714285Y-122714285D01*
X199761904Y-122523809D01*
X199761904Y-122380952D01*
X199714285Y-122190476D01*
X199666666Y-122095238D01*
X199571428Y-122000000D01*
X199428571Y-121952380D01*
X199333333Y-121952380D01*
X199190476Y-122000000D01*
X199142857Y-122047619D01*
X198761904Y-122047619D02*
X198714285Y-122000000D01*
X198619047Y-121952380D01*
X198380952Y-121952380D01*
X198285714Y-122000000D01*
X198238095Y-122047619D01*
X198190476Y-122142857D01*
X198190476Y-122238095D01*
X198238095Y-122380952D01*
X198809523Y-122952380D01*
X198190476Y-122952380D01*
X197857142Y-121952380D02*
X197238095Y-121952380D01*
X197571428Y-122333333D01*
X197428571Y-122333333D01*
X197333333Y-122380952D01*
X197285714Y-122428571D01*
X197238095Y-122523809D01*
X197238095Y-122761904D01*
X197285714Y-122857142D01*
X197333333Y-122904761D01*
X197428571Y-122952380D01*
X197714285Y-122952380D01*
X197809523Y-122904761D01*
X197857142Y-122857142D01*
X195357142Y-120357142D02*
X195404761Y-120309523D01*
X195452380Y-120166666D01*
X195452380Y-120071428D01*
X195404761Y-119928571D01*
X195309523Y-119833333D01*
X195214285Y-119785714D01*
X195023809Y-119738095D01*
X194880952Y-119738095D01*
X194690476Y-119785714D01*
X194595238Y-119833333D01*
X194500000Y-119928571D01*
X194452380Y-120071428D01*
X194452380Y-120166666D01*
X194500000Y-120309523D01*
X194547619Y-120357142D01*
X194547619Y-120738095D02*
X194500000Y-120785714D01*
X194452380Y-120880952D01*
X194452380Y-121119047D01*
X194500000Y-121214285D01*
X194547619Y-121261904D01*
X194642857Y-121309523D01*
X194738095Y-121309523D01*
X194880952Y-121261904D01*
X195452380Y-120690476D01*
X195452380Y-121309523D01*
X194880952Y-121880952D02*
X194833333Y-121785714D01*
X194785714Y-121738095D01*
X194690476Y-121690476D01*
X194642857Y-121690476D01*
X194547619Y-121738095D01*
X194500000Y-121785714D01*
X194452380Y-121880952D01*
X194452380Y-122071428D01*
X194500000Y-122166666D01*
X194547619Y-122214285D01*
X194642857Y-122261904D01*
X194690476Y-122261904D01*
X194785714Y-122214285D01*
X194833333Y-122166666D01*
X194880952Y-122071428D01*
X194880952Y-121880952D01*
X194928571Y-121785714D01*
X194976190Y-121738095D01*
X195071428Y-121690476D01*
X195261904Y-121690476D01*
X195357142Y-121738095D01*
X195404761Y-121785714D01*
X195452380Y-121880952D01*
X195452380Y-122071428D01*
X195404761Y-122166666D01*
X195357142Y-122214285D01*
X195261904Y-122261904D01*
X195071428Y-122261904D01*
X194976190Y-122214285D01*
X194928571Y-122166666D01*
X194880952Y-122071428D01*
X169584523Y-139537380D02*
X169584523Y-140251666D01*
X169632142Y-140394523D01*
X169727380Y-140489761D01*
X169870238Y-140537380D01*
X169965476Y-140537380D01*
X168584523Y-140537380D02*
X169155952Y-140537380D01*
X168870238Y-140537380D02*
X168870238Y-139537380D01*
X168965476Y-139680238D01*
X169060714Y-139775476D01*
X169155952Y-139823095D01*
X168251190Y-139537380D02*
X167632142Y-139537380D01*
X167965476Y-139918333D01*
X167822619Y-139918333D01*
X167727380Y-139965952D01*
X167679761Y-140013571D01*
X167632142Y-140108809D01*
X167632142Y-140346904D01*
X167679761Y-140442142D01*
X167727380Y-140489761D01*
X167822619Y-140537380D01*
X168108333Y-140537380D01*
X168203571Y-140489761D01*
X168251190Y-140442142D01*
X176642857Y-118357142D02*
X176690476Y-118404761D01*
X176833333Y-118452380D01*
X176928571Y-118452380D01*
X177071428Y-118404761D01*
X177166666Y-118309523D01*
X177214285Y-118214285D01*
X177261904Y-118023809D01*
X177261904Y-117880952D01*
X177214285Y-117690476D01*
X177166666Y-117595238D01*
X177071428Y-117500000D01*
X176928571Y-117452380D01*
X176833333Y-117452380D01*
X176690476Y-117500000D01*
X176642857Y-117547619D01*
X176261904Y-117547619D02*
X176214285Y-117500000D01*
X176119047Y-117452380D01*
X175880952Y-117452380D01*
X175785714Y-117500000D01*
X175738095Y-117547619D01*
X175690476Y-117642857D01*
X175690476Y-117738095D01*
X175738095Y-117880952D01*
X176309523Y-118452380D01*
X175690476Y-118452380D01*
X175357142Y-117452380D02*
X174690476Y-117452380D01*
X175119047Y-118452380D01*
X193211554Y-67107142D02*
X193259173Y-67154761D01*
X193402030Y-67202380D01*
X193497268Y-67202380D01*
X193640126Y-67154761D01*
X193735364Y-67059523D01*
X193782983Y-66964285D01*
X193830602Y-66773809D01*
X193830602Y-66630952D01*
X193782983Y-66440476D01*
X193735364Y-66345238D01*
X193640126Y-66250000D01*
X193497268Y-66202380D01*
X193402030Y-66202380D01*
X193259173Y-66250000D01*
X193211554Y-66297619D01*
X192878221Y-66202380D02*
X192211554Y-66202380D01*
X192640126Y-67202380D01*
D10*
X189744887Y-66960000D02*
X189744887Y-65427000D01*
X189984887Y-70543000D02*
X189984887Y-69040000D01*
X190945887Y-70175000D02*
X190945887Y-69040000D01*
X191905887Y-69098000D02*
X191905887Y-66902000D01*
X190224887Y-70491000D02*
X190224887Y-69040000D01*
X191185887Y-70004000D02*
X191185887Y-69040000D01*
X190184887Y-70501000D02*
X190184887Y-69040000D01*
X189784887Y-66960000D02*
X189784887Y-65431000D01*
X190905887Y-70200000D02*
X190905887Y-69040000D01*
X191305887Y-66960000D02*
X191305887Y-66099000D01*
X189904887Y-66960000D02*
X189904887Y-65444000D01*
X190465887Y-66960000D02*
X190465887Y-65586000D01*
X190265887Y-70480000D02*
X190265887Y-69040000D01*
X191225887Y-66960000D02*
X191225887Y-66029000D01*
X189544887Y-70580000D02*
X189544887Y-69040000D01*
X190545887Y-70382000D02*
X190545887Y-69040000D01*
X191025887Y-66960000D02*
X191025887Y-65878000D01*
X191305887Y-69901000D02*
X191305887Y-69040000D01*
X190825887Y-66960000D02*
X190825887Y-65753000D01*
X189944887Y-66960000D02*
X189944887Y-65450000D01*
X191065887Y-70095000D02*
X191065887Y-69040000D01*
X189584887Y-66960000D02*
X189584887Y-65420000D01*
X191345887Y-66960000D02*
X191345887Y-66136000D01*
X189944887Y-70550000D02*
X189944887Y-69040000D01*
X191225887Y-69971000D02*
X191225887Y-69040000D01*
X190825887Y-70247000D02*
X190825887Y-69040000D01*
X191745887Y-69383000D02*
X191745887Y-66617000D01*
X189864887Y-70561000D02*
X189864887Y-69040000D01*
X190945887Y-66960000D02*
X190945887Y-65825000D01*
X190224887Y-66960000D02*
X190224887Y-65509000D01*
X190905887Y-66960000D02*
X190905887Y-65800000D01*
X190865887Y-70224000D02*
X190865887Y-69040000D01*
X189824887Y-70565000D02*
X189824887Y-69040000D01*
X189704887Y-66960000D02*
X189704887Y-65424000D01*
X186990112Y-69725000D02*
X186990112Y-69225000D01*
X191785887Y-69319000D02*
X191785887Y-66681000D01*
X190625887Y-66960000D02*
X190625887Y-65652000D01*
X190305887Y-66960000D02*
X190305887Y-65532000D01*
X190024887Y-70536000D02*
X190024887Y-69040000D01*
X191585887Y-69605000D02*
X191585887Y-66395000D01*
X191265887Y-66960000D02*
X191265887Y-66063000D01*
X190545887Y-66960000D02*
X190545887Y-65618000D01*
X191425887Y-69785000D02*
X191425887Y-69040000D01*
X191945887Y-69011000D02*
X191945887Y-66989000D01*
X192145887Y-68284000D02*
X192145887Y-67716000D01*
X191705887Y-69443000D02*
X191705887Y-66557000D01*
X192065887Y-68677000D02*
X192065887Y-67323000D01*
X191145887Y-70035000D02*
X191145887Y-69040000D01*
X189784887Y-70569000D02*
X189784887Y-69040000D01*
X189624887Y-66960000D02*
X189624887Y-65421000D01*
X190104887Y-66960000D02*
X190104887Y-65480000D01*
X190265887Y-66960000D02*
X190265887Y-65520000D01*
X190705887Y-66960000D02*
X190705887Y-65690000D01*
X190625887Y-70348000D02*
X190625887Y-69040000D01*
X190305887Y-70468000D02*
X190305887Y-69040000D01*
X189904887Y-70556000D02*
X189904887Y-69040000D01*
X190144887Y-66960000D02*
X190144887Y-65489000D01*
X190345887Y-66960000D02*
X190345887Y-65545000D01*
X191545887Y-66960000D02*
X191545887Y-66347000D01*
X189664887Y-66960000D02*
X189664887Y-65422000D01*
X190985887Y-66960000D02*
X190985887Y-65851000D01*
X189624887Y-70579000D02*
X189624887Y-69040000D01*
X189824887Y-66960000D02*
X189824887Y-65435000D01*
X190985887Y-70149000D02*
X190985887Y-69040000D01*
X189744887Y-70573000D02*
X189744887Y-69040000D01*
X190425887Y-70428000D02*
X190425887Y-69040000D01*
X190705887Y-70310000D02*
X190705887Y-69040000D01*
X191105887Y-66960000D02*
X191105887Y-65935000D01*
X190104887Y-70520000D02*
X190104887Y-69040000D01*
X191145887Y-66960000D02*
X191145887Y-65965000D01*
X190024887Y-66960000D02*
X190024887Y-65464000D01*
X189984887Y-66960000D02*
X189984887Y-65457000D01*
X190505887Y-70398000D02*
X190505887Y-69040000D01*
X191345887Y-69864000D02*
X191345887Y-69040000D01*
X189584887Y-70580000D02*
X189584887Y-69040000D01*
X191625887Y-69554000D02*
X191625887Y-66446000D01*
X191185887Y-66960000D02*
X191185887Y-65996000D01*
X191385887Y-69826000D02*
X191385887Y-69040000D01*
X191425887Y-66960000D02*
X191425887Y-66215000D01*
X191505887Y-66960000D02*
X191505887Y-66301000D01*
X191665887Y-69500000D02*
X191665887Y-66500000D01*
X190745887Y-66960000D02*
X190745887Y-65710000D01*
X190745887Y-70290000D02*
X190745887Y-69040000D01*
X190345887Y-70455000D02*
X190345887Y-69040000D01*
X186740112Y-69475000D02*
X187240112Y-69475000D01*
X190465887Y-70414000D02*
X190465887Y-69040000D01*
X189664887Y-70578000D02*
X189664887Y-69040000D01*
X191265887Y-69937000D02*
X191265887Y-69040000D01*
X192105887Y-68518000D02*
X192105887Y-67482000D01*
X190785887Y-66960000D02*
X190785887Y-65732000D01*
X190585887Y-66960000D02*
X190585887Y-65635000D01*
X191985887Y-68915000D02*
X191985887Y-67085000D01*
X190665887Y-70329000D02*
X190665887Y-69040000D01*
X190665887Y-66960000D02*
X190665887Y-65671000D01*
X191025887Y-70122000D02*
X191025887Y-69040000D01*
X191465887Y-66960000D02*
X191465887Y-66257000D01*
X189864887Y-66960000D02*
X189864887Y-65439000D01*
X191465887Y-69743000D02*
X191465887Y-69040000D01*
X191505887Y-69699000D02*
X191505887Y-69040000D01*
X191545887Y-69653000D02*
X191545887Y-69040000D01*
X191825887Y-69251000D02*
X191825887Y-66749000D01*
X190144887Y-70511000D02*
X190144887Y-69040000D01*
X190385887Y-66960000D02*
X190385887Y-65558000D01*
X190184887Y-66960000D02*
X190184887Y-65499000D01*
X191865887Y-69178000D02*
X191865887Y-66822000D01*
X192025887Y-68805000D02*
X192025887Y-67195000D01*
X189704887Y-70576000D02*
X189704887Y-69040000D01*
X190385887Y-70442000D02*
X190385887Y-69040000D01*
X191105887Y-70065000D02*
X191105887Y-69040000D01*
X190585887Y-70365000D02*
X190585887Y-69040000D01*
X190425887Y-66960000D02*
X190425887Y-65572000D01*
X190785887Y-70268000D02*
X190785887Y-69040000D01*
X190865887Y-66960000D02*
X190865887Y-65776000D01*
X191385887Y-66960000D02*
X191385887Y-66174000D01*
X190064887Y-66960000D02*
X190064887Y-65472000D01*
X190064887Y-70528000D02*
X190064887Y-69040000D01*
X191065887Y-66960000D02*
X191065887Y-65905000D01*
X189544887Y-66960000D02*
X189544887Y-65420000D01*
X190505887Y-66960000D02*
X190505887Y-65602000D01*
X192164887Y-68000000D02*
G75*
G03*
X192164887Y-68000000I-2620000J0D01*
G01*
X186441000Y-33460000D02*
X186441000Y-32351000D01*
X186761000Y-36401000D02*
X186761000Y-35540000D01*
X185440000Y-33460000D02*
X185440000Y-31957000D01*
X185600000Y-33460000D02*
X185600000Y-31989000D01*
X185360000Y-37056000D02*
X185360000Y-35540000D01*
X186361000Y-36700000D02*
X186361000Y-35540000D01*
X185801000Y-36955000D02*
X185801000Y-35540000D01*
X186401000Y-33460000D02*
X186401000Y-32325000D01*
X185080000Y-33460000D02*
X185080000Y-31921000D01*
X187161000Y-35943000D02*
X187161000Y-33057000D01*
X186761000Y-33460000D02*
X186761000Y-32599000D01*
X185520000Y-37028000D02*
X185520000Y-35540000D01*
X187521000Y-35177000D02*
X187521000Y-33823000D01*
X185360000Y-33460000D02*
X185360000Y-31944000D01*
X186361000Y-33460000D02*
X186361000Y-32300000D01*
X186281000Y-33460000D02*
X186281000Y-32253000D01*
X187121000Y-36000000D02*
X187121000Y-33000000D01*
X186721000Y-36437000D02*
X186721000Y-35540000D01*
X185560000Y-33460000D02*
X185560000Y-31980000D01*
X185160000Y-33460000D02*
X185160000Y-31924000D01*
X185841000Y-33460000D02*
X185841000Y-32058000D01*
X186201000Y-36790000D02*
X186201000Y-35540000D01*
X185921000Y-33460000D02*
X185921000Y-32086000D01*
X185761000Y-36968000D02*
X185761000Y-35540000D01*
X185080000Y-37079000D02*
X185080000Y-35540000D01*
X185000000Y-37080000D02*
X185000000Y-35540000D01*
X187001000Y-36153000D02*
X187001000Y-35540000D01*
X185841000Y-36942000D02*
X185841000Y-35540000D01*
X186241000Y-36768000D02*
X186241000Y-35540000D01*
X186321000Y-33460000D02*
X186321000Y-32276000D01*
X187241000Y-35819000D02*
X187241000Y-33181000D01*
X185480000Y-33460000D02*
X185480000Y-31964000D01*
X182195225Y-35975000D02*
X182695225Y-35975000D01*
X185400000Y-37050000D02*
X185400000Y-35540000D01*
X187201000Y-35883000D02*
X187201000Y-33117000D01*
X185961000Y-36898000D02*
X185961000Y-35540000D01*
X186001000Y-36882000D02*
X186001000Y-35540000D01*
X186201000Y-33460000D02*
X186201000Y-32210000D01*
X186481000Y-33460000D02*
X186481000Y-32378000D01*
X187561000Y-35018000D02*
X187561000Y-33982000D01*
X186841000Y-33460000D02*
X186841000Y-32674000D01*
X185320000Y-33460000D02*
X185320000Y-31939000D01*
X185000000Y-33460000D02*
X185000000Y-31920000D01*
X185240000Y-37069000D02*
X185240000Y-35540000D01*
X185320000Y-37061000D02*
X185320000Y-35540000D01*
X185881000Y-33460000D02*
X185881000Y-32072000D01*
X185801000Y-33460000D02*
X185801000Y-32045000D01*
X186121000Y-36829000D02*
X186121000Y-35540000D01*
X185120000Y-33460000D02*
X185120000Y-31922000D01*
X186281000Y-36747000D02*
X186281000Y-35540000D01*
X187001000Y-33460000D02*
X187001000Y-32847000D01*
X186161000Y-33460000D02*
X186161000Y-32190000D01*
X185881000Y-36928000D02*
X185881000Y-35540000D01*
X187081000Y-36054000D02*
X187081000Y-32946000D01*
X186561000Y-36565000D02*
X186561000Y-35540000D01*
X186321000Y-36724000D02*
X186321000Y-35540000D01*
X187401000Y-35511000D02*
X187401000Y-33489000D01*
X187321000Y-35678000D02*
X187321000Y-33322000D01*
X187041000Y-36105000D02*
X187041000Y-32895000D01*
X186801000Y-36364000D02*
X186801000Y-35540000D01*
X185240000Y-33460000D02*
X185240000Y-31931000D01*
X186961000Y-36199000D02*
X186961000Y-35540000D01*
X185721000Y-36980000D02*
X185721000Y-35540000D01*
X185961000Y-33460000D02*
X185961000Y-32102000D01*
X186081000Y-33460000D02*
X186081000Y-32152000D01*
X186121000Y-33460000D02*
X186121000Y-32171000D01*
X185761000Y-33460000D02*
X185761000Y-32032000D01*
X185200000Y-33460000D02*
X185200000Y-31927000D01*
X187481000Y-35305000D02*
X187481000Y-33695000D01*
X186481000Y-36622000D02*
X186481000Y-35540000D01*
X187601000Y-34784000D02*
X187601000Y-34216000D01*
X185040000Y-33460000D02*
X185040000Y-31920000D01*
X186441000Y-36649000D02*
X186441000Y-35540000D01*
X186401000Y-36675000D02*
X186401000Y-35540000D01*
X186681000Y-33460000D02*
X186681000Y-32529000D01*
X186881000Y-33460000D02*
X186881000Y-32715000D01*
X185600000Y-37011000D02*
X185600000Y-35540000D01*
X185721000Y-33460000D02*
X185721000Y-32020000D01*
X186521000Y-36595000D02*
X186521000Y-35540000D01*
X185560000Y-37020000D02*
X185560000Y-35540000D01*
X186521000Y-33460000D02*
X186521000Y-32405000D01*
X185400000Y-33460000D02*
X185400000Y-31950000D01*
X186881000Y-36285000D02*
X186881000Y-35540000D01*
X186721000Y-33460000D02*
X186721000Y-32563000D01*
X185520000Y-33460000D02*
X185520000Y-31972000D01*
X187441000Y-35415000D02*
X187441000Y-33585000D01*
X186001000Y-33460000D02*
X186001000Y-32118000D01*
X186961000Y-33460000D02*
X186961000Y-32801000D01*
X185921000Y-36914000D02*
X185921000Y-35540000D01*
X186641000Y-36504000D02*
X186641000Y-35540000D01*
X185040000Y-37080000D02*
X185040000Y-35540000D01*
X186801000Y-33460000D02*
X186801000Y-32636000D01*
X185160000Y-37076000D02*
X185160000Y-35540000D01*
X186601000Y-36535000D02*
X186601000Y-35540000D01*
X186041000Y-33460000D02*
X186041000Y-32135000D01*
X186601000Y-33460000D02*
X186601000Y-32465000D01*
X185680000Y-36991000D02*
X185680000Y-35540000D01*
X185200000Y-37073000D02*
X185200000Y-35540000D01*
X186681000Y-36471000D02*
X186681000Y-35540000D01*
X185280000Y-33460000D02*
X185280000Y-31935000D01*
X186041000Y-36865000D02*
X186041000Y-35540000D01*
X186921000Y-36243000D02*
X186921000Y-35540000D01*
X185680000Y-33460000D02*
X185680000Y-32009000D01*
X186921000Y-33460000D02*
X186921000Y-32757000D01*
X186161000Y-36810000D02*
X186161000Y-35540000D01*
X186241000Y-33460000D02*
X186241000Y-32232000D01*
X185640000Y-37001000D02*
X185640000Y-35540000D01*
X182445225Y-36225000D02*
X182445225Y-35725000D01*
X185480000Y-37036000D02*
X185480000Y-35540000D01*
X186841000Y-36326000D02*
X186841000Y-35540000D01*
X186561000Y-33460000D02*
X186561000Y-32435000D01*
X187361000Y-35598000D02*
X187361000Y-33402000D01*
X185120000Y-37078000D02*
X185120000Y-35540000D01*
X185640000Y-33460000D02*
X185640000Y-31999000D01*
X186081000Y-36848000D02*
X186081000Y-35540000D01*
X185280000Y-37065000D02*
X185280000Y-35540000D01*
X185440000Y-37043000D02*
X185440000Y-35540000D01*
X186641000Y-33460000D02*
X186641000Y-32496000D01*
X187281000Y-35751000D02*
X187281000Y-33249000D01*
X187620000Y-34500000D02*
G75*
G03*
X187620000Y-34500000I-2620000J0D01*
G01*
X167480000Y-97234112D02*
X166040000Y-97234112D01*
X167580000Y-97915112D02*
X166040000Y-97915112D01*
X165518000Y-95394112D02*
X164482000Y-95394112D01*
X163960000Y-96554112D02*
X162825000Y-96554112D01*
X166554000Y-95874112D02*
X163446000Y-95874112D01*
X163960000Y-97034112D02*
X162586000Y-97034112D01*
X166500000Y-95834112D02*
X163500000Y-95834112D01*
X166725000Y-100509887D02*
X166225000Y-100509887D01*
X163960000Y-97074112D02*
X162572000Y-97074112D01*
X167065000Y-96394112D02*
X166040000Y-96394112D01*
X163960000Y-97595112D02*
X162444000Y-97595112D01*
X163960000Y-95994112D02*
X163301000Y-95994112D01*
X163960000Y-96034112D02*
X163257000Y-96034112D01*
X167290000Y-96754112D02*
X166040000Y-96754112D01*
X163960000Y-97475112D02*
X162464000Y-97475112D01*
X163960000Y-97114112D02*
X162558000Y-97114112D01*
X166475000Y-100759887D02*
X166475000Y-100259887D01*
X163960000Y-97154112D02*
X162545000Y-97154112D01*
X163960000Y-97915112D02*
X162420000Y-97915112D01*
X163960000Y-96754112D02*
X162710000Y-96754112D01*
X163960000Y-96634112D02*
X162776000Y-96634112D01*
X166826000Y-96114112D02*
X166040000Y-96114112D01*
X163960000Y-97755112D02*
X162427000Y-97755112D01*
X166251000Y-95674112D02*
X163749000Y-95674112D01*
X167414000Y-97034112D02*
X166040000Y-97034112D01*
X167329000Y-96834112D02*
X166040000Y-96834112D01*
X163960000Y-97435112D02*
X162472000Y-97435112D01*
X167348000Y-96874112D02*
X166040000Y-96874112D01*
X167579000Y-97875112D02*
X166040000Y-97875112D01*
X167556000Y-97595112D02*
X166040000Y-97595112D01*
X167382000Y-96954112D02*
X166040000Y-96954112D01*
X167004000Y-96314112D02*
X166040000Y-96314112D01*
X166319000Y-95714112D02*
X163681000Y-95714112D01*
X167224000Y-96634112D02*
X166040000Y-96634112D01*
X166937000Y-96234112D02*
X166040000Y-96234112D01*
X163960000Y-97715112D02*
X162431000Y-97715112D01*
X163960000Y-96314112D02*
X162996000Y-96314112D01*
X167565000Y-97675112D02*
X166040000Y-97675112D01*
X163960000Y-97275112D02*
X162509000Y-97275112D01*
X166605000Y-95914112D02*
X163395000Y-95914112D01*
X167543000Y-97515112D02*
X166040000Y-97515112D01*
X163960000Y-97194112D02*
X162532000Y-97194112D01*
X167428000Y-97074112D02*
X166040000Y-97074112D01*
X165677000Y-95434112D02*
X164323000Y-95434112D01*
X163960000Y-96714112D02*
X162732000Y-96714112D01*
X166743000Y-96034112D02*
X166040000Y-96034112D01*
X165915000Y-95514112D02*
X164085000Y-95514112D01*
X163960000Y-96994112D02*
X162602000Y-96994112D01*
X167578000Y-97835112D02*
X166040000Y-97835112D01*
X167365000Y-96914112D02*
X166040000Y-96914112D01*
X163960000Y-97955112D02*
X162420000Y-97955112D01*
X163960000Y-97675112D02*
X162435000Y-97675112D01*
X163960000Y-95954112D02*
X163347000Y-95954112D01*
X167398000Y-96994112D02*
X166040000Y-96994112D01*
X163960000Y-96514112D02*
X162851000Y-96514112D01*
X163960000Y-97355112D02*
X162489000Y-97355112D01*
X166653000Y-95954112D02*
X166040000Y-95954112D01*
X166901000Y-96194112D02*
X166040000Y-96194112D01*
X166098000Y-95594112D02*
X163902000Y-95594112D01*
X166443000Y-95794112D02*
X163557000Y-95794112D01*
X163960000Y-97635112D02*
X162439000Y-97635112D01*
X166785000Y-96074112D02*
X166040000Y-96074112D01*
X166178000Y-95634112D02*
X163822000Y-95634112D01*
X165805000Y-95474112D02*
X164195000Y-95474112D01*
X167122000Y-96474112D02*
X166040000Y-96474112D01*
X166011000Y-95554112D02*
X163989000Y-95554112D01*
X166699000Y-95994112D02*
X166040000Y-95994112D01*
X167468000Y-97194112D02*
X166040000Y-97194112D01*
X163960000Y-96114112D02*
X163174000Y-96114112D01*
X167580000Y-97955112D02*
X166040000Y-97955112D01*
X163960000Y-97234112D02*
X162520000Y-97234112D01*
X163960000Y-96154112D02*
X163136000Y-96154112D01*
X163960000Y-97315112D02*
X162499000Y-97315112D01*
X167520000Y-97395112D02*
X166040000Y-97395112D01*
X167310000Y-96794112D02*
X166040000Y-96794112D01*
X163960000Y-96234112D02*
X163063000Y-96234112D01*
X163960000Y-96354112D02*
X162965000Y-96354112D01*
X167455000Y-97154112D02*
X166040000Y-97154112D01*
X167035000Y-96354112D02*
X166040000Y-96354112D01*
X167175000Y-96554112D02*
X166040000Y-96554112D01*
X167268000Y-96714112D02*
X166040000Y-96714112D01*
X163960000Y-96434112D02*
X162905000Y-96434112D01*
X167576000Y-97795112D02*
X166040000Y-97795112D01*
X167569000Y-97715112D02*
X166040000Y-97715112D01*
X167247000Y-96674112D02*
X166040000Y-96674112D01*
X163960000Y-96274112D02*
X163029000Y-96274112D01*
X163960000Y-96954112D02*
X162618000Y-96954112D01*
X166971000Y-96274112D02*
X166040000Y-96274112D01*
X167550000Y-97555112D02*
X166040000Y-97555112D01*
X167149000Y-96514112D02*
X166040000Y-96514112D01*
X163960000Y-96914112D02*
X162635000Y-96914112D01*
X163960000Y-97515112D02*
X162457000Y-97515112D01*
X163960000Y-97795112D02*
X162424000Y-97795112D01*
X166383000Y-95754112D02*
X163617000Y-95754112D01*
X163960000Y-96674112D02*
X162753000Y-96674112D01*
X167501000Y-97315112D02*
X166040000Y-97315112D01*
X167511000Y-97355112D02*
X166040000Y-97355112D01*
X163960000Y-97875112D02*
X162421000Y-97875112D01*
X167561000Y-97635112D02*
X166040000Y-97635112D01*
X167442000Y-97114112D02*
X166040000Y-97114112D01*
X163960000Y-96794112D02*
X162690000Y-96794112D01*
X167573000Y-97755112D02*
X166040000Y-97755112D01*
X163960000Y-96474112D02*
X162878000Y-96474112D01*
X163960000Y-97835112D02*
X162422000Y-97835112D01*
X163960000Y-96194112D02*
X163099000Y-96194112D01*
X167491000Y-97275112D02*
X166040000Y-97275112D01*
X167528000Y-97435112D02*
X166040000Y-97435112D01*
X166864000Y-96154112D02*
X166040000Y-96154112D01*
X163960000Y-96834112D02*
X162671000Y-96834112D01*
X167200000Y-96594112D02*
X166040000Y-96594112D01*
X163960000Y-97555112D02*
X162450000Y-97555112D01*
X163960000Y-96594112D02*
X162800000Y-96594112D01*
X165284000Y-95354112D02*
X164716000Y-95354112D01*
X163960000Y-96874112D02*
X162652000Y-96874112D01*
X163960000Y-97395112D02*
X162480000Y-97395112D01*
X163960000Y-96394112D02*
X162935000Y-96394112D01*
X167536000Y-97475112D02*
X166040000Y-97475112D01*
X163960000Y-96074112D02*
X163215000Y-96074112D01*
X167095000Y-96434112D02*
X166040000Y-96434112D01*
X167620000Y-97955112D02*
G75*
G03*
X167620000Y-97955112I-2620000J0D01*
G01*
X185684887Y-39960000D02*
X185684887Y-38499000D01*
X186165887Y-39960000D02*
X186165887Y-38671000D01*
X185244887Y-43573000D02*
X185244887Y-42040000D01*
X185765887Y-43480000D02*
X185765887Y-42040000D01*
X186605887Y-43065000D02*
X186605887Y-42040000D01*
X187245887Y-42383000D02*
X187245887Y-39617000D01*
X186445887Y-43175000D02*
X186445887Y-42040000D01*
X186045887Y-43382000D02*
X186045887Y-42040000D01*
X186925887Y-39960000D02*
X186925887Y-39215000D01*
X186005887Y-39960000D02*
X186005887Y-38602000D01*
X185604887Y-43520000D02*
X185604887Y-42040000D01*
X185564887Y-39960000D02*
X185564887Y-38472000D01*
X186645887Y-39960000D02*
X186645887Y-38965000D01*
X186605887Y-39960000D02*
X186605887Y-38935000D01*
X187565887Y-41677000D02*
X187565887Y-40323000D01*
X187005887Y-42699000D02*
X187005887Y-42040000D01*
X186805887Y-42901000D02*
X186805887Y-42040000D01*
X185044887Y-39960000D02*
X185044887Y-38420000D01*
X186165887Y-43329000D02*
X186165887Y-42040000D01*
X185564887Y-43528000D02*
X185564887Y-42040000D01*
X186085887Y-39960000D02*
X186085887Y-38635000D01*
X185404887Y-43556000D02*
X185404887Y-42040000D01*
X186485887Y-43149000D02*
X186485887Y-42040000D01*
X185765887Y-39960000D02*
X185765887Y-38520000D01*
X186285887Y-43268000D02*
X186285887Y-42040000D01*
X185484887Y-43543000D02*
X185484887Y-42040000D01*
X185444887Y-39960000D02*
X185444887Y-38450000D01*
X185604887Y-39960000D02*
X185604887Y-38480000D01*
X185925887Y-39960000D02*
X185925887Y-38572000D01*
X186565887Y-43095000D02*
X186565887Y-42040000D01*
X187165887Y-42500000D02*
X187165887Y-39500000D01*
X185885887Y-43442000D02*
X185885887Y-42040000D01*
X187525887Y-41805000D02*
X187525887Y-40195000D01*
X187045887Y-42653000D02*
X187045887Y-42040000D01*
X186285887Y-39960000D02*
X186285887Y-38732000D01*
X185845887Y-39960000D02*
X185845887Y-38545000D01*
X186325887Y-39960000D02*
X186325887Y-38753000D01*
X185644887Y-43511000D02*
X185644887Y-42040000D01*
X185885887Y-39960000D02*
X185885887Y-38558000D01*
X187125887Y-42554000D02*
X187125887Y-39446000D01*
X187205887Y-42443000D02*
X187205887Y-39557000D01*
X185324887Y-43565000D02*
X185324887Y-42040000D01*
X186365887Y-39960000D02*
X186365887Y-38776000D01*
X187085887Y-42605000D02*
X187085887Y-39395000D01*
X187285887Y-42319000D02*
X187285887Y-39681000D01*
X186725887Y-39960000D02*
X186725887Y-39029000D01*
X186125887Y-39960000D02*
X186125887Y-38652000D01*
X185724887Y-43491000D02*
X185724887Y-42040000D01*
X185805887Y-39960000D02*
X185805887Y-38532000D01*
X182490112Y-42725000D02*
X182490112Y-42225000D01*
X185324887Y-39960000D02*
X185324887Y-38435000D01*
X185164887Y-43578000D02*
X185164887Y-42040000D01*
X185684887Y-43501000D02*
X185684887Y-42040000D01*
X186005887Y-43398000D02*
X186005887Y-42040000D01*
X185244887Y-39960000D02*
X185244887Y-38427000D01*
X185805887Y-43468000D02*
X185805887Y-42040000D01*
X186205887Y-43310000D02*
X186205887Y-42040000D01*
X185965887Y-39960000D02*
X185965887Y-38586000D01*
X185204887Y-43576000D02*
X185204887Y-42040000D01*
X186205887Y-39960000D02*
X186205887Y-38690000D01*
X185404887Y-39960000D02*
X185404887Y-38444000D01*
X187485887Y-41915000D02*
X187485887Y-40085000D01*
X185364887Y-43561000D02*
X185364887Y-42040000D01*
X182240112Y-42475000D02*
X182740112Y-42475000D01*
X186805887Y-39960000D02*
X186805887Y-39099000D01*
X185524887Y-43536000D02*
X185524887Y-42040000D01*
X186045887Y-39960000D02*
X186045887Y-38618000D01*
X186325887Y-43247000D02*
X186325887Y-42040000D01*
X186405887Y-43200000D02*
X186405887Y-42040000D01*
X187005887Y-39960000D02*
X187005887Y-39301000D01*
X186085887Y-43365000D02*
X186085887Y-42040000D01*
X186885887Y-42826000D02*
X186885887Y-42040000D01*
X186485887Y-39960000D02*
X186485887Y-38851000D01*
X185724887Y-39960000D02*
X185724887Y-38509000D01*
X185284887Y-43569000D02*
X185284887Y-42040000D01*
X185084887Y-39960000D02*
X185084887Y-38420000D01*
X185044887Y-43580000D02*
X185044887Y-42040000D01*
X187645887Y-41284000D02*
X187645887Y-40716000D01*
X185124887Y-43579000D02*
X185124887Y-42040000D01*
X185124887Y-39960000D02*
X185124887Y-38421000D01*
X187325887Y-42251000D02*
X187325887Y-39749000D01*
X186245887Y-39960000D02*
X186245887Y-38710000D01*
X186845887Y-42864000D02*
X186845887Y-42040000D01*
X186365887Y-43224000D02*
X186365887Y-42040000D01*
X185204887Y-39960000D02*
X185204887Y-38424000D01*
X187045887Y-39960000D02*
X187045887Y-39347000D01*
X186685887Y-39960000D02*
X186685887Y-38996000D01*
X185364887Y-39960000D02*
X185364887Y-38439000D01*
X186125887Y-43348000D02*
X186125887Y-42040000D01*
X186765887Y-42937000D02*
X186765887Y-42040000D01*
X186725887Y-42971000D02*
X186725887Y-42040000D01*
X187445887Y-42011000D02*
X187445887Y-39989000D01*
X186765887Y-39960000D02*
X186765887Y-39063000D01*
X185524887Y-39960000D02*
X185524887Y-38464000D01*
X187365887Y-42178000D02*
X187365887Y-39822000D01*
X187405887Y-42098000D02*
X187405887Y-39902000D01*
X185965887Y-43414000D02*
X185965887Y-42040000D01*
X185084887Y-43580000D02*
X185084887Y-42040000D01*
X185925887Y-43428000D02*
X185925887Y-42040000D01*
X186965887Y-39960000D02*
X186965887Y-39257000D01*
X185644887Y-39960000D02*
X185644887Y-38489000D01*
X186845887Y-39960000D02*
X186845887Y-39136000D01*
X186445887Y-39960000D02*
X186445887Y-38825000D01*
X185845887Y-43455000D02*
X185845887Y-42040000D01*
X186405887Y-39960000D02*
X186405887Y-38800000D01*
X186525887Y-39960000D02*
X186525887Y-38878000D01*
X186525887Y-43122000D02*
X186525887Y-42040000D01*
X186965887Y-42743000D02*
X186965887Y-42040000D01*
X186245887Y-43290000D02*
X186245887Y-42040000D01*
X186565887Y-39960000D02*
X186565887Y-38905000D01*
X185444887Y-43550000D02*
X185444887Y-42040000D01*
X186685887Y-43004000D02*
X186685887Y-42040000D01*
X185164887Y-39960000D02*
X185164887Y-38422000D01*
X185484887Y-39960000D02*
X185484887Y-38457000D01*
X187605887Y-41518000D02*
X187605887Y-40482000D01*
X186885887Y-39960000D02*
X186885887Y-39174000D01*
X185284887Y-39960000D02*
X185284887Y-38431000D01*
X186925887Y-42785000D02*
X186925887Y-42040000D01*
X186645887Y-43035000D02*
X186645887Y-42040000D01*
X187664887Y-41000000D02*
G75*
G03*
X187664887Y-41000000I-2620000J0D01*
G01*
X199540000Y-119184888D02*
X201001000Y-119184888D01*
X196058000Y-119385888D02*
X197460000Y-119385888D01*
X199540000Y-119144888D02*
X201011000Y-119144888D01*
X197117000Y-120745888D02*
X199883000Y-120745888D01*
X199540000Y-118944888D02*
X201050000Y-118944888D01*
X195950000Y-118944888D02*
X197460000Y-118944888D01*
X196020000Y-119265888D02*
X197460000Y-119265888D01*
X199540000Y-119465888D02*
X200914000Y-119465888D01*
X196086000Y-119465888D02*
X197460000Y-119465888D01*
X199540000Y-119905888D02*
X200700000Y-119905888D01*
X199540000Y-119385888D02*
X200942000Y-119385888D01*
X195980000Y-119104888D02*
X197460000Y-119104888D01*
X196171000Y-119665888D02*
X197460000Y-119665888D01*
X199540000Y-118784888D02*
X201069000Y-118784888D01*
X196190000Y-119705888D02*
X197460000Y-119705888D01*
X197000000Y-120665888D02*
X200000000Y-120665888D01*
X196210000Y-119745888D02*
X197460000Y-119745888D01*
X199540000Y-118584888D02*
X201080000Y-118584888D01*
X199540000Y-120425888D02*
X200285000Y-120425888D01*
X195999000Y-119184888D02*
X197460000Y-119184888D01*
X199540000Y-119265888D02*
X200980000Y-119265888D01*
X196529000Y-120225888D02*
X197460000Y-120225888D01*
X199540000Y-119865888D02*
X200724000Y-119865888D01*
X199540000Y-118664888D02*
X201078000Y-118664888D01*
X199540000Y-119745888D02*
X200790000Y-119745888D01*
X196253000Y-119825888D02*
X197460000Y-119825888D01*
X197982000Y-121105888D02*
X199018000Y-121105888D01*
X197181000Y-120785888D02*
X199819000Y-120785888D01*
X199540000Y-118904888D02*
X201056000Y-118904888D01*
X199540000Y-118864888D02*
X201061000Y-118864888D01*
X199540000Y-119024888D02*
X201036000Y-119024888D01*
X199540000Y-120465888D02*
X200243000Y-120465888D01*
X196801000Y-120505888D02*
X197460000Y-120505888D01*
X197585000Y-120985888D02*
X199415000Y-120985888D01*
X195944000Y-118904888D02*
X197460000Y-118904888D01*
X195964000Y-119024888D02*
X197460000Y-119024888D01*
X199540000Y-119345888D02*
X200955000Y-119345888D01*
X199540000Y-120225888D02*
X200471000Y-120225888D01*
X197823000Y-121065888D02*
X199177000Y-121065888D01*
X197402000Y-120905888D02*
X199598000Y-120905888D01*
X197025000Y-115740113D02*
X197025000Y-116240113D01*
X196465000Y-120145888D02*
X197460000Y-120145888D01*
X196102000Y-119505888D02*
X197460000Y-119505888D01*
X199540000Y-119985888D02*
X200649000Y-119985888D01*
X196847000Y-120545888D02*
X197460000Y-120545888D01*
X195920000Y-118544888D02*
X197460000Y-118544888D01*
X196232000Y-119785888D02*
X197460000Y-119785888D01*
X199540000Y-119585888D02*
X200865000Y-119585888D01*
X198216000Y-121145888D02*
X198784000Y-121145888D01*
X195935000Y-118824888D02*
X197460000Y-118824888D01*
X197489000Y-120945888D02*
X199511000Y-120945888D01*
X196351000Y-119985888D02*
X197460000Y-119985888D01*
X199540000Y-120505888D02*
X200199000Y-120505888D01*
X195931000Y-118784888D02*
X197460000Y-118784888D01*
X197057000Y-120705888D02*
X199943000Y-120705888D01*
X199540000Y-119625888D02*
X200848000Y-119625888D01*
X195939000Y-118864888D02*
X197460000Y-118864888D01*
X196045000Y-119345888D02*
X197460000Y-119345888D01*
X199540000Y-119425888D02*
X200928000Y-119425888D01*
X199540000Y-119705888D02*
X200810000Y-119705888D01*
X196072000Y-119425888D02*
X197460000Y-119425888D01*
X195924000Y-118704888D02*
X197460000Y-118704888D01*
X196599000Y-120305888D02*
X197460000Y-120305888D01*
X199540000Y-118984888D02*
X201043000Y-118984888D01*
X199540000Y-119785888D02*
X200768000Y-119785888D01*
X199540000Y-118704888D02*
X201076000Y-118704888D01*
X197322000Y-120865888D02*
X199678000Y-120865888D01*
X199540000Y-118624888D02*
X201079000Y-118624888D01*
X196405000Y-120065888D02*
X197460000Y-120065888D01*
X196775000Y-115990113D02*
X197275000Y-115990113D01*
X199540000Y-119945888D02*
X200675000Y-119945888D01*
X196300000Y-119905888D02*
X197460000Y-119905888D01*
X196009000Y-119224888D02*
X197460000Y-119224888D01*
X196895000Y-120585888D02*
X200105000Y-120585888D01*
X199540000Y-120145888D02*
X200535000Y-120145888D01*
X199540000Y-119545888D02*
X200882000Y-119545888D01*
X196715000Y-120425888D02*
X197460000Y-120425888D01*
X195922000Y-118664888D02*
X197460000Y-118664888D01*
X199540000Y-120345888D02*
X200364000Y-120345888D01*
X199540000Y-120305888D02*
X200401000Y-120305888D01*
X199540000Y-118544888D02*
X201080000Y-118544888D01*
X199540000Y-119305888D02*
X200968000Y-119305888D01*
X199540000Y-119064888D02*
X201028000Y-119064888D01*
X196276000Y-119865888D02*
X197460000Y-119865888D01*
X196152000Y-119625888D02*
X197460000Y-119625888D01*
X199540000Y-120265888D02*
X200437000Y-120265888D01*
X195920000Y-118584888D02*
X197460000Y-118584888D01*
X199540000Y-120025888D02*
X200622000Y-120025888D01*
X199540000Y-120385888D02*
X200326000Y-120385888D01*
X196563000Y-120265888D02*
X197460000Y-120265888D01*
X196636000Y-120345888D02*
X197460000Y-120345888D01*
X199540000Y-118744888D02*
X201073000Y-118744888D01*
X196032000Y-119305888D02*
X197460000Y-119305888D01*
X199540000Y-119224888D02*
X200991000Y-119224888D01*
X196757000Y-120465888D02*
X197460000Y-120465888D01*
X199540000Y-120545888D02*
X200153000Y-120545888D01*
X199540000Y-118824888D02*
X201065000Y-118824888D01*
X195927000Y-118744888D02*
X197460000Y-118744888D01*
X197695000Y-121025888D02*
X199305000Y-121025888D01*
X196946000Y-120625888D02*
X200054000Y-120625888D01*
X196135000Y-119585888D02*
X197460000Y-119585888D01*
X199540000Y-120065888D02*
X200595000Y-120065888D01*
X199540000Y-120105888D02*
X200565000Y-120105888D01*
X195921000Y-118624888D02*
X197460000Y-118624888D01*
X196674000Y-120385888D02*
X197460000Y-120385888D01*
X195989000Y-119144888D02*
X197460000Y-119144888D01*
X195957000Y-118984888D02*
X197460000Y-118984888D01*
X199540000Y-119505888D02*
X200898000Y-119505888D01*
X196496000Y-120185888D02*
X197460000Y-120185888D01*
X199540000Y-119104888D02*
X201020000Y-119104888D01*
X196118000Y-119545888D02*
X197460000Y-119545888D01*
X196378000Y-120025888D02*
X197460000Y-120025888D01*
X195972000Y-119064888D02*
X197460000Y-119064888D01*
X197249000Y-120825888D02*
X199751000Y-120825888D01*
X196435000Y-120105888D02*
X197460000Y-120105888D01*
X199540000Y-120185888D02*
X200504000Y-120185888D01*
X199540000Y-119825888D02*
X200747000Y-119825888D01*
X196325000Y-119945888D02*
X197460000Y-119945888D01*
X199540000Y-119665888D02*
X200829000Y-119665888D01*
X201120000Y-118544888D02*
G75*
G03*
X201120000Y-118544888I-2620000J0D01*
G01*
X192540000Y-122005888D02*
X193898000Y-122005888D01*
X192540000Y-122285888D02*
X193768000Y-122285888D01*
X188999000Y-121684888D02*
X190460000Y-121684888D01*
X189020000Y-121765888D02*
X190460000Y-121765888D01*
X192540000Y-122245888D02*
X193790000Y-122245888D01*
X189086000Y-121965888D02*
X190460000Y-121965888D01*
X192540000Y-121925888D02*
X193928000Y-121925888D01*
X189118000Y-122045888D02*
X190460000Y-122045888D01*
X192540000Y-121444888D02*
X194050000Y-121444888D01*
X189847000Y-123045888D02*
X190460000Y-123045888D01*
X190695000Y-123525888D02*
X192305000Y-123525888D01*
X192540000Y-121684888D02*
X194001000Y-121684888D01*
X192540000Y-121564888D02*
X194028000Y-121564888D01*
X192540000Y-121284888D02*
X194069000Y-121284888D01*
X189190000Y-122205888D02*
X190460000Y-122205888D01*
X189946000Y-123125888D02*
X193054000Y-123125888D01*
X192540000Y-122325888D02*
X193747000Y-122325888D01*
X192540000Y-122925888D02*
X193285000Y-122925888D01*
X188924000Y-121204888D02*
X190460000Y-121204888D01*
X189378000Y-122525888D02*
X190460000Y-122525888D01*
X188950000Y-121444888D02*
X190460000Y-121444888D01*
X192540000Y-122405888D02*
X193700000Y-122405888D01*
X192540000Y-122845888D02*
X193364000Y-122845888D01*
X189895000Y-123085888D02*
X193105000Y-123085888D01*
X190057000Y-123205888D02*
X192943000Y-123205888D01*
X188964000Y-121524888D02*
X190460000Y-121524888D01*
X192540000Y-122685888D02*
X193504000Y-122685888D01*
X192540000Y-122805888D02*
X193401000Y-122805888D01*
X192540000Y-122605888D02*
X193565000Y-122605888D01*
X192540000Y-121204888D02*
X194076000Y-121204888D01*
X189636000Y-122845888D02*
X190460000Y-122845888D01*
X192540000Y-123045888D02*
X193153000Y-123045888D01*
X192540000Y-122765888D02*
X193437000Y-122765888D01*
X192540000Y-121524888D02*
X194036000Y-121524888D01*
X189300000Y-122405888D02*
X190460000Y-122405888D01*
X192540000Y-121885888D02*
X193942000Y-121885888D01*
X192540000Y-121724888D02*
X193991000Y-121724888D01*
X189009000Y-121724888D02*
X190460000Y-121724888D01*
X189674000Y-122885888D02*
X190460000Y-122885888D01*
X192540000Y-121765888D02*
X193980000Y-121765888D01*
X189276000Y-122365888D02*
X190460000Y-122365888D01*
X192540000Y-121644888D02*
X194011000Y-121644888D01*
X189072000Y-121925888D02*
X190460000Y-121925888D01*
X190025000Y-118240113D02*
X190025000Y-118740113D01*
X189032000Y-121805888D02*
X190460000Y-121805888D01*
X189171000Y-122165888D02*
X190460000Y-122165888D01*
X190117000Y-123245888D02*
X192883000Y-123245888D01*
X192540000Y-121164888D02*
X194078000Y-121164888D01*
X192540000Y-121244888D02*
X194073000Y-121244888D01*
X192540000Y-121324888D02*
X194065000Y-121324888D01*
X189599000Y-122805888D02*
X190460000Y-122805888D01*
X190402000Y-123405888D02*
X192598000Y-123405888D01*
X190982000Y-123605888D02*
X192018000Y-123605888D01*
X188927000Y-121244888D02*
X190460000Y-121244888D01*
X189232000Y-122285888D02*
X190460000Y-122285888D01*
X192540000Y-122125888D02*
X193848000Y-122125888D01*
X190489000Y-123445888D02*
X192511000Y-123445888D01*
X189405000Y-122565888D02*
X190460000Y-122565888D01*
X192540000Y-121604888D02*
X194020000Y-121604888D01*
X192540000Y-121044888D02*
X194080000Y-121044888D01*
X190249000Y-123325888D02*
X192751000Y-123325888D01*
X189715000Y-122925888D02*
X190460000Y-122925888D01*
X189058000Y-121885888D02*
X190460000Y-121885888D01*
X191216000Y-123645888D02*
X191784000Y-123645888D01*
X190181000Y-123285888D02*
X192819000Y-123285888D01*
X189529000Y-122725888D02*
X190460000Y-122725888D01*
X190585000Y-123485888D02*
X192415000Y-123485888D01*
X192540000Y-122645888D02*
X193535000Y-122645888D01*
X192540000Y-122205888D02*
X193810000Y-122205888D01*
X189465000Y-122645888D02*
X190460000Y-122645888D01*
X192540000Y-121404888D02*
X194056000Y-121404888D01*
X189757000Y-122965888D02*
X190460000Y-122965888D01*
X188920000Y-121044888D02*
X190460000Y-121044888D01*
X188935000Y-121324888D02*
X190460000Y-121324888D01*
X188980000Y-121604888D02*
X190460000Y-121604888D01*
X192540000Y-121124888D02*
X194079000Y-121124888D01*
X188939000Y-121364888D02*
X190460000Y-121364888D01*
X192540000Y-122885888D02*
X193326000Y-122885888D01*
X192540000Y-122525888D02*
X193622000Y-122525888D01*
X189210000Y-122245888D02*
X190460000Y-122245888D01*
X189135000Y-122085888D02*
X190460000Y-122085888D01*
X189253000Y-122325888D02*
X190460000Y-122325888D01*
X192540000Y-122445888D02*
X193675000Y-122445888D01*
X192540000Y-123005888D02*
X193199000Y-123005888D01*
X192540000Y-122485888D02*
X193649000Y-122485888D01*
X188931000Y-121284888D02*
X190460000Y-121284888D01*
X192540000Y-122165888D02*
X193829000Y-122165888D01*
X189102000Y-122005888D02*
X190460000Y-122005888D01*
X192540000Y-122085888D02*
X193865000Y-122085888D01*
X188920000Y-121084888D02*
X190460000Y-121084888D01*
X188944000Y-121404888D02*
X190460000Y-121404888D01*
X188957000Y-121484888D02*
X190460000Y-121484888D01*
X189775000Y-118490113D02*
X190275000Y-118490113D01*
X188921000Y-121124888D02*
X190460000Y-121124888D01*
X189563000Y-122765888D02*
X190460000Y-122765888D01*
X190000000Y-123165888D02*
X193000000Y-123165888D01*
X192540000Y-121364888D02*
X194061000Y-121364888D01*
X192540000Y-122565888D02*
X193595000Y-122565888D01*
X190322000Y-123365888D02*
X192678000Y-123365888D01*
X189325000Y-122445888D02*
X190460000Y-122445888D01*
X192540000Y-122045888D02*
X193882000Y-122045888D01*
X188922000Y-121164888D02*
X190460000Y-121164888D01*
X189351000Y-122485888D02*
X190460000Y-122485888D01*
X192540000Y-121845888D02*
X193955000Y-121845888D01*
X189045000Y-121845888D02*
X190460000Y-121845888D01*
X188989000Y-121644888D02*
X190460000Y-121644888D01*
X189801000Y-123005888D02*
X190460000Y-123005888D01*
X192540000Y-122965888D02*
X193243000Y-122965888D01*
X189152000Y-122125888D02*
X190460000Y-122125888D01*
X192540000Y-121805888D02*
X193968000Y-121805888D01*
X192540000Y-122365888D02*
X193724000Y-122365888D01*
X189496000Y-122685888D02*
X190460000Y-122685888D01*
X192540000Y-121965888D02*
X193914000Y-121965888D01*
X192540000Y-122725888D02*
X193471000Y-122725888D01*
X188972000Y-121564888D02*
X190460000Y-121564888D01*
X192540000Y-121484888D02*
X194043000Y-121484888D01*
X192540000Y-121084888D02*
X194080000Y-121084888D01*
X189435000Y-122605888D02*
X190460000Y-122605888D01*
X190823000Y-123565888D02*
X192177000Y-123565888D01*
X194120000Y-121044888D02*
G75*
G03*
X194120000Y-121044888I-2620000J0D01*
G01*
X165005000Y-127095000D02*
X162405000Y-127095000D01*
X165005000Y-129695000D02*
X165005000Y-127095000D01*
X167605000Y-139915000D02*
X162405000Y-139915000D01*
X162405000Y-127095000D02*
X162405000Y-139915000D01*
X167605000Y-127095000D02*
X166275000Y-127095000D01*
X167605000Y-129695000D02*
X167605000Y-139915000D01*
X167605000Y-129695000D02*
X165005000Y-129695000D01*
X167605000Y-128425000D02*
X167605000Y-127095000D01*
X173540000Y-117265887D02*
X174437000Y-117265887D01*
X173540000Y-116665887D02*
X174829000Y-116665887D01*
X173540000Y-117185887D02*
X174504000Y-117185887D01*
X170086000Y-116465887D02*
X171460000Y-116465887D01*
X171025000Y-112740112D02*
X171025000Y-113240112D01*
X173540000Y-117345887D02*
X174364000Y-117345887D01*
X170801000Y-117505887D02*
X171460000Y-117505887D01*
X170529000Y-117225887D02*
X171460000Y-117225887D01*
X173540000Y-115864887D02*
X175061000Y-115864887D01*
X173540000Y-115984887D02*
X175043000Y-115984887D01*
X169920000Y-115544887D02*
X171460000Y-115544887D01*
X173540000Y-116144887D02*
X175011000Y-116144887D01*
X171000000Y-117665887D02*
X174000000Y-117665887D01*
X169999000Y-116184887D02*
X171460000Y-116184887D01*
X170072000Y-116425887D02*
X171460000Y-116425887D01*
X170020000Y-116265887D02*
X171460000Y-116265887D01*
X170351000Y-116985887D02*
X171460000Y-116985887D01*
X170465000Y-117145887D02*
X171460000Y-117145887D01*
X169950000Y-115944887D02*
X171460000Y-115944887D01*
X173540000Y-117545887D02*
X174153000Y-117545887D01*
X173540000Y-115704887D02*
X175076000Y-115704887D01*
X173540000Y-117385887D02*
X174326000Y-117385887D01*
X169935000Y-115824887D02*
X171460000Y-115824887D01*
X170757000Y-117465887D02*
X171460000Y-117465887D01*
X169931000Y-115784887D02*
X171460000Y-115784887D01*
X173540000Y-115784887D02*
X175069000Y-115784887D01*
X173540000Y-116745887D02*
X174790000Y-116745887D01*
X173540000Y-117105887D02*
X174565000Y-117105887D01*
X173540000Y-117065887D02*
X174595000Y-117065887D01*
X170032000Y-116305887D02*
X171460000Y-116305887D01*
X173540000Y-116064887D02*
X175028000Y-116064887D01*
X173540000Y-116465887D02*
X174914000Y-116465887D01*
X173540000Y-116305887D02*
X174968000Y-116305887D01*
X173540000Y-115944887D02*
X175050000Y-115944887D01*
X169922000Y-115664887D02*
X171460000Y-115664887D01*
X169989000Y-116144887D02*
X171460000Y-116144887D01*
X171489000Y-117945887D02*
X173511000Y-117945887D01*
X170405000Y-117065887D02*
X171460000Y-117065887D01*
X170378000Y-117025887D02*
X171460000Y-117025887D01*
X170895000Y-117585887D02*
X174105000Y-117585887D01*
X169920000Y-115584887D02*
X171460000Y-115584887D01*
X170674000Y-117385887D02*
X171460000Y-117385887D01*
X173540000Y-116865887D02*
X174724000Y-116865887D01*
X169939000Y-115864887D02*
X171460000Y-115864887D01*
X170300000Y-116905887D02*
X171460000Y-116905887D01*
X173540000Y-116224887D02*
X174991000Y-116224887D01*
X173540000Y-117505887D02*
X174199000Y-117505887D01*
X171585000Y-117985887D02*
X173415000Y-117985887D01*
X173540000Y-117305887D02*
X174401000Y-117305887D01*
X173540000Y-115544887D02*
X175080000Y-115544887D01*
X169957000Y-115984887D02*
X171460000Y-115984887D01*
X173540000Y-116265887D02*
X174980000Y-116265887D01*
X170171000Y-116665887D02*
X171460000Y-116665887D01*
X169921000Y-115624887D02*
X171460000Y-115624887D01*
X170102000Y-116505887D02*
X171460000Y-116505887D01*
X170190000Y-116705887D02*
X171460000Y-116705887D01*
X171249000Y-117825887D02*
X173751000Y-117825887D01*
X169924000Y-115704887D02*
X171460000Y-115704887D01*
X170636000Y-117345887D02*
X171460000Y-117345887D01*
X171982000Y-118105887D02*
X173018000Y-118105887D01*
X169980000Y-116104887D02*
X171460000Y-116104887D01*
X170009000Y-116224887D02*
X171460000Y-116224887D01*
X170715000Y-117425887D02*
X171460000Y-117425887D01*
X170435000Y-117105887D02*
X171460000Y-117105887D01*
X170276000Y-116865887D02*
X171460000Y-116865887D01*
X173540000Y-117025887D02*
X174622000Y-117025887D01*
X173540000Y-116625887D02*
X174848000Y-116625887D01*
X170847000Y-117545887D02*
X171460000Y-117545887D01*
X169972000Y-116064887D02*
X171460000Y-116064887D01*
X169964000Y-116024887D02*
X171460000Y-116024887D01*
X173540000Y-117225887D02*
X174471000Y-117225887D01*
X173540000Y-116585887D02*
X174865000Y-116585887D01*
X171402000Y-117905887D02*
X173598000Y-117905887D01*
X173540000Y-115584887D02*
X175080000Y-115584887D01*
X173540000Y-117465887D02*
X174243000Y-117465887D01*
X170253000Y-116825887D02*
X171460000Y-116825887D01*
X171322000Y-117865887D02*
X173678000Y-117865887D01*
X170325000Y-116945887D02*
X171460000Y-116945887D01*
X173540000Y-116985887D02*
X174649000Y-116985887D01*
X173540000Y-115904887D02*
X175056000Y-115904887D01*
X173540000Y-116545887D02*
X174882000Y-116545887D01*
X171057000Y-117705887D02*
X173943000Y-117705887D01*
X170946000Y-117625887D02*
X174054000Y-117625887D01*
X171695000Y-118025887D02*
X173305000Y-118025887D01*
X173540000Y-116705887D02*
X174810000Y-116705887D01*
X173540000Y-116425887D02*
X174928000Y-116425887D01*
X171181000Y-117785887D02*
X173819000Y-117785887D01*
X173540000Y-116945887D02*
X174675000Y-116945887D01*
X170232000Y-116785887D02*
X171460000Y-116785887D01*
X173540000Y-116905887D02*
X174700000Y-116905887D01*
X170210000Y-116745887D02*
X171460000Y-116745887D01*
X173540000Y-116024887D02*
X175036000Y-116024887D01*
X173540000Y-116505887D02*
X174898000Y-116505887D01*
X170563000Y-117265887D02*
X171460000Y-117265887D01*
X171117000Y-117745887D02*
X173883000Y-117745887D01*
X170058000Y-116385887D02*
X171460000Y-116385887D01*
X173540000Y-116345887D02*
X174955000Y-116345887D01*
X170045000Y-116345887D02*
X171460000Y-116345887D01*
X173540000Y-115624887D02*
X175079000Y-115624887D01*
X171823000Y-118065887D02*
X173177000Y-118065887D01*
X173540000Y-117145887D02*
X174535000Y-117145887D01*
X173540000Y-116385887D02*
X174942000Y-116385887D01*
X173540000Y-115824887D02*
X175065000Y-115824887D01*
X173540000Y-116785887D02*
X174768000Y-116785887D01*
X173540000Y-115664887D02*
X175078000Y-115664887D01*
X172216000Y-118145887D02*
X172784000Y-118145887D01*
X169944000Y-115904887D02*
X171460000Y-115904887D01*
X173540000Y-115744887D02*
X175073000Y-115744887D01*
X173540000Y-117425887D02*
X174285000Y-117425887D01*
X170118000Y-116545887D02*
X171460000Y-116545887D01*
X169927000Y-115744887D02*
X171460000Y-115744887D01*
X170496000Y-117185887D02*
X171460000Y-117185887D01*
X170135000Y-116585887D02*
X171460000Y-116585887D01*
X170599000Y-117305887D02*
X171460000Y-117305887D01*
X173540000Y-116104887D02*
X175020000Y-116104887D01*
X173540000Y-116825887D02*
X174747000Y-116825887D01*
X170775000Y-112990112D02*
X171275000Y-112990112D01*
X170152000Y-116625887D02*
X171460000Y-116625887D01*
X173540000Y-116184887D02*
X175001000Y-116184887D01*
X175120000Y-115544887D02*
G75*
G03*
X175120000Y-115544887I-2620000J0D01*
G01*
X194325888Y-65247000D02*
X194325888Y-64040000D01*
X194445888Y-61960000D02*
X194445888Y-60825000D01*
X195165888Y-64500000D02*
X195165888Y-61500000D01*
X194805888Y-61960000D02*
X194805888Y-61099000D01*
X193885888Y-65442000D02*
X193885888Y-64040000D01*
X195005888Y-64699000D02*
X195005888Y-64040000D01*
X193604888Y-61960000D02*
X193604888Y-60480000D01*
X193284888Y-61960000D02*
X193284888Y-60431000D01*
X194765888Y-61960000D02*
X194765888Y-61063000D01*
X195485888Y-63915000D02*
X195485888Y-62085000D01*
X194445888Y-65175000D02*
X194445888Y-64040000D01*
X194925888Y-64785000D02*
X194925888Y-64040000D01*
X194125888Y-61960000D02*
X194125888Y-60652000D01*
X193805888Y-65468000D02*
X193805888Y-64040000D01*
X193885888Y-61960000D02*
X193885888Y-60558000D01*
X193805888Y-61960000D02*
X193805888Y-60532000D01*
X195525888Y-63805000D02*
X195525888Y-62195000D01*
X194325888Y-61960000D02*
X194325888Y-60753000D01*
X195045888Y-61960000D02*
X195045888Y-61347000D01*
X194685888Y-65004000D02*
X194685888Y-64040000D01*
X193965888Y-65414000D02*
X193965888Y-64040000D01*
X195445888Y-64011000D02*
X195445888Y-61989000D01*
X194645888Y-61960000D02*
X194645888Y-60965000D01*
X193204888Y-65576000D02*
X193204888Y-64040000D01*
X195005888Y-61960000D02*
X195005888Y-61301000D01*
X193845888Y-61960000D02*
X193845888Y-60545000D01*
X194805888Y-64901000D02*
X194805888Y-64040000D01*
X193244888Y-61960000D02*
X193244888Y-60427000D01*
X190490113Y-64725000D02*
X190490113Y-64225000D01*
X193404888Y-65556000D02*
X193404888Y-64040000D01*
X194125888Y-65348000D02*
X194125888Y-64040000D01*
X194285888Y-65268000D02*
X194285888Y-64040000D01*
X194205888Y-61960000D02*
X194205888Y-60690000D01*
X193124888Y-61960000D02*
X193124888Y-60421000D01*
X193044888Y-61960000D02*
X193044888Y-60420000D01*
X195045888Y-64653000D02*
X195045888Y-64040000D01*
X193164888Y-61960000D02*
X193164888Y-60422000D01*
X194365888Y-61960000D02*
X194365888Y-60776000D01*
X193765888Y-61960000D02*
X193765888Y-60520000D01*
X193644888Y-61960000D02*
X193644888Y-60489000D01*
X194725888Y-64971000D02*
X194725888Y-64040000D01*
X193604888Y-65520000D02*
X193604888Y-64040000D01*
X195285888Y-64319000D02*
X195285888Y-61681000D01*
X195085888Y-64605000D02*
X195085888Y-61395000D01*
X194405888Y-61960000D02*
X194405888Y-60800000D01*
X194885888Y-64826000D02*
X194885888Y-64040000D01*
X194045888Y-65382000D02*
X194045888Y-64040000D01*
X193364888Y-65561000D02*
X193364888Y-64040000D01*
X193164888Y-65578000D02*
X193164888Y-64040000D01*
X194725888Y-61960000D02*
X194725888Y-61029000D01*
X194165888Y-61960000D02*
X194165888Y-60671000D01*
X193204888Y-61960000D02*
X193204888Y-60424000D01*
X194365888Y-65224000D02*
X194365888Y-64040000D01*
X194605888Y-61960000D02*
X194605888Y-60935000D01*
X193684888Y-61960000D02*
X193684888Y-60499000D01*
X194965888Y-61960000D02*
X194965888Y-61257000D01*
X194085888Y-61960000D02*
X194085888Y-60635000D01*
X194925888Y-61960000D02*
X194925888Y-61215000D01*
X195565888Y-63677000D02*
X195565888Y-62323000D01*
X194605888Y-65065000D02*
X194605888Y-64040000D01*
X195205888Y-64443000D02*
X195205888Y-61557000D01*
X193564888Y-61960000D02*
X193564888Y-60472000D01*
X193084888Y-65580000D02*
X193084888Y-64040000D01*
X194845888Y-61960000D02*
X194845888Y-61136000D01*
X194245888Y-61960000D02*
X194245888Y-60710000D01*
X193404888Y-61960000D02*
X193404888Y-60444000D01*
X194565888Y-65095000D02*
X194565888Y-64040000D01*
X194565888Y-61960000D02*
X194565888Y-60905000D01*
X194685888Y-61960000D02*
X194685888Y-60996000D01*
X193925888Y-61960000D02*
X193925888Y-60572000D01*
X194405888Y-65200000D02*
X194405888Y-64040000D01*
X193444888Y-61960000D02*
X193444888Y-60450000D01*
X194045888Y-61960000D02*
X194045888Y-60618000D01*
X193765888Y-65480000D02*
X193765888Y-64040000D01*
X194525888Y-61960000D02*
X194525888Y-60878000D01*
X194845888Y-64864000D02*
X194845888Y-64040000D01*
X193564888Y-65528000D02*
X193564888Y-64040000D01*
X194645888Y-65035000D02*
X194645888Y-64040000D01*
X195245888Y-64383000D02*
X195245888Y-61617000D01*
X193244888Y-65573000D02*
X193244888Y-64040000D01*
X190240113Y-64475000D02*
X190740113Y-64475000D01*
X193965888Y-61960000D02*
X193965888Y-60586000D01*
X193364888Y-61960000D02*
X193364888Y-60439000D01*
X195125888Y-64554000D02*
X195125888Y-61446000D01*
X193724888Y-61960000D02*
X193724888Y-60509000D01*
X193845888Y-65455000D02*
X193845888Y-64040000D01*
X195605888Y-63518000D02*
X195605888Y-62482000D01*
X193724888Y-65491000D02*
X193724888Y-64040000D01*
X194765888Y-64937000D02*
X194765888Y-64040000D01*
X193284888Y-65569000D02*
X193284888Y-64040000D01*
X193324888Y-65565000D02*
X193324888Y-64040000D01*
X193324888Y-61960000D02*
X193324888Y-60435000D01*
X193484888Y-61960000D02*
X193484888Y-60457000D01*
X193524888Y-61960000D02*
X193524888Y-60464000D01*
X194965888Y-64743000D02*
X194965888Y-64040000D01*
X194205888Y-65310000D02*
X194205888Y-64040000D01*
X193644888Y-65511000D02*
X193644888Y-64040000D01*
X193084888Y-61960000D02*
X193084888Y-60420000D01*
X194485888Y-61960000D02*
X194485888Y-60851000D01*
X194005888Y-65398000D02*
X194005888Y-64040000D01*
X194885888Y-61960000D02*
X194885888Y-61174000D01*
X193484888Y-65543000D02*
X193484888Y-64040000D01*
X193044888Y-65580000D02*
X193044888Y-64040000D01*
X195325888Y-64251000D02*
X195325888Y-61749000D01*
X193684888Y-65501000D02*
X193684888Y-64040000D01*
X194285888Y-61960000D02*
X194285888Y-60732000D01*
X194245888Y-65290000D02*
X194245888Y-64040000D01*
X195365888Y-64178000D02*
X195365888Y-61822000D01*
X193124888Y-65579000D02*
X193124888Y-64040000D01*
X193524888Y-65536000D02*
X193524888Y-64040000D01*
X194165888Y-65329000D02*
X194165888Y-64040000D01*
X193444888Y-65550000D02*
X193444888Y-64040000D01*
X194085888Y-65365000D02*
X194085888Y-64040000D01*
X194485888Y-65149000D02*
X194485888Y-64040000D01*
X194005888Y-61960000D02*
X194005888Y-60602000D01*
X194525888Y-65122000D02*
X194525888Y-64040000D01*
X195645888Y-63284000D02*
X195645888Y-62716000D01*
X195405888Y-64098000D02*
X195405888Y-61902000D01*
X193925888Y-65428000D02*
X193925888Y-64040000D01*
X195664888Y-63000000D02*
G75*
G03*
X195664888Y-63000000I-2620000J0D01*
G01*
%LPC*%
D13*
X196000000Y-102080000D03*
D14*
X196000000Y-91920000D03*
D15*
X169100000Y-79500000D03*
D16*
X173000000Y-85400000D03*
D17*
X180030000Y-83530000D03*
D16*
X176000000Y-72600000D03*
D18*
X181900000Y-76500000D03*
D13*
X171000000Y-137580000D03*
D14*
X171000000Y-127420000D03*
D19*
X198500000Y-52000000D03*
D20*
X198500000Y-54540000D03*
X198500000Y-57080000D03*
X198500000Y-59620000D03*
D21*
X185860000Y-113770000D03*
D22*
X185860000Y-112500000D03*
X185860000Y-111230000D03*
D19*
X198500000Y-65500000D03*
D20*
X198500000Y-68040000D03*
D13*
X167500000Y-111840000D03*
D14*
X167500000Y-122000000D03*
D21*
X185860000Y-119770000D03*
D22*
X185860000Y-118500000D03*
X185860000Y-117230000D03*
D13*
X174660000Y-34500000D03*
D14*
X164500000Y-34500000D03*
D13*
X196000000Y-104500000D03*
D14*
X196000000Y-114660000D03*
D13*
X199500000Y-112080000D03*
D14*
X199500000Y-101920000D03*
D15*
X186100000Y-79500000D03*
D16*
X190000000Y-85400000D03*
D17*
X197030000Y-83530000D03*
D16*
X193000000Y-72600000D03*
D18*
X198900000Y-76500000D03*
D23*
X180000000Y-136000000D03*
D13*
X174500000Y-60000000D03*
X179500000Y-60000000D03*
X174660000Y-42000000D03*
D14*
X164500000Y-42000000D03*
D13*
X199580000Y-34500000D03*
D14*
X189420000Y-34500000D03*
D21*
X178360000Y-113770000D03*
D22*
X178360000Y-112500000D03*
X178360000Y-111230000D03*
D13*
X169500000Y-103160000D03*
D14*
X169500000Y-93000000D03*
D21*
X178360000Y-119770000D03*
D22*
X178360000Y-118500000D03*
X178360000Y-117230000D03*
D13*
X199580000Y-42500000D03*
D14*
X189420000Y-42500000D03*
D19*
X169500000Y-90000000D03*
D20*
X172040000Y-90000000D03*
X174580000Y-90000000D03*
X177120000Y-90000000D03*
D13*
X180000000Y-103160000D03*
D14*
X180000000Y-93000000D03*
D13*
X176500000Y-93000000D03*
D14*
X176500000Y-103160000D03*
D13*
X178000000Y-46000000D03*
X183000000Y-46000000D03*
D24*
X182500000Y-56800000D03*
D14*
X182500000Y-54260000D03*
X182500000Y-51720000D03*
X182500000Y-49180000D03*
X174880000Y-49180000D03*
X174880000Y-51720000D03*
X174880000Y-54260000D03*
X174880000Y-56800000D03*
D13*
X173000000Y-95580000D03*
X173000000Y-100580000D03*
X174500000Y-137580000D03*
D14*
X174500000Y-127420000D03*
D13*
X174660000Y-45500000D03*
D14*
X164500000Y-45500000D03*
D13*
X185420000Y-58000000D03*
D14*
X195580000Y-58000000D03*
D13*
X163500000Y-111840000D03*
D14*
X163500000Y-122000000D03*
D13*
X191250000Y-93750000D03*
X186250000Y-93750000D03*
X183250000Y-107750000D03*
X188250000Y-107750000D03*
X174660000Y-38000000D03*
D14*
X164500000Y-38000000D03*
D23*
X173000000Y-66500000D03*
D13*
X195580000Y-55000000D03*
D14*
X185420000Y-55000000D03*
D24*
X191050000Y-104550000D03*
D14*
X191050000Y-102010000D03*
X191050000Y-99470000D03*
X191050000Y-96930000D03*
X183430000Y-96930000D03*
X183430000Y-99470000D03*
X183430000Y-102010000D03*
X183430000Y-104550000D03*
D19*
X179500000Y-106500000D03*
D20*
X176960000Y-106500000D03*
D13*
X199500000Y-99500000D03*
X199500000Y-94500000D03*
D15*
X186100000Y-133500000D03*
D16*
X190000000Y-139400000D03*
D17*
X197030000Y-137530000D03*
D16*
X193000000Y-126600000D03*
D18*
X198900000Y-130500000D03*
D24*
X188544887Y-68000000D03*
D13*
X190544887Y-68000000D03*
D24*
X184000000Y-34500000D03*
D13*
X186000000Y-34500000D03*
D24*
X165000000Y-98955112D03*
D13*
X165000000Y-96955112D03*
D24*
X184044887Y-41000000D03*
D13*
X186044887Y-41000000D03*
D24*
X198500000Y-117544888D03*
D13*
X198500000Y-119544888D03*
D24*
X191500000Y-120044888D03*
D13*
X191500000Y-122044888D03*
D19*
X166275000Y-128425000D03*
D20*
X163735000Y-128425000D03*
X166275000Y-130965000D03*
X163735000Y-130965000D03*
X166275000Y-133505000D03*
X163735000Y-133505000D03*
X166275000Y-136045000D03*
X163735000Y-136045000D03*
X166275000Y-138585000D03*
X163735000Y-138585000D03*
D24*
X172500000Y-114544887D03*
D13*
X172500000Y-116544887D03*
D24*
X192044888Y-63000000D03*
D13*
X194044888Y-63000000D03*
M02*
