G04 #@! TF.GenerationSoftware,KiCad,Pcbnew,(6.0.1)*
G04 #@! TF.CreationDate,2022-09-12T17:21:21+02:00*
G04 #@! TF.ProjectId,Output-mixer,4f757470-7574-42d6-9d69-7865722e6b69,rev?*
G04 #@! TF.SameCoordinates,Original*
G04 #@! TF.FileFunction,Copper,L1,Top*
G04 #@! TF.FilePolarity,Positive*
%FSLAX46Y46*%
G04 Gerber Fmt 4.6, Leading zero omitted, Abs format (unit mm)*
G04 Created by KiCad (PCBNEW (6.0.1)) date 2022-09-12 17:21:21*
%MOMM*%
%LPD*%
G01*
G04 APERTURE LIST*
G04 #@! TA.AperFunction,Profile*
%ADD10C,0.050000*%
G04 #@! TD*
G04 #@! TA.AperFunction,ComponentPad*
%ADD11O,6.700000X4.200000*%
G04 #@! TD*
G04 #@! TA.AperFunction,ViaPad*
%ADD12C,8.500000*%
G04 #@! TD*
G04 #@! TA.AperFunction,ViaPad*
%ADD13C,8.000000*%
G04 #@! TD*
G04 #@! TA.AperFunction,ViaPad*
%ADD14C,15.000000*%
G04 #@! TD*
G04 APERTURE END LIST*
D10*
X33625000Y-34550000D02*
X33625000Y-162550000D01*
X33625000Y-34550000D02*
X168625000Y-34550000D01*
X168625000Y-34550000D02*
X168625000Y-162550000D01*
X168625000Y-162550000D02*
X33625000Y-162550000D01*
D11*
X153625000Y-159550000D03*
X48625000Y-159550000D03*
X153625000Y-37550000D03*
X48625000Y-37550000D03*
D12*
X111125000Y-70550000D03*
X111125000Y-52050000D03*
D13*
X38595000Y-107550000D03*
X48595000Y-126050000D03*
X38595000Y-70550000D03*
X60125000Y-52050000D03*
D12*
X152625000Y-68825000D03*
X159625000Y-124300000D03*
D13*
X60125000Y-89050000D03*
D12*
X111125000Y-107550000D03*
X111125000Y-89050000D03*
X78400000Y-70550000D03*
D13*
X38595000Y-144550000D03*
D12*
X78400000Y-52050000D03*
D13*
X48595000Y-144550000D03*
D14*
X142625000Y-91550000D03*
D12*
X78400000Y-126050000D03*
D13*
X38595000Y-126050000D03*
D12*
X111125000Y-144550000D03*
X78400000Y-107550000D03*
D13*
X48595000Y-70550000D03*
X158625000Y-51550000D03*
X60095000Y-71050000D03*
D12*
X111125000Y-126050000D03*
X78400000Y-89050000D03*
D13*
X60125000Y-107550000D03*
X38595000Y-52050000D03*
X146625000Y-51550000D03*
D14*
X159625000Y-145550000D03*
D13*
X38595000Y-89050000D03*
X48595000Y-107550000D03*
X48595000Y-52050000D03*
X60125000Y-126050000D03*
D14*
X159625000Y-91550000D03*
D13*
X48595000Y-89050000D03*
X60125000Y-144550000D03*
D12*
X78400000Y-144550000D03*
M02*
