%FSLAX45Y45*%
G04 Gerber Fmt 4.5, Leading zero omitted, Abs format (unit mm)*
G04 Created by KiCad (PCBNEW (6.0.1)) date 2022-09-12 08:19:55*
%MOMM*%
%LPD*%
G01*
G04 APERTURE LIST*
%TA.AperFunction,Profile*%
%ADD10C,0.050000*%
%TD*%
%ADD11C,0.200000*%
%ADD12C,0.040000*%
%ADD13C,0.075000*%
%ADD14C,0.080000*%
%ADD15C,0.100000*%
%ADD16C,0.122000*%
%ADD17C,0.142000*%
%ADD18C,0.143000*%
G04 APERTURE END LIST*
D10*
X7350000Y-3100000D02*
X19350000Y-3100000D01*
X19350000Y-3100000D02*
X19350000Y-14100000D01*
X7350000Y-3100000D02*
X7350000Y-14100000D01*
X7350000Y-14100000D02*
X19350000Y-14100000D01*
D11*
D12*
X10630000Y-9280000D02*
X10670000Y-9320000D01*
X10670000Y-9280000D02*
X10630000Y-9320000D01*
X10730000Y-8880000D02*
X10770000Y-8920000D01*
X10770000Y-8880000D02*
X10730000Y-8920000D01*
X10852002Y-8652002D02*
X10892002Y-8692002D01*
X10892002Y-8652002D02*
X10852002Y-8692002D01*
X11480000Y-10455000D02*
X11520000Y-10495000D01*
X11520000Y-10455000D02*
X11480000Y-10495000D01*
D13*
X8201500Y-9373000D02*
G75*
G03*
X8201500Y-9373000I-37500J0D01*
G01*
X8201500Y-9500000D02*
G75*
G03*
X8201500Y-9500000I-37500J0D01*
G01*
X8201500Y-9627000D02*
G75*
G03*
X8201500Y-9627000I-37500J0D01*
G01*
X11201500Y-9373000D02*
G75*
G03*
X11201500Y-9373000I-37500J0D01*
G01*
X11201500Y-9500000D02*
G75*
G03*
X11201500Y-9500000I-37500J0D01*
G01*
X11201500Y-9627000D02*
G75*
G03*
X11201500Y-9627000I-37500J0D01*
G01*
X14201500Y-9373000D02*
G75*
G03*
X14201500Y-9373000I-37500J0D01*
G01*
X14201500Y-9500000D02*
G75*
G03*
X14201500Y-9500000I-37500J0D01*
G01*
X14201500Y-9627000D02*
G75*
G03*
X14201500Y-9627000I-37500J0D01*
G01*
X17187500Y-9400000D02*
G75*
G03*
X17187500Y-9400000I-37500J0D01*
G01*
X17187500Y-9527000D02*
G75*
G03*
X17187500Y-9527000I-37500J0D01*
G01*
X17187500Y-9654000D02*
G75*
G03*
X17187500Y-9654000I-37500J0D01*
G01*
D14*
X8150000Y-7260000D02*
X8150000Y-7340000D01*
X8110000Y-7300000D02*
X8190000Y-7300000D01*
X8150000Y-7760000D02*
X8150000Y-7840000D01*
X8110000Y-7800000D02*
X8190000Y-7800000D01*
X8334000Y-8910000D02*
X8334000Y-8990000D01*
X8294000Y-8950000D02*
X8374000Y-8950000D01*
X8334000Y-10010000D02*
X8334000Y-10090000D01*
X8294000Y-10050000D02*
X8374000Y-10050000D01*
X9350000Y-8910000D02*
X9350000Y-8990000D01*
X9310000Y-8950000D02*
X9390000Y-8950000D01*
X9350000Y-10010000D02*
X9350000Y-10090000D01*
X9310000Y-10050000D02*
X9390000Y-10050000D01*
X9700000Y-10952000D02*
X9700000Y-11032000D01*
X9660000Y-10992000D02*
X9740000Y-10992000D01*
X9700000Y-11968000D02*
X9700000Y-12048000D01*
X9660000Y-12008000D02*
X9740000Y-12008000D01*
X11000000Y-10952000D02*
X11000000Y-11032000D01*
X10960000Y-10992000D02*
X11040000Y-10992000D01*
X11000000Y-11968000D02*
X11000000Y-12048000D01*
X10960000Y-12008000D02*
X11040000Y-12008000D01*
X11150000Y-7260000D02*
X11150000Y-7340000D01*
X11110000Y-7300000D02*
X11190000Y-7300000D01*
X11150000Y-7760000D02*
X11150000Y-7840000D01*
X11110000Y-7800000D02*
X11190000Y-7800000D01*
X11334000Y-8910000D02*
X11334000Y-8990000D01*
X11294000Y-8950000D02*
X11374000Y-8950000D01*
X11334000Y-10010000D02*
X11334000Y-10090000D01*
X11294000Y-10050000D02*
X11374000Y-10050000D01*
X12350000Y-8910000D02*
X12350000Y-8990000D01*
X12310000Y-8950000D02*
X12390000Y-8950000D01*
X12350000Y-10010000D02*
X12350000Y-10090000D01*
X12310000Y-10050000D02*
X12390000Y-10050000D01*
X12854489Y-11510000D02*
X12854489Y-11590000D01*
X12814489Y-11550000D02*
X12894489Y-11550000D01*
X12970000Y-12147500D02*
X12970000Y-12227500D01*
X12930000Y-12187500D02*
X13010000Y-12187500D01*
X12970000Y-12401500D02*
X12970000Y-12481500D01*
X12930000Y-12441500D02*
X13010000Y-12441500D01*
X12970000Y-12655500D02*
X12970000Y-12735500D01*
X12930000Y-12695500D02*
X13010000Y-12695500D01*
X12970000Y-12909500D02*
X12970000Y-12989500D01*
X12930000Y-12949500D02*
X13010000Y-12949500D01*
X12970000Y-13163500D02*
X12970000Y-13243500D01*
X12930000Y-13203500D02*
X13010000Y-13203500D01*
X12970000Y-13417500D02*
X12970000Y-13497500D01*
X12930000Y-13457500D02*
X13010000Y-13457500D01*
X12970000Y-13671500D02*
X12970000Y-13751500D01*
X12930000Y-13711500D02*
X13010000Y-13711500D01*
X13054489Y-11510000D02*
X13054489Y-11590000D01*
X13014489Y-11550000D02*
X13094489Y-11550000D01*
X13150000Y-8552000D02*
X13150000Y-8632000D01*
X13110000Y-8592000D02*
X13190000Y-8592000D01*
X13150000Y-9568000D02*
X13150000Y-9648000D01*
X13110000Y-9608000D02*
X13190000Y-9608000D01*
X13500000Y-8552000D02*
X13500000Y-8632000D01*
X13460000Y-8592000D02*
X13540000Y-8592000D01*
X13500000Y-9568000D02*
X13500000Y-9648000D01*
X13460000Y-9608000D02*
X13540000Y-9608000D01*
X13650000Y-11510000D02*
X13650000Y-11590000D01*
X13610000Y-11550000D02*
X13690000Y-11550000D01*
X13732000Y-12147500D02*
X13732000Y-12227500D01*
X13692000Y-12187500D02*
X13772000Y-12187500D01*
X13732000Y-12401500D02*
X13732000Y-12481500D01*
X13692000Y-12441500D02*
X13772000Y-12441500D01*
X13732000Y-12655500D02*
X13732000Y-12735500D01*
X13692000Y-12695500D02*
X13772000Y-12695500D01*
X13732000Y-12909500D02*
X13732000Y-12989500D01*
X13692000Y-12949500D02*
X13772000Y-12949500D01*
X13732000Y-13163500D02*
X13732000Y-13243500D01*
X13692000Y-13203500D02*
X13772000Y-13203500D01*
X13732000Y-13417500D02*
X13732000Y-13497500D01*
X13692000Y-13457500D02*
X13772000Y-13457500D01*
X13732000Y-13671500D02*
X13732000Y-13751500D01*
X13692000Y-13711500D02*
X13772000Y-13711500D01*
X13850000Y-11510000D02*
X13850000Y-11590000D01*
X13810000Y-11550000D02*
X13890000Y-11550000D01*
X14334000Y-10010000D02*
X14334000Y-10090000D01*
X14294000Y-10050000D02*
X14374000Y-10050000D01*
X14342000Y-8910000D02*
X14342000Y-8990000D01*
X14302000Y-8950000D02*
X14382000Y-8950000D01*
X15350000Y-10010000D02*
X15350000Y-10090000D01*
X15310000Y-10050000D02*
X15390000Y-10050000D01*
X15358000Y-8910000D02*
X15358000Y-8990000D01*
X15318000Y-8950000D02*
X15398000Y-8950000D01*
X15542000Y-7260000D02*
X15542000Y-7340000D01*
X15502000Y-7300000D02*
X15582000Y-7300000D01*
X15542000Y-7760000D02*
X15542000Y-7840000D01*
X15502000Y-7800000D02*
X15582000Y-7800000D01*
X15700000Y-10952000D02*
X15700000Y-11032000D01*
X15660000Y-10992000D02*
X15740000Y-10992000D01*
X15700000Y-11968000D02*
X15700000Y-12048000D01*
X15660000Y-12008000D02*
X15740000Y-12008000D01*
X17334000Y-8910000D02*
X17334000Y-8990000D01*
X17294000Y-8950000D02*
X17374000Y-8950000D01*
X17334000Y-10010000D02*
X17334000Y-10090000D01*
X17294000Y-10050000D02*
X17374000Y-10050000D01*
X17742000Y-12760000D02*
X17742000Y-12840000D01*
X17702000Y-12800000D02*
X17782000Y-12800000D01*
X18350000Y-8910000D02*
X18350000Y-8990000D01*
X18310000Y-8950000D02*
X18390000Y-8950000D01*
X18350000Y-10010000D02*
X18350000Y-10090000D01*
X18310000Y-10050000D02*
X18390000Y-10050000D01*
X18550000Y-7260000D02*
X18550000Y-7340000D01*
X18510000Y-7300000D02*
X18590000Y-7300000D01*
X18550000Y-7760000D02*
X18550000Y-7840000D01*
X18510000Y-7800000D02*
X18590000Y-7800000D01*
X18758000Y-12760000D02*
X18758000Y-12840000D01*
X18718000Y-12800000D02*
X18798000Y-12800000D01*
X18800000Y-10944000D02*
X18800000Y-11024000D01*
X18760000Y-10984000D02*
X18840000Y-10984000D01*
X18800000Y-11960000D02*
X18800000Y-12040000D01*
X18760000Y-12000000D02*
X18840000Y-12000000D01*
D15*
X8615356Y-9535356D02*
X8615356Y-9464644D01*
X8544644Y-9464644D01*
X8544644Y-9535356D01*
X8615356Y-9535356D01*
X8631356Y-9281356D02*
X8631356Y-9210644D01*
X8560644Y-9210644D01*
X8560644Y-9281356D01*
X8631356Y-9281356D01*
X8631356Y-9789356D02*
X8631356Y-9718644D01*
X8560644Y-9718644D01*
X8560644Y-9789356D01*
X8631356Y-9789356D01*
X8635356Y-4590356D02*
X8635356Y-4519644D01*
X8564644Y-4519644D01*
X8564644Y-4590356D01*
X8635356Y-4590356D01*
X8635356Y-6640356D02*
X8635356Y-6569644D01*
X8564644Y-6569644D01*
X8564644Y-6640356D01*
X8635356Y-6640356D01*
X8635356Y-12040356D02*
X8635356Y-11969644D01*
X8564644Y-11969644D01*
X8564644Y-12040356D01*
X8635356Y-12040356D01*
X8885356Y-4590356D02*
X8885356Y-4519644D01*
X8814644Y-4519644D01*
X8814644Y-4590356D01*
X8885356Y-4590356D01*
X8885356Y-6640356D02*
X8885356Y-6569644D01*
X8814644Y-6569644D01*
X8814644Y-6640356D01*
X8885356Y-6640356D01*
X8885356Y-12040356D02*
X8885356Y-11969644D01*
X8814644Y-11969644D01*
X8814644Y-12040356D01*
X8885356Y-12040356D01*
X9135356Y-4590356D02*
X9135356Y-4519644D01*
X9064644Y-4519644D01*
X9064644Y-4590356D01*
X9135356Y-4590356D01*
X9135356Y-6640356D02*
X9135356Y-6569644D01*
X9064644Y-6569644D01*
X9064644Y-6640356D01*
X9135356Y-6640356D01*
X9135356Y-12040356D02*
X9135356Y-11969644D01*
X9064644Y-11969644D01*
X9064644Y-12040356D01*
X9135356Y-12040356D01*
X9139356Y-9281356D02*
X9139356Y-9210644D01*
X9068644Y-9210644D01*
X9068644Y-9281356D01*
X9139356Y-9281356D01*
X9139356Y-9789356D02*
X9139356Y-9718644D01*
X9068644Y-9718644D01*
X9068644Y-9789356D01*
X9139356Y-9789356D01*
X9155356Y-9535356D02*
X9155356Y-9464644D01*
X9084644Y-9464644D01*
X9084644Y-9535356D01*
X9155356Y-9535356D01*
X10385356Y-5085356D02*
X10385356Y-5014644D01*
X10314644Y-5014644D01*
X10314644Y-5085356D01*
X10385356Y-5085356D01*
X10385356Y-5339356D02*
X10385356Y-5268644D01*
X10314644Y-5268644D01*
X10314644Y-5339356D01*
X10385356Y-5339356D01*
X10385356Y-5593356D02*
X10385356Y-5522644D01*
X10314644Y-5522644D01*
X10314644Y-5593356D01*
X10385356Y-5593356D01*
X10385356Y-5847356D02*
X10385356Y-5776644D01*
X10314644Y-5776644D01*
X10314644Y-5847356D01*
X10385356Y-5847356D01*
X10385356Y-10135356D02*
X10385356Y-10064644D01*
X10314644Y-10064644D01*
X10314644Y-10135356D01*
X10385356Y-10135356D01*
X10385356Y-10389356D02*
X10385356Y-10318644D01*
X10314644Y-10318644D01*
X10314644Y-10389356D01*
X10385356Y-10389356D01*
X10385356Y-10643356D02*
X10385356Y-10572644D01*
X10314644Y-10572644D01*
X10314644Y-10643356D01*
X10385356Y-10643356D01*
X10385356Y-10897356D02*
X10385356Y-10826644D01*
X10314644Y-10826644D01*
X10314644Y-10897356D01*
X10385356Y-10897356D01*
X10385356Y-12785356D02*
X10385356Y-12714644D01*
X10314644Y-12714644D01*
X10314644Y-12785356D01*
X10385356Y-12785356D01*
X10385356Y-13039356D02*
X10385356Y-12968644D01*
X10314644Y-12968644D01*
X10314644Y-13039356D01*
X10385356Y-13039356D01*
X10385356Y-13293356D02*
X10385356Y-13222644D01*
X10314644Y-13222644D01*
X10314644Y-13293356D01*
X10385356Y-13293356D01*
X11631356Y-9281356D02*
X11631356Y-9210644D01*
X11560644Y-9210644D01*
X11560644Y-9281356D01*
X11631356Y-9281356D01*
X11631356Y-9789356D02*
X11631356Y-9718644D01*
X11560644Y-9718644D01*
X11560644Y-9789356D01*
X11631356Y-9789356D01*
X11635356Y-4590356D02*
X11635356Y-4519644D01*
X11564644Y-4519644D01*
X11564644Y-4590356D01*
X11635356Y-4590356D01*
X11635356Y-6640356D02*
X11635356Y-6569644D01*
X11564644Y-6569644D01*
X11564644Y-6640356D01*
X11635356Y-6640356D01*
X11635356Y-12040356D02*
X11635356Y-11969644D01*
X11564644Y-11969644D01*
X11564644Y-12040356D01*
X11635356Y-12040356D01*
X11885356Y-4590356D02*
X11885356Y-4519644D01*
X11814644Y-4519644D01*
X11814644Y-4590356D01*
X11885356Y-4590356D01*
X11885356Y-6640356D02*
X11885356Y-6569644D01*
X11814644Y-6569644D01*
X11814644Y-6640356D01*
X11885356Y-6640356D01*
X11885356Y-9265356D02*
X11885356Y-9194644D01*
X11814644Y-9194644D01*
X11814644Y-9265356D01*
X11885356Y-9265356D01*
X11885356Y-9805356D02*
X11885356Y-9734644D01*
X11814644Y-9734644D01*
X11814644Y-9805356D01*
X11885356Y-9805356D01*
X11885356Y-12040356D02*
X11885356Y-11969644D01*
X11814644Y-11969644D01*
X11814644Y-12040356D01*
X11885356Y-12040356D01*
X12135356Y-4590356D02*
X12135356Y-4519644D01*
X12064644Y-4519644D01*
X12064644Y-4590356D01*
X12135356Y-4590356D01*
X12135356Y-6640356D02*
X12135356Y-6569644D01*
X12064644Y-6569644D01*
X12064644Y-6640356D01*
X12135356Y-6640356D01*
X12135356Y-12040356D02*
X12135356Y-11969644D01*
X12064644Y-11969644D01*
X12064644Y-12040356D01*
X12135356Y-12040356D01*
X12139356Y-9281356D02*
X12139356Y-9210644D01*
X12068644Y-9210644D01*
X12068644Y-9281356D01*
X12139356Y-9281356D01*
X12139356Y-9789356D02*
X12139356Y-9718644D01*
X12068644Y-9718644D01*
X12068644Y-9789356D01*
X12139356Y-9789356D01*
X13385356Y-5085356D02*
X13385356Y-5014644D01*
X13314644Y-5014644D01*
X13314644Y-5085356D01*
X13385356Y-5085356D01*
X13385356Y-5339356D02*
X13385356Y-5268644D01*
X13314644Y-5268644D01*
X13314644Y-5339356D01*
X13385356Y-5339356D01*
X13385356Y-5593356D02*
X13385356Y-5522644D01*
X13314644Y-5522644D01*
X13314644Y-5593356D01*
X13385356Y-5593356D01*
X13385356Y-5847356D02*
X13385356Y-5776644D01*
X13314644Y-5776644D01*
X13314644Y-5847356D01*
X13385356Y-5847356D01*
X13385356Y-10135356D02*
X13385356Y-10064644D01*
X13314644Y-10064644D01*
X13314644Y-10135356D01*
X13385356Y-10135356D01*
X13385356Y-10389356D02*
X13385356Y-10318644D01*
X13314644Y-10318644D01*
X13314644Y-10389356D01*
X13385356Y-10389356D01*
X13385356Y-10643356D02*
X13385356Y-10572644D01*
X13314644Y-10572644D01*
X13314644Y-10643356D01*
X13385356Y-10643356D01*
X13385356Y-10897356D02*
X13385356Y-10826644D01*
X13314644Y-10826644D01*
X13314644Y-10897356D01*
X13385356Y-10897356D01*
X14631356Y-9281356D02*
X14631356Y-9210644D01*
X14560644Y-9210644D01*
X14560644Y-9281356D01*
X14631356Y-9281356D01*
X14631356Y-9789356D02*
X14631356Y-9718644D01*
X14560644Y-9718644D01*
X14560644Y-9789356D01*
X14631356Y-9789356D01*
X14635356Y-4590356D02*
X14635356Y-4519644D01*
X14564644Y-4519644D01*
X14564644Y-4590356D01*
X14635356Y-4590356D01*
X14635356Y-6640356D02*
X14635356Y-6569644D01*
X14564644Y-6569644D01*
X14564644Y-6640356D01*
X14635356Y-6640356D01*
X14635356Y-12040356D02*
X14635356Y-11969644D01*
X14564644Y-11969644D01*
X14564644Y-12040356D01*
X14635356Y-12040356D01*
X14885356Y-4590356D02*
X14885356Y-4519644D01*
X14814644Y-4519644D01*
X14814644Y-4590356D01*
X14885356Y-4590356D01*
X14885356Y-6640356D02*
X14885356Y-6569644D01*
X14814644Y-6569644D01*
X14814644Y-6640356D01*
X14885356Y-6640356D01*
X14885356Y-9265356D02*
X14885356Y-9194644D01*
X14814644Y-9194644D01*
X14814644Y-9265356D01*
X14885356Y-9265356D01*
X14885356Y-9805356D02*
X14885356Y-9734644D01*
X14814644Y-9734644D01*
X14814644Y-9805356D01*
X14885356Y-9805356D01*
X14885356Y-12040356D02*
X14885356Y-11969644D01*
X14814644Y-11969644D01*
X14814644Y-12040356D01*
X14885356Y-12040356D01*
X15135356Y-4590356D02*
X15135356Y-4519644D01*
X15064644Y-4519644D01*
X15064644Y-4590356D01*
X15135356Y-4590356D01*
X15135356Y-6640356D02*
X15135356Y-6569644D01*
X15064644Y-6569644D01*
X15064644Y-6640356D01*
X15135356Y-6640356D01*
X15135356Y-12040356D02*
X15135356Y-11969644D01*
X15064644Y-11969644D01*
X15064644Y-12040356D01*
X15135356Y-12040356D01*
X15139356Y-9281356D02*
X15139356Y-9210644D01*
X15068644Y-9210644D01*
X15068644Y-9281356D01*
X15139356Y-9281356D01*
X15139356Y-9789356D02*
X15139356Y-9718644D01*
X15068644Y-9718644D01*
X15068644Y-9789356D01*
X15139356Y-9789356D01*
X17615356Y-9535356D02*
X17615356Y-9464644D01*
X17544644Y-9464644D01*
X17544644Y-9535356D01*
X17615356Y-9535356D01*
X17631356Y-9281356D02*
X17631356Y-9210644D01*
X17560644Y-9210644D01*
X17560644Y-9281356D01*
X17631356Y-9281356D01*
X17631356Y-9789356D02*
X17631356Y-9718644D01*
X17560644Y-9718644D01*
X17560644Y-9789356D01*
X17631356Y-9789356D01*
X17635356Y-4590356D02*
X17635356Y-4519644D01*
X17564644Y-4519644D01*
X17564644Y-4590356D01*
X17635356Y-4590356D01*
X17635356Y-6640356D02*
X17635356Y-6569644D01*
X17564644Y-6569644D01*
X17564644Y-6640356D01*
X17635356Y-6640356D01*
X17635356Y-12040356D02*
X17635356Y-11969644D01*
X17564644Y-11969644D01*
X17564644Y-12040356D01*
X17635356Y-12040356D01*
X17885356Y-4590356D02*
X17885356Y-4519644D01*
X17814644Y-4519644D01*
X17814644Y-4590356D01*
X17885356Y-4590356D01*
X17885356Y-6640356D02*
X17885356Y-6569644D01*
X17814644Y-6569644D01*
X17814644Y-6640356D01*
X17885356Y-6640356D01*
X17885356Y-12040356D02*
X17885356Y-11969644D01*
X17814644Y-11969644D01*
X17814644Y-12040356D01*
X17885356Y-12040356D01*
X18135356Y-4590356D02*
X18135356Y-4519644D01*
X18064644Y-4519644D01*
X18064644Y-4590356D01*
X18135356Y-4590356D01*
X18135356Y-6640356D02*
X18135356Y-6569644D01*
X18064644Y-6569644D01*
X18064644Y-6640356D01*
X18135356Y-6640356D01*
X18135356Y-12040356D02*
X18135356Y-11969644D01*
X18064644Y-11969644D01*
X18064644Y-12040356D01*
X18135356Y-12040356D01*
X18139356Y-9281356D02*
X18139356Y-9210644D01*
X18068644Y-9210644D01*
X18068644Y-9281356D01*
X18139356Y-9281356D01*
X18139356Y-9789356D02*
X18139356Y-9718644D01*
X18068644Y-9718644D01*
X18068644Y-9789356D01*
X18139356Y-9789356D01*
X18155356Y-9535356D02*
X18155356Y-9464644D01*
X18084644Y-9464644D01*
X18084644Y-9535356D01*
X18155356Y-9535356D01*
D16*
X8850000Y-7371000D02*
X8911000Y-7310000D01*
X8850000Y-7249000D01*
X8789000Y-7310000D01*
X8850000Y-7371000D01*
X11850000Y-7371000D02*
X11911000Y-7310000D01*
X11850000Y-7249000D01*
X11789000Y-7310000D01*
X11850000Y-7371000D01*
X14850000Y-7371000D02*
X14911000Y-7310000D01*
X14850000Y-7249000D01*
X14789000Y-7310000D01*
X14850000Y-7371000D01*
X17602000Y-13561000D02*
X17663000Y-13500000D01*
X17602000Y-13439000D01*
X17541000Y-13500000D01*
X17602000Y-13561000D01*
X17850000Y-7371000D02*
X17911000Y-7310000D01*
X17850000Y-7249000D01*
X17789000Y-7310000D01*
X17850000Y-7371000D01*
D17*
X8779000Y-7549000D02*
X8921000Y-7691000D01*
X8921000Y-7549000D02*
X8779000Y-7691000D01*
X8921000Y-7620000D02*
G75*
G03*
X8921000Y-7620000I-71000J0D01*
G01*
X11779000Y-7549000D02*
X11921000Y-7691000D01*
X11921000Y-7549000D02*
X11779000Y-7691000D01*
X11921000Y-7620000D02*
G75*
G03*
X11921000Y-7620000I-71000J0D01*
G01*
X14779000Y-7549000D02*
X14921000Y-7691000D01*
X14921000Y-7549000D02*
X14779000Y-7691000D01*
X14921000Y-7620000D02*
G75*
G03*
X14921000Y-7620000I-71000J0D01*
G01*
X17779000Y-7549000D02*
X17921000Y-7691000D01*
X17921000Y-7549000D02*
X17779000Y-7691000D01*
X17921000Y-7620000D02*
G75*
G03*
X17921000Y-7620000I-71000J0D01*
G01*
X17841000Y-13429000D02*
X17983000Y-13571000D01*
X17983000Y-13429000D02*
X17841000Y-13571000D01*
X17983000Y-13500000D02*
G75*
G03*
X17983000Y-13500000I-71000J0D01*
G01*
D18*
X8778500Y-8378500D02*
X8921500Y-8521500D01*
X8921500Y-8378500D02*
X8778500Y-8521500D01*
X8850000Y-8378500D02*
X8850000Y-8521500D01*
X8778500Y-8450000D02*
X8921500Y-8450000D01*
X11778500Y-8378500D02*
X11921500Y-8521500D01*
X11921500Y-8378500D02*
X11778500Y-8521500D01*
X11850000Y-8378500D02*
X11850000Y-8521500D01*
X11778500Y-8450000D02*
X11921500Y-8450000D01*
X14778500Y-8378500D02*
X14921500Y-8521500D01*
X14921500Y-8378500D02*
X14778500Y-8521500D01*
X14850000Y-8378500D02*
X14850000Y-8521500D01*
X14778500Y-8450000D02*
X14921500Y-8450000D01*
X17778500Y-8378500D02*
X17921500Y-8521500D01*
X17921500Y-8378500D02*
X17778500Y-8521500D01*
X17850000Y-8378500D02*
X17850000Y-8521500D01*
X17778500Y-8450000D02*
X17921500Y-8450000D01*
X18670500Y-13428500D02*
X18813500Y-13571500D01*
X18813500Y-13428500D02*
X18670500Y-13571500D01*
X18742000Y-13428500D02*
X18742000Y-13571500D01*
X18670500Y-13500000D02*
X18813500Y-13500000D01*
D11*
X7605119Y-14412976D02*
X7605119Y-14212976D01*
X7652738Y-14212976D01*
X7681309Y-14222500D01*
X7700357Y-14241548D01*
X7709881Y-14260595D01*
X7719405Y-14298690D01*
X7719405Y-14327262D01*
X7709881Y-14365357D01*
X7700357Y-14384405D01*
X7681309Y-14403452D01*
X7652738Y-14412976D01*
X7605119Y-14412976D01*
X7805119Y-14412976D02*
X7805119Y-14279643D01*
X7805119Y-14317738D02*
X7814643Y-14298690D01*
X7824167Y-14289167D01*
X7843214Y-14279643D01*
X7862262Y-14279643D01*
X7928928Y-14412976D02*
X7928928Y-14279643D01*
X7928928Y-14212976D02*
X7919405Y-14222500D01*
X7928928Y-14232024D01*
X7938452Y-14222500D01*
X7928928Y-14212976D01*
X7928928Y-14232024D01*
X8052738Y-14412976D02*
X8033690Y-14403452D01*
X8024167Y-14384405D01*
X8024167Y-14212976D01*
X8157500Y-14412976D02*
X8138452Y-14403452D01*
X8128928Y-14384405D01*
X8128928Y-14212976D01*
X8386071Y-14412976D02*
X8386071Y-14212976D01*
X8452738Y-14355833D01*
X8519405Y-14212976D01*
X8519405Y-14412976D01*
X8700357Y-14412976D02*
X8700357Y-14308214D01*
X8690833Y-14289167D01*
X8671786Y-14279643D01*
X8633690Y-14279643D01*
X8614643Y-14289167D01*
X8700357Y-14403452D02*
X8681310Y-14412976D01*
X8633690Y-14412976D01*
X8614643Y-14403452D01*
X8605119Y-14384405D01*
X8605119Y-14365357D01*
X8614643Y-14346309D01*
X8633690Y-14336786D01*
X8681310Y-14336786D01*
X8700357Y-14327262D01*
X8795595Y-14279643D02*
X8795595Y-14479643D01*
X8795595Y-14289167D02*
X8814643Y-14279643D01*
X8852738Y-14279643D01*
X8871786Y-14289167D01*
X8881310Y-14298690D01*
X8890833Y-14317738D01*
X8890833Y-14374881D01*
X8881310Y-14393928D01*
X8871786Y-14403452D01*
X8852738Y-14412976D01*
X8814643Y-14412976D01*
X8795595Y-14403452D01*
X8976548Y-14393928D02*
X8986071Y-14403452D01*
X8976548Y-14412976D01*
X8967024Y-14403452D01*
X8976548Y-14393928D01*
X8976548Y-14412976D01*
X8976548Y-14289167D02*
X8986071Y-14298690D01*
X8976548Y-14308214D01*
X8967024Y-14298690D01*
X8976548Y-14289167D01*
X8976548Y-14308214D01*
D12*
X7307500Y-14722500D02*
X7347500Y-14762500D01*
X7347500Y-14722500D02*
X7307500Y-14762500D01*
D11*
X7643214Y-14632976D02*
X7662262Y-14632976D01*
X7681309Y-14642500D01*
X7690833Y-14652024D01*
X7700357Y-14671071D01*
X7709881Y-14709167D01*
X7709881Y-14756786D01*
X7700357Y-14794881D01*
X7690833Y-14813928D01*
X7681309Y-14823452D01*
X7662262Y-14832976D01*
X7643214Y-14832976D01*
X7624167Y-14823452D01*
X7614643Y-14813928D01*
X7605119Y-14794881D01*
X7595595Y-14756786D01*
X7595595Y-14709167D01*
X7605119Y-14671071D01*
X7614643Y-14652024D01*
X7624167Y-14642500D01*
X7643214Y-14632976D01*
X7795595Y-14813928D02*
X7805119Y-14823452D01*
X7795595Y-14832976D01*
X7786071Y-14823452D01*
X7795595Y-14813928D01*
X7795595Y-14832976D01*
X7976548Y-14699643D02*
X7976548Y-14832976D01*
X7928928Y-14623452D02*
X7881309Y-14766309D01*
X8005119Y-14766309D01*
X8119405Y-14632976D02*
X8138452Y-14632976D01*
X8157500Y-14642500D01*
X8167024Y-14652024D01*
X8176548Y-14671071D01*
X8186071Y-14709167D01*
X8186071Y-14756786D01*
X8176548Y-14794881D01*
X8167024Y-14813928D01*
X8157500Y-14823452D01*
X8138452Y-14832976D01*
X8119405Y-14832976D01*
X8100357Y-14823452D01*
X8090833Y-14813928D01*
X8081309Y-14794881D01*
X8071786Y-14756786D01*
X8071786Y-14709167D01*
X8081309Y-14671071D01*
X8090833Y-14652024D01*
X8100357Y-14642500D01*
X8119405Y-14632976D01*
X8309881Y-14632976D02*
X8328928Y-14632976D01*
X8347976Y-14642500D01*
X8357500Y-14652024D01*
X8367024Y-14671071D01*
X8376548Y-14709167D01*
X8376548Y-14756786D01*
X8367024Y-14794881D01*
X8357500Y-14813928D01*
X8347976Y-14823452D01*
X8328928Y-14832976D01*
X8309881Y-14832976D01*
X8290833Y-14823452D01*
X8281309Y-14813928D01*
X8271786Y-14794881D01*
X8262262Y-14756786D01*
X8262262Y-14709167D01*
X8271786Y-14671071D01*
X8281309Y-14652024D01*
X8290833Y-14642500D01*
X8309881Y-14632976D01*
X8462262Y-14832976D02*
X8462262Y-14699643D01*
X8462262Y-14718690D02*
X8471786Y-14709167D01*
X8490833Y-14699643D01*
X8519405Y-14699643D01*
X8538452Y-14709167D01*
X8547976Y-14728214D01*
X8547976Y-14832976D01*
X8547976Y-14728214D02*
X8557500Y-14709167D01*
X8576548Y-14699643D01*
X8605119Y-14699643D01*
X8624167Y-14709167D01*
X8633690Y-14728214D01*
X8633690Y-14832976D01*
X8728929Y-14832976D02*
X8728929Y-14699643D01*
X8728929Y-14718690D02*
X8738452Y-14709167D01*
X8757500Y-14699643D01*
X8786071Y-14699643D01*
X8805119Y-14709167D01*
X8814643Y-14728214D01*
X8814643Y-14832976D01*
X8814643Y-14728214D02*
X8824167Y-14709167D01*
X8843214Y-14699643D01*
X8871786Y-14699643D01*
X8890833Y-14709167D01*
X8900357Y-14728214D01*
X8900357Y-14832976D01*
X9290833Y-14623452D02*
X9119405Y-14880595D01*
X9547976Y-14632976D02*
X9567024Y-14632976D01*
X9586071Y-14642500D01*
X9595595Y-14652024D01*
X9605119Y-14671071D01*
X9614643Y-14709167D01*
X9614643Y-14756786D01*
X9605119Y-14794881D01*
X9595595Y-14813928D01*
X9586071Y-14823452D01*
X9567024Y-14832976D01*
X9547976Y-14832976D01*
X9528929Y-14823452D01*
X9519405Y-14813928D01*
X9509881Y-14794881D01*
X9500357Y-14756786D01*
X9500357Y-14709167D01*
X9509881Y-14671071D01*
X9519405Y-14652024D01*
X9528929Y-14642500D01*
X9547976Y-14632976D01*
X9700357Y-14813928D02*
X9709881Y-14823452D01*
X9700357Y-14832976D01*
X9690833Y-14823452D01*
X9700357Y-14813928D01*
X9700357Y-14832976D01*
X9833690Y-14632976D02*
X9852738Y-14632976D01*
X9871786Y-14642500D01*
X9881310Y-14652024D01*
X9890833Y-14671071D01*
X9900357Y-14709167D01*
X9900357Y-14756786D01*
X9890833Y-14794881D01*
X9881310Y-14813928D01*
X9871786Y-14823452D01*
X9852738Y-14832976D01*
X9833690Y-14832976D01*
X9814643Y-14823452D01*
X9805119Y-14813928D01*
X9795595Y-14794881D01*
X9786071Y-14756786D01*
X9786071Y-14709167D01*
X9795595Y-14671071D01*
X9805119Y-14652024D01*
X9814643Y-14642500D01*
X9833690Y-14632976D01*
X10090833Y-14832976D02*
X9976548Y-14832976D01*
X10033690Y-14832976D02*
X10033690Y-14632976D01*
X10014643Y-14661548D01*
X9995595Y-14680595D01*
X9976548Y-14690119D01*
X10271786Y-14632976D02*
X10176548Y-14632976D01*
X10167024Y-14728214D01*
X10176548Y-14718690D01*
X10195595Y-14709167D01*
X10243214Y-14709167D01*
X10262262Y-14718690D01*
X10271786Y-14728214D01*
X10281310Y-14747262D01*
X10281310Y-14794881D01*
X10271786Y-14813928D01*
X10262262Y-14823452D01*
X10243214Y-14832976D01*
X10195595Y-14832976D01*
X10176548Y-14823452D01*
X10167024Y-14813928D01*
X10347976Y-14632976D02*
X10481310Y-14632976D01*
X10395595Y-14832976D01*
X10547976Y-14632976D02*
X10547976Y-14671071D01*
X10624167Y-14632976D02*
X10624167Y-14671071D01*
X10919405Y-14909167D02*
X10909881Y-14899643D01*
X10890833Y-14871071D01*
X10881310Y-14852024D01*
X10871786Y-14823452D01*
X10862262Y-14775833D01*
X10862262Y-14737738D01*
X10871786Y-14690119D01*
X10881310Y-14661548D01*
X10890833Y-14642500D01*
X10909881Y-14613928D01*
X10919405Y-14604405D01*
X11081310Y-14699643D02*
X11081310Y-14832976D01*
X11033690Y-14623452D02*
X10986071Y-14766309D01*
X11109881Y-14766309D01*
X11338452Y-14832976D02*
X11338452Y-14632976D01*
X11424167Y-14832976D02*
X11424167Y-14728214D01*
X11414643Y-14709167D01*
X11395595Y-14699643D01*
X11367024Y-14699643D01*
X11347976Y-14709167D01*
X11338452Y-14718690D01*
X11547976Y-14832976D02*
X11528928Y-14823452D01*
X11519405Y-14813928D01*
X11509881Y-14794881D01*
X11509881Y-14737738D01*
X11519405Y-14718690D01*
X11528928Y-14709167D01*
X11547976Y-14699643D01*
X11576548Y-14699643D01*
X11595595Y-14709167D01*
X11605119Y-14718690D01*
X11614643Y-14737738D01*
X11614643Y-14794881D01*
X11605119Y-14813928D01*
X11595595Y-14823452D01*
X11576548Y-14832976D01*
X11547976Y-14832976D01*
X11728928Y-14832976D02*
X11709881Y-14823452D01*
X11700357Y-14804405D01*
X11700357Y-14632976D01*
X11881309Y-14823452D02*
X11862262Y-14832976D01*
X11824167Y-14832976D01*
X11805119Y-14823452D01*
X11795595Y-14804405D01*
X11795595Y-14728214D01*
X11805119Y-14709167D01*
X11824167Y-14699643D01*
X11862262Y-14699643D01*
X11881309Y-14709167D01*
X11890833Y-14728214D01*
X11890833Y-14747262D01*
X11795595Y-14766309D01*
X11967024Y-14823452D02*
X11986071Y-14832976D01*
X12024167Y-14832976D01*
X12043214Y-14823452D01*
X12052738Y-14804405D01*
X12052738Y-14794881D01*
X12043214Y-14775833D01*
X12024167Y-14766309D01*
X11995595Y-14766309D01*
X11976548Y-14756786D01*
X11967024Y-14737738D01*
X11967024Y-14728214D01*
X11976548Y-14709167D01*
X11995595Y-14699643D01*
X12024167Y-14699643D01*
X12043214Y-14709167D01*
X12119405Y-14909167D02*
X12128928Y-14899643D01*
X12147976Y-14871071D01*
X12157500Y-14852024D01*
X12167024Y-14823452D01*
X12176548Y-14775833D01*
X12176548Y-14737738D01*
X12167024Y-14690119D01*
X12157500Y-14661548D01*
X12147976Y-14642500D01*
X12128928Y-14613928D01*
X12119405Y-14604405D01*
D13*
X7347500Y-15006500D02*
G75*
G03*
X7347500Y-15006500I-37500J0D01*
G01*
D11*
X7643214Y-14896976D02*
X7662262Y-14896976D01*
X7681309Y-14906500D01*
X7690833Y-14916024D01*
X7700357Y-14935071D01*
X7709881Y-14973167D01*
X7709881Y-15020786D01*
X7700357Y-15058881D01*
X7690833Y-15077928D01*
X7681309Y-15087452D01*
X7662262Y-15096976D01*
X7643214Y-15096976D01*
X7624167Y-15087452D01*
X7614643Y-15077928D01*
X7605119Y-15058881D01*
X7595595Y-15020786D01*
X7595595Y-14973167D01*
X7605119Y-14935071D01*
X7614643Y-14916024D01*
X7624167Y-14906500D01*
X7643214Y-14896976D01*
X7795595Y-15077928D02*
X7805119Y-15087452D01*
X7795595Y-15096976D01*
X7786071Y-15087452D01*
X7795595Y-15077928D01*
X7795595Y-15096976D01*
X7871786Y-14896976D02*
X8005119Y-14896976D01*
X7919405Y-15096976D01*
X8176548Y-14896976D02*
X8081309Y-14896976D01*
X8071786Y-14992214D01*
X8081309Y-14982690D01*
X8100357Y-14973167D01*
X8147976Y-14973167D01*
X8167024Y-14982690D01*
X8176548Y-14992214D01*
X8186071Y-15011262D01*
X8186071Y-15058881D01*
X8176548Y-15077928D01*
X8167024Y-15087452D01*
X8147976Y-15096976D01*
X8100357Y-15096976D01*
X8081309Y-15087452D01*
X8071786Y-15077928D01*
X8309881Y-14896976D02*
X8328928Y-14896976D01*
X8347976Y-14906500D01*
X8357500Y-14916024D01*
X8367024Y-14935071D01*
X8376548Y-14973167D01*
X8376548Y-15020786D01*
X8367024Y-15058881D01*
X8357500Y-15077928D01*
X8347976Y-15087452D01*
X8328928Y-15096976D01*
X8309881Y-15096976D01*
X8290833Y-15087452D01*
X8281309Y-15077928D01*
X8271786Y-15058881D01*
X8262262Y-15020786D01*
X8262262Y-14973167D01*
X8271786Y-14935071D01*
X8281309Y-14916024D01*
X8290833Y-14906500D01*
X8309881Y-14896976D01*
X8462262Y-15096976D02*
X8462262Y-14963643D01*
X8462262Y-14982690D02*
X8471786Y-14973167D01*
X8490833Y-14963643D01*
X8519405Y-14963643D01*
X8538452Y-14973167D01*
X8547976Y-14992214D01*
X8547976Y-15096976D01*
X8547976Y-14992214D02*
X8557500Y-14973167D01*
X8576548Y-14963643D01*
X8605119Y-14963643D01*
X8624167Y-14973167D01*
X8633690Y-14992214D01*
X8633690Y-15096976D01*
X8728929Y-15096976D02*
X8728929Y-14963643D01*
X8728929Y-14982690D02*
X8738452Y-14973167D01*
X8757500Y-14963643D01*
X8786071Y-14963643D01*
X8805119Y-14973167D01*
X8814643Y-14992214D01*
X8814643Y-15096976D01*
X8814643Y-14992214D02*
X8824167Y-14973167D01*
X8843214Y-14963643D01*
X8871786Y-14963643D01*
X8890833Y-14973167D01*
X8900357Y-14992214D01*
X8900357Y-15096976D01*
X9290833Y-14887452D02*
X9119405Y-15144595D01*
X9547976Y-14896976D02*
X9567024Y-14896976D01*
X9586071Y-14906500D01*
X9595595Y-14916024D01*
X9605119Y-14935071D01*
X9614643Y-14973167D01*
X9614643Y-15020786D01*
X9605119Y-15058881D01*
X9595595Y-15077928D01*
X9586071Y-15087452D01*
X9567024Y-15096976D01*
X9547976Y-15096976D01*
X9528929Y-15087452D01*
X9519405Y-15077928D01*
X9509881Y-15058881D01*
X9500357Y-15020786D01*
X9500357Y-14973167D01*
X9509881Y-14935071D01*
X9519405Y-14916024D01*
X9528929Y-14906500D01*
X9547976Y-14896976D01*
X9700357Y-15077928D02*
X9709881Y-15087452D01*
X9700357Y-15096976D01*
X9690833Y-15087452D01*
X9700357Y-15077928D01*
X9700357Y-15096976D01*
X9833690Y-14896976D02*
X9852738Y-14896976D01*
X9871786Y-14906500D01*
X9881310Y-14916024D01*
X9890833Y-14935071D01*
X9900357Y-14973167D01*
X9900357Y-15020786D01*
X9890833Y-15058881D01*
X9881310Y-15077928D01*
X9871786Y-15087452D01*
X9852738Y-15096976D01*
X9833690Y-15096976D01*
X9814643Y-15087452D01*
X9805119Y-15077928D01*
X9795595Y-15058881D01*
X9786071Y-15020786D01*
X9786071Y-14973167D01*
X9795595Y-14935071D01*
X9805119Y-14916024D01*
X9814643Y-14906500D01*
X9833690Y-14896976D01*
X9976548Y-14916024D02*
X9986071Y-14906500D01*
X10005119Y-14896976D01*
X10052738Y-14896976D01*
X10071786Y-14906500D01*
X10081310Y-14916024D01*
X10090833Y-14935071D01*
X10090833Y-14954119D01*
X10081310Y-14982690D01*
X9967024Y-15096976D01*
X10090833Y-15096976D01*
X10186071Y-15096976D02*
X10224167Y-15096976D01*
X10243214Y-15087452D01*
X10252738Y-15077928D01*
X10271786Y-15049357D01*
X10281310Y-15011262D01*
X10281310Y-14935071D01*
X10271786Y-14916024D01*
X10262262Y-14906500D01*
X10243214Y-14896976D01*
X10205119Y-14896976D01*
X10186071Y-14906500D01*
X10176548Y-14916024D01*
X10167024Y-14935071D01*
X10167024Y-14982690D01*
X10176548Y-15001738D01*
X10186071Y-15011262D01*
X10205119Y-15020786D01*
X10243214Y-15020786D01*
X10262262Y-15011262D01*
X10271786Y-15001738D01*
X10281310Y-14982690D01*
X10462262Y-14896976D02*
X10367024Y-14896976D01*
X10357500Y-14992214D01*
X10367024Y-14982690D01*
X10386071Y-14973167D01*
X10433690Y-14973167D01*
X10452738Y-14982690D01*
X10462262Y-14992214D01*
X10471786Y-15011262D01*
X10471786Y-15058881D01*
X10462262Y-15077928D01*
X10452738Y-15087452D01*
X10433690Y-15096976D01*
X10386071Y-15096976D01*
X10367024Y-15087452D01*
X10357500Y-15077928D01*
X10547976Y-14896976D02*
X10547976Y-14935071D01*
X10624167Y-14896976D02*
X10624167Y-14935071D01*
X10919405Y-15173167D02*
X10909881Y-15163643D01*
X10890833Y-15135071D01*
X10881310Y-15116024D01*
X10871786Y-15087452D01*
X10862262Y-15039833D01*
X10862262Y-15001738D01*
X10871786Y-14954119D01*
X10881310Y-14925548D01*
X10890833Y-14906500D01*
X10909881Y-14877928D01*
X10919405Y-14868405D01*
X11100357Y-15096976D02*
X10986071Y-15096976D01*
X11043214Y-15096976D02*
X11043214Y-14896976D01*
X11024167Y-14925548D01*
X11005119Y-14944595D01*
X10986071Y-14954119D01*
X11176548Y-14916024D02*
X11186071Y-14906500D01*
X11205119Y-14896976D01*
X11252738Y-14896976D01*
X11271786Y-14906500D01*
X11281309Y-14916024D01*
X11290833Y-14935071D01*
X11290833Y-14954119D01*
X11281309Y-14982690D01*
X11167024Y-15096976D01*
X11290833Y-15096976D01*
X11528928Y-15096976D02*
X11528928Y-14896976D01*
X11614643Y-15096976D02*
X11614643Y-14992214D01*
X11605119Y-14973167D01*
X11586071Y-14963643D01*
X11557500Y-14963643D01*
X11538452Y-14973167D01*
X11528928Y-14982690D01*
X11738452Y-15096976D02*
X11719405Y-15087452D01*
X11709881Y-15077928D01*
X11700357Y-15058881D01*
X11700357Y-15001738D01*
X11709881Y-14982690D01*
X11719405Y-14973167D01*
X11738452Y-14963643D01*
X11767024Y-14963643D01*
X11786071Y-14973167D01*
X11795595Y-14982690D01*
X11805119Y-15001738D01*
X11805119Y-15058881D01*
X11795595Y-15077928D01*
X11786071Y-15087452D01*
X11767024Y-15096976D01*
X11738452Y-15096976D01*
X11919405Y-15096976D02*
X11900357Y-15087452D01*
X11890833Y-15068405D01*
X11890833Y-14896976D01*
X12071786Y-15087452D02*
X12052738Y-15096976D01*
X12014643Y-15096976D01*
X11995595Y-15087452D01*
X11986071Y-15068405D01*
X11986071Y-14992214D01*
X11995595Y-14973167D01*
X12014643Y-14963643D01*
X12052738Y-14963643D01*
X12071786Y-14973167D01*
X12081309Y-14992214D01*
X12081309Y-15011262D01*
X11986071Y-15030309D01*
X12157500Y-15087452D02*
X12176548Y-15096976D01*
X12214643Y-15096976D01*
X12233690Y-15087452D01*
X12243214Y-15068405D01*
X12243214Y-15058881D01*
X12233690Y-15039833D01*
X12214643Y-15030309D01*
X12186071Y-15030309D01*
X12167024Y-15020786D01*
X12157500Y-15001738D01*
X12157500Y-14992214D01*
X12167024Y-14973167D01*
X12186071Y-14963643D01*
X12214643Y-14963643D01*
X12233690Y-14973167D01*
X12309881Y-15173167D02*
X12319405Y-15163643D01*
X12338452Y-15135071D01*
X12347976Y-15116024D01*
X12357500Y-15087452D01*
X12367024Y-15039833D01*
X12367024Y-15001738D01*
X12357500Y-14954119D01*
X12347976Y-14925548D01*
X12338452Y-14906500D01*
X12319405Y-14877928D01*
X12309881Y-14868405D01*
D14*
X7307500Y-15230500D02*
X7307500Y-15310500D01*
X7267500Y-15270500D02*
X7347500Y-15270500D01*
D11*
X7643214Y-15160976D02*
X7662262Y-15160976D01*
X7681309Y-15170500D01*
X7690833Y-15180024D01*
X7700357Y-15199071D01*
X7709881Y-15237167D01*
X7709881Y-15284786D01*
X7700357Y-15322881D01*
X7690833Y-15341928D01*
X7681309Y-15351452D01*
X7662262Y-15360976D01*
X7643214Y-15360976D01*
X7624167Y-15351452D01*
X7614643Y-15341928D01*
X7605119Y-15322881D01*
X7595595Y-15284786D01*
X7595595Y-15237167D01*
X7605119Y-15199071D01*
X7614643Y-15180024D01*
X7624167Y-15170500D01*
X7643214Y-15160976D01*
X7795595Y-15341928D02*
X7805119Y-15351452D01*
X7795595Y-15360976D01*
X7786071Y-15351452D01*
X7795595Y-15341928D01*
X7795595Y-15360976D01*
X7919405Y-15246690D02*
X7900357Y-15237167D01*
X7890833Y-15227643D01*
X7881309Y-15208595D01*
X7881309Y-15199071D01*
X7890833Y-15180024D01*
X7900357Y-15170500D01*
X7919405Y-15160976D01*
X7957500Y-15160976D01*
X7976548Y-15170500D01*
X7986071Y-15180024D01*
X7995595Y-15199071D01*
X7995595Y-15208595D01*
X7986071Y-15227643D01*
X7976548Y-15237167D01*
X7957500Y-15246690D01*
X7919405Y-15246690D01*
X7900357Y-15256214D01*
X7890833Y-15265738D01*
X7881309Y-15284786D01*
X7881309Y-15322881D01*
X7890833Y-15341928D01*
X7900357Y-15351452D01*
X7919405Y-15360976D01*
X7957500Y-15360976D01*
X7976548Y-15351452D01*
X7986071Y-15341928D01*
X7995595Y-15322881D01*
X7995595Y-15284786D01*
X7986071Y-15265738D01*
X7976548Y-15256214D01*
X7957500Y-15246690D01*
X8119405Y-15160976D02*
X8138452Y-15160976D01*
X8157500Y-15170500D01*
X8167024Y-15180024D01*
X8176548Y-15199071D01*
X8186071Y-15237167D01*
X8186071Y-15284786D01*
X8176548Y-15322881D01*
X8167024Y-15341928D01*
X8157500Y-15351452D01*
X8138452Y-15360976D01*
X8119405Y-15360976D01*
X8100357Y-15351452D01*
X8090833Y-15341928D01*
X8081309Y-15322881D01*
X8071786Y-15284786D01*
X8071786Y-15237167D01*
X8081309Y-15199071D01*
X8090833Y-15180024D01*
X8100357Y-15170500D01*
X8119405Y-15160976D01*
X8309881Y-15160976D02*
X8328928Y-15160976D01*
X8347976Y-15170500D01*
X8357500Y-15180024D01*
X8367024Y-15199071D01*
X8376548Y-15237167D01*
X8376548Y-15284786D01*
X8367024Y-15322881D01*
X8357500Y-15341928D01*
X8347976Y-15351452D01*
X8328928Y-15360976D01*
X8309881Y-15360976D01*
X8290833Y-15351452D01*
X8281309Y-15341928D01*
X8271786Y-15322881D01*
X8262262Y-15284786D01*
X8262262Y-15237167D01*
X8271786Y-15199071D01*
X8281309Y-15180024D01*
X8290833Y-15170500D01*
X8309881Y-15160976D01*
X8462262Y-15360976D02*
X8462262Y-15227643D01*
X8462262Y-15246690D02*
X8471786Y-15237167D01*
X8490833Y-15227643D01*
X8519405Y-15227643D01*
X8538452Y-15237167D01*
X8547976Y-15256214D01*
X8547976Y-15360976D01*
X8547976Y-15256214D02*
X8557500Y-15237167D01*
X8576548Y-15227643D01*
X8605119Y-15227643D01*
X8624167Y-15237167D01*
X8633690Y-15256214D01*
X8633690Y-15360976D01*
X8728929Y-15360976D02*
X8728929Y-15227643D01*
X8728929Y-15246690D02*
X8738452Y-15237167D01*
X8757500Y-15227643D01*
X8786071Y-15227643D01*
X8805119Y-15237167D01*
X8814643Y-15256214D01*
X8814643Y-15360976D01*
X8814643Y-15256214D02*
X8824167Y-15237167D01*
X8843214Y-15227643D01*
X8871786Y-15227643D01*
X8890833Y-15237167D01*
X8900357Y-15256214D01*
X8900357Y-15360976D01*
X9290833Y-15151452D02*
X9119405Y-15408595D01*
X9547976Y-15160976D02*
X9567024Y-15160976D01*
X9586071Y-15170500D01*
X9595595Y-15180024D01*
X9605119Y-15199071D01*
X9614643Y-15237167D01*
X9614643Y-15284786D01*
X9605119Y-15322881D01*
X9595595Y-15341928D01*
X9586071Y-15351452D01*
X9567024Y-15360976D01*
X9547976Y-15360976D01*
X9528929Y-15351452D01*
X9519405Y-15341928D01*
X9509881Y-15322881D01*
X9500357Y-15284786D01*
X9500357Y-15237167D01*
X9509881Y-15199071D01*
X9519405Y-15180024D01*
X9528929Y-15170500D01*
X9547976Y-15160976D01*
X9700357Y-15341928D02*
X9709881Y-15351452D01*
X9700357Y-15360976D01*
X9690833Y-15351452D01*
X9700357Y-15341928D01*
X9700357Y-15360976D01*
X9833690Y-15160976D02*
X9852738Y-15160976D01*
X9871786Y-15170500D01*
X9881310Y-15180024D01*
X9890833Y-15199071D01*
X9900357Y-15237167D01*
X9900357Y-15284786D01*
X9890833Y-15322881D01*
X9881310Y-15341928D01*
X9871786Y-15351452D01*
X9852738Y-15360976D01*
X9833690Y-15360976D01*
X9814643Y-15351452D01*
X9805119Y-15341928D01*
X9795595Y-15322881D01*
X9786071Y-15284786D01*
X9786071Y-15237167D01*
X9795595Y-15199071D01*
X9805119Y-15180024D01*
X9814643Y-15170500D01*
X9833690Y-15160976D01*
X9967024Y-15160976D02*
X10090833Y-15160976D01*
X10024167Y-15237167D01*
X10052738Y-15237167D01*
X10071786Y-15246690D01*
X10081310Y-15256214D01*
X10090833Y-15275262D01*
X10090833Y-15322881D01*
X10081310Y-15341928D01*
X10071786Y-15351452D01*
X10052738Y-15360976D01*
X9995595Y-15360976D01*
X9976548Y-15351452D01*
X9967024Y-15341928D01*
X10281310Y-15360976D02*
X10167024Y-15360976D01*
X10224167Y-15360976D02*
X10224167Y-15160976D01*
X10205119Y-15189548D01*
X10186071Y-15208595D01*
X10167024Y-15218119D01*
X10462262Y-15160976D02*
X10367024Y-15160976D01*
X10357500Y-15256214D01*
X10367024Y-15246690D01*
X10386071Y-15237167D01*
X10433690Y-15237167D01*
X10452738Y-15246690D01*
X10462262Y-15256214D01*
X10471786Y-15275262D01*
X10471786Y-15322881D01*
X10462262Y-15341928D01*
X10452738Y-15351452D01*
X10433690Y-15360976D01*
X10386071Y-15360976D01*
X10367024Y-15351452D01*
X10357500Y-15341928D01*
X10547976Y-15160976D02*
X10547976Y-15199071D01*
X10624167Y-15160976D02*
X10624167Y-15199071D01*
X10919405Y-15437167D02*
X10909881Y-15427643D01*
X10890833Y-15399071D01*
X10881310Y-15380024D01*
X10871786Y-15351452D01*
X10862262Y-15303833D01*
X10862262Y-15265738D01*
X10871786Y-15218119D01*
X10881310Y-15189548D01*
X10890833Y-15170500D01*
X10909881Y-15141928D01*
X10919405Y-15132405D01*
X11090833Y-15160976D02*
X10995595Y-15160976D01*
X10986071Y-15256214D01*
X10995595Y-15246690D01*
X11014643Y-15237167D01*
X11062262Y-15237167D01*
X11081310Y-15246690D01*
X11090833Y-15256214D01*
X11100357Y-15275262D01*
X11100357Y-15322881D01*
X11090833Y-15341928D01*
X11081310Y-15351452D01*
X11062262Y-15360976D01*
X11014643Y-15360976D01*
X10995595Y-15351452D01*
X10986071Y-15341928D01*
X11271786Y-15160976D02*
X11233690Y-15160976D01*
X11214643Y-15170500D01*
X11205119Y-15180024D01*
X11186071Y-15208595D01*
X11176548Y-15246690D01*
X11176548Y-15322881D01*
X11186071Y-15341928D01*
X11195595Y-15351452D01*
X11214643Y-15360976D01*
X11252738Y-15360976D01*
X11271786Y-15351452D01*
X11281309Y-15341928D01*
X11290833Y-15322881D01*
X11290833Y-15275262D01*
X11281309Y-15256214D01*
X11271786Y-15246690D01*
X11252738Y-15237167D01*
X11214643Y-15237167D01*
X11195595Y-15246690D01*
X11186071Y-15256214D01*
X11176548Y-15275262D01*
X11528928Y-15360976D02*
X11528928Y-15160976D01*
X11614643Y-15360976D02*
X11614643Y-15256214D01*
X11605119Y-15237167D01*
X11586071Y-15227643D01*
X11557500Y-15227643D01*
X11538452Y-15237167D01*
X11528928Y-15246690D01*
X11738452Y-15360976D02*
X11719405Y-15351452D01*
X11709881Y-15341928D01*
X11700357Y-15322881D01*
X11700357Y-15265738D01*
X11709881Y-15246690D01*
X11719405Y-15237167D01*
X11738452Y-15227643D01*
X11767024Y-15227643D01*
X11786071Y-15237167D01*
X11795595Y-15246690D01*
X11805119Y-15265738D01*
X11805119Y-15322881D01*
X11795595Y-15341928D01*
X11786071Y-15351452D01*
X11767024Y-15360976D01*
X11738452Y-15360976D01*
X11919405Y-15360976D02*
X11900357Y-15351452D01*
X11890833Y-15332405D01*
X11890833Y-15160976D01*
X12071786Y-15351452D02*
X12052738Y-15360976D01*
X12014643Y-15360976D01*
X11995595Y-15351452D01*
X11986071Y-15332405D01*
X11986071Y-15256214D01*
X11995595Y-15237167D01*
X12014643Y-15227643D01*
X12052738Y-15227643D01*
X12071786Y-15237167D01*
X12081309Y-15256214D01*
X12081309Y-15275262D01*
X11986071Y-15294309D01*
X12157500Y-15351452D02*
X12176548Y-15360976D01*
X12214643Y-15360976D01*
X12233690Y-15351452D01*
X12243214Y-15332405D01*
X12243214Y-15322881D01*
X12233690Y-15303833D01*
X12214643Y-15294309D01*
X12186071Y-15294309D01*
X12167024Y-15284786D01*
X12157500Y-15265738D01*
X12157500Y-15256214D01*
X12167024Y-15237167D01*
X12186071Y-15227643D01*
X12214643Y-15227643D01*
X12233690Y-15237167D01*
X12309881Y-15437167D02*
X12319405Y-15427643D01*
X12338452Y-15399071D01*
X12347976Y-15380024D01*
X12357500Y-15351452D01*
X12367024Y-15303833D01*
X12367024Y-15265738D01*
X12357500Y-15218119D01*
X12347976Y-15189548D01*
X12338452Y-15170500D01*
X12319405Y-15141928D01*
X12309881Y-15132405D01*
D15*
X7332856Y-15569856D02*
X7332856Y-15499144D01*
X7262144Y-15499144D01*
X7262144Y-15569856D01*
X7332856Y-15569856D01*
D11*
X7709881Y-15624976D02*
X7595595Y-15624976D01*
X7652738Y-15624976D02*
X7652738Y-15424976D01*
X7633690Y-15453548D01*
X7614643Y-15472595D01*
X7595595Y-15482119D01*
X7795595Y-15605928D02*
X7805119Y-15615452D01*
X7795595Y-15624976D01*
X7786071Y-15615452D01*
X7795595Y-15605928D01*
X7795595Y-15624976D01*
X7928928Y-15424976D02*
X7947976Y-15424976D01*
X7967024Y-15434500D01*
X7976548Y-15444024D01*
X7986071Y-15463071D01*
X7995595Y-15501167D01*
X7995595Y-15548786D01*
X7986071Y-15586881D01*
X7976548Y-15605928D01*
X7967024Y-15615452D01*
X7947976Y-15624976D01*
X7928928Y-15624976D01*
X7909881Y-15615452D01*
X7900357Y-15605928D01*
X7890833Y-15586881D01*
X7881309Y-15548786D01*
X7881309Y-15501167D01*
X7890833Y-15463071D01*
X7900357Y-15444024D01*
X7909881Y-15434500D01*
X7928928Y-15424976D01*
X8119405Y-15424976D02*
X8138452Y-15424976D01*
X8157500Y-15434500D01*
X8167024Y-15444024D01*
X8176548Y-15463071D01*
X8186071Y-15501167D01*
X8186071Y-15548786D01*
X8176548Y-15586881D01*
X8167024Y-15605928D01*
X8157500Y-15615452D01*
X8138452Y-15624976D01*
X8119405Y-15624976D01*
X8100357Y-15615452D01*
X8090833Y-15605928D01*
X8081309Y-15586881D01*
X8071786Y-15548786D01*
X8071786Y-15501167D01*
X8081309Y-15463071D01*
X8090833Y-15444024D01*
X8100357Y-15434500D01*
X8119405Y-15424976D01*
X8309881Y-15424976D02*
X8328928Y-15424976D01*
X8347976Y-15434500D01*
X8357500Y-15444024D01*
X8367024Y-15463071D01*
X8376548Y-15501167D01*
X8376548Y-15548786D01*
X8367024Y-15586881D01*
X8357500Y-15605928D01*
X8347976Y-15615452D01*
X8328928Y-15624976D01*
X8309881Y-15624976D01*
X8290833Y-15615452D01*
X8281309Y-15605928D01*
X8271786Y-15586881D01*
X8262262Y-15548786D01*
X8262262Y-15501167D01*
X8271786Y-15463071D01*
X8281309Y-15444024D01*
X8290833Y-15434500D01*
X8309881Y-15424976D01*
X8462262Y-15624976D02*
X8462262Y-15491643D01*
X8462262Y-15510690D02*
X8471786Y-15501167D01*
X8490833Y-15491643D01*
X8519405Y-15491643D01*
X8538452Y-15501167D01*
X8547976Y-15520214D01*
X8547976Y-15624976D01*
X8547976Y-15520214D02*
X8557500Y-15501167D01*
X8576548Y-15491643D01*
X8605119Y-15491643D01*
X8624167Y-15501167D01*
X8633690Y-15520214D01*
X8633690Y-15624976D01*
X8728929Y-15624976D02*
X8728929Y-15491643D01*
X8728929Y-15510690D02*
X8738452Y-15501167D01*
X8757500Y-15491643D01*
X8786071Y-15491643D01*
X8805119Y-15501167D01*
X8814643Y-15520214D01*
X8814643Y-15624976D01*
X8814643Y-15520214D02*
X8824167Y-15501167D01*
X8843214Y-15491643D01*
X8871786Y-15491643D01*
X8890833Y-15501167D01*
X8900357Y-15520214D01*
X8900357Y-15624976D01*
X9290833Y-15415452D02*
X9119405Y-15672595D01*
X9547976Y-15424976D02*
X9567024Y-15424976D01*
X9586071Y-15434500D01*
X9595595Y-15444024D01*
X9605119Y-15463071D01*
X9614643Y-15501167D01*
X9614643Y-15548786D01*
X9605119Y-15586881D01*
X9595595Y-15605928D01*
X9586071Y-15615452D01*
X9567024Y-15624976D01*
X9547976Y-15624976D01*
X9528929Y-15615452D01*
X9519405Y-15605928D01*
X9509881Y-15586881D01*
X9500357Y-15548786D01*
X9500357Y-15501167D01*
X9509881Y-15463071D01*
X9519405Y-15444024D01*
X9528929Y-15434500D01*
X9547976Y-15424976D01*
X9700357Y-15605928D02*
X9709881Y-15615452D01*
X9700357Y-15624976D01*
X9690833Y-15615452D01*
X9700357Y-15605928D01*
X9700357Y-15624976D01*
X9833690Y-15424976D02*
X9852738Y-15424976D01*
X9871786Y-15434500D01*
X9881310Y-15444024D01*
X9890833Y-15463071D01*
X9900357Y-15501167D01*
X9900357Y-15548786D01*
X9890833Y-15586881D01*
X9881310Y-15605928D01*
X9871786Y-15615452D01*
X9852738Y-15624976D01*
X9833690Y-15624976D01*
X9814643Y-15615452D01*
X9805119Y-15605928D01*
X9795595Y-15586881D01*
X9786071Y-15548786D01*
X9786071Y-15501167D01*
X9795595Y-15463071D01*
X9805119Y-15444024D01*
X9814643Y-15434500D01*
X9833690Y-15424976D01*
X9967024Y-15424976D02*
X10090833Y-15424976D01*
X10024167Y-15501167D01*
X10052738Y-15501167D01*
X10071786Y-15510690D01*
X10081310Y-15520214D01*
X10090833Y-15539262D01*
X10090833Y-15586881D01*
X10081310Y-15605928D01*
X10071786Y-15615452D01*
X10052738Y-15624976D01*
X9995595Y-15624976D01*
X9976548Y-15615452D01*
X9967024Y-15605928D01*
X10186071Y-15624976D02*
X10224167Y-15624976D01*
X10243214Y-15615452D01*
X10252738Y-15605928D01*
X10271786Y-15577357D01*
X10281310Y-15539262D01*
X10281310Y-15463071D01*
X10271786Y-15444024D01*
X10262262Y-15434500D01*
X10243214Y-15424976D01*
X10205119Y-15424976D01*
X10186071Y-15434500D01*
X10176548Y-15444024D01*
X10167024Y-15463071D01*
X10167024Y-15510690D01*
X10176548Y-15529738D01*
X10186071Y-15539262D01*
X10205119Y-15548786D01*
X10243214Y-15548786D01*
X10262262Y-15539262D01*
X10271786Y-15529738D01*
X10281310Y-15510690D01*
X10452738Y-15491643D02*
X10452738Y-15624976D01*
X10405119Y-15415452D02*
X10357500Y-15558309D01*
X10481310Y-15558309D01*
X10547976Y-15424976D02*
X10547976Y-15463071D01*
X10624167Y-15424976D02*
X10624167Y-15463071D01*
X10919405Y-15701167D02*
X10909881Y-15691643D01*
X10890833Y-15663071D01*
X10881310Y-15644024D01*
X10871786Y-15615452D01*
X10862262Y-15567833D01*
X10862262Y-15529738D01*
X10871786Y-15482119D01*
X10881310Y-15453548D01*
X10890833Y-15434500D01*
X10909881Y-15405928D01*
X10919405Y-15396405D01*
X10976548Y-15424976D02*
X11109881Y-15424976D01*
X11024167Y-15624976D01*
X11195595Y-15624976D02*
X11233690Y-15624976D01*
X11252738Y-15615452D01*
X11262262Y-15605928D01*
X11281309Y-15577357D01*
X11290833Y-15539262D01*
X11290833Y-15463071D01*
X11281309Y-15444024D01*
X11271786Y-15434500D01*
X11252738Y-15424976D01*
X11214643Y-15424976D01*
X11195595Y-15434500D01*
X11186071Y-15444024D01*
X11176548Y-15463071D01*
X11176548Y-15510690D01*
X11186071Y-15529738D01*
X11195595Y-15539262D01*
X11214643Y-15548786D01*
X11252738Y-15548786D01*
X11271786Y-15539262D01*
X11281309Y-15529738D01*
X11290833Y-15510690D01*
X11528928Y-15624976D02*
X11528928Y-15424976D01*
X11614643Y-15624976D02*
X11614643Y-15520214D01*
X11605119Y-15501167D01*
X11586071Y-15491643D01*
X11557500Y-15491643D01*
X11538452Y-15501167D01*
X11528928Y-15510690D01*
X11738452Y-15624976D02*
X11719405Y-15615452D01*
X11709881Y-15605928D01*
X11700357Y-15586881D01*
X11700357Y-15529738D01*
X11709881Y-15510690D01*
X11719405Y-15501167D01*
X11738452Y-15491643D01*
X11767024Y-15491643D01*
X11786071Y-15501167D01*
X11795595Y-15510690D01*
X11805119Y-15529738D01*
X11805119Y-15586881D01*
X11795595Y-15605928D01*
X11786071Y-15615452D01*
X11767024Y-15624976D01*
X11738452Y-15624976D01*
X11919405Y-15624976D02*
X11900357Y-15615452D01*
X11890833Y-15596405D01*
X11890833Y-15424976D01*
X12071786Y-15615452D02*
X12052738Y-15624976D01*
X12014643Y-15624976D01*
X11995595Y-15615452D01*
X11986071Y-15596405D01*
X11986071Y-15520214D01*
X11995595Y-15501167D01*
X12014643Y-15491643D01*
X12052738Y-15491643D01*
X12071786Y-15501167D01*
X12081309Y-15520214D01*
X12081309Y-15539262D01*
X11986071Y-15558309D01*
X12157500Y-15615452D02*
X12176548Y-15624976D01*
X12214643Y-15624976D01*
X12233690Y-15615452D01*
X12243214Y-15596405D01*
X12243214Y-15586881D01*
X12233690Y-15567833D01*
X12214643Y-15558309D01*
X12186071Y-15558309D01*
X12167024Y-15548786D01*
X12157500Y-15529738D01*
X12157500Y-15520214D01*
X12167024Y-15501167D01*
X12186071Y-15491643D01*
X12214643Y-15491643D01*
X12233690Y-15501167D01*
X12309881Y-15701167D02*
X12319405Y-15691643D01*
X12338452Y-15663071D01*
X12347976Y-15644024D01*
X12357500Y-15615452D01*
X12367024Y-15567833D01*
X12367024Y-15529738D01*
X12357500Y-15482119D01*
X12347976Y-15453548D01*
X12338452Y-15434500D01*
X12319405Y-15405928D01*
X12309881Y-15396405D01*
D16*
X7286500Y-15859500D02*
X7347500Y-15798500D01*
X7286500Y-15737500D01*
X7225500Y-15798500D01*
X7286500Y-15859500D01*
D11*
X7709881Y-15888976D02*
X7595595Y-15888976D01*
X7652738Y-15888976D02*
X7652738Y-15688976D01*
X7633690Y-15717548D01*
X7614643Y-15736595D01*
X7595595Y-15746119D01*
X7795595Y-15869928D02*
X7805119Y-15879452D01*
X7795595Y-15888976D01*
X7786071Y-15879452D01*
X7795595Y-15869928D01*
X7795595Y-15888976D01*
X7881309Y-15708024D02*
X7890833Y-15698500D01*
X7909881Y-15688976D01*
X7957500Y-15688976D01*
X7976548Y-15698500D01*
X7986071Y-15708024D01*
X7995595Y-15727071D01*
X7995595Y-15746119D01*
X7986071Y-15774690D01*
X7871786Y-15888976D01*
X7995595Y-15888976D01*
X8071786Y-15708024D02*
X8081309Y-15698500D01*
X8100357Y-15688976D01*
X8147976Y-15688976D01*
X8167024Y-15698500D01*
X8176548Y-15708024D01*
X8186071Y-15727071D01*
X8186071Y-15746119D01*
X8176548Y-15774690D01*
X8062262Y-15888976D01*
X8186071Y-15888976D01*
X8309881Y-15688976D02*
X8328928Y-15688976D01*
X8347976Y-15698500D01*
X8357500Y-15708024D01*
X8367024Y-15727071D01*
X8376548Y-15765167D01*
X8376548Y-15812786D01*
X8367024Y-15850881D01*
X8357500Y-15869928D01*
X8347976Y-15879452D01*
X8328928Y-15888976D01*
X8309881Y-15888976D01*
X8290833Y-15879452D01*
X8281309Y-15869928D01*
X8271786Y-15850881D01*
X8262262Y-15812786D01*
X8262262Y-15765167D01*
X8271786Y-15727071D01*
X8281309Y-15708024D01*
X8290833Y-15698500D01*
X8309881Y-15688976D01*
X8462262Y-15888976D02*
X8462262Y-15755643D01*
X8462262Y-15774690D02*
X8471786Y-15765167D01*
X8490833Y-15755643D01*
X8519405Y-15755643D01*
X8538452Y-15765167D01*
X8547976Y-15784214D01*
X8547976Y-15888976D01*
X8547976Y-15784214D02*
X8557500Y-15765167D01*
X8576548Y-15755643D01*
X8605119Y-15755643D01*
X8624167Y-15765167D01*
X8633690Y-15784214D01*
X8633690Y-15888976D01*
X8728929Y-15888976D02*
X8728929Y-15755643D01*
X8728929Y-15774690D02*
X8738452Y-15765167D01*
X8757500Y-15755643D01*
X8786071Y-15755643D01*
X8805119Y-15765167D01*
X8814643Y-15784214D01*
X8814643Y-15888976D01*
X8814643Y-15784214D02*
X8824167Y-15765167D01*
X8843214Y-15755643D01*
X8871786Y-15755643D01*
X8890833Y-15765167D01*
X8900357Y-15784214D01*
X8900357Y-15888976D01*
X9290833Y-15679452D02*
X9119405Y-15936595D01*
X9547976Y-15688976D02*
X9567024Y-15688976D01*
X9586071Y-15698500D01*
X9595595Y-15708024D01*
X9605119Y-15727071D01*
X9614643Y-15765167D01*
X9614643Y-15812786D01*
X9605119Y-15850881D01*
X9595595Y-15869928D01*
X9586071Y-15879452D01*
X9567024Y-15888976D01*
X9547976Y-15888976D01*
X9528929Y-15879452D01*
X9519405Y-15869928D01*
X9509881Y-15850881D01*
X9500357Y-15812786D01*
X9500357Y-15765167D01*
X9509881Y-15727071D01*
X9519405Y-15708024D01*
X9528929Y-15698500D01*
X9547976Y-15688976D01*
X9700357Y-15869928D02*
X9709881Y-15879452D01*
X9700357Y-15888976D01*
X9690833Y-15879452D01*
X9700357Y-15869928D01*
X9700357Y-15888976D01*
X9833690Y-15688976D02*
X9852738Y-15688976D01*
X9871786Y-15698500D01*
X9881310Y-15708024D01*
X9890833Y-15727071D01*
X9900357Y-15765167D01*
X9900357Y-15812786D01*
X9890833Y-15850881D01*
X9881310Y-15869928D01*
X9871786Y-15879452D01*
X9852738Y-15888976D01*
X9833690Y-15888976D01*
X9814643Y-15879452D01*
X9805119Y-15869928D01*
X9795595Y-15850881D01*
X9786071Y-15812786D01*
X9786071Y-15765167D01*
X9795595Y-15727071D01*
X9805119Y-15708024D01*
X9814643Y-15698500D01*
X9833690Y-15688976D01*
X10071786Y-15755643D02*
X10071786Y-15888976D01*
X10024167Y-15679452D02*
X9976548Y-15822309D01*
X10100357Y-15822309D01*
X10205119Y-15774690D02*
X10186071Y-15765167D01*
X10176548Y-15755643D01*
X10167024Y-15736595D01*
X10167024Y-15727071D01*
X10176548Y-15708024D01*
X10186071Y-15698500D01*
X10205119Y-15688976D01*
X10243214Y-15688976D01*
X10262262Y-15698500D01*
X10271786Y-15708024D01*
X10281310Y-15727071D01*
X10281310Y-15736595D01*
X10271786Y-15755643D01*
X10262262Y-15765167D01*
X10243214Y-15774690D01*
X10205119Y-15774690D01*
X10186071Y-15784214D01*
X10176548Y-15793738D01*
X10167024Y-15812786D01*
X10167024Y-15850881D01*
X10176548Y-15869928D01*
X10186071Y-15879452D01*
X10205119Y-15888976D01*
X10243214Y-15888976D01*
X10262262Y-15879452D01*
X10271786Y-15869928D01*
X10281310Y-15850881D01*
X10281310Y-15812786D01*
X10271786Y-15793738D01*
X10262262Y-15784214D01*
X10243214Y-15774690D01*
X10405119Y-15688976D02*
X10424167Y-15688976D01*
X10443214Y-15698500D01*
X10452738Y-15708024D01*
X10462262Y-15727071D01*
X10471786Y-15765167D01*
X10471786Y-15812786D01*
X10462262Y-15850881D01*
X10452738Y-15869928D01*
X10443214Y-15879452D01*
X10424167Y-15888976D01*
X10405119Y-15888976D01*
X10386071Y-15879452D01*
X10376548Y-15869928D01*
X10367024Y-15850881D01*
X10357500Y-15812786D01*
X10357500Y-15765167D01*
X10367024Y-15727071D01*
X10376548Y-15708024D01*
X10386071Y-15698500D01*
X10405119Y-15688976D01*
X10547976Y-15688976D02*
X10547976Y-15727071D01*
X10624167Y-15688976D02*
X10624167Y-15727071D01*
X10919405Y-15965167D02*
X10909881Y-15955643D01*
X10890833Y-15927071D01*
X10881310Y-15908024D01*
X10871786Y-15879452D01*
X10862262Y-15831833D01*
X10862262Y-15793738D01*
X10871786Y-15746119D01*
X10881310Y-15717548D01*
X10890833Y-15698500D01*
X10909881Y-15669928D01*
X10919405Y-15660405D01*
X11090833Y-15688976D02*
X10995595Y-15688976D01*
X10986071Y-15784214D01*
X10995595Y-15774690D01*
X11014643Y-15765167D01*
X11062262Y-15765167D01*
X11081310Y-15774690D01*
X11090833Y-15784214D01*
X11100357Y-15803262D01*
X11100357Y-15850881D01*
X11090833Y-15869928D01*
X11081310Y-15879452D01*
X11062262Y-15888976D01*
X11014643Y-15888976D01*
X10995595Y-15879452D01*
X10986071Y-15869928D01*
X11338452Y-15888976D02*
X11338452Y-15688976D01*
X11424167Y-15888976D02*
X11424167Y-15784214D01*
X11414643Y-15765167D01*
X11395595Y-15755643D01*
X11367024Y-15755643D01*
X11347976Y-15765167D01*
X11338452Y-15774690D01*
X11547976Y-15888976D02*
X11528928Y-15879452D01*
X11519405Y-15869928D01*
X11509881Y-15850881D01*
X11509881Y-15793738D01*
X11519405Y-15774690D01*
X11528928Y-15765167D01*
X11547976Y-15755643D01*
X11576548Y-15755643D01*
X11595595Y-15765167D01*
X11605119Y-15774690D01*
X11614643Y-15793738D01*
X11614643Y-15850881D01*
X11605119Y-15869928D01*
X11595595Y-15879452D01*
X11576548Y-15888976D01*
X11547976Y-15888976D01*
X11728928Y-15888976D02*
X11709881Y-15879452D01*
X11700357Y-15860405D01*
X11700357Y-15688976D01*
X11881309Y-15879452D02*
X11862262Y-15888976D01*
X11824167Y-15888976D01*
X11805119Y-15879452D01*
X11795595Y-15860405D01*
X11795595Y-15784214D01*
X11805119Y-15765167D01*
X11824167Y-15755643D01*
X11862262Y-15755643D01*
X11881309Y-15765167D01*
X11890833Y-15784214D01*
X11890833Y-15803262D01*
X11795595Y-15822309D01*
X11967024Y-15879452D02*
X11986071Y-15888976D01*
X12024167Y-15888976D01*
X12043214Y-15879452D01*
X12052738Y-15860405D01*
X12052738Y-15850881D01*
X12043214Y-15831833D01*
X12024167Y-15822309D01*
X11995595Y-15822309D01*
X11976548Y-15812786D01*
X11967024Y-15793738D01*
X11967024Y-15784214D01*
X11976548Y-15765167D01*
X11995595Y-15755643D01*
X12024167Y-15755643D01*
X12043214Y-15765167D01*
X12119405Y-15965167D02*
X12128928Y-15955643D01*
X12147976Y-15927071D01*
X12157500Y-15908024D01*
X12167024Y-15879452D01*
X12176548Y-15831833D01*
X12176548Y-15793738D01*
X12167024Y-15746119D01*
X12157500Y-15717548D01*
X12147976Y-15698500D01*
X12128928Y-15669928D01*
X12119405Y-15660405D01*
D17*
X7205500Y-15991500D02*
X7347500Y-16133500D01*
X7347500Y-15991500D02*
X7205500Y-16133500D01*
X7347500Y-16062500D02*
G75*
G03*
X7347500Y-16062500I-71000J0D01*
G01*
D11*
X7709881Y-16152976D02*
X7595595Y-16152976D01*
X7652738Y-16152976D02*
X7652738Y-15952976D01*
X7633690Y-15981548D01*
X7614643Y-16000595D01*
X7595595Y-16010119D01*
X7795595Y-16133928D02*
X7805119Y-16143452D01*
X7795595Y-16152976D01*
X7786071Y-16143452D01*
X7795595Y-16133928D01*
X7795595Y-16152976D01*
X7976548Y-16019643D02*
X7976548Y-16152976D01*
X7928928Y-15943452D02*
X7881309Y-16086309D01*
X8005119Y-16086309D01*
X8071786Y-15972024D02*
X8081309Y-15962500D01*
X8100357Y-15952976D01*
X8147976Y-15952976D01*
X8167024Y-15962500D01*
X8176548Y-15972024D01*
X8186071Y-15991071D01*
X8186071Y-16010119D01*
X8176548Y-16038690D01*
X8062262Y-16152976D01*
X8186071Y-16152976D01*
X8309881Y-15952976D02*
X8328928Y-15952976D01*
X8347976Y-15962500D01*
X8357500Y-15972024D01*
X8367024Y-15991071D01*
X8376548Y-16029167D01*
X8376548Y-16076786D01*
X8367024Y-16114881D01*
X8357500Y-16133928D01*
X8347976Y-16143452D01*
X8328928Y-16152976D01*
X8309881Y-16152976D01*
X8290833Y-16143452D01*
X8281309Y-16133928D01*
X8271786Y-16114881D01*
X8262262Y-16076786D01*
X8262262Y-16029167D01*
X8271786Y-15991071D01*
X8281309Y-15972024D01*
X8290833Y-15962500D01*
X8309881Y-15952976D01*
X8462262Y-16152976D02*
X8462262Y-16019643D01*
X8462262Y-16038690D02*
X8471786Y-16029167D01*
X8490833Y-16019643D01*
X8519405Y-16019643D01*
X8538452Y-16029167D01*
X8547976Y-16048214D01*
X8547976Y-16152976D01*
X8547976Y-16048214D02*
X8557500Y-16029167D01*
X8576548Y-16019643D01*
X8605119Y-16019643D01*
X8624167Y-16029167D01*
X8633690Y-16048214D01*
X8633690Y-16152976D01*
X8728929Y-16152976D02*
X8728929Y-16019643D01*
X8728929Y-16038690D02*
X8738452Y-16029167D01*
X8757500Y-16019643D01*
X8786071Y-16019643D01*
X8805119Y-16029167D01*
X8814643Y-16048214D01*
X8814643Y-16152976D01*
X8814643Y-16048214D02*
X8824167Y-16029167D01*
X8843214Y-16019643D01*
X8871786Y-16019643D01*
X8890833Y-16029167D01*
X8900357Y-16048214D01*
X8900357Y-16152976D01*
X9290833Y-15943452D02*
X9119405Y-16200595D01*
X9547976Y-15952976D02*
X9567024Y-15952976D01*
X9586071Y-15962500D01*
X9595595Y-15972024D01*
X9605119Y-15991071D01*
X9614643Y-16029167D01*
X9614643Y-16076786D01*
X9605119Y-16114881D01*
X9595595Y-16133928D01*
X9586071Y-16143452D01*
X9567024Y-16152976D01*
X9547976Y-16152976D01*
X9528929Y-16143452D01*
X9519405Y-16133928D01*
X9509881Y-16114881D01*
X9500357Y-16076786D01*
X9500357Y-16029167D01*
X9509881Y-15991071D01*
X9519405Y-15972024D01*
X9528929Y-15962500D01*
X9547976Y-15952976D01*
X9700357Y-16133928D02*
X9709881Y-16143452D01*
X9700357Y-16152976D01*
X9690833Y-16143452D01*
X9700357Y-16133928D01*
X9700357Y-16152976D01*
X9833690Y-15952976D02*
X9852738Y-15952976D01*
X9871786Y-15962500D01*
X9881310Y-15972024D01*
X9890833Y-15991071D01*
X9900357Y-16029167D01*
X9900357Y-16076786D01*
X9890833Y-16114881D01*
X9881310Y-16133928D01*
X9871786Y-16143452D01*
X9852738Y-16152976D01*
X9833690Y-16152976D01*
X9814643Y-16143452D01*
X9805119Y-16133928D01*
X9795595Y-16114881D01*
X9786071Y-16076786D01*
X9786071Y-16029167D01*
X9795595Y-15991071D01*
X9805119Y-15972024D01*
X9814643Y-15962500D01*
X9833690Y-15952976D01*
X10081310Y-15952976D02*
X9986071Y-15952976D01*
X9976548Y-16048214D01*
X9986071Y-16038690D01*
X10005119Y-16029167D01*
X10052738Y-16029167D01*
X10071786Y-16038690D01*
X10081310Y-16048214D01*
X10090833Y-16067262D01*
X10090833Y-16114881D01*
X10081310Y-16133928D01*
X10071786Y-16143452D01*
X10052738Y-16152976D01*
X10005119Y-16152976D01*
X9986071Y-16143452D01*
X9976548Y-16133928D01*
X10271786Y-15952976D02*
X10176548Y-15952976D01*
X10167024Y-16048214D01*
X10176548Y-16038690D01*
X10195595Y-16029167D01*
X10243214Y-16029167D01*
X10262262Y-16038690D01*
X10271786Y-16048214D01*
X10281310Y-16067262D01*
X10281310Y-16114881D01*
X10271786Y-16133928D01*
X10262262Y-16143452D01*
X10243214Y-16152976D01*
X10195595Y-16152976D01*
X10176548Y-16143452D01*
X10167024Y-16133928D01*
X10376548Y-16152976D02*
X10414643Y-16152976D01*
X10433690Y-16143452D01*
X10443214Y-16133928D01*
X10462262Y-16105357D01*
X10471786Y-16067262D01*
X10471786Y-15991071D01*
X10462262Y-15972024D01*
X10452738Y-15962500D01*
X10433690Y-15952976D01*
X10395595Y-15952976D01*
X10376548Y-15962500D01*
X10367024Y-15972024D01*
X10357500Y-15991071D01*
X10357500Y-16038690D01*
X10367024Y-16057738D01*
X10376548Y-16067262D01*
X10395595Y-16076786D01*
X10433690Y-16076786D01*
X10452738Y-16067262D01*
X10462262Y-16057738D01*
X10471786Y-16038690D01*
X10547976Y-15952976D02*
X10547976Y-15991071D01*
X10624167Y-15952976D02*
X10624167Y-15991071D01*
X10919405Y-16229167D02*
X10909881Y-16219643D01*
X10890833Y-16191071D01*
X10881310Y-16172024D01*
X10871786Y-16143452D01*
X10862262Y-16095833D01*
X10862262Y-16057738D01*
X10871786Y-16010119D01*
X10881310Y-15981548D01*
X10890833Y-15962500D01*
X10909881Y-15933928D01*
X10919405Y-15924405D01*
X11090833Y-15952976D02*
X10995595Y-15952976D01*
X10986071Y-16048214D01*
X10995595Y-16038690D01*
X11014643Y-16029167D01*
X11062262Y-16029167D01*
X11081310Y-16038690D01*
X11090833Y-16048214D01*
X11100357Y-16067262D01*
X11100357Y-16114881D01*
X11090833Y-16133928D01*
X11081310Y-16143452D01*
X11062262Y-16152976D01*
X11014643Y-16152976D01*
X10995595Y-16143452D01*
X10986071Y-16133928D01*
X11338452Y-16152976D02*
X11338452Y-15952976D01*
X11424167Y-16152976D02*
X11424167Y-16048214D01*
X11414643Y-16029167D01*
X11395595Y-16019643D01*
X11367024Y-16019643D01*
X11347976Y-16029167D01*
X11338452Y-16038690D01*
X11547976Y-16152976D02*
X11528928Y-16143452D01*
X11519405Y-16133928D01*
X11509881Y-16114881D01*
X11509881Y-16057738D01*
X11519405Y-16038690D01*
X11528928Y-16029167D01*
X11547976Y-16019643D01*
X11576548Y-16019643D01*
X11595595Y-16029167D01*
X11605119Y-16038690D01*
X11614643Y-16057738D01*
X11614643Y-16114881D01*
X11605119Y-16133928D01*
X11595595Y-16143452D01*
X11576548Y-16152976D01*
X11547976Y-16152976D01*
X11728928Y-16152976D02*
X11709881Y-16143452D01*
X11700357Y-16124405D01*
X11700357Y-15952976D01*
X11881309Y-16143452D02*
X11862262Y-16152976D01*
X11824167Y-16152976D01*
X11805119Y-16143452D01*
X11795595Y-16124405D01*
X11795595Y-16048214D01*
X11805119Y-16029167D01*
X11824167Y-16019643D01*
X11862262Y-16019643D01*
X11881309Y-16029167D01*
X11890833Y-16048214D01*
X11890833Y-16067262D01*
X11795595Y-16086309D01*
X11967024Y-16143452D02*
X11986071Y-16152976D01*
X12024167Y-16152976D01*
X12043214Y-16143452D01*
X12052738Y-16124405D01*
X12052738Y-16114881D01*
X12043214Y-16095833D01*
X12024167Y-16086309D01*
X11995595Y-16086309D01*
X11976548Y-16076786D01*
X11967024Y-16057738D01*
X11967024Y-16048214D01*
X11976548Y-16029167D01*
X11995595Y-16019643D01*
X12024167Y-16019643D01*
X12043214Y-16029167D01*
X12119405Y-16229167D02*
X12128928Y-16219643D01*
X12147976Y-16191071D01*
X12157500Y-16172024D01*
X12167024Y-16143452D01*
X12176548Y-16095833D01*
X12176548Y-16057738D01*
X12167024Y-16010119D01*
X12157500Y-15981548D01*
X12147976Y-15962500D01*
X12128928Y-15933928D01*
X12119405Y-15924405D01*
D18*
X7204500Y-16255000D02*
X7347500Y-16398000D01*
X7347500Y-16255000D02*
X7204500Y-16398000D01*
X7276000Y-16255000D02*
X7276000Y-16398000D01*
X7204500Y-16326500D02*
X7347500Y-16326500D01*
D11*
X7709881Y-16416976D02*
X7595595Y-16416976D01*
X7652738Y-16416976D02*
X7652738Y-16216976D01*
X7633690Y-16245548D01*
X7614643Y-16264595D01*
X7595595Y-16274119D01*
X7795595Y-16397928D02*
X7805119Y-16407452D01*
X7795595Y-16416976D01*
X7786071Y-16407452D01*
X7795595Y-16397928D01*
X7795595Y-16416976D01*
X7976548Y-16283643D02*
X7976548Y-16416976D01*
X7928928Y-16207452D02*
X7881309Y-16350309D01*
X8005119Y-16350309D01*
X8062262Y-16216976D02*
X8186071Y-16216976D01*
X8119405Y-16293167D01*
X8147976Y-16293167D01*
X8167024Y-16302690D01*
X8176548Y-16312214D01*
X8186071Y-16331262D01*
X8186071Y-16378881D01*
X8176548Y-16397928D01*
X8167024Y-16407452D01*
X8147976Y-16416976D01*
X8090833Y-16416976D01*
X8071786Y-16407452D01*
X8062262Y-16397928D01*
X8309881Y-16216976D02*
X8328928Y-16216976D01*
X8347976Y-16226500D01*
X8357500Y-16236024D01*
X8367024Y-16255071D01*
X8376548Y-16293167D01*
X8376548Y-16340786D01*
X8367024Y-16378881D01*
X8357500Y-16397928D01*
X8347976Y-16407452D01*
X8328928Y-16416976D01*
X8309881Y-16416976D01*
X8290833Y-16407452D01*
X8281309Y-16397928D01*
X8271786Y-16378881D01*
X8262262Y-16340786D01*
X8262262Y-16293167D01*
X8271786Y-16255071D01*
X8281309Y-16236024D01*
X8290833Y-16226500D01*
X8309881Y-16216976D01*
X8462262Y-16416976D02*
X8462262Y-16283643D01*
X8462262Y-16302690D02*
X8471786Y-16293167D01*
X8490833Y-16283643D01*
X8519405Y-16283643D01*
X8538452Y-16293167D01*
X8547976Y-16312214D01*
X8547976Y-16416976D01*
X8547976Y-16312214D02*
X8557500Y-16293167D01*
X8576548Y-16283643D01*
X8605119Y-16283643D01*
X8624167Y-16293167D01*
X8633690Y-16312214D01*
X8633690Y-16416976D01*
X8728929Y-16416976D02*
X8728929Y-16283643D01*
X8728929Y-16302690D02*
X8738452Y-16293167D01*
X8757500Y-16283643D01*
X8786071Y-16283643D01*
X8805119Y-16293167D01*
X8814643Y-16312214D01*
X8814643Y-16416976D01*
X8814643Y-16312214D02*
X8824167Y-16293167D01*
X8843214Y-16283643D01*
X8871786Y-16283643D01*
X8890833Y-16293167D01*
X8900357Y-16312214D01*
X8900357Y-16416976D01*
X9290833Y-16207452D02*
X9119405Y-16464595D01*
X9547976Y-16216976D02*
X9567024Y-16216976D01*
X9586071Y-16226500D01*
X9595595Y-16236024D01*
X9605119Y-16255071D01*
X9614643Y-16293167D01*
X9614643Y-16340786D01*
X9605119Y-16378881D01*
X9595595Y-16397928D01*
X9586071Y-16407452D01*
X9567024Y-16416976D01*
X9547976Y-16416976D01*
X9528929Y-16407452D01*
X9519405Y-16397928D01*
X9509881Y-16378881D01*
X9500357Y-16340786D01*
X9500357Y-16293167D01*
X9509881Y-16255071D01*
X9519405Y-16236024D01*
X9528929Y-16226500D01*
X9547976Y-16216976D01*
X9700357Y-16397928D02*
X9709881Y-16407452D01*
X9700357Y-16416976D01*
X9690833Y-16407452D01*
X9700357Y-16397928D01*
X9700357Y-16416976D01*
X9833690Y-16216976D02*
X9852738Y-16216976D01*
X9871786Y-16226500D01*
X9881310Y-16236024D01*
X9890833Y-16255071D01*
X9900357Y-16293167D01*
X9900357Y-16340786D01*
X9890833Y-16378881D01*
X9881310Y-16397928D01*
X9871786Y-16407452D01*
X9852738Y-16416976D01*
X9833690Y-16416976D01*
X9814643Y-16407452D01*
X9805119Y-16397928D01*
X9795595Y-16378881D01*
X9786071Y-16340786D01*
X9786071Y-16293167D01*
X9795595Y-16255071D01*
X9805119Y-16236024D01*
X9814643Y-16226500D01*
X9833690Y-16216976D01*
X10081310Y-16216976D02*
X9986071Y-16216976D01*
X9976548Y-16312214D01*
X9986071Y-16302690D01*
X10005119Y-16293167D01*
X10052738Y-16293167D01*
X10071786Y-16302690D01*
X10081310Y-16312214D01*
X10090833Y-16331262D01*
X10090833Y-16378881D01*
X10081310Y-16397928D01*
X10071786Y-16407452D01*
X10052738Y-16416976D01*
X10005119Y-16416976D01*
X9986071Y-16407452D01*
X9976548Y-16397928D01*
X10262262Y-16216976D02*
X10224167Y-16216976D01*
X10205119Y-16226500D01*
X10195595Y-16236024D01*
X10176548Y-16264595D01*
X10167024Y-16302690D01*
X10167024Y-16378881D01*
X10176548Y-16397928D01*
X10186071Y-16407452D01*
X10205119Y-16416976D01*
X10243214Y-16416976D01*
X10262262Y-16407452D01*
X10271786Y-16397928D01*
X10281310Y-16378881D01*
X10281310Y-16331262D01*
X10271786Y-16312214D01*
X10262262Y-16302690D01*
X10243214Y-16293167D01*
X10205119Y-16293167D01*
X10186071Y-16302690D01*
X10176548Y-16312214D01*
X10167024Y-16331262D01*
X10347976Y-16216976D02*
X10471786Y-16216976D01*
X10405119Y-16293167D01*
X10433690Y-16293167D01*
X10452738Y-16302690D01*
X10462262Y-16312214D01*
X10471786Y-16331262D01*
X10471786Y-16378881D01*
X10462262Y-16397928D01*
X10452738Y-16407452D01*
X10433690Y-16416976D01*
X10376548Y-16416976D01*
X10357500Y-16407452D01*
X10347976Y-16397928D01*
X10547976Y-16216976D02*
X10547976Y-16255071D01*
X10624167Y-16216976D02*
X10624167Y-16255071D01*
X10919405Y-16493167D02*
X10909881Y-16483643D01*
X10890833Y-16455071D01*
X10881310Y-16436024D01*
X10871786Y-16407452D01*
X10862262Y-16359833D01*
X10862262Y-16321738D01*
X10871786Y-16274119D01*
X10881310Y-16245548D01*
X10890833Y-16226500D01*
X10909881Y-16197928D01*
X10919405Y-16188405D01*
X11090833Y-16216976D02*
X10995595Y-16216976D01*
X10986071Y-16312214D01*
X10995595Y-16302690D01*
X11014643Y-16293167D01*
X11062262Y-16293167D01*
X11081310Y-16302690D01*
X11090833Y-16312214D01*
X11100357Y-16331262D01*
X11100357Y-16378881D01*
X11090833Y-16397928D01*
X11081310Y-16407452D01*
X11062262Y-16416976D01*
X11014643Y-16416976D01*
X10995595Y-16407452D01*
X10986071Y-16397928D01*
X11338452Y-16416976D02*
X11338452Y-16216976D01*
X11424167Y-16416976D02*
X11424167Y-16312214D01*
X11414643Y-16293167D01*
X11395595Y-16283643D01*
X11367024Y-16283643D01*
X11347976Y-16293167D01*
X11338452Y-16302690D01*
X11547976Y-16416976D02*
X11528928Y-16407452D01*
X11519405Y-16397928D01*
X11509881Y-16378881D01*
X11509881Y-16321738D01*
X11519405Y-16302690D01*
X11528928Y-16293167D01*
X11547976Y-16283643D01*
X11576548Y-16283643D01*
X11595595Y-16293167D01*
X11605119Y-16302690D01*
X11614643Y-16321738D01*
X11614643Y-16378881D01*
X11605119Y-16397928D01*
X11595595Y-16407452D01*
X11576548Y-16416976D01*
X11547976Y-16416976D01*
X11728928Y-16416976D02*
X11709881Y-16407452D01*
X11700357Y-16388405D01*
X11700357Y-16216976D01*
X11881309Y-16407452D02*
X11862262Y-16416976D01*
X11824167Y-16416976D01*
X11805119Y-16407452D01*
X11795595Y-16388405D01*
X11795595Y-16312214D01*
X11805119Y-16293167D01*
X11824167Y-16283643D01*
X11862262Y-16283643D01*
X11881309Y-16293167D01*
X11890833Y-16312214D01*
X11890833Y-16331262D01*
X11795595Y-16350309D01*
X11967024Y-16407452D02*
X11986071Y-16416976D01*
X12024167Y-16416976D01*
X12043214Y-16407452D01*
X12052738Y-16388405D01*
X12052738Y-16378881D01*
X12043214Y-16359833D01*
X12024167Y-16350309D01*
X11995595Y-16350309D01*
X11976548Y-16340786D01*
X11967024Y-16321738D01*
X11967024Y-16312214D01*
X11976548Y-16293167D01*
X11995595Y-16283643D01*
X12024167Y-16283643D01*
X12043214Y-16293167D01*
X12119405Y-16493167D02*
X12128928Y-16483643D01*
X12147976Y-16455071D01*
X12157500Y-16436024D01*
X12167024Y-16407452D01*
X12176548Y-16359833D01*
X12176548Y-16321738D01*
X12167024Y-16274119D01*
X12157500Y-16245548D01*
X12147976Y-16226500D01*
X12128928Y-16197928D01*
X12119405Y-16188405D01*
M02*
