M48
; DRILL file {KiCad (6.0.1)} date Mon Sep 12 08:19:54 2022
; FORMAT={-:-/ absolute / metric / decimal}
; #@! TF.CreationDate,2022-09-12T08:19:54+02:00
; #@! TF.GenerationSoftware,Kicad,Pcbnew,(6.0.1)
; #@! TF.FileFunction,Plated,1,2,PTH
FMAT,2
METRIC
; #@! TA.AperFunction,Plated,PTH,ViaDrill
T1C0.400
; #@! TA.AperFunction,Plated,PTH,ComponentDrill
T2C0.750
; #@! TA.AperFunction,Plated,PTH,ComponentDrill
T3C0.800
; #@! TA.AperFunction,Plated,PTH,ComponentDrill
T4C1.000
; #@! TA.AperFunction,Plated,PTH,ComponentDrill
T5C1.220
; #@! TA.AperFunction,Plated,PTH,ComponentDrill
T6C1.420
; #@! TA.AperFunction,Plated,PTH,ComponentDrill
T7C1.430
%
G90
G05
T1
X106.5Y-93.0
X107.5Y-89.0
X108.72Y-86.72
X115.0Y-104.75
T2
X81.64Y-93.73
X81.64Y-95.0
X81.64Y-96.27
X111.64Y-93.73
X111.64Y-95.0
X111.64Y-96.27
X141.64Y-93.73
X141.64Y-95.0
X141.64Y-96.27
X171.5Y-94.0
X171.5Y-95.27
X171.5Y-96.54
T3
X81.5Y-73.0
X81.5Y-78.0
X83.34Y-89.5
X83.34Y-100.5
X93.5Y-89.5
X93.5Y-100.5
X97.0Y-109.92
X97.0Y-120.08
X110.0Y-109.92
X110.0Y-120.08
X111.5Y-73.0
X111.5Y-78.0
X113.34Y-89.5
X113.34Y-100.5
X123.5Y-89.5
X123.5Y-100.5
X128.545Y-115.5
X129.7Y-121.875
X129.7Y-124.415
X129.7Y-126.955
X129.7Y-129.495
X129.7Y-132.035
X129.7Y-134.575
X129.7Y-137.115
X130.545Y-115.5
X131.5Y-85.92
X131.5Y-96.08
X135.0Y-85.92
X135.0Y-96.08
X136.5Y-115.5
X137.32Y-121.875
X137.32Y-124.415
X137.32Y-126.955
X137.32Y-129.495
X137.32Y-132.035
X137.32Y-134.575
X137.32Y-137.115
X138.5Y-115.5
X143.34Y-100.5
X143.42Y-89.5
X153.5Y-100.5
X153.58Y-89.5
X155.42Y-73.0
X155.42Y-78.0
X157.0Y-109.92
X157.0Y-120.08
X173.34Y-89.5
X173.34Y-100.5
X177.42Y-128.0
X183.5Y-89.5
X183.5Y-100.5
X185.5Y-73.0
X185.5Y-78.0
X187.58Y-128.0
X188.0Y-109.84
X188.0Y-120.0
T4
X85.8Y-95.0
X85.96Y-92.46
X85.96Y-97.54
X86.0Y-45.55
X86.0Y-66.05
X86.0Y-120.05
X88.5Y-45.55
X88.5Y-66.05
X88.5Y-120.05
X91.0Y-45.55
X91.0Y-66.05
X91.0Y-120.05
X91.04Y-92.46
X91.04Y-97.54
X91.2Y-95.0
X103.5Y-50.5
X103.5Y-53.04
X103.5Y-55.58
X103.5Y-58.12
X103.5Y-101.0
X103.5Y-103.54
X103.5Y-106.08
X103.5Y-108.62
X103.5Y-127.5
X103.5Y-130.04
X103.5Y-132.58
X115.96Y-92.46
X115.96Y-97.54
X116.0Y-45.55
X116.0Y-66.05
X116.0Y-120.05
X118.5Y-45.55
X118.5Y-66.05
X118.5Y-92.3
X118.5Y-97.7
X118.5Y-120.05
X121.0Y-45.55
X121.0Y-66.05
X121.0Y-120.05
X121.04Y-92.46
X121.04Y-97.54
X133.5Y-50.5
X133.5Y-53.04
X133.5Y-55.58
X133.5Y-58.12
X133.5Y-101.0
X133.5Y-103.54
X133.5Y-106.08
X133.5Y-108.62
X145.96Y-92.46
X145.96Y-97.54
X146.0Y-45.55
X146.0Y-66.05
X146.0Y-120.05
X148.5Y-45.55
X148.5Y-66.05
X148.5Y-92.3
X148.5Y-97.7
X148.5Y-120.05
X151.0Y-45.55
X151.0Y-66.05
X151.0Y-120.05
X151.04Y-92.46
X151.04Y-97.54
X175.8Y-95.0
X175.96Y-92.46
X175.96Y-97.54
X176.0Y-45.55
X176.0Y-66.05
X176.0Y-120.05
X178.5Y-45.55
X178.5Y-66.05
X178.5Y-120.05
X181.0Y-45.55
X181.0Y-66.05
X181.0Y-120.05
X181.04Y-92.46
X181.04Y-97.54
X181.2Y-95.0
T5
X88.5Y-73.1
X118.5Y-73.1
X148.5Y-73.1
X176.02Y-135.0
X178.5Y-73.1
T6
X88.5Y-76.2
X118.5Y-76.2
X148.5Y-76.2
X178.5Y-76.2
X179.12Y-135.0
T7
X88.5Y-84.5
X118.5Y-84.5
X148.5Y-84.5
X178.5Y-84.5
X187.42Y-135.0
T0
M30
